<?xml version="1.0" encoding="UTF-8" standalone="no"?>
<!DOCTYPE svg PUBLIC "-//W3C//DTD SVG 1.1//EN"
 "http://www.w3.org/Graphics/SVG/1.1/DTD/svg11.dtd">
<!-- Generated by graphviz version 2.40.1 (20161225.0304)
 -->
<!-- Title: /travis/pairinteraction/Basisnames.h Pages: 1 -->
<!--zoomable 452 -->
<svg id="main" version="1.1" xmlns="http://www.w3.org/2000/svg" xmlns:xlink="http://www.w3.org/1999/xlink" xml:space="preserve" onload="init(evt)">
<style type="text/css"><![CDATA[
.edge:hover path { stroke: red; }
.edge:hover polygon { stroke: red; fill: red; }
]]></style>
<script type="text/javascript"><![CDATA[
var edges = document.getElementsByTagName('g');
if (edges && edges.length) {
  for (var i=0;i<edges.length;i++) {
    if (edges[i].id.substr(0,4)=='edge') {
      edges[i].setAttribute('class','edge');
    }
  }
}
]]></script>
        <defs>
                <circle id="rim" cx="0" cy="0" r="7"/>
                <circle id="rim2" cx="0" cy="0" r="3.5"/>
                <g id="zoomPlus">
                        <use xlink:href="#rim" fill="#404040">
                                <set attributeName="fill" to="#808080" begin="zoomplus.mouseover" end="zoomplus.mouseout"/>
                        </use>
                        <path d="M-4,0h8M0,-4v8" fill="none" stroke="white" stroke-width="1.5" pointer-events="none"/>
                </g>
                <g id="zoomMin">
                        <use xlink:href="#rim" fill="#404040">
                                <set attributeName="fill" to="#808080" begin="zoomminus.mouseover" end="zoomminus.mouseout"/>
                        </use>
                        <path d="M-4,0h8" fill="none" stroke="white" stroke-width="1.5" pointer-events="none"/>
                </g>
                <g id="dirArrow">
                        <path fill="none" stroke="white" stroke-width="1.5" d="M0,-3.0v7 M-2.5,-0.5L0,-3.0L2.5,-0.5"/>
                </g>
               <g id="resetDef">
                       <use xlink:href="#rim2" fill="#404040">
                               <set attributeName="fill" to="#808080" begin="reset.mouseover" end="reset.mouseout"/>
                       </use>
               </g>
        </defs>

<script type="text/javascript">
var viewWidth = 1218;
var viewHeight = 452;
var sectionId = 'dynsection-1';
</script>
<script xlink:href="svgpan.js"/>
<svg id="graph" class="graph">
<g id="viewport">
<title>/travis/pairinteraction/Basisnames.h</title>
<!-- Node24 -->
<g id="node1" class="node">
<title>Node24</title>
<polygon fill="#bfbfbf" stroke="#000000" points="381,-413.5 381,-443.5 503,-443.5 503,-413.5 381,-413.5"/>
<text text-anchor="start" x="389" y="-431.5" font-family="Helvetica,sans-Serif" font-size="10.00" fill="#000000">/travis/pairinteraction</text>
<text text-anchor="middle" x="442" y="-420.5" font-family="Helvetica,sans-Serif" font-size="10.00" fill="#000000">/Basisnames.h</text>
</g>
<!-- Node25 -->
<g id="node2" class="node">
<title>Node25</title>
<g id="a_node2"><a xlink:href="Basisnames_8cpp.html" target="_top" xlink:title="/travis/pairinteraction\l/Basisnames.cpp">
<polygon fill="none" stroke="#000000" points="0,-346.5 0,-376.5 122,-376.5 122,-346.5 0,-346.5"/>
<text text-anchor="start" x="8" y="-364.5" font-family="Helvetica,sans-Serif" font-size="10.00" fill="#000000">/travis/pairinteraction</text>
<text text-anchor="middle" x="61" y="-353.5" font-family="Helvetica,sans-Serif" font-size="10.00" fill="#000000">/Basisnames.cpp</text>
</a>
</g>
</g>
<!-- Node24&#45;&gt;Node25 -->
<g id="edge1" class="edge">
<title>Node24&#45;&gt;Node25</title>
<path fill="none" stroke="#191970" d="M370.8391,-417.2896C308.7364,-407.3234 216.2527,-392.0407 136,-377 131.5567,-376.1673 126.9708,-375.2823 122.3584,-374.3737"/>
<polygon fill="#191970" stroke="#191970" points="370.4935,-420.7787 380.9211,-418.9036 371.6001,-413.8667 370.4935,-420.7787"/>
</g>
<!-- Node26 -->
<g id="node3" class="node">
<title>Node26</title>
<g id="a_node3"><a xlink:href="Hamiltonianmatrix_8h.html" target="_top" xlink:title="/travis/pairinteraction\l/Hamiltonianmatrix.h">
<polygon fill="none" stroke="#000000" points="323,-346.5 323,-376.5 445,-376.5 445,-346.5 323,-346.5"/>
<text text-anchor="start" x="331" y="-364.5" font-family="Helvetica,sans-Serif" font-size="10.00" fill="#000000">/travis/pairinteraction</text>
<text text-anchor="middle" x="384" y="-353.5" font-family="Helvetica,sans-Serif" font-size="10.00" fill="#000000">/Hamiltonianmatrix.h</text>
</a>
</g>
</g>
<!-- Node24&#45;&gt;Node26 -->
<g id="edge2" class="edge">
<title>Node24&#45;&gt;Node26</title>
<path fill="none" stroke="#191970" d="M422.2094,-405.6385C413.9222,-396.0653 404.5153,-385.1987 397.109,-376.6432"/>
<polygon fill="#191970" stroke="#191970" points="419.6476,-408.0268 428.8389,-413.2967 424.9401,-403.4453 419.6476,-408.0268"/>
</g>
<!-- Node28 -->
<g id="node5" class="node">
<title>Node28</title>
<g id="a_node5"><a xlink:href="HamiltonianOne_8h.html" target="_top" xlink:title="/travis/pairinteraction\l/HamiltonianOne.h">
<polygon fill="none" stroke="#000000" points="189,-212.5 189,-242.5 311,-242.5 311,-212.5 189,-212.5"/>
<text text-anchor="start" x="197" y="-230.5" font-family="Helvetica,sans-Serif" font-size="10.00" fill="#000000">/travis/pairinteraction</text>
<text text-anchor="middle" x="250" y="-219.5" font-family="Helvetica,sans-Serif" font-size="10.00" fill="#000000">/HamiltonianOne.h</text>
</a>
</g>
</g>
<!-- Node24&#45;&gt;Node28 -->
<g id="edge12" class="edge">
<title>Node24&#45;&gt;Node28</title>
<path fill="none" stroke="#191970" d="M370.5266,-419.6686C305.3145,-407.373 212.6651,-378.2775 169,-310 161.577,-298.3929 162.3676,-291.0764 169,-279 177.9845,-262.6409 194.6115,-250.7386 210.4741,-242.5246"/>
<polygon fill="#191970" stroke="#191970" points="370.2847,-423.181 380.7455,-421.5011 371.5203,-416.2909 370.2847,-423.181"/>
</g>
<!-- Node30 -->
<g id="node7" class="node">
<title>Node30</title>
<g id="a_node7"><a xlink:href="HamiltonianTwo_8h.html" target="_top" xlink:title="/travis/pairinteraction\l/HamiltonianTwo.h">
<polygon fill="none" stroke="#000000" points="341,-145.5 341,-175.5 463,-175.5 463,-145.5 341,-145.5"/>
<text text-anchor="start" x="349" y="-163.5" font-family="Helvetica,sans-Serif" font-size="10.00" fill="#000000">/travis/pairinteraction</text>
<text text-anchor="middle" x="402" y="-152.5" font-family="Helvetica,sans-Serif" font-size="10.00" fill="#000000">/HamiltonianTwo.h</text>
</a>
</g>
</g>
<!-- Node24&#45;&gt;Node30 -->
<g id="edge17" class="edge">
<title>Node24&#45;&gt;Node30</title>
<path fill="none" stroke="#191970" d="M487.141,-408.7646C524.7744,-389.5743 575.8406,-356.496 599,-310 618.4192,-271.0131 625.6202,-246.4739 599,-212 582.3907,-190.4905 514.6734,-176.2414 463.2287,-168.2902"/>
<polygon fill="#191970" stroke="#191970" points="485.2978,-405.7716 477.8878,-413.344 488.4027,-412.0453 485.2978,-405.7716"/>
</g>
<!-- Node34 -->
<g id="node11" class="node">
<title>Node34</title>
<g id="a_node11"><a xlink:href="MatrixElements_8h.html" target="_top" xlink:title="/travis/pairinteraction\l/MatrixElements.h">
<polygon fill="none" stroke="#000000" points="468,-279.5 468,-309.5 590,-309.5 590,-279.5 468,-279.5"/>
<text text-anchor="start" x="476" y="-297.5" font-family="Helvetica,sans-Serif" font-size="10.00" fill="#000000">/travis/pairinteraction</text>
<text text-anchor="middle" x="529" y="-286.5" font-family="Helvetica,sans-Serif" font-size="10.00" fill="#000000">/MatrixElements.h</text>
</a>
</g>
</g>
<!-- Node24&#45;&gt;Node34 -->
<g id="edge13" class="edge">
<title>Node24&#45;&gt;Node34</title>
<path fill="none" stroke="#191970" d="M457.3949,-404.7882C475.2092,-377.3502 504.0199,-332.9751 519.0915,-309.7614"/>
<polygon fill="#191970" stroke="#191970" points="454.3209,-403.0957 451.8109,-413.389 460.192,-406.9076 454.3209,-403.0957"/>
</g>
<!-- Node36 -->
<g id="node13" class="node">
<title>Node36</title>
<g id="a_node13"><a xlink:href="MatrixElementCache_8h.html" target="_top" xlink:title="/travis/pairinteraction\l/MatrixElementCache.h">
<polygon fill="none" stroke="#000000" points="802,-346.5 802,-376.5 932,-376.5 932,-346.5 802,-346.5"/>
<text text-anchor="start" x="810" y="-364.5" font-family="Helvetica,sans-Serif" font-size="10.00" fill="#000000">/travis/pairinteraction</text>
<text text-anchor="middle" x="867" y="-353.5" font-family="Helvetica,sans-Serif" font-size="10.00" fill="#000000">/MatrixElementCache.h</text>
</a>
</g>
</g>
<!-- Node24&#45;&gt;Node36 -->
<g id="edge18" class="edge">
<title>Node24&#45;&gt;Node36</title>
<path fill="none" stroke="#191970" d="M513.4042,-417.2433C593.9773,-404.5412 723.9265,-384.0551 801.8374,-371.7727"/>
<polygon fill="#191970" stroke="#191970" points="512.6777,-413.8146 503.3448,-418.8292 513.7678,-420.7292 512.6777,-413.8146"/>
</g>
<!-- Node27 -->
<g id="node4" class="node">
<title>Node27</title>
<g id="a_node4"><a xlink:href="Hamiltonian_8h.html" target="_top" xlink:title="/travis/pairinteraction\l/Hamiltonian.h">
<polygon fill="none" stroke="#000000" points="178,-279.5 178,-309.5 300,-309.5 300,-279.5 178,-279.5"/>
<text text-anchor="start" x="186" y="-297.5" font-family="Helvetica,sans-Serif" font-size="10.00" fill="#000000">/travis/pairinteraction</text>
<text text-anchor="middle" x="239" y="-286.5" font-family="Helvetica,sans-Serif" font-size="10.00" fill="#000000">/Hamiltonian.h</text>
</a>
</g>
</g>
<!-- Node26&#45;&gt;Node27 -->
<g id="edge3" class="edge">
<title>Node26&#45;&gt;Node27</title>
<path fill="none" stroke="#191970" d="M342.1764,-342.1746C319.7549,-331.8143 292.534,-319.2364 271.6828,-309.6017"/>
<polygon fill="#191970" stroke="#191970" points="340.9133,-345.4465 351.4592,-346.4639 343.8495,-339.0921 340.9133,-345.4465"/>
</g>
<!-- Node33 -->
<g id="node10" class="node">
<title>Node33</title>
<g id="a_node10"><a xlink:href="Hamiltonianmatrix_8cpp.html" target="_top" xlink:title="/travis/pairinteraction\l/Hamiltonianmatrix.cpp">
<polygon fill="none" stroke="#000000" points="318,-279.5 318,-309.5 450,-309.5 450,-279.5 318,-279.5"/>
<text text-anchor="start" x="326" y="-297.5" font-family="Helvetica,sans-Serif" font-size="10.00" fill="#000000">/travis/pairinteraction</text>
<text text-anchor="middle" x="384" y="-286.5" font-family="Helvetica,sans-Serif" font-size="10.00" fill="#000000">/Hamiltonianmatrix.cpp</text>
</a>
</g>
</g>
<!-- Node26&#45;&gt;Node33 -->
<g id="edge11" class="edge">
<title>Node26&#45;&gt;Node33</title>
<path fill="none" stroke="#191970" d="M384,-336.0249C384,-327.128 384,-317.4287 384,-309.6432"/>
<polygon fill="#191970" stroke="#191970" points="380.5001,-336.2966 384,-346.2967 387.5001,-336.2967 380.5001,-336.2966"/>
</g>
<!-- Node27&#45;&gt;Node28 -->
<g id="edge4" class="edge">
<title>Node27&#45;&gt;Node28</title>
<path fill="none" stroke="#191970" d="M243.1344,-269.3179C244.6081,-260.3414 246.2215,-250.5143 247.5138,-242.6432"/>
<polygon fill="#191970" stroke="#191970" points="239.6625,-268.8617 241.4961,-279.2967 246.57,-269.9958 239.6625,-268.8617"/>
</g>
<!-- Node27&#45;&gt;Node30 -->
<g id="edge10" class="edge">
<title>Node27&#45;&gt;Node30</title>
<path fill="none" stroke="#191970" d="M274.6583,-274.1933C289.2197,-265.3063 305.9133,-254.3305 320,-243 346.4361,-221.7363 373.4893,-192.8514 388.9645,-175.5057"/>
<polygon fill="#191970" stroke="#191970" points="272.6847,-271.2958 265.9097,-279.4413 276.2856,-277.2986 272.6847,-271.2958"/>
</g>
<!-- Node29 -->
<g id="node6" class="node">
<title>Node29</title>
<g id="a_node6"><a xlink:href="HamiltonianOne_8cpp.html" target="_top" xlink:title="/travis/pairinteraction\l/HamiltonianOne.cpp">
<polygon fill="none" stroke="#000000" points="144,-145.5 144,-175.5 266,-175.5 266,-145.5 144,-145.5"/>
<text text-anchor="start" x="152" y="-163.5" font-family="Helvetica,sans-Serif" font-size="10.00" fill="#000000">/travis/pairinteraction</text>
<text text-anchor="middle" x="205" y="-152.5" font-family="Helvetica,sans-Serif" font-size="10.00" fill="#000000">/HamiltonianOne.cpp</text>
</a>
</g>
</g>
<!-- Node28&#45;&gt;Node29 -->
<g id="edge5" class="edge">
<title>Node28&#45;&gt;Node29</title>
<path fill="none" stroke="#191970" d="M234.0643,-203.7735C227.779,-194.4154 220.7447,-183.9421 215.1708,-175.6432"/>
<polygon fill="#191970" stroke="#191970" points="231.3077,-205.9467 239.7888,-212.2967 237.1187,-202.0438 231.3077,-205.9467"/>
</g>
<!-- Node28&#45;&gt;Node30 -->
<g id="edge6" class="edge">
<title>Node28&#45;&gt;Node30</title>
<path fill="none" stroke="#191970" d="M293.5282,-208.3132C317.0917,-197.9267 345.784,-185.2794 367.7395,-175.6017"/>
<polygon fill="#191970" stroke="#191970" points="291.8505,-205.2277 284.1118,-212.4639 294.674,-211.6331 291.8505,-205.2277"/>
</g>
<!-- Node32 -->
<g id="node9" class="node">
<title>Node32</title>
<g id="a_node9"><a xlink:href="Interface_8cpp.html" target="_top" xlink:title="/travis/pairinteraction\l/Interface.cpp">
<polygon fill="none" stroke="#000000" points="233,-78.5 233,-108.5 355,-108.5 355,-78.5 233,-78.5"/>
<text text-anchor="start" x="241" y="-96.5" font-family="Helvetica,sans-Serif" font-size="10.00" fill="#000000">/travis/pairinteraction</text>
<text text-anchor="middle" x="294" y="-85.5" font-family="Helvetica,sans-Serif" font-size="10.00" fill="#000000">/Interface.cpp</text>
</a>
</g>
</g>
<!-- Node28&#45;&gt;Node32 -->
<g id="edge9" class="edge">
<title>Node28&#45;&gt;Node32</title>
<path fill="none" stroke="#191970" d="M263.1941,-203.1932C267.3944,-194.7583 271.7809,-185.1252 275,-176 283.0679,-153.1299 288.6288,-125.4686 291.5628,-108.693"/>
<polygon fill="#191970" stroke="#191970" points="260.0659,-201.623 258.603,-212.1164 266.2904,-204.8256 260.0659,-201.623"/>
</g>
<!-- Node31 -->
<g id="node8" class="node">
<title>Node31</title>
<g id="a_node8"><a xlink:href="HamiltonianTwo_8cpp.html" target="_top" xlink:title="/travis/pairinteraction\l/HamiltonianTwo.cpp">
<polygon fill="none" stroke="#000000" points="373,-78.5 373,-108.5 495,-108.5 495,-78.5 373,-78.5"/>
<text text-anchor="start" x="381" y="-96.5" font-family="Helvetica,sans-Serif" font-size="10.00" fill="#000000">/travis/pairinteraction</text>
<text text-anchor="middle" x="434" y="-85.5" font-family="Helvetica,sans-Serif" font-size="10.00" fill="#000000">/HamiltonianTwo.cpp</text>
</a>
</g>
</g>
<!-- Node30&#45;&gt;Node31 -->
<g id="edge7" class="edge">
<title>Node30&#45;&gt;Node31</title>
<path fill="none" stroke="#191970" d="M413.6092,-136.1932C418.0075,-126.9844 422.8855,-116.771 426.7674,-108.6432"/>
<polygon fill="#191970" stroke="#191970" points="410.4129,-134.7646 409.2613,-145.2967 416.7294,-137.7815 410.4129,-134.7646"/>
</g>
<!-- Node30&#45;&gt;Node32 -->
<g id="edge8" class="edge">
<title>Node30&#45;&gt;Node32</title>
<path fill="none" stroke="#191970" d="M369.0779,-140.0761C352.7995,-129.9774 333.4899,-117.9983 318.5301,-108.7177"/>
<polygon fill="#191970" stroke="#191970" points="367.42,-143.1663 377.7627,-145.4639 371.1102,-137.218 367.42,-143.1663"/>
</g>
<!-- Node34&#45;&gt;Node28 -->
<g id="edge14" class="edge">
<title>Node34&#45;&gt;Node28</title>
<path fill="none" stroke="#191970" d="M458.0027,-277.4505C412.6276,-266.5539 354.3901,-252.5686 311.0849,-242.1691"/>
<polygon fill="#191970" stroke="#191970" points="457.2314,-280.8647 467.7723,-279.7966 458.866,-274.0582 457.2314,-280.8647"/>
</g>
<!-- Node34&#45;&gt;Node30 -->
<g id="edge15" class="edge">
<title>Node34&#45;&gt;Node30</title>
<path fill="none" stroke="#191970" d="M496.1186,-273.702C483.7439,-265.035 470.0146,-254.3466 459,-243 438.6285,-222.0144 420.4467,-193.0426 410.354,-175.6042"/>
<polygon fill="#191970" stroke="#191970" points="494.1855,-276.6201 504.4192,-279.3626 498.1293,-270.8368 494.1855,-276.6201"/>
</g>
<!-- Node35 -->
<g id="node12" class="node">
<title>Node35</title>
<g id="a_node12"><a xlink:href="MatrixElements_8cpp.html" target="_top" xlink:title="/travis/pairinteraction\l/MatrixElements.cpp">
<polygon fill="none" stroke="#000000" points="468,-212.5 468,-242.5 590,-242.5 590,-212.5 468,-212.5"/>
<text text-anchor="start" x="476" y="-230.5" font-family="Helvetica,sans-Serif" font-size="10.00" fill="#000000">/travis/pairinteraction</text>
<text text-anchor="middle" x="529" y="-219.5" font-family="Helvetica,sans-Serif" font-size="10.00" fill="#000000">/MatrixElements.cpp</text>
</a>
</g>
</g>
<!-- Node34&#45;&gt;Node35 -->
<g id="edge16" class="edge">
<title>Node34&#45;&gt;Node35</title>
<path fill="none" stroke="#191970" d="M529,-269.0249C529,-260.128 529,-250.4287 529,-242.6432"/>
<polygon fill="#191970" stroke="#191970" points="525.5001,-269.2966 529,-279.2967 532.5001,-269.2967 525.5001,-269.2966"/>
</g>
<!-- Node37 -->
<g id="node14" class="node">
<title>Node37</title>
<g id="a_node14"><a xlink:href="MatrixElementCache_8cpp.html" target="_top" xlink:title="/travis/pairinteraction\l/MatrixElementCache.cpp">
<polygon fill="none" stroke="#000000" points="659.5,-279.5 659.5,-309.5 800.5,-309.5 800.5,-279.5 659.5,-279.5"/>
<text text-anchor="start" x="667.5" y="-297.5" font-family="Helvetica,sans-Serif" font-size="10.00" fill="#000000">/travis/pairinteraction</text>
<text text-anchor="middle" x="730" y="-286.5" font-family="Helvetica,sans-Serif" font-size="10.00" fill="#000000">/MatrixElementCache.cpp</text>
</a>
</g>
</g>
<!-- Node36&#45;&gt;Node37 -->
<g id="edge19" class="edge">
<title>Node36&#45;&gt;Node37</title>
<path fill="none" stroke="#191970" d="M827.2328,-342.0518C806.1816,-331.7567 780.7086,-319.2991 761.1169,-309.7177"/>
<polygon fill="#191970" stroke="#191970" points="825.7336,-345.2147 836.2545,-346.4639 828.8089,-338.9264 825.7336,-345.2147"/>
</g>
<!-- Node38 -->
<g id="node15" class="node">
<title>Node38</title>
<g id="a_node15"><a xlink:href="State_8h.html" target="_top" xlink:title="/travis/pairinteraction\l/State.h">
<polygon fill="none" stroke="#000000" points="895,-279.5 895,-309.5 1017,-309.5 1017,-279.5 895,-279.5"/>
<text text-anchor="start" x="903" y="-297.5" font-family="Helvetica,sans-Serif" font-size="10.00" fill="#000000">/travis/pairinteraction</text>
<text text-anchor="middle" x="956" y="-286.5" font-family="Helvetica,sans-Serif" font-size="10.00" fill="#000000">/State.h</text>
</a>
</g>
</g>
<!-- Node36&#45;&gt;Node38 -->
<g id="edge20" class="edge">
<title>Node36&#45;&gt;Node38</title>
<path fill="none" stroke="#191970" d="M889.4864,-339.7808C901.8906,-329.9383 917.2339,-318.541 930.1309,-309.6432"/>
<polygon fill="#191970" stroke="#191970" points="887.0064,-337.2852 881.4347,-346.2967 891.4099,-342.7267 887.0064,-337.2852"/>
</g>
<!-- Node39 -->
<g id="node16" class="node">
<title>Node39</title>
<g id="a_node16"><a xlink:href="PerturbativeInteraction_8h.html" target="_top" xlink:title="/travis/pairinteraction\l/PerturbativeInteraction.h">
<polygon fill="none" stroke="#000000" points="646.5,-212.5 646.5,-242.5 787.5,-242.5 787.5,-212.5 646.5,-212.5"/>
<text text-anchor="start" x="654.5" y="-230.5" font-family="Helvetica,sans-Serif" font-size="10.00" fill="#000000">/travis/pairinteraction</text>
<text text-anchor="middle" x="717" y="-219.5" font-family="Helvetica,sans-Serif" font-size="10.00" fill="#000000">/PerturbativeInteraction.h</text>
</a>
</g>
</g>
<!-- Node36&#45;&gt;Node39 -->
<g id="edge37" class="edge">
<title>Node36&#45;&gt;Node39</title>
<path fill="none" stroke="#191970" d="M853.8496,-337.1214C843.4158,-319.4156 827.534,-295.7265 809,-279 792.2857,-263.9158 770.3946,-251.4378 752.1597,-242.5437"/>
<polygon fill="#191970" stroke="#191970" points="851.0699,-339.3117 859.068,-346.2602 857.1487,-335.8406 851.0699,-339.3117"/>
</g>
<!-- Node42 -->
<g id="node19" class="node">
<title>Node42</title>
<g id="a_node19"><a xlink:href="SystemBase_8h.html" target="_top" xlink:title="/travis/pairinteraction\l/SystemBase.h">
<polygon fill="none" stroke="#000000" points="806,-212.5 806,-242.5 928,-242.5 928,-212.5 806,-212.5"/>
<text text-anchor="start" x="814" y="-230.5" font-family="Helvetica,sans-Serif" font-size="10.00" fill="#000000">/travis/pairinteraction</text>
<text text-anchor="middle" x="867" y="-219.5" font-family="Helvetica,sans-Serif" font-size="10.00" fill="#000000">/SystemBase.h</text>
</a>
</g>
</g>
<!-- Node36&#45;&gt;Node42 -->
<g id="edge38" class="edge">
<title>Node36&#45;&gt;Node42</title>
<path fill="none" stroke="#191970" d="M867,-336.3415C867,-308.8131 867,-265.5714 867,-242.7614"/>
<polygon fill="#191970" stroke="#191970" points="863.5001,-336.3889 867,-346.389 870.5001,-336.389 863.5001,-336.3889"/>
</g>
<!-- Node48 -->
<g id="node25" class="node">
<title>Node48</title>
<g id="a_node25"><a xlink:href="integration__test_8cpp.html" target="_top" xlink:title="/travis/pairinteraction\l/unit_test/integration\l_test.cpp">
<polygon fill="none" stroke="#000000" points="1073,-.5 1073,-41.5 1195,-41.5 1195,-.5 1073,-.5"/>
<text text-anchor="start" x="1081" y="-29.5" font-family="Helvetica,sans-Serif" font-size="10.00" fill="#000000">/travis/pairinteraction</text>
<text text-anchor="start" x="1081" y="-18.5" font-family="Helvetica,sans-Serif" font-size="10.00" fill="#000000">/unit_test/integration</text>
<text text-anchor="middle" x="1134" y="-7.5" font-family="Helvetica,sans-Serif" font-size="10.00" fill="#000000">_test.cpp</text>
</a>
</g>
</g>
<!-- Node36&#45;&gt;Node48 -->
<g id="edge39" class="edge">
<title>Node36&#45;&gt;Node48</title>
<path fill="none" stroke="#191970" d="M942.1809,-347.7999C1043.1392,-327.2213 1210,-284.5763 1210,-227.5 1210,-227.5 1210,-227.5 1210,-160.5 1210,-113.6145 1176.4856,-67.4822 1153.9681,-41.7783"/>
<polygon fill="#191970" stroke="#191970" points="941.4369,-344.3794 932.323,-349.782 942.8168,-351.242 941.4369,-344.3794"/>
</g>
<!-- Node38&#45;&gt;Node36 -->
<g id="edge21" class="edge">
<title>Node38&#45;&gt;Node36</title>
<path fill="none" stroke="#191970" d="M933.5974,-316.1527C921.2065,-325.9882 905.8643,-337.3876 892.9563,-346.2967"/>
<polygon fill="#191970" stroke="#191970" points="936.068,-318.6557 941.638,-309.6432 931.6634,-313.2152 936.068,-318.6557"/>
</g>
<!-- Node38&#45;&gt;Node39 -->
<g id="edge22" class="edge">
<title>Node38&#45;&gt;Node39</title>
<path fill="none" stroke="#191970" d="M892.4482,-276.6842C854.5383,-266.0568 806.9265,-252.7095 770.8702,-242.6017"/>
<polygon fill="#191970" stroke="#191970" points="891.7902,-280.1346 902.3637,-279.4639 893.6797,-273.3945 891.7902,-280.1346"/>
</g>
<!-- Node41 -->
<g id="node18" class="node">
<title>Node41</title>
<g id="a_node18"><a xlink:href="State_8cpp.html" target="_top" xlink:title="/travis/pairinteraction\l/State.cpp">
<polygon fill="none" stroke="#000000" points="1060,-212.5 1060,-242.5 1182,-242.5 1182,-212.5 1060,-212.5"/>
<text text-anchor="start" x="1068" y="-230.5" font-family="Helvetica,sans-Serif" font-size="10.00" fill="#000000">/travis/pairinteraction</text>
<text text-anchor="middle" x="1121" y="-219.5" font-family="Helvetica,sans-Serif" font-size="10.00" fill="#000000">/State.cpp</text>
</a>
</g>
</g>
<!-- Node38&#45;&gt;Node41 -->
<g id="edge24" class="edge">
<title>Node38&#45;&gt;Node41</title>
<path fill="none" stroke="#191970" d="M1002.5702,-275.5897C1028.2755,-265.1518 1059.7642,-252.3654 1083.8093,-242.6017"/>
<polygon fill="#191970" stroke="#191970" points="1000.9777,-272.4587 993.0292,-279.4639 1003.6113,-278.9444 1000.9777,-272.4587"/>
</g>
<!-- Node38&#45;&gt;Node42 -->
<g id="edge25" class="edge">
<title>Node38&#45;&gt;Node42</title>
<path fill="none" stroke="#191970" d="M927.5257,-273.0643C914.3662,-263.1577 899.0487,-251.6265 887.1156,-242.6432"/>
<polygon fill="#191970" stroke="#191970" points="925.7103,-276.0785 935.8045,-279.2967 929.9203,-270.486 925.7103,-276.0785"/>
</g>
<!-- Node44 -->
<g id="node21" class="node">
<title>Node44</title>
<g id="a_node21"><a xlink:href="SystemOne_8h.html" target="_top" xlink:title="/travis/pairinteraction\l/SystemOne.h">
<polygon fill="none" stroke="#000000" points="984,-145.5 984,-175.5 1106,-175.5 1106,-145.5 984,-145.5"/>
<text text-anchor="start" x="992" y="-163.5" font-family="Helvetica,sans-Serif" font-size="10.00" fill="#000000">/travis/pairinteraction</text>
<text text-anchor="middle" x="1045" y="-152.5" font-family="Helvetica,sans-Serif" font-size="10.00" fill="#000000">/SystemOne.h</text>
</a>
</g>
</g>
<!-- Node38&#45;&gt;Node44 -->
<g id="edge34" class="edge">
<title>Node38&#45;&gt;Node44</title>
<path fill="none" stroke="#191970" d="M971.7489,-270.7882C989.9726,-243.3502 1019.4456,-198.9751 1034.8637,-175.7614"/>
<polygon fill="#191970" stroke="#191970" points="968.6536,-269.1225 966.0364,-279.389 974.4846,-272.9953 968.6536,-269.1225"/>
</g>
<!-- Node46 -->
<g id="node23" class="node">
<title>Node46</title>
<g id="a_node23"><a xlink:href="SystemTwo_8h.html" target="_top" xlink:title="/travis/pairinteraction\l/SystemTwo.h">
<polygon fill="none" stroke="#000000" points="825,-78.5 825,-108.5 947,-108.5 947,-78.5 825,-78.5"/>
<text text-anchor="start" x="833" y="-96.5" font-family="Helvetica,sans-Serif" font-size="10.00" fill="#000000">/travis/pairinteraction</text>
<text text-anchor="middle" x="886" y="-85.5" font-family="Helvetica,sans-Serif" font-size="10.00" fill="#000000">/SystemTwo.h</text>
</a>
</g>
</g>
<!-- Node38&#45;&gt;Node46 -->
<g id="edge35" class="edge">
<title>Node38&#45;&gt;Node46</title>
<path fill="none" stroke="#191970" d="M951.3752,-269.4192C948.0512,-252.9133 943.0897,-230.9388 937,-212 927.1208,-181.2757 921.8035,-174.6252 909,-145 903.7168,-132.7755 897.5558,-119.0049 892.9407,-108.781"/>
<polygon fill="#191970" stroke="#191970" points="947.97,-270.2437 953.3185,-279.3894 954.8407,-268.9045 947.97,-270.2437"/>
</g>
<!-- Node38&#45;&gt;Node48 -->
<g id="edge36" class="edge">
<title>Node38&#45;&gt;Node48</title>
<path fill="none" stroke="#191970" d="M980.7147,-272.5791C1006.3264,-249.9368 1043.6365,-217.1876 1051,-212 1077.6796,-193.2042 1096.8377,-203.1149 1115,-176 1142.6108,-134.7794 1140.4558,-73.2862 1136.9816,-41.5676"/>
<polygon fill="#191970" stroke="#191970" points="978.3572,-269.9916 973.1879,-279.2398 982.9962,-275.2337 978.3572,-269.9916"/>
</g>
<!-- Node40 -->
<g id="node17" class="node">
<title>Node40</title>
<g id="a_node17"><a xlink:href="PerturbativeInteraction_8cpp.html" target="_top" xlink:title="/travis/pairinteraction\l/PerturbativeInteraction.cpp">
<polygon fill="none" stroke="#000000" points="592,-145.5 592,-175.5 744,-175.5 744,-145.5 592,-145.5"/>
<text text-anchor="start" x="600" y="-163.5" font-family="Helvetica,sans-Serif" font-size="10.00" fill="#000000">/travis/pairinteraction</text>
<text text-anchor="middle" x="668" y="-152.5" font-family="Helvetica,sans-Serif" font-size="10.00" fill="#000000">/PerturbativeInteraction.cpp</text>
</a>
</g>
</g>
<!-- Node39&#45;&gt;Node40 -->
<g id="edge23" class="edge">
<title>Node39&#45;&gt;Node40</title>
<path fill="none" stroke="#191970" d="M699.8592,-204.0626C692.9619,-194.6315 685.2068,-184.0276 679.0749,-175.6432"/>
<polygon fill="#191970" stroke="#191970" points="697.1528,-206.2911 705.8811,-212.2967 702.803,-202.1588 697.1528,-206.2911"/>
</g>
<!-- Node43 -->
<g id="node20" class="node">
<title>Node43</title>
<g id="a_node20"><a xlink:href="SystemBase_8cpp.html" target="_top" xlink:title="/travis/pairinteraction\l/SystemBase.cpp">
<polygon fill="none" stroke="#000000" points="762,-145.5 762,-175.5 884,-175.5 884,-145.5 762,-145.5"/>
<text text-anchor="start" x="770" y="-163.5" font-family="Helvetica,sans-Serif" font-size="10.00" fill="#000000">/travis/pairinteraction</text>
<text text-anchor="middle" x="823" y="-152.5" font-family="Helvetica,sans-Serif" font-size="10.00" fill="#000000">/SystemBase.cpp</text>
</a>
</g>
</g>
<!-- Node42&#45;&gt;Node43 -->
<g id="edge26" class="edge">
<title>Node42&#45;&gt;Node43</title>
<path fill="none" stroke="#191970" d="M851.4184,-203.7735C845.2728,-194.4154 838.3948,-183.9421 832.9448,-175.6432"/>
<polygon fill="#191970" stroke="#191970" points="848.6008,-205.8592 857.0157,-212.2967 854.4519,-202.0167 848.6008,-205.8592"/>
</g>
<!-- Node42&#45;&gt;Node44 -->
<g id="edge27" class="edge">
<title>Node42&#45;&gt;Node44</title>
<path fill="none" stroke="#191970" d="M916.5079,-208.865C944.3707,-198.3773 978.7111,-185.4515 1004.8791,-175.6017"/>
<polygon fill="#191970" stroke="#191970" points="915.0727,-205.6654 906.9467,-212.4639 917.5386,-212.2167 915.0727,-205.6654"/>
</g>
<!-- Node42&#45;&gt;Node46 -->
<g id="edge33" class="edge">
<title>Node42&#45;&gt;Node46</title>
<path fill="none" stroke="#191970" d="M881.9765,-203.609C886.44,-195.2056 890.7412,-185.4861 893,-176 898.4939,-152.9273 893.9979,-125.3246 890.1073,-108.6162"/>
<polygon fill="#191970" stroke="#191970" points="878.8495,-202.0283 876.9684,-212.4548 884.941,-205.4771 878.8495,-202.0283"/>
</g>
<!-- Node45 -->
<g id="node22" class="node">
<title>Node45</title>
<g id="a_node22"><a xlink:href="SystemOne_8cpp.html" target="_top" xlink:title="/travis/pairinteraction\l/SystemOne.cpp">
<polygon fill="none" stroke="#000000" points="965,-78.5 965,-108.5 1087,-108.5 1087,-78.5 965,-78.5"/>
<text text-anchor="start" x="973" y="-96.5" font-family="Helvetica,sans-Serif" font-size="10.00" fill="#000000">/travis/pairinteraction</text>
<text text-anchor="middle" x="1026" y="-85.5" font-family="Helvetica,sans-Serif" font-size="10.00" fill="#000000">/SystemOne.cpp</text>
</a>
</g>
</g>
<!-- Node44&#45;&gt;Node45 -->
<g id="edge28" class="edge">
<title>Node44&#45;&gt;Node45</title>
<path fill="none" stroke="#191970" d="M1037.9417,-135.6103C1035.3739,-126.5553 1032.5507,-116.5998 1030.2943,-108.6432"/>
<polygon fill="#191970" stroke="#191970" points="1034.5931,-136.6309 1040.6886,-145.2967 1041.3275,-134.7211 1034.5931,-136.6309"/>
</g>
<!-- Node44&#45;&gt;Node46 -->
<g id="edge29" class="edge">
<title>Node44&#45;&gt;Node46</title>
<path fill="none" stroke="#191970" d="M999.7955,-141.4516C975.0855,-131.0392 944.9069,-118.3224 921.8383,-108.6017"/>
<polygon fill="#191970" stroke="#191970" points="998.7429,-144.806 1009.3173,-145.4639 1001.4612,-138.3553 998.7429,-144.806"/>
</g>
<!-- Node44&#45;&gt;Node48 -->
<g id="edge32" class="edge">
<title>Node44&#45;&gt;Node48</title>
<path fill="none" stroke="#191970" d="M1070.7439,-138.1907C1079.5319,-129.6774 1088.9181,-119.4843 1096,-109 1110.3449,-87.7632 1121.1824,-60.2317 1127.5413,-41.664"/>
<polygon fill="#191970" stroke="#191970" points="1068.1585,-135.8166 1063.248,-145.2048 1072.9413,-140.9279 1068.1585,-135.8166"/>
</g>
<!-- Node47 -->
<g id="node24" class="node">
<title>Node47</title>
<g id="a_node24"><a xlink:href="SystemTwo_8cpp.html" target="_top" xlink:title="/travis/pairinteraction\l/SystemTwo.cpp">
<polygon fill="none" stroke="#000000" points="825,-6 825,-36 947,-36 947,-6 825,-6"/>
<text text-anchor="start" x="833" y="-24" font-family="Helvetica,sans-Serif" font-size="10.00" fill="#000000">/travis/pairinteraction</text>
<text text-anchor="middle" x="886" y="-13" font-family="Helvetica,sans-Serif" font-size="10.00" fill="#000000">/SystemTwo.cpp</text>
</a>
</g>
</g>
<!-- Node46&#45;&gt;Node47 -->
<g id="edge30" class="edge">
<title>Node46&#45;&gt;Node47</title>
<path fill="none" stroke="#191970" d="M886,-68.3409C886,-57.5601 886,-45.3309 886,-36.0028"/>
<polygon fill="#191970" stroke="#191970" points="882.5001,-68.4779 886,-78.478 889.5001,-68.478 882.5001,-68.4779"/>
</g>
<!-- Node46&#45;&gt;Node48 -->
<g id="edge31" class="edge">
<title>Node46&#45;&gt;Node48</title>
<path fill="none" stroke="#191970" d="M947.3452,-75.5664C985.5125,-64.4086 1034.4219,-50.1105 1072.5996,-38.9497"/>
<polygon fill="#191970" stroke="#191970" points="946.0019,-72.3125 937.3858,-78.478 947.9661,-79.0313 946.0019,-72.3125"/>
</g>
</g>
</svg>
        <g id="navigator" transform="translate(0 0)" fill="#404254">
                <rect fill="#f2f5e9" fill-opacity="0.5" stroke="#606060" stroke-width=".5" x="0" y="0" width="60" height="60"/>
                <use id="zoomplus" xlink:href="#zoomPlus" x="17" y="9" onmousedown="handleZoom(evt,'in')"/>
                <use id="zoomminus" xlink:href="#zoomMin" x="42" y="9" onmousedown="handleZoom(evt,'out')"/>
                <use id="reset" xlink:href="#resetDef" x="30" y="36" onmousedown="handleReset()"/>
                <g id="arrowUp" xlink:href="#dirArrow" transform="translate(30 24)" onmousedown="handlePan(0,-1)">
                  <use xlink:href="#rim" fill="#404040">
                        <set attributeName="fill" to="#808080" begin="arrowUp.mouseover" end="arrowUp.mouseout"/>
                  </use>
                  <path fill="none" stroke="white" stroke-width="1.5" d="M0,-3.0v7 M-2.5,-0.5L0,-3.0L2.5,-0.5"/>
                </g>
                <g id="arrowRight" xlink:href="#dirArrow" transform="rotate(90) translate(36 -43)" onmousedown="handlePan(1,0)">
                  <use xlink:href="#rim" fill="#404040">
                        <set attributeName="fill" to="#808080" begin="arrowRight.mouseover" end="arrowRight.mouseout"/>
                  </use>
                  <path fill="none" stroke="white" stroke-width="1.5" d="M0,-3.0v7 M-2.5,-0.5L0,-3.0L2.5,-0.5"/>
                </g>
                <g id="arrowDown" xlink:href="#dirArrow" transform="rotate(180) translate(-30 -48)" onmousedown="handlePan(0,1)">
                  <use xlink:href="#rim" fill="#404040">
                        <set attributeName="fill" to="#808080" begin="arrowDown.mouseover" end="arrowDown.mouseout"/>
                  </use>
                  <path fill="none" stroke="white" stroke-width="1.5" d="M0,-3.0v7 M-2.5,-0.5L0,-3.0L2.5,-0.5"/>
                </g>
                <g id="arrowLeft" xlink:href="#dirArrow" transform="rotate(270) translate(-36 17)" onmousedown="handlePan(-1,0)">
                  <use xlink:href="#rim" fill="#404040">
                        <set attributeName="fill" to="#808080" begin="arrowLeft.mouseover" end="arrowLeft.mouseout"/>
                  </use>
                  <path fill="none" stroke="white" stroke-width="1.5" d="M0,-3.0v7 M-2.5,-0.5L0,-3.0L2.5,-0.5"/>
                </g>
        </g>
        <svg viewBox="0 0 15 15" width="100%" height="30px" preserveAspectRatio="xMaxYMin meet">
         <g id="arrow_out" transform="scale(0.3 0.3)">
          <a xlink:href="Basisnames_8h__dep__incl_org.svg" target="_base">
           <rect id="button" ry="5" rx="5" y="6" x="6" height="38" width="38"
                fill="#f2f5e9" fill-opacity="0.5" stroke="#606060" stroke-width="1.0"/>
           <path id="arrow"
             d="M 11.500037,31.436501 C 11.940474,20.09759 22.043105,11.32322 32.158766,21.979434 L 37.068811,17.246167 C 37.068811,17.246167 37.088388,32 37.088388,32 L 22.160133,31.978069 C 22.160133,31.978069 26.997745,27.140456 26.997745,27.140456 C 18.528582,18.264221 13.291696,25.230495 11.500037,31.436501 z"
             style="fill:#404040;"/>
          </a>
         </g>
        </svg>
</svg>
