<?xml version="1.0" encoding="UTF-8" standalone="no"?>
<!DOCTYPE svg PUBLIC "-//W3C//DTD SVG 1.1//EN"
 "http://www.w3.org/Graphics/SVG/1.1/DTD/svg11.dtd">
<!-- Generated by graphviz version 2.40.1 (20161225.0304)
 -->
<!-- Title: /travis/pairinteraction/Basisnames.h Pages: 1 -->
<!--zoomable 229 -->
<svg id="main" version="1.1" xmlns="http://www.w3.org/2000/svg" xmlns:xlink="http://www.w3.org/1999/xlink" xml:space="preserve" onload="init(evt)">
<style type="text/css"><![CDATA[
.edge:hover path { stroke: red; }
.edge:hover polygon { stroke: red; fill: red; }
]]></style>
<script type="text/javascript"><![CDATA[
var edges = document.getElementsByTagName('g');
if (edges && edges.length) {
  for (var i=0;i<edges.length;i++) {
    if (edges[i].id.substr(0,4)=='edge') {
      edges[i].setAttribute('class','edge');
    }
  }
}
]]></script>
        <defs>
                <circle id="rim" cx="0" cy="0" r="7"/>
                <circle id="rim2" cx="0" cy="0" r="3.5"/>
                <g id="zoomPlus">
                        <use xlink:href="#rim" fill="#404040">
                                <set attributeName="fill" to="#808080" begin="zoomplus.mouseover" end="zoomplus.mouseout"/>
                        </use>
                        <path d="M-4,0h8M0,-4v8" fill="none" stroke="white" stroke-width="1.5" pointer-events="none"/>
                </g>
                <g id="zoomMin">
                        <use xlink:href="#rim" fill="#404040">
                                <set attributeName="fill" to="#808080" begin="zoomminus.mouseover" end="zoomminus.mouseout"/>
                        </use>
                        <path d="M-4,0h8" fill="none" stroke="white" stroke-width="1.5" pointer-events="none"/>
                </g>
                <g id="dirArrow">
                        <path fill="none" stroke="white" stroke-width="1.5" d="M0,-3.0v7 M-2.5,-0.5L0,-3.0L2.5,-0.5"/>
                </g>
               <g id="resetDef">
                       <use xlink:href="#rim2" fill="#404040">
                               <set attributeName="fill" to="#808080" begin="reset.mouseover" end="reset.mouseout"/>
                       </use>
               </g>
        </defs>

<script type="text/javascript">
var viewWidth = 1128;
var viewHeight = 229;
var sectionId = 'dynsection-0';
</script>
<script xlink:href="svgpan.js"/>
<svg id="graph" class="graph">
<g id="viewport">
<title>/travis/pairinteraction/Basisnames.h</title>
<!-- Node0 -->
<g id="node1" class="node">
<title>Node0</title>
<polygon fill="#bfbfbf" stroke="#000000" points="480,-190.5 480,-220.5 602,-220.5 602,-190.5 480,-190.5"/>
<text text-anchor="start" x="488" y="-208.5" font-family="Helvetica,sans-Serif" font-size="10.00" fill="#000000">/travis/pairinteraction</text>
<text text-anchor="middle" x="541" y="-197.5" font-family="Helvetica,sans-Serif" font-size="10.00" fill="#000000">/Basisnames.h</text>
</g>
<!-- Node1 -->
<g id="node2" class="node">
<title>Node1</title>
<g id="a_node2"><a xlink:href="ConfParser_8h.html" target="_top" xlink:title="ConfParser.h">
<polygon fill="none" stroke="#000000" points="154.5,-134.5 154.5,-153.5 231.5,-153.5 231.5,-134.5 154.5,-134.5"/>
<text text-anchor="middle" x="193" y="-141.5" font-family="Helvetica,sans-Serif" font-size="10.00" fill="#000000">ConfParser.h</text>
</a>
</g>
</g>
<!-- Node0&#45;&gt;Node1 -->
<g id="edge1" class="edge">
<title>Node0&#45;&gt;Node1</title>
<path fill="none" stroke="#191970" d="M479.9848,-194.7171C412.2176,-182.741 304.1672,-163.6459 241.7812,-152.6208"/>
<polygon fill="#191970" stroke="#191970" points="242.258,-149.1509 231.8015,-150.8572 241.0398,-156.0441 242.258,-149.1509"/>
</g>
<!-- Node4 -->
<g id="node5" class="node">
<title>Node4</title>
<polygon fill="none" stroke="#bfbfbf" points="274,-73 274,-92 318,-92 318,-73 274,-73"/>
<text text-anchor="middle" x="296" y="-80" font-family="Helvetica,sans-Serif" font-size="10.00" fill="#000000">string</text>
</g>
<!-- Node0&#45;&gt;Node4 -->
<g id="edge27" class="edge">
<title>Node0&#45;&gt;Node4</title>
<path fill="none" stroke="#191970" d="M479.9066,-196.2503C426.7198,-187.1726 354.6838,-172.0815 332,-154 315.5762,-140.9084 305.9977,-118.3564 300.906,-102.0759"/>
<polygon fill="#191970" stroke="#191970" points="304.1483,-100.6771 298.0689,-92.0001 297.4104,-102.5744 304.1483,-100.6771"/>
</g>
<!-- Node6 -->
<g id="node7" class="node">
<title>Node6</title>
<g id="a_node7"><a xlink:href="Iter_8h.html" target="_top" xlink:title="Iter.h">
<polygon fill="none" stroke="#000000" points="557.5,-134.5 557.5,-153.5 598.5,-153.5 598.5,-134.5 557.5,-134.5"/>
<text text-anchor="middle" x="578" y="-141.5" font-family="Helvetica,sans-Serif" font-size="10.00" fill="#000000">Iter.h</text>
</a>
</g>
</g>
<!-- Node0&#45;&gt;Node6 -->
<g id="edge6" class="edge">
<title>Node0&#45;&gt;Node6</title>
<path fill="none" stroke="#191970" d="M550.1461,-190.2977C555.1751,-181.9388 561.4555,-171.4997 566.7791,-162.6509"/>
<polygon fill="#191970" stroke="#191970" points="569.9197,-164.2201 572.0758,-153.8469 563.9215,-160.6114 569.9197,-164.2201"/>
</g>
<!-- Node7 -->
<g id="node8" class="node">
<title>Node7</title>
<g id="a_node8"><a xlink:href="StateOld_8h.html" target="_top" xlink:title="StateOld.h">
<polygon fill="none" stroke="#000000" points="471,-134.5 471,-153.5 539,-153.5 539,-134.5 471,-134.5"/>
<text text-anchor="middle" x="505" y="-141.5" font-family="Helvetica,sans-Serif" font-size="10.00" fill="#000000">StateOld.h</text>
</a>
</g>
</g>
<!-- Node0&#45;&gt;Node7 -->
<g id="edge7" class="edge">
<title>Node0&#45;&gt;Node7</title>
<path fill="none" stroke="#191970" d="M532.1011,-190.2977C527.2081,-181.9388 521.0974,-171.4997 515.9176,-162.6509"/>
<polygon fill="#191970" stroke="#191970" points="518.8365,-160.7089 510.7641,-153.8469 512.7953,-164.2452 518.8365,-160.7089"/>
</g>
<!-- Node8 -->
<g id="node9" class="node">
<title>Node8</title>
<g id="a_node9"><a xlink:href="dtypes_8h.html" target="_top" xlink:title="dtypes.h">
<polygon fill="none" stroke="#000000" points="374.5,-73 374.5,-92 433.5,-92 433.5,-73 374.5,-73"/>
<text text-anchor="middle" x="404" y="-80" font-family="Helvetica,sans-Serif" font-size="10.00" fill="#000000">dtypes.h</text>
</a>
</g>
</g>
<!-- Node0&#45;&gt;Node8 -->
<g id="edge23" class="edge">
<title>Node0&#45;&gt;Node8</title>
<path fill="none" stroke="#191970" d="M513.5465,-190.4911C497.6262,-181.1057 477.689,-168.1392 462,-154 444.1045,-137.8722 427.1768,-115.9513 416.2802,-100.6489"/>
<polygon fill="#191970" stroke="#191970" points="418.9061,-98.2949 410.3202,-92.0872 413.161,-102.2942 418.9061,-98.2949"/>
</g>
<!-- Node14 -->
<g id="node15" class="node">
<title>Node14</title>
<polygon fill="none" stroke="#bfbfbf" points="300.5,-6 300.5,-25 347.5,-25 347.5,-6 300.5,-6"/>
<text text-anchor="middle" x="324" y="-13" font-family="Helvetica,sans-Serif" font-size="10.00" fill="#000000">vector</text>
</g>
<!-- Node0&#45;&gt;Node14 -->
<g id="edge29" class="edge">
<title>Node0&#45;&gt;Node14</title>
<path fill="none" stroke="#191970" d="M501.6906,-190.362C462.3478,-173.3701 402.5559,-142.2629 366,-98 350.1509,-78.8094 338.1077,-52.6473 331.0655,-34.9705"/>
<polygon fill="#191970" stroke="#191970" points="334.1722,-33.2945 327.3377,-25.1989 327.632,-35.7896 334.1722,-33.2945"/>
</g>
<!-- Node20 -->
<g id="node21" class="node">
<title>Node20</title>
<polygon fill="none" stroke="#bfbfbf" points="616.5,-134.5 616.5,-153.5 671.5,-153.5 671.5,-134.5 616.5,-134.5"/>
<text text-anchor="middle" x="644" y="-141.5" font-family="Helvetica,sans-Serif" font-size="10.00" fill="#000000">fstream</text>
</g>
<!-- Node0&#45;&gt;Node20 -->
<g id="edge24" class="edge">
<title>Node0&#45;&gt;Node20</title>
<path fill="none" stroke="#191970" d="M566.1966,-190.4554C582.3272,-180.8241 603.1638,-168.3828 619.2136,-158.7996"/>
<polygon fill="#191970" stroke="#191970" points="621.247,-161.662 628.0387,-153.5303 617.6584,-155.6518 621.247,-161.662"/>
</g>
<!-- Node21 -->
<g id="node22" class="node">
<title>Node21</title>
<polygon fill="none" stroke="#bfbfbf" points="690,-134.5 690,-153.5 748,-153.5 748,-134.5 690,-134.5"/>
<text text-anchor="middle" x="719" y="-141.5" font-family="Helvetica,sans-Serif" font-size="10.00" fill="#000000">memory</text>
</g>
<!-- Node0&#45;&gt;Node21 -->
<g id="edge25" class="edge">
<title>Node0&#45;&gt;Node21</title>
<path fill="none" stroke="#191970" d="M584.5437,-190.4554C614.3737,-180.149 653.5166,-166.6249 681.8702,-156.8286"/>
<polygon fill="#191970" stroke="#191970" points="683.1076,-160.1041 691.4163,-153.5303 680.8216,-153.4879 683.1076,-160.1041"/>
</g>
<!-- Node22 -->
<g id="node23" class="node">
<title>Node22</title>
<polygon fill="none" stroke="#bfbfbf" points="766,-134.5 766,-153.5 798,-153.5 798,-134.5 766,-134.5"/>
<text text-anchor="middle" x="782" y="-141.5" font-family="Helvetica,sans-Serif" font-size="10.00" fill="#000000">set</text>
</g>
<!-- Node0&#45;&gt;Node22 -->
<g id="edge26" class="edge">
<title>Node0&#45;&gt;Node22</title>
<path fill="none" stroke="#191970" d="M602.1695,-193.416C643.4799,-184.6827 699.2968,-171.7748 756.4352,-153.8474"/>
<polygon fill="#191970" stroke="#191970" points="757.5207,-157.175 765.9879,-150.8066 755.3973,-150.5048 757.5207,-157.175"/>
</g>
<!-- Node23 -->
<g id="node24" class="node">
<title>Node23</title>
<polygon fill="none" stroke="#bfbfbf" points="816,-134.5 816,-153.5 902,-153.5 902,-134.5 816,-134.5"/>
<text text-anchor="middle" x="859" y="-141.5" font-family="Helvetica,sans-Serif" font-size="10.00" fill="#000000">unordered_set</text>
</g>
<!-- Node0&#45;&gt;Node23 -->
<g id="edge28" class="edge">
<title>Node0&#45;&gt;Node23</title>
<path fill="none" stroke="#191970" d="M602.3136,-193.6422C661.2715,-182.2399 749.4867,-165.1795 805.6253,-154.3225"/>
<polygon fill="#191970" stroke="#191970" points="806.5665,-157.7054 815.72,-152.3702 805.2373,-150.8327 806.5665,-157.7054"/>
</g>
<!-- Node2 -->
<g id="node3" class="node">
<title>Node2</title>
<polygon fill="none" stroke="#bfbfbf" points="0,-73 0,-92 38,-92 38,-73 0,-73"/>
<text text-anchor="middle" x="19" y="-80" font-family="Helvetica,sans-Serif" font-size="10.00" fill="#000000">map</text>
</g>
<!-- Node1&#45;&gt;Node2 -->
<g id="edge2" class="edge">
<title>Node1&#45;&gt;Node2</title>
<path fill="none" stroke="#191970" d="M155.6592,-134.463C125.7108,-126.2876 82.8995,-113.4072 47,-98 46.0044,-97.5727 44.9979,-97.1206 43.9881,-96.6498"/>
<polygon fill="#191970" stroke="#191970" points="45.5095,-93.4969 35.0096,-92.081 42.3348,-99.7357 45.5095,-93.4969"/>
</g>
<!-- Node3 -->
<g id="node4" class="node">
<title>Node3</title>
<polygon fill="none" stroke="#bfbfbf" points="56,-73 56,-92 112,-92 112,-73 56,-73"/>
<text text-anchor="middle" x="84" y="-80" font-family="Helvetica,sans-Serif" font-size="10.00" fill="#000000">sstream</text>
</g>
<!-- Node1&#45;&gt;Node3 -->
<g id="edge3" class="edge">
<title>Node1&#45;&gt;Node3</title>
<path fill="none" stroke="#191970" d="M175.9688,-134.3906C158.211,-124.3713 130.167,-108.5483 109.7118,-97.0071"/>
<polygon fill="#191970" stroke="#191970" points="111.3409,-93.9077 100.9117,-92.0419 107.9011,-100.0042 111.3409,-93.9077"/>
</g>
<!-- Node1&#45;&gt;Node4 -->
<g id="edge4" class="edge">
<title>Node1&#45;&gt;Node4</title>
<path fill="none" stroke="#191970" d="M209.0938,-134.3906C225.7228,-124.4616 251.8976,-108.833 271.1794,-97.3201"/>
<polygon fill="#191970" stroke="#191970" points="273.2276,-100.1736 280.0193,-92.0419 269.639,-94.1634 273.2276,-100.1736"/>
</g>
<!-- Node5 -->
<g id="node6" class="node">
<title>Node5</title>
<polygon fill="none" stroke="#bfbfbf" points="130.5,-73 130.5,-92 255.5,-92 255.5,-73 130.5,-73"/>
<text text-anchor="middle" x="193" y="-80" font-family="Helvetica,sans-Serif" font-size="10.00" fill="#000000">boost/lexical_cast.hpp</text>
</g>
<!-- Node1&#45;&gt;Node5 -->
<g id="edge5" class="edge">
<title>Node1&#45;&gt;Node5</title>
<path fill="none" stroke="#191970" d="M193,-134.3906C193,-125.8657 193,-113.1392 193,-102.4235"/>
<polygon fill="#191970" stroke="#191970" points="196.5001,-102.2448 193,-92.2449 189.5001,-102.2449 196.5001,-102.2448"/>
</g>
<!-- Node7&#45;&gt;Node4 -->
<g id="edge19" class="edge">
<title>Node7&#45;&gt;Node4</title>
<path fill="none" stroke="#191970" d="M472.3438,-134.3906C432.9281,-122.7922 367.0825,-103.4166 327.9746,-91.9088"/>
<polygon fill="#191970" stroke="#191970" points="328.7501,-88.4887 318.1688,-89.0234 326.774,-95.204 328.7501,-88.4887"/>
</g>
<!-- Node7&#45;&gt;Node8 -->
<g id="edge8" class="edge">
<title>Node7&#45;&gt;Node8</title>
<path fill="none" stroke="#191970" d="M489.2188,-134.3906C472.9125,-124.4616 447.246,-108.833 428.3386,-97.3201"/>
<polygon fill="#191970" stroke="#191970" points="430.0319,-94.2533 419.6704,-92.0419 426.3913,-100.2322 430.0319,-94.2533"/>
</g>
<!-- Node11 -->
<g id="node12" class="node">
<title>Node11</title>
<polygon fill="none" stroke="#bfbfbf" points="753,-6 753,-25 795,-25 795,-6 753,-6"/>
<text text-anchor="middle" x="774" y="-13" font-family="Helvetica,sans-Serif" font-size="10.00" fill="#000000">array</text>
</g>
<!-- Node7&#45;&gt;Node11 -->
<g id="edge15" class="edge">
<title>Node7&#45;&gt;Node11</title>
<path fill="none" stroke="#191970" d="M539.0491,-135.9506C542.4033,-135.2513 545.7627,-134.5874 549,-134 607.2583,-123.4287 774.0635,-142.6064 813,-98 829.9849,-78.5418 809.5194,-50.4079 792.4148,-32.54"/>
<polygon fill="#191970" stroke="#191970" points="794.5025,-29.6808 784.9391,-25.1209 789.5716,-34.6493 794.5025,-29.6808"/>
</g>
<!-- Node12 -->
<g id="node13" class="node">
<title>Node12</title>
<polygon fill="none" stroke="#bfbfbf" points="829.5,-6 829.5,-25 876.5,-25 876.5,-6 829.5,-6"/>
<text text-anchor="middle" x="853" y="-13" font-family="Helvetica,sans-Serif" font-size="10.00" fill="#000000">cmath</text>
</g>
<!-- Node7&#45;&gt;Node12 -->
<g id="edge17" class="edge">
<title>Node7&#45;&gt;Node12</title>
<path fill="none" stroke="#191970" d="M539.0441,-135.9231C542.3994,-135.2293 545.7604,-134.5743 549,-134 610.9884,-123.0113 782.3876,-139.187 830,-98 847.871,-82.5407 852.4176,-54.4827 853.2959,-35.4252"/>
<polygon fill="#191970" stroke="#191970" points="856.7996,-35.2159 853.4588,-25.1616 849.8004,-35.1047 856.7996,-35.2159"/>
</g>
<!-- Node15 -->
<g id="node16" class="node">
<title>Node15</title>
<polygon fill="none" stroke="#bfbfbf" points="898.5,-73 898.5,-92 1041.5,-92 1041.5,-73 898.5,-73"/>
<text text-anchor="middle" x="970" y="-80" font-family="Helvetica,sans-Serif" font-size="10.00" fill="#000000">boost/functional/hash.hpp</text>
</g>
<!-- Node7&#45;&gt;Node15 -->
<g id="edge16" class="edge">
<title>Node7&#45;&gt;Node15</title>
<path fill="none" stroke="#191970" d="M539.0322,-135.8539C542.3899,-135.1741 545.7547,-134.5413 549,-134 696.7058,-109.3648 735.7756,-119.2941 884,-98 892.6195,-96.7617 901.6971,-95.2995 910.5941,-93.776"/>
<polygon fill="#191970" stroke="#191970" points="911.2809,-97.2091 920.5283,-92.0386 910.0749,-90.3138 911.2809,-97.2091"/>
</g>
<!-- Node16 -->
<g id="node17" class="node">
<title>Node16</title>
<polygon fill="none" stroke="#bfbfbf" points="1060,-73 1060,-92 1120,-92 1120,-73 1060,-73"/>
<text text-anchor="middle" x="1090" y="-80" font-family="Helvetica,sans-Serif" font-size="10.00" fill="#000000">iostream</text>
</g>
<!-- Node7&#45;&gt;Node16 -->
<g id="edge18" class="edge">
<title>Node7&#45;&gt;Node16</title>
<path fill="none" stroke="#191970" d="M539.0132,-135.7331C542.3747,-135.0778 545.7456,-134.4836 549,-134 770.2541,-101.1187 832.9512,-147.8928 1051,-98 1053.8632,-97.3449 1056.7917,-96.5117 1059.694,-95.5728"/>
<polygon fill="#191970" stroke="#191970" points="1061.1202,-98.7787 1069.3274,-92.0786 1058.7332,-92.1982 1061.1202,-98.7787"/>
</g>
<!-- Node17 -->
<g id="node18" class="node">
<title>Node17</title>
<polygon fill="none" stroke="#bfbfbf" points="451.5,-67.5 451.5,-97.5 558.5,-97.5 558.5,-67.5 451.5,-67.5"/>
<text text-anchor="start" x="459.5" y="-85.5" font-family="Helvetica,sans-Serif" font-size="10.00" fill="#000000">boost/serialization</text>
<text text-anchor="middle" x="505" y="-74.5" font-family="Helvetica,sans-Serif" font-size="10.00" fill="#000000">/array.hpp</text>
</g>
<!-- Node7&#45;&gt;Node17 -->
<g id="edge20" class="edge">
<title>Node7&#45;&gt;Node17</title>
<path fill="none" stroke="#191970" d="M505,-134.3906C505,-127.2234 505,-117.0862 505,-107.671"/>
<polygon fill="#191970" stroke="#191970" points="508.5001,-107.5446 505,-97.5446 501.5001,-107.5446 508.5001,-107.5446"/>
</g>
<!-- Node18 -->
<g id="node19" class="node">
<title>Node18</title>
<polygon fill="none" stroke="#bfbfbf" points="576.5,-67.5 576.5,-97.5 683.5,-97.5 683.5,-67.5 576.5,-67.5"/>
<text text-anchor="start" x="584.5" y="-85.5" font-family="Helvetica,sans-Serif" font-size="10.00" fill="#000000">boost/serialization</text>
<text text-anchor="middle" x="630" y="-74.5" font-family="Helvetica,sans-Serif" font-size="10.00" fill="#000000">/string.hpp</text>
</g>
<!-- Node7&#45;&gt;Node18 -->
<g id="edge21" class="edge">
<title>Node7&#45;&gt;Node18</title>
<path fill="none" stroke="#191970" d="M524.5313,-134.3906C542.075,-125.7591 568.3736,-112.8202 590.3204,-102.0224"/>
<polygon fill="#191970" stroke="#191970" points="591.9939,-105.0997 599.4216,-97.5446 588.9036,-98.8188 591.9939,-105.0997"/>
</g>
<!-- Node19 -->
<g id="node20" class="node">
<title>Node19</title>
<polygon fill="none" stroke="#bfbfbf" points="702,-73 702,-92 804,-92 804,-73 702,-73"/>
<text text-anchor="middle" x="753" y="-80" font-family="Helvetica,sans-Serif" font-size="10.00" fill="#000000">boost/variant.hpp</text>
</g>
<!-- Node7&#45;&gt;Node19 -->
<g id="edge22" class="edge">
<title>Node7&#45;&gt;Node19</title>
<path fill="none" stroke="#191970" d="M539.3384,-135.7381C577.054,-126.6309 639.3945,-111.4816 693,-98 697.4034,-96.8926 701.9855,-95.729 706.5679,-94.558"/>
<polygon fill="#191970" stroke="#191970" points="707.7144,-97.8772 716.5304,-92.0012 705.9742,-91.097 707.7144,-97.8772"/>
</g>
<!-- Node9 -->
<g id="node10" class="node">
<title>Node9</title>
<polygon fill="none" stroke="#bfbfbf" points="365.5,-6 365.5,-25 442.5,-25 442.5,-6 365.5,-6"/>
<text text-anchor="middle" x="404" y="-13" font-family="Helvetica,sans-Serif" font-size="10.00" fill="#000000">Eigen/Dense</text>
</g>
<!-- Node8&#45;&gt;Node9 -->
<g id="edge9" class="edge">
<title>Node8&#45;&gt;Node9</title>
<path fill="none" stroke="#191970" d="M404,-72.9005C404,-63.149 404,-47.7597 404,-35.3695"/>
<polygon fill="#191970" stroke="#191970" points="407.5001,-35.0816 404,-25.0817 400.5001,-35.0817 407.5001,-35.0816"/>
</g>
<!-- Node10 -->
<g id="node11" class="node">
<title>Node10</title>
<polygon fill="none" stroke="#bfbfbf" points="461,-6 461,-25 541,-25 541,-6 461,-6"/>
<text text-anchor="middle" x="501" y="-13" font-family="Helvetica,sans-Serif" font-size="10.00" fill="#000000">Eigen/Sparse</text>
</g>
<!-- Node8&#45;&gt;Node10 -->
<g id="edge10" class="edge">
<title>Node8&#45;&gt;Node10</title>
<path fill="none" stroke="#191970" d="M417.8977,-72.9005C433.8164,-61.9052 460.1121,-43.7422 478.8599,-30.7927"/>
<polygon fill="#191970" stroke="#191970" points="480.8892,-33.6448 487.128,-25.0817 476.9108,-27.8852 480.8892,-33.6448"/>
</g>
<!-- Node8&#45;&gt;Node11 -->
<g id="edge11" class="edge">
<title>Node8&#45;&gt;Node11</title>
<path fill="none" stroke="#191970" d="M425.5481,-72.8461C431.141,-70.6442 437.2197,-68.5109 443,-67 559.7006,-36.496 593.5267,-53.663 712,-31 722.1909,-29.0506 733.2098,-26.457 743.0918,-23.9501"/>
<polygon fill="#191970" stroke="#191970" points="744.0993,-27.3046 752.896,-21.3996 742.3369,-20.5301 744.0993,-27.3046"/>
</g>
<!-- Node8&#45;&gt;Node12 -->
<g id="edge12" class="edge">
<title>Node8&#45;&gt;Node12</title>
<path fill="none" stroke="#191970" d="M425.1056,-72.8721C430.8104,-70.6145 437.0535,-68.4479 443,-67 599.663,-28.8538 646.0668,-63.4886 804,-31 809.1126,-29.9483 814.4473,-28.5678 819.6356,-27.0638"/>
<polygon fill="#191970" stroke="#191970" points="820.8108,-30.3641 829.3357,-24.0732 818.7484,-23.6749 820.8108,-30.3641"/>
</g>
<!-- Node13 -->
<g id="node14" class="node">
<title>Node13</title>
<polygon fill="none" stroke="#bfbfbf" points="559.5,-.5 559.5,-30.5 702.5,-30.5 702.5,-.5 559.5,-.5"/>
<text text-anchor="start" x="567.5" y="-18.5" font-family="Helvetica,sans-Serif" font-size="10.00" fill="#000000">unsupported/Eigen/CXX11</text>
<text text-anchor="middle" x="631" y="-7.5" font-family="Helvetica,sans-Serif" font-size="10.00" fill="#000000">/Tensor</text>
</g>
<!-- Node8&#45;&gt;Node13 -->
<g id="edge13" class="edge">
<title>Node8&#45;&gt;Node13</title>
<path fill="none" stroke="#191970" d="M426.9406,-72.8927C432.1781,-70.8365 437.7487,-68.7568 443,-67 481.1356,-54.2421 524.374,-42.232 559.7614,-33.0242"/>
<polygon fill="#191970" stroke="#191970" points="560.7164,-36.3925 569.5235,-30.5031 558.966,-29.6148 560.7164,-36.3925"/>
</g>
<!-- Node8&#45;&gt;Node14 -->
<g id="edge14" class="edge">
<title>Node8&#45;&gt;Node14</title>
<path fill="none" stroke="#191970" d="M392.538,-72.9005C379.7062,-62.1539 358.6989,-44.5603 343.3187,-31.6794"/>
<polygon fill="#191970" stroke="#191970" points="345.3545,-28.8191 335.4408,-25.0817 340.86,-34.1856 345.3545,-28.8191"/>
</g>
</g>
</svg>
        <g id="navigator" transform="translate(0 0)" fill="#404254">
                <rect fill="#f2f5e9" fill-opacity="0.5" stroke="#606060" stroke-width=".5" x="0" y="0" width="60" height="60"/>
                <use id="zoomplus" xlink:href="#zoomPlus" x="17" y="9" onmousedown="handleZoom(evt,'in')"/>
                <use id="zoomminus" xlink:href="#zoomMin" x="42" y="9" onmousedown="handleZoom(evt,'out')"/>
                <use id="reset" xlink:href="#resetDef" x="30" y="36" onmousedown="handleReset()"/>
                <g id="arrowUp" xlink:href="#dirArrow" transform="translate(30 24)" onmousedown="handlePan(0,-1)">
                  <use xlink:href="#rim" fill="#404040">
                        <set attributeName="fill" to="#808080" begin="arrowUp.mouseover" end="arrowUp.mouseout"/>
                  </use>
                  <path fill="none" stroke="white" stroke-width="1.5" d="M0,-3.0v7 M-2.5,-0.5L0,-3.0L2.5,-0.5"/>
                </g>
                <g id="arrowRight" xlink:href="#dirArrow" transform="rotate(90) translate(36 -43)" onmousedown="handlePan(1,0)">
                  <use xlink:href="#rim" fill="#404040">
                        <set attributeName="fill" to="#808080" begin="arrowRight.mouseover" end="arrowRight.mouseout"/>
                  </use>
                  <path fill="none" stroke="white" stroke-width="1.5" d="M0,-3.0v7 M-2.5,-0.5L0,-3.0L2.5,-0.5"/>
                </g>
                <g id="arrowDown" xlink:href="#dirArrow" transform="rotate(180) translate(-30 -48)" onmousedown="handlePan(0,1)">
                  <use xlink:href="#rim" fill="#404040">
                        <set attributeName="fill" to="#808080" begin="arrowDown.mouseover" end="arrowDown.mouseout"/>
                  </use>
                  <path fill="none" stroke="white" stroke-width="1.5" d="M0,-3.0v7 M-2.5,-0.5L0,-3.0L2.5,-0.5"/>
                </g>
                <g id="arrowLeft" xlink:href="#dirArrow" transform="rotate(270) translate(-36 17)" onmousedown="handlePan(-1,0)">
                  <use xlink:href="#rim" fill="#404040">
                        <set attributeName="fill" to="#808080" begin="arrowLeft.mouseover" end="arrowLeft.mouseout"/>
                  </use>
                  <path fill="none" stroke="white" stroke-width="1.5" d="M0,-3.0v7 M-2.5,-0.5L0,-3.0L2.5,-0.5"/>
                </g>
        </g>
        <svg viewBox="0 0 15 15" width="100%" height="30px" preserveAspectRatio="xMaxYMin meet">
         <g id="arrow_out" transform="scale(0.3 0.3)">
          <a xlink:href="Basisnames_8h__incl_org.svg" target="_base">
           <rect id="button" ry="5" rx="5" y="6" x="6" height="38" width="38"
                fill="#f2f5e9" fill-opacity="0.5" stroke="#606060" stroke-width="1.0"/>
           <path id="arrow"
             d="M 11.500037,31.436501 C 11.940474,20.09759 22.043105,11.32322 32.158766,21.979434 L 37.068811,17.246167 C 37.068811,17.246167 37.088388,32 37.088388,32 L 22.160133,31.978069 C 22.160133,31.978069 26.997745,27.140456 26.997745,27.140456 C 18.528582,18.264221 13.291696,25.230495 11.500037,31.436501 z"
             style="fill:#404040;"/>
          </a>
         </g>
        </svg>
</svg>
