<?xml version="1.0" encoding="UTF-8" standalone="no"?>
<!DOCTYPE svg PUBLIC "-//W3C//DTD SVG 1.1//EN"
 "http://www.w3.org/Graphics/SVG/1.1/DTD/svg11.dtd">
<!-- Generated by graphviz version 2.40.1 (20161225.0304)
 -->
<!-- Title: /travis/pairinteraction/Cache.h Pages: 1 -->
<svg width="1348pt" height="608pt"
 viewBox="0.00 0.00 1347.50 608.00" xmlns="http://www.w3.org/2000/svg" xmlns:xlink="http://www.w3.org/1999/xlink">
<g id="graph0" class="graph" transform="scale(1 1) rotate(0) translate(4 604)">
<title>/travis/pairinteraction/Cache.h</title>
<!-- Node4 -->
<g id="node1" class="node">
<title>Node4</title>
<polygon fill="#bfbfbf" stroke="#000000" points="861,-569.5 861,-599.5 983,-599.5 983,-569.5 861,-569.5"/>
<text text-anchor="start" x="869" y="-587.5" font-family="Helvetica,sans-Serif" font-size="10.00" fill="#000000">/travis/pairinteraction</text>
<text text-anchor="middle" x="922" y="-576.5" font-family="Helvetica,sans-Serif" font-size="10.00" fill="#000000">/Cache.h</text>
</g>
<!-- Node5 -->
<g id="node2" class="node">
<title>Node5</title>
<g id="a_node2"><a xlink:href="QuantumDefect_8h.html" target="_top" xlink:title="/travis/pairinteraction\l/QuantumDefect.h">
<polygon fill="none" stroke="#000000" points="787,-502.5 787,-532.5 909,-532.5 909,-502.5 787,-502.5"/>
<text text-anchor="start" x="795" y="-520.5" font-family="Helvetica,sans-Serif" font-size="10.00" fill="#000000">/travis/pairinteraction</text>
<text text-anchor="middle" x="848" y="-509.5" font-family="Helvetica,sans-Serif" font-size="10.00" fill="#000000">/QuantumDefect.h</text>
</a>
</g>
</g>
<!-- Node4&#45;&gt;Node5 -->
<g id="edge1" class="edge">
<title>Node4&#45;&gt;Node5</title>
<path fill="none" stroke="#191970" d="M897.6976,-562.4965C886.899,-552.7193 874.4582,-541.4554 864.7253,-532.6432"/>
<polygon fill="#191970" stroke="#191970" points="895.4461,-565.1794 905.2083,-569.2967 900.1444,-559.9903 895.4461,-565.1794"/>
</g>
<!-- Node32 -->
<g id="node29" class="node">
<title>Node32</title>
<g id="a_node29"><a xlink:href="cache__test_8cpp.html" target="_top" xlink:title="/travis/pairinteraction\l/unit_test/cache_test.cpp">
<polygon fill="none" stroke="#000000" points="927,-502.5 927,-532.5 1065,-532.5 1065,-502.5 927,-502.5"/>
<text text-anchor="start" x="935" y="-520.5" font-family="Helvetica,sans-Serif" font-size="10.00" fill="#000000">/travis/pairinteraction</text>
<text text-anchor="middle" x="996" y="-509.5" font-family="Helvetica,sans-Serif" font-size="10.00" fill="#000000">/unit_test/cache_test.cpp</text>
</a>
</g>
</g>
<!-- Node4&#45;&gt;Node32 -->
<g id="edge44" class="edge">
<title>Node4&#45;&gt;Node32</title>
<path fill="none" stroke="#191970" d="M946.3024,-562.4965C957.101,-552.7193 969.5418,-541.4554 979.2747,-532.6432"/>
<polygon fill="#191970" stroke="#191970" points="943.8556,-559.9903 938.7917,-569.2967 948.5539,-565.1794 943.8556,-559.9903"/>
</g>
<!-- Node6 -->
<g id="node3" class="node">
<title>Node6</title>
<g id="a_node3"><a xlink:href="Wavefunction_8h.html" target="_top" xlink:title="/travis/pairinteraction\l/Wavefunction.h">
<polygon fill="none" stroke="#000000" points="698,-430 698,-460 820,-460 820,-430 698,-430"/>
<text text-anchor="start" x="706" y="-448" font-family="Helvetica,sans-Serif" font-size="10.00" fill="#000000">/travis/pairinteraction</text>
<text text-anchor="middle" x="759" y="-437" font-family="Helvetica,sans-Serif" font-size="10.00" fill="#000000">/Wavefunction.h</text>
</a>
</g>
</g>
<!-- Node5&#45;&gt;Node6 -->
<g id="edge2" class="edge">
<title>Node5&#45;&gt;Node6</title>
<path fill="none" stroke="#191970" d="M821.5864,-495.9833C807.3677,-484.4007 790.1804,-470.3998 777.4172,-460.0028"/>
<polygon fill="#191970" stroke="#191970" points="819.5955,-498.8758 829.5591,-502.478 824.0165,-493.4486 819.5955,-498.8758"/>
</g>
<!-- Node13 -->
<g id="node10" class="node">
<title>Node13</title>
<g id="a_node10"><a xlink:href="MatrixElements_8cpp.html" target="_top" xlink:title="/travis/pairinteraction\l/MatrixElements.cpp">
<polygon fill="none" stroke="#000000" points="698,-279.5 698,-309.5 820,-309.5 820,-279.5 698,-279.5"/>
<text text-anchor="start" x="706" y="-297.5" font-family="Helvetica,sans-Serif" font-size="10.00" fill="#000000">/travis/pairinteraction</text>
<text text-anchor="middle" x="759" y="-286.5" font-family="Helvetica,sans-Serif" font-size="10.00" fill="#000000">/MatrixElements.cpp</text>
</a>
</g>
</g>
<!-- Node5&#45;&gt;Node13 -->
<g id="edge37" class="edge">
<title>Node5&#45;&gt;Node13</title>
<path fill="none" stroke="#191970" d="M776.7408,-503.0261C739.7074,-493.905 699.9271,-481.0253 689,-466 657.6315,-422.8669 664.9293,-393.5925 689,-346 696.9669,-330.2478 712.273,-318.1369 726.5457,-309.6292"/>
<polygon fill="#191970" stroke="#191970" points="776.0407,-506.4573 786.5806,-505.3801 777.6694,-499.6494 776.0407,-506.4573"/>
</g>
<!-- Node15 -->
<g id="node12" class="node">
<title>Node15</title>
<g id="a_node12"><a xlink:href="MatrixElementCache_8cpp.html" target="_top" xlink:title="/travis/pairinteraction\l/MatrixElementCache.cpp">
<polygon fill="none" stroke="#000000" points="127.5,-279.5 127.5,-309.5 268.5,-309.5 268.5,-279.5 127.5,-279.5"/>
<text text-anchor="start" x="135.5" y="-297.5" font-family="Helvetica,sans-Serif" font-size="10.00" fill="#000000">/travis/pairinteraction</text>
<text text-anchor="middle" x="198" y="-286.5" font-family="Helvetica,sans-Serif" font-size="10.00" fill="#000000">/MatrixElementCache.cpp</text>
</a>
</g>
</g>
<!-- Node5&#45;&gt;Node15 -->
<g id="edge36" class="edge">
<title>Node5&#45;&gt;Node15</title>
<path fill="none" stroke="#191970" d="M776.7293,-510.537C670.6349,-497.9599 467.0378,-465.1983 312,-388 271.2138,-367.6912 232.0315,-330.4209 211.9412,-309.5946"/>
<polygon fill="#191970" stroke="#191970" points="776.3505,-514.0165 786.6872,-511.6919 777.1571,-507.0631 776.3505,-514.0165"/>
</g>
<!-- Node19 -->
<g id="node16" class="node">
<title>Node19</title>
<g id="a_node16"><a xlink:href="State_8cpp.html" target="_top" xlink:title="/travis/pairinteraction\l/State.cpp">
<polygon fill="none" stroke="#000000" points="0,-212.5 0,-242.5 122,-242.5 122,-212.5 0,-212.5"/>
<text text-anchor="start" x="8" y="-230.5" font-family="Helvetica,sans-Serif" font-size="10.00" fill="#000000">/travis/pairinteraction</text>
<text text-anchor="middle" x="61" y="-219.5" font-family="Helvetica,sans-Serif" font-size="10.00" fill="#000000">/State.cpp</text>
</a>
</g>
</g>
<!-- Node5&#45;&gt;Node19 -->
<g id="edge39" class="edge">
<title>Node5&#45;&gt;Node19</title>
<path fill="none" stroke="#191970" d="M776.7488,-512.5433C668.0607,-504.4454 466.1779,-487.1425 397,-466 261.1363,-424.4768 221.4621,-407.3587 118,-310 96.5737,-289.8376 78.5958,-260.3419 68.8511,-242.6226"/>
<polygon fill="#191970" stroke="#191970" points="776.7378,-516.052 786.9685,-513.2981 777.2535,-509.071 776.7378,-516.052"/>
</g>
<!-- Node27 -->
<g id="node24" class="node">
<title>Node27</title>
<g id="a_node24"><a xlink:href="wavefunction__test_8cpp.html" target="_top" xlink:title="/travis/pairinteraction\l/unit_test/wavefunction\l_test.cpp">
<polygon fill="none" stroke="#000000" points="838.5,-346.5 838.5,-387.5 969.5,-387.5 969.5,-346.5 838.5,-346.5"/>
<text text-anchor="start" x="846.5" y="-375.5" font-family="Helvetica,sans-Serif" font-size="10.00" fill="#000000">/travis/pairinteraction</text>
<text text-anchor="start" x="846.5" y="-364.5" font-family="Helvetica,sans-Serif" font-size="10.00" fill="#000000">/unit_test/wavefunction</text>
<text text-anchor="middle" x="904" y="-353.5" font-family="Helvetica,sans-Serif" font-size="10.00" fill="#000000">_test.cpp</text>
</a>
</g>
</g>
<!-- Node5&#45;&gt;Node27 -->
<g id="edge42" class="edge">
<title>Node5&#45;&gt;Node27</title>
<path fill="none" stroke="#191970" d="M852.6354,-492.1772C856.581,-473.039 863.0412,-446.3385 872,-424 877.0269,-411.4656 884.2949,-398.2677 890.6343,-387.7316"/>
<polygon fill="#191970" stroke="#191970" points="849.1562,-491.7298 850.6526,-502.2184 856.0236,-493.0859 849.1562,-491.7298"/>
</g>
<!-- Node28 -->
<g id="node25" class="node">
<title>Node28</title>
<g id="a_node25"><a xlink:href="Wavefunction_8cpp.html" target="_top" xlink:title="/travis/pairinteraction\l/Wavefunction.cpp">
<polygon fill="none" stroke="#000000" points="988,-352 988,-382 1110,-382 1110,-352 988,-352"/>
<text text-anchor="start" x="996" y="-370" font-family="Helvetica,sans-Serif" font-size="10.00" fill="#000000">/travis/pairinteraction</text>
<text text-anchor="middle" x="1049" y="-359" font-family="Helvetica,sans-Serif" font-size="10.00" fill="#000000">/Wavefunction.cpp</text>
</a>
</g>
</g>
<!-- Node5&#45;&gt;Node28 -->
<g id="edge43" class="edge">
<title>Node5&#45;&gt;Node28</title>
<path fill="none" stroke="#191970" d="M860.544,-493.148C873.4193,-468.9167 893.1915,-433.9486 905,-424 920.2162,-411.1804 965.9676,-394.1325 1001.8622,-382.0299"/>
<polygon fill="#191970" stroke="#191970" points="857.369,-491.6661 855.816,-502.1465 863.5657,-494.922 857.369,-491.6661"/>
</g>
<!-- Node29 -->
<g id="node26" class="node">
<title>Node29</title>
<g id="a_node26"><a xlink:href="QuantumDefect_8cpp.html" target="_top" xlink:title="/travis/pairinteraction\l/QuantumDefect.cpp">
<polygon fill="none" stroke="#000000" points="914,-430 914,-460 1036,-460 1036,-430 914,-430"/>
<text text-anchor="start" x="922" y="-448" font-family="Helvetica,sans-Serif" font-size="10.00" fill="#000000">/travis/pairinteraction</text>
<text text-anchor="middle" x="975" y="-437" font-family="Helvetica,sans-Serif" font-size="10.00" fill="#000000">/QuantumDefect.cpp</text>
</a>
</g>
</g>
<!-- Node5&#45;&gt;Node29 -->
<g id="edge38" class="edge">
<title>Node5&#45;&gt;Node29</title>
<path fill="none" stroke="#191970" d="M883.1548,-497.4313C903.9068,-485.5847 929.7407,-470.837 948.7192,-460.0028"/>
<polygon fill="#191970" stroke="#191970" points="881.2638,-494.4806 874.3145,-502.478 884.7342,-500.5598 881.2638,-494.4806"/>
</g>
<!-- Node30 -->
<g id="node27" class="node">
<title>Node30</title>
<g id="a_node27"><a xlink:href="StateOld_8cpp.html" target="_top" xlink:title="/travis/pairinteraction\l/StateOld.cpp">
<polygon fill="none" stroke="#000000" points="1054,-430 1054,-460 1176,-460 1176,-430 1054,-430"/>
<text text-anchor="start" x="1062" y="-448" font-family="Helvetica,sans-Serif" font-size="10.00" fill="#000000">/travis/pairinteraction</text>
<text text-anchor="middle" x="1115" y="-437" font-family="Helvetica,sans-Serif" font-size="10.00" fill="#000000">/StateOld.cpp</text>
</a>
</g>
</g>
<!-- Node5&#45;&gt;Node30 -->
<g id="edge40" class="edge">
<title>Node5&#45;&gt;Node30</title>
<path fill="none" stroke="#191970" d="M917.9411,-499.8644C955.6651,-490.1891 1002.9767,-477.7923 1045,-466 1051.7188,-464.1146 1058.7817,-462.07 1065.7306,-460.0217"/>
<polygon fill="#191970" stroke="#191970" points="916.8884,-496.5209 908.0681,-502.3906 918.6236,-503.3025 916.8884,-496.5209"/>
</g>
<!-- Node31 -->
<g id="node28" class="node">
<title>Node31</title>
<g id="a_node28"><a xlink:href="quantum__defect__test_8cpp.html" target="_top" xlink:title="/travis/pairinteraction\l/unit_test/quantum_defect\l_test.cpp">
<polygon fill="none" stroke="#000000" points="1194.5,-424.5 1194.5,-465.5 1339.5,-465.5 1339.5,-424.5 1194.5,-424.5"/>
<text text-anchor="start" x="1202.5" y="-453.5" font-family="Helvetica,sans-Serif" font-size="10.00" fill="#000000">/travis/pairinteraction</text>
<text text-anchor="start" x="1202.5" y="-442.5" font-family="Helvetica,sans-Serif" font-size="10.00" fill="#000000">/unit_test/quantum_defect</text>
<text text-anchor="middle" x="1267" y="-431.5" font-family="Helvetica,sans-Serif" font-size="10.00" fill="#000000">_test.cpp</text>
</a>
</g>
</g>
<!-- Node5&#45;&gt;Node31 -->
<g id="edge41" class="edge">
<title>Node5&#45;&gt;Node31</title>
<path fill="none" stroke="#191970" d="M919.2201,-501.8821C1037.6825,-481.4446 1070.682,-488.2663 1185,-466 1188.0291,-465.41 1191.1131,-464.7755 1194.2225,-464.1077"/>
<polygon fill="#191970" stroke="#191970" points="918.2674,-498.4957 909.023,-503.6717 919.4775,-505.3904 918.2674,-498.4957"/>
</g>
<!-- Node7 -->
<g id="node4" class="node">
<title>Node7</title>
<g id="a_node4"><a xlink:href="MatrixElements_8h.html" target="_top" xlink:title="/travis/pairinteraction\l/MatrixElements.h">
<polygon fill="none" stroke="#000000" points="698,-352 698,-382 820,-382 820,-352 698,-352"/>
<text text-anchor="start" x="706" y="-370" font-family="Helvetica,sans-Serif" font-size="10.00" fill="#000000">/travis/pairinteraction</text>
<text text-anchor="middle" x="759" y="-359" font-family="Helvetica,sans-Serif" font-size="10.00" fill="#000000">/MatrixElements.h</text>
</a>
</g>
</g>
<!-- Node6&#45;&gt;Node7 -->
<g id="edge3" class="edge">
<title>Node6&#45;&gt;Node7</title>
<path fill="none" stroke="#191970" d="M759,-419.7875C759,-407.4187 759,-392.9264 759,-382.2592"/>
<polygon fill="#191970" stroke="#191970" points="755.5001,-419.9608 759,-429.9608 762.5001,-419.9608 755.5001,-419.9608"/>
</g>
<!-- Node14 -->
<g id="node11" class="node">
<title>Node14</title>
<g id="a_node11"><a xlink:href="MatrixElementCache_8h.html" target="_top" xlink:title="/travis/pairinteraction\l/MatrixElementCache.h">
<polygon fill="none" stroke="#000000" points="321,-352 321,-382 451,-382 451,-352 321,-352"/>
<text text-anchor="start" x="329" y="-370" font-family="Helvetica,sans-Serif" font-size="10.00" fill="#000000">/travis/pairinteraction</text>
<text text-anchor="middle" x="386" y="-359" font-family="Helvetica,sans-Serif" font-size="10.00" fill="#000000">/MatrixElementCache.h</text>
</a>
</g>
</g>
<!-- Node6&#45;&gt;Node14 -->
<g id="edge12" class="edge">
<title>Node6&#45;&gt;Node14</title>
<path fill="none" stroke="#191970" d="M688.0132,-430.1556C619.7862,-415.8883 517.5369,-394.5064 451.2879,-380.6527"/>
<polygon fill="#191970" stroke="#191970" points="687.3196,-433.5862 697.8243,-432.2072 688.7525,-426.7344 687.3196,-433.5862"/>
</g>
<!-- Node6&#45;&gt;Node27 -->
<g id="edge34" class="edge">
<title>Node6&#45;&gt;Node27</title>
<path fill="none" stroke="#191970" d="M796.0404,-425.0748C817.3828,-413.5941 844.1642,-399.1875 865.7133,-387.5956"/>
<polygon fill="#191970" stroke="#191970" points="794.106,-422.1411 786.9575,-429.9608 797.4222,-428.3057 794.106,-422.1411"/>
</g>
<!-- Node6&#45;&gt;Node28 -->
<g id="edge35" class="edge">
<title>Node6&#45;&gt;Node28</title>
<path fill="none" stroke="#191970" d="M829.716,-427.4037C872.9418,-416.4679 929.2922,-401.8902 979,-388 985.7209,-386.1219 992.7849,-384.0815 999.7344,-382.0353"/>
<polygon fill="#191970" stroke="#191970" points="828.7022,-424.0497 819.863,-429.8909 830.4155,-430.8368 828.7022,-424.0497"/>
</g>
<!-- Node8 -->
<g id="node5" class="node">
<title>Node8</title>
<g id="a_node5"><a xlink:href="HamiltonianOne_8h.html" target="_top" xlink:title="/travis/pairinteraction\l/HamiltonianOne.h">
<polygon fill="none" stroke="#000000" points="901,-279.5 901,-309.5 1023,-309.5 1023,-279.5 901,-279.5"/>
<text text-anchor="start" x="909" y="-297.5" font-family="Helvetica,sans-Serif" font-size="10.00" fill="#000000">/travis/pairinteraction</text>
<text text-anchor="middle" x="962" y="-286.5" font-family="Helvetica,sans-Serif" font-size="10.00" fill="#000000">/HamiltonianOne.h</text>
</a>
</g>
</g>
<!-- Node7&#45;&gt;Node8 -->
<g id="edge4" class="edge">
<title>Node7&#45;&gt;Node8</title>
<path fill="none" stroke="#191970" d="M810.7805,-348.5069C844.6374,-336.4152 888.296,-320.8228 919.9922,-309.5028"/>
<polygon fill="#191970" stroke="#191970" points="809.302,-345.3184 801.0617,-351.978 811.6564,-351.9106 809.302,-345.3184"/>
</g>
<!-- Node10 -->
<g id="node7" class="node">
<title>Node10</title>
<g id="a_node7"><a xlink:href="HamiltonianTwo_8h.html" target="_top" xlink:title="/travis/pairinteraction\l/HamiltonianTwo.h">
<polygon fill="none" stroke="#000000" points="776,-212.5 776,-242.5 898,-242.5 898,-212.5 776,-212.5"/>
<text text-anchor="start" x="784" y="-230.5" font-family="Helvetica,sans-Serif" font-size="10.00" fill="#000000">/travis/pairinteraction</text>
<text text-anchor="middle" x="837" y="-219.5" font-family="Helvetica,sans-Serif" font-size="10.00" fill="#000000">/HamiltonianTwo.h</text>
</a>
</g>
</g>
<!-- Node7&#45;&gt;Node10 -->
<g id="edge10" class="edge">
<title>Node7&#45;&gt;Node10</title>
<path fill="none" stroke="#191970" d="M794.9171,-346.2576C807.8469,-336.8892 821.1652,-324.617 829,-310 840.353,-288.8193 840.2983,-260.1647 838.8881,-242.8008"/>
<polygon fill="#191970" stroke="#191970" points="792.8151,-343.4549 786.5381,-351.9901 796.7677,-349.2323 792.8151,-343.4549"/>
</g>
<!-- Node7&#45;&gt;Node13 -->
<g id="edge11" class="edge">
<title>Node7&#45;&gt;Node13</title>
<path fill="none" stroke="#191970" d="M759,-341.8409C759,-331.0601 759,-318.8309 759,-309.5028"/>
<polygon fill="#191970" stroke="#191970" points="755.5001,-341.9779 759,-351.978 762.5001,-341.978 755.5001,-341.9779"/>
</g>
<!-- Node9 -->
<g id="node6" class="node">
<title>Node9</title>
<g id="a_node6"><a xlink:href="HamiltonianOne_8cpp.html" target="_top" xlink:title="/travis/pairinteraction\l/HamiltonianOne.cpp">
<polygon fill="none" stroke="#000000" points="916,-212.5 916,-242.5 1038,-242.5 1038,-212.5 916,-212.5"/>
<text text-anchor="start" x="924" y="-230.5" font-family="Helvetica,sans-Serif" font-size="10.00" fill="#000000">/travis/pairinteraction</text>
<text text-anchor="middle" x="977" y="-219.5" font-family="Helvetica,sans-Serif" font-size="10.00" fill="#000000">/HamiltonianOne.cpp</text>
</a>
</g>
</g>
<!-- Node8&#45;&gt;Node9 -->
<g id="edge5" class="edge">
<title>Node8&#45;&gt;Node9</title>
<path fill="none" stroke="#191970" d="M967.6378,-269.3179C969.6474,-260.3414 971.8475,-250.5143 973.6097,-242.6432"/>
<polygon fill="#191970" stroke="#191970" points="964.1731,-268.7735 965.4037,-279.2967 971.004,-270.3029 964.1731,-268.7735"/>
</g>
<!-- Node8&#45;&gt;Node10 -->
<g id="edge6" class="edge">
<title>Node8&#45;&gt;Node10</title>
<path fill="none" stroke="#191970" d="M924.9387,-274.6352C905.8844,-264.422 883.0265,-252.1702 865.3913,-242.7177"/>
<polygon fill="#191970" stroke="#191970" points="923.4803,-277.8245 933.9476,-279.4639 926.7873,-271.6549 923.4803,-277.8245"/>
</g>
<!-- Node12 -->
<g id="node9" class="node">
<title>Node12</title>
<g id="a_node9"><a xlink:href="Interface_8cpp.html" target="_top" xlink:title="/travis/pairinteraction\l/Interface.cpp">
<polygon fill="none" stroke="#000000" points="961,-145.5 961,-175.5 1083,-175.5 1083,-145.5 961,-145.5"/>
<text text-anchor="start" x="969" y="-163.5" font-family="Helvetica,sans-Serif" font-size="10.00" fill="#000000">/travis/pairinteraction</text>
<text text-anchor="middle" x="1022" y="-152.5" font-family="Helvetica,sans-Serif" font-size="10.00" fill="#000000">/Interface.cpp</text>
</a>
</g>
</g>
<!-- Node8&#45;&gt;Node12 -->
<g id="edge9" class="edge">
<title>Node8&#45;&gt;Node12</title>
<path fill="none" stroke="#191970" d="M1013.1511,-274.7472C1026.5432,-266.9655 1039.3583,-256.5649 1047,-243 1059.2673,-221.2243 1044.8908,-192.751 1033.4119,-175.5851"/>
<polygon fill="#191970" stroke="#191970" points="1011.4715,-271.6764 1004.3159,-279.4897 1014.7821,-277.8441 1011.4715,-271.6764"/>
</g>
<!-- Node11 -->
<g id="node8" class="node">
<title>Node11</title>
<g id="a_node8"><a xlink:href="HamiltonianTwo_8cpp.html" target="_top" xlink:title="/travis/pairinteraction\l/HamiltonianTwo.cpp">
<polygon fill="none" stroke="#000000" points="776,-145.5 776,-175.5 898,-175.5 898,-145.5 776,-145.5"/>
<text text-anchor="start" x="784" y="-163.5" font-family="Helvetica,sans-Serif" font-size="10.00" fill="#000000">/travis/pairinteraction</text>
<text text-anchor="middle" x="837" y="-152.5" font-family="Helvetica,sans-Serif" font-size="10.00" fill="#000000">/HamiltonianTwo.cpp</text>
</a>
</g>
</g>
<!-- Node10&#45;&gt;Node11 -->
<g id="edge7" class="edge">
<title>Node10&#45;&gt;Node11</title>
<path fill="none" stroke="#191970" d="M837,-202.0249C837,-193.128 837,-183.4287 837,-175.6432"/>
<polygon fill="#191970" stroke="#191970" points="833.5001,-202.2966 837,-212.2967 840.5001,-202.2967 833.5001,-202.2966"/>
</g>
<!-- Node10&#45;&gt;Node12 -->
<g id="edge8" class="edge">
<title>Node10&#45;&gt;Node12</title>
<path fill="none" stroke="#191970" d="M888.0759,-209.0023C917.1015,-198.4903 952.9854,-185.4945 980.3013,-175.6017"/>
<polygon fill="#191970" stroke="#191970" points="886.7282,-205.7678 878.5176,-212.4639 889.1118,-212.3495 886.7282,-205.7678"/>
</g>
<!-- Node14&#45;&gt;Node15 -->
<g id="edge13" class="edge">
<title>Node14&#45;&gt;Node15</title>
<path fill="none" stroke="#191970" d="M337.6414,-348.3511C306.3436,-336.2814 266.1319,-320.7743 236.9038,-309.5028"/>
<polygon fill="#191970" stroke="#191970" points="336.4567,-351.6454 347.0463,-351.978 338.9754,-345.1142 336.4567,-351.6454"/>
</g>
<!-- Node16 -->
<g id="node13" class="node">
<title>Node16</title>
<g id="a_node13"><a xlink:href="State_8h.html" target="_top" xlink:title="/travis/pairinteraction\l/State.h">
<polygon fill="none" stroke="#000000" points="325,-279.5 325,-309.5 447,-309.5 447,-279.5 325,-279.5"/>
<text text-anchor="start" x="333" y="-297.5" font-family="Helvetica,sans-Serif" font-size="10.00" fill="#000000">/travis/pairinteraction</text>
<text text-anchor="middle" x="386" y="-286.5" font-family="Helvetica,sans-Serif" font-size="10.00" fill="#000000">/State.h</text>
</a>
</g>
</g>
<!-- Node14&#45;&gt;Node16 -->
<g id="edge14" class="edge">
<title>Node14&#45;&gt;Node16</title>
<path fill="none" stroke="#191970" d="M379.539,-341.8409C378.9604,-331.0601 379.2506,-318.8309 380.4097,-309.5028"/>
<polygon fill="#191970" stroke="#191970" points="376.0666,-342.3132 380.4073,-351.978 383.041,-341.7157 376.0666,-342.3132"/>
</g>
<!-- Node17 -->
<g id="node14" class="node">
<title>Node17</title>
<g id="a_node14"><a xlink:href="PerturbativeInteraction_8h.html" target="_top" xlink:title="/travis/pairinteraction\l/PerturbativeInteraction.h">
<polygon fill="none" stroke="#000000" points="140.5,-212.5 140.5,-242.5 281.5,-242.5 281.5,-212.5 140.5,-212.5"/>
<text text-anchor="start" x="148.5" y="-230.5" font-family="Helvetica,sans-Serif" font-size="10.00" fill="#000000">/travis/pairinteraction</text>
<text text-anchor="middle" x="211" y="-219.5" font-family="Helvetica,sans-Serif" font-size="10.00" fill="#000000">/PerturbativeInteraction.h</text>
</a>
</g>
</g>
<!-- Node14&#45;&gt;Node17 -->
<g id="edge31" class="edge">
<title>Node14&#45;&gt;Node17</title>
<path fill="none" stroke="#191970" d="M359.6538,-345.5272C337.6386,-327.633 305.378,-301.5246 277,-279 261.4042,-266.6211 243.5989,-252.7423 230.4155,-242.5142"/>
<polygon fill="#191970" stroke="#191970" points="357.594,-348.3634 367.5602,-351.9585 362.0112,-342.933 357.594,-348.3634"/>
</g>
<!-- Node20 -->
<g id="node17" class="node">
<title>Node20</title>
<g id="a_node17"><a xlink:href="SystemBase_8h.html" target="_top" xlink:title="/travis/pairinteraction\l/SystemBase.h">
<polygon fill="none" stroke="#000000" points="414,-212.5 414,-242.5 536,-242.5 536,-212.5 414,-212.5"/>
<text text-anchor="start" x="422" y="-230.5" font-family="Helvetica,sans-Serif" font-size="10.00" fill="#000000">/travis/pairinteraction</text>
<text text-anchor="middle" x="475" y="-219.5" font-family="Helvetica,sans-Serif" font-size="10.00" fill="#000000">/SystemBase.h</text>
</a>
</g>
</g>
<!-- Node14&#45;&gt;Node20 -->
<g id="edge32" class="edge">
<title>Node14&#45;&gt;Node20</title>
<path fill="none" stroke="#191970" d="M420.3615,-346.139C433.3358,-336.6347 447.0986,-324.2969 456,-310 469.0509,-289.0384 473.1551,-260.0591 474.4346,-242.6128"/>
<polygon fill="#191970" stroke="#191970" points="418.2064,-343.3749 412.0083,-351.9676 422.2121,-349.1155 418.2064,-343.3749"/>
</g>
<!-- Node26 -->
<g id="node23" class="node">
<title>Node26</title>
<g id="a_node23"><a xlink:href="integration__test_8cpp.html" target="_top" xlink:title="/travis/pairinteraction\l/unit_test/integration\l_test.cpp">
<polygon fill="none" stroke="#000000" points="522,-.5 522,-41.5 644,-41.5 644,-.5 522,-.5"/>
<text text-anchor="start" x="530" y="-29.5" font-family="Helvetica,sans-Serif" font-size="10.00" fill="#000000">/travis/pairinteraction</text>
<text text-anchor="start" x="530" y="-18.5" font-family="Helvetica,sans-Serif" font-size="10.00" fill="#000000">/unit_test/integration</text>
<text text-anchor="middle" x="583" y="-7.5" font-family="Helvetica,sans-Serif" font-size="10.00" fill="#000000">_test.cpp</text>
</a>
</g>
</g>
<!-- Node14&#45;&gt;Node26 -->
<g id="edge33" class="edge">
<title>Node14&#45;&gt;Node26</title>
<path fill="none" stroke="#191970" d="M446.0727,-348.4866C517.8345,-322.755 634.5133,-268.5816 685,-176 712.3752,-125.7998 652.7525,-70.6973 613.6129,-41.6243"/>
<polygon fill="#191970" stroke="#191970" points="444.5343,-345.317 436.2565,-351.9297 446.8513,-351.9225 444.5343,-345.317"/>
</g>
<!-- Node16&#45;&gt;Node14 -->
<g id="edge15" class="edge">
<title>Node16&#45;&gt;Node14</title>
<path fill="none" stroke="#191970" d="M392.4598,-319.6368C393.0396,-330.4157 392.7506,-342.6459 391.5927,-351.978"/>
<polygon fill="#191970" stroke="#191970" points="395.9324,-319.167 391.5903,-309.5028 388.958,-319.7654 395.9324,-319.167"/>
</g>
<!-- Node16&#45;&gt;Node17 -->
<g id="edge16" class="edge">
<title>Node16&#45;&gt;Node17</title>
<path fill="none" stroke="#191970" d="M337.3265,-275.865C309.9333,-265.3773 276.1717,-252.4515 250.4447,-242.6017"/>
<polygon fill="#191970" stroke="#191970" points="336.1362,-279.157 346.7266,-279.4639 338.6391,-272.6197 336.1362,-279.157"/>
</g>
<!-- Node16&#45;&gt;Node19 -->
<g id="edge18" class="edge">
<title>Node16&#45;&gt;Node19</title>
<path fill="none" stroke="#191970" d="M314.9085,-280.511C263.7172,-270.348 193.0325,-256.1308 131,-243 128.0774,-242.3814 125.0876,-241.7425 122.0689,-241.0926"/>
<polygon fill="#191970" stroke="#191970" points="314.3887,-283.976 324.8786,-282.488 315.7504,-277.1097 314.3887,-283.976"/>
</g>
<!-- Node16&#45;&gt;Node20 -->
<g id="edge19" class="edge">
<title>Node16&#45;&gt;Node20</title>
<path fill="none" stroke="#191970" d="M414.4743,-273.0643C427.6338,-263.1577 442.9513,-251.6265 454.8844,-242.6432"/>
<polygon fill="#191970" stroke="#191970" points="412.0797,-270.486 406.1955,-279.2967 416.2897,-276.0785 412.0797,-270.486"/>
</g>
<!-- Node22 -->
<g id="node19" class="node">
<title>Node22</title>
<g id="a_node19"><a xlink:href="SystemOne_8h.html" target="_top" xlink:title="/travis/pairinteraction\l/SystemOne.h">
<polygon fill="none" stroke="#000000" points="414,-145.5 414,-175.5 536,-175.5 536,-145.5 414,-145.5"/>
<text text-anchor="start" x="422" y="-163.5" font-family="Helvetica,sans-Serif" font-size="10.00" fill="#000000">/travis/pairinteraction</text>
<text text-anchor="middle" x="475" y="-152.5" font-family="Helvetica,sans-Serif" font-size="10.00" fill="#000000">/SystemOne.h</text>
</a>
</g>
</g>
<!-- Node16&#45;&gt;Node22 -->
<g id="edge28" class="edge">
<title>Node16&#45;&gt;Node22</title>
<path fill="none" stroke="#191970" d="M387.2421,-269.2995C389.1339,-251.9691 393.7694,-229.0883 405,-212 415.0264,-196.744 431.213,-184.4044 445.4966,-175.6325"/>
<polygon fill="#191970" stroke="#191970" points="383.7544,-269.0082 386.3844,-279.2714 390.7286,-269.6082 383.7544,-269.0082"/>
</g>
<!-- Node24 -->
<g id="node21" class="node">
<title>Node24</title>
<g id="a_node21"><a xlink:href="SystemTwo_8h.html" target="_top" xlink:title="/travis/pairinteraction\l/SystemTwo.h">
<polygon fill="none" stroke="#000000" points="338,-78.5 338,-108.5 460,-108.5 460,-78.5 338,-78.5"/>
<text text-anchor="start" x="346" y="-96.5" font-family="Helvetica,sans-Serif" font-size="10.00" fill="#000000">/travis/pairinteraction</text>
<text text-anchor="middle" x="399" y="-85.5" font-family="Helvetica,sans-Serif" font-size="10.00" fill="#000000">/SystemTwo.h</text>
</a>
</g>
</g>
<!-- Node16&#45;&gt;Node24 -->
<g id="edge29" class="edge">
<title>Node16&#45;&gt;Node24</title>
<path fill="none" stroke="#191970" d="M386.5616,-268.8446C387.3625,-239.0314 389.1814,-188.3776 393,-145 394.0735,-132.8052 395.6998,-119.0327 396.9885,-108.8005"/>
<polygon fill="#191970" stroke="#191970" points="383.0541,-269.1073 386.3025,-279.1918 390.0519,-269.2826 383.0541,-269.1073"/>
</g>
<!-- Node16&#45;&gt;Node26 -->
<g id="edge30" class="edge">
<title>Node16&#45;&gt;Node26</title>
<path fill="none" stroke="#191970" d="M368.0233,-271.1398C337.3537,-228.2547 282.5305,-136.0534 329,-78 335.0986,-70.3812 448.6282,-47.0892 521.8219,-32.746"/>
<polygon fill="#191970" stroke="#191970" points="365.2464,-273.2718 373.9772,-279.2738 370.8949,-269.1372 365.2464,-273.2718"/>
</g>
<!-- Node18 -->
<g id="node15" class="node">
<title>Node18</title>
<g id="a_node15"><a xlink:href="PerturbativeInteraction_8cpp.html" target="_top" xlink:title="/travis/pairinteraction\l/PerturbativeInteraction.cpp">
<polygon fill="none" stroke="#000000" points="130,-145.5 130,-175.5 282,-175.5 282,-145.5 130,-145.5"/>
<text text-anchor="start" x="138" y="-163.5" font-family="Helvetica,sans-Serif" font-size="10.00" fill="#000000">/travis/pairinteraction</text>
<text text-anchor="middle" x="206" y="-152.5" font-family="Helvetica,sans-Serif" font-size="10.00" fill="#000000">/PerturbativeInteraction.cpp</text>
</a>
</g>
</g>
<!-- Node17&#45;&gt;Node18 -->
<g id="edge17" class="edge">
<title>Node17&#45;&gt;Node18</title>
<path fill="none" stroke="#191970" d="M209.1207,-202.3179C208.4509,-193.3414 207.7175,-183.5143 207.1301,-175.6432"/>
<polygon fill="#191970" stroke="#191970" points="205.6308,-202.5849 209.8654,-212.2967 212.6114,-202.0639 205.6308,-202.5849"/>
</g>
<!-- Node21 -->
<g id="node18" class="node">
<title>Node21</title>
<g id="a_node18"><a xlink:href="SystemBase_8cpp.html" target="_top" xlink:title="/travis/pairinteraction\l/SystemBase.cpp">
<polygon fill="none" stroke="#000000" points="554,-145.5 554,-175.5 676,-175.5 676,-145.5 554,-145.5"/>
<text text-anchor="start" x="562" y="-163.5" font-family="Helvetica,sans-Serif" font-size="10.00" fill="#000000">/travis/pairinteraction</text>
<text text-anchor="middle" x="615" y="-152.5" font-family="Helvetica,sans-Serif" font-size="10.00" fill="#000000">/SystemBase.cpp</text>
</a>
</g>
</g>
<!-- Node20&#45;&gt;Node21 -->
<g id="edge20" class="edge">
<title>Node20&#45;&gt;Node21</title>
<path fill="none" stroke="#191970" d="M515.638,-208.0518C537.1502,-197.7567 563.181,-185.2991 583.2017,-175.7177"/>
<polygon fill="#191970" stroke="#191970" points="513.9281,-204.9899 506.4187,-212.4639 516.9499,-211.3041 513.9281,-204.9899"/>
</g>
<!-- Node20&#45;&gt;Node22 -->
<g id="edge21" class="edge">
<title>Node20&#45;&gt;Node22</title>
<path fill="none" stroke="#191970" d="M475,-202.0249C475,-193.128 475,-183.4287 475,-175.6432"/>
<polygon fill="#191970" stroke="#191970" points="471.5001,-202.2966 475,-212.2967 478.5001,-202.2967 471.5001,-202.2966"/>
</g>
<!-- Node20&#45;&gt;Node24 -->
<g id="edge27" class="edge">
<title>Node20&#45;&gt;Node24</title>
<path fill="none" stroke="#191970" d="M434.969,-206.8887C423.3436,-198.8637 411.9254,-188.5409 405,-176 393.3371,-154.8802 394.3978,-125.9504 396.5051,-108.5567"/>
<polygon fill="#191970" stroke="#191970" points="433.1071,-209.8526 443.4095,-212.3248 436.8974,-203.9675 433.1071,-209.8526"/>
</g>
<!-- Node23 -->
<g id="node20" class="node">
<title>Node23</title>
<g id="a_node20"><a xlink:href="SystemOne_8cpp.html" target="_top" xlink:title="/travis/pairinteraction\l/SystemOne.cpp">
<polygon fill="none" stroke="#000000" points="478,-78.5 478,-108.5 600,-108.5 600,-78.5 478,-78.5"/>
<text text-anchor="start" x="486" y="-96.5" font-family="Helvetica,sans-Serif" font-size="10.00" fill="#000000">/travis/pairinteraction</text>
<text text-anchor="middle" x="539" y="-85.5" font-family="Helvetica,sans-Serif" font-size="10.00" fill="#000000">/SystemOne.cpp</text>
</a>
</g>
</g>
<!-- Node22&#45;&gt;Node23 -->
<g id="edge22" class="edge">
<title>Node22&#45;&gt;Node23</title>
<path fill="none" stroke="#191970" d="M496.5639,-137.9253C505.7746,-128.2828 516.2807,-117.2843 524.5349,-108.6432"/>
<polygon fill="#191970" stroke="#191970" points="493.899,-135.648 489.5226,-145.2967 498.9608,-140.4831 493.899,-135.648"/>
</g>
<!-- Node22&#45;&gt;Node24 -->
<g id="edge23" class="edge">
<title>Node22&#45;&gt;Node24</title>
<path fill="none" stroke="#191970" d="M450.0408,-138.4965C438.9503,-128.7193 426.1733,-117.4554 416.1773,-108.6432"/>
<polygon fill="#191970" stroke="#191970" points="447.9386,-141.3091 457.7544,-145.2967 452.5677,-136.0582 447.9386,-141.3091"/>
</g>
<!-- Node22&#45;&gt;Node26 -->
<g id="edge26" class="edge">
<title>Node22&#45;&gt;Node26</title>
<path fill="none" stroke="#191970" d="M542.1397,-142.4445C571.2596,-133.1284 600.6318,-121.181 609,-109 622.9819,-88.6474 610.5012,-60.6804 598.4768,-41.7807"/>
<polygon fill="#191970" stroke="#191970" points="540.8162,-139.1906 532.3046,-145.4995 542.8927,-145.8755 540.8162,-139.1906"/>
</g>
<!-- Node25 -->
<g id="node22" class="node">
<title>Node25</title>
<g id="a_node22"><a xlink:href="SystemTwo_8cpp.html" target="_top" xlink:title="/travis/pairinteraction\l/SystemTwo.cpp">
<polygon fill="none" stroke="#000000" points="338,-6 338,-36 460,-36 460,-6 338,-6"/>
<text text-anchor="start" x="346" y="-24" font-family="Helvetica,sans-Serif" font-size="10.00" fill="#000000">/travis/pairinteraction</text>
<text text-anchor="middle" x="399" y="-13" font-family="Helvetica,sans-Serif" font-size="10.00" fill="#000000">/SystemTwo.cpp</text>
</a>
</g>
</g>
<!-- Node24&#45;&gt;Node25 -->
<g id="edge24" class="edge">
<title>Node24&#45;&gt;Node25</title>
<path fill="none" stroke="#191970" d="M399,-68.3409C399,-57.5601 399,-45.3309 399,-36.0028"/>
<polygon fill="#191970" stroke="#191970" points="395.5001,-68.4779 399,-78.478 402.5001,-68.478 395.5001,-68.4779"/>
</g>
<!-- Node24&#45;&gt;Node26 -->
<g id="edge25" class="edge">
<title>Node24&#45;&gt;Node26</title>
<path fill="none" stroke="#191970" d="M446.7025,-74.7042C472.5373,-64.5247 504.4937,-51.9332 530.9686,-41.5015"/>
<polygon fill="#191970" stroke="#191970" points="445.1457,-71.5556 437.1249,-78.478 447.7118,-78.0683 445.1457,-71.5556"/>
</g>
</g>
</svg>
