<?xml version="1.0" encoding="UTF-8" standalone="no"?>
<!DOCTYPE svg PUBLIC "-//W3C//DTD SVG 1.1//EN"
 "http://www.w3.org/Graphics/SVG/1.1/DTD/svg11.dtd">
<!-- Generated by graphviz version 2.40.1 (20161225.0304)
 -->
<!-- Title: Hamiltonianmatrix::splitComplex Pages: 1 -->
<svg width="848pt" height="176pt"
 viewBox="0.00 0.00 848.00 176.00" xmlns="http://www.w3.org/2000/svg" xmlns:xlink="http://www.w3.org/1999/xlink">
<g id="graph0" class="graph" transform="scale(1 1) rotate(0) translate(4 172)">
<title>Hamiltonianmatrix::splitComplex</title>
<!-- Node200 -->
<g id="node1" class="node">
<title>Node200</title>
<polygon fill="#bfbfbf" stroke="#000000" points="0,-66.5 0,-96.5 115,-96.5 115,-66.5 0,-66.5"/>
<text text-anchor="start" x="8" y="-84.5" font-family="Helvetica,sans-Serif" font-size="10.00" fill="#000000">Hamiltonianmatrix::</text>
<text text-anchor="middle" x="57.5" y="-73.5" font-family="Helvetica,sans-Serif" font-size="10.00" fill="#000000">splitComplex</text>
</g>
<!-- Node201 -->
<g id="node2" class="node">
<title>Node201</title>
<g id="a_node2"><a xlink:href="classHamiltonianmatrix.html#aa8d50e3585a18628f4abbb5bcede4bbb" target="_top" xlink:title="Hamiltonianmatrix::\ldoSerialization">
<polygon fill="none" stroke="#000000" points="151,-66.5 151,-96.5 266,-96.5 266,-66.5 151,-66.5"/>
<text text-anchor="start" x="159" y="-84.5" font-family="Helvetica,sans-Serif" font-size="10.00" fill="#000000">Hamiltonianmatrix::</text>
<text text-anchor="middle" x="208.5" y="-73.5" font-family="Helvetica,sans-Serif" font-size="10.00" fill="#000000">doSerialization</text>
</a>
</g>
</g>
<!-- Node200&#45;&gt;Node201 -->
<g id="edge1" class="edge">
<title>Node200&#45;&gt;Node201</title>
<path fill="none" stroke="#191970" d="M125.0519,-81.5C133.6779,-81.5 142.4438,-81.5 150.8925,-81.5"/>
<polygon fill="#191970" stroke="#191970" points="125.0174,-78.0001 115.0174,-81.5 125.0173,-85.0001 125.0174,-78.0001"/>
</g>
<!-- Node202 -->
<g id="node3" class="node">
<title>Node202</title>
<g id="a_node3"><a xlink:href="classHamiltonianmatrix.html#a1e43ece7300d46f751f02c3260a14bfb" target="_top" xlink:title="Hamiltonianmatrix::\lhashBasis">
<polygon fill="none" stroke="#000000" points="313.5,-137.5 313.5,-167.5 428.5,-167.5 428.5,-137.5 313.5,-137.5"/>
<text text-anchor="start" x="321.5" y="-155.5" font-family="Helvetica,sans-Serif" font-size="10.00" fill="#000000">Hamiltonianmatrix::</text>
<text text-anchor="middle" x="371" y="-144.5" font-family="Helvetica,sans-Serif" font-size="10.00" fill="#000000">hashBasis</text>
</a>
</g>
</g>
<!-- Node201&#45;&gt;Node202 -->
<g id="edge2" class="edge">
<title>Node201&#45;&gt;Node202</title>
<path fill="none" stroke="#191970" d="M245.3248,-101.4126C262.3317,-110.2434 282.9411,-120.4362 302,-128.5 309.3588,-131.6135 317.2745,-134.6481 325.0273,-137.454"/>
<polygon fill="#191970" stroke="#191970" points="246.7615,-98.2139 236.2799,-96.6689 243.5103,-104.4131 246.7615,-98.2139"/>
</g>
<!-- Node203 -->
<g id="node4" class="node">
<title>Node203</title>
<g id="a_node4"><a xlink:href="classHamiltonianmatrix.html#aebafe9543f93f3956fff32192efd86ce" target="_top" xlink:title="Hamiltonianmatrix::\lhashEntries">
<polygon fill="none" stroke="#000000" points="313.5,-88.5 313.5,-118.5 428.5,-118.5 428.5,-88.5 313.5,-88.5"/>
<text text-anchor="start" x="321.5" y="-106.5" font-family="Helvetica,sans-Serif" font-size="10.00" fill="#000000">Hamiltonianmatrix::</text>
<text text-anchor="middle" x="371" y="-95.5" font-family="Helvetica,sans-Serif" font-size="10.00" fill="#000000">hashEntries</text>
</a>
</g>
</g>
<!-- Node201&#45;&gt;Node203 -->
<g id="edge3" class="edge">
<title>Node201&#45;&gt;Node203</title>
<path fill="none" stroke="#191970" d="M276.4561,-90.7002C288.7549,-92.3653 301.4715,-94.0869 313.437,-95.7069"/>
<polygon fill="#191970" stroke="#191970" points="276.6282,-87.1917 266.249,-89.3183 275.689,-94.1284 276.6282,-87.1917"/>
</g>
<!-- Node204 -->
<g id="node5" class="node">
<title>Node204</title>
<g id="a_node5"><a xlink:href="classHamiltonianmatrix.html#a9e77fcca733a19f250dd619799edc9e6" target="_top" xlink:title="Hamiltonianmatrix::save">
<polygon fill="none" stroke="#000000" points="302,-50 302,-69 440,-69 440,-50 302,-50"/>
<text text-anchor="middle" x="371" y="-57" font-family="Helvetica,sans-Serif" font-size="10.00" fill="#000000">Hamiltonianmatrix::save</text>
</a>
</g>
</g>
<!-- Node201&#45;&gt;Node204 -->
<g id="edge4" class="edge">
<title>Node201&#45;&gt;Node204</title>
<path fill="none" stroke="#191970" d="M276.3638,-72.3123C284.7564,-71.1761 293.3448,-70.0133 301.7577,-68.8743"/>
<polygon fill="#191970" stroke="#191970" points="275.689,-68.8716 266.249,-73.6817 276.6282,-75.8083 275.689,-68.8716"/>
</g>
<!-- Node209 -->
<g id="node10" class="node">
<title>Node209</title>
<g id="a_node10"><a xlink:href="classHamiltonianmatrix.html#a8bd6ab90a4453e8e1d7d6a1cdb751686" target="_top" xlink:title="Hamiltonianmatrix::\lserialize">
<polygon fill="none" stroke="#000000" points="313.5,-.5 313.5,-30.5 428.5,-30.5 428.5,-.5 313.5,-.5"/>
<text text-anchor="start" x="321.5" y="-18.5" font-family="Helvetica,sans-Serif" font-size="10.00" fill="#000000">Hamiltonianmatrix::</text>
<text text-anchor="middle" x="371" y="-7.5" font-family="Helvetica,sans-Serif" font-size="10.00" fill="#000000">serialize</text>
</a>
</g>
</g>
<!-- Node201&#45;&gt;Node209 -->
<g id="edge9" class="edge">
<title>Node201&#45;&gt;Node209</title>
<path fill="none" stroke="#191970" d="M251.1398,-62.0987C267.0106,-55.0639 285.2365,-47.2039 302,-40.5 310.3995,-37.141 319.4474,-33.7221 328.1378,-30.5351"/>
<polygon fill="#191970" stroke="#191970" points="249.3041,-59.085 241.5966,-66.3545 252.1551,-65.4781 249.3041,-59.085"/>
</g>
<!-- Node205 -->
<g id="node6" class="node">
<title>Node205</title>
<g id="a_node6"><a xlink:href="classHamiltonianOne.html#a9cb71dcb34ab9f0779c0bd66b758185e" target="_top" xlink:title="HamiltonianOne::build">
<polygon fill="none" stroke="#000000" points="486,-69 486,-88 612,-88 612,-69 486,-69"/>
<text text-anchor="middle" x="549" y="-76" font-family="Helvetica,sans-Serif" font-size="10.00" fill="#000000">HamiltonianOne::build</text>
</a>
</g>
</g>
<!-- Node204&#45;&gt;Node205 -->
<g id="edge5" class="edge">
<title>Node204&#45;&gt;Node205</title>
<path fill="none" stroke="#191970" d="M450.0461,-67.9375C462.0085,-69.2144 474.2137,-70.5172 485.7828,-71.7521"/>
<polygon fill="#191970" stroke="#191970" points="450.3892,-64.4543 440.0742,-66.8731 449.6462,-71.4148 450.3892,-64.4543"/>
</g>
<!-- Node207 -->
<g id="node8" class="node">
<title>Node207</title>
<g id="a_node8"><a xlink:href="classHamiltonianTwo.html#a6ca0a318f25170b69e571a07064a5afb" target="_top" xlink:title="HamiltonianTwo::calculate">
<polygon fill="none" stroke="#000000" points="476,-31 476,-50 622,-50 622,-31 476,-31"/>
<text text-anchor="middle" x="549" y="-38" font-family="Helvetica,sans-Serif" font-size="10.00" fill="#000000">HamiltonianTwo::calculate</text>
</a>
</g>
</g>
<!-- Node204&#45;&gt;Node207 -->
<g id="edge7" class="edge">
<title>Node204&#45;&gt;Node207</title>
<path fill="none" stroke="#191970" d="M450.0648,-51.0605C458.6406,-50.1451 467.3409,-49.2164 475.8421,-48.309"/>
<polygon fill="#191970" stroke="#191970" points="449.6462,-47.5852 440.0742,-52.1269 450.3892,-54.5457 449.6462,-47.5852"/>
</g>
<!-- Node206 -->
<g id="node7" class="node">
<title>Node206</title>
<g id="a_node7"><a xlink:href="classHamiltonianOne.html#ad3ba2d70879a60c9f065b5a2545dfe36" target="_top" xlink:title="HamiltonianOne::HamiltonianOne">
<polygon fill="none" stroke="#000000" points="658,-69 658,-88 840,-88 840,-69 658,-69"/>
<text text-anchor="middle" x="749" y="-76" font-family="Helvetica,sans-Serif" font-size="10.00" fill="#000000">HamiltonianOne::HamiltonianOne</text>
</a>
</g>
</g>
<!-- Node205&#45;&gt;Node206 -->
<g id="edge6" class="edge">
<title>Node205&#45;&gt;Node206</title>
<path fill="none" stroke="#191970" d="M622.0601,-78.5C633.6733,-78.5 645.8104,-78.5 657.7784,-78.5"/>
<polygon fill="#191970" stroke="#191970" points="622.0068,-75.0001 612.0067,-78.5 622.0067,-82.0001 622.0068,-75.0001"/>
</g>
<!-- Node208 -->
<g id="node9" class="node">
<title>Node208</title>
<g id="a_node9"><a xlink:href="classHamiltonianTwo.html#abd374713c9b38f72265c7fe496c42b96" target="_top" xlink:title="HamiltonianTwo::HamiltonianTwo">
<polygon fill="none" stroke="#000000" points="659,-31 659,-50 839,-50 839,-31 659,-31"/>
<text text-anchor="middle" x="749" y="-38" font-family="Helvetica,sans-Serif" font-size="10.00" fill="#000000">HamiltonianTwo::HamiltonianTwo</text>
</a>
</g>
</g>
<!-- Node207&#45;&gt;Node208 -->
<g id="edge8" class="edge">
<title>Node207&#45;&gt;Node208</title>
<path fill="none" stroke="#191970" d="M632.2425,-40.5C641.0053,-40.5 649.9449,-40.5 658.7816,-40.5"/>
<polygon fill="#191970" stroke="#191970" points="632.0536,-37.0001 622.0536,-40.5 632.0535,-44.0001 632.0536,-37.0001"/>
</g>
</g>
</svg>
