<?xml version="1.0" encoding="UTF-8" standalone="no"?>
<!DOCTYPE svg PUBLIC "-//W3C//DTD SVG 1.1//EN"
 "http://www.w3.org/Graphics/SVG/1.1/DTD/svg11.dtd">
<!-- Generated by graphviz version 2.40.1 (20161225.0304)
 -->
<!-- Title: BasisnamesOne::fromSecond Pages: 1 -->
<svg width="566pt" height="66pt"
 viewBox="0.00 0.00 566.00 66.00" xmlns="http://www.w3.org/2000/svg" xmlns:xlink="http://www.w3.org/1999/xlink">
<g id="graph0" class="graph" transform="scale(1 1) rotate(0) translate(4 62)">
<title>BasisnamesOne::fromSecond</title>
<!-- Node23 -->
<g id="node1" class="node">
<title>Node23</title>
<polygon fill="#bfbfbf" stroke="#000000" points="0,-19.5 0,-38.5 160,-38.5 160,-19.5 0,-19.5"/>
<text text-anchor="middle" x="80" y="-26.5" font-family="Helvetica,sans-Serif" font-size="10.00" fill="#000000">BasisnamesOne::fromSecond</text>
</g>
<!-- Node24 -->
<g id="node2" class="node">
<title>Node24</title>
<g id="a_node2"><a xlink:href="classHamiltonianTwo.html#a6ca0a318f25170b69e571a07064a5afb" target="_top" xlink:title="HamiltonianTwo::calculate">
<polygon fill="none" stroke="#000000" points="196,-38.5 196,-57.5 342,-57.5 342,-38.5 196,-38.5"/>
<text text-anchor="middle" x="269" y="-45.5" font-family="Helvetica,sans-Serif" font-size="10.00" fill="#000000">HamiltonianTwo::calculate</text>
</a>
</g>
</g>
<!-- Node23&#45;&gt;Node24 -->
<g id="edge1" class="edge">
<title>Node23&#45;&gt;Node24</title>
<path fill="none" stroke="#191970" d="M170.2261,-38.0704C178.8401,-38.9363 187.5016,-39.807 195.9234,-40.6537"/>
<polygon fill="#191970" stroke="#191970" points="170.453,-34.5756 160.153,-37.0577 169.7527,-41.5405 170.453,-34.5756"/>
</g>
<!-- Node26 -->
<g id="node4" class="node">
<title>Node26</title>
<g id="a_node4"><a xlink:href="Interface_8h.html#ad478f0b9610586a2ae8066c78b6d3f96" target="_top" xlink:title="compute">
<polygon fill="none" stroke="#000000" points="239.5,-.5 239.5,-19.5 298.5,-19.5 298.5,-.5 239.5,-.5"/>
<text text-anchor="middle" x="269" y="-7.5" font-family="Helvetica,sans-Serif" font-size="10.00" fill="#000000">compute</text>
</a>
</g>
</g>
<!-- Node23&#45;&gt;Node26 -->
<g id="edge3" class="edge">
<title>Node23&#45;&gt;Node26</title>
<path fill="none" stroke="#191970" d="M170.3713,-19.9151C195.1889,-17.4202 220.3869,-14.887 239.1013,-13.0057"/>
<polygon fill="#191970" stroke="#191970" points="169.7527,-16.4595 160.153,-20.9423 170.453,-23.4244 169.7527,-16.4595"/>
</g>
<!-- Node25 -->
<g id="node3" class="node">
<title>Node25</title>
<g id="a_node3"><a xlink:href="classHamiltonianTwo.html#abd374713c9b38f72265c7fe496c42b96" target="_top" xlink:title="HamiltonianTwo::HamiltonianTwo">
<polygon fill="none" stroke="#000000" points="378,-38.5 378,-57.5 558,-57.5 558,-38.5 378,-38.5"/>
<text text-anchor="middle" x="468" y="-45.5" font-family="Helvetica,sans-Serif" font-size="10.00" fill="#000000">HamiltonianTwo::HamiltonianTwo</text>
</a>
</g>
</g>
<!-- Node24&#45;&gt;Node25 -->
<g id="edge2" class="edge">
<title>Node24&#45;&gt;Node25</title>
<path fill="none" stroke="#191970" d="M352.3577,-48C360.7192,-48 369.237,-48 377.6663,-48"/>
<polygon fill="#191970" stroke="#191970" points="352.2525,-44.5001 342.2525,-48 352.2524,-51.5001 352.2525,-44.5001"/>
</g>
<!-- Node27 -->
<g id="node5" class="node">
<title>Node27</title>
<g id="a_node5"><a xlink:href="main_8cpp.html#a3c04138a5bfe5d72780bb7e82a18e627" target="_top" xlink:title="main">
<polygon fill="none" stroke="#000000" points="447.5,-.5 447.5,-19.5 488.5,-19.5 488.5,-.5 447.5,-.5"/>
<text text-anchor="middle" x="468" y="-7.5" font-family="Helvetica,sans-Serif" font-size="10.00" fill="#000000">main</text>
</a>
</g>
</g>
<!-- Node26&#45;&gt;Node27 -->
<g id="edge4" class="edge">
<title>Node26&#45;&gt;Node27</title>
<path fill="none" stroke="#191970" d="M308.9177,-10C350.7585,-10 414.8509,-10 447.4378,-10"/>
<polygon fill="#191970" stroke="#191970" points="308.7923,-6.5001 298.7923,-10 308.7923,-13.5001 308.7923,-6.5001"/>
</g>
</g>
</svg>
