<?xml version="1.0" encoding="UTF-8" standalone="no"?>
<!DOCTYPE svg PUBLIC "-//W3C//DTD SVG 1.1//EN"
 "http://www.w3.org/Graphics/SVG/1.1/DTD/svg11.dtd">
<!-- Generated by graphviz version 2.40.1 (20161225.0304)
 -->
<!-- Title: StateOne::isArtificial Pages: 1 -->
<svg width="286pt" height="66pt"
 viewBox="0.00 0.00 286.00 66.00" xmlns="http://www.w3.org/2000/svg" xmlns:xlink="http://www.w3.org/1999/xlink">
<g id="graph0" class="graph" transform="scale(1 1) rotate(0) translate(4 62)">
<title>StateOne::isArtificial</title>
<!-- Node130 -->
<g id="node1" class="node">
<title>Node130</title>
<polygon fill="#bfbfbf" stroke="#000000" points="0,-19.5 0,-38.5 117,-38.5 117,-19.5 0,-19.5"/>
<text text-anchor="middle" x="58.5" y="-26.5" font-family="Helvetica,sans-Serif" font-size="10.00" fill="#000000">StateOne::isArtificial</text>
</g>
<!-- Node131 -->
<g id="node2" class="node">
<title>Node131</title>
<g id="a_node2"><a xlink:href="State_8cpp.html#ae62083584a93c249d0c3b4a6f046fee1" target="_top" xlink:title="operator\&lt;\&lt;">
<polygon fill="none" stroke="#000000" points="178.5,-38.5 178.5,-57.5 252.5,-57.5 252.5,-38.5 178.5,-38.5"/>
<text text-anchor="middle" x="215.5" y="-45.5" font-family="Helvetica,sans-Serif" font-size="10.00" fill="#000000">operator&lt;&lt;</text>
</a>
</g>
</g>
<!-- Node130&#45;&gt;Node131 -->
<g id="edge1" class="edge">
<title>Node130&#45;&gt;Node131</title>
<path fill="none" stroke="#191970" d="M127.5542,-37.3569C144.9552,-39.4627 162.9845,-41.6446 178.1548,-43.4805"/>
<polygon fill="#191970" stroke="#191970" points="127.7558,-33.8558 117.4077,-36.129 126.9147,-40.8051 127.7558,-33.8558"/>
</g>
<!-- Node132 -->
<g id="node3" class="node">
<title>Node132</title>
<g id="a_node3"><a xlink:href="classStateOne.html#aa32aa6162d8947218a5a72d56a8d5582" target="_top" xlink:title="StateOne::operator\&lt;=">
<polygon fill="none" stroke="#000000" points="153,-.5 153,-19.5 278,-19.5 278,-.5 153,-.5"/>
<text text-anchor="middle" x="215.5" y="-7.5" font-family="Helvetica,sans-Serif" font-size="10.00" fill="#000000">StateOne::operator&lt;=</text>
</a>
</g>
</g>
<!-- Node130&#45;&gt;Node132 -->
<g id="edge2" class="edge">
<title>Node130&#45;&gt;Node132</title>
<path fill="none" stroke="#191970" d="M127.5688,-20.6414C135.9803,-19.6234 144.5385,-18.5877 152.8493,-17.5819"/>
<polygon fill="#191970" stroke="#191970" points="126.9147,-17.1949 117.4077,-21.871 127.7558,-24.1442 126.9147,-17.1949"/>
</g>
</g>
</svg>
