<?xml version="1.0" encoding="UTF-8" standalone="no"?>
<!DOCTYPE svg PUBLIC "-//W3C//DTD SVG 1.1//EN"
 "http://www.w3.org/Graphics/SVG/1.1/DTD/svg11.dtd">
<!-- Generated by graphviz version 2.40.1 (20161225.0304)
 -->
<!-- Title: HamiltonianTwo::HamiltonianTwo Pages: 1 -->
<svg width="1057pt" height="801pt"
 viewBox="0.00 0.00 1057.00 800.50" xmlns="http://www.w3.org/2000/svg" xmlns:xlink="http://www.w3.org/1999/xlink">
<g id="graph0" class="graph" transform="scale(1 1) rotate(0) translate(4 796.5)">
<title>HamiltonianTwo::HamiltonianTwo</title>
<!-- Node0 -->
<g id="node1" class="node">
<title>Node0</title>
<polygon fill="#bfbfbf" stroke="#000000" points="0,-417 0,-436 180,-436 180,-417 0,-417"/>
<text text-anchor="middle" x="90" y="-424" font-family="Helvetica,sans-Serif" font-size="10.00" fill="#000000">HamiltonianTwo::HamiltonianTwo</text>
</g>
<!-- Node1 -->
<g id="node2" class="node">
<title>Node1</title>
<g id="a_node2"><a xlink:href="classHamiltonianTwo.html#a6ca0a318f25170b69e571a07064a5afb" target="_top" xlink:title="HamiltonianTwo::calculate">
<polygon fill="none" stroke="#000000" points="216,-417 216,-436 362,-436 362,-417 216,-417"/>
<text text-anchor="middle" x="289" y="-424" font-family="Helvetica,sans-Serif" font-size="10.00" fill="#000000">HamiltonianTwo::calculate</text>
</a>
</g>
</g>
<!-- Node0&#45;&gt;Node1 -->
<g id="edge1" class="edge">
<title>Node0&#45;&gt;Node1</title>
<path fill="none" stroke="#191970" d="M180.184,-426.5C188.6649,-426.5 197.2369,-426.5 205.6505,-426.5"/>
<polygon fill="#191970" stroke="#191970" points="205.8181,-430.0001 215.8181,-426.5 205.8181,-423.0001 205.8181,-430.0001"/>
</g>
<!-- Node2 -->
<g id="node3" class="node">
<title>Node2</title>
<g id="a_node3"><a xlink:href="classStateTwoOld.html#aad5fb4307dec316a5b602c2e8bfae0a8" target="_top" xlink:title="StateTwoOld::first">
<polygon fill="none" stroke="#000000" points="436,-773 436,-792 539,-792 539,-773 436,-773"/>
<text text-anchor="middle" x="487.5" y="-780" font-family="Helvetica,sans-Serif" font-size="10.00" fill="#000000">StateTwoOld::first</text>
</a>
</g>
</g>
<!-- Node1&#45;&gt;Node2 -->
<g id="edge2" class="edge">
<title>Node1&#45;&gt;Node2</title>
<path fill="none" stroke="#191970" d="M290.7579,-436.0282C300.1497,-485.9204 345.931,-716.5658 398,-763.5 405.8683,-770.5923 415.7106,-775.2789 425.9646,-778.3318"/>
<polygon fill="#191970" stroke="#191970" points="425.3228,-781.7786 435.8708,-780.7835 427.0046,-774.9836 425.3228,-781.7786"/>
</g>
<!-- Node3 -->
<g id="node4" class="node">
<title>Node3</title>
<g id="a_node4"><a xlink:href="classStateTwoOld.html#a6efa9c8f92e433004b778f6f5ce212d9" target="_top" xlink:title="StateTwoOld::second">
<polygon fill="none" stroke="#000000" points="428.5,-735 428.5,-754 546.5,-754 546.5,-735 428.5,-735"/>
<text text-anchor="middle" x="487.5" y="-742" font-family="Helvetica,sans-Serif" font-size="10.00" fill="#000000">StateTwoOld::second</text>
</a>
</g>
</g>
<!-- Node1&#45;&gt;Node3 -->
<g id="edge3" class="edge">
<title>Node1&#45;&gt;Node3</title>
<path fill="none" stroke="#191970" d="M289.5114,-436.0954C292.2275,-477.0623 308.4637,-638.9298 398,-720.5 403.9367,-725.9085 410.9615,-730.1203 418.4243,-733.3965"/>
<polygon fill="#191970" stroke="#191970" points="417.4715,-736.7787 428.0624,-737.0655 419.9619,-730.2367 417.4715,-736.7787"/>
</g>
<!-- Node4 -->
<g id="node5" class="node">
<title>Node4</title>
<g id="a_node5"><a xlink:href="Hamiltonianmatrix_8cpp.html#a678b50f9b12e7a3fa69970554dd5d206" target="_top" xlink:title="energycutoff">
<polygon fill="none" stroke="#000000" points="448,-609 448,-628 527,-628 527,-609 448,-609"/>
<text text-anchor="middle" x="487.5" y="-616" font-family="Helvetica,sans-Serif" font-size="10.00" fill="#000000">energycutoff</text>
</a>
</g>
</g>
<!-- Node1&#45;&gt;Node4 -->
<g id="edge4" class="edge">
<title>Node1&#45;&gt;Node4</title>
<path fill="none" stroke="#191970" d="M292.082,-436.2604C302.0279,-466.0619 336.2664,-556.4564 398,-599.5 409.6383,-607.6148 424.0507,-612.38 437.8845,-615.1451"/>
<polygon fill="#191970" stroke="#191970" points="437.3636,-618.6066 447.8074,-616.8243 438.5316,-611.7047 437.3636,-618.6066"/>
</g>
<!-- Node5 -->
<g id="node6" class="node">
<title>Node5</title>
<g id="a_node6"><a xlink:href="classHamiltonianmatrix.html#ab0f42b034579983088548dd6dd4e1e78" target="_top" xlink:title="Hamiltonianmatrix::\lbasis">
<polygon fill="none" stroke="#000000" points="619.5,-689.5 619.5,-719.5 734.5,-719.5 734.5,-689.5 619.5,-689.5"/>
<text text-anchor="start" x="627.5" y="-707.5" font-family="Helvetica,sans-Serif" font-size="10.00" fill="#000000">Hamiltonianmatrix::</text>
<text text-anchor="middle" x="677" y="-696.5" font-family="Helvetica,sans-Serif" font-size="10.00" fill="#000000">basis</text>
</a>
</g>
</g>
<!-- Node1&#45;&gt;Node5 -->
<g id="edge35" class="edge">
<title>Node1&#45;&gt;Node5</title>
<path fill="none" stroke="#191970" d="M289.5753,-436.0092C292.5056,-475.1208 309.3512,-624.477 398,-687.5 459.2558,-731.0485 548.5113,-728.1263 609.4668,-719.0227"/>
<polygon fill="#191970" stroke="#191970" points="610.0457,-722.4748 619.3742,-717.4518 608.9494,-715.5611 610.0457,-722.4748"/>
</g>
<!-- Node8 -->
<g id="node9" class="node">
<title>Node8</title>
<g id="a_node9"><a xlink:href="classBasisnamesOne.html#a37fe3571090885a8a594eed4019befa9" target="_top" xlink:title="BasisnamesOne::fromFirst">
<polygon fill="none" stroke="#000000" points="414.5,-395 414.5,-414 560.5,-414 560.5,-395 414.5,-395"/>
<text text-anchor="middle" x="487.5" y="-402" font-family="Helvetica,sans-Serif" font-size="10.00" fill="#000000">BasisnamesOne::fromFirst</text>
</a>
</g>
</g>
<!-- Node1&#45;&gt;Node8 -->
<g id="edge8" class="edge">
<title>Node1&#45;&gt;Node8</title>
<path fill="none" stroke="#191970" d="M362.0684,-418.4017C375.7673,-416.8835 390.1829,-415.2858 404.1657,-413.736"/>
<polygon fill="#191970" stroke="#191970" points="404.7009,-417.1982 414.2545,-412.6179 403.9297,-410.2408 404.7009,-417.1982"/>
</g>
<!-- Node10 -->
<g id="node11" class="node">
<title>Node10</title>
<g id="a_node11"><a xlink:href="classBasisnamesOne.html#a683ae34cba3c56f9a0185e932de62078" target="_top" xlink:title="BasisnamesOne::fromSecond">
<polygon fill="none" stroke="#000000" points="407.5,-357 407.5,-376 567.5,-376 567.5,-357 407.5,-357"/>
<text text-anchor="middle" x="487.5" y="-364" font-family="Helvetica,sans-Serif" font-size="10.00" fill="#000000">BasisnamesOne::fromSecond</text>
</a>
</g>
</g>
<!-- Node1&#45;&gt;Node10 -->
<g id="edge10" class="edge">
<title>Node1&#45;&gt;Node10</title>
<path fill="none" stroke="#191970" d="M311.6265,-416.8445C333.4396,-407.811 367.5335,-394.4088 398,-385.5 407.0523,-382.853 416.7201,-380.4118 426.2308,-378.2233"/>
<polygon fill="#191970" stroke="#191970" points="427.0526,-381.6261 436.0528,-376.0361 425.5311,-374.7934 427.0526,-381.6261"/>
</g>
<!-- Node11 -->
<g id="node12" class="node">
<title>Node11</title>
<g id="a_node12"><a xlink:href="classMatrixElements.html#a9c1a327dedbd617cae43dbcff1685a43" target="_top" xlink:title="MatrixElements::precalculate\lMultipole">
<polygon fill="none" stroke="#000000" points="408,-307.5 408,-337.5 567,-337.5 567,-307.5 408,-307.5"/>
<text text-anchor="start" x="416" y="-325.5" font-family="Helvetica,sans-Serif" font-size="10.00" fill="#000000">MatrixElements::precalculate</text>
<text text-anchor="middle" x="487.5" y="-314.5" font-family="Helvetica,sans-Serif" font-size="10.00" fill="#000000">Multipole</text>
</a>
</g>
</g>
<!-- Node1&#45;&gt;Node11 -->
<g id="edge12" class="edge">
<title>Node1&#45;&gt;Node11</title>
<path fill="none" stroke="#191970" d="M299.611,-416.7827C318.1951,-400.2534 358.432,-366.6024 398,-347.5 402.9034,-345.1328 408.0694,-342.9552 413.3437,-340.9584"/>
<polygon fill="#191970" stroke="#191970" points="414.6686,-344.2022 422.9209,-337.5576 412.3261,-337.6057 414.6686,-344.2022"/>
</g>
<!-- Node12 -->
<g id="node13" class="node">
<title>Node12</title>
<g id="a_node13"><a xlink:href="MatrixElements_8cpp.html#a8091d5442eeac91702ef15b470e70798" target="_top" xlink:title="selectionRulesMultipole">
<polygon fill="none" stroke="#000000" points="421,-269 421,-288 554,-288 554,-269 421,-269"/>
<text text-anchor="middle" x="487.5" y="-276" font-family="Helvetica,sans-Serif" font-size="10.00" fill="#000000">selectionRulesMultipole</text>
</a>
</g>
</g>
<!-- Node1&#45;&gt;Node12 -->
<g id="edge13" class="edge">
<title>Node1&#45;&gt;Node12</title>
<path fill="none" stroke="#191970" d="M294.1535,-416.9627C307.6877,-392.891 346.7598,-329.3979 398,-298.5 402.4035,-295.8447 407.1204,-293.541 412.0016,-291.5426"/>
<polygon fill="#191970" stroke="#191970" points="413.3538,-294.775 421.5516,-288.0634 410.9576,-288.1979 413.3538,-294.775"/>
</g>
<!-- Node13 -->
<g id="node14" class="node">
<title>Node13</title>
<g id="a_node14"><a xlink:href="classMatrixElements.html#a6b21945229b04895c8a2e896454df444" target="_top" xlink:title="MatrixElements::getMultipole">
<polygon fill="none" stroke="#000000" points="407.5,-231 407.5,-250 567.5,-250 567.5,-231 407.5,-231"/>
<text text-anchor="middle" x="487.5" y="-238" font-family="Helvetica,sans-Serif" font-size="10.00" fill="#000000">MatrixElements::getMultipole</text>
</a>
</g>
</g>
<!-- Node1&#45;&gt;Node13 -->
<g id="edge14" class="edge">
<title>Node1&#45;&gt;Node13</title>
<path fill="none" stroke="#191970" d="M292.3342,-416.6621C302.7679,-387.4689 337.7422,-300.8005 398,-259.5 400.905,-257.5089 403.9782,-255.7202 407.1686,-254.1137"/>
<polygon fill="#191970" stroke="#191970" points="408.6761,-257.2744 416.4279,-250.0522 405.8642,-250.864 408.6761,-257.2744"/>
</g>
<!-- Node14 -->
<g id="node15" class="node">
<title>Node14</title>
<g id="a_node15"><a xlink:href="Hamiltonianmatrix_8cpp.html#ae139c21d132020dde7c86db8efc751e1" target="_top" xlink:title="combine">
<polygon fill="none" stroke="#000000" points="458,-521 458,-540 517,-540 517,-521 458,-521"/>
<text text-anchor="middle" x="487.5" y="-528" font-family="Helvetica,sans-Serif" font-size="10.00" fill="#000000">combine</text>
</a>
</g>
</g>
<!-- Node1&#45;&gt;Node14 -->
<g id="edge15" class="edge">
<title>Node1&#45;&gt;Node14</title>
<path fill="none" stroke="#191970" d="M299.2718,-436.1255C317.6537,-452.8452 358.005,-487.3 398,-506.5 413.5846,-513.9816 431.8558,-519.411 447.812,-523.1929"/>
<polygon fill="#191970" stroke="#191970" points="447.3896,-526.6846 457.9117,-525.4452 448.9133,-519.8524 447.3896,-526.6846"/>
</g>
<!-- Node18 -->
<g id="node19" class="node">
<title>Node18</title>
<g id="a_node19"><a xlink:href="classHamiltonianmatrix.html#a4069febf25da1723d9cc8e27cd2cd669" target="_top" xlink:title="Hamiltonianmatrix::\lnum_basisvectors">
<polygon fill="none" stroke="#000000" points="619.5,-395.5 619.5,-425.5 734.5,-425.5 734.5,-395.5 619.5,-395.5"/>
<text text-anchor="start" x="627.5" y="-413.5" font-family="Helvetica,sans-Serif" font-size="10.00" fill="#000000">Hamiltonianmatrix::</text>
<text text-anchor="middle" x="677" y="-402.5" font-family="Helvetica,sans-Serif" font-size="10.00" fill="#000000">num_basisvectors</text>
</a>
</g>
</g>
<!-- Node1&#45;&gt;Node18 -->
<g id="edge36" class="edge">
<title>Node1&#45;&gt;Node18</title>
<path fill="none" stroke="#191970" d="M305.2928,-436.0457C326.0148,-447.5812 363.2863,-466.3347 398,-473.5 475.9131,-489.5821 503.9183,-504.9348 577,-473.5 598.3713,-464.3075 593.6999,-448.49 613,-435.5 615.8575,-433.5768 618.8846,-431.7693 622.0067,-430.076"/>
<polygon fill="#191970" stroke="#191970" points="623.6004,-433.1924 630.995,-425.6049 620.4827,-426.9251 623.6004,-433.1924"/>
</g>
<!-- Node19 -->
<g id="node20" class="node">
<title>Node19</title>
<g id="a_node20"><a xlink:href="classsqlite_1_1statement.html#a1b40871fb975892f70ea097f7c6da9c1" target="_top" xlink:title="Prepare the statement. ">
<polygon fill="none" stroke="#000000" points="434.5,-181.5 434.5,-211.5 540.5,-211.5 540.5,-181.5 434.5,-181.5"/>
<text text-anchor="start" x="442.5" y="-199.5" font-family="Helvetica,sans-Serif" font-size="10.00" fill="#000000">sqlite::statement::</text>
<text text-anchor="middle" x="487.5" y="-188.5" font-family="Helvetica,sans-Serif" font-size="10.00" fill="#000000">prepare</text>
</a>
</g>
</g>
<!-- Node1&#45;&gt;Node19 -->
<g id="edge23" class="edge">
<title>Node1&#45;&gt;Node19</title>
<path fill="none" stroke="#191970" d="M291.2951,-416.5885C299.4854,-383.4895 330.4633,-275.8074 398,-221.5 405.8264,-215.2067 415.1386,-210.4958 424.7512,-206.9698"/>
<polygon fill="#191970" stroke="#191970" points="425.9936,-210.2463 434.4202,-203.8241 423.8279,-203.5897 425.9936,-210.2463"/>
</g>
<!-- Node20 -->
<g id="node21" class="node">
<title>Node20</title>
<g id="a_node21"><a xlink:href="classConfiguration.html#a545d28b3d64edc05331ee71898acfd1c" target="_top" xlink:title="Load configuration from JSON file. ">
<polygon fill="none" stroke="#000000" points="432.5,-132.5 432.5,-162.5 542.5,-162.5 542.5,-132.5 432.5,-132.5"/>
<text text-anchor="start" x="440.5" y="-150.5" font-family="Helvetica,sans-Serif" font-size="10.00" fill="#000000">Configuration::load</text>
<text text-anchor="middle" x="487.5" y="-139.5" font-family="Helvetica,sans-Serif" font-size="10.00" fill="#000000">_from_json</text>
</a>
</g>
</g>
<!-- Node1&#45;&gt;Node20 -->
<g id="edge24" class="edge">
<title>Node1&#45;&gt;Node20</title>
<path fill="none" stroke="#191970" d="M290.1472,-416.9685C295.1572,-379.6391 318.5563,-242.0242 398,-172.5 405.0434,-166.3361 413.4909,-161.682 422.3445,-158.1699"/>
<polygon fill="#191970" stroke="#191970" points="423.7682,-161.3805 432.0636,-154.7899 421.4688,-154.7689 423.7682,-161.3805"/>
</g>
<!-- Node21 -->
<g id="node22" class="node">
<title>Node21</title>
<g id="a_node22"><a xlink:href="classHamiltonianmatrix.html#ab5561740a111d0e9dc53c865009176a5" target="_top" xlink:title="Hamiltonianmatrix::load">
<polygon fill="none" stroke="#000000" points="419.5,-94 419.5,-113 555.5,-113 555.5,-94 419.5,-94"/>
<text text-anchor="middle" x="487.5" y="-101" font-family="Helvetica,sans-Serif" font-size="10.00" fill="#000000">Hamiltonianmatrix::load</text>
</a>
</g>
</g>
<!-- Node1&#45;&gt;Node21 -->
<g id="edge25" class="edge">
<title>Node1&#45;&gt;Node21</title>
<path fill="none" stroke="#191970" d="M289.3054,-416.8037C291.1833,-374.675 304.494,-205.9527 398,-123.5 401.687,-120.2488 405.7866,-117.4909 410.1454,-115.1546"/>
<polygon fill="#191970" stroke="#191970" points="411.7631,-118.2637 419.4078,-110.9283 408.8572,-111.8954 411.7631,-118.2637"/>
</g>
<!-- Node25 -->
<g id="node26" class="node">
<title>Node25</title>
<g id="a_node26"><a xlink:href="classHamiltonianmatrix.html#a2ff416efff07de6e3df93948c2688989" target="_top" xlink:title="Hamiltonianmatrix::\lremoveUnnecessaryBasisvectors">
<polygon fill="none" stroke="#000000" points="398,-433.5 398,-463.5 577,-463.5 577,-433.5 398,-433.5"/>
<text text-anchor="start" x="406" y="-451.5" font-family="Helvetica,sans-Serif" font-size="10.00" fill="#000000">Hamiltonianmatrix::</text>
<text text-anchor="middle" x="487.5" y="-440.5" font-family="Helvetica,sans-Serif" font-size="10.00" fill="#000000">removeUnnecessaryBasisvectors</text>
</a>
</g>
</g>
<!-- Node1&#45;&gt;Node25 -->
<g id="edge29" class="edge">
<title>Node1&#45;&gt;Node25</title>
<path fill="none" stroke="#191970" d="M362.0684,-434.5983C370.4111,-435.5229 379.0195,-436.477 387.6342,-437.4317"/>
<polygon fill="#191970" stroke="#191970" points="387.4096,-440.9282 397.7343,-438.5512 388.1808,-433.9708 387.4096,-440.9282"/>
</g>
<!-- Node26 -->
<g id="node27" class="node">
<title>Node26</title>
<g id="a_node27"><a xlink:href="classHamiltonianmatrix.html#a310f8a7bc796d0b431928b82f2d11285" target="_top" xlink:title="Hamiltonianmatrix::\lchangeBasis">
<polygon fill="none" stroke="#000000" points="430,-647.5 430,-677.5 545,-677.5 545,-647.5 430,-647.5"/>
<text text-anchor="start" x="438" y="-665.5" font-family="Helvetica,sans-Serif" font-size="10.00" fill="#000000">Hamiltonianmatrix::</text>
<text text-anchor="middle" x="487.5" y="-654.5" font-family="Helvetica,sans-Serif" font-size="10.00" fill="#000000">changeBasis</text>
</a>
</g>
</g>
<!-- Node1&#45;&gt;Node26 -->
<g id="edge31" class="edge">
<title>Node1&#45;&gt;Node26</title>
<path fill="none" stroke="#191970" d="M291.0928,-436.2267C298.8165,-469.7175 328.9283,-581.2805 398,-637.5 404.565,-642.8435 412.1986,-647.0468 420.1869,-650.3528"/>
<polygon fill="#191970" stroke="#191970" points="419.0911,-653.6788 429.6847,-653.8362 421.5014,-647.1068 419.0911,-653.6788"/>
</g>
<!-- Node28 -->
<g id="node29" class="node">
<title>Node28</title>
<g id="a_node29"><a xlink:href="classHamiltonianmatrix.html#a1db6d20a1d88ef89f1acdad819af34ee" target="_top" xlink:title="Hamiltonianmatrix::\ldiagonalize">
<polygon fill="none" stroke="#000000" points="430,-559.5 430,-589.5 545,-589.5 545,-559.5 430,-559.5"/>
<text text-anchor="start" x="438" y="-577.5" font-family="Helvetica,sans-Serif" font-size="10.00" fill="#000000">Hamiltonianmatrix::</text>
<text text-anchor="middle" x="487.5" y="-566.5" font-family="Helvetica,sans-Serif" font-size="10.00" fill="#000000">diagonalize</text>
</a>
</g>
</g>
<!-- Node1&#45;&gt;Node28 -->
<g id="edge37" class="edge">
<title>Node1&#45;&gt;Node28</title>
<path fill="none" stroke="#191970" d="M294.7673,-436.1831C309.1289,-459.438 348.8963,-518.7809 398,-549.5 404.8065,-553.7581 412.3489,-557.3055 420.0838,-560.2575"/>
<polygon fill="#191970" stroke="#191970" points="418.9829,-563.5802 429.5778,-563.5707 421.2895,-556.9711 418.9829,-563.5802"/>
</g>
<!-- Node29 -->
<g id="node30" class="node">
<title>Node29</title>
<g id="a_node30"><a xlink:href="classHamiltonianmatrix.html#a9e77fcca733a19f250dd619799edc9e6" target="_top" xlink:title="Hamiltonianmatrix::save">
<polygon fill="none" stroke="#000000" points="418.5,-53 418.5,-72 556.5,-72 556.5,-53 418.5,-53"/>
<text text-anchor="middle" x="487.5" y="-60" font-family="Helvetica,sans-Serif" font-size="10.00" fill="#000000">Hamiltonianmatrix::save</text>
</a>
</g>
</g>
<!-- Node1&#45;&gt;Node29 -->
<g id="edge41" class="edge">
<title>Node1&#45;&gt;Node29</title>
<path fill="none" stroke="#191970" d="M290.764,-416.862C300.1865,-366.3905 346.099,-133.0106 398,-84.5 401.379,-81.3417 405.1361,-78.6162 409.1427,-76.2659"/>
<polygon fill="#191970" stroke="#191970" points="410.889,-79.3058 418.2627,-71.6979 407.7541,-73.0469 410.889,-79.3058"/>
</g>
<!-- Node4&#45;&gt;Node5 -->
<g id="edge5" class="edge">
<title>Node4&#45;&gt;Node5</title>
<path fill="none" stroke="#191970" d="M527.4257,-621.8694C543.6905,-624.61 562.124,-629.5625 577,-638.5 598.0744,-651.1616 592.8552,-666.4063 613,-680.5 615.127,-681.9881 617.3577,-683.3971 619.6591,-684.7296"/>
<polygon fill="#191970" stroke="#191970" points="618.3284,-687.9828 628.8146,-689.4962 621.561,-681.7738 618.3284,-687.9828"/>
</g>
<!-- Node6 -->
<g id="node7" class="node">
<title>Node6</title>
<g id="a_node7"><a xlink:href="classHamiltonianmatrix.html#a9a6919d68a5f490c249adaaffd46fe75" target="_top" xlink:title="Hamiltonianmatrix::\lentries">
<polygon fill="none" stroke="#000000" points="619.5,-640.5 619.5,-670.5 734.5,-670.5 734.5,-640.5 619.5,-640.5"/>
<text text-anchor="start" x="627.5" y="-658.5" font-family="Helvetica,sans-Serif" font-size="10.00" fill="#000000">Hamiltonianmatrix::</text>
<text text-anchor="middle" x="677" y="-647.5" font-family="Helvetica,sans-Serif" font-size="10.00" fill="#000000">entries</text>
</a>
</g>
</g>
<!-- Node4&#45;&gt;Node6 -->
<g id="edge6" class="edge">
<title>Node4&#45;&gt;Node6</title>
<path fill="none" stroke="#191970" d="M527.2254,-626.2564C551.0037,-630.8991 581.8574,-636.9234 609.3771,-642.2966"/>
<polygon fill="#191970" stroke="#191970" points="608.8603,-645.7617 619.3458,-644.243 610.2018,-638.8914 608.8603,-645.7617"/>
</g>
<!-- Node7 -->
<g id="node8" class="node">
<title>Node7</title>
<g id="a_node8"><a xlink:href="classHamiltonianmatrix.html#a9cd965385a65becbfb993fc79dc428f7" target="_top" xlink:title="Hamiltonianmatrix::\lnum_coordinates">
<polygon fill="none" stroke="#000000" points="619.5,-591.5 619.5,-621.5 734.5,-621.5 734.5,-591.5 619.5,-591.5"/>
<text text-anchor="start" x="627.5" y="-609.5" font-family="Helvetica,sans-Serif" font-size="10.00" fill="#000000">Hamiltonianmatrix::</text>
<text text-anchor="middle" x="677" y="-598.5" font-family="Helvetica,sans-Serif" font-size="10.00" fill="#000000">num_coordinates</text>
</a>
</g>
</g>
<!-- Node4&#45;&gt;Node7 -->
<g id="edge7" class="edge">
<title>Node4&#45;&gt;Node7</title>
<path fill="none" stroke="#191970" d="M527.2254,-615.9844C550.8994,-614.4853 581.5869,-612.542 609.0148,-610.8051"/>
<polygon fill="#191970" stroke="#191970" points="609.587,-614.276 619.3458,-610.1509 609.1445,-607.29 609.587,-614.276"/>
</g>
<!-- Node9 -->
<g id="node10" class="node">
<title>Node9</title>
<g id="a_node10"><a xlink:href="classBasisnames.html#a534f7e2dcc2987a1f969cb89c070da04" target="_top" xlink:title="Basisnames::configure">
<polygon fill="none" stroke="#000000" points="613,-357 613,-376 741,-376 741,-357 613,-357"/>
<text text-anchor="middle" x="677" y="-364" font-family="Helvetica,sans-Serif" font-size="10.00" fill="#000000">Basisnames::configure</text>
</a>
</g>
</g>
<!-- Node8&#45;&gt;Node9 -->
<g id="edge9" class="edge">
<title>Node8&#45;&gt;Node9</title>
<path fill="none" stroke="#191970" d="M535.3189,-394.911C560.8886,-389.7835 592.559,-383.4328 619.4678,-378.0368"/>
<polygon fill="#191970" stroke="#191970" points="620.4084,-381.4179 629.525,-376.0201 619.032,-374.5546 620.4084,-381.4179"/>
</g>
<!-- Node10&#45;&gt;Node9 -->
<g id="edge11" class="edge">
<title>Node10&#45;&gt;Node9</title>
<path fill="none" stroke="#191970" d="M567.5904,-366.5C579.3095,-366.5 591.3353,-366.5 602.927,-366.5"/>
<polygon fill="#191970" stroke="#191970" points="602.9833,-370.0001 612.9833,-366.5 602.9833,-363.0001 602.9833,-370.0001"/>
</g>
<!-- Node14&#45;&gt;Node5 -->
<g id="edge18" class="edge">
<title>Node14&#45;&gt;Node5</title>
<path fill="none" stroke="#191970" d="M517.2916,-529.7034C536.6726,-530.7981 561.1933,-535.4691 577,-550.5 620.4453,-591.8131 572.5267,-636.2712 613,-680.5 613.8787,-681.4603 614.7996,-682.3823 615.7575,-683.2676"/>
<polygon fill="#191970" stroke="#191970" points="613.666,-686.0742 623.7382,-689.3609 617.914,-680.5105 613.666,-686.0742"/>
</g>
<!-- Node14&#45;&gt;Node6 -->
<g id="edge20" class="edge">
<title>Node14&#45;&gt;Node6</title>
<path fill="none" stroke="#191970" d="M517.0176,-530.52C536.0357,-531.9933 560.248,-536.7803 577,-550.5 607.4783,-575.4614 584.3276,-604.4835 613,-631.5 614.1336,-632.5681 615.3191,-633.5898 616.5484,-634.5669"/>
<polygon fill="#191970" stroke="#191970" points="614.9561,-637.714 625.2071,-640.3913 618.8631,-631.9058 614.9561,-637.714"/>
</g>
<!-- Node14&#45;&gt;Node7 -->
<g id="edge22" class="edge">
<title>Node14&#45;&gt;Node7</title>
<path fill="none" stroke="#191970" d="M517.3985,-533.3491C535.4343,-535.9795 558.4353,-540.9938 577,-550.5 596.0545,-560.257 594.6686,-571.4441 613,-582.5 615.6579,-584.103 618.4408,-585.629 621.2953,-587.077"/>
<polygon fill="#191970" stroke="#191970" points="620.0509,-590.3591 630.591,-591.4347 623.0222,-584.0209 620.0509,-590.3591"/>
</g>
<!-- Node15 -->
<g id="node16" class="node">
<title>Node15</title>
<g id="a_node16"><a xlink:href="classHamiltonianmatrix.html#a45f3d187ac775e9b6c6a7756810f91ab" target="_top" xlink:title="Hamiltonianmatrix::\laddBasis">
<polygon fill="none" stroke="#000000" points="619.5,-542.5 619.5,-572.5 734.5,-572.5 734.5,-542.5 619.5,-542.5"/>
<text text-anchor="start" x="627.5" y="-560.5" font-family="Helvetica,sans-Serif" font-size="10.00" fill="#000000">Hamiltonianmatrix::</text>
<text text-anchor="middle" x="677" y="-549.5" font-family="Helvetica,sans-Serif" font-size="10.00" fill="#000000">addBasis</text>
</a>
</g>
</g>
<!-- Node14&#45;&gt;Node15 -->
<g id="edge16" class="edge">
<title>Node14&#45;&gt;Node15</title>
<path fill="none" stroke="#191970" d="M517.1094,-534.7188C541.719,-538.2251 577.692,-543.3506 609.2875,-547.8523"/>
<polygon fill="#191970" stroke="#191970" points="608.9782,-551.3435 619.3719,-549.2891 609.9656,-544.4135 608.9782,-551.3435"/>
</g>
<!-- Node16 -->
<g id="node17" class="node">
<title>Node16</title>
<g id="a_node17"><a xlink:href="classHamiltonianmatrix.html#a7f424947bfe863cdd30d3290b4b708a5" target="_top" xlink:title="Hamiltonianmatrix::\laddEntries">
<polygon fill="none" stroke="#000000" points="619.5,-493.5 619.5,-523.5 734.5,-523.5 734.5,-493.5 619.5,-493.5"/>
<text text-anchor="start" x="627.5" y="-511.5" font-family="Helvetica,sans-Serif" font-size="10.00" fill="#000000">Hamiltonianmatrix::</text>
<text text-anchor="middle" x="677" y="-500.5" font-family="Helvetica,sans-Serif" font-size="10.00" fill="#000000">addEntries</text>
</a>
</g>
</g>
<!-- Node14&#45;&gt;Node16 -->
<g id="edge17" class="edge">
<title>Node14&#45;&gt;Node16</title>
<path fill="none" stroke="#191970" d="M517.1094,-527.0625C541.719,-524.2054 577.692,-520.0292 609.2875,-516.3611"/>
<polygon fill="#191970" stroke="#191970" points="609.8423,-519.8203 619.3719,-515.1903 609.035,-512.867 609.8423,-519.8203"/>
</g>
<!-- Node17 -->
<g id="node18" class="node">
<title>Node17</title>
<g id="a_node18"><a xlink:href="classHamiltonianmatrix.html#a4dded9728c945c20fcd7abbc8bd5cfe6" target="_top" xlink:title="Hamiltonianmatrix::\lcompress">
<polygon fill="none" stroke="#000000" points="619.5,-444.5 619.5,-474.5 734.5,-474.5 734.5,-444.5 619.5,-444.5"/>
<text text-anchor="start" x="627.5" y="-462.5" font-family="Helvetica,sans-Serif" font-size="10.00" fill="#000000">Hamiltonianmatrix::</text>
<text text-anchor="middle" x="677" y="-451.5" font-family="Helvetica,sans-Serif" font-size="10.00" fill="#000000">compress</text>
</a>
</g>
</g>
<!-- Node14&#45;&gt;Node17 -->
<g id="edge19" class="edge">
<title>Node14&#45;&gt;Node17</title>
<path fill="none" stroke="#191970" d="M517.2338,-524.7736C535.0014,-520.8056 557.7808,-514.7454 577,-506.5 594.2322,-499.107 596.2019,-492.8325 613,-484.5 617.0775,-482.4774 621.3613,-480.5024 625.6992,-478.6056"/>
<polygon fill="#191970" stroke="#191970" points="627.3685,-481.7003 635.2235,-474.5903 624.6492,-475.25 627.3685,-481.7003"/>
</g>
<!-- Node14&#45;&gt;Node18 -->
<g id="edge21" class="edge">
<title>Node14&#45;&gt;Node18</title>
<path fill="none" stroke="#191970" d="M517.281,-528.6557C536.17,-526.1114 560.137,-520.1856 577,-506.5 604.4714,-484.2048 586.8006,-459.277 613,-435.5 614.7225,-433.9368 616.5539,-432.4666 618.4677,-431.0844"/>
<polygon fill="#191970" stroke="#191970" points="620.6718,-433.8347 627.3035,-425.5721 616.9666,-427.8957 620.6718,-433.8347"/>
</g>
<!-- Node22 -->
<g id="node23" class="node">
<title>Node22</title>
<g id="a_node23"><a xlink:href="classHamiltonianmatrix.html#a15bc9c823975f5395112432c5b8507db" target="_top" xlink:title="Hamiltonianmatrix::\ldoDeserialization">
<polygon fill="none" stroke="#000000" points="619.5,-91.5 619.5,-121.5 734.5,-121.5 734.5,-91.5 619.5,-91.5"/>
<text text-anchor="start" x="627.5" y="-109.5" font-family="Helvetica,sans-Serif" font-size="10.00" fill="#000000">Hamiltonianmatrix::</text>
<text text-anchor="middle" x="677" y="-98.5" font-family="Helvetica,sans-Serif" font-size="10.00" fill="#000000">doDeserialization</text>
</a>
</g>
</g>
<!-- Node21&#45;&gt;Node22 -->
<g id="edge26" class="edge">
<title>Node21&#45;&gt;Node22</title>
<path fill="none" stroke="#191970" d="M555.6461,-104.5788C573.1201,-104.8555 591.9078,-105.1529 609.3563,-105.4291"/>
<polygon fill="#191970" stroke="#191970" points="609.4008,-108.9302 619.455,-105.589 609.5117,-101.931 609.4008,-108.9302"/>
</g>
<!-- Node23 -->
<g id="node24" class="node">
<title>Node23</title>
<g id="a_node24"><a xlink:href="classSerializer.html#a26e560124d2dd1daa304ac8e878db630" target="_top" xlink:title="Serializer::load">
<polygon fill="none" stroke="#000000" points="790,-140 790,-159 879,-159 879,-140 790,-140"/>
<text text-anchor="middle" x="834.5" y="-147" font-family="Helvetica,sans-Serif" font-size="10.00" fill="#000000">Serializer::load</text>
</a>
</g>
</g>
<!-- Node22&#45;&gt;Node23 -->
<g id="edge27" class="edge">
<title>Node22&#45;&gt;Node23</title>
<path fill="none" stroke="#191970" d="M732.0859,-121.5393C750.8601,-126.665 771.6124,-132.3307 789.4997,-137.2142"/>
<polygon fill="#191970" stroke="#191970" points="788.8179,-140.6561 799.3867,-139.9135 790.6616,-133.9032 788.8179,-140.6561"/>
</g>
<!-- Node24 -->
<g id="node25" class="node">
<title>Node24</title>
<g id="a_node25"><a xlink:href="classHamiltonianmatrix.html#a37cc79dcec0f0d81265870a34517a225" target="_top" xlink:title="Hamiltonianmatrix::\lmergeComplex">
<polygon fill="none" stroke="#000000" points="777,-90.5 777,-120.5 892,-120.5 892,-90.5 777,-90.5"/>
<text text-anchor="start" x="785" y="-108.5" font-family="Helvetica,sans-Serif" font-size="10.00" fill="#000000">Hamiltonianmatrix::</text>
<text text-anchor="middle" x="834.5" y="-97.5" font-family="Helvetica,sans-Serif" font-size="10.00" fill="#000000">mergeComplex</text>
</a>
</g>
</g>
<!-- Node22&#45;&gt;Node24 -->
<g id="edge28" class="edge">
<title>Node22&#45;&gt;Node24</title>
<path fill="none" stroke="#191970" d="M734.7529,-106.1333C745.1317,-106.0674 756.0355,-105.9982 766.6685,-105.9307"/>
<polygon fill="#191970" stroke="#191970" points="766.7766,-109.4302 776.7541,-105.8666 766.7321,-102.4303 766.7766,-109.4302"/>
</g>
<!-- Node25&#45;&gt;Node18 -->
<g id="edge30" class="edge">
<title>Node25&#45;&gt;Node18</title>
<path fill="none" stroke="#191970" d="M562.3954,-433.4814C577.9257,-430.3672 594.201,-427.1035 609.4495,-424.0458"/>
<polygon fill="#191970" stroke="#191970" points="610.1868,-427.4677 619.3035,-422.0698 608.8105,-420.6043 610.1868,-427.4677"/>
</g>
<!-- Node26&#45;&gt;Node5 -->
<g id="edge32" class="edge">
<title>Node26&#45;&gt;Node5</title>
<path fill="none" stroke="#191970" d="M545.1281,-675.2724C565.4328,-679.7727 588.439,-684.8717 609.4859,-689.5364"/>
<polygon fill="#191970" stroke="#191970" points="608.7991,-692.9691 619.3196,-691.7159 610.3139,-686.1349 608.7991,-692.9691"/>
</g>
<!-- Node26&#45;&gt;Node6 -->
<g id="edge33" class="edge">
<title>Node26&#45;&gt;Node6</title>
<path fill="none" stroke="#191970" d="M545.1281,-660.3713C565.3409,-659.6246 588.2309,-658.7791 609.2001,-658.0045"/>
<polygon fill="#191970" stroke="#191970" points="609.4556,-661.4975 619.3196,-657.6307 609.1972,-654.5023 609.4556,-661.4975"/>
</g>
<!-- Node27 -->
<g id="node28" class="node">
<title>Node27</title>
<g id="a_node28"><a xlink:href="classHamiltonianmatrix.html#abee2f1bfc2b5239e366a59d1f96ba03e" target="_top" xlink:title="Hamiltonianmatrix::\lHamiltonianmatrix">
<polygon fill="none" stroke="#000000" points="619.5,-738.5 619.5,-768.5 734.5,-768.5 734.5,-738.5 619.5,-738.5"/>
<text text-anchor="start" x="627.5" y="-756.5" font-family="Helvetica,sans-Serif" font-size="10.00" fill="#000000">Hamiltonianmatrix::</text>
<text text-anchor="middle" x="677" y="-745.5" font-family="Helvetica,sans-Serif" font-size="10.00" fill="#000000">Hamiltonianmatrix</text>
</a>
</g>
</g>
<!-- Node26&#45;&gt;Node27 -->
<g id="edge34" class="edge">
<title>Node26&#45;&gt;Node27</title>
<path fill="none" stroke="#191970" d="M513.4368,-677.6435C538.4689,-691.9459 577.6658,-713.5266 613,-729.5 616.8319,-731.2323 620.8293,-732.9448 624.8729,-734.61"/>
<polygon fill="#191970" stroke="#191970" points="623.7513,-737.9309 634.336,-738.3962 626.3517,-731.4318 623.7513,-737.9309"/>
</g>
<!-- Node28&#45;&gt;Node5 -->
<g id="edge38" class="edge">
<title>Node28&#45;&gt;Node5</title>
<path fill="none" stroke="#191970" d="M545.1896,-582.6073C556.676,-586.3144 567.9657,-591.6957 577,-599.5 606.8122,-625.2533 584.3276,-653.4835 613,-680.5 614.1336,-681.5681 615.3191,-682.5898 616.5484,-683.5669"/>
<polygon fill="#191970" stroke="#191970" points="614.9561,-686.714 625.2071,-689.3913 618.8631,-680.9058 614.9561,-686.714"/>
</g>
<!-- Node28&#45;&gt;Node6 -->
<g id="edge39" class="edge">
<title>Node28&#45;&gt;Node6</title>
<path fill="none" stroke="#191970" d="M545.3572,-586.4951C556.2223,-589.8939 567.2284,-594.1679 577,-599.5 595.7916,-609.7541 594.6686,-620.4441 613,-631.5 615.6579,-633.103 618.4408,-634.629 621.2953,-636.077"/>
<polygon fill="#191970" stroke="#191970" points="620.0509,-639.3591 630.591,-640.4347 623.0222,-633.0209 620.0509,-639.3591"/>
</g>
<!-- Node28&#45;&gt;Node18 -->
<g id="edge40" class="edge">
<title>Node28&#45;&gt;Node18</title>
<path fill="none" stroke="#191970" d="M545.4115,-567.2943C557.0188,-563.5399 568.3021,-557.9113 577,-549.5 615.1945,-512.5637 576.6995,-474.2993 613,-435.5 614.2326,-434.1825 615.543,-432.9334 616.9177,-431.7493"/>
<polygon fill="#191970" stroke="#191970" points="619.3221,-434.3314 625.3995,-425.653 615.2366,-428.6473 619.3221,-434.3314"/>
</g>
<!-- Node30 -->
<g id="node31" class="node">
<title>Node30</title>
<g id="a_node31"><a xlink:href="classHamiltonianmatrix.html#aa8d50e3585a18628f4abbb5bcede4bbb" target="_top" xlink:title="Hamiltonianmatrix::\ldoSerialization">
<polygon fill="none" stroke="#000000" points="619.5,-42.5 619.5,-72.5 734.5,-72.5 734.5,-42.5 619.5,-42.5"/>
<text text-anchor="start" x="627.5" y="-60.5" font-family="Helvetica,sans-Serif" font-size="10.00" fill="#000000">Hamiltonianmatrix::</text>
<text text-anchor="middle" x="677" y="-49.5" font-family="Helvetica,sans-Serif" font-size="10.00" fill="#000000">doSerialization</text>
</a>
</g>
</g>
<!-- Node29&#45;&gt;Node30 -->
<g id="edge42" class="edge">
<title>Node29&#45;&gt;Node30</title>
<path fill="none" stroke="#191970" d="M556.7182,-60.6737C573.7918,-60.2232 592.0606,-59.7411 609.0723,-59.2923"/>
<polygon fill="#191970" stroke="#191970" points="609.5759,-62.7803 619.4801,-59.0177 609.3913,-55.7827 609.5759,-62.7803"/>
</g>
<!-- Node31 -->
<g id="node32" class="node">
<title>Node31</title>
<g id="a_node32"><a xlink:href="classSerializer.html#a79a572d0a14988acd13217beb7d5547b" target="_top" xlink:title="Serializer::save">
<polygon fill="none" stroke="#000000" points="788.5,-50 788.5,-69 880.5,-69 880.5,-50 788.5,-50"/>
<text text-anchor="middle" x="834.5" y="-57" font-family="Helvetica,sans-Serif" font-size="10.00" fill="#000000">Serializer::save</text>
</a>
</g>
</g>
<!-- Node30&#45;&gt;Node31 -->
<g id="edge43" class="edge">
<title>Node30&#45;&gt;Node31</title>
<path fill="none" stroke="#191970" d="M734.7529,-58.2334C748.8822,-58.4128 763.9843,-58.6046 778.0517,-58.7832"/>
<polygon fill="#191970" stroke="#191970" points="778.0397,-62.2832 788.0834,-58.9106 778.1287,-55.2838 778.0397,-62.2832"/>
</g>
<!-- Node33 -->
<g id="node34" class="node">
<title>Node33</title>
<g id="a_node34"><a xlink:href="classHamiltonianmatrix.html#a035cf5188e89f3f4230beb502a718ea9" target="_top" xlink:title="Hamiltonianmatrix::\lsplitComplex">
<polygon fill="none" stroke="#000000" points="777,-.5 777,-30.5 892,-30.5 892,-.5 777,-.5"/>
<text text-anchor="start" x="785" y="-18.5" font-family="Helvetica,sans-Serif" font-size="10.00" fill="#000000">Hamiltonianmatrix::</text>
<text text-anchor="middle" x="834.5" y="-7.5" font-family="Helvetica,sans-Serif" font-size="10.00" fill="#000000">splitComplex</text>
</a>
</g>
</g>
<!-- Node30&#45;&gt;Node33 -->
<g id="edge45" class="edge">
<title>Node30&#45;&gt;Node33</title>
<path fill="none" stroke="#191970" d="M733.4163,-42.4557C744.7945,-39.4215 756.8508,-36.2064 768.5226,-33.094"/>
<polygon fill="#191970" stroke="#191970" points="769.4526,-36.4684 778.2131,-30.5098 767.6489,-29.7047 769.4526,-36.4684"/>
</g>
<!-- Node32 -->
<g id="node33" class="node">
<title>Node32</title>
<g id="a_node33"><a xlink:href="classSerializable.html#ad0b89a7563e6a98df7eb6a8a46c51735" target="_top" xlink:title="Serializable::serialize">
<polygon fill="none" stroke="#000000" points="928,-50 928,-69 1049,-69 1049,-50 928,-50"/>
<text text-anchor="middle" x="988.5" y="-57" font-family="Helvetica,sans-Serif" font-size="10.00" fill="#000000">Serializable::serialize</text>
</a>
</g>
</g>
<!-- Node31&#45;&gt;Node32 -->
<g id="edge44" class="edge">
<title>Node31&#45;&gt;Node32</title>
<path fill="none" stroke="#191970" d="M880.7051,-59.5C892.3798,-59.5 905.1854,-59.5 917.7663,-59.5"/>
<polygon fill="#191970" stroke="#191970" points="917.782,-63.0001 927.7819,-59.5 917.7819,-56.0001 917.782,-63.0001"/>
</g>
</g>
</svg>
