<?xml version="1.0" encoding="UTF-8" standalone="no"?>
<!DOCTYPE svg PUBLIC "-//W3C//DTD SVG 1.1//EN"
 "http://www.w3.org/Graphics/SVG/1.1/DTD/svg11.dtd">
<!-- Generated by graphviz version 2.40.1 (20161225.0304)
 -->
<!-- Title: QuantumDefect Pages: 1 -->
<svg width="178pt" height="183pt"
 viewBox="0.00 0.00 178.00 183.00" xmlns="http://www.w3.org/2000/svg" xmlns:xlink="http://www.w3.org/1999/xlink">
<g id="graph0" class="graph" transform="scale(1 1) rotate(0) translate(4 179)">
<title>QuantumDefect</title>
<!-- Node1 -->
<g id="node1" class="node">
<title>Node1</title>
<polygon fill="#bfbfbf" stroke="#000000" points="36,-.5 36,-19.5 130,-19.5 130,-.5 36,-.5"/>
<text text-anchor="middle" x="83" y="-7.5" font-family="Helvetica,sans-Serif" font-size="10.00" fill="#000000">QuantumDefect</text>
</g>
<!-- Node2 -->
<g id="node2" class="node">
<title>Node2</title>
<g id="a_node2"><a xlink:href="classdouble.html" target="_top" xlink:title="double">
<polygon fill="none" stroke="#000000" points="0,-155.5 0,-174.5 50,-174.5 50,-155.5 0,-155.5"/>
<text text-anchor="middle" x="25" y="-162.5" font-family="Helvetica,sans-Serif" font-size="10.00" fill="#000000">double</text>
</a>
</g>
</g>
<!-- Node2&#45;&gt;Node1 -->
<g id="edge1" class="edge">
<title>Node2&#45;&gt;Node1</title>
<path fill="none" stroke="#9a32cd" stroke-dasharray="5,2" d="M23.6494,-144.9694C22.817,-118.52 24.707,-71.399 45,-38 49.5956,-30.4364 57.0769,-24.2712 64.1911,-19.6706"/>
<polygon fill="#9a32cd" stroke="#9a32cd" points="20.1671,-145.4231 24.1469,-155.242 27.1589,-145.0843 20.1671,-145.4231"/>
<text text-anchor="middle" x="62" y="-129" font-family="Helvetica,sans-Serif" font-size="10.00" fill="#000000"> rc</text>
<text text-anchor="middle" x="62" y="-118" font-family="Helvetica,sans-Serif" font-size="10.00" fill="#000000">ac</text>
<text text-anchor="middle" x="62" y="-107" font-family="Helvetica,sans-Serif" font-size="10.00" fill="#000000">a1</text>
<text text-anchor="middle" x="62" y="-96" font-family="Helvetica,sans-Serif" font-size="10.00" fill="#000000">a2</text>
<text text-anchor="middle" x="62" y="-85" font-family="Helvetica,sans-Serif" font-size="10.00" fill="#000000">j</text>
<text text-anchor="middle" x="62" y="-74" font-family="Helvetica,sans-Serif" font-size="10.00" fill="#000000">a3</text>
<text text-anchor="middle" x="62" y="-63" font-family="Helvetica,sans-Serif" font-size="10.00" fill="#000000">energy</text>
<text text-anchor="middle" x="62" y="-52" font-family="Helvetica,sans-Serif" font-size="10.00" fill="#000000">a4</text>
<text text-anchor="middle" x="62" y="-41" font-family="Helvetica,sans-Serif" font-size="10.00" fill="#000000">nstar</text>
</g>
<!-- Node3 -->
<g id="node3" class="node">
<title>Node3</title>
<g id="a_node3"><a xlink:href="classint.html" target="_top" xlink:title="int">
<polygon fill="none" stroke="#000000" points="68.5,-155.5 68.5,-174.5 97.5,-174.5 97.5,-155.5 68.5,-155.5"/>
<text text-anchor="middle" x="83" y="-162.5" font-family="Helvetica,sans-Serif" font-size="10.00" fill="#000000">int</text>
</a>
</g>
</g>
<!-- Node3&#45;&gt;Node1 -->
<g id="edge2" class="edge">
<title>Node3&#45;&gt;Node1</title>
<path fill="none" stroke="#9a32cd" stroke-dasharray="5,2" d="M83,-144.88C83,-111.1845 83,-44.5883 83,-19.6923"/>
<polygon fill="#9a32cd" stroke="#9a32cd" points="79.5001,-145.304 83,-155.3041 86.5001,-145.3041 79.5001,-145.304"/>
<text text-anchor="middle" x="88" y="-96" font-family="Helvetica,sans-Serif" font-size="10.00" fill="#000000"> Z</text>
<text text-anchor="middle" x="88" y="-85" font-family="Helvetica,sans-Serif" font-size="10.00" fill="#000000">l</text>
<text text-anchor="middle" x="88" y="-74" font-family="Helvetica,sans-Serif" font-size="10.00" fill="#000000">n</text>
</g>
<!-- Node4 -->
<g id="node4" class="node">
<title>Node4</title>
<polygon fill="none" stroke="#bfbfbf" points="116,-155.5 116,-174.5 160,-174.5 160,-155.5 116,-155.5"/>
<text text-anchor="middle" x="138" y="-162.5" font-family="Helvetica,sans-Serif" font-size="10.00" fill="#000000">string</text>
</g>
<!-- Node4&#45;&gt;Node1 -->
<g id="edge3" class="edge">
<title>Node4&#45;&gt;Node1</title>
<path fill="none" stroke="#9a32cd" stroke-dasharray="5,2" d="M132.6896,-145.4595C125.6101,-120.2386 112.1937,-75.1783 97,-38 94.4505,-31.7616 91.0862,-24.9973 88.2945,-19.6802"/>
<polygon fill="#9a32cd" stroke="#9a32cd" points="129.362,-146.5581 135.4014,-155.2631 136.1086,-144.6918 129.362,-146.5581"/>
<text text-anchor="middle" x="150" y="-85" font-family="Helvetica,sans-Serif" font-size="10.00" fill="#000000"> species</text>
</g>
</g>
</svg>
