<?xml version="1.0" encoding="UTF-8" standalone="no"?>
<!DOCTYPE svg PUBLIC "-//W3C//DTD SVG 1.1//EN"
 "http://www.w3.org/Graphics/SVG/1.1/DTD/svg11.dtd">
<!-- Generated by graphviz version 2.40.1 (20161225.0304)
 -->
<!-- Title: MatrixElementCache::getDefectDB Pages: 1 -->
<svg width="279pt" height="66pt"
 viewBox="0.00 0.00 279.00 66.00" xmlns="http://www.w3.org/2000/svg" xmlns:xlink="http://www.w3.org/1999/xlink">
<g id="graph0" class="graph" transform="scale(1 1) rotate(0) translate(4 62)">
<title>MatrixElementCache::getDefectDB</title>
<!-- Node5 -->
<g id="node1" class="node">
<title>Node5</title>
<polygon fill="#bfbfbf" stroke="#000000" points="0,-14 0,-44 118,-44 118,-14 0,-14"/>
<text text-anchor="start" x="8" y="-32" font-family="Helvetica,sans-Serif" font-size="10.00" fill="#000000">MatrixElementCache</text>
<text text-anchor="middle" x="59" y="-21" font-family="Helvetica,sans-Serif" font-size="10.00" fill="#000000">::getDefectDB</text>
</g>
<!-- Node6 -->
<g id="node2" class="node">
<title>Node6</title>
<g id="a_node2"><a xlink:href="classStateOne.html#a2088307e9207d0bdfa507f1636477df8" target="_top" xlink:title="StateOne::getEnergy">
<polygon fill="none" stroke="#000000" points="154,-38.5 154,-57.5 271,-57.5 271,-38.5 154,-38.5"/>
<text text-anchor="middle" x="212.5" y="-45.5" font-family="Helvetica,sans-Serif" font-size="10.00" fill="#000000">StateOne::getEnergy</text>
</a>
</g>
</g>
<!-- Node5&#45;&gt;Node6 -->
<g id="edge1" class="edge">
<title>Node5&#45;&gt;Node6</title>
<path fill="none" stroke="#191970" d="M128.2786,-37.5752C136.8092,-38.6311 145.4641,-39.7024 153.8163,-40.7362"/>
<polygon fill="#191970" stroke="#191970" points="128.7013,-34.1009 118.3471,-36.3459 127.8414,-41.0479 128.7013,-34.1009"/>
</g>
<!-- Node7 -->
<g id="node3" class="node">
<title>Node7</title>
<g id="a_node3"><a xlink:href="classStateOne.html#a8ac9c00fea94bb20cbe397a97cf34f78" target="_top" xlink:title="StateOne::getNStar">
<polygon fill="none" stroke="#000000" points="157.5,-.5 157.5,-19.5 267.5,-19.5 267.5,-.5 157.5,-.5"/>
<text text-anchor="middle" x="212.5" y="-7.5" font-family="Helvetica,sans-Serif" font-size="10.00" fill="#000000">StateOne::getNStar</text>
</a>
</g>
</g>
<!-- Node5&#45;&gt;Node7 -->
<g id="edge2" class="edge">
<title>Node5&#45;&gt;Node7</title>
<path fill="none" stroke="#191970" d="M128.3754,-20.4128C138.0788,-19.2117 147.941,-17.991 157.3337,-16.8284"/>
<polygon fill="#191970" stroke="#191970" points="127.8414,-16.9521 118.3471,-21.6541 128.7013,-23.8991 127.8414,-16.9521"/>
</g>
</g>
</svg>
