<?xml version="1.0" encoding="UTF-8" standalone="no"?>
<!DOCTYPE svg PUBLIC "-//W3C//DTD SVG 1.1//EN"
 "http://www.w3.org/Graphics/SVG/1.1/DTD/svg11.dtd">
<!-- Generated by graphviz version 2.40.1 (20161225.0304)
 -->
<!-- Title: sqlite::statement::prepare Pages: 1 -->
<svg width="545pt" height="230pt"
 viewBox="0.00 0.00 545.00 230.00" xmlns="http://www.w3.org/2000/svg" xmlns:xlink="http://www.w3.org/1999/xlink">
<g id="graph0" class="graph" transform="scale(1 1) rotate(0) translate(4 226)">
<title>sqlite::statement::prepare</title>
<!-- Node31 -->
<g id="node1" class="node">
<title>Node31</title>
<polygon fill="#bfbfbf" stroke="#000000" points="0,-102 0,-132 106,-132 106,-102 0,-102"/>
<text text-anchor="start" x="8" y="-120" font-family="Helvetica,sans-Serif" font-size="10.00" fill="#000000">sqlite::statement::</text>
<text text-anchor="middle" x="53" y="-109" font-family="Helvetica,sans-Serif" font-size="10.00" fill="#000000">prepare</text>
</g>
<!-- Node32 -->
<g id="node2" class="node">
<title>Node32</title>
<g id="a_node2"><a xlink:href="quantum__defect__test_8cpp.html#aa6d045e9def139cd75c41b225e83676e" target="_top" xlink:title="BOOST_AUTO_TEST_CASE">
<polygon fill="none" stroke="#000000" points="159,-202.5 159,-221.5 302,-221.5 302,-202.5 159,-202.5"/>
<text text-anchor="middle" x="230.5" y="-209.5" font-family="Helvetica,sans-Serif" font-size="10.00" fill="#000000">BOOST_AUTO_TEST_CASE</text>
</a>
</g>
</g>
<!-- Node31&#45;&gt;Node32 -->
<g id="edge1" class="edge">
<title>Node31&#45;&gt;Node32</title>
<path fill="none" stroke="#191970" d="M73.255,-139.5594C90.0075,-156.8089 115.3061,-179.8036 142,-193 149.8889,-196.8999 158.5612,-200.0028 167.2968,-202.4708"/>
<polygon fill="#191970" stroke="#191970" points="75.6024,-136.9481 66.1849,-132.094 70.5199,-141.7614 75.6024,-136.9481"/>
</g>
<!-- Node33 -->
<g id="node3" class="node">
<title>Node33</title>
<g id="a_node3"><a xlink:href="classHamiltonianOne.html#a9cb71dcb34ab9f0779c0bd66b758185e" target="_top" xlink:title="HamiltonianOne::build">
<polygon fill="none" stroke="#000000" points="167.5,-164.5 167.5,-183.5 293.5,-183.5 293.5,-164.5 167.5,-164.5"/>
<text text-anchor="middle" x="230.5" y="-171.5" font-family="Helvetica,sans-Serif" font-size="10.00" fill="#000000">HamiltonianOne::build</text>
</a>
</g>
</g>
<!-- Node31&#45;&gt;Node33 -->
<g id="edge2" class="edge">
<title>Node31&#45;&gt;Node33</title>
<path fill="none" stroke="#191970" d="M93.6299,-136.2938C108.5971,-142.8796 125.8434,-149.869 142,-155 153.5327,-158.6626 166.1343,-161.8408 178.1184,-164.4947"/>
<polygon fill="#191970" stroke="#191970" points="94.7146,-132.9445 84.1578,-132.0478 91.8513,-139.3321 94.7146,-132.9445"/>
</g>
<!-- Node35 -->
<g id="node5" class="node">
<title>Node35</title>
<g id="a_node5"><a xlink:href="classHamiltonianTwo.html#a6ca0a318f25170b69e571a07064a5afb" target="_top" xlink:title="HamiltonianTwo::calculate">
<polygon fill="none" stroke="#000000" points="157.5,-126.5 157.5,-145.5 303.5,-145.5 303.5,-126.5 157.5,-126.5"/>
<text text-anchor="middle" x="230.5" y="-133.5" font-family="Helvetica,sans-Serif" font-size="10.00" fill="#000000">HamiltonianTwo::calculate</text>
</a>
</g>
</g>
<!-- Node31&#45;&gt;Node35 -->
<g id="edge4" class="edge">
<title>Node31&#45;&gt;Node35</title>
<path fill="none" stroke="#191970" d="M116.2324,-123.7685C129.5203,-125.1909 143.6422,-126.7025 157.2611,-128.1603"/>
<polygon fill="#191970" stroke="#191970" points="116.5716,-120.2849 106.2559,-122.7006 115.8265,-127.2452 116.5716,-120.2849"/>
</g>
<!-- Node37 -->
<g id="node7" class="node">
<title>Node37</title>
<g id="a_node7"><a xlink:href="classMatrixElements.html#a0bd2d4229fab692eb6b774fbff09cf83" target="_top" xlink:title="MatrixElements::getRadial">
<polygon fill="none" stroke="#000000" points="157.5,-88.5 157.5,-107.5 303.5,-107.5 303.5,-88.5 157.5,-88.5"/>
<text text-anchor="middle" x="230.5" y="-95.5" font-family="Helvetica,sans-Serif" font-size="10.00" fill="#000000">MatrixElements::getRadial</text>
</a>
</g>
</g>
<!-- Node31&#45;&gt;Node37 -->
<g id="edge6" class="edge">
<title>Node31&#45;&gt;Node37</title>
<path fill="none" stroke="#191970" d="M116.2324,-110.2315C129.5203,-108.8091 143.6422,-107.2975 157.2611,-105.8397"/>
<polygon fill="#191970" stroke="#191970" points="115.8265,-106.7548 106.2559,-111.2994 116.5716,-113.7151 115.8265,-106.7548"/>
</g>
<!-- Node38 -->
<g id="node8" class="node">
<title>Node38</title>
<g id="a_node8"><a xlink:href="classMatrixElements.html#a3b28f19f9e89e549def8c8030b695489" target="_top" xlink:title="MatrixElements::precalculate\lDiamagnetism">
<polygon fill="none" stroke="#000000" points="151,-39 151,-69 310,-69 310,-39 151,-39"/>
<text text-anchor="start" x="159" y="-57" font-family="Helvetica,sans-Serif" font-size="10.00" fill="#000000">MatrixElements::precalculate</text>
<text text-anchor="middle" x="230.5" y="-46" font-family="Helvetica,sans-Serif" font-size="10.00" fill="#000000">Diamagnetism</text>
</a>
</g>
</g>
<!-- Node31&#45;&gt;Node38 -->
<g id="edge7" class="edge">
<title>Node31&#45;&gt;Node38</title>
<path fill="none" stroke="#191970" d="M94.9197,-97.7924C109.6442,-91.3966 126.4052,-84.5063 142,-79 151.9363,-75.4916 162.6315,-72.1306 173.0339,-69.0741"/>
<polygon fill="#191970" stroke="#191970" points="93.3151,-94.6745 85.5704,-101.9044 96.1333,-101.0822 93.3151,-94.6745"/>
</g>
<!-- Node39 -->
<g id="node9" class="node">
<title>Node39</title>
<g id="a_node9"><a xlink:href="classQuantumDefect.html#ae35ddcbfdf6d217950469549c60743d2" target="_top" xlink:title="QuantumDefect::QuantumDefect">
<polygon fill="none" stroke="#000000" points="142,-.5 142,-19.5 319,-19.5 319,-.5 142,-.5"/>
<text text-anchor="middle" x="230.5" y="-7.5" font-family="Helvetica,sans-Serif" font-size="10.00" fill="#000000">QuantumDefect::QuantumDefect</text>
</a>
</g>
</g>
<!-- Node31&#45;&gt;Node39 -->
<g id="edge8" class="edge">
<title>Node31&#45;&gt;Node39</title>
<path fill="none" stroke="#191970" d="M70.1085,-93.801C86.3357,-73.5267 112.5635,-44.914 142,-29 149.1884,-25.1138 157.108,-22.0224 165.1652,-19.5633"/>
<polygon fill="#191970" stroke="#191970" points="67.1698,-91.8782 63.7861,-101.9182 72.6923,-96.1796 67.1698,-91.8782"/>
</g>
<!-- Node34 -->
<g id="node4" class="node">
<title>Node34</title>
<g id="a_node4"><a xlink:href="classHamiltonianOne.html#ad3ba2d70879a60c9f065b5a2545dfe36" target="_top" xlink:title="HamiltonianOne::HamiltonianOne">
<polygon fill="none" stroke="#000000" points="355,-164.5 355,-183.5 537,-183.5 537,-164.5 355,-164.5"/>
<text text-anchor="middle" x="446" y="-171.5" font-family="Helvetica,sans-Serif" font-size="10.00" fill="#000000">HamiltonianOne::HamiltonianOne</text>
</a>
</g>
</g>
<!-- Node33&#45;&gt;Node34 -->
<g id="edge3" class="edge">
<title>Node33&#45;&gt;Node34</title>
<path fill="none" stroke="#191970" d="M303.7486,-174C320.1586,-174 337.7622,-174 354.8002,-174"/>
<polygon fill="#191970" stroke="#191970" points="303.701,-170.5001 293.701,-174 303.701,-177.5001 303.701,-170.5001"/>
</g>
<!-- Node36 -->
<g id="node6" class="node">
<title>Node36</title>
<g id="a_node6"><a xlink:href="classHamiltonianTwo.html#abd374713c9b38f72265c7fe496c42b96" target="_top" xlink:title="HamiltonianTwo::HamiltonianTwo">
<polygon fill="none" stroke="#000000" points="356,-126.5 356,-145.5 536,-145.5 536,-126.5 356,-126.5"/>
<text text-anchor="middle" x="446" y="-133.5" font-family="Helvetica,sans-Serif" font-size="10.00" fill="#000000">HamiltonianTwo::HamiltonianTwo</text>
</a>
</g>
</g>
<!-- Node35&#45;&gt;Node36 -->
<g id="edge5" class="edge">
<title>Node35&#45;&gt;Node36</title>
<path fill="none" stroke="#191970" d="M314.0835,-136C327.7443,-136 341.9514,-136 355.764,-136"/>
<polygon fill="#191970" stroke="#191970" points="313.7592,-132.5001 303.7592,-136 313.7591,-139.5001 313.7592,-132.5001"/>
</g>
</g>
</svg>
