<?xml version="1.0" encoding="UTF-8" standalone="no"?>
<!DOCTYPE svg PUBLIC "-//W3C//DTD SVG 1.1//EN"
 "http://www.w3.org/Graphics/SVG/1.1/DTD/svg11.dtd">
<!-- Generated by graphviz version 2.40.1 (20161225.0304)
 -->
<!-- Title: MatrixElementCache::precalculateDiamagnetism Pages: 1 -->
<svg width="492pt" height="123pt"
 viewBox="0.00 0.00 492.00 123.00" xmlns="http://www.w3.org/2000/svg" xmlns:xlink="http://www.w3.org/1999/xlink">
<g id="graph0" class="graph" transform="scale(1 1) rotate(0) translate(4 119)">
<title>MatrixElementCache::precalculateDiamagnetism</title>
<!-- Node53 -->
<g id="node1" class="node">
<title>Node53</title>
<polygon fill="#bfbfbf" stroke="#000000" points="0,-52 0,-82 155,-82 155,-52 0,-52"/>
<text text-anchor="start" x="8" y="-70" font-family="Helvetica,sans-Serif" font-size="10.00" fill="#000000">MatrixElementCache</text>
<text text-anchor="middle" x="77.5" y="-59" font-family="Helvetica,sans-Serif" font-size="10.00" fill="#000000">::precalculateDiamagnetism</text>
</g>
<!-- Node54 -->
<g id="node2" class="node">
<title>Node54</title>
<g id="a_node2"><a xlink:href="namespaceutils.html#a1ba9020d51335d2ddd62e877803e9e31" target="_top" xlink:title="utils::get_pid">
<polygon fill="none" stroke="#000000" points="233.5,-95.5 233.5,-114.5 313.5,-114.5 313.5,-95.5 233.5,-95.5"/>
<text text-anchor="middle" x="273.5" y="-102.5" font-family="Helvetica,sans-Serif" font-size="10.00" fill="#000000">utils::get_pid</text>
</a>
</g>
</g>
<!-- Node53&#45;&gt;Node54 -->
<g id="edge1" class="edge">
<title>Node53&#45;&gt;Node54</title>
<path fill="none" stroke="#191970" d="M154.9644,-82.0186C178.0452,-86.4935 202.7172,-91.2768 223.543,-95.3145"/>
<polygon fill="#191970" stroke="#191970" points="222.9504,-98.7647 233.4338,-97.2321 224.2828,-91.8926 222.9504,-98.7647"/>
</g>
<!-- Node55 -->
<g id="node3" class="node">
<title>Node55</title>
<g id="a_node3"><a xlink:href="MatrixElementCache_8cpp.html#a15aabd3025cfa0ca9485cd672c0a1a4a" target="_top" xlink:title="selectionRulesMomentumNew">
<polygon fill="none" stroke="#000000" points="191,-19.5 191,-38.5 356,-38.5 356,-19.5 191,-19.5"/>
<text text-anchor="middle" x="273.5" y="-26.5" font-family="Helvetica,sans-Serif" font-size="10.00" fill="#000000">selectionRulesMomentumNew</text>
</a>
</g>
</g>
<!-- Node53&#45;&gt;Node55 -->
<g id="edge2" class="edge">
<title>Node53&#45;&gt;Node55</title>
<path fill="none" stroke="#191970" d="M154.9644,-51.9814C174.828,-48.1303 195.8701,-44.0507 214.625,-40.4145"/>
<polygon fill="#191970" stroke="#191970" points="215.3442,-43.8404 224.4952,-38.5009 214.0118,-36.9683 215.3442,-43.8404"/>
</g>
<!-- Node59 -->
<g id="node7" class="node">
<title>Node59</title>
<g id="a_node7"><a xlink:href="MatrixElementCache_8cpp.html#a06a268e07e2a0edb3fca096b8c941c78" target="_top" xlink:title="selectionRulesMultipoleNew">
<polygon fill="none" stroke="#000000" points="196,-57.5 196,-76.5 351,-76.5 351,-57.5 196,-57.5"/>
<text text-anchor="middle" x="273.5" y="-64.5" font-family="Helvetica,sans-Serif" font-size="10.00" fill="#000000">selectionRulesMultipoleNew</text>
</a>
</g>
</g>
<!-- Node53&#45;&gt;Node59 -->
<g id="edge6" class="edge">
<title>Node53&#45;&gt;Node59</title>
<path fill="none" stroke="#191970" d="M155.2459,-67C165.2658,-67 175.5811,-67 185.7476,-67"/>
<polygon fill="#191970" stroke="#191970" points="185.8482,-70.5001 195.8481,-67 185.8481,-63.5001 185.8482,-70.5001"/>
</g>
<!-- Node56 -->
<g id="node4" class="node">
<title>Node56</title>
<g id="a_node4"><a xlink:href="classStateOne.html#aedba5bfce70f73fa324b9d5ae1115578" target="_top" xlink:title="StateOne::getJ">
<polygon fill="none" stroke="#000000" points="395,-76.5 395,-95.5 481,-95.5 481,-76.5 395,-76.5"/>
<text text-anchor="middle" x="438" y="-83.5" font-family="Helvetica,sans-Serif" font-size="10.00" fill="#000000">StateOne::getJ</text>
</a>
</g>
</g>
<!-- Node55&#45;&gt;Node56 -->
<g id="edge3" class="edge">
<title>Node55&#45;&gt;Node56</title>
<path fill="none" stroke="#191970" d="M324.2837,-38.5137C334.9136,-41.1089 345.9433,-44.2606 356,-48 372.9574,-54.3053 375.6212,-59.316 392,-67 395.8721,-68.8166 399.9667,-70.641 404.0528,-72.4024"/>
<polygon fill="#191970" stroke="#191970" points="402.8889,-75.7098 413.4635,-76.3643 405.605,-69.2583 402.8889,-75.7098"/>
</g>
<!-- Node57 -->
<g id="node5" class="node">
<title>Node57</title>
<g id="a_node5"><a xlink:href="classStateOne.html#a3783cebe5bbd63f072caf8450fea4aca" target="_top" xlink:title="StateOne::getL">
<polygon fill="none" stroke="#000000" points="393.5,-38.5 393.5,-57.5 482.5,-57.5 482.5,-38.5 393.5,-38.5"/>
<text text-anchor="middle" x="438" y="-45.5" font-family="Helvetica,sans-Serif" font-size="10.00" fill="#000000">StateOne::getL</text>
</a>
</g>
</g>
<!-- Node55&#45;&gt;Node57 -->
<g id="edge4" class="edge">
<title>Node55&#45;&gt;Node57</title>
<path fill="none" stroke="#191970" d="M356.2319,-38.5557C365.4328,-39.6184 374.6256,-40.6802 383.3498,-41.6878"/>
<polygon fill="#191970" stroke="#191970" points="383.0128,-45.1721 393.3483,-42.8427 383.816,-38.2183 383.0128,-45.1721"/>
</g>
<!-- Node58 -->
<g id="node6" class="node">
<title>Node58</title>
<g id="a_node6"><a xlink:href="classStateOne.html#aab2b41262381d67893113ed6f5ad18bc" target="_top" xlink:title="StateOne::getM">
<polygon fill="none" stroke="#000000" points="392,-.5 392,-19.5 484,-19.5 484,-.5 392,-.5"/>
<text text-anchor="middle" x="438" y="-7.5" font-family="Helvetica,sans-Serif" font-size="10.00" fill="#000000">StateOne::getM</text>
</a>
</g>
</g>
<!-- Node55&#45;&gt;Node58 -->
<g id="edge5" class="edge">
<title>Node55&#45;&gt;Node58</title>
<path fill="none" stroke="#191970" d="M356.2319,-19.4443C364.7827,-18.4567 373.3265,-17.4699 381.4938,-16.5266"/>
<polygon fill="#191970" stroke="#191970" points="382.0773,-19.9825 391.6096,-15.3582 381.2741,-13.0287 382.0773,-19.9825"/>
</g>
<!-- Node59&#45;&gt;Node56 -->
<g id="edge7" class="edge">
<title>Node59&#45;&gt;Node56</title>
<path fill="none" stroke="#191970" d="M351.4144,-75.9992C362.742,-77.3076 374.1796,-78.6286 384.8645,-79.8628"/>
<polygon fill="#191970" stroke="#191970" points="384.5145,-83.3455 394.8501,-81.0161 385.3178,-76.3918 384.5145,-83.3455"/>
</g>
<!-- Node59&#45;&gt;Node57 -->
<g id="edge8" class="edge">
<title>Node59&#45;&gt;Node57</title>
<path fill="none" stroke="#191970" d="M351.4144,-58.0008C362.127,-56.7634 372.9379,-55.5148 383.1176,-54.339"/>
<polygon fill="#191970" stroke="#191970" points="383.5275,-57.815 393.0598,-53.1907 382.7243,-50.8612 383.5275,-57.815"/>
</g>
<!-- Node59&#45;&gt;Node58 -->
<g id="edge9" class="edge">
<title>Node59&#45;&gt;Node58</title>
<path fill="none" stroke="#191970" d="M324.2837,-57.4863C334.9136,-54.8911 345.9433,-51.7394 356,-48 372.9574,-41.6947 375.6212,-36.684 392,-29 395.8721,-27.1834 399.9667,-25.359 404.0528,-23.5976"/>
<polygon fill="#191970" stroke="#191970" points="405.605,-26.7417 413.4635,-19.6357 402.8889,-20.2902 405.605,-26.7417"/>
</g>
</g>
</svg>
