<?xml version="1.0" encoding="UTF-8" standalone="no"?>
<!DOCTYPE svg PUBLIC "-//W3C//DTD SVG 1.1//EN"
 "http://www.w3.org/Graphics/SVG/1.1/DTD/svg11.dtd">
<!-- Generated by graphviz version 2.40.1 (20161225.0304)
 -->
<!-- Title: Hamiltonianmatrix::doSerialization Pages: 1 -->
<svg width="431pt" height="78pt"
 viewBox="0.00 0.00 431.00 77.50" xmlns="http://www.w3.org/2000/svg" xmlns:xlink="http://www.w3.org/1999/xlink">
<g id="graph0" class="graph" transform="scale(1 1) rotate(0) translate(4 73.5)">
<title>Hamiltonianmatrix::doSerialization</title>
<!-- Node81 -->
<g id="node1" class="node">
<title>Node81</title>
<polygon fill="#bfbfbf" stroke="#000000" points="0,-22.5 0,-52.5 115,-52.5 115,-22.5 0,-22.5"/>
<text text-anchor="start" x="8" y="-40.5" font-family="Helvetica,sans-Serif" font-size="10.00" fill="#000000">Hamiltonianmatrix::</text>
<text text-anchor="middle" x="57.5" y="-29.5" font-family="Helvetica,sans-Serif" font-size="10.00" fill="#000000">doSerialization</text>
</g>
<!-- Node82 -->
<g id="node2" class="node">
<title>Node82</title>
<g id="a_node2"><a xlink:href="classSerializer.html#a79a572d0a14988acd13217beb7d5547b" target="_top" xlink:title="Serializer::save">
<polygon fill="none" stroke="#000000" points="162.5,-50 162.5,-69 254.5,-69 254.5,-50 162.5,-50"/>
<text text-anchor="middle" x="208.5" y="-57" font-family="Helvetica,sans-Serif" font-size="10.00" fill="#000000">Serializer::save</text>
</a>
</g>
</g>
<!-- Node81&#45;&gt;Node82 -->
<g id="edge1" class="edge">
<title>Node81&#45;&gt;Node82</title>
<path fill="none" stroke="#191970" d="M115.0174,-45.88C127.2586,-47.6635 140.1696,-49.5446 152.3586,-51.3205"/>
<polygon fill="#191970" stroke="#191970" points="151.9969,-54.8046 162.397,-52.783 153.0061,-47.8778 151.9969,-54.8046"/>
</g>
<!-- Node84 -->
<g id="node4" class="node">
<title>Node84</title>
<g id="a_node4"><a xlink:href="classHamiltonianmatrix.html#a035cf5188e89f3f4230beb502a718ea9" target="_top" xlink:title="Hamiltonianmatrix::\lsplitComplex">
<polygon fill="none" stroke="#000000" points="151,-.5 151,-30.5 266,-30.5 266,-.5 151,-.5"/>
<text text-anchor="start" x="159" y="-18.5" font-family="Helvetica,sans-Serif" font-size="10.00" fill="#000000">Hamiltonianmatrix::</text>
<text text-anchor="middle" x="208.5" y="-7.5" font-family="Helvetica,sans-Serif" font-size="10.00" fill="#000000">splitComplex</text>
</a>
</g>
</g>
<!-- Node81&#45;&gt;Node84 -->
<g id="edge3" class="edge">
<title>Node81&#45;&gt;Node84</title>
<path fill="none" stroke="#191970" d="M115.0174,-29.12C123.4639,-27.8894 132.2292,-26.6123 140.8561,-25.3554"/>
<polygon fill="#191970" stroke="#191970" points="141.5016,-28.7984 150.8925,-23.8931 140.4924,-21.8715 141.5016,-28.7984"/>
</g>
<!-- Node83 -->
<g id="node3" class="node">
<title>Node83</title>
<g id="a_node3"><a xlink:href="classSerializable.html#ad0b89a7563e6a98df7eb6a8a46c51735" target="_top" xlink:title="Serializable::serialize">
<polygon fill="none" stroke="#000000" points="302,-50 302,-69 423,-69 423,-50 302,-50"/>
<text text-anchor="middle" x="362.5" y="-57" font-family="Helvetica,sans-Serif" font-size="10.00" fill="#000000">Serializable::serialize</text>
</a>
</g>
</g>
<!-- Node82&#45;&gt;Node83 -->
<g id="edge2" class="edge">
<title>Node82&#45;&gt;Node83</title>
<path fill="none" stroke="#191970" d="M254.7051,-59.5C266.3798,-59.5 279.1854,-59.5 291.7663,-59.5"/>
<polygon fill="#191970" stroke="#191970" points="291.782,-63.0001 301.7819,-59.5 291.7819,-56.0001 291.782,-63.0001"/>
</g>
</g>
</svg>
