<?xml version="1.0" encoding="UTF-8" standalone="no"?>
<!DOCTYPE svg PUBLIC "-//W3C//DTD SVG 1.1//EN"
 "http://www.w3.org/Graphics/SVG/1.1/DTD/svg11.dtd">
<!-- Generated by graphviz version 2.40.1 (20161225.0304)
 -->
<!-- Title: StateTwoOld::getNStar Pages: 1 -->
<svg width="374pt" height="104pt"
 viewBox="0.00 0.00 374.00 104.00" xmlns="http://www.w3.org/2000/svg" xmlns:xlink="http://www.w3.org/1999/xlink">
<g id="graph0" class="graph" transform="scale(1 1) rotate(0) translate(4 100)">
<title>StateTwoOld::getNStar</title>
<!-- Node43 -->
<g id="node1" class="node">
<title>Node43</title>
<polygon fill="#bfbfbf" stroke="#000000" points="0,-38.5 0,-57.5 126,-57.5 126,-38.5 0,-38.5"/>
<text text-anchor="middle" x="63" y="-45.5" font-family="Helvetica,sans-Serif" font-size="10.00" fill="#000000">StateTwoOld::getNStar</text>
</g>
<!-- Node44 -->
<g id="node2" class="node">
<title>Node44</title>
<g id="a_node2"><a xlink:href="classStateTwoOld.html#aad5fb4307dec316a5b602c2e8bfae0a8" target="_top" xlink:title="StateTwoOld::first">
<polygon fill="none" stroke="#000000" points="174,-76.5 174,-95.5 277,-95.5 277,-76.5 174,-76.5"/>
<text text-anchor="middle" x="225.5" y="-83.5" font-family="Helvetica,sans-Serif" font-size="10.00" fill="#000000">StateTwoOld::first</text>
</a>
</g>
</g>
<!-- Node43&#45;&gt;Node44 -->
<g id="edge1" class="edge">
<title>Node43&#45;&gt;Node44</title>
<path fill="none" stroke="#191970" d="M104.0056,-57.589C125.5458,-62.6261 152.1347,-68.8438 174.9414,-74.1771"/>
<polygon fill="#191970" stroke="#191970" points="174.255,-77.6109 184.7893,-76.4799 175.8489,-70.7948 174.255,-77.6109"/>
</g>
<!-- Node45 -->
<g id="node3" class="node">
<title>Node45</title>
<g id="a_node3"><a xlink:href="classStateOneOld.html#acf546d02d53655236c9beb4790d69462" target="_top" xlink:title="StateOneOld::getNStar">
<polygon fill="none" stroke="#000000" points="162,-38.5 162,-57.5 289,-57.5 289,-38.5 162,-38.5"/>
<text text-anchor="middle" x="225.5" y="-45.5" font-family="Helvetica,sans-Serif" font-size="10.00" fill="#000000">StateOneOld::getNStar</text>
</a>
</g>
</g>
<!-- Node43&#45;&gt;Node45 -->
<g id="edge2" class="edge">
<title>Node43&#45;&gt;Node45</title>
<path fill="none" stroke="#191970" d="M126.292,-48C134.5917,-48 143.1544,-48 151.61,-48"/>
<polygon fill="#191970" stroke="#191970" points="151.8459,-51.5001 161.8459,-48 151.8458,-44.5001 151.8459,-51.5001"/>
</g>
<!-- Node47 -->
<g id="node5" class="node">
<title>Node47</title>
<g id="a_node5"><a xlink:href="classStateTwoOld.html#a6efa9c8f92e433004b778f6f5ce212d9" target="_top" xlink:title="StateTwoOld::second">
<polygon fill="none" stroke="#000000" points="166.5,-.5 166.5,-19.5 284.5,-19.5 284.5,-.5 166.5,-.5"/>
<text text-anchor="middle" x="225.5" y="-7.5" font-family="Helvetica,sans-Serif" font-size="10.00" fill="#000000">StateTwoOld::second</text>
</a>
</g>
</g>
<!-- Node43&#45;&gt;Node47 -->
<g id="edge4" class="edge">
<title>Node43&#45;&gt;Node47</title>
<path fill="none" stroke="#191970" d="M104.0056,-38.411C125.5458,-33.3739 152.1347,-27.1562 174.9414,-21.8229"/>
<polygon fill="#191970" stroke="#191970" points="175.8489,-25.2052 184.7893,-19.5201 174.255,-18.3891 175.8489,-25.2052"/>
</g>
<!-- Node46 -->
<g id="node4" class="node">
<title>Node46</title>
<g id="a_node4"><a xlink:href="QuantumDefect_8cpp.html#abc498d74ac3efaadeac5bb5aee05b1b0" target="_top" xlink:title="nstar">
<polygon fill="none" stroke="#000000" points="325,-38.5 325,-57.5 366,-57.5 366,-38.5 325,-38.5"/>
<text text-anchor="middle" x="345.5" y="-45.5" font-family="Helvetica,sans-Serif" font-size="10.00" fill="#000000">nstar</text>
</a>
</g>
</g>
<!-- Node45&#45;&gt;Node46 -->
<g id="edge3" class="edge">
<title>Node45&#45;&gt;Node46</title>
<path fill="none" stroke="#191970" d="M289.0138,-48C297.9808,-48 306.8427,-48 314.7948,-48"/>
<polygon fill="#191970" stroke="#191970" points="314.9991,-51.5001 324.9991,-48 314.9991,-44.5001 314.9991,-51.5001"/>
</g>
</g>
</svg>
