<?xml version="1.0" encoding="UTF-8" standalone="no"?>
<!DOCTYPE svg PUBLIC "-//W3C//DTD SVG 1.1//EN"
 "http://www.w3.org/Graphics/SVG/1.1/DTD/svg11.dtd">
<!-- Generated by graphviz version 2.40.1 (20161225.0304)
 -->
<!-- Title: PerturbativeInteraction::getC6 Pages: 1 -->
<svg width="471pt" height="154pt"
 viewBox="0.00 0.00 471.00 153.50" xmlns="http://www.w3.org/2000/svg" xmlns:xlink="http://www.w3.org/1999/xlink">
<g id="graph0" class="graph" transform="scale(1 1) rotate(0) translate(4 149.5)">
<title>PerturbativeInteraction::getC6</title>
<!-- Node21 -->
<g id="node1" class="node">
<title>Node21</title>
<polygon fill="#bfbfbf" stroke="#000000" points="0,-52 0,-82 129,-82 129,-52 0,-52"/>
<text text-anchor="start" x="8" y="-70" font-family="Helvetica,sans-Serif" font-size="10.00" fill="#000000">PerturbativeInteraction</text>
<text text-anchor="middle" x="64.5" y="-59" font-family="Helvetica,sans-Serif" font-size="10.00" fill="#000000">::getC6</text>
</g>
<!-- Node22 -->
<g id="node2" class="node">
<title>Node22</title>
<g id="a_node2"><a xlink:href="classMatrixElementCache.html#ac6191cd01c85dd9cf28a373b524f0b1b" target="_top" xlink:title="Get matrix elements ////////////////////////////////////////////. ">
<polygon fill="none" stroke="#000000" points="177.5,-115 177.5,-145 295.5,-145 295.5,-115 177.5,-115"/>
<text text-anchor="start" x="185.5" y="-133" font-family="Helvetica,sans-Serif" font-size="10.00" fill="#000000">MatrixElementCache</text>
<text text-anchor="middle" x="236.5" y="-122" font-family="Helvetica,sans-Serif" font-size="10.00" fill="#000000">::getElectricDipole</text>
</a>
</g>
</g>
<!-- Node21&#45;&gt;Node22 -->
<g id="edge1" class="edge">
<title>Node21&#45;&gt;Node22</title>
<path fill="none" stroke="#191970" d="M103.5516,-82.0266C122.1246,-89.1063 144.6659,-97.6021 165,-105 170.9201,-107.1538 177.1284,-109.377 183.3096,-111.5682"/>
<polygon fill="#191970" stroke="#191970" points="182.3607,-114.9448 192.9555,-114.9705 184.6892,-108.3434 182.3607,-114.9448"/>
</g>
<!-- Node24 -->
<g id="node4" class="node">
<title>Node24</title>
<g id="a_node4"><a xlink:href="classStateTwo.html#a3f9e530a17bed5048f16653dcd9c7991" target="_top" xlink:title="StateTwo::getEnergy">
<polygon fill="none" stroke="#000000" points="178.5,-76.5 178.5,-95.5 294.5,-95.5 294.5,-76.5 178.5,-76.5"/>
<text text-anchor="middle" x="236.5" y="-83.5" font-family="Helvetica,sans-Serif" font-size="10.00" fill="#000000">StateTwo::getEnergy</text>
</a>
</g>
</g>
<!-- Node21&#45;&gt;Node24 -->
<g id="edge3" class="edge">
<title>Node21&#45;&gt;Node24</title>
<path fill="none" stroke="#191970" d="M129.0358,-74.129C141.8226,-75.5414 155.2857,-77.0286 168.193,-78.4545"/>
<polygon fill="#191970" stroke="#191970" points="168.0778,-81.9629 178.4017,-79.5822 168.8465,-75.0053 168.0778,-81.9629"/>
</g>
<!-- Node25 -->
<g id="node5" class="node">
<title>Node25</title>
<g id="a_node5"><a xlink:href="classStateTwo.html#a48d2a882bdaf347c38d36ea1a2de4d25" target="_top" xlink:title="StateTwo::getFirstState">
<polygon fill="none" stroke="#000000" points="172,-38.5 172,-57.5 301,-57.5 301,-38.5 172,-38.5"/>
<text text-anchor="middle" x="236.5" y="-45.5" font-family="Helvetica,sans-Serif" font-size="10.00" fill="#000000">StateTwo::getFirstState</text>
</a>
</g>
</g>
<!-- Node21&#45;&gt;Node25 -->
<g id="edge4" class="edge">
<title>Node21&#45;&gt;Node25</title>
<path fill="none" stroke="#191970" d="M129.0358,-59.871C139.7642,-58.6859 150.9686,-57.4482 161.9215,-56.2383"/>
<polygon fill="#191970" stroke="#191970" points="162.3334,-59.7142 171.8886,-55.1373 161.5648,-52.7565 162.3334,-59.7142"/>
</g>
<!-- Node26 -->
<g id="node6" class="node">
<title>Node26</title>
<g id="a_node6"><a xlink:href="classStateTwo.html#a5f39ceea2e8f442364fec097566365d0" target="_top" xlink:title="StateTwo::getSecondState">
<polygon fill="none" stroke="#000000" points="165,-.5 165,-19.5 308,-19.5 308,-.5 165,-.5"/>
<text text-anchor="middle" x="236.5" y="-7.5" font-family="Helvetica,sans-Serif" font-size="10.00" fill="#000000">StateTwo::getSecondState</text>
</a>
</g>
</g>
<!-- Node21&#45;&gt;Node26 -->
<g id="edge5" class="edge">
<title>Node21&#45;&gt;Node26</title>
<path fill="none" stroke="#191970" d="M101.882,-51.8285C120.6625,-44.4726 143.8646,-35.7845 165,-29 172.3949,-26.6262 180.2856,-24.3137 188.0253,-22.1661"/>
<polygon fill="#191970" stroke="#191970" points="188.9647,-25.5378 197.6994,-19.5416 187.1319,-18.782 188.9647,-25.5378"/>
</g>
<!-- Node23 -->
<g id="node3" class="node">
<title>Node23</title>
<g id="a_node3"><a xlink:href="classMatrixElementCache.html#a2407b99847793920a9d4ed0d8b156d8a" target="_top" xlink:title="MatrixElementCache\l::getElectricMultipole">
<polygon fill="none" stroke="#000000" points="344,-115 344,-145 463,-145 463,-115 344,-115"/>
<text text-anchor="start" x="352" y="-133" font-family="Helvetica,sans-Serif" font-size="10.00" fill="#000000">MatrixElementCache</text>
<text text-anchor="middle" x="403.5" y="-122" font-family="Helvetica,sans-Serif" font-size="10.00" fill="#000000">::getElectricMultipole</text>
</a>
</g>
</g>
<!-- Node22&#45;&gt;Node23 -->
<g id="edge2" class="edge">
<title>Node22&#45;&gt;Node23</title>
<path fill="none" stroke="#191970" d="M295.8482,-130C308.0065,-130 320.9124,-130 333.407,-130"/>
<polygon fill="#191970" stroke="#191970" points="333.7803,-133.5001 343.7803,-130 333.7802,-126.5001 333.7803,-133.5001"/>
</g>
</g>
</svg>
