<?xml version="1.0" encoding="UTF-8" standalone="no"?>
<!DOCTYPE svg PUBLIC "-//W3C//DTD SVG 1.1//EN"
 "http://www.w3.org/Graphics/SVG/1.1/DTD/svg11.dtd">
<!-- Generated by graphviz version 2.40.1 (20161225.0304)
 -->
<!-- Title: Serializer::load Pages: 1 -->
<svg width="820pt" height="97pt"
 viewBox="0.00 0.00 820.00 96.50" xmlns="http://www.w3.org/2000/svg" xmlns:xlink="http://www.w3.org/1999/xlink">
<g id="graph0" class="graph" transform="scale(1 1) rotate(0) translate(4 92.5)">
<title>Serializer::load</title>
<!-- Node3 -->
<g id="node1" class="node">
<title>Node3</title>
<polygon fill="#bfbfbf" stroke="#000000" points="0,-41.5 0,-60.5 89,-60.5 89,-41.5 0,-41.5"/>
<text text-anchor="middle" x="44.5" y="-48.5" font-family="Helvetica,sans-Serif" font-size="10.00" fill="#000000">Serializer::load</text>
</g>
<!-- Node4 -->
<g id="node2" class="node">
<title>Node4</title>
<g id="a_node2"><a xlink:href="classHamiltonianmatrix.html#a15bc9c823975f5395112432c5b8507db" target="_top" xlink:title="Hamiltonianmatrix::\ldoDeserialization">
<polygon fill="none" stroke="#000000" points="125,-36 125,-66 240,-66 240,-36 125,-36"/>
<text text-anchor="start" x="133" y="-54" font-family="Helvetica,sans-Serif" font-size="10.00" fill="#000000">Hamiltonianmatrix::</text>
<text text-anchor="middle" x="182.5" y="-43" font-family="Helvetica,sans-Serif" font-size="10.00" fill="#000000">doDeserialization</text>
</a>
</g>
</g>
<!-- Node3&#45;&gt;Node4 -->
<g id="edge1" class="edge">
<title>Node3&#45;&gt;Node4</title>
<path fill="none" stroke="#191970" d="M99.3472,-51C107.7275,-51 116.3989,-51 124.8376,-51"/>
<polygon fill="#191970" stroke="#191970" points="99.3047,-47.5001 89.3046,-51 99.3046,-54.5001 99.3047,-47.5001"/>
</g>
<!-- Node5 -->
<g id="node3" class="node">
<title>Node5</title>
<g id="a_node3"><a xlink:href="classHamiltonianmatrix.html#a7701e7aa1798719ed21b0ef41b049814" target="_top" xlink:title="Hamiltonianmatrix::\ldeserialize">
<polygon fill="none" stroke="#000000" points="286.5,-58 286.5,-88 401.5,-88 401.5,-58 286.5,-58"/>
<text text-anchor="start" x="294.5" y="-76" font-family="Helvetica,sans-Serif" font-size="10.00" fill="#000000">Hamiltonianmatrix::</text>
<text text-anchor="middle" x="344" y="-65" font-family="Helvetica,sans-Serif" font-size="10.00" fill="#000000">deserialize</text>
</a>
</g>
</g>
<!-- Node4&#45;&gt;Node5 -->
<g id="edge2" class="edge">
<title>Node4&#45;&gt;Node5</title>
<path fill="none" stroke="#191970" d="M250.2891,-60.2344C262.2603,-61.8652 274.6217,-63.5491 286.2836,-65.1377"/>
<polygon fill="#191970" stroke="#191970" points="250.73,-56.7622 240.349,-58.8804 249.7851,-63.6982 250.73,-56.7622"/>
</g>
<!-- Node6 -->
<g id="node4" class="node">
<title>Node6</title>
<g id="a_node4"><a xlink:href="classHamiltonianmatrix.html#ab5561740a111d0e9dc53c865009176a5" target="_top" xlink:title="Hamiltonianmatrix::load">
<polygon fill="none" stroke="#000000" points="276,-19.5 276,-38.5 412,-38.5 412,-19.5 276,-19.5"/>
<text text-anchor="middle" x="344" y="-26.5" font-family="Helvetica,sans-Serif" font-size="10.00" fill="#000000">Hamiltonianmatrix::load</text>
</a>
</g>
</g>
<!-- Node4&#45;&gt;Node6 -->
<g id="edge3" class="edge">
<title>Node4&#45;&gt;Node6</title>
<path fill="none" stroke="#191970" d="M250.4611,-41.7421C258.8486,-40.5996 267.425,-39.4313 275.8158,-38.2883"/>
<polygon fill="#191970" stroke="#191970" points="249.7851,-38.3018 240.349,-43.1196 250.73,-45.2378 249.7851,-38.3018"/>
</g>
<!-- Node7 -->
<g id="node5" class="node">
<title>Node7</title>
<g id="a_node5"><a xlink:href="classHamiltonianOne.html#a9cb71dcb34ab9f0779c0bd66b758185e" target="_top" xlink:title="HamiltonianOne::build">
<polygon fill="none" stroke="#000000" points="458,-38.5 458,-57.5 584,-57.5 584,-38.5 458,-38.5"/>
<text text-anchor="middle" x="521" y="-45.5" font-family="Helvetica,sans-Serif" font-size="10.00" fill="#000000">HamiltonianOne::build</text>
</a>
</g>
</g>
<!-- Node6&#45;&gt;Node7 -->
<g id="edge4" class="edge">
<title>Node6&#45;&gt;Node7</title>
<path fill="none" stroke="#191970" d="M422.4784,-37.4242C434.2929,-38.6925 446.3487,-39.9866 457.7891,-41.2146"/>
<polygon fill="#191970" stroke="#191970" points="422.4961,-33.9061 412.1796,-36.3187 421.7489,-40.8661 422.4961,-33.9061"/>
</g>
<!-- Node9 -->
<g id="node7" class="node">
<title>Node9</title>
<g id="a_node7"><a xlink:href="classHamiltonianTwo.html#a6ca0a318f25170b69e571a07064a5afb" target="_top" xlink:title="HamiltonianTwo::calculate">
<polygon fill="none" stroke="#000000" points="448,-.5 448,-19.5 594,-19.5 594,-.5 448,-.5"/>
<text text-anchor="middle" x="521" y="-7.5" font-family="Helvetica,sans-Serif" font-size="10.00" fill="#000000">HamiltonianTwo::calculate</text>
</a>
</g>
</g>
<!-- Node6&#45;&gt;Node9 -->
<g id="edge6" class="edge">
<title>Node6&#45;&gt;Node9</title>
<path fill="none" stroke="#191970" d="M422.1391,-20.6122C430.6908,-19.6942 439.3734,-18.7622 447.8616,-17.851"/>
<polygon fill="#191970" stroke="#191970" points="421.7489,-17.1339 412.1796,-21.6813 422.4961,-24.0939 421.7489,-17.1339"/>
</g>
<!-- Node8 -->
<g id="node6" class="node">
<title>Node8</title>
<g id="a_node6"><a xlink:href="classHamiltonianOne.html#ad3ba2d70879a60c9f065b5a2545dfe36" target="_top" xlink:title="HamiltonianOne::HamiltonianOne">
<polygon fill="none" stroke="#000000" points="630,-38.5 630,-57.5 812,-57.5 812,-38.5 630,-38.5"/>
<text text-anchor="middle" x="721" y="-45.5" font-family="Helvetica,sans-Serif" font-size="10.00" fill="#000000">HamiltonianOne::HamiltonianOne</text>
</a>
</g>
</g>
<!-- Node7&#45;&gt;Node8 -->
<g id="edge5" class="edge">
<title>Node7&#45;&gt;Node8</title>
<path fill="none" stroke="#191970" d="M594.0601,-48C605.6733,-48 617.8104,-48 629.7784,-48"/>
<polygon fill="#191970" stroke="#191970" points="594.0068,-44.5001 584.0067,-48 594.0067,-51.5001 594.0068,-44.5001"/>
</g>
<!-- Node10 -->
<g id="node8" class="node">
<title>Node10</title>
<g id="a_node8"><a xlink:href="classHamiltonianTwo.html#abd374713c9b38f72265c7fe496c42b96" target="_top" xlink:title="HamiltonianTwo::HamiltonianTwo">
<polygon fill="none" stroke="#000000" points="631,-.5 631,-19.5 811,-19.5 811,-.5 631,-.5"/>
<text text-anchor="middle" x="721" y="-7.5" font-family="Helvetica,sans-Serif" font-size="10.00" fill="#000000">HamiltonianTwo::HamiltonianTwo</text>
</a>
</g>
</g>
<!-- Node9&#45;&gt;Node10 -->
<g id="edge7" class="edge">
<title>Node9&#45;&gt;Node10</title>
<path fill="none" stroke="#191970" d="M604.2425,-10C613.0053,-10 621.9449,-10 630.7816,-10"/>
<polygon fill="#191970" stroke="#191970" points="604.0536,-6.5001 594.0536,-10 604.0535,-13.5001 604.0536,-6.5001"/>
</g>
</g>
</svg>
