<?xml version="1.0" encoding="UTF-8" standalone="no"?>
<!DOCTYPE svg PUBLIC "-//W3C//DTD SVG 1.1//EN"
 "http://www.w3.org/Graphics/SVG/1.1/DTD/svg11.dtd">
<!-- Generated by graphviz version 2.40.1 (20161225.0304)
 -->
<!-- Title: MatrixElements::precalculateDiamagnetism Pages: 1 -->
<svg width="346pt" height="355pt"
 viewBox="0.00 0.00 346.00 355.00" xmlns="http://www.w3.org/2000/svg" xmlns:xlink="http://www.w3.org/1999/xlink">
<g id="graph0" class="graph" transform="scale(1 1) rotate(0) translate(4 351)">
<title>MatrixElements::precalculateDiamagnetism</title>
<!-- Node37 -->
<g id="node1" class="node">
<title>Node37</title>
<polygon fill="#bfbfbf" stroke="#000000" points="0,-153 0,-183 159,-183 159,-153 0,-153"/>
<text text-anchor="start" x="8" y="-171" font-family="Helvetica,sans-Serif" font-size="10.00" fill="#000000">MatrixElements::precalculate</text>
<text text-anchor="middle" x="79.5" y="-160" font-family="Helvetica,sans-Serif" font-size="10.00" fill="#000000">Diamagnetism</text>
</g>
<!-- Node38 -->
<g id="node2" class="node">
<title>Node38</title>
<g id="a_node2"><a xlink:href="classsqlite_1_1statement.html#a1b5e34a58010723e10ee31c4d02f7f55" target="_top" xlink:title="Bind a value to a position in the query. ">
<polygon fill="none" stroke="#000000" points="203,-327.5 203,-346.5 330,-346.5 330,-327.5 203,-327.5"/>
<text text-anchor="middle" x="266.5" y="-334.5" font-family="Helvetica,sans-Serif" font-size="10.00" fill="#000000">sqlite::statement::bind</text>
</a>
</g>
</g>
<!-- Node37&#45;&gt;Node38 -->
<g id="edge1" class="edge">
<title>Node37&#45;&gt;Node38</title>
<path fill="none" stroke="#191970" d="M86.9599,-183.4433C102.5574,-214.0463 141.6436,-282.4928 195,-318 198.1243,-320.0791 201.4668,-321.9312 204.9371,-323.5808"/>
<polygon fill="#191970" stroke="#191970" points="203.7814,-326.8907 214.3592,-327.4921 206.4652,-320.4256 203.7814,-326.8907"/>
</g>
<!-- Node39 -->
<g id="node3" class="node">
<title>Node39</title>
<g id="a_node3"><a xlink:href="classsqlite_1_1statement.html#add6b491603e9505c82779ad762f72888" target="_top" xlink:title="Execute SQLite statements. ">
<polygon fill="none" stroke="#000000" points="202,-289.5 202,-308.5 331,-308.5 331,-289.5 202,-289.5"/>
<text text-anchor="middle" x="266.5" y="-296.5" font-family="Helvetica,sans-Serif" font-size="10.00" fill="#000000">sqlite::statement::exec</text>
</a>
</g>
</g>
<!-- Node37&#45;&gt;Node39 -->
<g id="edge2" class="edge">
<title>Node37&#45;&gt;Node39</title>
<path fill="none" stroke="#191970" d="M90.8465,-183.1946C109.7356,-207.3958 150.0258,-254.5548 195,-280 198.9423,-282.2304 203.1553,-284.2069 207.4895,-285.9571"/>
<polygon fill="#191970" stroke="#191970" points="206.5196,-289.3281 217.1138,-289.4378 208.9003,-282.7454 206.5196,-289.3281"/>
</g>
<!-- Node40 -->
<g id="node4" class="node">
<title>Node40</title>
<g id="a_node4"><a xlink:href="classsqlite_1_1statement.html#a881b89458af4ea9bde7a80e416f53903" target="_top" xlink:title="Get value of a field. ">
<polygon fill="none" stroke="#000000" points="205.5,-251.5 205.5,-270.5 327.5,-270.5 327.5,-251.5 205.5,-251.5"/>
<text text-anchor="middle" x="266.5" y="-258.5" font-family="Helvetica,sans-Serif" font-size="10.00" fill="#000000">sqlite::statement::get</text>
</a>
</g>
</g>
<!-- Node37&#45;&gt;Node40 -->
<g id="edge3" class="edge">
<title>Node37&#45;&gt;Node40</title>
<path fill="none" stroke="#191970" d="M98.8735,-183.1006C120.9963,-199.6839 158.8196,-226.0694 195,-242 200.422,-244.3874 206.2113,-246.5312 212.0595,-248.4419"/>
<polygon fill="#191970" stroke="#191970" points="211.3169,-251.8743 221.9028,-251.4389 213.3559,-245.1779 211.3169,-251.8743"/>
</g>
<!-- Node41 -->
<g id="node5" class="node">
<title>Node41</title>
<g id="a_node5"><a xlink:href="classsqlite_1_1statement.html#a1b40871fb975892f70ea097f7c6da9c1" target="_top" xlink:title="Prepare the statement. ">
<polygon fill="none" stroke="#000000" points="213.5,-202 213.5,-232 319.5,-232 319.5,-202 213.5,-202"/>
<text text-anchor="start" x="221.5" y="-220" font-family="Helvetica,sans-Serif" font-size="10.00" fill="#000000">sqlite::statement::</text>
<text text-anchor="middle" x="266.5" y="-209" font-family="Helvetica,sans-Serif" font-size="10.00" fill="#000000">prepare</text>
</a>
</g>
</g>
<!-- Node37&#45;&gt;Node41 -->
<g id="edge4" class="edge">
<title>Node37&#45;&gt;Node41</title>
<path fill="none" stroke="#191970" d="M136.877,-183.0346C158.0114,-188.5725 182.0556,-194.8729 203.6479,-200.5307"/>
<polygon fill="#191970" stroke="#191970" points="202.8163,-203.9309 213.3769,-203.08 204.5907,-197.1595 202.8163,-203.9309"/>
</g>
<!-- Node42 -->
<g id="node6" class="node">
<title>Node42</title>
<g id="a_node6"><a xlink:href="classsqlite_1_1statement.html#a4feb0002bd8daa77fffef99c0f838f1c" target="_top" xlink:title="Reset the statement. ">
<polygon fill="none" stroke="#000000" points="213.5,-153 213.5,-183 319.5,-183 319.5,-153 213.5,-153"/>
<text text-anchor="start" x="221.5" y="-171" font-family="Helvetica,sans-Serif" font-size="10.00" fill="#000000">sqlite::statement::</text>
<text text-anchor="middle" x="266.5" y="-160" font-family="Helvetica,sans-Serif" font-size="10.00" fill="#000000">reset</text>
</a>
</g>
</g>
<!-- Node37&#45;&gt;Node42 -->
<g id="edge5" class="edge">
<title>Node37&#45;&gt;Node42</title>
<path fill="none" stroke="#191970" d="M159.076,-168C173.7945,-168 188.9839,-168 203.141,-168"/>
<polygon fill="#191970" stroke="#191970" points="203.2456,-171.5001 213.2456,-168 203.2456,-164.5001 203.2456,-171.5001"/>
</g>
<!-- Node43 -->
<g id="node7" class="node">
<title>Node43</title>
<g id="a_node7"><a xlink:href="MatrixElements_8cpp.html#a6f6b84fd868c178f74ba516ddbffac2f" target="_top" xlink:title="selectionRulesMomentum">
<polygon fill="none" stroke="#000000" points="195,-114.5 195,-133.5 338,-133.5 338,-114.5 195,-114.5"/>
<text text-anchor="middle" x="266.5" y="-121.5" font-family="Helvetica,sans-Serif" font-size="10.00" fill="#000000">selectionRulesMomentum</text>
</a>
</g>
</g>
<!-- Node37&#45;&gt;Node43 -->
<g id="edge6" class="edge">
<title>Node37&#45;&gt;Node43</title>
<path fill="none" stroke="#191970" d="M143.3318,-152.9808C167.0959,-147.3892 193.7125,-141.1265 216.1059,-135.8574"/>
<polygon fill="#191970" stroke="#191970" points="217.1397,-139.2098 226.0722,-133.5124 215.5364,-132.3959 217.1397,-139.2098"/>
</g>
<!-- Node44 -->
<g id="node8" class="node">
<title>Node44</title>
<g id="a_node8"><a xlink:href="MatrixElements_8cpp.html#a8091d5442eeac91702ef15b470e70798" target="_top" xlink:title="selectionRulesMultipole">
<polygon fill="none" stroke="#000000" points="200,-76.5 200,-95.5 333,-95.5 333,-76.5 200,-76.5"/>
<text text-anchor="middle" x="266.5" y="-83.5" font-family="Helvetica,sans-Serif" font-size="10.00" fill="#000000">selectionRulesMultipole</text>
</a>
</g>
</g>
<!-- Node37&#45;&gt;Node44 -->
<g id="edge7" class="edge">
<title>Node37&#45;&gt;Node44</title>
<path fill="none" stroke="#191970" d="M103.0158,-152.9828C125.7968,-138.9711 161.6915,-118.286 195,-105 201.1719,-102.5382 207.7693,-100.2954 214.3681,-98.2837"/>
<polygon fill="#191970" stroke="#191970" points="215.3531,-101.6423 223.9878,-95.503 213.4092,-94.9177 215.3531,-101.6423"/>
</g>
<!-- Node45 -->
<g id="node9" class="node">
<title>Node45</title>
<g id="a_node9"><a xlink:href="classsqlite_1_1statement.html#aa68ea5317f4837f045502038d0682533" target="_top" xlink:title="Set the query string. ">
<polygon fill="none" stroke="#000000" points="206,-38.5 206,-57.5 327,-57.5 327,-38.5 206,-38.5"/>
<text text-anchor="middle" x="266.5" y="-45.5" font-family="Helvetica,sans-Serif" font-size="10.00" fill="#000000">sqlite::statement::set</text>
</a>
</g>
</g>
<!-- Node37&#45;&gt;Node45 -->
<g id="edge8" class="edge">
<title>Node37&#45;&gt;Node45</title>
<path fill="none" stroke="#191970" d="M92.4727,-152.9058C112.3246,-130.7628 152.4397,-89.6535 195,-67 199.3084,-64.7068 203.9132,-62.6757 208.6314,-60.8795"/>
<polygon fill="#191970" stroke="#191970" points="210.099,-64.076 218.4169,-57.5136 207.8222,-57.4566 210.099,-64.076"/>
</g>
<!-- Node46 -->
<g id="node10" class="node">
<title>Node46</title>
<g id="a_node10"><a xlink:href="classsqlite_1_1statement.html#a0ef0c0c1fd66918b9a9c6167fd2e668f" target="_top" xlink:title="Step the statement. ">
<polygon fill="none" stroke="#000000" points="203,-.5 203,-19.5 330,-19.5 330,-.5 203,-.5"/>
<text text-anchor="middle" x="266.5" y="-7.5" font-family="Helvetica,sans-Serif" font-size="10.00" fill="#000000">sqlite::statement::step</text>
</a>
</g>
</g>
<!-- Node37&#45;&gt;Node46 -->
<g id="edge9" class="edge">
<title>Node37&#45;&gt;Node46</title>
<path fill="none" stroke="#191970" d="M87.771,-152.813C104.2379,-124.0525 143.973,-61.6063 195,-29 198.3146,-26.882 201.8593,-24.9988 205.5318,-23.3246"/>
<polygon fill="#191970" stroke="#191970" points="206.8884,-26.5516 214.8651,-19.5787 204.281,-20.0553 206.8884,-26.5516"/>
</g>
</g>
</svg>
