<?xml version="1.0" encoding="UTF-8" standalone="no"?>
<!DOCTYPE svg PUBLIC "-//W3C//DTD SVG 1.1//EN"
 "http://www.w3.org/Graphics/SVG/1.1/DTD/svg11.dtd">
<!-- Generated by graphviz version 2.40.1 (20161225.0304)
 -->
<!-- Title: SystemTwo::initializeBasis Pages: 1 -->
<svg width="532pt" height="682pt"
 viewBox="0.00 0.00 532.00 681.50" xmlns="http://www.w3.org/2000/svg" xmlns:xlink="http://www.w3.org/1999/xlink">
<g id="graph0" class="graph" transform="scale(1 1) rotate(0) translate(4 677.5)">
<title>SystemTwo::initializeBasis</title>
<!-- Node33 -->
<g id="node1" class="node">
<title>Node33</title>
<polygon fill="#bfbfbf" stroke="#000000" points="0,-327.5 0,-346.5 146,-346.5 146,-327.5 0,-327.5"/>
<text text-anchor="middle" x="73" y="-334.5" font-family="Helvetica,sans-Serif" font-size="10.00" fill="#000000">SystemTwo::initializeBasis</text>
</g>
<!-- Node34 -->
<g id="node2" class="node">
<title>Node34</title>
<g id="a_node2"><a xlink:href="classSystemBase.html#a8549a3aefea8440efce5da07059a035d" target="_top" xlink:title="SystemBase\&lt; StateTwo\l \&gt;::applyRightsideTransformator">
<polygon fill="none" stroke="#000000" points="187,-643 187,-673 362,-673 362,-643 187,-643"/>
<text text-anchor="start" x="195" y="-661" font-family="Helvetica,sans-Serif" font-size="10.00" fill="#000000">SystemBase&lt; StateTwo</text>
<text text-anchor="middle" x="274.5" y="-650" font-family="Helvetica,sans-Serif" font-size="10.00" fill="#000000"> &gt;::applyRightsideTransformator</text>
</a>
</g>
</g>
<!-- Node33&#45;&gt;Node34 -->
<g id="edge1" class="edge">
<title>Node33&#45;&gt;Node34</title>
<path fill="none" stroke="#191970" d="M73.4599,-346.7097C75.9651,-388.1617 91.4613,-551.9162 182,-634 183.3098,-635.1875 184.6708,-636.3177 186.0765,-637.3933"/>
<polygon fill="#191970" stroke="#191970" points="184.2917,-640.4085 194.5708,-642.9761 188.1364,-634.5588 184.2917,-640.4085"/>
</g>
<!-- Node35 -->
<g id="node3" class="node">
<title>Node35</title>
<g id="a_node3"><a xlink:href="classSystemBase.html#a5fa7511cb2459a67370d4e33242092c7" target="_top" xlink:title="SystemBase\&lt; StateTwo\l \&gt;::checkIsEnergyValid">
<polygon fill="none" stroke="#000000" points="208,-594 208,-624 341,-624 341,-594 208,-594"/>
<text text-anchor="start" x="216" y="-612" font-family="Helvetica,sans-Serif" font-size="10.00" fill="#000000">SystemBase&lt; StateTwo</text>
<text text-anchor="middle" x="274.5" y="-601" font-family="Helvetica,sans-Serif" font-size="10.00" fill="#000000"> &gt;::checkIsEnergyValid</text>
</a>
</g>
</g>
<!-- Node33&#45;&gt;Node35 -->
<g id="edge2" class="edge">
<title>Node33&#45;&gt;Node35</title>
<path fill="none" stroke="#191970" d="M74.2556,-346.5437C79.6095,-383.2983 103.9491,-516.9695 182,-584 186.8863,-588.1964 192.4105,-591.6953 198.2679,-594.6117"/>
<polygon fill="#191970" stroke="#191970" points="197.1377,-597.9373 207.7027,-598.7317 199.939,-591.5222 197.1377,-597.9373"/>
</g>
<!-- Node36 -->
<g id="node4" class="node">
<title>Node36</title>
<g id="a_node4"><a xlink:href="classSystemBase.html#a4b6960923a2272c2a4161110a0ad7147" target="_top" xlink:title="SystemBase::diagonalize">
<polygon fill="none" stroke="#000000" points="204.5,-555.5 204.5,-574.5 344.5,-574.5 344.5,-555.5 204.5,-555.5"/>
<text text-anchor="middle" x="274.5" y="-562.5" font-family="Helvetica,sans-Serif" font-size="10.00" fill="#000000">SystemBase::diagonalize</text>
</a>
</g>
</g>
<!-- Node33&#45;&gt;Node36 -->
<g id="edge3" class="edge">
<title>Node33&#45;&gt;Node36</title>
<path fill="none" stroke="#191970" d="M74.9835,-346.814C82.35,-380.5737 111.4355,-492.7641 182,-546 185.9631,-548.9899 190.2828,-551.5382 194.8194,-553.7078"/>
<polygon fill="#191970" stroke="#191970" points="193.8117,-557.0779 204.3911,-557.6489 196.4769,-550.6051 193.8117,-557.0779"/>
</g>
<!-- Node37 -->
<g id="node5" class="node">
<title>Node37</title>
<g id="a_node5"><a xlink:href="classSystemBase.html#af97672563271779f03408405a2cc8895" target="_top" xlink:title="SystemBase::getBasisvectors">
<polygon fill="none" stroke="#000000" points="194,-517.5 194,-536.5 355,-536.5 355,-517.5 194,-517.5"/>
<text text-anchor="middle" x="274.5" y="-524.5" font-family="Helvetica,sans-Serif" font-size="10.00" fill="#000000">SystemBase::getBasisvectors</text>
</a>
</g>
</g>
<!-- Node33&#45;&gt;Node37 -->
<g id="edge4" class="edge">
<title>Node33&#45;&gt;Node37</title>
<path fill="none" stroke="#191970" d="M76.1049,-346.6672C86.1166,-376.1807 120.5245,-465.6757 182,-508 184.7682,-509.9058 187.6862,-511.6283 190.7123,-513.1845"/>
<polygon fill="#191970" stroke="#191970" points="189.5155,-516.4833 200.073,-517.3715 192.3737,-510.0934 189.5155,-516.4833"/>
</g>
<!-- Node38 -->
<g id="node6" class="node">
<title>Node38</title>
<g id="a_node6"><a xlink:href="classSystemBase.html#a8c2a5cdda52b32d4977d02f88c2bed73" target="_top" xlink:title="SystemBase::getHamiltonian">
<polygon fill="none" stroke="#000000" points="195,-479.5 195,-498.5 354,-498.5 354,-479.5 195,-479.5"/>
<text text-anchor="middle" x="274.5" y="-486.5" font-family="Helvetica,sans-Serif" font-size="10.00" fill="#000000">SystemBase::getHamiltonian</text>
</a>
</g>
</g>
<!-- Node33&#45;&gt;Node38 -->
<g id="edge5" class="edge">
<title>Node33&#45;&gt;Node38</title>
<path fill="none" stroke="#191970" d="M78.419,-346.7856C92.2846,-370.8773 131.54,-433.3902 182,-465 189.3551,-469.6075 197.5667,-473.3341 205.9778,-476.3474"/>
<polygon fill="#191970" stroke="#191970" points="204.9315,-479.6875 215.5238,-479.4554 207.0987,-473.0314 204.9315,-479.6875"/>
</g>
<!-- Node39 -->
<g id="node7" class="node">
<title>Node39</title>
<g id="a_node7"><a xlink:href="classStateOne.html#aedba5bfce70f73fa324b9d5ae1115578" target="_top" xlink:title="StateOne::getJ">
<polygon fill="none" stroke="#000000" points="420.5,-441.5 420.5,-460.5 506.5,-460.5 506.5,-441.5 420.5,-441.5"/>
<text text-anchor="middle" x="463.5" y="-448.5" font-family="Helvetica,sans-Serif" font-size="10.00" fill="#000000">StateOne::getJ</text>
</a>
</g>
</g>
<!-- Node33&#45;&gt;Node39 -->
<g id="edge6" class="edge">
<title>Node33&#45;&gt;Node39</title>
<path fill="none" stroke="#191970" d="M82.1115,-346.6577C99.5681,-364.4622 139.7612,-402.1744 182,-419 257.2203,-448.9637 352.1,-453.6238 410.2529,-453.1327"/>
<polygon fill="#191970" stroke="#191970" points="410.3679,-456.6316 420.3183,-452.9929 410.2706,-449.6322 410.3679,-456.6316"/>
</g>
<!-- Node40 -->
<g id="node8" class="node">
<title>Node40</title>
<g id="a_node8"><a xlink:href="classStateOne.html#a3783cebe5bbd63f072caf8450fea4aca" target="_top" xlink:title="StateOne::getL">
<polygon fill="none" stroke="#000000" points="419,-403.5 419,-422.5 508,-422.5 508,-403.5 419,-403.5"/>
<text text-anchor="middle" x="463.5" y="-410.5" font-family="Helvetica,sans-Serif" font-size="10.00" fill="#000000">StateOne::getL</text>
</a>
</g>
</g>
<!-- Node33&#45;&gt;Node40 -->
<g id="edge7" class="edge">
<title>Node33&#45;&gt;Node40</title>
<path fill="none" stroke="#191970" d="M86.6655,-346.5548C106.5759,-359.8967 145.207,-383.6344 182,-394 258.3419,-415.5077 350.7286,-417.4091 408.3215,-415.9019"/>
<polygon fill="#191970" stroke="#191970" points="408.7708,-419.3899 418.6587,-415.5848 408.5561,-412.3932 408.7708,-419.3899"/>
</g>
<!-- Node41 -->
<g id="node9" class="node">
<title>Node41</title>
<g id="a_node9"><a xlink:href="classStateOne.html#aab2b41262381d67893113ed6f5ad18bc" target="_top" xlink:title="StateOne::getM">
<polygon fill="none" stroke="#000000" points="417.5,-251.5 417.5,-270.5 509.5,-270.5 509.5,-251.5 417.5,-251.5"/>
<text text-anchor="middle" x="463.5" y="-258.5" font-family="Helvetica,sans-Serif" font-size="10.00" fill="#000000">StateOne::getM</text>
</a>
</g>
</g>
<!-- Node33&#45;&gt;Node41 -->
<g id="edge8" class="edge">
<title>Node33&#45;&gt;Node41</title>
<path fill="none" stroke="#191970" d="M144.5948,-346.508C206.4588,-351.5152 296.7254,-350.9533 367,-318 388.0636,-308.1228 383.2688,-292.3254 403,-280 406.3702,-277.8948 409.9926,-276.0055 413.7293,-274.3131"/>
<polygon fill="#191970" stroke="#191970" points="415.211,-277.4895 423.1742,-270.5011 412.591,-270.9983 415.211,-277.4895"/>
</g>
<!-- Node42 -->
<g id="node10" class="node">
<title>Node42</title>
<g id="a_node10"><a xlink:href="classSystemBase.html#ad63fbd3bea2dd20d9587699f0e951be3" target="_top" xlink:title="SystemBase::getNumBasisvectors">
<polygon fill="none" stroke="#000000" points="182,-289.5 182,-308.5 367,-308.5 367,-289.5 182,-289.5"/>
<text text-anchor="middle" x="274.5" y="-296.5" font-family="Helvetica,sans-Serif" font-size="10.00" fill="#000000">SystemBase::getNumBasisvectors</text>
</a>
</g>
</g>
<!-- Node33&#45;&gt;Node42 -->
<g id="edge9" class="edge">
<title>Node33&#45;&gt;Node42</title>
<path fill="none" stroke="#191970" d="M123.5869,-327.46C151.0133,-322.2878 185.0983,-315.8599 213.932,-310.4222"/>
<polygon fill="#191970" stroke="#191970" points="214.7142,-313.8365 223.8923,-308.5439 213.4169,-306.9578 214.7142,-313.8365"/>
</g>
<!-- Node43 -->
<g id="node11" class="node">
<title>Node43</title>
<g id="a_node11"><a xlink:href="classSystemBase.html#a22b09c3657ab1a41cae887a4bec5f9a9" target="_top" xlink:title="SystemBase::getNumStates">
<polygon fill="none" stroke="#000000" points="198,-251.5 198,-270.5 351,-270.5 351,-251.5 198,-251.5"/>
<text text-anchor="middle" x="274.5" y="-258.5" font-family="Helvetica,sans-Serif" font-size="10.00" fill="#000000">SystemBase::getNumStates</text>
</a>
</g>
</g>
<!-- Node33&#45;&gt;Node43 -->
<g id="edge10" class="edge">
<title>Node33&#45;&gt;Node43</title>
<path fill="none" stroke="#191970" d="M87.9081,-327.4748C108.3522,-314.824 146.5947,-292.6122 182,-280 189.5759,-277.3013 197.6448,-274.9392 205.7396,-272.8838"/>
<polygon fill="#191970" stroke="#191970" points="206.6834,-276.2569 215.595,-270.5268 205.0552,-269.4489 206.6834,-276.2569"/>
</g>
<!-- Node44 -->
<g id="node12" class="node">
<title>Node44</title>
<g id="a_node12"><a xlink:href="classStateOne.html#a0b5646c4160083ef4b24460e9159ad2c" target="_top" xlink:title="StateOne::getReflected">
<polygon fill="none" stroke="#000000" points="209.5,-365.5 209.5,-384.5 339.5,-384.5 339.5,-365.5 209.5,-365.5"/>
<text text-anchor="middle" x="274.5" y="-372.5" font-family="Helvetica,sans-Serif" font-size="10.00" fill="#000000">StateOne::getReflected</text>
</a>
</g>
</g>
<!-- Node33&#45;&gt;Node44 -->
<g id="edge11" class="edge">
<title>Node33&#45;&gt;Node44</title>
<path fill="none" stroke="#191970" d="M123.5869,-346.54C151.0133,-351.7122 185.0983,-358.1401 213.932,-363.5778"/>
<polygon fill="#191970" stroke="#191970" points="213.4169,-367.0422 223.8923,-365.4561 214.7142,-360.1635 213.4169,-367.0422"/>
</g>
<!-- Node48 -->
<g id="node16" class="node">
<title>Node48</title>
<g id="a_node16"><a xlink:href="classSystemBase.html#a5f75b643bad46db54cb4d51faa7f4563" target="_top" xlink:title="SystemBase::getStatesMulti\lIndex">
<polygon fill="none" stroke="#000000" points="197.5,-202 197.5,-232 351.5,-232 351.5,-202 197.5,-202"/>
<text text-anchor="start" x="205.5" y="-220" font-family="Helvetica,sans-Serif" font-size="10.00" fill="#000000">SystemBase::getStatesMulti</text>
<text text-anchor="middle" x="274.5" y="-209" font-family="Helvetica,sans-Serif" font-size="10.00" fill="#000000">Index</text>
</a>
</g>
</g>
<!-- Node33&#45;&gt;Node48 -->
<g id="edge18" class="edge">
<title>Node33&#45;&gt;Node48</title>
<path fill="none" stroke="#191970" d="M81.262,-327.3159C98.1786,-308.1076 138.82,-265.055 182,-242 186.2694,-239.7205 190.763,-237.6362 195.3749,-235.7322"/>
<polygon fill="#191970" stroke="#191970" points="196.8764,-238.9055 204.9733,-232.0724 194.3825,-232.3648 196.8764,-238.9055"/>
</g>
<!-- Node49 -->
<g id="node17" class="node">
<title>Node49</title>
<g id="a_node17"><a xlink:href="classSystemBase.html#ae905f68f010b36501547305a2e8e9ee6" target="_top" xlink:title="SystemBase\&lt; StateTwo\l \&gt;::removeRestrictedStates">
<polygon fill="none" stroke="#000000" points="198.5,-153 198.5,-183 350.5,-183 350.5,-153 198.5,-153"/>
<text text-anchor="start" x="206.5" y="-171" font-family="Helvetica,sans-Serif" font-size="10.00" fill="#000000">SystemBase&lt; StateTwo</text>
<text text-anchor="middle" x="274.5" y="-160" font-family="Helvetica,sans-Serif" font-size="10.00" fill="#000000"> &gt;::removeRestrictedStates</text>
</a>
</g>
</g>
<!-- Node33&#45;&gt;Node49 -->
<g id="edge19" class="edge">
<title>Node33&#45;&gt;Node49</title>
<path fill="none" stroke="#191970" d="M77.3184,-327.4626C89.6316,-301.39 127.5697,-228.4462 182,-192 184.3113,-190.4524 186.7165,-189.0046 189.1936,-187.6501"/>
<polygon fill="#191970" stroke="#191970" points="190.9827,-190.6716 198.4367,-183.1424 187.9144,-184.3799 190.9827,-190.6716"/>
</g>
<!-- Node50 -->
<g id="node18" class="node">
<title>Node50</title>
<g id="a_node18"><a xlink:href="classSystemBase.html#a88a66677df418886e4a258842a26e024" target="_top" xlink:title="SystemBase::restrictJ">
<polygon fill="none" stroke="#000000" points="214,-114.5 214,-133.5 335,-133.5 335,-114.5 214,-114.5"/>
<text text-anchor="middle" x="274.5" y="-121.5" font-family="Helvetica,sans-Serif" font-size="10.00" fill="#000000">SystemBase::restrictJ</text>
</a>
</g>
</g>
<!-- Node33&#45;&gt;Node50 -->
<g id="edge20" class="edge">
<title>Node33&#45;&gt;Node50</title>
<path fill="none" stroke="#191970" d="M75.3303,-327.4349C83.6321,-295.5258 114.9214,-191.9843 182,-143 188.5889,-138.1884 196.1117,-134.5296 203.9562,-131.7571"/>
<polygon fill="#191970" stroke="#191970" points="205.1027,-135.0666 213.6433,-128.7969 203.057,-128.3721 205.1027,-135.0666"/>
</g>
<!-- Node51 -->
<g id="node19" class="node">
<title>Node51</title>
<g id="a_node19"><a xlink:href="classSystemBase.html#a80bbd21a02f3a2362fc46fecaabfdb50" target="_top" xlink:title="SystemBase::restrictL">
<polygon fill="none" stroke="#000000" points="213,-76.5 213,-95.5 336,-95.5 336,-76.5 213,-76.5"/>
<text text-anchor="middle" x="274.5" y="-83.5" font-family="Helvetica,sans-Serif" font-size="10.00" fill="#000000">SystemBase::restrictL</text>
</a>
</g>
</g>
<!-- Node33&#45;&gt;Node51 -->
<g id="edge21" class="edge">
<title>Node33&#45;&gt;Node51</title>
<path fill="none" stroke="#191970" d="M74.454,-327.1496C80.3308,-291.0559 105.7831,-165.022 182,-105 188.2487,-100.079 195.4512,-96.3408 203.0215,-93.5139"/>
<polygon fill="#191970" stroke="#191970" points="204.3037,-96.7786 212.7632,-90.3999 202.1723,-90.1109 204.3037,-96.7786"/>
</g>
<!-- Node52 -->
<g id="node20" class="node">
<title>Node52</title>
<g id="a_node20"><a xlink:href="classSystemBase.html#ab34754b44770a35835cb489b57ef480e" target="_top" xlink:title="SystemBase::restrictM">
<polygon fill="none" stroke="#000000" points="211.5,-38.5 211.5,-57.5 337.5,-57.5 337.5,-38.5 211.5,-38.5"/>
<text text-anchor="middle" x="274.5" y="-45.5" font-family="Helvetica,sans-Serif" font-size="10.00" fill="#000000">SystemBase::restrictM</text>
</a>
</g>
</g>
<!-- Node33&#45;&gt;Node52 -->
<g id="edge22" class="edge">
<title>Node33&#45;&gt;Node52</title>
<path fill="none" stroke="#191970" d="M73.743,-327.2505C77.302,-287.7773 96.1843,-138.5286 182,-67 187.8008,-62.165 194.5088,-58.4547 201.6098,-55.6211"/>
<polygon fill="#191970" stroke="#191970" points="203.1385,-58.7988 211.4882,-52.277 200.894,-52.1684 203.1385,-58.7988"/>
</g>
<!-- Node53 -->
<g id="node21" class="node">
<title>Node53</title>
<g id="a_node21"><a xlink:href="classSystemBase.html#aaf846ebcf24f1f8e7045b4480cab5160" target="_top" xlink:title="SystemBase::restrictN">
<polygon fill="none" stroke="#000000" points="212,-.5 212,-19.5 337,-19.5 337,-.5 212,-.5"/>
<text text-anchor="middle" x="274.5" y="-7.5" font-family="Helvetica,sans-Serif" font-size="10.00" fill="#000000">SystemBase::restrictN</text>
</a>
</g>
</g>
<!-- Node33&#45;&gt;Node53 -->
<g id="edge23" class="edge">
<title>Node33&#45;&gt;Node53</title>
<path fill="none" stroke="#191970" d="M75.0791,-327.3537C85.5105,-279.8299 133.5629,-71.1939 182,-29 187.9105,-23.8513 194.8398,-19.9631 202.2012,-17.0441"/>
<polygon fill="#191970" stroke="#191970" points="203.3512,-20.35 211.7125,-13.8432 201.1185,-13.7157 203.3512,-20.35"/>
</g>
<!-- Node44&#45;&gt;Node39 -->
<g id="edge12" class="edge">
<title>Node44&#45;&gt;Node39</title>
<path fill="none" stroke="#191970" d="M294.2409,-384.5958C319.2201,-396.5418 363.727,-417.1772 403,-432 408.6747,-434.1418 414.7089,-436.2417 420.6852,-438.2186"/>
<polygon fill="#191970" stroke="#191970" points="420.0228,-441.6822 430.6143,-441.415 422.1679,-435.0189 420.0228,-441.6822"/>
</g>
<!-- Node44&#45;&gt;Node40 -->
<g id="edge13" class="edge">
<title>Node44&#45;&gt;Node40</title>
<path fill="none" stroke="#191970" d="M322.1927,-384.589C348.5865,-389.8957 381.4977,-396.5128 408.9162,-402.0255"/>
<polygon fill="#191970" stroke="#191970" points="408.2533,-405.4622 418.7471,-404.0021 409.6332,-398.5995 408.2533,-405.4622"/>
</g>
<!-- Node44&#45;&gt;Node41 -->
<g id="edge14" class="edge">
<title>Node44&#45;&gt;Node41</title>
<path fill="none" stroke="#191970" d="M339.5458,-365.6527C349.4294,-362.1827 358.9868,-357.4495 367,-351 394.5618,-328.8167 376.0063,-302.8712 403,-280 405.0212,-278.2875 407.1969,-276.7291 409.4803,-275.3109"/>
<polygon fill="#191970" stroke="#191970" points="411.4633,-278.2247 418.7216,-270.5067 408.2345,-272.0138 411.4633,-278.2247"/>
</g>
<!-- Node45 -->
<g id="node13" class="node">
<title>Node45</title>
<g id="a_node13"><a xlink:href="classStateOne.html#a7deae740570ef5262e7fd2d254a8c530" target="_top" xlink:title="StateOne::getN">
<polygon fill="none" stroke="#000000" points="418,-365.5 418,-384.5 509,-384.5 509,-365.5 418,-365.5"/>
<text text-anchor="middle" x="463.5" y="-372.5" font-family="Helvetica,sans-Serif" font-size="10.00" fill="#000000">StateOne::getN</text>
</a>
</g>
</g>
<!-- Node44&#45;&gt;Node45 -->
<g id="edge15" class="edge">
<title>Node44&#45;&gt;Node45</title>
<path fill="none" stroke="#191970" d="M339.5431,-375C361.6581,-375 386.1645,-375 407.5089,-375"/>
<polygon fill="#191970" stroke="#191970" points="407.7088,-378.5001 417.7088,-375 407.7088,-371.5001 407.7088,-378.5001"/>
</g>
<!-- Node46 -->
<g id="node14" class="node">
<title>Node46</title>
<g id="a_node14"><a xlink:href="classStateOne.html#a45b245f5da0068df4ff72093c654da89" target="_top" xlink:title="StateOne::getSpecies">
<polygon fill="none" stroke="#000000" points="403,-327.5 403,-346.5 524,-346.5 524,-327.5 403,-327.5"/>
<text text-anchor="middle" x="463.5" y="-334.5" font-family="Helvetica,sans-Serif" font-size="10.00" fill="#000000">StateOne::getSpecies</text>
</a>
</g>
</g>
<!-- Node44&#45;&gt;Node46 -->
<g id="edge16" class="edge">
<title>Node44&#45;&gt;Node46</title>
<path fill="none" stroke="#191970" d="M322.1927,-365.411C347.695,-360.2835 379.2818,-353.9328 406.1196,-348.5368"/>
<polygon fill="#191970" stroke="#191970" points="407.0364,-351.9226 416.1503,-346.5201 405.6565,-345.0599 407.0364,-351.9226"/>
</g>
<!-- Node47 -->
<g id="node15" class="node">
<title>Node47</title>
<g id="a_node15"><a xlink:href="classStateOne.html#a7eafbf38814e11dc5875e8a0bc99051c" target="_top" xlink:title="StateOne::StateOne">
<polygon fill="none" stroke="#000000" points="407,-289.5 407,-308.5 520,-308.5 520,-289.5 407,-289.5"/>
<text text-anchor="middle" x="463.5" y="-296.5" font-family="Helvetica,sans-Serif" font-size="10.00" fill="#000000">StateOne::StateOne</text>
</a>
</g>
</g>
<!-- Node44&#45;&gt;Node47 -->
<g id="edge17" class="edge">
<title>Node44&#45;&gt;Node47</title>
<path fill="none" stroke="#191970" d="M329.4958,-365.423C342.2676,-361.9413 355.4846,-357.2596 367,-351 386.0698,-340.634 384.1977,-328.8436 403,-318 406.7015,-315.8653 410.6713,-313.9411 414.7429,-312.2128"/>
<polygon fill="#191970" stroke="#191970" points="416.2664,-315.3771 424.3499,-308.5282 413.7597,-308.8413 416.2664,-315.3771"/>
</g>
</g>
</svg>
