<?xml version="1.0" encoding="UTF-8" standalone="no"?>
<!DOCTYPE svg PUBLIC "-//W3C//DTD SVG 1.1//EN"
 "http://www.w3.org/Graphics/SVG/1.1/DTD/svg11.dtd">
<!-- Generated by graphviz version 2.40.1 (20161225.0304)
 -->
<!-- Title: MatrixElementCache::getElectricDipole Pages: 1 -->
<svg width="335pt" height="165pt"
 viewBox="0.00 0.00 335.00 164.50" xmlns="http://www.w3.org/2000/svg" xmlns:xlink="http://www.w3.org/1999/xlink">
<g id="graph0" class="graph" transform="scale(1 1) rotate(0) translate(4 160.5)">
<title>MatrixElementCache::getElectricDipole</title>
<!-- Node14 -->
<g id="node1" class="node">
<title>Node14</title>
<polygon fill="#bfbfbf" stroke="#000000" points="0,-55 0,-85 118,-85 118,-55 0,-55"/>
<text text-anchor="start" x="8" y="-73" font-family="Helvetica,sans-Serif" font-size="10.00" fill="#000000">MatrixElementCache</text>
<text text-anchor="middle" x="59" y="-62" font-family="Helvetica,sans-Serif" font-size="10.00" fill="#000000">::getElectricDipole</text>
</g>
<!-- Node15 -->
<g id="node2" class="node">
<title>Node15</title>
<g id="a_node2"><a xlink:href="classPerturbativeInteraction.html#afec910b424e616803b8983f31fe927cc" target="_top" xlink:title="PerturbativeInteraction\l::getC3">
<polygon fill="none" stroke="#000000" points="176,-126 176,-156 305,-156 305,-126 176,-126"/>
<text text-anchor="start" x="184" y="-144" font-family="Helvetica,sans-Serif" font-size="10.00" fill="#000000">PerturbativeInteraction</text>
<text text-anchor="middle" x="240.5" y="-133" font-family="Helvetica,sans-Serif" font-size="10.00" fill="#000000">::getC3</text>
</a>
</g>
</g>
<!-- Node14&#45;&gt;Node15 -->
<g id="edge1" class="edge">
<title>Node14&#45;&gt;Node15</title>
<path fill="none" stroke="#191970" d="M95.4537,-90.0535C112.8359,-99.0881 134.1309,-109.4067 154,-117 162.4435,-120.2268 171.5012,-123.2234 180.4613,-125.9285"/>
<polygon fill="#191970" stroke="#191970" points="96.7116,-86.76 86.2334,-85.1918 93.4466,-92.952 96.7116,-86.76"/>
</g>
<!-- Node16 -->
<g id="node3" class="node">
<title>Node16</title>
<g id="a_node3"><a xlink:href="classPerturbativeInteraction.html#aef0f5d43fdcf0377dc53e31730c99cb9" target="_top" xlink:title="PerturbativeInteraction\l::getC6">
<polygon fill="none" stroke="#000000" points="176,-77 176,-107 305,-107 305,-77 176,-77"/>
<text text-anchor="start" x="184" y="-95" font-family="Helvetica,sans-Serif" font-size="10.00" fill="#000000">PerturbativeInteraction</text>
<text text-anchor="middle" x="240.5" y="-84" font-family="Helvetica,sans-Serif" font-size="10.00" fill="#000000">::getC6</text>
</a>
</g>
</g>
<!-- Node14&#45;&gt;Node16 -->
<g id="edge2" class="edge">
<title>Node14&#45;&gt;Node16</title>
<path fill="none" stroke="#191970" d="M128.2759,-78.3971C143.8694,-80.2872 160.3604,-82.2861 175.76,-84.1527"/>
<polygon fill="#191970" stroke="#191970" points="128.5273,-74.902 118.1787,-77.1732 127.6849,-81.8511 128.5273,-74.902"/>
</g>
<!-- Node17 -->
<g id="node4" class="node">
<title>Node17</title>
<g id="a_node4"><a xlink:href="classSystemTwo.html#a5cc89c42ab8066027b0c375b818c8333" target="_top" xlink:title="Method that allows base class to calculate the interaction /////. ">
<polygon fill="none" stroke="#000000" points="154,-38.5 154,-57.5 327,-57.5 327,-38.5 154,-38.5"/>
<text text-anchor="middle" x="240.5" y="-45.5" font-family="Helvetica,sans-Serif" font-size="10.00" fill="#000000">SystemTwo::initializeInteraction</text>
</a>
</g>
</g>
<!-- Node14&#45;&gt;Node17 -->
<g id="edge3" class="edge">
<title>Node14&#45;&gt;Node17</title>
<path fill="none" stroke="#191970" d="M128.1658,-61.6163C139.2009,-60.2787 150.6881,-58.8863 161.9218,-57.5246"/>
<polygon fill="#191970" stroke="#191970" points="127.6849,-58.1488 118.1787,-62.8268 128.5273,-65.098 127.6849,-58.1488"/>
</g>
<!-- Node18 -->
<g id="node5" class="node">
<title>Node18</title>
<g id="a_node5"><a xlink:href="classSystemOne.html#abf6d26d44765fa787251956c128644a7" target="_top" xlink:title="Method that allows base class to calculate the interaction /////. ">
<polygon fill="none" stroke="#000000" points="154,-.5 154,-19.5 327,-19.5 327,-.5 154,-.5"/>
<text text-anchor="middle" x="240.5" y="-7.5" font-family="Helvetica,sans-Serif" font-size="10.00" fill="#000000">SystemOne::initializeInteraction</text>
</a>
</g>
</g>
<!-- Node14&#45;&gt;Node18 -->
<g id="edge4" class="edge">
<title>Node14&#45;&gt;Node18</title>
<path fill="none" stroke="#191970" d="M99.1038,-50.6681C115.802,-43.1542 135.563,-34.943 154,-29 165.2681,-25.3678 177.5833,-22.2017 189.2964,-19.5499"/>
<polygon fill="#191970" stroke="#191970" points="97.2965,-47.646 89.6593,-54.9893 100.2089,-54.0114 97.2965,-47.646"/>
</g>
</g>
</svg>
