<?xml version="1.0" encoding="UTF-8" standalone="no"?>
<!DOCTYPE svg PUBLIC "-//W3C//DTD SVG 1.1//EN"
 "http://www.w3.org/Graphics/SVG/1.1/DTD/svg11.dtd">
<!-- Generated by graphviz version 2.40.1 (20161225.0304)
 -->
<!-- Title: SystemOne Pages: 1 -->
<!--zoomable 430 -->
<svg id="main" version="1.1" xmlns="http://www.w3.org/2000/svg" xmlns:xlink="http://www.w3.org/1999/xlink" xml:space="preserve" onload="init(evt)">
<style type="text/css"><![CDATA[
.edge:hover path { stroke: red; }
.edge:hover polygon { stroke: red; fill: red; }
]]></style>
<script type="text/javascript"><![CDATA[
var edges = document.getElementsByTagName('g');
if (edges && edges.length) {
  for (var i=0;i<edges.length;i++) {
    if (edges[i].id.substr(0,4)=='edge') {
      edges[i].setAttribute('class','edge');
    }
  }
}
]]></script>
        <defs>
                <circle id="rim" cx="0" cy="0" r="7"/>
                <circle id="rim2" cx="0" cy="0" r="3.5"/>
                <g id="zoomPlus">
                        <use xlink:href="#rim" fill="#404040">
                                <set attributeName="fill" to="#808080" begin="zoomplus.mouseover" end="zoomplus.mouseout"/>
                        </use>
                        <path d="M-4,0h8M0,-4v8" fill="none" stroke="white" stroke-width="1.5" pointer-events="none"/>
                </g>
                <g id="zoomMin">
                        <use xlink:href="#rim" fill="#404040">
                                <set attributeName="fill" to="#808080" begin="zoomminus.mouseover" end="zoomminus.mouseout"/>
                        </use>
                        <path d="M-4,0h8" fill="none" stroke="white" stroke-width="1.5" pointer-events="none"/>
                </g>
                <g id="dirArrow">
                        <path fill="none" stroke="white" stroke-width="1.5" d="M0,-3.0v7 M-2.5,-0.5L0,-3.0L2.5,-0.5"/>
                </g>
               <g id="resetDef">
                       <use xlink:href="#rim2" fill="#404040">
                               <set attributeName="fill" to="#808080" begin="reset.mouseover" end="reset.mouseout"/>
                       </use>
               </g>
        </defs>

<script type="text/javascript">
var viewWidth = 567;
var viewHeight = 430;
var sectionId = 'dynsection-1';
</script>
<script xlink:href="svgpan.js"/>
<svg id="graph" class="graph">
<g id="viewport">
<title>SystemOne</title>
<!-- Node2 -->
<g id="node1" class="node">
<title>Node2</title>
<polygon fill="#bfbfbf" stroke="#000000" points="486,-209.3063 486,-228.3063 559,-228.3063 559,-209.3063 486,-209.3063"/>
<text text-anchor="middle" x="522.5" y="-216.3063" font-family="Helvetica,sans-Serif" font-size="10.00" fill="#000000">SystemOne</text>
</g>
<!-- Node3 -->
<g id="node2" class="node">
<title>Node3</title>
<g id="a_node2"><a xlink:href="classSystemBase.html" target="_top" xlink:title="SystemBase\&lt; StateOne \&gt;">
<polygon fill="none" stroke="#000000" points="304,-209.3063 304,-228.3063 449,-228.3063 449,-209.3063 304,-209.3063"/>
<text text-anchor="middle" x="376.5" y="-216.3063" font-family="Helvetica,sans-Serif" font-size="10.00" fill="#000000">SystemBase&lt; StateOne &gt;</text>
</a>
</g>
</g>
<!-- Node3&#45;&gt;Node2 -->
<g id="edge1" class="edge">
<title>Node3&#45;&gt;Node2</title>
<path fill="none" stroke="#191970" d="M459.1981,-218.8063C468.4796,-218.8063 477.5481,-218.8063 485.7891,-218.8063"/>
<polygon fill="#191970" stroke="#191970" points="459.0723,-215.3064 449.0723,-218.8063 459.0722,-222.3064 459.0723,-215.3064"/>
</g>
<!-- Node4 -->
<g id="node3" class="node">
<title>Node4</title>
<polygon fill="none" stroke="#bfbfbf" points="32,-383.3063 32,-402.3063 109,-402.3063 109,-383.3063 32,-383.3063"/>
<text text-anchor="middle" x="70.5" y="-390.3063" font-family="Helvetica,sans-Serif" font-size="10.00" fill="#000000">set&lt; float &gt;</text>
</g>
<!-- Node4&#45;&gt;Node3 -->
<g id="edge2" class="edge">
<title>Node4&#45;&gt;Node3</title>
<path fill="none" stroke="#9a32cd" stroke-dasharray="5,2" d="M119.4089,-399.3775C165.9298,-403.0683 236.0377,-401.7316 286,-369.8063 340.0839,-335.2474 366.335,-255.7769 374.0227,-228.333"/>
<polygon fill="#9a32cd" stroke="#9a32cd" points="119.5511,-395.8762 109.2774,-398.4649 118.9231,-402.848 119.5511,-395.8762"/>
<text text-anchor="middle" x="222.5" y="-413.8063" font-family="Helvetica,sans-Serif" font-size="10.00" fill="#000000"> range_j</text>
<text text-anchor="middle" x="222.5" y="-402.8063" font-family="Helvetica,sans-Serif" font-size="10.00" fill="#000000">range_m</text>
</g>
<!-- Node5 -->
<g id="node4" class="node">
<title>Node5</title>
<g id="a_node4"><a xlink:href="classdouble.html" target="_top" xlink:title="double">
<polygon fill="none" stroke="#000000" points="45.5,-327.3063 45.5,-346.3063 95.5,-346.3063 95.5,-327.3063 45.5,-327.3063"/>
<text text-anchor="middle" x="70.5" y="-334.3063" font-family="Helvetica,sans-Serif" font-size="10.00" fill="#000000">double</text>
</a>
</g>
</g>
<!-- Node5&#45;&gt;Node3 -->
<g id="edge3" class="edge">
<title>Node5&#45;&gt;Node3</title>
<path fill="none" stroke="#9a32cd" stroke-dasharray="5,2" d="M106.0356,-335.9593C158.8692,-334.2082 255.2164,-328.981 286,-313.8063 326.25,-293.9652 358.1449,-248.4039 370.7085,-228.4568"/>
<polygon fill="#9a32cd" stroke="#9a32cd" points="105.6592,-332.4691 95.7712,-336.2738 105.8737,-339.4658 105.6592,-332.4691"/>
<text text-anchor="middle" x="222.5" y="-357.8063" font-family="Helvetica,sans-Serif" font-size="10.00" fill="#000000"> energy_max</text>
<text text-anchor="middle" x="222.5" y="-346.8063" font-family="Helvetica,sans-Serif" font-size="10.00" fill="#000000">threshold_for_sqnorm</text>
<text text-anchor="middle" x="222.5" y="-335.8063" font-family="Helvetica,sans-Serif" font-size="10.00" fill="#000000">energy_min</text>
</g>
<!-- Node6 -->
<g id="node5" class="node">
<title>Node6</title>
<polygon fill="none" stroke="#bfbfbf" points="37,-284.3063 37,-303.3063 104,-303.3063 104,-284.3063 37,-284.3063"/>
<text text-anchor="middle" x="70.5" y="-291.3063" font-family="Helvetica,sans-Serif" font-size="10.00" fill="#000000">set&lt; int &gt;</text>
</g>
<!-- Node6&#45;&gt;Node3 -->
<g id="edge4" class="edge">
<title>Node6&#45;&gt;Node3</title>
<path fill="none" stroke="#9a32cd" stroke-dasharray="5,2" d="M114.1934,-291.855C158.3748,-288.9299 228.2011,-281.6779 286,-263.8063 313.828,-255.2018 343.6192,-238.8351 361.1267,-228.3907"/>
<polygon fill="#9a32cd" stroke="#9a32cd" points="113.847,-288.3696 104.0813,-292.4783 114.2778,-295.3563 113.847,-288.3696"/>
<text text-anchor="middle" x="222.5" y="-301.8063" font-family="Helvetica,sans-Serif" font-size="10.00" fill="#000000"> range_l</text>
<text text-anchor="middle" x="222.5" y="-290.8063" font-family="Helvetica,sans-Serif" font-size="10.00" fill="#000000">range_n</text>
</g>
<!-- Node7 -->
<g id="node6" class="node">
<title>Node7</title>
<g id="a_node6"><a xlink:href="structstates__set.html" target="_top" xlink:title="states_set\&lt; StateOne \&gt;">
<polygon fill="none" stroke="#000000" points="3.5,-246.3063 3.5,-265.3063 137.5,-265.3063 137.5,-246.3063 3.5,-246.3063"/>
<text text-anchor="middle" x="70.5" y="-253.3063" font-family="Helvetica,sans-Serif" font-size="10.00" fill="#000000">states_set&lt; StateOne &gt;</text>
</a>
</g>
</g>
<!-- Node7&#45;&gt;Node3 -->
<g id="edge5" class="edge">
<title>Node7&#45;&gt;Node3</title>
<path fill="none" stroke="#9a32cd" stroke-dasharray="5,2" d="M147.8917,-250.3781C189.0217,-247.0512 240.3758,-242.1944 286,-235.8063 300.4073,-233.7891 316.0073,-231.0579 330.1316,-228.3752"/>
<polygon fill="#9a32cd" stroke="#9a32cd" points="147.3562,-246.9096 137.665,-251.191 147.9109,-253.8875 147.3562,-246.9096"/>
<text text-anchor="middle" x="222.5" y="-251.8063" font-family="Helvetica,sans-Serif" font-size="10.00" fill="#000000"> states</text>
</g>
<!-- Node8 -->
<g id="node7" class="node">
<title>Node8</title>
<g id="a_node7"><a xlink:href="classbool.html" target="_top" xlink:title="bool">
<polygon fill="none" stroke="#000000" points="51.5,-172.3063 51.5,-191.3063 89.5,-191.3063 89.5,-172.3063 51.5,-172.3063"/>
<text text-anchor="middle" x="70.5" y="-179.3063" font-family="Helvetica,sans-Serif" font-size="10.00" fill="#000000">bool</text>
</a>
</g>
</g>
<!-- Node8&#45;&gt;Node3 -->
<g id="edge6" class="edge">
<title>Node8&#45;&gt;Node3</title>
<path fill="none" stroke="#9a32cd" stroke-dasharray="5,2" d="M99.5594,-176.7946C141.3572,-170.5579 220.6145,-162.3733 286,-176.8063 314.0775,-183.0041 343.7947,-198.8239 361.2192,-209.1812"/>
<polygon fill="#9a32cd" stroke="#9a32cd" points="98.8687,-173.36 89.5294,-178.3628 99.9501,-180.276 98.8687,-173.36"/>
<text text-anchor="middle" x="222.5" y="-223.8063" font-family="Helvetica,sans-Serif" font-size="10.00" fill="#000000"> memory_saving</text>
<text text-anchor="start" x="168" y="-212.8063" font-family="Helvetica,sans-Serif" font-size="10.00" fill="#000000">is_interaction_already</text>
<text text-anchor="middle" x="222.5" y="-201.8063" font-family="Helvetica,sans-Serif" font-size="10.00" fill="#000000">_contained</text>
<text text-anchor="start" x="168" y="-190.8063" font-family="Helvetica,sans-Serif" font-size="10.00" fill="#000000">is_new_hamiltonian</text>
<text text-anchor="middle" x="222.5" y="-179.8063" font-family="Helvetica,sans-Serif" font-size="10.00" fill="#000000">_required</text>
</g>
<!-- Node9 -->
<g id="node8" class="node">
<title>Node9</title>
<g id="a_node8"><a xlink:href="classstd_1_1set_3_01StateOne_01_4.html" target="_top" xlink:title="set\&lt; StateOne \&gt;">
<polygon fill="none" stroke="#000000" points="21,-134.3063 21,-153.3063 120,-153.3063 120,-134.3063 21,-134.3063"/>
<text text-anchor="middle" x="70.5" y="-141.3063" font-family="Helvetica,sans-Serif" font-size="10.00" fill="#000000">set&lt; StateOne &gt;</text>
</a>
</g>
</g>
<!-- Node9&#45;&gt;Node3 -->
<g id="edge7" class="edge">
<title>Node9&#45;&gt;Node3</title>
<path fill="none" stroke="#9a32cd" stroke-dasharray="5,2" d="M130.3978,-137.1668C174.6362,-134.4215 235.655,-135.228 286,-152.8063 319.781,-164.6012 351.7543,-193.5367 367.0671,-208.8798"/>
<polygon fill="#9a32cd" stroke="#9a32cd" points="130.1101,-133.6783 120.3784,-137.8668 130.598,-140.6613 130.1101,-133.6783"/>
<text text-anchor="middle" x="222.5" y="-155.8063" font-family="Helvetica,sans-Serif" font-size="10.00" fill="#000000"> states_to_add</text>
</g>
<!-- Node10 -->
<g id="node9" class="node">
<title>Node10</title>
<polygon fill="none" stroke="#bfbfbf" points="0,-47.3063 0,-66.3063 141,-66.3063 141,-47.3063 0,-47.3063"/>
<text text-anchor="middle" x="70.5" y="-54.3063" font-family="Helvetica,sans-Serif" font-size="10.00" fill="#000000">SparseMatrix&lt; scalar_t &gt;</text>
</g>
<!-- Node10&#45;&gt;Node3 -->
<g id="edge8" class="edge">
<title>Node10&#45;&gt;Node3</title>
<path fill="none" stroke="#9a32cd" stroke-dasharray="5,2" d="M123.6907,-45.6483C169.9312,-38.9035 237.007,-36.4922 286,-65.8063 341.6141,-99.0821 366.8849,-180.7204 374.171,-208.9848"/>
<polygon fill="#9a32cd" stroke="#9a32cd" points="122.9075,-42.2284 113.5735,-47.2411 123.9962,-49.1432 122.9075,-42.2284"/>
<text text-anchor="start" x="159" y="-123.8063" font-family="Helvetica,sans-Serif" font-size="10.00" fill="#000000"> hamiltonian_unperturbed</text>
<text text-anchor="middle" x="222.5" y="-112.8063" font-family="Helvetica,sans-Serif" font-size="10.00" fill="#000000">_cache</text>
<text text-anchor="middle" x="222.5" y="-101.8063" font-family="Helvetica,sans-Serif" font-size="10.00" fill="#000000">hamiltonian</text>
<text text-anchor="start" x="159" y="-90.8063" font-family="Helvetica,sans-Serif" font-size="10.00" fill="#000000">basisvectors_unperturbed</text>
<text text-anchor="middle" x="222.5" y="-79.8063" font-family="Helvetica,sans-Serif" font-size="10.00" fill="#000000">_cache</text>
<text text-anchor="middle" x="222.5" y="-68.8063" font-family="Helvetica,sans-Serif" font-size="10.00" fill="#000000">basisvectors</text>
</g>
<!-- Node11 -->
<g id="node10" class="node">
<title>Node11</title>
<g id="a_node10"><a xlink:href="classMatrixElementCache.html" target="_top" xlink:title="MatrixElementCache">
<polygon fill="none" stroke="#000000" points="11.5,-9.3063 11.5,-28.3063 129.5,-28.3063 129.5,-9.3063 11.5,-9.3063"/>
<text text-anchor="middle" x="70.5" y="-16.3063" font-family="Helvetica,sans-Serif" font-size="10.00" fill="#000000">MatrixElementCache</text>
</a>
</g>
</g>
<!-- Node11&#45;&gt;Node3 -->
<g id="edge9" class="edge">
<title>Node11&#45;&gt;Node3</title>
<path fill="none" stroke="#9a32cd" stroke-dasharray="5,2" d="M116.5595,-7.3167C163.2531,1.5523 235.6139,7.3781 286,-25.8063 352.4498,-69.5703 371.1177,-175.9546 375.3929,-208.9083"/>
<polygon fill="#9a32cd" stroke="#9a32cd" points="115.8241,-3.8945 106.7144,-9.304 117.2092,-10.7561 115.8241,-3.8945"/>
<text text-anchor="middle" x="222.5" y="-28.8063" font-family="Helvetica,sans-Serif" font-size="10.00" fill="#000000"> cache</text>
</g>
</g>
</svg>
        <g id="navigator" transform="translate(0 0)" fill="#404254">
                <rect fill="#f2f5e9" fill-opacity="0.5" stroke="#606060" stroke-width=".5" x="0" y="0" width="60" height="60"/>
                <use id="zoomplus" xlink:href="#zoomPlus" x="17" y="9" onmousedown="handleZoom(evt,'in')"/>
                <use id="zoomminus" xlink:href="#zoomMin" x="42" y="9" onmousedown="handleZoom(evt,'out')"/>
                <use id="reset" xlink:href="#resetDef" x="30" y="36" onmousedown="handleReset()"/>
                <g id="arrowUp" xlink:href="#dirArrow" transform="translate(30 24)" onmousedown="handlePan(0,-1)">
                  <use xlink:href="#rim" fill="#404040">
                        <set attributeName="fill" to="#808080" begin="arrowUp.mouseover" end="arrowUp.mouseout"/>
                  </use>
                  <path fill="none" stroke="white" stroke-width="1.5" d="M0,-3.0v7 M-2.5,-0.5L0,-3.0L2.5,-0.5"/>
                </g>
                <g id="arrowRight" xlink:href="#dirArrow" transform="rotate(90) translate(36 -43)" onmousedown="handlePan(1,0)">
                  <use xlink:href="#rim" fill="#404040">
                        <set attributeName="fill" to="#808080" begin="arrowRight.mouseover" end="arrowRight.mouseout"/>
                  </use>
                  <path fill="none" stroke="white" stroke-width="1.5" d="M0,-3.0v7 M-2.5,-0.5L0,-3.0L2.5,-0.5"/>
                </g>
                <g id="arrowDown" xlink:href="#dirArrow" transform="rotate(180) translate(-30 -48)" onmousedown="handlePan(0,1)">
                  <use xlink:href="#rim" fill="#404040">
                        <set attributeName="fill" to="#808080" begin="arrowDown.mouseover" end="arrowDown.mouseout"/>
                  </use>
                  <path fill="none" stroke="white" stroke-width="1.5" d="M0,-3.0v7 M-2.5,-0.5L0,-3.0L2.5,-0.5"/>
                </g>
                <g id="arrowLeft" xlink:href="#dirArrow" transform="rotate(270) translate(-36 17)" onmousedown="handlePan(-1,0)">
                  <use xlink:href="#rim" fill="#404040">
                        <set attributeName="fill" to="#808080" begin="arrowLeft.mouseover" end="arrowLeft.mouseout"/>
                  </use>
                  <path fill="none" stroke="white" stroke-width="1.5" d="M0,-3.0v7 M-2.5,-0.5L0,-3.0L2.5,-0.5"/>
                </g>
        </g>
        <svg viewBox="0 0 15 15" width="100%" height="30px" preserveAspectRatio="xMaxYMin meet">
         <g id="arrow_out" transform="scale(0.3 0.3)">
          <a xlink:href="classSystemOne__coll__graph_org.svg" target="_base">
           <rect id="button" ry="5" rx="5" y="6" x="6" height="38" width="38"
                fill="#f2f5e9" fill-opacity="0.5" stroke="#606060" stroke-width="1.0"/>
           <path id="arrow"
             d="M 11.500037,31.436501 C 11.940474,20.09759 22.043105,11.32322 32.158766,21.979434 L 37.068811,17.246167 C 37.068811,17.246167 37.088388,32 37.088388,32 L 22.160133,31.978069 C 22.160133,31.978069 26.997745,27.140456 26.997745,27.140456 C 18.528582,18.264221 13.291696,25.230495 11.500037,31.436501 z"
             style="fill:#404040;"/>
          </a>
         </g>
        </svg>
</svg>
