<?xml version="1.0" encoding="UTF-8" standalone="no"?>
<!DOCTYPE svg PUBLIC "-//W3C//DTD SVG 1.1//EN"
 "http://www.w3.org/Graphics/SVG/1.1/DTD/svg11.dtd">
<!-- Generated by graphviz version 2.40.1 (20161225.0304)
 -->
<!-- Title: StateOne::getSpecies Pages: 1 -->
<!--zoomable 290 -->
<svg id="main" version="1.1" xmlns="http://www.w3.org/2000/svg" xmlns:xlink="http://www.w3.org/1999/xlink" xml:space="preserve" onload="init(evt)">
<style type="text/css"><![CDATA[
.edge:hover path { stroke: red; }
.edge:hover polygon { stroke: red; fill: red; }
]]></style>
<script type="text/javascript"><![CDATA[
var edges = document.getElementsByTagName('g');
if (edges && edges.length) {
  for (var i=0;i<edges.length;i++) {
    if (edges[i].id.substr(0,4)=='edge') {
      edges[i].setAttribute('class','edge');
    }
  }
}
]]></script>
        <defs>
                <circle id="rim" cx="0" cy="0" r="7"/>
                <circle id="rim2" cx="0" cy="0" r="3.5"/>
                <g id="zoomPlus">
                        <use xlink:href="#rim" fill="#404040">
                                <set attributeName="fill" to="#808080" begin="zoomplus.mouseover" end="zoomplus.mouseout"/>
                        </use>
                        <path d="M-4,0h8M0,-4v8" fill="none" stroke="white" stroke-width="1.5" pointer-events="none"/>
                </g>
                <g id="zoomMin">
                        <use xlink:href="#rim" fill="#404040">
                                <set attributeName="fill" to="#808080" begin="zoomminus.mouseover" end="zoomminus.mouseout"/>
                        </use>
                        <path d="M-4,0h8" fill="none" stroke="white" stroke-width="1.5" pointer-events="none"/>
                </g>
                <g id="dirArrow">
                        <path fill="none" stroke="white" stroke-width="1.5" d="M0,-3.0v7 M-2.5,-0.5L0,-3.0L2.5,-0.5"/>
                </g>
               <g id="resetDef">
                       <use xlink:href="#rim2" fill="#404040">
                               <set attributeName="fill" to="#808080" begin="reset.mouseover" end="reset.mouseout"/>
                       </use>
               </g>
        </defs>

<script type="text/javascript">
var viewWidth = 531;
var viewHeight = 290;
var sectionId = 'dynsection-17';
</script>
<script xlink:href="svgpan.js"/>
<svg id="graph" class="graph">
<g id="viewport">
<title>StateOne::getSpecies</title>
<!-- Node117 -->
<g id="node1" class="node">
<title>Node117</title>
<polygon fill="#bfbfbf" stroke="#000000" points="0,-120.5 0,-139.5 121,-139.5 121,-120.5 0,-120.5"/>
<text text-anchor="middle" x="60.5" y="-127.5" font-family="Helvetica,sans-Serif" font-size="10.00" fill="#000000">StateOne::getSpecies</text>
</g>
<!-- Node118 -->
<g id="node2" class="node">
<title>Node118</title>
<g id="a_node2"><a xlink:href="integration__test_8cpp.html#a0edc7e03850724a3784df426b75fb1d2" target="_top" xlink:title="BOOST_FIXTURE_TEST_CASE">
<polygon fill="none" stroke="#000000" points="157,-262.5 157,-281.5 314,-281.5 314,-262.5 157,-262.5"/>
<text text-anchor="middle" x="235.5" y="-269.5" font-family="Helvetica,sans-Serif" font-size="10.00" fill="#000000">BOOST_FIXTURE_TEST_CASE</text>
</a>
</g>
</g>
<!-- Node117&#45;&gt;Node118 -->
<g id="edge1" class="edge">
<title>Node117&#45;&gt;Node118</title>
<path fill="none" stroke="#191970" d="M69.9049,-148.7354C84.6194,-176.0565 115.7266,-226.4571 157,-253 163.0148,-256.8681 169.7486,-259.9491 176.6762,-262.403"/>
<polygon fill="#191970" stroke="#191970" points="72.9698,-147.0434 65.237,-139.8009 66.7656,-150.2849 72.9698,-147.0434"/>
</g>
<!-- Node119 -->
<g id="node3" class="node">
<title>Node119</title>
<g id="a_node3"><a xlink:href="classMatrixElementCache.html#afc9f56a599c9ea24bbfbd4aeb41efbd4" target="_top" xlink:title="MatrixElementCache\l::getElectricMultipole">
<polygon fill="none" stroke="#000000" points="176,-213 176,-243 295,-243 295,-213 176,-213"/>
<text text-anchor="start" x="184" y="-231" font-family="Helvetica,sans-Serif" font-size="10.00" fill="#000000">MatrixElementCache</text>
<text text-anchor="middle" x="235.5" y="-220" font-family="Helvetica,sans-Serif" font-size="10.00" fill="#000000">::getElectricMultipole</text>
</a>
</g>
</g>
<!-- Node117&#45;&gt;Node119 -->
<g id="edge2" class="edge">
<title>Node117&#45;&gt;Node119</title>
<path fill="none" stroke="#191970" d="M77.9175,-146.4888C96.2905,-163.0905 126.7235,-188.4124 157,-204 163.462,-207.3269 170.4648,-210.2807 177.5365,-212.8781"/>
<polygon fill="#191970" stroke="#191970" points="80.0966,-143.7376 70.3683,-139.5409 75.3562,-148.8882 80.0966,-143.7376"/>
</g>
<!-- Node120 -->
<g id="node4" class="node">
<title>Node120</title>
<g id="a_node4"><a xlink:href="classMatrixElementCache.html#aeef0496ad6db911dac50c0625660d9c0" target="_top" xlink:title="MatrixElementCache\l::getMagneticDipole">
<polygon fill="none" stroke="#000000" points="176.5,-164 176.5,-194 294.5,-194 294.5,-164 176.5,-164"/>
<text text-anchor="start" x="184.5" y="-182" font-family="Helvetica,sans-Serif" font-size="10.00" fill="#000000">MatrixElementCache</text>
<text text-anchor="middle" x="235.5" y="-171" font-family="Helvetica,sans-Serif" font-size="10.00" fill="#000000">::getMagneticDipole</text>
</a>
</g>
</g>
<!-- Node117&#45;&gt;Node120 -->
<g id="edge3" class="edge">
<title>Node117&#45;&gt;Node120</title>
<path fill="none" stroke="#191970" d="M104.3484,-142.2776C127.8346,-148.8537 156.9616,-157.0092 181.7966,-163.963"/>
<polygon fill="#191970" stroke="#191970" points="105.2306,-138.89 94.6572,-139.564 103.3431,-145.6308 105.2306,-138.89"/>
</g>
<!-- Node122 -->
<g id="node6" class="node">
<title>Node122</title>
<g id="a_node6"><a xlink:href="classMatrixElementCache.html#ad624534d20e42d8c4f495b51d6084057" target="_top" xlink:title="MatrixElementCache\l::getRadial">
<polygon fill="none" stroke="#000000" points="176.5,-115 176.5,-145 294.5,-145 294.5,-115 176.5,-115"/>
<text text-anchor="start" x="184.5" y="-133" font-family="Helvetica,sans-Serif" font-size="10.00" fill="#000000">MatrixElementCache</text>
<text text-anchor="middle" x="235.5" y="-122" font-family="Helvetica,sans-Serif" font-size="10.00" fill="#000000">::getRadial</text>
</a>
</g>
</g>
<!-- Node117&#45;&gt;Node122 -->
<g id="edge5" class="edge">
<title>Node117&#45;&gt;Node122</title>
<path fill="none" stroke="#191970" d="M131.4177,-130C146.341,-130 161.9323,-130 176.3683,-130"/>
<polygon fill="#191970" stroke="#191970" points="131.2154,-126.5001 121.2154,-130 131.2153,-133.5001 131.2154,-126.5001"/>
</g>
<!-- Node124 -->
<g id="node8" class="node">
<title>Node124</title>
<g id="a_node8"><a xlink:href="classStateOne.html#a0b5646c4160083ef4b24460e9159ad2c" target="_top" xlink:title="StateOne::getReflected">
<polygon fill="none" stroke="#000000" points="170.5,-76.5 170.5,-95.5 300.5,-95.5 300.5,-76.5 170.5,-76.5"/>
<text text-anchor="middle" x="235.5" y="-83.5" font-family="Helvetica,sans-Serif" font-size="10.00" fill="#000000">StateOne::getReflected</text>
</a>
</g>
</g>
<!-- Node117&#45;&gt;Node124 -->
<g id="edge7" class="edge">
<title>Node117&#45;&gt;Node124</title>
<path fill="none" stroke="#191970" d="M108.4729,-117.9383C136.5394,-110.8815 171.4755,-102.0976 197.6017,-95.5287"/>
<polygon fill="#191970" stroke="#191970" points="107.3171,-114.6198 98.4724,-120.4527 109.024,-121.4085 107.3171,-114.6198"/>
</g>
<!-- Node127 -->
<g id="node11" class="node">
<title>Node127</title>
<g id="a_node11"><a xlink:href="State_8cpp.html#ae62083584a93c249d0c3b4a6f046fee1" target="_top" xlink:title="operator\&lt;\&lt;">
<polygon fill="none" stroke="#000000" points="198.5,-38.5 198.5,-57.5 272.5,-57.5 272.5,-38.5 198.5,-38.5"/>
<text text-anchor="middle" x="235.5" y="-45.5" font-family="Helvetica,sans-Serif" font-size="10.00" fill="#000000">operator&lt;&lt;</text>
</a>
</g>
</g>
<!-- Node117&#45;&gt;Node127 -->
<g id="edge10" class="edge">
<title>Node117&#45;&gt;Node127</title>
<path fill="none" stroke="#191970" d="M80.2751,-114.1715C99.0133,-99.9062 128.461,-79.3336 157,-67 170.0001,-61.3818 184.9613,-57.2393 198.3125,-54.2825"/>
<polygon fill="#191970" stroke="#191970" points="77.9804,-111.522 72.2243,-120.4168 82.2709,-117.0529 77.9804,-111.522"/>
</g>
<!-- Node128 -->
<g id="node12" class="node">
<title>Node128</title>
<g id="a_node12"><a xlink:href="classStateOne.html#a5b05a258a43a682cfe7af5eb57d0221c" target="_top" xlink:title="Implementation of one&#45;atom state ///////////////////////////////. ">
<polygon fill="none" stroke="#000000" points="179,-.5 179,-19.5 292,-19.5 292,-.5 179,-.5"/>
<text text-anchor="middle" x="235.5" y="-7.5" font-family="Helvetica,sans-Serif" font-size="10.00" fill="#000000">StateOne::StateOne</text>
</a>
</g>
</g>
<!-- Node117&#45;&gt;Node128 -->
<g id="edge11" class="edge">
<title>Node117&#45;&gt;Node128</title>
<path fill="none" stroke="#191970" d="M72.5999,-112.0455C88.9892,-89.1684 120.4342,-50.0735 157,-29 163.6818,-25.1491 171.116,-22.0759 178.6707,-19.624"/>
<polygon fill="#191970" stroke="#191970" points="69.5609,-110.2845 66.7091,-120.4883 75.3016,-114.29 69.5609,-110.2845"/>
</g>
<!-- Node121 -->
<g id="node5" class="node">
<title>Node121</title>
<g id="a_node5"><a xlink:href="classSystemOne.html#abf6d26d44765fa787251956c128644a7" target="_top" xlink:title="Method that allows base class to calculate the interaction /////. ">
<polygon fill="none" stroke="#000000" points="350,-169.5 350,-188.5 523,-188.5 523,-169.5 350,-169.5"/>
<text text-anchor="middle" x="436.5" y="-176.5" font-family="Helvetica,sans-Serif" font-size="10.00" fill="#000000">SystemOne::initializeInteraction</text>
</a>
</g>
</g>
<!-- Node120&#45;&gt;Node121 -->
<g id="edge4" class="edge">
<title>Node120&#45;&gt;Node121</title>
<path fill="none" stroke="#191970" d="M305.0349,-179C319.4569,-179 334.8217,-179 349.7721,-179"/>
<polygon fill="#191970" stroke="#191970" points="304.7195,-175.5001 294.7195,-179 304.7195,-182.5001 304.7195,-175.5001"/>
</g>
<!-- Node123 -->
<g id="node7" class="node">
<title>Node123</title>
<g id="a_node7"><a xlink:href="classStateTwo.html#a10b237929cc9326382eef2b2d9db7eca" target="_top" xlink:title="StateTwo::getLeRoyRadius">
<polygon fill="none" stroke="#000000" points="363.5,-120.5 363.5,-139.5 509.5,-139.5 509.5,-120.5 363.5,-120.5"/>
<text text-anchor="middle" x="436.5" y="-127.5" font-family="Helvetica,sans-Serif" font-size="10.00" fill="#000000">StateTwo::getLeRoyRadius</text>
</a>
</g>
</g>
<!-- Node122&#45;&gt;Node123 -->
<g id="edge6" class="edge">
<title>Node122&#45;&gt;Node123</title>
<path fill="none" stroke="#191970" d="M304.7587,-130C323.7075,-130 344.3015,-130 363.4547,-130"/>
<polygon fill="#191970" stroke="#191970" points="304.7195,-126.5001 294.7195,-130 304.7195,-133.5001 304.7195,-126.5001"/>
</g>
<!-- Node125 -->
<g id="node9" class="node">
<title>Node125</title>
<g id="a_node9"><a xlink:href="classSystemOne.html#a4278feede19c90186f22f37c1d5d53b2" target="_top" xlink:title="Method that allows base class to combine systems ///////////////. ">
<polygon fill="none" stroke="#000000" points="369.5,-79.5 369.5,-98.5 503.5,-98.5 503.5,-79.5 369.5,-79.5"/>
<text text-anchor="middle" x="436.5" y="-86.5" font-family="Helvetica,sans-Serif" font-size="10.00" fill="#000000">SystemOne::incorporate</text>
</a>
</g>
</g>
<!-- Node124&#45;&gt;Node125 -->
<g id="edge8" class="edge">
<title>Node124&#45;&gt;Node125</title>
<path fill="none" stroke="#191970" d="M310.9257,-87.1258C330.0471,-87.4112 350.4621,-87.7159 369.1539,-87.9948"/>
<polygon fill="#191970" stroke="#191970" points="310.8101,-83.6237 300.7589,-86.974 310.7056,-90.623 310.8101,-83.6237"/>
</g>
<!-- Node126 -->
<g id="node10" class="node">
<title>Node126</title>
<g id="a_node10"><a xlink:href="classSystemTwo.html#a7aa70b668bd55e25ba9ed8f9d037052c" target="_top" xlink:title="Method that allows base class to initialize Basis //////////////. ">
<polygon fill="none" stroke="#000000" points="363.5,-41.5 363.5,-60.5 509.5,-60.5 509.5,-41.5 363.5,-41.5"/>
<text text-anchor="middle" x="436.5" y="-48.5" font-family="Helvetica,sans-Serif" font-size="10.00" fill="#000000">SystemTwo::initializeBasis</text>
</a>
</g>
</g>
<!-- Node124&#45;&gt;Node126 -->
<g id="edge9" class="edge">
<title>Node124&#45;&gt;Node126</title>
<path fill="none" stroke="#191970" d="M300.0603,-74.7582C326.4288,-70.1666 356.5988,-64.9131 381.8522,-60.5158"/>
<polygon fill="#191970" stroke="#191970" points="299.4099,-71.3186 290.1586,-76.4823 300.6108,-78.2149 299.4099,-71.3186"/>
</g>
</g>
</svg>
        <g id="navigator" transform="translate(0 0)" fill="#404254">
                <rect fill="#f2f5e9" fill-opacity="0.5" stroke="#606060" stroke-width=".5" x="0" y="0" width="60" height="60"/>
                <use id="zoomplus" xlink:href="#zoomPlus" x="17" y="9" onmousedown="handleZoom(evt,'in')"/>
                <use id="zoomminus" xlink:href="#zoomMin" x="42" y="9" onmousedown="handleZoom(evt,'out')"/>
                <use id="reset" xlink:href="#resetDef" x="30" y="36" onmousedown="handleReset()"/>
                <g id="arrowUp" xlink:href="#dirArrow" transform="translate(30 24)" onmousedown="handlePan(0,-1)">
                  <use xlink:href="#rim" fill="#404040">
                        <set attributeName="fill" to="#808080" begin="arrowUp.mouseover" end="arrowUp.mouseout"/>
                  </use>
                  <path fill="none" stroke="white" stroke-width="1.5" d="M0,-3.0v7 M-2.5,-0.5L0,-3.0L2.5,-0.5"/>
                </g>
                <g id="arrowRight" xlink:href="#dirArrow" transform="rotate(90) translate(36 -43)" onmousedown="handlePan(1,0)">
                  <use xlink:href="#rim" fill="#404040">
                        <set attributeName="fill" to="#808080" begin="arrowRight.mouseover" end="arrowRight.mouseout"/>
                  </use>
                  <path fill="none" stroke="white" stroke-width="1.5" d="M0,-3.0v7 M-2.5,-0.5L0,-3.0L2.5,-0.5"/>
                </g>
                <g id="arrowDown" xlink:href="#dirArrow" transform="rotate(180) translate(-30 -48)" onmousedown="handlePan(0,1)">
                  <use xlink:href="#rim" fill="#404040">
                        <set attributeName="fill" to="#808080" begin="arrowDown.mouseover" end="arrowDown.mouseout"/>
                  </use>
                  <path fill="none" stroke="white" stroke-width="1.5" d="M0,-3.0v7 M-2.5,-0.5L0,-3.0L2.5,-0.5"/>
                </g>
                <g id="arrowLeft" xlink:href="#dirArrow" transform="rotate(270) translate(-36 17)" onmousedown="handlePan(-1,0)">
                  <use xlink:href="#rim" fill="#404040">
                        <set attributeName="fill" to="#808080" begin="arrowLeft.mouseover" end="arrowLeft.mouseout"/>
                  </use>
                  <path fill="none" stroke="white" stroke-width="1.5" d="M0,-3.0v7 M-2.5,-0.5L0,-3.0L2.5,-0.5"/>
                </g>
        </g>
        <svg viewBox="0 0 15 15" width="100%" height="30px" preserveAspectRatio="xMaxYMin meet">
         <g id="arrow_out" transform="scale(0.3 0.3)">
          <a xlink:href="classStateOne_a45b245f5da0068df4ff72093c654da89_icgraph_org.svg" target="_base">
           <rect id="button" ry="5" rx="5" y="6" x="6" height="38" width="38"
                fill="#f2f5e9" fill-opacity="0.5" stroke="#606060" stroke-width="1.0"/>
           <path id="arrow"
             d="M 11.500037,31.436501 C 11.940474,20.09759 22.043105,11.32322 32.158766,21.979434 L 37.068811,17.246167 C 37.068811,17.246167 37.088388,32 37.088388,32 L 22.160133,31.978069 C 22.160133,31.978069 26.997745,27.140456 26.997745,27.140456 C 18.528582,18.264221 13.291696,25.230495 11.500037,31.436501 z"
             style="fill:#404040;"/>
          </a>
         </g>
        </svg>
</svg>
