<?xml version="1.0" encoding="UTF-8" standalone="no"?>
<!DOCTYPE svg PUBLIC "-//W3C//DTD SVG 1.1//EN"
 "http://www.w3.org/Graphics/SVG/1.1/DTD/svg11.dtd">
<!-- Generated by graphviz version 2.40.1 (20161225.0304)
 -->
<!-- Title: StateOne::getReflected Pages: 1 -->
<svg width="295pt" height="218pt"
 viewBox="0.00 0.00 295.00 218.00" xmlns="http://www.w3.org/2000/svg" xmlns:xlink="http://www.w3.org/1999/xlink">
<g id="graph0" class="graph" transform="scale(1 1) rotate(0) translate(4 214)">
<title>StateOne::getReflected</title>
<!-- Node101 -->
<g id="node1" class="node">
<title>Node101</title>
<polygon fill="#bfbfbf" stroke="#000000" points="0,-95.5 0,-114.5 130,-114.5 130,-95.5 0,-95.5"/>
<text text-anchor="middle" x="65" y="-102.5" font-family="Helvetica,sans-Serif" font-size="10.00" fill="#000000">StateOne::getReflected</text>
</g>
<!-- Node102 -->
<g id="node2" class="node">
<title>Node102</title>
<g id="a_node2"><a xlink:href="classStateOne.html#aedba5bfce70f73fa324b9d5ae1115578" target="_top" xlink:title="StateOne::getJ">
<polygon fill="none" stroke="#000000" points="183.5,-190.5 183.5,-209.5 269.5,-209.5 269.5,-190.5 183.5,-190.5"/>
<text text-anchor="middle" x="226.5" y="-197.5" font-family="Helvetica,sans-Serif" font-size="10.00" fill="#000000">StateOne::getJ</text>
</a>
</g>
</g>
<!-- Node101&#45;&gt;Node102 -->
<g id="edge1" class="edge">
<title>Node101&#45;&gt;Node102</title>
<path fill="none" stroke="#191970" d="M75.3819,-114.755C92.8292,-130.6777 129.6962,-162.3442 166,-181 170.3024,-183.2109 174.9101,-185.2226 179.5915,-187.0383"/>
<polygon fill="#191970" stroke="#191970" points="178.6357,-190.4136 189.2303,-190.491 180.9964,-183.8237 178.6357,-190.4136"/>
</g>
<!-- Node103 -->
<g id="node3" class="node">
<title>Node103</title>
<g id="a_node3"><a xlink:href="classStateOne.html#a3783cebe5bbd63f072caf8450fea4aca" target="_top" xlink:title="StateOne::getL">
<polygon fill="none" stroke="#000000" points="182,-152.5 182,-171.5 271,-171.5 271,-152.5 182,-152.5"/>
<text text-anchor="middle" x="226.5" y="-159.5" font-family="Helvetica,sans-Serif" font-size="10.00" fill="#000000">StateOne::getL</text>
</a>
</g>
</g>
<!-- Node101&#45;&gt;Node103 -->
<g id="edge2" class="edge">
<title>Node101&#45;&gt;Node103</title>
<path fill="none" stroke="#191970" d="M89.3531,-114.5967C109.7251,-122.5198 139.6103,-133.8996 166,-143 172.1471,-145.1198 178.6781,-147.2728 185.0886,-149.3309"/>
<polygon fill="#191970" stroke="#191970" points="184.4006,-152.7843 194.9907,-152.4684 186.515,-146.1113 184.4006,-152.7843"/>
</g>
<!-- Node104 -->
<g id="node4" class="node">
<title>Node104</title>
<g id="a_node4"><a xlink:href="classStateOne.html#aab2b41262381d67893113ed6f5ad18bc" target="_top" xlink:title="StateOne::getM">
<polygon fill="none" stroke="#000000" points="180.5,-114.5 180.5,-133.5 272.5,-133.5 272.5,-114.5 180.5,-114.5"/>
<text text-anchor="middle" x="226.5" y="-121.5" font-family="Helvetica,sans-Serif" font-size="10.00" fill="#000000">StateOne::getM</text>
</a>
</g>
</g>
<!-- Node101&#45;&gt;Node104 -->
<g id="edge3" class="edge">
<title>Node101&#45;&gt;Node104</title>
<path fill="none" stroke="#191970" d="M130.2227,-112.6733C143.4855,-114.2336 157.3291,-115.8622 170.2485,-117.3822"/>
<polygon fill="#191970" stroke="#191970" points="170.0422,-120.882 180.3827,-118.5744 170.8602,-113.9299 170.0422,-120.882"/>
</g>
<!-- Node105 -->
<g id="node5" class="node">
<title>Node105</title>
<g id="a_node5"><a xlink:href="classStateOne.html#a7deae740570ef5262e7fd2d254a8c530" target="_top" xlink:title="StateOne::getN">
<polygon fill="none" stroke="#000000" points="181,-76.5 181,-95.5 272,-95.5 272,-76.5 181,-76.5"/>
<text text-anchor="middle" x="226.5" y="-83.5" font-family="Helvetica,sans-Serif" font-size="10.00" fill="#000000">StateOne::getN</text>
</a>
</g>
</g>
<!-- Node101&#45;&gt;Node105 -->
<g id="edge4" class="edge">
<title>Node101&#45;&gt;Node105</title>
<path fill="none" stroke="#191970" d="M130.2227,-97.3267C143.6237,-95.7502 157.6176,-94.1038 170.6519,-92.5704"/>
<polygon fill="#191970" stroke="#191970" points="171.3473,-96.0128 180.8698,-91.3683 170.5294,-89.0607 171.3473,-96.0128"/>
</g>
<!-- Node106 -->
<g id="node6" class="node">
<title>Node106</title>
<g id="a_node6"><a xlink:href="classStateOne.html#a45b245f5da0068df4ff72093c654da89" target="_top" xlink:title="StateOne::getSpecies">
<polygon fill="none" stroke="#000000" points="166,-38.5 166,-57.5 287,-57.5 287,-38.5 166,-38.5"/>
<text text-anchor="middle" x="226.5" y="-45.5" font-family="Helvetica,sans-Serif" font-size="10.00" fill="#000000">StateOne::getSpecies</text>
</a>
</g>
</g>
<!-- Node101&#45;&gt;Node106 -->
<g id="edge5" class="edge">
<title>Node101&#45;&gt;Node106</title>
<path fill="none" stroke="#191970" d="M89.3531,-95.4033C109.7251,-87.4802 139.6103,-76.1004 166,-67 172.1471,-64.8802 178.6781,-62.7272 185.0886,-60.6691"/>
<polygon fill="#191970" stroke="#191970" points="186.515,-63.8887 194.9907,-57.5316 184.4006,-57.2157 186.515,-63.8887"/>
</g>
<!-- Node107 -->
<g id="node7" class="node">
<title>Node107</title>
<g id="a_node7"><a xlink:href="classStateOne.html#a7eafbf38814e11dc5875e8a0bc99051c" target="_top" xlink:title="StateOne::StateOne">
<polygon fill="none" stroke="#000000" points="170,-.5 170,-19.5 283,-19.5 283,-.5 170,-.5"/>
<text text-anchor="middle" x="226.5" y="-7.5" font-family="Helvetica,sans-Serif" font-size="10.00" fill="#000000">StateOne::StateOne</text>
</a>
</g>
</g>
<!-- Node101&#45;&gt;Node107 -->
<g id="edge6" class="edge">
<title>Node101&#45;&gt;Node107</title>
<path fill="none" stroke="#191970" d="M75.3819,-95.245C92.8292,-79.3223 129.6962,-47.6558 166,-29 170.3024,-26.7891 174.9101,-24.7774 179.5915,-22.9617"/>
<polygon fill="#191970" stroke="#191970" points="180.9964,-26.1763 189.2303,-19.509 178.6357,-19.5864 180.9964,-26.1763"/>
</g>
</g>
</svg>
