<?xml version="1.0" encoding="UTF-8" standalone="no"?>
<!DOCTYPE svg PUBLIC "-//W3C//DTD SVG 1.1//EN"
 "http://www.w3.org/Graphics/SVG/1.1/DTD/svg11.dtd">
<!-- Generated by graphviz version 2.40.1 (20161225.0304)
 -->
<!-- Title: Cache::restore Pages: 1 -->
<svg width="308pt" height="66pt"
 viewBox="0.00 0.00 308.00 66.00" xmlns="http://www.w3.org/2000/svg" xmlns:xlink="http://www.w3.org/1999/xlink">
<g id="graph0" class="graph" transform="scale(1 1) rotate(0) translate(4 62)">
<title>Cache::restore</title>
<!-- Node4 -->
<g id="node1" class="node">
<title>Node4</title>
<polygon fill="#bfbfbf" stroke="#000000" points="0,-19.5 0,-38.5 87,-38.5 87,-19.5 0,-19.5"/>
<text text-anchor="middle" x="43.5" y="-26.5" font-family="Helvetica,sans-Serif" font-size="10.00" fill="#000000">Cache::restore</text>
</g>
<!-- Node5 -->
<g id="node2" class="node">
<title>Node5</title>
<g id="a_node2"><a xlink:href="cache__test_8cpp.html#aa758662a0bdebc23061eb4fbfd13b887" target="_top" xlink:title="BOOST_AUTO_TEST_CASE">
<polygon fill="none" stroke="#000000" points="140,-38.5 140,-57.5 283,-57.5 283,-38.5 140,-38.5"/>
<text text-anchor="middle" x="211.5" y="-45.5" font-family="Helvetica,sans-Serif" font-size="10.00" fill="#000000">BOOST_AUTO_TEST_CASE</text>
</a>
</g>
</g>
<!-- Node4&#45;&gt;Node5 -->
<g id="edge1" class="edge">
<title>Node4&#45;&gt;Node5</title>
<path fill="none" stroke="#191970" d="M97.2671,-35.0808C110.7729,-36.6082 125.482,-38.2718 139.7132,-39.8813"/>
<polygon fill="#191970" stroke="#191970" points="97.5315,-31.5885 87.2015,-33.9424 96.7448,-38.5441 97.5315,-31.5885"/>
</g>
<!-- Node6 -->
<g id="node3" class="node">
<title>Node6</title>
<g id="a_node3"><a xlink:href="classQuantumDefect.html#ae35ddcbfdf6d217950469549c60743d2" target="_top" xlink:title="QuantumDefect::QuantumDefect">
<polygon fill="none" stroke="#000000" points="123,-.5 123,-19.5 300,-19.5 300,-.5 123,-.5"/>
<text text-anchor="middle" x="211.5" y="-7.5" font-family="Helvetica,sans-Serif" font-size="10.00" fill="#000000">QuantumDefect::QuantumDefect</text>
</a>
</g>
</g>
<!-- Node4&#45;&gt;Node6 -->
<g id="edge2" class="edge">
<title>Node4&#45;&gt;Node6</title>
<path fill="none" stroke="#191970" d="M97.3345,-22.9116C106.9174,-21.8278 117.1043,-20.6757 127.2952,-19.5232"/>
<polygon fill="#191970" stroke="#191970" points="96.7448,-19.4559 87.2015,-24.0576 97.5315,-26.4115 96.7448,-19.4559"/>
</g>
</g>
</svg>
