<?xml version="1.0" encoding="UTF-8" standalone="no"?>
<!DOCTYPE svg PUBLIC "-//W3C//DTD SVG 1.1//EN"
 "http://www.w3.org/Graphics/SVG/1.1/DTD/svg11.dtd">
<!-- Generated by graphviz version 2.40.1 (20161225.0304)
 -->
<!-- Title: sqlite::statement::set Pages: 1 -->
<svg width="342pt" height="116pt"
 viewBox="0.00 0.00 342.00 116.00" xmlns="http://www.w3.org/2000/svg" xmlns:xlink="http://www.w3.org/1999/xlink">
<g id="graph0" class="graph" transform="scale(1 1) rotate(0) translate(4 112)">
<title>sqlite::statement::set</title>
<!-- Node46 -->
<g id="node1" class="node">
<title>Node46</title>
<polygon fill="#bfbfbf" stroke="#000000" points="0,-44.5 0,-63.5 121,-63.5 121,-44.5 0,-44.5"/>
<text text-anchor="middle" x="60.5" y="-51.5" font-family="Helvetica,sans-Serif" font-size="10.00" fill="#000000">sqlite::statement::set</text>
</g>
<!-- Node47 -->
<g id="node2" class="node">
<title>Node47</title>
<g id="a_node2"><a xlink:href="quantum__defect__test_8cpp.html#aa6d045e9def139cd75c41b225e83676e" target="_top" xlink:title="BOOST_AUTO_TEST_CASE">
<polygon fill="none" stroke="#000000" points="174,-88.5 174,-107.5 317,-107.5 317,-88.5 174,-88.5"/>
<text text-anchor="middle" x="245.5" y="-95.5" font-family="Helvetica,sans-Serif" font-size="10.00" fill="#000000">BOOST_AUTO_TEST_CASE</text>
</a>
</g>
</g>
<!-- Node46&#45;&gt;Node47 -->
<g id="edge1" class="edge">
<title>Node46&#45;&gt;Node47</title>
<path fill="none" stroke="#191970" d="M105.8721,-66.1735C121.9804,-70.3842 140.2643,-75.0375 157,-79 170.6098,-82.2224 185.4531,-85.5006 199.0272,-88.4064"/>
<polygon fill="#191970" stroke="#191970" points="106.7182,-62.7771 96.1569,-63.6191 104.9381,-69.547 106.7182,-62.7771"/>
</g>
<!-- Node48 -->
<g id="node3" class="node">
<title>Node48</title>
<g id="a_node3"><a xlink:href="classMatrixElements.html#a3b28f19f9e89e549def8c8030b695489" target="_top" xlink:title="MatrixElements::precalculate\lDiamagnetism">
<polygon fill="none" stroke="#000000" points="166,-39 166,-69 325,-69 325,-39 166,-39"/>
<text text-anchor="start" x="174" y="-57" font-family="Helvetica,sans-Serif" font-size="10.00" fill="#000000">MatrixElements::precalculate</text>
<text text-anchor="middle" x="245.5" y="-46" font-family="Helvetica,sans-Serif" font-size="10.00" fill="#000000">Diamagnetism</text>
</a>
</g>
</g>
<!-- Node46&#45;&gt;Node48 -->
<g id="edge2" class="edge">
<title>Node46&#45;&gt;Node48</title>
<path fill="none" stroke="#191970" d="M131.3238,-54C142.646,-54 154.4273,-54 165.9361,-54"/>
<polygon fill="#191970" stroke="#191970" points="131.076,-50.5001 121.0759,-54 131.0759,-57.5001 131.076,-50.5001"/>
</g>
<!-- Node49 -->
<g id="node4" class="node">
<title>Node49</title>
<g id="a_node4"><a xlink:href="classQuantumDefect.html#ae35ddcbfdf6d217950469549c60743d2" target="_top" xlink:title="QuantumDefect::QuantumDefect">
<polygon fill="none" stroke="#000000" points="157,-.5 157,-19.5 334,-19.5 334,-.5 157,-.5"/>
<text text-anchor="middle" x="245.5" y="-7.5" font-family="Helvetica,sans-Serif" font-size="10.00" fill="#000000">QuantumDefect::QuantumDefect</text>
</a>
</g>
</g>
<!-- Node46&#45;&gt;Node49 -->
<g id="edge3" class="edge">
<title>Node46&#45;&gt;Node49</title>
<path fill="none" stroke="#191970" d="M107.9843,-41.9749C123.5822,-38.0825 141.0163,-33.7932 157,-30 171.7133,-26.5083 187.8369,-22.8228 202.2441,-19.58"/>
<polygon fill="#191970" stroke="#191970" points="106.8837,-38.6423 98.0331,-44.4663 108.5838,-45.4328 106.8837,-38.6423"/>
</g>
</g>
</svg>
