<?xml version="1.0" encoding="UTF-8" standalone="no"?>
<!DOCTYPE svg PUBLIC "-//W3C//DTD SVG 1.1//EN"
 "http://www.w3.org/Graphics/SVG/1.1/DTD/svg11.dtd">
<!-- Generated by graphviz version 2.40.1 (20161225.0304)
 -->
<!-- Title: sqlite::statement::step Pages: 1 -->
<svg width="348pt" height="203pt"
 viewBox="0.00 0.00 348.00 203.00" xmlns="http://www.w3.org/2000/svg" xmlns:xlink="http://www.w3.org/1999/xlink">
<g id="graph0" class="graph" transform="scale(1 1) rotate(0) translate(4 199)">
<title>sqlite::statement::step</title>
<!-- Node53 -->
<g id="node1" class="node">
<title>Node53</title>
<polygon fill="#bfbfbf" stroke="#000000" points="0,-93.5 0,-112.5 127,-112.5 127,-93.5 0,-93.5"/>
<text text-anchor="middle" x="63.5" y="-100.5" font-family="Helvetica,sans-Serif" font-size="10.00" fill="#000000">sqlite::statement::step</text>
</g>
<!-- Node54 -->
<g id="node2" class="node">
<title>Node54</title>
<g id="a_node2"><a xlink:href="quantum__defect__test_8cpp.html#aa6d045e9def139cd75c41b225e83676e" target="_top" xlink:title="BOOST_AUTO_TEST_CASE">
<polygon fill="none" stroke="#000000" points="180,-175.5 180,-194.5 323,-194.5 323,-175.5 180,-175.5"/>
<text text-anchor="middle" x="251.5" y="-182.5" font-family="Helvetica,sans-Serif" font-size="10.00" fill="#000000">BOOST_AUTO_TEST_CASE</text>
</a>
</g>
</g>
<!-- Node53&#45;&gt;Node54 -->
<g id="edge1" class="edge">
<title>Node53&#45;&gt;Node54</title>
<path fill="none" stroke="#191970" d="M83.6359,-118.7795C102.9488,-133.154 133.4573,-153.9265 163,-166 172.3099,-169.8048 182.4962,-172.8946 192.5387,-175.3893"/>
<polygon fill="#191970" stroke="#191970" points="85.6764,-115.9343 75.5938,-112.6795 81.446,-121.5115 85.6764,-115.9343"/>
</g>
<!-- Node55 -->
<g id="node3" class="node">
<title>Node55</title>
<g id="a_node3"><a xlink:href="classMatrixElements.html#a0bd2d4229fab692eb6b774fbff09cf83" target="_top" xlink:title="MatrixElements::getRadial">
<polygon fill="none" stroke="#000000" points="178.5,-137.5 178.5,-156.5 324.5,-156.5 324.5,-137.5 178.5,-137.5"/>
<text text-anchor="middle" x="251.5" y="-144.5" font-family="Helvetica,sans-Serif" font-size="10.00" fill="#000000">MatrixElements::getRadial</text>
</a>
</g>
</g>
<!-- Node53&#45;&gt;Node55 -->
<g id="edge2" class="edge">
<title>Node53&#45;&gt;Node55</title>
<path fill="none" stroke="#191970" d="M110.3022,-115.1147C126.913,-119.3201 145.7615,-123.9852 163,-128 176.7746,-131.2081 191.8022,-134.5088 205.4992,-137.4405"/>
<polygon fill="#191970" stroke="#191970" points="110.8375,-111.6395 100.2832,-112.5656 109.1114,-118.4233 110.8375,-111.6395"/>
</g>
<!-- Node56 -->
<g id="node4" class="node">
<title>Node56</title>
<g id="a_node4"><a xlink:href="classsqlite_1_1statement_1_1iterator.html#abe9e2121ba042bb0b0b22bafb7098ac5" target="_top" xlink:title="sqlite::statement::\literator::iterator">
<polygon fill="none" stroke="#000000" points="198.5,-88 198.5,-118 304.5,-118 304.5,-88 198.5,-88"/>
<text text-anchor="start" x="206.5" y="-106" font-family="Helvetica,sans-Serif" font-size="10.00" fill="#000000">sqlite::statement::</text>
<text text-anchor="middle" x="251.5" y="-95" font-family="Helvetica,sans-Serif" font-size="10.00" fill="#000000">iterator::iterator</text>
</a>
</g>
</g>
<!-- Node53&#45;&gt;Node56 -->
<g id="edge3" class="edge">
<title>Node53&#45;&gt;Node56</title>
<path fill="none" stroke="#191970" d="M137.3234,-103C157.6607,-103 179.3205,-103 198.2473,-103"/>
<polygon fill="#191970" stroke="#191970" points="137.1483,-99.5001 127.1482,-103 137.1482,-106.5001 137.1483,-99.5001"/>
</g>
<!-- Node57 -->
<g id="node5" class="node">
<title>Node57</title>
<g id="a_node5"><a xlink:href="classMatrixElements.html#a3b28f19f9e89e549def8c8030b695489" target="_top" xlink:title="MatrixElements::precalculate\lDiamagnetism">
<polygon fill="none" stroke="#000000" points="172,-39 172,-69 331,-69 331,-39 172,-39"/>
<text text-anchor="start" x="180" y="-57" font-family="Helvetica,sans-Serif" font-size="10.00" fill="#000000">MatrixElements::precalculate</text>
<text text-anchor="middle" x="251.5" y="-46" font-family="Helvetica,sans-Serif" font-size="10.00" fill="#000000">Diamagnetism</text>
</a>
</g>
</g>
<!-- Node53&#45;&gt;Node57 -->
<g id="edge4" class="edge">
<title>Node53&#45;&gt;Node57</title>
<path fill="none" stroke="#191970" d="M109.9313,-90.8982C135.2775,-84.292 166.8891,-76.0529 193.8072,-69.037"/>
<polygon fill="#191970" stroke="#191970" points="108.9885,-87.5269 100.1946,-93.436 110.7541,-94.3006 108.9885,-87.5269"/>
</g>
<!-- Node58 -->
<g id="node6" class="node">
<title>Node58</title>
<g id="a_node6"><a xlink:href="classQuantumDefect.html#ae35ddcbfdf6d217950469549c60743d2" target="_top" xlink:title="QuantumDefect::QuantumDefect">
<polygon fill="none" stroke="#000000" points="163,-.5 163,-19.5 340,-19.5 340,-.5 163,-.5"/>
<text text-anchor="middle" x="251.5" y="-7.5" font-family="Helvetica,sans-Serif" font-size="10.00" fill="#000000">QuantumDefect::QuantumDefect</text>
</a>
</g>
</g>
<!-- Node53&#45;&gt;Node58 -->
<g id="edge5" class="edge">
<title>Node53&#45;&gt;Node58</title>
<path fill="none" stroke="#191970" d="M81.1111,-86.53C99.9522,-69.8105 131.4124,-44.3955 163,-30 172.4602,-25.6887 182.9249,-22.271 193.2473,-19.5728"/>
<polygon fill="#191970" stroke="#191970" points="78.679,-84.0106 73.6161,-93.3175 83.3778,-89.1992 78.679,-84.0106"/>
</g>
</g>
</svg>
