<?xml version="1.0" encoding="UTF-8" standalone="no"?>
<!DOCTYPE svg PUBLIC "-//W3C//DTD SVG 1.1//EN"
 "http://www.w3.org/Graphics/SVG/1.1/DTD/svg11.dtd">
<!-- Generated by graphviz version 2.40.1 (20161225.0304)
 -->
<!-- Title: StateTwo::getL Pages: 1 -->
<svg width="261pt" height="78pt"
 viewBox="0.00 0.00 261.00 77.50" xmlns="http://www.w3.org/2000/svg" xmlns:xlink="http://www.w3.org/1999/xlink">
<g id="graph0" class="graph" transform="scale(1 1) rotate(0) translate(4 73.5)">
<title>StateTwo::getL</title>
<!-- Node40 -->
<g id="node1" class="node">
<title>Node40</title>
<polygon fill="#bfbfbf" stroke="#000000" points="0,-22.5 0,-41.5 88,-41.5 88,-22.5 0,-22.5"/>
<text text-anchor="middle" x="44" y="-29.5" font-family="Helvetica,sans-Serif" font-size="10.00" fill="#000000">StateTwo::getL</text>
</g>
<!-- Node41 -->
<g id="node2" class="node">
<title>Node41</title>
<g id="a_node2"><a xlink:href="classPerturbativeInteraction.html#aef0f5d43fdcf0377dc53e31730c99cb9" target="_top" xlink:title="PerturbativeInteraction\l::getC6">
<polygon fill="none" stroke="#000000" points="124,-39 124,-69 253,-69 253,-39 124,-39"/>
<text text-anchor="start" x="132" y="-57" font-family="Helvetica,sans-Serif" font-size="10.00" fill="#000000">PerturbativeInteraction</text>
<text text-anchor="middle" x="188.5" y="-46" font-family="Helvetica,sans-Serif" font-size="10.00" fill="#000000">::getC6</text>
</a>
</g>
</g>
<!-- Node40&#45;&gt;Node41 -->
<g id="edge1" class="edge">
<title>Node40&#45;&gt;Node41</title>
<path fill="none" stroke="#191970" d="M98.1672,-40.2469C106.5562,-41.5241 115.2928,-42.8543 123.8839,-44.1623"/>
<polygon fill="#191970" stroke="#191970" points="98.5528,-36.7654 88.1399,-38.7203 97.4992,-43.6856 98.5528,-36.7654"/>
</g>
<!-- Node42 -->
<g id="node3" class="node">
<title>Node42</title>
<g id="a_node3"><a xlink:href="classStateTwo.html#a8144dc47a35a397f9b040a5de5d8673e" target="_top" xlink:title="StateTwo::getReflected">
<polygon fill="none" stroke="#000000" points="124,-.5 124,-19.5 253,-19.5 253,-.5 124,-.5"/>
<text text-anchor="middle" x="188.5" y="-7.5" font-family="Helvetica,sans-Serif" font-size="10.00" fill="#000000">StateTwo::getReflected</text>
</a>
</g>
</g>
<!-- Node40&#45;&gt;Node42 -->
<g id="edge2" class="edge">
<title>Node40&#45;&gt;Node42</title>
<path fill="none" stroke="#191970" d="M98.1834,-23.7506C107.2617,-22.3685 116.7465,-20.9244 126.0131,-19.5136"/>
<polygon fill="#191970" stroke="#191970" points="97.4992,-20.3144 88.1399,-25.2797 98.5528,-27.2346 97.4992,-20.3144"/>
</g>
</g>
</svg>
