<?xml version="1.0" encoding="UTF-8" standalone="no"?>
<!DOCTYPE svg PUBLIC "-//W3C//DTD SVG 1.1//EN"
 "http://www.w3.org/Graphics/SVG/1.1/DTD/svg11.dtd">
<!-- Generated by graphviz version 2.40.1 (20161225.0304)
 -->
<!-- Title: Basisnames&lt; T &gt; Pages: 1 -->
<svg width="296pt" height="128pt"
 viewBox="0.00 0.00 296.00 128.00" xmlns="http://www.w3.org/2000/svg" xmlns:xlink="http://www.w3.org/1999/xlink">
<g id="graph0" class="graph" transform="scale(1 1) rotate(0) translate(4 124)">
<title>Basisnames&lt; T &gt;</title>
<!-- Node1 -->
<g id="node1" class="node">
<title>Node1</title>
<polygon fill="#bfbfbf" stroke="#000000" points="60.5,-.5 60.5,-19.5 164.5,-19.5 164.5,-.5 60.5,-.5"/>
<text text-anchor="middle" x="112.5" y="-7.5" font-family="Helvetica,sans-Serif" font-size="10.00" fill="#000000">Basisnames&lt; T &gt;</text>
</g>
<!-- Node2 -->
<g id="node2" class="node">
<title>Node2</title>
<g id="a_node2"><a xlink:href="classsize__t.html" target="_top" xlink:title="size_t">
<polygon fill="none" stroke="#000000" points="0,-100.5 0,-119.5 45,-119.5 45,-100.5 0,-100.5"/>
<text text-anchor="middle" x="22.5" y="-107.5" font-family="Helvetica,sans-Serif" font-size="10.00" fill="#000000">size_t</text>
</a>
</g>
</g>
<!-- Node2&#45;&gt;Node1 -->
<g id="edge1" class="edge">
<title>Node2&#45;&gt;Node1</title>
<path fill="none" stroke="#9a32cd" stroke-dasharray="5,2" d="M23.9881,-90.0277C26.1566,-74.154 31.4742,-52.3125 44.5,-38 52.0622,-29.6908 62.4605,-23.7856 72.8516,-19.6135"/>
<polygon fill="#9a32cd" stroke="#9a32cd" points="20.4689,-90.0265 22.9005,-100.3385 27.4303,-90.7608 20.4689,-90.0265"/>
<text text-anchor="middle" x="58.5" y="-57.5" font-family="Helvetica,sans-Serif" font-size="10.00" fill="#000000"> dim_</text>
</g>
<!-- Node3 -->
<g id="node3" class="node">
<title>Node3</title>
<g id="a_node3"><a xlink:href="classint.html" target="_top" xlink:title="int">
<polygon fill="none" stroke="#000000" points="63,-100.5 63,-119.5 92,-119.5 92,-100.5 63,-100.5"/>
<text text-anchor="middle" x="77.5" y="-107.5" font-family="Helvetica,sans-Serif" font-size="10.00" fill="#000000">int</text>
</a>
</g>
</g>
<!-- Node3&#45;&gt;Node1 -->
<g id="edge2" class="edge">
<title>Node3&#45;&gt;Node1</title>
<path fill="none" stroke="#9a32cd" stroke-dasharray="5,2" d="M76.7604,-89.9792C76.9587,-75.0046 78.8631,-54.376 86.5,-38 89.7523,-31.026 95.3956,-24.6232 100.5953,-19.7058"/>
<polygon fill="#9a32cd" stroke="#9a32cd" points="73.2626,-90.2042 76.8747,-100.1642 80.2622,-90.1256 73.2626,-90.2042"/>
<text text-anchor="middle" x="106.5" y="-74" font-family="Helvetica,sans-Serif" font-size="10.00" fill="#000000"> delta_j</text>
<text text-anchor="middle" x="106.5" y="-63" font-family="Helvetica,sans-Serif" font-size="10.00" fill="#000000">delta_l</text>
<text text-anchor="middle" x="106.5" y="-52" font-family="Helvetica,sans-Serif" font-size="10.00" fill="#000000">delta_m</text>
<text text-anchor="middle" x="106.5" y="-41" font-family="Helvetica,sans-Serif" font-size="10.00" fill="#000000">delta_n</text>
</g>
<!-- Node4 -->
<g id="node4" class="node">
<title>Node4</title>
<polygon fill="none" stroke="#bfbfbf" points="110.5,-100.5 110.5,-119.5 186.5,-119.5 186.5,-100.5 110.5,-100.5"/>
<text text-anchor="middle" x="148.5" y="-107.5" font-family="Helvetica,sans-Serif" font-size="10.00" fill="#000000">vector&lt; T &gt;</text>
</g>
<!-- Node4&#45;&gt;Node1 -->
<g id="edge3" class="edge">
<title>Node4&#45;&gt;Node1</title>
<path fill="none" stroke="#9a32cd" stroke-dasharray="5,2" d="M143.3809,-90.0879C139.3885,-75.4586 133.3784,-55.2165 126.5,-38 123.9997,-31.7417 120.6369,-24.9768 117.8337,-19.6644"/>
<polygon fill="#9a32cd" stroke="#9a32cd" points="140.0734,-91.2703 146.0215,-100.0379 146.8392,-89.4747 140.0734,-91.2703"/>
<text text-anchor="middle" x="161.5" y="-57.5" font-family="Helvetica,sans-Serif" font-size="10.00" fill="#000000"> names_</text>
</g>
<!-- Node5 -->
<g id="node5" class="node">
<title>Node5</title>
<g id="a_node5"><a xlink:href="classConfiguration.html" target="_top" xlink:title="Configuration storage ">
<polygon fill="none" stroke="#000000" points="205,-100.5 205,-119.5 288,-119.5 288,-100.5 205,-100.5"/>
<text text-anchor="middle" x="246.5" y="-107.5" font-family="Helvetica,sans-Serif" font-size="10.00" fill="#000000">Configuration</text>
</a>
</g>
</g>
<!-- Node5&#45;&gt;Node1 -->
<g id="edge4" class="edge">
<title>Node5&#45;&gt;Node1</title>
<path fill="none" stroke="#9a32cd" stroke-dasharray="5,2" d="M235.1961,-91.6824C224.4342,-75.5831 206.8853,-52.5192 186.5,-38 175.1997,-29.9515 161.2976,-23.8954 148.6056,-19.5124"/>
<polygon fill="#9a32cd" stroke="#9a32cd" points="232.3551,-93.735 240.7183,-100.2394 238.2367,-89.9393 232.3551,-93.735"/>
<text text-anchor="middle" x="240" y="-57.5" font-family="Helvetica,sans-Serif" font-size="10.00" fill="#000000"> conf</text>
</g>
</g>
</svg>
