<?xml version="1.0" encoding="UTF-8" standalone="no"?>
<!DOCTYPE svg PUBLIC "-//W3C//DTD SVG 1.1//EN"
 "http://www.w3.org/Graphics/SVG/1.1/DTD/svg11.dtd">
<!-- Generated by graphviz version 2.40.1 (20161225.0304)
 -->
<!-- Title: StateTwoOld::second Pages: 1 -->
<svg width="696pt" height="256pt"
 viewBox="0.00 0.00 696.00 256.00" xmlns="http://www.w3.org/2000/svg" xmlns:xlink="http://www.w3.org/1999/xlink">
<g id="graph0" class="graph" transform="scale(1 1) rotate(0) translate(4 252)">
<title>StateTwoOld::second</title>
<!-- Node74 -->
<g id="node1" class="node">
<title>Node74</title>
<polygon fill="#bfbfbf" stroke="#000000" points="0,-114.5 0,-133.5 118,-133.5 118,-114.5 0,-114.5"/>
<text text-anchor="middle" x="59" y="-121.5" font-family="Helvetica,sans-Serif" font-size="10.00" fill="#000000">StateTwoOld::second</text>
</g>
<!-- Node75 -->
<g id="node2" class="node">
<title>Node75</title>
<g id="a_node2"><a xlink:href="classHamiltonianTwo.html#a6ca0a318f25170b69e571a07064a5afb" target="_top" xlink:title="HamiltonianTwo::calculate">
<polygon fill="none" stroke="#000000" points="154,-228.5 154,-247.5 300,-247.5 300,-228.5 154,-228.5"/>
<text text-anchor="middle" x="227" y="-235.5" font-family="Helvetica,sans-Serif" font-size="10.00" fill="#000000">HamiltonianTwo::calculate</text>
</a>
</g>
</g>
<!-- Node74&#45;&gt;Node75 -->
<g id="edge1" class="edge">
<title>Node74&#45;&gt;Node75</title>
<path fill="none" stroke="#191970" d="M73.0724,-141.346C90.2338,-161.4534 121.053,-194.3398 154,-214 164.1961,-220.0843 176.1259,-224.8388 187.3515,-228.4529"/>
<polygon fill="#191970" stroke="#191970" points="75.6858,-139.0152 66.5873,-133.5868 70.3147,-143.5043 75.6858,-139.0152"/>
</g>
<!-- Node77 -->
<g id="node4" class="node">
<title>Node77</title>
<g id="a_node4"><a xlink:href="classBasisnamesOne.html#ab3030f74ccafcc178f38e7a8ada13b9b" target="_top" xlink:title="BasisnamesOne::fromBoth">
<polygon fill="none" stroke="#000000" points="352.5,-95.5 352.5,-114.5 499.5,-114.5 499.5,-95.5 352.5,-95.5"/>
<text text-anchor="middle" x="426" y="-102.5" font-family="Helvetica,sans-Serif" font-size="10.00" fill="#000000">BasisnamesOne::fromBoth</text>
</a>
</g>
</g>
<!-- Node74&#45;&gt;Node77 -->
<g id="edge3" class="edge">
<title>Node74&#45;&gt;Node77</title>
<path fill="none" stroke="#191970" d="M78.3876,-139.9843C96.6192,-153.9023 125.3269,-173.058 154,-181 216.5344,-198.321 237.4858,-198.3939 300,-181 347.0076,-167.9206 394.0097,-132.0523 414.8474,-114.6811"/>
<polygon fill="#191970" stroke="#191970" points="80.3495,-137.0746 70.3252,-133.6447 76.0227,-142.5772 80.3495,-137.0746"/>
</g>
<!-- Node80 -->
<g id="node7" class="node">
<title>Node80</title>
<g id="a_node7"><a xlink:href="classStateTwoOld.html#a3ecab4e3ec45aa3cc8cfe60b2b46d5f6" target="_top" xlink:title="StateTwoOld::getEnergy">
<polygon fill="none" stroke="#000000" points="160.5,-152.5 160.5,-171.5 293.5,-171.5 293.5,-152.5 160.5,-152.5"/>
<text text-anchor="middle" x="227" y="-159.5" font-family="Helvetica,sans-Serif" font-size="10.00" fill="#000000">StateTwoOld::getEnergy</text>
</a>
</g>
</g>
<!-- Node74&#45;&gt;Node80 -->
<g id="edge6" class="edge">
<title>Node74&#45;&gt;Node80</title>
<path fill="none" stroke="#191970" d="M111.2757,-135.8243C134.9607,-141.1816 162.5903,-147.4311 184.9114,-152.4799"/>
<polygon fill="#191970" stroke="#191970" points="111.9193,-132.3815 101.3935,-133.589 110.3749,-139.209 111.9193,-132.3815"/>
</g>
<!-- Node81 -->
<g id="node8" class="node">
<title>Node81</title>
<g id="a_node8"><a xlink:href="classStateTwoOld.html#ac0a094bb8d10a954236f3af605c0cbca" target="_top" xlink:title="StateTwoOld::getNStar">
<polygon fill="none" stroke="#000000" points="164,-114.5 164,-133.5 290,-133.5 290,-114.5 164,-114.5"/>
<text text-anchor="middle" x="227" y="-121.5" font-family="Helvetica,sans-Serif" font-size="10.00" fill="#000000">StateTwoOld::getNStar</text>
</a>
</g>
</g>
<!-- Node74&#45;&gt;Node81 -->
<g id="edge7" class="edge">
<title>Node74&#45;&gt;Node81</title>
<path fill="none" stroke="#191970" d="M128.3954,-124C140.1038,-124 152.2029,-124 163.7445,-124"/>
<polygon fill="#191970" stroke="#191970" points="128.2305,-120.5001 118.2305,-124 128.2305,-127.5001 128.2305,-120.5001"/>
</g>
<!-- Node82 -->
<g id="node9" class="node">
<title>Node82</title>
<g id="a_node9"><a xlink:href="classMatrixElements.html#a0bd2d4229fab692eb6b774fbff09cf83" target="_top" xlink:title="MatrixElements::getRadial">
<polygon fill="none" stroke="#000000" points="154,-76.5 154,-95.5 300,-95.5 300,-76.5 154,-76.5"/>
<text text-anchor="middle" x="227" y="-83.5" font-family="Helvetica,sans-Serif" font-size="10.00" fill="#000000">MatrixElements::getRadial</text>
</a>
</g>
</g>
<!-- Node74&#45;&gt;Node82 -->
<g id="edge8" class="edge">
<title>Node74&#45;&gt;Node82</title>
<path fill="none" stroke="#191970" d="M111.2757,-112.1757C134.9607,-106.8184 162.5903,-100.5689 184.9114,-95.5201"/>
<polygon fill="#191970" stroke="#191970" points="110.3749,-108.791 101.3935,-114.411 111.9193,-115.6185 110.3749,-108.791"/>
</g>
<!-- Node83 -->
<g id="node10" class="node">
<title>Node83</title>
<g id="a_node10"><a xlink:href="classStateTwoOld.html#a905a5cdadb7ee2d0431aeba6004d40e5" target="_top" xlink:title="StateTwoOld::operator\&lt;">
<polygon fill="none" stroke="#000000" points="160.5,-38.5 160.5,-57.5 293.5,-57.5 293.5,-38.5 160.5,-38.5"/>
<text text-anchor="middle" x="227" y="-45.5" font-family="Helvetica,sans-Serif" font-size="10.00" fill="#000000">StateTwoOld::operator&lt;</text>
</a>
</g>
</g>
<!-- Node74&#45;&gt;Node83 -->
<g id="edge9" class="edge">
<title>Node74&#45;&gt;Node83</title>
<path fill="none" stroke="#191970" d="M80.5467,-108.6193C99.209,-95.9109 127.3294,-78.1983 154,-67 162.8145,-63.299 172.5379,-60.1638 181.9351,-57.5726"/>
<polygon fill="#191970" stroke="#191970" points="78.4205,-105.8343 72.1927,-114.4054 82.4063,-111.5888 78.4205,-105.8343"/>
</g>
<!-- Node84 -->
<g id="node11" class="node">
<title>Node84</title>
<g id="a_node11"><a xlink:href="classStateTwoOld.html#a1d7ff079f51711e8a6f40946e5677be8" target="_top" xlink:title="StateTwoOld::order">
<polygon fill="none" stroke="#000000" points="172.5,-.5 172.5,-19.5 281.5,-19.5 281.5,-.5 172.5,-.5"/>
<text text-anchor="middle" x="227" y="-7.5" font-family="Helvetica,sans-Serif" font-size="10.00" fill="#000000">StateTwoOld::order</text>
</a>
</g>
</g>
<!-- Node74&#45;&gt;Node84 -->
<g id="edge10" class="edge">
<title>Node74&#45;&gt;Node84</title>
<path fill="none" stroke="#191970" d="M71.9047,-106.2358C88.4884,-84.7098 119.3088,-48.8634 154,-29 160.7052,-25.1608 168.1972,-22.082 175.7571,-19.617"/>
<polygon fill="#191970" stroke="#191970" points="69.0999,-104.1421 65.888,-114.2384 74.695,-108.3488 69.0999,-104.1421"/>
</g>
<!-- Node76 -->
<g id="node3" class="node">
<title>Node76</title>
<g id="a_node3"><a xlink:href="classHamiltonianTwo.html#abd374713c9b38f72265c7fe496c42b96" target="_top" xlink:title="HamiltonianTwo::HamiltonianTwo">
<polygon fill="none" stroke="#000000" points="336,-228.5 336,-247.5 516,-247.5 516,-228.5 336,-228.5"/>
<text text-anchor="middle" x="426" y="-235.5" font-family="Helvetica,sans-Serif" font-size="10.00" fill="#000000">HamiltonianTwo::HamiltonianTwo</text>
</a>
</g>
</g>
<!-- Node75&#45;&gt;Node76 -->
<g id="edge2" class="edge">
<title>Node75&#45;&gt;Node76</title>
<path fill="none" stroke="#191970" d="M310.3577,-238C318.7192,-238 327.237,-238 335.6663,-238"/>
<polygon fill="#191970" stroke="#191970" points="310.2525,-234.5001 300.2525,-238 310.2524,-241.5001 310.2525,-234.5001"/>
</g>
<!-- Node78 -->
<g id="node5" class="node">
<title>Node78</title>
<g id="a_node5"><a xlink:href="Interface_8h.html#ad478f0b9610586a2ae8066c78b6d3f96" target="_top" xlink:title="compute">
<polygon fill="none" stroke="#000000" points="552,-95.5 552,-114.5 611,-114.5 611,-95.5 552,-95.5"/>
<text text-anchor="middle" x="581.5" y="-102.5" font-family="Helvetica,sans-Serif" font-size="10.00" fill="#000000">compute</text>
</a>
</g>
</g>
<!-- Node77&#45;&gt;Node78 -->
<g id="edge4" class="edge">
<title>Node77&#45;&gt;Node78</title>
<path fill="none" stroke="#191970" d="M510.0774,-105C525.104,-105 539.8132,-105 551.9401,-105"/>
<polygon fill="#191970" stroke="#191970" points="509.6516,-101.5001 499.6516,-105 509.6516,-108.5001 509.6516,-101.5001"/>
</g>
<!-- Node79 -->
<g id="node6" class="node">
<title>Node79</title>
<g id="a_node6"><a xlink:href="main_8cpp.html#a3c04138a5bfe5d72780bb7e82a18e627" target="_top" xlink:title="main">
<polygon fill="none" stroke="#000000" points="647,-95.5 647,-114.5 688,-114.5 688,-95.5 647,-95.5"/>
<text text-anchor="middle" x="667.5" y="-102.5" font-family="Helvetica,sans-Serif" font-size="10.00" fill="#000000">main</text>
</a>
</g>
</g>
<!-- Node78&#45;&gt;Node79 -->
<g id="edge5" class="edge">
<title>Node78&#45;&gt;Node79</title>
<path fill="none" stroke="#191970" d="M621.2801,-105C630.1028,-105 639.1072,-105 646.7966,-105"/>
<polygon fill="#191970" stroke="#191970" points="621.0964,-101.5001 611.0963,-105 621.0963,-108.5001 621.0964,-101.5001"/>
</g>
<!-- Node84&#45;&gt;Node77 -->
<g id="edge11" class="edge">
<title>Node84&#45;&gt;Node77</title>
<path fill="none" stroke="#191970" d="M281.8268,-22.4251C288.0441,-24.3751 294.2183,-26.5645 300,-29 344.0248,-47.5453 390.9638,-79.5495 413.0685,-95.4545"/>
<polygon fill="#191970" stroke="#191970" points="282.6527,-19.0199 272.0715,-19.5568 280.6781,-25.7356 282.6527,-19.0199"/>
</g>
</g>
</svg>
