<?xml version="1.0" encoding="UTF-8" standalone="no"?>
<!DOCTYPE svg PUBLIC "-//W3C//DTD SVG 1.1//EN"
 "http://www.w3.org/Graphics/SVG/1.1/DTD/svg11.dtd">
<!-- Generated by graphviz version 2.40.1 (20161225.0304)
 -->
<!-- Title: Hamiltonianmatrix::basis Pages: 1 -->
<!--zoomable 186 -->
<svg id="main" version="1.1" xmlns="http://www.w3.org/2000/svg" xmlns:xlink="http://www.w3.org/1999/xlink" xml:space="preserve" onload="init(evt)">
<style type="text/css"><![CDATA[
.edge:hover path { stroke: red; }
.edge:hover polygon { stroke: red; fill: red; }
]]></style>
<script type="text/javascript"><![CDATA[
var edges = document.getElementsByTagName('g');
if (edges && edges.length) {
  for (var i=0;i<edges.length;i++) {
    if (edges[i].id.substr(0,4)=='edge') {
      edges[i].setAttribute('class','edge');
    }
  }
}
]]></script>
        <defs>
                <circle id="rim" cx="0" cy="0" r="7"/>
                <circle id="rim2" cx="0" cy="0" r="3.5"/>
                <g id="zoomPlus">
                        <use xlink:href="#rim" fill="#404040">
                                <set attributeName="fill" to="#808080" begin="zoomplus.mouseover" end="zoomplus.mouseout"/>
                        </use>
                        <path d="M-4,0h8M0,-4v8" fill="none" stroke="white" stroke-width="1.5" pointer-events="none"/>
                </g>
                <g id="zoomMin">
                        <use xlink:href="#rim" fill="#404040">
                                <set attributeName="fill" to="#808080" begin="zoomminus.mouseover" end="zoomminus.mouseout"/>
                        </use>
                        <path d="M-4,0h8" fill="none" stroke="white" stroke-width="1.5" pointer-events="none"/>
                </g>
                <g id="dirArrow">
                        <path fill="none" stroke="white" stroke-width="1.5" d="M0,-3.0v7 M-2.5,-0.5L0,-3.0L2.5,-0.5"/>
                </g>
               <g id="resetDef">
                       <use xlink:href="#rim2" fill="#404040">
                               <set attributeName="fill" to="#808080" begin="reset.mouseover" end="reset.mouseout"/>
                       </use>
               </g>
        </defs>

<script type="text/javascript">
var viewWidth = 674;
var viewHeight = 186;
var sectionId = 'dynsection-7';
</script>
<script xlink:href="svgpan.js"/>
<svg id="graph" class="graph">
<g id="viewport">
<title>Hamiltonianmatrix::basis</title>
<!-- Node32 -->
<g id="node1" class="node">
<title>Node32</title>
<polygon fill="#bfbfbf" stroke="#000000" points="0,-82.5 0,-112.5 115,-112.5 115,-82.5 0,-82.5"/>
<text text-anchor="start" x="8" y="-100.5" font-family="Helvetica,sans-Serif" font-size="10.00" fill="#000000">Hamiltonianmatrix::</text>
<text text-anchor="middle" x="57.5" y="-89.5" font-family="Helvetica,sans-Serif" font-size="10.00" fill="#000000">basis</text>
</g>
<!-- Node33 -->
<g id="node2" class="node">
<title>Node33</title>
<g id="a_node2"><a xlink:href="classHamiltonianTwo.html#a6ca0a318f25170b69e571a07064a5afb" target="_top" xlink:title="HamiltonianTwo::calculate">
<polygon fill="none" stroke="#000000" points="302,-88 302,-107 448,-107 448,-88 302,-88"/>
<text text-anchor="middle" x="375" y="-95" font-family="Helvetica,sans-Serif" font-size="10.00" fill="#000000">HamiltonianTwo::calculate</text>
</a>
</g>
</g>
<!-- Node32&#45;&gt;Node33 -->
<g id="edge1" class="edge">
<title>Node32&#45;&gt;Node33</title>
<path fill="none" stroke="#191970" d="M79.0695,-119.7773C96.6577,-136.2364 123.0812,-157.3137 151,-166.5 199.5505,-182.4749 216.9102,-180.7317 266,-166.5 306.4402,-154.7759 346.2683,-123.0594 364.5736,-107.0372"/>
<polygon fill="#191970" stroke="#191970" points="81.2612,-117.0283 71.6365,-112.5993 76.3986,-122.0637 81.2612,-117.0283"/>
</g>
<!-- Node35 -->
<g id="node4" class="node">
<title>Node35</title>
<g id="a_node4"><a xlink:href="classHamiltonianmatrix.html#a310f8a7bc796d0b431928b82f2d11285" target="_top" xlink:title="Hamiltonianmatrix::\lchangeBasis">
<polygon fill="none" stroke="#000000" points="151,-126.5 151,-156.5 266,-156.5 266,-126.5 151,-126.5"/>
<text text-anchor="start" x="159" y="-144.5" font-family="Helvetica,sans-Serif" font-size="10.00" fill="#000000">Hamiltonianmatrix::</text>
<text text-anchor="middle" x="208.5" y="-133.5" font-family="Helvetica,sans-Serif" font-size="10.00" fill="#000000">changeBasis</text>
</a>
</g>
</g>
<!-- Node32&#45;&gt;Node35 -->
<g id="edge3" class="edge">
<title>Node32&#45;&gt;Node35</title>
<path fill="none" stroke="#191970" d="M119.0007,-115.4207C131.5958,-119.0908 144.7295,-122.9179 156.9328,-126.4738"/>
<polygon fill="#191970" stroke="#191970" points="119.6232,-111.9566 109.0433,-112.5192 117.6648,-118.6771 119.6232,-111.9566"/>
</g>
<!-- Node36 -->
<g id="node5" class="node">
<title>Node36</title>
<g id="a_node5"><a xlink:href="Hamiltonianmatrix_8cpp.html#ae139c21d132020dde7c86db8efc751e1" target="_top" xlink:title="combine">
<polygon fill="none" stroke="#000000" points="179,-88 179,-107 238,-107 238,-88 179,-88"/>
<text text-anchor="middle" x="208.5" y="-95" font-family="Helvetica,sans-Serif" font-size="10.00" fill="#000000">combine</text>
</a>
</g>
</g>
<!-- Node32&#45;&gt;Node36 -->
<g id="edge5" class="edge">
<title>Node32&#45;&gt;Node36</title>
<path fill="none" stroke="#191970" d="M125.0399,-97.5C143.7984,-97.5 163.2198,-97.5 178.6024,-97.5"/>
<polygon fill="#191970" stroke="#191970" points="125.0174,-94.0001 115.0174,-97.5 125.0173,-101.0001 125.0174,-94.0001"/>
</g>
<!-- Node37 -->
<g id="node6" class="node">
<title>Node37</title>
<g id="a_node6"><a xlink:href="classHamiltonianmatrix.html#a1db6d20a1d88ef89f1acdad819af34ee" target="_top" xlink:title="Hamiltonianmatrix::\ldiagonalize">
<polygon fill="none" stroke="#000000" points="151,-.5 151,-30.5 266,-30.5 266,-.5 151,-.5"/>
<text text-anchor="start" x="159" y="-18.5" font-family="Helvetica,sans-Serif" font-size="10.00" fill="#000000">Hamiltonianmatrix::</text>
<text text-anchor="middle" x="208.5" y="-7.5" font-family="Helvetica,sans-Serif" font-size="10.00" fill="#000000">diagonalize</text>
</a>
</g>
</g>
<!-- Node32&#45;&gt;Node37 -->
<g id="edge7" class="edge">
<title>Node32&#45;&gt;Node37</title>
<path fill="none" stroke="#191970" d="M89.2475,-76.6477C107.0563,-65.3346 129.8779,-51.4641 151,-40.5 157.5697,-37.0898 164.7062,-33.7273 171.645,-30.6279"/>
<polygon fill="#191970" stroke="#191970" points="86.9573,-73.9584 80.4272,-82.3016 90.7349,-79.8516 86.9573,-73.9584"/>
</g>
<!-- Node40 -->
<g id="node9" class="node">
<title>Node40</title>
<g id="a_node9"><a xlink:href="Hamiltonianmatrix_8cpp.html#a678b50f9b12e7a3fa69970554dd5d206" target="_top" xlink:title="energycutoff">
<polygon fill="none" stroke="#000000" points="169,-50 169,-69 248,-69 248,-50 169,-50"/>
<text text-anchor="middle" x="208.5" y="-57" font-family="Helvetica,sans-Serif" font-size="10.00" fill="#000000">energycutoff</text>
</a>
</g>
</g>
<!-- Node32&#45;&gt;Node40 -->
<g id="edge11" class="edge">
<title>Node32&#45;&gt;Node40</title>
<path fill="none" stroke="#191970" d="M125.1117,-80.4851C140.6133,-76.5841 156.5634,-72.5701 170.3094,-69.1109"/>
<polygon fill="#191970" stroke="#191970" points="123.8608,-77.1907 115.0174,-83.0254 125.5692,-83.9791 123.8608,-77.1907"/>
</g>
<!-- Node34 -->
<g id="node3" class="node">
<title>Node34</title>
<g id="a_node3"><a xlink:href="classHamiltonianTwo.html#abd374713c9b38f72265c7fe496c42b96" target="_top" xlink:title="HamiltonianTwo::HamiltonianTwo">
<polygon fill="none" stroke="#000000" points="485,-88 485,-107 665,-107 665,-88 485,-88"/>
<text text-anchor="middle" x="575" y="-95" font-family="Helvetica,sans-Serif" font-size="10.00" fill="#000000">HamiltonianTwo::HamiltonianTwo</text>
</a>
</g>
</g>
<!-- Node33&#45;&gt;Node34 -->
<g id="edge2" class="edge">
<title>Node33&#45;&gt;Node34</title>
<path fill="none" stroke="#191970" d="M458.2425,-97.5C467.0053,-97.5 475.9449,-97.5 484.7816,-97.5"/>
<polygon fill="#191970" stroke="#191970" points="458.0536,-94.0001 448.0536,-97.5 458.0535,-101.0001 458.0536,-94.0001"/>
</g>
<!-- Node35&#45;&gt;Node33 -->
<g id="edge4" class="edge">
<title>Node35&#45;&gt;Node33</title>
<path fill="none" stroke="#191970" d="M275.1733,-123.8806C296.8764,-118.1453 320.1461,-111.9959 338.7549,-107.0783"/>
<polygon fill="#191970" stroke="#191970" points="274.108,-120.5419 265.3342,-126.4808 275.8965,-127.3096 274.108,-120.5419"/>
</g>
<!-- Node36&#45;&gt;Node33 -->
<g id="edge6" class="edge">
<title>Node36&#45;&gt;Node33</title>
<path fill="none" stroke="#191970" d="M248.3549,-97.5C264.4204,-97.5 283.4787,-97.5 301.8685,-97.5"/>
<polygon fill="#191970" stroke="#191970" points="248.2669,-94.0001 238.2669,-97.5 248.2668,-101.0001 248.2669,-94.0001"/>
</g>
<!-- Node37&#45;&gt;Node33 -->
<g id="edge10" class="edge">
<title>Node37&#45;&gt;Node33</title>
<path fill="none" stroke="#191970" d="M253.5132,-34.7016C257.7523,-36.6208 261.9689,-38.5727 266,-40.5 298.7524,-56.1591 336.0723,-76.1567 357.4503,-87.8255"/>
<polygon fill="#191970" stroke="#191970" points="254.8191,-31.4518 244.2606,-30.5749 251.9678,-37.8447 254.8191,-31.4518"/>
</g>
<!-- Node38 -->
<g id="node7" class="node">
<title>Node38</title>
<g id="a_node7"><a xlink:href="classHamiltonianOne.html#a9cb71dcb34ab9f0779c0bd66b758185e" target="_top" xlink:title="HamiltonianOne::build">
<polygon fill="none" stroke="#000000" points="312,-6 312,-25 438,-25 438,-6 312,-6"/>
<text text-anchor="middle" x="375" y="-13" font-family="Helvetica,sans-Serif" font-size="10.00" fill="#000000">HamiltonianOne::build</text>
</a>
</g>
</g>
<!-- Node37&#45;&gt;Node38 -->
<g id="edge8" class="edge">
<title>Node37&#45;&gt;Node38</title>
<path fill="none" stroke="#191970" d="M276.4463,-15.5C288.1815,-15.5 300.3368,-15.5 311.9357,-15.5"/>
<polygon fill="#191970" stroke="#191970" points="276.2664,-12.0001 266.2663,-15.5 276.2663,-19.0001 276.2664,-12.0001"/>
</g>
<!-- Node39 -->
<g id="node8" class="node">
<title>Node39</title>
<g id="a_node8"><a xlink:href="classHamiltonianOne.html#ad3ba2d70879a60c9f065b5a2545dfe36" target="_top" xlink:title="HamiltonianOne::HamiltonianOne">
<polygon fill="none" stroke="#000000" points="484,-6 484,-25 666,-25 666,-6 484,-6"/>
<text text-anchor="middle" x="575" y="-13" font-family="Helvetica,sans-Serif" font-size="10.00" fill="#000000">HamiltonianOne::HamiltonianOne</text>
</a>
</g>
</g>
<!-- Node38&#45;&gt;Node39 -->
<g id="edge9" class="edge">
<title>Node38&#45;&gt;Node39</title>
<path fill="none" stroke="#191970" d="M448.0601,-15.5C459.6733,-15.5 471.8104,-15.5 483.7784,-15.5"/>
<polygon fill="#191970" stroke="#191970" points="448.0068,-12.0001 438.0067,-15.5 448.0067,-19.0001 448.0068,-12.0001"/>
</g>
<!-- Node40&#45;&gt;Node33 -->
<g id="edge12" class="edge">
<title>Node40&#45;&gt;Node33</title>
<path fill="none" stroke="#191970" d="M258.3042,-70.8667C282.1533,-76.3098 310.3948,-82.7553 333.1211,-87.942"/>
<polygon fill="#191970" stroke="#191970" points="258.909,-67.4148 248.3809,-68.6019 257.3514,-74.2394 258.909,-67.4148"/>
</g>
</g>
</svg>
        <g id="navigator" transform="translate(0 0)" fill="#404254">
                <rect fill="#f2f5e9" fill-opacity="0.5" stroke="#606060" stroke-width=".5" x="0" y="0" width="60" height="60"/>
                <use id="zoomplus" xlink:href="#zoomPlus" x="17" y="9" onmousedown="handleZoom(evt,'in')"/>
                <use id="zoomminus" xlink:href="#zoomMin" x="42" y="9" onmousedown="handleZoom(evt,'out')"/>
                <use id="reset" xlink:href="#resetDef" x="30" y="36" onmousedown="handleReset()"/>
                <g id="arrowUp" xlink:href="#dirArrow" transform="translate(30 24)" onmousedown="handlePan(0,-1)">
                  <use xlink:href="#rim" fill="#404040">
                        <set attributeName="fill" to="#808080" begin="arrowUp.mouseover" end="arrowUp.mouseout"/>
                  </use>
                  <path fill="none" stroke="white" stroke-width="1.5" d="M0,-3.0v7 M-2.5,-0.5L0,-3.0L2.5,-0.5"/>
                </g>
                <g id="arrowRight" xlink:href="#dirArrow" transform="rotate(90) translate(36 -43)" onmousedown="handlePan(1,0)">
                  <use xlink:href="#rim" fill="#404040">
                        <set attributeName="fill" to="#808080" begin="arrowRight.mouseover" end="arrowRight.mouseout"/>
                  </use>
                  <path fill="none" stroke="white" stroke-width="1.5" d="M0,-3.0v7 M-2.5,-0.5L0,-3.0L2.5,-0.5"/>
                </g>
                <g id="arrowDown" xlink:href="#dirArrow" transform="rotate(180) translate(-30 -48)" onmousedown="handlePan(0,1)">
                  <use xlink:href="#rim" fill="#404040">
                        <set attributeName="fill" to="#808080" begin="arrowDown.mouseover" end="arrowDown.mouseout"/>
                  </use>
                  <path fill="none" stroke="white" stroke-width="1.5" d="M0,-3.0v7 M-2.5,-0.5L0,-3.0L2.5,-0.5"/>
                </g>
                <g id="arrowLeft" xlink:href="#dirArrow" transform="rotate(270) translate(-36 17)" onmousedown="handlePan(-1,0)">
                  <use xlink:href="#rim" fill="#404040">
                        <set attributeName="fill" to="#808080" begin="arrowLeft.mouseover" end="arrowLeft.mouseout"/>
                  </use>
                  <path fill="none" stroke="white" stroke-width="1.5" d="M0,-3.0v7 M-2.5,-0.5L0,-3.0L2.5,-0.5"/>
                </g>
        </g>
        <svg viewBox="0 0 15 15" width="100%" height="30px" preserveAspectRatio="xMaxYMin meet">
         <g id="arrow_out" transform="scale(0.3 0.3)">
          <a xlink:href="classHamiltonianmatrix_ab0f42b034579983088548dd6dd4e1e78_icgraph_org.svg" target="_base">
           <rect id="button" ry="5" rx="5" y="6" x="6" height="38" width="38"
                fill="#f2f5e9" fill-opacity="0.5" stroke="#606060" stroke-width="1.0"/>
           <path id="arrow"
             d="M 11.500037,31.436501 C 11.940474,20.09759 22.043105,11.32322 32.158766,21.979434 L 37.068811,17.246167 C 37.068811,17.246167 37.088388,32 37.088388,32 L 22.160133,31.978069 C 22.160133,31.978069 26.997745,27.140456 26.997745,27.140456 C 18.528582,18.264221 13.291696,25.230495 11.500037,31.436501 z"
             style="fill:#404040;"/>
          </a>
         </g>
        </svg>
</svg>
