<?xml version="1.0" encoding="UTF-8" standalone="no"?>
<!DOCTYPE svg PUBLIC "-//W3C//DTD SVG 1.1//EN"
 "http://www.w3.org/Graphics/SVG/1.1/DTD/svg11.dtd">
<!-- Generated by graphviz version 2.40.1 (20161225.0304)
 -->
<!-- Title: Hamiltonianmatrix::load Pages: 1 -->
<svg width="446pt" height="78pt"
 viewBox="0.00 0.00 446.00 77.50" xmlns="http://www.w3.org/2000/svg" xmlns:xlink="http://www.w3.org/1999/xlink">
<g id="graph0" class="graph" transform="scale(1 1) rotate(0) translate(4 73.5)">
<title>Hamiltonianmatrix::load</title>
<!-- Node129 -->
<g id="node1" class="node">
<title>Node129</title>
<polygon fill="#bfbfbf" stroke="#000000" points="0,-28 0,-47 136,-47 136,-28 0,-28"/>
<text text-anchor="middle" x="68" y="-35" font-family="Helvetica,sans-Serif" font-size="10.00" fill="#000000">Hamiltonianmatrix::load</text>
</g>
<!-- Node130 -->
<g id="node2" class="node">
<title>Node130</title>
<g id="a_node2"><a xlink:href="classHamiltonianmatrix.html#a15bc9c823975f5395112432c5b8507db" target="_top" xlink:title="Hamiltonianmatrix::\ldoDeserialization">
<polygon fill="none" stroke="#000000" points="172,-22.5 172,-52.5 287,-52.5 287,-22.5 172,-22.5"/>
<text text-anchor="start" x="180" y="-40.5" font-family="Helvetica,sans-Serif" font-size="10.00" fill="#000000">Hamiltonianmatrix::</text>
<text text-anchor="middle" x="229.5" y="-29.5" font-family="Helvetica,sans-Serif" font-size="10.00" fill="#000000">doDeserialization</text>
</a>
</g>
</g>
<!-- Node129&#45;&gt;Node130 -->
<g id="edge1" class="edge">
<title>Node129&#45;&gt;Node130</title>
<path fill="none" stroke="#191970" d="M136.0225,-37.5C144.48,-37.5 153.1285,-37.5 161.5844,-37.5"/>
<polygon fill="#191970" stroke="#191970" points="161.7774,-41.0001 171.7773,-37.5 161.7773,-34.0001 161.7774,-41.0001"/>
</g>
<!-- Node131 -->
<g id="node3" class="node">
<title>Node131</title>
<g id="a_node3"><a xlink:href="classSerializer.html#a26e560124d2dd1daa304ac8e878db630" target="_top" xlink:title="Serializer::load">
<polygon fill="none" stroke="#000000" points="336,-50 336,-69 425,-69 425,-50 336,-50"/>
<text text-anchor="middle" x="380.5" y="-57" font-family="Helvetica,sans-Serif" font-size="10.00" fill="#000000">Serializer::load</text>
</a>
</g>
</g>
<!-- Node130&#45;&gt;Node131 -->
<g id="edge2" class="edge">
<title>Node130&#45;&gt;Node131</title>
<path fill="none" stroke="#191970" d="M287.0174,-45.88C299.7756,-47.7388 313.2613,-49.7036 325.899,-51.5449"/>
<polygon fill="#191970" stroke="#191970" points="325.4221,-55.0123 335.8222,-52.9907 326.4314,-48.0854 325.4221,-55.0123"/>
</g>
<!-- Node132 -->
<g id="node4" class="node">
<title>Node132</title>
<g id="a_node4"><a xlink:href="classHamiltonianmatrix.html#a37cc79dcec0f0d81265870a34517a225" target="_top" xlink:title="Hamiltonianmatrix::\lmergeComplex">
<polygon fill="none" stroke="#000000" points="323,-.5 323,-30.5 438,-30.5 438,-.5 323,-.5"/>
<text text-anchor="start" x="331" y="-18.5" font-family="Helvetica,sans-Serif" font-size="10.00" fill="#000000">Hamiltonianmatrix::</text>
<text text-anchor="middle" x="380.5" y="-7.5" font-family="Helvetica,sans-Serif" font-size="10.00" fill="#000000">mergeComplex</text>
</a>
</g>
</g>
<!-- Node130&#45;&gt;Node132 -->
<g id="edge3" class="edge">
<title>Node130&#45;&gt;Node132</title>
<path fill="none" stroke="#191970" d="M287.0174,-29.12C295.4639,-27.8894 304.2292,-26.6123 312.8561,-25.3554"/>
<polygon fill="#191970" stroke="#191970" points="313.5016,-28.7984 322.8925,-23.8931 312.4924,-21.8715 313.5016,-28.7984"/>
</g>
</g>
</svg>
