<?xml version="1.0" encoding="UTF-8" standalone="no"?>
<!DOCTYPE svg PUBLIC "-//W3C//DTD SVG 1.1//EN"
 "http://www.w3.org/Graphics/SVG/1.1/DTD/svg11.dtd">
<!-- Generated by graphviz version 2.40.1 (20161225.0304)
 -->
<!-- Title: MatrixElementCache::getElectricMultipole Pages: 1 -->
<svg width="284pt" height="218pt"
 viewBox="0.00 0.00 284.00 218.00" xmlns="http://www.w3.org/2000/svg" xmlns:xlink="http://www.w3.org/1999/xlink">
<g id="graph0" class="graph" transform="scale(1 1) rotate(0) translate(4 214)">
<title>MatrixElementCache::getElectricMultipole</title>
<!-- Node27 -->
<g id="node1" class="node">
<title>Node27</title>
<polygon fill="#bfbfbf" stroke="#000000" points="0,-90 0,-120 119,-120 119,-90 0,-90"/>
<text text-anchor="start" x="8" y="-108" font-family="Helvetica,sans-Serif" font-size="10.00" fill="#000000">MatrixElementCache</text>
<text text-anchor="middle" x="59.5" y="-97" font-family="Helvetica,sans-Serif" font-size="10.00" fill="#000000">::getElectricMultipole</text>
</g>
<!-- Node28 -->
<g id="node2" class="node">
<title>Node28</title>
<g id="a_node2"><a xlink:href="classStateOne.html#aedba5bfce70f73fa324b9d5ae1115578" target="_top" xlink:title="StateOne::getJ">
<polygon fill="none" stroke="#000000" points="172.5,-190.5 172.5,-209.5 258.5,-209.5 258.5,-190.5 172.5,-190.5"/>
<text text-anchor="middle" x="215.5" y="-197.5" font-family="Helvetica,sans-Serif" font-size="10.00" fill="#000000">StateOne::getJ</text>
</a>
</g>
</g>
<!-- Node27&#45;&gt;Node28 -->
<g id="edge1" class="edge">
<title>Node27&#45;&gt;Node28</title>
<path fill="none" stroke="#191970" d="M74.7704,-120.1517C92.6301,-137.1168 123.7484,-164.4014 155,-181 159.0472,-183.1496 163.3777,-185.1024 167.7925,-186.8657"/>
<polygon fill="#191970" stroke="#191970" points="166.9207,-190.2737 177.5144,-190.4258 169.3278,-183.7006 166.9207,-190.2737"/>
</g>
<!-- Node29 -->
<g id="node3" class="node">
<title>Node29</title>
<g id="a_node3"><a xlink:href="classStateOne.html#a3783cebe5bbd63f072caf8450fea4aca" target="_top" xlink:title="StateOne::getL">
<polygon fill="none" stroke="#000000" points="171,-152.5 171,-171.5 260,-171.5 260,-152.5 171,-152.5"/>
<text text-anchor="middle" x="215.5" y="-159.5" font-family="Helvetica,sans-Serif" font-size="10.00" fill="#000000">StateOne::getL</text>
</a>
</g>
</g>
<!-- Node27&#45;&gt;Node29 -->
<g id="edge2" class="edge">
<title>Node27&#45;&gt;Node29</title>
<path fill="none" stroke="#191970" d="M95.5383,-120.0746C113.3195,-127.3238 135.1598,-135.9483 155,-143 161.0588,-145.1534 167.5021,-147.3132 173.8391,-149.3644"/>
<polygon fill="#191970" stroke="#191970" points="173.0488,-152.7858 183.6393,-152.4818 175.1707,-146.1151 173.0488,-152.7858"/>
</g>
<!-- Node30 -->
<g id="node4" class="node">
<title>Node30</title>
<g id="a_node4"><a xlink:href="classStateOne.html#aab2b41262381d67893113ed6f5ad18bc" target="_top" xlink:title="StateOne::getM">
<polygon fill="none" stroke="#000000" points="169.5,-114.5 169.5,-133.5 261.5,-133.5 261.5,-114.5 169.5,-114.5"/>
<text text-anchor="middle" x="215.5" y="-121.5" font-family="Helvetica,sans-Serif" font-size="10.00" fill="#000000">StateOne::getM</text>
</a>
</g>
</g>
<!-- Node27&#45;&gt;Node30 -->
<g id="edge3" class="edge">
<title>Node27&#45;&gt;Node30</title>
<path fill="none" stroke="#191970" d="M119.3675,-112.2916C132.3849,-113.877 146.1156,-115.5493 158.9978,-117.1183"/>
<polygon fill="#191970" stroke="#191970" points="158.7674,-120.616 169.1172,-118.3508 159.6138,-113.6674 158.7674,-120.616"/>
</g>
<!-- Node31 -->
<g id="node5" class="node">
<title>Node31</title>
<g id="a_node5"><a xlink:href="classStateOne.html#a7deae740570ef5262e7fd2d254a8c530" target="_top" xlink:title="StateOne::getN">
<polygon fill="none" stroke="#000000" points="170,-76.5 170,-95.5 261,-95.5 261,-76.5 170,-76.5"/>
<text text-anchor="middle" x="215.5" y="-83.5" font-family="Helvetica,sans-Serif" font-size="10.00" fill="#000000">StateOne::getN</text>
</a>
</g>
</g>
<!-- Node27&#45;&gt;Node31 -->
<g id="edge4" class="edge">
<title>Node27&#45;&gt;Node31</title>
<path fill="none" stroke="#191970" d="M119.3675,-97.7084C132.5205,-96.1065 146.4018,-94.4158 159.4001,-92.8327"/>
<polygon fill="#191970" stroke="#191970" points="160.1009,-96.2733 169.6044,-91.5899 159.2545,-89.3246 160.1009,-96.2733"/>
</g>
<!-- Node32 -->
<g id="node6" class="node">
<title>Node32</title>
<g id="a_node6"><a xlink:href="classStateOne.html#a5f4c17ef50eca7f317a55b5e0a572117" target="_top" xlink:title="StateOne::getS">
<polygon fill="none" stroke="#000000" points="171,-38.5 171,-57.5 260,-57.5 260,-38.5 171,-38.5"/>
<text text-anchor="middle" x="215.5" y="-45.5" font-family="Helvetica,sans-Serif" font-size="10.00" fill="#000000">StateOne::getS</text>
</a>
</g>
</g>
<!-- Node27&#45;&gt;Node32 -->
<g id="edge5" class="edge">
<title>Node27&#45;&gt;Node32</title>
<path fill="none" stroke="#191970" d="M95.5383,-89.9254C113.3195,-82.6762 135.1598,-74.0517 155,-67 161.0588,-64.8466 167.5021,-62.6868 173.8391,-60.6356"/>
<polygon fill="#191970" stroke="#191970" points="175.1707,-63.8849 183.6393,-57.5182 173.0488,-57.2142 175.1707,-63.8849"/>
</g>
<!-- Node33 -->
<g id="node7" class="node">
<title>Node33</title>
<g id="a_node7"><a xlink:href="classStateOne.html#a45b245f5da0068df4ff72093c654da89" target="_top" xlink:title="StateOne::getSpecies">
<polygon fill="none" stroke="#000000" points="155,-.5 155,-19.5 276,-19.5 276,-.5 155,-.5"/>
<text text-anchor="middle" x="215.5" y="-7.5" font-family="Helvetica,sans-Serif" font-size="10.00" fill="#000000">StateOne::getSpecies</text>
</a>
</g>
</g>
<!-- Node27&#45;&gt;Node33 -->
<g id="edge6" class="edge">
<title>Node27&#45;&gt;Node33</title>
<path fill="none" stroke="#191970" d="M74.7704,-89.8483C92.6301,-72.8832 123.7484,-45.5986 155,-29 159.0472,-26.8504 163.3777,-24.8976 167.7925,-23.1343"/>
<polygon fill="#191970" stroke="#191970" points="169.3278,-26.2994 177.5144,-19.5742 166.9207,-19.7263 169.3278,-26.2994"/>
</g>
</g>
</svg>
