<?xml version="1.0" encoding="UTF-8" standalone="no"?>
<!DOCTYPE svg PUBLIC "-//W3C//DTD SVG 1.1//EN"
 "http://www.w3.org/Graphics/SVG/1.1/DTD/svg11.dtd">
<!-- Generated by graphviz version 2.40.1 (20161225.0304)
 -->
<!-- Title: HamiltonianTwo Pages: 1 -->
<svg width="585pt" height="165pt"
 viewBox="0.00 0.00 585.00 165.00" xmlns="http://www.w3.org/2000/svg" xmlns:xlink="http://www.w3.org/1999/xlink">
<g id="graph0" class="graph" transform="scale(1 1) rotate(0) translate(4 161)">
<title>HamiltonianTwo</title>
<!-- Node2 -->
<g id="node1" class="node">
<title>Node2</title>
<polygon fill="#bfbfbf" stroke="#000000" points="482,-69 482,-88 577,-88 577,-69 482,-69"/>
<text text-anchor="middle" x="529.5" y="-76" font-family="Helvetica,sans-Serif" font-size="10.00" fill="#000000">HamiltonianTwo</text>
</g>
<!-- Node3 -->
<g id="node2" class="node">
<title>Node3</title>
<g id="a_node2"><a xlink:href="classHamiltonian.html" target="_top" xlink:title="Hamiltonian\&lt; BasisnamesTwo \&gt;">
<polygon fill="none" stroke="#000000" points="268,-69 268,-88 445,-88 445,-69 268,-69"/>
<text text-anchor="middle" x="356.5" y="-76" font-family="Helvetica,sans-Serif" font-size="10.00" fill="#000000">Hamiltonian&lt; BasisnamesTwo &gt;</text>
</a>
</g>
</g>
<!-- Node3&#45;&gt;Node2 -->
<g id="edge1" class="edge">
<title>Node3&#45;&gt;Node2</title>
<path fill="none" stroke="#191970" d="M455.0642,-78.5C464.2654,-78.5 473.2808,-78.5 481.683,-78.5"/>
<polygon fill="#191970" stroke="#191970" points="455.0272,-75.0001 445.0272,-78.5 455.0271,-82.0001 455.0272,-75.0001"/>
</g>
<!-- Node4 -->
<g id="node3" class="node">
<title>Node4</title>
<polygon fill="none" stroke="#bfbfbf" points="17,-126.5 17,-156.5 152,-156.5 152,-126.5 17,-126.5"/>
<text text-anchor="start" x="25" y="-144.5" font-family="Helvetica,sans-Serif" font-size="10.00" fill="#000000">vector&lt; std::shared</text>
<text text-anchor="middle" x="84.5" y="-133.5" font-family="Helvetica,sans-Serif" font-size="10.00" fill="#000000">_ptr&lt; Configuration &gt; &gt;</text>
</g>
<!-- Node4&#45;&gt;Node3 -->
<g id="edge2" class="edge">
<title>Node4&#45;&gt;Node3</title>
<path fill="none" stroke="#9a32cd" stroke-dasharray="5,2" d="M162.2404,-124.4479C189.9644,-118.28 221.403,-111.1867 250,-104.5 272.6099,-99.2132 297.8572,-93.0605 318.0931,-88.0679"/>
<polygon fill="#9a32cd" stroke="#9a32cd" points="161.21,-121.0913 152.2065,-126.6759 162.7274,-127.9249 161.21,-121.0913"/>
<text text-anchor="middle" x="218.5" y="-120.5" font-family="Helvetica,sans-Serif" font-size="10.00" fill="#000000"> params</text>
</g>
<!-- Node5 -->
<g id="node4" class="node">
<title>Node5</title>
<polygon fill="none" stroke="#bfbfbf" points="25,-88 25,-107 144,-107 144,-88 25,-88"/>
<text text-anchor="middle" x="84.5" y="-95" font-family="Helvetica,sans-Serif" font-size="10.00" fill="#000000">vector&lt; std::string &gt;</text>
</g>
<!-- Node5&#45;&gt;Node3 -->
<g id="edge3" class="edge">
<title>Node5&#45;&gt;Node3</title>
<path fill="none" stroke="#9a32cd" stroke-dasharray="5,2" d="M154.1952,-92.6316C188.7642,-90.2168 230.9003,-87.2735 267.7509,-84.6994"/>
<polygon fill="#9a32cd" stroke="#9a32cd" points="153.9233,-89.142 144.1916,-93.3304 154.4112,-96.1249 153.9233,-89.142"/>
<text text-anchor="middle" x="218.5" y="-92.5" font-family="Helvetica,sans-Serif" font-size="10.00" fill="#000000"> matrix_path</text>
</g>
<!-- Node6 -->
<g id="node5" class="node">
<title>Node6</title>
<g id="a_node5"><a xlink:href="classstd_1_1shared__ptr_3_01BasisnamesTwo_01_4.html" target="_top" xlink:title="shared_ptr\&lt; BasisnamesTwo \&gt;">
<polygon fill="none" stroke="#000000" points="0,-50 0,-69 169,-69 169,-50 0,-50"/>
<text text-anchor="middle" x="84.5" y="-57" font-family="Helvetica,sans-Serif" font-size="10.00" fill="#000000">shared_ptr&lt; BasisnamesTwo &gt;</text>
</a>
</g>
</g>
<!-- Node6&#45;&gt;Node3 -->
<g id="edge4" class="edge">
<title>Node6&#45;&gt;Node3</title>
<path fill="none" stroke="#9a32cd" stroke-dasharray="5,2" d="M179.2878,-65.6592C202.424,-67.2015 227.1054,-68.8793 250,-70.5 255.826,-70.9124 261.8308,-71.3445 267.8821,-71.7851"/>
<polygon fill="#9a32cd" stroke="#9a32cd" points="179.339,-62.155 169.1289,-64.9841 178.8747,-69.1396 179.339,-62.155"/>
<text text-anchor="middle" x="218.5" y="-73.5" font-family="Helvetica,sans-Serif" font-size="10.00" fill="#000000"> basis</text>
</g>
<!-- Node7 -->
<g id="node6" class="node">
<title>Node7</title>
<polygon fill="none" stroke="#bfbfbf" points="4,-.5 4,-30.5 165,-30.5 165,-.5 4,-.5"/>
<text text-anchor="start" x="12" y="-18.5" font-family="Helvetica,sans-Serif" font-size="10.00" fill="#000000">vector&lt; std::shared</text>
<text text-anchor="middle" x="84.5" y="-7.5" font-family="Helvetica,sans-Serif" font-size="10.00" fill="#000000">_ptr&lt; Hamiltonianmatrix &gt; &gt;</text>
</g>
<!-- Node7&#45;&gt;Node3 -->
<g id="edge5" class="edge">
<title>Node7&#45;&gt;Node3</title>
<path fill="none" stroke="#9a32cd" stroke-dasharray="5,2" d="M169.4395,-32.6348C195.359,-38.0861 223.9007,-44.3132 250,-50.5 274.1831,-56.2325 301.2688,-63.3634 322.0729,-68.9942"/>
<polygon fill="#9a32cd" stroke="#9a32cd" points="170.1494,-29.2076 159.6446,-30.5852 168.7157,-36.0592 170.1494,-29.2076"/>
<text text-anchor="middle" x="218.5" y="-53.5" font-family="Helvetica,sans-Serif" font-size="10.00" fill="#000000"> matrix_diag</text>
</g>
</g>
</svg>
