<?xml version="1.0" encoding="UTF-8" standalone="no"?>
<!DOCTYPE svg PUBLIC "-//W3C//DTD SVG 1.1//EN"
 "http://www.w3.org/Graphics/SVG/1.1/DTD/svg11.dtd">
<!-- Generated by graphviz version 2.40.1 (20161225.0304)
 -->
<!-- Title: Hamiltonianmatrix::num_coordinates Pages: 1 -->
<svg width="705pt" height="165pt"
 viewBox="0.00 0.00 705.00 164.50" xmlns="http://www.w3.org/2000/svg" xmlns:xlink="http://www.w3.org/1999/xlink">
<g id="graph0" class="graph" transform="scale(1 1) rotate(0) translate(4 160.5)">
<title>Hamiltonianmatrix::num_coordinates</title>
<!-- Node161 -->
<g id="node1" class="node">
<title>Node161</title>
<polygon fill="#bfbfbf" stroke="#000000" points="0,-71.5 0,-101.5 115,-101.5 115,-71.5 0,-71.5"/>
<text text-anchor="start" x="8" y="-89.5" font-family="Helvetica,sans-Serif" font-size="10.00" fill="#000000">Hamiltonianmatrix::</text>
<text text-anchor="middle" x="57.5" y="-78.5" font-family="Helvetica,sans-Serif" font-size="10.00" fill="#000000">num_coordinates</text>
</g>
<!-- Node162 -->
<g id="node2" class="node">
<title>Node162</title>
<g id="a_node2"><a xlink:href="Hamiltonianmatrix_8cpp.html#ae139c21d132020dde7c86db8efc751e1" target="_top" xlink:title="combine">
<polygon fill="none" stroke="#000000" points="195.5,-137 195.5,-156 254.5,-156 254.5,-137 195.5,-137"/>
<text text-anchor="middle" x="225" y="-144" font-family="Helvetica,sans-Serif" font-size="10.00" fill="#000000">combine</text>
</a>
</g>
</g>
<!-- Node161&#45;&gt;Node162 -->
<g id="edge1" class="edge">
<title>Node161&#45;&gt;Node162</title>
<path fill="none" stroke="#191970" d="M97.8159,-105.8864C114.0975,-113.2634 133.2121,-121.3616 151,-127.5 165.2937,-132.4326 181.5316,-136.7398 195.1475,-140.0005"/>
<polygon fill="#191970" stroke="#191970" points="99.1363,-102.6413 88.5882,-101.6465 96.2137,-109.002 99.1363,-102.6413"/>
</g>
<!-- Node165 -->
<g id="node5" class="node">
<title>Node165</title>
<g id="a_node5"><a xlink:href="Hamiltonianmatrix_8cpp.html#a678b50f9b12e7a3fa69970554dd5d206" target="_top" xlink:title="energycutoff">
<polygon fill="none" stroke="#000000" points="185.5,-99 185.5,-118 264.5,-118 264.5,-99 185.5,-99"/>
<text text-anchor="middle" x="225" y="-106" font-family="Helvetica,sans-Serif" font-size="10.00" fill="#000000">energycutoff</text>
</a>
</g>
</g>
<!-- Node161&#45;&gt;Node165 -->
<g id="edge4" class="edge">
<title>Node161&#45;&gt;Node165</title>
<path fill="none" stroke="#191970" d="M125.0784,-95.376C145.5814,-98.0689 167.4285,-100.9384 185.449,-103.3052"/>
<polygon fill="#191970" stroke="#191970" points="125.5147,-91.9033 115.144,-94.0712 124.603,-98.8437 125.5147,-91.9033"/>
</g>
<!-- Node166 -->
<g id="node6" class="node">
<title>Node166</title>
<g id="a_node6"><a xlink:href="classHamiltonianmatrix.html#aac6e7f5a1aa8df2859d780d1ee103598" target="_top" xlink:title="Hamiltonianmatrix::\lfindUnnecessaryStates">
<polygon fill="none" stroke="#000000" points="160.5,-49.5 160.5,-79.5 289.5,-79.5 289.5,-49.5 160.5,-49.5"/>
<text text-anchor="start" x="168.5" y="-67.5" font-family="Helvetica,sans-Serif" font-size="10.00" fill="#000000">Hamiltonianmatrix::</text>
<text text-anchor="middle" x="225" y="-56.5" font-family="Helvetica,sans-Serif" font-size="10.00" fill="#000000">findUnnecessaryStates</text>
</a>
</g>
</g>
<!-- Node161&#45;&gt;Node166 -->
<g id="edge6" class="edge">
<title>Node161&#45;&gt;Node166</title>
<path fill="none" stroke="#191970" d="M125.2063,-77.6072C136.8082,-76.0834 148.8369,-74.5035 160.3562,-72.9905"/>
<polygon fill="#191970" stroke="#191970" points="124.603,-74.1563 115.144,-78.9288 125.5147,-81.0967 124.603,-74.1563"/>
</g>
<!-- Node167 -->
<g id="node7" class="node">
<title>Node167</title>
<g id="a_node7"><a xlink:href="classHamiltonianmatrix.html#abf0990a1537466714acfdcf0cfed00cd" target="_top" xlink:title="Hamiltonianmatrix::\lremoveUnnecessaryStates">
<polygon fill="none" stroke="#000000" points="151,-.5 151,-30.5 299,-30.5 299,-.5 151,-.5"/>
<text text-anchor="start" x="159" y="-18.5" font-family="Helvetica,sans-Serif" font-size="10.00" fill="#000000">Hamiltonianmatrix::</text>
<text text-anchor="middle" x="225" y="-7.5" font-family="Helvetica,sans-Serif" font-size="10.00" fill="#000000">removeUnnecessaryStates</text>
</a>
</g>
</g>
<!-- Node161&#45;&gt;Node167 -->
<g id="edge7" class="edge">
<title>Node161&#45;&gt;Node167</title>
<path fill="none" stroke="#191970" d="M94.714,-66.7917C111.6497,-58.1881 132.0937,-48.3048 151,-40.5 159.3981,-37.0331 168.4691,-33.6685 177.2855,-30.5901"/>
<polygon fill="#191970" stroke="#191970" points="92.9972,-63.7387 85.6983,-71.4184 96.1932,-69.9665 92.9972,-63.7387"/>
</g>
<!-- Node163 -->
<g id="node3" class="node">
<title>Node163</title>
<g id="a_node3"><a xlink:href="classHamiltonianTwo.html#a6ca0a318f25170b69e571a07064a5afb" target="_top" xlink:title="HamiltonianTwo::calculate">
<polygon fill="none" stroke="#000000" points="335,-118 335,-137 481,-137 481,-118 335,-118"/>
<text text-anchor="middle" x="408" y="-125" font-family="Helvetica,sans-Serif" font-size="10.00" fill="#000000">HamiltonianTwo::calculate</text>
</a>
</g>
</g>
<!-- Node162&#45;&gt;Node163 -->
<g id="edge2" class="edge">
<title>Node162&#45;&gt;Node163</title>
<path fill="none" stroke="#191970" d="M264.9964,-142.3474C285.4317,-140.2257 310.95,-137.5762 334.7509,-135.1051"/>
<polygon fill="#191970" stroke="#191970" points="264.3945,-138.891 254.8094,-143.405 265.1174,-145.8535 264.3945,-138.891"/>
</g>
<!-- Node164 -->
<g id="node4" class="node">
<title>Node164</title>
<g id="a_node4"><a xlink:href="classHamiltonianTwo.html#abd374713c9b38f72265c7fe496c42b96" target="_top" xlink:title="HamiltonianTwo::HamiltonianTwo">
<polygon fill="none" stroke="#000000" points="517,-118 517,-137 697,-137 697,-118 517,-118"/>
<text text-anchor="middle" x="607" y="-125" font-family="Helvetica,sans-Serif" font-size="10.00" fill="#000000">HamiltonianTwo::HamiltonianTwo</text>
</a>
</g>
</g>
<!-- Node163&#45;&gt;Node164 -->
<g id="edge3" class="edge">
<title>Node163&#45;&gt;Node164</title>
<path fill="none" stroke="#191970" d="M491.3577,-127.5C499.7192,-127.5 508.237,-127.5 516.6663,-127.5"/>
<polygon fill="#191970" stroke="#191970" points="491.2525,-124.0001 481.2525,-127.5 491.2524,-131.0001 491.2525,-124.0001"/>
</g>
<!-- Node165&#45;&gt;Node163 -->
<g id="edge5" class="edge">
<title>Node165&#45;&gt;Node163</title>
<path fill="none" stroke="#191970" d="M274.6693,-113.6569C293.186,-115.5794 314.615,-117.8043 334.8044,-119.9005"/>
<polygon fill="#191970" stroke="#191970" points="275.0163,-110.1742 264.7083,-112.6227 274.2933,-117.1368 275.0163,-110.1742"/>
</g>
</g>
</svg>
