<?xml version="1.0" encoding="UTF-8" standalone="no"?>
<!DOCTYPE svg PUBLIC "-//W3C//DTD SVG 1.1//EN"
 "http://www.w3.org/Graphics/SVG/1.1/DTD/svg11.dtd">
<!-- Generated by graphviz version 2.40.1 (20161225.0304)
 -->
<!-- Title: StateTwo::getM Pages: 1 -->
<svg width="264pt" height="78pt"
 viewBox="0.00 0.00 264.00 77.50" xmlns="http://www.w3.org/2000/svg" xmlns:xlink="http://www.w3.org/1999/xlink">
<g id="graph0" class="graph" transform="scale(1 1) rotate(0) translate(4 73.5)">
<title>StateTwo::getM</title>
<!-- Node57 -->
<g id="node1" class="node">
<title>Node57</title>
<polygon fill="#bfbfbf" stroke="#000000" points="0,-22.5 0,-41.5 91,-41.5 91,-22.5 0,-22.5"/>
<text text-anchor="middle" x="45.5" y="-29.5" font-family="Helvetica,sans-Serif" font-size="10.00" fill="#000000">StateTwo::getM</text>
</g>
<!-- Node58 -->
<g id="node2" class="node">
<title>Node58</title>
<g id="a_node2"><a xlink:href="classPerturbativeInteraction.html#aef0f5d43fdcf0377dc53e31730c99cb9" target="_top" xlink:title="PerturbativeInteraction\l::getC6">
<polygon fill="none" stroke="#000000" points="127,-39 127,-69 256,-69 256,-39 127,-39"/>
<text text-anchor="start" x="135" y="-57" font-family="Helvetica,sans-Serif" font-size="10.00" fill="#000000">PerturbativeInteraction</text>
<text text-anchor="middle" x="191.5" y="-46" font-family="Helvetica,sans-Serif" font-size="10.00" fill="#000000">::getC6</text>
</a>
</g>
</g>
<!-- Node57&#45;&gt;Node58 -->
<g id="edge1" class="edge">
<title>Node57&#45;&gt;Node58</title>
<path fill="none" stroke="#191970" d="M101.307,-40.4093C109.6713,-41.6696 118.3548,-42.9781 126.8837,-44.2633"/>
<polygon fill="#191970" stroke="#191970" points="101.7046,-36.9298 91.2947,-38.9006 100.6616,-43.8516 101.7046,-36.9298"/>
</g>
<!-- Node59 -->
<g id="node3" class="node">
<title>Node59</title>
<g id="a_node3"><a xlink:href="classStateTwo.html#a8144dc47a35a397f9b040a5de5d8673e" target="_top" xlink:title="StateTwo::getReflected">
<polygon fill="none" stroke="#000000" points="127,-.5 127,-19.5 256,-19.5 256,-.5 127,-.5"/>
<text text-anchor="middle" x="191.5" y="-7.5" font-family="Helvetica,sans-Serif" font-size="10.00" fill="#000000">StateTwo::getReflected</text>
</a>
</g>
</g>
<!-- Node57&#45;&gt;Node59 -->
<g id="edge2" class="edge">
<title>Node57&#45;&gt;Node59</title>
<path fill="none" stroke="#191970" d="M101.399,-23.5769C110.1708,-22.2551 119.2916,-20.8807 128.2153,-19.5361"/>
<polygon fill="#191970" stroke="#191970" points="100.6616,-20.1484 91.2947,-25.0994 101.7046,-27.0702 100.6616,-20.1484"/>
</g>
</g>
</svg>
