<?xml version="1.0" encoding="UTF-8" standalone="no"?>
<!DOCTYPE svg PUBLIC "-//W3C//DTD SVG 1.1//EN"
 "http://www.w3.org/Graphics/SVG/1.1/DTD/svg11.dtd">
<!-- Generated by graphviz version 2.40.1 (20161225.0304)
 -->
<!-- Title: MatrixElements::getMultipole Pages: 1 -->
<svg width="789pt" height="78pt"
 viewBox="0.00 0.00 789.00 77.50" xmlns="http://www.w3.org/2000/svg" xmlns:xlink="http://www.w3.org/1999/xlink">
<g id="graph0" class="graph" transform="scale(1 1) rotate(0) translate(4 73.5)">
<title>MatrixElements::getMultipole</title>
<!-- Node18 -->
<g id="node1" class="node">
<title>Node18</title>
<polygon fill="#bfbfbf" stroke="#000000" points="0,-28 0,-47 160,-47 160,-28 0,-28"/>
<text text-anchor="middle" x="80" y="-35" font-family="Helvetica,sans-Serif" font-size="10.00" fill="#000000">MatrixElements::getMultipole</text>
</g>
<!-- Node19 -->
<g id="node2" class="node">
<title>Node19</title>
<g id="a_node2"><a xlink:href="classHamiltonianTwo.html#a6ca0a318f25170b69e571a07064a5afb" target="_top" xlink:title="HamiltonianTwo::calculate">
<polygon fill="none" stroke="#000000" points="198.5,-50 198.5,-69 344.5,-69 344.5,-50 198.5,-50"/>
<text text-anchor="middle" x="271.5" y="-57" font-family="Helvetica,sans-Serif" font-size="10.00" fill="#000000">HamiltonianTwo::calculate</text>
</a>
</g>
</g>
<!-- Node18&#45;&gt;Node19 -->
<g id="edge1" class="edge">
<title>Node18&#45;&gt;Node19</title>
<path fill="none" stroke="#191970" d="M170.2938,-47.8732C179.7263,-48.9568 189.2297,-50.0486 198.4362,-51.1062"/>
<polygon fill="#191970" stroke="#191970" points="170.4378,-44.3668 160.1037,-46.7025 169.6388,-51.321 170.4378,-44.3668"/>
</g>
<!-- Node21 -->
<g id="node4" class="node">
<title>Node21</title>
<g id="a_node4"><a xlink:href="classMatrixElements.html#a028e0fd7873f47d9a598c2e3e1200517" target="_top" xlink:title="MatrixElements::getElectric\lMomentum">
<polygon fill="none" stroke="#000000" points="196,-.5 196,-30.5 347,-30.5 347,-.5 196,-.5"/>
<text text-anchor="start" x="204" y="-18.5" font-family="Helvetica,sans-Serif" font-size="10.00" fill="#000000">MatrixElements::getElectric</text>
<text text-anchor="middle" x="271.5" y="-7.5" font-family="Helvetica,sans-Serif" font-size="10.00" fill="#000000">Momentum</text>
</a>
</g>
</g>
<!-- Node18&#45;&gt;Node21 -->
<g id="edge3" class="edge">
<title>Node18&#45;&gt;Node21</title>
<path fill="none" stroke="#191970" d="M170.1093,-27.148C178.6702,-26.1645 187.2915,-25.1741 195.6981,-24.2083"/>
<polygon fill="#191970" stroke="#191970" points="169.6388,-23.679 160.1037,-28.2975 170.4378,-30.6332 169.6388,-23.679"/>
</g>
<!-- Node20 -->
<g id="node3" class="node">
<title>Node20</title>
<g id="a_node3"><a xlink:href="classHamiltonianTwo.html#abd374713c9b38f72265c7fe496c42b96" target="_top" xlink:title="HamiltonianTwo::HamiltonianTwo">
<polygon fill="none" stroke="#000000" points="383,-50 383,-69 563,-69 563,-50 383,-50"/>
<text text-anchor="middle" x="473" y="-57" font-family="Helvetica,sans-Serif" font-size="10.00" fill="#000000">HamiltonianTwo::HamiltonianTwo</text>
</a>
</g>
</g>
<!-- Node19&#45;&gt;Node20 -->
<g id="edge2" class="edge">
<title>Node19&#45;&gt;Node20</title>
<path fill="none" stroke="#191970" d="M354.813,-59.5C364.0102,-59.5 373.4074,-59.5 382.6852,-59.5"/>
<polygon fill="#191970" stroke="#191970" points="354.5311,-56.0001 344.531,-59.5 354.531,-63.0001 354.5311,-56.0001"/>
</g>
<!-- Node22 -->
<g id="node5" class="node">
<title>Node22</title>
<g id="a_node5"><a xlink:href="classHamiltonianOne.html#a9cb71dcb34ab9f0779c0bd66b758185e" target="_top" xlink:title="HamiltonianOne::build">
<polygon fill="none" stroke="#000000" points="410,-6 410,-25 536,-25 536,-6 410,-6"/>
<text text-anchor="middle" x="473" y="-13" font-family="Helvetica,sans-Serif" font-size="10.00" fill="#000000">HamiltonianOne::build</text>
</a>
</g>
</g>
<!-- Node21&#45;&gt;Node22 -->
<g id="edge4" class="edge">
<title>Node21&#45;&gt;Node22</title>
<path fill="none" stroke="#191970" d="M357.3777,-15.5C374.9759,-15.5 393.1931,-15.5 409.8175,-15.5"/>
<polygon fill="#191970" stroke="#191970" points="357.1045,-12.0001 347.1044,-15.5 357.1044,-19.0001 357.1045,-12.0001"/>
</g>
<!-- Node23 -->
<g id="node6" class="node">
<title>Node23</title>
<g id="a_node6"><a xlink:href="classHamiltonianOne.html#ad3ba2d70879a60c9f065b5a2545dfe36" target="_top" xlink:title="HamiltonianOne::HamiltonianOne">
<polygon fill="none" stroke="#000000" points="599,-6 599,-25 781,-25 781,-6 599,-6"/>
<text text-anchor="middle" x="690" y="-13" font-family="Helvetica,sans-Serif" font-size="10.00" fill="#000000">HamiltonianOne::HamiltonianOne</text>
</a>
</g>
</g>
<!-- Node22&#45;&gt;Node23 -->
<g id="edge5" class="edge">
<title>Node22&#45;&gt;Node23</title>
<path fill="none" stroke="#191970" d="M546.3851,-15.5C563.2639,-15.5 581.4135,-15.5 598.9396,-15.5"/>
<polygon fill="#191970" stroke="#191970" points="546.0569,-12.0001 536.0569,-15.5 546.0568,-19.0001 546.0569,-12.0001"/>
</g>
</g>
</svg>
