<?xml version="1.0" encoding="UTF-8" standalone="no"?>
<!DOCTYPE svg PUBLIC "-//W3C//DTD SVG 1.1//EN"
 "http://www.w3.org/Graphics/SVG/1.1/DTD/svg11.dtd">
<!-- Generated by graphviz version 2.40.1 (20161225.0304)
 -->
<!-- Title: SystemTwo::setSurfaceDistance Pages: 1 -->
<svg width="559pt" height="53pt"
 viewBox="0.00 0.00 559.00 52.50" xmlns="http://www.w3.org/2000/svg" xmlns:xlink="http://www.w3.org/1999/xlink">
<g id="graph0" class="graph" transform="scale(1 1) rotate(0) translate(4 48.5)">
<title>SystemTwo::setSurfaceDistance</title>
<!-- Node106 -->
<g id="node1" class="node">
<title>Node106</title>
<polygon fill="#bfbfbf" stroke="#000000" points="0,-6 0,-25 173,-25 173,-6 0,-6"/>
<text text-anchor="middle" x="86.5" y="-13" font-family="Helvetica,sans-Serif" font-size="10.00" fill="#000000">SystemTwo::setSurfaceDistance</text>
</g>
<!-- Node107 -->
<g id="node2" class="node">
<title>Node107</title>
<g id="a_node2"><a xlink:href="classSystemTwo.html#a5201c2042e25fa25d997ac91a150938d" target="_top" xlink:title="SystemTwo::enableGreenTensor">
<polygon fill="none" stroke="#000000" points="209,-25 209,-44 381,-44 381,-25 209,-25"/>
<text text-anchor="middle" x="295" y="-32" font-family="Helvetica,sans-Serif" font-size="10.00" fill="#000000">SystemTwo::enableGreenTensor</text>
</a>
</g>
</g>
<!-- Node106&#45;&gt;Node107 -->
<g id="edge1" class="edge">
<title>Node106&#45;&gt;Node107</title>
<path fill="none" stroke="#191970" d="M173.1114,-23.3926C181.6357,-24.1694 190.3219,-24.961 198.9333,-25.7457"/>
<polygon fill="#191970" stroke="#191970" points="198.7173,-29.2404 208.9937,-26.6625 199.3526,-22.2693 198.7173,-29.2404"/>
</g>
<!-- Node108 -->
<g id="node3" class="node">
<title>Node108</title>
<g id="a_node3"><a xlink:href="classSystemBase.html#a74e9ee0a201336d5c493ed98360ae378" target="_top" xlink:title="Helper method that shoul be called by the derived classes //////. ">
<polygon fill="none" stroke="#000000" points="417,-.5 417,-30.5 551,-30.5 551,-.5 417,-.5"/>
<text text-anchor="start" x="425" y="-18.5" font-family="Helvetica,sans-Serif" font-size="10.00" fill="#000000">SystemBase&lt; StateTwo</text>
<text text-anchor="middle" x="484" y="-7.5" font-family="Helvetica,sans-Serif" font-size="10.00" fill="#000000"> &gt;::onParameterChange</text>
</a>
</g>
</g>
<!-- Node106&#45;&gt;Node108 -->
<g id="edge3" class="edge">
<title>Node106&#45;&gt;Node108</title>
<path fill="none" stroke="#191970" d="M173.2419,-15.5C242.8812,-15.5 339.7608,-15.5 406.7541,-15.5"/>
<polygon fill="#191970" stroke="#191970" points="406.8274,-19.0001 416.8273,-15.5 406.8273,-12.0001 406.8274,-19.0001"/>
</g>
<!-- Node107&#45;&gt;Node108 -->
<g id="edge2" class="edge">
<title>Node107&#45;&gt;Node108</title>
<path fill="none" stroke="#191970" d="M381.2038,-25.834C389.7173,-24.9782 398.3212,-24.1132 406.7364,-23.2672"/>
<polygon fill="#191970" stroke="#191970" points="407.2889,-26.7294 416.8886,-22.2466 406.5887,-19.7645 407.2889,-26.7294"/>
</g>
</g>
</svg>
