<?xml version="1.0" encoding="UTF-8" standalone="no"?>
<!DOCTYPE svg PUBLIC "-//W3C//DTD SVG 1.1//EN"
 "http://www.w3.org/Graphics/SVG/1.1/DTD/svg11.dtd">
<!-- Generated by graphviz version 2.40.1 (20161225.0304)
 -->
<!-- Title: StateOne::getNStar Pages: 1 -->
<svg width="272pt" height="78pt"
 viewBox="0.00 0.00 272.00 77.50" xmlns="http://www.w3.org/2000/svg" xmlns:xlink="http://www.w3.org/1999/xlink">
<g id="graph0" class="graph" transform="scale(1 1) rotate(0) translate(4 73.5)">
<title>StateOne::getNStar</title>
<!-- Node97 -->
<g id="node1" class="node">
<title>Node97</title>
<polygon fill="#bfbfbf" stroke="#000000" points="0,-22.5 0,-41.5 110,-41.5 110,-22.5 0,-22.5"/>
<text text-anchor="middle" x="55" y="-29.5" font-family="Helvetica,sans-Serif" font-size="10.00" fill="#000000">StateOne::getNStar</text>
</g>
<!-- Node98 -->
<g id="node2" class="node">
<title>Node98</title>
<g id="a_node2"><a xlink:href="classMatrixElementCache.html#adbf72f424213871f16927176537fd235" target="_top" xlink:title="MatrixElementCache\l::getDefectDB">
<polygon fill="none" stroke="#000000" points="146,-39 146,-69 264,-69 264,-39 146,-39"/>
<text text-anchor="start" x="154" y="-57" font-family="Helvetica,sans-Serif" font-size="10.00" fill="#000000">MatrixElementCache</text>
<text text-anchor="middle" x="205" y="-46" font-family="Helvetica,sans-Serif" font-size="10.00" fill="#000000">::getDefectDB</text>
</a>
</g>
</g>
<!-- Node97&#45;&gt;Node98 -->
<g id="edge1" class="edge">
<title>Node97&#45;&gt;Node98</title>
<path fill="none" stroke="#191970" d="M110.0027,-40.0671C118.4163,-41.3011 127.1921,-42.5882 135.8627,-43.8599"/>
<polygon fill="#191970" stroke="#191970" points="135.5629,-47.3533 145.965,-45.3415 136.5788,-40.4274 135.5629,-47.3533"/>
</g>
<!-- Node99 -->
<g id="node3" class="node">
<title>Node99</title>
<g id="a_node3"><a xlink:href="QuantumDefect_8cpp.html#abc498d74ac3efaadeac5bb5aee05b1b0" target="_top" xlink:title="nstar">
<polygon fill="none" stroke="#000000" points="184.5,-.5 184.5,-19.5 225.5,-19.5 225.5,-.5 184.5,-.5"/>
<text text-anchor="middle" x="205" y="-7.5" font-family="Helvetica,sans-Serif" font-size="10.00" fill="#000000">nstar</text>
</a>
</g>
</g>
<!-- Node97&#45;&gt;Node99 -->
<g id="edge2" class="edge">
<title>Node97&#45;&gt;Node99</title>
<path fill="none" stroke="#191970" d="M110.0027,-23.9329C131.7715,-20.7402 155.9651,-17.1918 174.4886,-14.475"/>
<polygon fill="#191970" stroke="#191970" points="175.0249,-17.9339 184.4111,-13.0197 174.009,-11.008 175.0249,-17.9339"/>
</g>
</g>
</svg>
