<?xml version="1.0" encoding="UTF-8" standalone="no"?>
<!DOCTYPE svg PUBLIC "-//W3C//DTD SVG 1.1//EN"
 "http://www.w3.org/Graphics/SVG/1.1/DTD/svg11.dtd">
<!-- Generated by graphviz version 2.40.1 (20161225.0304)
 -->
<!-- Title: Hamiltonianmatrix::mergeComplex Pages: 1 -->
<svg width="846pt" height="97pt"
 viewBox="0.00 0.00 846.00 96.50" xmlns="http://www.w3.org/2000/svg" xmlns:xlink="http://www.w3.org/1999/xlink">
<g id="graph0" class="graph" transform="scale(1 1) rotate(0) translate(4 92.5)">
<title>Hamiltonianmatrix::mergeComplex</title>
<!-- Node139 -->
<g id="node1" class="node">
<title>Node139</title>
<polygon fill="#bfbfbf" stroke="#000000" points="0,-36 0,-66 115,-66 115,-36 0,-36"/>
<text text-anchor="start" x="8" y="-54" font-family="Helvetica,sans-Serif" font-size="10.00" fill="#000000">Hamiltonianmatrix::</text>
<text text-anchor="middle" x="57.5" y="-43" font-family="Helvetica,sans-Serif" font-size="10.00" fill="#000000">mergeComplex</text>
</g>
<!-- Node140 -->
<g id="node2" class="node">
<title>Node140</title>
<g id="a_node2"><a xlink:href="classHamiltonianmatrix.html#a15bc9c823975f5395112432c5b8507db" target="_top" xlink:title="Hamiltonianmatrix::\ldoDeserialization">
<polygon fill="none" stroke="#000000" points="151,-36 151,-66 266,-66 266,-36 151,-36"/>
<text text-anchor="start" x="159" y="-54" font-family="Helvetica,sans-Serif" font-size="10.00" fill="#000000">Hamiltonianmatrix::</text>
<text text-anchor="middle" x="208.5" y="-43" font-family="Helvetica,sans-Serif" font-size="10.00" fill="#000000">doDeserialization</text>
</a>
</g>
</g>
<!-- Node139&#45;&gt;Node140 -->
<g id="edge1" class="edge">
<title>Node139&#45;&gt;Node140</title>
<path fill="none" stroke="#191970" d="M125.0519,-51C133.6779,-51 142.4438,-51 150.8925,-51"/>
<polygon fill="#191970" stroke="#191970" points="125.0174,-47.5001 115.0174,-51 125.0173,-54.5001 125.0174,-47.5001"/>
</g>
<!-- Node141 -->
<g id="node3" class="node">
<title>Node141</title>
<g id="a_node3"><a xlink:href="classHamiltonianmatrix.html#a7701e7aa1798719ed21b0ef41b049814" target="_top" xlink:title="Hamiltonianmatrix::\ldeserialize">
<polygon fill="none" stroke="#000000" points="312.5,-58 312.5,-88 427.5,-88 427.5,-58 312.5,-58"/>
<text text-anchor="start" x="320.5" y="-76" font-family="Helvetica,sans-Serif" font-size="10.00" fill="#000000">Hamiltonianmatrix::</text>
<text text-anchor="middle" x="370" y="-65" font-family="Helvetica,sans-Serif" font-size="10.00" fill="#000000">deserialize</text>
</a>
</g>
</g>
<!-- Node140&#45;&gt;Node141 -->
<g id="edge2" class="edge">
<title>Node140&#45;&gt;Node141</title>
<path fill="none" stroke="#191970" d="M276.2891,-60.2344C288.2603,-61.8652 300.6217,-63.5491 312.2836,-65.1377"/>
<polygon fill="#191970" stroke="#191970" points="276.73,-56.7622 266.349,-58.8804 275.7851,-63.6982 276.73,-56.7622"/>
</g>
<!-- Node142 -->
<g id="node4" class="node">
<title>Node142</title>
<g id="a_node4"><a xlink:href="classHamiltonianmatrix.html#ab5561740a111d0e9dc53c865009176a5" target="_top" xlink:title="Hamiltonianmatrix::load">
<polygon fill="none" stroke="#000000" points="302,-19.5 302,-38.5 438,-38.5 438,-19.5 302,-19.5"/>
<text text-anchor="middle" x="370" y="-26.5" font-family="Helvetica,sans-Serif" font-size="10.00" fill="#000000">Hamiltonianmatrix::load</text>
</a>
</g>
</g>
<!-- Node140&#45;&gt;Node142 -->
<g id="edge3" class="edge">
<title>Node140&#45;&gt;Node142</title>
<path fill="none" stroke="#191970" d="M276.4611,-41.7421C284.8486,-40.5996 293.425,-39.4313 301.8158,-38.2883"/>
<polygon fill="#191970" stroke="#191970" points="275.7851,-38.3018 266.349,-43.1196 276.73,-45.2378 275.7851,-38.3018"/>
</g>
<!-- Node143 -->
<g id="node5" class="node">
<title>Node143</title>
<g id="a_node5"><a xlink:href="classHamiltonianOne.html#a9cb71dcb34ab9f0779c0bd66b758185e" target="_top" xlink:title="HamiltonianOne::build">
<polygon fill="none" stroke="#000000" points="484,-38.5 484,-57.5 610,-57.5 610,-38.5 484,-38.5"/>
<text text-anchor="middle" x="547" y="-45.5" font-family="Helvetica,sans-Serif" font-size="10.00" fill="#000000">HamiltonianOne::build</text>
</a>
</g>
</g>
<!-- Node142&#45;&gt;Node143 -->
<g id="edge4" class="edge">
<title>Node142&#45;&gt;Node143</title>
<path fill="none" stroke="#191970" d="M448.4784,-37.4242C460.2929,-38.6925 472.3487,-39.9866 483.7891,-41.2146"/>
<polygon fill="#191970" stroke="#191970" points="448.4961,-33.9061 438.1796,-36.3187 447.7489,-40.8661 448.4961,-33.9061"/>
</g>
<!-- Node145 -->
<g id="node7" class="node">
<title>Node145</title>
<g id="a_node7"><a xlink:href="classHamiltonianTwo.html#a6ca0a318f25170b69e571a07064a5afb" target="_top" xlink:title="HamiltonianTwo::calculate">
<polygon fill="none" stroke="#000000" points="474,-.5 474,-19.5 620,-19.5 620,-.5 474,-.5"/>
<text text-anchor="middle" x="547" y="-7.5" font-family="Helvetica,sans-Serif" font-size="10.00" fill="#000000">HamiltonianTwo::calculate</text>
</a>
</g>
</g>
<!-- Node142&#45;&gt;Node145 -->
<g id="edge6" class="edge">
<title>Node142&#45;&gt;Node145</title>
<path fill="none" stroke="#191970" d="M448.1391,-20.6122C456.6908,-19.6942 465.3734,-18.7622 473.8616,-17.851"/>
<polygon fill="#191970" stroke="#191970" points="447.7489,-17.1339 438.1796,-21.6813 448.4961,-24.0939 447.7489,-17.1339"/>
</g>
<!-- Node144 -->
<g id="node6" class="node">
<title>Node144</title>
<g id="a_node6"><a xlink:href="classHamiltonianOne.html#ad3ba2d70879a60c9f065b5a2545dfe36" target="_top" xlink:title="HamiltonianOne::HamiltonianOne">
<polygon fill="none" stroke="#000000" points="656,-38.5 656,-57.5 838,-57.5 838,-38.5 656,-38.5"/>
<text text-anchor="middle" x="747" y="-45.5" font-family="Helvetica,sans-Serif" font-size="10.00" fill="#000000">HamiltonianOne::HamiltonianOne</text>
</a>
</g>
</g>
<!-- Node143&#45;&gt;Node144 -->
<g id="edge5" class="edge">
<title>Node143&#45;&gt;Node144</title>
<path fill="none" stroke="#191970" d="M620.0601,-48C631.6733,-48 643.8104,-48 655.7784,-48"/>
<polygon fill="#191970" stroke="#191970" points="620.0068,-44.5001 610.0067,-48 620.0067,-51.5001 620.0068,-44.5001"/>
</g>
<!-- Node146 -->
<g id="node8" class="node">
<title>Node146</title>
<g id="a_node8"><a xlink:href="classHamiltonianTwo.html#abd374713c9b38f72265c7fe496c42b96" target="_top" xlink:title="HamiltonianTwo::HamiltonianTwo">
<polygon fill="none" stroke="#000000" points="657,-.5 657,-19.5 837,-19.5 837,-.5 657,-.5"/>
<text text-anchor="middle" x="747" y="-7.5" font-family="Helvetica,sans-Serif" font-size="10.00" fill="#000000">HamiltonianTwo::HamiltonianTwo</text>
</a>
</g>
</g>
<!-- Node145&#45;&gt;Node146 -->
<g id="edge7" class="edge">
<title>Node145&#45;&gt;Node146</title>
<path fill="none" stroke="#191970" d="M630.2425,-10C639.0053,-10 647.9449,-10 656.7816,-10"/>
<polygon fill="#191970" stroke="#191970" points="630.0536,-6.5001 620.0536,-10 630.0535,-13.5001 630.0536,-6.5001"/>
</g>
</g>
</svg>
