<?xml version="1.0" encoding="UTF-8" standalone="no"?>
<!DOCTYPE svg PUBLIC "-//W3C//DTD SVG 1.1//EN"
 "http://www.w3.org/Graphics/SVG/1.1/DTD/svg11.dtd">
<!-- Generated by graphviz version 2.40.1 (20161225.0304)
 -->
<!-- Title: StateOne::getEnergy Pages: 1 -->
<svg width="279pt" height="78pt"
 viewBox="0.00 0.00 279.00 77.50" xmlns="http://www.w3.org/2000/svg" xmlns:xlink="http://www.w3.org/1999/xlink">
<g id="graph0" class="graph" transform="scale(1 1) rotate(0) translate(4 73.5)">
<title>StateOne::getEnergy</title>
<!-- Node22 -->
<g id="node1" class="node">
<title>Node22</title>
<polygon fill="#bfbfbf" stroke="#000000" points="0,-28 0,-47 117,-47 117,-28 0,-28"/>
<text text-anchor="middle" x="58.5" y="-35" font-family="Helvetica,sans-Serif" font-size="10.00" fill="#000000">StateOne::getEnergy</text>
</g>
<!-- Node23 -->
<g id="node2" class="node">
<title>Node23</title>
<g id="a_node2"><a xlink:href="QuantumDefect_8cpp.html#ac472df8bb08bd6ff27c7ef7633ae62c5" target="_top" xlink:title="Returns only the energy of a state. ">
<polygon fill="none" stroke="#000000" points="172,-50 172,-69 252,-69 252,-50 172,-50"/>
<text text-anchor="middle" x="212" y="-57" font-family="Helvetica,sans-Serif" font-size="10.00" fill="#000000">energy_level</text>
</a>
</g>
</g>
<!-- Node22&#45;&gt;Node23 -->
<g id="edge1" class="edge">
<title>Node22&#45;&gt;Node23</title>
<path fill="none" stroke="#191970" d="M117.4081,-45.9429C131.9673,-48.0295 147.4333,-50.2461 161.5491,-52.2693"/>
<polygon fill="#191970" stroke="#191970" points="161.1613,-55.7494 171.5568,-53.7036 162.1545,-48.8202 161.1613,-55.7494"/>
</g>
<!-- Node24 -->
<g id="node3" class="node">
<title>Node24</title>
<g id="a_node3"><a xlink:href="classMatrixElementCache.html#adbf72f424213871f16927176537fd235" target="_top" xlink:title="MatrixElementCache\l::getDefectDB">
<polygon fill="none" stroke="#000000" points="153,-.5 153,-30.5 271,-30.5 271,-.5 153,-.5"/>
<text text-anchor="start" x="161" y="-18.5" font-family="Helvetica,sans-Serif" font-size="10.00" fill="#000000">MatrixElementCache</text>
<text text-anchor="middle" x="212" y="-7.5" font-family="Helvetica,sans-Serif" font-size="10.00" fill="#000000">::getDefectDB</text>
</a>
</g>
</g>
<!-- Node22&#45;&gt;Node24 -->
<g id="edge2" class="edge">
<title>Node22&#45;&gt;Node24</title>
<path fill="none" stroke="#191970" d="M117.4081,-29.0571C125.7941,-27.8552 134.4809,-26.6102 143.0372,-25.3839"/>
<polygon fill="#191970" stroke="#191970" points="143.5936,-28.84 152.9959,-23.9566 142.6005,-21.9108 143.5936,-28.84"/>
</g>
</g>
</svg>
