<?xml version="1.0" encoding="UTF-8" standalone="no"?>
<!DOCTYPE svg PUBLIC "-//W3C//DTD SVG 1.1//EN"
 "http://www.w3.org/Graphics/SVG/1.1/DTD/svg11.dtd">
<!-- Generated by graphviz version 2.40.1 (20161225.0304)
 -->
<!-- Title: Hamiltonianmatrix::num_basisvectors Pages: 1 -->
<!--zoomable 302 -->
<svg id="main" version="1.1" xmlns="http://www.w3.org/2000/svg" xmlns:xlink="http://www.w3.org/1999/xlink" xml:space="preserve" onload="init(evt)">
<style type="text/css"><![CDATA[
.edge:hover path { stroke: red; }
.edge:hover polygon { stroke: red; fill: red; }
]]></style>
<script type="text/javascript"><![CDATA[
var edges = document.getElementsByTagName('g');
if (edges && edges.length) {
  for (var i=0;i<edges.length;i++) {
    if (edges[i].id.substr(0,4)=='edge') {
      edges[i].setAttribute('class','edge');
    }
  }
}
]]></script>
        <defs>
                <circle id="rim" cx="0" cy="0" r="7"/>
                <circle id="rim2" cx="0" cy="0" r="3.5"/>
                <g id="zoomPlus">
                        <use xlink:href="#rim" fill="#404040">
                                <set attributeName="fill" to="#808080" begin="zoomplus.mouseover" end="zoomplus.mouseout"/>
                        </use>
                        <path d="M-4,0h8M0,-4v8" fill="none" stroke="white" stroke-width="1.5" pointer-events="none"/>
                </g>
                <g id="zoomMin">
                        <use xlink:href="#rim" fill="#404040">
                                <set attributeName="fill" to="#808080" begin="zoomminus.mouseover" end="zoomminus.mouseout"/>
                        </use>
                        <path d="M-4,0h8" fill="none" stroke="white" stroke-width="1.5" pointer-events="none"/>
                </g>
                <g id="dirArrow">
                        <path fill="none" stroke="white" stroke-width="1.5" d="M0,-3.0v7 M-2.5,-0.5L0,-3.0L2.5,-0.5"/>
                </g>
               <g id="resetDef">
                       <use xlink:href="#rim2" fill="#404040">
                               <set attributeName="fill" to="#808080" begin="reset.mouseover" end="reset.mouseout"/>
                       </use>
               </g>
        </defs>

<script type="text/javascript">
var viewWidth = 738;
var viewHeight = 302;
var sectionId = 'dynsection-26';
</script>
<script xlink:href="svgpan.js"/>
<svg id="graph" class="graph">
<g id="viewport">
<title>Hamiltonianmatrix::num_basisvectors</title>
<!-- Node150 -->
<g id="node1" class="node">
<title>Node150</title>
<polygon fill="#bfbfbf" stroke="#000000" points="0,-131.5 0,-161.5 115,-161.5 115,-131.5 0,-131.5"/>
<text text-anchor="start" x="8" y="-149.5" font-family="Helvetica,sans-Serif" font-size="10.00" fill="#000000">Hamiltonianmatrix::</text>
<text text-anchor="middle" x="57.5" y="-138.5" font-family="Helvetica,sans-Serif" font-size="10.00" fill="#000000">num_basisvectors</text>
</g>
<!-- Node151 -->
<g id="node2" class="node">
<title>Node151</title>
<g id="a_node2"><a xlink:href="classHamiltonianmatrix.html#ae853573db74eee2e78215465d08f1486" target="_top" xlink:title="Hamiltonianmatrix::\lapplyCutoff">
<polygon fill="none" stroke="#000000" points="183,-263.5 183,-293.5 298,-293.5 298,-263.5 183,-263.5"/>
<text text-anchor="start" x="191" y="-281.5" font-family="Helvetica,sans-Serif" font-size="10.00" fill="#000000">Hamiltonianmatrix::</text>
<text text-anchor="middle" x="240.5" y="-270.5" font-family="Helvetica,sans-Serif" font-size="10.00" fill="#000000">applyCutoff</text>
</a>
</g>
</g>
<!-- Node150&#45;&gt;Node151 -->
<g id="edge1" class="edge">
<title>Node150&#45;&gt;Node151</title>
<path fill="none" stroke="#191970" d="M73.3302,-169.7258C90.1265,-192.7368 118.6686,-227.4955 151,-248.5 160.6197,-254.7495 171.6704,-259.8244 182.6502,-263.8997"/>
<polygon fill="#191970" stroke="#191970" points="76.1427,-167.6415 67.4846,-161.535 70.4449,-171.7079 76.1427,-167.6415"/>
</g>
<!-- Node152 -->
<g id="node3" class="node">
<title>Node152</title>
<g id="a_node3"><a xlink:href="classHamiltonianOne.html#a9cb71dcb34ab9f0779c0bd66b758185e" target="_top" xlink:title="HamiltonianOne::build">
<polygon fill="none" stroke="#000000" points="376,-203 376,-222 502,-222 502,-203 376,-203"/>
<text text-anchor="middle" x="439" y="-210" font-family="Helvetica,sans-Serif" font-size="10.00" fill="#000000">HamiltonianOne::build</text>
</a>
</g>
</g>
<!-- Node150&#45;&gt;Node152 -->
<g id="edge2" class="edge">
<title>Node150&#45;&gt;Node152</title>
<path fill="none" stroke="#191970" d="M79.0695,-168.7773C96.6577,-185.2364 123.0812,-206.3137 151,-215.5 232.4584,-242.3028 334.0283,-231.8476 392.2053,-222.0254"/>
<polygon fill="#191970" stroke="#191970" points="81.2612,-166.0283 71.6365,-161.5993 76.3986,-171.0637 81.2612,-166.0283"/>
</g>
<!-- Node154 -->
<g id="node5" class="node">
<title>Node154</title>
<g id="a_node5"><a xlink:href="classHamiltonianTwo.html#a6ca0a318f25170b69e571a07064a5afb" target="_top" xlink:title="HamiltonianTwo::calculate">
<polygon fill="none" stroke="#000000" points="366,-118 366,-137 512,-137 512,-118 366,-118"/>
<text text-anchor="middle" x="439" y="-125" font-family="Helvetica,sans-Serif" font-size="10.00" fill="#000000">HamiltonianTwo::calculate</text>
</a>
</g>
</g>
<!-- Node150&#45;&gt;Node154 -->
<g id="edge4" class="edge">
<title>Node150&#45;&gt;Node154</title>
<path fill="none" stroke="#191970" d="M125.1497,-143.1308C192.7893,-139.7621 296.4787,-134.598 365.9595,-131.1377"/>
<polygon fill="#191970" stroke="#191970" points="124.841,-139.6418 115.0275,-143.6349 125.1892,-146.6331 124.841,-139.6418"/>
</g>
<!-- Node156 -->
<g id="node7" class="node">
<title>Node156</title>
<g id="a_node7"><a xlink:href="Hamiltonianmatrix_8cpp.html#ae139c21d132020dde7c86db8efc751e1" target="_top" xlink:title="combine">
<polygon fill="none" stroke="#000000" points="211,-99 211,-118 270,-118 270,-99 211,-99"/>
<text text-anchor="middle" x="240.5" y="-106" font-family="Helvetica,sans-Serif" font-size="10.00" fill="#000000">combine</text>
</a>
</g>
</g>
<!-- Node150&#45;&gt;Node156 -->
<g id="edge6" class="edge">
<title>Node150&#45;&gt;Node156</title>
<path fill="none" stroke="#191970" d="M124.9996,-132.4837C154.5024,-126.3574 187.5873,-119.4873 210.7604,-114.6754"/>
<polygon fill="#191970" stroke="#191970" points="124.2307,-129.0686 115.1512,-134.5287 125.6539,-135.9224 124.2307,-129.0686"/>
</g>
<!-- Node157 -->
<g id="node8" class="node">
<title>Node157</title>
<g id="a_node8"><a xlink:href="classHamiltonianmatrix.html#a1db6d20a1d88ef89f1acdad819af34ee" target="_top" xlink:title="Hamiltonianmatrix::\ldiagonalize">
<polygon fill="none" stroke="#000000" points="183,-175.5 183,-205.5 298,-205.5 298,-175.5 183,-175.5"/>
<text text-anchor="start" x="191" y="-193.5" font-family="Helvetica,sans-Serif" font-size="10.00" fill="#000000">Hamiltonianmatrix::</text>
<text text-anchor="middle" x="240.5" y="-182.5" font-family="Helvetica,sans-Serif" font-size="10.00" fill="#000000">diagonalize</text>
</a>
</g>
</g>
<!-- Node150&#45;&gt;Node157 -->
<g id="edge8" class="edge">
<title>Node150&#45;&gt;Node157</title>
<path fill="none" stroke="#191970" d="M124.9361,-162.7142C143.9443,-167.2844 164.4439,-172.2133 182.8243,-176.6326"/>
<polygon fill="#191970" stroke="#191970" points="125.6923,-159.2963 115.1512,-160.3615 124.0558,-166.1023 125.6923,-159.2963"/>
</g>
<!-- Node158 -->
<g id="node9" class="node">
<title>Node158</title>
<g id="a_node9"><a xlink:href="classHamiltonianmatrix.html#a5958f8545a449aaac4355b60b5587a91" target="_top" xlink:title="Hamiltonianmatrix::\lgetBlock">
<polygon fill="none" stroke="#000000" points="183,-49.5 183,-79.5 298,-79.5 298,-49.5 183,-49.5"/>
<text text-anchor="start" x="191" y="-67.5" font-family="Helvetica,sans-Serif" font-size="10.00" fill="#000000">Hamiltonianmatrix::</text>
<text text-anchor="middle" x="240.5" y="-56.5" font-family="Helvetica,sans-Serif" font-size="10.00" fill="#000000">getBlock</text>
</a>
</g>
</g>
<!-- Node150&#45;&gt;Node158 -->
<g id="edge11" class="edge">
<title>Node150&#45;&gt;Node158</title>
<path fill="none" stroke="#191970" d="M86.7781,-125.7617C104.6617,-113.8423 128.3739,-99.332 151,-89.5 161.0615,-85.1278 172.0927,-81.3144 182.8685,-78.0715"/>
<polygon fill="#191970" stroke="#191970" points="84.8123,-122.8658 78.4974,-131.373 88.7392,-128.6606 84.8123,-122.8658"/>
</g>
<!-- Node159 -->
<g id="node10" class="node">
<title>Node159</title>
<g id="a_node10"><a xlink:href="classHamiltonianmatrix.html#a2ff416efff07de6e3df93948c2688989" target="_top" xlink:title="Hamiltonianmatrix::\lremoveUnnecessaryBasisvectors">
<polygon fill="none" stroke="#000000" points="151,-.5 151,-30.5 330,-30.5 330,-.5 151,-.5"/>
<text text-anchor="start" x="159" y="-18.5" font-family="Helvetica,sans-Serif" font-size="10.00" fill="#000000">Hamiltonianmatrix::</text>
<text text-anchor="middle" x="240.5" y="-7.5" font-family="Helvetica,sans-Serif" font-size="10.00" fill="#000000">removeUnnecessaryBasisvectors</text>
</a>
</g>
</g>
<!-- Node150&#45;&gt;Node159 -->
<g id="edge12" class="edge">
<title>Node150&#45;&gt;Node159</title>
<path fill="none" stroke="#191970" d="M72.3577,-122.7848C88.7312,-98.5822 117.2667,-61.6575 151,-40.5 157.1502,-36.6426 163.9038,-33.3688 170.8584,-30.5926"/>
<polygon fill="#191970" stroke="#191970" points="69.2743,-121.103 66.6923,-131.3784 75.1186,-124.9558 69.2743,-121.103"/>
</g>
<!-- Node153 -->
<g id="node4" class="node">
<title>Node153</title>
<g id="a_node4"><a xlink:href="classHamiltonianOne.html#ad3ba2d70879a60c9f065b5a2545dfe36" target="_top" xlink:title="HamiltonianOne::HamiltonianOne">
<polygon fill="none" stroke="#000000" points="548,-203 548,-222 730,-222 730,-203 548,-203"/>
<text text-anchor="middle" x="639" y="-210" font-family="Helvetica,sans-Serif" font-size="10.00" fill="#000000">HamiltonianOne::HamiltonianOne</text>
</a>
</g>
</g>
<!-- Node152&#45;&gt;Node153 -->
<g id="edge3" class="edge">
<title>Node152&#45;&gt;Node153</title>
<path fill="none" stroke="#191970" d="M512.0601,-212.5C523.6733,-212.5 535.8104,-212.5 547.7784,-212.5"/>
<polygon fill="#191970" stroke="#191970" points="512.0068,-209.0001 502.0067,-212.5 512.0067,-216.0001 512.0068,-209.0001"/>
</g>
<!-- Node155 -->
<g id="node6" class="node">
<title>Node155</title>
<g id="a_node6"><a xlink:href="classHamiltonianTwo.html#abd374713c9b38f72265c7fe496c42b96" target="_top" xlink:title="HamiltonianTwo::HamiltonianTwo">
<polygon fill="none" stroke="#000000" points="549,-118 549,-137 729,-137 729,-118 549,-118"/>
<text text-anchor="middle" x="639" y="-125" font-family="Helvetica,sans-Serif" font-size="10.00" fill="#000000">HamiltonianTwo::HamiltonianTwo</text>
</a>
</g>
</g>
<!-- Node154&#45;&gt;Node155 -->
<g id="edge5" class="edge">
<title>Node154&#45;&gt;Node155</title>
<path fill="none" stroke="#191970" d="M522.2425,-127.5C531.0053,-127.5 539.9449,-127.5 548.7816,-127.5"/>
<polygon fill="#191970" stroke="#191970" points="522.0536,-124.0001 512.0536,-127.5 522.0535,-131.0001 522.0536,-124.0001"/>
</g>
<!-- Node156&#45;&gt;Node154 -->
<g id="edge7" class="edge">
<title>Node156&#45;&gt;Node154</title>
<path fill="none" stroke="#191970" d="M280.1992,-112.2999C304.6572,-114.641 336.7705,-117.7148 365.7148,-120.4853"/>
<polygon fill="#191970" stroke="#191970" points="280.5055,-108.8133 270.2175,-111.3445 279.8384,-115.7815 280.5055,-108.8133"/>
</g>
<!-- Node157&#45;&gt;Node152 -->
<g id="edge9" class="edge">
<title>Node157&#45;&gt;Node152</title>
<path fill="none" stroke="#191970" d="M308.391,-198.0244C330.2806,-200.4505 354.4384,-203.1279 375.9627,-205.5135"/>
<polygon fill="#191970" stroke="#191970" points="308.5058,-194.5158 298.1811,-196.8929 307.7346,-201.4732 308.5058,-194.5158"/>
</g>
<!-- Node157&#45;&gt;Node154 -->
<g id="edge10" class="edge">
<title>Node157&#45;&gt;Node154</title>
<path fill="none" stroke="#191970" d="M297.7766,-172.3215C334.1108,-160.7898 379.6448,-146.3382 409.0239,-137.0138"/>
<polygon fill="#191970" stroke="#191970" points="296.2662,-169.1288 287.7935,-175.49 298.3838,-175.8008 296.2662,-169.1288"/>
</g>
<!-- Node159&#45;&gt;Node154 -->
<g id="edge13" class="edge">
<title>Node159&#45;&gt;Node154</title>
<path fill="none" stroke="#191970" d="M315.7438,-34.0816C320.6536,-36.0357 325.4492,-38.1711 330,-40.5 371.3836,-61.6781 412.0043,-100.0265 429.7282,-117.8771"/>
<polygon fill="#191970" stroke="#191970" points="316.7882,-30.7361 306.1951,-30.5439 314.3563,-37.3001 316.7882,-30.7361"/>
</g>
</g>
</svg>
        <g id="navigator" transform="translate(0 0)" fill="#404254">
                <rect fill="#f2f5e9" fill-opacity="0.5" stroke="#606060" stroke-width=".5" x="0" y="0" width="60" height="60"/>
                <use id="zoomplus" xlink:href="#zoomPlus" x="17" y="9" onmousedown="handleZoom(evt,'in')"/>
                <use id="zoomminus" xlink:href="#zoomMin" x="42" y="9" onmousedown="handleZoom(evt,'out')"/>
                <use id="reset" xlink:href="#resetDef" x="30" y="36" onmousedown="handleReset()"/>
                <g id="arrowUp" xlink:href="#dirArrow" transform="translate(30 24)" onmousedown="handlePan(0,-1)">
                  <use xlink:href="#rim" fill="#404040">
                        <set attributeName="fill" to="#808080" begin="arrowUp.mouseover" end="arrowUp.mouseout"/>
                  </use>
                  <path fill="none" stroke="white" stroke-width="1.5" d="M0,-3.0v7 M-2.5,-0.5L0,-3.0L2.5,-0.5"/>
                </g>
                <g id="arrowRight" xlink:href="#dirArrow" transform="rotate(90) translate(36 -43)" onmousedown="handlePan(1,0)">
                  <use xlink:href="#rim" fill="#404040">
                        <set attributeName="fill" to="#808080" begin="arrowRight.mouseover" end="arrowRight.mouseout"/>
                  </use>
                  <path fill="none" stroke="white" stroke-width="1.5" d="M0,-3.0v7 M-2.5,-0.5L0,-3.0L2.5,-0.5"/>
                </g>
                <g id="arrowDown" xlink:href="#dirArrow" transform="rotate(180) translate(-30 -48)" onmousedown="handlePan(0,1)">
                  <use xlink:href="#rim" fill="#404040">
                        <set attributeName="fill" to="#808080" begin="arrowDown.mouseover" end="arrowDown.mouseout"/>
                  </use>
                  <path fill="none" stroke="white" stroke-width="1.5" d="M0,-3.0v7 M-2.5,-0.5L0,-3.0L2.5,-0.5"/>
                </g>
                <g id="arrowLeft" xlink:href="#dirArrow" transform="rotate(270) translate(-36 17)" onmousedown="handlePan(-1,0)">
                  <use xlink:href="#rim" fill="#404040">
                        <set attributeName="fill" to="#808080" begin="arrowLeft.mouseover" end="arrowLeft.mouseout"/>
                  </use>
                  <path fill="none" stroke="white" stroke-width="1.5" d="M0,-3.0v7 M-2.5,-0.5L0,-3.0L2.5,-0.5"/>
                </g>
        </g>
        <svg viewBox="0 0 15 15" width="100%" height="30px" preserveAspectRatio="xMaxYMin meet">
         <g id="arrow_out" transform="scale(0.3 0.3)">
          <a xlink:href="classHamiltonianmatrix_a4069febf25da1723d9cc8e27cd2cd669_icgraph_org.svg" target="_base">
           <rect id="button" ry="5" rx="5" y="6" x="6" height="38" width="38"
                fill="#f2f5e9" fill-opacity="0.5" stroke="#606060" stroke-width="1.0"/>
           <path id="arrow"
             d="M 11.500037,31.436501 C 11.940474,20.09759 22.043105,11.32322 32.158766,21.979434 L 37.068811,17.246167 C 37.068811,17.246167 37.088388,32 37.088388,32 L 22.160133,31.978069 C 22.160133,31.978069 26.997745,27.140456 26.997745,27.140456 C 18.528582,18.264221 13.291696,25.230495 11.500037,31.436501 z"
             style="fill:#404040;"/>
          </a>
         </g>
        </svg>
</svg>
