<?xml version="1.0" encoding="UTF-8" standalone="no"?>
<!DOCTYPE svg PUBLIC "-//W3C//DTD SVG 1.1//EN"
 "http://www.w3.org/Graphics/SVG/1.1/DTD/svg11.dtd">
<!-- Generated by graphviz version 2.40.1 (20161225.0304)
 -->
<!-- Title: Hamiltonianmatrix::doDeserialization Pages: 1 -->
<!--zoomable 97 -->
<svg id="main" version="1.1" xmlns="http://www.w3.org/2000/svg" xmlns:xlink="http://www.w3.org/1999/xlink" xml:space="preserve" onload="init(evt)">
<style type="text/css"><![CDATA[
.edge:hover path { stroke: red; }
.edge:hover polygon { stroke: red; fill: red; }
]]></style>
<script type="text/javascript"><![CDATA[
var edges = document.getElementsByTagName('g');
if (edges && edges.length) {
  for (var i=0;i<edges.length;i++) {
    if (edges[i].id.substr(0,4)=='edge') {
      edges[i].setAttribute('class','edge');
    }
  }
}
]]></script>
        <defs>
                <circle id="rim" cx="0" cy="0" r="7"/>
                <circle id="rim2" cx="0" cy="0" r="3.5"/>
                <g id="zoomPlus">
                        <use xlink:href="#rim" fill="#404040">
                                <set attributeName="fill" to="#808080" begin="zoomplus.mouseover" end="zoomplus.mouseout"/>
                        </use>
                        <path d="M-4,0h8M0,-4v8" fill="none" stroke="white" stroke-width="1.5" pointer-events="none"/>
                </g>
                <g id="zoomMin">
                        <use xlink:href="#rim" fill="#404040">
                                <set attributeName="fill" to="#808080" begin="zoomminus.mouseover" end="zoomminus.mouseout"/>
                        </use>
                        <path d="M-4,0h8" fill="none" stroke="white" stroke-width="1.5" pointer-events="none"/>
                </g>
                <g id="dirArrow">
                        <path fill="none" stroke="white" stroke-width="1.5" d="M0,-3.0v7 M-2.5,-0.5L0,-3.0L2.5,-0.5"/>
                </g>
               <g id="resetDef">
                       <use xlink:href="#rim2" fill="#404040">
                               <set attributeName="fill" to="#808080" begin="reset.mouseover" end="reset.mouseout"/>
                       </use>
               </g>
        </defs>

<script type="text/javascript">
var viewWidth = 695;
var viewHeight = 97;
var sectionId = 'dynsection-15';
</script>
<script xlink:href="svgpan.js"/>
<svg id="graph" class="graph">
<g id="viewport">
<title>Hamiltonianmatrix::doDeserialization</title>
<!-- Node74 -->
<g id="node1" class="node">
<title>Node74</title>
<polygon fill="#bfbfbf" stroke="#000000" points="0,-36 0,-66 115,-66 115,-36 0,-36"/>
<text text-anchor="start" x="8" y="-54" font-family="Helvetica,sans-Serif" font-size="10.00" fill="#000000">Hamiltonianmatrix::</text>
<text text-anchor="middle" x="57.5" y="-43" font-family="Helvetica,sans-Serif" font-size="10.00" fill="#000000">doDeserialization</text>
</g>
<!-- Node75 -->
<g id="node2" class="node">
<title>Node75</title>
<g id="a_node2"><a xlink:href="classHamiltonianmatrix.html#a7701e7aa1798719ed21b0ef41b049814" target="_top" xlink:title="Hamiltonianmatrix::\ldeserialize">
<polygon fill="none" stroke="#000000" points="161.5,-58 161.5,-88 276.5,-88 276.5,-58 161.5,-58"/>
<text text-anchor="start" x="169.5" y="-76" font-family="Helvetica,sans-Serif" font-size="10.00" fill="#000000">Hamiltonianmatrix::</text>
<text text-anchor="middle" x="219" y="-65" font-family="Helvetica,sans-Serif" font-size="10.00" fill="#000000">deserialize</text>
</a>
</g>
</g>
<!-- Node74&#45;&gt;Node75 -->
<g id="edge1" class="edge">
<title>Node74&#45;&gt;Node75</title>
<path fill="none" stroke="#191970" d="M125.2891,-60.2344C137.2603,-61.8652 149.6217,-63.5491 161.2836,-65.1377"/>
<polygon fill="#191970" stroke="#191970" points="125.73,-56.7622 115.349,-58.8804 124.7851,-63.6982 125.73,-56.7622"/>
</g>
<!-- Node76 -->
<g id="node3" class="node">
<title>Node76</title>
<g id="a_node3"><a xlink:href="classHamiltonianmatrix.html#ab5561740a111d0e9dc53c865009176a5" target="_top" xlink:title="Hamiltonianmatrix::load">
<polygon fill="none" stroke="#000000" points="151,-19.5 151,-38.5 287,-38.5 287,-19.5 151,-19.5"/>
<text text-anchor="middle" x="219" y="-26.5" font-family="Helvetica,sans-Serif" font-size="10.00" fill="#000000">Hamiltonianmatrix::load</text>
</a>
</g>
</g>
<!-- Node74&#45;&gt;Node76 -->
<g id="edge2" class="edge">
<title>Node74&#45;&gt;Node76</title>
<path fill="none" stroke="#191970" d="M125.4611,-41.7421C133.8486,-40.5996 142.425,-39.4313 150.8158,-38.2883"/>
<polygon fill="#191970" stroke="#191970" points="124.7851,-38.3018 115.349,-43.1196 125.73,-45.2378 124.7851,-38.3018"/>
</g>
<!-- Node77 -->
<g id="node4" class="node">
<title>Node77</title>
<g id="a_node4"><a xlink:href="classHamiltonianOne.html#a9cb71dcb34ab9f0779c0bd66b758185e" target="_top" xlink:title="HamiltonianOne::build">
<polygon fill="none" stroke="#000000" points="333,-38.5 333,-57.5 459,-57.5 459,-38.5 333,-38.5"/>
<text text-anchor="middle" x="396" y="-45.5" font-family="Helvetica,sans-Serif" font-size="10.00" fill="#000000">HamiltonianOne::build</text>
</a>
</g>
</g>
<!-- Node76&#45;&gt;Node77 -->
<g id="edge3" class="edge">
<title>Node76&#45;&gt;Node77</title>
<path fill="none" stroke="#191970" d="M297.4784,-37.4242C309.2929,-38.6925 321.3487,-39.9866 332.7891,-41.2146"/>
<polygon fill="#191970" stroke="#191970" points="297.4961,-33.9061 287.1796,-36.3187 296.7489,-40.8661 297.4961,-33.9061"/>
</g>
<!-- Node79 -->
<g id="node6" class="node">
<title>Node79</title>
<g id="a_node6"><a xlink:href="classHamiltonianTwo.html#a6ca0a318f25170b69e571a07064a5afb" target="_top" xlink:title="HamiltonianTwo::calculate">
<polygon fill="none" stroke="#000000" points="323,-.5 323,-19.5 469,-19.5 469,-.5 323,-.5"/>
<text text-anchor="middle" x="396" y="-7.5" font-family="Helvetica,sans-Serif" font-size="10.00" fill="#000000">HamiltonianTwo::calculate</text>
</a>
</g>
</g>
<!-- Node76&#45;&gt;Node79 -->
<g id="edge5" class="edge">
<title>Node76&#45;&gt;Node79</title>
<path fill="none" stroke="#191970" d="M297.1391,-20.6122C305.6908,-19.6942 314.3734,-18.7622 322.8616,-17.851"/>
<polygon fill="#191970" stroke="#191970" points="296.7489,-17.1339 287.1796,-21.6813 297.4961,-24.0939 296.7489,-17.1339"/>
</g>
<!-- Node78 -->
<g id="node5" class="node">
<title>Node78</title>
<g id="a_node5"><a xlink:href="classHamiltonianOne.html#ad3ba2d70879a60c9f065b5a2545dfe36" target="_top" xlink:title="HamiltonianOne::HamiltonianOne">
<polygon fill="none" stroke="#000000" points="505,-38.5 505,-57.5 687,-57.5 687,-38.5 505,-38.5"/>
<text text-anchor="middle" x="596" y="-45.5" font-family="Helvetica,sans-Serif" font-size="10.00" fill="#000000">HamiltonianOne::HamiltonianOne</text>
</a>
</g>
</g>
<!-- Node77&#45;&gt;Node78 -->
<g id="edge4" class="edge">
<title>Node77&#45;&gt;Node78</title>
<path fill="none" stroke="#191970" d="M469.0601,-48C480.6733,-48 492.8104,-48 504.7784,-48"/>
<polygon fill="#191970" stroke="#191970" points="469.0068,-44.5001 459.0067,-48 469.0067,-51.5001 469.0068,-44.5001"/>
</g>
<!-- Node80 -->
<g id="node7" class="node">
<title>Node80</title>
<g id="a_node7"><a xlink:href="classHamiltonianTwo.html#abd374713c9b38f72265c7fe496c42b96" target="_top" xlink:title="HamiltonianTwo::HamiltonianTwo">
<polygon fill="none" stroke="#000000" points="506,-.5 506,-19.5 686,-19.5 686,-.5 506,-.5"/>
<text text-anchor="middle" x="596" y="-7.5" font-family="Helvetica,sans-Serif" font-size="10.00" fill="#000000">HamiltonianTwo::HamiltonianTwo</text>
</a>
</g>
</g>
<!-- Node79&#45;&gt;Node80 -->
<g id="edge6" class="edge">
<title>Node79&#45;&gt;Node80</title>
<path fill="none" stroke="#191970" d="M479.2425,-10C488.0053,-10 496.9449,-10 505.7816,-10"/>
<polygon fill="#191970" stroke="#191970" points="479.0536,-6.5001 469.0536,-10 479.0535,-13.5001 479.0536,-6.5001"/>
</g>
</g>
</svg>
        <g id="navigator" transform="translate(0 0)" fill="#404254">
                <rect fill="#f2f5e9" fill-opacity="0.5" stroke="#606060" stroke-width=".5" x="0" y="0" width="60" height="60"/>
                <use id="zoomplus" xlink:href="#zoomPlus" x="17" y="9" onmousedown="handleZoom(evt,'in')"/>
                <use id="zoomminus" xlink:href="#zoomMin" x="42" y="9" onmousedown="handleZoom(evt,'out')"/>
                <use id="reset" xlink:href="#resetDef" x="30" y="36" onmousedown="handleReset()"/>
                <g id="arrowUp" xlink:href="#dirArrow" transform="translate(30 24)" onmousedown="handlePan(0,-1)">
                  <use xlink:href="#rim" fill="#404040">
                        <set attributeName="fill" to="#808080" begin="arrowUp.mouseover" end="arrowUp.mouseout"/>
                  </use>
                  <path fill="none" stroke="white" stroke-width="1.5" d="M0,-3.0v7 M-2.5,-0.5L0,-3.0L2.5,-0.5"/>
                </g>
                <g id="arrowRight" xlink:href="#dirArrow" transform="rotate(90) translate(36 -43)" onmousedown="handlePan(1,0)">
                  <use xlink:href="#rim" fill="#404040">
                        <set attributeName="fill" to="#808080" begin="arrowRight.mouseover" end="arrowRight.mouseout"/>
                  </use>
                  <path fill="none" stroke="white" stroke-width="1.5" d="M0,-3.0v7 M-2.5,-0.5L0,-3.0L2.5,-0.5"/>
                </g>
                <g id="arrowDown" xlink:href="#dirArrow" transform="rotate(180) translate(-30 -48)" onmousedown="handlePan(0,1)">
                  <use xlink:href="#rim" fill="#404040">
                        <set attributeName="fill" to="#808080" begin="arrowDown.mouseover" end="arrowDown.mouseout"/>
                  </use>
                  <path fill="none" stroke="white" stroke-width="1.5" d="M0,-3.0v7 M-2.5,-0.5L0,-3.0L2.5,-0.5"/>
                </g>
                <g id="arrowLeft" xlink:href="#dirArrow" transform="rotate(270) translate(-36 17)" onmousedown="handlePan(-1,0)">
                  <use xlink:href="#rim" fill="#404040">
                        <set attributeName="fill" to="#808080" begin="arrowLeft.mouseover" end="arrowLeft.mouseout"/>
                  </use>
                  <path fill="none" stroke="white" stroke-width="1.5" d="M0,-3.0v7 M-2.5,-0.5L0,-3.0L2.5,-0.5"/>
                </g>
        </g>
        <svg viewBox="0 0 15 15" width="100%" height="30px" preserveAspectRatio="xMaxYMin meet">
         <g id="arrow_out" transform="scale(0.3 0.3)">
          <a xlink:href="classHamiltonianmatrix_a15bc9c823975f5395112432c5b8507db_icgraph_org.svg" target="_base">
           <rect id="button" ry="5" rx="5" y="6" x="6" height="38" width="38"
                fill="#f2f5e9" fill-opacity="0.5" stroke="#606060" stroke-width="1.0"/>
           <path id="arrow"
             d="M 11.500037,31.436501 C 11.940474,20.09759 22.043105,11.32322 32.158766,21.979434 L 37.068811,17.246167 C 37.068811,17.246167 37.088388,32 37.088388,32 L 22.160133,31.978069 C 22.160133,31.978069 26.997745,27.140456 26.997745,27.140456 C 18.528582,18.264221 13.291696,25.230495 11.500037,31.436501 z"
             style="fill:#404040;"/>
          </a>
         </g>
        </svg>
</svg>
