<?xml version="1.0" encoding="UTF-8" standalone="no"?>
<!DOCTYPE svg PUBLIC "-//W3C//DTD SVG 1.1//EN"
 "http://www.w3.org/Graphics/SVG/1.1/DTD/svg11.dtd">
<!-- Generated by graphviz version 2.40.1 (20161225.0304)
 -->
<!-- Title: SystemTwo::initializeInteraction Pages: 1 -->
<!--zoomable 432 -->
<svg id="main" version="1.1" xmlns="http://www.w3.org/2000/svg" xmlns:xlink="http://www.w3.org/1999/xlink" xml:space="preserve" onload="init(evt)">
<style type="text/css"><![CDATA[
.edge:hover path { stroke: red; }
.edge:hover polygon { stroke: red; fill: red; }
]]></style>
<script type="text/javascript"><![CDATA[
var edges = document.getElementsByTagName('g');
if (edges && edges.length) {
  for (var i=0;i<edges.length;i++) {
    if (edges[i].id.substr(0,4)=='edge') {
      edges[i].setAttribute('class','edge');
    }
  }
}
]]></script>
        <defs>
                <circle id="rim" cx="0" cy="0" r="7"/>
                <circle id="rim2" cx="0" cy="0" r="3.5"/>
                <g id="zoomPlus">
                        <use xlink:href="#rim" fill="#404040">
                                <set attributeName="fill" to="#808080" begin="zoomplus.mouseover" end="zoomplus.mouseout"/>
                        </use>
                        <path d="M-4,0h8M0,-4v8" fill="none" stroke="white" stroke-width="1.5" pointer-events="none"/>
                </g>
                <g id="zoomMin">
                        <use xlink:href="#rim" fill="#404040">
                                <set attributeName="fill" to="#808080" begin="zoomminus.mouseover" end="zoomminus.mouseout"/>
                        </use>
                        <path d="M-4,0h8" fill="none" stroke="white" stroke-width="1.5" pointer-events="none"/>
                </g>
                <g id="dirArrow">
                        <path fill="none" stroke="white" stroke-width="1.5" d="M0,-3.0v7 M-2.5,-0.5L0,-3.0L2.5,-0.5"/>
                </g>
               <g id="resetDef">
                       <use xlink:href="#rim2" fill="#404040">
                               <set attributeName="fill" to="#808080" begin="reset.mouseover" end="reset.mouseout"/>
                       </use>
               </g>
        </defs>

<script type="text/javascript">
var viewWidth = 546;
var viewHeight = 432;
var sectionId = 'dynsection-14';
</script>
<script xlink:href="svgpan.js"/>
<svg id="graph" class="graph">
<g id="viewport">
<title>SystemTwo::initializeInteraction</title>
<!-- Node55 -->
<g id="node1" class="node">
<title>Node55</title>
<polygon fill="#bfbfbf" stroke="#000000" points="0,-221.5 0,-240.5 173,-240.5 173,-221.5 0,-221.5"/>
<text text-anchor="middle" x="86.5" y="-228.5" font-family="Helvetica,sans-Serif" font-size="10.00" fill="#000000">SystemTwo::initializeInteraction</text>
</g>
<!-- Node56 -->
<g id="node2" class="node">
<title>Node56</title>
<g id="a_node2"><a xlink:href="classGreenTensor.html#aac53ebde0a9b5ff5d4dccec359aa99a2" target="_top" xlink:title="GreenTensor::addSurface">
<polygon fill="none" stroke="#000000" points="220,-404.5 220,-423.5 358,-423.5 358,-404.5 220,-404.5"/>
<text text-anchor="middle" x="289" y="-411.5" font-family="Helvetica,sans-Serif" font-size="10.00" fill="#000000">GreenTensor::addSurface</text>
</a>
</g>
</g>
<!-- Node55&#45;&gt;Node56 -->
<g id="edge1" class="edge">
<title>Node55&#45;&gt;Node56</title>
<path fill="none" stroke="#191970" d="M90.7151,-240.6045C103.7479,-269.1149 146.3272,-353.8299 209,-395 212.1058,-397.0402 215.4072,-398.862 218.8323,-400.4887"/>
<polygon fill="#191970" stroke="#191970" points="217.5605,-403.7503 228.138,-404.3547 220.2461,-397.2859 217.5605,-403.7503"/>
</g>
<!-- Node57 -->
<g id="node3" class="node">
<title>Node57</title>
<g id="a_node3"><a xlink:href="classGreenTensor.html#ad947e11ec6469180c3150da22d0679c7" target="_top" xlink:title="GreenTensor::getDDTensor">
<polygon fill="none" stroke="#000000" points="216,-366.5 216,-385.5 362,-385.5 362,-366.5 216,-366.5"/>
<text text-anchor="middle" x="289" y="-373.5" font-family="Helvetica,sans-Serif" font-size="10.00" fill="#000000">GreenTensor::getDDTensor</text>
</a>
</g>
</g>
<!-- Node55&#45;&gt;Node57 -->
<g id="edge2" class="edge">
<title>Node55&#45;&gt;Node57</title>
<path fill="none" stroke="#191970" d="M92.9101,-240.6809C109.2229,-264.506 154.8748,-326.2731 209,-357 212.9473,-359.2409 217.1483,-361.2183 221.479,-362.963"/>
<polygon fill="#191970" stroke="#191970" points="220.5242,-366.3388 231.1187,-366.4228 222.8889,-359.7503 220.5242,-366.3388"/>
</g>
<!-- Node58 -->
<g id="node4" class="node">
<title>Node58</title>
<g id="a_node4"><a xlink:href="classGreenTensor.html#a3fb907f3372d6d23ff01b201b92e67e3" target="_top" xlink:title="GreenTensor::getDQTensor">
<polygon fill="none" stroke="#000000" points="216,-328.5 216,-347.5 362,-347.5 362,-328.5 216,-328.5"/>
<text text-anchor="middle" x="289" y="-335.5" font-family="Helvetica,sans-Serif" font-size="10.00" fill="#000000">GreenTensor::getDQTensor</text>
</a>
</g>
</g>
<!-- Node55&#45;&gt;Node58 -->
<g id="edge3" class="edge">
<title>Node55&#45;&gt;Node58</title>
<path fill="none" stroke="#191970" d="M96.7513,-240.5537C116.7438,-258.6573 163.0209,-298.0207 209,-319 214.4079,-321.4675 220.1732,-323.635 226.0365,-325.5348"/>
<polygon fill="#191970" stroke="#191970" points="225.3678,-328.9874 235.9507,-328.485 227.3643,-322.2782 225.3678,-328.9874"/>
</g>
<!-- Node59 -->
<g id="node5" class="node">
<title>Node59</title>
<g id="a_node5"><a xlink:href="classMatrixElementCache.html#ac6191cd01c85dd9cf28a373b524f0b1b" target="_top" xlink:title="Get matrix elements ////////////////////////////////////////////. ">
<polygon fill="none" stroke="#000000" points="230,-279 230,-309 348,-309 348,-279 230,-279"/>
<text text-anchor="start" x="238" y="-297" font-family="Helvetica,sans-Serif" font-size="10.00" fill="#000000">MatrixElementCache</text>
<text text-anchor="middle" x="289" y="-286" font-family="Helvetica,sans-Serif" font-size="10.00" fill="#000000">::getElectricDipole</text>
</a>
</g>
</g>
<!-- Node55&#45;&gt;Node59 -->
<g id="edge4" class="edge">
<title>Node55&#45;&gt;Node59</title>
<path fill="none" stroke="#191970" d="M117.2554,-240.5683C147.3189,-249.9214 193.8437,-264.3958 230.8905,-275.9215"/>
<polygon fill="#191970" stroke="#191970" points="229.9883,-279.3062 240.5766,-278.935 232.0678,-272.6222 229.9883,-279.3062"/>
</g>
<!-- Node60 -->
<g id="node6" class="node">
<title>Node60</title>
<g id="a_node6"><a xlink:href="classMatrixElementCache.html#a2407b99847793920a9d4ed0d8b156d8a" target="_top" xlink:title="MatrixElementCache\l::getElectricMultipole">
<polygon fill="none" stroke="#000000" points="412,-257 412,-287 531,-287 531,-257 412,-257"/>
<text text-anchor="start" x="420" y="-275" font-family="Helvetica,sans-Serif" font-size="10.00" fill="#000000">MatrixElementCache</text>
<text text-anchor="middle" x="471.5" y="-264" font-family="Helvetica,sans-Serif" font-size="10.00" fill="#000000">::getElectricMultipole</text>
</a>
</g>
</g>
<!-- Node55&#45;&gt;Node60 -->
<g id="edge6" class="edge">
<title>Node55&#45;&gt;Node60</title>
<path fill="none" stroke="#191970" d="M173.3816,-240.2523C242.4316,-247.6057 337.7414,-257.7556 401.841,-264.5818"/>
<polygon fill="#191970" stroke="#191970" points="401.5374,-268.0691 411.8518,-265.6479 402.2787,-261.1085 401.5374,-268.0691"/>
</g>
<!-- Node61 -->
<g id="node7" class="node">
<title>Node61</title>
<g id="a_node7"><a xlink:href="classGreenTensor.html#a774bcf8edd49208cad0c985fce17ea90" target="_top" xlink:title="GreenTensor::getQDTensor">
<polygon fill="none" stroke="#000000" points="216,-202.5 216,-221.5 362,-221.5 362,-202.5 216,-202.5"/>
<text text-anchor="middle" x="289" y="-209.5" font-family="Helvetica,sans-Serif" font-size="10.00" fill="#000000">GreenTensor::getQDTensor</text>
</a>
</g>
</g>
<!-- Node55&#45;&gt;Node61 -->
<g id="edge7" class="edge">
<title>Node55&#45;&gt;Node61</title>
<path fill="none" stroke="#191970" d="M173.2595,-222.8596C183.9976,-221.8521 194.9577,-220.8237 205.6432,-219.8211"/>
<polygon fill="#191970" stroke="#191970" points="206.1585,-223.2883 215.7877,-218.8693 205.5045,-216.3189 206.1585,-223.2883"/>
</g>
<!-- Node62 -->
<g id="node8" class="node">
<title>Node62</title>
<g id="a_node8"><a xlink:href="classSystemTwo.html#a021647b47068d8eedf99660723f6300c" target="_top" xlink:title="SystemTwo::getStatesFirst">
<polygon fill="none" stroke="#000000" points="216,-164.5 216,-183.5 362,-183.5 362,-164.5 216,-164.5"/>
<text text-anchor="middle" x="289" y="-171.5" font-family="Helvetica,sans-Serif" font-size="10.00" fill="#000000">SystemTwo::getStatesFirst</text>
</a>
</g>
</g>
<!-- Node55&#45;&gt;Node62 -->
<g id="edge8" class="edge">
<title>Node55&#45;&gt;Node62</title>
<path fill="none" stroke="#191970" d="M115.5437,-221.3826C140.263,-213.3437 176.7827,-201.8119 209,-193 217.8985,-190.5661 227.4025,-188.1503 236.6391,-185.8984"/>
<polygon fill="#191970" stroke="#191970" points="237.6095,-189.2649 246.5156,-183.5262 235.9747,-182.4585 237.6095,-189.2649"/>
</g>
<!-- Node64 -->
<g id="node10" class="node">
<title>Node64</title>
<g id="a_node10"><a xlink:href="classSystemTwo.html#ad7078eefe9dfe834e703818f3ffb22ca" target="_top" xlink:title="SystemTwo::getStatesSecond">
<polygon fill="none" stroke="#000000" points="209,-126.5 209,-145.5 369,-145.5 369,-126.5 209,-126.5"/>
<text text-anchor="middle" x="289" y="-133.5" font-family="Helvetica,sans-Serif" font-size="10.00" fill="#000000">SystemTwo::getStatesSecond</text>
</a>
</g>
</g>
<!-- Node55&#45;&gt;Node64 -->
<g id="edge10" class="edge">
<title>Node55&#45;&gt;Node64</title>
<path fill="none" stroke="#191970" d="M98.9829,-221.3306C120.3419,-205.243 165.7881,-172.9768 209,-155 215.1102,-152.458 221.631,-150.2137 228.2132,-148.2424"/>
<polygon fill="#191970" stroke="#191970" points="229.171,-151.609 237.8602,-145.5469 227.2872,-144.8672 229.171,-151.609"/>
</g>
<!-- Node65 -->
<g id="node11" class="node">
<title>Node65</title>
<g id="a_node11"><a xlink:href="classMatrixElementCache.html#afbc00d8b343bbea267e7cbbbc15cc203" target="_top" xlink:title="Precalculate matrix elements ///////////////////////////////////. ">
<polygon fill="none" stroke="#000000" points="225,-77 225,-107 353,-107 353,-77 225,-77"/>
<text text-anchor="start" x="233" y="-95" font-family="Helvetica,sans-Serif" font-size="10.00" fill="#000000">MatrixElementCache</text>
<text text-anchor="middle" x="289" y="-84" font-family="Helvetica,sans-Serif" font-size="10.00" fill="#000000">::precalculateMultipole</text>
</a>
</g>
</g>
<!-- Node55&#45;&gt;Node65 -->
<g id="edge12" class="edge">
<title>Node55&#45;&gt;Node65</title>
<path fill="none" stroke="#191970" d="M94.3081,-221.2105C112.2501,-199.347 158.7558,-146.1816 209,-117 212.6805,-114.8624 216.5644,-112.8869 220.557,-111.0643"/>
<polygon fill="#191970" stroke="#191970" points="222.1632,-114.1859 230.0263,-107.085 219.4512,-107.7326 222.1632,-114.1859"/>
</g>
<!-- Node66 -->
<g id="node12" class="node">
<title>Node66</title>
<g id="a_node12"><a xlink:href="MatrixElementCache_8cpp.html#a06a268e07e2a0edb3fca096b8c941c78" target="_top" xlink:title="selectionRulesMultipoleNew">
<polygon fill="none" stroke="#000000" points="211.5,-38.5 211.5,-57.5 366.5,-57.5 366.5,-38.5 211.5,-38.5"/>
<text text-anchor="middle" x="289" y="-45.5" font-family="Helvetica,sans-Serif" font-size="10.00" fill="#000000">selectionRulesMultipoleNew</text>
</a>
</g>
</g>
<!-- Node55&#45;&gt;Node66 -->
<g id="edge13" class="edge">
<title>Node55&#45;&gt;Node66</title>
<path fill="none" stroke="#191970" d="M90.7151,-221.3955C103.7479,-192.8851 146.3272,-108.1701 209,-67 212.1058,-64.9598 215.4072,-63.138 218.8323,-61.5113"/>
<polygon fill="#191970" stroke="#191970" points="220.2461,-64.7141 228.138,-57.6453 217.5605,-58.2497 220.2461,-64.7141"/>
</g>
<!-- Node59&#45;&gt;Node60 -->
<g id="edge5" class="edge">
<title>Node59&#45;&gt;Node60</title>
<path fill="none" stroke="#191970" d="M348.0005,-286.8876C365.0633,-284.8307 383.8526,-282.5657 401.516,-280.4364"/>
<polygon fill="#191970" stroke="#191970" points="402.2552,-283.8727 411.7644,-279.201 401.4173,-276.9231 402.2552,-283.8727"/>
</g>
<!-- Node63 -->
<g id="node9" class="node">
<title>Node63</title>
<g id="a_node9"><a xlink:href="classSystemBase.html#aae793919efd7c691ecc8f615cb039bb4" target="_top" xlink:title="SystemBase\&lt; StateTwo\l \&gt;::buildBasis">
<polygon fill="none" stroke="#000000" points="405,-140 405,-170 538,-170 538,-140 405,-140"/>
<text text-anchor="start" x="413" y="-158" font-family="Helvetica,sans-Serif" font-size="10.00" fill="#000000">SystemBase&lt; StateTwo</text>
<text text-anchor="middle" x="471.5" y="-147" font-family="Helvetica,sans-Serif" font-size="10.00" fill="#000000"> &gt;::buildBasis</text>
</a>
</g>
</g>
<!-- Node62&#45;&gt;Node63 -->
<g id="edge9" class="edge">
<title>Node62&#45;&gt;Node63</title>
<path fill="none" stroke="#191970" d="M362.1782,-166.3815C372.8493,-165.2705 383.864,-164.1237 394.6064,-163.0054"/>
<polygon fill="#191970" stroke="#191970" points="395.2185,-166.4606 404.8023,-161.9439 394.4936,-159.4983 395.2185,-166.4606"/>
</g>
<!-- Node64&#45;&gt;Node63 -->
<g id="edge11" class="edge">
<title>Node64&#45;&gt;Node63</title>
<path fill="none" stroke="#191970" d="M369.0472,-144.3337C377.6517,-145.2295 386.3912,-146.1394 394.9533,-147.0308"/>
<polygon fill="#191970" stroke="#191970" points="394.5956,-150.5123 404.9043,-148.0667 395.3205,-143.55 394.5956,-150.5123"/>
</g>
<!-- Node67 -->
<g id="node13" class="node">
<title>Node67</title>
<g id="a_node13"><a xlink:href="classStateOne.html#aedba5bfce70f73fa324b9d5ae1115578" target="_top" xlink:title="StateOne::getJ">
<polygon fill="none" stroke="#000000" points="428.5,-76.5 428.5,-95.5 514.5,-95.5 514.5,-76.5 428.5,-76.5"/>
<text text-anchor="middle" x="471.5" y="-83.5" font-family="Helvetica,sans-Serif" font-size="10.00" fill="#000000">StateOne::getJ</text>
</a>
</g>
</g>
<!-- Node66&#45;&gt;Node67 -->
<g id="edge14" class="edge">
<title>Node66&#45;&gt;Node67</title>
<path fill="none" stroke="#191970" d="M335.0525,-57.589C360.4268,-62.8724 392.0392,-69.4547 418.4448,-74.9529"/>
<polygon fill="#191970" stroke="#191970" points="417.7827,-78.39 428.2862,-77.0021 419.2096,-71.537 417.7827,-78.39"/>
</g>
<!-- Node68 -->
<g id="node14" class="node">
<title>Node68</title>
<g id="a_node14"><a xlink:href="classStateOne.html#a3783cebe5bbd63f072caf8450fea4aca" target="_top" xlink:title="StateOne::getL">
<polygon fill="none" stroke="#000000" points="427,-38.5 427,-57.5 516,-57.5 516,-38.5 427,-38.5"/>
<text text-anchor="middle" x="471.5" y="-45.5" font-family="Helvetica,sans-Serif" font-size="10.00" fill="#000000">StateOne::getL</text>
</a>
</g>
</g>
<!-- Node66&#45;&gt;Node68 -->
<g id="edge15" class="edge">
<title>Node66&#45;&gt;Node68</title>
<path fill="none" stroke="#191970" d="M366.6611,-48C383.5326,-48 401.0382,-48 416.8006,-48"/>
<polygon fill="#191970" stroke="#191970" points="416.8829,-51.5001 426.8828,-48 416.8828,-44.5001 416.8829,-51.5001"/>
</g>
<!-- Node69 -->
<g id="node15" class="node">
<title>Node69</title>
<g id="a_node15"><a xlink:href="classStateOne.html#aab2b41262381d67893113ed6f5ad18bc" target="_top" xlink:title="StateOne::getM">
<polygon fill="none" stroke="#000000" points="425.5,-.5 425.5,-19.5 517.5,-19.5 517.5,-.5 425.5,-.5"/>
<text text-anchor="middle" x="471.5" y="-7.5" font-family="Helvetica,sans-Serif" font-size="10.00" fill="#000000">StateOne::getM</text>
</a>
</g>
</g>
<!-- Node66&#45;&gt;Node69 -->
<g id="edge16" class="edge">
<title>Node66&#45;&gt;Node69</title>
<path fill="none" stroke="#191970" d="M335.0525,-38.411C359.5692,-33.3061 389.9096,-26.9887 415.7502,-21.6082"/>
<polygon fill="#191970" stroke="#191970" points="416.7022,-24.9851 425.7787,-19.5201 415.2752,-18.1321 416.7022,-24.9851"/>
</g>
</g>
</svg>
        <g id="navigator" transform="translate(0 0)" fill="#404254">
                <rect fill="#f2f5e9" fill-opacity="0.5" stroke="#606060" stroke-width=".5" x="0" y="0" width="60" height="60"/>
                <use id="zoomplus" xlink:href="#zoomPlus" x="17" y="9" onmousedown="handleZoom(evt,'in')"/>
                <use id="zoomminus" xlink:href="#zoomMin" x="42" y="9" onmousedown="handleZoom(evt,'out')"/>
                <use id="reset" xlink:href="#resetDef" x="30" y="36" onmousedown="handleReset()"/>
                <g id="arrowUp" xlink:href="#dirArrow" transform="translate(30 24)" onmousedown="handlePan(0,-1)">
                  <use xlink:href="#rim" fill="#404040">
                        <set attributeName="fill" to="#808080" begin="arrowUp.mouseover" end="arrowUp.mouseout"/>
                  </use>
                  <path fill="none" stroke="white" stroke-width="1.5" d="M0,-3.0v7 M-2.5,-0.5L0,-3.0L2.5,-0.5"/>
                </g>
                <g id="arrowRight" xlink:href="#dirArrow" transform="rotate(90) translate(36 -43)" onmousedown="handlePan(1,0)">
                  <use xlink:href="#rim" fill="#404040">
                        <set attributeName="fill" to="#808080" begin="arrowRight.mouseover" end="arrowRight.mouseout"/>
                  </use>
                  <path fill="none" stroke="white" stroke-width="1.5" d="M0,-3.0v7 M-2.5,-0.5L0,-3.0L2.5,-0.5"/>
                </g>
                <g id="arrowDown" xlink:href="#dirArrow" transform="rotate(180) translate(-30 -48)" onmousedown="handlePan(0,1)">
                  <use xlink:href="#rim" fill="#404040">
                        <set attributeName="fill" to="#808080" begin="arrowDown.mouseover" end="arrowDown.mouseout"/>
                  </use>
                  <path fill="none" stroke="white" stroke-width="1.5" d="M0,-3.0v7 M-2.5,-0.5L0,-3.0L2.5,-0.5"/>
                </g>
                <g id="arrowLeft" xlink:href="#dirArrow" transform="rotate(270) translate(-36 17)" onmousedown="handlePan(-1,0)">
                  <use xlink:href="#rim" fill="#404040">
                        <set attributeName="fill" to="#808080" begin="arrowLeft.mouseover" end="arrowLeft.mouseout"/>
                  </use>
                  <path fill="none" stroke="white" stroke-width="1.5" d="M0,-3.0v7 M-2.5,-0.5L0,-3.0L2.5,-0.5"/>
                </g>
        </g>
        <svg viewBox="0 0 15 15" width="100%" height="30px" preserveAspectRatio="xMaxYMin meet">
         <g id="arrow_out" transform="scale(0.3 0.3)">
          <a xlink:href="classSystemTwo_a5cc89c42ab8066027b0c375b818c8333_cgraph_org.svg" target="_base">
           <rect id="button" ry="5" rx="5" y="6" x="6" height="38" width="38"
                fill="#f2f5e9" fill-opacity="0.5" stroke="#606060" stroke-width="1.0"/>
           <path id="arrow"
             d="M 11.500037,31.436501 C 11.940474,20.09759 22.043105,11.32322 32.158766,21.979434 L 37.068811,17.246167 C 37.068811,17.246167 37.088388,32 37.088388,32 L 22.160133,31.978069 C 22.160133,31.978069 26.997745,27.140456 26.997745,27.140456 C 18.528582,18.264221 13.291696,25.230495 11.500037,31.436501 z"
             style="fill:#404040;"/>
          </a>
         </g>
        </svg>
</svg>
