<?xml version="1.0" encoding="UTF-8" standalone="no"?>
<!DOCTYPE svg PUBLIC "-//W3C//DTD SVG 1.1//EN"
 "http://www.w3.org/Graphics/SVG/1.1/DTD/svg11.dtd">
<!-- Generated by graphviz version 2.40.1 (20161225.0304)
 -->
<!-- Title: Hamiltonianmatrix::save Pages: 1 -->
<!--zoomable 66 -->
<svg id="main" version="1.1" xmlns="http://www.w3.org/2000/svg" xmlns:xlink="http://www.w3.org/1999/xlink" xml:space="preserve" onload="init(evt)">
<style type="text/css"><![CDATA[
.edge:hover path { stroke: red; }
.edge:hover polygon { stroke: red; fill: red; }
]]></style>
<script type="text/javascript"><![CDATA[
var edges = document.getElementsByTagName('g');
if (edges && edges.length) {
  for (var i=0;i<edges.length;i++) {
    if (edges[i].id.substr(0,4)=='edge') {
      edges[i].setAttribute('class','edge');
    }
  }
}
]]></script>
        <defs>
                <circle id="rim" cx="0" cy="0" r="7"/>
                <circle id="rim2" cx="0" cy="0" r="3.5"/>
                <g id="zoomPlus">
                        <use xlink:href="#rim" fill="#404040">
                                <set attributeName="fill" to="#808080" begin="zoomplus.mouseover" end="zoomplus.mouseout"/>
                        </use>
                        <path d="M-4,0h8M0,-4v8" fill="none" stroke="white" stroke-width="1.5" pointer-events="none"/>
                </g>
                <g id="zoomMin">
                        <use xlink:href="#rim" fill="#404040">
                                <set attributeName="fill" to="#808080" begin="zoomminus.mouseover" end="zoomminus.mouseout"/>
                        </use>
                        <path d="M-4,0h8" fill="none" stroke="white" stroke-width="1.5" pointer-events="none"/>
                </g>
                <g id="dirArrow">
                        <path fill="none" stroke="white" stroke-width="1.5" d="M0,-3.0v7 M-2.5,-0.5L0,-3.0L2.5,-0.5"/>
                </g>
               <g id="resetDef">
                       <use xlink:href="#rim2" fill="#404040">
                               <set attributeName="fill" to="#808080" begin="reset.mouseover" end="reset.mouseout"/>
                       </use>
               </g>
        </defs>

<script type="text/javascript">
var viewWidth = 546;
var viewHeight = 66;
var sectionId = 'dynsection-33';
</script>
<script xlink:href="svgpan.js"/>
<svg id="graph" class="graph">
<g id="viewport">
<title>Hamiltonianmatrix::save</title>
<!-- Node188 -->
<g id="node1" class="node">
<title>Node188</title>
<polygon fill="#bfbfbf" stroke="#000000" points="0,-19.5 0,-38.5 138,-38.5 138,-19.5 0,-19.5"/>
<text text-anchor="middle" x="69" y="-26.5" font-family="Helvetica,sans-Serif" font-size="10.00" fill="#000000">Hamiltonianmatrix::save</text>
</g>
<!-- Node189 -->
<g id="node2" class="node">
<title>Node189</title>
<g id="a_node2"><a xlink:href="classHamiltonianOne.html#a9cb71dcb34ab9f0779c0bd66b758185e" target="_top" xlink:title="HamiltonianOne::build">
<polygon fill="none" stroke="#000000" points="184,-38.5 184,-57.5 310,-57.5 310,-38.5 184,-38.5"/>
<text text-anchor="middle" x="247" y="-45.5" font-family="Helvetica,sans-Serif" font-size="10.00" fill="#000000">HamiltonianOne::build</text>
</a>
</g>
</g>
<!-- Node188&#45;&gt;Node189 -->
<g id="edge1" class="edge">
<title>Node188&#45;&gt;Node189</title>
<path fill="none" stroke="#191970" d="M148.0461,-37.4375C160.0085,-38.7144 172.2137,-40.0172 183.7828,-41.2521"/>
<polygon fill="#191970" stroke="#191970" points="148.3892,-33.9543 138.0742,-36.3731 147.6462,-40.9148 148.3892,-33.9543"/>
</g>
<!-- Node191 -->
<g id="node4" class="node">
<title>Node191</title>
<g id="a_node4"><a xlink:href="classHamiltonianTwo.html#a6ca0a318f25170b69e571a07064a5afb" target="_top" xlink:title="HamiltonianTwo::calculate">
<polygon fill="none" stroke="#000000" points="174,-.5 174,-19.5 320,-19.5 320,-.5 174,-.5"/>
<text text-anchor="middle" x="247" y="-7.5" font-family="Helvetica,sans-Serif" font-size="10.00" fill="#000000">HamiltonianTwo::calculate</text>
</a>
</g>
</g>
<!-- Node188&#45;&gt;Node191 -->
<g id="edge3" class="edge">
<title>Node188&#45;&gt;Node191</title>
<path fill="none" stroke="#191970" d="M148.0648,-20.5605C156.6406,-19.6451 165.3409,-18.7164 173.8421,-17.809"/>
<polygon fill="#191970" stroke="#191970" points="147.6462,-17.0852 138.0742,-21.6269 148.3892,-24.0457 147.6462,-17.0852"/>
</g>
<!-- Node190 -->
<g id="node3" class="node">
<title>Node190</title>
<g id="a_node3"><a xlink:href="classHamiltonianOne.html#ad3ba2d70879a60c9f065b5a2545dfe36" target="_top" xlink:title="HamiltonianOne::HamiltonianOne">
<polygon fill="none" stroke="#000000" points="356,-38.5 356,-57.5 538,-57.5 538,-38.5 356,-38.5"/>
<text text-anchor="middle" x="447" y="-45.5" font-family="Helvetica,sans-Serif" font-size="10.00" fill="#000000">HamiltonianOne::HamiltonianOne</text>
</a>
</g>
</g>
<!-- Node189&#45;&gt;Node190 -->
<g id="edge2" class="edge">
<title>Node189&#45;&gt;Node190</title>
<path fill="none" stroke="#191970" d="M320.0601,-48C331.6733,-48 343.8104,-48 355.7784,-48"/>
<polygon fill="#191970" stroke="#191970" points="320.0068,-44.5001 310.0067,-48 320.0067,-51.5001 320.0068,-44.5001"/>
</g>
<!-- Node192 -->
<g id="node5" class="node">
<title>Node192</title>
<g id="a_node5"><a xlink:href="classHamiltonianTwo.html#abd374713c9b38f72265c7fe496c42b96" target="_top" xlink:title="HamiltonianTwo::HamiltonianTwo">
<polygon fill="none" stroke="#000000" points="357,-.5 357,-19.5 537,-19.5 537,-.5 357,-.5"/>
<text text-anchor="middle" x="447" y="-7.5" font-family="Helvetica,sans-Serif" font-size="10.00" fill="#000000">HamiltonianTwo::HamiltonianTwo</text>
</a>
</g>
</g>
<!-- Node191&#45;&gt;Node192 -->
<g id="edge4" class="edge">
<title>Node191&#45;&gt;Node192</title>
<path fill="none" stroke="#191970" d="M330.2425,-10C339.0053,-10 347.9449,-10 356.7816,-10"/>
<polygon fill="#191970" stroke="#191970" points="330.0536,-6.5001 320.0536,-10 330.0535,-13.5001 330.0536,-6.5001"/>
</g>
</g>
</svg>
        <g id="navigator" transform="translate(0 0)" fill="#404254">
                <rect fill="#f2f5e9" fill-opacity="0.5" stroke="#606060" stroke-width=".5" x="0" y="0" width="60" height="60"/>
                <use id="zoomplus" xlink:href="#zoomPlus" x="17" y="9" onmousedown="handleZoom(evt,'in')"/>
                <use id="zoomminus" xlink:href="#zoomMin" x="42" y="9" onmousedown="handleZoom(evt,'out')"/>
                <use id="reset" xlink:href="#resetDef" x="30" y="36" onmousedown="handleReset()"/>
                <g id="arrowUp" xlink:href="#dirArrow" transform="translate(30 24)" onmousedown="handlePan(0,-1)">
                  <use xlink:href="#rim" fill="#404040">
                        <set attributeName="fill" to="#808080" begin="arrowUp.mouseover" end="arrowUp.mouseout"/>
                  </use>
                  <path fill="none" stroke="white" stroke-width="1.5" d="M0,-3.0v7 M-2.5,-0.5L0,-3.0L2.5,-0.5"/>
                </g>
                <g id="arrowRight" xlink:href="#dirArrow" transform="rotate(90) translate(36 -43)" onmousedown="handlePan(1,0)">
                  <use xlink:href="#rim" fill="#404040">
                        <set attributeName="fill" to="#808080" begin="arrowRight.mouseover" end="arrowRight.mouseout"/>
                  </use>
                  <path fill="none" stroke="white" stroke-width="1.5" d="M0,-3.0v7 M-2.5,-0.5L0,-3.0L2.5,-0.5"/>
                </g>
                <g id="arrowDown" xlink:href="#dirArrow" transform="rotate(180) translate(-30 -48)" onmousedown="handlePan(0,1)">
                  <use xlink:href="#rim" fill="#404040">
                        <set attributeName="fill" to="#808080" begin="arrowDown.mouseover" end="arrowDown.mouseout"/>
                  </use>
                  <path fill="none" stroke="white" stroke-width="1.5" d="M0,-3.0v7 M-2.5,-0.5L0,-3.0L2.5,-0.5"/>
                </g>
                <g id="arrowLeft" xlink:href="#dirArrow" transform="rotate(270) translate(-36 17)" onmousedown="handlePan(-1,0)">
                  <use xlink:href="#rim" fill="#404040">
                        <set attributeName="fill" to="#808080" begin="arrowLeft.mouseover" end="arrowLeft.mouseout"/>
                  </use>
                  <path fill="none" stroke="white" stroke-width="1.5" d="M0,-3.0v7 M-2.5,-0.5L0,-3.0L2.5,-0.5"/>
                </g>
        </g>
        <svg viewBox="0 0 15 15" width="100%" height="30px" preserveAspectRatio="xMaxYMin meet">
         <g id="arrow_out" transform="scale(0.3 0.3)">
          <a xlink:href="classHamiltonianmatrix_a9e77fcca733a19f250dd619799edc9e6_icgraph_org.svg" target="_base">
           <rect id="button" ry="5" rx="5" y="6" x="6" height="38" width="38"
                fill="#f2f5e9" fill-opacity="0.5" stroke="#606060" stroke-width="1.0"/>
           <path id="arrow"
             d="M 11.500037,31.436501 C 11.940474,20.09759 22.043105,11.32322 32.158766,21.979434 L 37.068811,17.246167 C 37.068811,17.246167 37.088388,32 37.088388,32 L 22.160133,31.978069 C 22.160133,31.978069 26.997745,27.140456 26.997745,27.140456 C 18.528582,18.264221 13.291696,25.230495 11.500037,31.436501 z"
             style="fill:#404040;"/>
          </a>
         </g>
        </svg>
</svg>
