<?xml version="1.0" encoding="UTF-8" standalone="no"?>
<!DOCTYPE svg PUBLIC "-//W3C//DTD SVG 1.1//EN"
 "http://www.w3.org/Graphics/SVG/1.1/DTD/svg11.dtd">
<!-- Generated by graphviz version 2.40.1 (20161225.0304)
 -->
<!-- Title: BasisnamesTwo Pages: 1 -->
<svg width="350pt" height="185pt"
 viewBox="0.00 0.00 350.00 185.00" xmlns="http://www.w3.org/2000/svg" xmlns:xlink="http://www.w3.org/1999/xlink">
<g id="graph0" class="graph" transform="scale(1 1) rotate(0) translate(4 181)">
<title>BasisnamesTwo</title>
<!-- Node2 -->
<g id="node1" class="node">
<title>Node2</title>
<polygon fill="#bfbfbf" stroke="#000000" points="151,-.5 151,-19.5 246,-19.5 246,-.5 151,-.5"/>
<text text-anchor="middle" x="198.5" y="-7.5" font-family="Helvetica,sans-Serif" font-size="10.00" fill="#000000">BasisnamesTwo</text>
</g>
<!-- Node3 -->
<g id="node2" class="node">
<title>Node3</title>
<g id="a_node2"><a xlink:href="classBasisnames.html" target="_top" xlink:title="Basisnames\&lt; StateTwoOld \&gt;">
<polygon fill="none" stroke="#000000" points="119,-57.5 119,-76.5 278,-76.5 278,-57.5 119,-57.5"/>
<text text-anchor="middle" x="198.5" y="-64.5" font-family="Helvetica,sans-Serif" font-size="10.00" fill="#000000">Basisnames&lt; StateTwoOld &gt;</text>
</a>
</g>
</g>
<!-- Node3&#45;&gt;Node2 -->
<g id="edge1" class="edge">
<title>Node3&#45;&gt;Node2</title>
<path fill="none" stroke="#191970" d="M198.5,-47.2342C198.5,-37.8491 198.5,-27.0651 198.5,-19.5265"/>
<polygon fill="#191970" stroke="#191970" points="195.0001,-47.3307 198.5,-57.3307 202.0001,-47.3308 195.0001,-47.3307"/>
</g>
<!-- Node4 -->
<g id="node3" class="node">
<title>Node4</title>
<g id="a_node3"><a xlink:href="classstd_1_1vector_3_01StateTwoOld_01_4.html" target="_top" xlink:title="vector\&lt; StateTwoOld \&gt;">
<polygon fill="none" stroke="#000000" points="0,-157.5 0,-176.5 131,-176.5 131,-157.5 0,-157.5"/>
<text text-anchor="middle" x="65.5" y="-164.5" font-family="Helvetica,sans-Serif" font-size="10.00" fill="#000000">vector&lt; StateTwoOld &gt;</text>
</a>
</g>
</g>
<!-- Node4&#45;&gt;Node3 -->
<g id="edge2" class="edge">
<title>Node4&#45;&gt;Node3</title>
<path fill="none" stroke="#9a32cd" stroke-dasharray="5,2" d="M76.276,-148.647C86.5779,-132.524 103.4781,-109.4453 123.5,-95 134.6586,-86.9493 148.4031,-80.9379 161.0647,-76.5925"/>
<polygon fill="#9a32cd" stroke="#9a32cd" points="73.2613,-146.8678 70.9992,-157.2184 79.2223,-150.5376 73.2613,-146.8678"/>
<text text-anchor="middle" x="144.5" y="-114.5" font-family="Helvetica,sans-Serif" font-size="10.00" fill="#000000"> names_</text>
</g>
<!-- Node5 -->
<g id="node4" class="node">
<title>Node5</title>
<g id="a_node4"><a xlink:href="classsize__t.html" target="_top" xlink:title="size_t">
<polygon fill="none" stroke="#000000" points="149,-157.5 149,-176.5 194,-176.5 194,-157.5 149,-157.5"/>
<text text-anchor="middle" x="171.5" y="-164.5" font-family="Helvetica,sans-Serif" font-size="10.00" fill="#000000">size_t</text>
</a>
</g>
</g>
<!-- Node5&#45;&gt;Node3 -->
<g id="edge3" class="edge">
<title>Node5&#45;&gt;Node3</title>
<path fill="none" stroke="#9a32cd" stroke-dasharray="5,2" d="M169.8032,-147.2088C169.2495,-132.3527 170.0401,-111.7718 176.5,-95 179.122,-88.1926 184.001,-81.7118 188.4993,-76.7028"/>
<polygon fill="#9a32cd" stroke="#9a32cd" points="166.316,-147.5266 170.417,-157.2956 173.303,-147.1014 166.316,-147.5266"/>
<text text-anchor="middle" x="190.5" y="-114.5" font-family="Helvetica,sans-Serif" font-size="10.00" fill="#000000"> dim_</text>
</g>
<!-- Node6 -->
<g id="node5" class="node">
<title>Node6</title>
<g id="a_node5"><a xlink:href="classint.html" target="_top" xlink:title="int">
<polygon fill="none" stroke="#000000" points="212,-157.5 212,-176.5 241,-176.5 241,-157.5 212,-157.5"/>
<text text-anchor="middle" x="226.5" y="-164.5" font-family="Helvetica,sans-Serif" font-size="10.00" fill="#000000">int</text>
</a>
</g>
</g>
<!-- Node6&#45;&gt;Node3 -->
<g id="edge4" class="edge">
<title>Node6&#45;&gt;Node3</title>
<path fill="none" stroke="#9a32cd" stroke-dasharray="5,2" d="M221.0475,-147.5268C215.0898,-126.2493 205.7865,-93.0234 201.2178,-76.7063"/>
<polygon fill="#9a32cd" stroke="#9a32cd" points="217.7485,-148.7257 223.8152,-157.4116 224.4892,-146.8382 217.7485,-148.7257"/>
<text text-anchor="middle" x="237.5" y="-131" font-family="Helvetica,sans-Serif" font-size="10.00" fill="#000000"> delta_j</text>
<text text-anchor="middle" x="237.5" y="-120" font-family="Helvetica,sans-Serif" font-size="10.00" fill="#000000">delta_l</text>
<text text-anchor="middle" x="237.5" y="-109" font-family="Helvetica,sans-Serif" font-size="10.00" fill="#000000">delta_m</text>
<text text-anchor="middle" x="237.5" y="-98" font-family="Helvetica,sans-Serif" font-size="10.00" fill="#000000">delta_n</text>
</g>
<!-- Node7 -->
<g id="node6" class="node">
<title>Node7</title>
<g id="a_node6"><a xlink:href="classConfiguration.html" target="_top" xlink:title="Configuration storage ">
<polygon fill="none" stroke="#000000" points="259,-157.5 259,-176.5 342,-176.5 342,-157.5 259,-157.5"/>
<text text-anchor="middle" x="300.5" y="-164.5" font-family="Helvetica,sans-Serif" font-size="10.00" fill="#000000">Configuration</text>
</a>
</g>
</g>
<!-- Node7&#45;&gt;Node3 -->
<g id="edge5" class="edge">
<title>Node7&#45;&gt;Node3</title>
<path fill="none" stroke="#9a32cd" stroke-dasharray="5,2" d="M293.9686,-147.4767C287.7835,-131.5602 277.104,-109.4291 261.5,-95 252.8001,-86.9551 241.4073,-80.945 230.7054,-76.599"/>
<polygon fill="#9a32cd" stroke="#9a32cd" points="290.8417,-149.1214 297.5378,-157.332 297.4234,-146.7377 290.8417,-149.1214"/>
<text text-anchor="middle" x="302" y="-114.5" font-family="Helvetica,sans-Serif" font-size="10.00" fill="#000000"> conf</text>
</g>
</g>
</svg>
