<?xml version="1.0" encoding="UTF-8" standalone="no"?>
<!DOCTYPE svg PUBLIC "-//W3C//DTD SVG 1.1//EN"
 "http://www.w3.org/Graphics/SVG/1.1/DTD/svg11.dtd">
<!-- Generated by graphviz version 2.40.1 (20161225.0304)
 -->
<!-- Title: StateTwo::getN Pages: 1 -->
<svg width="263pt" height="78pt"
 viewBox="0.00 0.00 263.00 77.50" xmlns="http://www.w3.org/2000/svg" xmlns:xlink="http://www.w3.org/1999/xlink">
<g id="graph0" class="graph" transform="scale(1 1) rotate(0) translate(4 73.5)">
<title>StateTwo::getN</title>
<!-- Node63 -->
<g id="node1" class="node">
<title>Node63</title>
<polygon fill="#bfbfbf" stroke="#000000" points="0,-22.5 0,-41.5 90,-41.5 90,-22.5 0,-22.5"/>
<text text-anchor="middle" x="45" y="-29.5" font-family="Helvetica,sans-Serif" font-size="10.00" fill="#000000">StateTwo::getN</text>
</g>
<!-- Node64 -->
<g id="node2" class="node">
<title>Node64</title>
<g id="a_node2"><a xlink:href="classPerturbativeInteraction.html#aef0f5d43fdcf0377dc53e31730c99cb9" target="_top" xlink:title="PerturbativeInteraction\l::getC6">
<polygon fill="none" stroke="#000000" points="126,-39 126,-69 255,-69 255,-39 126,-39"/>
<text text-anchor="start" x="134" y="-57" font-family="Helvetica,sans-Serif" font-size="10.00" fill="#000000">PerturbativeInteraction</text>
<text text-anchor="middle" x="190.5" y="-46" font-family="Helvetica,sans-Serif" font-size="10.00" fill="#000000">::getC6</text>
</a>
</g>
</g>
<!-- Node63&#45;&gt;Node64 -->
<g id="edge1" class="edge">
<title>Node63&#45;&gt;Node64</title>
<path fill="none" stroke="#191970" d="M100.2322,-40.3513C108.5839,-41.6141 117.263,-42.9264 125.7929,-44.2161"/>
<polygon fill="#191970" stroke="#191970" points="100.6504,-36.8748 90.2395,-38.8403 99.6039,-43.7961 100.6504,-36.8748"/>
</g>
<!-- Node65 -->
<g id="node3" class="node">
<title>Node65</title>
<g id="a_node3"><a xlink:href="classStateTwo.html#a8144dc47a35a397f9b040a5de5d8673e" target="_top" xlink:title="StateTwo::getReflected">
<polygon fill="none" stroke="#000000" points="126,-.5 126,-19.5 255,-19.5 255,-.5 126,-.5"/>
<text text-anchor="middle" x="190.5" y="-7.5" font-family="Helvetica,sans-Serif" font-size="10.00" fill="#000000">StateTwo::getReflected</text>
</a>
</g>
</g>
<!-- Node63&#45;&gt;Node65 -->
<g id="edge2" class="edge">
<title>Node63&#45;&gt;Node65</title>
<path fill="none" stroke="#191970" d="M100.1813,-23.6564C109.1576,-22.2992 118.5135,-20.8846 127.6566,-19.5021"/>
<polygon fill="#191970" stroke="#191970" points="99.6039,-20.2039 90.2395,-25.1597 100.6504,-27.1252 99.6039,-20.2039"/>
</g>
</g>
</svg>
