<?xml version="1.0" encoding="UTF-8" standalone="no"?>
<!DOCTYPE svg PUBLIC "-//W3C//DTD SVG 1.1//EN"
 "http://www.w3.org/Graphics/SVG/1.1/DTD/svg11.dtd">
<!-- Generated by graphviz version 2.40.1 (20161225.0304)
 -->
<!-- Title: SystemBase&lt; T &gt; Pages: 1 -->
<svg width="418pt" height="436pt"
 viewBox="0.00 0.00 418.00 435.67" xmlns="http://www.w3.org/2000/svg" xmlns:xlink="http://www.w3.org/1999/xlink">
<g id="graph0" class="graph" transform="scale(1 1) rotate(0) translate(4 431.6705)">
<title>SystemBase&lt; T &gt;</title>
<!-- Node1 -->
<g id="node1" class="node">
<title>Node1</title>
<polygon fill="#bfbfbf" stroke="#000000" points="304,-161.1705 304,-180.1705 410,-180.1705 410,-161.1705 304,-161.1705"/>
<text text-anchor="middle" x="357" y="-168.1705" font-family="Helvetica,sans-Serif" font-size="10.00" fill="#000000">SystemBase&lt; T &gt;</text>
</g>
<!-- Node2 -->
<g id="node2" class="node">
<title>Node2</title>
<polygon fill="none" stroke="#bfbfbf" points="32,-385.1705 32,-404.1705 109,-404.1705 109,-385.1705 32,-385.1705"/>
<text text-anchor="middle" x="70.5" y="-392.1705" font-family="Helvetica,sans-Serif" font-size="10.00" fill="#000000">set&lt; float &gt;</text>
</g>
<!-- Node2&#45;&gt;Node1 -->
<g id="edge1" class="edge">
<title>Node2&#45;&gt;Node1</title>
<path fill="none" stroke="#9a32cd" stroke-dasharray="5,2" d="M119.3621,-403.4933C166.9938,-409.1976 238.9374,-409.7472 286,-372.6705 318.0467,-347.4237 347.3355,-216.9664 355.036,-180.279"/>
<polygon fill="#9a32cd" stroke="#9a32cd" points="119.6606,-400.0025 109.2893,-402.1673 118.7469,-406.9426 119.6606,-400.0025"/>
<text text-anchor="middle" x="222.5" y="-419.6705" font-family="Helvetica,sans-Serif" font-size="10.00" fill="#000000"> range_j</text>
<text text-anchor="middle" x="222.5" y="-408.6705" font-family="Helvetica,sans-Serif" font-size="10.00" fill="#000000">range_m</text>
</g>
<!-- Node3 -->
<g id="node3" class="node">
<title>Node3</title>
<g id="a_node3"><a xlink:href="classdouble.html" target="_top" xlink:title="double">
<polygon fill="none" stroke="#000000" points="45.5,-329.1705 45.5,-348.1705 95.5,-348.1705 95.5,-329.1705 45.5,-329.1705"/>
<text text-anchor="middle" x="70.5" y="-336.1705" font-family="Helvetica,sans-Serif" font-size="10.00" fill="#000000">double</text>
</a>
</g>
</g>
<!-- Node3&#45;&gt;Node1 -->
<g id="edge2" class="edge">
<title>Node3&#45;&gt;Node1</title>
<path fill="none" stroke="#9a32cd" stroke-dasharray="5,2" d="M105.9497,-338.9449C159.4945,-338.6959 257.7558,-335.4485 286,-315.6705 333.7567,-282.229 350.7799,-207.4073 355.4846,-180.5248"/>
<polygon fill="#9a32cd" stroke="#9a32cd" points="105.8661,-335.4449 95.8709,-338.9588 105.8758,-342.4449 105.8661,-335.4449"/>
<text text-anchor="middle" x="222.5" y="-361.6705" font-family="Helvetica,sans-Serif" font-size="10.00" fill="#000000"> energy_max</text>
<text text-anchor="middle" x="222.5" y="-350.6705" font-family="Helvetica,sans-Serif" font-size="10.00" fill="#000000">threshold_for_sqnorm</text>
<text text-anchor="middle" x="222.5" y="-339.6705" font-family="Helvetica,sans-Serif" font-size="10.00" fill="#000000">energy_min</text>
</g>
<!-- Node4 -->
<g id="node4" class="node">
<title>Node4</title>
<polygon fill="none" stroke="#bfbfbf" points="37,-284.1705 37,-303.1705 104,-303.1705 104,-284.1705 37,-284.1705"/>
<text text-anchor="middle" x="70.5" y="-291.1705" font-family="Helvetica,sans-Serif" font-size="10.00" fill="#000000">set&lt; int &gt;</text>
</g>
<!-- Node4&#45;&gt;Node1 -->
<g id="edge3" class="edge">
<title>Node4&#45;&gt;Node1</title>
<path fill="none" stroke="#9a32cd" stroke-dasharray="5,2" d="M114.1513,-292.708C168.5354,-290.8128 257.7548,-285.2069 286,-268.6705 321.8995,-247.6529 344.7395,-200.5228 353.2462,-180.2458"/>
<polygon fill="#9a32cd" stroke="#9a32cd" points="113.9788,-289.2116 104.096,-293.0301 114.203,-296.208 113.9788,-289.2116"/>
<text text-anchor="middle" x="222.5" y="-303.6705" font-family="Helvetica,sans-Serif" font-size="10.00" fill="#000000"> range_l</text>
<text text-anchor="middle" x="222.5" y="-292.6705" font-family="Helvetica,sans-Serif" font-size="10.00" fill="#000000">range_n</text>
</g>
<!-- Node5 -->
<g id="node5" class="node">
<title>Node5</title>
<g id="a_node5"><a xlink:href="classbool.html" target="_top" xlink:title="bool">
<polygon fill="none" stroke="#000000" points="51.5,-206.1705 51.5,-225.1705 89.5,-225.1705 89.5,-206.1705 51.5,-206.1705"/>
<text text-anchor="middle" x="70.5" y="-213.1705" font-family="Helvetica,sans-Serif" font-size="10.00" fill="#000000">bool</text>
</a>
</g>
</g>
<!-- Node5&#45;&gt;Node1 -->
<g id="edge4" class="edge">
<title>Node5&#45;&gt;Node1</title>
<path fill="none" stroke="#9a32cd" stroke-dasharray="5,2" d="M99.7561,-214.6439C141.4864,-212.7381 220.3234,-207.4979 286,-193.6705 301.5952,-190.3872 318.5948,-184.9494 332.049,-180.1854"/>
<polygon fill="#9a32cd" stroke="#9a32cd" points="99.5776,-211.1482 89.735,-215.0693 99.8745,-218.1419 99.5776,-211.1482"/>
<text text-anchor="middle" x="222.5" y="-256.6705" font-family="Helvetica,sans-Serif" font-size="10.00" fill="#000000"> memory_saving</text>
<text text-anchor="start" x="168" y="-245.6705" font-family="Helvetica,sans-Serif" font-size="10.00" fill="#000000">is_interaction_already</text>
<text text-anchor="middle" x="222.5" y="-234.6705" font-family="Helvetica,sans-Serif" font-size="10.00" fill="#000000">_contained</text>
<text text-anchor="start" x="168" y="-223.6705" font-family="Helvetica,sans-Serif" font-size="10.00" fill="#000000">is_new_hamiltonian</text>
<text text-anchor="middle" x="222.5" y="-212.6705" font-family="Helvetica,sans-Serif" font-size="10.00" fill="#000000">_required</text>
</g>
<!-- Node6 -->
<g id="node6" class="node">
<title>Node6</title>
<polygon fill="none" stroke="#bfbfbf" points="0,-121.1705 0,-140.1705 141,-140.1705 141,-121.1705 0,-121.1705"/>
<text text-anchor="middle" x="70.5" y="-128.1705" font-family="Helvetica,sans-Serif" font-size="10.00" fill="#000000">SparseMatrix&lt; scalar_t &gt;</text>
</g>
<!-- Node6&#45;&gt;Node1 -->
<g id="edge5" class="edge">
<title>Node6&#45;&gt;Node1</title>
<path fill="none" stroke="#9a32cd" stroke-dasharray="5,2" d="M138.4419,-120.0209C181.5104,-115.6265 237.9563,-114.2563 286,-127.6705 309.0406,-134.1037 332.0539,-150.2741 345.3874,-160.8488"/>
<polygon fill="#9a32cd" stroke="#9a32cd" points="137.9104,-116.5582 128.3528,-121.1301 138.6754,-123.5163 137.9104,-116.5582"/>
<text text-anchor="start" x="159" y="-185.6705" font-family="Helvetica,sans-Serif" font-size="10.00" fill="#000000"> hamiltonian_unperturbed</text>
<text text-anchor="middle" x="222.5" y="-174.6705" font-family="Helvetica,sans-Serif" font-size="10.00" fill="#000000">_cache</text>
<text text-anchor="middle" x="222.5" y="-163.6705" font-family="Helvetica,sans-Serif" font-size="10.00" fill="#000000">hamiltonian</text>
<text text-anchor="start" x="159" y="-152.6705" font-family="Helvetica,sans-Serif" font-size="10.00" fill="#000000">basisvectors_unperturbed</text>
<text text-anchor="middle" x="222.5" y="-141.6705" font-family="Helvetica,sans-Serif" font-size="10.00" fill="#000000">_cache</text>
<text text-anchor="middle" x="222.5" y="-130.6705" font-family="Helvetica,sans-Serif" font-size="10.00" fill="#000000">basisvectors</text>
</g>
<!-- Node7 -->
<g id="node7" class="node">
<title>Node7</title>
<g id="a_node7"><a xlink:href="classMatrixElementCache.html" target="_top" xlink:title="MatrixElementCache">
<polygon fill="none" stroke="#000000" points="11.5,-83.1705 11.5,-102.1705 129.5,-102.1705 129.5,-83.1705 11.5,-83.1705"/>
<text text-anchor="middle" x="70.5" y="-90.1705" font-family="Helvetica,sans-Serif" font-size="10.00" fill="#000000">MatrixElementCache</text>
</a>
</g>
</g>
<!-- Node7&#45;&gt;Node1 -->
<g id="edge6" class="edge">
<title>Node7&#45;&gt;Node1</title>
<path fill="none" stroke="#9a32cd" stroke-dasharray="5,2" d="M139.9511,-83.2925C183.6098,-80.3142 240.1466,-81.9357 286,-101.6705 315.5239,-114.3773 339.7998,-145.3376 350.7411,-161.1041"/>
<polygon fill="#9a32cd" stroke="#9a32cd" points="139.4091,-79.8241 129.7114,-84.0906 139.9531,-86.8029 139.4091,-79.8241"/>
<text text-anchor="middle" x="222.5" y="-104.6705" font-family="Helvetica,sans-Serif" font-size="10.00" fill="#000000"> cache</text>
</g>
<!-- Node8 -->
<g id="node8" class="node">
<title>Node8</title>
<polygon fill="none" stroke="#bfbfbf" points="51.5,-45.1705 51.5,-64.1705 89.5,-64.1705 89.5,-45.1705 51.5,-45.1705"/>
<text text-anchor="middle" x="70.5" y="-52.1705" font-family="Helvetica,sans-Serif" font-size="10.00" fill="#000000">type</text>
</g>
<!-- Node8&#45;&gt;Node1 -->
<g id="edge7" class="edge">
<title>Node8&#45;&gt;Node1</title>
<path fill="none" stroke="#9a32cd" stroke-dasharray="5,2" d="M99.5573,-48.6407C143.1724,-41.1896 226.7574,-33.244 286,-66.6705 324.0804,-88.1567 345.9951,-139.5473 353.7606,-161.0025"/>
<polygon fill="#9a32cd" stroke="#9a32cd" points="98.8312,-45.2152 89.62,-50.4502 100.0853,-52.102 98.8312,-45.2152"/>
<text text-anchor="middle" x="222.5" y="-69.6705" font-family="Helvetica,sans-Serif" font-size="10.00" fill="#000000"> states</text>
</g>
<!-- Node9 -->
<g id="node9" class="node">
<title>Node9</title>
<polygon fill="none" stroke="#bfbfbf" points="40.5,-7.1705 40.5,-26.1705 100.5,-26.1705 100.5,-7.1705 40.5,-7.1705"/>
<text text-anchor="middle" x="70.5" y="-14.1705" font-family="Helvetica,sans-Serif" font-size="10.00" fill="#000000">set&lt; T &gt;</text>
</g>
<!-- Node9&#45;&gt;Node1 -->
<g id="edge8" class="edge">
<title>Node9&#45;&gt;Node1</title>
<path fill="none" stroke="#9a32cd" stroke-dasharray="5,2" d="M110.4975,-7.2293C156.7482,1.3053 233.2669,7.8443 286,-26.6705 334.7434,-58.574 351.2208,-134.3638 355.6282,-161.1176"/>
<polygon fill="#9a32cd" stroke="#9a32cd" points="109.6848,-3.822 100.5464,-9.1831 111.0334,-10.6909 109.6848,-3.822"/>
<text text-anchor="middle" x="222.5" y="-29.6705" font-family="Helvetica,sans-Serif" font-size="10.00" fill="#000000"> states_to_add</text>
</g>
</g>
</svg>
