<?xml version="1.0" encoding="UTF-8" standalone="no"?>
<!DOCTYPE svg PUBLIC "-//W3C//DTD SVG 1.1//EN"
 "http://www.w3.org/Graphics/SVG/1.1/DTD/svg11.dtd">
<!-- Generated by graphviz version 2.40.1 (20161225.0304)
 -->
<!-- Title: HamiltonianTwo::calculate Pages: 1 -->
<!--zoomable 770 -->
<svg id="main" version="1.1" xmlns="http://www.w3.org/2000/svg" xmlns:xlink="http://www.w3.org/1999/xlink" xml:space="preserve" onload="init(evt)">
<style type="text/css"><![CDATA[
.edge:hover path { stroke: red; }
.edge:hover polygon { stroke: red; fill: red; }
]]></style>
<script type="text/javascript"><![CDATA[
var edges = document.getElementsByTagName('g');
if (edges && edges.length) {
  for (var i=0;i<edges.length;i++) {
    if (edges[i].id.substr(0,4)=='edge') {
      edges[i].setAttribute('class','edge');
    }
  }
}
]]></script>
        <defs>
                <circle id="rim" cx="0" cy="0" r="7"/>
                <circle id="rim2" cx="0" cy="0" r="3.5"/>
                <g id="zoomPlus">
                        <use xlink:href="#rim" fill="#404040">
                                <set attributeName="fill" to="#808080" begin="zoomplus.mouseover" end="zoomplus.mouseout"/>
                        </use>
                        <path d="M-4,0h8M0,-4v8" fill="none" stroke="white" stroke-width="1.5" pointer-events="none"/>
                </g>
                <g id="zoomMin">
                        <use xlink:href="#rim" fill="#404040">
                                <set attributeName="fill" to="#808080" begin="zoomminus.mouseover" end="zoomminus.mouseout"/>
                        </use>
                        <path d="M-4,0h8" fill="none" stroke="white" stroke-width="1.5" pointer-events="none"/>
                </g>
                <g id="dirArrow">
                        <path fill="none" stroke="white" stroke-width="1.5" d="M0,-3.0v7 M-2.5,-0.5L0,-3.0L2.5,-0.5"/>
                </g>
               <g id="resetDef">
                       <use xlink:href="#rim2" fill="#404040">
                               <set attributeName="fill" to="#808080" begin="reset.mouseover" end="reset.mouseout"/>
                       </use>
               </g>
        </defs>

<script type="text/javascript">
var viewWidth = 841;
var viewHeight = 770;
var sectionId = 'dynsection-4';
</script>
<script xlink:href="svgpan.js"/>
<svg id="graph" class="graph">
<g id="viewport">
<title>HamiltonianTwo::calculate</title>
<!-- Node70 -->
<g id="node1" class="node">
<title>Node70</title>
<polygon fill="#bfbfbf" stroke="#000000" points="0,-357.5 0,-376.5 146,-376.5 146,-357.5 0,-357.5"/>
<text text-anchor="middle" x="73" y="-364.5" font-family="Helvetica,sans-Serif" font-size="10.00" fill="#000000">HamiltonianTwo::calculate</text>
</g>
<!-- Node71 -->
<g id="node2" class="node">
<title>Node71</title>
<g id="a_node2"><a xlink:href="classHamiltonianmatrix.html#ab0f42b034579983088548dd6dd4e1e78" target="_top" xlink:title="Hamiltonianmatrix::\lbasis">
<polygon fill="none" stroke="#000000" points="403.5,-682 403.5,-712 518.5,-712 518.5,-682 403.5,-682"/>
<text text-anchor="start" x="411.5" y="-700" font-family="Helvetica,sans-Serif" font-size="10.00" fill="#000000">Hamiltonianmatrix::</text>
<text text-anchor="middle" x="461" y="-689" font-family="Helvetica,sans-Serif" font-size="10.00" fill="#000000">basis</text>
</a>
</g>
</g>
<!-- Node70&#45;&gt;Node71 -->
<g id="edge1" class="edge">
<title>Node70&#45;&gt;Node71</title>
<path fill="none" stroke="#191970" d="M74.5778,-376.8177C83.0519,-428.1971 124.9123,-665.352 182,-707 249.5058,-756.2484 352.6235,-734.6292 412.7717,-715.2578"/>
<polygon fill="#191970" stroke="#191970" points="414.0185,-718.5317 422.404,-712.0561 411.8105,-711.8891 414.0185,-718.5317"/>
</g>
<!-- Node72 -->
<g id="node3" class="node">
<title>Node72</title>
<g id="a_node3"><a xlink:href="classHamiltonianmatrix.html#a310f8a7bc796d0b431928b82f2d11285" target="_top" xlink:title="Hamiltonianmatrix::\lchangeBasis">
<polygon fill="none" stroke="#000000" points="214,-667 214,-697 329,-697 329,-667 214,-667"/>
<text text-anchor="start" x="222" y="-685" font-family="Helvetica,sans-Serif" font-size="10.00" fill="#000000">Hamiltonianmatrix::</text>
<text text-anchor="middle" x="271.5" y="-674" font-family="Helvetica,sans-Serif" font-size="10.00" fill="#000000">changeBasis</text>
</a>
</g>
</g>
<!-- Node70&#45;&gt;Node72 -->
<g id="edge2" class="edge">
<title>Node70&#45;&gt;Node72</title>
<path fill="none" stroke="#191970" d="M73.599,-376.7182C76.6476,-417.4867 93.9704,-576.3254 182,-657 188.4812,-662.9397 196.2584,-667.4834 204.4862,-670.9565"/>
<polygon fill="#191970" stroke="#191970" points="203.3288,-674.26 213.9221,-674.44 205.7532,-667.6932 203.3288,-674.26"/>
</g>
<!-- Node75 -->
<g id="node6" class="node">
<title>Node75</title>
<g id="a_node6"><a xlink:href="Hamiltonianmatrix_8cpp.html#ae139c21d132020dde7c86db8efc751e1" target="_top" xlink:title="combine">
<polygon fill="none" stroke="#000000" points="242,-540.5 242,-559.5 301,-559.5 301,-540.5 242,-540.5"/>
<text text-anchor="middle" x="271.5" y="-547.5" font-family="Helvetica,sans-Serif" font-size="10.00" fill="#000000">combine</text>
</a>
</g>
</g>
<!-- Node70&#45;&gt;Node75 -->
<g id="edge6" class="edge">
<title>Node70&#45;&gt;Node75</title>
<path fill="none" stroke="#191970" d="M76.7365,-376.6234C88.0361,-404.4153 124.6325,-485.3973 182,-526 196.5713,-536.3131 215.327,-542.1949 231.9015,-545.5492"/>
<polygon fill="#191970" stroke="#191970" points="231.4237,-549.0191 241.8827,-547.3282 232.652,-542.1277 231.4237,-549.0191"/>
</g>
<!-- Node79 -->
<g id="node10" class="node">
<title>Node79</title>
<g id="a_node10"><a xlink:href="classHamiltonianmatrix.html#a4069febf25da1723d9cc8e27cd2cd669" target="_top" xlink:title="Hamiltonianmatrix::\lnum_basisvectors">
<polygon fill="none" stroke="#000000" points="403.5,-388 403.5,-418 518.5,-418 518.5,-388 403.5,-388"/>
<text text-anchor="start" x="411.5" y="-406" font-family="Helvetica,sans-Serif" font-size="10.00" fill="#000000">Hamiltonianmatrix::</text>
<text text-anchor="middle" x="461" y="-395" font-family="Helvetica,sans-Serif" font-size="10.00" fill="#000000">num_basisvectors</text>
</a>
</g>
</g>
<!-- Node70&#45;&gt;Node79 -->
<g id="edge33" class="edge">
<title>Node70&#45;&gt;Node79</title>
<path fill="none" stroke="#191970" d="M77.6483,-376.7068C90.2523,-401.7348 127.8104,-468.2258 182,-493 254.3528,-526.0781 292.4598,-533.3896 361,-493 389.4513,-476.2341 372.1443,-449.7431 397,-428 398.9247,-426.3163 400.9759,-424.7393 403.1188,-423.2629"/>
<polygon fill="#191970" stroke="#191970" points="405.0058,-426.2122 411.7658,-418.0543 401.3939,-420.216 405.0058,-426.2122"/>
</g>
<!-- Node81 -->
<g id="node12" class="node">
<title>Node81</title>
<g id="a_node12"><a xlink:href="classHamiltonianmatrix.html#a1db6d20a1d88ef89f1acdad819af34ee" target="_top" xlink:title="Hamiltonianmatrix::\ldiagonalize">
<polygon fill="none" stroke="#000000" points="214,-579 214,-609 329,-609 329,-579 214,-579"/>
<text text-anchor="start" x="222" y="-597" font-family="Helvetica,sans-Serif" font-size="10.00" fill="#000000">Hamiltonianmatrix::</text>
<text text-anchor="middle" x="271.5" y="-586" font-family="Helvetica,sans-Serif" font-size="10.00" fill="#000000">diagonalize</text>
</a>
</g>
</g>
<!-- Node70&#45;&gt;Node81 -->
<g id="edge14" class="edge">
<title>Node70&#45;&gt;Node81</title>
<path fill="none" stroke="#191970" d="M75.3416,-376.7687C83.6791,-409.3903 115.0681,-515.5162 182,-569 188.6129,-574.2842 196.2746,-578.4525 204.2776,-581.7404"/>
<polygon fill="#191970" stroke="#191970" points="203.1928,-585.0702 213.7867,-585.2097 205.5921,-578.4942 203.1928,-585.0702"/>
</g>
<!-- Node82 -->
<g id="node13" class="node">
<title>Node82</title>
<g id="a_node13"><a xlink:href="Hamiltonianmatrix_8cpp.html#a678b50f9b12e7a3fa69970554dd5d206" target="_top" xlink:title="energycutoff">
<polygon fill="none" stroke="#000000" points="232,-628.5 232,-647.5 311,-647.5 311,-628.5 232,-628.5"/>
<text text-anchor="middle" x="271.5" y="-635.5" font-family="Helvetica,sans-Serif" font-size="10.00" fill="#000000">energycutoff</text>
</a>
</g>
</g>
<!-- Node70&#45;&gt;Node82 -->
<g id="edge18" class="edge">
<title>Node70&#45;&gt;Node82</title>
<path fill="none" stroke="#191970" d="M74.0458,-376.6083C78.6762,-414.2116 100.8461,-552.5822 182,-619 193.1775,-628.1479 207.7062,-633.1943 221.7953,-635.8988"/>
<polygon fill="#191970" stroke="#191970" points="221.5023,-639.3953 231.9224,-637.4793 222.5818,-632.4791 221.5023,-639.3953"/>
</g>
<!-- Node83 -->
<g id="node14" class="node">
<title>Node83</title>
<g id="a_node14"><a xlink:href="classStateTwoOld.html#aad5fb4307dec316a5b602c2e8bfae0a8" target="_top" xlink:title="StateTwoOld::first">
<polygon fill="none" stroke="#000000" points="220,-414.5 220,-433.5 323,-433.5 323,-414.5 220,-414.5"/>
<text text-anchor="middle" x="271.5" y="-421.5" font-family="Helvetica,sans-Serif" font-size="10.00" fill="#000000">StateTwoOld::first</text>
</a>
</g>
</g>
<!-- Node70&#45;&gt;Node83 -->
<g id="edge22" class="edge">
<title>Node70&#45;&gt;Node83</title>
<path fill="none" stroke="#191970" d="M97.8251,-376.6623C119.7351,-384.9466 152.6608,-396.8069 182,-405 191.311,-407.6001 201.2531,-410.0378 211.0001,-412.2433"/>
<polygon fill="#191970" stroke="#191970" points="210.5338,-415.7243 221.0523,-414.4547 212.0378,-408.8878 210.5338,-415.7243"/>
</g>
<!-- Node84 -->
<g id="node15" class="node">
<title>Node84</title>
<g id="a_node15"><a xlink:href="classBasisnamesOne.html#a37fe3571090885a8a594eed4019befa9" target="_top" xlink:title="BasisnamesOne::fromFirst">
<polygon fill="none" stroke="#000000" points="198.5,-376.5 198.5,-395.5 344.5,-395.5 344.5,-376.5 198.5,-376.5"/>
<text text-anchor="middle" x="271.5" y="-383.5" font-family="Helvetica,sans-Serif" font-size="10.00" fill="#000000">BasisnamesOne::fromFirst</text>
</a>
</g>
</g>
<!-- Node70&#45;&gt;Node84 -->
<g id="edge23" class="edge">
<title>Node70&#45;&gt;Node84</title>
<path fill="none" stroke="#191970" d="M146.0684,-373.994C159.7673,-375.3052 174.1829,-376.685 188.1657,-378.0234"/>
<polygon fill="#191970" stroke="#191970" points="187.9664,-381.5203 198.2545,-378.9891 188.6335,-374.5521 187.9664,-381.5203"/>
</g>
<!-- Node86 -->
<g id="node17" class="node">
<title>Node86</title>
<g id="a_node17"><a xlink:href="classBasisnamesOne.html#a683ae34cba3c56f9a0185e932de62078" target="_top" xlink:title="BasisnamesOne::fromSecond">
<polygon fill="none" stroke="#000000" points="191.5,-338.5 191.5,-357.5 351.5,-357.5 351.5,-338.5 191.5,-338.5"/>
<text text-anchor="middle" x="271.5" y="-345.5" font-family="Helvetica,sans-Serif" font-size="10.00" fill="#000000">BasisnamesOne::fromSecond</text>
</a>
</g>
</g>
<!-- Node70&#45;&gt;Node86 -->
<g id="edge25" class="edge">
<title>Node70&#45;&gt;Node86</title>
<path fill="none" stroke="#191970" d="M146.0684,-360.006C157.4398,-358.9176 169.3051,-357.7819 181.0067,-356.6618"/>
<polygon fill="#191970" stroke="#191970" points="181.6103,-360.1201 191.2313,-355.6832 180.9433,-353.152 181.6103,-360.1201"/>
</g>
<!-- Node87 -->
<g id="node18" class="node">
<title>Node87</title>
<g id="a_node18"><a xlink:href="classMatrixElements.html#a6b21945229b04895c8a2e896454df444" target="_top" xlink:title="MatrixElements::getMultipole">
<polygon fill="none" stroke="#000000" points="191.5,-300.5 191.5,-319.5 351.5,-319.5 351.5,-300.5 191.5,-300.5"/>
<text text-anchor="middle" x="271.5" y="-307.5" font-family="Helvetica,sans-Serif" font-size="10.00" fill="#000000">MatrixElements::getMultipole</text>
</a>
</g>
</g>
<!-- Node70&#45;&gt;Node87 -->
<g id="edge27" class="edge">
<title>Node70&#45;&gt;Node87</title>
<path fill="none" stroke="#191970" d="M97.8251,-357.3377C119.7351,-349.0534 152.6608,-337.1931 182,-329 191.311,-326.3999 201.2531,-323.9622 211.0001,-321.7567"/>
<polygon fill="#191970" stroke="#191970" points="212.0378,-325.1122 221.0523,-319.5453 210.5338,-318.2757 212.0378,-325.1122"/>
</g>
<!-- Node88 -->
<g id="node19" class="node">
<title>Node88</title>
<g id="a_node19"><a xlink:href="classHamiltonianmatrix.html#ab5561740a111d0e9dc53c865009176a5" target="_top" xlink:title="Hamiltonianmatrix::load">
<polygon fill="none" stroke="#000000" points="203.5,-262.5 203.5,-281.5 339.5,-281.5 339.5,-262.5 203.5,-262.5"/>
<text text-anchor="middle" x="271.5" y="-269.5" font-family="Helvetica,sans-Serif" font-size="10.00" fill="#000000">Hamiltonianmatrix::load</text>
</a>
</g>
</g>
<!-- Node70&#45;&gt;Node88 -->
<g id="edge28" class="edge">
<title>Node70&#45;&gt;Node88</title>
<path fill="none" stroke="#191970" d="M83.5634,-357.413C102.0757,-341.151 142.2073,-308.2493 182,-291 187.8342,-288.471 194.0323,-286.2683 200.3377,-284.3518"/>
<polygon fill="#191970" stroke="#191970" points="201.6081,-287.631 210.2979,-281.5698 199.7249,-280.889 201.6081,-287.631"/>
</g>
<!-- Node92 -->
<g id="node23" class="node">
<title>Node92</title>
<g id="a_node23"><a xlink:href="classConfiguration.html#a545d28b3d64edc05331ee71898acfd1c" target="_top" xlink:title="Load configuration from JSON file. ">
<polygon fill="none" stroke="#000000" points="216.5,-213 216.5,-243 326.5,-243 326.5,-213 216.5,-213"/>
<text text-anchor="start" x="224.5" y="-231" font-family="Helvetica,sans-Serif" font-size="10.00" fill="#000000">Configuration::load</text>
<text text-anchor="middle" x="271.5" y="-220" font-family="Helvetica,sans-Serif" font-size="10.00" fill="#000000">_from_json</text>
</a>
</g>
</g>
<!-- Node70&#45;&gt;Node92 -->
<g id="edge32" class="edge">
<title>Node70&#45;&gt;Node92</title>
<path fill="none" stroke="#191970" d="M79.3952,-357.3942C94.5214,-335.4388 134.7952,-281.3025 182,-253 189.5398,-248.4794 197.925,-244.7505 206.454,-241.6812"/>
<polygon fill="#191970" stroke="#191970" points="207.7118,-244.9517 216.1073,-238.489 205.514,-238.3057 207.7118,-244.9517"/>
</g>
<!-- Node93 -->
<g id="node24" class="node">
<title>Node93</title>
<g id="a_node24"><a xlink:href="classMatrixElements.html#a9c1a327dedbd617cae43dbcff1685a43" target="_top" xlink:title="MatrixElements::precalculate\lMultipole">
<polygon fill="none" stroke="#000000" points="192,-164 192,-194 351,-194 351,-164 192,-164"/>
<text text-anchor="start" x="200" y="-182" font-family="Helvetica,sans-Serif" font-size="10.00" fill="#000000">MatrixElements::precalculate</text>
<text text-anchor="middle" x="271.5" y="-171" font-family="Helvetica,sans-Serif" font-size="10.00" fill="#000000">Multipole</text>
</a>
</g>
</g>
<!-- Node70&#45;&gt;Node93 -->
<g id="edge34" class="edge">
<title>Node70&#45;&gt;Node93</title>
<path fill="none" stroke="#191970" d="M76.6852,-357.1649C87.8458,-328.7561 124.1032,-245.9377 182,-204 184.6784,-202.0599 187.5018,-200.2702 190.4297,-198.6192"/>
<polygon fill="#191970" stroke="#191970" points="192.121,-201.6865 199.4868,-194.071 188.9796,-195.4309 192.121,-201.6865"/>
</g>
<!-- Node94 -->
<g id="node25" class="node">
<title>Node94</title>
<g id="a_node25"><a xlink:href="classsqlite_1_1statement.html#a1b40871fb975892f70ea097f7c6da9c1" target="_top" xlink:title="Prepare the statement. ">
<polygon fill="none" stroke="#000000" points="218.5,-115 218.5,-145 324.5,-145 324.5,-115 218.5,-115"/>
<text text-anchor="start" x="226.5" y="-133" font-family="Helvetica,sans-Serif" font-size="10.00" fill="#000000">sqlite::statement::</text>
<text text-anchor="middle" x="271.5" y="-122" font-family="Helvetica,sans-Serif" font-size="10.00" fill="#000000">prepare</text>
</a>
</g>
</g>
<!-- Node70&#45;&gt;Node94 -->
<g id="edge35" class="edge">
<title>Node70&#45;&gt;Node94</title>
<path fill="none" stroke="#191970" d="M75.0779,-357.228C82.7527,-323.581 112.7241,-211.4966 182,-155 189.7828,-148.6529 199.0726,-143.9143 208.6764,-140.3774"/>
<polygon fill="#191970" stroke="#191970" points="209.9185,-143.6538 218.3406,-137.2258 207.7482,-136.9987 209.9185,-143.6538"/>
</g>
<!-- Node95 -->
<g id="node26" class="node">
<title>Node95</title>
<g id="a_node26"><a xlink:href="classHamiltonianmatrix.html#a2ff416efff07de6e3df93948c2688989" target="_top" xlink:title="Hamiltonianmatrix::\lremoveUnnecessaryBasisvectors">
<polygon fill="none" stroke="#000000" points="182,-453 182,-483 361,-483 361,-453 182,-453"/>
<text text-anchor="start" x="190" y="-471" font-family="Helvetica,sans-Serif" font-size="10.00" fill="#000000">Hamiltonianmatrix::</text>
<text text-anchor="middle" x="271.5" y="-460" font-family="Helvetica,sans-Serif" font-size="10.00" fill="#000000">removeUnnecessaryBasisvectors</text>
</a>
</g>
</g>
<!-- Node70&#45;&gt;Node95 -->
<g id="edge36" class="edge">
<title>Node70&#45;&gt;Node95</title>
<path fill="none" stroke="#191970" d="M83.9831,-376.5773C102.8055,-392.5291 142.9809,-424.6004 182,-443 187.016,-445.3653 192.2987,-447.5462 197.6859,-449.5495"/>
<polygon fill="#191970" stroke="#191970" points="196.8661,-452.9705 207.4609,-452.9651 199.1752,-446.3623 196.8661,-452.9705"/>
</g>
<!-- Node96 -->
<g id="node27" class="node">
<title>Node96</title>
<g id="a_node27"><a xlink:href="classHamiltonianmatrix.html#a9e77fcca733a19f250dd619799edc9e6" target="_top" xlink:title="Hamiltonianmatrix::save">
<polygon fill="none" stroke="#000000" points="202.5,-76.5 202.5,-95.5 340.5,-95.5 340.5,-76.5 202.5,-76.5"/>
<text text-anchor="middle" x="271.5" y="-83.5" font-family="Helvetica,sans-Serif" font-size="10.00" fill="#000000">Hamiltonianmatrix::save</text>
</a>
</g>
</g>
<!-- Node70&#45;&gt;Node96 -->
<g id="edge38" class="edge">
<title>Node70&#45;&gt;Node96</title>
<path fill="none" stroke="#191970" d="M73.9193,-357.3472C78.1183,-318.9211 99.0124,-175.5485 182,-106 185.3634,-103.1813 189.04,-100.7377 192.9234,-98.6211"/>
<polygon fill="#191970" stroke="#191970" points="194.7201,-101.6455 202.31,-94.2533 191.7669,-95.299 194.7201,-101.6455"/>
</g>
<!-- Node101 -->
<g id="node32" class="node">
<title>Node101</title>
<g id="a_node32"><a xlink:href="classStateTwoOld.html#a6efa9c8f92e433004b778f6f5ce212d9" target="_top" xlink:title="StateTwoOld::second">
<polygon fill="none" stroke="#000000" points="212.5,-38.5 212.5,-57.5 330.5,-57.5 330.5,-38.5 212.5,-38.5"/>
<text text-anchor="middle" x="271.5" y="-45.5" font-family="Helvetica,sans-Serif" font-size="10.00" fill="#000000">StateTwoOld::second</text>
</a>
</g>
</g>
<!-- Node70&#45;&gt;Node101 -->
<g id="edge43" class="edge">
<title>Node70&#45;&gt;Node101</title>
<path fill="none" stroke="#191970" d="M73.3182,-357.3723C75.2492,-315.5464 88.7496,-148.0865 182,-67 187.9839,-61.7966 195.0375,-57.9001 202.516,-54.9987"/>
<polygon fill="#191970" stroke="#191970" points="203.757,-58.2752 212.1676,-51.8322 201.5748,-51.624 203.757,-58.2752"/>
</g>
<!-- Node102 -->
<g id="node33" class="node">
<title>Node102</title>
<g id="a_node33"><a xlink:href="MatrixElements_8cpp.html#a8091d5442eeac91702ef15b470e70798" target="_top" xlink:title="selectionRulesMultipole">
<polygon fill="none" stroke="#000000" points="205,-.5 205,-19.5 338,-19.5 338,-.5 205,-.5"/>
<text text-anchor="middle" x="271.5" y="-7.5" font-family="Helvetica,sans-Serif" font-size="10.00" fill="#000000">selectionRulesMultipole</text>
</a>
</g>
</g>
<!-- Node70&#45;&gt;Node102 -->
<g id="edge44" class="edge">
<title>Node70&#45;&gt;Node102</title>
<path fill="none" stroke="#191970" d="M74.7536,-357.4439C84.1236,-307.4053 129.8115,-76.0829 182,-29 185.9529,-25.4338 190.4048,-22.4758 195.1572,-20.0277"/>
<polygon fill="#191970" stroke="#191970" points="196.8353,-23.1149 204.615,-15.9228 194.0482,-16.6937 196.8353,-23.1149"/>
</g>
<!-- Node72&#45;&gt;Node71 -->
<g id="edge3" class="edge">
<title>Node72&#45;&gt;Node71</title>
<path fill="none" stroke="#191970" d="M329.1281,-686.5616C349.3409,-688.1615 372.2309,-689.9734 393.2001,-691.6333"/>
<polygon fill="#191970" stroke="#191970" points="393.0745,-695.1342 403.3196,-692.4343 393.627,-688.156 393.0745,-695.1342"/>
</g>
<!-- Node73 -->
<g id="node4" class="node">
<title>Node73</title>
<g id="a_node4"><a xlink:href="classHamiltonianmatrix.html#a9a6919d68a5f490c249adaaffd46fe75" target="_top" xlink:title="Hamiltonianmatrix::\lentries">
<polygon fill="none" stroke="#000000" points="403.5,-633 403.5,-663 518.5,-663 518.5,-633 403.5,-633"/>
<text text-anchor="start" x="411.5" y="-651" font-family="Helvetica,sans-Serif" font-size="10.00" fill="#000000">Hamiltonianmatrix::</text>
<text text-anchor="middle" x="461" y="-640" font-family="Helvetica,sans-Serif" font-size="10.00" fill="#000000">entries</text>
</a>
</g>
</g>
<!-- Node72&#45;&gt;Node73 -->
<g id="edge4" class="edge">
<title>Node72&#45;&gt;Node73</title>
<path fill="none" stroke="#191970" d="M329.1281,-671.6604C349.3409,-668.0338 372.2309,-663.9269 393.2001,-660.1646"/>
<polygon fill="#191970" stroke="#191970" points="394.0949,-663.5601 403.3196,-658.349 392.8586,-656.6701 394.0949,-663.5601"/>
</g>
<!-- Node74 -->
<g id="node5" class="node">
<title>Node74</title>
<g id="a_node5"><a xlink:href="classHamiltonianmatrix.html#abee2f1bfc2b5239e366a59d1f96ba03e" target="_top" xlink:title="Hamiltonianmatrix::\lHamiltonianmatrix">
<polygon fill="none" stroke="#000000" points="403.5,-731 403.5,-761 518.5,-761 518.5,-731 403.5,-731"/>
<text text-anchor="start" x="411.5" y="-749" font-family="Helvetica,sans-Serif" font-size="10.00" fill="#000000">Hamiltonianmatrix::</text>
<text text-anchor="middle" x="461" y="-738" font-family="Helvetica,sans-Serif" font-size="10.00" fill="#000000">Hamiltonianmatrix</text>
</a>
</g>
</g>
<!-- Node72&#45;&gt;Node74 -->
<g id="edge5" class="edge">
<title>Node72&#45;&gt;Node74</title>
<path fill="none" stroke="#191970" d="M315.9293,-697.0052C343.1543,-706.1999 378.1876,-718.0317 407.0063,-727.7647"/>
<polygon fill="#191970" stroke="#191970" points="405.9269,-731.0943 416.5211,-730.9781 408.1668,-724.4623 405.9269,-731.0943"/>
</g>
<!-- Node75&#45;&gt;Node71 -->
<g id="edge9" class="edge">
<title>Node75&#45;&gt;Node71</title>
<path fill="none" stroke="#191970" d="M301.3975,-549.5751C320.576,-550.8605 344.8243,-555.6054 361,-570 397.2263,-602.2375 363.0984,-638.326 397,-673 397.9333,-673.9546 398.9082,-674.8716 399.9191,-675.7525"/>
<polygon fill="#191970" stroke="#191970" points="398.137,-678.7837 408.2864,-681.8234 402.2479,-673.1179 398.137,-678.7837"/>
</g>
<!-- Node75&#45;&gt;Node73 -->
<g id="edge11" class="edge">
<title>Node75&#45;&gt;Node73</title>
<path fill="none" stroke="#191970" d="M301.1195,-551.0738C319.7105,-553.0163 343.4077,-557.9302 361,-570 384.7848,-586.3183 374.4051,-606.0703 397,-624 398.6035,-625.2724 400.2815,-626.4823 402.0166,-627.6324"/>
<polygon fill="#191970" stroke="#191970" points="400.6826,-630.9048 411.0887,-632.896 404.1956,-624.8501 400.6826,-630.9048"/>
</g>
<!-- Node76 -->
<g id="node7" class="node">
<title>Node76</title>
<g id="a_node7"><a xlink:href="classHamiltonianmatrix.html#a45f3d187ac775e9b6c6a7756810f91ab" target="_top" xlink:title="Hamiltonianmatrix::\laddBasis">
<polygon fill="none" stroke="#000000" points="403.5,-535 403.5,-565 518.5,-565 518.5,-535 403.5,-535"/>
<text text-anchor="start" x="411.5" y="-553" font-family="Helvetica,sans-Serif" font-size="10.00" fill="#000000">Hamiltonianmatrix::</text>
<text text-anchor="middle" x="461" y="-542" font-family="Helvetica,sans-Serif" font-size="10.00" fill="#000000">addBasis</text>
</a>
</g>
</g>
<!-- Node75&#45;&gt;Node76 -->
<g id="edge7" class="edge">
<title>Node75&#45;&gt;Node76</title>
<path fill="none" stroke="#191970" d="M301.1094,-550C325.719,-550 361.692,-550 393.2875,-550"/>
<polygon fill="#191970" stroke="#191970" points="393.372,-553.5001 403.3719,-550 393.3719,-546.5001 393.372,-553.5001"/>
</g>
<!-- Node77 -->
<g id="node8" class="node">
<title>Node77</title>
<g id="a_node8"><a xlink:href="classHamiltonianmatrix.html#a7f424947bfe863cdd30d3290b4b708a5" target="_top" xlink:title="Hamiltonianmatrix::\laddEntries">
<polygon fill="none" stroke="#000000" points="403.5,-486 403.5,-516 518.5,-516 518.5,-486 403.5,-486"/>
<text text-anchor="start" x="411.5" y="-504" font-family="Helvetica,sans-Serif" font-size="10.00" fill="#000000">Hamiltonianmatrix::</text>
<text text-anchor="middle" x="461" y="-493" font-family="Helvetica,sans-Serif" font-size="10.00" fill="#000000">addEntries</text>
</a>
</g>
</g>
<!-- Node75&#45;&gt;Node77 -->
<g id="edge8" class="edge">
<title>Node75&#45;&gt;Node77</title>
<path fill="none" stroke="#191970" d="M301.1094,-542.3438C325.719,-535.9803 361.692,-526.6786 393.2875,-518.5088"/>
<polygon fill="#191970" stroke="#191970" points="394.5666,-521.7932 403.3719,-515.9012 392.8141,-515.0161 394.5666,-521.7932"/>
</g>
<!-- Node78 -->
<g id="node9" class="node">
<title>Node78</title>
<g id="a_node9"><a xlink:href="classHamiltonianmatrix.html#a4dded9728c945c20fcd7abbc8bd5cfe6" target="_top" xlink:title="Hamiltonianmatrix::\lcompress">
<polygon fill="none" stroke="#000000" points="403.5,-437 403.5,-467 518.5,-467 518.5,-437 403.5,-437"/>
<text text-anchor="start" x="411.5" y="-455" font-family="Helvetica,sans-Serif" font-size="10.00" fill="#000000">Hamiltonianmatrix::</text>
<text text-anchor="middle" x="461" y="-444" font-family="Helvetica,sans-Serif" font-size="10.00" fill="#000000">compress</text>
</a>
</g>
</g>
<!-- Node75&#45;&gt;Node78 -->
<g id="edge10" class="edge">
<title>Node75&#45;&gt;Node78</title>
<path fill="none" stroke="#191970" d="M301.3961,-547.0643C319.8689,-544.0799 343.3361,-538.0736 361,-526 383.3099,-510.7508 375.5654,-493.4569 397,-477 399.3063,-475.2293 401.7536,-473.5691 404.2942,-472.0145"/>
<polygon fill="#191970" stroke="#191970" points="406.1302,-474.9996 413.222,-467.1283 402.7695,-468.8591 406.1302,-474.9996"/>
</g>
<!-- Node75&#45;&gt;Node79 -->
<g id="edge12" class="edge">
<title>Node75&#45;&gt;Node79</title>
<path fill="none" stroke="#191970" d="M301.4137,-548.852C320.5991,-546.6095 344.8489,-540.7584 361,-526 395.2543,-494.6994 364.5249,-461.1429 397,-428 398.4088,-426.5622 399.91,-425.2053 401.4853,-423.925"/>
<polygon fill="#191970" stroke="#191970" points="403.639,-426.6916 409.8939,-418.1401 399.6715,-420.9245 403.639,-426.6916"/>
</g>
<!-- Node80 -->
<g id="node11" class="node">
<title>Node80</title>
<g id="a_node11"><a xlink:href="classHamiltonianmatrix.html#a9cd965385a65becbfb993fc79dc428f7" target="_top" xlink:title="Hamiltonianmatrix::\lnum_coordinates">
<polygon fill="none" stroke="#000000" points="403.5,-584 403.5,-614 518.5,-614 518.5,-584 403.5,-584"/>
<text text-anchor="start" x="411.5" y="-602" font-family="Helvetica,sans-Serif" font-size="10.00" fill="#000000">Hamiltonianmatrix::</text>
<text text-anchor="middle" x="461" y="-591" font-family="Helvetica,sans-Serif" font-size="10.00" fill="#000000">num_coordinates</text>
</a>
</g>
</g>
<!-- Node75&#45;&gt;Node80 -->
<g id="edge13" class="edge">
<title>Node75&#45;&gt;Node80</title>
<path fill="none" stroke="#191970" d="M301.0367,-556.1156C318.5347,-559.8591 341.1052,-564.8977 361,-570 374.1159,-573.3638 388.1179,-577.2419 401.3646,-581.0454"/>
<polygon fill="#191970" stroke="#191970" points="400.7409,-584.5086 411.3199,-583.9297 402.6889,-577.7851 400.7409,-584.5086"/>
</g>
<!-- Node81&#45;&gt;Node71 -->
<g id="edge15" class="edge">
<title>Node81&#45;&gt;Node71</title>
<path fill="none" stroke="#191970" d="M329.1718,-603.609C340.4046,-607.2177 351.5977,-612.1793 361,-619 384.348,-635.9373 374.4051,-655.0703 397,-673 398.6035,-674.2724 400.2815,-675.4823 402.0166,-676.6324"/>
<polygon fill="#191970" stroke="#191970" points="400.6826,-679.9048 411.0887,-681.896 404.1956,-673.8501 400.6826,-679.9048"/>
</g>
<!-- Node81&#45;&gt;Node73 -->
<g id="edge16" class="edge">
<title>Node81&#45;&gt;Node73</title>
<path fill="none" stroke="#191970" d="M325.9532,-609.1179C337.5282,-612.3573 349.6729,-615.7757 361,-619 373.5381,-622.5691 386.948,-626.4287 399.7434,-630.1319"/>
<polygon fill="#191970" stroke="#191970" points="398.8048,-633.5038 409.3838,-632.9259 400.7534,-626.7805 398.8048,-633.5038"/>
</g>
<!-- Node81&#45;&gt;Node79 -->
<g id="edge17" class="edge">
<title>Node81&#45;&gt;Node79</title>
<path fill="none" stroke="#191970" d="M329.3054,-587.3039C341.0573,-583.5312 352.4278,-577.7665 361,-569 406.2183,-522.7569 354.1497,-476.4455 397,-428 398.1682,-426.6793 399.4148,-425.4277 400.727,-424.2418"/>
<polygon fill="#191970" stroke="#191970" points="402.9642,-426.939 408.8682,-418.1416 398.7667,-421.3371 402.9642,-426.939"/>
</g>
<!-- Node82&#45;&gt;Node71 -->
<g id="edge19" class="edge">
<title>Node82&#45;&gt;Node71</title>
<path fill="none" stroke="#191970" d="M311.1054,-645.2944C326.8047,-648.5883 344.914,-652.8947 361,-658 377.5212,-663.2434 380.8825,-666.6226 397,-673 401.4551,-674.7628 406.0968,-676.5666 410.7556,-678.3545"/>
<polygon fill="#191970" stroke="#191970" points="409.6968,-681.6964 420.2877,-681.984 412.1877,-675.1546 409.6968,-681.6964"/>
</g>
<!-- Node82&#45;&gt;Node73 -->
<g id="edge20" class="edge">
<title>Node82&#45;&gt;Node73</title>
<path fill="none" stroke="#191970" d="M311.2254,-640.0963C334.8994,-641.3456 365.5869,-642.965 393.0148,-644.4124"/>
<polygon fill="#191970" stroke="#191970" points="393.1752,-647.9256 403.3458,-644.9576 393.5441,-640.9354 393.1752,-647.9256"/>
</g>
<!-- Node82&#45;&gt;Node80 -->
<g id="edge21" class="edge">
<title>Node82&#45;&gt;Node80</title>
<path fill="none" stroke="#191970" d="M311.2254,-629.8243C335.0037,-624.9306 365.8574,-618.5808 393.3771,-612.9171"/>
<polygon fill="#191970" stroke="#191970" points="394.2566,-616.3095 403.3458,-610.8655 392.8455,-609.4532 394.2566,-616.3095"/>
</g>
<!-- Node85 -->
<g id="node16" class="node">
<title>Node85</title>
<g id="a_node16"><a xlink:href="classBasisnames.html#a534f7e2dcc2987a1f969cb89c070da04" target="_top" xlink:title="Basisnames::configure">
<polygon fill="none" stroke="#000000" points="397,-343.5 397,-362.5 525,-362.5 525,-343.5 397,-343.5"/>
<text text-anchor="middle" x="461" y="-350.5" font-family="Helvetica,sans-Serif" font-size="10.00" fill="#000000">Basisnames::configure</text>
</a>
</g>
</g>
<!-- Node84&#45;&gt;Node85 -->
<g id="edge24" class="edge">
<title>Node84&#45;&gt;Node85</title>
<path fill="none" stroke="#191970" d="M326.057,-376.4993C347.9634,-372.6845 373.3885,-368.2569 396.224,-364.2802"/>
<polygon fill="#191970" stroke="#191970" points="396.9206,-367.7117 406.1719,-362.5479 395.7196,-360.8155 396.9206,-367.7117"/>
</g>
<!-- Node86&#45;&gt;Node85 -->
<g id="edge26" class="edge">
<title>Node86&#45;&gt;Node85</title>
<path fill="none" stroke="#191970" d="M351.5904,-350.1132C363.3095,-350.4224 375.3353,-350.7397 386.927,-351.0456"/>
<polygon fill="#191970" stroke="#191970" points="386.8944,-354.5458 396.9833,-351.3109 387.0791,-347.5483 386.8944,-354.5458"/>
</g>
<!-- Node89 -->
<g id="node20" class="node">
<title>Node89</title>
<g id="a_node20"><a xlink:href="classHamiltonianmatrix.html#a15bc9c823975f5395112432c5b8507db" target="_top" xlink:title="Hamiltonianmatrix::\ldoDeserialization">
<polygon fill="none" stroke="#000000" points="403.5,-257 403.5,-287 518.5,-287 518.5,-257 403.5,-257"/>
<text text-anchor="start" x="411.5" y="-275" font-family="Helvetica,sans-Serif" font-size="10.00" fill="#000000">Hamiltonianmatrix::</text>
<text text-anchor="middle" x="461" y="-264" font-family="Helvetica,sans-Serif" font-size="10.00" fill="#000000">doDeserialization</text>
</a>
</g>
</g>
<!-- Node88&#45;&gt;Node89 -->
<g id="edge29" class="edge">
<title>Node88&#45;&gt;Node89</title>
<path fill="none" stroke="#191970" d="M339.6461,-272C357.1201,-272 375.9078,-272 393.3563,-272"/>
<polygon fill="#191970" stroke="#191970" points="393.455,-275.5001 403.455,-272 393.4549,-268.5001 393.455,-275.5001"/>
</g>
<!-- Node90 -->
<g id="node21" class="node">
<title>Node90</title>
<g id="a_node21"><a xlink:href="classSerializer.html#a26e560124d2dd1daa304ac8e878db630" target="_top" xlink:title="Serializer::load">
<polygon fill="none" stroke="#000000" points="574,-284.5 574,-303.5 663,-303.5 663,-284.5 574,-284.5"/>
<text text-anchor="middle" x="618.5" y="-291.5" font-family="Helvetica,sans-Serif" font-size="10.00" fill="#000000">Serializer::load</text>
</a>
</g>
</g>
<!-- Node89&#45;&gt;Node90 -->
<g id="edge30" class="edge">
<title>Node89&#45;&gt;Node90</title>
<path fill="none" stroke="#191970" d="M518.7529,-280.0671C533.3061,-282.0999 548.8913,-284.2769 563.3149,-286.2916"/>
<polygon fill="#191970" stroke="#191970" points="563.1928,-289.8085 573.5809,-287.7256 564.1613,-282.8758 563.1928,-289.8085"/>
</g>
<!-- Node91 -->
<g id="node22" class="node">
<title>Node91</title>
<g id="a_node22"><a xlink:href="classHamiltonianmatrix.html#a37cc79dcec0f0d81265870a34517a225" target="_top" xlink:title="Hamiltonianmatrix::\lmergeComplex">
<polygon fill="none" stroke="#000000" points="561,-235 561,-265 676,-265 676,-235 561,-235"/>
<text text-anchor="start" x="569" y="-253" font-family="Helvetica,sans-Serif" font-size="10.00" fill="#000000">Hamiltonianmatrix::</text>
<text text-anchor="middle" x="618.5" y="-242" font-family="Helvetica,sans-Serif" font-size="10.00" fill="#000000">mergeComplex</text>
</a>
</g>
</g>
<!-- Node89&#45;&gt;Node91 -->
<g id="edge31" class="edge">
<title>Node89&#45;&gt;Node91</title>
<path fill="none" stroke="#191970" d="M518.7529,-263.9329C529.1317,-262.4832 540.0355,-260.9601 550.6685,-259.4749"/>
<polygon fill="#191970" stroke="#191970" points="551.3345,-262.9159 560.7541,-258.0661 550.3661,-255.9832 551.3345,-262.9159"/>
</g>
<!-- Node95&#45;&gt;Node79 -->
<g id="edge37" class="edge">
<title>Node95&#45;&gt;Node79</title>
<path fill="none" stroke="#191970" d="M329.5952,-452.8897C340.1172,-449.8369 350.9392,-446.4865 361,-443 377.3778,-437.3244 380.9264,-434.4871 397,-428 402.047,-425.9631 407.3278,-423.8582 412.5989,-421.7742"/>
<polygon fill="#191970" stroke="#191970" points="414.0002,-424.984 422.0236,-418.0647 411.4365,-418.4704 414.0002,-424.984"/>
</g>
<!-- Node97 -->
<g id="node28" class="node">
<title>Node97</title>
<g id="a_node28"><a xlink:href="classHamiltonianmatrix.html#aa8d50e3585a18628f4abbb5bcede4bbb" target="_top" xlink:title="Hamiltonianmatrix::\ldoSerialization">
<polygon fill="none" stroke="#000000" points="403.5,-71 403.5,-101 518.5,-101 518.5,-71 403.5,-71"/>
<text text-anchor="start" x="411.5" y="-89" font-family="Helvetica,sans-Serif" font-size="10.00" fill="#000000">Hamiltonianmatrix::</text>
<text text-anchor="middle" x="461" y="-78" font-family="Helvetica,sans-Serif" font-size="10.00" fill="#000000">doSerialization</text>
</a>
</g>
</g>
<!-- Node96&#45;&gt;Node97 -->
<g id="edge39" class="edge">
<title>Node96&#45;&gt;Node97</title>
<path fill="none" stroke="#191970" d="M340.7182,-86C357.7918,-86 376.0606,-86 393.0723,-86"/>
<polygon fill="#191970" stroke="#191970" points="393.4802,-89.5001 403.4801,-86 393.4801,-82.5001 393.4802,-89.5001"/>
</g>
<!-- Node98 -->
<g id="node29" class="node">
<title>Node98</title>
<g id="a_node29"><a xlink:href="classSerializer.html#a79a572d0a14988acd13217beb7d5547b" target="_top" xlink:title="Serializer::save">
<polygon fill="none" stroke="#000000" points="572.5,-98.5 572.5,-117.5 664.5,-117.5 664.5,-98.5 572.5,-98.5"/>
<text text-anchor="middle" x="618.5" y="-105.5" font-family="Helvetica,sans-Serif" font-size="10.00" fill="#000000">Serializer::save</text>
</a>
</g>
</g>
<!-- Node97&#45;&gt;Node98 -->
<g id="edge40" class="edge">
<title>Node97&#45;&gt;Node98</title>
<path fill="none" stroke="#191970" d="M518.7529,-94.0671C532.8822,-96.0407 547.9843,-98.1502 562.0517,-100.1152"/>
<polygon fill="#191970" stroke="#191970" points="561.6953,-103.5993 572.0834,-101.5164 562.6638,-96.6666 561.6953,-103.5993"/>
</g>
<!-- Node100 -->
<g id="node31" class="node">
<title>Node100</title>
<g id="a_node31"><a xlink:href="classHamiltonianmatrix.html#a035cf5188e89f3f4230beb502a718ea9" target="_top" xlink:title="Hamiltonianmatrix::\lsplitComplex">
<polygon fill="none" stroke="#000000" points="561,-49 561,-79 676,-79 676,-49 561,-49"/>
<text text-anchor="start" x="569" y="-67" font-family="Helvetica,sans-Serif" font-size="10.00" fill="#000000">Hamiltonianmatrix::</text>
<text text-anchor="middle" x="618.5" y="-56" font-family="Helvetica,sans-Serif" font-size="10.00" fill="#000000">splitComplex</text>
</a>
</g>
</g>
<!-- Node97&#45;&gt;Node100 -->
<g id="edge42" class="edge">
<title>Node97&#45;&gt;Node100</title>
<path fill="none" stroke="#191970" d="M518.7529,-77.9329C529.1317,-76.4832 540.0355,-74.9601 550.6685,-73.4749"/>
<polygon fill="#191970" stroke="#191970" points="551.3345,-76.9159 560.7541,-72.0661 550.3661,-69.9832 551.3345,-76.9159"/>
</g>
<!-- Node99 -->
<g id="node30" class="node">
<title>Node99</title>
<g id="a_node30"><a xlink:href="classSerializable.html#ad0b89a7563e6a98df7eb6a8a46c51735" target="_top" xlink:title="Serializable::serialize">
<polygon fill="none" stroke="#000000" points="712,-98.5 712,-117.5 833,-117.5 833,-98.5 712,-98.5"/>
<text text-anchor="middle" x="772.5" y="-105.5" font-family="Helvetica,sans-Serif" font-size="10.00" fill="#000000">Serializable::serialize</text>
</a>
</g>
</g>
<!-- Node98&#45;&gt;Node99 -->
<g id="edge41" class="edge">
<title>Node98&#45;&gt;Node99</title>
<path fill="none" stroke="#191970" d="M664.7051,-108C676.3798,-108 689.1854,-108 701.7663,-108"/>
<polygon fill="#191970" stroke="#191970" points="701.782,-111.5001 711.7819,-108 701.7819,-104.5001 701.782,-111.5001"/>
</g>
</g>
</svg>
        <g id="navigator" transform="translate(0 0)" fill="#404254">
                <rect fill="#f2f5e9" fill-opacity="0.5" stroke="#606060" stroke-width=".5" x="0" y="0" width="60" height="60"/>
                <use id="zoomplus" xlink:href="#zoomPlus" x="17" y="9" onmousedown="handleZoom(evt,'in')"/>
                <use id="zoomminus" xlink:href="#zoomMin" x="42" y="9" onmousedown="handleZoom(evt,'out')"/>
                <use id="reset" xlink:href="#resetDef" x="30" y="36" onmousedown="handleReset()"/>
                <g id="arrowUp" xlink:href="#dirArrow" transform="translate(30 24)" onmousedown="handlePan(0,-1)">
                  <use xlink:href="#rim" fill="#404040">
                        <set attributeName="fill" to="#808080" begin="arrowUp.mouseover" end="arrowUp.mouseout"/>
                  </use>
                  <path fill="none" stroke="white" stroke-width="1.5" d="M0,-3.0v7 M-2.5,-0.5L0,-3.0L2.5,-0.5"/>
                </g>
                <g id="arrowRight" xlink:href="#dirArrow" transform="rotate(90) translate(36 -43)" onmousedown="handlePan(1,0)">
                  <use xlink:href="#rim" fill="#404040">
                        <set attributeName="fill" to="#808080" begin="arrowRight.mouseover" end="arrowRight.mouseout"/>
                  </use>
                  <path fill="none" stroke="white" stroke-width="1.5" d="M0,-3.0v7 M-2.5,-0.5L0,-3.0L2.5,-0.5"/>
                </g>
                <g id="arrowDown" xlink:href="#dirArrow" transform="rotate(180) translate(-30 -48)" onmousedown="handlePan(0,1)">
                  <use xlink:href="#rim" fill="#404040">
                        <set attributeName="fill" to="#808080" begin="arrowDown.mouseover" end="arrowDown.mouseout"/>
                  </use>
                  <path fill="none" stroke="white" stroke-width="1.5" d="M0,-3.0v7 M-2.5,-0.5L0,-3.0L2.5,-0.5"/>
                </g>
                <g id="arrowLeft" xlink:href="#dirArrow" transform="rotate(270) translate(-36 17)" onmousedown="handlePan(-1,0)">
                  <use xlink:href="#rim" fill="#404040">
                        <set attributeName="fill" to="#808080" begin="arrowLeft.mouseover" end="arrowLeft.mouseout"/>
                  </use>
                  <path fill="none" stroke="white" stroke-width="1.5" d="M0,-3.0v7 M-2.5,-0.5L0,-3.0L2.5,-0.5"/>
                </g>
        </g>
        <svg viewBox="0 0 15 15" width="100%" height="30px" preserveAspectRatio="xMaxYMin meet">
         <g id="arrow_out" transform="scale(0.3 0.3)">
          <a xlink:href="classHamiltonianTwo_a6ca0a318f25170b69e571a07064a5afb_cgraph_org.svg" target="_base">
           <rect id="button" ry="5" rx="5" y="6" x="6" height="38" width="38"
                fill="#f2f5e9" fill-opacity="0.5" stroke="#606060" stroke-width="1.0"/>
           <path id="arrow"
             d="M 11.500037,31.436501 C 11.940474,20.09759 22.043105,11.32322 32.158766,21.979434 L 37.068811,17.246167 C 37.068811,17.246167 37.088388,32 37.088388,32 L 22.160133,31.978069 C 22.160133,31.978069 26.997745,27.140456 26.997745,27.140456 C 18.528582,18.264221 13.291696,25.230495 11.500037,31.436501 z"
             style="fill:#404040;"/>
          </a>
         </g>
        </svg>
</svg>
