<?xml version="1.0" encoding="UTF-8" standalone="no"?>
<!DOCTYPE svg PUBLIC "-//W3C//DTD SVG 1.1//EN"
 "http://www.w3.org/Graphics/SVG/1.1/DTD/svg11.dtd">
<!-- Generated by graphviz version 2.40.1 (20161225.0304)
 -->
<!-- Title: SystemBase::getHamiltonian Pages: 1 -->
<svg width="360pt" height="66pt"
 viewBox="0.00 0.00 360.00 66.00" xmlns="http://www.w3.org/2000/svg" xmlns:xlink="http://www.w3.org/1999/xlink">
<g id="graph0" class="graph" transform="scale(1 1) rotate(0) translate(4 62)">
<title>SystemBase::getHamiltonian</title>
<!-- Node88 -->
<g id="node1" class="node">
<title>Node88</title>
<polygon fill="#bfbfbf" stroke="#000000" points="0,-19.5 0,-38.5 159,-38.5 159,-19.5 0,-19.5"/>
<text text-anchor="middle" x="79.5" y="-26.5" font-family="Helvetica,sans-Serif" font-size="10.00" fill="#000000">SystemBase::getHamiltonian</text>
</g>
<!-- Node89 -->
<g id="node2" class="node">
<title>Node89</title>
<g id="a_node2"><a xlink:href="integration__test_8cpp.html#a0edc7e03850724a3784df426b75fb1d2" target="_top" xlink:title="BOOST_FIXTURE_TEST_CASE">
<polygon fill="none" stroke="#000000" points="195,-38.5 195,-57.5 352,-57.5 352,-38.5 195,-38.5"/>
<text text-anchor="middle" x="273.5" y="-45.5" font-family="Helvetica,sans-Serif" font-size="10.00" fill="#000000">BOOST_FIXTURE_TEST_CASE</text>
</a>
</g>
</g>
<!-- Node88&#45;&gt;Node89 -->
<g id="edge1" class="edge">
<title>Node88&#45;&gt;Node89</title>
<path fill="none" stroke="#191970" d="M169.467,-37.8112C177.8885,-38.636 186.381,-39.4677 194.6889,-40.2814"/>
<polygon fill="#191970" stroke="#191970" points="169.5406,-34.3018 159.2471,-36.8103 168.8583,-41.2684 169.5406,-34.3018"/>
</g>
<!-- Node90 -->
<g id="node3" class="node">
<title>Node90</title>
<g id="a_node3"><a xlink:href="classSystemTwo.html#a7aa70b668bd55e25ba9ed8f9d037052c" target="_top" xlink:title="Method that allows base class to initialize Basis //////////////. ">
<polygon fill="none" stroke="#000000" points="200.5,-.5 200.5,-19.5 346.5,-19.5 346.5,-.5 200.5,-.5"/>
<text text-anchor="middle" x="273.5" y="-7.5" font-family="Helvetica,sans-Serif" font-size="10.00" fill="#000000">SystemTwo::initializeBasis</text>
</a>
</g>
</g>
<!-- Node88&#45;&gt;Node90 -->
<g id="edge2" class="edge">
<title>Node88&#45;&gt;Node90</title>
<path fill="none" stroke="#191970" d="M169.5066,-20.1849C179.8189,-19.175 190.2372,-18.1546 200.2919,-17.1699"/>
<polygon fill="#191970" stroke="#191970" points="168.8583,-16.7316 159.2471,-21.1897 169.5406,-23.6982 168.8583,-16.7316"/>
</g>
</g>
</svg>
