<?xml version="1.0" encoding="UTF-8" standalone="no"?>
<!DOCTYPE svg PUBLIC "-//W3C//DTD SVG 1.1//EN"
 "http://www.w3.org/Graphics/SVG/1.1/DTD/svg11.dtd">
<!-- Generated by graphviz version 2.40.1 (20161225.0304)
 -->
<!-- Title: Numerov::integrate Pages: 1 -->
<svg width="409pt" height="28pt"
 viewBox="0.00 0.00 409.00 28.00" xmlns="http://www.w3.org/2000/svg" xmlns:xlink="http://www.w3.org/1999/xlink">
<g id="graph0" class="graph" transform="scale(1 1) rotate(0) translate(4 24)">
<title>Numerov::integrate</title>
<!-- Node2 -->
<g id="node1" class="node">
<title>Node2</title>
<polygon fill="#bfbfbf" stroke="#000000" points="0,-.5 0,-19.5 112,-19.5 112,-.5 0,-.5"/>
<text text-anchor="middle" x="56" y="-7.5" font-family="Helvetica,sans-Serif" font-size="10.00" fill="#000000">Numerov::integrate</text>
</g>
<!-- Node3 -->
<g id="node2" class="node">
<title>Node3</title>
<g id="a_node2"><a xlink:href="namespacemodel__potential.html#a8239dc44dc82bb860c84927579ddda34" target="_top" xlink:title="Helper function for Numerov&#39;s method.s. ">
<polygon fill="none" stroke="#000000" points="148,-.5 148,-19.5 256,-19.5 256,-.5 148,-.5"/>
<text text-anchor="middle" x="202" y="-7.5" font-family="Helvetica,sans-Serif" font-size="10.00" fill="#000000">model_potential::g</text>
</a>
</g>
</g>
<!-- Node2&#45;&gt;Node3 -->
<g id="edge1" class="edge">
<title>Node2&#45;&gt;Node3</title>
<path fill="none" stroke="#191970" d="M112.0299,-10C120.3767,-10 129.037,-10 137.5405,-10"/>
<polygon fill="#191970" stroke="#191970" points="137.8036,-13.5001 147.8036,-10 137.8035,-6.5001 137.8036,-13.5001"/>
</g>
<!-- Node4 -->
<g id="node3" class="node">
<title>Node4</title>
<g id="a_node3"><a xlink:href="namespacemodel__potential.html#adce6f491eb622389e7db9e598516614d" target="_top" xlink:title="Calculate the model potentials. ">
<polygon fill="none" stroke="#000000" points="292,-.5 292,-19.5 401,-19.5 401,-.5 292,-.5"/>
<text text-anchor="middle" x="346.5" y="-7.5" font-family="Helvetica,sans-Serif" font-size="10.00" fill="#000000">model_potential::V</text>
</a>
</g>
</g>
<!-- Node3&#45;&gt;Node4 -->
<g id="edge2" class="edge">
<title>Node3&#45;&gt;Node4</title>
<path fill="none" stroke="#191970" d="M256.2176,-10C264.6213,-10 273.3727,-10 281.9763,-10"/>
<polygon fill="#191970" stroke="#191970" points="281.9786,-13.5001 291.9785,-10 281.9785,-6.5001 281.9786,-13.5001"/>
</g>
</g>
</svg>
