<?xml version="1.0" encoding="UTF-8" standalone="no"?>
<!DOCTYPE svg PUBLIC "-//W3C//DTD SVG 1.1//EN"
 "http://www.w3.org/Graphics/SVG/1.1/DTD/svg11.dtd">
<!-- Generated by graphviz version 2.40.1 (20161225.0304)
 -->
<!-- Title: MatrixElementCache::getMagneticDipole Pages: 1 -->
<svg width="283pt" height="218pt"
 viewBox="0.00 0.00 283.00 218.00" xmlns="http://www.w3.org/2000/svg" xmlns:xlink="http://www.w3.org/1999/xlink">
<g id="graph0" class="graph" transform="scale(1 1) rotate(0) translate(4 214)">
<title>MatrixElementCache::getMagneticDipole</title>
<!-- Node35 -->
<g id="node1" class="node">
<title>Node35</title>
<polygon fill="#bfbfbf" stroke="#000000" points="0,-90 0,-120 118,-120 118,-90 0,-90"/>
<text text-anchor="start" x="8" y="-108" font-family="Helvetica,sans-Serif" font-size="10.00" fill="#000000">MatrixElementCache</text>
<text text-anchor="middle" x="59" y="-97" font-family="Helvetica,sans-Serif" font-size="10.00" fill="#000000">::getMagneticDipole</text>
</g>
<!-- Node36 -->
<g id="node2" class="node">
<title>Node36</title>
<g id="a_node2"><a xlink:href="classStateOne.html#aedba5bfce70f73fa324b9d5ae1115578" target="_top" xlink:title="StateOne::getJ">
<polygon fill="none" stroke="#000000" points="171.5,-190.5 171.5,-209.5 257.5,-209.5 257.5,-190.5 171.5,-190.5"/>
<text text-anchor="middle" x="214.5" y="-197.5" font-family="Helvetica,sans-Serif" font-size="10.00" fill="#000000">StateOne::getJ</text>
</a>
</g>
</g>
<!-- Node35&#45;&gt;Node36 -->
<g id="edge1" class="edge">
<title>Node35&#45;&gt;Node36</title>
<path fill="none" stroke="#191970" d="M74.1751,-120.1565C91.9272,-137.1261 122.8697,-164.4147 154,-181 158.0444,-183.1547 162.3731,-185.1111 166.7867,-186.8766"/>
<polygon fill="#191970" stroke="#191970" points="165.9134,-190.2842 176.5071,-190.4397 168.3226,-183.7118 165.9134,-190.2842"/>
</g>
<!-- Node37 -->
<g id="node3" class="node">
<title>Node37</title>
<g id="a_node3"><a xlink:href="classStateOne.html#a3783cebe5bbd63f072caf8450fea4aca" target="_top" xlink:title="StateOne::getL">
<polygon fill="none" stroke="#000000" points="170,-152.5 170,-171.5 259,-171.5 259,-152.5 170,-152.5"/>
<text text-anchor="middle" x="214.5" y="-159.5" font-family="Helvetica,sans-Serif" font-size="10.00" fill="#000000">StateOne::getL</text>
</a>
</g>
</g>
<!-- Node35&#45;&gt;Node37 -->
<g id="edge2" class="edge">
<title>Node35&#45;&gt;Node37</title>
<path fill="none" stroke="#191970" d="M94.8427,-120.0869C112.5292,-127.3389 134.2558,-135.9623 154,-143 160.0568,-145.1589 166.4991,-147.3217 172.8356,-149.3742"/>
<polygon fill="#191970" stroke="#191970" points="172.045,-152.7955 182.6355,-152.4925 174.1675,-146.125 172.045,-152.7955"/>
</g>
<!-- Node38 -->
<g id="node4" class="node">
<title>Node38</title>
<g id="a_node4"><a xlink:href="classStateOne.html#aab2b41262381d67893113ed6f5ad18bc" target="_top" xlink:title="StateOne::getM">
<polygon fill="none" stroke="#000000" points="168.5,-114.5 168.5,-133.5 260.5,-133.5 260.5,-114.5 168.5,-114.5"/>
<text text-anchor="middle" x="214.5" y="-121.5" font-family="Helvetica,sans-Serif" font-size="10.00" fill="#000000">StateOne::getM</text>
</a>
</g>
</g>
<!-- Node35&#45;&gt;Node38 -->
<g id="edge3" class="edge">
<title>Node35&#45;&gt;Node38</title>
<path fill="none" stroke="#191970" d="M118.2315,-112.2373C131.37,-113.8426 145.2575,-115.5395 158.2718,-117.1297"/>
<polygon fill="#191970" stroke="#191970" points="158.1401,-120.6395 168.4908,-118.3783 158.9891,-113.6912 158.1401,-120.6395"/>
</g>
<!-- Node39 -->
<g id="node5" class="node">
<title>Node39</title>
<g id="a_node5"><a xlink:href="classStateOne.html#a7deae740570ef5262e7fd2d254a8c530" target="_top" xlink:title="StateOne::getN">
<polygon fill="none" stroke="#000000" points="169,-76.5 169,-95.5 260,-95.5 260,-76.5 169,-76.5"/>
<text text-anchor="middle" x="214.5" y="-83.5" font-family="Helvetica,sans-Serif" font-size="10.00" fill="#000000">StateOne::getN</text>
</a>
</g>
</g>
<!-- Node35&#45;&gt;Node39 -->
<g id="edge4" class="edge">
<title>Node35&#45;&gt;Node39</title>
<path fill="none" stroke="#191970" d="M118.2315,-97.7627C131.5054,-96.1408 145.5439,-94.4255 158.674,-92.8212"/>
<polygon fill="#191970" stroke="#191970" points="159.4757,-96.2493 168.9774,-91.5622 158.6267,-89.301 159.4757,-96.2493"/>
</g>
<!-- Node40 -->
<g id="node6" class="node">
<title>Node40</title>
<g id="a_node6"><a xlink:href="classStateOne.html#a5f4c17ef50eca7f317a55b5e0a572117" target="_top" xlink:title="StateOne::getS">
<polygon fill="none" stroke="#000000" points="170,-38.5 170,-57.5 259,-57.5 259,-38.5 170,-38.5"/>
<text text-anchor="middle" x="214.5" y="-45.5" font-family="Helvetica,sans-Serif" font-size="10.00" fill="#000000">StateOne::getS</text>
</a>
</g>
</g>
<!-- Node35&#45;&gt;Node40 -->
<g id="edge5" class="edge">
<title>Node35&#45;&gt;Node40</title>
<path fill="none" stroke="#191970" d="M94.8427,-89.9131C112.5292,-82.6611 134.2558,-74.0377 154,-67 160.0568,-64.8411 166.4991,-62.6783 172.8356,-60.6258"/>
<polygon fill="#191970" stroke="#191970" points="174.1675,-63.875 182.6355,-57.5075 172.045,-57.2045 174.1675,-63.875"/>
</g>
<!-- Node41 -->
<g id="node7" class="node">
<title>Node41</title>
<g id="a_node7"><a xlink:href="classStateOne.html#a45b245f5da0068df4ff72093c654da89" target="_top" xlink:title="StateOne::getSpecies">
<polygon fill="none" stroke="#000000" points="154,-.5 154,-19.5 275,-19.5 275,-.5 154,-.5"/>
<text text-anchor="middle" x="214.5" y="-7.5" font-family="Helvetica,sans-Serif" font-size="10.00" fill="#000000">StateOne::getSpecies</text>
</a>
</g>
</g>
<!-- Node35&#45;&gt;Node41 -->
<g id="edge6" class="edge">
<title>Node35&#45;&gt;Node41</title>
<path fill="none" stroke="#191970" d="M74.1751,-89.8435C91.9272,-72.8739 122.8697,-45.5853 154,-29 158.0444,-26.8453 162.3731,-24.8889 166.7867,-23.1234"/>
<polygon fill="#191970" stroke="#191970" points="168.3226,-26.2882 176.5071,-19.5603 165.9134,-19.7158 168.3226,-26.2882"/>
</g>
</g>
</svg>
