<?xml version="1.0" encoding="UTF-8" standalone="no"?>
<!DOCTYPE svg PUBLIC "-//W3C//DTD SVG 1.1//EN"
 "http://www.w3.org/Graphics/SVG/1.1/DTD/svg11.dtd">
<!-- Generated by graphviz version 2.40.1 (20161225.0304)
 -->
<!-- Title: StateTwoOld::first Pages: 1 -->
<svg width="681pt" height="218pt"
 viewBox="0.00 0.00 681.00 218.00" xmlns="http://www.w3.org/2000/svg" xmlns:xlink="http://www.w3.org/1999/xlink">
<g id="graph0" class="graph" transform="scale(1 1) rotate(0) translate(4 214)">
<title>StateTwoOld::first</title>
<!-- Node17 -->
<g id="node1" class="node">
<title>Node17</title>
<polygon fill="#bfbfbf" stroke="#000000" points="0,-95.5 0,-114.5 103,-114.5 103,-95.5 0,-95.5"/>
<text text-anchor="middle" x="51.5" y="-102.5" font-family="Helvetica,sans-Serif" font-size="10.00" fill="#000000">StateTwoOld::first</text>
</g>
<!-- Node18 -->
<g id="node2" class="node">
<title>Node18</title>
<g id="a_node2"><a xlink:href="classHamiltonianTwo.html#a6ca0a318f25170b69e571a07064a5afb" target="_top" xlink:title="HamiltonianTwo::calculate">
<polygon fill="none" stroke="#000000" points="139,-190.5 139,-209.5 285,-209.5 285,-190.5 139,-190.5"/>
<text text-anchor="middle" x="212" y="-197.5" font-family="Helvetica,sans-Serif" font-size="10.00" fill="#000000">HamiltonianTwo::calculate</text>
</a>
</g>
</g>
<!-- Node17&#45;&gt;Node18 -->
<g id="edge1" class="edge">
<title>Node17&#45;&gt;Node18</title>
<path fill="none" stroke="#191970" d="M68.1836,-121.6997C84.8549,-137.579 111.8479,-161.179 139,-176 149.8903,-181.9445 162.5022,-186.7373 174.1476,-190.4307"/>
<polygon fill="#191970" stroke="#191970" points="70.4844,-119.0551 60.8732,-114.5969 65.6064,-124.0757 70.4844,-119.0551"/>
</g>
<!-- Node20 -->
<g id="node4" class="node">
<title>Node20</title>
<g id="a_node4"><a xlink:href="classBasisnamesOne.html#ab3030f74ccafcc178f38e7a8ada13b9b" target="_top" xlink:title="BasisnamesOne::fromBoth">
<polygon fill="none" stroke="#000000" points="337.5,-76.5 337.5,-95.5 484.5,-95.5 484.5,-76.5 337.5,-76.5"/>
<text text-anchor="middle" x="411" y="-83.5" font-family="Helvetica,sans-Serif" font-size="10.00" fill="#000000">BasisnamesOne::fromBoth</text>
</a>
</g>
</g>
<!-- Node17&#45;&gt;Node20 -->
<g id="edge3" class="edge">
<title>Node17&#45;&gt;Node20</title>
<path fill="none" stroke="#191970" d="M77.1497,-119.4751C94.1153,-128.1963 117.1764,-138.4657 139,-143 202.5321,-156.2 221.5695,-156.68 285,-143 327.2453,-133.889 372.3756,-109.4104 395.4485,-95.6792"/>
<polygon fill="#191970" stroke="#191970" points="78.3939,-116.173 67.9204,-114.5742 75.1109,-122.3554 78.3939,-116.173"/>
</g>
<!-- Node23 -->
<g id="node7" class="node">
<title>Node23</title>
<g id="a_node7"><a xlink:href="classStateTwoOld.html#a3ecab4e3ec45aa3cc8cfe60b2b46d5f6" target="_top" xlink:title="StateTwoOld::getEnergy">
<polygon fill="none" stroke="#000000" points="145.5,-114.5 145.5,-133.5 278.5,-133.5 278.5,-114.5 145.5,-114.5"/>
<text text-anchor="middle" x="212" y="-121.5" font-family="Helvetica,sans-Serif" font-size="10.00" fill="#000000">StateTwoOld::getEnergy</text>
</a>
</g>
</g>
<!-- Node17&#45;&gt;Node23 -->
<g id="edge6" class="edge">
<title>Node17&#45;&gt;Node23</title>
<path fill="none" stroke="#191970" d="M113.1458,-112.2976C123.7271,-113.5502 134.765,-114.8569 145.4675,-116.1239"/>
<polygon fill="#191970" stroke="#191970" points="113.5088,-108.8163 103.1667,-111.1163 112.6858,-115.7677 113.5088,-108.8163"/>
</g>
<!-- Node24 -->
<g id="node8" class="node">
<title>Node24</title>
<g id="a_node8"><a xlink:href="classStateTwoOld.html#ac0a094bb8d10a954236f3af605c0cbca" target="_top" xlink:title="StateTwoOld::getNStar">
<polygon fill="none" stroke="#000000" points="149,-76.5 149,-95.5 275,-95.5 275,-76.5 149,-76.5"/>
<text text-anchor="middle" x="212" y="-83.5" font-family="Helvetica,sans-Serif" font-size="10.00" fill="#000000">StateTwoOld::getNStar</text>
</a>
</g>
</g>
<!-- Node17&#45;&gt;Node24 -->
<g id="edge7" class="edge">
<title>Node17&#45;&gt;Node24</title>
<path fill="none" stroke="#191970" d="M113.266,-97.6881C124.9509,-96.3049 137.1886,-94.8562 148.9135,-93.4682"/>
<polygon fill="#191970" stroke="#191970" points="112.6858,-94.2323 103.1667,-98.8837 113.5088,-101.1837 112.6858,-94.2323"/>
</g>
<!-- Node25 -->
<g id="node9" class="node">
<title>Node25</title>
<g id="a_node9"><a xlink:href="classStateTwoOld.html#a905a5cdadb7ee2d0431aeba6004d40e5" target="_top" xlink:title="StateTwoOld::operator\&lt;">
<polygon fill="none" stroke="#000000" points="145.5,-38.5 145.5,-57.5 278.5,-57.5 278.5,-38.5 145.5,-38.5"/>
<text text-anchor="middle" x="212" y="-45.5" font-family="Helvetica,sans-Serif" font-size="10.00" fill="#000000">StateTwoOld::operator&lt;</text>
</a>
</g>
</g>
<!-- Node17&#45;&gt;Node25 -->
<g id="edge8" class="edge">
<title>Node17&#45;&gt;Node25</title>
<path fill="none" stroke="#191970" d="M80.5913,-91.0136C97.4052,-83.2738 119.1066,-73.8622 139,-67 149.1516,-63.4982 160.2896,-60.2904 170.7406,-57.5474"/>
<polygon fill="#191970" stroke="#191970" points="78.8891,-87.9455 71.3069,-95.3455 81.8489,-94.289 78.8891,-87.9455"/>
</g>
<!-- Node26 -->
<g id="node10" class="node">
<title>Node26</title>
<g id="a_node10"><a xlink:href="classStateTwoOld.html#a1d7ff079f51711e8a6f40946e5677be8" target="_top" xlink:title="StateTwoOld::order">
<polygon fill="none" stroke="#000000" points="157.5,-.5 157.5,-19.5 266.5,-19.5 266.5,-.5 157.5,-.5"/>
<text text-anchor="middle" x="212" y="-7.5" font-family="Helvetica,sans-Serif" font-size="10.00" fill="#000000">StateTwoOld::order</text>
</a>
</g>
</g>
<!-- Node17&#45;&gt;Node26 -->
<g id="edge9" class="edge">
<title>Node17&#45;&gt;Node26</title>
<path fill="none" stroke="#191970" d="M66.6954,-87.7894C82.9301,-70.4497 110.2393,-44.1527 139,-29 146.2993,-25.1543 154.427,-22.0508 162.5333,-19.557"/>
<polygon fill="#191970" stroke="#191970" points="63.8177,-85.7502 59.6574,-95.494 68.986,-90.4713 63.8177,-85.7502"/>
</g>
<!-- Node19 -->
<g id="node3" class="node">
<title>Node19</title>
<g id="a_node3"><a xlink:href="classHamiltonianTwo.html#abd374713c9b38f72265c7fe496c42b96" target="_top" xlink:title="HamiltonianTwo::HamiltonianTwo">
<polygon fill="none" stroke="#000000" points="321,-190.5 321,-209.5 501,-209.5 501,-190.5 321,-190.5"/>
<text text-anchor="middle" x="411" y="-197.5" font-family="Helvetica,sans-Serif" font-size="10.00" fill="#000000">HamiltonianTwo::HamiltonianTwo</text>
</a>
</g>
</g>
<!-- Node18&#45;&gt;Node19 -->
<g id="edge2" class="edge">
<title>Node18&#45;&gt;Node19</title>
<path fill="none" stroke="#191970" d="M295.3577,-200C303.7192,-200 312.237,-200 320.6663,-200"/>
<polygon fill="#191970" stroke="#191970" points="295.2525,-196.5001 285.2525,-200 295.2524,-203.5001 295.2525,-196.5001"/>
</g>
<!-- Node21 -->
<g id="node5" class="node">
<title>Node21</title>
<g id="a_node5"><a xlink:href="Interface_8h.html#ad478f0b9610586a2ae8066c78b6d3f96" target="_top" xlink:title="compute">
<polygon fill="none" stroke="#000000" points="537,-76.5 537,-95.5 596,-95.5 596,-76.5 537,-76.5"/>
<text text-anchor="middle" x="566.5" y="-83.5" font-family="Helvetica,sans-Serif" font-size="10.00" fill="#000000">compute</text>
</a>
</g>
</g>
<!-- Node20&#45;&gt;Node21 -->
<g id="edge4" class="edge">
<title>Node20&#45;&gt;Node21</title>
<path fill="none" stroke="#191970" d="M495.0774,-86C510.104,-86 524.8132,-86 536.9401,-86"/>
<polygon fill="#191970" stroke="#191970" points="494.6516,-82.5001 484.6516,-86 494.6516,-89.5001 494.6516,-82.5001"/>
</g>
<!-- Node22 -->
<g id="node6" class="node">
<title>Node22</title>
<g id="a_node6"><a xlink:href="main_8cpp.html#a3c04138a5bfe5d72780bb7e82a18e627" target="_top" xlink:title="main">
<polygon fill="none" stroke="#000000" points="632,-76.5 632,-95.5 673,-95.5 673,-76.5 632,-76.5"/>
<text text-anchor="middle" x="652.5" y="-83.5" font-family="Helvetica,sans-Serif" font-size="10.00" fill="#000000">main</text>
</a>
</g>
</g>
<!-- Node21&#45;&gt;Node22 -->
<g id="edge5" class="edge">
<title>Node21&#45;&gt;Node22</title>
<path fill="none" stroke="#191970" d="M606.2801,-86C615.1028,-86 624.1072,-86 631.7966,-86"/>
<polygon fill="#191970" stroke="#191970" points="606.0964,-82.5001 596.0963,-86 606.0963,-89.5001 606.0964,-82.5001"/>
</g>
<!-- Node26&#45;&gt;Node20 -->
<g id="edge10" class="edge">
<title>Node26&#45;&gt;Node20</title>
<path fill="none" stroke="#191970" d="M263.5104,-22.2303C270.7853,-24.2979 278.1241,-26.5698 285,-29 324.3884,-42.9211 368.442,-64.2508 392.6227,-76.4868"/>
<polygon fill="#191970" stroke="#191970" points="264.2482,-18.8036 253.6791,-19.5418 262.4017,-25.5557 264.2482,-18.8036"/>
</g>
</g>
</svg>
