<?xml version="1.0" encoding="UTF-8" standalone="no"?>
<!DOCTYPE svg PUBLIC "-//W3C//DTD SVG 1.1//EN"
 "http://www.w3.org/Graphics/SVG/1.1/DTD/svg11.dtd">
<!-- Generated by graphviz version 2.40.1 (20161225.0304)
 -->
<!-- Title: StateTwo::getSpecies Pages: 1 -->
<svg width="293pt" height="78pt"
 viewBox="0.00 0.00 293.00 77.50" xmlns="http://www.w3.org/2000/svg" xmlns:xlink="http://www.w3.org/1999/xlink">
<g id="graph0" class="graph" transform="scale(1 1) rotate(0) translate(4 73.5)">
<title>StateTwo::getSpecies</title>
<!-- Node94 -->
<g id="node1" class="node">
<title>Node94</title>
<polygon fill="#bfbfbf" stroke="#000000" points="0,-22.5 0,-41.5 120,-41.5 120,-22.5 0,-22.5"/>
<text text-anchor="middle" x="60" y="-29.5" font-family="Helvetica,sans-Serif" font-size="10.00" fill="#000000">StateTwo::getSpecies</text>
</g>
<!-- Node95 -->
<g id="node2" class="node">
<title>Node95</title>
<g id="a_node2"><a xlink:href="classPerturbativeInteraction.html#aef0f5d43fdcf0377dc53e31730c99cb9" target="_top" xlink:title="PerturbativeInteraction\l::getC6">
<polygon fill="none" stroke="#000000" points="156,-39 156,-69 285,-69 285,-39 156,-39"/>
<text text-anchor="start" x="164" y="-57" font-family="Helvetica,sans-Serif" font-size="10.00" fill="#000000">PerturbativeInteraction</text>
<text text-anchor="middle" x="220.5" y="-46" font-family="Helvetica,sans-Serif" font-size="10.00" fill="#000000">::getC6</text>
</a>
</g>
</g>
<!-- Node94&#45;&gt;Node95 -->
<g id="edge1" class="edge">
<title>Node94&#45;&gt;Node95</title>
<path fill="none" stroke="#191970" d="M130.1717,-41.6186C138.7294,-42.7916 147.4424,-43.9859 155.9132,-45.147"/>
<polygon fill="#191970" stroke="#191970" points="130.6036,-38.1451 120.2209,-40.2546 129.6529,-45.0803 130.6036,-38.1451"/>
</g>
<!-- Node96 -->
<g id="node3" class="node">
<title>Node96</title>
<g id="a_node3"><a xlink:href="classStateTwo.html#a8144dc47a35a397f9b040a5de5d8673e" target="_top" xlink:title="StateTwo::getReflected">
<polygon fill="none" stroke="#000000" points="156,-.5 156,-19.5 285,-19.5 285,-.5 156,-.5"/>
<text text-anchor="middle" x="220.5" y="-7.5" font-family="Helvetica,sans-Serif" font-size="10.00" fill="#000000">StateTwo::getReflected</text>
</a>
</g>
</g>
<!-- Node94&#45;&gt;Node96 -->
<g id="edge2" class="edge">
<title>Node94&#45;&gt;Node96</title>
<path fill="none" stroke="#191970" d="M130.1717,-22.3814C138.7294,-21.2084 147.4424,-20.0141 155.9132,-18.853"/>
<polygon fill="#191970" stroke="#191970" points="129.6529,-18.9197 120.2209,-23.7454 130.6036,-25.8549 129.6529,-18.9197"/>
</g>
</g>
</svg>
