<?xml version="1.0" encoding="UTF-8" standalone="no"?>
<!DOCTYPE svg PUBLIC "-//W3C//DTD SVG 1.1//EN"
 "http://www.w3.org/Graphics/SVG/1.1/DTD/svg11.dtd">
<!-- Generated by graphviz version 2.40.1 (20161225.0304)
 -->
<!-- Title: Hamiltonianmatrix::hashBasis Pages: 1 -->
<svg width="582pt" height="94pt"
 viewBox="0.00 0.00 582.00 94.00" xmlns="http://www.w3.org/2000/svg" xmlns:xlink="http://www.w3.org/1999/xlink">
<g id="graph0" class="graph" transform="scale(1 1) rotate(0) translate(4 90)">
<title>Hamiltonianmatrix::hashBasis</title>
<!-- Node115 -->
<g id="node1" class="node">
<title>Node115</title>
<polygon fill="#bfbfbf" stroke="#000000" points="0,-17 0,-47 115,-47 115,-17 0,-17"/>
<text text-anchor="start" x="8" y="-35" font-family="Helvetica,sans-Serif" font-size="10.00" fill="#000000">Hamiltonianmatrix::</text>
<text text-anchor="middle" x="57.5" y="-24" font-family="Helvetica,sans-Serif" font-size="10.00" fill="#000000">hashBasis</text>
</g>
<!-- Node116 -->
<g id="node2" class="node">
<title>Node116</title>
<g id="a_node2"><a xlink:href="classHamiltonianmatrix.html#aa8d50e3585a18628f4abbb5bcede4bbb" target="_top" xlink:title="Hamiltonianmatrix::\ldoSerialization">
<polygon fill="none" stroke="#000000" points="151,-39 151,-69 266,-69 266,-39 151,-39"/>
<text text-anchor="start" x="159" y="-57" font-family="Helvetica,sans-Serif" font-size="10.00" fill="#000000">Hamiltonianmatrix::</text>
<text text-anchor="middle" x="208.5" y="-46" font-family="Helvetica,sans-Serif" font-size="10.00" fill="#000000">doSerialization</text>
</a>
</g>
</g>
<!-- Node115&#45;&gt;Node116 -->
<g id="edge1" class="edge">
<title>Node115&#45;&gt;Node116</title>
<path fill="none" stroke="#191970" d="M115.0174,-40.38C123.4639,-41.6106 132.2292,-42.8877 140.8561,-44.1446"/>
<polygon fill="#191970" stroke="#191970" points="140.4924,-47.6285 150.8925,-45.6069 141.5016,-40.7016 140.4924,-47.6285"/>
</g>
<!-- Node120 -->
<g id="node6" class="node">
<title>Node120</title>
<g id="a_node6"><a xlink:href="namespaceutils.html#a7db5ab4b4a7e8bf3e910da1e0bd0f107" target="_top" xlink:title="utils::FNV64">
<polygon fill="none" stroke="#000000" points="171,-.5 171,-19.5 246,-19.5 246,-.5 171,-.5"/>
<text text-anchor="middle" x="208.5" y="-7.5" font-family="Helvetica,sans-Serif" font-size="10.00" fill="#000000">utils::FNV64</text>
</a>
</g>
</g>
<!-- Node115&#45;&gt;Node120 -->
<g id="edge5" class="edge">
<title>Node115&#45;&gt;Node120</title>
<path fill="none" stroke="#191970" d="M115.0174,-23.62C130.0403,-21.4312 146.0717,-19.0955 160.5397,-16.9876"/>
<polygon fill="#191970" stroke="#191970" points="161.3706,-20.4036 170.7615,-15.4983 160.3614,-13.4767 161.3706,-20.4036"/>
</g>
<!-- Node117 -->
<g id="node3" class="node">
<title>Node117</title>
<g id="a_node3"><a xlink:href="classSerializer.html#a79a572d0a14988acd13217beb7d5547b" target="_top" xlink:title="Serializer::save">
<polygon fill="none" stroke="#000000" points="313.5,-66.5 313.5,-85.5 405.5,-85.5 405.5,-66.5 313.5,-66.5"/>
<text text-anchor="middle" x="359.5" y="-73.5" font-family="Helvetica,sans-Serif" font-size="10.00" fill="#000000">Serializer::save</text>
</a>
</g>
</g>
<!-- Node116&#45;&gt;Node117 -->
<g id="edge2" class="edge">
<title>Node116&#45;&gt;Node117</title>
<path fill="none" stroke="#191970" d="M266.0174,-62.38C278.2586,-64.1635 291.1696,-66.0446 303.3586,-67.8205"/>
<polygon fill="#191970" stroke="#191970" points="302.9969,-71.3046 313.397,-69.283 304.0061,-64.3778 302.9969,-71.3046"/>
</g>
<!-- Node119 -->
<g id="node5" class="node">
<title>Node119</title>
<g id="a_node5"><a xlink:href="classHamiltonianmatrix.html#a035cf5188e89f3f4230beb502a718ea9" target="_top" xlink:title="Hamiltonianmatrix::\lsplitComplex">
<polygon fill="none" stroke="#000000" points="302,-17 302,-47 417,-47 417,-17 302,-17"/>
<text text-anchor="start" x="310" y="-35" font-family="Helvetica,sans-Serif" font-size="10.00" fill="#000000">Hamiltonianmatrix::</text>
<text text-anchor="middle" x="359.5" y="-24" font-family="Helvetica,sans-Serif" font-size="10.00" fill="#000000">splitComplex</text>
</a>
</g>
</g>
<!-- Node116&#45;&gt;Node119 -->
<g id="edge4" class="edge">
<title>Node116&#45;&gt;Node119</title>
<path fill="none" stroke="#191970" d="M266.0174,-45.62C274.4639,-44.3894 283.2292,-43.1123 291.8561,-41.8554"/>
<polygon fill="#191970" stroke="#191970" points="292.5016,-45.2984 301.8925,-40.3931 291.4924,-38.3715 292.5016,-45.2984"/>
</g>
<!-- Node118 -->
<g id="node4" class="node">
<title>Node118</title>
<g id="a_node4"><a xlink:href="classSerializable.html#ad0b89a7563e6a98df7eb6a8a46c51735" target="_top" xlink:title="Serializable::serialize">
<polygon fill="none" stroke="#000000" points="453,-66.5 453,-85.5 574,-85.5 574,-66.5 453,-66.5"/>
<text text-anchor="middle" x="513.5" y="-73.5" font-family="Helvetica,sans-Serif" font-size="10.00" fill="#000000">Serializable::serialize</text>
</a>
</g>
</g>
<!-- Node117&#45;&gt;Node118 -->
<g id="edge3" class="edge">
<title>Node117&#45;&gt;Node118</title>
<path fill="none" stroke="#191970" d="M405.7051,-76C417.3798,-76 430.1854,-76 442.7663,-76"/>
<polygon fill="#191970" stroke="#191970" points="442.782,-79.5001 452.7819,-76 442.7819,-72.5001 442.782,-79.5001"/>
</g>
</g>
</svg>
