<?xml version="1.0" encoding="UTF-8" standalone="no"?>
<!DOCTYPE svg PUBLIC "-//W3C//DTD SVG 1.1//EN"
 "http://www.w3.org/Graphics/SVG/1.1/DTD/svg11.dtd">
<!-- Generated by graphviz version 2.40.1 (20161225.0304)
 -->
<!-- Title: StateOne::getN Pages: 1 -->
<svg width="501pt" height="290pt"
 viewBox="0.00 0.00 501.00 290.00" xmlns="http://www.w3.org/2000/svg" xmlns:xlink="http://www.w3.org/1999/xlink">
<g id="graph0" class="graph" transform="scale(1 1) rotate(0) translate(4 286)">
<title>StateOne::getN</title>
<!-- Node82 -->
<g id="node1" class="node">
<title>Node82</title>
<polygon fill="#bfbfbf" stroke="#000000" points="0,-120.5 0,-139.5 91,-139.5 91,-120.5 0,-120.5"/>
<text text-anchor="middle" x="45.5" y="-127.5" font-family="Helvetica,sans-Serif" font-size="10.00" fill="#000000">StateOne::getN</text>
</g>
<!-- Node83 -->
<g id="node2" class="node">
<title>Node83</title>
<g id="a_node2"><a xlink:href="integration__test_8cpp.html#a0edc7e03850724a3784df426b75fb1d2" target="_top" xlink:title="BOOST_FIXTURE_TEST_CASE">
<polygon fill="none" stroke="#000000" points="127,-262.5 127,-281.5 284,-281.5 284,-262.5 127,-262.5"/>
<text text-anchor="middle" x="205.5" y="-269.5" font-family="Helvetica,sans-Serif" font-size="10.00" fill="#000000">BOOST_FIXTURE_TEST_CASE</text>
</a>
</g>
</g>
<!-- Node82&#45;&gt;Node83 -->
<g id="edge1" class="edge">
<title>Node82&#45;&gt;Node83</title>
<path fill="none" stroke="#191970" d="M52.8013,-149.0838C64.2908,-176.4702 89.2463,-226.5265 127,-253 132.5107,-256.8642 138.7147,-259.9473 145.1582,-262.4064"/>
<polygon fill="#191970" stroke="#191970" points="56.042,-147.7616 49.0585,-139.7941 49.5492,-150.3776 56.042,-147.7616"/>
</g>
<!-- Node84 -->
<g id="node3" class="node">
<title>Node84</title>
<g id="a_node3"><a xlink:href="classMatrixElementCache.html#afc9f56a599c9ea24bbfbd4aeb41efbd4" target="_top" xlink:title="MatrixElementCache\l::getElectricMultipole">
<polygon fill="none" stroke="#000000" points="146,-213 146,-243 265,-243 265,-213 146,-213"/>
<text text-anchor="start" x="154" y="-231" font-family="Helvetica,sans-Serif" font-size="10.00" fill="#000000">MatrixElementCache</text>
<text text-anchor="middle" x="205.5" y="-220" font-family="Helvetica,sans-Serif" font-size="10.00" fill="#000000">::getElectricMultipole</text>
</a>
</g>
</g>
<!-- Node82&#45;&gt;Node84 -->
<g id="edge2" class="edge">
<title>Node82&#45;&gt;Node84</title>
<path fill="none" stroke="#191970" d="M60.5328,-147.5453C75.7338,-164.2635 100.6846,-189.039 127,-204 132.9467,-207.3809 139.4231,-210.3376 146.0216,-212.9105"/>
<polygon fill="#191970" stroke="#191970" points="62.7698,-144.7926 53.5168,-139.632 57.532,-149.4365 62.7698,-144.7926"/>
</g>
<!-- Node85 -->
<g id="node4" class="node">
<title>Node85</title>
<g id="a_node4"><a xlink:href="classMatrixElementCache.html#aeef0496ad6db911dac50c0625660d9c0" target="_top" xlink:title="MatrixElementCache\l::getMagneticDipole">
<polygon fill="none" stroke="#000000" points="146.5,-164 146.5,-194 264.5,-194 264.5,-164 146.5,-164"/>
<text text-anchor="start" x="154.5" y="-182" font-family="Helvetica,sans-Serif" font-size="10.00" fill="#000000">MatrixElementCache</text>
<text text-anchor="middle" x="205.5" y="-171" font-family="Helvetica,sans-Serif" font-size="10.00" fill="#000000">::getMagneticDipole</text>
</a>
</g>
</g>
<!-- Node82&#45;&gt;Node85 -->
<g id="edge3" class="edge">
<title>Node82&#45;&gt;Node85</title>
<path fill="none" stroke="#191970" d="M86.1107,-142.4654C99.1663,-146.4706 113.6933,-150.925 127,-155 136.4023,-157.8794 146.439,-160.9501 156.085,-163.8999"/>
<polygon fill="#191970" stroke="#191970" points="87.0452,-139.0911 76.4585,-139.5039 84.9919,-145.7832 87.0452,-139.0911"/>
</g>
<!-- Node87 -->
<g id="node6" class="node">
<title>Node87</title>
<g id="a_node6"><a xlink:href="classMatrixElementCache.html#ad624534d20e42d8c4f495b51d6084057" target="_top" xlink:title="MatrixElementCache\l::getRadial">
<polygon fill="none" stroke="#000000" points="146.5,-115 146.5,-145 264.5,-145 264.5,-115 146.5,-115"/>
<text text-anchor="start" x="154.5" y="-133" font-family="Helvetica,sans-Serif" font-size="10.00" fill="#000000">MatrixElementCache</text>
<text text-anchor="middle" x="205.5" y="-122" font-family="Helvetica,sans-Serif" font-size="10.00" fill="#000000">::getRadial</text>
</a>
</g>
</g>
<!-- Node82&#45;&gt;Node87 -->
<g id="edge5" class="edge">
<title>Node82&#45;&gt;Node87</title>
<path fill="none" stroke="#191970" d="M101.6785,-130C116.1852,-130 131.8417,-130 146.4883,-130"/>
<polygon fill="#191970" stroke="#191970" points="101.3496,-126.5001 91.3496,-130 101.3495,-133.5001 101.3496,-126.5001"/>
</g>
<!-- Node89 -->
<g id="node8" class="node">
<title>Node89</title>
<g id="a_node8"><a xlink:href="classStateOne.html#a0b5646c4160083ef4b24460e9159ad2c" target="_top" xlink:title="StateOne::getReflected">
<polygon fill="none" stroke="#000000" points="140.5,-76.5 140.5,-95.5 270.5,-95.5 270.5,-76.5 140.5,-76.5"/>
<text text-anchor="middle" x="205.5" y="-83.5" font-family="Helvetica,sans-Serif" font-size="10.00" fill="#000000">StateOne::getReflected</text>
</a>
</g>
</g>
<!-- Node82&#45;&gt;Node89 -->
<g id="edge7" class="edge">
<title>Node82&#45;&gt;Node89</title>
<path fill="none" stroke="#191970" d="M86.361,-117.6464C99.3265,-113.8128 113.7385,-109.6406 127,-106 139.884,-102.463 154.0159,-98.7969 166.6953,-95.5846"/>
<polygon fill="#191970" stroke="#191970" points="85.359,-114.2928 76.7712,-120.4976 87.354,-121.0026 85.359,-114.2928"/>
</g>
<!-- Node92 -->
<g id="node11" class="node">
<title>Node92</title>
<g id="a_node11"><a xlink:href="State_8cpp.html#ae62083584a93c249d0c3b4a6f046fee1" target="_top" xlink:title="operator\&lt;\&lt;">
<polygon fill="none" stroke="#000000" points="168.5,-38.5 168.5,-57.5 242.5,-57.5 242.5,-38.5 168.5,-38.5"/>
<text text-anchor="middle" x="205.5" y="-45.5" font-family="Helvetica,sans-Serif" font-size="10.00" fill="#000000">operator&lt;&lt;</text>
</a>
</g>
</g>
<!-- Node82&#45;&gt;Node92 -->
<g id="edge10" class="edge">
<title>Node82&#45;&gt;Node92</title>
<path fill="none" stroke="#191970" d="M62.3994,-113.4433C77.952,-99.1102 102.2899,-78.8684 127,-67 139.8924,-60.8077 154.9733,-56.5336 168.4519,-53.6322"/>
<polygon fill="#191970" stroke="#191970" points="59.9799,-110.9142 55.1117,-120.3244 64.7856,-116.0039 59.9799,-110.9142"/>
</g>
<!-- Node93 -->
<g id="node12" class="node">
<title>Node93</title>
<g id="a_node12"><a xlink:href="classStateOne.html#a5b05a258a43a682cfe7af5eb57d0221c" target="_top" xlink:title="Implementation of one&#45;atom state ///////////////////////////////. ">
<polygon fill="none" stroke="#000000" points="149,-.5 149,-19.5 262,-19.5 262,-.5 149,-.5"/>
<text text-anchor="middle" x="205.5" y="-7.5" font-family="Helvetica,sans-Serif" font-size="10.00" fill="#000000">StateOne::StateOne</text>
</a>
</g>
</g>
<!-- Node82&#45;&gt;Node93 -->
<g id="edge11" class="edge">
<title>Node82&#45;&gt;Node93</title>
<path fill="none" stroke="#191970" d="M55.2049,-111.7111C68.3542,-88.7626 94.0236,-49.8891 127,-29 133.6334,-24.798 141.1211,-21.5252 148.7718,-18.9762"/>
<polygon fill="#191970" stroke="#191970" points="52.1357,-110.0288 50.3512,-120.4723 58.2588,-113.4211 52.1357,-110.0288"/>
</g>
<!-- Node86 -->
<g id="node5" class="node">
<title>Node86</title>
<g id="a_node5"><a xlink:href="classSystemOne.html#abf6d26d44765fa787251956c128644a7" target="_top" xlink:title="Method that allows base class to calculate the interaction /////. ">
<polygon fill="none" stroke="#000000" points="320,-169.5 320,-188.5 493,-188.5 493,-169.5 320,-169.5"/>
<text text-anchor="middle" x="406.5" y="-176.5" font-family="Helvetica,sans-Serif" font-size="10.00" fill="#000000">SystemOne::initializeInteraction</text>
</a>
</g>
</g>
<!-- Node85&#45;&gt;Node86 -->
<g id="edge4" class="edge">
<title>Node85&#45;&gt;Node86</title>
<path fill="none" stroke="#191970" d="M275.0349,-179C289.4569,-179 304.8217,-179 319.7721,-179"/>
<polygon fill="#191970" stroke="#191970" points="274.7195,-175.5001 264.7195,-179 274.7195,-182.5001 274.7195,-175.5001"/>
</g>
<!-- Node88 -->
<g id="node7" class="node">
<title>Node88</title>
<g id="a_node7"><a xlink:href="classStateTwo.html#a10b237929cc9326382eef2b2d9db7eca" target="_top" xlink:title="StateTwo::getLeRoyRadius">
<polygon fill="none" stroke="#000000" points="333.5,-120.5 333.5,-139.5 479.5,-139.5 479.5,-120.5 333.5,-120.5"/>
<text text-anchor="middle" x="406.5" y="-127.5" font-family="Helvetica,sans-Serif" font-size="10.00" fill="#000000">StateTwo::getLeRoyRadius</text>
</a>
</g>
</g>
<!-- Node87&#45;&gt;Node88 -->
<g id="edge6" class="edge">
<title>Node87&#45;&gt;Node88</title>
<path fill="none" stroke="#191970" d="M274.7587,-130C293.7075,-130 314.3015,-130 333.4547,-130"/>
<polygon fill="#191970" stroke="#191970" points="274.7195,-126.5001 264.7195,-130 274.7195,-133.5001 274.7195,-126.5001"/>
</g>
<!-- Node90 -->
<g id="node9" class="node">
<title>Node90</title>
<g id="a_node9"><a xlink:href="classSystemOne.html#a4278feede19c90186f22f37c1d5d53b2" target="_top" xlink:title="Method that allows base class to combine systems ///////////////. ">
<polygon fill="none" stroke="#000000" points="339.5,-79.5 339.5,-98.5 473.5,-98.5 473.5,-79.5 339.5,-79.5"/>
<text text-anchor="middle" x="406.5" y="-86.5" font-family="Helvetica,sans-Serif" font-size="10.00" fill="#000000">SystemOne::incorporate</text>
</a>
</g>
</g>
<!-- Node89&#45;&gt;Node90 -->
<g id="edge8" class="edge">
<title>Node89&#45;&gt;Node90</title>
<path fill="none" stroke="#191970" d="M280.9257,-87.1258C300.0471,-87.4112 320.4621,-87.7159 339.1539,-87.9948"/>
<polygon fill="#191970" stroke="#191970" points="280.8101,-83.6237 270.7589,-86.974 280.7056,-90.623 280.8101,-83.6237"/>
</g>
<!-- Node91 -->
<g id="node10" class="node">
<title>Node91</title>
<g id="a_node10"><a xlink:href="classSystemTwo.html#a7aa70b668bd55e25ba9ed8f9d037052c" target="_top" xlink:title="Method that allows base class to initialize Basis //////////////. ">
<polygon fill="none" stroke="#000000" points="333.5,-41.5 333.5,-60.5 479.5,-60.5 479.5,-41.5 333.5,-41.5"/>
<text text-anchor="middle" x="406.5" y="-48.5" font-family="Helvetica,sans-Serif" font-size="10.00" fill="#000000">SystemTwo::initializeBasis</text>
</a>
</g>
</g>
<!-- Node89&#45;&gt;Node91 -->
<g id="edge9" class="edge">
<title>Node89&#45;&gt;Node91</title>
<path fill="none" stroke="#191970" d="M270.0603,-74.7582C296.4288,-70.1666 326.5988,-64.9131 351.8522,-60.5158"/>
<polygon fill="#191970" stroke="#191970" points="269.4099,-71.3186 260.1586,-76.4823 270.6108,-78.2149 269.4099,-71.3186"/>
</g>
</g>
</svg>
