<?xml version="1.0" encoding="UTF-8" standalone="no"?>
<!DOCTYPE svg PUBLIC "-//W3C//DTD SVG 1.1//EN"
 "http://www.w3.org/Graphics/SVG/1.1/DTD/svg11.dtd">
<!-- Generated by graphviz version 2.40.1 (20161225.0304)
 -->
<!-- Title: SystemTwo Pages: 1 -->
<svg width="565pt" height="429pt"
 viewBox="0.00 0.00 565.00 429.27" xmlns="http://www.w3.org/2000/svg" xmlns:xlink="http://www.w3.org/1999/xlink">
<g id="graph0" class="graph" transform="scale(1 1) rotate(0) translate(4 425.2722)">
<title>SystemTwo</title>
<!-- Node2 -->
<g id="node1" class="node">
<title>Node2</title>
<polygon fill="#bfbfbf" stroke="#000000" points="485,-230.7722 485,-249.7722 557,-249.7722 557,-230.7722 485,-230.7722"/>
<text text-anchor="middle" x="521" y="-237.7722" font-family="Helvetica,sans-Serif" font-size="10.00" fill="#000000">SystemTwo</text>
</g>
<!-- Node3 -->
<g id="node2" class="node">
<title>Node3</title>
<g id="a_node2"><a xlink:href="classSystemBase.html" target="_top" xlink:title="SystemBase\&lt; StateTwo \&gt;">
<polygon fill="none" stroke="#000000" points="304,-230.7722 304,-249.7722 448,-249.7722 448,-230.7722 304,-230.7722"/>
<text text-anchor="middle" x="376" y="-237.7722" font-family="Helvetica,sans-Serif" font-size="10.00" fill="#000000">SystemBase&lt; StateTwo &gt;</text>
</a>
</g>
</g>
<!-- Node3&#45;&gt;Node2 -->
<g id="edge1" class="edge">
<title>Node3&#45;&gt;Node2</title>
<path fill="none" stroke="#191970" d="M458.2441,-240.2722C467.5638,-240.2722 476.6647,-240.2722 484.9156,-240.2722"/>
<polygon fill="#191970" stroke="#191970" points="458.0752,-236.7723 448.0752,-240.2722 458.0752,-243.7723 458.0752,-236.7723"/>
</g>
<!-- Node4 -->
<g id="node3" class="node">
<title>Node4</title>
<polygon fill="none" stroke="#bfbfbf" points="32,-383.7722 32,-402.7722 109,-402.7722 109,-383.7722 32,-383.7722"/>
<text text-anchor="middle" x="70.5" y="-390.7722" font-family="Helvetica,sans-Serif" font-size="10.00" fill="#000000">set&lt; float &gt;</text>
</g>
<!-- Node4&#45;&gt;Node3 -->
<g id="edge2" class="edge">
<title>Node4&#45;&gt;Node3</title>
<path fill="none" stroke="#9a32cd" stroke-dasharray="5,2" d="M119.3611,-398.8224C165.5491,-401.6579 235.157,-399.492 286,-369.2722 334.357,-340.5301 363.1664,-274.5145 372.5754,-249.8236"/>
<polygon fill="#9a32cd" stroke="#9a32cd" points="119.5257,-395.3253 109.3016,-398.1032 119.0265,-402.3075 119.5257,-395.3253"/>
<text text-anchor="middle" x="222.5" y="-413.2722" font-family="Helvetica,sans-Serif" font-size="10.00" fill="#000000"> range_j</text>
<text text-anchor="middle" x="222.5" y="-402.2722" font-family="Helvetica,sans-Serif" font-size="10.00" fill="#000000">range_m</text>
</g>
<!-- Node5 -->
<g id="node4" class="node">
<title>Node5</title>
<g id="a_node4"><a xlink:href="classdouble.html" target="_top" xlink:title="double">
<polygon fill="none" stroke="#000000" points="45.5,-329.7722 45.5,-348.7722 95.5,-348.7722 95.5,-329.7722 45.5,-329.7722"/>
<text text-anchor="middle" x="70.5" y="-336.7722" font-family="Helvetica,sans-Serif" font-size="10.00" fill="#000000">double</text>
</a>
</g>
</g>
<!-- Node5&#45;&gt;Node3 -->
<g id="edge3" class="edge">
<title>Node5&#45;&gt;Node3</title>
<path fill="none" stroke="#9a32cd" stroke-dasharray="5,2" d="M105.8128,-337.1803C158.3524,-333.676 254.3173,-325.6559 286,-312.2722 320.469,-297.7116 352.6036,-266.005 367.422,-249.971"/>
<polygon fill="#9a32cd" stroke="#9a32cd" points="105.3606,-333.7022 95.6075,-337.8406 105.8126,-340.6876 105.3606,-333.7022"/>
<text text-anchor="middle" x="222.5" y="-357.2722" font-family="Helvetica,sans-Serif" font-size="10.00" fill="#000000"> energy_max</text>
<text text-anchor="middle" x="222.5" y="-346.2722" font-family="Helvetica,sans-Serif" font-size="10.00" fill="#000000">threshold_for_sqnorm</text>
<text text-anchor="middle" x="222.5" y="-335.2722" font-family="Helvetica,sans-Serif" font-size="10.00" fill="#000000">energy_min</text>
</g>
<!-- Node6 -->
<g id="node5" class="node">
<title>Node6</title>
<g id="a_node5"><a xlink:href="classstd_1_1set_3_01StateTwo_01_4.html" target="_top" xlink:title="set\&lt; StateTwo \&gt;">
<polygon fill="none" stroke="#000000" points="21.5,-291.7722 21.5,-310.7722 119.5,-310.7722 119.5,-291.7722 21.5,-291.7722"/>
<text text-anchor="middle" x="70.5" y="-298.7722" font-family="Helvetica,sans-Serif" font-size="10.00" fill="#000000">set&lt; StateTwo &gt;</text>
</a>
</g>
</g>
<!-- Node6&#45;&gt;Node3 -->
<g id="edge4" class="edge">
<title>Node6&#45;&gt;Node3</title>
<path fill="none" stroke="#9a32cd" stroke-dasharray="5,2" d="M129.8035,-300.0981C173.5835,-298.0613 234.2893,-292.7697 286,-279.2722 312.1983,-272.434 340.5715,-259.0456 358.3119,-249.8815"/>
<polygon fill="#9a32cd" stroke="#9a32cd" points="129.4574,-296.6094 119.6138,-300.5277 129.7524,-303.6032 129.4574,-296.6094"/>
<text text-anchor="middle" x="222.5" y="-300.2722" font-family="Helvetica,sans-Serif" font-size="10.00" fill="#000000"> states_to_add</text>
</g>
<!-- Node7 -->
<g id="node6" class="node">
<title>Node7</title>
<polygon fill="none" stroke="#bfbfbf" points="37,-249.7722 37,-268.7722 104,-268.7722 104,-249.7722 37,-249.7722"/>
<text text-anchor="middle" x="70.5" y="-256.7722" font-family="Helvetica,sans-Serif" font-size="10.00" fill="#000000">set&lt; int &gt;</text>
</g>
<!-- Node7&#45;&gt;Node3 -->
<g id="edge5" class="edge">
<title>Node7&#45;&gt;Node3</title>
<path fill="none" stroke="#9a32cd" stroke-dasharray="5,2" d="M114.1181,-256.5595C163.5815,-253.4832 244.9973,-248.4197 303.9351,-244.7542"/>
<polygon fill="#9a32cd" stroke="#9a32cd" points="113.8312,-253.0705 104.0677,-257.1846 114.2657,-260.057 113.8312,-253.0705"/>
<text text-anchor="middle" x="222.5" y="-267.2722" font-family="Helvetica,sans-Serif" font-size="10.00" fill="#000000"> range_l</text>
<text text-anchor="middle" x="222.5" y="-256.2722" font-family="Helvetica,sans-Serif" font-size="10.00" fill="#000000">range_n</text>
</g>
<!-- Node8 -->
<g id="node7" class="node">
<title>Node8</title>
<g id="a_node7"><a xlink:href="structstates__set.html" target="_top" xlink:title="states_set\&lt; StateTwo \&gt;">
<polygon fill="none" stroke="#000000" points="3.5,-211.7722 3.5,-230.7722 137.5,-230.7722 137.5,-211.7722 3.5,-211.7722"/>
<text text-anchor="middle" x="70.5" y="-218.7722" font-family="Helvetica,sans-Serif" font-size="10.00" fill="#000000">states_set&lt; StateTwo &gt;</text>
</a>
</g>
</g>
<!-- Node8&#45;&gt;Node3 -->
<g id="edge6" class="edge">
<title>Node8&#45;&gt;Node3</title>
<path fill="none" stroke="#9a32cd" stroke-dasharray="5,2" d="M147.7657,-223.2096C188.8605,-224.5655 240.2212,-226.7772 286,-230.2722 291.7999,-230.715 297.8034,-231.2387 303.8303,-231.8107"/>
<polygon fill="#9a32cd" stroke="#9a32cd" points="147.6555,-219.7044 137.5488,-222.8831 147.4318,-226.7009 147.6555,-219.7044"/>
<text text-anchor="middle" x="222.5" y="-233.2722" font-family="Helvetica,sans-Serif" font-size="10.00" fill="#000000"> states</text>
</g>
<!-- Node9 -->
<g id="node8" class="node">
<title>Node9</title>
<g id="a_node8"><a xlink:href="classbool.html" target="_top" xlink:title="bool">
<polygon fill="none" stroke="#000000" points="51.5,-135.7722 51.5,-154.7722 89.5,-154.7722 89.5,-135.7722 51.5,-135.7722"/>
<text text-anchor="middle" x="70.5" y="-142.7722" font-family="Helvetica,sans-Serif" font-size="10.00" fill="#000000">bool</text>
</a>
</g>
</g>
<!-- Node9&#45;&gt;Node3 -->
<g id="edge7" class="edge">
<title>Node9&#45;&gt;Node3</title>
<path fill="none" stroke="#9a32cd" stroke-dasharray="5,2" d="M99.5396,-142.4411C142.2,-139.4504 223.5119,-138.2496 286,-164.2722 321.8704,-179.2102 354.0715,-213.8386 368.2909,-230.701"/>
<polygon fill="#9a32cd" stroke="#9a32cd" points="99.2568,-138.9524 89.5615,-143.2245 99.8048,-145.9309 99.2568,-138.9524"/>
<text text-anchor="middle" x="222.5" y="-211.2722" font-family="Helvetica,sans-Serif" font-size="10.00" fill="#000000"> memory_saving</text>
<text text-anchor="start" x="168" y="-200.2722" font-family="Helvetica,sans-Serif" font-size="10.00" fill="#000000">is_interaction_already</text>
<text text-anchor="middle" x="222.5" y="-189.2722" font-family="Helvetica,sans-Serif" font-size="10.00" fill="#000000">_contained</text>
<text text-anchor="start" x="168" y="-178.2722" font-family="Helvetica,sans-Serif" font-size="10.00" fill="#000000">is_new_hamiltonian</text>
<text text-anchor="middle" x="222.5" y="-167.2722" font-family="Helvetica,sans-Serif" font-size="10.00" fill="#000000">_required</text>
</g>
<!-- Node10 -->
<g id="node9" class="node">
<title>Node10</title>
<polygon fill="none" stroke="#bfbfbf" points="0,-46.7722 0,-65.7722 141,-65.7722 141,-46.7722 0,-46.7722"/>
<text text-anchor="middle" x="70.5" y="-53.7722" font-family="Helvetica,sans-Serif" font-size="10.00" fill="#000000">SparseMatrix&lt; scalar_t &gt;</text>
</g>
<!-- Node10&#45;&gt;Node3 -->
<g id="edge8" class="edge">
<title>Node10&#45;&gt;Node3</title>
<path fill="none" stroke="#9a32cd" stroke-dasharray="5,2" d="M128.9353,-45.4778C175.2322,-40.1561 239.619,-40.2557 286,-70.2722 345.7162,-108.919 368.3658,-200.9421 374.2898,-230.7657"/>
<polygon fill="#9a32cd" stroke="#9a32cd" points="128.2376,-42.0382 118.757,-46.7677 129.1177,-48.9826 128.2376,-42.0382"/>
<text text-anchor="start" x="159" y="-128.2722" font-family="Helvetica,sans-Serif" font-size="10.00" fill="#000000"> hamiltonian_unperturbed</text>
<text text-anchor="middle" x="222.5" y="-117.2722" font-family="Helvetica,sans-Serif" font-size="10.00" fill="#000000">_cache</text>
<text text-anchor="middle" x="222.5" y="-106.2722" font-family="Helvetica,sans-Serif" font-size="10.00" fill="#000000">hamiltonian</text>
<text text-anchor="start" x="159" y="-95.2722" font-family="Helvetica,sans-Serif" font-size="10.00" fill="#000000">basisvectors_unperturbed</text>
<text text-anchor="middle" x="222.5" y="-84.2722" font-family="Helvetica,sans-Serif" font-size="10.00" fill="#000000">_cache</text>
<text text-anchor="middle" x="222.5" y="-73.2722" font-family="Helvetica,sans-Serif" font-size="10.00" fill="#000000">basisvectors</text>
</g>
<!-- Node11 -->
<g id="node10" class="node">
<title>Node11</title>
<g id="a_node10"><a xlink:href="classMatrixElementCache.html" target="_top" xlink:title="MatrixElementCache">
<polygon fill="none" stroke="#000000" points="11.5,-8.7722 11.5,-27.7722 129.5,-27.7722 129.5,-8.7722 11.5,-8.7722"/>
<text text-anchor="middle" x="70.5" y="-15.7722" font-family="Helvetica,sans-Serif" font-size="10.00" fill="#000000">MatrixElementCache</text>
</a>
</g>
</g>
<!-- Node11&#45;&gt;Node3 -->
<g id="edge9" class="edge">
<title>Node11&#45;&gt;Node3</title>
<path fill="none" stroke="#9a32cd" stroke-dasharray="5,2" d="M117.2937,-6.8292C164.2599,1.8064 236.5503,7.0231 286,-27.2722 357.5832,-76.9181 372.4774,-195.4437 375.3541,-230.4048"/>
<polygon fill="#9a32cd" stroke="#9a32cd" points="116.5236,-3.4135 107.3832,-8.7711 117.8697,-10.2829 116.5236,-3.4135"/>
<text text-anchor="middle" x="222.5" y="-30.2722" font-family="Helvetica,sans-Serif" font-size="10.00" fill="#000000"> cache</text>
</g>
</g>
</svg>
