<?xml version="1.0" encoding="UTF-8" standalone="no"?>
<!DOCTYPE svg PUBLIC "-//W3C//DTD SVG 1.1//EN"
 "http://www.w3.org/Graphics/SVG/1.1/DTD/svg11.dtd">
<!-- Generated by graphviz version 2.40.1 (20161225.0304)
 -->
<!-- Title: sqlite::statement::bind Pages: 1 -->
<svg width="348pt" height="116pt"
 viewBox="0.00 0.00 348.00 116.00" xmlns="http://www.w3.org/2000/svg" xmlns:xlink="http://www.w3.org/1999/xlink">
<g id="graph0" class="graph" transform="scale(1 1) rotate(0) translate(4 112)">
<title>sqlite::statement::bind</title>
<!-- Node7 -->
<g id="node1" class="node">
<title>Node7</title>
<polygon fill="#bfbfbf" stroke="#000000" points="0,-44.5 0,-63.5 127,-63.5 127,-44.5 0,-44.5"/>
<text text-anchor="middle" x="63.5" y="-51.5" font-family="Helvetica,sans-Serif" font-size="10.00" fill="#000000">sqlite::statement::bind</text>
</g>
<!-- Node8 -->
<g id="node2" class="node">
<title>Node8</title>
<g id="a_node2"><a xlink:href="sqlite__test_8cpp.html#a20fecf620cb330b84abd5166034e113a" target="_top" xlink:title="BOOST_AUTO_TEST_CASE">
<polygon fill="none" stroke="#000000" points="180,-88.5 180,-107.5 323,-107.5 323,-88.5 180,-88.5"/>
<text text-anchor="middle" x="251.5" y="-95.5" font-family="Helvetica,sans-Serif" font-size="10.00" fill="#000000">BOOST_AUTO_TEST_CASE</text>
</a>
</g>
</g>
<!-- Node7&#45;&gt;Node8 -->
<g id="edge1" class="edge">
<title>Node7&#45;&gt;Node8</title>
<path fill="none" stroke="#191970" d="M110.3022,-66.1147C126.913,-70.3201 145.7615,-74.9852 163,-79 176.7746,-82.2081 191.8022,-85.5088 205.4992,-88.4405"/>
<polygon fill="#191970" stroke="#191970" points="110.8375,-62.6395 100.2832,-63.5656 109.1114,-69.4233 110.8375,-62.6395"/>
</g>
<!-- Node9 -->
<g id="node3" class="node">
<title>Node9</title>
<g id="a_node3"><a xlink:href="classMatrixElements.html#a3b28f19f9e89e549def8c8030b695489" target="_top" xlink:title="MatrixElements::precalculate\lDiamagnetism">
<polygon fill="none" stroke="#000000" points="172,-39 172,-69 331,-69 331,-39 172,-39"/>
<text text-anchor="start" x="180" y="-57" font-family="Helvetica,sans-Serif" font-size="10.00" fill="#000000">MatrixElements::precalculate</text>
<text text-anchor="middle" x="251.5" y="-46" font-family="Helvetica,sans-Serif" font-size="10.00" fill="#000000">Diamagnetism</text>
</a>
</g>
</g>
<!-- Node7&#45;&gt;Node9 -->
<g id="edge2" class="edge">
<title>Node7&#45;&gt;Node9</title>
<path fill="none" stroke="#191970" d="M137.4146,-54C148.7402,-54 160.474,-54 171.9159,-54"/>
<polygon fill="#191970" stroke="#191970" points="137.1483,-50.5001 127.1482,-54 137.1482,-57.5001 137.1483,-50.5001"/>
</g>
<!-- Node10 -->
<g id="node4" class="node">
<title>Node10</title>
<g id="a_node4"><a xlink:href="classQuantumDefect.html#ae35ddcbfdf6d217950469549c60743d2" target="_top" xlink:title="QuantumDefect::QuantumDefect">
<polygon fill="none" stroke="#000000" points="163,-.5 163,-19.5 340,-19.5 340,-.5 163,-.5"/>
<text text-anchor="middle" x="251.5" y="-7.5" font-family="Helvetica,sans-Serif" font-size="10.00" fill="#000000">QuantumDefect::QuantumDefect</text>
</a>
</g>
</g>
<!-- Node7&#45;&gt;Node10 -->
<g id="edge3" class="edge">
<title>Node7&#45;&gt;Node10</title>
<path fill="none" stroke="#191970" d="M112.4385,-42.0472C128.5324,-38.156 146.5207,-33.8493 163,-30 177.879,-26.5245 194.1884,-22.8114 208.7081,-19.5397"/>
<polygon fill="#191970" stroke="#191970" points="111.5875,-38.652 102.6929,-44.4084 113.2359,-45.4551 111.5875,-38.652"/>
</g>
</g>
</svg>
