<?xml version="1.0" encoding="UTF-8" standalone="no"?>
<!DOCTYPE svg PUBLIC "-//W3C//DTD SVG 1.1//EN"
 "http://www.w3.org/Graphics/SVG/1.1/DTD/svg11.dtd">
<!-- Generated by graphviz version 2.40.1 (20161225.0304)
 -->
<!-- Title: Hamiltonianmatrix::doSerialization Pages: 1 -->
<svg width="697pt" height="176pt"
 viewBox="0.00 0.00 697.00 176.00" xmlns="http://www.w3.org/2000/svg" xmlns:xlink="http://www.w3.org/1999/xlink">
<g id="graph0" class="graph" transform="scale(1 1) rotate(0) translate(4 172)">
<title>Hamiltonianmatrix::doSerialization</title>
<!-- Node85 -->
<g id="node1" class="node">
<title>Node85</title>
<polygon fill="#bfbfbf" stroke="#000000" points="0,-66.5 0,-96.5 115,-96.5 115,-66.5 0,-66.5"/>
<text text-anchor="start" x="8" y="-84.5" font-family="Helvetica,sans-Serif" font-size="10.00" fill="#000000">Hamiltonianmatrix::</text>
<text text-anchor="middle" x="57.5" y="-73.5" font-family="Helvetica,sans-Serif" font-size="10.00" fill="#000000">doSerialization</text>
</g>
<!-- Node86 -->
<g id="node2" class="node">
<title>Node86</title>
<g id="a_node2"><a xlink:href="classHamiltonianmatrix.html#a1e43ece7300d46f751f02c3260a14bfb" target="_top" xlink:title="Hamiltonianmatrix::\lhashBasis">
<polygon fill="none" stroke="#000000" points="162.5,-137.5 162.5,-167.5 277.5,-167.5 277.5,-137.5 162.5,-137.5"/>
<text text-anchor="start" x="170.5" y="-155.5" font-family="Helvetica,sans-Serif" font-size="10.00" fill="#000000">Hamiltonianmatrix::</text>
<text text-anchor="middle" x="220" y="-144.5" font-family="Helvetica,sans-Serif" font-size="10.00" fill="#000000">hashBasis</text>
</a>
</g>
</g>
<!-- Node85&#45;&gt;Node86 -->
<g id="edge1" class="edge">
<title>Node85&#45;&gt;Node86</title>
<path fill="none" stroke="#191970" d="M94.3248,-101.4126C111.3317,-110.2434 131.9411,-120.4362 151,-128.5 158.3588,-131.6135 166.2745,-134.6481 174.0273,-137.454"/>
<polygon fill="#191970" stroke="#191970" points="95.7615,-98.2139 85.2799,-96.6689 92.5103,-104.4131 95.7615,-98.2139"/>
</g>
<!-- Node87 -->
<g id="node3" class="node">
<title>Node87</title>
<g id="a_node3"><a xlink:href="classHamiltonianmatrix.html#aebafe9543f93f3956fff32192efd86ce" target="_top" xlink:title="Hamiltonianmatrix::\lhashEntries">
<polygon fill="none" stroke="#000000" points="162.5,-88.5 162.5,-118.5 277.5,-118.5 277.5,-88.5 162.5,-88.5"/>
<text text-anchor="start" x="170.5" y="-106.5" font-family="Helvetica,sans-Serif" font-size="10.00" fill="#000000">Hamiltonianmatrix::</text>
<text text-anchor="middle" x="220" y="-95.5" font-family="Helvetica,sans-Serif" font-size="10.00" fill="#000000">hashEntries</text>
</a>
</g>
</g>
<!-- Node85&#45;&gt;Node87 -->
<g id="edge2" class="edge">
<title>Node85&#45;&gt;Node87</title>
<path fill="none" stroke="#191970" d="M125.4561,-90.7002C137.7549,-92.3653 150.4715,-94.0869 162.437,-95.7069"/>
<polygon fill="#191970" stroke="#191970" points="125.6282,-87.1917 115.249,-89.3183 124.689,-94.1284 125.6282,-87.1917"/>
</g>
<!-- Node88 -->
<g id="node4" class="node">
<title>Node88</title>
<g id="a_node4"><a xlink:href="classHamiltonianmatrix.html#a9e77fcca733a19f250dd619799edc9e6" target="_top" xlink:title="Hamiltonianmatrix::save">
<polygon fill="none" stroke="#000000" points="151,-50 151,-69 289,-69 289,-50 151,-50"/>
<text text-anchor="middle" x="220" y="-57" font-family="Helvetica,sans-Serif" font-size="10.00" fill="#000000">Hamiltonianmatrix::save</text>
</a>
</g>
</g>
<!-- Node85&#45;&gt;Node88 -->
<g id="edge3" class="edge">
<title>Node85&#45;&gt;Node88</title>
<path fill="none" stroke="#191970" d="M125.3638,-72.3123C133.7564,-71.1761 142.3448,-70.0133 150.7577,-68.8743"/>
<polygon fill="#191970" stroke="#191970" points="124.689,-68.8716 115.249,-73.6817 125.6282,-75.8083 124.689,-68.8716"/>
</g>
<!-- Node93 -->
<g id="node9" class="node">
<title>Node93</title>
<g id="a_node9"><a xlink:href="classHamiltonianmatrix.html#a8bd6ab90a4453e8e1d7d6a1cdb751686" target="_top" xlink:title="Hamiltonianmatrix::\lserialize">
<polygon fill="none" stroke="#000000" points="162.5,-.5 162.5,-30.5 277.5,-30.5 277.5,-.5 162.5,-.5"/>
<text text-anchor="start" x="170.5" y="-18.5" font-family="Helvetica,sans-Serif" font-size="10.00" fill="#000000">Hamiltonianmatrix::</text>
<text text-anchor="middle" x="220" y="-7.5" font-family="Helvetica,sans-Serif" font-size="10.00" fill="#000000">serialize</text>
</a>
</g>
</g>
<!-- Node85&#45;&gt;Node93 -->
<g id="edge8" class="edge">
<title>Node85&#45;&gt;Node93</title>
<path fill="none" stroke="#191970" d="M100.1398,-62.0987C116.0106,-55.0639 134.2365,-47.2039 151,-40.5 159.3995,-37.141 168.4474,-33.7221 177.1378,-30.5351"/>
<polygon fill="#191970" stroke="#191970" points="98.3041,-59.085 90.5966,-66.3545 101.1551,-65.4781 98.3041,-59.085"/>
</g>
<!-- Node89 -->
<g id="node5" class="node">
<title>Node89</title>
<g id="a_node5"><a xlink:href="classHamiltonianOne.html#a9cb71dcb34ab9f0779c0bd66b758185e" target="_top" xlink:title="HamiltonianOne::build">
<polygon fill="none" stroke="#000000" points="335,-69 335,-88 461,-88 461,-69 335,-69"/>
<text text-anchor="middle" x="398" y="-76" font-family="Helvetica,sans-Serif" font-size="10.00" fill="#000000">HamiltonianOne::build</text>
</a>
</g>
</g>
<!-- Node88&#45;&gt;Node89 -->
<g id="edge4" class="edge">
<title>Node88&#45;&gt;Node89</title>
<path fill="none" stroke="#191970" d="M299.0461,-67.9375C311.0085,-69.2144 323.2137,-70.5172 334.7828,-71.7521"/>
<polygon fill="#191970" stroke="#191970" points="299.3892,-64.4543 289.0742,-66.8731 298.6462,-71.4148 299.3892,-64.4543"/>
</g>
<!-- Node91 -->
<g id="node7" class="node">
<title>Node91</title>
<g id="a_node7"><a xlink:href="classHamiltonianTwo.html#a6ca0a318f25170b69e571a07064a5afb" target="_top" xlink:title="HamiltonianTwo::calculate">
<polygon fill="none" stroke="#000000" points="325,-31 325,-50 471,-50 471,-31 325,-31"/>
<text text-anchor="middle" x="398" y="-38" font-family="Helvetica,sans-Serif" font-size="10.00" fill="#000000">HamiltonianTwo::calculate</text>
</a>
</g>
</g>
<!-- Node88&#45;&gt;Node91 -->
<g id="edge6" class="edge">
<title>Node88&#45;&gt;Node91</title>
<path fill="none" stroke="#191970" d="M299.0648,-51.0605C307.6406,-50.1451 316.3409,-49.2164 324.8421,-48.309"/>
<polygon fill="#191970" stroke="#191970" points="298.6462,-47.5852 289.0742,-52.1269 299.3892,-54.5457 298.6462,-47.5852"/>
</g>
<!-- Node90 -->
<g id="node6" class="node">
<title>Node90</title>
<g id="a_node6"><a xlink:href="classHamiltonianOne.html#ad3ba2d70879a60c9f065b5a2545dfe36" target="_top" xlink:title="HamiltonianOne::HamiltonianOne">
<polygon fill="none" stroke="#000000" points="507,-69 507,-88 689,-88 689,-69 507,-69"/>
<text text-anchor="middle" x="598" y="-76" font-family="Helvetica,sans-Serif" font-size="10.00" fill="#000000">HamiltonianOne::HamiltonianOne</text>
</a>
</g>
</g>
<!-- Node89&#45;&gt;Node90 -->
<g id="edge5" class="edge">
<title>Node89&#45;&gt;Node90</title>
<path fill="none" stroke="#191970" d="M471.0601,-78.5C482.6733,-78.5 494.8104,-78.5 506.7784,-78.5"/>
<polygon fill="#191970" stroke="#191970" points="471.0068,-75.0001 461.0067,-78.5 471.0067,-82.0001 471.0068,-75.0001"/>
</g>
<!-- Node92 -->
<g id="node8" class="node">
<title>Node92</title>
<g id="a_node8"><a xlink:href="classHamiltonianTwo.html#abd374713c9b38f72265c7fe496c42b96" target="_top" xlink:title="HamiltonianTwo::HamiltonianTwo">
<polygon fill="none" stroke="#000000" points="508,-31 508,-50 688,-50 688,-31 508,-31"/>
<text text-anchor="middle" x="598" y="-38" font-family="Helvetica,sans-Serif" font-size="10.00" fill="#000000">HamiltonianTwo::HamiltonianTwo</text>
</a>
</g>
</g>
<!-- Node91&#45;&gt;Node92 -->
<g id="edge7" class="edge">
<title>Node91&#45;&gt;Node92</title>
<path fill="none" stroke="#191970" d="M481.2425,-40.5C490.0053,-40.5 498.9449,-40.5 507.7816,-40.5"/>
<polygon fill="#191970" stroke="#191970" points="481.0536,-37.0001 471.0536,-40.5 481.0535,-44.0001 481.0536,-37.0001"/>
</g>
</g>
</svg>
