<?xml version="1.0" encoding="UTF-8" standalone="no"?>
<!DOCTYPE svg PUBLIC "-//W3C//DTD SVG 1.1//EN"
 "http://www.w3.org/Graphics/SVG/1.1/DTD/svg11.dtd">
<!-- Generated by graphviz version 2.40.1 (20161225.0304)
 -->
<!-- Title: StateTwo::getHash Pages: 1 -->
<svg width="267pt" height="78pt"
 viewBox="0.00 0.00 267.00 77.50" xmlns="http://www.w3.org/2000/svg" xmlns:xlink="http://www.w3.org/1999/xlink">
<g id="graph0" class="graph" transform="scale(1 1) rotate(0) translate(4 73.5)">
<title>StateTwo::getHash</title>
<!-- Node30 -->
<g id="node1" class="node">
<title>Node30</title>
<polygon fill="#bfbfbf" stroke="#000000" points="0,-22.5 0,-41.5 107,-41.5 107,-22.5 0,-22.5"/>
<text text-anchor="middle" x="53.5" y="-29.5" font-family="Helvetica,sans-Serif" font-size="10.00" fill="#000000">StateTwo::getHash</text>
</g>
<!-- Node31 -->
<g id="node2" class="node">
<title>Node31</title>
<g id="a_node2"><a xlink:href="structstd_1_1hash_3_01StateTwo_01_4.html#ae58d46b939220c521b3c90f2e71591d7" target="_top" xlink:title="std::hash\&lt; StateTwo\l \&gt;::operator()">
<polygon fill="none" stroke="#000000" points="143,-39 143,-69 259,-69 259,-39 143,-39"/>
<text text-anchor="start" x="151" y="-57" font-family="Helvetica,sans-Serif" font-size="10.00" fill="#000000">std::hash&lt; StateTwo</text>
<text text-anchor="middle" x="201" y="-46" font-family="Helvetica,sans-Serif" font-size="10.00" fill="#000000"> &gt;::operator()</text>
</a>
</g>
</g>
<!-- Node30&#45;&gt;Node31 -->
<g id="edge1" class="edge">
<title>Node30&#45;&gt;Node31</title>
<path fill="none" stroke="#191970" d="M117.11,-41.4876C125.6759,-42.7652 134.428,-44.0706 142.8918,-45.333"/>
<polygon fill="#191970" stroke="#191970" points="117.5751,-38.0183 107.1681,-40.0047 116.5424,-44.9417 117.5751,-38.0183"/>
</g>
<!-- Node32 -->
<g id="node3" class="node">
<title>Node32</title>
<g id="a_node3"><a xlink:href="classStateTwo.html#aad4266aa004ca0a38a702cc8da81f5b0" target="_top" xlink:title="Implementation of two&#45;atom state ///////////////////////////////. ">
<polygon fill="none" stroke="#000000" points="145.5,-.5 145.5,-19.5 256.5,-19.5 256.5,-.5 145.5,-.5"/>
<text text-anchor="middle" x="201" y="-7.5" font-family="Helvetica,sans-Serif" font-size="10.00" fill="#000000">StateTwo::StateTwo</text>
</a>
</g>
</g>
<!-- Node30&#45;&gt;Node32 -->
<g id="edge2" class="edge">
<title>Node30&#45;&gt;Node32</title>
<path fill="none" stroke="#191970" d="M117.1575,-22.5053C126.4691,-21.1165 135.9995,-19.695 145.1396,-18.3317"/>
<polygon fill="#191970" stroke="#191970" points="116.5424,-19.0583 107.1681,-23.9953 117.5751,-25.9817 116.5424,-19.0583"/>
</g>
</g>
</svg>
