<?xml version="1.0" encoding="UTF-8" standalone="no"?>
<!DOCTYPE svg PUBLIC "-//W3C//DTD SVG 1.1//EN"
 "http://www.w3.org/Graphics/SVG/1.1/DTD/svg11.dtd">
<!-- Generated by graphviz version 2.40.1 (20161225.0304)
 -->
<!-- Title: BasisnamesOne::fromFirst Pages: 1 -->
<svg width="552pt" height="66pt"
 viewBox="0.00 0.00 552.00 66.00" xmlns="http://www.w3.org/2000/svg" xmlns:xlink="http://www.w3.org/1999/xlink">
<g id="graph0" class="graph" transform="scale(1 1) rotate(0) translate(4 62)">
<title>BasisnamesOne::fromFirst</title>
<!-- Node13 -->
<g id="node1" class="node">
<title>Node13</title>
<polygon fill="#bfbfbf" stroke="#000000" points="0,-19.5 0,-38.5 146,-38.5 146,-19.5 0,-19.5"/>
<text text-anchor="middle" x="73" y="-26.5" font-family="Helvetica,sans-Serif" font-size="10.00" fill="#000000">BasisnamesOne::fromFirst</text>
</g>
<!-- Node14 -->
<g id="node2" class="node">
<title>Node14</title>
<g id="a_node2"><a xlink:href="classHamiltonianTwo.html#a6ca0a318f25170b69e571a07064a5afb" target="_top" xlink:title="HamiltonianTwo::calculate">
<polygon fill="none" stroke="#000000" points="182,-38.5 182,-57.5 328,-57.5 328,-38.5 182,-38.5"/>
<text text-anchor="middle" x="255" y="-45.5" font-family="Helvetica,sans-Serif" font-size="10.00" fill="#000000">HamiltonianTwo::calculate</text>
</a>
</g>
</g>
<!-- Node13&#45;&gt;Node14 -->
<g id="edge1" class="edge">
<title>Node13&#45;&gt;Node14</title>
<path fill="none" stroke="#191970" d="M156.2365,-37.6895C164.8043,-38.584 173.4644,-39.488 181.9103,-40.3698"/>
<polygon fill="#191970" stroke="#191970" points="156.549,-34.2032 146.2397,-36.6459 155.8222,-41.1654 156.549,-34.2032"/>
</g>
<!-- Node16 -->
<g id="node4" class="node">
<title>Node16</title>
<g id="a_node4"><a xlink:href="Interface_8h.html#ad478f0b9610586a2ae8066c78b6d3f96" target="_top" xlink:title="compute">
<polygon fill="none" stroke="#000000" points="225.5,-.5 225.5,-19.5 284.5,-19.5 284.5,-.5 225.5,-.5"/>
<text text-anchor="middle" x="255" y="-7.5" font-family="Helvetica,sans-Serif" font-size="10.00" fill="#000000">compute</text>
</a>
</g>
</g>
<!-- Node13&#45;&gt;Node16 -->
<g id="edge3" class="edge">
<title>Node13&#45;&gt;Node16</title>
<path fill="none" stroke="#191970" d="M156.368,-20.2967C181.0221,-17.723 206.4285,-15.0707 225.2805,-13.1026"/>
<polygon fill="#191970" stroke="#191970" points="155.8222,-16.8346 146.2397,-21.3541 156.549,-23.7968 155.8222,-16.8346"/>
</g>
<!-- Node15 -->
<g id="node3" class="node">
<title>Node15</title>
<g id="a_node3"><a xlink:href="classHamiltonianTwo.html#abd374713c9b38f72265c7fe496c42b96" target="_top" xlink:title="HamiltonianTwo::HamiltonianTwo">
<polygon fill="none" stroke="#000000" points="364,-38.5 364,-57.5 544,-57.5 544,-38.5 364,-38.5"/>
<text text-anchor="middle" x="454" y="-45.5" font-family="Helvetica,sans-Serif" font-size="10.00" fill="#000000">HamiltonianTwo::HamiltonianTwo</text>
</a>
</g>
</g>
<!-- Node14&#45;&gt;Node15 -->
<g id="edge2" class="edge">
<title>Node14&#45;&gt;Node15</title>
<path fill="none" stroke="#191970" d="M338.3577,-48C346.7192,-48 355.237,-48 363.6663,-48"/>
<polygon fill="#191970" stroke="#191970" points="338.2525,-44.5001 328.2525,-48 338.2524,-51.5001 338.2525,-44.5001"/>
</g>
<!-- Node17 -->
<g id="node5" class="node">
<title>Node17</title>
<g id="a_node5"><a xlink:href="main_8cpp.html#a3c04138a5bfe5d72780bb7e82a18e627" target="_top" xlink:title="main">
<polygon fill="none" stroke="#000000" points="433.5,-.5 433.5,-19.5 474.5,-19.5 474.5,-.5 433.5,-.5"/>
<text text-anchor="middle" x="454" y="-7.5" font-family="Helvetica,sans-Serif" font-size="10.00" fill="#000000">main</text>
</a>
</g>
</g>
<!-- Node16&#45;&gt;Node17 -->
<g id="edge4" class="edge">
<title>Node16&#45;&gt;Node17</title>
<path fill="none" stroke="#191970" d="M294.9177,-10C336.7585,-10 400.8509,-10 433.4378,-10"/>
<polygon fill="#191970" stroke="#191970" points="294.7923,-6.5001 284.7923,-10 294.7923,-13.5001 294.7923,-6.5001"/>
</g>
</g>
</svg>
