<?xml version="1.0" encoding="UTF-8" standalone="no"?>
<!DOCTYPE svg PUBLIC "-//W3C//DTD SVG 1.1//EN"
 "http://www.w3.org/Graphics/SVG/1.1/DTD/svg11.dtd">
<!-- Generated by graphviz version 2.40.1 (20161225.0304)
 -->
<!-- Title: Numerov::power_kernel Pages: 1 -->
<svg width="592pt" height="75pt"
 viewBox="0.00 0.00 592.00 75.42" xmlns="http://www.w3.org/2000/svg" xmlns:xlink="http://www.w3.org/1999/xlink">
<g id="graph0" class="graph" transform="scale(1 1) rotate(0) translate(4 71.4232)">
<title>Numerov::power_kernel</title>
<!-- Node7 -->
<g id="node1" class="node">
<title>Node7</title>
<polygon fill="#bfbfbf" stroke="#000000" points="0,-20.4232 0,-39.4232 134,-39.4232 134,-20.4232 0,-20.4232"/>
<text text-anchor="middle" x="67" y="-27.4232" font-family="Helvetica,sans-Serif" font-size="10.00" fill="#000000">Numerov::power_kernel</text>
</g>
<!-- Node8 -->
<g id="node2" class="node">
<title>Node8</title>
<g id="a_node2"><a xlink:href="namespacewhittaker__functions.html#a9fe8c4e2c3ae8b4330b54af0abfc2224" target="_top" xlink:title="Compute the confluent hypergeometric function. ">
<polygon fill="none" stroke="#000000" points="471,-36.9232 471,-66.9232 584,-66.9232 584,-36.9232 471,-36.9232"/>
<text text-anchor="start" x="479" y="-54.9232" font-family="Helvetica,sans-Serif" font-size="10.00" fill="#000000">whittaker_functions</text>
<text text-anchor="middle" x="527.5" y="-43.9232" font-family="Helvetica,sans-Serif" font-size="10.00" fill="#000000">::HypergeometricU</text>
</a>
</g>
</g>
<!-- Node7&#45;&gt;Node8 -->
<g id="edge1" class="edge">
<title>Node7&#45;&gt;Node8</title>
<path fill="none" stroke="#191970" d="M99.5984,-39.5365C119.6934,-44.9559 146.1045,-51.1761 170,-53.9232 270.7913,-65.5107 388.6234,-61.4851 460.6413,-57.0606"/>
<polygon fill="#191970" stroke="#191970" points="461.1692,-60.5342 470.927,-56.4068 460.725,-53.5483 461.1692,-60.5342"/>
</g>
<!-- Node9 -->
<g id="node3" class="node">
<title>Node9</title>
<g id="a_node3"><a xlink:href="namespacewhittaker__functions.html#ab69b6f45a0c575b401bdaf26a250f084" target="_top" xlink:title="Radial wavefunctions from Whittaker&#39;s function. ">
<polygon fill="none" stroke="#000000" points="170,-14.9232 170,-44.9232 286,-44.9232 286,-14.9232 170,-14.9232"/>
<text text-anchor="start" x="178" y="-32.9232" font-family="Helvetica,sans-Serif" font-size="10.00" fill="#000000">whittaker_functions</text>
<text text-anchor="middle" x="228" y="-21.9232" font-family="Helvetica,sans-Serif" font-size="10.00" fill="#000000">::RadialWFWhittaker</text>
</a>
</g>
</g>
<!-- Node7&#45;&gt;Node9 -->
<g id="edge2" class="edge">
<title>Node7&#45;&gt;Node9</title>
<path fill="none" stroke="#191970" d="M134.3456,-29.9232C142.7383,-29.9232 151.327,-29.9232 159.7335,-29.9232"/>
<polygon fill="#191970" stroke="#191970" points="159.8718,-33.4233 169.8717,-29.9232 159.8717,-26.4233 159.8718,-33.4233"/>
</g>
<!-- Node10 -->
<g id="node4" class="node">
<title>Node10</title>
<g id="a_node4"><a xlink:href="namespacewhittaker__functions.html#a27cc4e33339852cc4bce929bf7c0b4d4" target="_top" xlink:title="Compute the Whittaker function. ">
<polygon fill="none" stroke="#000000" points="322,-14.9232 322,-44.9232 435,-44.9232 435,-14.9232 322,-14.9232"/>
<text text-anchor="start" x="330" y="-32.9232" font-family="Helvetica,sans-Serif" font-size="10.00" fill="#000000">whittaker_functions</text>
<text text-anchor="middle" x="378.5" y="-21.9232" font-family="Helvetica,sans-Serif" font-size="10.00" fill="#000000">::WhittakerW</text>
</a>
</g>
</g>
<!-- Node7&#45;&gt;Node10 -->
<g id="edge5" class="edge">
<title>Node7&#45;&gt;Node10</title>
<path fill="none" stroke="#191970" d="M98.2004,-20.2969C118.444,-14.5643 145.517,-7.8519 170,-4.9232 221.1906,1.2003 234.8928,1.8614 286,-4.9232 297.9814,-6.5138 310.6127,-9.2153 322.56,-12.2689"/>
<polygon fill="#191970" stroke="#191970" points="321.8408,-15.6995 332.4054,-14.9002 323.6482,-8.9369 321.8408,-15.6995"/>
</g>
<!-- Node9&#45;&gt;Node10 -->
<g id="edge3" class="edge">
<title>Node9&#45;&gt;Node10</title>
<path fill="none" stroke="#191970" d="M286.1872,-29.9232C294.5377,-29.9232 303.1841,-29.9232 311.685,-29.9232"/>
<polygon fill="#191970" stroke="#191970" points="311.9525,-33.4233 321.9525,-29.9232 311.9525,-26.4233 311.9525,-33.4233"/>
</g>
<!-- Node10&#45;&gt;Node8 -->
<g id="edge4" class="edge">
<title>Node10&#45;&gt;Node8</title>
<path fill="none" stroke="#191970" d="M435.2556,-38.3032C443.6493,-39.5426 452.3621,-40.829 460.9332,-42.0946"/>
<polygon fill="#191970" stroke="#191970" points="460.4982,-45.5682 470.9022,-43.5665 461.5208,-38.6433 460.4982,-45.5682"/>
</g>
</g>
</svg>
