<?xml version="1.0" encoding="UTF-8" standalone="no"?>
<!DOCTYPE svg PUBLIC "-//W3C//DTD SVG 1.1//EN"
 "http://www.w3.org/Graphics/SVG/1.1/DTD/svg11.dtd">
<!-- Generated by graphviz version 2.40.1 (20161225.0304)
 -->
<!-- Title: StateTwo::getReflected Pages: 1 -->
<svg width="293pt" height="218pt"
 viewBox="0.00 0.00 293.00 218.00" xmlns="http://www.w3.org/2000/svg" xmlns:xlink="http://www.w3.org/1999/xlink">
<g id="graph0" class="graph" transform="scale(1 1) rotate(0) translate(4 214)">
<title>StateTwo::getReflected</title>
<!-- Node77 -->
<g id="node1" class="node">
<title>Node77</title>
<polygon fill="#bfbfbf" stroke="#000000" points="0,-95.5 0,-114.5 129,-114.5 129,-95.5 0,-95.5"/>
<text text-anchor="middle" x="64.5" y="-102.5" font-family="Helvetica,sans-Serif" font-size="10.00" fill="#000000">StateTwo::getReflected</text>
</g>
<!-- Node78 -->
<g id="node2" class="node">
<title>Node78</title>
<g id="a_node2"><a xlink:href="classStateTwo.html#a8da7f3d40cddcdd7dbb2886427f7952d" target="_top" xlink:title="StateTwo::getJ">
<polygon fill="none" stroke="#000000" points="182,-190.5 182,-209.5 268,-209.5 268,-190.5 182,-190.5"/>
<text text-anchor="middle" x="225" y="-197.5" font-family="Helvetica,sans-Serif" font-size="10.00" fill="#000000">StateTwo::getJ</text>
</a>
</g>
</g>
<!-- Node77&#45;&gt;Node78 -->
<g id="edge1" class="edge">
<title>Node77&#45;&gt;Node78</title>
<path fill="none" stroke="#191970" d="M74.8258,-114.7489C92.1801,-130.6628 128.8553,-162.3169 165,-181 169.2648,-183.2044 173.833,-185.2119 178.475,-187.025"/>
<polygon fill="#191970" stroke="#191970" points="177.4388,-190.3719 188.0331,-190.4746 179.8151,-183.7876 177.4388,-190.3719"/>
</g>
<!-- Node79 -->
<g id="node3" class="node">
<title>Node79</title>
<g id="a_node3"><a xlink:href="classStateTwo.html#aba98b05bc1257f73bcbbb9b079ad2928" target="_top" xlink:title="StateTwo::getL">
<polygon fill="none" stroke="#000000" points="181,-152.5 181,-171.5 269,-171.5 269,-152.5 181,-152.5"/>
<text text-anchor="middle" x="225" y="-159.5" font-family="Helvetica,sans-Serif" font-size="10.00" fill="#000000">StateTwo::getL</text>
</a>
</g>
</g>
<!-- Node77&#45;&gt;Node79 -->
<g id="edge2" class="edge">
<title>Node77&#45;&gt;Node79</title>
<path fill="none" stroke="#191970" d="M88.7336,-114.5897C109.0054,-122.5086 138.743,-133.8863 165,-143 171.0966,-145.1161 177.5738,-147.2671 183.9315,-149.3243"/>
<polygon fill="#191970" stroke="#191970" points="183.1609,-152.7524 193.7518,-152.4613 185.291,-146.0843 183.1609,-152.7524"/>
</g>
<!-- Node80 -->
<g id="node4" class="node">
<title>Node80</title>
<g id="a_node4"><a xlink:href="classStateTwo.html#af2e91e00e5839735357e41e14646a0bd" target="_top" xlink:title="StateTwo::getM">
<polygon fill="none" stroke="#000000" points="179.5,-114.5 179.5,-133.5 270.5,-133.5 270.5,-114.5 179.5,-114.5"/>
<text text-anchor="middle" x="225" y="-121.5" font-family="Helvetica,sans-Serif" font-size="10.00" fill="#000000">StateTwo::getM</text>
</a>
</g>
</g>
<!-- Node77&#45;&gt;Node80 -->
<g id="edge3" class="edge">
<title>Node77&#45;&gt;Node80</title>
<path fill="none" stroke="#191970" d="M129.3189,-112.6733C142.4996,-114.2336 156.2574,-115.8622 169.0968,-117.3822"/>
<polygon fill="#191970" stroke="#191970" points="168.8261,-120.8745 179.1683,-118.5744 169.6491,-113.923 168.8261,-120.8745"/>
</g>
<!-- Node81 -->
<g id="node5" class="node">
<title>Node81</title>
<g id="a_node5"><a xlink:href="classStateTwo.html#a63046074605d8d7a3201082ba9e13673" target="_top" xlink:title="StateTwo::getN">
<polygon fill="none" stroke="#000000" points="180,-76.5 180,-95.5 270,-95.5 270,-76.5 180,-76.5"/>
<text text-anchor="middle" x="225" y="-83.5" font-family="Helvetica,sans-Serif" font-size="10.00" fill="#000000">StateTwo::getN</text>
</a>
</g>
</g>
<!-- Node77&#45;&gt;Node81 -->
<g id="edge4" class="edge">
<title>Node77&#45;&gt;Node81</title>
<path fill="none" stroke="#191970" d="M129.3189,-97.3267C142.6369,-95.7502 156.5441,-94.1038 169.4977,-92.5704"/>
<polygon fill="#191970" stroke="#191970" points="170.1332,-96.0197 179.6524,-91.3683 169.3102,-89.0682 170.1332,-96.0197"/>
</g>
<!-- Node82 -->
<g id="node6" class="node">
<title>Node82</title>
<g id="a_node6"><a xlink:href="classStateTwo.html#a11bbc5b4c7f83c44a3536a349e78a925" target="_top" xlink:title="StateTwo::getSpecies">
<polygon fill="none" stroke="#000000" points="165,-38.5 165,-57.5 285,-57.5 285,-38.5 165,-38.5"/>
<text text-anchor="middle" x="225" y="-45.5" font-family="Helvetica,sans-Serif" font-size="10.00" fill="#000000">StateTwo::getSpecies</text>
</a>
</g>
</g>
<!-- Node77&#45;&gt;Node82 -->
<g id="edge5" class="edge">
<title>Node77&#45;&gt;Node82</title>
<path fill="none" stroke="#191970" d="M88.7336,-95.4103C109.0054,-87.4914 138.743,-76.1137 165,-67 171.0966,-64.8839 177.5738,-62.7329 183.9315,-60.6757"/>
<polygon fill="#191970" stroke="#191970" points="185.291,-63.9157 193.7518,-57.5387 183.1609,-57.2476 185.291,-63.9157"/>
</g>
<!-- Node83 -->
<g id="node7" class="node">
<title>Node83</title>
<g id="a_node7"><a xlink:href="classStateTwo.html#a6444d1eb8cef228b718db82bbd7c6031" target="_top" xlink:title="StateTwo::StateTwo">
<polygon fill="none" stroke="#000000" points="169.5,-.5 169.5,-19.5 280.5,-19.5 280.5,-.5 169.5,-.5"/>
<text text-anchor="middle" x="225" y="-7.5" font-family="Helvetica,sans-Serif" font-size="10.00" fill="#000000">StateTwo::StateTwo</text>
</a>
</g>
</g>
<!-- Node77&#45;&gt;Node83 -->
<g id="edge6" class="edge">
<title>Node77&#45;&gt;Node83</title>
<path fill="none" stroke="#191970" d="M74.8258,-95.2511C92.1801,-79.3372 128.8553,-47.6831 165,-29 169.2648,-26.7956 173.833,-24.7881 178.475,-22.975"/>
<polygon fill="#191970" stroke="#191970" points="179.8151,-26.2124 188.0331,-19.5254 177.4388,-19.6281 179.8151,-26.2124"/>
</g>
</g>
</svg>
