<?xml version="1.0" encoding="UTF-8" standalone="no"?>
<!DOCTYPE svg PUBLIC "-//W3C//DTD SVG 1.1//EN"
 "http://www.w3.org/Graphics/SVG/1.1/DTD/svg11.dtd">
<!-- Generated by graphviz version 2.40.1 (20161225.0304)
 -->
<!-- Title: StateOne::getReflected Pages: 1 -->
<svg width="320pt" height="66pt"
 viewBox="0.00 0.00 320.00 66.00" xmlns="http://www.w3.org/2000/svg" xmlns:xlink="http://www.w3.org/1999/xlink">
<g id="graph0" class="graph" transform="scale(1 1) rotate(0) translate(4 62)">
<title>StateOne::getReflected</title>
<!-- Node108 -->
<g id="node1" class="node">
<title>Node108</title>
<polygon fill="#bfbfbf" stroke="#000000" points="0,-19.5 0,-38.5 130,-38.5 130,-19.5 0,-19.5"/>
<text text-anchor="middle" x="65" y="-26.5" font-family="Helvetica,sans-Serif" font-size="10.00" fill="#000000">StateOne::getReflected</text>
</g>
<!-- Node109 -->
<g id="node2" class="node">
<title>Node109</title>
<g id="a_node2"><a xlink:href="classSystemOne.html#a4278feede19c90186f22f37c1d5d53b2" target="_top" xlink:title="Method that allows base class to combine systems ///////////////. ">
<polygon fill="none" stroke="#000000" points="172,-38.5 172,-57.5 306,-57.5 306,-38.5 172,-38.5"/>
<text text-anchor="middle" x="239" y="-45.5" font-family="Helvetica,sans-Serif" font-size="10.00" fill="#000000">SystemOne::incorporate</text>
</a>
</g>
</g>
<!-- Node108&#45;&gt;Node109 -->
<g id="edge1" class="edge">
<title>Node108&#45;&gt;Node109</title>
<path fill="none" stroke="#191970" d="M140.2777,-37.22C150.7947,-38.3684 161.5446,-39.5422 171.8972,-40.6727"/>
<polygon fill="#191970" stroke="#191970" points="140.6071,-33.7352 130.2862,-36.129 139.8472,-40.6939 140.6071,-33.7352"/>
</g>
<!-- Node110 -->
<g id="node3" class="node">
<title>Node110</title>
<g id="a_node3"><a xlink:href="classSystemTwo.html#a7aa70b668bd55e25ba9ed8f9d037052c" target="_top" xlink:title="Method that allows base class to initialize Basis //////////////. ">
<polygon fill="none" stroke="#000000" points="166,-.5 166,-19.5 312,-19.5 312,-.5 166,-.5"/>
<text text-anchor="middle" x="239" y="-7.5" font-family="Helvetica,sans-Serif" font-size="10.00" fill="#000000">SystemTwo::initializeBasis</text>
</a>
</g>
</g>
<!-- Node108&#45;&gt;Node110 -->
<g id="edge2" class="edge">
<title>Node108&#45;&gt;Node110</title>
<path fill="none" stroke="#191970" d="M140.4369,-20.7626C148.8358,-19.8455 157.381,-18.9124 165.752,-17.9983"/>
<polygon fill="#191970" stroke="#191970" points="139.8472,-17.3061 130.2862,-21.871 140.6071,-24.2648 139.8472,-17.3061"/>
</g>
</g>
</svg>
