<?xml version="1.0" encoding="UTF-8" standalone="no"?>
<!DOCTYPE svg PUBLIC "-//W3C//DTD SVG 1.1//EN"
 "http://www.w3.org/Graphics/SVG/1.1/DTD/svg11.dtd">
<!-- Generated by graphviz version 2.40.1 (20161225.0304)
 -->
<!-- Title: HamiltonianOne::HamiltonianOne Pages: 1 -->
<svg width="1101pt" height="933pt"
 viewBox="0.00 0.00 1101.00 932.50" xmlns="http://www.w3.org/2000/svg" xmlns:xlink="http://www.w3.org/1999/xlink">
<g id="graph0" class="graph" transform="scale(1 1) rotate(0) translate(4 928.5)">
<title>HamiltonianOne::HamiltonianOne</title>
<!-- Node0 -->
<g id="node1" class="node">
<title>Node0</title>
<polygon fill="#bfbfbf" stroke="#000000" points="0,-466 0,-485 182,-485 182,-466 0,-466"/>
<text text-anchor="middle" x="91" y="-473" font-family="Helvetica,sans-Serif" font-size="10.00" fill="#000000">HamiltonianOne::HamiltonianOne</text>
</g>
<!-- Node1 -->
<g id="node2" class="node">
<title>Node1</title>
<g id="a_node2"><a xlink:href="classHamiltonianOne.html#a9cb71dcb34ab9f0779c0bd66b758185e" target="_top" xlink:title="HamiltonianOne::build">
<polygon fill="none" stroke="#000000" points="229,-485 229,-504 355,-504 355,-485 229,-485"/>
<text text-anchor="middle" x="292" y="-492" font-family="Helvetica,sans-Serif" font-size="10.00" fill="#000000">HamiltonianOne::build</text>
</a>
</g>
</g>
<!-- Node0&#45;&gt;Node1 -->
<g id="edge1" class="edge">
<title>Node0&#45;&gt;Node1</title>
<path fill="none" stroke="#191970" d="M182.0904,-484.1105C194.3018,-485.2648 206.7,-486.4368 218.5556,-487.5575"/>
<polygon fill="#191970" stroke="#191970" points="218.531,-491.0707 228.8161,-488.5274 219.1899,-484.1018 218.531,-491.0707"/>
</g>
<!-- Node31 -->
<g id="node32" class="node">
<title>Node31</title>
<g id="a_node32"><a xlink:href="classHamiltonianOne.html#a1a90a6e472f532c6dd2f68247e27d16e" target="_top" xlink:title="HamiltonianOne::configure">
<polygon fill="none" stroke="#000000" points="218,-447 218,-466 366,-466 366,-447 218,-447"/>
<text text-anchor="middle" x="292" y="-454" font-family="Helvetica,sans-Serif" font-size="10.00" fill="#000000">HamiltonianOne::configure</text>
</a>
</g>
</g>
<!-- Node0&#45;&gt;Node31 -->
<g id="edge32" class="edge">
<title>Node0&#45;&gt;Node31</title>
<path fill="none" stroke="#191970" d="M182.0904,-466.8895C190.5827,-466.0867 199.1654,-465.2754 207.593,-464.4788"/>
<polygon fill="#191970" stroke="#191970" points="208.1534,-467.9415 217.7796,-463.5159 207.4946,-460.9726 208.1534,-467.9415"/>
</g>
<!-- Node2 -->
<g id="node3" class="node">
<title>Node2</title>
<g id="a_node3"><a xlink:href="QuantumDefect_8cpp.html#ac472df8bb08bd6ff27c7ef7633ae62c5" target="_top" xlink:title="Returns only the energy of a state. ">
<polygon fill="none" stroke="#000000" points="455.5,-905 455.5,-924 535.5,-924 535.5,-905 455.5,-905"/>
<text text-anchor="middle" x="495.5" y="-912" font-family="Helvetica,sans-Serif" font-size="10.00" fill="#000000">energy_level</text>
</a>
</g>
</g>
<!-- Node1&#45;&gt;Node2 -->
<g id="edge2" class="edge">
<title>Node1&#45;&gt;Node2</title>
<path fill="none" stroke="#191970" d="M293.2969,-504.3142C300.891,-560.3004 341.3568,-838.8038 402,-895.5 413.6131,-906.3573 429.6605,-911.7441 445.1851,-914.2364"/>
<polygon fill="#191970" stroke="#191970" points="444.905,-917.7283 455.2595,-915.4845 445.7657,-910.7815 444.905,-917.7283"/>
</g>
<!-- Node3 -->
<g id="node4" class="node">
<title>Node3</title>
<g id="a_node4"><a xlink:href="classHamiltonianmatrix.html#a7f424947bfe863cdd30d3290b4b708a5" target="_top" xlink:title="Hamiltonianmatrix::\laddEntries">
<polygon fill="none" stroke="#000000" points="438,-855.5 438,-885.5 553,-885.5 553,-855.5 438,-855.5"/>
<text text-anchor="start" x="446" y="-873.5" font-family="Helvetica,sans-Serif" font-size="10.00" fill="#000000">Hamiltonianmatrix::</text>
<text text-anchor="middle" x="495.5" y="-862.5" font-family="Helvetica,sans-Serif" font-size="10.00" fill="#000000">addEntries</text>
</a>
</g>
</g>
<!-- Node1&#45;&gt;Node3 -->
<g id="edge3" class="edge">
<title>Node1&#45;&gt;Node3</title>
<path fill="none" stroke="#191970" d="M293.6991,-504.0692C302.9677,-555.241 348.958,-796.1279 402,-846.5 409.3825,-853.5109 418.5265,-858.5458 428.1802,-862.1479"/>
<polygon fill="#191970" stroke="#191970" points="427.3661,-865.5625 437.9575,-865.2924 429.5094,-858.8987 427.3661,-865.5625"/>
</g>
<!-- Node4 -->
<g id="node5" class="node">
<title>Node4</title>
<g id="a_node5"><a xlink:href="classHamiltonianmatrix.html#a45f3d187ac775e9b6c6a7756810f91ab" target="_top" xlink:title="Hamiltonianmatrix::\laddBasis">
<polygon fill="none" stroke="#000000" points="438,-806.5 438,-836.5 553,-836.5 553,-806.5 438,-806.5"/>
<text text-anchor="start" x="446" y="-824.5" font-family="Helvetica,sans-Serif" font-size="10.00" fill="#000000">Hamiltonianmatrix::</text>
<text text-anchor="middle" x="495.5" y="-813.5" font-family="Helvetica,sans-Serif" font-size="10.00" fill="#000000">addBasis</text>
</a>
</g>
</g>
<!-- Node1&#45;&gt;Node4 -->
<g id="edge4" class="edge">
<title>Node1&#45;&gt;Node4</title>
<path fill="none" stroke="#191970" d="M292.4052,-504.1259C294.7046,-545.9609 309.5805,-713.6353 402,-797.5 409.4465,-804.2572 418.5385,-809.1653 428.0957,-812.7199"/>
<polygon fill="#191970" stroke="#191970" points="427.1726,-816.0997 437.7643,-815.8417 429.3235,-809.4383 427.1726,-816.0997"/>
</g>
<!-- Node5 -->
<g id="node6" class="node">
<title>Node5</title>
<g id="a_node6"><a xlink:href="classHamiltonianmatrix.html#a4dded9728c945c20fcd7abbc8bd5cfe6" target="_top" xlink:title="Hamiltonianmatrix::\lcompress">
<polygon fill="none" stroke="#000000" points="438,-757.5 438,-787.5 553,-787.5 553,-757.5 438,-757.5"/>
<text text-anchor="start" x="446" y="-775.5" font-family="Helvetica,sans-Serif" font-size="10.00" fill="#000000">Hamiltonianmatrix::</text>
<text text-anchor="middle" x="495.5" y="-764.5" font-family="Helvetica,sans-Serif" font-size="10.00" fill="#000000">compress</text>
</a>
</g>
</g>
<!-- Node1&#45;&gt;Node5 -->
<g id="edge5" class="edge">
<title>Node1&#45;&gt;Node5</title>
<path fill="none" stroke="#191970" d="M293.1441,-504.0836C298.149,-541.6078 321.5974,-679.8539 402,-748.5 409.5517,-754.9475 418.6162,-759.6961 428.0889,-763.1868"/>
<polygon fill="#191970" stroke="#191970" points="427.065,-766.5341 437.6567,-766.2746 429.215,-759.8724 427.065,-766.5341"/>
</g>
<!-- Node6 -->
<g id="node7" class="node">
<title>Node6</title>
<g id="a_node7"><a xlink:href="classHamiltonianOne.html#ac0c0312d217259f68a95a5a72a747201" target="_top" xlink:title="HamiltonianOne::changeTo\lSpherical">
<polygon fill="none" stroke="#000000" points="421.5,-708.5 421.5,-738.5 569.5,-738.5 569.5,-708.5 421.5,-708.5"/>
<text text-anchor="start" x="429.5" y="-726.5" font-family="Helvetica,sans-Serif" font-size="10.00" fill="#000000">HamiltonianOne::changeTo</text>
<text text-anchor="middle" x="495.5" y="-715.5" font-family="Helvetica,sans-Serif" font-size="10.00" fill="#000000">Spherical</text>
</a>
</g>
</g>
<!-- Node1&#45;&gt;Node6 -->
<g id="edge6" class="edge">
<title>Node1&#45;&gt;Node6</title>
<path fill="none" stroke="#191970" d="M294.1883,-504.0088C302.2318,-536.7391 333.3355,-645.6807 402,-699.5 405.1739,-701.9877 408.5771,-704.2197 412.1386,-706.2222"/>
<polygon fill="#191970" stroke="#191970" points="410.7617,-709.4459 421.277,-710.742 413.8651,-703.1714 410.7617,-709.4459"/>
</g>
<!-- Node7 -->
<g id="node8" class="node">
<title>Node7</title>
<g id="a_node8"><a xlink:href="classMatrixElements.html#a14a519d2b14628f1f00ef425fa033043" target="_top" xlink:title="MatrixElements::precalculate\lElectricMomentum">
<polygon fill="none" stroke="#000000" points="416,-659.5 416,-689.5 575,-689.5 575,-659.5 416,-659.5"/>
<text text-anchor="start" x="424" y="-677.5" font-family="Helvetica,sans-Serif" font-size="10.00" fill="#000000">MatrixElements::precalculate</text>
<text text-anchor="middle" x="495.5" y="-666.5" font-family="Helvetica,sans-Serif" font-size="10.00" fill="#000000">ElectricMomentum</text>
</a>
</g>
</g>
<!-- Node1&#45;&gt;Node7 -->
<g id="edge7" class="edge">
<title>Node1&#45;&gt;Node7</title>
<path fill="none" stroke="#191970" d="M295.997,-504.3666C307.75,-532.0804 344.9912,-611.1669 402,-650.5 404.1726,-651.999 406.4318,-653.4044 408.7586,-654.722"/>
<polygon fill="#191970" stroke="#191970" points="407.5226,-658.0179 418.0293,-659.3814 410.6661,-651.7634 407.5226,-658.0179"/>
</g>
<!-- Node8 -->
<g id="node9" class="node">
<title>Node8</title>
<g id="a_node9"><a xlink:href="classMatrixElements.html#af786718331598916e45d54054752eeab" target="_top" xlink:title="MatrixElements::precalculate\lMagneticMomentum">
<polygon fill="none" stroke="#000000" points="416,-610.5 416,-640.5 575,-640.5 575,-610.5 416,-610.5"/>
<text text-anchor="start" x="424" y="-628.5" font-family="Helvetica,sans-Serif" font-size="10.00" fill="#000000">MatrixElements::precalculate</text>
<text text-anchor="middle" x="495.5" y="-617.5" font-family="Helvetica,sans-Serif" font-size="10.00" fill="#000000">MagneticMomentum</text>
</a>
</g>
</g>
<!-- Node1&#45;&gt;Node8 -->
<g id="edge8" class="edge">
<title>Node1&#45;&gt;Node8</title>
<path fill="none" stroke="#191970" d="M299.0553,-504.1925C314.9426,-525.2892 355.7662,-575.5527 402,-601.5 405.2609,-603.3301 408.6636,-605.0235 412.1587,-606.5901"/>
<polygon fill="#191970" stroke="#191970" points="411.0113,-609.9022 421.5921,-610.4477 413.6609,-603.423 411.0113,-609.9022"/>
</g>
<!-- Node9 -->
<g id="node10" class="node">
<title>Node9</title>
<g id="a_node10"><a xlink:href="classMatrixElements.html#a32c0094a2cb546133d508f3bf29930ab" target="_top" xlink:title="MatrixElements::precalculate\lDiamagnetism">
<polygon fill="none" stroke="#000000" points="416,-561.5 416,-591.5 575,-591.5 575,-561.5 416,-561.5"/>
<text text-anchor="start" x="424" y="-579.5" font-family="Helvetica,sans-Serif" font-size="10.00" fill="#000000">MatrixElements::precalculate</text>
<text text-anchor="middle" x="495.5" y="-568.5" font-family="Helvetica,sans-Serif" font-size="10.00" fill="#000000">Diamagnetism</text>
</a>
</g>
</g>
<!-- Node1&#45;&gt;Node9 -->
<g id="edge9" class="edge">
<title>Node1&#45;&gt;Node9</title>
<path fill="none" stroke="#191970" d="M307.8866,-504.1359C328.8268,-516.5047 367.1029,-537.9776 402,-551.5 408.3161,-553.9474 414.9614,-556.244 421.6758,-558.3765"/>
<polygon fill="#191970" stroke="#191970" points="420.9462,-561.813 431.5322,-561.382 422.9879,-555.1174 420.9462,-561.813"/>
</g>
<!-- Node10 -->
<g id="node11" class="node">
<title>Node10</title>
<g id="a_node11"><a xlink:href="MatrixElements_8cpp.html#a8091d5442eeac91702ef15b470e70798" target="_top" xlink:title="selectionRulesMultipole">
<polygon fill="none" stroke="#000000" points="429,-523 429,-542 562,-542 562,-523 429,-523"/>
<text text-anchor="middle" x="495.5" y="-530" font-family="Helvetica,sans-Serif" font-size="10.00" fill="#000000">selectionRulesMultipole</text>
</a>
</g>
</g>
<!-- Node1&#45;&gt;Node10 -->
<g id="edge10" class="edge">
<title>Node1&#45;&gt;Node10</title>
<path fill="none" stroke="#191970" d="M343.089,-504.04C370.7877,-509.2122 405.211,-515.6401 434.3309,-521.0778"/>
<polygon fill="#191970" stroke="#191970" points="433.9174,-524.561 444.39,-522.9561 435.2024,-517.6799 433.9174,-524.561"/>
</g>
<!-- Node11 -->
<g id="node12" class="node">
<title>Node11</title>
<g id="a_node12"><a xlink:href="MatrixElements_8cpp.html#a6f6b84fd868c178f74ba516ddbffac2f" target="_top" xlink:title="selectionRulesMomentum">
<polygon fill="none" stroke="#000000" points="424,-485 424,-504 567,-504 567,-485 424,-485"/>
<text text-anchor="middle" x="495.5" y="-492" font-family="Helvetica,sans-Serif" font-size="10.00" fill="#000000">selectionRulesMomentum</text>
</a>
</g>
</g>
<!-- Node1&#45;&gt;Node11 -->
<g id="edge11" class="edge">
<title>Node1&#45;&gt;Node11</title>
<path fill="none" stroke="#191970" d="M355.2732,-494.5C373.7535,-494.5 394.2197,-494.5 413.6745,-494.5"/>
<polygon fill="#191970" stroke="#191970" points="413.7401,-498.0001 423.7401,-494.5 413.7401,-491.0001 413.7401,-498.0001"/>
</g>
<!-- Node12 -->
<g id="node13" class="node">
<title>Node12</title>
<g id="a_node13"><a xlink:href="classMatrixElements.html#a028e0fd7873f47d9a598c2e3e1200517" target="_top" xlink:title="MatrixElements::getElectric\lMomentum">
<polygon fill="none" stroke="#000000" points="420,-435.5 420,-465.5 571,-465.5 571,-435.5 420,-435.5"/>
<text text-anchor="start" x="428" y="-453.5" font-family="Helvetica,sans-Serif" font-size="10.00" fill="#000000">MatrixElements::getElectric</text>
<text text-anchor="middle" x="495.5" y="-442.5" font-family="Helvetica,sans-Serif" font-size="10.00" fill="#000000">Momentum</text>
</a>
</g>
</g>
<!-- Node1&#45;&gt;Node12 -->
<g id="edge12" class="edge">
<title>Node1&#45;&gt;Node12</title>
<path fill="none" stroke="#191970" d="M336.1565,-484.9527C359.4773,-479.9103 388.8168,-473.5666 415.9438,-467.7013"/>
<polygon fill="#191970" stroke="#191970" points="416.7882,-471.0997 425.8227,-465.5654 415.3089,-464.2578 416.7882,-471.0997"/>
</g>
<!-- Node14 -->
<g id="node15" class="node">
<title>Node14</title>
<g id="a_node15"><a xlink:href="classMatrixElements.html#a067d51ef7fad32019f543cf41494fcb6" target="_top" xlink:title="MatrixElements::getMagnetic\lMomentum">
<polygon fill="none" stroke="#000000" points="416,-386.5 416,-416.5 575,-416.5 575,-386.5 416,-386.5"/>
<text text-anchor="start" x="424" y="-404.5" font-family="Helvetica,sans-Serif" font-size="10.00" fill="#000000">MatrixElements::getMagnetic</text>
<text text-anchor="middle" x="495.5" y="-393.5" font-family="Helvetica,sans-Serif" font-size="10.00" fill="#000000">Momentum</text>
</a>
</g>
</g>
<!-- Node1&#45;&gt;Node14 -->
<g id="edge14" class="edge">
<title>Node1&#45;&gt;Node14</title>
<path fill="none" stroke="#191970" d="M347.1937,-484.8899C353.8387,-482.4385 360.2851,-479.3617 366,-475.5 388.3909,-460.37 379.6846,-441.7411 402,-426.5 404.9334,-424.4966 408.0199,-422.6535 411.2142,-420.9581"/>
<polygon fill="#191970" stroke="#191970" points="412.9362,-424.0149 420.4645,-416.56 409.9304,-417.693 412.9362,-424.0149"/>
</g>
<!-- Node15 -->
<g id="node16" class="node">
<title>Node15</title>
<g id="a_node16"><a xlink:href="classMatrixElements.html#a236af23d67ee9ccaff40d839764152e1" target="_top" xlink:title="MatrixElements::getDiamagnetism">
<polygon fill="none" stroke="#000000" points="402,-348 402,-367 589,-367 589,-348 402,-348"/>
<text text-anchor="middle" x="495.5" y="-355" font-family="Helvetica,sans-Serif" font-size="10.00" fill="#000000">MatrixElements::getDiamagnetism</text>
</a>
</g>
</g>
<!-- Node1&#45;&gt;Node15 -->
<g id="edge15" class="edge">
<title>Node1&#45;&gt;Node15</title>
<path fill="none" stroke="#191970" d="M351.6512,-484.8717C356.8718,-482.4009 361.7691,-479.3249 366,-475.5 400.4207,-444.3825 366.9547,-407.9124 402,-377.5 404.3684,-375.4447 406.8963,-373.5839 409.5474,-371.8999"/>
<polygon fill="#191970" stroke="#191970" points="411.2684,-374.9482 418.3885,-367.1025 407.9298,-368.7956 411.2684,-374.9482"/>
</g>
<!-- Node16 -->
<g id="node17" class="node">
<title>Node16</title>
<g id="a_node17"><a xlink:href="classsqlite_1_1statement.html#a1b40871fb975892f70ea097f7c6da9c1" target="_top" xlink:title="Prepare the statement. ">
<polygon fill="none" stroke="#000000" points="442.5,-298.5 442.5,-328.5 548.5,-328.5 548.5,-298.5 442.5,-298.5"/>
<text text-anchor="start" x="450.5" y="-316.5" font-family="Helvetica,sans-Serif" font-size="10.00" fill="#000000">sqlite::statement::</text>
<text text-anchor="middle" x="495.5" y="-305.5" font-family="Helvetica,sans-Serif" font-size="10.00" fill="#000000">prepare</text>
</a>
</g>
</g>
<!-- Node1&#45;&gt;Node16 -->
<g id="edge16" class="edge">
<title>Node1&#45;&gt;Node16</title>
<path fill="none" stroke="#191970" d="M352.7539,-484.9199C357.6247,-482.4282 362.1438,-479.3345 366,-475.5 410.6419,-431.109 357.5793,-383.1123 402,-338.5 410.4288,-330.0349 421.387,-324.3434 432.8197,-320.5379"/>
<polygon fill="#191970" stroke="#191970" points="433.8417,-323.8859 442.4898,-317.7653 431.9124,-317.1571 433.8417,-323.8859"/>
</g>
<!-- Node17 -->
<g id="node18" class="node">
<title>Node17</title>
<g id="a_node18"><a xlink:href="classConfiguration.html#a545d28b3d64edc05331ee71898acfd1c" target="_top" xlink:title="Load configuration from JSON file. ">
<polygon fill="none" stroke="#000000" points="440.5,-249.5 440.5,-279.5 550.5,-279.5 550.5,-249.5 440.5,-249.5"/>
<text text-anchor="start" x="448.5" y="-267.5" font-family="Helvetica,sans-Serif" font-size="10.00" fill="#000000">Configuration::load</text>
<text text-anchor="middle" x="495.5" y="-256.5" font-family="Helvetica,sans-Serif" font-size="10.00" fill="#000000">_from_json</text>
</a>
</g>
</g>
<!-- Node1&#45;&gt;Node17 -->
<g id="edge17" class="edge">
<title>Node1&#45;&gt;Node17</title>
<path fill="none" stroke="#191970" d="M353.3767,-484.9964C358.0557,-482.4822 362.3629,-479.3627 366,-475.5 423.7219,-414.1978 344.5835,-351.0883 402,-289.5 409.632,-281.3134 419.6224,-275.6945 430.2273,-271.8614"/>
<polygon fill="#191970" stroke="#191970" points="431.5643,-275.1118 440.0891,-268.8207 429.5017,-268.4225 431.5643,-275.1118"/>
</g>
<!-- Node18 -->
<g id="node19" class="node">
<title>Node18</title>
<g id="a_node19"><a xlink:href="classHamiltonianmatrix.html#ab5561740a111d0e9dc53c865009176a5" target="_top" xlink:title="Hamiltonianmatrix::load">
<polygon fill="none" stroke="#000000" points="427.5,-211 427.5,-230 563.5,-230 563.5,-211 427.5,-211"/>
<text text-anchor="middle" x="495.5" y="-218" font-family="Helvetica,sans-Serif" font-size="10.00" fill="#000000">Hamiltonianmatrix::load</text>
</a>
</g>
</g>
<!-- Node1&#45;&gt;Node18 -->
<g id="edge18" class="edge">
<title>Node1&#45;&gt;Node18</title>
<path fill="none" stroke="#191970" d="M353.8874,-484.9549C358.3969,-482.4423 362.5283,-479.3349 366,-475.5 436.9141,-397.1684 329.5105,-317.376 402,-240.5 406.5589,-235.6653 411.9782,-231.8535 417.8775,-228.8631"/>
<polygon fill="#191970" stroke="#191970" points="419.6337,-231.9211 427.4882,-224.8108 416.914,-225.471 419.6337,-231.9211"/>
</g>
<!-- Node22 -->
<g id="node23" class="node">
<title>Node22</title>
<g id="a_node23"><a xlink:href="classHamiltonianmatrix.html#a4069febf25da1723d9cc8e27cd2cd669" target="_top" xlink:title="Hamiltonianmatrix::\lnum_basisvectors">
<polygon fill="none" stroke="#000000" points="647.5,-169.5 647.5,-199.5 762.5,-199.5 762.5,-169.5 647.5,-169.5"/>
<text text-anchor="start" x="655.5" y="-187.5" font-family="Helvetica,sans-Serif" font-size="10.00" fill="#000000">Hamiltonianmatrix::</text>
<text text-anchor="middle" x="705" y="-176.5" font-family="Helvetica,sans-Serif" font-size="10.00" fill="#000000">num_basisvectors</text>
</a>
</g>
</g>
<!-- Node1&#45;&gt;Node22 -->
<g id="edge22" class="edge">
<title>Node1&#45;&gt;Node22</title>
<path fill="none" stroke="#191970" d="M354.3208,-484.8386C358.6766,-482.3436 362.6574,-479.2725 366,-475.5 447.4541,-383.5704 311.9721,-285.0512 402,-201.5 434.8936,-170.9728 558.1799,-173.5457 636.9924,-178.6843"/>
<polygon fill="#191970" stroke="#191970" points="637.1117,-182.2005 647.3268,-179.3892 637.5882,-175.2167 637.1117,-182.2005"/>
</g>
<!-- Node23 -->
<g id="node24" class="node">
<title>Node23</title>
<g id="a_node24"><a xlink:href="classHamiltonianmatrix.html#a1db6d20a1d88ef89f1acdad819af34ee" target="_top" xlink:title="Hamiltonianmatrix::\ldiagonalize">
<polygon fill="none" stroke="#000000" points="438,-121.5 438,-151.5 553,-151.5 553,-121.5 438,-121.5"/>
<text text-anchor="start" x="446" y="-139.5" font-family="Helvetica,sans-Serif" font-size="10.00" fill="#000000">Hamiltonianmatrix::</text>
<text text-anchor="middle" x="495.5" y="-128.5" font-family="Helvetica,sans-Serif" font-size="10.00" fill="#000000">diagonalize</text>
</a>
</g>
</g>
<!-- Node1&#45;&gt;Node23 -->
<g id="edge23" class="edge">
<title>Node1&#45;&gt;Node23</title>
<path fill="none" stroke="#191970" d="M354.3781,-484.8889C358.7215,-482.3831 362.6837,-479.2956 366,-475.5 456.3894,-372.0455 315.7356,-275.4184 402,-168.5 408.9286,-159.9125 418.277,-153.6201 428.392,-149.0117"/>
<polygon fill="#191970" stroke="#191970" points="429.8604,-152.1941 437.8494,-145.2353 427.2645,-145.6932 429.8604,-152.1941"/>
</g>
<!-- Node26 -->
<g id="node27" class="node">
<title>Node26</title>
<g id="a_node27"><a xlink:href="classHamiltonianmatrix.html#a9e77fcca733a19f250dd619799edc9e6" target="_top" xlink:title="Hamiltonianmatrix::save">
<polygon fill="none" stroke="#000000" points="426.5,-56 426.5,-75 564.5,-75 564.5,-56 426.5,-56"/>
<text text-anchor="middle" x="495.5" y="-63" font-family="Helvetica,sans-Serif" font-size="10.00" fill="#000000">Hamiltonianmatrix::save</text>
</a>
</g>
</g>
<!-- Node1&#45;&gt;Node26 -->
<g id="edge27" class="edge">
<title>Node1&#45;&gt;Node26</title>
<path fill="none" stroke="#191970" d="M354.4522,-484.9531C358.7795,-482.4333 362.7178,-479.3251 366,-475.5 418.7875,-413.981 356.0996,-179.3152 402,-112.5 412.85,-96.7061 430.63,-85.9485 447.7882,-78.7582"/>
<polygon fill="#191970" stroke="#191970" points="449.1403,-81.988 457.2086,-75.1212 446.6191,-75.4578 449.1403,-81.988"/>
</g>
<!-- Node13 -->
<g id="node14" class="node">
<title>Node13</title>
<g id="a_node14"><a xlink:href="classMatrixElements.html#a6b21945229b04895c8a2e896454df444" target="_top" xlink:title="MatrixElements::getMultipole">
<polygon fill="none" stroke="#000000" points="625,-441 625,-460 785,-460 785,-441 625,-441"/>
<text text-anchor="middle" x="705" y="-448" font-family="Helvetica,sans-Serif" font-size="10.00" fill="#000000">MatrixElements::getMultipole</text>
</a>
</g>
</g>
<!-- Node12&#45;&gt;Node13 -->
<g id="edge13" class="edge">
<title>Node12&#45;&gt;Node13</title>
<path fill="none" stroke="#191970" d="M571.1343,-450.5C585.3234,-450.5 600.2867,-450.5 614.8648,-450.5"/>
<polygon fill="#191970" stroke="#191970" points="614.8816,-454.0001 624.8816,-450.5 614.8815,-447.0001 614.8816,-454.0001"/>
</g>
<!-- Node19 -->
<g id="node20" class="node">
<title>Node19</title>
<g id="a_node20"><a xlink:href="classHamiltonianmatrix.html#a15bc9c823975f5395112432c5b8507db" target="_top" xlink:title="Hamiltonianmatrix::\ldoDeserialization">
<polygon fill="none" stroke="#000000" points="647.5,-218.5 647.5,-248.5 762.5,-248.5 762.5,-218.5 647.5,-218.5"/>
<text text-anchor="start" x="655.5" y="-236.5" font-family="Helvetica,sans-Serif" font-size="10.00" fill="#000000">Hamiltonianmatrix::</text>
<text text-anchor="middle" x="705" y="-225.5" font-family="Helvetica,sans-Serif" font-size="10.00" fill="#000000">doDeserialization</text>
</a>
</g>
</g>
<!-- Node18&#45;&gt;Node19 -->
<g id="edge19" class="edge">
<title>Node18&#45;&gt;Node19</title>
<path fill="none" stroke="#191970" d="M563.5186,-224.7207C587.0399,-226.1803 613.3903,-227.8154 636.9168,-229.2753"/>
<polygon fill="#191970" stroke="#191970" points="636.9598,-232.7846 647.1574,-229.9107 637.3934,-225.798 636.9598,-232.7846"/>
</g>
<!-- Node20 -->
<g id="node21" class="node">
<title>Node20</title>
<g id="a_node21"><a xlink:href="classSerializer.html#a26e560124d2dd1daa304ac8e878db630" target="_top" xlink:title="Serializer::load">
<polygon fill="none" stroke="#000000" points="834,-246 834,-265 923,-265 923,-246 834,-246"/>
<text text-anchor="middle" x="878.5" y="-253" font-family="Helvetica,sans-Serif" font-size="10.00" fill="#000000">Serializer::load</text>
</a>
</g>
</g>
<!-- Node19&#45;&gt;Node20 -->
<g id="edge20" class="edge">
<title>Node19&#45;&gt;Node20</title>
<path fill="none" stroke="#191970" d="M762.773,-240.8257C782.4999,-243.3271 804.4853,-246.1149 823.9502,-248.583"/>
<polygon fill="#191970" stroke="#191970" points="823.5132,-252.0555 833.874,-249.8414 824.3938,-245.1112 823.5132,-252.0555"/>
</g>
<!-- Node21 -->
<g id="node22" class="node">
<title>Node21</title>
<g id="a_node22"><a xlink:href="classHamiltonianmatrix.html#a37cc79dcec0f0d81265870a34517a225" target="_top" xlink:title="Hamiltonianmatrix::\lmergeComplex">
<polygon fill="none" stroke="#000000" points="821,-196.5 821,-226.5 936,-226.5 936,-196.5 821,-196.5"/>
<text text-anchor="start" x="829" y="-214.5" font-family="Helvetica,sans-Serif" font-size="10.00" fill="#000000">Hamiltonianmatrix::</text>
<text text-anchor="middle" x="878.5" y="-203.5" font-family="Helvetica,sans-Serif" font-size="10.00" fill="#000000">mergeComplex</text>
</a>
</g>
</g>
<!-- Node19&#45;&gt;Node21 -->
<g id="edge21" class="edge">
<title>Node19&#45;&gt;Node21</title>
<path fill="none" stroke="#191970" d="M762.773,-226.1743C778.1371,-224.2261 794.8712,-222.1042 810.7175,-220.0949"/>
<polygon fill="#191970" stroke="#191970" points="811.499,-223.5239 820.9793,-218.7937 810.6184,-216.5795 811.499,-223.5239"/>
</g>
<!-- Node23&#45;&gt;Node22 -->
<g id="edge26" class="edge">
<title>Node23&#45;&gt;Node22</title>
<path fill="none" stroke="#191970" d="M553.0239,-149.6797C579.1319,-155.6615 610.1903,-162.7775 637.4048,-169.0128"/>
<polygon fill="#191970" stroke="#191970" points="636.7118,-172.4446 647.2409,-171.2664 638.2752,-165.6214 636.7118,-172.4446"/>
</g>
<!-- Node24 -->
<g id="node25" class="node">
<title>Node24</title>
<g id="a_node25"><a xlink:href="classHamiltonianmatrix.html#ab0f42b034579983088548dd6dd4e1e78" target="_top" xlink:title="Hamiltonianmatrix::\lbasis">
<polygon fill="none" stroke="#000000" points="647.5,-120.5 647.5,-150.5 762.5,-150.5 762.5,-120.5 647.5,-120.5"/>
<text text-anchor="start" x="655.5" y="-138.5" font-family="Helvetica,sans-Serif" font-size="10.00" fill="#000000">Hamiltonianmatrix::</text>
<text text-anchor="middle" x="705" y="-127.5" font-family="Helvetica,sans-Serif" font-size="10.00" fill="#000000">basis</text>
</a>
</g>
</g>
<!-- Node23&#45;&gt;Node24 -->
<g id="edge24" class="edge">
<title>Node23&#45;&gt;Node24</title>
<path fill="none" stroke="#191970" d="M553.0239,-136.2254C579.0174,-136.1013 609.918,-135.9539 637.0465,-135.8244"/>
<polygon fill="#191970" stroke="#191970" points="637.2578,-139.3235 647.2409,-135.7757 637.2243,-132.3236 637.2578,-139.3235"/>
</g>
<!-- Node25 -->
<g id="node26" class="node">
<title>Node25</title>
<g id="a_node26"><a xlink:href="classHamiltonianmatrix.html#a9a6919d68a5f490c249adaaffd46fe75" target="_top" xlink:title="Hamiltonianmatrix::\lentries">
<polygon fill="none" stroke="#000000" points="647.5,-71.5 647.5,-101.5 762.5,-101.5 762.5,-71.5 647.5,-71.5"/>
<text text-anchor="start" x="655.5" y="-89.5" font-family="Helvetica,sans-Serif" font-size="10.00" fill="#000000">Hamiltonianmatrix::</text>
<text text-anchor="middle" x="705" y="-78.5" font-family="Helvetica,sans-Serif" font-size="10.00" fill="#000000">entries</text>
</a>
</g>
</g>
<!-- Node23&#45;&gt;Node25 -->
<g id="edge25" class="edge">
<title>Node23&#45;&gt;Node25</title>
<path fill="none" stroke="#191970" d="M553.0239,-122.7711C579.1319,-116.5401 610.1903,-109.1276 637.4048,-102.6325"/>
<polygon fill="#191970" stroke="#191970" points="638.3266,-106.0109 647.2409,-100.285 636.7016,-99.2021 638.3266,-106.0109"/>
</g>
<!-- Node27 -->
<g id="node28" class="node">
<title>Node27</title>
<g id="a_node28"><a xlink:href="classHamiltonianmatrix.html#aa8d50e3585a18628f4abbb5bcede4bbb" target="_top" xlink:title="Hamiltonianmatrix::\ldoSerialization">
<polygon fill="none" stroke="#000000" points="647.5,-22.5 647.5,-52.5 762.5,-52.5 762.5,-22.5 647.5,-22.5"/>
<text text-anchor="start" x="655.5" y="-40.5" font-family="Helvetica,sans-Serif" font-size="10.00" fill="#000000">Hamiltonianmatrix::</text>
<text text-anchor="middle" x="705" y="-29.5" font-family="Helvetica,sans-Serif" font-size="10.00" fill="#000000">doSerialization</text>
</a>
</g>
</g>
<!-- Node26&#45;&gt;Node27 -->
<g id="edge28" class="edge">
<title>Node26&#45;&gt;Node27</title>
<path fill="none" stroke="#191970" d="M564.6787,-56.2542C588.0385,-53.1321 614.0765,-49.6521 637.319,-46.5457"/>
<polygon fill="#191970" stroke="#191970" points="637.9878,-49.9875 647.436,-45.1935 637.0605,-43.0492 637.9878,-49.9875"/>
</g>
<!-- Node28 -->
<g id="node29" class="node">
<title>Node28</title>
<g id="a_node29"><a xlink:href="classSerializer.html#a79a572d0a14988acd13217beb7d5547b" target="_top" xlink:title="Serializer::save">
<polygon fill="none" stroke="#000000" points="832.5,-50 832.5,-69 924.5,-69 924.5,-50 832.5,-50"/>
<text text-anchor="middle" x="878.5" y="-57" font-family="Helvetica,sans-Serif" font-size="10.00" fill="#000000">Serializer::save</text>
</a>
</g>
</g>
<!-- Node27&#45;&gt;Node28 -->
<g id="edge29" class="edge">
<title>Node27&#45;&gt;Node28</title>
<path fill="none" stroke="#191970" d="M762.773,-44.8257C781.9916,-47.2626 803.3539,-49.9714 822.4407,-52.3916"/>
<polygon fill="#191970" stroke="#191970" points="822.1247,-55.8795 832.4856,-53.6653 823.0053,-48.9351 822.1247,-55.8795"/>
</g>
<!-- Node30 -->
<g id="node31" class="node">
<title>Node30</title>
<g id="a_node31"><a xlink:href="classHamiltonianmatrix.html#a035cf5188e89f3f4230beb502a718ea9" target="_top" xlink:title="Hamiltonianmatrix::\lsplitComplex">
<polygon fill="none" stroke="#000000" points="821,-.5 821,-30.5 936,-30.5 936,-.5 821,-.5"/>
<text text-anchor="start" x="829" y="-18.5" font-family="Helvetica,sans-Serif" font-size="10.00" fill="#000000">Hamiltonianmatrix::</text>
<text text-anchor="middle" x="878.5" y="-7.5" font-family="Helvetica,sans-Serif" font-size="10.00" fill="#000000">splitComplex</text>
</a>
</g>
</g>
<!-- Node27&#45;&gt;Node30 -->
<g id="edge31" class="edge">
<title>Node27&#45;&gt;Node30</title>
<path fill="none" stroke="#191970" d="M762.773,-30.1743C778.1371,-28.2261 794.8712,-26.1042 810.7175,-24.0949"/>
<polygon fill="#191970" stroke="#191970" points="811.499,-27.5239 820.9793,-22.7937 810.6184,-20.5795 811.499,-27.5239"/>
</g>
<!-- Node29 -->
<g id="node30" class="node">
<title>Node29</title>
<g id="a_node30"><a xlink:href="classSerializable.html#ad0b89a7563e6a98df7eb6a8a46c51735" target="_top" xlink:title="Serializable::serialize">
<polygon fill="none" stroke="#000000" points="972,-50 972,-69 1093,-69 1093,-50 972,-50"/>
<text text-anchor="middle" x="1032.5" y="-57" font-family="Helvetica,sans-Serif" font-size="10.00" fill="#000000">Serializable::serialize</text>
</a>
</g>
</g>
<!-- Node28&#45;&gt;Node29 -->
<g id="edge30" class="edge">
<title>Node28&#45;&gt;Node29</title>
<path fill="none" stroke="#191970" d="M924.7051,-59.5C936.3798,-59.5 949.1854,-59.5 961.7663,-59.5"/>
<polygon fill="#191970" stroke="#191970" points="961.782,-63.0001 971.7819,-59.5 961.7819,-56.0001 961.782,-63.0001"/>
</g>
</g>
</svg>
