<?xml version="1.0" encoding="UTF-8" standalone="no"?>
<!DOCTYPE svg PUBLIC "-//W3C//DTD SVG 1.1//EN"
 "http://www.w3.org/Graphics/SVG/1.1/DTD/svg11.dtd">
<!-- Generated by graphviz version 2.40.1 (20161225.0304)
 -->
<!-- Title: Hamiltonianmatrix::entries Pages: 1 -->
<svg width="674pt" height="165pt"
 viewBox="0.00 0.00 674.00 165.00" xmlns="http://www.w3.org/2000/svg" xmlns:xlink="http://www.w3.org/1999/xlink">
<g id="graph0" class="graph" transform="scale(1 1) rotate(0) translate(4 161)">
<title>Hamiltonianmatrix::entries</title>
<!-- Node95 -->
<g id="node1" class="node">
<title>Node95</title>
<polygon fill="#bfbfbf" stroke="#000000" points="0,-63.5 0,-93.5 115,-93.5 115,-63.5 0,-63.5"/>
<text text-anchor="start" x="8" y="-81.5" font-family="Helvetica,sans-Serif" font-size="10.00" fill="#000000">Hamiltonianmatrix::</text>
<text text-anchor="middle" x="57.5" y="-70.5" font-family="Helvetica,sans-Serif" font-size="10.00" fill="#000000">entries</text>
</g>
<!-- Node96 -->
<g id="node2" class="node">
<title>Node96</title>
<g id="a_node2"><a xlink:href="classHamiltonianmatrix.html#a310f8a7bc796d0b431928b82f2d11285" target="_top" xlink:title="Hamiltonianmatrix::\lchangeBasis">
<polygon fill="none" stroke="#000000" points="151,-126.5 151,-156.5 266,-156.5 266,-126.5 151,-126.5"/>
<text text-anchor="start" x="159" y="-144.5" font-family="Helvetica,sans-Serif" font-size="10.00" fill="#000000">Hamiltonianmatrix::</text>
<text text-anchor="middle" x="208.5" y="-133.5" font-family="Helvetica,sans-Serif" font-size="10.00" fill="#000000">changeBasis</text>
</a>
</g>
</g>
<!-- Node95&#45;&gt;Node96 -->
<g id="edge1" class="edge">
<title>Node95&#45;&gt;Node96</title>
<path fill="none" stroke="#191970" d="M102.9118,-97.4467C125.1406,-106.7209 151.5296,-117.7309 172.3655,-126.424"/>
<polygon fill="#191970" stroke="#191970" points="104.2449,-94.2105 93.6683,-93.5901 101.5495,-100.6708 104.2449,-94.2105"/>
</g>
<!-- Node99 -->
<g id="node5" class="node">
<title>Node99</title>
<g id="a_node5"><a xlink:href="Hamiltonianmatrix_8cpp.html#ae139c21d132020dde7c86db8efc751e1" target="_top" xlink:title="combine">
<polygon fill="none" stroke="#000000" points="179,-88 179,-107 238,-107 238,-88 179,-88"/>
<text text-anchor="middle" x="208.5" y="-95" font-family="Helvetica,sans-Serif" font-size="10.00" fill="#000000">combine</text>
</a>
</g>
</g>
<!-- Node95&#45;&gt;Node99 -->
<g id="edge4" class="edge">
<title>Node95&#45;&gt;Node99</title>
<path fill="none" stroke="#191970" d="M125.0399,-86.9984C143.7984,-89.3587 163.2198,-91.8025 178.6024,-93.7381"/>
<polygon fill="#191970" stroke="#191970" points="125.3761,-83.5132 115.0174,-85.7373 124.5022,-90.4584 125.3761,-83.5132"/>
</g>
<!-- Node100 -->
<g id="node6" class="node">
<title>Node100</title>
<g id="a_node6"><a xlink:href="classHamiltonianmatrix.html#a1db6d20a1d88ef89f1acdad819af34ee" target="_top" xlink:title="Hamiltonianmatrix::\ldiagonalize">
<polygon fill="none" stroke="#000000" points="151,-.5 151,-30.5 266,-30.5 266,-.5 151,-.5"/>
<text text-anchor="start" x="159" y="-18.5" font-family="Helvetica,sans-Serif" font-size="10.00" fill="#000000">Hamiltonianmatrix::</text>
<text text-anchor="middle" x="208.5" y="-7.5" font-family="Helvetica,sans-Serif" font-size="10.00" fill="#000000">diagonalize</text>
</a>
</g>
</g>
<!-- Node95&#45;&gt;Node100 -->
<g id="edge6" class="edge">
<title>Node95&#45;&gt;Node100</title>
<path fill="none" stroke="#191970" d="M102.9118,-59.5533C125.1406,-50.2791 151.5296,-39.2691 172.3655,-30.576"/>
<polygon fill="#191970" stroke="#191970" points="101.5495,-56.3292 93.6683,-63.4099 104.2449,-62.7895 101.5495,-56.3292"/>
</g>
<!-- Node103 -->
<g id="node9" class="node">
<title>Node103</title>
<g id="a_node9"><a xlink:href="Hamiltonianmatrix_8cpp.html#a678b50f9b12e7a3fa69970554dd5d206" target="_top" xlink:title="energycutoff">
<polygon fill="none" stroke="#000000" points="169,-50 169,-69 248,-69 248,-50 169,-50"/>
<text text-anchor="middle" x="208.5" y="-57" font-family="Helvetica,sans-Serif" font-size="10.00" fill="#000000">energycutoff</text>
</a>
</g>
</g>
<!-- Node95&#45;&gt;Node103 -->
<g id="edge10" class="edge">
<title>Node95&#45;&gt;Node103</title>
<path fill="none" stroke="#191970" d="M125.2673,-69.973C140.2092,-68.0929 155.5593,-66.1614 168.9437,-64.4773"/>
<polygon fill="#191970" stroke="#191970" points="124.5022,-66.5416 115.0174,-71.2627 125.3761,-73.4868 124.5022,-66.5416"/>
</g>
<!-- Node97 -->
<g id="node3" class="node">
<title>Node97</title>
<g id="a_node3"><a xlink:href="classHamiltonianTwo.html#a6ca0a318f25170b69e571a07064a5afb" target="_top" xlink:title="HamiltonianTwo::calculate">
<polygon fill="none" stroke="#000000" points="302,-69 302,-88 448,-88 448,-69 302,-69"/>
<text text-anchor="middle" x="375" y="-76" font-family="Helvetica,sans-Serif" font-size="10.00" fill="#000000">HamiltonianTwo::calculate</text>
</a>
</g>
</g>
<!-- Node96&#45;&gt;Node97 -->
<g id="edge2" class="edge">
<title>Node96&#45;&gt;Node97</title>
<path fill="none" stroke="#191970" d="M257.87,-122.8195C287.9441,-111.4401 325.1305,-97.3695 349.4274,-88.1761"/>
<polygon fill="#191970" stroke="#191970" points="256.4951,-119.5974 248.3809,-126.4099 258.9724,-126.1444 256.4951,-119.5974"/>
</g>
<!-- Node98 -->
<g id="node4" class="node">
<title>Node98</title>
<g id="a_node4"><a xlink:href="classHamiltonianTwo.html#abd374713c9b38f72265c7fe496c42b96" target="_top" xlink:title="HamiltonianTwo::HamiltonianTwo">
<polygon fill="none" stroke="#000000" points="485,-69 485,-88 665,-88 665,-69 485,-69"/>
<text text-anchor="middle" x="575" y="-76" font-family="Helvetica,sans-Serif" font-size="10.00" fill="#000000">HamiltonianTwo::HamiltonianTwo</text>
</a>
</g>
</g>
<!-- Node97&#45;&gt;Node98 -->
<g id="edge3" class="edge">
<title>Node97&#45;&gt;Node98</title>
<path fill="none" stroke="#191970" d="M458.2425,-78.5C467.0053,-78.5 475.9449,-78.5 484.7816,-78.5"/>
<polygon fill="#191970" stroke="#191970" points="458.0536,-75.0001 448.0536,-78.5 458.0535,-82.0001 458.0536,-75.0001"/>
</g>
<!-- Node99&#45;&gt;Node97 -->
<g id="edge5" class="edge">
<title>Node99&#45;&gt;Node97</title>
<path fill="none" stroke="#191970" d="M248.3549,-92.952C264.4204,-91.1187 283.4787,-88.9439 301.8685,-86.8453"/>
<polygon fill="#191970" stroke="#191970" points="247.8055,-89.4919 238.2669,-94.1032 248.5992,-96.4467 247.8055,-89.4919"/>
</g>
<!-- Node100&#45;&gt;Node97 -->
<g id="edge9" class="edge">
<title>Node100&#45;&gt;Node97</title>
<path fill="none" stroke="#191970" d="M257.87,-34.1805C287.9441,-45.5599 325.1305,-59.6305 349.4274,-68.8239"/>
<polygon fill="#191970" stroke="#191970" points="258.9724,-30.8556 248.3809,-30.5901 256.4951,-37.4026 258.9724,-30.8556"/>
</g>
<!-- Node101 -->
<g id="node7" class="node">
<title>Node101</title>
<g id="a_node7"><a xlink:href="classHamiltonianOne.html#a9cb71dcb34ab9f0779c0bd66b758185e" target="_top" xlink:title="HamiltonianOne::build">
<polygon fill="none" stroke="#000000" points="312,-6 312,-25 438,-25 438,-6 312,-6"/>
<text text-anchor="middle" x="375" y="-13" font-family="Helvetica,sans-Serif" font-size="10.00" fill="#000000">HamiltonianOne::build</text>
</a>
</g>
</g>
<!-- Node100&#45;&gt;Node101 -->
<g id="edge7" class="edge">
<title>Node100&#45;&gt;Node101</title>
<path fill="none" stroke="#191970" d="M276.4463,-15.5C288.1815,-15.5 300.3368,-15.5 311.9357,-15.5"/>
<polygon fill="#191970" stroke="#191970" points="276.2664,-12.0001 266.2663,-15.5 276.2663,-19.0001 276.2664,-12.0001"/>
</g>
<!-- Node102 -->
<g id="node8" class="node">
<title>Node102</title>
<g id="a_node8"><a xlink:href="classHamiltonianOne.html#ad3ba2d70879a60c9f065b5a2545dfe36" target="_top" xlink:title="HamiltonianOne::HamiltonianOne">
<polygon fill="none" stroke="#000000" points="484,-6 484,-25 666,-25 666,-6 484,-6"/>
<text text-anchor="middle" x="575" y="-13" font-family="Helvetica,sans-Serif" font-size="10.00" fill="#000000">HamiltonianOne::HamiltonianOne</text>
</a>
</g>
</g>
<!-- Node101&#45;&gt;Node102 -->
<g id="edge8" class="edge">
<title>Node101&#45;&gt;Node102</title>
<path fill="none" stroke="#191970" d="M448.0601,-15.5C459.6733,-15.5 471.8104,-15.5 483.7784,-15.5"/>
<polygon fill="#191970" stroke="#191970" points="448.0068,-12.0001 438.0067,-15.5 448.0067,-19.0001 448.0068,-12.0001"/>
</g>
<!-- Node103&#45;&gt;Node97 -->
<g id="edge11" class="edge">
<title>Node103&#45;&gt;Node97</title>
<path fill="none" stroke="#191970" d="M258.5108,-65.2069C272.1613,-66.7647 287.2385,-68.4852 301.8902,-70.1571"/>
<polygon fill="#191970" stroke="#191970" points="258.7133,-61.7074 248.3809,-64.051 257.9196,-68.6623 258.7133,-61.7074"/>
</g>
</g>
</svg>
