<?xml version="1.0" encoding="UTF-8" standalone="no"?>
<!DOCTYPE svg PUBLIC "-//W3C//DTD SVG 1.1//EN"
 "http://www.w3.org/Graphics/SVG/1.1/DTD/svg11.dtd">
<!-- Generated by graphviz version 2.40.1 (20161225.0304)
 -->
<!-- Title: sqlite::statement::get Pages: 1 -->
<svg width="343pt" height="154pt"
 viewBox="0.00 0.00 343.00 154.00" xmlns="http://www.w3.org/2000/svg" xmlns:xlink="http://www.w3.org/1999/xlink">
<g id="graph0" class="graph" transform="scale(1 1) rotate(0) translate(4 150)">
<title>sqlite::statement::get</title>
<!-- Node25 -->
<g id="node1" class="node">
<title>Node25</title>
<polygon fill="#bfbfbf" stroke="#000000" points="0,-66.5 0,-85.5 122,-85.5 122,-66.5 0,-66.5"/>
<text text-anchor="middle" x="61" y="-73.5" font-family="Helvetica,sans-Serif" font-size="10.00" fill="#000000">sqlite::statement::get</text>
</g>
<!-- Node26 -->
<g id="node2" class="node">
<title>Node26</title>
<g id="a_node2"><a xlink:href="quantum__defect__test_8cpp.html#aa6d045e9def139cd75c41b225e83676e" target="_top" xlink:title="BOOST_AUTO_TEST_CASE">
<polygon fill="none" stroke="#000000" points="175,-126.5 175,-145.5 318,-145.5 318,-126.5 175,-126.5"/>
<text text-anchor="middle" x="246.5" y="-133.5" font-family="Helvetica,sans-Serif" font-size="10.00" fill="#000000">BOOST_AUTO_TEST_CASE</text>
</a>
</g>
</g>
<!-- Node25&#45;&gt;Node26 -->
<g id="edge1" class="edge">
<title>Node25&#45;&gt;Node26</title>
<path fill="none" stroke="#191970" d="M89.9421,-89.9297C108.9472,-98.6502 134.5415,-109.5969 158,-117 169.5393,-120.6416 182.1436,-123.8115 194.1281,-126.464"/>
<polygon fill="#191970" stroke="#191970" points="91.1933,-86.6515 80.6505,-85.6029 88.2383,-92.9972 91.1933,-86.6515"/>
</g>
<!-- Node27 -->
<g id="node3" class="node">
<title>Node27</title>
<g id="a_node3"><a xlink:href="classMatrixElements.html#a0bd2d4229fab692eb6b774fbff09cf83" target="_top" xlink:title="MatrixElements::getRadial">
<polygon fill="none" stroke="#000000" points="173.5,-88.5 173.5,-107.5 319.5,-107.5 319.5,-88.5 173.5,-88.5"/>
<text text-anchor="middle" x="246.5" y="-95.5" font-family="Helvetica,sans-Serif" font-size="10.00" fill="#000000">MatrixElements::getRadial</text>
</a>
</g>
</g>
<!-- Node25&#45;&gt;Node27 -->
<g id="edge2" class="edge">
<title>Node25&#45;&gt;Node27</title>
<path fill="none" stroke="#191970" d="M132.385,-84.4661C145.8211,-86.0596 159.8897,-87.7282 173.3779,-89.3278"/>
<polygon fill="#191970" stroke="#191970" points="132.5964,-80.9668 122.2537,-83.2646 131.7719,-87.9181 132.5964,-80.9668"/>
</g>
<!-- Node28 -->
<g id="node4" class="node">
<title>Node28</title>
<g id="a_node4"><a xlink:href="classMatrixElements.html#a3b28f19f9e89e549def8c8030b695489" target="_top" xlink:title="MatrixElements::precalculate\lDiamagnetism">
<polygon fill="none" stroke="#000000" points="167,-39 167,-69 326,-69 326,-39 167,-39"/>
<text text-anchor="start" x="175" y="-57" font-family="Helvetica,sans-Serif" font-size="10.00" fill="#000000">MatrixElements::precalculate</text>
<text text-anchor="middle" x="246.5" y="-46" font-family="Helvetica,sans-Serif" font-size="10.00" fill="#000000">Diamagnetism</text>
</a>
</g>
</g>
<!-- Node25&#45;&gt;Node28 -->
<g id="edge3" class="edge">
<title>Node25&#45;&gt;Node28</title>
<path fill="none" stroke="#191970" d="M132.436,-67.5278C143.6808,-66.1942 155.3675,-64.8082 166.7853,-63.454"/>
<polygon fill="#191970" stroke="#191970" points="131.7719,-64.0819 122.2537,-68.7354 132.5964,-71.0332 131.7719,-64.0819"/>
</g>
<!-- Node29 -->
<g id="node5" class="node">
<title>Node29</title>
<g id="a_node5"><a xlink:href="classQuantumDefect.html#ae35ddcbfdf6d217950469549c60743d2" target="_top" xlink:title="QuantumDefect::QuantumDefect">
<polygon fill="none" stroke="#000000" points="158,-.5 158,-19.5 335,-19.5 335,-.5 158,-.5"/>
<text text-anchor="middle" x="246.5" y="-7.5" font-family="Helvetica,sans-Serif" font-size="10.00" fill="#000000">QuantumDefect::QuantumDefect</text>
</a>
</g>
</g>
<!-- Node25&#45;&gt;Node29 -->
<g id="edge4" class="edge">
<title>Node25&#45;&gt;Node29</title>
<path fill="none" stroke="#191970" d="M87.3861,-61.5352C106.5253,-51.5316 133.284,-38.5359 158,-30 169.9113,-25.8863 183.0206,-22.3905 195.4159,-19.5282"/>
<polygon fill="#191970" stroke="#191970" points="85.5762,-58.5333 78.3844,-66.3133 88.8582,-64.7162 85.5762,-58.5333"/>
</g>
</g>
</svg>
