<?xml version="1.0" encoding="UTF-8" standalone="no"?>
<!DOCTYPE svg PUBLIC "-//W3C//DTD SVG 1.1//EN"
 "http://www.w3.org/Graphics/SVG/1.1/DTD/svg11.dtd">
<!-- Generated by graphviz version 2.40.1 (20161225.0304)
 -->
<!-- Title: HamiltonianOne Pages: 1 -->
<svg width="588pt" height="165pt"
 viewBox="0.00 0.00 588.00 165.00" xmlns="http://www.w3.org/2000/svg" xmlns:xlink="http://www.w3.org/1999/xlink">
<g id="graph0" class="graph" transform="scale(1 1) rotate(0) translate(4 161)">
<title>HamiltonianOne</title>
<!-- Node2 -->
<g id="node1" class="node">
<title>Node2</title>
<polygon fill="#bfbfbf" stroke="#000000" points="484,-69 484,-88 580,-88 580,-69 484,-69"/>
<text text-anchor="middle" x="532" y="-76" font-family="Helvetica,sans-Serif" font-size="10.00" fill="#000000">HamiltonianOne</text>
</g>
<!-- Node3 -->
<g id="node2" class="node">
<title>Node3</title>
<g id="a_node2"><a xlink:href="classHamiltonian.html" target="_top" xlink:title="Hamiltonian\&lt; BasisnamesOne \&gt;">
<polygon fill="none" stroke="#000000" points="269,-69 269,-88 447,-88 447,-69 269,-69"/>
<text text-anchor="middle" x="358" y="-76" font-family="Helvetica,sans-Serif" font-size="10.00" fill="#000000">Hamiltonian&lt; BasisnamesOne &gt;</text>
</a>
</g>
</g>
<!-- Node3&#45;&gt;Node2 -->
<g id="edge1" class="edge">
<title>Node3&#45;&gt;Node2</title>
<path fill="none" stroke="#191970" d="M457.1339,-78.5C466.3883,-78.5 475.4559,-78.5 483.9066,-78.5"/>
<polygon fill="#191970" stroke="#191970" points="457.0389,-75.0001 447.0389,-78.5 457.0389,-82.0001 457.0389,-75.0001"/>
</g>
<!-- Node4 -->
<g id="node3" class="node">
<title>Node4</title>
<polygon fill="none" stroke="#bfbfbf" points="17.5,-126.5 17.5,-156.5 152.5,-156.5 152.5,-126.5 17.5,-126.5"/>
<text text-anchor="start" x="25.5" y="-144.5" font-family="Helvetica,sans-Serif" font-size="10.00" fill="#000000">vector&lt; std::shared</text>
<text text-anchor="middle" x="85" y="-133.5" font-family="Helvetica,sans-Serif" font-size="10.00" fill="#000000">_ptr&lt; Configuration &gt; &gt;</text>
</g>
<!-- Node4&#45;&gt;Node3 -->
<g id="edge2" class="edge">
<title>Node4&#45;&gt;Node3</title>
<path fill="none" stroke="#9a32cd" stroke-dasharray="5,2" d="M162.6012,-124.5244C190.4994,-118.3367 222.1869,-111.2111 251,-104.5 273.7147,-99.2093 299.0804,-93.0564 319.4116,-88.0647"/>
<polygon fill="#9a32cd" stroke="#9a32cd" points="161.5138,-121.1803 152.5067,-126.7591 163.0268,-128.0148 161.5138,-121.1803"/>
<text text-anchor="middle" x="219.5" y="-120.5" font-family="Helvetica,sans-Serif" font-size="10.00" fill="#000000"> params</text>
</g>
<!-- Node5 -->
<g id="node4" class="node">
<title>Node5</title>
<polygon fill="none" stroke="#bfbfbf" points="25.5,-88 25.5,-107 144.5,-107 144.5,-88 25.5,-88"/>
<text text-anchor="middle" x="85" y="-95" font-family="Helvetica,sans-Serif" font-size="10.00" fill="#000000">vector&lt; std::string &gt;</text>
</g>
<!-- Node5&#45;&gt;Node3 -->
<g id="edge3" class="edge">
<title>Node5&#45;&gt;Node3</title>
<path fill="none" stroke="#9a32cd" stroke-dasharray="5,2" d="M154.634,-92.6537C189.4071,-90.2336 231.869,-87.2784 268.9814,-84.6954"/>
<polygon fill="#9a32cd" stroke="#9a32cd" points="154.3065,-89.1679 144.5737,-93.3538 154.7926,-96.151 154.3065,-89.1679"/>
<text text-anchor="middle" x="219.5" y="-92.5" font-family="Helvetica,sans-Serif" font-size="10.00" fill="#000000"> matrix_path</text>
</g>
<!-- Node6 -->
<g id="node5" class="node">
<title>Node6</title>
<g id="a_node5"><a xlink:href="classstd_1_1shared__ptr_3_01BasisnamesOne_01_4.html" target="_top" xlink:title="shared_ptr\&lt; BasisnamesOne \&gt;">
<polygon fill="none" stroke="#000000" points="0,-50 0,-69 170,-69 170,-50 0,-50"/>
<text text-anchor="middle" x="85" y="-57" font-family="Helvetica,sans-Serif" font-size="10.00" fill="#000000">shared_ptr&lt; BasisnamesOne &gt;</text>
</a>
</g>
</g>
<!-- Node6&#45;&gt;Node3 -->
<g id="edge4" class="edge">
<title>Node6&#45;&gt;Node3</title>
<path fill="none" stroke="#9a32cd" stroke-dasharray="5,2" d="M180.4545,-65.6865C203.5506,-67.2218 228.1616,-68.8896 251,-70.5 256.8534,-70.9127 262.8863,-71.345 268.966,-71.7858"/>
<polygon fill="#9a32cd" stroke="#9a32cd" points="180.5209,-62.1834 170.3113,-65.0143 180.0579,-69.168 180.5209,-62.1834"/>
<text text-anchor="middle" x="219.5" y="-73.5" font-family="Helvetica,sans-Serif" font-size="10.00" fill="#000000"> basis</text>
</g>
<!-- Node7 -->
<g id="node6" class="node">
<title>Node7</title>
<polygon fill="none" stroke="#bfbfbf" points="4.5,-.5 4.5,-30.5 165.5,-30.5 165.5,-.5 4.5,-.5"/>
<text text-anchor="start" x="12.5" y="-18.5" font-family="Helvetica,sans-Serif" font-size="10.00" fill="#000000">vector&lt; std::shared</text>
<text text-anchor="middle" x="85" y="-7.5" font-family="Helvetica,sans-Serif" font-size="10.00" fill="#000000">_ptr&lt; Hamiltonianmatrix &gt; &gt;</text>
</g>
<!-- Node7&#45;&gt;Node3 -->
<g id="edge5" class="edge">
<title>Node7&#45;&gt;Node3</title>
<path fill="none" stroke="#9a32cd" stroke-dasharray="5,2" d="M169.8151,-32.5618C195.9132,-38.0322 224.6927,-44.2884 251,-50.5 275.2944,-56.2364 302.5073,-63.3672 323.4097,-68.997"/>
<polygon fill="#9a32cd" stroke="#9a32cd" points="170.4588,-29.1208 159.9548,-30.5054 169.0296,-35.9734 170.4588,-29.1208"/>
<text text-anchor="middle" x="219.5" y="-53.5" font-family="Helvetica,sans-Serif" font-size="10.00" fill="#000000"> matrix_diag</text>
</g>
</g>
</svg>
