<?xml version="1.0" encoding="UTF-8" standalone="no"?>
<!DOCTYPE svg PUBLIC "-//W3C//DTD SVG 1.1//EN"
 "http://www.w3.org/Graphics/SVG/1.1/DTD/svg11.dtd">
<!-- Generated by graphviz version 2.40.1 (20161225.0304)
 -->
<!-- Title: SystemBase::buildBasis Pages: 1 -->
<svg width="311pt" height="88pt"
 viewBox="0.00 0.00 311.00 88.00" xmlns="http://www.w3.org/2000/svg" xmlns:xlink="http://www.w3.org/1999/xlink">
<g id="graph0" class="graph" transform="scale(1 1) rotate(0) translate(4 84)">
<title>SystemBase::buildBasis</title>
<!-- Node27 -->
<g id="node1" class="node">
<title>Node27</title>
<polygon fill="#bfbfbf" stroke="#000000" points="0,-30 0,-49 134,-49 134,-30 0,-30"/>
<text text-anchor="middle" x="67" y="-37" font-family="Helvetica,sans-Serif" font-size="10.00" fill="#000000">SystemBase::buildBasis</text>
</g>
<!-- Node28 -->
<g id="node2" class="node">
<title>Node28</title>
<g id="a_node2"><a xlink:href="classSystemBase.html#a321c8c5c9f833cf60322f82219af5d8b" target="_top" xlink:title="SystemBase\&lt; StateTwo\l \&gt;::add">
<polygon fill="none" stroke="#000000" points="170,-49.5 170,-79.5 303,-79.5 303,-49.5 170,-49.5"/>
<text text-anchor="start" x="178" y="-67.5" font-family="Helvetica,sans-Serif" font-size="10.00" fill="#000000">SystemBase&lt; StateTwo</text>
<text text-anchor="middle" x="236.5" y="-56.5" font-family="Helvetica,sans-Serif" font-size="10.00" fill="#000000"> &gt;::add</text>
</a>
</g>
</g>
<!-- Node27&#45;&gt;Node28 -->
<g id="edge1" class="edge">
<title>Node27&#45;&gt;Node28</title>
<path fill="none" stroke="#191970" d="M141.6644,-50.5125C151.0536,-51.8973 160.6102,-53.3068 169.8645,-54.6718"/>
<polygon fill="#191970" stroke="#191970" points="141.9679,-47.0194 131.5642,-49.0227 140.9465,-53.9445 141.9679,-47.0194"/>
</g>
<!-- Node29 -->
<g id="node3" class="node">
<title>Node29</title>
<g id="a_node3"><a xlink:href="classSystemBase.html#afc1a0861e007cd01041f591667e62bae" target="_top" xlink:title="SystemBase\&lt; StateTwo\l \&gt;::getConnections">
<polygon fill="none" stroke="#000000" points="170,-.5 170,-30.5 303,-30.5 303,-.5 170,-.5"/>
<text text-anchor="start" x="178" y="-18.5" font-family="Helvetica,sans-Serif" font-size="10.00" fill="#000000">SystemBase&lt; StateTwo</text>
<text text-anchor="middle" x="236.5" y="-7.5" font-family="Helvetica,sans-Serif" font-size="10.00" fill="#000000"> &gt;::getConnections</text>
</a>
</g>
</g>
<!-- Node27&#45;&gt;Node29 -->
<g id="edge2" class="edge">
<title>Node27&#45;&gt;Node29</title>
<path fill="none" stroke="#191970" d="M144.3797,-28.5436C152.871,-27.3413 161.4618,-26.1249 169.8075,-24.9432"/>
<polygon fill="#191970" stroke="#191970" points="143.8885,-25.0781 134.4779,-29.9456 144.8699,-32.009 143.8885,-25.0781"/>
</g>
</g>
</svg>
