<?xml version="1.0" encoding="UTF-8" standalone="no"?>
<!DOCTYPE svg PUBLIC "-//W3C//DTD SVG 1.1//EN"
 "http://www.w3.org/Graphics/SVG/1.1/DTD/svg11.dtd">
<!-- Generated by graphviz version 2.40.1 (20161225.0304)
 -->
<!-- Title: SystemOne::incorporate Pages: 1 -->
<svg width="497pt" height="306pt"
 viewBox="0.00 0.00 497.00 305.50" xmlns="http://www.w3.org/2000/svg" xmlns:xlink="http://www.w3.org/1999/xlink">
<g id="graph0" class="graph" transform="scale(1 1) rotate(0) translate(4 301.5)">
<title>SystemOne::incorporate</title>
<!-- Node17 -->
<g id="node1" class="node">
<title>Node17</title>
<polygon fill="#bfbfbf" stroke="#000000" points="0,-171.5 0,-190.5 134,-190.5 134,-171.5 0,-171.5"/>
<text text-anchor="middle" x="67" y="-178.5" font-family="Helvetica,sans-Serif" font-size="10.00" fill="#000000">SystemOne::incorporate</text>
</g>
<!-- Node18 -->
<g id="node2" class="node">
<title>Node18</title>
<g id="a_node2"><a xlink:href="classSystemBase.html#ac6c7aec328da15fc8fbc769f8adcc00c" target="_top" xlink:title="SystemBase\&lt; StateOne\l \&gt;::buildRotator">
<polygon fill="none" stroke="#000000" points="184,-267 184,-297 318,-297 318,-267 184,-267"/>
<text text-anchor="start" x="192" y="-285" font-family="Helvetica,sans-Serif" font-size="10.00" fill="#000000">SystemBase&lt; StateOne</text>
<text text-anchor="middle" x="251" y="-274" font-family="Helvetica,sans-Serif" font-size="10.00" fill="#000000"> &gt;::buildRotator</text>
</a>
</g>
</g>
<!-- Node17&#45;&gt;Node18 -->
<g id="edge1" class="edge">
<title>Node17&#45;&gt;Node18</title>
<path fill="none" stroke="#191970" d="M77.3293,-190.5055C95.0431,-206.3516 132.9028,-238.2711 170,-257 174.4832,-259.2634 179.2105,-261.3676 184.0372,-263.3148"/>
<polygon fill="#191970" stroke="#191970" points="182.8122,-266.5935 193.4035,-266.8666 185.2942,-260.0482 182.8122,-266.5935"/>
</g>
<!-- Node19 -->
<g id="node3" class="node">
<title>Node19</title>
<g id="a_node3"><a xlink:href="classSystemOne.html#afc8ac50c2aa657faad408898f7c24661" target="_top" xlink:title="Method that allows base class to delete the interaction ////////. ">
<polygon fill="none" stroke="#000000" points="170,-228.5 170,-247.5 332,-247.5 332,-228.5 170,-228.5"/>
<text text-anchor="middle" x="251" y="-235.5" font-family="Helvetica,sans-Serif" font-size="10.00" fill="#000000">SystemOne::deleteInteraction</text>
</a>
</g>
</g>
<!-- Node17&#45;&gt;Node19 -->
<g id="edge2" class="edge">
<title>Node17&#45;&gt;Node19</title>
<path fill="none" stroke="#191970" d="M96.2482,-190.5597C116.8355,-197.2423 145.058,-206.3103 170,-214 182.4971,-217.8529 196.1149,-221.9333 208.5568,-225.6154"/>
<polygon fill="#191970" stroke="#191970" points="207.6573,-228.9991 218.239,-228.471 209.6376,-222.285 207.6573,-228.9991"/>
</g>
<!-- Node20 -->
<g id="node4" class="node">
<title>Node20</title>
<g id="a_node4"><a xlink:href="classStateOne.html#aedba5bfce70f73fa324b9d5ae1115578" target="_top" xlink:title="StateOne::getJ">
<polygon fill="none" stroke="#000000" points="385.5,-190.5 385.5,-209.5 471.5,-209.5 471.5,-190.5 385.5,-190.5"/>
<text text-anchor="middle" x="428.5" y="-197.5" font-family="Helvetica,sans-Serif" font-size="10.00" fill="#000000">StateOne::getJ</text>
</a>
</g>
</g>
<!-- Node17&#45;&gt;Node20 -->
<g id="edge3" class="edge">
<title>Node17&#45;&gt;Node20</title>
<path fill="none" stroke="#191970" d="M134.1482,-184.5292C203.682,-188.1838 310.9361,-193.821 374.9726,-197.1867"/>
<polygon fill="#191970" stroke="#191970" points="375.0817,-200.6971 385.2516,-197.7269 375.4491,-193.7068 375.0817,-200.6971"/>
</g>
<!-- Node21 -->
<g id="node5" class="node">
<title>Node21</title>
<g id="a_node5"><a xlink:href="classStateOne.html#a3783cebe5bbd63f072caf8450fea4aca" target="_top" xlink:title="StateOne::getL">
<polygon fill="none" stroke="#000000" points="384,-152.5 384,-171.5 473,-171.5 473,-152.5 384,-152.5"/>
<text text-anchor="middle" x="428.5" y="-159.5" font-family="Helvetica,sans-Serif" font-size="10.00" fill="#000000">StateOne::getL</text>
</a>
</g>
</g>
<!-- Node17&#45;&gt;Node21 -->
<g id="edge4" class="edge">
<title>Node17&#45;&gt;Node21</title>
<path fill="none" stroke="#191970" d="M134.1482,-177.4708C203.1984,-173.8416 309.4462,-168.2573 373.6305,-164.8839"/>
<polygon fill="#191970" stroke="#191970" points="374.1426,-168.3619 383.9451,-164.3418 373.7752,-161.3715 374.1426,-168.3619"/>
</g>
<!-- Node22 -->
<g id="node6" class="node">
<title>Node22</title>
<g id="a_node6"><a xlink:href="classStateOne.html#aab2b41262381d67893113ed6f5ad18bc" target="_top" xlink:title="StateOne::getM">
<polygon fill="none" stroke="#000000" points="382.5,-.5 382.5,-19.5 474.5,-19.5 474.5,-.5 382.5,-.5"/>
<text text-anchor="middle" x="428.5" y="-7.5" font-family="Helvetica,sans-Serif" font-size="10.00" fill="#000000">StateOne::getM</text>
</a>
</g>
</g>
<!-- Node17&#45;&gt;Node22 -->
<g id="edge5" class="edge">
<title>Node17&#45;&gt;Node22</title>
<path fill="none" stroke="#191970" d="M78.0528,-171.2624C96.2092,-155.6446 133.9421,-124.7497 170,-105 240.3217,-66.4833 329.4345,-37.6638 382.546,-22.3643"/>
<polygon fill="#191970" stroke="#191970" points="383.6905,-25.6777 392.3517,-19.5757 381.7757,-18.9447 383.6905,-25.6777"/>
</g>
<!-- Node23 -->
<g id="node7" class="node">
<title>Node23</title>
<g id="a_node7"><a xlink:href="classStateOne.html#a0b5646c4160083ef4b24460e9159ad2c" target="_top" xlink:title="StateOne::getReflected">
<polygon fill="none" stroke="#000000" points="186,-114.5 186,-133.5 316,-133.5 316,-114.5 186,-114.5"/>
<text text-anchor="middle" x="251" y="-121.5" font-family="Helvetica,sans-Serif" font-size="10.00" fill="#000000">StateOne::getReflected</text>
</a>
</g>
</g>
<!-- Node17&#45;&gt;Node23 -->
<g id="edge6" class="edge">
<title>Node17&#45;&gt;Node23</title>
<path fill="none" stroke="#191970" d="M96.2482,-171.4403C116.8355,-164.7577 145.058,-155.6897 170,-148 182.4971,-144.1471 196.1149,-140.0667 208.5568,-136.3846"/>
<polygon fill="#191970" stroke="#191970" points="209.6376,-139.715 218.239,-133.529 207.6573,-133.0009 209.6376,-139.715"/>
</g>
<!-- Node23&#45;&gt;Node20 -->
<g id="edge7" class="edge">
<title>Node23&#45;&gt;Node20</title>
<path fill="none" stroke="#191970" d="M268.4684,-133.5312C291.0186,-145.5954 331.6823,-166.544 368,-181 373.5043,-183.191 379.3679,-185.3004 385.1963,-187.2657"/>
<polygon fill="#191970" stroke="#191970" points="384.3103,-190.658 394.9026,-190.4261 386.4776,-184.0019 384.3103,-190.658"/>
</g>
<!-- Node23&#45;&gt;Node21 -->
<g id="edge8" class="edge">
<title>Node23&#45;&gt;Node21</title>
<path fill="none" stroke="#191970" d="M295.7907,-133.589C319.5303,-138.6713 348.8839,-144.9554 373.9437,-150.3203"/>
<polygon fill="#191970" stroke="#191970" points="373.5202,-153.8089 384.0313,-152.4799 374.9856,-146.964 373.5202,-153.8089"/>
</g>
<!-- Node23&#45;&gt;Node22 -->
<g id="edge9" class="edge">
<title>Node23&#45;&gt;Node22</title>
<path fill="none" stroke="#191970" d="M264.1839,-114.4674C280.4478,-102.5817 308.7923,-81.4536 332,-62 348.6341,-48.0566 349.1977,-39.8436 368,-29 371.7015,-26.8653 375.6713,-24.9411 379.7429,-23.2128"/>
<polygon fill="#191970" stroke="#191970" points="381.2664,-26.3771 389.3499,-19.5282 378.7597,-19.8413 381.2664,-26.3771"/>
</g>
<!-- Node24 -->
<g id="node8" class="node">
<title>Node24</title>
<g id="a_node8"><a xlink:href="classStateOne.html#a7deae740570ef5262e7fd2d254a8c530" target="_top" xlink:title="StateOne::getN">
<polygon fill="none" stroke="#000000" points="383,-114.5 383,-133.5 474,-133.5 474,-114.5 383,-114.5"/>
<text text-anchor="middle" x="428.5" y="-121.5" font-family="Helvetica,sans-Serif" font-size="10.00" fill="#000000">StateOne::getN</text>
</a>
</g>
</g>
<!-- Node23&#45;&gt;Node24 -->
<g id="edge10" class="edge">
<title>Node23&#45;&gt;Node24</title>
<path fill="none" stroke="#191970" d="M316.0866,-124C334.7001,-124 354.8117,-124 372.8076,-124"/>
<polygon fill="#191970" stroke="#191970" points="372.847,-127.5001 382.847,-124 372.847,-120.5001 372.847,-127.5001"/>
</g>
<!-- Node25 -->
<g id="node9" class="node">
<title>Node25</title>
<g id="a_node9"><a xlink:href="classStateOne.html#a45b245f5da0068df4ff72093c654da89" target="_top" xlink:title="StateOne::getSpecies">
<polygon fill="none" stroke="#000000" points="368,-76.5 368,-95.5 489,-95.5 489,-76.5 368,-76.5"/>
<text text-anchor="middle" x="428.5" y="-83.5" font-family="Helvetica,sans-Serif" font-size="10.00" fill="#000000">StateOne::getSpecies</text>
</a>
</g>
</g>
<!-- Node23&#45;&gt;Node25 -->
<g id="edge11" class="edge">
<title>Node23&#45;&gt;Node25</title>
<path fill="none" stroke="#191970" d="M295.7907,-114.411C319.5303,-109.3287 348.8839,-103.0446 373.9437,-97.6797"/>
<polygon fill="#191970" stroke="#191970" points="374.9856,-101.036 384.0313,-95.5201 373.5202,-94.1911 374.9856,-101.036"/>
</g>
<!-- Node26 -->
<g id="node10" class="node">
<title>Node26</title>
<g id="a_node10"><a xlink:href="classStateOne.html#a7eafbf38814e11dc5875e8a0bc99051c" target="_top" xlink:title="StateOne::StateOne">
<polygon fill="none" stroke="#000000" points="372,-38.5 372,-57.5 485,-57.5 485,-38.5 372,-38.5"/>
<text text-anchor="middle" x="428.5" y="-45.5" font-family="Helvetica,sans-Serif" font-size="10.00" fill="#000000">StateOne::StateOne</text>
</a>
</g>
</g>
<!-- Node23&#45;&gt;Node26 -->
<g id="edge12" class="edge">
<title>Node23&#45;&gt;Node26</title>
<path fill="none" stroke="#191970" d="M268.4684,-114.4688C291.0186,-102.4046 331.6823,-81.456 368,-67 373.5043,-64.809 379.3679,-62.6996 385.1963,-60.7343"/>
<polygon fill="#191970" stroke="#191970" points="386.4776,-63.9981 394.9026,-57.5739 384.3103,-57.342 386.4776,-63.9981"/>
</g>
</g>
</svg>
