<?xml version="1.0" encoding="UTF-8" standalone="no"?>
<!DOCTYPE svg PUBLIC "-//W3C//DTD SVG 1.1//EN"
 "http://www.w3.org/Graphics/SVG/1.1/DTD/svg11.dtd">
<!-- Generated by graphviz version 2.40.1 (20161225.0304)
 -->
<!-- Title: StateOld Pages: 1 -->
<svg width="182pt" height="84pt"
 viewBox="0.00 0.00 181.50 84.00" xmlns="http://www.w3.org/2000/svg" xmlns:xlink="http://www.w3.org/1999/xlink">
<g id="graph0" class="graph" transform="scale(1 1) rotate(0) translate(4 80)">
<title>StateOld</title>
<!-- Node0 -->
<g id="node1" class="node">
<title>Node0</title>
<polygon fill="#bfbfbf" stroke="#000000" points="57.5,-56.5 57.5,-75.5 116.5,-75.5 116.5,-56.5 57.5,-56.5"/>
<text text-anchor="middle" x="87" y="-63.5" font-family="Helvetica,sans-Serif" font-size="10.00" fill="#000000">StateOld</text>
</g>
<!-- Node1 -->
<g id="node2" class="node">
<title>Node1</title>
<g id="a_node2"><a xlink:href="classStateOneOld.html" target="_top" xlink:title="One&#45;atom Rydberg state ">
<polygon fill="none" stroke="#000000" points="0,-.5 0,-19.5 78,-19.5 78,-.5 0,-.5"/>
<text text-anchor="middle" x="39" y="-7.5" font-family="Helvetica,sans-Serif" font-size="10.00" fill="#000000">StateOneOld</text>
</a>
</g>
</g>
<!-- Node0&#45;&gt;Node1 -->
<g id="edge1" class="edge">
<title>Node0&#45;&gt;Node1</title>
<path fill="none" stroke="#191970" d="M72.0003,-48.5004C63.8378,-38.9775 54.0511,-27.5596 47.2651,-19.6427"/>
<polygon fill="#191970" stroke="#191970" points="69.4737,-50.9307 78.639,-56.2455 74.7885,-46.3752 69.4737,-50.9307"/>
</g>
<!-- Node2 -->
<g id="node3" class="node">
<title>Node2</title>
<g id="a_node3"><a xlink:href="classStateTwoOld.html" target="_top" xlink:title="Two&#45;atom Rydberg state ">
<polygon fill="none" stroke="#000000" points="96.5,-.5 96.5,-19.5 173.5,-19.5 173.5,-.5 96.5,-.5"/>
<text text-anchor="middle" x="135" y="-7.5" font-family="Helvetica,sans-Serif" font-size="10.00" fill="#000000">StateTwoOld</text>
</a>
</g>
</g>
<!-- Node0&#45;&gt;Node2 -->
<g id="edge2" class="edge">
<title>Node0&#45;&gt;Node2</title>
<path fill="none" stroke="#191970" d="M101.9997,-48.5004C110.1622,-38.9775 119.9489,-27.5596 126.7349,-19.6427"/>
<polygon fill="#191970" stroke="#191970" points="99.2115,-46.3752 95.361,-56.2455 104.5263,-50.9307 99.2115,-46.3752"/>
</g>
</g>
</svg>
