<?xml version="1.0" encoding="UTF-8" standalone="no"?>
<!DOCTYPE svg PUBLIC "-//W3C//DTD SVG 1.1//EN"
 "http://www.w3.org/Graphics/SVG/1.1/DTD/svg11.dtd">
<!-- Generated by graphviz version 2.40.1 (20161225.0304)
 -->
<!-- Title: SystemOne::initializeBasis Pages: 1 -->
<svg width="441pt" height="165pt"
 viewBox="0.00 0.00 441.00 165.00" xmlns="http://www.w3.org/2000/svg" xmlns:xlink="http://www.w3.org/1999/xlink">
<g id="graph0" class="graph" transform="scale(1 1) rotate(0) translate(4 161)">
<title>SystemOne::initializeBasis</title>
<!-- Node28 -->
<g id="node1" class="node">
<title>Node28</title>
<polygon fill="#bfbfbf" stroke="#000000" points="0,-69 0,-88 147,-88 147,-69 0,-69"/>
<text text-anchor="middle" x="73.5" y="-76" font-family="Helvetica,sans-Serif" font-size="10.00" fill="#000000">SystemOne::initializeBasis</text>
</g>
<!-- Node29 -->
<g id="node2" class="node">
<title>Node29</title>
<g id="a_node2"><a xlink:href="classSystemBase.html#a5fa7511cb2459a67370d4e33242092c7" target="_top" xlink:title="SystemBase\&lt; StateOne\l \&gt;::checkIsEnergyValid">
<polygon fill="none" stroke="#000000" points="183,-126.5 183,-156.5 317,-156.5 317,-126.5 183,-126.5"/>
<text text-anchor="start" x="191" y="-144.5" font-family="Helvetica,sans-Serif" font-size="10.00" fill="#000000">SystemBase&lt; StateOne</text>
<text text-anchor="middle" x="250" y="-133.5" font-family="Helvetica,sans-Serif" font-size="10.00" fill="#000000"> &gt;::checkIsEnergyValid</text>
</a>
</g>
</g>
<!-- Node28&#45;&gt;Node29 -->
<g id="edge1" class="edge">
<title>Node28&#45;&gt;Node29</title>
<path fill="none" stroke="#191970" d="M100.3066,-88.0683C126.1756,-97.302 166.0283,-111.5271 198.1108,-122.9787"/>
<polygon fill="#191970" stroke="#191970" points="197.1993,-126.3695 207.794,-126.435 199.5525,-119.7769 197.1993,-126.3695"/>
</g>
<!-- Node30 -->
<g id="node3" class="node">
<title>Node30</title>
<g id="a_node3"><a xlink:href="classStateOne.html#a6262da11406dbaa811f361cab2cf71b6" target="_top" xlink:title="StateOne::getEnergy">
<polygon fill="none" stroke="#000000" points="191.5,-88 191.5,-107 308.5,-107 308.5,-88 191.5,-88"/>
<text text-anchor="middle" x="250" y="-95" font-family="Helvetica,sans-Serif" font-size="10.00" fill="#000000">StateOne::getEnergy</text>
</a>
</g>
</g>
<!-- Node28&#45;&gt;Node30 -->
<g id="edge2" class="edge">
<title>Node28&#45;&gt;Node30</title>
<path fill="none" stroke="#191970" d="M147.0738,-86.4201C158.3713,-87.6363 169.9989,-88.888 181.1879,-90.0925"/>
<polygon fill="#191970" stroke="#191970" points="181.0009,-93.5925 191.3181,-91.183 181.7502,-86.6327 181.0009,-93.5925"/>
</g>
<!-- Node32 -->
<g id="node5" class="node">
<title>Node32</title>
<g id="a_node5"><a xlink:href="classStateOne.html#aab2b41262381d67893113ed6f5ad18bc" target="_top" xlink:title="StateOne::getM">
<polygon fill="none" stroke="#000000" points="204,-50 204,-69 296,-69 296,-50 204,-50"/>
<text text-anchor="middle" x="250" y="-57" font-family="Helvetica,sans-Serif" font-size="10.00" fill="#000000">StateOne::getM</text>
</a>
</g>
</g>
<!-- Node28&#45;&gt;Node32 -->
<g id="edge4" class="edge">
<title>Node28&#45;&gt;Node32</title>
<path fill="none" stroke="#191970" d="M147.0738,-70.5799C162.6751,-68.9004 178.906,-67.1532 193.7418,-65.5561"/>
<polygon fill="#191970" stroke="#191970" points="194.1971,-69.0274 203.765,-64.4771 193.4478,-62.0676 194.1971,-69.0274"/>
</g>
<!-- Node33 -->
<g id="node6" class="node">
<title>Node33</title>
<g id="a_node6"><a xlink:href="classSystemBase.html#a8da674b7b97c0b8d2dca5d9d2d7952a2" target="_top" xlink:title="SystemBase\&lt; StateOne\l \&gt;::range">
<polygon fill="none" stroke="#000000" points="183,-.5 183,-30.5 317,-30.5 317,-.5 183,-.5"/>
<text text-anchor="start" x="191" y="-18.5" font-family="Helvetica,sans-Serif" font-size="10.00" fill="#000000">SystemBase&lt; StateOne</text>
<text text-anchor="middle" x="250" y="-7.5" font-family="Helvetica,sans-Serif" font-size="10.00" fill="#000000"> &gt;::range</text>
</a>
</g>
</g>
<!-- Node28&#45;&gt;Node33 -->
<g id="edge5" class="edge">
<title>Node28&#45;&gt;Node33</title>
<path fill="none" stroke="#191970" d="M100.3066,-68.9317C126.1756,-59.698 166.0283,-45.4729 198.1108,-34.0213"/>
<polygon fill="#191970" stroke="#191970" points="199.5525,-37.2231 207.794,-30.565 197.1993,-30.6305 199.5525,-37.2231"/>
</g>
<!-- Node31 -->
<g id="node4" class="node">
<title>Node31</title>
<g id="a_node4"><a xlink:href="QuantumDefect_8cpp.html#ac472df8bb08bd6ff27c7ef7633ae62c5" target="_top" xlink:title="Returns only the energy of a state. ">
<polygon fill="none" stroke="#000000" points="353,-88 353,-107 433,-107 433,-88 353,-88"/>
<text text-anchor="middle" x="393" y="-95" font-family="Helvetica,sans-Serif" font-size="10.00" fill="#000000">energy_level</text>
</a>
</g>
</g>
<!-- Node30&#45;&gt;Node31 -->
<g id="edge3" class="edge">
<title>Node30&#45;&gt;Node31</title>
<path fill="none" stroke="#191970" d="M308.5762,-97.5C319.7988,-97.5 331.4609,-97.5 342.4063,-97.5"/>
<polygon fill="#191970" stroke="#191970" points="342.6431,-101.0001 352.643,-97.5 342.643,-94.0001 342.6431,-101.0001"/>
</g>
</g>
</svg>
