<?xml version="1.0" encoding="UTF-8" standalone="no"?>
<!DOCTYPE svg PUBLIC "-//W3C//DTD SVG 1.1//EN"
 "http://www.w3.org/Graphics/SVG/1.1/DTD/svg11.dtd">
<!-- Generated by graphviz version 2.40.1 (20161225.0304)
 -->
<!-- Title: StateOneOld Pages: 1 -->
<svg width="234pt" height="184pt"
 viewBox="0.00 0.00 233.50 184.00" xmlns="http://www.w3.org/2000/svg" xmlns:xlink="http://www.w3.org/1999/xlink">
<g id="graph0" class="graph" transform="scale(1 1) rotate(0) translate(4 180)">
<title>StateOneOld</title>
<!-- Node2 -->
<g id="node1" class="node">
<title>Node2</title>
<polygon fill="#bfbfbf" stroke="#000000" points="83.5,-.5 83.5,-19.5 161.5,-19.5 161.5,-.5 83.5,-.5"/>
<text text-anchor="middle" x="122.5" y="-7.5" font-family="Helvetica,sans-Serif" font-size="10.00" fill="#000000">StateOneOld</text>
</g>
<!-- Node3 -->
<g id="node2" class="node">
<title>Node3</title>
<g id="a_node2"><a xlink:href="classStateOld.html" target="_top" xlink:title="Base class for states ">
<polygon fill="none" stroke="#000000" points="0,-89.5 0,-108.5 59,-108.5 59,-89.5 0,-89.5"/>
<text text-anchor="middle" x="29.5" y="-96.5" font-family="Helvetica,sans-Serif" font-size="10.00" fill="#000000">StateOld</text>
</a>
</g>
</g>
<!-- Node3&#45;&gt;Node2 -->
<g id="edge1" class="edge">
<title>Node3&#45;&gt;Node2</title>
<path fill="none" stroke="#191970" d="M46.7026,-82.5373C65.9681,-64.1005 96.5544,-34.8296 112.337,-19.7259"/>
<polygon fill="#191970" stroke="#191970" points="44.2575,-80.0328 39.4526,-89.4754 49.0973,-85.0901 44.2575,-80.0328"/>
</g>
<!-- Node4 -->
<g id="node3" class="node">
<title>Node4</title>
<polygon fill="none" stroke="#bfbfbf" points="1.5,-156.5 1.5,-175.5 57.5,-175.5 57.5,-156.5 1.5,-156.5"/>
<text text-anchor="middle" x="29.5" y="-163.5" font-family="Helvetica,sans-Serif" font-size="10.00" fill="#000000">uint32_t</text>
</g>
<!-- Node4&#45;&gt;Node3 -->
<g id="edge2" class="edge">
<title>Node4&#45;&gt;Node3</title>
<path fill="none" stroke="#9a32cd" stroke-dasharray="5,2" d="M29.5,-146.1079C29.5,-133.714 29.5,-118.3263 29.5,-108.5817"/>
<polygon fill="#9a32cd" stroke="#9a32cd" points="26.0001,-146.4005 29.5,-156.4005 33.0001,-146.4006 26.0001,-146.4005"/>
<text text-anchor="middle" x="39" y="-130" font-family="Helvetica,sans-Serif" font-size="10.00" fill="#000000"> idx</text>
</g>
<!-- Node5 -->
<g id="node4" class="node">
<title>Node5</title>
<polygon fill="none" stroke="#bfbfbf" points="77,-89.5 77,-108.5 116,-108.5 116,-89.5 77,-89.5"/>
<text text-anchor="middle" x="96.5" y="-96.5" font-family="Helvetica,sans-Serif" font-size="10.00" fill="#000000">float</text>
</g>
<!-- Node5&#45;&gt;Node2 -->
<g id="edge3" class="edge">
<title>Node5&#45;&gt;Node2</title>
<path fill="none" stroke="#9a32cd" stroke-dasharray="5,2" d="M102.1211,-79.7584C107.5216,-61.2723 115.4621,-34.0912 119.6587,-19.7259"/>
<polygon fill="#9a32cd" stroke="#9a32cd" points="98.7271,-78.8952 99.2825,-89.4754 105.4462,-80.8581 98.7271,-78.8952"/>
<text text-anchor="middle" x="118.5" y="-63" font-family="Helvetica,sans-Serif" font-size="10.00" fill="#000000"> j</text>
<text text-anchor="middle" x="118.5" y="-52" font-family="Helvetica,sans-Serif" font-size="10.00" fill="#000000">m</text>
<text text-anchor="middle" x="118.5" y="-41" font-family="Helvetica,sans-Serif" font-size="10.00" fill="#000000">s</text>
</g>
<!-- Node6 -->
<g id="node5" class="node">
<title>Node6</title>
<g id="a_node5"><a xlink:href="classint.html" target="_top" xlink:title="int">
<polygon fill="none" stroke="#000000" points="134,-89.5 134,-108.5 163,-108.5 163,-89.5 134,-89.5"/>
<text text-anchor="middle" x="148.5" y="-96.5" font-family="Helvetica,sans-Serif" font-size="10.00" fill="#000000">int</text>
</a>
</g>
</g>
<!-- Node6&#45;&gt;Node2 -->
<g id="edge4" class="edge">
<title>Node6&#45;&gt;Node2</title>
<path fill="none" stroke="#9a32cd" stroke-dasharray="5,2" d="M142.8789,-79.7584C137.4784,-61.2723 129.5379,-34.0912 125.3413,-19.7259"/>
<polygon fill="#9a32cd" stroke="#9a32cd" points="139.5538,-80.8581 145.7175,-89.4754 146.2729,-78.8952 139.5538,-80.8581"/>
<text text-anchor="middle" x="143" y="-57.5" font-family="Helvetica,sans-Serif" font-size="10.00" fill="#000000"> l</text>
<text text-anchor="middle" x="143" y="-46.5" font-family="Helvetica,sans-Serif" font-size="10.00" fill="#000000">n</text>
</g>
<!-- Node7 -->
<g id="node6" class="node">
<title>Node7</title>
<polygon fill="none" stroke="#bfbfbf" points="181.5,-89.5 181.5,-108.5 225.5,-108.5 225.5,-89.5 181.5,-89.5"/>
<text text-anchor="middle" x="203.5" y="-96.5" font-family="Helvetica,sans-Serif" font-size="10.00" fill="#000000">string</text>
</g>
<!-- Node7&#45;&gt;Node2 -->
<g id="edge5" class="edge">
<title>Node7&#45;&gt;Node2</title>
<path fill="none" stroke="#9a32cd" stroke-dasharray="5,2" d="M188.9093,-81.5593C178.4364,-69.2024 163.8694,-52.3405 150.5,-38 144.687,-31.7648 137.936,-25.0006 132.5196,-19.6828"/>
<polygon fill="#9a32cd" stroke="#9a32cd" points="186.3196,-83.9176 195.4407,-89.308 191.6719,-79.4061 186.3196,-83.9176"/>
<text text-anchor="middle" x="200" y="-57.5" font-family="Helvetica,sans-Serif" font-size="10.00" fill="#000000"> species</text>
<text text-anchor="middle" x="200" y="-46.5" font-family="Helvetica,sans-Serif" font-size="10.00" fill="#000000">element</text>
</g>
</g>
</svg>
