<?xml version="1.0" encoding="UTF-8" standalone="no"?>
<!DOCTYPE svg PUBLIC "-//W3C//DTD SVG 1.1//EN"
 "http://www.w3.org/Graphics/SVG/1.1/DTD/svg11.dtd">
<!-- Generated by graphviz version 2.40.1 (20161225.0304)
 -->
<!-- Title: StateOne::getM Pages: 1 -->
<!--zoomable 385 -->
<svg id="main" version="1.1" xmlns="http://www.w3.org/2000/svg" xmlns:xlink="http://www.w3.org/1999/xlink" xml:space="preserve" onload="init(evt)">
<style type="text/css"><![CDATA[
.edge:hover path { stroke: red; }
.edge:hover polygon { stroke: red; fill: red; }
]]></style>
<script type="text/javascript"><![CDATA[
var edges = document.getElementsByTagName('g');
if (edges && edges.length) {
  for (var i=0;i<edges.length;i++) {
    if (edges[i].id.substr(0,4)=='edge') {
      edges[i].setAttribute('class','edge');
    }
  }
}
]]></script>
        <defs>
                <circle id="rim" cx="0" cy="0" r="7"/>
                <circle id="rim2" cx="0" cy="0" r="3.5"/>
                <g id="zoomPlus">
                        <use xlink:href="#rim" fill="#404040">
                                <set attributeName="fill" to="#808080" begin="zoomplus.mouseover" end="zoomplus.mouseout"/>
                        </use>
                        <path d="M-4,0h8M0,-4v8" fill="none" stroke="white" stroke-width="1.5" pointer-events="none"/>
                </g>
                <g id="zoomMin">
                        <use xlink:href="#rim" fill="#404040">
                                <set attributeName="fill" to="#808080" begin="zoomminus.mouseover" end="zoomminus.mouseout"/>
                        </use>
                        <path d="M-4,0h8" fill="none" stroke="white" stroke-width="1.5" pointer-events="none"/>
                </g>
                <g id="dirArrow">
                        <path fill="none" stroke="white" stroke-width="1.5" d="M0,-3.0v7 M-2.5,-0.5L0,-3.0L2.5,-0.5"/>
                </g>
               <g id="resetDef">
                       <use xlink:href="#rim2" fill="#404040">
                               <set attributeName="fill" to="#808080" begin="reset.mouseover" end="reset.mouseout"/>
                       </use>
               </g>
        </defs>

<script type="text/javascript">
var viewWidth = 719;
var viewHeight = 385;
var sectionId = 'dynsection-10';
</script>
<script xlink:href="svgpan.js"/>
<svg id="graph" class="graph">
<g id="viewport">
<title>StateOne::getM</title>
<!-- Node67 -->
<g id="node1" class="node">
<title>Node67</title>
<polygon fill="#bfbfbf" stroke="#000000" points="0,-174.5 0,-193.5 92,-193.5 92,-174.5 0,-174.5"/>
<text text-anchor="middle" x="46" y="-181.5" font-family="Helvetica,sans-Serif" font-size="10.00" fill="#000000">StateOne::getM</text>
</g>
<!-- Node68 -->
<g id="node2" class="node">
<title>Node68</title>
<g id="a_node2"><a xlink:href="classMatrixElementCache.html#afc9f56a599c9ea24bbfbd4aeb41efbd4" target="_top" xlink:title="MatrixElementCache\l::getElectricMultipole">
<polygon fill="none" stroke="#000000" points="151,-346 151,-376 270,-376 270,-346 151,-346"/>
<text text-anchor="start" x="159" y="-364" font-family="Helvetica,sans-Serif" font-size="10.00" fill="#000000">MatrixElementCache</text>
<text text-anchor="middle" x="210.5" y="-353" font-family="Helvetica,sans-Serif" font-size="10.00" fill="#000000">::getElectricMultipole</text>
</a>
</g>
</g>
<!-- Node67&#45;&gt;Node68 -->
<g id="edge1" class="edge">
<title>Node67&#45;&gt;Node68</title>
<path fill="none" stroke="#191970" d="M51.8968,-203.4766C62.3007,-234.6793 86.801,-295.9187 128,-331 135.1943,-337.126 143.7429,-342.0444 152.5678,-345.9807"/>
<polygon fill="#191970" stroke="#191970" points="55.1778,-202.2452 48.8005,-193.7846 48.5098,-204.3755 55.1778,-202.2452"/>
</g>
<!-- Node69 -->
<g id="node3" class="node">
<title>Node69</title>
<g id="a_node3"><a xlink:href="classMatrixElementCache.html#aeef0496ad6db911dac50c0625660d9c0" target="_top" xlink:title="MatrixElementCache\l::getMagneticDipole">
<polygon fill="none" stroke="#000000" points="356.5,-298 356.5,-328 474.5,-328 474.5,-298 356.5,-298"/>
<text text-anchor="start" x="364.5" y="-316" font-family="Helvetica,sans-Serif" font-size="10.00" fill="#000000">MatrixElementCache</text>
<text text-anchor="middle" x="415.5" y="-305" font-family="Helvetica,sans-Serif" font-size="10.00" fill="#000000">::getMagneticDipole</text>
</a>
</g>
</g>
<!-- Node67&#45;&gt;Node69 -->
<g id="edge2" class="edge">
<title>Node67&#45;&gt;Node69</title>
<path fill="none" stroke="#191970" d="M55.2255,-202.4738C68.0263,-225.9178 93.5477,-265.5237 128,-284 199.51,-322.3499 295.4296,-323.8154 356.3651,-319.6963"/>
<polygon fill="#191970" stroke="#191970" points="58.2753,-200.7531 50.5294,-193.5246 52.0769,-204.0058 58.2753,-200.7531"/>
</g>
<!-- Node71 -->
<g id="node5" class="node">
<title>Node71</title>
<g id="a_node5"><a xlink:href="classStateOne.html#a0b5646c4160083ef4b24460e9159ad2c" target="_top" xlink:title="StateOne::getReflected">
<polygon fill="none" stroke="#000000" points="145.5,-231.5 145.5,-250.5 275.5,-250.5 275.5,-231.5 145.5,-231.5"/>
<text text-anchor="middle" x="210.5" y="-238.5" font-family="Helvetica,sans-Serif" font-size="10.00" fill="#000000">StateOne::getReflected</text>
</a>
</g>
</g>
<!-- Node67&#45;&gt;Node71 -->
<g id="edge4" class="edge">
<title>Node67&#45;&gt;Node71</title>
<path fill="none" stroke="#191970" d="M77.4649,-197.5166C92.6085,-203.8016 111.1058,-211.1594 128,-217 143.2258,-222.2638 160.2881,-227.3577 174.9274,-231.4883"/>
<polygon fill="#191970" stroke="#191970" points="78.6237,-194.2073 68.0482,-193.568 75.9168,-200.6628 78.6237,-194.2073"/>
</g>
<!-- Node72 -->
<g id="node6" class="node">
<title>Node72</title>
<g id="a_node6"><a xlink:href="classSystemOne.html#a4278feede19c90186f22f37c1d5d53b2" target="_top" xlink:title="Method that allows base class to combine systems ///////////////. ">
<polygon fill="none" stroke="#000000" points="348.5,-251.5 348.5,-270.5 482.5,-270.5 482.5,-251.5 348.5,-251.5"/>
<text text-anchor="middle" x="415.5" y="-258.5" font-family="Helvetica,sans-Serif" font-size="10.00" fill="#000000">SystemOne::incorporate</text>
</a>
</g>
</g>
<!-- Node67&#45;&gt;Node72 -->
<g id="edge7" class="edge">
<title>Node67&#45;&gt;Node72</title>
<path fill="none" stroke="#191970" d="M58.6477,-201.821C73.0177,-220.3716 98.3592,-248.3168 128,-260 208.7995,-291.8477 312.58,-280.8644 370.7744,-270.5607"/>
<polygon fill="#191970" stroke="#191970" points="61.2875,-199.506 52.504,-193.5814 55.6757,-203.6903 61.2875,-199.506"/>
</g>
<!-- Node73 -->
<g id="node7" class="node">
<title>Node73</title>
<g id="a_node7"><a xlink:href="classSystemTwo.html#a7aa70b668bd55e25ba9ed8f9d037052c" target="_top" xlink:title="Method that allows base class to initialize Basis //////////////. ">
<polygon fill="none" stroke="#000000" points="342.5,-197.5 342.5,-216.5 488.5,-216.5 488.5,-197.5 342.5,-197.5"/>
<text text-anchor="middle" x="415.5" y="-204.5" font-family="Helvetica,sans-Serif" font-size="10.00" fill="#000000">SystemTwo::initializeBasis</text>
</a>
</g>
</g>
<!-- Node67&#45;&gt;Node73 -->
<g id="edge8" class="edge">
<title>Node67&#45;&gt;Node73</title>
<path fill="none" stroke="#191970" d="M102.3889,-187.51C166.6517,-191.5101 271.8814,-198.0603 342.3944,-202.4494"/>
<polygon fill="#191970" stroke="#191970" points="102.2485,-183.9946 92.0503,-186.8665 101.8135,-190.9811 102.2485,-183.9946"/>
</g>
<!-- Node74 -->
<g id="node8" class="node">
<title>Node74</title>
<g id="a_node8"><a xlink:href="classSystemOne.html#a1548df0406b8a36e4307f8dbf9226990" target="_top" xlink:title="Method that allows base class to initialize Basis //////////////. ">
<polygon fill="none" stroke="#000000" points="137,-155.5 137,-174.5 284,-174.5 284,-155.5 137,-155.5"/>
<text text-anchor="middle" x="210.5" y="-162.5" font-family="Helvetica,sans-Serif" font-size="10.00" fill="#000000">SystemOne::initializeBasis</text>
</a>
</g>
</g>
<!-- Node67&#45;&gt;Node74 -->
<g id="edge9" class="edge">
<title>Node67&#45;&gt;Node74</title>
<path fill="none" stroke="#191970" d="M102.269,-177.5008C113.414,-176.2136 125.2683,-174.8444 136.8899,-173.5021"/>
<polygon fill="#191970" stroke="#191970" points="101.7925,-174.0325 92.2602,-178.6569 102.5958,-180.9863 101.7925,-174.0325"/>
</g>
<!-- Node75 -->
<g id="node9" class="node">
<title>Node75</title>
<g id="a_node9"><a xlink:href="State_8cpp.html#ae62083584a93c249d0c3b4a6f046fee1" target="_top" xlink:title="operator\&lt;\&lt;">
<polygon fill="none" stroke="#000000" points="173.5,-117.5 173.5,-136.5 247.5,-136.5 247.5,-117.5 173.5,-117.5"/>
<text text-anchor="middle" x="210.5" y="-124.5" font-family="Helvetica,sans-Serif" font-size="10.00" fill="#000000">operator&lt;&lt;</text>
</a>
</g>
</g>
<!-- Node67&#45;&gt;Node75 -->
<g id="edge10" class="edge">
<title>Node67&#45;&gt;Node75</title>
<path fill="none" stroke="#191970" d="M72.9239,-169.7967C88.651,-161.9414 109.0705,-152.4871 128,-146 142.5993,-140.9969 159.1014,-136.9015 173.4894,-133.811"/>
<polygon fill="#191970" stroke="#191970" points="71.1201,-166.7873 63.7932,-174.4402 74.2933,-173.0268 71.1201,-166.7873"/>
</g>
<!-- Node76 -->
<g id="node10" class="node">
<title>Node76</title>
<g id="a_node10"><a xlink:href="MatrixElementCache_8h.html#a15aabd3025cfa0ca9485cd672c0a1a4a" target="_top" xlink:title="selectionRulesMomentumNew">
<polygon fill="none" stroke="#000000" points="128,-79.5 128,-98.5 293,-98.5 293,-79.5 128,-79.5"/>
<text text-anchor="middle" x="210.5" y="-86.5" font-family="Helvetica,sans-Serif" font-size="10.00" fill="#000000">selectionRulesMomentumNew</text>
</a>
</g>
</g>
<!-- Node67&#45;&gt;Node76 -->
<g id="edge11" class="edge">
<title>Node67&#45;&gt;Node76</title>
<path fill="none" stroke="#191970" d="M59.9289,-166.5935C74.8919,-149.0957 100.2846,-122.6729 128,-108 135.2743,-104.1489 143.3138,-101.0735 151.4357,-98.6187"/>
<polygon fill="#191970" stroke="#191970" points="57.16,-164.4492 53.4568,-174.3758 62.542,-168.9252 57.16,-164.4492"/>
</g>
<!-- Node78 -->
<g id="node12" class="node">
<title>Node78</title>
<g id="a_node12"><a xlink:href="MatrixElementCache_8h.html#a06a268e07e2a0edb3fca096b8c941c78" target="_top" xlink:title="selectionRulesMultipoleNew">
<polygon fill="none" stroke="#000000" points="133,-41.5 133,-60.5 288,-60.5 288,-41.5 133,-41.5"/>
<text text-anchor="middle" x="210.5" y="-48.5" font-family="Helvetica,sans-Serif" font-size="10.00" fill="#000000">selectionRulesMultipoleNew</text>
</a>
</g>
</g>
<!-- Node67&#45;&gt;Node78 -->
<g id="edge15" class="edge">
<title>Node67&#45;&gt;Node78</title>
<path fill="none" stroke="#191970" d="M54.412,-164.8094C66.7204,-139.0694 92.1352,-93.8474 128,-70 133.8748,-66.0937 140.447,-62.9843 147.2484,-60.5103"/>
<polygon fill="#191970" stroke="#191970" points="51.0769,-163.6846 50.0779,-174.2322 57.4365,-166.6098 51.0769,-163.6846"/>
</g>
<!-- Node80 -->
<g id="node14" class="node">
<title>Node80</title>
<g id="a_node14"><a xlink:href="classStateOne.html#a5b05a258a43a682cfe7af5eb57d0221c" target="_top" xlink:title="Implementation of one&#45;atom state ///////////////////////////////. ">
<polygon fill="none" stroke="#000000" points="154,-3.5 154,-22.5 267,-22.5 267,-3.5 154,-3.5"/>
<text text-anchor="middle" x="210.5" y="-10.5" font-family="Helvetica,sans-Serif" font-size="10.00" fill="#000000">StateOne::StateOne</text>
</a>
</g>
</g>
<!-- Node67&#45;&gt;Node80 -->
<g id="edge19" class="edge">
<title>Node67&#45;&gt;Node80</title>
<path fill="none" stroke="#191970" d="M50.8266,-164.638C60.0149,-131.9678 83.2203,-66.1276 128,-32 135.5984,-26.2091 144.6569,-22.1339 153.9442,-19.2766"/>
<polygon fill="#191970" stroke="#191970" points="47.431,-163.788 48.237,-174.3521 54.1948,-165.5911 47.431,-163.788"/>
</g>
<!-- Node70 -->
<g id="node4" class="node">
<title>Node70</title>
<g id="a_node4"><a xlink:href="classSystemOne.html#abf6d26d44765fa787251956c128644a7" target="_top" xlink:title="Method that allows base class to calculate the interaction /////. ">
<polygon fill="none" stroke="#000000" points="538,-104.5 538,-123.5 711,-123.5 711,-104.5 538,-104.5"/>
<text text-anchor="middle" x="624.5" y="-111.5" font-family="Helvetica,sans-Serif" font-size="10.00" fill="#000000">SystemOne::initializeInteraction</text>
</a>
</g>
</g>
<!-- Node69&#45;&gt;Node70 -->
<g id="edge3" class="edge">
<title>Node69&#45;&gt;Node70</title>
<path fill="none" stroke="#191970" d="M478.6216,-293.8525C486.8904,-289.958 494.9332,-285.3695 502,-280 561.8892,-234.4951 605.9545,-151.9432 619.8568,-123.7453"/>
<polygon fill="#191970" stroke="#191970" points="476.9898,-290.746 469.2298,-297.9594 479.7944,-297.1597 476.9898,-290.746"/>
</g>
<!-- Node71&#45;&gt;Node72 -->
<g id="edge5" class="edge">
<title>Node71&#45;&gt;Node72</title>
<path fill="none" stroke="#191970" d="M285.5978,-248.3266C306.1648,-250.3332 328.3203,-252.4947 348.4075,-254.4544"/>
<polygon fill="#191970" stroke="#191970" points="285.9376,-244.8432 275.645,-247.3556 285.2578,-251.8102 285.9376,-244.8432"/>
</g>
<!-- Node71&#45;&gt;Node73 -->
<g id="edge6" class="edge">
<title>Node71&#45;&gt;Node73</title>
<path fill="none" stroke="#191970" d="M278.0035,-229.8043C303.9302,-225.5043 333.2516,-220.6412 358.1373,-216.5138"/>
<polygon fill="#191970" stroke="#191970" points="277.1691,-226.3948 267.8765,-231.4839 278.3145,-233.3005 277.1691,-226.3948"/>
</g>
<!-- Node76&#45;&gt;Node70 -->
<g id="edge12" class="edge">
<title>Node76&#45;&gt;Node70</title>
<path fill="none" stroke="#191970" d="M261.9347,-100.8528C293.0929,-108.0111 327.1967,-115.7972 329,-116 398.9725,-123.8707 478.8539,-122.727 537.9065,-119.9725"/>
<polygon fill="#191970" stroke="#191970" points="262.4965,-97.3907 251.9665,-98.5611 260.9281,-104.2127 262.4965,-97.3907"/>
</g>
<!-- Node77 -->
<g id="node11" class="node">
<title>Node77</title>
<g id="a_node11"><a xlink:href="classMatrixElementCache.html#a41efbe3c4a7e3e5f2ed2c807a0b3178e" target="_top" xlink:title="MatrixElementCache\l::precalculateDiamagnetism">
<polygon fill="none" stroke="#000000" points="338,-77 338,-107 493,-107 493,-77 338,-77"/>
<text text-anchor="start" x="346" y="-95" font-family="Helvetica,sans-Serif" font-size="10.00" fill="#000000">MatrixElementCache</text>
<text text-anchor="middle" x="415.5" y="-84" font-family="Helvetica,sans-Serif" font-size="10.00" fill="#000000">::precalculateDiamagnetism</text>
</a>
</g>
</g>
<!-- Node76&#45;&gt;Node77 -->
<g id="edge13" class="edge">
<title>Node76&#45;&gt;Node77</title>
<path fill="none" stroke="#191970" d="M303.3318,-90.3585C314.8227,-90.5267 326.4772,-90.6972 337.7106,-90.8616"/>
<polygon fill="#191970" stroke="#191970" points="303.3406,-86.8584 293.2904,-90.2116 303.2381,-93.8576 303.3406,-86.8584"/>
</g>
<!-- Node77&#45;&gt;Node70 -->
<g id="edge14" class="edge">
<title>Node77&#45;&gt;Node70</title>
<path fill="none" stroke="#191970" d="M503.0779,-101.2187C514.6146,-102.4331 526.4341,-103.6773 537.9535,-104.8898"/>
<polygon fill="#191970" stroke="#191970" points="503.3384,-97.7269 493.0269,-100.1607 502.6055,-104.6884 503.3384,-97.7269"/>
</g>
<!-- Node78&#45;&gt;Node70 -->
<g id="edge17" class="edge">
<title>Node78&#45;&gt;Node70</title>
<path fill="none" stroke="#191970" d="M298.3716,-48.7536C356.7161,-48.9841 434.6703,-52.6074 502,-67 539.8687,-75.0949 581.463,-93.1648 605.1355,-104.3919"/>
<polygon fill="#191970" stroke="#191970" points="298.0831,-45.2535 288.0809,-48.7471 298.0787,-52.2535 298.0831,-45.2535"/>
</g>
<!-- Node78&#45;&gt;Node77 -->
<g id="edge18" class="edge">
<title>Node78&#45;&gt;Node77</title>
<path fill="none" stroke="#191970" d="M268.0455,-62.5091C290.3972,-66.9794 316.3055,-72.1611 340.1116,-76.9223"/>
<polygon fill="#191970" stroke="#191970" points="268.5386,-59.0385 258.0464,-60.5093 267.1658,-65.9026 268.5386,-59.0385"/>
</g>
<!-- Node79 -->
<g id="node13" class="node">
<title>Node79</title>
<g id="a_node13"><a xlink:href="classSystemTwo.html#a5cc89c42ab8066027b0c375b818c8333" target="_top" xlink:title="Method that allows base class to calculate the interaction /////. ">
<polygon fill="none" stroke="#000000" points="329,-.5 329,-19.5 502,-19.5 502,-.5 329,-.5"/>
<text text-anchor="middle" x="415.5" y="-7.5" font-family="Helvetica,sans-Serif" font-size="10.00" fill="#000000">SystemTwo::initializeInteraction</text>
</a>
</g>
</g>
<!-- Node78&#45;&gt;Node79 -->
<g id="edge16" class="edge">
<title>Node78&#45;&gt;Node79</title>
<path fill="none" stroke="#191970" d="M268.003,-39.4994C299.4963,-33.2007 338.0605,-25.4879 367.8568,-19.5286"/>
<polygon fill="#191970" stroke="#191970" points="267.1658,-36.0974 258.0464,-41.4907 268.5386,-42.9615 267.1658,-36.0974"/>
</g>
</g>
</svg>
        <g id="navigator" transform="translate(0 0)" fill="#404254">
                <rect fill="#f2f5e9" fill-opacity="0.5" stroke="#606060" stroke-width=".5" x="0" y="0" width="60" height="60"/>
                <use id="zoomplus" xlink:href="#zoomPlus" x="17" y="9" onmousedown="handleZoom(evt,'in')"/>
                <use id="zoomminus" xlink:href="#zoomMin" x="42" y="9" onmousedown="handleZoom(evt,'out')"/>
                <use id="reset" xlink:href="#resetDef" x="30" y="36" onmousedown="handleReset()"/>
                <g id="arrowUp" xlink:href="#dirArrow" transform="translate(30 24)" onmousedown="handlePan(0,-1)">
                  <use xlink:href="#rim" fill="#404040">
                        <set attributeName="fill" to="#808080" begin="arrowUp.mouseover" end="arrowUp.mouseout"/>
                  </use>
                  <path fill="none" stroke="white" stroke-width="1.5" d="M0,-3.0v7 M-2.5,-0.5L0,-3.0L2.5,-0.5"/>
                </g>
                <g id="arrowRight" xlink:href="#dirArrow" transform="rotate(90) translate(36 -43)" onmousedown="handlePan(1,0)">
                  <use xlink:href="#rim" fill="#404040">
                        <set attributeName="fill" to="#808080" begin="arrowRight.mouseover" end="arrowRight.mouseout"/>
                  </use>
                  <path fill="none" stroke="white" stroke-width="1.5" d="M0,-3.0v7 M-2.5,-0.5L0,-3.0L2.5,-0.5"/>
                </g>
                <g id="arrowDown" xlink:href="#dirArrow" transform="rotate(180) translate(-30 -48)" onmousedown="handlePan(0,1)">
                  <use xlink:href="#rim" fill="#404040">
                        <set attributeName="fill" to="#808080" begin="arrowDown.mouseover" end="arrowDown.mouseout"/>
                  </use>
                  <path fill="none" stroke="white" stroke-width="1.5" d="M0,-3.0v7 M-2.5,-0.5L0,-3.0L2.5,-0.5"/>
                </g>
                <g id="arrowLeft" xlink:href="#dirArrow" transform="rotate(270) translate(-36 17)" onmousedown="handlePan(-1,0)">
                  <use xlink:href="#rim" fill="#404040">
                        <set attributeName="fill" to="#808080" begin="arrowLeft.mouseover" end="arrowLeft.mouseout"/>
                  </use>
                  <path fill="none" stroke="white" stroke-width="1.5" d="M0,-3.0v7 M-2.5,-0.5L0,-3.0L2.5,-0.5"/>
                </g>
        </g>
        <svg viewBox="0 0 15 15" width="100%" height="30px" preserveAspectRatio="xMaxYMin meet">
         <g id="arrow_out" transform="scale(0.3 0.3)">
          <a xlink:href="classStateOne_aab2b41262381d67893113ed6f5ad18bc_icgraph_org.svg" target="_base">
           <rect id="button" ry="5" rx="5" y="6" x="6" height="38" width="38"
                fill="#f2f5e9" fill-opacity="0.5" stroke="#606060" stroke-width="1.0"/>
           <path id="arrow"
             d="M 11.500037,31.436501 C 11.940474,20.09759 22.043105,11.32322 32.158766,21.979434 L 37.068811,17.246167 C 37.068811,17.246167 37.088388,32 37.088388,32 L 22.160133,31.978069 C 22.160133,31.978069 26.997745,27.140456 26.997745,27.140456 C 18.528582,18.264221 13.291696,25.230495 11.500037,31.436501 z"
             style="fill:#404040;"/>
          </a>
         </g>
        </svg>
</svg>
