<?xml version="1.0" encoding="UTF-8" standalone="no"?>
<!DOCTYPE svg PUBLIC "-//W3C//DTD SVG 1.1//EN"
 "http://www.w3.org/Graphics/SVG/1.1/DTD/svg11.dtd">
<!-- Generated by graphviz version 2.40.1 (20161225.0304)
 -->
<!-- Title: StateOne::getL Pages: 1 -->
<!--zoomable 435 -->
<svg id="main" version="1.1" xmlns="http://www.w3.org/2000/svg" xmlns:xlink="http://www.w3.org/1999/xlink" xml:space="preserve" onload="init(evt)">
<style type="text/css"><![CDATA[
.edge:hover path { stroke: red; }
.edge:hover polygon { stroke: red; fill: red; }
]]></style>
<script type="text/javascript"><![CDATA[
var edges = document.getElementsByTagName('g');
if (edges && edges.length) {
  for (var i=0;i<edges.length;i++) {
    if (edges[i].id.substr(0,4)=='edge') {
      edges[i].setAttribute('class','edge');
    }
  }
}
]]></script>
        <defs>
                <circle id="rim" cx="0" cy="0" r="7"/>
                <circle id="rim2" cx="0" cy="0" r="3.5"/>
                <g id="zoomPlus">
                        <use xlink:href="#rim" fill="#404040">
                                <set attributeName="fill" to="#808080" begin="zoomplus.mouseover" end="zoomplus.mouseout"/>
                        </use>
                        <path d="M-4,0h8M0,-4v8" fill="none" stroke="white" stroke-width="1.5" pointer-events="none"/>
                </g>
                <g id="zoomMin">
                        <use xlink:href="#rim" fill="#404040">
                                <set attributeName="fill" to="#808080" begin="zoomminus.mouseover" end="zoomminus.mouseout"/>
                        </use>
                        <path d="M-4,0h8" fill="none" stroke="white" stroke-width="1.5" pointer-events="none"/>
                </g>
                <g id="dirArrow">
                        <path fill="none" stroke="white" stroke-width="1.5" d="M0,-3.0v7 M-2.5,-0.5L0,-3.0L2.5,-0.5"/>
                </g>
               <g id="resetDef">
                       <use xlink:href="#rim2" fill="#404040">
                               <set attributeName="fill" to="#808080" begin="reset.mouseover" end="reset.mouseout"/>
                       </use>
               </g>
        </defs>

<script type="text/javascript">
var viewWidth = 716;
var viewHeight = 435;
var sectionId = 'dynsection-8';
</script>
<script xlink:href="svgpan.js"/>
<svg id="graph" class="graph">
<g id="viewport">
<title>StateOne::getL</title>
<!-- Node46 -->
<g id="node1" class="node">
<title>Node46</title>
<polygon fill="#bfbfbf" stroke="#000000" points="0,-193.5 0,-212.5 89,-212.5 89,-193.5 0,-193.5"/>
<text text-anchor="middle" x="44.5" y="-200.5" font-family="Helvetica,sans-Serif" font-size="10.00" fill="#000000">StateOne::getL</text>
</g>
<!-- Node47 -->
<g id="node2" class="node">
<title>Node47</title>
<g id="a_node2"><a xlink:href="integration__test_8cpp.html#a0edc7e03850724a3784df426b75fb1d2" target="_top" xlink:title="BOOST_FIXTURE_TEST_CASE">
<polygon fill="none" stroke="#000000" points="129,-407.5 129,-426.5 286,-426.5 286,-407.5 129,-407.5"/>
<text text-anchor="middle" x="207.5" y="-414.5" font-family="Helvetica,sans-Serif" font-size="10.00" fill="#000000">BOOST_FIXTURE_TEST_CASE</text>
</a>
</g>
</g>
<!-- Node46&#45;&gt;Node47 -->
<g id="edge1" class="edge">
<title>Node46&#45;&gt;Node47</title>
<path fill="none" stroke="#191970" d="M46.735,-222.9585C52.2869,-262.6834 70.4518,-351.7909 125,-398 129.4859,-401.8001 134.5841,-404.8766 139.9938,-407.3627"/>
<polygon fill="#191970" stroke="#191970" points="50.1938,-222.4116 45.4602,-212.933 43.2497,-223.2947 50.1938,-222.4116"/>
</g>
<!-- Node48 -->
<g id="node3" class="node">
<title>Node48</title>
<g id="a_node3"><a xlink:href="classMatrixElementCache.html#afc9f56a599c9ea24bbfbd4aeb41efbd4" target="_top" xlink:title="MatrixElementCache\l::getElectricMultipole">
<polygon fill="none" stroke="#000000" points="148,-358 148,-388 267,-388 267,-358 148,-358"/>
<text text-anchor="start" x="156" y="-376" font-family="Helvetica,sans-Serif" font-size="10.00" fill="#000000">MatrixElementCache</text>
<text text-anchor="middle" x="207.5" y="-365" font-family="Helvetica,sans-Serif" font-size="10.00" fill="#000000">::getElectricMultipole</text>
</a>
</g>
</g>
<!-- Node46&#45;&gt;Node48 -->
<g id="edge2" class="edge">
<title>Node46&#45;&gt;Node48</title>
<path fill="none" stroke="#191970" d="M50.7407,-222.377C61.3384,-252.3404 85.6195,-309.9065 125,-343 132.234,-349.0791 140.803,-353.9733 149.6361,-357.8999"/>
<polygon fill="#191970" stroke="#191970" points="53.9794,-221.0291 47.4527,-212.6832 47.3503,-223.2776 53.9794,-221.0291"/>
</g>
<!-- Node49 -->
<g id="node4" class="node">
<title>Node49</title>
<g id="a_node4"><a xlink:href="classMatrixElementCache.html#aeef0496ad6db911dac50c0625660d9c0" target="_top" xlink:title="MatrixElementCache\l::getMagneticDipole">
<polygon fill="none" stroke="#000000" points="353.5,-314 353.5,-344 471.5,-344 471.5,-314 353.5,-314"/>
<text text-anchor="start" x="361.5" y="-332" font-family="Helvetica,sans-Serif" font-size="10.00" fill="#000000">MatrixElementCache</text>
<text text-anchor="middle" x="412.5" y="-321" font-family="Helvetica,sans-Serif" font-size="10.00" fill="#000000">::getMagneticDipole</text>
</a>
</g>
</g>
<!-- Node46&#45;&gt;Node49 -->
<g id="edge3" class="edge">
<title>Node46&#45;&gt;Node49</title>
<path fill="none" stroke="#191970" d="M52.4954,-221.8313C64.2762,-246.9335 88.8795,-290.4593 125,-310 196.1644,-348.4989 292.1751,-345.933 353.2246,-338.8252"/>
<polygon fill="#191970" stroke="#191970" points="55.6473,-220.3061 48.3597,-212.6158 49.2609,-223.1722 55.6473,-220.3061"/>
</g>
<!-- Node51 -->
<g id="node6" class="node">
<title>Node51</title>
<g id="a_node6"><a xlink:href="classMatrixElementCache.html#ad624534d20e42d8c4f495b51d6084057" target="_top" xlink:title="MatrixElementCache\l::getRadial">
<polygon fill="none" stroke="#000000" points="148.5,-270 148.5,-300 266.5,-300 266.5,-270 148.5,-270"/>
<text text-anchor="start" x="156.5" y="-288" font-family="Helvetica,sans-Serif" font-size="10.00" fill="#000000">MatrixElementCache</text>
<text text-anchor="middle" x="207.5" y="-277" font-family="Helvetica,sans-Serif" font-size="10.00" fill="#000000">::getRadial</text>
</a>
</g>
</g>
<!-- Node46&#45;&gt;Node51 -->
<g id="edge5" class="edge">
<title>Node46&#45;&gt;Node51</title>
<path fill="none" stroke="#191970" d="M65.8288,-218.6684C81.6179,-229.7894 103.9503,-244.5408 125,-255 136.1918,-260.561 148.6783,-265.6375 160.4819,-269.9693"/>
<polygon fill="#191970" stroke="#191970" points="67.517,-215.5727 57.3478,-212.5999 63.4436,-221.2654 67.517,-215.5727"/>
</g>
<!-- Node53 -->
<g id="node8" class="node">
<title>Node53</title>
<g id="a_node8"><a xlink:href="classStateOne.html#a0b5646c4160083ef4b24460e9159ad2c" target="_top" xlink:title="StateOne::getReflected">
<polygon fill="none" stroke="#000000" points="142.5,-193.5 142.5,-212.5 272.5,-212.5 272.5,-193.5 142.5,-193.5"/>
<text text-anchor="middle" x="207.5" y="-200.5" font-family="Helvetica,sans-Serif" font-size="10.00" fill="#000000">StateOne::getReflected</text>
</a>
</g>
</g>
<!-- Node46&#45;&gt;Node53 -->
<g id="edge7" class="edge">
<title>Node46&#45;&gt;Node53</title>
<path fill="none" stroke="#191970" d="M99.3183,-203C113.0894,-203 128.0029,-203 142.2288,-203"/>
<polygon fill="#191970" stroke="#191970" points="99.0405,-199.5001 89.0405,-203 99.0404,-206.5001 99.0405,-199.5001"/>
</g>
<!-- Node54 -->
<g id="node9" class="node">
<title>Node54</title>
<g id="a_node9"><a xlink:href="classSystemOne.html#a4278feede19c90186f22f37c1d5d53b2" target="_top" xlink:title="Method that allows base class to combine systems ///////////////. ">
<polygon fill="none" stroke="#000000" points="345.5,-215.5 345.5,-234.5 479.5,-234.5 479.5,-215.5 345.5,-215.5"/>
<text text-anchor="middle" x="412.5" y="-222.5" font-family="Helvetica,sans-Serif" font-size="10.00" fill="#000000">SystemOne::incorporate</text>
</a>
</g>
</g>
<!-- Node46&#45;&gt;Node54 -->
<g id="edge10" class="edge">
<title>Node46&#45;&gt;Node54</title>
<path fill="none" stroke="#191970" d="M87.3312,-214.963C99.4148,-217.8302 112.6387,-220.4956 125,-222 200.0687,-231.1362 286.9758,-230.5095 345.4187,-228.4755"/>
<polygon fill="#191970" stroke="#191970" points="88.0411,-211.5331 77.4931,-212.5281 86.3593,-218.3281 88.0411,-211.5331"/>
</g>
<!-- Node55 -->
<g id="node10" class="node">
<title>Node55</title>
<g id="a_node10"><a xlink:href="classSystemTwo.html#a7aa70b668bd55e25ba9ed8f9d037052c" target="_top" xlink:title="Method that allows base class to initialize Basis //////////////. ">
<polygon fill="none" stroke="#000000" points="339.5,-169.5 339.5,-188.5 485.5,-188.5 485.5,-169.5 339.5,-169.5"/>
<text text-anchor="middle" x="412.5" y="-176.5" font-family="Helvetica,sans-Serif" font-size="10.00" fill="#000000">SystemTwo::initializeBasis</text>
</a>
</g>
</g>
<!-- Node46&#45;&gt;Node55 -->
<g id="edge11" class="edge">
<title>Node46&#45;&gt;Node55</title>
<path fill="none" stroke="#191970" d="M87.665,-191.016C99.66,-188.1785 112.7553,-185.5335 125,-184 197.4432,-174.9276 280.9461,-174.5893 339.2288,-175.9666"/>
<polygon fill="#191970" stroke="#191970" points="86.7629,-187.6335 77.8908,-193.4246 88.4378,-194.4302 86.7629,-187.6335"/>
</g>
<!-- Node56 -->
<g id="node11" class="node">
<title>Node56</title>
<g id="a_node11"><a xlink:href="State_8cpp.html#ae62083584a93c249d0c3b4a6f046fee1" target="_top" xlink:title="operator\&lt;\&lt;">
<polygon fill="none" stroke="#000000" points="170.5,-117.5 170.5,-136.5 244.5,-136.5 244.5,-117.5 170.5,-117.5"/>
<text text-anchor="middle" x="207.5" y="-124.5" font-family="Helvetica,sans-Serif" font-size="10.00" fill="#000000">operator&lt;&lt;</text>
</a>
</g>
</g>
<!-- Node46&#45;&gt;Node56 -->
<g id="edge12" class="edge">
<title>Node46&#45;&gt;Node56</title>
<path fill="none" stroke="#191970" d="M65.3509,-187.1125C81.0563,-175.7617 103.4918,-160.8203 125,-151 139.2477,-144.4948 155.6866,-139.2884 170.1225,-135.4098"/>
<polygon fill="#191970" stroke="#191970" points="62.9108,-184.5631 56.9394,-193.3149 67.0651,-190.1971 62.9108,-184.5631"/>
</g>
<!-- Node57 -->
<g id="node12" class="node">
<title>Node57</title>
<g id="a_node12"><a xlink:href="MatrixElementCache_8h.html#a15aabd3025cfa0ca9485cd672c0a1a4a" target="_top" xlink:title="selectionRulesMomentumNew">
<polygon fill="none" stroke="#000000" points="125,-79.5 125,-98.5 290,-98.5 290,-79.5 125,-79.5"/>
<text text-anchor="middle" x="207.5" y="-86.5" font-family="Helvetica,sans-Serif" font-size="10.00" fill="#000000">selectionRulesMomentumNew</text>
</a>
</g>
</g>
<!-- Node46&#45;&gt;Node57 -->
<g id="edge13" class="edge">
<title>Node46&#45;&gt;Node57</title>
<path fill="none" stroke="#191970" d="M54.8513,-184.7939C68.1957,-163.046 93.4778,-127.2006 125,-108 131.4018,-104.1006 138.5272,-101.0008 145.8337,-98.5367"/>
<polygon fill="#191970" stroke="#191970" points="51.8239,-183.0372 49.7298,-193.4231 57.8435,-186.61 51.8239,-183.0372"/>
</g>
<!-- Node59 -->
<g id="node14" class="node">
<title>Node59</title>
<g id="a_node14"><a xlink:href="MatrixElementCache_8h.html#a06a268e07e2a0edb3fca096b8c941c78" target="_top" xlink:title="selectionRulesMultipoleNew">
<polygon fill="none" stroke="#000000" points="130,-41.5 130,-60.5 285,-60.5 285,-41.5 130,-41.5"/>
<text text-anchor="middle" x="207.5" y="-48.5" font-family="Helvetica,sans-Serif" font-size="10.00" fill="#000000">selectionRulesMultipoleNew</text>
</a>
</g>
</g>
<!-- Node46&#45;&gt;Node59 -->
<g id="edge17" class="edge">
<title>Node46&#45;&gt;Node59</title>
<path fill="none" stroke="#191970" d="M50.5635,-184.012C60.9214,-154.7623 84.8836,-99.031 125,-70 130.3582,-66.1224 136.3818,-63.021 142.6713,-60.5427"/>
<polygon fill="#191970" stroke="#191970" points="47.2458,-182.8973 47.3582,-193.4916 53.877,-185.1395 47.2458,-182.8973"/>
</g>
<!-- Node61 -->
<g id="node16" class="node">
<title>Node61</title>
<g id="a_node16"><a xlink:href="classStateOne.html#a5b05a258a43a682cfe7af5eb57d0221c" target="_top" xlink:title="Implementation of one&#45;atom state ///////////////////////////////. ">
<polygon fill="none" stroke="#000000" points="151,-3.5 151,-22.5 264,-22.5 264,-3.5 151,-3.5"/>
<text text-anchor="middle" x="207.5" y="-10.5" font-family="Helvetica,sans-Serif" font-size="10.00" fill="#000000">StateOne::StateOne</text>
</a>
</g>
</g>
<!-- Node46&#45;&gt;Node61 -->
<g id="edge21" class="edge">
<title>Node46&#45;&gt;Node61</title>
<path fill="none" stroke="#191970" d="M47.9634,-183.3016C55.3495,-147.4007 76.1363,-71.3999 125,-32 132.4371,-26.0033 141.4162,-21.8269 150.6748,-18.933"/>
<polygon fill="#191970" stroke="#191970" points="44.4631,-182.9714 46.0176,-193.4516 51.3379,-184.2894 44.4631,-182.9714"/>
</g>
<!-- Node50 -->
<g id="node5" class="node">
<title>Node50</title>
<g id="a_node5"><a xlink:href="classSystemOne.html#abf6d26d44765fa787251956c128644a7" target="_top" xlink:title="Method that allows base class to calculate the interaction /////. ">
<polygon fill="none" stroke="#000000" points="535,-104.5 535,-123.5 708,-123.5 708,-104.5 535,-104.5"/>
<text text-anchor="middle" x="621.5" y="-111.5" font-family="Helvetica,sans-Serif" font-size="10.00" fill="#000000">SystemOne::initializeInteraction</text>
</a>
</g>
</g>
<!-- Node49&#45;&gt;Node50 -->
<g id="edge4" class="edge">
<title>Node49&#45;&gt;Node50</title>
<path fill="none" stroke="#191970" d="M481.2991,-314.213C487.586,-311.3829 493.6075,-308.0128 499,-304 566.3812,-253.859 606.7114,-154.7771 618.1311,-123.6155"/>
<polygon fill="#191970" stroke="#191970" points="479.907,-311.0004 471.9403,-317.9849 482.5237,-317.4929 479.907,-311.0004"/>
</g>
<!-- Node52 -->
<g id="node7" class="node">
<title>Node52</title>
<g id="a_node7"><a xlink:href="classStateTwo.html#a10b237929cc9326382eef2b2d9db7eca" target="_top" xlink:title="StateTwo::getLeRoyRadius">
<polygon fill="none" stroke="#000000" points="339.5,-275.5 339.5,-294.5 485.5,-294.5 485.5,-275.5 339.5,-275.5"/>
<text text-anchor="middle" x="412.5" y="-282.5" font-family="Helvetica,sans-Serif" font-size="10.00" fill="#000000">StateTwo::getLeRoyRadius</text>
</a>
</g>
</g>
<!-- Node51&#45;&gt;Node52 -->
<g id="edge6" class="edge">
<title>Node51&#45;&gt;Node52</title>
<path fill="none" stroke="#191970" d="M276.5681,-285C296.7566,-285 318.8883,-285 339.3224,-285"/>
<polygon fill="#191970" stroke="#191970" points="276.5195,-281.5001 266.5195,-285 276.5194,-288.5001 276.5195,-281.5001"/>
</g>
<!-- Node53&#45;&gt;Node54 -->
<g id="edge8" class="edge">
<title>Node53&#45;&gt;Node54</title>
<path fill="none" stroke="#191970" d="M282.5978,-211.0593C303.1648,-213.2665 325.3203,-215.6441 345.4075,-217.7998"/>
<polygon fill="#191970" stroke="#191970" points="282.9614,-207.5783 272.645,-209.9912 282.2144,-214.5383 282.9614,-207.5783"/>
</g>
<!-- Node53&#45;&gt;Node55 -->
<g id="edge9" class="edge">
<title>Node53&#45;&gt;Node55</title>
<path fill="none" stroke="#191970" d="M282.7565,-194.1895C301.2231,-192.0275 320.9618,-189.7167 339.3286,-187.5664"/>
<polygon fill="#191970" stroke="#191970" points="282.1701,-190.7341 272.645,-195.3733 282.9841,-197.6867 282.1701,-190.7341"/>
</g>
<!-- Node57&#45;&gt;Node50 -->
<g id="edge14" class="edge">
<title>Node57&#45;&gt;Node50</title>
<path fill="none" stroke="#191970" d="M258.9347,-100.8528C290.0929,-108.0111 324.1967,-115.7972 326,-116 395.9725,-123.8707 475.8539,-122.727 534.9065,-119.9725"/>
<polygon fill="#191970" stroke="#191970" points="259.4965,-97.3907 248.9665,-98.5611 257.9281,-104.2127 259.4965,-97.3907"/>
</g>
<!-- Node58 -->
<g id="node13" class="node">
<title>Node58</title>
<g id="a_node13"><a xlink:href="classMatrixElementCache.html#a41efbe3c4a7e3e5f2ed2c807a0b3178e" target="_top" xlink:title="MatrixElementCache\l::precalculateDiamagnetism">
<polygon fill="none" stroke="#000000" points="335,-77 335,-107 490,-107 490,-77 335,-77"/>
<text text-anchor="start" x="343" y="-95" font-family="Helvetica,sans-Serif" font-size="10.00" fill="#000000">MatrixElementCache</text>
<text text-anchor="middle" x="412.5" y="-84" font-family="Helvetica,sans-Serif" font-size="10.00" fill="#000000">::precalculateDiamagnetism</text>
</a>
</g>
</g>
<!-- Node57&#45;&gt;Node58 -->
<g id="edge15" class="edge">
<title>Node57&#45;&gt;Node58</title>
<path fill="none" stroke="#191970" d="M300.3318,-90.3585C311.8227,-90.5267 323.4772,-90.6972 334.7106,-90.8616"/>
<polygon fill="#191970" stroke="#191970" points="300.3406,-86.8584 290.2904,-90.2116 300.2381,-93.8576 300.3406,-86.8584"/>
</g>
<!-- Node58&#45;&gt;Node50 -->
<g id="edge16" class="edge">
<title>Node58&#45;&gt;Node50</title>
<path fill="none" stroke="#191970" d="M500.0779,-101.2187C511.6146,-102.4331 523.4341,-103.6773 534.9535,-104.8898"/>
<polygon fill="#191970" stroke="#191970" points="500.3384,-97.7269 490.0269,-100.1607 499.6055,-104.6884 500.3384,-97.7269"/>
</g>
<!-- Node59&#45;&gt;Node50 -->
<g id="edge19" class="edge">
<title>Node59&#45;&gt;Node50</title>
<path fill="none" stroke="#191970" d="M295.3716,-48.7536C353.7161,-48.9841 431.6703,-52.6074 499,-67 536.8687,-75.0949 578.463,-93.1648 602.1355,-104.3919"/>
<polygon fill="#191970" stroke="#191970" points="295.0831,-45.2535 285.0809,-48.7471 295.0787,-52.2535 295.0831,-45.2535"/>
</g>
<!-- Node59&#45;&gt;Node58 -->
<g id="edge20" class="edge">
<title>Node59&#45;&gt;Node58</title>
<path fill="none" stroke="#191970" d="M265.0455,-62.5091C287.3972,-66.9794 313.3055,-72.1611 337.1116,-76.9223"/>
<polygon fill="#191970" stroke="#191970" points="265.5386,-59.0385 255.0464,-60.5093 264.1658,-65.9026 265.5386,-59.0385"/>
</g>
<!-- Node60 -->
<g id="node15" class="node">
<title>Node60</title>
<g id="a_node15"><a xlink:href="classSystemTwo.html#a5cc89c42ab8066027b0c375b818c8333" target="_top" xlink:title="Method that allows base class to calculate the interaction /////. ">
<polygon fill="none" stroke="#000000" points="326,-.5 326,-19.5 499,-19.5 499,-.5 326,-.5"/>
<text text-anchor="middle" x="412.5" y="-7.5" font-family="Helvetica,sans-Serif" font-size="10.00" fill="#000000">SystemTwo::initializeInteraction</text>
</a>
</g>
</g>
<!-- Node59&#45;&gt;Node60 -->
<g id="edge18" class="edge">
<title>Node59&#45;&gt;Node60</title>
<path fill="none" stroke="#191970" d="M265.003,-39.4994C296.4963,-33.2007 335.0605,-25.4879 364.8568,-19.5286"/>
<polygon fill="#191970" stroke="#191970" points="264.1658,-36.0974 255.0464,-41.4907 265.5386,-42.9615 264.1658,-36.0974"/>
</g>
</g>
</svg>
        <g id="navigator" transform="translate(0 0)" fill="#404254">
                <rect fill="#f2f5e9" fill-opacity="0.5" stroke="#606060" stroke-width=".5" x="0" y="0" width="60" height="60"/>
                <use id="zoomplus" xlink:href="#zoomPlus" x="17" y="9" onmousedown="handleZoom(evt,'in')"/>
                <use id="zoomminus" xlink:href="#zoomMin" x="42" y="9" onmousedown="handleZoom(evt,'out')"/>
                <use id="reset" xlink:href="#resetDef" x="30" y="36" onmousedown="handleReset()"/>
                <g id="arrowUp" xlink:href="#dirArrow" transform="translate(30 24)" onmousedown="handlePan(0,-1)">
                  <use xlink:href="#rim" fill="#404040">
                        <set attributeName="fill" to="#808080" begin="arrowUp.mouseover" end="arrowUp.mouseout"/>
                  </use>
                  <path fill="none" stroke="white" stroke-width="1.5" d="M0,-3.0v7 M-2.5,-0.5L0,-3.0L2.5,-0.5"/>
                </g>
                <g id="arrowRight" xlink:href="#dirArrow" transform="rotate(90) translate(36 -43)" onmousedown="handlePan(1,0)">
                  <use xlink:href="#rim" fill="#404040">
                        <set attributeName="fill" to="#808080" begin="arrowRight.mouseover" end="arrowRight.mouseout"/>
                  </use>
                  <path fill="none" stroke="white" stroke-width="1.5" d="M0,-3.0v7 M-2.5,-0.5L0,-3.0L2.5,-0.5"/>
                </g>
                <g id="arrowDown" xlink:href="#dirArrow" transform="rotate(180) translate(-30 -48)" onmousedown="handlePan(0,1)">
                  <use xlink:href="#rim" fill="#404040">
                        <set attributeName="fill" to="#808080" begin="arrowDown.mouseover" end="arrowDown.mouseout"/>
                  </use>
                  <path fill="none" stroke="white" stroke-width="1.5" d="M0,-3.0v7 M-2.5,-0.5L0,-3.0L2.5,-0.5"/>
                </g>
                <g id="arrowLeft" xlink:href="#dirArrow" transform="rotate(270) translate(-36 17)" onmousedown="handlePan(-1,0)">
                  <use xlink:href="#rim" fill="#404040">
                        <set attributeName="fill" to="#808080" begin="arrowLeft.mouseover" end="arrowLeft.mouseout"/>
                  </use>
                  <path fill="none" stroke="white" stroke-width="1.5" d="M0,-3.0v7 M-2.5,-0.5L0,-3.0L2.5,-0.5"/>
                </g>
        </g>
        <svg viewBox="0 0 15 15" width="100%" height="30px" preserveAspectRatio="xMaxYMin meet">
         <g id="arrow_out" transform="scale(0.3 0.3)">
          <a xlink:href="classStateOne_a3783cebe5bbd63f072caf8450fea4aca_icgraph_org.svg" target="_base">
           <rect id="button" ry="5" rx="5" y="6" x="6" height="38" width="38"
                fill="#f2f5e9" fill-opacity="0.5" stroke="#606060" stroke-width="1.0"/>
           <path id="arrow"
             d="M 11.500037,31.436501 C 11.940474,20.09759 22.043105,11.32322 32.158766,21.979434 L 37.068811,17.246167 C 37.068811,17.246167 37.088388,32 37.088388,32 L 22.160133,31.978069 C 22.160133,31.978069 26.997745,27.140456 26.997745,27.140456 C 18.528582,18.264221 13.291696,25.230495 11.500037,31.436501 z"
             style="fill:#404040;"/>
          </a>
         </g>
        </svg>
</svg>
