<?xml version="1.0" encoding="UTF-8" standalone="no"?>
<!DOCTYPE svg PUBLIC "-//W3C//DTD SVG 1.1//EN"
 "http://www.w3.org/Graphics/SVG/1.1/DTD/svg11.dtd">
<!-- Generated by graphviz version 2.40.1 (20161225.0304)
 -->
<!-- Title: Basisnames::configure Pages: 1 -->
<svg width="730pt" height="104pt"
 viewBox="0.00 0.00 730.00 104.00" xmlns="http://www.w3.org/2000/svg" xmlns:xlink="http://www.w3.org/1999/xlink">
<g id="graph0" class="graph" transform="scale(1 1) rotate(0) translate(4 100)">
<title>Basisnames::configure</title>
<!-- Node5 -->
<g id="node1" class="node">
<title>Node5</title>
<polygon fill="#bfbfbf" stroke="#000000" points="0,-38.5 0,-57.5 128,-57.5 128,-38.5 0,-38.5"/>
<text text-anchor="middle" x="64" y="-45.5" font-family="Helvetica,sans-Serif" font-size="10.00" fill="#000000">Basisnames::configure</text>
</g>
<!-- Node6 -->
<g id="node2" class="node">
<title>Node6</title>
<g id="a_node2"><a xlink:href="classBasisnamesOne.html#ab3030f74ccafcc178f38e7a8ada13b9b" target="_top" xlink:title="BasisnamesOne::fromBoth">
<polygon fill="none" stroke="#000000" points="170.5,-76.5 170.5,-95.5 317.5,-95.5 317.5,-76.5 170.5,-76.5"/>
<text text-anchor="middle" x="244" y="-83.5" font-family="Helvetica,sans-Serif" font-size="10.00" fill="#000000">BasisnamesOne::fromBoth</text>
</a>
</g>
</g>
<!-- Node5&#45;&gt;Node6 -->
<g id="edge1" class="edge">
<title>Node5&#45;&gt;Node6</title>
<path fill="none" stroke="#191970" d="M119.331,-59.681C144.8574,-65.0699 174.7761,-71.3861 198.905,-76.4799"/>
<polygon fill="#191970" stroke="#191970" points="119.9289,-56.2301 109.4216,-57.589 118.483,-63.0792 119.9289,-56.2301"/>
</g>
<!-- Node9 -->
<g id="node5" class="node">
<title>Node9</title>
<g id="a_node5"><a xlink:href="classBasisnamesOne.html#a37fe3571090885a8a594eed4019befa9" target="_top" xlink:title="BasisnamesOne::fromFirst">
<polygon fill="none" stroke="#000000" points="171,-.5 171,-19.5 317,-19.5 317,-.5 171,-.5"/>
<text text-anchor="middle" x="244" y="-7.5" font-family="Helvetica,sans-Serif" font-size="10.00" fill="#000000">BasisnamesOne::fromFirst</text>
</a>
</g>
</g>
<!-- Node5&#45;&gt;Node9 -->
<g id="edge4" class="edge">
<title>Node5&#45;&gt;Node9</title>
<path fill="none" stroke="#191970" d="M119.331,-36.319C144.8574,-30.9301 174.7761,-24.6139 198.905,-19.5201"/>
<polygon fill="#191970" stroke="#191970" points="118.483,-32.9208 109.4216,-38.411 119.9289,-39.7699 118.483,-32.9208"/>
</g>
<!-- Node12 -->
<g id="node8" class="node">
<title>Node12</title>
<g id="a_node8"><a xlink:href="classBasisnamesOne.html#a683ae34cba3c56f9a0185e932de62078" target="_top" xlink:title="BasisnamesOne::fromSecond">
<polygon fill="none" stroke="#000000" points="164,-38.5 164,-57.5 324,-57.5 324,-38.5 164,-38.5"/>
<text text-anchor="middle" x="244" y="-45.5" font-family="Helvetica,sans-Serif" font-size="10.00" fill="#000000">BasisnamesOne::fromSecond</text>
</a>
</g>
</g>
<!-- Node5&#45;&gt;Node12 -->
<g id="edge8" class="edge">
<title>Node5&#45;&gt;Node12</title>
<path fill="none" stroke="#191970" d="M138.3366,-48C146.7217,-48 155.294,-48 163.7501,-48"/>
<polygon fill="#191970" stroke="#191970" points="138.2218,-44.5001 128.2218,-48 138.2218,-51.5001 138.2218,-44.5001"/>
</g>
<!-- Node7 -->
<g id="node3" class="node">
<title>Node7</title>
<g id="a_node3"><a xlink:href="Interface_8h.html#ad478f0b9610586a2ae8066c78b6d3f96" target="_top" xlink:title="compute">
<polygon fill="none" stroke="#000000" points="403.5,-38.5 403.5,-57.5 462.5,-57.5 462.5,-38.5 403.5,-38.5"/>
<text text-anchor="middle" x="433" y="-45.5" font-family="Helvetica,sans-Serif" font-size="10.00" fill="#000000">compute</text>
</a>
</g>
</g>
<!-- Node6&#45;&gt;Node7 -->
<g id="edge2" class="edge">
<title>Node6&#45;&gt;Node7</title>
<path fill="none" stroke="#191970" d="M301.8461,-74.3696C335.3919,-67.6249 376.2301,-59.414 403.3324,-53.9649"/>
<polygon fill="#191970" stroke="#191970" points="300.8066,-71.0084 291.6927,-76.411 302.1864,-77.8711 300.8066,-71.0084"/>
</g>
<!-- Node8 -->
<g id="node4" class="node">
<title>Node8</title>
<g id="a_node4"><a xlink:href="main_8cpp.html#a3c04138a5bfe5d72780bb7e82a18e627" target="_top" xlink:title="main">
<polygon fill="none" stroke="#000000" points="611.5,-38.5 611.5,-57.5 652.5,-57.5 652.5,-38.5 611.5,-38.5"/>
<text text-anchor="middle" x="632" y="-45.5" font-family="Helvetica,sans-Serif" font-size="10.00" fill="#000000">main</text>
</a>
</g>
</g>
<!-- Node7&#45;&gt;Node8 -->
<g id="edge3" class="edge">
<title>Node7&#45;&gt;Node8</title>
<path fill="none" stroke="#191970" d="M472.9177,-48C514.7585,-48 578.8509,-48 611.4378,-48"/>
<polygon fill="#191970" stroke="#191970" points="472.7923,-44.5001 462.7923,-48 472.7923,-51.5001 472.7923,-44.5001"/>
</g>
<!-- Node9&#45;&gt;Node7 -->
<g id="edge7" class="edge">
<title>Node9&#45;&gt;Node7</title>
<path fill="none" stroke="#191970" d="M301.8461,-21.6304C335.3919,-28.3751 376.2301,-36.586 403.3324,-42.0351"/>
<polygon fill="#191970" stroke="#191970" points="302.1864,-18.1289 291.6927,-19.589 300.8066,-24.9916 302.1864,-18.1289"/>
</g>
<!-- Node10 -->
<g id="node6" class="node">
<title>Node10</title>
<g id="a_node6"><a xlink:href="classHamiltonianTwo.html#a6ca0a318f25170b69e571a07064a5afb" target="_top" xlink:title="HamiltonianTwo::calculate">
<polygon fill="none" stroke="#000000" points="360,-.5 360,-19.5 506,-19.5 506,-.5 360,-.5"/>
<text text-anchor="middle" x="433" y="-7.5" font-family="Helvetica,sans-Serif" font-size="10.00" fill="#000000">HamiltonianTwo::calculate</text>
</a>
</g>
</g>
<!-- Node9&#45;&gt;Node10 -->
<g id="edge5" class="edge">
<title>Node9&#45;&gt;Node10</title>
<path fill="none" stroke="#191970" d="M327.3592,-10C338.1713,-10 349.1806,-10 359.8104,-10"/>
<polygon fill="#191970" stroke="#191970" points="327.0724,-6.5001 317.0723,-10 327.0723,-13.5001 327.0724,-6.5001"/>
</g>
<!-- Node11 -->
<g id="node7" class="node">
<title>Node11</title>
<g id="a_node7"><a xlink:href="classHamiltonianTwo.html#abd374713c9b38f72265c7fe496c42b96" target="_top" xlink:title="HamiltonianTwo::HamiltonianTwo">
<polygon fill="none" stroke="#000000" points="542,-.5 542,-19.5 722,-19.5 722,-.5 542,-.5"/>
<text text-anchor="middle" x="632" y="-7.5" font-family="Helvetica,sans-Serif" font-size="10.00" fill="#000000">HamiltonianTwo::HamiltonianTwo</text>
</a>
</g>
</g>
<!-- Node10&#45;&gt;Node11 -->
<g id="edge6" class="edge">
<title>Node10&#45;&gt;Node11</title>
<path fill="none" stroke="#191970" d="M516.3577,-10C524.7192,-10 533.237,-10 541.6663,-10"/>
<polygon fill="#191970" stroke="#191970" points="516.2525,-6.5001 506.2525,-10 516.2524,-13.5001 516.2525,-6.5001"/>
</g>
<!-- Node12&#45;&gt;Node7 -->
<g id="edge10" class="edge">
<title>Node12&#45;&gt;Node7</title>
<path fill="none" stroke="#191970" d="M334.3713,-48C359.1889,-48 384.3869,-48 403.1013,-48"/>
<polygon fill="#191970" stroke="#191970" points="334.153,-44.5001 324.153,-48 334.153,-51.5001 334.153,-44.5001"/>
</g>
<!-- Node12&#45;&gt;Node10 -->
<g id="edge9" class="edge">
<title>Node12&#45;&gt;Node10</title>
<path fill="none" stroke="#191970" d="M301.742,-36.3905C328.6222,-30.986 360.2028,-24.6365 385.6503,-19.5201"/>
<polygon fill="#191970" stroke="#191970" points="300.8066,-33.0084 291.6927,-38.411 302.1864,-39.8711 300.8066,-33.0084"/>
</g>
</g>
</svg>
