<?xml version="1.0" encoding="UTF-8" standalone="no"?>
<!DOCTYPE svg PUBLIC "-//W3C//DTD SVG 1.1//EN"
 "http://www.w3.org/Graphics/SVG/1.1/DTD/svg11.dtd">
<!-- Generated by graphviz version 2.40.1 (20161225.0304)
 -->
<!-- Title: BasisnamesOne::fromBoth Pages: 1 -->
<svg width="499pt" height="142pt"
 viewBox="0.00 0.00 499.00 142.00" xmlns="http://www.w3.org/2000/svg" xmlns:xlink="http://www.w3.org/1999/xlink">
<g id="graph0" class="graph" transform="scale(1 1) rotate(0) translate(4 138)">
<title>BasisnamesOne::fromBoth</title>
<!-- Node2 -->
<g id="node1" class="node">
<title>Node2</title>
<polygon fill="#bfbfbf" stroke="#000000" points="0,-57.5 0,-76.5 147,-76.5 147,-57.5 0,-57.5"/>
<text text-anchor="middle" x="73.5" y="-64.5" font-family="Helvetica,sans-Serif" font-size="10.00" fill="#000000">BasisnamesOne::fromBoth</text>
</g>
<!-- Node3 -->
<g id="node2" class="node">
<title>Node3</title>
<g id="a_node2"><a xlink:href="classBasisnames.html#a534f7e2dcc2987a1f969cb89c070da04" target="_top" xlink:title="Basisnames::configure">
<polygon fill="none" stroke="#000000" points="183,-114.5 183,-133.5 311,-133.5 311,-114.5 183,-114.5"/>
<text text-anchor="middle" x="247" y="-121.5" font-family="Helvetica,sans-Serif" font-size="10.00" fill="#000000">Basisnames::configure</text>
</a>
</g>
</g>
<!-- Node2&#45;&gt;Node3 -->
<g id="edge1" class="edge">
<title>Node2&#45;&gt;Node3</title>
<path fill="none" stroke="#191970" d="M102.54,-76.5405C131.4395,-86.0349 175.977,-100.6668 207.9586,-111.1737"/>
<polygon fill="#191970" stroke="#191970" points="207.2724,-114.6323 217.8653,-114.4284 209.4573,-107.982 207.2724,-114.6323"/>
</g>
<!-- Node4 -->
<g id="node3" class="node">
<title>Node4</title>
<g id="a_node3"><a xlink:href="classStateTwoOld.html#aad5fb4307dec316a5b602c2e8bfae0a8" target="_top" xlink:title="StateTwoOld::first">
<polygon fill="none" stroke="#000000" points="367.5,-76.5 367.5,-95.5 470.5,-95.5 470.5,-76.5 367.5,-76.5"/>
<text text-anchor="middle" x="419" y="-83.5" font-family="Helvetica,sans-Serif" font-size="10.00" fill="#000000">StateTwoOld::first</text>
</a>
</g>
</g>
<!-- Node2&#45;&gt;Node4 -->
<g id="edge2" class="edge">
<title>Node2&#45;&gt;Node4</title>
<path fill="none" stroke="#191970" d="M147.1946,-71.0527C209.6385,-74.4866 298.1626,-79.3548 357.0196,-82.5915"/>
<polygon fill="#191970" stroke="#191970" points="357.1112,-86.1018 367.2883,-83.1562 357.4956,-79.1123 357.1112,-86.1018"/>
</g>
<!-- Node5 -->
<g id="node4" class="node">
<title>Node5</title>
<g id="a_node4"><a xlink:href="classStateTwoOld.html#a1d7ff079f51711e8a6f40946e5677be8" target="_top" xlink:title="StateTwoOld::order">
<polygon fill="none" stroke="#000000" points="192.5,-38.5 192.5,-57.5 301.5,-57.5 301.5,-38.5 192.5,-38.5"/>
<text text-anchor="middle" x="247" y="-45.5" font-family="Helvetica,sans-Serif" font-size="10.00" fill="#000000">StateTwoOld::order</text>
</a>
</g>
</g>
<!-- Node2&#45;&gt;Node5 -->
<g id="edge3" class="edge">
<title>Node2&#45;&gt;Node5</title>
<path fill="none" stroke="#191970" d="M147.0796,-58.9423C158.6764,-57.6723 170.5946,-56.3672 181.9792,-55.1204"/>
<polygon fill="#191970" stroke="#191970" points="182.7003,-58.5625 192.2598,-53.9946 181.9382,-51.6041 182.7003,-58.5625"/>
</g>
<!-- Node7 -->
<g id="node6" class="node">
<title>Node7</title>
<g id="a_node6"><a xlink:href="classStateTwoOld.html#a6efa9c8f92e433004b778f6f5ce212d9" target="_top" xlink:title="StateTwoOld::second">
<polygon fill="none" stroke="#000000" points="360,-.5 360,-19.5 478,-19.5 478,-.5 360,-.5"/>
<text text-anchor="middle" x="419" y="-7.5" font-family="Helvetica,sans-Serif" font-size="10.00" fill="#000000">StateTwoOld::second</text>
</a>
</g>
</g>
<!-- Node2&#45;&gt;Node7 -->
<g id="edge7" class="edge">
<title>Node2&#45;&gt;Node7</title>
<path fill="none" stroke="#191970" d="M95.6756,-57.4326C117.4677,-48.4822 151.8862,-35.5401 183,-29 238.277,-17.3809 302.2109,-12.7611 349.5805,-10.9742"/>
<polygon fill="#191970" stroke="#191970" points="349.8565,-14.4669 359.7302,-10.625 349.6158,-7.4711 349.8565,-14.4669"/>
</g>
<!-- Node5&#45;&gt;Node4 -->
<g id="edge6" class="edge">
<title>Node5&#45;&gt;Node4</title>
<path fill="none" stroke="#191970" d="M290.4029,-57.589C313.4068,-62.6713 341.8509,-68.9554 366.1342,-74.3203"/>
<polygon fill="#191970" stroke="#191970" points="365.3896,-77.7402 375.9092,-76.4799 366.8998,-70.905 365.3896,-77.7402"/>
</g>
<!-- Node6 -->
<g id="node5" class="node">
<title>Node6</title>
<g id="a_node5"><a xlink:href="classStateTwoOld.html#a33b595b744249754cb86bde5cd125c06" target="_top" xlink:title="StateTwoOld::StateTwoOld">
<polygon fill="none" stroke="#000000" points="347,-38.5 347,-57.5 491,-57.5 491,-38.5 347,-38.5"/>
<text text-anchor="middle" x="419" y="-45.5" font-family="Helvetica,sans-Serif" font-size="10.00" fill="#000000">StateTwoOld::StateTwoOld</text>
</a>
</g>
</g>
<!-- Node5&#45;&gt;Node6 -->
<g id="edge4" class="edge">
<title>Node5&#45;&gt;Node6</title>
<path fill="none" stroke="#191970" d="M301.8948,-48C312.9206,-48 324.7347,-48 336.4629,-48"/>
<polygon fill="#191970" stroke="#191970" points="336.7253,-51.5001 346.7253,-48 336.7253,-44.5001 336.7253,-51.5001"/>
</g>
<!-- Node5&#45;&gt;Node7 -->
<g id="edge5" class="edge">
<title>Node5&#45;&gt;Node7</title>
<path fill="none" stroke="#191970" d="M290.4029,-38.411C313.4068,-33.3287 341.8509,-27.0446 366.1342,-21.6797"/>
<polygon fill="#191970" stroke="#191970" points="366.8998,-25.095 375.9092,-19.5201 365.3896,-18.2598 366.8998,-25.095"/>
</g>
</g>
</svg>
