<?xml version="1.0" encoding="UTF-8" standalone="no"?>
<!DOCTYPE svg PUBLIC "-//W3C//DTD SVG 1.1//EN"
 "http://www.w3.org/Graphics/SVG/1.1/DTD/svg11.dtd">
<!-- Generated by graphviz version 2.40.1 (20161225.0304)
 -->
<!-- Title: Hamiltonianmatrix::save Pages: 1 -->
<!--zoomable 78 -->
<svg id="main" version="1.1" xmlns="http://www.w3.org/2000/svg" xmlns:xlink="http://www.w3.org/1999/xlink" xml:space="preserve" onload="init(evt)">
<style type="text/css"><![CDATA[
.edge:hover path { stroke: red; }
.edge:hover polygon { stroke: red; fill: red; }
]]></style>
<script type="text/javascript"><![CDATA[
var edges = document.getElementsByTagName('g');
if (edges && edges.length) {
  for (var i=0;i<edges.length;i++) {
    if (edges[i].id.substr(0,4)=='edge') {
      edges[i].setAttribute('class','edge');
    }
  }
}
]]></script>
        <defs>
                <circle id="rim" cx="0" cy="0" r="7"/>
                <circle id="rim2" cx="0" cy="0" r="3.5"/>
                <g id="zoomPlus">
                        <use xlink:href="#rim" fill="#404040">
                                <set attributeName="fill" to="#808080" begin="zoomplus.mouseover" end="zoomplus.mouseout"/>
                        </use>
                        <path d="M-4,0h8M0,-4v8" fill="none" stroke="white" stroke-width="1.5" pointer-events="none"/>
                </g>
                <g id="zoomMin">
                        <use xlink:href="#rim" fill="#404040">
                                <set attributeName="fill" to="#808080" begin="zoomminus.mouseover" end="zoomminus.mouseout"/>
                        </use>
                        <path d="M-4,0h8" fill="none" stroke="white" stroke-width="1.5" pointer-events="none"/>
                </g>
                <g id="dirArrow">
                        <path fill="none" stroke="white" stroke-width="1.5" d="M0,-3.0v7 M-2.5,-0.5L0,-3.0L2.5,-0.5"/>
                </g>
               <g id="resetDef">
                       <use xlink:href="#rim2" fill="#404040">
                               <set attributeName="fill" to="#808080" begin="reset.mouseover" end="reset.mouseout"/>
                       </use>
               </g>
        </defs>

<script type="text/javascript">
var viewWidth = 605;
var viewHeight = 78;
var sectionId = 'dynsection-32';
</script>
<script xlink:href="svgpan.js"/>
<svg id="graph" class="graph">
<g id="viewport">
<title>Hamiltonianmatrix::save</title>
<!-- Node183 -->
<g id="node1" class="node">
<title>Node183</title>
<polygon fill="#bfbfbf" stroke="#000000" points="0,-28 0,-47 138,-47 138,-28 0,-28"/>
<text text-anchor="middle" x="69" y="-35" font-family="Helvetica,sans-Serif" font-size="10.00" fill="#000000">Hamiltonianmatrix::save</text>
</g>
<!-- Node184 -->
<g id="node2" class="node">
<title>Node184</title>
<g id="a_node2"><a xlink:href="classHamiltonianmatrix.html#aa8d50e3585a18628f4abbb5bcede4bbb" target="_top" xlink:title="Hamiltonianmatrix::\ldoSerialization">
<polygon fill="none" stroke="#000000" points="174,-22.5 174,-52.5 289,-52.5 289,-22.5 174,-22.5"/>
<text text-anchor="start" x="182" y="-40.5" font-family="Helvetica,sans-Serif" font-size="10.00" fill="#000000">Hamiltonianmatrix::</text>
<text text-anchor="middle" x="231.5" y="-29.5" font-family="Helvetica,sans-Serif" font-size="10.00" fill="#000000">doSerialization</text>
</a>
</g>
</g>
<!-- Node183&#45;&gt;Node184 -->
<g id="edge1" class="edge">
<title>Node183&#45;&gt;Node184</title>
<path fill="none" stroke="#191970" d="M138.386,-37.5C146.7879,-37.5 155.3629,-37.5 163.7409,-37.5"/>
<polygon fill="#191970" stroke="#191970" points="163.8378,-41.0001 173.8378,-37.5 163.8377,-34.0001 163.8378,-41.0001"/>
</g>
<!-- Node185 -->
<g id="node3" class="node">
<title>Node185</title>
<g id="a_node3"><a xlink:href="classSerializer.html#a79a572d0a14988acd13217beb7d5547b" target="_top" xlink:title="Serializer::save">
<polygon fill="none" stroke="#000000" points="336.5,-50 336.5,-69 428.5,-69 428.5,-50 336.5,-50"/>
<text text-anchor="middle" x="382.5" y="-57" font-family="Helvetica,sans-Serif" font-size="10.00" fill="#000000">Serializer::save</text>
</a>
</g>
</g>
<!-- Node184&#45;&gt;Node185 -->
<g id="edge2" class="edge">
<title>Node184&#45;&gt;Node185</title>
<path fill="none" stroke="#191970" d="M289.0174,-45.88C301.2586,-47.6635 314.1696,-49.5446 326.3586,-51.3205"/>
<polygon fill="#191970" stroke="#191970" points="325.9969,-54.8046 336.397,-52.783 327.0061,-47.8778 325.9969,-54.8046"/>
</g>
<!-- Node187 -->
<g id="node5" class="node">
<title>Node187</title>
<g id="a_node5"><a xlink:href="classHamiltonianmatrix.html#a035cf5188e89f3f4230beb502a718ea9" target="_top" xlink:title="Hamiltonianmatrix::\lsplitComplex">
<polygon fill="none" stroke="#000000" points="325,-.5 325,-30.5 440,-30.5 440,-.5 325,-.5"/>
<text text-anchor="start" x="333" y="-18.5" font-family="Helvetica,sans-Serif" font-size="10.00" fill="#000000">Hamiltonianmatrix::</text>
<text text-anchor="middle" x="382.5" y="-7.5" font-family="Helvetica,sans-Serif" font-size="10.00" fill="#000000">splitComplex</text>
</a>
</g>
</g>
<!-- Node184&#45;&gt;Node187 -->
<g id="edge4" class="edge">
<title>Node184&#45;&gt;Node187</title>
<path fill="none" stroke="#191970" d="M289.0174,-29.12C297.4639,-27.8894 306.2292,-26.6123 314.8561,-25.3554"/>
<polygon fill="#191970" stroke="#191970" points="315.5016,-28.7984 324.8925,-23.8931 314.4924,-21.8715 315.5016,-28.7984"/>
</g>
<!-- Node186 -->
<g id="node4" class="node">
<title>Node186</title>
<g id="a_node4"><a xlink:href="classSerializable.html#ad0b89a7563e6a98df7eb6a8a46c51735" target="_top" xlink:title="Serializable::serialize">
<polygon fill="none" stroke="#000000" points="476,-50 476,-69 597,-69 597,-50 476,-50"/>
<text text-anchor="middle" x="536.5" y="-57" font-family="Helvetica,sans-Serif" font-size="10.00" fill="#000000">Serializable::serialize</text>
</a>
</g>
</g>
<!-- Node185&#45;&gt;Node186 -->
<g id="edge3" class="edge">
<title>Node185&#45;&gt;Node186</title>
<path fill="none" stroke="#191970" d="M428.7051,-59.5C440.3798,-59.5 453.1854,-59.5 465.7663,-59.5"/>
<polygon fill="#191970" stroke="#191970" points="465.782,-63.0001 475.7819,-59.5 465.7819,-56.0001 465.782,-63.0001"/>
</g>
</g>
</svg>
        <g id="navigator" transform="translate(0 0)" fill="#404254">
                <rect fill="#f2f5e9" fill-opacity="0.5" stroke="#606060" stroke-width=".5" x="0" y="0" width="60" height="60"/>
                <use id="zoomplus" xlink:href="#zoomPlus" x="17" y="9" onmousedown="handleZoom(evt,'in')"/>
                <use id="zoomminus" xlink:href="#zoomMin" x="42" y="9" onmousedown="handleZoom(evt,'out')"/>
                <use id="reset" xlink:href="#resetDef" x="30" y="36" onmousedown="handleReset()"/>
                <g id="arrowUp" xlink:href="#dirArrow" transform="translate(30 24)" onmousedown="handlePan(0,-1)">
                  <use xlink:href="#rim" fill="#404040">
                        <set attributeName="fill" to="#808080" begin="arrowUp.mouseover" end="arrowUp.mouseout"/>
                  </use>
                  <path fill="none" stroke="white" stroke-width="1.5" d="M0,-3.0v7 M-2.5,-0.5L0,-3.0L2.5,-0.5"/>
                </g>
                <g id="arrowRight" xlink:href="#dirArrow" transform="rotate(90) translate(36 -43)" onmousedown="handlePan(1,0)">
                  <use xlink:href="#rim" fill="#404040">
                        <set attributeName="fill" to="#808080" begin="arrowRight.mouseover" end="arrowRight.mouseout"/>
                  </use>
                  <path fill="none" stroke="white" stroke-width="1.5" d="M0,-3.0v7 M-2.5,-0.5L0,-3.0L2.5,-0.5"/>
                </g>
                <g id="arrowDown" xlink:href="#dirArrow" transform="rotate(180) translate(-30 -48)" onmousedown="handlePan(0,1)">
                  <use xlink:href="#rim" fill="#404040">
                        <set attributeName="fill" to="#808080" begin="arrowDown.mouseover" end="arrowDown.mouseout"/>
                  </use>
                  <path fill="none" stroke="white" stroke-width="1.5" d="M0,-3.0v7 M-2.5,-0.5L0,-3.0L2.5,-0.5"/>
                </g>
                <g id="arrowLeft" xlink:href="#dirArrow" transform="rotate(270) translate(-36 17)" onmousedown="handlePan(-1,0)">
                  <use xlink:href="#rim" fill="#404040">
                        <set attributeName="fill" to="#808080" begin="arrowLeft.mouseover" end="arrowLeft.mouseout"/>
                  </use>
                  <path fill="none" stroke="white" stroke-width="1.5" d="M0,-3.0v7 M-2.5,-0.5L0,-3.0L2.5,-0.5"/>
                </g>
        </g>
        <svg viewBox="0 0 15 15" width="100%" height="30px" preserveAspectRatio="xMaxYMin meet">
         <g id="arrow_out" transform="scale(0.3 0.3)">
          <a xlink:href="classHamiltonianmatrix_a9e77fcca733a19f250dd619799edc9e6_cgraph_org.svg" target="_base">
           <rect id="button" ry="5" rx="5" y="6" x="6" height="38" width="38"
                fill="#f2f5e9" fill-opacity="0.5" stroke="#606060" stroke-width="1.0"/>
           <path id="arrow"
             d="M 11.500037,31.436501 C 11.940474,20.09759 22.043105,11.32322 32.158766,21.979434 L 37.068811,17.246167 C 37.068811,17.246167 37.088388,32 37.088388,32 L 22.160133,31.978069 C 22.160133,31.978069 26.997745,27.140456 26.997745,27.140456 C 18.528582,18.264221 13.291696,25.230495 11.500037,31.436501 z"
             style="fill:#404040;"/>
          </a>
         </g>
        </svg>
</svg>
