<?xml version="1.0" encoding="UTF-8" standalone="no"?>
<!DOCTYPE svg PUBLIC "-//W3C//DTD SVG 1.1//EN"
 "http://www.w3.org/Graphics/SVG/1.1/DTD/svg11.dtd">
<!-- Generated by graphviz version 2.40.1 (20161225.0304)
 -->
<!-- Title: Hamiltonianmatrix::Hamiltonianmatrix Pages: 1 -->
<svg width="689pt" height="127pt"
 viewBox="0.00 0.00 689.00 126.50" xmlns="http://www.w3.org/2000/svg" xmlns:xlink="http://www.w3.org/1999/xlink">
<g id="graph0" class="graph" transform="scale(1 1) rotate(0) translate(4 122.5)">
<title>Hamiltonianmatrix::Hamiltonianmatrix</title>
<!-- Node1 -->
<g id="node1" class="node">
<title>Node1</title>
<polygon fill="#bfbfbf" stroke="#000000" points="0,-49.5 0,-79.5 115,-79.5 115,-49.5 0,-49.5"/>
<text text-anchor="start" x="8" y="-67.5" font-family="Helvetica,sans-Serif" font-size="10.00" fill="#000000">Hamiltonianmatrix::</text>
<text text-anchor="middle" x="57.5" y="-56.5" font-family="Helvetica,sans-Serif" font-size="10.00" fill="#000000">Hamiltonianmatrix</text>
</g>
<!-- Node2 -->
<g id="node2" class="node">
<title>Node2</title>
<g id="a_node2"><a xlink:href="classHamiltonianmatrix.html#a71572821efcfb5e5724a340de5a7d31c" target="_top" xlink:title="Hamiltonianmatrix::abs">
<polygon fill="none" stroke="#000000" points="151,-99 151,-118 283,-118 283,-99 151,-99"/>
<text text-anchor="middle" x="217" y="-106" font-family="Helvetica,sans-Serif" font-size="10.00" fill="#000000">Hamiltonianmatrix::abs</text>
</a>
</g>
</g>
<!-- Node1&#45;&gt;Node2 -->
<g id="edge1" class="edge">
<title>Node1&#45;&gt;Node2</title>
<path fill="none" stroke="#191970" d="M121.6513,-82.1969C142.3616,-87.9101 164.5326,-94.0262 182.2787,-98.9217"/>
<polygon fill="#191970" stroke="#191970" points="122.5155,-78.8046 111.9447,-79.5192 120.6539,-85.5526 122.5155,-78.8046"/>
</g>
<!-- Node3 -->
<g id="node3" class="node">
<title>Node3</title>
<g id="a_node3"><a xlink:href="classHamiltonianmatrix.html#a310f8a7bc796d0b431928b82f2d11285" target="_top" xlink:title="Hamiltonianmatrix::\lchangeBasis">
<polygon fill="none" stroke="#000000" points="159.5,-49.5 159.5,-79.5 274.5,-79.5 274.5,-49.5 159.5,-49.5"/>
<text text-anchor="start" x="167.5" y="-67.5" font-family="Helvetica,sans-Serif" font-size="10.00" fill="#000000">Hamiltonianmatrix::</text>
<text text-anchor="middle" x="217" y="-56.5" font-family="Helvetica,sans-Serif" font-size="10.00" fill="#000000">changeBasis</text>
</a>
</g>
</g>
<!-- Node1&#45;&gt;Node3 -->
<g id="edge2" class="edge">
<title>Node1&#45;&gt;Node3</title>
<path fill="none" stroke="#191970" d="M125.3296,-64.5C136.6157,-64.5 148.2276,-64.5 159.2336,-64.5"/>
<polygon fill="#191970" stroke="#191970" points="125.0832,-61.0001 115.0832,-64.5 125.0831,-68.0001 125.0832,-61.0001"/>
</g>
<!-- Node6 -->
<g id="node6" class="node">
<title>Node6</title>
<g id="a_node6"><a xlink:href="classHamiltonianmatrix.html#a5958f8545a449aaac4355b60b5587a91" target="_top" xlink:title="Hamiltonianmatrix::\lgetBlock">
<polygon fill="none" stroke="#000000" points="159.5,-.5 159.5,-30.5 274.5,-30.5 274.5,-.5 159.5,-.5"/>
<text text-anchor="start" x="167.5" y="-18.5" font-family="Helvetica,sans-Serif" font-size="10.00" fill="#000000">Hamiltonianmatrix::</text>
<text text-anchor="middle" x="217" y="-7.5" font-family="Helvetica,sans-Serif" font-size="10.00" fill="#000000">getBlock</text>
</a>
</g>
</g>
<!-- Node1&#45;&gt;Node6 -->
<g id="edge5" class="edge">
<title>Node1&#45;&gt;Node6</title>
<path fill="none" stroke="#191970" d="M116.4594,-46.3871C133.4162,-41.1778 151.7211,-35.5543 168.0056,-30.5516"/>
<polygon fill="#191970" stroke="#191970" points="115.188,-43.1162 106.6567,-49.3986 117.2437,-49.8075 115.188,-43.1162"/>
</g>
<!-- Node4 -->
<g id="node4" class="node">
<title>Node4</title>
<g id="a_node4"><a xlink:href="classHamiltonianTwo.html#a6ca0a318f25170b69e571a07064a5afb" target="_top" xlink:title="HamiltonianTwo::calculate">
<polygon fill="none" stroke="#000000" points="319,-55 319,-74 465,-74 465,-55 319,-55"/>
<text text-anchor="middle" x="392" y="-62" font-family="Helvetica,sans-Serif" font-size="10.00" fill="#000000">HamiltonianTwo::calculate</text>
</a>
</g>
</g>
<!-- Node3&#45;&gt;Node4 -->
<g id="edge3" class="edge">
<title>Node3&#45;&gt;Node4</title>
<path fill="none" stroke="#191970" d="M284.8979,-64.5C296.07,-64.5 307.6916,-64.5 318.9822,-64.5"/>
<polygon fill="#191970" stroke="#191970" points="284.7866,-61.0001 274.7865,-64.5 284.7865,-68.0001 284.7866,-61.0001"/>
</g>
<!-- Node5 -->
<g id="node5" class="node">
<title>Node5</title>
<g id="a_node5"><a xlink:href="classHamiltonianTwo.html#abd374713c9b38f72265c7fe496c42b96" target="_top" xlink:title="HamiltonianTwo::HamiltonianTwo">
<polygon fill="none" stroke="#000000" points="501,-55 501,-74 681,-74 681,-55 501,-55"/>
<text text-anchor="middle" x="591" y="-62" font-family="Helvetica,sans-Serif" font-size="10.00" fill="#000000">HamiltonianTwo::HamiltonianTwo</text>
</a>
</g>
</g>
<!-- Node4&#45;&gt;Node5 -->
<g id="edge4" class="edge">
<title>Node4&#45;&gt;Node5</title>
<path fill="none" stroke="#191970" d="M475.3577,-64.5C483.7192,-64.5 492.237,-64.5 500.6663,-64.5"/>
<polygon fill="#191970" stroke="#191970" points="475.2525,-61.0001 465.2525,-64.5 475.2524,-68.0001 475.2525,-61.0001"/>
</g>
</g>
</svg>
