<?xml version="1.0" encoding="UTF-8" standalone="no"?>
<!DOCTYPE svg PUBLIC "-//W3C//DTD SVG 1.1//EN"
 "http://www.w3.org/Graphics/SVG/1.1/DTD/svg11.dtd">
<!-- Generated by graphviz version 2.40.1 (20161225.0304)
 -->
<!-- Title: PerturbativeInteraction::getC6 Pages: 1 -->
<svg width="471pt" height="382pt"
 viewBox="0.00 0.00 471.00 381.50" xmlns="http://www.w3.org/2000/svg" xmlns:xlink="http://www.w3.org/1999/xlink">
<g id="graph0" class="graph" transform="scale(1 1) rotate(0) translate(4 377.5)">
<title>PerturbativeInteraction::getC6</title>
<!-- Node8 -->
<g id="node1" class="node">
<title>Node8</title>
<polygon fill="#bfbfbf" stroke="#000000" points="0,-166 0,-196 129,-196 129,-166 0,-166"/>
<text text-anchor="start" x="8" y="-184" font-family="Helvetica,sans-Serif" font-size="10.00" fill="#000000">PerturbativeInteraction</text>
<text text-anchor="middle" x="64.5" y="-173" font-family="Helvetica,sans-Serif" font-size="10.00" fill="#000000">::getC6</text>
</g>
<!-- Node9 -->
<g id="node2" class="node">
<title>Node9</title>
<g id="a_node2"><a xlink:href="classMatrixElementCache.html#ac6191cd01c85dd9cf28a373b524f0b1b" target="_top" xlink:title="Get matrix elements ////////////////////////////////////////////. ">
<polygon fill="none" stroke="#000000" points="177.5,-343 177.5,-373 295.5,-373 295.5,-343 177.5,-343"/>
<text text-anchor="start" x="185.5" y="-361" font-family="Helvetica,sans-Serif" font-size="10.00" fill="#000000">MatrixElementCache</text>
<text text-anchor="middle" x="236.5" y="-350" font-family="Helvetica,sans-Serif" font-size="10.00" fill="#000000">::getElectricDipole</text>
</a>
</g>
</g>
<!-- Node8&#45;&gt;Node9 -->
<g id="edge1" class="edge">
<title>Node8&#45;&gt;Node9</title>
<path fill="none" stroke="#191970" d="M70.6077,-196.3231C83.4903,-226.748 116.3221,-295.1052 165,-333 167.4125,-334.8781 169.9766,-336.6213 172.6448,-338.2386"/>
<polygon fill="#191970" stroke="#191970" points="170.9984,-341.3272 181.4626,-342.9862 174.317,-335.1637 170.9984,-341.3272"/>
</g>
<!-- Node11 -->
<g id="node4" class="node">
<title>Node11</title>
<g id="a_node4"><a xlink:href="classStateTwo.html#a3f9e530a17bed5048f16653dcd9c7991" target="_top" xlink:title="StateTwo::getEnergy">
<polygon fill="none" stroke="#000000" points="178.5,-304.5 178.5,-323.5 294.5,-323.5 294.5,-304.5 178.5,-304.5"/>
<text text-anchor="middle" x="236.5" y="-311.5" font-family="Helvetica,sans-Serif" font-size="10.00" fill="#000000">StateTwo::getEnergy</text>
</a>
</g>
</g>
<!-- Node8&#45;&gt;Node11 -->
<g id="edge3" class="edge">
<title>Node8&#45;&gt;Node11</title>
<path fill="none" stroke="#191970" d="M73.5719,-196.1183C89.1229,-220.7011 123.265,-269.1823 165,-295 168.4049,-297.1063 172.0407,-298.9814 175.8007,-300.6503"/>
<polygon fill="#191970" stroke="#191970" points="174.7544,-303.9993 185.3421,-304.3884 177.3079,-297.4817 174.7544,-303.9993"/>
</g>
<!-- Node12 -->
<g id="node5" class="node">
<title>Node12</title>
<g id="a_node5"><a xlink:href="classStateTwo.html#a48d2a882bdaf347c38d36ea1a2de4d25" target="_top" xlink:title="StateTwo::getFirstState">
<polygon fill="none" stroke="#000000" points="172,-266.5 172,-285.5 301,-285.5 301,-266.5 172,-266.5"/>
<text text-anchor="middle" x="236.5" y="-273.5" font-family="Helvetica,sans-Serif" font-size="10.00" fill="#000000">StateTwo::getFirstState</text>
</a>
</g>
</g>
<!-- Node8&#45;&gt;Node12 -->
<g id="edge4" class="edge">
<title>Node8&#45;&gt;Node12</title>
<path fill="none" stroke="#191970" d="M80.2518,-196.0585C99.0074,-213.1979 131.9661,-240.8958 165,-257 169.8345,-259.3569 175.0005,-261.451 180.2602,-263.3054"/>
<polygon fill="#191970" stroke="#191970" points="179.1855,-266.6363 189.7775,-266.3893 181.3433,-259.9771 179.1855,-266.6363"/>
</g>
<!-- Node13 -->
<g id="node6" class="node">
<title>Node13</title>
<g id="a_node6"><a xlink:href="classStateTwo.html#a8da7f3d40cddcdd7dbb2886427f7952d" target="_top" xlink:title="StateTwo::getJ">
<polygon fill="none" stroke="#000000" points="193.5,-228.5 193.5,-247.5 279.5,-247.5 279.5,-228.5 193.5,-228.5"/>
<text text-anchor="middle" x="236.5" y="-235.5" font-family="Helvetica,sans-Serif" font-size="10.00" fill="#000000">StateTwo::getJ</text>
</a>
</g>
</g>
<!-- Node8&#45;&gt;Node13 -->
<g id="edge5" class="edge">
<title>Node8&#45;&gt;Node13</title>
<path fill="none" stroke="#191970" d="M101.882,-196.1715C120.6625,-203.5274 143.8646,-212.2155 165,-219 172.3949,-221.3738 180.2856,-223.6863 188.0253,-225.8339"/>
<polygon fill="#191970" stroke="#191970" points="187.1319,-229.218 197.6994,-228.4584 188.9647,-222.4622 187.1319,-229.218"/>
</g>
<!-- Node14 -->
<g id="node7" class="node">
<title>Node14</title>
<g id="a_node7"><a xlink:href="classStateTwo.html#aba98b05bc1257f73bcbbb9b079ad2928" target="_top" xlink:title="StateTwo::getL">
<polygon fill="none" stroke="#000000" points="192.5,-190.5 192.5,-209.5 280.5,-209.5 280.5,-190.5 192.5,-190.5"/>
<text text-anchor="middle" x="236.5" y="-197.5" font-family="Helvetica,sans-Serif" font-size="10.00" fill="#000000">StateTwo::getL</text>
</a>
</g>
</g>
<!-- Node8&#45;&gt;Node14 -->
<g id="edge6" class="edge">
<title>Node8&#45;&gt;Node14</title>
<path fill="none" stroke="#191970" d="M129.0358,-188.129C146.5605,-190.0648 165.3554,-192.141 182.249,-194.0072"/>
<polygon fill="#191970" stroke="#191970" points="182.1697,-197.5196 192.4936,-195.1388 182.9384,-190.5619 182.1697,-197.5196"/>
</g>
<!-- Node15 -->
<g id="node8" class="node">
<title>Node15</title>
<g id="a_node8"><a xlink:href="classStateTwo.html#af2e91e00e5839735357e41e14646a0bd" target="_top" xlink:title="StateTwo::getM">
<polygon fill="none" stroke="#000000" points="191,-152.5 191,-171.5 282,-171.5 282,-152.5 191,-152.5"/>
<text text-anchor="middle" x="236.5" y="-159.5" font-family="Helvetica,sans-Serif" font-size="10.00" fill="#000000">StateTwo::getM</text>
</a>
</g>
</g>
<!-- Node8&#45;&gt;Node15 -->
<g id="edge7" class="edge">
<title>Node8&#45;&gt;Node15</title>
<path fill="none" stroke="#191970" d="M129.0358,-173.871C146.0868,-171.9875 164.3404,-169.9711 180.8752,-168.1446"/>
<polygon fill="#191970" stroke="#191970" points="181.3669,-171.6117 190.9221,-167.0348 180.5983,-164.654 181.3669,-171.6117"/>
</g>
<!-- Node16 -->
<g id="node9" class="node">
<title>Node16</title>
<g id="a_node9"><a xlink:href="classStateTwo.html#a63046074605d8d7a3201082ba9e13673" target="_top" xlink:title="StateTwo::getN">
<polygon fill="none" stroke="#000000" points="191.5,-114.5 191.5,-133.5 281.5,-133.5 281.5,-114.5 191.5,-114.5"/>
<text text-anchor="middle" x="236.5" y="-121.5" font-family="Helvetica,sans-Serif" font-size="10.00" fill="#000000">StateTwo::getN</text>
</a>
</g>
</g>
<!-- Node8&#45;&gt;Node16 -->
<g id="edge8" class="edge">
<title>Node8&#45;&gt;Node16</title>
<path fill="none" stroke="#191970" d="M101.882,-165.8285C120.6625,-158.4726 143.8646,-149.7845 165,-143 172.3949,-140.6262 180.2856,-138.3137 188.0253,-136.1661"/>
<polygon fill="#191970" stroke="#191970" points="188.9647,-139.5378 197.6994,-133.5416 187.1319,-132.782 188.9647,-139.5378"/>
</g>
<!-- Node17 -->
<g id="node10" class="node">
<title>Node17</title>
<g id="a_node10"><a xlink:href="classStateTwo.html#a9f1e6b6e11b9941a85b7fd587ebe15aa" target="_top" xlink:title="StateTwo::getS">
<polygon fill="none" stroke="#000000" points="192,-76.5 192,-95.5 281,-95.5 281,-76.5 192,-76.5"/>
<text text-anchor="middle" x="236.5" y="-83.5" font-family="Helvetica,sans-Serif" font-size="10.00" fill="#000000">StateTwo::getS</text>
</a>
</g>
</g>
<!-- Node8&#45;&gt;Node17 -->
<g id="edge9" class="edge">
<title>Node8&#45;&gt;Node17</title>
<path fill="none" stroke="#191970" d="M80.2518,-165.9415C99.0074,-148.8021 131.9661,-121.1042 165,-105 170.3252,-102.4039 176.0526,-100.1266 181.8643,-98.1373"/>
<polygon fill="#191970" stroke="#191970" points="183.178,-101.3933 191.6687,-95.0562 181.0793,-94.7153 183.178,-101.3933"/>
</g>
<!-- Node18 -->
<g id="node11" class="node">
<title>Node18</title>
<g id="a_node11"><a xlink:href="classStateTwo.html#a5f39ceea2e8f442364fec097566365d0" target="_top" xlink:title="StateTwo::getSecondState">
<polygon fill="none" stroke="#000000" points="165,-38.5 165,-57.5 308,-57.5 308,-38.5 165,-38.5"/>
<text text-anchor="middle" x="236.5" y="-45.5" font-family="Helvetica,sans-Serif" font-size="10.00" fill="#000000">StateTwo::getSecondState</text>
</a>
</g>
</g>
<!-- Node8&#45;&gt;Node18 -->
<g id="edge10" class="edge">
<title>Node8&#45;&gt;Node18</title>
<path fill="none" stroke="#191970" d="M73.5719,-165.8817C89.1229,-141.2989 123.265,-92.8177 165,-67 168.4049,-64.8937 172.0407,-63.0186 175.8007,-61.3497"/>
<polygon fill="#191970" stroke="#191970" points="177.3079,-64.5183 185.3421,-57.6116 174.7544,-58.0007 177.3079,-64.5183"/>
</g>
<!-- Node19 -->
<g id="node12" class="node">
<title>Node19</title>
<g id="a_node12"><a xlink:href="classStateTwo.html#a11bbc5b4c7f83c44a3536a349e78a925" target="_top" xlink:title="StateTwo::getSpecies">
<polygon fill="none" stroke="#000000" points="176.5,-.5 176.5,-19.5 296.5,-19.5 296.5,-.5 176.5,-.5"/>
<text text-anchor="middle" x="236.5" y="-7.5" font-family="Helvetica,sans-Serif" font-size="10.00" fill="#000000">StateTwo::getSpecies</text>
</a>
</g>
</g>
<!-- Node8&#45;&gt;Node19 -->
<g id="edge11" class="edge">
<title>Node8&#45;&gt;Node19</title>
<path fill="none" stroke="#191970" d="M70.1766,-165.8285C82.4869,-135.0622 114.6493,-65.1869 165,-29 167.7117,-27.0511 170.6102,-25.302 173.6294,-23.7324"/>
<polygon fill="#191970" stroke="#191970" points="175.2889,-26.8242 182.9836,-19.5412 172.4267,-20.4361 175.2889,-26.8242"/>
</g>
<!-- Node10 -->
<g id="node3" class="node">
<title>Node10</title>
<g id="a_node3"><a xlink:href="classMatrixElementCache.html#a2407b99847793920a9d4ed0d8b156d8a" target="_top" xlink:title="MatrixElementCache\l::getElectricMultipole">
<polygon fill="none" stroke="#000000" points="344,-343 344,-373 463,-373 463,-343 344,-343"/>
<text text-anchor="start" x="352" y="-361" font-family="Helvetica,sans-Serif" font-size="10.00" fill="#000000">MatrixElementCache</text>
<text text-anchor="middle" x="403.5" y="-350" font-family="Helvetica,sans-Serif" font-size="10.00" fill="#000000">::getElectricMultipole</text>
</a>
</g>
</g>
<!-- Node9&#45;&gt;Node10 -->
<g id="edge2" class="edge">
<title>Node9&#45;&gt;Node10</title>
<path fill="none" stroke="#191970" d="M295.8482,-358C308.0065,-358 320.9124,-358 333.407,-358"/>
<polygon fill="#191970" stroke="#191970" points="333.7803,-361.5001 343.7803,-358 333.7802,-354.5001 333.7803,-361.5001"/>
</g>
</g>
</svg>
