<?xml version="1.0" encoding="UTF-8" standalone="no"?>
<!DOCTYPE svg PUBLIC "-//W3C//DTD SVG 1.1//EN"
 "http://www.w3.org/Graphics/SVG/1.1/DTD/svg11.dtd">
<!-- Generated by graphviz version 2.40.1 (20161225.0304)
 -->
<!-- Title: StateTwoOld::getEnergy Pages: 1 -->
<svg width="427pt" height="104pt"
 viewBox="0.00 0.00 427.00 104.00" xmlns="http://www.w3.org/2000/svg" xmlns:xlink="http://www.w3.org/1999/xlink">
<g id="graph0" class="graph" transform="scale(1 1) rotate(0) translate(4 100)">
<title>StateTwoOld::getEnergy</title>
<!-- Node27 -->
<g id="node1" class="node">
<title>Node27</title>
<polygon fill="#bfbfbf" stroke="#000000" points="0,-38.5 0,-57.5 133,-57.5 133,-38.5 0,-38.5"/>
<text text-anchor="middle" x="66.5" y="-45.5" font-family="Helvetica,sans-Serif" font-size="10.00" fill="#000000">StateTwoOld::getEnergy</text>
</g>
<!-- Node28 -->
<g id="node2" class="node">
<title>Node28</title>
<g id="a_node2"><a xlink:href="classStateTwoOld.html#aad5fb4307dec316a5b602c2e8bfae0a8" target="_top" xlink:title="StateTwoOld::first">
<polygon fill="none" stroke="#000000" points="184.5,-76.5 184.5,-95.5 287.5,-95.5 287.5,-76.5 184.5,-76.5"/>
<text text-anchor="middle" x="236" y="-83.5" font-family="Helvetica,sans-Serif" font-size="10.00" fill="#000000">StateTwoOld::first</text>
</a>
</g>
</g>
<!-- Node27&#45;&gt;Node28 -->
<g id="edge1" class="edge">
<title>Node27&#45;&gt;Node28</title>
<path fill="none" stroke="#191970" d="M109.272,-57.589C131.8409,-62.6487 159.7232,-68.8996 183.5833,-74.2488"/>
<polygon fill="#191970" stroke="#191970" points="183.0121,-77.7075 193.5356,-76.4799 184.5435,-70.8771 183.0121,-77.7075"/>
</g>
<!-- Node29 -->
<g id="node3" class="node">
<title>Node29</title>
<g id="a_node3"><a xlink:href="classStateOneOld.html#a87391af707be61e934c06b4561ba5059" target="_top" xlink:title="StateOneOld::getEnergy">
<polygon fill="none" stroke="#000000" points="169,-38.5 169,-57.5 303,-57.5 303,-38.5 169,-38.5"/>
<text text-anchor="middle" x="236" y="-45.5" font-family="Helvetica,sans-Serif" font-size="10.00" fill="#000000">StateOneOld::getEnergy</text>
</a>
</g>
</g>
<!-- Node27&#45;&gt;Node29 -->
<g id="edge2" class="edge">
<title>Node27&#45;&gt;Node29</title>
<path fill="none" stroke="#191970" d="M133.0044,-48C141.4705,-48 150.1915,-48 158.8075,-48"/>
<polygon fill="#191970" stroke="#191970" points="158.8523,-51.5001 168.8522,-48 158.8522,-44.5001 158.8523,-51.5001"/>
</g>
<!-- Node31 -->
<g id="node5" class="node">
<title>Node31</title>
<g id="a_node5"><a xlink:href="classStateTwoOld.html#a6efa9c8f92e433004b778f6f5ce212d9" target="_top" xlink:title="StateTwoOld::second">
<polygon fill="none" stroke="#000000" points="177,-.5 177,-19.5 295,-19.5 295,-.5 177,-.5"/>
<text text-anchor="middle" x="236" y="-7.5" font-family="Helvetica,sans-Serif" font-size="10.00" fill="#000000">StateTwoOld::second</text>
</a>
</g>
</g>
<!-- Node27&#45;&gt;Node31 -->
<g id="edge4" class="edge">
<title>Node27&#45;&gt;Node31</title>
<path fill="none" stroke="#191970" d="M109.272,-38.411C131.8409,-33.3513 159.7232,-27.1004 183.5833,-21.7512"/>
<polygon fill="#191970" stroke="#191970" points="184.5435,-25.1229 193.5356,-19.5201 183.0121,-18.2925 184.5435,-25.1229"/>
</g>
<!-- Node30 -->
<g id="node4" class="node">
<title>Node30</title>
<g id="a_node4"><a xlink:href="QuantumDefect_8cpp.html#ac472df8bb08bd6ff27c7ef7633ae62c5" target="_top" xlink:title="Returns only the energy of a state. ">
<polygon fill="none" stroke="#000000" points="339,-38.5 339,-57.5 419,-57.5 419,-38.5 339,-38.5"/>
<text text-anchor="middle" x="379" y="-45.5" font-family="Helvetica,sans-Serif" font-size="10.00" fill="#000000">energy_level</text>
</a>
</g>
</g>
<!-- Node29&#45;&gt;Node30 -->
<g id="edge3" class="edge">
<title>Node29&#45;&gt;Node30</title>
<path fill="none" stroke="#191970" d="M303.3127,-48C311.8698,-48 320.5071,-48 328.7322,-48"/>
<polygon fill="#191970" stroke="#191970" points="328.8931,-51.5001 338.8931,-48 328.8931,-44.5001 328.8931,-51.5001"/>
</g>
</g>
</svg>
