<?xml version="1.0" encoding="UTF-8" standalone="no"?>
<!DOCTYPE svg PUBLIC "-//W3C//DTD SVG 1.1//EN"
 "http://www.w3.org/Graphics/SVG/1.1/DTD/svg11.dtd">
<!-- Generated by graphviz version 2.40.1 (20161225.0304)
 -->
<!-- Title: MatrixElementCache::getElectricMultipole Pages: 1 -->
<svg width="490pt" height="165pt"
 viewBox="0.00 0.00 490.00 165.00" xmlns="http://www.w3.org/2000/svg" xmlns:xlink="http://www.w3.org/1999/xlink">
<g id="graph0" class="graph" transform="scale(1 1) rotate(0) translate(4 161)">
<title>MatrixElementCache::getElectricMultipole</title>
<!-- Node20 -->
<g id="node1" class="node">
<title>Node20</title>
<polygon fill="#bfbfbf" stroke="#000000" points="0,-72 0,-102 119,-102 119,-72 0,-72"/>
<text text-anchor="start" x="8" y="-90" font-family="Helvetica,sans-Serif" font-size="10.00" fill="#000000">MatrixElementCache</text>
<text text-anchor="middle" x="59.5" y="-79" font-family="Helvetica,sans-Serif" font-size="10.00" fill="#000000">::getElectricMultipole</text>
</g>
<!-- Node21 -->
<g id="node2" class="node">
<title>Node21</title>
<g id="a_node2"><a xlink:href="classMatrixElementCache.html#ab1120fb945d5c0c5e30821e886c04c42" target="_top" xlink:title="MatrixElementCache\l::getDiamagnetism">
<polygon fill="none" stroke="#000000" points="155,-126 155,-156 273,-156 273,-126 155,-126"/>
<text text-anchor="start" x="163" y="-144" font-family="Helvetica,sans-Serif" font-size="10.00" fill="#000000">MatrixElementCache</text>
<text text-anchor="middle" x="214" y="-133" font-family="Helvetica,sans-Serif" font-size="10.00" fill="#000000">::getDiamagnetism</text>
</a>
</g>
</g>
<!-- Node20&#45;&gt;Node21 -->
<g id="edge1" class="edge">
<title>Node20&#45;&gt;Node21</title>
<path fill="none" stroke="#191970" d="M112.0369,-105.3624C131.2158,-112.0657 152.6664,-119.563 170.9262,-125.9451"/>
<polygon fill="#191970" stroke="#191970" points="113.1317,-102.0375 102.5369,-102.042 110.8221,-108.6455 113.1317,-102.0375"/>
</g>
<!-- Node23 -->
<g id="node4" class="node">
<title>Node23</title>
<g id="a_node4"><a xlink:href="classMatrixElementCache.html#ac6191cd01c85dd9cf28a373b524f0b1b" target="_top" xlink:title="Get matrix elements ////////////////////////////////////////////. ">
<polygon fill="none" stroke="#000000" points="155,-72 155,-102 273,-102 273,-72 155,-72"/>
<text text-anchor="start" x="163" y="-90" font-family="Helvetica,sans-Serif" font-size="10.00" fill="#000000">MatrixElementCache</text>
<text text-anchor="middle" x="214" y="-79" font-family="Helvetica,sans-Serif" font-size="10.00" fill="#000000">::getElectricDipole</text>
</a>
</g>
</g>
<!-- Node20&#45;&gt;Node23 -->
<g id="edge3" class="edge">
<title>Node20&#45;&gt;Node23</title>
<path fill="none" stroke="#191970" d="M129.51,-87C138.0054,-87 146.6187,-87 154.934,-87"/>
<polygon fill="#191970" stroke="#191970" points="129.2338,-83.5001 119.2337,-87 129.2337,-90.5001 129.2338,-83.5001"/>
</g>
<!-- Node26 -->
<g id="node7" class="node">
<title>Node26</title>
<g id="a_node7"><a xlink:href="classSystemTwo.html#a5cc89c42ab8066027b0c375b818c8333" target="_top" xlink:title="Method that allows base class to calculate the interaction /////. ">
<polygon fill="none" stroke="#000000" points="309,-.5 309,-19.5 482,-19.5 482,-.5 309,-.5"/>
<text text-anchor="middle" x="395.5" y="-7.5" font-family="Helvetica,sans-Serif" font-size="10.00" fill="#000000">SystemTwo::initializeInteraction</text>
</a>
</g>
</g>
<!-- Node20&#45;&gt;Node26 -->
<g id="edge8" class="edge">
<title>Node20&#45;&gt;Node26</title>
<path fill="none" stroke="#191970" d="M128.0348,-69.523C137.0933,-67.2874 146.2636,-65.0617 155,-63 223.2188,-46.9009 240.5475,-44.0744 309,-29 322.9645,-25.9248 338.1986,-22.5764 351.9369,-19.5592"/>
<polygon fill="#191970" stroke="#191970" points="127.1373,-66.1394 118.2749,-71.9454 128.8236,-72.9333 127.1373,-66.1394"/>
</g>
<!-- Node22 -->
<g id="node3" class="node">
<title>Node22</title>
<g id="a_node3"><a xlink:href="classSystemOne.html#abf6d26d44765fa787251956c128644a7" target="_top" xlink:title="Method that allows base class to calculate the interaction /////. ">
<polygon fill="none" stroke="#000000" points="309,-137.5 309,-156.5 482,-156.5 482,-137.5 309,-137.5"/>
<text text-anchor="middle" x="395.5" y="-144.5" font-family="Helvetica,sans-Serif" font-size="10.00" fill="#000000">SystemOne::initializeInteraction</text>
</a>
</g>
</g>
<!-- Node21&#45;&gt;Node22 -->
<g id="edge2" class="edge">
<title>Node21&#45;&gt;Node22</title>
<path fill="none" stroke="#191970" d="M283.2158,-143.2881C291.5662,-143.5642 300.1747,-143.8488 308.7359,-144.1318"/>
<polygon fill="#191970" stroke="#191970" points="283.289,-139.7887 273.1787,-142.9563 283.0576,-146.7849 283.289,-139.7887"/>
</g>
<!-- Node23&#45;&gt;Node22 -->
<g id="edge7" class="edge">
<title>Node23&#45;&gt;Node22</title>
<path fill="none" stroke="#191970" d="M254.1038,-106.3319C270.802,-113.8458 290.563,-122.057 309,-128 320.2681,-131.6322 332.5833,-134.7983 344.2964,-137.4501"/>
<polygon fill="#191970" stroke="#191970" points="255.2089,-102.9886 244.6593,-102.0107 252.2965,-109.354 255.2089,-102.9886"/>
</g>
<!-- Node24 -->
<g id="node5" class="node">
<title>Node24</title>
<g id="a_node5"><a xlink:href="classPerturbativeInteraction.html#afec910b424e616803b8983f31fe927cc" target="_top" xlink:title="PerturbativeInteraction\l::getC3">
<polygon fill="none" stroke="#000000" points="331,-88 331,-118 460,-118 460,-88 331,-88"/>
<text text-anchor="start" x="339" y="-106" font-family="Helvetica,sans-Serif" font-size="10.00" fill="#000000">PerturbativeInteraction</text>
<text text-anchor="middle" x="395.5" y="-95" font-family="Helvetica,sans-Serif" font-size="10.00" fill="#000000">::getC3</text>
</a>
</g>
</g>
<!-- Node23&#45;&gt;Node24 -->
<g id="edge4" class="edge">
<title>Node23&#45;&gt;Node24</title>
<path fill="none" stroke="#191970" d="M283.2759,-93.107C298.8694,-94.4816 315.3604,-95.9354 330.76,-97.2929"/>
<polygon fill="#191970" stroke="#191970" points="283.4475,-89.6086 273.1787,-92.2169 282.8327,-96.5816 283.4475,-89.6086"/>
</g>
<!-- Node25 -->
<g id="node6" class="node">
<title>Node25</title>
<g id="a_node6"><a xlink:href="classPerturbativeInteraction.html#aef0f5d43fdcf0377dc53e31730c99cb9" target="_top" xlink:title="PerturbativeInteraction\l::getC6">
<polygon fill="none" stroke="#000000" points="331,-39 331,-69 460,-69 460,-39 331,-39"/>
<text text-anchor="start" x="339" y="-57" font-family="Helvetica,sans-Serif" font-size="10.00" fill="#000000">PerturbativeInteraction</text>
<text text-anchor="middle" x="395.5" y="-46" font-family="Helvetica,sans-Serif" font-size="10.00" fill="#000000">::getC6</text>
</a>
</g>
</g>
<!-- Node23&#45;&gt;Node25 -->
<g id="edge5" class="edge">
<title>Node23&#45;&gt;Node25</title>
<path fill="none" stroke="#191970" d="M283.2759,-74.4044C298.8694,-71.5692 315.3604,-68.5708 330.76,-65.7709"/>
<polygon fill="#191970" stroke="#191970" points="282.3913,-71.0077 273.1787,-76.2402 283.6436,-77.8948 282.3913,-71.0077"/>
</g>
<!-- Node23&#45;&gt;Node26 -->
<g id="edge6" class="edge">
<title>Node23&#45;&gt;Node26</title>
<path fill="none" stroke="#191970" d="M242.4736,-66.1515C260.6869,-53.7146 285.271,-38.5375 309,-29 318.4157,-25.2155 328.7258,-22.1196 338.8433,-19.6086"/>
<polygon fill="#191970" stroke="#191970" points="240.2817,-63.4128 234.076,-72 244.2823,-69.157 240.2817,-63.4128"/>
</g>
</g>
</svg>
