<?xml version="1.0" encoding="UTF-8" standalone="no"?>
<!DOCTYPE svg PUBLIC "-//W3C//DTD SVG 1.1//EN"
 "http://www.w3.org/Graphics/SVG/1.1/DTD/svg11.dtd">
<!-- Generated by graphviz version 2.40.1 (20161225.0304)
 -->
<!-- Title: HamiltonianOne::build Pages: 1 -->
<!--zoomable 847 -->
<svg id="main" version="1.1" xmlns="http://www.w3.org/2000/svg" xmlns:xlink="http://www.w3.org/1999/xlink" xml:space="preserve" onload="init(evt)">
<style type="text/css"><![CDATA[
.edge:hover path { stroke: red; }
.edge:hover polygon { stroke: red; fill: red; }
]]></style>
<script type="text/javascript"><![CDATA[
var edges = document.getElementsByTagName('g');
if (edges && edges.length) {
  for (var i=0;i<edges.length;i++) {
    if (edges[i].id.substr(0,4)=='edge') {
      edges[i].setAttribute('class','edge');
    }
  }
}
]]></script>
        <defs>
                <circle id="rim" cx="0" cy="0" r="7"/>
                <circle id="rim2" cx="0" cy="0" r="3.5"/>
                <g id="zoomPlus">
                        <use xlink:href="#rim" fill="#404040">
                                <set attributeName="fill" to="#808080" begin="zoomplus.mouseover" end="zoomplus.mouseout"/>
                        </use>
                        <path d="M-4,0h8M0,-4v8" fill="none" stroke="white" stroke-width="1.5" pointer-events="none"/>
                </g>
                <g id="zoomMin">
                        <use xlink:href="#rim" fill="#404040">
                                <set attributeName="fill" to="#808080" begin="zoomminus.mouseover" end="zoomminus.mouseout"/>
                        </use>
                        <path d="M-4,0h8" fill="none" stroke="white" stroke-width="1.5" pointer-events="none"/>
                </g>
                <g id="dirArrow">
                        <path fill="none" stroke="white" stroke-width="1.5" d="M0,-3.0v7 M-2.5,-0.5L0,-3.0L2.5,-0.5"/>
                </g>
               <g id="resetDef">
                       <use xlink:href="#rim2" fill="#404040">
                               <set attributeName="fill" to="#808080" begin="reset.mouseover" end="reset.mouseout"/>
                       </use>
               </g>
        </defs>

<script type="text/javascript">
var viewWidth = 861;
var viewHeight = 847;
var sectionId = 'dynsection-3';
</script>
<script xlink:href="svgpan.js"/>
<svg id="graph" class="graph">
<g id="viewport">
<title>HamiltonianOne::build</title>
<!-- Node33 -->
<g id="node1" class="node">
<title>Node33</title>
<polygon fill="#bfbfbf" stroke="#000000" points="0,-404.5 0,-423.5 126,-423.5 126,-404.5 0,-404.5"/>
<text text-anchor="middle" x="63" y="-411.5" font-family="Helvetica,sans-Serif" font-size="10.00" fill="#000000">HamiltonianOne::build</text>
</g>
<!-- Node34 -->
<g id="node2" class="node">
<title>Node34</title>
<g id="a_node2"><a xlink:href="classHamiltonianmatrix.html#a45f3d187ac775e9b6c6a7756810f91ab" target="_top" xlink:title="Hamiltonianmatrix::\laddBasis">
<polygon fill="none" stroke="#000000" points="198,-808 198,-838 313,-838 313,-808 198,-808"/>
<text text-anchor="start" x="206" y="-826" font-family="Helvetica,sans-Serif" font-size="10.00" fill="#000000">Hamiltonianmatrix::</text>
<text text-anchor="middle" x="255.5" y="-815" font-family="Helvetica,sans-Serif" font-size="10.00" fill="#000000">addBasis</text>
</a>
</g>
</g>
<!-- Node33&#45;&gt;Node34 -->
<g id="edge1" class="edge">
<title>Node33&#45;&gt;Node34</title>
<path fill="none" stroke="#191970" d="M64.1623,-423.7225C70.8392,-477.9905 105.9891,-743.0131 162,-799 169.2006,-806.1975 178.2491,-811.3305 187.8628,-814.9736"/>
<polygon fill="#191970" stroke="#191970" points="187.0255,-818.3815 197.6176,-818.1413 189.1875,-811.7238 187.0255,-818.3815"/>
</g>
<!-- Node35 -->
<g id="node3" class="node">
<title>Node35</title>
<g id="a_node3"><a xlink:href="classHamiltonianmatrix.html#a7f424947bfe863cdd30d3290b4b708a5" target="_top" xlink:title="Hamiltonianmatrix::\laddEntries">
<polygon fill="none" stroke="#000000" points="198,-759 198,-789 313,-789 313,-759 198,-759"/>
<text text-anchor="start" x="206" y="-777" font-family="Helvetica,sans-Serif" font-size="10.00" fill="#000000">Hamiltonianmatrix::</text>
<text text-anchor="middle" x="255.5" y="-766" font-family="Helvetica,sans-Serif" font-size="10.00" fill="#000000">addEntries</text>
</a>
</g>
</g>
<!-- Node33&#45;&gt;Node35 -->
<g id="edge2" class="edge">
<title>Node33&#45;&gt;Node35</title>
<path fill="none" stroke="#191970" d="M64.5573,-423.7795C72.7346,-473.951 112.2312,-701.9565 162,-750 169.3249,-757.071 178.4387,-762.1375 188.0798,-765.7528"/>
<polygon fill="#191970" stroke="#191970" points="187.2583,-769.1653 197.8499,-768.9047 189.4076,-762.5034 187.2583,-769.1653"/>
</g>
<!-- Node36 -->
<g id="node4" class="node">
<title>Node36</title>
<g id="a_node4"><a xlink:href="classHamiltonianOne.html#ac0c0312d217259f68a95a5a72a747201" target="_top" xlink:title="HamiltonianOne::changeTo\lSpherical">
<polygon fill="none" stroke="#000000" points="181.5,-710 181.5,-740 329.5,-740 329.5,-710 181.5,-710"/>
<text text-anchor="start" x="189.5" y="-728" font-family="Helvetica,sans-Serif" font-size="10.00" fill="#000000">HamiltonianOne::changeTo</text>
<text text-anchor="middle" x="255.5" y="-717" font-family="Helvetica,sans-Serif" font-size="10.00" fill="#000000">Spherical</text>
</a>
</g>
</g>
<!-- Node33&#45;&gt;Node36 -->
<g id="edge3" class="edge">
<title>Node33&#45;&gt;Node36</title>
<path fill="none" stroke="#191970" d="M65.0206,-423.5351C74.7748,-468.7131 118.3132,-660.7121 162,-701 165.1878,-703.9398 168.6863,-706.5304 172.4003,-708.8125"/>
<polygon fill="#191970" stroke="#191970" points="170.9385,-711.9991 181.4122,-713.5966 174.2207,-705.8163 170.9385,-711.9991"/>
</g>
<!-- Node37 -->
<g id="node5" class="node">
<title>Node37</title>
<g id="a_node5"><a xlink:href="classHamiltonianmatrix.html#a4dded9728c945c20fcd7abbc8bd5cfe6" target="_top" xlink:title="Hamiltonianmatrix::\lcompress">
<polygon fill="none" stroke="#000000" points="198,-661 198,-691 313,-691 313,-661 198,-661"/>
<text text-anchor="start" x="206" y="-679" font-family="Helvetica,sans-Serif" font-size="10.00" fill="#000000">Hamiltonianmatrix::</text>
<text text-anchor="middle" x="255.5" y="-668" font-family="Helvetica,sans-Serif" font-size="10.00" fill="#000000">compress</text>
</a>
</g>
</g>
<!-- Node33&#45;&gt;Node37 -->
<g id="edge4" class="edge">
<title>Node33&#45;&gt;Node37</title>
<path fill="none" stroke="#191970" d="M64.0225,-423.9526C68.3195,-460.4472 88.2659,-588.1177 162,-652 169.5048,-658.502 178.5441,-663.2799 188.0058,-666.7835"/>
<polygon fill="#191970" stroke="#191970" points="186.9751,-670.1286 197.567,-669.8789 189.1312,-663.4689 186.9751,-670.1286"/>
</g>
<!-- Node38 -->
<g id="node6" class="node">
<title>Node38</title>
<g id="a_node6"><a xlink:href="classHamiltonianmatrix.html#a1db6d20a1d88ef89f1acdad819af34ee" target="_top" xlink:title="Hamiltonianmatrix::\ldiagonalize">
<polygon fill="none" stroke="#000000" points="198,-612 198,-642 313,-642 313,-612 198,-612"/>
<text text-anchor="start" x="206" y="-630" font-family="Helvetica,sans-Serif" font-size="10.00" fill="#000000">Hamiltonianmatrix::</text>
<text text-anchor="middle" x="255.5" y="-619" font-family="Helvetica,sans-Serif" font-size="10.00" fill="#000000">diagonalize</text>
</a>
</g>
</g>
<!-- Node33&#45;&gt;Node38 -->
<g id="edge5" class="edge">
<title>Node33&#45;&gt;Node38</title>
<path fill="none" stroke="#191970" d="M65.4297,-423.596C73.5746,-453.8074 102.7925,-547.8655 162,-597 169.6745,-603.3688 178.724,-608.3935 188.1193,-612.3557"/>
<polygon fill="#191970" stroke="#191970" points="187.0012,-615.6752 197.5919,-615.9742 189.4993,-609.1361 187.0012,-615.6752"/>
</g>
<!-- Node41 -->
<g id="node9" class="node">
<title>Node41</title>
<g id="a_node9"><a xlink:href="classHamiltonianmatrix.html#a4069febf25da1723d9cc8e27cd2cd669" target="_top" xlink:title="Hamiltonianmatrix::\lnum_basisvectors">
<polygon fill="none" stroke="#000000" points="407.5,-565 407.5,-595 522.5,-595 522.5,-565 407.5,-565"/>
<text text-anchor="start" x="415.5" y="-583" font-family="Helvetica,sans-Serif" font-size="10.00" fill="#000000">Hamiltonianmatrix::</text>
<text text-anchor="middle" x="465" y="-572" font-family="Helvetica,sans-Serif" font-size="10.00" fill="#000000">num_basisvectors</text>
</a>
</g>
</g>
<!-- Node33&#45;&gt;Node41 -->
<g id="edge19" class="edge">
<title>Node33&#45;&gt;Node41</title>
<path fill="none" stroke="#191970" d="M65.933,-423.6348C74.9474,-451.3608 105.1394,-531.437 162,-564 234.1373,-605.3116 332.4765,-601.7712 397.3023,-592.9774"/>
<polygon fill="#191970" stroke="#191970" points="398.0082,-596.4121 407.4096,-591.527 397.0138,-589.4831 398.0082,-596.4121"/>
</g>
<!-- Node42 -->
<g id="node10" class="node">
<title>Node42</title>
<g id="a_node10"><a xlink:href="QuantumDefect_8cpp.html#ac472df8bb08bd6ff27c7ef7633ae62c5" target="_top" xlink:title="Returns only the energy of a state. ">
<polygon fill="none" stroke="#000000" points="215.5,-535.5 215.5,-554.5 295.5,-554.5 295.5,-535.5 215.5,-535.5"/>
<text text-anchor="middle" x="255.5" y="-542.5" font-family="Helvetica,sans-Serif" font-size="10.00" fill="#000000">energy_level</text>
</a>
</g>
</g>
<!-- Node33&#45;&gt;Node42 -->
<g id="edge9" class="edge">
<title>Node33&#45;&gt;Node42</title>
<path fill="none" stroke="#191970" d="M68.4903,-423.6754C81.5597,-445.7463 116.8282,-499.9136 162,-526 175.0533,-533.5382 190.641,-538.118 205.3119,-540.8901"/>
<polygon fill="#191970" stroke="#191970" points="204.8434,-544.3601 215.2798,-542.5347 205.983,-537.4535 204.8434,-544.3601"/>
</g>
<!-- Node43 -->
<g id="node11" class="node">
<title>Node43</title>
<g id="a_node11"><a xlink:href="classMatrixElements.html#a236af23d67ee9ccaff40d839764152e1" target="_top" xlink:title="MatrixElements::getDiamagnetism">
<polygon fill="none" stroke="#000000" points="162,-497.5 162,-516.5 349,-516.5 349,-497.5 162,-497.5"/>
<text text-anchor="middle" x="255.5" y="-504.5" font-family="Helvetica,sans-Serif" font-size="10.00" fill="#000000">MatrixElements::getDiamagnetism</text>
</a>
</g>
</g>
<!-- Node33&#45;&gt;Node43 -->
<g id="edge10" class="edge">
<title>Node33&#45;&gt;Node43</title>
<path fill="none" stroke="#191970" d="M72.7181,-423.6543C89.4345,-439.6711 125.3797,-471.5945 162,-488 167.6546,-490.5332 173.653,-492.7318 179.774,-494.6394"/>
<polygon fill="#191970" stroke="#191970" points="178.8853,-498.0255 189.4619,-497.404 180.8062,-491.2942 178.8853,-498.0255"/>
</g>
<!-- Node44 -->
<g id="node12" class="node">
<title>Node44</title>
<g id="a_node12"><a xlink:href="classMatrixElements.html#a028e0fd7873f47d9a598c2e3e1200517" target="_top" xlink:title="MatrixElements::getElectric\lMomentum">
<polygon fill="none" stroke="#000000" points="180,-448 180,-478 331,-478 331,-448 180,-448"/>
<text text-anchor="start" x="188" y="-466" font-family="Helvetica,sans-Serif" font-size="10.00" fill="#000000">MatrixElements::getElectric</text>
<text text-anchor="middle" x="255.5" y="-455" font-family="Helvetica,sans-Serif" font-size="10.00" fill="#000000">Momentum</text>
</a>
</g>
</g>
<!-- Node33&#45;&gt;Node44 -->
<g id="edge11" class="edge">
<title>Node33&#45;&gt;Node44</title>
<path fill="none" stroke="#191970" d="M100.5729,-423.564C124.9441,-429.7676 157.4315,-438.0371 186.361,-445.401"/>
<polygon fill="#191970" stroke="#191970" points="185.8718,-448.888 196.4262,-447.963 187.5986,-442.1043 185.8718,-448.888"/>
</g>
<!-- Node46 -->
<g id="node14" class="node">
<title>Node46</title>
<g id="a_node14"><a xlink:href="classMatrixElements.html#a067d51ef7fad32019f543cf41494fcb6" target="_top" xlink:title="MatrixElements::getMagnetic\lMomentum">
<polygon fill="none" stroke="#000000" points="176,-399 176,-429 335,-429 335,-399 176,-399"/>
<text text-anchor="start" x="184" y="-417" font-family="Helvetica,sans-Serif" font-size="10.00" fill="#000000">MatrixElements::getMagnetic</text>
<text text-anchor="middle" x="255.5" y="-406" font-family="Helvetica,sans-Serif" font-size="10.00" fill="#000000">Momentum</text>
</a>
</g>
</g>
<!-- Node33&#45;&gt;Node46 -->
<g id="edge13" class="edge">
<title>Node33&#45;&gt;Node46</title>
<path fill="none" stroke="#191970" d="M126.0317,-414C138.7015,-414 152.2466,-414 165.6266,-414"/>
<polygon fill="#191970" stroke="#191970" points="165.809,-417.5001 175.809,-414 165.8089,-410.5001 165.809,-417.5001"/>
</g>
<!-- Node47 -->
<g id="node15" class="node">
<title>Node47</title>
<g id="a_node15"><a xlink:href="classHamiltonianmatrix.html#ab5561740a111d0e9dc53c865009176a5" target="_top" xlink:title="Hamiltonianmatrix::load">
<polygon fill="none" stroke="#000000" points="187.5,-360.5 187.5,-379.5 323.5,-379.5 323.5,-360.5 187.5,-360.5"/>
<text text-anchor="middle" x="255.5" y="-367.5" font-family="Helvetica,sans-Serif" font-size="10.00" fill="#000000">Hamiltonianmatrix::load</text>
</a>
</g>
</g>
<!-- Node33&#45;&gt;Node47 -->
<g id="edge14" class="edge">
<title>Node33&#45;&gt;Node47</title>
<path fill="none" stroke="#191970" d="M101.4952,-404.4111C119.7968,-399.9182 141.9988,-394.5627 162,-390 174.2594,-387.2034 187.4503,-384.3107 199.9479,-381.6236"/>
<polygon fill="#191970" stroke="#191970" points="200.7442,-385.0325 209.7911,-379.5185 199.2802,-378.1873 200.7442,-385.0325"/>
</g>
<!-- Node51 -->
<g id="node19" class="node">
<title>Node51</title>
<g id="a_node19"><a xlink:href="classConfiguration.html#a545d28b3d64edc05331ee71898acfd1c" target="_top" xlink:title="Load configuration from JSON file. ">
<polygon fill="none" stroke="#000000" points="200.5,-311 200.5,-341 310.5,-341 310.5,-311 200.5,-311"/>
<text text-anchor="start" x="208.5" y="-329" font-family="Helvetica,sans-Serif" font-size="10.00" fill="#000000">Configuration::load</text>
<text text-anchor="middle" x="255.5" y="-318" font-family="Helvetica,sans-Serif" font-size="10.00" fill="#000000">_from_json</text>
</a>
</g>
</g>
<!-- Node33&#45;&gt;Node51 -->
<g id="edge18" class="edge">
<title>Node33&#45;&gt;Node51</title>
<path fill="none" stroke="#191970" d="M75.4203,-404.3114C93.5144,-390.6258 128.6139,-365.6696 162,-351 170.9993,-347.0458 180.7681,-343.5933 190.4848,-340.6197"/>
<polygon fill="#191970" stroke="#191970" points="191.5307,-343.9606 200.1538,-337.8049 189.5741,-337.2396 191.5307,-343.9606"/>
</g>
<!-- Node52 -->
<g id="node20" class="node">
<title>Node52</title>
<g id="a_node20"><a xlink:href="classMatrixElements.html#a32c0094a2cb546133d508f3bf29930ab" target="_top" xlink:title="MatrixElements::precalculate\lDiamagnetism">
<polygon fill="none" stroke="#000000" points="176,-262 176,-292 335,-292 335,-262 176,-262"/>
<text text-anchor="start" x="184" y="-280" font-family="Helvetica,sans-Serif" font-size="10.00" fill="#000000">MatrixElements::precalculate</text>
<text text-anchor="middle" x="255.5" y="-269" font-family="Helvetica,sans-Serif" font-size="10.00" fill="#000000">Diamagnetism</text>
</a>
</g>
</g>
<!-- Node33&#45;&gt;Node52 -->
<g id="edge20" class="edge">
<title>Node33&#45;&gt;Node52</title>
<path fill="none" stroke="#191970" d="M68.8032,-404.1872C82.265,-382.3077 117.8625,-329.3105 162,-302 165.4382,-299.8726 169.0562,-297.9242 172.7897,-296.14"/>
<polygon fill="#191970" stroke="#191970" points="174.4854,-299.2199 182.2716,-292.0348 171.7041,-292.7961 174.4854,-299.2199"/>
</g>
<!-- Node53 -->
<g id="node21" class="node">
<title>Node53</title>
<g id="a_node21"><a xlink:href="classMatrixElements.html#a14a519d2b14628f1f00ef425fa033043" target="_top" xlink:title="MatrixElements::precalculate\lElectricMomentum">
<polygon fill="none" stroke="#000000" points="176,-213 176,-243 335,-243 335,-213 176,-213"/>
<text text-anchor="start" x="184" y="-231" font-family="Helvetica,sans-Serif" font-size="10.00" fill="#000000">MatrixElements::precalculate</text>
<text text-anchor="middle" x="255.5" y="-220" font-family="Helvetica,sans-Serif" font-size="10.00" fill="#000000">ElectricMomentum</text>
</a>
</g>
</g>
<!-- Node33&#45;&gt;Node53 -->
<g id="edge21" class="edge">
<title>Node33&#45;&gt;Node53</title>
<path fill="none" stroke="#191970" d="M66.0886,-404.2613C75.5245,-376.1351 106.7454,-294.172 162,-253 164.48,-251.1521 167.0867,-249.4406 169.7892,-247.8556"/>
<polygon fill="#191970" stroke="#191970" points="171.4545,-250.9346 178.7073,-243.2114 168.2213,-244.726 171.4545,-250.9346"/>
</g>
<!-- Node54 -->
<g id="node22" class="node">
<title>Node54</title>
<g id="a_node22"><a xlink:href="classMatrixElements.html#af786718331598916e45d54054752eeab" target="_top" xlink:title="MatrixElements::precalculate\lMagneticMomentum">
<polygon fill="none" stroke="#000000" points="176,-164 176,-194 335,-194 335,-164 176,-164"/>
<text text-anchor="start" x="184" y="-182" font-family="Helvetica,sans-Serif" font-size="10.00" fill="#000000">MatrixElements::precalculate</text>
<text text-anchor="middle" x="255.5" y="-171" font-family="Helvetica,sans-Serif" font-size="10.00" fill="#000000">MagneticMomentum</text>
</a>
</g>
</g>
<!-- Node33&#45;&gt;Node54 -->
<g id="edge22" class="edge">
<title>Node33&#45;&gt;Node54</title>
<path fill="none" stroke="#191970" d="M64.6012,-404.3086C70.6375,-370.9409 95.1743,-259.8046 162,-204 164.0313,-202.3037 166.1666,-200.7215 168.3854,-199.2457"/>
<polygon fill="#191970" stroke="#191970" points="170.4208,-202.1113 177.3139,-194.0655 166.9078,-196.0566 170.4208,-202.1113"/>
</g>
<!-- Node55 -->
<g id="node23" class="node">
<title>Node55</title>
<g id="a_node23"><a xlink:href="classsqlite_1_1statement.html#a1b40871fb975892f70ea097f7c6da9c1" target="_top" xlink:title="Prepare the statement. ">
<polygon fill="none" stroke="#000000" points="202.5,-115 202.5,-145 308.5,-145 308.5,-115 202.5,-115"/>
<text text-anchor="start" x="210.5" y="-133" font-family="Helvetica,sans-Serif" font-size="10.00" fill="#000000">sqlite::statement::</text>
<text text-anchor="middle" x="255.5" y="-122" font-family="Helvetica,sans-Serif" font-size="10.00" fill="#000000">prepare</text>
</a>
</g>
</g>
<!-- Node33&#45;&gt;Node55 -->
<g id="edge23" class="edge">
<title>Node33&#45;&gt;Node55</title>
<path fill="none" stroke="#191970" d="M63.6554,-404.2812C66.7599,-366.2183 83.3293,-225.8985 162,-155 170.5921,-147.2568 181.3238,-141.8701 192.4232,-138.1326"/>
<polygon fill="#191970" stroke="#191970" points="193.6179,-141.4297 202.2273,-135.2549 191.6463,-134.713 193.6179,-141.4297"/>
</g>
<!-- Node56 -->
<g id="node24" class="node">
<title>Node56</title>
<g id="a_node24"><a xlink:href="classHamiltonianmatrix.html#a9e77fcca733a19f250dd619799edc9e6" target="_top" xlink:title="Hamiltonianmatrix::save">
<polygon fill="none" stroke="#000000" points="186.5,-76.5 186.5,-95.5 324.5,-95.5 324.5,-76.5 186.5,-76.5"/>
<text text-anchor="middle" x="255.5" y="-83.5" font-family="Helvetica,sans-Serif" font-size="10.00" fill="#000000">Hamiltonianmatrix::save</text>
</a>
</g>
</g>
<!-- Node33&#45;&gt;Node56 -->
<g id="edge24" class="edge">
<title>Node33&#45;&gt;Node56</title>
<path fill="none" stroke="#191970" d="M64.7615,-404.3726C73.6293,-356.9391 114.8243,-148.6676 162,-106 166.4167,-102.0054 171.4317,-98.7375 176.7906,-96.0713"/>
<polygon fill="#191970" stroke="#191970" points="178.2478,-99.2551 186.0889,-92.13 175.5159,-92.8102 178.2478,-99.2551"/>
</g>
<!-- Node61 -->
<g id="node29" class="node">
<title>Node61</title>
<g id="a_node29"><a xlink:href="MatrixElements_8cpp.html#a6f6b84fd868c178f74ba516ddbffac2f" target="_top" xlink:title="selectionRulesMomentum">
<polygon fill="none" stroke="#000000" points="184,-38.5 184,-57.5 327,-57.5 327,-38.5 184,-38.5"/>
<text text-anchor="middle" x="255.5" y="-45.5" font-family="Helvetica,sans-Serif" font-size="10.00" fill="#000000">selectionRulesMomentum</text>
</a>
</g>
</g>
<!-- Node33&#45;&gt;Node61 -->
<g id="edge29" class="edge">
<title>Node33&#45;&gt;Node61</title>
<path fill="none" stroke="#191970" d="M64.4127,-404.1955C72.0057,-352.8558 109.5832,-115.5071 162,-67 165.6814,-63.5932 169.8001,-60.7265 174.2012,-58.3198"/>
<polygon fill="#191970" stroke="#191970" points="175.9625,-61.362 183.5818,-54.0001 173.0346,-55.0038 175.9625,-61.362"/>
</g>
<!-- Node62 -->
<g id="node30" class="node">
<title>Node62</title>
<g id="a_node30"><a xlink:href="MatrixElements_8cpp.html#a8091d5442eeac91702ef15b470e70798" target="_top" xlink:title="selectionRulesMultipole">
<polygon fill="none" stroke="#000000" points="189,-.5 189,-19.5 322,-19.5 322,-.5 189,-.5"/>
<text text-anchor="middle" x="255.5" y="-7.5" font-family="Helvetica,sans-Serif" font-size="10.00" fill="#000000">selectionRulesMultipole</text>
</a>
</g>
</g>
<!-- Node33&#45;&gt;Node62 -->
<g id="edge30" class="edge">
<title>Node33&#45;&gt;Node62</title>
<path fill="none" stroke="#191970" d="M64.1172,-404.2312C70.5487,-349.7113 104.5857,-83.5468 162,-29 167.0024,-24.2474 172.8525,-20.5384 179.142,-17.6592"/>
<polygon fill="#191970" stroke="#191970" points="180.5483,-20.8683 188.6236,-14.0098 178.0338,-14.3355 180.5483,-20.8683"/>
</g>
<!-- Node39 -->
<g id="node7" class="node">
<title>Node39</title>
<g id="a_node7"><a xlink:href="classHamiltonianmatrix.html#ab0f42b034579983088548dd6dd4e1e78" target="_top" xlink:title="Hamiltonianmatrix::\lbasis">
<polygon fill="none" stroke="#000000" points="407.5,-663 407.5,-693 522.5,-693 522.5,-663 407.5,-663"/>
<text text-anchor="start" x="415.5" y="-681" font-family="Helvetica,sans-Serif" font-size="10.00" fill="#000000">Hamiltonianmatrix::</text>
<text text-anchor="middle" x="465" y="-670" font-family="Helvetica,sans-Serif" font-size="10.00" fill="#000000">basis</text>
</a>
</g>
</g>
<!-- Node38&#45;&gt;Node39 -->
<g id="edge6" class="edge">
<title>Node38&#45;&gt;Node39</title>
<path fill="none" stroke="#191970" d="M313.0239,-641.0034C339.1319,-647.3591 370.1903,-654.9198 397.4048,-661.5448"/>
<polygon fill="#191970" stroke="#191970" points="396.6968,-664.9746 407.2409,-663.9393 398.3526,-658.1733 396.6968,-664.9746"/>
</g>
<!-- Node40 -->
<g id="node8" class="node">
<title>Node40</title>
<g id="a_node8"><a xlink:href="classHamiltonianmatrix.html#a9a6919d68a5f490c249adaaffd46fe75" target="_top" xlink:title="Hamiltonianmatrix::\lentries">
<polygon fill="none" stroke="#000000" points="407.5,-614 407.5,-644 522.5,-644 522.5,-614 407.5,-614"/>
<text text-anchor="start" x="415.5" y="-632" font-family="Helvetica,sans-Serif" font-size="10.00" fill="#000000">Hamiltonianmatrix::</text>
<text text-anchor="middle" x="465" y="-621" font-family="Helvetica,sans-Serif" font-size="10.00" fill="#000000">entries</text>
</a>
</g>
</g>
<!-- Node38&#45;&gt;Node40 -->
<g id="edge7" class="edge">
<title>Node38&#45;&gt;Node40</title>
<path fill="none" stroke="#191970" d="M313.0239,-627.5492C339.0174,-627.7973 369.918,-628.0923 397.0465,-628.3513"/>
<polygon fill="#191970" stroke="#191970" points="397.2079,-631.8529 407.2409,-628.4486 397.2748,-624.8532 397.2079,-631.8529"/>
</g>
<!-- Node38&#45;&gt;Node41 -->
<g id="edge8" class="edge">
<title>Node38&#45;&gt;Node41</title>
<path fill="none" stroke="#191970" d="M313.0239,-614.0949C339.1319,-608.2377 370.1903,-601.2699 397.4048,-595.1646"/>
<polygon fill="#191970" stroke="#191970" points="398.2496,-598.5621 407.2409,-592.9579 396.7173,-591.7319 398.2496,-598.5621"/>
</g>
<!-- Node45 -->
<g id="node13" class="node">
<title>Node45</title>
<g id="a_node13"><a xlink:href="classMatrixElements.html#a6b21945229b04895c8a2e896454df444" target="_top" xlink:title="MatrixElements::getMultipole">
<polygon fill="none" stroke="#000000" points="385,-453.5 385,-472.5 545,-472.5 545,-453.5 385,-453.5"/>
<text text-anchor="middle" x="465" y="-460.5" font-family="Helvetica,sans-Serif" font-size="10.00" fill="#000000">MatrixElements::getMultipole</text>
</a>
</g>
</g>
<!-- Node44&#45;&gt;Node45 -->
<g id="edge12" class="edge">
<title>Node44&#45;&gt;Node45</title>
<path fill="none" stroke="#191970" d="M331.1343,-463C345.3234,-463 360.2867,-463 374.8648,-463"/>
<polygon fill="#191970" stroke="#191970" points="374.8816,-466.5001 384.8816,-463 374.8815,-459.5001 374.8816,-466.5001"/>
</g>
<!-- Node48 -->
<g id="node16" class="node">
<title>Node48</title>
<g id="a_node16"><a xlink:href="classHamiltonianmatrix.html#a15bc9c823975f5395112432c5b8507db" target="_top" xlink:title="Hamiltonianmatrix::\ldoDeserialization">
<polygon fill="none" stroke="#000000" points="407.5,-355 407.5,-385 522.5,-385 522.5,-355 407.5,-355"/>
<text text-anchor="start" x="415.5" y="-373" font-family="Helvetica,sans-Serif" font-size="10.00" fill="#000000">Hamiltonianmatrix::</text>
<text text-anchor="middle" x="465" y="-362" font-family="Helvetica,sans-Serif" font-size="10.00" fill="#000000">doDeserialization</text>
</a>
</g>
</g>
<!-- Node47&#45;&gt;Node48 -->
<g id="edge15" class="edge">
<title>Node47&#45;&gt;Node48</title>
<path fill="none" stroke="#191970" d="M323.5186,-370C347.0399,-370 373.3903,-370 396.9168,-370"/>
<polygon fill="#191970" stroke="#191970" points="397.1574,-373.5001 407.1574,-370 397.1574,-366.5001 397.1574,-373.5001"/>
</g>
<!-- Node49 -->
<g id="node17" class="node">
<title>Node49</title>
<g id="a_node17"><a xlink:href="classSerializer.html#a26e560124d2dd1daa304ac8e878db630" target="_top" xlink:title="Serializer::load">
<polygon fill="none" stroke="#000000" points="594,-382.5 594,-401.5 683,-401.5 683,-382.5 594,-382.5"/>
<text text-anchor="middle" x="638.5" y="-389.5" font-family="Helvetica,sans-Serif" font-size="10.00" fill="#000000">Serializer::load</text>
</a>
</g>
</g>
<!-- Node48&#45;&gt;Node49 -->
<g id="edge16" class="edge">
<title>Node48&#45;&gt;Node49</title>
<path fill="none" stroke="#191970" d="M522.773,-377.3257C542.4999,-379.8271 564.4853,-382.6149 583.9502,-385.083"/>
<polygon fill="#191970" stroke="#191970" points="583.5132,-388.5555 593.874,-386.3414 584.3938,-381.6112 583.5132,-388.5555"/>
</g>
<!-- Node50 -->
<g id="node18" class="node">
<title>Node50</title>
<g id="a_node18"><a xlink:href="classHamiltonianmatrix.html#a37cc79dcec0f0d81265870a34517a225" target="_top" xlink:title="Hamiltonianmatrix::\lmergeComplex">
<polygon fill="none" stroke="#000000" points="581,-333 581,-363 696,-363 696,-333 581,-333"/>
<text text-anchor="start" x="589" y="-351" font-family="Helvetica,sans-Serif" font-size="10.00" fill="#000000">Hamiltonianmatrix::</text>
<text text-anchor="middle" x="638.5" y="-340" font-family="Helvetica,sans-Serif" font-size="10.00" fill="#000000">mergeComplex</text>
</a>
</g>
</g>
<!-- Node48&#45;&gt;Node50 -->
<g id="edge17" class="edge">
<title>Node48&#45;&gt;Node50</title>
<path fill="none" stroke="#191970" d="M522.773,-362.6743C538.1371,-360.7261 554.8712,-358.6042 570.7175,-356.5949"/>
<polygon fill="#191970" stroke="#191970" points="571.499,-360.0239 580.9793,-355.2937 570.6184,-353.0795 571.499,-360.0239"/>
</g>
<!-- Node57 -->
<g id="node25" class="node">
<title>Node57</title>
<g id="a_node25"><a xlink:href="classHamiltonianmatrix.html#aa8d50e3585a18628f4abbb5bcede4bbb" target="_top" xlink:title="Hamiltonianmatrix::\ldoSerialization">
<polygon fill="none" stroke="#000000" points="407.5,-71 407.5,-101 522.5,-101 522.5,-71 407.5,-71"/>
<text text-anchor="start" x="415.5" y="-89" font-family="Helvetica,sans-Serif" font-size="10.00" fill="#000000">Hamiltonianmatrix::</text>
<text text-anchor="middle" x="465" y="-78" font-family="Helvetica,sans-Serif" font-size="10.00" fill="#000000">doSerialization</text>
</a>
</g>
</g>
<!-- Node56&#45;&gt;Node57 -->
<g id="edge25" class="edge">
<title>Node56&#45;&gt;Node57</title>
<path fill="none" stroke="#191970" d="M324.6787,-86C348.0385,-86 374.0765,-86 397.319,-86"/>
<polygon fill="#191970" stroke="#191970" points="397.4361,-89.5001 407.436,-86 397.436,-82.5001 397.4361,-89.5001"/>
</g>
<!-- Node58 -->
<g id="node26" class="node">
<title>Node58</title>
<g id="a_node26"><a xlink:href="classSerializer.html#a79a572d0a14988acd13217beb7d5547b" target="_top" xlink:title="Serializer::save">
<polygon fill="none" stroke="#000000" points="592.5,-98.5 592.5,-117.5 684.5,-117.5 684.5,-98.5 592.5,-98.5"/>
<text text-anchor="middle" x="638.5" y="-105.5" font-family="Helvetica,sans-Serif" font-size="10.00" fill="#000000">Serializer::save</text>
</a>
</g>
</g>
<!-- Node57&#45;&gt;Node58 -->
<g id="edge26" class="edge">
<title>Node57&#45;&gt;Node58</title>
<path fill="none" stroke="#191970" d="M522.773,-93.3257C541.9916,-95.7626 563.3539,-98.4714 582.4407,-100.8916"/>
<polygon fill="#191970" stroke="#191970" points="582.1247,-104.3795 592.4856,-102.1653 583.0053,-97.4351 582.1247,-104.3795"/>
</g>
<!-- Node60 -->
<g id="node28" class="node">
<title>Node60</title>
<g id="a_node28"><a xlink:href="classHamiltonianmatrix.html#a035cf5188e89f3f4230beb502a718ea9" target="_top" xlink:title="Hamiltonianmatrix::\lsplitComplex">
<polygon fill="none" stroke="#000000" points="581,-49 581,-79 696,-79 696,-49 581,-49"/>
<text text-anchor="start" x="589" y="-67" font-family="Helvetica,sans-Serif" font-size="10.00" fill="#000000">Hamiltonianmatrix::</text>
<text text-anchor="middle" x="638.5" y="-56" font-family="Helvetica,sans-Serif" font-size="10.00" fill="#000000">splitComplex</text>
</a>
</g>
</g>
<!-- Node57&#45;&gt;Node60 -->
<g id="edge28" class="edge">
<title>Node57&#45;&gt;Node60</title>
<path fill="none" stroke="#191970" d="M522.773,-78.6743C538.1371,-76.7261 554.8712,-74.6042 570.7175,-72.5949"/>
<polygon fill="#191970" stroke="#191970" points="571.499,-76.0239 580.9793,-71.2937 570.6184,-69.0795 571.499,-76.0239"/>
</g>
<!-- Node59 -->
<g id="node27" class="node">
<title>Node59</title>
<g id="a_node27"><a xlink:href="classSerializable.html#ad0b89a7563e6a98df7eb6a8a46c51735" target="_top" xlink:title="Serializable::serialize">
<polygon fill="none" stroke="#000000" points="732,-98.5 732,-117.5 853,-117.5 853,-98.5 732,-98.5"/>
<text text-anchor="middle" x="792.5" y="-105.5" font-family="Helvetica,sans-Serif" font-size="10.00" fill="#000000">Serializable::serialize</text>
</a>
</g>
</g>
<!-- Node58&#45;&gt;Node59 -->
<g id="edge27" class="edge">
<title>Node58&#45;&gt;Node59</title>
<path fill="none" stroke="#191970" d="M684.7051,-108C696.3798,-108 709.1854,-108 721.7663,-108"/>
<polygon fill="#191970" stroke="#191970" points="721.782,-111.5001 731.7819,-108 721.7819,-104.5001 721.782,-111.5001"/>
</g>
</g>
</svg>
        <g id="navigator" transform="translate(0 0)" fill="#404254">
                <rect fill="#f2f5e9" fill-opacity="0.5" stroke="#606060" stroke-width=".5" x="0" y="0" width="60" height="60"/>
                <use id="zoomplus" xlink:href="#zoomPlus" x="17" y="9" onmousedown="handleZoom(evt,'in')"/>
                <use id="zoomminus" xlink:href="#zoomMin" x="42" y="9" onmousedown="handleZoom(evt,'out')"/>
                <use id="reset" xlink:href="#resetDef" x="30" y="36" onmousedown="handleReset()"/>
                <g id="arrowUp" xlink:href="#dirArrow" transform="translate(30 24)" onmousedown="handlePan(0,-1)">
                  <use xlink:href="#rim" fill="#404040">
                        <set attributeName="fill" to="#808080" begin="arrowUp.mouseover" end="arrowUp.mouseout"/>
                  </use>
                  <path fill="none" stroke="white" stroke-width="1.5" d="M0,-3.0v7 M-2.5,-0.5L0,-3.0L2.5,-0.5"/>
                </g>
                <g id="arrowRight" xlink:href="#dirArrow" transform="rotate(90) translate(36 -43)" onmousedown="handlePan(1,0)">
                  <use xlink:href="#rim" fill="#404040">
                        <set attributeName="fill" to="#808080" begin="arrowRight.mouseover" end="arrowRight.mouseout"/>
                  </use>
                  <path fill="none" stroke="white" stroke-width="1.5" d="M0,-3.0v7 M-2.5,-0.5L0,-3.0L2.5,-0.5"/>
                </g>
                <g id="arrowDown" xlink:href="#dirArrow" transform="rotate(180) translate(-30 -48)" onmousedown="handlePan(0,1)">
                  <use xlink:href="#rim" fill="#404040">
                        <set attributeName="fill" to="#808080" begin="arrowDown.mouseover" end="arrowDown.mouseout"/>
                  </use>
                  <path fill="none" stroke="white" stroke-width="1.5" d="M0,-3.0v7 M-2.5,-0.5L0,-3.0L2.5,-0.5"/>
                </g>
                <g id="arrowLeft" xlink:href="#dirArrow" transform="rotate(270) translate(-36 17)" onmousedown="handlePan(-1,0)">
                  <use xlink:href="#rim" fill="#404040">
                        <set attributeName="fill" to="#808080" begin="arrowLeft.mouseover" end="arrowLeft.mouseout"/>
                  </use>
                  <path fill="none" stroke="white" stroke-width="1.5" d="M0,-3.0v7 M-2.5,-0.5L0,-3.0L2.5,-0.5"/>
                </g>
        </g>
        <svg viewBox="0 0 15 15" width="100%" height="30px" preserveAspectRatio="xMaxYMin meet">
         <g id="arrow_out" transform="scale(0.3 0.3)">
          <a xlink:href="classHamiltonianOne_a9cb71dcb34ab9f0779c0bd66b758185e_cgraph_org.svg" target="_base">
           <rect id="button" ry="5" rx="5" y="6" x="6" height="38" width="38"
                fill="#f2f5e9" fill-opacity="0.5" stroke="#606060" stroke-width="1.0"/>
           <path id="arrow"
             d="M 11.500037,31.436501 C 11.940474,20.09759 22.043105,11.32322 32.158766,21.979434 L 37.068811,17.246167 C 37.068811,17.246167 37.088388,32 37.088388,32 L 22.160133,31.978069 C 22.160133,31.978069 26.997745,27.140456 26.997745,27.140456 C 18.528582,18.264221 13.291696,25.230495 11.500037,31.436501 z"
             style="fill:#404040;"/>
          </a>
         </g>
        </svg>
</svg>
