<?xml version="1.0" encoding="UTF-8" standalone="no"?>
<!DOCTYPE svg PUBLIC "-//W3C//DTD SVG 1.1//EN"
 "http://www.w3.org/Graphics/SVG/1.1/DTD/svg11.dtd">
<!-- Generated by graphviz version 2.40.1 (20161225.0304)
 -->
<!-- Title: Hamiltonianmatrix::addEntries Pages: 1 -->
<svg width="719pt" height="66pt"
 viewBox="0.00 0.00 719.00 66.00" xmlns="http://www.w3.org/2000/svg" xmlns:xlink="http://www.w3.org/1999/xlink">
<g id="graph0" class="graph" transform="scale(1 1) rotate(0) translate(4 62)">
<title>Hamiltonianmatrix::addEntries</title>
<!-- Node22 -->
<g id="node1" class="node">
<title>Node22</title>
<polygon fill="#bfbfbf" stroke="#000000" points="0,-14 0,-44 115,-44 115,-14 0,-14"/>
<text text-anchor="start" x="8" y="-32" font-family="Helvetica,sans-Serif" font-size="10.00" fill="#000000">Hamiltonianmatrix::</text>
<text text-anchor="middle" x="57.5" y="-21" font-family="Helvetica,sans-Serif" font-size="10.00" fill="#000000">addEntries</text>
</g>
<!-- Node23 -->
<g id="node2" class="node">
<title>Node23</title>
<g id="a_node2"><a xlink:href="classHamiltonianOne.html#a9cb71dcb34ab9f0779c0bd66b758185e" target="_top" xlink:title="HamiltonianOne::build">
<polygon fill="none" stroke="#000000" points="151,-38.5 151,-57.5 277,-57.5 277,-38.5 151,-38.5"/>
<text text-anchor="middle" x="214" y="-45.5" font-family="Helvetica,sans-Serif" font-size="10.00" fill="#000000">HamiltonianOne::build</text>
</a>
</g>
</g>
<!-- Node22&#45;&gt;Node23 -->
<g id="edge1" class="edge">
<title>Node22&#45;&gt;Node23</title>
<path fill="none" stroke="#191970" d="M125.5066,-37.2564C133.9372,-38.2799 142.5292,-39.323 150.882,-40.3371"/>
<polygon fill="#191970" stroke="#191970" points="125.6791,-33.7517 115.3302,-36.0209 124.8354,-40.7007 125.6791,-33.7517"/>
</g>
<!-- Node25 -->
<g id="node4" class="node">
<title>Node25</title>
<g id="a_node4"><a xlink:href="Hamiltonianmatrix_8cpp.html#ae139c21d132020dde7c86db8efc751e1" target="_top" xlink:title="combine">
<polygon fill="none" stroke="#000000" points="184.5,-.5 184.5,-19.5 243.5,-19.5 243.5,-.5 184.5,-.5"/>
<text text-anchor="middle" x="214" y="-7.5" font-family="Helvetica,sans-Serif" font-size="10.00" fill="#000000">combine</text>
</a>
</g>
</g>
<!-- Node22&#45;&gt;Node25 -->
<g id="edge3" class="edge">
<title>Node22&#45;&gt;Node25</title>
<path fill="none" stroke="#191970" d="M125.3792,-20.7591C146.0632,-18.2479 167.7314,-15.6173 184.4644,-13.5858"/>
<polygon fill="#191970" stroke="#191970" points="124.8354,-17.2993 115.3302,-21.9791 125.6791,-24.2483 124.8354,-17.2993"/>
</g>
<!-- Node24 -->
<g id="node3" class="node">
<title>Node24</title>
<g id="a_node3"><a xlink:href="classHamiltonianOne.html#ad3ba2d70879a60c9f065b5a2545dfe36" target="_top" xlink:title="HamiltonianOne::HamiltonianOne">
<polygon fill="none" stroke="#000000" points="313,-38.5 313,-57.5 495,-57.5 495,-38.5 313,-38.5"/>
<text text-anchor="middle" x="404" y="-45.5" font-family="Helvetica,sans-Serif" font-size="10.00" fill="#000000">HamiltonianOne::HamiltonianOne</text>
</a>
</g>
</g>
<!-- Node23&#45;&gt;Node24 -->
<g id="edge2" class="edge">
<title>Node23&#45;&gt;Node24</title>
<path fill="none" stroke="#191970" d="M287.0901,-48C295.4727,-48 304.0961,-48 312.6793,-48"/>
<polygon fill="#191970" stroke="#191970" points="287.0034,-44.5001 277.0033,-48 287.0033,-51.5001 287.0034,-44.5001"/>
</g>
<!-- Node26 -->
<g id="node5" class="node">
<title>Node26</title>
<g id="a_node5"><a xlink:href="classHamiltonianTwo.html#a6ca0a318f25170b69e571a07064a5afb" target="_top" xlink:title="HamiltonianTwo::calculate">
<polygon fill="none" stroke="#000000" points="331,-.5 331,-19.5 477,-19.5 477,-.5 331,-.5"/>
<text text-anchor="middle" x="404" y="-7.5" font-family="Helvetica,sans-Serif" font-size="10.00" fill="#000000">HamiltonianTwo::calculate</text>
</a>
</g>
</g>
<!-- Node25&#45;&gt;Node26 -->
<g id="edge4" class="edge">
<title>Node25&#45;&gt;Node26</title>
<path fill="none" stroke="#191970" d="M253.7683,-10C276.0399,-10 304.5167,-10 330.6769,-10"/>
<polygon fill="#191970" stroke="#191970" points="253.6875,-6.5001 243.6875,-10 253.6875,-13.5001 253.6875,-6.5001"/>
</g>
<!-- Node27 -->
<g id="node6" class="node">
<title>Node27</title>
<g id="a_node6"><a xlink:href="classHamiltonianTwo.html#abd374713c9b38f72265c7fe496c42b96" target="_top" xlink:title="HamiltonianTwo::HamiltonianTwo">
<polygon fill="none" stroke="#000000" points="531,-.5 531,-19.5 711,-19.5 711,-.5 531,-.5"/>
<text text-anchor="middle" x="621" y="-7.5" font-family="Helvetica,sans-Serif" font-size="10.00" fill="#000000">HamiltonianTwo::HamiltonianTwo</text>
</a>
</g>
</g>
<!-- Node26&#45;&gt;Node27 -->
<g id="edge5" class="edge">
<title>Node26&#45;&gt;Node27</title>
<path fill="none" stroke="#191970" d="M487.3947,-10C501.6135,-10 516.4409,-10 530.8258,-10"/>
<polygon fill="#191970" stroke="#191970" points="487.1638,-6.5001 477.1638,-10 487.1637,-13.5001 487.1638,-6.5001"/>
</g>
</g>
</svg>
