<?xml version="1.0" encoding="UTF-8" standalone="no"?>
<!DOCTYPE svg PUBLIC "-//W3C//DTD SVG 1.1//EN"
 "http://www.w3.org/Graphics/SVG/1.1/DTD/svg11.dtd">
<!-- Generated by graphviz version 2.40.1 (20161225.0304)
 -->
<!-- Title: Hamiltonianmatrix::changeBasis Pages: 1 -->
<svg width="274pt" height="137pt"
 viewBox="0.00 0.00 274.00 137.00" xmlns="http://www.w3.org/2000/svg" xmlns:xlink="http://www.w3.org/1999/xlink">
<g id="graph0" class="graph" transform="scale(1 1) rotate(0) translate(4 133)">
<title>Hamiltonianmatrix::changeBasis</title>
<!-- Node43 -->
<g id="node1" class="node">
<title>Node43</title>
<polygon fill="#bfbfbf" stroke="#000000" points="0,-49.5 0,-79.5 115,-79.5 115,-49.5 0,-49.5"/>
<text text-anchor="start" x="8" y="-67.5" font-family="Helvetica,sans-Serif" font-size="10.00" fill="#000000">Hamiltonianmatrix::</text>
<text text-anchor="middle" x="57.5" y="-56.5" font-family="Helvetica,sans-Serif" font-size="10.00" fill="#000000">changeBasis</text>
</g>
<!-- Node44 -->
<g id="node2" class="node">
<title>Node44</title>
<g id="a_node2"><a xlink:href="classHamiltonianmatrix.html#ab0f42b034579983088548dd6dd4e1e78" target="_top" xlink:title="Hamiltonianmatrix::\lbasis">
<polygon fill="none" stroke="#000000" points="151,-98.5 151,-128.5 266,-128.5 266,-98.5 151,-98.5"/>
<text text-anchor="start" x="159" y="-116.5" font-family="Helvetica,sans-Serif" font-size="10.00" fill="#000000">Hamiltonianmatrix::</text>
<text text-anchor="middle" x="208.5" y="-105.5" font-family="Helvetica,sans-Serif" font-size="10.00" fill="#000000">basis</text>
</a>
</g>
</g>
<!-- Node43&#45;&gt;Node44 -->
<g id="edge1" class="edge">
<title>Node43&#45;&gt;Node44</title>
<path fill="none" stroke="#191970" d="M104.0371,-79.6014C119.3222,-84.5615 136.4741,-90.1274 152.3924,-95.2929"/>
<polygon fill="#191970" stroke="#191970" points="151.5245,-98.6909 162.1166,-98.4484 153.6852,-92.0327 151.5245,-98.6909"/>
</g>
<!-- Node45 -->
<g id="node3" class="node">
<title>Node45</title>
<g id="a_node3"><a xlink:href="classHamiltonianmatrix.html#a9a6919d68a5f490c249adaaffd46fe75" target="_top" xlink:title="Hamiltonianmatrix::\lentries">
<polygon fill="none" stroke="#000000" points="151,-49.5 151,-79.5 266,-79.5 266,-49.5 151,-49.5"/>
<text text-anchor="start" x="159" y="-67.5" font-family="Helvetica,sans-Serif" font-size="10.00" fill="#000000">Hamiltonianmatrix::</text>
<text text-anchor="middle" x="208.5" y="-56.5" font-family="Helvetica,sans-Serif" font-size="10.00" fill="#000000">entries</text>
</a>
</g>
</g>
<!-- Node43&#45;&gt;Node45 -->
<g id="edge2" class="edge">
<title>Node43&#45;&gt;Node45</title>
<path fill="none" stroke="#191970" d="M115.0174,-64.5C123.4639,-64.5 132.2292,-64.5 140.8561,-64.5"/>
<polygon fill="#191970" stroke="#191970" points="140.8926,-68.0001 150.8925,-64.5 140.8925,-61.0001 140.8926,-68.0001"/>
</g>
<!-- Node46 -->
<g id="node4" class="node">
<title>Node46</title>
<g id="a_node4"><a xlink:href="classHamiltonianmatrix.html#abee2f1bfc2b5239e366a59d1f96ba03e" target="_top" xlink:title="Hamiltonianmatrix::\lHamiltonianmatrix">
<polygon fill="none" stroke="#000000" points="151,-.5 151,-30.5 266,-30.5 266,-.5 151,-.5"/>
<text text-anchor="start" x="159" y="-18.5" font-family="Helvetica,sans-Serif" font-size="10.00" fill="#000000">Hamiltonianmatrix::</text>
<text text-anchor="middle" x="208.5" y="-7.5" font-family="Helvetica,sans-Serif" font-size="10.00" fill="#000000">Hamiltonianmatrix</text>
</a>
</g>
</g>
<!-- Node43&#45;&gt;Node46 -->
<g id="edge3" class="edge">
<title>Node43&#45;&gt;Node46</title>
<path fill="none" stroke="#191970" d="M104.0371,-49.3986C119.3222,-44.4385 136.4741,-38.8726 152.3924,-33.7071"/>
<polygon fill="#191970" stroke="#191970" points="153.6852,-36.9673 162.1166,-30.5516 151.5245,-30.3091 153.6852,-36.9673"/>
</g>
</g>
</svg>
