<?xml version="1.0" encoding="UTF-8" standalone="no"?>
<!DOCTYPE svg PUBLIC "-//W3C//DTD SVG 1.1//EN"
 "http://www.w3.org/Graphics/SVG/1.1/DTD/svg11.dtd">
<!-- Generated by graphviz version 2.40.1 (20161225.0304)
 -->
<!-- Title: StateTwoOld Pages: 1 -->
<svg width="434pt" height="184pt"
 viewBox="0.00 0.00 434.00 184.00" xmlns="http://www.w3.org/2000/svg" xmlns:xlink="http://www.w3.org/1999/xlink">
<g id="graph0" class="graph" transform="scale(1 1) rotate(0) translate(4 180)">
<title>StateTwoOld</title>
<!-- Node2 -->
<g id="node1" class="node">
<title>Node2</title>
<polygon fill="#bfbfbf" stroke="#000000" points="163,-.5 163,-19.5 240,-19.5 240,-.5 163,-.5"/>
<text text-anchor="middle" x="201.5" y="-7.5" font-family="Helvetica,sans-Serif" font-size="10.00" fill="#000000">StateTwoOld</text>
</g>
<!-- Node3 -->
<g id="node2" class="node">
<title>Node3</title>
<g id="a_node2"><a xlink:href="classStateOld.html" target="_top" xlink:title="Base class for states ">
<polygon fill="none" stroke="#000000" points="0,-89.5 0,-108.5 59,-108.5 59,-89.5 0,-89.5"/>
<text text-anchor="middle" x="29.5" y="-96.5" font-family="Helvetica,sans-Serif" font-size="10.00" fill="#000000">StateOld</text>
</a>
</g>
</g>
<!-- Node3&#45;&gt;Node2 -->
<g id="edge1" class="edge">
<title>Node3&#45;&gt;Node2</title>
<path fill="none" stroke="#191970" d="M57.1697,-84.6825C92.5082,-66.3969 152.7,-35.2511 182.9654,-19.5906"/>
<polygon fill="#191970" stroke="#191970" points="55.18,-81.7712 47.907,-89.4754 58.397,-87.9883 55.18,-81.7712"/>
</g>
<!-- Node4 -->
<g id="node3" class="node">
<title>Node4</title>
<polygon fill="none" stroke="#bfbfbf" points="1.5,-156.5 1.5,-175.5 57.5,-175.5 57.5,-156.5 1.5,-156.5"/>
<text text-anchor="middle" x="29.5" y="-163.5" font-family="Helvetica,sans-Serif" font-size="10.00" fill="#000000">uint32_t</text>
</g>
<!-- Node4&#45;&gt;Node3 -->
<g id="edge2" class="edge">
<title>Node4&#45;&gt;Node3</title>
<path fill="none" stroke="#9a32cd" stroke-dasharray="5,2" d="M29.5,-146.1079C29.5,-133.714 29.5,-118.3263 29.5,-108.5817"/>
<polygon fill="#9a32cd" stroke="#9a32cd" points="26.0001,-146.4005 29.5,-156.4005 33.0001,-146.4006 26.0001,-146.4005"/>
<text text-anchor="middle" x="39" y="-130" font-family="Helvetica,sans-Serif" font-size="10.00" fill="#000000"> idx</text>
</g>
<!-- Node5 -->
<g id="node4" class="node">
<title>Node5</title>
<polygon fill="none" stroke="#bfbfbf" points="77,-89.5 77,-108.5 202,-108.5 202,-89.5 77,-89.5"/>
<text text-anchor="middle" x="139.5" y="-96.5" font-family="Helvetica,sans-Serif" font-size="10.00" fill="#000000">array&lt; std::string, 2 &gt;</text>
</g>
<!-- Node5&#45;&gt;Node2 -->
<g id="edge3" class="edge">
<title>Node5&#45;&gt;Node2</title>
<path fill="none" stroke="#9a32cd" stroke-dasharray="5,2" d="M152.0117,-81.0397C164.8925,-62.5494 184.4835,-34.4269 194.7247,-19.7259"/>
<polygon fill="#9a32cd" stroke="#9a32cd" points="148.9793,-79.2695 146.1351,-89.4754 154.723,-83.2708 148.9793,-79.2695"/>
<text text-anchor="middle" x="202" y="-57.5" font-family="Helvetica,sans-Serif" font-size="10.00" fill="#000000"> species</text>
<text text-anchor="middle" x="202" y="-46.5" font-family="Helvetica,sans-Serif" font-size="10.00" fill="#000000">element</text>
</g>
<!-- Node6 -->
<g id="node5" class="node">
<title>Node6</title>
<polygon fill="none" stroke="#bfbfbf" points="220,-89.5 220,-108.5 309,-108.5 309,-89.5 220,-89.5"/>
<text text-anchor="middle" x="264.5" y="-96.5" font-family="Helvetica,sans-Serif" font-size="10.00" fill="#000000">array&lt; int, 2 &gt;</text>
</g>
<!-- Node6&#45;&gt;Node2 -->
<g id="edge4" class="edge">
<title>Node6&#45;&gt;Node2</title>
<path fill="none" stroke="#9a32cd" stroke-dasharray="5,2" d="M253.9408,-80.2307C246.7213,-67.8796 236.6533,-51.5522 226.5,-38 221.733,-31.6372 215.8317,-24.9798 210.96,-19.7537"/>
<polygon fill="#9a32cd" stroke="#9a32cd" points="251.0511,-82.2269 259.0672,-89.1546 257.1209,-78.7401 251.0511,-82.2269"/>
<text text-anchor="middle" x="252" y="-57.5" font-family="Helvetica,sans-Serif" font-size="10.00" fill="#000000"> l</text>
<text text-anchor="middle" x="252" y="-46.5" font-family="Helvetica,sans-Serif" font-size="10.00" fill="#000000">n</text>
</g>
<!-- Node7 -->
<g id="node6" class="node">
<title>Node7</title>
<polygon fill="none" stroke="#bfbfbf" points="327,-89.5 327,-108.5 426,-108.5 426,-89.5 327,-89.5"/>
<text text-anchor="middle" x="376.5" y="-96.5" font-family="Helvetica,sans-Serif" font-size="10.00" fill="#000000">array&lt; float, 2 &gt;</text>
</g>
<!-- Node7&#45;&gt;Node2 -->
<g id="edge5" class="edge">
<title>Node7&#45;&gt;Node2</title>
<path fill="none" stroke="#9a32cd" stroke-dasharray="5,2" d="M349.2807,-84.5059C325.6459,-71.9932 290.45,-53.5342 259.5,-38 247.0084,-31.7303 232.8873,-24.9076 221.7063,-19.5668"/>
<polygon fill="#9a32cd" stroke="#9a32cd" points="347.8757,-87.7225 358.3501,-89.3159 351.1556,-81.5384 347.8757,-87.7225"/>
<text text-anchor="middle" x="327.5" y="-63" font-family="Helvetica,sans-Serif" font-size="10.00" fill="#000000"> j</text>
<text text-anchor="middle" x="327.5" y="-52" font-family="Helvetica,sans-Serif" font-size="10.00" fill="#000000">m</text>
<text text-anchor="middle" x="327.5" y="-41" font-family="Helvetica,sans-Serif" font-size="10.00" fill="#000000">s</text>
</g>
</g>
</svg>
