<?xml version="1.0" encoding="UTF-8" standalone="no"?>
<!DOCTYPE svg PUBLIC "-//W3C//DTD SVG 1.1//EN"
 "http://www.w3.org/Graphics/SVG/1.1/DTD/svg11.dtd">
<!-- Generated by graphviz version 2.40.1 (20161225.0304)
 -->
<!-- Title: Serializable::serialize Pages: 1 -->
<svg width="982pt" height="176pt"
 viewBox="0.00 0.00 982.00 176.00" xmlns="http://www.w3.org/2000/svg" xmlns:xlink="http://www.w3.org/1999/xlink">
<g id="graph0" class="graph" transform="scale(1 1) rotate(0) translate(4 172)">
<title>Serializable::serialize</title>
<!-- Node5 -->
<g id="node1" class="node">
<title>Node5</title>
<polygon fill="#bfbfbf" stroke="#000000" points="0,-72 0,-91 121,-91 121,-72 0,-72"/>
<text text-anchor="middle" x="60.5" y="-79" font-family="Helvetica,sans-Serif" font-size="10.00" fill="#000000">Serializable::serialize</text>
</g>
<!-- Node6 -->
<g id="node2" class="node">
<title>Node6</title>
<g id="a_node2"><a xlink:href="classSerializer.html#a79a572d0a14988acd13217beb7d5547b" target="_top" xlink:title="Serializer::save">
<polygon fill="none" stroke="#000000" points="157,-72 157,-91 249,-91 249,-72 157,-72"/>
<text text-anchor="middle" x="203" y="-79" font-family="Helvetica,sans-Serif" font-size="10.00" fill="#000000">Serializer::save</text>
</a>
</g>
</g>
<!-- Node5&#45;&gt;Node6 -->
<g id="edge1" class="edge">
<title>Node5&#45;&gt;Node6</title>
<path fill="none" stroke="#191970" d="M131.3659,-81.5C139.9293,-81.5 148.5001,-81.5 156.5835,-81.5"/>
<polygon fill="#191970" stroke="#191970" points="131.3462,-78.0001 121.3462,-81.5 131.3461,-85.0001 131.3462,-78.0001"/>
</g>
<!-- Node7 -->
<g id="node3" class="node">
<title>Node7</title>
<g id="a_node3"><a xlink:href="classHamiltonianmatrix.html#aa8d50e3585a18628f4abbb5bcede4bbb" target="_top" xlink:title="Hamiltonianmatrix::\ldoSerialization">
<polygon fill="none" stroke="#000000" points="285,-66.5 285,-96.5 400,-96.5 400,-66.5 285,-66.5"/>
<text text-anchor="start" x="293" y="-84.5" font-family="Helvetica,sans-Serif" font-size="10.00" fill="#000000">Hamiltonianmatrix::</text>
<text text-anchor="middle" x="342.5" y="-73.5" font-family="Helvetica,sans-Serif" font-size="10.00" fill="#000000">doSerialization</text>
</a>
</g>
</g>
<!-- Node6&#45;&gt;Node7 -->
<g id="edge2" class="edge">
<title>Node6&#45;&gt;Node7</title>
<path fill="none" stroke="#191970" d="M259.1808,-81.5C267.6153,-81.5 276.3251,-81.5 284.7908,-81.5"/>
<polygon fill="#191970" stroke="#191970" points="259.0642,-78.0001 249.0641,-81.5 259.0641,-85.0001 259.0642,-78.0001"/>
</g>
<!-- Node8 -->
<g id="node4" class="node">
<title>Node8</title>
<g id="a_node4"><a xlink:href="classHamiltonianmatrix.html#a1e43ece7300d46f751f02c3260a14bfb" target="_top" xlink:title="Hamiltonianmatrix::\lhashBasis">
<polygon fill="none" stroke="#000000" points="447.5,-137.5 447.5,-167.5 562.5,-167.5 562.5,-137.5 447.5,-137.5"/>
<text text-anchor="start" x="455.5" y="-155.5" font-family="Helvetica,sans-Serif" font-size="10.00" fill="#000000">Hamiltonianmatrix::</text>
<text text-anchor="middle" x="505" y="-144.5" font-family="Helvetica,sans-Serif" font-size="10.00" fill="#000000">hashBasis</text>
</a>
</g>
</g>
<!-- Node7&#45;&gt;Node8 -->
<g id="edge3" class="edge">
<title>Node7&#45;&gt;Node8</title>
<path fill="none" stroke="#191970" d="M379.3248,-101.4126C396.3317,-110.2434 416.9411,-120.4362 436,-128.5 443.3588,-131.6135 451.2745,-134.6481 459.0273,-137.454"/>
<polygon fill="#191970" stroke="#191970" points="380.7615,-98.2139 370.2799,-96.6689 377.5103,-104.4131 380.7615,-98.2139"/>
</g>
<!-- Node9 -->
<g id="node5" class="node">
<title>Node9</title>
<g id="a_node5"><a xlink:href="classHamiltonianmatrix.html#aebafe9543f93f3956fff32192efd86ce" target="_top" xlink:title="Hamiltonianmatrix::\lhashEntries">
<polygon fill="none" stroke="#000000" points="447.5,-88.5 447.5,-118.5 562.5,-118.5 562.5,-88.5 447.5,-88.5"/>
<text text-anchor="start" x="455.5" y="-106.5" font-family="Helvetica,sans-Serif" font-size="10.00" fill="#000000">Hamiltonianmatrix::</text>
<text text-anchor="middle" x="505" y="-95.5" font-family="Helvetica,sans-Serif" font-size="10.00" fill="#000000">hashEntries</text>
</a>
</g>
</g>
<!-- Node7&#45;&gt;Node9 -->
<g id="edge4" class="edge">
<title>Node7&#45;&gt;Node9</title>
<path fill="none" stroke="#191970" d="M410.4561,-90.7002C422.7549,-92.3653 435.4715,-94.0869 447.437,-95.7069"/>
<polygon fill="#191970" stroke="#191970" points="410.6282,-87.1917 400.249,-89.3183 409.689,-94.1284 410.6282,-87.1917"/>
</g>
<!-- Node10 -->
<g id="node6" class="node">
<title>Node10</title>
<g id="a_node6"><a xlink:href="classHamiltonianmatrix.html#a9e77fcca733a19f250dd619799edc9e6" target="_top" xlink:title="Hamiltonianmatrix::save">
<polygon fill="none" stroke="#000000" points="436,-50 436,-69 574,-69 574,-50 436,-50"/>
<text text-anchor="middle" x="505" y="-57" font-family="Helvetica,sans-Serif" font-size="10.00" fill="#000000">Hamiltonianmatrix::save</text>
</a>
</g>
</g>
<!-- Node7&#45;&gt;Node10 -->
<g id="edge5" class="edge">
<title>Node7&#45;&gt;Node10</title>
<path fill="none" stroke="#191970" d="M410.3638,-72.3123C418.7564,-71.1761 427.3448,-70.0133 435.7577,-68.8743"/>
<polygon fill="#191970" stroke="#191970" points="409.689,-68.8716 400.249,-73.6817 410.6282,-75.8083 409.689,-68.8716"/>
</g>
<!-- Node15 -->
<g id="node11" class="node">
<title>Node15</title>
<g id="a_node11"><a xlink:href="classHamiltonianmatrix.html#a8bd6ab90a4453e8e1d7d6a1cdb751686" target="_top" xlink:title="Hamiltonianmatrix::\lserialize">
<polygon fill="none" stroke="#000000" points="447.5,-.5 447.5,-30.5 562.5,-30.5 562.5,-.5 447.5,-.5"/>
<text text-anchor="start" x="455.5" y="-18.5" font-family="Helvetica,sans-Serif" font-size="10.00" fill="#000000">Hamiltonianmatrix::</text>
<text text-anchor="middle" x="505" y="-7.5" font-family="Helvetica,sans-Serif" font-size="10.00" fill="#000000">serialize</text>
</a>
</g>
</g>
<!-- Node7&#45;&gt;Node15 -->
<g id="edge10" class="edge">
<title>Node7&#45;&gt;Node15</title>
<path fill="none" stroke="#191970" d="M385.1398,-62.0987C401.0106,-55.0639 419.2365,-47.2039 436,-40.5 444.3995,-37.141 453.4474,-33.7221 462.1378,-30.5351"/>
<polygon fill="#191970" stroke="#191970" points="383.3041,-59.085 375.5966,-66.3545 386.1551,-65.4781 383.3041,-59.085"/>
</g>
<!-- Node11 -->
<g id="node7" class="node">
<title>Node11</title>
<g id="a_node7"><a xlink:href="classHamiltonianOne.html#a9cb71dcb34ab9f0779c0bd66b758185e" target="_top" xlink:title="HamiltonianOne::build">
<polygon fill="none" stroke="#000000" points="620,-69 620,-88 746,-88 746,-69 620,-69"/>
<text text-anchor="middle" x="683" y="-76" font-family="Helvetica,sans-Serif" font-size="10.00" fill="#000000">HamiltonianOne::build</text>
</a>
</g>
</g>
<!-- Node10&#45;&gt;Node11 -->
<g id="edge6" class="edge">
<title>Node10&#45;&gt;Node11</title>
<path fill="none" stroke="#191970" d="M584.0461,-67.9375C596.0085,-69.2144 608.2137,-70.5172 619.7828,-71.7521"/>
<polygon fill="#191970" stroke="#191970" points="584.3892,-64.4543 574.0742,-66.8731 583.6462,-71.4148 584.3892,-64.4543"/>
</g>
<!-- Node13 -->
<g id="node9" class="node">
<title>Node13</title>
<g id="a_node9"><a xlink:href="classHamiltonianTwo.html#a6ca0a318f25170b69e571a07064a5afb" target="_top" xlink:title="HamiltonianTwo::calculate">
<polygon fill="none" stroke="#000000" points="610,-31 610,-50 756,-50 756,-31 610,-31"/>
<text text-anchor="middle" x="683" y="-38" font-family="Helvetica,sans-Serif" font-size="10.00" fill="#000000">HamiltonianTwo::calculate</text>
</a>
</g>
</g>
<!-- Node10&#45;&gt;Node13 -->
<g id="edge8" class="edge">
<title>Node10&#45;&gt;Node13</title>
<path fill="none" stroke="#191970" d="M584.0648,-51.0605C592.6406,-50.1451 601.3409,-49.2164 609.8421,-48.309"/>
<polygon fill="#191970" stroke="#191970" points="583.6462,-47.5852 574.0742,-52.1269 584.3892,-54.5457 583.6462,-47.5852"/>
</g>
<!-- Node12 -->
<g id="node8" class="node">
<title>Node12</title>
<g id="a_node8"><a xlink:href="classHamiltonianOne.html#ad3ba2d70879a60c9f065b5a2545dfe36" target="_top" xlink:title="HamiltonianOne::HamiltonianOne">
<polygon fill="none" stroke="#000000" points="792,-69 792,-88 974,-88 974,-69 792,-69"/>
<text text-anchor="middle" x="883" y="-76" font-family="Helvetica,sans-Serif" font-size="10.00" fill="#000000">HamiltonianOne::HamiltonianOne</text>
</a>
</g>
</g>
<!-- Node11&#45;&gt;Node12 -->
<g id="edge7" class="edge">
<title>Node11&#45;&gt;Node12</title>
<path fill="none" stroke="#191970" d="M756.0601,-78.5C767.6733,-78.5 779.8104,-78.5 791.7784,-78.5"/>
<polygon fill="#191970" stroke="#191970" points="756.0068,-75.0001 746.0067,-78.5 756.0067,-82.0001 756.0068,-75.0001"/>
</g>
<!-- Node14 -->
<g id="node10" class="node">
<title>Node14</title>
<g id="a_node10"><a xlink:href="classHamiltonianTwo.html#abd374713c9b38f72265c7fe496c42b96" target="_top" xlink:title="HamiltonianTwo::HamiltonianTwo">
<polygon fill="none" stroke="#000000" points="793,-31 793,-50 973,-50 973,-31 793,-31"/>
<text text-anchor="middle" x="883" y="-38" font-family="Helvetica,sans-Serif" font-size="10.00" fill="#000000">HamiltonianTwo::HamiltonianTwo</text>
</a>
</g>
</g>
<!-- Node13&#45;&gt;Node14 -->
<g id="edge9" class="edge">
<title>Node13&#45;&gt;Node14</title>
<path fill="none" stroke="#191970" d="M766.2425,-40.5C775.0053,-40.5 783.9449,-40.5 792.7816,-40.5"/>
<polygon fill="#191970" stroke="#191970" points="766.0536,-37.0001 756.0536,-40.5 766.0535,-44.0001 766.0536,-37.0001"/>
</g>
</g>
</svg>
