<?xml version="1.0" encoding="UTF-8" standalone="no"?>
<!DOCTYPE svg PUBLIC "-//W3C//DTD SVG 1.1//EN"
 "http://www.w3.org/Graphics/SVG/1.1/DTD/svg11.dtd">
<!-- Generated by graphviz version 2.40.1 (20161225.0304)
 -->
<!-- Title: Hamiltonianmatrix::removeUnnecessaryBasisvectors Pages: 1 -->
<svg width="585pt" height="39pt"
 viewBox="0.00 0.00 585.00 39.00" xmlns="http://www.w3.org/2000/svg" xmlns:xlink="http://www.w3.org/1999/xlink">
<g id="graph0" class="graph" transform="scale(1 1) rotate(0) translate(4 35)">
<title>Hamiltonianmatrix::removeUnnecessaryBasisvectors</title>
<!-- Node174 -->
<g id="node1" class="node">
<title>Node174</title>
<polygon fill="#bfbfbf" stroke="#000000" points="0,-.5 0,-30.5 179,-30.5 179,-.5 0,-.5"/>
<text text-anchor="start" x="8" y="-18.5" font-family="Helvetica,sans-Serif" font-size="10.00" fill="#000000">Hamiltonianmatrix::</text>
<text text-anchor="middle" x="89.5" y="-7.5" font-family="Helvetica,sans-Serif" font-size="10.00" fill="#000000">removeUnnecessaryBasisvectors</text>
</g>
<!-- Node175 -->
<g id="node2" class="node">
<title>Node175</title>
<g id="a_node2"><a xlink:href="classHamiltonianTwo.html#a6ca0a318f25170b69e571a07064a5afb" target="_top" xlink:title="HamiltonianTwo::calculate">
<polygon fill="none" stroke="#000000" points="215,-6 215,-25 361,-25 361,-6 215,-6"/>
<text text-anchor="middle" x="288" y="-13" font-family="Helvetica,sans-Serif" font-size="10.00" fill="#000000">HamiltonianTwo::calculate</text>
</a>
</g>
</g>
<!-- Node174&#45;&gt;Node175 -->
<g id="edge1" class="edge">
<title>Node174&#45;&gt;Node175</title>
<path fill="none" stroke="#191970" d="M189.2524,-15.5C197.8542,-15.5 206.4509,-15.5 214.7842,-15.5"/>
<polygon fill="#191970" stroke="#191970" points="189.1679,-12.0001 179.1678,-15.5 189.1678,-19.0001 189.1679,-12.0001"/>
</g>
<!-- Node176 -->
<g id="node3" class="node">
<title>Node176</title>
<g id="a_node3"><a xlink:href="classHamiltonianTwo.html#abd374713c9b38f72265c7fe496c42b96" target="_top" xlink:title="HamiltonianTwo::HamiltonianTwo">
<polygon fill="none" stroke="#000000" points="397,-6 397,-25 577,-25 577,-6 397,-6"/>
<text text-anchor="middle" x="487" y="-13" font-family="Helvetica,sans-Serif" font-size="10.00" fill="#000000">HamiltonianTwo::HamiltonianTwo</text>
</a>
</g>
</g>
<!-- Node175&#45;&gt;Node176 -->
<g id="edge2" class="edge">
<title>Node175&#45;&gt;Node176</title>
<path fill="none" stroke="#191970" d="M371.3577,-15.5C379.7192,-15.5 388.237,-15.5 396.6663,-15.5"/>
<polygon fill="#191970" stroke="#191970" points="371.2525,-12.0001 361.2525,-15.5 371.2524,-19.0001 371.2525,-12.0001"/>
</g>
</g>
</svg>
