<?xml version="1.0" encoding="UTF-8" standalone="no"?>
<!DOCTYPE svg PUBLIC "-//W3C//DTD SVG 1.1//EN"
 "http://www.w3.org/Graphics/SVG/1.1/DTD/svg11.dtd">
<!-- Generated by graphviz version 2.40.1 (20161225.0304)
 -->
<!-- Title: SystemTwo::setDistanceVector Pages: 1 -->
<svg width="552pt" height="53pt"
 viewBox="0.00 0.00 552.00 52.50" xmlns="http://www.w3.org/2000/svg" xmlns:xlink="http://www.w3.org/1999/xlink">
<g id="graph0" class="graph" transform="scale(1 1) rotate(0) translate(4 48.5)">
<title>SystemTwo::setDistanceVector</title>
<!-- Node97 -->
<g id="node1" class="node">
<title>Node97</title>
<polygon fill="#bfbfbf" stroke="#000000" points="0,-6 0,-25 166,-25 166,-6 0,-6"/>
<text text-anchor="middle" x="83" y="-13" font-family="Helvetica,sans-Serif" font-size="10.00" fill="#000000">SystemTwo::setDistanceVector</text>
</g>
<!-- Node98 -->
<g id="node2" class="node">
<title>Node98</title>
<g id="a_node2"><a xlink:href="classSystemTwo.html#a5201c2042e25fa25d997ac91a150938d" target="_top" xlink:title="SystemTwo::enableGreenTensor">
<polygon fill="none" stroke="#000000" points="202,-25 202,-44 374,-44 374,-25 202,-25"/>
<text text-anchor="middle" x="288" y="-32" font-family="Helvetica,sans-Serif" font-size="10.00" fill="#000000">SystemTwo::enableGreenTensor</text>
</a>
</g>
</g>
<!-- Node97&#45;&gt;Node98 -->
<g id="edge1" class="edge">
<title>Node97&#45;&gt;Node98</title>
<path fill="none" stroke="#191970" d="M166.0858,-23.2006C174.5417,-23.9843 183.1805,-24.785 191.7606,-25.5802"/>
<polygon fill="#191970" stroke="#191970" points="191.511,-29.072 201.7914,-26.5099 192.1571,-22.1019 191.511,-29.072"/>
</g>
<!-- Node99 -->
<g id="node3" class="node">
<title>Node99</title>
<g id="a_node3"><a xlink:href="classSystemBase.html#a74e9ee0a201336d5c493ed98360ae378" target="_top" xlink:title="Helper method that shoul be called by the derived classes //////. ">
<polygon fill="none" stroke="#000000" points="410,-.5 410,-30.5 544,-30.5 544,-.5 410,-.5"/>
<text text-anchor="start" x="418" y="-18.5" font-family="Helvetica,sans-Serif" font-size="10.00" fill="#000000">SystemBase&lt; StateTwo</text>
<text text-anchor="middle" x="477" y="-7.5" font-family="Helvetica,sans-Serif" font-size="10.00" fill="#000000"> &gt;::onParameterChange</text>
</a>
</g>
</g>
<!-- Node97&#45;&gt;Node99 -->
<g id="edge3" class="edge">
<title>Node97&#45;&gt;Node99</title>
<path fill="none" stroke="#191970" d="M166.0758,-15.5C235.0098,-15.5 332.299,-15.5 399.6102,-15.5"/>
<polygon fill="#191970" stroke="#191970" points="399.7315,-19.0001 409.7315,-15.5 399.7315,-12.0001 399.7315,-19.0001"/>
</g>
<!-- Node98&#45;&gt;Node99 -->
<g id="edge2" class="edge">
<title>Node98&#45;&gt;Node99</title>
<path fill="none" stroke="#191970" d="M374.2038,-25.834C382.7173,-24.9782 391.3212,-24.1132 399.7364,-23.2672"/>
<polygon fill="#191970" stroke="#191970" points="400.2889,-26.7294 409.8886,-22.2466 399.5887,-19.7645 400.2889,-26.7294"/>
</g>
</g>
</svg>
