<?xml version="1.0" encoding="UTF-8" standalone="no"?>
<!DOCTYPE svg PUBLIC "-//W3C//DTD SVG 1.1//EN"
 "http://www.w3.org/Graphics/SVG/1.1/DTD/svg11.dtd">
<!-- Generated by graphviz version 2.40.1 (20161225.0304)
 -->
<!-- Title: Hamiltonianmatrix Pages: 1 -->
<svg width="519pt" height="106pt"
 viewBox="0.00 0.00 518.50 106.00" xmlns="http://www.w3.org/2000/svg" xmlns:xlink="http://www.w3.org/1999/xlink">
<g id="graph0" class="graph" transform="scale(1 1) rotate(0) translate(4 102)">
<title>Hamiltonianmatrix</title>
<!-- Node2 -->
<g id="node1" class="node">
<title>Node2</title>
<polygon fill="#bfbfbf" stroke="#000000" points="186.5,-.5 186.5,-19.5 295.5,-19.5 295.5,-.5 186.5,-.5"/>
<text text-anchor="middle" x="241" y="-7.5" font-family="Helvetica,sans-Serif" font-size="10.00" fill="#000000">Hamiltonianmatrix</text>
</g>
<!-- Node3 -->
<g id="node2" class="node">
<title>Node3</title>
<g id="a_node2"><a xlink:href="classSerializable.html" target="_top" xlink:title="Serializable">
<polygon fill="none" stroke="#000000" points="0,-78.5 0,-97.5 74,-97.5 74,-78.5 0,-78.5"/>
<text text-anchor="middle" x="37" y="-85.5" font-family="Helvetica,sans-Serif" font-size="10.00" fill="#000000">Serializable</text>
</a>
</g>
</g>
<!-- Node3&#45;&gt;Node2 -->
<g id="edge1" class="edge">
<title>Node3&#45;&gt;Node2</title>
<path fill="none" stroke="#191970" d="M71.5868,-74.7756C112.5854,-59.0997 179.897,-33.3629 216.1004,-19.5204"/>
<polygon fill="#191970" stroke="#191970" points="70.1049,-71.595 62.0144,-78.4357 72.6049,-78.1334 70.1049,-71.595"/>
</g>
<!-- Node4 -->
<g id="node3" class="node">
<title>Node4</title>
<polygon fill="none" stroke="#bfbfbf" points="92,-78.5 92,-97.5 232,-97.5 232,-78.5 92,-78.5"/>
<text text-anchor="middle" x="162" y="-85.5" font-family="Helvetica,sans-Serif" font-size="10.00" fill="#000000">vector&lt; eigen_triplet_t &gt;</text>
</g>
<!-- Node4&#45;&gt;Node2 -->
<g id="edge2" class="edge">
<title>Node4&#45;&gt;Node2</title>
<path fill="none" stroke="#9a32cd" stroke-dasharray="5,2" d="M178.837,-71.3762C194.7782,-55.6367 218.162,-32.5489 231.2338,-19.6426"/>
<polygon fill="#9a32cd" stroke="#9a32cd" points="176.3439,-68.9192 171.687,-78.4357 181.262,-73.9003 176.3439,-68.9192"/>
<text text-anchor="middle" x="249.5" y="-52" font-family="Helvetica,sans-Serif" font-size="10.00" fill="#000000"> triplets_entries</text>
<text text-anchor="middle" x="249.5" y="-41" font-family="Helvetica,sans-Serif" font-size="10.00" fill="#000000">triplets_basis</text>
</g>
<!-- Node5 -->
<g id="node4" class="node">
<title>Node5</title>
<polygon fill="none" stroke="#bfbfbf" points="250.5,-78.5 250.5,-97.5 391.5,-97.5 391.5,-78.5 250.5,-78.5"/>
<text text-anchor="middle" x="321" y="-85.5" font-family="Helvetica,sans-Serif" font-size="10.00" fill="#000000">SparseMatrix&lt; scalar_t &gt;</text>
</g>
<!-- Node5&#45;&gt;Node2 -->
<g id="edge3" class="edge">
<title>Node5&#45;&gt;Node2</title>
<path fill="none" stroke="#9a32cd" stroke-dasharray="5,2" d="M312.9801,-68.8852C308.0407,-58.7943 300.9374,-46.7299 292,-38 284.1962,-30.3774 273.8999,-24.203 264.6031,-19.6115"/>
<polygon fill="#9a32cd" stroke="#9a32cd" points="309.8564,-70.4712 317.1859,-78.1217 316.227,-67.5703 309.8564,-70.4712"/>
<text text-anchor="middle" x="327" y="-52" font-family="Helvetica,sans-Serif" font-size="10.00" fill="#000000"> basis_</text>
<text text-anchor="middle" x="327" y="-41" font-family="Helvetica,sans-Serif" font-size="10.00" fill="#000000">entries_</text>
</g>
<!-- Node6 -->
<g id="node5" class="node">
<title>Node6</title>
<polygon fill="none" stroke="#bfbfbf" points="409.5,-78.5 409.5,-97.5 510.5,-97.5 510.5,-78.5 409.5,-78.5"/>
<text text-anchor="middle" x="460" y="-85.5" font-family="Helvetica,sans-Serif" font-size="10.00" fill="#000000">vector&lt; byte_t &gt;</text>
</g>
<!-- Node6&#45;&gt;Node2 -->
<g id="edge4" class="edge">
<title>Node6&#45;&gt;Node2</title>
<path fill="none" stroke="#9a32cd" stroke-dasharray="5,2" d="M432.9481,-73.9249C411.2305,-63.0358 379.7274,-48.1511 351,-38 330.0042,-30.5809 306.1115,-24.256 285.97,-19.5048"/>
<polygon fill="#9a32cd" stroke="#9a32cd" points="431.4042,-77.0663 441.9059,-78.4683 434.5707,-70.8234 431.4042,-77.0663"/>
<text text-anchor="middle" x="417.5" y="-46.5" font-family="Helvetica,sans-Serif" font-size="10.00" fill="#000000"> bytes</text>
</g>
</g>
</svg>
