<?xml version="1.0" encoding="UTF-8" standalone="no"?>
<!DOCTYPE svg PUBLIC "-//W3C//DTD SVG 1.1//EN"
 "http://www.w3.org/Graphics/SVG/1.1/DTD/svg11.dtd">
<!-- Generated by graphviz version 2.40.1 (20161225.0304)
 -->
<!-- Title: Hamiltonian&lt; T &gt; Pages: 1 -->
<svg width="373pt" height="165pt"
 viewBox="0.00 0.00 373.00 165.00" xmlns="http://www.w3.org/2000/svg" xmlns:xlink="http://www.w3.org/1999/xlink">
<g id="graph0" class="graph" transform="scale(1 1) rotate(0) translate(4 161)">
<title>Hamiltonian&lt; T &gt;</title>
<!-- Node1 -->
<g id="node1" class="node">
<title>Node1</title>
<polygon fill="#bfbfbf" stroke="#000000" points="260,-69 260,-88 365,-88 365,-69 260,-69"/>
<text text-anchor="middle" x="312.5" y="-76" font-family="Helvetica,sans-Serif" font-size="10.00" fill="#000000">Hamiltonian&lt; T &gt;</text>
</g>
<!-- Node2 -->
<g id="node2" class="node">
<title>Node2</title>
<polygon fill="none" stroke="#bfbfbf" points="13,-126.5 13,-156.5 148,-156.5 148,-126.5 13,-126.5"/>
<text text-anchor="start" x="21" y="-144.5" font-family="Helvetica,sans-Serif" font-size="10.00" fill="#000000">vector&lt; std::shared</text>
<text text-anchor="middle" x="80.5" y="-133.5" font-family="Helvetica,sans-Serif" font-size="10.00" fill="#000000">_ptr&lt; Configuration &gt; &gt;</text>
</g>
<!-- Node2&#45;&gt;Node1 -->
<g id="edge1" class="edge">
<title>Node2&#45;&gt;Node1</title>
<path fill="none" stroke="#9a32cd" stroke-dasharray="5,2" d="M158.1853,-125.0377C184.9147,-118.8938 214.9231,-111.4603 242,-103.5 257.3247,-98.9947 274.1982,-93.0475 287.5946,-88.0839"/>
<polygon fill="#9a32cd" stroke="#9a32cd" points="157.0895,-121.6974 148.1145,-127.3276 158.6417,-128.5232 157.0895,-121.6974"/>
<text text-anchor="middle" x="210.5" y="-122.5" font-family="Helvetica,sans-Serif" font-size="10.00" fill="#000000"> params</text>
</g>
<!-- Node3 -->
<g id="node3" class="node">
<title>Node3</title>
<polygon fill="none" stroke="#bfbfbf" points="21,-88 21,-107 140,-107 140,-88 21,-88"/>
<text text-anchor="middle" x="80.5" y="-95" font-family="Helvetica,sans-Serif" font-size="10.00" fill="#000000">vector&lt; std::string &gt;</text>
</g>
<!-- Node3&#45;&gt;Node1 -->
<g id="edge2" class="edge">
<title>Node3&#45;&gt;Node1</title>
<path fill="none" stroke="#9a32cd" stroke-dasharray="5,2" d="M150.4245,-91.7734C185.5115,-88.8999 227.314,-85.4764 259.6765,-82.8261"/>
<polygon fill="#9a32cd" stroke="#9a32cd" points="149.9267,-88.3024 140.2458,-92.607 150.4981,-95.279 149.9267,-88.3024"/>
<text text-anchor="middle" x="210.5" y="-91.5" font-family="Helvetica,sans-Serif" font-size="10.00" fill="#000000"> matrix_path</text>
</g>
<!-- Node4 -->
<g id="node4" class="node">
<title>Node4</title>
<polygon fill="none" stroke="#bfbfbf" points="32,-50 32,-69 129,-69 129,-50 32,-50"/>
<text text-anchor="middle" x="80.5" y="-57" font-family="Helvetica,sans-Serif" font-size="10.00" fill="#000000">shared_ptr&lt; T &gt;</text>
</g>
<!-- Node4&#45;&gt;Node1 -->
<g id="edge3" class="edge">
<title>Node4&#45;&gt;Node1</title>
<path fill="none" stroke="#9a32cd" stroke-dasharray="5,2" d="M139.4166,-62.2247C170.0486,-63.875 208.0793,-66.2881 242,-69.5 247.7735,-70.0467 253.8033,-70.696 259.8008,-71.3918"/>
<polygon fill="#9a32cd" stroke="#9a32cd" points="139.4986,-58.7243 129.3286,-61.6943 139.131,-65.7146 139.4986,-58.7243"/>
<text text-anchor="middle" x="210.5" y="-72.5" font-family="Helvetica,sans-Serif" font-size="10.00" fill="#000000"> basis</text>
</g>
<!-- Node5 -->
<g id="node5" class="node">
<title>Node5</title>
<polygon fill="none" stroke="#bfbfbf" points="0,-.5 0,-30.5 161,-30.5 161,-.5 0,-.5"/>
<text text-anchor="start" x="8" y="-18.5" font-family="Helvetica,sans-Serif" font-size="10.00" fill="#000000">vector&lt; std::shared</text>
<text text-anchor="middle" x="80.5" y="-7.5" font-family="Helvetica,sans-Serif" font-size="10.00" fill="#000000">_ptr&lt; Hamiltonianmatrix &gt; &gt;</text>
</g>
<!-- Node5&#45;&gt;Node1 -->
<g id="edge4" class="edge">
<title>Node5&#45;&gt;Node1</title>
<path fill="none" stroke="#9a32cd" stroke-dasharray="5,2" d="M171.2049,-31.558C194.4937,-36.5073 219.358,-42.524 242,-49.5 259.3277,-54.8387 278.3,-62.7687 292.1941,-68.9875"/>
<polygon fill="#9a32cd" stroke="#9a32cd" points="171.835,-28.1142 161.3316,-29.5025 170.4083,-34.9673 171.835,-28.1142"/>
<text text-anchor="middle" x="210.5" y="-52.5" font-family="Helvetica,sans-Serif" font-size="10.00" fill="#000000"> matrix_diag</text>
</g>
</g>
</svg>
