<?xml version="1.0" encoding="UTF-8" standalone="no"?>
<!DOCTYPE svg PUBLIC "-//W3C//DTD SVG 1.1//EN"
 "http://www.w3.org/Graphics/SVG/1.1/DTD/svg11.dtd">
<!-- Generated by graphviz version 2.40.1 (20161225.0304)
 -->
<!-- Title: MatrixElements::getRadial Pages: 1 -->
<svg width="333pt" height="268pt"
 viewBox="0.00 0.00 333.00 268.00" xmlns="http://www.w3.org/2000/svg" xmlns:xlink="http://www.w3.org/1999/xlink">
<g id="graph0" class="graph" transform="scale(1 1) rotate(0) translate(4 264)">
<title>MatrixElements::getRadial</title>
<!-- Node24 -->
<g id="node1" class="node">
<title>Node24</title>
<polygon fill="#bfbfbf" stroke="#000000" points="0,-114.5 0,-133.5 146,-133.5 146,-114.5 0,-114.5"/>
<text text-anchor="middle" x="73" y="-121.5" font-family="Helvetica,sans-Serif" font-size="10.00" fill="#000000">MatrixElements::getRadial</text>
</g>
<!-- Node25 -->
<g id="node2" class="node">
<title>Node25</title>
<g id="a_node2"><a xlink:href="classsqlite_1_1statement.html#add6b491603e9505c82779ad762f72888" target="_top" xlink:title="Execute SQLite statements. ">
<polygon fill="none" stroke="#000000" points="189,-240.5 189,-259.5 318,-259.5 318,-240.5 189,-240.5"/>
<text text-anchor="middle" x="253.5" y="-247.5" font-family="Helvetica,sans-Serif" font-size="10.00" fill="#000000">sqlite::statement::exec</text>
</a>
</g>
</g>
<!-- Node24&#45;&gt;Node25 -->
<g id="edge1" class="edge">
<title>Node24&#45;&gt;Node25</title>
<path fill="none" stroke="#191970" d="M79.9859,-133.666C95.7182,-154.7097 136.1511,-204.8742 182,-231 185.9354,-233.2425 190.1435,-235.2277 194.4743,-236.984"/>
<polygon fill="#191970" stroke="#191970" points="193.4991,-240.3534 204.0932,-240.4741 195.8866,-233.7731 193.4991,-240.3534"/>
</g>
<!-- Node26 -->
<g id="node3" class="node">
<title>Node26</title>
<g id="a_node3"><a xlink:href="classsqlite_1_1statement.html#a881b89458af4ea9bde7a80e416f53903" target="_top" xlink:title="Get value of a field. ">
<polygon fill="none" stroke="#000000" points="192.5,-202.5 192.5,-221.5 314.5,-221.5 314.5,-202.5 192.5,-202.5"/>
<text text-anchor="middle" x="253.5" y="-209.5" font-family="Helvetica,sans-Serif" font-size="10.00" fill="#000000">sqlite::statement::get</text>
</a>
</g>
</g>
<!-- Node24&#45;&gt;Node26 -->
<g id="edge2" class="edge">
<title>Node24&#45;&gt;Node26</title>
<path fill="none" stroke="#191970" d="M85.3736,-133.6281C104.8826,-148.3798 144.4447,-176.5861 182,-193 187.4285,-195.3726 193.2219,-197.507 199.0726,-199.412"/>
<polygon fill="#191970" stroke="#191970" points="198.3329,-202.8452 208.9185,-202.4031 200.3676,-196.1474 198.3329,-202.8452"/>
</g>
<!-- Node27 -->
<g id="node4" class="node">
<title>Node27</title>
<g id="a_node4"><a xlink:href="classsqlite_1_1statement.html#a1b40871fb975892f70ea097f7c6da9c1" target="_top" xlink:title="Prepare the statement. ">
<polygon fill="none" stroke="#000000" points="200.5,-153 200.5,-183 306.5,-183 306.5,-153 200.5,-153"/>
<text text-anchor="start" x="208.5" y="-171" font-family="Helvetica,sans-Serif" font-size="10.00" fill="#000000">sqlite::statement::</text>
<text text-anchor="middle" x="253.5" y="-160" font-family="Helvetica,sans-Serif" font-size="10.00" fill="#000000">prepare</text>
</a>
</g>
</g>
<!-- Node24&#45;&gt;Node27 -->
<g id="edge3" class="edge">
<title>Node24&#45;&gt;Node27</title>
<path fill="none" stroke="#191970" d="M112.1658,-133.5473C135.0586,-139.1279 164.4902,-146.3023 190.5638,-152.6582"/>
<polygon fill="#191970" stroke="#191970" points="189.8272,-156.0811 200.3717,-155.049 191.4851,-149.2802 189.8272,-156.0811"/>
</g>
<!-- Node28 -->
<g id="node5" class="node">
<title>Node28</title>
<g id="a_node5"><a xlink:href="classStateTwoOld.html#a6efa9c8f92e433004b778f6f5ce212d9" target="_top" xlink:title="StateTwoOld::second">
<polygon fill="none" stroke="#000000" points="194.5,-114.5 194.5,-133.5 312.5,-133.5 312.5,-114.5 194.5,-114.5"/>
<text text-anchor="middle" x="253.5" y="-121.5" font-family="Helvetica,sans-Serif" font-size="10.00" fill="#000000">StateTwoOld::second</text>
</a>
</g>
</g>
<!-- Node24&#45;&gt;Node28 -->
<g id="edge4" class="edge">
<title>Node24&#45;&gt;Node28</title>
<path fill="none" stroke="#191970" d="M146.1561,-124C158.6768,-124 171.6532,-124 184.0731,-124"/>
<polygon fill="#191970" stroke="#191970" points="184.3527,-127.5001 194.3526,-124 184.3526,-120.5001 184.3527,-127.5001"/>
</g>
<!-- Node29 -->
<g id="node6" class="node">
<title>Node29</title>
<g id="a_node6"><a xlink:href="MatrixElements_8cpp.html#a6f6b84fd868c178f74ba516ddbffac2f" target="_top" xlink:title="selectionRulesMomentum">
<polygon fill="none" stroke="#000000" points="182,-76.5 182,-95.5 325,-95.5 325,-76.5 182,-76.5"/>
<text text-anchor="middle" x="253.5" y="-83.5" font-family="Helvetica,sans-Serif" font-size="10.00" fill="#000000">selectionRulesMomentum</text>
</a>
</g>
</g>
<!-- Node24&#45;&gt;Node29 -->
<g id="edge5" class="edge">
<title>Node24&#45;&gt;Node29</title>
<path fill="none" stroke="#191970" d="M118.5478,-114.411C142.7959,-109.3061 172.8037,-102.9887 198.3612,-97.6082"/>
<polygon fill="#191970" stroke="#191970" points="199.2153,-101.0052 208.2798,-95.5201 197.7732,-94.1553 199.2153,-101.0052"/>
</g>
<!-- Node30 -->
<g id="node7" class="node">
<title>Node30</title>
<g id="a_node7"><a xlink:href="MatrixElements_8cpp.html#a8091d5442eeac91702ef15b470e70798" target="_top" xlink:title="selectionRulesMultipole">
<polygon fill="none" stroke="#000000" points="187,-38.5 187,-57.5 320,-57.5 320,-38.5 187,-38.5"/>
<text text-anchor="middle" x="253.5" y="-45.5" font-family="Helvetica,sans-Serif" font-size="10.00" fill="#000000">selectionRulesMultipole</text>
</a>
</g>
</g>
<!-- Node24&#45;&gt;Node30 -->
<g id="edge6" class="edge">
<title>Node24&#45;&gt;Node30</title>
<path fill="none" stroke="#191970" d="M88.726,-114.346C109.4583,-101.9578 147.3676,-80.4637 182,-67 188.2736,-64.5611 194.9751,-62.3244 201.6662,-60.3095"/>
<polygon fill="#191970" stroke="#191970" points="202.7614,-63.6366 211.4111,-57.5183 200.8339,-56.9072 202.7614,-63.6366"/>
</g>
<!-- Node31 -->
<g id="node8" class="node">
<title>Node31</title>
<g id="a_node8"><a xlink:href="classsqlite_1_1statement.html#a0ef0c0c1fd66918b9a9c6167fd2e668f" target="_top" xlink:title="Step the statement. ">
<polygon fill="none" stroke="#000000" points="190,-.5 190,-19.5 317,-19.5 317,-.5 190,-.5"/>
<text text-anchor="middle" x="253.5" y="-7.5" font-family="Helvetica,sans-Serif" font-size="10.00" fill="#000000">sqlite::statement::step</text>
</a>
</g>
</g>
<!-- Node24&#45;&gt;Node31 -->
<g id="edge7" class="edge">
<title>Node24&#45;&gt;Node31</title>
<path fill="none" stroke="#191970" d="M81.2537,-114.3003C98.1554,-95.0641 138.7713,-51.9636 182,-29 186.3103,-26.7103 190.9164,-24.6817 195.6355,-22.8872"/>
<polygon fill="#191970" stroke="#191970" points="197.1027,-26.0839 205.4222,-19.5237 194.8275,-19.464 197.1027,-26.0839"/>
</g>
</g>
</svg>
