<?xml version="1.0" encoding="UTF-8" standalone="no"?>
<!DOCTYPE svg PUBLIC "-//W3C//DTD SVG 1.1//EN"
 "http://www.w3.org/Graphics/SVG/1.1/DTD/svg11.dtd">
<!-- Generated by graphviz version 2.40.1 (20161225.0304)
 -->
<!-- Title: QuantumDefect::QuantumDefect Pages: 1 -->
<svg width="348pt" height="317pt"
 viewBox="0.00 0.00 348.00 317.00" xmlns="http://www.w3.org/2000/svg" xmlns:xlink="http://www.w3.org/1999/xlink">
<g id="graph0" class="graph" transform="scale(1 1) rotate(0) translate(4 313)">
<title>QuantumDefect::QuantumDefect</title>
<!-- Node2 -->
<g id="node1" class="node">
<title>Node2</title>
<polygon fill="#bfbfbf" stroke="#000000" points="0,-136.5 0,-155.5 177,-155.5 177,-136.5 0,-136.5"/>
<text text-anchor="middle" x="88.5" y="-143.5" font-family="Helvetica,sans-Serif" font-size="10.00" fill="#000000">QuantumDefect::QuantumDefect</text>
</g>
<!-- Node3 -->
<g id="node2" class="node">
<title>Node3</title>
<g id="a_node2"><a xlink:href="classsqlite_1_1statement.html#a1b5e34a58010723e10ee31c4d02f7f55" target="_top" xlink:title="Bind a value to a position in the query. ">
<polygon fill="none" stroke="#000000" points="213,-289.5 213,-308.5 340,-308.5 340,-289.5 213,-289.5"/>
<text text-anchor="middle" x="276.5" y="-296.5" font-family="Helvetica,sans-Serif" font-size="10.00" fill="#000000">sqlite::statement::bind</text>
</a>
</g>
</g>
<!-- Node2&#45;&gt;Node3 -->
<g id="edge1" class="edge">
<title>Node2&#45;&gt;Node3</title>
<path fill="none" stroke="#191970" d="M94.7731,-155.7419C111.1395,-180.3732 157.7221,-245.6176 213,-280 216.3665,-282.0939 219.977,-283.9684 223.7049,-285.6445"/>
<polygon fill="#191970" stroke="#191970" points="222.556,-288.9545 233.1409,-289.4145 225.1532,-282.4541 222.556,-288.9545"/>
</g>
<!-- Node4 -->
<g id="node3" class="node">
<title>Node4</title>
<g id="a_node3"><a xlink:href="classsqlite_1_1statement.html#a881b89458af4ea9bde7a80e416f53903" target="_top" xlink:title="Get value of a field. ">
<polygon fill="none" stroke="#000000" points="215.5,-251.5 215.5,-270.5 337.5,-270.5 337.5,-251.5 215.5,-251.5"/>
<text text-anchor="middle" x="276.5" y="-258.5" font-family="Helvetica,sans-Serif" font-size="10.00" fill="#000000">sqlite::statement::get</text>
</a>
</g>
</g>
<!-- Node2&#45;&gt;Node4 -->
<g id="edge2" class="edge">
<title>Node2&#45;&gt;Node4</title>
<path fill="none" stroke="#191970" d="M98.2707,-155.618C118.1929,-174.7264 165.6395,-217.7158 213,-242 217.3166,-244.2134 221.9335,-246.213 226.6348,-248.0093"/>
<polygon fill="#191970" stroke="#191970" points="225.7391,-251.4042 236.3339,-251.414 228.0577,-244.7993 225.7391,-251.4042"/>
</g>
<!-- Node5 -->
<g id="node4" class="node">
<title>Node5</title>
<g id="a_node4"><a xlink:href="classsqlite_1_1statement.html#a1b40871fb975892f70ea097f7c6da9c1" target="_top" xlink:title="Prepare the statement. ">
<polygon fill="none" stroke="#000000" points="223.5,-202 223.5,-232 329.5,-232 329.5,-202 223.5,-202"/>
<text text-anchor="start" x="231.5" y="-220" font-family="Helvetica,sans-Serif" font-size="10.00" fill="#000000">sqlite::statement::</text>
<text text-anchor="middle" x="276.5" y="-209" font-family="Helvetica,sans-Serif" font-size="10.00" fill="#000000">prepare</text>
</a>
</g>
</g>
<!-- Node2&#45;&gt;Node5 -->
<g id="edge3" class="edge">
<title>Node2&#45;&gt;Node5</title>
<path fill="none" stroke="#191970" d="M113.8545,-155.5754C142.744,-166.4858 190.6541,-184.5795 227.0125,-198.3106"/>
<polygon fill="#191970" stroke="#191970" points="225.8694,-201.6201 236.4611,-201.8789 228.3425,-195.0715 225.8694,-201.6201"/>
</g>
<!-- Node6 -->
<g id="node5" class="node">
<title>Node6</title>
<g id="a_node5"><a xlink:href="classsqlite_1_1statement.html#a4feb0002bd8daa77fffef99c0f838f1c" target="_top" xlink:title="Reset the statement. ">
<polygon fill="none" stroke="#000000" points="223.5,-153 223.5,-183 329.5,-183 329.5,-153 223.5,-153"/>
<text text-anchor="start" x="231.5" y="-171" font-family="Helvetica,sans-Serif" font-size="10.00" fill="#000000">sqlite::statement::</text>
<text text-anchor="middle" x="276.5" y="-160" font-family="Helvetica,sans-Serif" font-size="10.00" fill="#000000">reset</text>
</a>
</g>
</g>
<!-- Node2&#45;&gt;Node6 -->
<g id="edge4" class="edge">
<title>Node2&#45;&gt;Node6</title>
<path fill="none" stroke="#191970" d="M169.8661,-155.5216C184.4795,-157.2316 199.5078,-158.9903 213.5034,-160.6281"/>
<polygon fill="#191970" stroke="#191970" points="213.1522,-164.1108 223.4913,-161.7968 213.9659,-157.1582 213.1522,-164.1108"/>
</g>
<!-- Node7 -->
<g id="node6" class="node">
<title>Node7</title>
<g id="a_node6"><a xlink:href="classCache.html#a32e00d0c66be5d022857e1ccb20f53a7" target="_top" xlink:title="Restore something from the cache. ">
<polygon fill="none" stroke="#000000" points="233,-114.5 233,-133.5 320,-133.5 320,-114.5 233,-114.5"/>
<text text-anchor="middle" x="276.5" y="-121.5" font-family="Helvetica,sans-Serif" font-size="10.00" fill="#000000">Cache::restore</text>
</a>
</g>
</g>
<!-- Node2&#45;&gt;Node7 -->
<g id="edge5" class="edge">
<title>Node2&#45;&gt;Node7</title>
<path fill="none" stroke="#191970" d="M169.8661,-136.4784C187.7814,-134.382 206.3203,-132.2125 222.8157,-130.2822"/>
<polygon fill="#191970" stroke="#191970" points="223.2731,-133.7527 232.7985,-129.114 222.4594,-126.8001 223.2731,-133.7527"/>
</g>
<!-- Node8 -->
<g id="node7" class="node">
<title>Node8</title>
<g id="a_node7"><a xlink:href="classCache.html#aea8bf4ae0b953bc577f21944caa2e81a" target="_top" xlink:title="Save something in the cache. ">
<polygon fill="none" stroke="#000000" points="238.5,-76.5 238.5,-95.5 314.5,-95.5 314.5,-76.5 238.5,-76.5"/>
<text text-anchor="middle" x="276.5" y="-83.5" font-family="Helvetica,sans-Serif" font-size="10.00" fill="#000000">Cache::save</text>
</a>
</g>
</g>
<!-- Node2&#45;&gt;Node8 -->
<g id="edge6" class="edge">
<title>Node2&#45;&gt;Node8</title>
<path fill="none" stroke="#191970" d="M116.6133,-136.4979C141.8007,-128.0431 179.7836,-115.4366 213,-105 219.7121,-102.8911 226.8401,-100.7057 233.8025,-98.6008"/>
<polygon fill="#191970" stroke="#191970" points="235.2467,-101.8215 243.8171,-95.5926 233.2329,-95.1174 235.2467,-101.8215"/>
</g>
<!-- Node9 -->
<g id="node8" class="node">
<title>Node9</title>
<g id="a_node8"><a xlink:href="classsqlite_1_1statement.html#aa68ea5317f4837f045502038d0682533" target="_top" xlink:title="Set the query string. ">
<polygon fill="none" stroke="#000000" points="216,-38.5 216,-57.5 337,-57.5 337,-38.5 216,-38.5"/>
<text text-anchor="middle" x="276.5" y="-45.5" font-family="Helvetica,sans-Serif" font-size="10.00" fill="#000000">sqlite::statement::set</text>
</a>
</g>
</g>
<!-- Node2&#45;&gt;Node9 -->
<g id="edge7" class="edge">
<title>Node2&#45;&gt;Node9</title>
<path fill="none" stroke="#191970" d="M100.9187,-136.468C122.5966,-120.2187 169.2169,-86.9783 213,-67 217.9727,-64.7309 223.2862,-62.6498 228.6429,-60.765"/>
<polygon fill="#191970" stroke="#191970" points="229.8695,-64.0459 238.2672,-57.586 227.674,-57.3991 229.8695,-64.0459"/>
</g>
<!-- Node10 -->
<g id="node9" class="node">
<title>Node10</title>
<g id="a_node9"><a xlink:href="classsqlite_1_1statement.html#a0ef0c0c1fd66918b9a9c6167fd2e668f" target="_top" xlink:title="Step the statement. ">
<polygon fill="none" stroke="#000000" points="213,-.5 213,-19.5 340,-19.5 340,-.5 213,-.5"/>
<text text-anchor="middle" x="276.5" y="-7.5" font-family="Helvetica,sans-Serif" font-size="10.00" fill="#000000">sqlite::statement::step</text>
</a>
</g>
</g>
<!-- Node2&#45;&gt;Node10 -->
<g id="edge8" class="edge">
<title>Node2&#45;&gt;Node10</title>
<path fill="none" stroke="#191970" d="M96.1167,-136.2394C114.0505,-113.9124 161.337,-58.755 213,-29 216.702,-26.8679 220.6657,-24.9546 224.7373,-23.2415"/>
<polygon fill="#191970" stroke="#191970" points="226.2479,-26.4121 234.3615,-19.5987 223.77,-19.8653 226.2479,-26.4121"/>
</g>
</g>
</svg>
