<?xml version="1.0" encoding="UTF-8" standalone="no"?>
<!DOCTYPE svg PUBLIC "-//W3C//DTD SVG 1.1//EN"
 "http://www.w3.org/Graphics/SVG/1.1/DTD/svg11.dtd">
<!-- Generated by graphviz version 2.40.1 (20161225.0304)
 -->
<!-- Title: SystemOne::initializeInteraction Pages: 1 -->
<svg width="757pt" height="400pt"
 viewBox="0.00 0.00 757.00 400.00" xmlns="http://www.w3.org/2000/svg" xmlns:xlink="http://www.w3.org/1999/xlink">
<g id="graph0" class="graph" transform="scale(1 1) rotate(0) translate(4 396)">
<title>SystemOne::initializeInteraction</title>
<!-- Node35 -->
<g id="node1" class="node">
<title>Node35</title>
<polygon fill="#bfbfbf" stroke="#000000" points="0,-192 0,-211 173,-211 173,-192 0,-192"/>
<text text-anchor="middle" x="86.5" y="-199" font-family="Helvetica,sans-Serif" font-size="10.00" fill="#000000">SystemOne::initializeInteraction</text>
</g>
<!-- Node36 -->
<g id="node2" class="node">
<title>Node36</title>
<g id="a_node2"><a xlink:href="classMatrixElementCache.html#ab1120fb945d5c0c5e30821e886c04c42" target="_top" xlink:title="MatrixElementCache\l::getDiamagnetism">
<polygon fill="none" stroke="#000000" points="241,-312.5 241,-342.5 359,-342.5 359,-312.5 241,-312.5"/>
<text text-anchor="start" x="249" y="-330.5" font-family="Helvetica,sans-Serif" font-size="10.00" fill="#000000">MatrixElementCache</text>
<text text-anchor="middle" x="300" y="-319.5" font-family="Helvetica,sans-Serif" font-size="10.00" fill="#000000">::getDiamagnetism</text>
</a>
</g>
</g>
<!-- Node35&#45;&gt;Node36 -->
<g id="edge1" class="edge">
<title>Node35&#45;&gt;Node36</title>
<path fill="none" stroke="#191970" d="M96.1393,-211.0182C115.7873,-229.9472 162.55,-272.6299 209,-297.5 216.9696,-301.7671 225.6564,-305.5744 234.3967,-308.9249"/>
<polygon fill="#191970" stroke="#191970" points="233.2765,-312.2418 243.8705,-312.3814 235.6758,-305.6658 233.2765,-312.2418"/>
</g>
<!-- Node38 -->
<g id="node4" class="node">
<title>Node38</title>
<g id="a_node4"><a xlink:href="classMatrixElementCache.html#ac6191cd01c85dd9cf28a373b524f0b1b" target="_top" xlink:title="Get matrix elements ////////////////////////////////////////////. ">
<polygon fill="none" stroke="#000000" points="241,-361.5 241,-391.5 359,-391.5 359,-361.5 241,-361.5"/>
<text text-anchor="start" x="249" y="-379.5" font-family="Helvetica,sans-Serif" font-size="10.00" fill="#000000">MatrixElementCache</text>
<text text-anchor="middle" x="300" y="-368.5" font-family="Helvetica,sans-Serif" font-size="10.00" fill="#000000">::getElectricDipole</text>
</a>
</g>
</g>
<!-- Node35&#45;&gt;Node38 -->
<g id="edge3" class="edge">
<title>Node35&#45;&gt;Node38</title>
<path fill="none" stroke="#191970" d="M91.3784,-211.0291C105.5909,-237.7987 149.7373,-314.2173 209,-352.5 215.83,-356.9121 223.4434,-360.5157 231.2776,-363.4585"/>
<polygon fill="#191970" stroke="#191970" points="230.3108,-366.8265 240.9052,-366.7302 232.5632,-360.1987 230.3108,-366.8265"/>
</g>
<!-- Node39 -->
<g id="node5" class="node">
<title>Node39</title>
<g id="a_node5"><a xlink:href="classMatrixElementCache.html#aeef0496ad6db911dac50c0625660d9c0" target="_top" xlink:title="MatrixElementCache\l::getMagneticDipole">
<polygon fill="none" stroke="#000000" points="450.5,-268.5 450.5,-298.5 568.5,-298.5 568.5,-268.5 450.5,-268.5"/>
<text text-anchor="start" x="458.5" y="-286.5" font-family="Helvetica,sans-Serif" font-size="10.00" fill="#000000">MatrixElementCache</text>
<text text-anchor="middle" x="509.5" y="-275.5" font-family="Helvetica,sans-Serif" font-size="10.00" fill="#000000">::getMagneticDipole</text>
</a>
</g>
</g>
<!-- Node35&#45;&gt;Node39 -->
<g id="edge5" class="edge">
<title>Node35&#45;&gt;Node39</title>
<path fill="none" stroke="#191970" d="M108.1579,-211.1848C132.278,-221.5588 172.6635,-237.7126 209,-246.5 286.8794,-265.3338 378.5549,-274.8571 439.9854,-279.4801"/>
<polygon fill="#191970" stroke="#191970" points="440.1068,-282.9981 450.3347,-280.2341 440.6155,-276.0166 440.1068,-282.9981"/>
</g>
<!-- Node46 -->
<g id="node12" class="node">
<title>Node46</title>
<g id="a_node12"><a xlink:href="classSystemBase.html#ab8f443cfd5d8c270361234acc57721c8" target="_top" xlink:title="Methods to get properties of the system ////////////////////////. ">
<polygon fill="none" stroke="#000000" points="233,-98.5 233,-128.5 367,-128.5 367,-98.5 233,-98.5"/>
<text text-anchor="start" x="241" y="-116.5" font-family="Helvetica,sans-Serif" font-size="10.00" fill="#000000">SystemBase&lt; StateOne</text>
<text text-anchor="middle" x="300" y="-105.5" font-family="Helvetica,sans-Serif" font-size="10.00" fill="#000000"> &gt;::getStates</text>
</a>
</g>
</g>
<!-- Node35&#45;&gt;Node46 -->
<g id="edge12" class="edge">
<title>Node35&#45;&gt;Node46</title>
<path fill="none" stroke="#191970" d="M104.8608,-191.9285C128.5462,-179.7865 171.2007,-158.6117 209,-143.5 219.1704,-139.434 230.1291,-135.4749 240.7977,-131.8368"/>
<polygon fill="#191970" stroke="#191970" points="242.1127,-135.0875 250.4829,-128.5921 239.889,-128.4501 242.1127,-135.0875"/>
</g>
<!-- Node47 -->
<g id="node13" class="node">
<title>Node47</title>
<g id="a_node13"><a xlink:href="classMatrixElementCache.html#a41efbe3c4a7e3e5f2ed2c807a0b3178e" target="_top" xlink:title="MatrixElementCache\l::precalculateDiamagnetism">
<polygon fill="none" stroke="#000000" points="222.5,-186.5 222.5,-216.5 377.5,-216.5 377.5,-186.5 222.5,-186.5"/>
<text text-anchor="start" x="230.5" y="-204.5" font-family="Helvetica,sans-Serif" font-size="10.00" fill="#000000">MatrixElementCache</text>
<text text-anchor="middle" x="300" y="-193.5" font-family="Helvetica,sans-Serif" font-size="10.00" fill="#000000">::precalculateDiamagnetism</text>
</a>
</g>
</g>
<!-- Node35&#45;&gt;Node47 -->
<g id="edge13" class="edge">
<title>Node35&#45;&gt;Node47</title>
<path fill="none" stroke="#191970" d="M173.0308,-201.5C185.891,-201.5 199.1576,-201.5 212.0467,-201.5"/>
<polygon fill="#191970" stroke="#191970" points="212.2876,-205.0001 222.2875,-201.5 212.2875,-198.0001 212.2876,-205.0001"/>
</g>
<!-- Node49 -->
<g id="node15" class="node">
<title>Node49</title>
<g id="a_node15"><a xlink:href="MatrixElementCache_8cpp.html#a15aabd3025cfa0ca9485cd672c0a1a4a" target="_top" xlink:title="selectionRulesMomentumNew">
<polygon fill="none" stroke="#000000" points="427,-154 427,-173 592,-173 592,-154 427,-154"/>
<text text-anchor="middle" x="509.5" y="-161" font-family="Helvetica,sans-Serif" font-size="10.00" fill="#000000">selectionRulesMomentumNew</text>
</a>
</g>
</g>
<!-- Node35&#45;&gt;Node49 -->
<g id="edge25" class="edge">
<title>Node35&#45;&gt;Node49</title>
<path fill="none" stroke="#191970" d="M125.1371,-191.9828C149.122,-186.4827 180.6701,-179.9814 209,-176.5 278.3274,-167.9804 357.2472,-164.8148 416.808,-163.734"/>
<polygon fill="#191970" stroke="#191970" points="417.0041,-167.2314 426.945,-163.5668 416.8886,-160.2323 417.0041,-167.2314"/>
</g>
<!-- Node50 -->
<g id="node16" class="node">
<title>Node50</title>
<g id="a_node16"><a xlink:href="MatrixElementCache_8cpp.html#a06a268e07e2a0edb3fca096b8c941c78" target="_top" xlink:title="selectionRulesMultipoleNew">
<polygon fill="none" stroke="#000000" points="432,-230 432,-249 587,-249 587,-230 432,-230"/>
<text text-anchor="middle" x="509.5" y="-237" font-family="Helvetica,sans-Serif" font-size="10.00" fill="#000000">selectionRulesMultipoleNew</text>
</a>
</g>
</g>
<!-- Node35&#45;&gt;Node50 -->
<g id="edge26" class="edge">
<title>Node35&#45;&gt;Node50</title>
<path fill="none" stroke="#191970" d="M125.1371,-211.0172C149.122,-216.5173 180.6701,-223.0186 209,-226.5 280.1647,-235.2453 361.437,-238.3493 421.502,-239.3476"/>
<polygon fill="#191970" stroke="#191970" points="421.6562,-242.8502 431.7076,-239.5003 421.7611,-235.8509 421.6562,-242.8502"/>
</g>
<!-- Node51 -->
<g id="node17" class="node">
<title>Node51</title>
<g id="a_node17"><a xlink:href="classMatrixElementCache.html#a34df68dc580d24417fe3fad8fefc44b9" target="_top" xlink:title="MatrixElementCache\l::precalculateElectricMomentum">
<polygon fill="none" stroke="#000000" points="213,-49.5 213,-79.5 387,-79.5 387,-49.5 213,-49.5"/>
<text text-anchor="start" x="221" y="-67.5" font-family="Helvetica,sans-Serif" font-size="10.00" fill="#000000">MatrixElementCache</text>
<text text-anchor="middle" x="300" y="-56.5" font-family="Helvetica,sans-Serif" font-size="10.00" fill="#000000">::precalculateElectricMomentum</text>
</a>
</g>
</g>
<!-- Node35&#45;&gt;Node51 -->
<g id="edge23" class="edge">
<title>Node35&#45;&gt;Node51</title>
<path fill="none" stroke="#191970" d="M93.9717,-191.965C111.5698,-170.174 158.0035,-116.4571 209,-88.5 212.4475,-86.61 216.0508,-84.8633 219.7503,-83.2497"/>
<polygon fill="#191970" stroke="#191970" points="221.1247,-86.4696 229.1102,-79.5067 218.5255,-79.97 221.1247,-86.4696"/>
</g>
<!-- Node52 -->
<g id="node18" class="node">
<title>Node52</title>
<g id="a_node18"><a xlink:href="classMatrixElementCache.html#ad68fd8e84f74d7b35055fec6d09273bb" target="_top" xlink:title="MatrixElementCache\l::precalculateMagneticMomentum">
<polygon fill="none" stroke="#000000" points="209,-.5 209,-30.5 391,-30.5 391,-.5 209,-.5"/>
<text text-anchor="start" x="217" y="-18.5" font-family="Helvetica,sans-Serif" font-size="10.00" fill="#000000">MatrixElementCache</text>
<text text-anchor="middle" x="300" y="-7.5" font-family="Helvetica,sans-Serif" font-size="10.00" fill="#000000">::precalculateMagneticMomentum</text>
</a>
</g>
</g>
<!-- Node35&#45;&gt;Node52 -->
<g id="edge24" class="edge">
<title>Node35&#45;&gt;Node52</title>
<path fill="none" stroke="#191970" d="M90.9868,-191.6821C104.4653,-163.3305 147.4961,-80.7347 209,-39.5 211.4173,-37.8793 213.9389,-36.368 216.5383,-34.9586"/>
<polygon fill="#191970" stroke="#191970" points="218.1659,-38.0593 225.6389,-30.5489 215.1134,-31.7598 218.1659,-38.0593"/>
</g>
<!-- Node37 -->
<g id="node3" class="node">
<title>Node37</title>
<g id="a_node3"><a xlink:href="classMatrixElementCache.html#a2407b99847793920a9d4ed0d8b156d8a" target="_top" xlink:title="MatrixElementCache\l::getElectricMultipole">
<polygon fill="none" stroke="#000000" points="450,-339.5 450,-369.5 569,-369.5 569,-339.5 450,-339.5"/>
<text text-anchor="start" x="458" y="-357.5" font-family="Helvetica,sans-Serif" font-size="10.00" fill="#000000">MatrixElementCache</text>
<text text-anchor="middle" x="509.5" y="-346.5" font-family="Helvetica,sans-Serif" font-size="10.00" fill="#000000">::getElectricMultipole</text>
</a>
</g>
</g>
<!-- Node36&#45;&gt;Node37 -->
<g id="edge2" class="edge">
<title>Node36&#45;&gt;Node37</title>
<path fill="none" stroke="#191970" d="M359.1942,-335.1289C384.19,-338.3503 413.4839,-342.1256 439.5384,-345.4835"/>
<polygon fill="#191970" stroke="#191970" points="439.3599,-348.9893 449.7253,-346.7963 440.2547,-342.0468 439.3599,-348.9893"/>
</g>
<!-- Node38&#45;&gt;Node37 -->
<g id="edge4" class="edge">
<title>Node38&#45;&gt;Node37</title>
<path fill="none" stroke="#191970" d="M359.1942,-370.2839C384.19,-367.659 413.4839,-364.5828 439.5384,-361.8468"/>
<polygon fill="#191970" stroke="#191970" points="440.1455,-365.3024 449.7253,-360.7771 439.4144,-358.3407 440.1455,-365.3024"/>
</g>
<!-- Node40 -->
<g id="node6" class="node">
<title>Node40</title>
<g id="a_node6"><a xlink:href="classStateOne.html#aedba5bfce70f73fa324b9d5ae1115578" target="_top" xlink:title="StateOne::getJ">
<polygon fill="none" stroke="#000000" points="645.5,-233 645.5,-252 731.5,-252 731.5,-233 645.5,-233"/>
<text text-anchor="middle" x="688.5" y="-240" font-family="Helvetica,sans-Serif" font-size="10.00" fill="#000000">StateOne::getJ</text>
</a>
</g>
</g>
<!-- Node39&#45;&gt;Node40 -->
<g id="edge6" class="edge">
<title>Node39&#45;&gt;Node40</title>
<path fill="none" stroke="#191970" d="M568.6074,-269.9614C590.7609,-264.8872 615.7336,-259.1672 637.1302,-254.2663"/>
<polygon fill="#191970" stroke="#191970" points="638.0354,-257.6497 647.0015,-252.0052 636.4725,-250.8264 638.0354,-257.6497"/>
</g>
<!-- Node41 -->
<g id="node7" class="node">
<title>Node41</title>
<g id="a_node7"><a xlink:href="classStateOne.html#a3783cebe5bbd63f072caf8450fea4aca" target="_top" xlink:title="StateOne::getL">
<polygon fill="none" stroke="#000000" points="644,-195 644,-214 733,-214 733,-195 644,-195"/>
<text text-anchor="middle" x="688.5" y="-202" font-family="Helvetica,sans-Serif" font-size="10.00" fill="#000000">StateOne::getL</text>
</a>
</g>
</g>
<!-- Node39&#45;&gt;Node41 -->
<g id="edge7" class="edge">
<title>Node39&#45;&gt;Node41</title>
<path fill="none" stroke="#191970" d="M568.6647,-269.3602C576.7719,-266.3477 584.7806,-262.7569 592,-258.5 611.2225,-247.1655 608.8348,-234.9311 628,-223.5 631.4644,-221.4336 635.1765,-219.5696 638.9944,-217.8922"/>
<polygon fill="#191970" stroke="#191970" points="640.6013,-221.021 648.6218,-214.0984 638.0348,-214.5084 640.6013,-221.021"/>
</g>
<!-- Node42 -->
<g id="node8" class="node">
<title>Node42</title>
<g id="a_node8"><a xlink:href="classStateOne.html#aab2b41262381d67893113ed6f5ad18bc" target="_top" xlink:title="StateOne::getM">
<polygon fill="none" stroke="#000000" points="642.5,-157 642.5,-176 734.5,-176 734.5,-157 642.5,-157"/>
<text text-anchor="middle" x="688.5" y="-164" font-family="Helvetica,sans-Serif" font-size="10.00" fill="#000000">StateOne::getM</text>
</a>
</g>
</g>
<!-- Node39&#45;&gt;Node42 -->
<g id="edge8" class="edge">
<title>Node39&#45;&gt;Node42</title>
<path fill="none" stroke="#191970" d="M568.9106,-272.0185C577.254,-268.6185 585.266,-264.2116 592,-258.5 619.588,-235.1003 600.5301,-209.0382 628,-185.5 629.975,-183.8076 632.1008,-182.2658 634.3326,-180.8612"/>
<polygon fill="#191970" stroke="#191970" points="636.1589,-183.8551 643.3724,-176.0951 632.8942,-177.663 636.1589,-183.8551"/>
</g>
<!-- Node43 -->
<g id="node9" class="node">
<title>Node43</title>
<g id="a_node9"><a xlink:href="classStateOne.html#a7deae740570ef5262e7fd2d254a8c530" target="_top" xlink:title="StateOne::getN">
<polygon fill="none" stroke="#000000" points="643,-347 643,-366 734,-366 734,-347 643,-347"/>
<text text-anchor="middle" x="688.5" y="-354" font-family="Helvetica,sans-Serif" font-size="10.00" fill="#000000">StateOne::getN</text>
</a>
</g>
</g>
<!-- Node39&#45;&gt;Node43 -->
<g id="edge9" class="edge">
<title>Node39&#45;&gt;Node43</title>
<path fill="none" stroke="#191970" d="M539.7505,-298.5367C563.4374,-310.0036 597.3885,-325.7697 628,-337.5 633.6638,-339.6704 639.6919,-341.7865 645.6651,-343.7714"/>
<polygon fill="#191970" stroke="#191970" points="645.0002,-347.2344 655.5918,-346.974 647.1496,-340.5726 645.0002,-347.2344"/>
</g>
<!-- Node44 -->
<g id="node10" class="node">
<title>Node44</title>
<g id="a_node10"><a xlink:href="classStateOne.html#a5f4c17ef50eca7f317a55b5e0a572117" target="_top" xlink:title="StateOne::getS">
<polygon fill="none" stroke="#000000" points="644,-309 644,-328 733,-328 733,-309 644,-309"/>
<text text-anchor="middle" x="688.5" y="-316" font-family="Helvetica,sans-Serif" font-size="10.00" fill="#000000">StateOne::getS</text>
</a>
</g>
</g>
<!-- Node39&#45;&gt;Node44 -->
<g id="edge10" class="edge">
<title>Node39&#45;&gt;Node44</title>
<path fill="none" stroke="#191970" d="M568.6074,-295.0573C589.698,-299.1812 613.3438,-303.8047 634.0265,-307.8488"/>
<polygon fill="#191970" stroke="#191970" points="633.4318,-311.2987 643.9176,-309.7828 634.7751,-304.4288 633.4318,-311.2987"/>
</g>
<!-- Node45 -->
<g id="node11" class="node">
<title>Node45</title>
<g id="a_node11"><a xlink:href="classStateOne.html#a45b245f5da0068df4ff72093c654da89" target="_top" xlink:title="StateOne::getSpecies">
<polygon fill="none" stroke="#000000" points="628,-271 628,-290 749,-290 749,-271 628,-271"/>
<text text-anchor="middle" x="688.5" y="-278" font-family="Helvetica,sans-Serif" font-size="10.00" fill="#000000">StateOne::getSpecies</text>
</a>
</g>
</g>
<!-- Node39&#45;&gt;Node45 -->
<g id="edge11" class="edge">
<title>Node39&#45;&gt;Node45</title>
<path fill="none" stroke="#191970" d="M568.6074,-282.5094C584.3772,-282.2451 601.5756,-281.9568 617.8957,-281.6833"/>
<polygon fill="#191970" stroke="#191970" points="617.9832,-285.1824 627.9231,-281.5153 617.8659,-278.1834 617.9832,-285.1824"/>
</g>
<!-- Node48 -->
<g id="node14" class="node">
<title>Node48</title>
<g id="a_node14"><a xlink:href="namespaceutils.html#a1ba9020d51335d2ddd62e877803e9e31" target="_top" xlink:title="utils::get_pid">
<polygon fill="none" stroke="#000000" points="469.5,-192 469.5,-211 549.5,-211 549.5,-192 469.5,-192"/>
<text text-anchor="middle" x="509.5" y="-199" font-family="Helvetica,sans-Serif" font-size="10.00" fill="#000000">utils::get_pid</text>
</a>
</g>
</g>
<!-- Node47&#45;&gt;Node48 -->
<g id="edge14" class="edge">
<title>Node47&#45;&gt;Node48</title>
<path fill="none" stroke="#191970" d="M377.7124,-201.5C405.0195,-201.5 434.9581,-201.5 459.3895,-201.5"/>
<polygon fill="#191970" stroke="#191970" points="459.4992,-205.0001 469.4992,-201.5 459.4991,-198.0001 459.4992,-205.0001"/>
</g>
<!-- Node47&#45;&gt;Node49 -->
<g id="edge15" class="edge">
<title>Node47&#45;&gt;Node49</title>
<path fill="none" stroke="#191970" d="M377.7124,-187.4042C400.5321,-183.2651 425.1896,-178.7926 446.9351,-174.8483"/>
<polygon fill="#191970" stroke="#191970" points="447.8139,-178.2461 457.0287,-173.0175 446.5646,-171.3585 447.8139,-178.2461"/>
</g>
<!-- Node47&#45;&gt;Node50 -->
<g id="edge19" class="edge">
<title>Node47&#45;&gt;Node50</title>
<path fill="none" stroke="#191970" d="M377.7124,-215.5958C400.5321,-219.7349 425.1896,-224.2074 446.9351,-228.1517"/>
<polygon fill="#191970" stroke="#191970" points="446.5646,-231.6415 457.0287,-229.9825 447.8139,-224.7539 446.5646,-231.6415"/>
</g>
<!-- Node49&#45;&gt;Node40 -->
<g id="edge16" class="edge">
<title>Node49&#45;&gt;Node40</title>
<path fill="none" stroke="#191970" d="M570.6702,-173.0021C578.1378,-175.4712 585.438,-178.5817 592,-182.5 612.8204,-194.9323 607.6798,-210.266 628,-223.5 631.1366,-225.5428 634.5072,-227.3781 637.9943,-229.025"/>
<polygon fill="#191970" stroke="#191970" points="636.8398,-232.3357 647.4164,-232.9576 639.5361,-225.8758 636.8398,-232.3357"/>
</g>
<!-- Node49&#45;&gt;Node41 -->
<g id="edge17" class="edge">
<title>Node49&#45;&gt;Node41</title>
<path fill="none" stroke="#191970" d="M551.0161,-173.0093C576.6791,-178.8874 609.815,-186.4772 637.1257,-192.7327"/>
<polygon fill="#191970" stroke="#191970" points="636.3703,-196.1503 646.8994,-194.9714 637.9333,-189.327 636.3703,-196.1503"/>
</g>
<!-- Node49&#45;&gt;Node42 -->
<g id="edge18" class="edge">
<title>Node49&#45;&gt;Node42</title>
<path fill="none" stroke="#191970" d="M592.1885,-164.8858C605.6428,-165.1113 619.3036,-165.3403 631.9452,-165.5522"/>
<polygon fill="#191970" stroke="#191970" points="632.2403,-169.0575 642.2976,-165.7257 632.3577,-162.0585 632.2403,-169.0575"/>
</g>
<!-- Node50&#45;&gt;Node40 -->
<g id="edge20" class="edge">
<title>Node50&#45;&gt;Node40</title>
<path fill="none" stroke="#191970" d="M587.2311,-240.8028C603.3295,-241.0726 619.9449,-241.351 634.9448,-241.6024"/>
<polygon fill="#191970" stroke="#191970" points="634.9878,-245.1035 645.0451,-241.7717 635.1051,-238.1045 634.9878,-245.1035"/>
</g>
<!-- Node50&#45;&gt;Node41 -->
<g id="edge21" class="edge">
<title>Node50&#45;&gt;Node41</title>
<path fill="none" stroke="#191970" d="M558.4125,-229.9361C581.7806,-225.3669 609.832,-219.882 633.8938,-215.1772"/>
<polygon fill="#191970" stroke="#191970" points="634.794,-218.5675 643.9365,-213.2135 633.4507,-211.6976 634.794,-218.5675"/>
</g>
<!-- Node50&#45;&gt;Node42 -->
<g id="edge22" class="edge">
<title>Node50&#45;&gt;Node42</title>
<path fill="none" stroke="#191970" d="M569.0837,-229.9064C577.0448,-227.4499 584.9013,-224.3673 592,-220.5 611.596,-209.8243 608.8348,-196.9311 628,-185.5 631.4644,-183.4336 635.1765,-181.5696 638.9944,-179.8922"/>
<polygon fill="#191970" stroke="#191970" points="640.6013,-183.021 648.6218,-176.0984 638.0348,-176.5084 640.6013,-183.021"/>
</g>
</g>
</svg>
