<?xml version="1.0" encoding="UTF-8" standalone="no"?>
<!DOCTYPE svg PUBLIC "-//W3C//DTD SVG 1.1//EN"
 "http://www.w3.org/Graphics/SVG/1.1/DTD/svg11.dtd">
<!-- Generated by graphviz version 2.40.1 (20161225.0304)
 -->
<!-- Title: StateTwo::getLeRoyRadius Pages: 1 -->
<svg width="465pt" height="142pt"
 viewBox="0.00 0.00 465.00 142.00" xmlns="http://www.w3.org/2000/svg" xmlns:xlink="http://www.w3.org/1999/xlink">
<g id="graph0" class="graph" transform="scale(1 1) rotate(0) translate(4 138)">
<title>StateTwo::getLeRoyRadius</title>
<!-- Node49 -->
<g id="node1" class="node">
<title>Node49</title>
<polygon fill="#bfbfbf" stroke="#000000" points="0,-57.5 0,-76.5 146,-76.5 146,-57.5 0,-57.5"/>
<text text-anchor="middle" x="73" y="-64.5" font-family="Helvetica,sans-Serif" font-size="10.00" fill="#000000">StateTwo::getLeRoyRadius</text>
</g>
<!-- Node50 -->
<g id="node2" class="node">
<title>Node50</title>
<g id="a_node2"><a xlink:href="classMatrixElementCache.html#ad624534d20e42d8c4f495b51d6084057" target="_top" xlink:title="MatrixElementCache\l::getRadial">
<polygon fill="none" stroke="#000000" points="182,-52 182,-82 300,-82 300,-52 182,-52"/>
<text text-anchor="start" x="190" y="-70" font-family="Helvetica,sans-Serif" font-size="10.00" fill="#000000">MatrixElementCache</text>
<text text-anchor="middle" x="241" y="-59" font-family="Helvetica,sans-Serif" font-size="10.00" fill="#000000">::getRadial</text>
</a>
</g>
</g>
<!-- Node49&#45;&gt;Node50 -->
<g id="edge1" class="edge">
<title>Node49&#45;&gt;Node50</title>
<path fill="none" stroke="#191970" d="M146.1985,-67C154.6851,-67 163.3212,-67 171.7525,-67"/>
<polygon fill="#191970" stroke="#191970" points="171.9116,-70.5001 181.9116,-67 171.9116,-63.5001 171.9116,-70.5001"/>
</g>
<!-- Node51 -->
<g id="node3" class="node">
<title>Node51</title>
<g id="a_node3"><a xlink:href="classStateOne.html#aedba5bfce70f73fa324b9d5ae1115578" target="_top" xlink:title="StateOne::getJ">
<polygon fill="none" stroke="#000000" points="353.5,-114.5 353.5,-133.5 439.5,-133.5 439.5,-114.5 353.5,-114.5"/>
<text text-anchor="middle" x="396.5" y="-121.5" font-family="Helvetica,sans-Serif" font-size="10.00" fill="#000000">StateOne::getJ</text>
</a>
</g>
</g>
<!-- Node50&#45;&gt;Node51 -->
<g id="edge2" class="edge">
<title>Node50&#45;&gt;Node51</title>
<path fill="none" stroke="#191970" d="M276.8427,-82.0869C294.5292,-89.3389 316.2558,-97.9623 336,-105 342.0568,-107.1589 348.4991,-109.3217 354.8356,-111.3742"/>
<polygon fill="#191970" stroke="#191970" points="354.045,-114.7955 364.6355,-114.4925 356.1675,-108.125 354.045,-114.7955"/>
</g>
<!-- Node52 -->
<g id="node4" class="node">
<title>Node52</title>
<g id="a_node4"><a xlink:href="classStateOne.html#a3783cebe5bbd63f072caf8450fea4aca" target="_top" xlink:title="StateOne::getL">
<polygon fill="none" stroke="#000000" points="352,-76.5 352,-95.5 441,-95.5 441,-76.5 352,-76.5"/>
<text text-anchor="middle" x="396.5" y="-83.5" font-family="Helvetica,sans-Serif" font-size="10.00" fill="#000000">StateOne::getL</text>
</a>
</g>
</g>
<!-- Node50&#45;&gt;Node52 -->
<g id="edge3" class="edge">
<title>Node50&#45;&gt;Node52</title>
<path fill="none" stroke="#191970" d="M300.2315,-74.2373C313.9104,-75.9087 328.4013,-77.6793 341.8733,-79.3254"/>
<polygon fill="#191970" stroke="#191970" points="341.5957,-82.8174 351.9464,-80.5562 342.4448,-75.8691 341.5957,-82.8174"/>
</g>
<!-- Node53 -->
<g id="node5" class="node">
<title>Node53</title>
<g id="a_node5"><a xlink:href="classStateOne.html#a7deae740570ef5262e7fd2d254a8c530" target="_top" xlink:title="StateOne::getN">
<polygon fill="none" stroke="#000000" points="351,-38.5 351,-57.5 442,-57.5 442,-38.5 351,-38.5"/>
<text text-anchor="middle" x="396.5" y="-45.5" font-family="Helvetica,sans-Serif" font-size="10.00" fill="#000000">StateOne::getN</text>
</a>
</g>
</g>
<!-- Node50&#45;&gt;Node53 -->
<g id="edge4" class="edge">
<title>Node50&#45;&gt;Node53</title>
<path fill="none" stroke="#191970" d="M300.2315,-59.7627C313.5054,-58.1408 327.5439,-56.4255 340.674,-54.8212"/>
<polygon fill="#191970" stroke="#191970" points="341.4757,-58.2493 350.9774,-53.5622 340.6267,-51.301 341.4757,-58.2493"/>
</g>
<!-- Node54 -->
<g id="node6" class="node">
<title>Node54</title>
<g id="a_node6"><a xlink:href="classStateOne.html#a45b245f5da0068df4ff72093c654da89" target="_top" xlink:title="StateOne::getSpecies">
<polygon fill="none" stroke="#000000" points="336,-.5 336,-19.5 457,-19.5 457,-.5 336,-.5"/>
<text text-anchor="middle" x="396.5" y="-7.5" font-family="Helvetica,sans-Serif" font-size="10.00" fill="#000000">StateOne::getSpecies</text>
</a>
</g>
</g>
<!-- Node50&#45;&gt;Node54 -->
<g id="edge5" class="edge">
<title>Node50&#45;&gt;Node54</title>
<path fill="none" stroke="#191970" d="M276.8427,-51.9131C294.5292,-44.6611 316.2558,-36.0377 336,-29 342.0568,-26.8411 348.4991,-24.6783 354.8356,-22.6258"/>
<polygon fill="#191970" stroke="#191970" points="356.1675,-25.875 364.6355,-19.5075 354.045,-19.2045 356.1675,-25.875"/>
</g>
</g>
</svg>
