<?xml version="1.0" encoding="UTF-8" standalone="no"?>
<!DOCTYPE svg PUBLIC "-//W3C//DTD SVG 1.1//EN"
 "http://www.w3.org/Graphics/SVG/1.1/DTD/svg11.dtd">
<!-- Generated by graphviz version 2.40.1 (20161225.0304)
 -->
<!-- Title: StateOne::StateOne Pages: 1 -->
<svg width="278pt" height="180pt"
 viewBox="0.00 0.00 278.00 180.00" xmlns="http://www.w3.org/2000/svg" xmlns:xlink="http://www.w3.org/1999/xlink">
<g id="graph0" class="graph" transform="scale(1 1) rotate(0) translate(4 176)">
<title>StateOne::StateOne</title>
<!-- Node5 -->
<g id="node1" class="node">
<title>Node5</title>
<polygon fill="#bfbfbf" stroke="#000000" points="0,-76.5 0,-95.5 113,-95.5 113,-76.5 0,-76.5"/>
<text text-anchor="middle" x="56.5" y="-83.5" font-family="Helvetica,sans-Serif" font-size="10.00" fill="#000000">StateOne::StateOne</text>
</g>
<!-- Node6 -->
<g id="node2" class="node">
<title>Node6</title>
<g id="a_node2"><a xlink:href="classStateOne.html#aedba5bfce70f73fa324b9d5ae1115578" target="_top" xlink:title="StateOne::getJ">
<polygon fill="none" stroke="#000000" points="166.5,-152.5 166.5,-171.5 252.5,-171.5 252.5,-152.5 166.5,-152.5"/>
<text text-anchor="middle" x="209.5" y="-159.5" font-family="Helvetica,sans-Serif" font-size="10.00" fill="#000000">StateOne::getJ</text>
</a>
</g>
</g>
<!-- Node5&#45;&gt;Node6 -->
<g id="edge1" class="edge">
<title>Node5&#45;&gt;Node6</title>
<path fill="none" stroke="#191970" d="M69.7015,-95.6025C87.1398,-107.935 119.1424,-129.3689 149,-143 153.9449,-145.2575 159.2329,-147.351 164.5476,-149.2597"/>
<polygon fill="#191970" stroke="#191970" points="163.4806,-152.5936 174.0749,-152.4915 165.7292,-145.9646 163.4806,-152.5936"/>
</g>
<!-- Node7 -->
<g id="node3" class="node">
<title>Node7</title>
<g id="a_node3"><a xlink:href="classStateOne.html#a3783cebe5bbd63f072caf8450fea4aca" target="_top" xlink:title="StateOne::getL">
<polygon fill="none" stroke="#000000" points="165,-114.5 165,-133.5 254,-133.5 254,-114.5 165,-114.5"/>
<text text-anchor="middle" x="209.5" y="-121.5" font-family="Helvetica,sans-Serif" font-size="10.00" fill="#000000">StateOne::getL</text>
</a>
</g>
</g>
<!-- Node5&#45;&gt;Node7 -->
<g id="edge2" class="edge">
<title>Node5&#45;&gt;Node7</title>
<path fill="none" stroke="#191970" d="M95.1084,-95.589C115.2074,-100.5809 139.9751,-106.7324 161.3185,-112.0334"/>
<polygon fill="#191970" stroke="#191970" points="160.6204,-115.4662 171.1693,-114.4799 162.3078,-108.6726 160.6204,-115.4662"/>
</g>
<!-- Node8 -->
<g id="node4" class="node">
<title>Node8</title>
<g id="a_node4"><a xlink:href="classStateOne.html#aab2b41262381d67893113ed6f5ad18bc" target="_top" xlink:title="StateOne::getM">
<polygon fill="none" stroke="#000000" points="163.5,-76.5 163.5,-95.5 255.5,-95.5 255.5,-76.5 163.5,-76.5"/>
<text text-anchor="middle" x="209.5" y="-83.5" font-family="Helvetica,sans-Serif" font-size="10.00" fill="#000000">StateOne::getM</text>
</a>
</g>
</g>
<!-- Node5&#45;&gt;Node8 -->
<g id="edge3" class="edge">
<title>Node5&#45;&gt;Node8</title>
<path fill="none" stroke="#191970" d="M113.0369,-86C126.0676,-86 139.9293,-86 152.9602,-86"/>
<polygon fill="#191970" stroke="#191970" points="153.2009,-89.5001 163.2009,-86 153.2008,-82.5001 153.2009,-89.5001"/>
</g>
<!-- Node9 -->
<g id="node5" class="node">
<title>Node9</title>
<g id="a_node5"><a xlink:href="classStateOne.html#a7deae740570ef5262e7fd2d254a8c530" target="_top" xlink:title="StateOne::getN">
<polygon fill="none" stroke="#000000" points="164,-38.5 164,-57.5 255,-57.5 255,-38.5 164,-38.5"/>
<text text-anchor="middle" x="209.5" y="-45.5" font-family="Helvetica,sans-Serif" font-size="10.00" fill="#000000">StateOne::getN</text>
</a>
</g>
</g>
<!-- Node5&#45;&gt;Node9 -->
<g id="edge4" class="edge">
<title>Node5&#45;&gt;Node9</title>
<path fill="none" stroke="#191970" d="M95.1084,-76.411C115.2074,-71.4191 139.9751,-65.2676 161.3185,-59.9666"/>
<polygon fill="#191970" stroke="#191970" points="162.3078,-63.3274 171.1693,-57.5201 160.6204,-56.5338 162.3078,-63.3274"/>
</g>
<!-- Node10 -->
<g id="node6" class="node">
<title>Node10</title>
<g id="a_node6"><a xlink:href="classStateOne.html#a45b245f5da0068df4ff72093c654da89" target="_top" xlink:title="StateOne::getSpecies">
<polygon fill="none" stroke="#000000" points="149,-.5 149,-19.5 270,-19.5 270,-.5 149,-.5"/>
<text text-anchor="middle" x="209.5" y="-7.5" font-family="Helvetica,sans-Serif" font-size="10.00" fill="#000000">StateOne::getSpecies</text>
</a>
</g>
</g>
<!-- Node5&#45;&gt;Node10 -->
<g id="edge5" class="edge">
<title>Node5&#45;&gt;Node10</title>
<path fill="none" stroke="#191970" d="M69.7015,-76.3975C87.1398,-64.065 119.1424,-42.6311 149,-29 153.9449,-26.7425 159.2329,-24.649 164.5476,-22.7403"/>
<polygon fill="#191970" stroke="#191970" points="165.7292,-26.0354 174.0749,-19.5085 163.4806,-19.4064 165.7292,-26.0354"/>
</g>
</g>
</svg>
