<?xml version="1.0" encoding="UTF-8" standalone="no"?>
<!DOCTYPE svg PUBLIC "-//W3C//DTD SVG 1.1//EN"
 "http://www.w3.org/Graphics/SVG/1.1/DTD/svg11.dtd">
<!-- Generated by graphviz version 2.40.1 (20161225.0304)
 -->
<!-- Title: Serializer::save Pages: 1 -->
<svg width="825pt" height="176pt"
 viewBox="0.00 0.00 825.00 176.00" xmlns="http://www.w3.org/2000/svg" xmlns:xlink="http://www.w3.org/1999/xlink">
<g id="graph0" class="graph" transform="scale(1 1) rotate(0) translate(4 172)">
<title>Serializer::save</title>
<!-- Node15 -->
<g id="node1" class="node">
<title>Node15</title>
<polygon fill="#bfbfbf" stroke="#000000" points="0,-72 0,-91 92,-91 92,-72 0,-72"/>
<text text-anchor="middle" x="46" y="-79" font-family="Helvetica,sans-Serif" font-size="10.00" fill="#000000">Serializer::save</text>
</g>
<!-- Node16 -->
<g id="node2" class="node">
<title>Node16</title>
<g id="a_node2"><a xlink:href="classHamiltonianmatrix.html#aa8d50e3585a18628f4abbb5bcede4bbb" target="_top" xlink:title="Hamiltonianmatrix::\ldoSerialization">
<polygon fill="none" stroke="#000000" points="128,-66.5 128,-96.5 243,-96.5 243,-66.5 128,-66.5"/>
<text text-anchor="start" x="136" y="-84.5" font-family="Helvetica,sans-Serif" font-size="10.00" fill="#000000">Hamiltonianmatrix::</text>
<text text-anchor="middle" x="185.5" y="-73.5" font-family="Helvetica,sans-Serif" font-size="10.00" fill="#000000">doSerialization</text>
</a>
</g>
</g>
<!-- Node15&#45;&gt;Node16 -->
<g id="edge1" class="edge">
<title>Node15&#45;&gt;Node16</title>
<path fill="none" stroke="#191970" d="M102.1808,-81.5C110.6153,-81.5 119.3251,-81.5 127.7908,-81.5"/>
<polygon fill="#191970" stroke="#191970" points="102.0642,-78.0001 92.0641,-81.5 102.0641,-85.0001 102.0642,-78.0001"/>
</g>
<!-- Node17 -->
<g id="node3" class="node">
<title>Node17</title>
<g id="a_node3"><a xlink:href="classHamiltonianmatrix.html#a1e43ece7300d46f751f02c3260a14bfb" target="_top" xlink:title="Hamiltonianmatrix::\lhashBasis">
<polygon fill="none" stroke="#000000" points="290.5,-137.5 290.5,-167.5 405.5,-167.5 405.5,-137.5 290.5,-137.5"/>
<text text-anchor="start" x="298.5" y="-155.5" font-family="Helvetica,sans-Serif" font-size="10.00" fill="#000000">Hamiltonianmatrix::</text>
<text text-anchor="middle" x="348" y="-144.5" font-family="Helvetica,sans-Serif" font-size="10.00" fill="#000000">hashBasis</text>
</a>
</g>
</g>
<!-- Node16&#45;&gt;Node17 -->
<g id="edge2" class="edge">
<title>Node16&#45;&gt;Node17</title>
<path fill="none" stroke="#191970" d="M222.3248,-101.4126C239.3317,-110.2434 259.9411,-120.4362 279,-128.5 286.3588,-131.6135 294.2745,-134.6481 302.0273,-137.454"/>
<polygon fill="#191970" stroke="#191970" points="223.7615,-98.2139 213.2799,-96.6689 220.5103,-104.4131 223.7615,-98.2139"/>
</g>
<!-- Node18 -->
<g id="node4" class="node">
<title>Node18</title>
<g id="a_node4"><a xlink:href="classHamiltonianmatrix.html#aebafe9543f93f3956fff32192efd86ce" target="_top" xlink:title="Hamiltonianmatrix::\lhashEntries">
<polygon fill="none" stroke="#000000" points="290.5,-88.5 290.5,-118.5 405.5,-118.5 405.5,-88.5 290.5,-88.5"/>
<text text-anchor="start" x="298.5" y="-106.5" font-family="Helvetica,sans-Serif" font-size="10.00" fill="#000000">Hamiltonianmatrix::</text>
<text text-anchor="middle" x="348" y="-95.5" font-family="Helvetica,sans-Serif" font-size="10.00" fill="#000000">hashEntries</text>
</a>
</g>
</g>
<!-- Node16&#45;&gt;Node18 -->
<g id="edge3" class="edge">
<title>Node16&#45;&gt;Node18</title>
<path fill="none" stroke="#191970" d="M253.4561,-90.7002C265.7549,-92.3653 278.4715,-94.0869 290.437,-95.7069"/>
<polygon fill="#191970" stroke="#191970" points="253.6282,-87.1917 243.249,-89.3183 252.689,-94.1284 253.6282,-87.1917"/>
</g>
<!-- Node19 -->
<g id="node5" class="node">
<title>Node19</title>
<g id="a_node5"><a xlink:href="classHamiltonianmatrix.html#a9e77fcca733a19f250dd619799edc9e6" target="_top" xlink:title="Hamiltonianmatrix::save">
<polygon fill="none" stroke="#000000" points="279,-50 279,-69 417,-69 417,-50 279,-50"/>
<text text-anchor="middle" x="348" y="-57" font-family="Helvetica,sans-Serif" font-size="10.00" fill="#000000">Hamiltonianmatrix::save</text>
</a>
</g>
</g>
<!-- Node16&#45;&gt;Node19 -->
<g id="edge4" class="edge">
<title>Node16&#45;&gt;Node19</title>
<path fill="none" stroke="#191970" d="M253.3638,-72.3123C261.7564,-71.1761 270.3448,-70.0133 278.7577,-68.8743"/>
<polygon fill="#191970" stroke="#191970" points="252.689,-68.8716 243.249,-73.6817 253.6282,-75.8083 252.689,-68.8716"/>
</g>
<!-- Node24 -->
<g id="node10" class="node">
<title>Node24</title>
<g id="a_node10"><a xlink:href="classHamiltonianmatrix.html#a8bd6ab90a4453e8e1d7d6a1cdb751686" target="_top" xlink:title="Hamiltonianmatrix::\lserialize">
<polygon fill="none" stroke="#000000" points="290.5,-.5 290.5,-30.5 405.5,-30.5 405.5,-.5 290.5,-.5"/>
<text text-anchor="start" x="298.5" y="-18.5" font-family="Helvetica,sans-Serif" font-size="10.00" fill="#000000">Hamiltonianmatrix::</text>
<text text-anchor="middle" x="348" y="-7.5" font-family="Helvetica,sans-Serif" font-size="10.00" fill="#000000">serialize</text>
</a>
</g>
</g>
<!-- Node16&#45;&gt;Node24 -->
<g id="edge9" class="edge">
<title>Node16&#45;&gt;Node24</title>
<path fill="none" stroke="#191970" d="M228.1398,-62.0987C244.0106,-55.0639 262.2365,-47.2039 279,-40.5 287.3995,-37.141 296.4474,-33.7221 305.1378,-30.5351"/>
<polygon fill="#191970" stroke="#191970" points="226.3041,-59.085 218.5966,-66.3545 229.1551,-65.4781 226.3041,-59.085"/>
</g>
<!-- Node20 -->
<g id="node6" class="node">
<title>Node20</title>
<g id="a_node6"><a xlink:href="classHamiltonianOne.html#a9cb71dcb34ab9f0779c0bd66b758185e" target="_top" xlink:title="HamiltonianOne::build">
<polygon fill="none" stroke="#000000" points="463,-69 463,-88 589,-88 589,-69 463,-69"/>
<text text-anchor="middle" x="526" y="-76" font-family="Helvetica,sans-Serif" font-size="10.00" fill="#000000">HamiltonianOne::build</text>
</a>
</g>
</g>
<!-- Node19&#45;&gt;Node20 -->
<g id="edge5" class="edge">
<title>Node19&#45;&gt;Node20</title>
<path fill="none" stroke="#191970" d="M427.0461,-67.9375C439.0085,-69.2144 451.2137,-70.5172 462.7828,-71.7521"/>
<polygon fill="#191970" stroke="#191970" points="427.3892,-64.4543 417.0742,-66.8731 426.6462,-71.4148 427.3892,-64.4543"/>
</g>
<!-- Node22 -->
<g id="node8" class="node">
<title>Node22</title>
<g id="a_node8"><a xlink:href="classHamiltonianTwo.html#a6ca0a318f25170b69e571a07064a5afb" target="_top" xlink:title="HamiltonianTwo::calculate">
<polygon fill="none" stroke="#000000" points="453,-31 453,-50 599,-50 599,-31 453,-31"/>
<text text-anchor="middle" x="526" y="-38" font-family="Helvetica,sans-Serif" font-size="10.00" fill="#000000">HamiltonianTwo::calculate</text>
</a>
</g>
</g>
<!-- Node19&#45;&gt;Node22 -->
<g id="edge7" class="edge">
<title>Node19&#45;&gt;Node22</title>
<path fill="none" stroke="#191970" d="M427.0648,-51.0605C435.6406,-50.1451 444.3409,-49.2164 452.8421,-48.309"/>
<polygon fill="#191970" stroke="#191970" points="426.6462,-47.5852 417.0742,-52.1269 427.3892,-54.5457 426.6462,-47.5852"/>
</g>
<!-- Node21 -->
<g id="node7" class="node">
<title>Node21</title>
<g id="a_node7"><a xlink:href="classHamiltonianOne.html#ad3ba2d70879a60c9f065b5a2545dfe36" target="_top" xlink:title="HamiltonianOne::HamiltonianOne">
<polygon fill="none" stroke="#000000" points="635,-69 635,-88 817,-88 817,-69 635,-69"/>
<text text-anchor="middle" x="726" y="-76" font-family="Helvetica,sans-Serif" font-size="10.00" fill="#000000">HamiltonianOne::HamiltonianOne</text>
</a>
</g>
</g>
<!-- Node20&#45;&gt;Node21 -->
<g id="edge6" class="edge">
<title>Node20&#45;&gt;Node21</title>
<path fill="none" stroke="#191970" d="M599.0601,-78.5C610.6733,-78.5 622.8104,-78.5 634.7784,-78.5"/>
<polygon fill="#191970" stroke="#191970" points="599.0068,-75.0001 589.0067,-78.5 599.0067,-82.0001 599.0068,-75.0001"/>
</g>
<!-- Node23 -->
<g id="node9" class="node">
<title>Node23</title>
<g id="a_node9"><a xlink:href="classHamiltonianTwo.html#abd374713c9b38f72265c7fe496c42b96" target="_top" xlink:title="HamiltonianTwo::HamiltonianTwo">
<polygon fill="none" stroke="#000000" points="636,-31 636,-50 816,-50 816,-31 636,-31"/>
<text text-anchor="middle" x="726" y="-38" font-family="Helvetica,sans-Serif" font-size="10.00" fill="#000000">HamiltonianTwo::HamiltonianTwo</text>
</a>
</g>
</g>
<!-- Node22&#45;&gt;Node23 -->
<g id="edge8" class="edge">
<title>Node22&#45;&gt;Node23</title>
<path fill="none" stroke="#191970" d="M609.2425,-40.5C618.0053,-40.5 626.9449,-40.5 635.7816,-40.5"/>
<polygon fill="#191970" stroke="#191970" points="609.0536,-37.0001 599.0536,-40.5 609.0535,-44.0001 609.0536,-37.0001"/>
</g>
</g>
</svg>
