<?xml version="1.0" encoding="UTF-8" standalone="no"?>
<!DOCTYPE svg PUBLIC "-//W3C//DTD SVG 1.1//EN"
 "http://www.w3.org/Graphics/SVG/1.1/DTD/svg11.dtd">
<!-- Generated by graphviz version 2.40.1 (20161225.0304)
 -->
<!-- Title: StateOne::getJ Pages: 1 -->
<!--zoomable 397 -->
<svg id="main" version="1.1" xmlns="http://www.w3.org/2000/svg" xmlns:xlink="http://www.w3.org/1999/xlink" xml:space="preserve" onload="init(evt)">
<style type="text/css"><![CDATA[
.edge:hover path { stroke: red; }
.edge:hover polygon { stroke: red; fill: red; }
]]></style>
<script type="text/javascript"><![CDATA[
var edges = document.getElementsByTagName('g');
if (edges && edges.length) {
  for (var i=0;i<edges.length;i++) {
    if (edges[i].id.substr(0,4)=='edge') {
      edges[i].setAttribute('class','edge');
    }
  }
}
]]></script>
        <defs>
                <circle id="rim" cx="0" cy="0" r="7"/>
                <circle id="rim2" cx="0" cy="0" r="3.5"/>
                <g id="zoomPlus">
                        <use xlink:href="#rim" fill="#404040">
                                <set attributeName="fill" to="#808080" begin="zoomplus.mouseover" end="zoomplus.mouseout"/>
                        </use>
                        <path d="M-4,0h8M0,-4v8" fill="none" stroke="white" stroke-width="1.5" pointer-events="none"/>
                </g>
                <g id="zoomMin">
                        <use xlink:href="#rim" fill="#404040">
                                <set attributeName="fill" to="#808080" begin="zoomminus.mouseover" end="zoomminus.mouseout"/>
                        </use>
                        <path d="M-4,0h8" fill="none" stroke="white" stroke-width="1.5" pointer-events="none"/>
                </g>
                <g id="dirArrow">
                        <path fill="none" stroke="white" stroke-width="1.5" d="M0,-3.0v7 M-2.5,-0.5L0,-3.0L2.5,-0.5"/>
                </g>
               <g id="resetDef">
                       <use xlink:href="#rim2" fill="#404040">
                               <set attributeName="fill" to="#808080" begin="reset.mouseover" end="reset.mouseout"/>
                       </use>
               </g>
        </defs>

<script type="text/javascript">
var viewWidth = 713;
var viewHeight = 397;
var sectionId = 'dynsection-7';
</script>
<script xlink:href="svgpan.js"/>
<svg id="graph" class="graph">
<g id="viewport">
<title>StateOne::getJ</title>
<!-- Node30 -->
<g id="node1" class="node">
<title>Node30</title>
<polygon fill="#bfbfbf" stroke="#000000" points="0,-174.5 0,-193.5 86,-193.5 86,-174.5 0,-174.5"/>
<text text-anchor="middle" x="43" y="-181.5" font-family="Helvetica,sans-Serif" font-size="10.00" fill="#000000">StateOne::getJ</text>
</g>
<!-- Node31 -->
<g id="node2" class="node">
<title>Node31</title>
<g id="a_node2"><a xlink:href="classMatrixElementCache.html#afc9f56a599c9ea24bbfbd4aeb41efbd4" target="_top" xlink:title="MatrixElementCache\l::getElectricMultipole">
<polygon fill="none" stroke="#000000" points="145,-358 145,-388 264,-388 264,-358 145,-358"/>
<text text-anchor="start" x="153" y="-376" font-family="Helvetica,sans-Serif" font-size="10.00" fill="#000000">MatrixElementCache</text>
<text text-anchor="middle" x="204.5" y="-365" font-family="Helvetica,sans-Serif" font-size="10.00" fill="#000000">::getElectricMultipole</text>
</a>
</g>
</g>
<!-- Node30&#45;&gt;Node31 -->
<g id="edge1" class="edge">
<title>Node30&#45;&gt;Node31</title>
<path fill="none" stroke="#191970" d="M47.6461,-203.6433C56.4924,-236.9015 78.8402,-304.4362 122,-343 128.8189,-349.0927 136.9732,-353.9774 145.4625,-357.8857"/>
<polygon fill="#191970" stroke="#191970" points="50.9947,-202.6086 45.153,-193.7698 44.2077,-204.3224 50.9947,-202.6086"/>
</g>
<!-- Node32 -->
<g id="node3" class="node">
<title>Node32</title>
<g id="a_node3"><a xlink:href="classMatrixElementCache.html#aeef0496ad6db911dac50c0625660d9c0" target="_top" xlink:title="MatrixElementCache\l::getMagneticDipole">
<polygon fill="none" stroke="#000000" points="350.5,-314 350.5,-344 468.5,-344 468.5,-314 350.5,-314"/>
<text text-anchor="start" x="358.5" y="-332" font-family="Helvetica,sans-Serif" font-size="10.00" fill="#000000">MatrixElementCache</text>
<text text-anchor="middle" x="409.5" y="-321" font-family="Helvetica,sans-Serif" font-size="10.00" fill="#000000">::getMagneticDipole</text>
</a>
</g>
</g>
<!-- Node30&#45;&gt;Node32 -->
<g id="edge2" class="edge">
<title>Node30&#45;&gt;Node32</title>
<path fill="none" stroke="#191970" d="M48.9102,-203.5645C58.8034,-232.5169 81.706,-285.9351 122,-310 191.7872,-351.6791 288.819,-348.1009 350.3883,-339.9273"/>
<polygon fill="#191970" stroke="#191970" points="52.1529,-202.2167 45.7463,-193.7783 45.4923,-204.3701 52.1529,-202.2167"/>
</g>
<!-- Node34 -->
<g id="node5" class="node">
<title>Node34</title>
<g id="a_node5"><a xlink:href="classMatrixElementCache.html#ad624534d20e42d8c4f495b51d6084057" target="_top" xlink:title="MatrixElementCache\l::getRadial">
<polygon fill="none" stroke="#000000" points="145.5,-270 145.5,-300 263.5,-300 263.5,-270 145.5,-270"/>
<text text-anchor="start" x="153.5" y="-288" font-family="Helvetica,sans-Serif" font-size="10.00" fill="#000000">MatrixElementCache</text>
<text text-anchor="middle" x="204.5" y="-277" font-family="Helvetica,sans-Serif" font-size="10.00" fill="#000000">::getRadial</text>
</a>
</g>
</g>
<!-- Node30&#45;&gt;Node34 -->
<g id="edge4" class="edge">
<title>Node30&#45;&gt;Node34</title>
<path fill="none" stroke="#191970" d="M58.2571,-201.0534C73.1821,-216.8676 97.2241,-240.1337 122,-255 131.6706,-260.8027 142.6439,-265.7574 153.3587,-269.8696"/>
<polygon fill="#191970" stroke="#191970" points="60.6824,-198.5207 51.3277,-193.5467 55.5388,-203.2687 60.6824,-198.5207"/>
</g>
<!-- Node36 -->
<g id="node7" class="node">
<title>Node36</title>
<g id="a_node7"><a xlink:href="classStateOne.html#a0b5646c4160083ef4b24460e9159ad2c" target="_top" xlink:title="StateOne::getReflected">
<polygon fill="none" stroke="#000000" points="139.5,-193.5 139.5,-212.5 269.5,-212.5 269.5,-193.5 139.5,-193.5"/>
<text text-anchor="middle" x="204.5" y="-200.5" font-family="Helvetica,sans-Serif" font-size="10.00" fill="#000000">StateOne::getReflected</text>
</a>
</g>
</g>
<!-- Node30&#45;&gt;Node36 -->
<g id="edge6" class="edge">
<title>Node30&#45;&gt;Node36</title>
<path fill="none" stroke="#191970" d="M96.4777,-190.2915C110.1559,-191.9007 125.0171,-193.6491 139.2155,-195.3195"/>
<polygon fill="#191970" stroke="#191970" points="96.6195,-186.7841 86.279,-189.0917 95.8016,-193.7362 96.6195,-186.7841"/>
</g>
<!-- Node37 -->
<g id="node8" class="node">
<title>Node37</title>
<g id="a_node8"><a xlink:href="classSystemOne.html#a4278feede19c90186f22f37c1d5d53b2" target="_top" xlink:title="Method that allows base class to combine systems ///////////////. ">
<polygon fill="none" stroke="#000000" points="342.5,-215.5 342.5,-234.5 476.5,-234.5 476.5,-215.5 342.5,-215.5"/>
<text text-anchor="middle" x="409.5" y="-222.5" font-family="Helvetica,sans-Serif" font-size="10.00" fill="#000000">SystemOne::incorporate</text>
</a>
</g>
</g>
<!-- Node30&#45;&gt;Node37 -->
<g id="edge9" class="edge">
<title>Node30&#45;&gt;Node37</title>
<path fill="none" stroke="#191970" d="M66.423,-198.6359C81.6338,-207.2707 102.2397,-217.386 122,-222 195.8848,-239.252 283.3863,-237.0749 342.2875,-232.4587"/>
<polygon fill="#191970" stroke="#191970" points="68.1,-195.5619 57.7051,-193.5133 64.5537,-201.5971 68.1,-195.5619"/>
</g>
<!-- Node38 -->
<g id="node9" class="node">
<title>Node38</title>
<g id="a_node9"><a xlink:href="classSystemTwo.html#a7aa70b668bd55e25ba9ed8f9d037052c" target="_top" xlink:title="Method that allows base class to initialize Basis //////////////. ">
<polygon fill="none" stroke="#000000" points="336.5,-169.5 336.5,-188.5 482.5,-188.5 482.5,-169.5 336.5,-169.5"/>
<text text-anchor="middle" x="409.5" y="-176.5" font-family="Helvetica,sans-Serif" font-size="10.00" fill="#000000">SystemTwo::initializeBasis</text>
</a>
</g>
</g>
<!-- Node30&#45;&gt;Node38 -->
<g id="edge10" class="edge">
<title>Node30&#45;&gt;Node38</title>
<path fill="none" stroke="#191970" d="M96.2713,-183.2732C159.5031,-182.4106 265.2883,-180.9674 336.2081,-179.9999"/>
<polygon fill="#191970" stroke="#191970" points="96.0712,-179.7755 86.1199,-183.4117 96.1668,-186.7749 96.0712,-179.7755"/>
</g>
<!-- Node39 -->
<g id="node10" class="node">
<title>Node39</title>
<g id="a_node10"><a xlink:href="State_8cpp.html#ae62083584a93c249d0c3b4a6f046fee1" target="_top" xlink:title="operator\&lt;\&lt;">
<polygon fill="none" stroke="#000000" points="167.5,-117.5 167.5,-136.5 241.5,-136.5 241.5,-117.5 167.5,-117.5"/>
<text text-anchor="middle" x="204.5" y="-124.5" font-family="Helvetica,sans-Serif" font-size="10.00" fill="#000000">operator&lt;&lt;</text>
</a>
</g>
</g>
<!-- Node30&#45;&gt;Node39 -->
<g id="edge11" class="edge">
<title>Node30&#45;&gt;Node39</title>
<path fill="none" stroke="#191970" d="M73.6864,-170.235C88.188,-163.9751 105.8291,-156.7092 122,-151 137.0504,-145.6864 153.9322,-140.6219 168.4851,-136.5265"/>
<polygon fill="#191970" stroke="#191970" points="71.968,-167.1662 64.2051,-174.3765 74.7701,-173.5809 71.968,-167.1662"/>
</g>
<!-- Node40 -->
<g id="node11" class="node">
<title>Node40</title>
<g id="a_node11"><a xlink:href="MatrixElementCache_8h.html#a15aabd3025cfa0ca9485cd672c0a1a4a" target="_top" xlink:title="selectionRulesMomentumNew">
<polygon fill="none" stroke="#000000" points="122,-79.5 122,-98.5 287,-98.5 287,-79.5 122,-79.5"/>
<text text-anchor="middle" x="204.5" y="-86.5" font-family="Helvetica,sans-Serif" font-size="10.00" fill="#000000">selectionRulesMomentumNew</text>
</a>
</g>
</g>
<!-- Node30&#45;&gt;Node40 -->
<g id="edge12" class="edge">
<title>Node30&#45;&gt;Node40</title>
<path fill="none" stroke="#191970" d="M56.6738,-166.0999C71.0287,-148.5909 95.2061,-122.5057 122,-108 129.1089,-104.1514 136.9712,-101.0795 144.9351,-98.6282"/>
<polygon fill="#191970" stroke="#191970" points="53.5844,-164.3617 50.1007,-174.3674 59.0637,-168.718 53.5844,-164.3617"/>
</g>
<!-- Node42 -->
<g id="node13" class="node">
<title>Node42</title>
<g id="a_node13"><a xlink:href="MatrixElementCache_8h.html#a06a268e07e2a0edb3fca096b8c941c78" target="_top" xlink:title="selectionRulesMultipoleNew">
<polygon fill="none" stroke="#000000" points="127,-41.5 127,-60.5 282,-60.5 282,-41.5 127,-41.5"/>
<text text-anchor="middle" x="204.5" y="-48.5" font-family="Helvetica,sans-Serif" font-size="10.00" fill="#000000">selectionRulesMultipoleNew</text>
</a>
</g>
</g>
<!-- Node30&#45;&gt;Node42 -->
<g id="edge16" class="edge">
<title>Node30&#45;&gt;Node42</title>
<path fill="none" stroke="#191970" d="M50.9135,-164.8141C62.552,-139.0795 86.7853,-93.8636 122,-70 127.7186,-66.1247 134.1182,-63.032 140.756,-60.565"/>
<polygon fill="#191970" stroke="#191970" points="47.5955,-163.6681 46.8244,-174.2348 54.0167,-166.4552 47.5955,-163.6681"/>
</g>
<!-- Node44 -->
<g id="node15" class="node">
<title>Node44</title>
<g id="a_node15"><a xlink:href="classStateOne.html#a5b05a258a43a682cfe7af5eb57d0221c" target="_top" xlink:title="Implementation of one&#45;atom state ///////////////////////////////. ">
<polygon fill="none" stroke="#000000" points="148,-3.5 148,-22.5 261,-22.5 261,-3.5 148,-3.5"/>
<text text-anchor="middle" x="204.5" y="-10.5" font-family="Helvetica,sans-Serif" font-size="10.00" fill="#000000">StateOne::StateOne</text>
</a>
</g>
</g>
<!-- Node30&#45;&gt;Node44 -->
<g id="edge20" class="edge">
<title>Node30&#45;&gt;Node44</title>
<path fill="none" stroke="#191970" d="M47.5463,-164.2239C56.1534,-131.4302 78.0385,-66.0428 122,-32 129.5536,-26.1507 138.59,-22.0468 147.8693,-19.1791"/>
<polygon fill="#191970" stroke="#191970" points="44.043,-163.8116 45.0412,-174.3593 50.8385,-165.4912 44.043,-163.8116"/>
</g>
<!-- Node33 -->
<g id="node4" class="node">
<title>Node33</title>
<g id="a_node4"><a xlink:href="classSystemOne.html#abf6d26d44765fa787251956c128644a7" target="_top" xlink:title="Method that allows base class to calculate the interaction /////. ">
<polygon fill="none" stroke="#000000" points="532,-104.5 532,-123.5 705,-123.5 705,-104.5 532,-104.5"/>
<text text-anchor="middle" x="618.5" y="-111.5" font-family="Helvetica,sans-Serif" font-size="10.00" fill="#000000">SystemOne::initializeInteraction</text>
</a>
</g>
</g>
<!-- Node32&#45;&gt;Node33 -->
<g id="edge3" class="edge">
<title>Node32&#45;&gt;Node33</title>
<path fill="none" stroke="#191970" d="M478.2991,-314.213C484.586,-311.3829 490.6075,-308.0128 496,-304 563.3812,-253.859 603.7114,-154.7771 615.1311,-123.6155"/>
<polygon fill="#191970" stroke="#191970" points="476.907,-311.0004 468.9403,-317.9849 479.5237,-317.4929 476.907,-311.0004"/>
</g>
<!-- Node35 -->
<g id="node6" class="node">
<title>Node35</title>
<g id="a_node6"><a xlink:href="classStateTwo.html#a10b237929cc9326382eef2b2d9db7eca" target="_top" xlink:title="StateTwo::getLeRoyRadius">
<polygon fill="none" stroke="#000000" points="336.5,-275.5 336.5,-294.5 482.5,-294.5 482.5,-275.5 336.5,-275.5"/>
<text text-anchor="middle" x="409.5" y="-282.5" font-family="Helvetica,sans-Serif" font-size="10.00" fill="#000000">StateTwo::getLeRoyRadius</text>
</a>
</g>
</g>
<!-- Node34&#45;&gt;Node35 -->
<g id="edge5" class="edge">
<title>Node34&#45;&gt;Node35</title>
<path fill="none" stroke="#191970" d="M273.5681,-285C293.7566,-285 315.8883,-285 336.3224,-285"/>
<polygon fill="#191970" stroke="#191970" points="273.5195,-281.5001 263.5195,-285 273.5194,-288.5001 273.5195,-281.5001"/>
</g>
<!-- Node36&#45;&gt;Node37 -->
<g id="edge7" class="edge">
<title>Node36&#45;&gt;Node37</title>
<path fill="none" stroke="#191970" d="M279.5978,-211.0593C300.1648,-213.2665 322.3203,-215.6441 342.4075,-217.7998"/>
<polygon fill="#191970" stroke="#191970" points="279.9614,-207.5783 269.645,-209.9912 279.2144,-214.5383 279.9614,-207.5783"/>
</g>
<!-- Node36&#45;&gt;Node38 -->
<g id="edge8" class="edge">
<title>Node36&#45;&gt;Node38</title>
<path fill="none" stroke="#191970" d="M279.7565,-194.1895C298.2231,-192.0275 317.9618,-189.7167 336.3286,-187.5664"/>
<polygon fill="#191970" stroke="#191970" points="279.1701,-190.7341 269.645,-195.3733 279.9841,-197.6867 279.1701,-190.7341"/>
</g>
<!-- Node40&#45;&gt;Node33 -->
<g id="edge13" class="edge">
<title>Node40&#45;&gt;Node33</title>
<path fill="none" stroke="#191970" d="M255.9347,-100.8528C287.0929,-108.0111 321.1967,-115.7972 323,-116 392.9725,-123.8707 472.8539,-122.727 531.9065,-119.9725"/>
<polygon fill="#191970" stroke="#191970" points="256.4965,-97.3907 245.9665,-98.5611 254.9281,-104.2127 256.4965,-97.3907"/>
</g>
<!-- Node41 -->
<g id="node12" class="node">
<title>Node41</title>
<g id="a_node12"><a xlink:href="classMatrixElementCache.html#a41efbe3c4a7e3e5f2ed2c807a0b3178e" target="_top" xlink:title="MatrixElementCache\l::precalculateDiamagnetism">
<polygon fill="none" stroke="#000000" points="332,-77 332,-107 487,-107 487,-77 332,-77"/>
<text text-anchor="start" x="340" y="-95" font-family="Helvetica,sans-Serif" font-size="10.00" fill="#000000">MatrixElementCache</text>
<text text-anchor="middle" x="409.5" y="-84" font-family="Helvetica,sans-Serif" font-size="10.00" fill="#000000">::precalculateDiamagnetism</text>
</a>
</g>
</g>
<!-- Node40&#45;&gt;Node41 -->
<g id="edge14" class="edge">
<title>Node40&#45;&gt;Node41</title>
<path fill="none" stroke="#191970" d="M297.3318,-90.3585C308.8227,-90.5267 320.4772,-90.6972 331.7106,-90.8616"/>
<polygon fill="#191970" stroke="#191970" points="297.3406,-86.8584 287.2904,-90.2116 297.2381,-93.8576 297.3406,-86.8584"/>
</g>
<!-- Node41&#45;&gt;Node33 -->
<g id="edge15" class="edge">
<title>Node41&#45;&gt;Node33</title>
<path fill="none" stroke="#191970" d="M497.0779,-101.2187C508.6146,-102.4331 520.4341,-103.6773 531.9535,-104.8898"/>
<polygon fill="#191970" stroke="#191970" points="497.3384,-97.7269 487.0269,-100.1607 496.6055,-104.6884 497.3384,-97.7269"/>
</g>
<!-- Node42&#45;&gt;Node33 -->
<g id="edge18" class="edge">
<title>Node42&#45;&gt;Node33</title>
<path fill="none" stroke="#191970" d="M292.3716,-48.7536C350.7161,-48.9841 428.6703,-52.6074 496,-67 533.8687,-75.0949 575.463,-93.1648 599.1355,-104.3919"/>
<polygon fill="#191970" stroke="#191970" points="292.0831,-45.2535 282.0809,-48.7471 292.0787,-52.2535 292.0831,-45.2535"/>
</g>
<!-- Node42&#45;&gt;Node41 -->
<g id="edge19" class="edge">
<title>Node42&#45;&gt;Node41</title>
<path fill="none" stroke="#191970" d="M262.0455,-62.5091C284.3972,-66.9794 310.3055,-72.1611 334.1116,-76.9223"/>
<polygon fill="#191970" stroke="#191970" points="262.5386,-59.0385 252.0464,-60.5093 261.1658,-65.9026 262.5386,-59.0385"/>
</g>
<!-- Node43 -->
<g id="node14" class="node">
<title>Node43</title>
<g id="a_node14"><a xlink:href="classSystemTwo.html#a5cc89c42ab8066027b0c375b818c8333" target="_top" xlink:title="Method that allows base class to calculate the interaction /////. ">
<polygon fill="none" stroke="#000000" points="323,-.5 323,-19.5 496,-19.5 496,-.5 323,-.5"/>
<text text-anchor="middle" x="409.5" y="-7.5" font-family="Helvetica,sans-Serif" font-size="10.00" fill="#000000">SystemTwo::initializeInteraction</text>
</a>
</g>
</g>
<!-- Node42&#45;&gt;Node43 -->
<g id="edge17" class="edge">
<title>Node42&#45;&gt;Node43</title>
<path fill="none" stroke="#191970" d="M262.003,-39.4994C293.4963,-33.2007 332.0605,-25.4879 361.8568,-19.5286"/>
<polygon fill="#191970" stroke="#191970" points="261.1658,-36.0974 252.0464,-41.4907 262.5386,-42.9615 261.1658,-36.0974"/>
</g>
</g>
</svg>
        <g id="navigator" transform="translate(0 0)" fill="#404254">
                <rect fill="#f2f5e9" fill-opacity="0.5" stroke="#606060" stroke-width=".5" x="0" y="0" width="60" height="60"/>
                <use id="zoomplus" xlink:href="#zoomPlus" x="17" y="9" onmousedown="handleZoom(evt,'in')"/>
                <use id="zoomminus" xlink:href="#zoomMin" x="42" y="9" onmousedown="handleZoom(evt,'out')"/>
                <use id="reset" xlink:href="#resetDef" x="30" y="36" onmousedown="handleReset()"/>
                <g id="arrowUp" xlink:href="#dirArrow" transform="translate(30 24)" onmousedown="handlePan(0,-1)">
                  <use xlink:href="#rim" fill="#404040">
                        <set attributeName="fill" to="#808080" begin="arrowUp.mouseover" end="arrowUp.mouseout"/>
                  </use>
                  <path fill="none" stroke="white" stroke-width="1.5" d="M0,-3.0v7 M-2.5,-0.5L0,-3.0L2.5,-0.5"/>
                </g>
                <g id="arrowRight" xlink:href="#dirArrow" transform="rotate(90) translate(36 -43)" onmousedown="handlePan(1,0)">
                  <use xlink:href="#rim" fill="#404040">
                        <set attributeName="fill" to="#808080" begin="arrowRight.mouseover" end="arrowRight.mouseout"/>
                  </use>
                  <path fill="none" stroke="white" stroke-width="1.5" d="M0,-3.0v7 M-2.5,-0.5L0,-3.0L2.5,-0.5"/>
                </g>
                <g id="arrowDown" xlink:href="#dirArrow" transform="rotate(180) translate(-30 -48)" onmousedown="handlePan(0,1)">
                  <use xlink:href="#rim" fill="#404040">
                        <set attributeName="fill" to="#808080" begin="arrowDown.mouseover" end="arrowDown.mouseout"/>
                  </use>
                  <path fill="none" stroke="white" stroke-width="1.5" d="M0,-3.0v7 M-2.5,-0.5L0,-3.0L2.5,-0.5"/>
                </g>
                <g id="arrowLeft" xlink:href="#dirArrow" transform="rotate(270) translate(-36 17)" onmousedown="handlePan(-1,0)">
                  <use xlink:href="#rim" fill="#404040">
                        <set attributeName="fill" to="#808080" begin="arrowLeft.mouseover" end="arrowLeft.mouseout"/>
                  </use>
                  <path fill="none" stroke="white" stroke-width="1.5" d="M0,-3.0v7 M-2.5,-0.5L0,-3.0L2.5,-0.5"/>
                </g>
        </g>
        <svg viewBox="0 0 15 15" width="100%" height="30px" preserveAspectRatio="xMaxYMin meet">
         <g id="arrow_out" transform="scale(0.3 0.3)">
          <a xlink:href="classStateOne_aedba5bfce70f73fa324b9d5ae1115578_icgraph_org.svg" target="_base">
           <rect id="button" ry="5" rx="5" y="6" x="6" height="38" width="38"
                fill="#f2f5e9" fill-opacity="0.5" stroke="#606060" stroke-width="1.0"/>
           <path id="arrow"
             d="M 11.500037,31.436501 C 11.940474,20.09759 22.043105,11.32322 32.158766,21.979434 L 37.068811,17.246167 C 37.068811,17.246167 37.088388,32 37.088388,32 L 22.160133,31.978069 C 22.160133,31.978069 26.997745,27.140456 26.997745,27.140456 C 18.528582,18.264221 13.291696,25.230495 11.500037,31.436501 z"
             style="fill:#404040;"/>
          </a>
         </g>
        </svg>
</svg>
