<?xml version="1.0" encoding="UTF-8" standalone="no"?>
<!DOCTYPE svg PUBLIC "-//W3C//DTD SVG 1.1//EN"
 "http://www.w3.org/Graphics/SVG/1.1/DTD/svg11.dtd">
<!-- Generated by graphviz version 2.40.1 (20161225.0304)
 -->
<!-- Title: SystemTwo::enableGreenTensor Pages: 1 -->
<svg width="389pt" height="66pt"
 viewBox="0.00 0.00 389.00 66.00" xmlns="http://www.w3.org/2000/svg" xmlns:xlink="http://www.w3.org/1999/xlink">
<g id="graph0" class="graph" transform="scale(1 1) rotate(0) translate(4 62)">
<title>SystemTwo::enableGreenTensor</title>
<!-- Node17 -->
<g id="node1" class="node">
<title>Node17</title>
<polygon fill="#bfbfbf" stroke="#000000" points="0,-19.5 0,-38.5 172,-38.5 172,-19.5 0,-19.5"/>
<text text-anchor="middle" x="86" y="-26.5" font-family="Helvetica,sans-Serif" font-size="10.00" fill="#000000">SystemTwo::enableGreenTensor</text>
</g>
<!-- Node18 -->
<g id="node2" class="node">
<title>Node18</title>
<g id="a_node2"><a xlink:href="classSystemTwo.html#a54002580bc1b3d706f540ae57c66db0e" target="_top" xlink:title="SystemTwo::setDistanceVector">
<polygon fill="none" stroke="#000000" points="211.5,-38.5 211.5,-57.5 377.5,-57.5 377.5,-38.5 211.5,-38.5"/>
<text text-anchor="middle" x="294.5" y="-45.5" font-family="Helvetica,sans-Serif" font-size="10.00" fill="#000000">SystemTwo::setDistanceVector</text>
</a>
</g>
</g>
<!-- Node17&#45;&gt;Node18 -->
<g id="edge1" class="edge">
<title>Node17&#45;&gt;Node18</title>
<path fill="none" stroke="#191970" d="M182.1365,-37.7606C191.9021,-38.6506 201.7633,-39.5492 211.3744,-40.425"/>
<polygon fill="#191970" stroke="#191970" points="182.2851,-34.2598 172.0087,-36.8377 181.6498,-41.2309 182.2851,-34.2598"/>
</g>
<!-- Node19 -->
<g id="node3" class="node">
<title>Node19</title>
<g id="a_node3"><a xlink:href="classSystemTwo.html#a22e479743949d6f9d325231da6e1d269" target="_top" xlink:title="SystemTwo::setSurfaceDistance">
<polygon fill="none" stroke="#000000" points="208,-.5 208,-19.5 381,-19.5 381,-.5 208,-.5"/>
<text text-anchor="middle" x="294.5" y="-7.5" font-family="Helvetica,sans-Serif" font-size="10.00" fill="#000000">SystemTwo::setSurfaceDistance</text>
</a>
</g>
</g>
<!-- Node17&#45;&gt;Node19 -->
<g id="edge2" class="edge">
<title>Node17&#45;&gt;Node19</title>
<path fill="none" stroke="#191970" d="M182.0089,-20.251C190.5686,-19.471 199.2028,-18.6842 207.6789,-17.9118"/>
<polygon fill="#191970" stroke="#191970" points="181.6498,-16.7691 172.0087,-21.1623 182.2851,-23.7402 181.6498,-16.7691"/>
</g>
</g>
</svg>
