<?xml version="1.0" encoding="UTF-8" standalone="no"?>
<!DOCTYPE svg PUBLIC "-//W3C//DTD SVG 1.1//EN"
 "http://www.w3.org/Graphics/SVG/1.1/DTD/svg11.dtd">
<!-- Generated by graphviz version 2.40.1 (20161225.0304)
 -->
<!-- Title: /travis/pairinteraction/ConfParser.cpp Pages: 1 -->
<svg width="559pt" height="162pt"
 viewBox="0.00 0.00 558.50 162.00" xmlns="http://www.w3.org/2000/svg" xmlns:xlink="http://www.w3.org/1999/xlink">
<g id="graph0" class="graph" transform="scale(1 1) rotate(0) translate(4 158)">
<title>/travis/pairinteraction/ConfParser.cpp</title>
<!-- Node0 -->
<g id="node1" class="node">
<title>Node0</title>
<polygon fill="#bfbfbf" stroke="#000000" points="259,-123.5 259,-153.5 381,-153.5 381,-123.5 259,-123.5"/>
<text text-anchor="start" x="267" y="-141.5" font-family="Helvetica,sans-Serif" font-size="10.00" fill="#000000">/travis/pairinteraction</text>
<text text-anchor="middle" x="320" y="-130.5" font-family="Helvetica,sans-Serif" font-size="10.00" fill="#000000">/ConfParser.cpp</text>
</g>
<!-- Node1 -->
<g id="node2" class="node">
<title>Node1</title>
<g id="a_node2"><a xlink:href="ConfParser_8h.html" target="_top" xlink:title="ConfParser.h">
<polygon fill="none" stroke="#000000" points="154.5,-62 154.5,-81 231.5,-81 231.5,-62 154.5,-62"/>
<text text-anchor="middle" x="193" y="-69" font-family="Helvetica,sans-Serif" font-size="10.00" fill="#000000">ConfParser.h</text>
</a>
</g>
</g>
<!-- Node0&#45;&gt;Node1 -->
<g id="edge1" class="edge">
<title>Node0&#45;&gt;Node1</title>
<path fill="none" stroke="#191970" d="M291.4987,-123.4639C270.1897,-112.2222 241.234,-96.9463 220.2361,-85.8686"/>
<polygon fill="#191970" stroke="#191970" points="221.6822,-82.6744 211.2044,-81.1039 218.416,-88.8657 221.6822,-82.6744"/>
</g>
<!-- Node4 -->
<g id="node5" class="node">
<title>Node4</title>
<polygon fill="none" stroke="#bfbfbf" points="274,-.5 274,-19.5 318,-19.5 318,-.5 274,-.5"/>
<text text-anchor="middle" x="296" y="-7.5" font-family="Helvetica,sans-Serif" font-size="10.00" fill="#000000">string</text>
</g>
<!-- Node0&#45;&gt;Node4 -->
<g id="edge8" class="edge">
<title>Node0&#45;&gt;Node4</title>
<path fill="none" stroke="#191970" d="M311.6653,-123.2318C306.6751,-113.2424 300.7776,-99.7288 298,-87 293.8247,-67.8657 293.7721,-45.4238 294.4916,-29.7209"/>
<polygon fill="#191970" stroke="#191970" points="297.9922,-29.8151 295.1041,-19.6215 291.005,-29.3913 297.9922,-29.8151"/>
</g>
<!-- Node6 -->
<g id="node7" class="node">
<title>Node6</title>
<polygon fill="none" stroke="#bfbfbf" points="306.5,-56.5 306.5,-86.5 419.5,-86.5 419.5,-56.5 306.5,-56.5"/>
<text text-anchor="start" x="314.5" y="-74.5" font-family="Helvetica,sans-Serif" font-size="10.00" fill="#000000">boost/property_tree</text>
<text text-anchor="middle" x="363" y="-63.5" font-family="Helvetica,sans-Serif" font-size="10.00" fill="#000000">/json_parser.hpp</text>
</g>
<!-- Node0&#45;&gt;Node6 -->
<g id="edge6" class="edge">
<title>Node0&#45;&gt;Node6</title>
<path fill="none" stroke="#191970" d="M329.7574,-123.2967C335.0903,-114.9873 341.8135,-104.5115 347.816,-95.1587"/>
<polygon fill="#191970" stroke="#191970" points="350.8255,-96.9495 353.2812,-86.6432 344.9344,-93.1686 350.8255,-96.9495"/>
</g>
<!-- Node7 -->
<g id="node8" class="node">
<title>Node7</title>
<polygon fill="none" stroke="#bfbfbf" points="437.5,-56.5 437.5,-86.5 550.5,-86.5 550.5,-56.5 437.5,-56.5"/>
<text text-anchor="start" x="445.5" y="-74.5" font-family="Helvetica,sans-Serif" font-size="10.00" fill="#000000">boost/property_tree</text>
<text text-anchor="middle" x="494" y="-63.5" font-family="Helvetica,sans-Serif" font-size="10.00" fill="#000000">/ptree.hpp</text>
</g>
<!-- Node0&#45;&gt;Node7 -->
<g id="edge7" class="edge">
<title>Node0&#45;&gt;Node7</title>
<path fill="none" stroke="#191970" d="M359.049,-123.4639C384.5934,-113.6278 418.1584,-100.7034 445.4231,-90.2049"/>
<polygon fill="#191970" stroke="#191970" points="446.7063,-93.4614 454.7807,-86.6017 444.1909,-86.9289 446.7063,-93.4614"/>
</g>
<!-- Node2 -->
<g id="node3" class="node">
<title>Node2</title>
<polygon fill="none" stroke="#bfbfbf" points="0,-.5 0,-19.5 38,-19.5 38,-.5 0,-.5"/>
<text text-anchor="middle" x="19" y="-7.5" font-family="Helvetica,sans-Serif" font-size="10.00" fill="#000000">map</text>
</g>
<!-- Node1&#45;&gt;Node2 -->
<g id="edge2" class="edge">
<title>Node1&#45;&gt;Node2</title>
<path fill="none" stroke="#191970" d="M165.8113,-61.9451C138.3722,-52.2945 94.5324,-36.8544 47.9405,-20.3256"/>
<polygon fill="#191970" stroke="#191970" points="48.8709,-16.942 38.2761,-16.8955 46.5295,-23.5388 48.8709,-16.942"/>
</g>
<!-- Node3 -->
<g id="node4" class="node">
<title>Node3</title>
<polygon fill="none" stroke="#bfbfbf" points="56,-.5 56,-19.5 112,-19.5 112,-.5 56,-.5"/>
<text text-anchor="middle" x="84" y="-7.5" font-family="Helvetica,sans-Serif" font-size="10.00" fill="#000000">sstream</text>
</g>
<!-- Node1&#45;&gt;Node3 -->
<g id="edge3" class="edge">
<title>Node1&#45;&gt;Node3</title>
<path fill="none" stroke="#191970" d="M175.9688,-61.8906C158.211,-51.8713 130.167,-36.0483 109.7118,-24.5071"/>
<polygon fill="#191970" stroke="#191970" points="111.3409,-21.4077 100.9117,-19.5419 107.9011,-27.5042 111.3409,-21.4077"/>
</g>
<!-- Node1&#45;&gt;Node4 -->
<g id="edge4" class="edge">
<title>Node1&#45;&gt;Node4</title>
<path fill="none" stroke="#191970" d="M209.0938,-61.8906C225.7228,-51.9616 251.8976,-36.333 271.1794,-24.8201"/>
<polygon fill="#191970" stroke="#191970" points="273.2276,-27.6736 280.0193,-19.5419 269.639,-21.6634 273.2276,-27.6736"/>
</g>
<!-- Node5 -->
<g id="node6" class="node">
<title>Node5</title>
<polygon fill="none" stroke="#bfbfbf" points="130.5,-.5 130.5,-19.5 255.5,-19.5 255.5,-.5 130.5,-.5"/>
<text text-anchor="middle" x="193" y="-7.5" font-family="Helvetica,sans-Serif" font-size="10.00" fill="#000000">boost/lexical_cast.hpp</text>
</g>
<!-- Node1&#45;&gt;Node5 -->
<g id="edge5" class="edge">
<title>Node1&#45;&gt;Node5</title>
<path fill="none" stroke="#191970" d="M193,-61.8906C193,-53.3657 193,-40.6392 193,-29.9235"/>
<polygon fill="#191970" stroke="#191970" points="196.5001,-29.7448 193,-19.7449 189.5001,-29.7449 196.5001,-29.7448"/>
</g>
</g>
</svg>
