<?xml version="1.0" encoding="UTF-8" standalone="no"?>
<!DOCTYPE svg PUBLIC "-//W3C//DTD SVG 1.1//EN"
 "http://www.w3.org/Graphics/SVG/1.1/DTD/svg11.dtd">
<!-- Generated by graphviz version 2.40.1 (20161225.0304)
 -->
<!-- Title: /travis/pairinteraction/ConfParser.h Pages: 1 -->
<svg width="1568pt" height="530pt"
 viewBox="0.00 0.00 1568.00 530.00" xmlns="http://www.w3.org/2000/svg" xmlns:xlink="http://www.w3.org/1999/xlink">
<g id="graph0" class="graph" transform="scale(1 1) rotate(0) translate(4 526)">
<title>/travis/pairinteraction/ConfParser.h</title>
<!-- Node5 -->
<g id="node1" class="node">
<title>Node5</title>
<polygon fill="#bfbfbf" stroke="#000000" points="1190,-491.5 1190,-521.5 1312,-521.5 1312,-491.5 1190,-491.5"/>
<text text-anchor="start" x="1198" y="-509.5" font-family="Helvetica,sans-Serif" font-size="10.00" fill="#000000">/travis/pairinteraction</text>
<text text-anchor="middle" x="1251" y="-498.5" font-family="Helvetica,sans-Serif" font-size="10.00" fill="#000000">/ConfParser.h</text>
</g>
<!-- Node6 -->
<g id="node2" class="node">
<title>Node6</title>
<g id="a_node2"><a xlink:href="Basisnames_8h.html" target="_top" xlink:title="/travis/pairinteraction\l/Basisnames.h">
<polygon fill="none" stroke="#000000" points="904,-419 904,-449 1026,-449 1026,-419 904,-419"/>
<text text-anchor="start" x="912" y="-437" font-family="Helvetica,sans-Serif" font-size="10.00" fill="#000000">/travis/pairinteraction</text>
<text text-anchor="middle" x="965" y="-426" font-family="Helvetica,sans-Serif" font-size="10.00" fill="#000000">/Basisnames.h</text>
</a>
</g>
</g>
<!-- Node5&#45;&gt;Node6 -->
<g id="edge1" class="edge">
<title>Node5&#45;&gt;Node6</title>
<path fill="none" stroke="#191970" d="M1182.0072,-489.0106C1133.7932,-476.7885 1070.0849,-460.6386 1024.1835,-449.0028"/>
<polygon fill="#191970" stroke="#191970" points="1181.1872,-492.4133 1191.7406,-491.478 1182.9073,-485.6279 1181.1872,-492.4133"/>
</g>
<!-- Node10 -->
<g id="node6" class="node">
<title>Node10</title>
<g id="a_node6"><a xlink:href="HamiltonianOne_8h.html" target="_top" xlink:title="/travis/pairinteraction\l/HamiltonianOne.h">
<polygon fill="none" stroke="#000000" points="1120,-212.5 1120,-242.5 1242,-242.5 1242,-212.5 1120,-212.5"/>
<text text-anchor="start" x="1128" y="-230.5" font-family="Helvetica,sans-Serif" font-size="10.00" fill="#000000">/travis/pairinteraction</text>
<text text-anchor="middle" x="1181" y="-219.5" font-family="Helvetica,sans-Serif" font-size="10.00" fill="#000000">/HamiltonianOne.h</text>
</a>
</g>
</g>
<!-- Node5&#45;&gt;Node10 -->
<g id="edge42" class="edge">
<title>Node5&#45;&gt;Node10</title>
<path fill="none" stroke="#191970" d="M1244.7547,-481.6082C1230.5613,-425.0371 1196.2254,-288.1839 1184.7821,-242.5744"/>
<polygon fill="#191970" stroke="#191970" points="1241.4081,-482.6521 1247.2365,-491.4997 1248.1977,-480.9486 1241.4081,-482.6521"/>
</g>
<!-- Node12 -->
<g id="node8" class="node">
<title>Node12</title>
<g id="a_node8"><a xlink:href="HamiltonianTwo_8h.html" target="_top" xlink:title="/travis/pairinteraction\l/HamiltonianTwo.h">
<polygon fill="none" stroke="#000000" points="897,-145.5 897,-175.5 1019,-175.5 1019,-145.5 897,-145.5"/>
<text text-anchor="start" x="905" y="-163.5" font-family="Helvetica,sans-Serif" font-size="10.00" fill="#000000">/travis/pairinteraction</text>
<text text-anchor="middle" x="958" y="-152.5" font-family="Helvetica,sans-Serif" font-size="10.00" fill="#000000">/HamiltonianTwo.h</text>
</a>
</g>
</g>
<!-- Node5&#45;&gt;Node12 -->
<g id="edge43" class="edge">
<title>Node5&#45;&gt;Node12</title>
<path fill="none" stroke="#191970" d="M1179.813,-503.0792C1028.376,-493.8565 688,-461.954 688,-361.5 688,-361.5 688,-361.5 688,-294.5 688,-201.8751 817.0715,-173.2754 896.7328,-164.4446"/>
<polygon fill="#191970" stroke="#191970" points="1179.7565,-506.5819 1189.946,-503.6796 1180.1706,-499.5942 1179.7565,-506.5819"/>
</g>
<!-- Node14 -->
<g id="node10" class="node">
<title>Node14</title>
<g id="a_node10"><a xlink:href="Interface_8cpp.html" target="_top" xlink:title="/travis/pairinteraction\l/Interface.cpp">
<polygon fill="none" stroke="#000000" points="1145,-78.5 1145,-108.5 1267,-108.5 1267,-78.5 1145,-78.5"/>
<text text-anchor="start" x="1153" y="-96.5" font-family="Helvetica,sans-Serif" font-size="10.00" fill="#000000">/travis/pairinteraction</text>
<text text-anchor="middle" x="1206" y="-85.5" font-family="Helvetica,sans-Serif" font-size="10.00" fill="#000000">/Interface.cpp</text>
</a>
</g>
</g>
<!-- Node5&#45;&gt;Node14 -->
<g id="edge44" class="edge">
<title>Node5&#45;&gt;Node14</title>
<path fill="none" stroke="#191970" d="M1256.3226,-481.3294C1261.9432,-452.5124 1270,-403.8239 1270,-361.5 1270,-361.5 1270,-361.5 1270,-227.5 1270,-180.5784 1237.6523,-132.6455 1218.9514,-108.855"/>
<polygon fill="#191970" stroke="#191970" points="1252.8485,-480.8525 1254.3095,-491.3461 1259.7113,-482.2318 1252.8485,-480.8525"/>
</g>
<!-- Node31 -->
<g id="node27" class="node">
<title>Node31</title>
<g id="a_node27"><a xlink:href="ConfParser_8cpp.html" target="_top" xlink:title="/travis/pairinteraction\l/ConfParser.cpp">
<polygon fill="none" stroke="#000000" points="1298,-419 1298,-449 1420,-449 1420,-419 1298,-419"/>
<text text-anchor="start" x="1306" y="-437" font-family="Helvetica,sans-Serif" font-size="10.00" fill="#000000">/travis/pairinteraction</text>
<text text-anchor="middle" x="1359" y="-426" font-family="Helvetica,sans-Serif" font-size="10.00" fill="#000000">/ConfParser.cpp</text>
</a>
</g>
</g>
<!-- Node5&#45;&gt;Node31 -->
<g id="edge41" class="edge">
<title>Node5&#45;&gt;Node31</title>
<path fill="none" stroke="#191970" d="M1282.0888,-485.6302C1299.525,-473.9253 1320.8736,-459.5941 1336.651,-449.0028"/>
<polygon fill="#191970" stroke="#191970" points="1279.7296,-482.9984 1273.3777,-491.478 1283.6312,-488.8103 1279.7296,-482.9984"/>
</g>
<!-- Node32 -->
<g id="node28" class="node">
<title>Node32</title>
<g id="a_node28"><a xlink:href="conf__parser__test_8cpp.html" target="_top" xlink:title="/travis/pairinteraction\l/unit_test/conf_parser\l_test.cpp">
<polygon fill="none" stroke="#000000" points="1438,-413.5 1438,-454.5 1560,-454.5 1560,-413.5 1438,-413.5"/>
<text text-anchor="start" x="1446" y="-442.5" font-family="Helvetica,sans-Serif" font-size="10.00" fill="#000000">/travis/pairinteraction</text>
<text text-anchor="start" x="1446" y="-431.5" font-family="Helvetica,sans-Serif" font-size="10.00" fill="#000000">/unit_test/conf_parser</text>
<text text-anchor="middle" x="1499" y="-420.5" font-family="Helvetica,sans-Serif" font-size="10.00" fill="#000000">_test.cpp</text>
</a>
</g>
</g>
<!-- Node5&#45;&gt;Node32 -->
<g id="edge45" class="edge">
<title>Node5&#45;&gt;Node32</title>
<path fill="none" stroke="#191970" d="M1313.4554,-488.5924C1347.6137,-478.7575 1390.6625,-466.2963 1429,-455 1431.9209,-454.1393 1434.9094,-453.2555 1437.9271,-452.3603"/>
<polygon fill="#191970" stroke="#191970" points="1312.2551,-485.2957 1303.6128,-491.4245 1314.1908,-492.0228 1312.2551,-485.2957"/>
</g>
<!-- Node7 -->
<g id="node3" class="node">
<title>Node7</title>
<g id="a_node3"><a xlink:href="Basisnames_8cpp.html" target="_top" xlink:title="/travis/pairinteraction\l/Basisnames.cpp">
<polygon fill="none" stroke="#000000" points="764,-346.5 764,-376.5 886,-376.5 886,-346.5 764,-346.5"/>
<text text-anchor="start" x="772" y="-364.5" font-family="Helvetica,sans-Serif" font-size="10.00" fill="#000000">/travis/pairinteraction</text>
<text text-anchor="middle" x="825" y="-353.5" font-family="Helvetica,sans-Serif" font-size="10.00" fill="#000000">/Basisnames.cpp</text>
</a>
</g>
</g>
<!-- Node6&#45;&gt;Node7 -->
<g id="edge2" class="edge">
<title>Node6&#45;&gt;Node7</title>
<path fill="none" stroke="#191970" d="M926.8609,-414.2494C903.8818,-402.3495 875.0798,-387.4342 853.9709,-376.5028"/>
<polygon fill="#191970" stroke="#191970" points="925.5024,-417.4873 935.9919,-418.978 928.7215,-411.2714 925.5024,-417.4873"/>
</g>
<!-- Node8 -->
<g id="node4" class="node">
<title>Node8</title>
<g id="a_node4"><a xlink:href="Hamiltonianmatrix_8h.html" target="_top" xlink:title="/travis/pairinteraction\l/Hamiltonianmatrix.h">
<polygon fill="none" stroke="#000000" points="904,-346.5 904,-376.5 1026,-376.5 1026,-346.5 904,-346.5"/>
<text text-anchor="start" x="912" y="-364.5" font-family="Helvetica,sans-Serif" font-size="10.00" fill="#000000">/travis/pairinteraction</text>
<text text-anchor="middle" x="965" y="-353.5" font-family="Helvetica,sans-Serif" font-size="10.00" fill="#000000">/Hamiltonianmatrix.h</text>
</a>
</g>
</g>
<!-- Node6&#45;&gt;Node8 -->
<g id="edge3" class="edge">
<title>Node6&#45;&gt;Node8</title>
<path fill="none" stroke="#191970" d="M965,-408.8409C965,-398.0601 965,-385.8309 965,-376.5028"/>
<polygon fill="#191970" stroke="#191970" points="961.5001,-408.9779 965,-418.978 968.5001,-408.978 961.5001,-408.9779"/>
</g>
<!-- Node6&#45;&gt;Node10 -->
<g id="edge13" class="edge">
<title>Node6&#45;&gt;Node10</title>
<path fill="none" stroke="#191970" d="M1026.5248,-415.4668C1075.7304,-397.1424 1141.7924,-363.9032 1175,-310 1187.6545,-289.459 1186.2839,-260.3483 1183.8464,-242.7619"/>
<polygon fill="#191970" stroke="#191970" points="1025.1397,-412.2457 1016.9232,-418.9345 1027.5175,-418.8295 1025.1397,-412.2457"/>
</g>
<!-- Node6&#45;&gt;Node12 -->
<g id="edge18" class="edge">
<title>Node6&#45;&gt;Node12</title>
<path fill="none" stroke="#191970" d="M893.7804,-423.1796C840.4047,-413.5675 773.5156,-397.8168 755,-377 734.9905,-354.5036 747.2283,-340.0251 745,-310 743.9803,-296.26 738.0165,-290.8768 745,-279 777.8171,-223.1887 847.4896,-191.762 898.2418,-175.5081"/>
<polygon fill="#191970" stroke="#191970" points="893.4605,-426.677 903.9155,-424.9613 894.6726,-419.7827 893.4605,-426.677"/>
</g>
<!-- Node16 -->
<g id="node12" class="node">
<title>Node16</title>
<g id="a_node12"><a xlink:href="MatrixElements_8h.html" target="_top" xlink:title="/travis/pairinteraction\l/MatrixElements.h">
<polygon fill="none" stroke="#000000" points="1044,-279.5 1044,-309.5 1166,-309.5 1166,-279.5 1044,-279.5"/>
<text text-anchor="start" x="1052" y="-297.5" font-family="Helvetica,sans-Serif" font-size="10.00" fill="#000000">/travis/pairinteraction</text>
<text text-anchor="middle" x="1105" y="-286.5" font-family="Helvetica,sans-Serif" font-size="10.00" fill="#000000">/MatrixElements.h</text>
</a>
</g>
</g>
<!-- Node6&#45;&gt;Node16 -->
<g id="edge14" class="edge">
<title>Node6&#45;&gt;Node16</title>
<path fill="none" stroke="#191970" d="M993.6522,-412.6117C1006.7364,-402.3636 1022.1451,-389.5975 1035,-377 1057.4045,-355.0441 1080.3668,-326.6257 1093.6248,-309.5197"/>
<polygon fill="#191970" stroke="#191970" points="991.2141,-410.0724 985.4399,-418.9555 995.4934,-415.6121 991.2141,-410.0724"/>
</g>
<!-- Node18 -->
<g id="node14" class="node">
<title>Node18</title>
<g id="a_node14"><a xlink:href="MatrixElementCache_8h.html" target="_top" xlink:title="/travis/pairinteraction\l/MatrixElementCache.h">
<polygon fill="none" stroke="#000000" points="333,-346.5 333,-376.5 463,-376.5 463,-346.5 333,-346.5"/>
<text text-anchor="start" x="341" y="-364.5" font-family="Helvetica,sans-Serif" font-size="10.00" fill="#000000">/travis/pairinteraction</text>
<text text-anchor="middle" x="398" y="-353.5" font-family="Helvetica,sans-Serif" font-size="10.00" fill="#000000">/MatrixElementCache.h</text>
</a>
</g>
</g>
<!-- Node6&#45;&gt;Node18 -->
<g id="edge19" class="edge">
<title>Node6&#45;&gt;Node18</title>
<path fill="none" stroke="#191970" d="M893.6949,-424.8825C782.7557,-410.6972 570.4659,-383.5525 463.3102,-369.8509"/>
<polygon fill="#191970" stroke="#191970" points="893.4192,-428.3757 903.7823,-426.1723 894.3071,-421.4322 893.4192,-428.3757"/>
</g>
<!-- Node9 -->
<g id="node5" class="node">
<title>Node9</title>
<g id="a_node5"><a xlink:href="Hamiltonian_8h.html" target="_top" xlink:title="/travis/pairinteraction\l/Hamiltonian.h">
<polygon fill="none" stroke="#000000" points="904,-279.5 904,-309.5 1026,-309.5 1026,-279.5 904,-279.5"/>
<text text-anchor="start" x="912" y="-297.5" font-family="Helvetica,sans-Serif" font-size="10.00" fill="#000000">/travis/pairinteraction</text>
<text text-anchor="middle" x="965" y="-286.5" font-family="Helvetica,sans-Serif" font-size="10.00" fill="#000000">/Hamiltonian.h</text>
</a>
</g>
</g>
<!-- Node8&#45;&gt;Node9 -->
<g id="edge4" class="edge">
<title>Node8&#45;&gt;Node9</title>
<path fill="none" stroke="#191970" d="M965,-336.0249C965,-327.128 965,-317.4287 965,-309.6432"/>
<polygon fill="#191970" stroke="#191970" points="961.5001,-336.2966 965,-346.2967 968.5001,-336.2967 961.5001,-336.2966"/>
</g>
<!-- Node15 -->
<g id="node11" class="node">
<title>Node15</title>
<g id="a_node11"><a xlink:href="Hamiltonianmatrix_8cpp.html" target="_top" xlink:title="/travis/pairinteraction\l/Hamiltonianmatrix.cpp">
<polygon fill="none" stroke="#000000" points="754,-279.5 754,-309.5 886,-309.5 886,-279.5 754,-279.5"/>
<text text-anchor="start" x="762" y="-297.5" font-family="Helvetica,sans-Serif" font-size="10.00" fill="#000000">/travis/pairinteraction</text>
<text text-anchor="middle" x="820" y="-286.5" font-family="Helvetica,sans-Serif" font-size="10.00" fill="#000000">/Hamiltonianmatrix.cpp</text>
</a>
</g>
</g>
<!-- Node8&#45;&gt;Node15 -->
<g id="edge12" class="edge">
<title>Node8&#45;&gt;Node15</title>
<path fill="none" stroke="#191970" d="M923.1764,-342.1746C900.7549,-331.8143 873.534,-319.2364 852.6828,-309.6017"/>
<polygon fill="#191970" stroke="#191970" points="921.9133,-345.4465 932.4592,-346.4639 924.8495,-339.0921 921.9133,-345.4465"/>
</g>
<!-- Node9&#45;&gt;Node10 -->
<g id="edge5" class="edge">
<title>Node9&#45;&gt;Node10</title>
<path fill="none" stroke="#191970" d="M1023.3126,-276.4123C1057.4292,-265.8298 1100.0048,-252.6235 1132.314,-242.6017"/>
<polygon fill="#191970" stroke="#191970" points="1021.9888,-273.1583 1013.4746,-279.4639 1024.0626,-279.8441 1021.9888,-273.1583"/>
</g>
<!-- Node9&#45;&gt;Node12 -->
<g id="edge11" class="edge">
<title>Node9&#45;&gt;Node12</title>
<path fill="none" stroke="#191970" d="M946.5333,-270.9251C941.0681,-262.5778 935.8002,-252.8123 933,-243 929.2191,-229.7512 929.9131,-225.4275 933,-212 935.9838,-199.0206 942.6936,-185.5187 948.4113,-175.5975"/>
<polygon fill="#191970" stroke="#191970" points="943.834,-273.1726 952.4336,-279.3612 949.5703,-269.1606 943.834,-273.1726"/>
</g>
<!-- Node11 -->
<g id="node7" class="node">
<title>Node11</title>
<g id="a_node7"><a xlink:href="HamiltonianOne_8cpp.html" target="_top" xlink:title="/travis/pairinteraction\l/HamiltonianOne.cpp">
<polygon fill="none" stroke="#000000" points="1056,-145.5 1056,-175.5 1178,-175.5 1178,-145.5 1056,-145.5"/>
<text text-anchor="start" x="1064" y="-163.5" font-family="Helvetica,sans-Serif" font-size="10.00" fill="#000000">/travis/pairinteraction</text>
<text text-anchor="middle" x="1117" y="-152.5" font-family="Helvetica,sans-Serif" font-size="10.00" fill="#000000">/HamiltonianOne.cpp</text>
</a>
</g>
</g>
<!-- Node10&#45;&gt;Node11 -->
<g id="edge6" class="edge">
<title>Node10&#45;&gt;Node11</title>
<path fill="none" stroke="#191970" d="M1159.4361,-204.9253C1150.2254,-195.2828 1139.7193,-184.2843 1131.4651,-175.6432"/>
<polygon fill="#191970" stroke="#191970" points="1157.0392,-207.4831 1166.4774,-212.2967 1162.101,-202.648 1157.0392,-207.4831"/>
</g>
<!-- Node10&#45;&gt;Node12 -->
<g id="edge7" class="edge">
<title>Node10&#45;&gt;Node12</title>
<path fill="none" stroke="#191970" d="M1121.2507,-209.5484C1085.9529,-198.9432 1041.7632,-185.6665 1008.2638,-175.6017"/>
<polygon fill="#191970" stroke="#191970" points="1120.3702,-212.9384 1130.9544,-212.4639 1122.3845,-206.2344 1120.3702,-212.9384"/>
</g>
<!-- Node10&#45;&gt;Node14 -->
<g id="edge10" class="edge">
<title>Node10&#45;&gt;Node14</title>
<path fill="none" stroke="#191970" d="M1185.6937,-202.3415C1190.8296,-174.8131 1198.8971,-131.5714 1203.1527,-108.7614"/>
<polygon fill="#191970" stroke="#191970" points="1182.2127,-201.9167 1183.8192,-212.389 1189.094,-203.2005 1182.2127,-201.9167"/>
</g>
<!-- Node13 -->
<g id="node9" class="node">
<title>Node13</title>
<g id="a_node9"><a xlink:href="HamiltonianTwo_8cpp.html" target="_top" xlink:title="/travis/pairinteraction\l/HamiltonianTwo.cpp">
<polygon fill="none" stroke="#000000" points="897,-78.5 897,-108.5 1019,-108.5 1019,-78.5 897,-78.5"/>
<text text-anchor="start" x="905" y="-96.5" font-family="Helvetica,sans-Serif" font-size="10.00" fill="#000000">/travis/pairinteraction</text>
<text text-anchor="middle" x="958" y="-85.5" font-family="Helvetica,sans-Serif" font-size="10.00" fill="#000000">/HamiltonianTwo.cpp</text>
</a>
</g>
</g>
<!-- Node12&#45;&gt;Node13 -->
<g id="edge8" class="edge">
<title>Node12&#45;&gt;Node13</title>
<path fill="none" stroke="#191970" d="M958,-135.0249C958,-126.128 958,-116.4287 958,-108.6432"/>
<polygon fill="#191970" stroke="#191970" points="954.5001,-135.2966 958,-145.2967 961.5001,-135.2967 954.5001,-135.2966"/>
</g>
<!-- Node12&#45;&gt;Node14 -->
<g id="edge9" class="edge">
<title>Node12&#45;&gt;Node14</title>
<path fill="none" stroke="#191970" d="M1023.4433,-142.8198C1062.8617,-132.1704 1112.5279,-118.7525 1150.1012,-108.6017"/>
<polygon fill="#191970" stroke="#191970" points="1022.3971,-139.4768 1013.656,-145.4639 1024.2228,-146.2346 1022.3971,-139.4768"/>
</g>
<!-- Node16&#45;&gt;Node10 -->
<g id="edge15" class="edge">
<title>Node16&#45;&gt;Node10</title>
<path fill="none" stroke="#191970" d="M1129.9592,-272.4965C1141.0497,-262.7193 1153.8267,-251.4554 1163.8227,-242.6432"/>
<polygon fill="#191970" stroke="#191970" points="1127.4323,-270.0582 1122.2456,-279.2967 1132.0614,-275.3091 1127.4323,-270.0582"/>
</g>
<!-- Node16&#45;&gt;Node12 -->
<g id="edge16" class="edge">
<title>Node16&#45;&gt;Node12</title>
<path fill="none" stroke="#191970" d="M1100.5642,-269.4399C1096.2417,-251.5042 1088.0385,-227.8262 1073,-212 1057.027,-195.1903 1034.5651,-183.4716 1013.7265,-175.5099"/>
<polygon fill="#191970" stroke="#191970" points="1097.1476,-270.2001 1102.6831,-279.2338 1103.9893,-268.7198 1097.1476,-270.2001"/>
</g>
<!-- Node17 -->
<g id="node13" class="node">
<title>Node17</title>
<g id="a_node13"><a xlink:href="MatrixElements_8cpp.html" target="_top" xlink:title="/travis/pairinteraction\l/MatrixElements.cpp">
<polygon fill="none" stroke="#000000" points="942,-212.5 942,-242.5 1064,-242.5 1064,-212.5 942,-212.5"/>
<text text-anchor="start" x="950" y="-230.5" font-family="Helvetica,sans-Serif" font-size="10.00" fill="#000000">/travis/pairinteraction</text>
<text text-anchor="middle" x="1003" y="-219.5" font-family="Helvetica,sans-Serif" font-size="10.00" fill="#000000">/MatrixElements.cpp</text>
</a>
</g>
</g>
<!-- Node16&#45;&gt;Node17 -->
<g id="edge17" class="edge">
<title>Node16&#45;&gt;Node17</title>
<path fill="none" stroke="#191970" d="M1073.4791,-273.7951C1058.1955,-263.7558 1040.1652,-251.9124 1026.1673,-242.7177"/>
<polygon fill="#191970" stroke="#191970" points="1071.8295,-276.8991 1082.1092,-279.4639 1075.6726,-271.0484 1071.8295,-276.8991"/>
</g>
<!-- Node19 -->
<g id="node15" class="node">
<title>Node19</title>
<g id="a_node15"><a xlink:href="MatrixElementCache_8cpp.html" target="_top" xlink:title="/travis/pairinteraction\l/MatrixElementCache.cpp">
<polygon fill="none" stroke="#000000" points="477.5,-279.5 477.5,-309.5 618.5,-309.5 618.5,-279.5 477.5,-279.5"/>
<text text-anchor="start" x="485.5" y="-297.5" font-family="Helvetica,sans-Serif" font-size="10.00" fill="#000000">/travis/pairinteraction</text>
<text text-anchor="middle" x="548" y="-286.5" font-family="Helvetica,sans-Serif" font-size="10.00" fill="#000000">/MatrixElementCache.cpp</text>
</a>
</g>
</g>
<!-- Node18&#45;&gt;Node19 -->
<g id="edge20" class="edge">
<title>Node18&#45;&gt;Node19</title>
<path fill="none" stroke="#191970" d="M440.9555,-342.3132C464.2089,-331.9267 492.5237,-319.2794 514.1903,-309.6017"/>
<polygon fill="#191970" stroke="#191970" points="439.3661,-339.1898 431.6629,-346.4639 442.2209,-345.5812 439.3661,-339.1898"/>
</g>
<!-- Node20 -->
<g id="node16" class="node">
<title>Node20</title>
<g id="a_node16"><a xlink:href="State_8h.html" target="_top" xlink:title="/travis/pairinteraction\l/State.h">
<polygon fill="none" stroke="#000000" points="337,-279.5 337,-309.5 459,-309.5 459,-279.5 337,-279.5"/>
<text text-anchor="start" x="345" y="-297.5" font-family="Helvetica,sans-Serif" font-size="10.00" fill="#000000">/travis/pairinteraction</text>
<text text-anchor="middle" x="398" y="-286.5" font-family="Helvetica,sans-Serif" font-size="10.00" fill="#000000">/State.h</text>
</a>
</g>
</g>
<!-- Node18&#45;&gt;Node20 -->
<g id="edge21" class="edge">
<title>Node18&#45;&gt;Node20</title>
<path fill="none" stroke="#191970" d="M391.4384,-336.3179C391.0239,-327.3414 391.2933,-317.5143 392.2464,-309.6432"/>
<polygon fill="#191970" stroke="#191970" points="387.9504,-336.6087 392.2392,-346.2967 394.928,-336.0487 387.9504,-336.6087"/>
</g>
<!-- Node21 -->
<g id="node17" class="node">
<title>Node21</title>
<g id="a_node17"><a xlink:href="PerturbativeInteraction_8h.html" target="_top" xlink:title="/travis/pairinteraction\l/PerturbativeInteraction.h">
<polygon fill="none" stroke="#000000" points="86.5,-212.5 86.5,-242.5 227.5,-242.5 227.5,-212.5 86.5,-212.5"/>
<text text-anchor="start" x="94.5" y="-230.5" font-family="Helvetica,sans-Serif" font-size="10.00" fill="#000000">/travis/pairinteraction</text>
<text text-anchor="middle" x="157" y="-219.5" font-family="Helvetica,sans-Serif" font-size="10.00" fill="#000000">/PerturbativeInteraction.h</text>
</a>
</g>
</g>
<!-- Node18&#45;&gt;Node21 -->
<g id="edge38" class="edge">
<title>Node18&#45;&gt;Node21</title>
<path fill="none" stroke="#191970" d="M361.8907,-341.4227C313.2062,-314.3532 227.6132,-266.7621 184.078,-242.5558"/>
<polygon fill="#191970" stroke="#191970" points="360.382,-344.5884 370.8227,-346.389 363.7837,-338.4705 360.382,-344.5884"/>
</g>
<!-- Node24 -->
<g id="node20" class="node">
<title>Node24</title>
<g id="a_node20"><a xlink:href="SystemBase_8h.html" target="_top" xlink:title="/travis/pairinteraction\l/SystemBase.h">
<polygon fill="none" stroke="#000000" points="246,-212.5 246,-242.5 368,-242.5 368,-212.5 246,-212.5"/>
<text text-anchor="start" x="254" y="-230.5" font-family="Helvetica,sans-Serif" font-size="10.00" fill="#000000">/travis/pairinteraction</text>
<text text-anchor="middle" x="307" y="-219.5" font-family="Helvetica,sans-Serif" font-size="10.00" fill="#000000">/SystemBase.h</text>
</a>
</g>
</g>
<!-- Node18&#45;&gt;Node24 -->
<g id="edge39" class="edge">
<title>Node18&#45;&gt;Node24</title>
<path fill="none" stroke="#191970" d="M360.4242,-340.919C348.4987,-332.7199 336.276,-322.2838 328,-310 314.1264,-289.4077 309.4179,-260.313 307.8202,-242.7437"/>
<polygon fill="#191970" stroke="#191970" points="358.7023,-343.9741 368.9945,-346.4883 362.5165,-338.1046 358.7023,-343.9741"/>
</g>
<!-- Node30 -->
<g id="node26" class="node">
<title>Node30</title>
<g id="a_node26"><a xlink:href="integration__test_8cpp.html" target="_top" xlink:title="/travis/pairinteraction\l/unit_test/integration\l_test.cpp">
<polygon fill="none" stroke="#000000" points="500,-.5 500,-41.5 622,-41.5 622,-.5 500,-.5"/>
<text text-anchor="start" x="508" y="-29.5" font-family="Helvetica,sans-Serif" font-size="10.00" fill="#000000">/travis/pairinteraction</text>
<text text-anchor="start" x="508" y="-18.5" font-family="Helvetica,sans-Serif" font-size="10.00" fill="#000000">/unit_test/integration</text>
<text text-anchor="middle" x="561" y="-7.5" font-family="Helvetica,sans-Serif" font-size="10.00" fill="#000000">_test.cpp</text>
</a>
</g>
</g>
<!-- Node18&#45;&gt;Node30 -->
<g id="edge40" class="edge">
<title>Node18&#45;&gt;Node30</title>
<path fill="none" stroke="#191970" d="M473.0089,-353.1552C531.3472,-345.1662 605.9607,-331.1681 628,-310 655.3688,-283.7131 650,-265.448 650,-227.5 650,-227.5 650,-227.5 650,-160.5 650,-111.9498 611.2132,-66.7061 584.8504,-41.5617"/>
<polygon fill="#191970" stroke="#191970" points="472.5105,-349.6906 463.0608,-354.4816 473.4357,-356.6292 472.5105,-349.6906"/>
</g>
<!-- Node20&#45;&gt;Node18 -->
<g id="edge22" class="edge">
<title>Node20&#45;&gt;Node18</title>
<path fill="none" stroke="#191970" d="M404.5584,-319.6135C404.9764,-328.5857 404.7105,-338.4156 403.7608,-346.2967"/>
<polygon fill="#191970" stroke="#191970" points="408.0469,-319.3291 403.7536,-309.6432 401.0696,-319.8924 408.0469,-319.3291"/>
</g>
<!-- Node20&#45;&gt;Node21 -->
<g id="edge23" class="edge">
<title>Node20&#45;&gt;Node21</title>
<path fill="none" stroke="#191970" d="M333.9164,-276.6842C295.6893,-266.0568 247.679,-252.7095 211.321,-242.6017"/>
<polygon fill="#191970" stroke="#191970" points="333.3428,-280.1574 343.9149,-279.4639 335.2178,-273.4132 333.3428,-280.1574"/>
</g>
<!-- Node23 -->
<g id="node19" class="node">
<title>Node23</title>
<g id="a_node19"><a xlink:href="State_8cpp.html" target="_top" xlink:title="/travis/pairinteraction\l/State.cpp">
<polygon fill="none" stroke="#000000" points="500,-212.5 500,-242.5 622,-242.5 622,-212.5 500,-212.5"/>
<text text-anchor="start" x="508" y="-230.5" font-family="Helvetica,sans-Serif" font-size="10.00" fill="#000000">/travis/pairinteraction</text>
<text text-anchor="middle" x="561" y="-219.5" font-family="Helvetica,sans-Serif" font-size="10.00" fill="#000000">/State.cpp</text>
</a>
</g>
</g>
<!-- Node20&#45;&gt;Node23 -->
<g id="edge25" class="edge">
<title>Node20&#45;&gt;Node23</title>
<path fill="none" stroke="#191970" d="M444.0058,-275.5897C469.3994,-265.1518 500.5065,-252.3654 524.2601,-242.6017"/>
<polygon fill="#191970" stroke="#191970" points="442.4989,-272.4248 434.5804,-279.4639 445.1602,-278.8992 442.4989,-272.4248"/>
</g>
<!-- Node20&#45;&gt;Node24 -->
<g id="edge26" class="edge">
<title>Node20&#45;&gt;Node24</title>
<path fill="none" stroke="#191970" d="M369.2697,-273.3469C355.7292,-263.3776 339.885,-251.7121 327.5676,-242.6432"/>
<polygon fill="#191970" stroke="#191970" points="367.2227,-276.1861 377.3507,-279.2967 371.373,-270.5492 367.2227,-276.1861"/>
</g>
<!-- Node26 -->
<g id="node22" class="node">
<title>Node26</title>
<g id="a_node22"><a xlink:href="SystemOne_8h.html" target="_top" xlink:title="/travis/pairinteraction\l/SystemOne.h">
<polygon fill="none" stroke="#000000" points="411,-145.5 411,-175.5 533,-175.5 533,-145.5 411,-145.5"/>
<text text-anchor="start" x="419" y="-163.5" font-family="Helvetica,sans-Serif" font-size="10.00" fill="#000000">/travis/pairinteraction</text>
<text text-anchor="middle" x="472" y="-152.5" font-family="Helvetica,sans-Serif" font-size="10.00" fill="#000000">/SystemOne.h</text>
</a>
</g>
</g>
<!-- Node20&#45;&gt;Node26 -->
<g id="edge35" class="edge">
<title>Node20&#45;&gt;Node26</title>
<path fill="none" stroke="#191970" d="M411.2927,-270.4294C426.4598,-242.9647 450.8083,-198.8742 463.5721,-175.7614"/>
<polygon fill="#191970" stroke="#191970" points="408.1153,-268.9431 406.3449,-279.389 414.243,-272.3271 408.1153,-268.9431"/>
</g>
<!-- Node28 -->
<g id="node24" class="node">
<title>Node28</title>
<g id="a_node24"><a xlink:href="SystemTwo_8h.html" target="_top" xlink:title="/travis/pairinteraction\l/SystemTwo.h">
<polygon fill="none" stroke="#000000" points="252,-78.5 252,-108.5 374,-108.5 374,-78.5 252,-78.5"/>
<text text-anchor="start" x="260" y="-96.5" font-family="Helvetica,sans-Serif" font-size="10.00" fill="#000000">/travis/pairinteraction</text>
<text text-anchor="middle" x="313" y="-85.5" font-family="Helvetica,sans-Serif" font-size="10.00" fill="#000000">/SystemTwo.h</text>
</a>
</g>
</g>
<!-- Node20&#45;&gt;Node28 -->
<g id="edge36" class="edge">
<title>Node20&#45;&gt;Node28</title>
<path fill="none" stroke="#191970" d="M393.2514,-269.2165C389.7279,-252.6265 384.2754,-230.6346 377,-212 361.7785,-173.0129 336.5532,-130.6114 322.7558,-108.6313"/>
<polygon fill="#191970" stroke="#191970" points="389.8684,-270.145 395.288,-279.2488 396.7285,-268.7524 389.8684,-270.145"/>
</g>
<!-- Node20&#45;&gt;Node30 -->
<g id="edge37" class="edge">
<title>Node20&#45;&gt;Node30</title>
<path fill="none" stroke="#191970" d="M421.3619,-272.4708C439.8027,-255.406 466.4305,-231.4714 491,-212 512.7444,-194.7675 527.7579,-199.8105 542,-176 567.3285,-133.6547 566.2463,-73.1771 563.5042,-41.7518"/>
<polygon fill="#191970" stroke="#191970" points="418.9264,-269.9562 413.9898,-279.3306 423.6949,-275.0808 418.9264,-269.9562"/>
</g>
<!-- Node22 -->
<g id="node18" class="node">
<title>Node22</title>
<g id="a_node18"><a xlink:href="PerturbativeInteraction_8cpp.html" target="_top" xlink:title="/travis/pairinteraction\l/PerturbativeInteraction.cpp">
<polygon fill="none" stroke="#000000" points="0,-145.5 0,-175.5 152,-175.5 152,-145.5 0,-145.5"/>
<text text-anchor="start" x="8" y="-163.5" font-family="Helvetica,sans-Serif" font-size="10.00" fill="#000000">/travis/pairinteraction</text>
<text text-anchor="middle" x="76" y="-152.5" font-family="Helvetica,sans-Serif" font-size="10.00" fill="#000000">/PerturbativeInteraction.cpp</text>
</a>
</g>
</g>
<!-- Node21&#45;&gt;Node22 -->
<g id="edge24" class="edge">
<title>Node21&#45;&gt;Node22</title>
<path fill="none" stroke="#191970" d="M130.7425,-205.7808C118.8433,-195.9383 105.0644,-184.541 94.3074,-175.6432"/>
<polygon fill="#191970" stroke="#191970" points="128.6835,-208.6198 138.6198,-212.2967 133.1451,-203.2259 128.6835,-208.6198"/>
</g>
<!-- Node25 -->
<g id="node21" class="node">
<title>Node25</title>
<g id="a_node21"><a xlink:href="SystemBase_8cpp.html" target="_top" xlink:title="/travis/pairinteraction\l/SystemBase.cpp">
<polygon fill="none" stroke="#000000" points="170,-145.5 170,-175.5 292,-175.5 292,-145.5 170,-145.5"/>
<text text-anchor="start" x="178" y="-163.5" font-family="Helvetica,sans-Serif" font-size="10.00" fill="#000000">/travis/pairinteraction</text>
<text text-anchor="middle" x="231" y="-152.5" font-family="Helvetica,sans-Serif" font-size="10.00" fill="#000000">/SystemBase.cpp</text>
</a>
</g>
</g>
<!-- Node24&#45;&gt;Node25 -->
<g id="edge27" class="edge">
<title>Node24&#45;&gt;Node25</title>
<path fill="none" stroke="#191970" d="M282.0408,-205.4965C270.9503,-195.7193 258.1733,-184.4554 248.1773,-175.6432"/>
<polygon fill="#191970" stroke="#191970" points="279.9386,-208.3091 289.7544,-212.2967 284.5677,-203.0582 279.9386,-208.3091"/>
</g>
<!-- Node24&#45;&gt;Node26 -->
<g id="edge28" class="edge">
<title>Node24&#45;&gt;Node26</title>
<path fill="none" stroke="#191970" d="M353.5702,-208.5897C379.2755,-198.1518 410.7642,-185.3654 434.8093,-175.6017"/>
<polygon fill="#191970" stroke="#191970" points="351.9777,-205.4587 344.0292,-212.4639 354.6113,-211.9444 351.9777,-205.4587"/>
</g>
<!-- Node24&#45;&gt;Node28 -->
<g id="edge34" class="edge">
<title>Node24&#45;&gt;Node28</title>
<path fill="none" stroke="#191970" d="M308.1265,-202.3415C309.3591,-174.8131 311.2953,-131.5714 312.3167,-108.7614"/>
<polygon fill="#191970" stroke="#191970" points="304.6275,-202.2424 307.6766,-212.389 311.6205,-202.5556 304.6275,-202.2424"/>
</g>
<!-- Node27 -->
<g id="node23" class="node">
<title>Node27</title>
<g id="a_node23"><a xlink:href="SystemOne_8cpp.html" target="_top" xlink:title="/travis/pairinteraction\l/SystemOne.cpp">
<polygon fill="none" stroke="#000000" points="392,-78.5 392,-108.5 514,-108.5 514,-78.5 392,-78.5"/>
<text text-anchor="start" x="400" y="-96.5" font-family="Helvetica,sans-Serif" font-size="10.00" fill="#000000">/travis/pairinteraction</text>
<text text-anchor="middle" x="453" y="-85.5" font-family="Helvetica,sans-Serif" font-size="10.00" fill="#000000">/SystemOne.cpp</text>
</a>
</g>
</g>
<!-- Node26&#45;&gt;Node27 -->
<g id="edge29" class="edge">
<title>Node26&#45;&gt;Node27</title>
<path fill="none" stroke="#191970" d="M464.9417,-135.6103C462.3739,-126.5553 459.5507,-116.5998 457.2943,-108.6432"/>
<polygon fill="#191970" stroke="#191970" points="461.5931,-136.6309 467.6886,-145.2967 468.3275,-134.7211 461.5931,-136.6309"/>
</g>
<!-- Node26&#45;&gt;Node28 -->
<g id="edge30" class="edge">
<title>Node26&#45;&gt;Node28</title>
<path fill="none" stroke="#191970" d="M426.7955,-141.4516C402.0855,-131.0392 371.9069,-118.3224 348.8383,-108.6017"/>
<polygon fill="#191970" stroke="#191970" points="425.7429,-144.806 436.3173,-145.4639 428.4612,-138.3553 425.7429,-144.806"/>
</g>
<!-- Node26&#45;&gt;Node30 -->
<g id="edge33" class="edge">
<title>Node26&#45;&gt;Node30</title>
<path fill="none" stroke="#191970" d="M497.7439,-138.1907C506.5319,-129.6774 515.9181,-119.4843 523,-109 537.3449,-87.7632 548.1824,-60.2317 554.5413,-41.664"/>
<polygon fill="#191970" stroke="#191970" points="495.1585,-135.8166 490.248,-145.2048 499.9413,-140.9279 495.1585,-135.8166"/>
</g>
<!-- Node29 -->
<g id="node25" class="node">
<title>Node29</title>
<g id="a_node25"><a xlink:href="SystemTwo_8cpp.html" target="_top" xlink:title="/travis/pairinteraction\l/SystemTwo.cpp">
<polygon fill="none" stroke="#000000" points="252,-6 252,-36 374,-36 374,-6 252,-6"/>
<text text-anchor="start" x="260" y="-24" font-family="Helvetica,sans-Serif" font-size="10.00" fill="#000000">/travis/pairinteraction</text>
<text text-anchor="middle" x="313" y="-13" font-family="Helvetica,sans-Serif" font-size="10.00" fill="#000000">/SystemTwo.cpp</text>
</a>
</g>
</g>
<!-- Node28&#45;&gt;Node29 -->
<g id="edge31" class="edge">
<title>Node28&#45;&gt;Node29</title>
<path fill="none" stroke="#191970" d="M313,-68.3409C313,-57.5601 313,-45.3309 313,-36.0028"/>
<polygon fill="#191970" stroke="#191970" points="309.5001,-68.4779 313,-78.478 316.5001,-68.478 309.5001,-68.4779"/>
</g>
<!-- Node28&#45;&gt;Node30 -->
<g id="edge32" class="edge">
<title>Node28&#45;&gt;Node30</title>
<path fill="none" stroke="#191970" d="M374.3452,-75.5664C412.5125,-64.4086 461.4219,-50.1105 499.5996,-38.9497"/>
<polygon fill="#191970" stroke="#191970" points="373.0019,-72.3125 364.3858,-78.478 374.9661,-79.0313 373.0019,-72.3125"/>
</g>
</g>
</svg>
