<?xml version="1.0" encoding="UTF-8" standalone="no"?>
<!DOCTYPE svg PUBLIC "-//W3C//DTD SVG 1.1//EN"
 "http://www.w3.org/Graphics/SVG/1.1/DTD/svg11.dtd">
<!-- Generated by graphviz version 2.40.1 (20161225.0304)
 -->
<!-- Title: /travis/pairinteraction/dtypes.h Pages: 1 -->
<svg width="535pt" height="106pt"
 viewBox="0.00 0.00 535.00 106.00" xmlns="http://www.w3.org/2000/svg" xmlns:xlink="http://www.w3.org/1999/xlink">
<g id="graph0" class="graph" transform="scale(1 1) rotate(0) translate(4 102)">
<title>/travis/pairinteraction/dtypes.h</title>
<!-- Node0 -->
<g id="node1" class="node">
<title>Node0</title>
<polygon fill="#bfbfbf" stroke="#000000" points="184.5,-67.5 184.5,-97.5 306.5,-97.5 306.5,-67.5 184.5,-67.5"/>
<text text-anchor="start" x="192.5" y="-85.5" font-family="Helvetica,sans-Serif" font-size="10.00" fill="#000000">/travis/pairinteraction</text>
<text text-anchor="middle" x="245.5" y="-74.5" font-family="Helvetica,sans-Serif" font-size="10.00" fill="#000000">/dtypes.h</text>
</g>
<!-- Node1 -->
<g id="node2" class="node">
<title>Node1</title>
<polygon fill="none" stroke="#bfbfbf" points="0,-6 0,-25 77,-25 77,-6 0,-6"/>
<text text-anchor="middle" x="38.5" y="-13" font-family="Helvetica,sans-Serif" font-size="10.00" fill="#000000">Eigen/Dense</text>
</g>
<!-- Node0&#45;&gt;Node1 -->
<g id="edge1" class="edge">
<title>Node0&#45;&gt;Node1</title>
<path fill="none" stroke="#191970" d="M199.0452,-67.4639C162.4838,-55.63 112.1111,-39.3258 77.5961,-28.1543"/>
<polygon fill="#191970" stroke="#191970" points="78.459,-24.7549 67.8671,-25.0053 76.3033,-31.4147 78.459,-24.7549"/>
</g>
<!-- Node2 -->
<g id="node3" class="node">
<title>Node2</title>
<polygon fill="none" stroke="#bfbfbf" points="95.5,-6 95.5,-25 175.5,-25 175.5,-6 95.5,-6"/>
<text text-anchor="middle" x="135.5" y="-13" font-family="Helvetica,sans-Serif" font-size="10.00" fill="#000000">Eigen/Sparse</text>
</g>
<!-- Node0&#45;&gt;Node2 -->
<g id="edge2" class="edge">
<title>Node0&#45;&gt;Node2</title>
<path fill="none" stroke="#191970" d="M220.8139,-67.4639C202.6898,-56.4247 178.1791,-41.4954 160.08,-30.4715"/>
<polygon fill="#191970" stroke="#191970" points="161.6288,-27.3167 151.2676,-25.1039 157.9874,-33.2951 161.6288,-27.3167"/>
</g>
<!-- Node3 -->
<g id="node4" class="node">
<title>Node3</title>
<polygon fill="none" stroke="#bfbfbf" points="193.5,-6 193.5,-25 235.5,-25 235.5,-6 193.5,-6"/>
<text text-anchor="middle" x="214.5" y="-13" font-family="Helvetica,sans-Serif" font-size="10.00" fill="#000000">array</text>
</g>
<!-- Node0&#45;&gt;Node3 -->
<g id="edge3" class="edge">
<title>Node0&#45;&gt;Node3</title>
<path fill="none" stroke="#191970" d="M238.4656,-67.2967C233.917,-57.4658 227.9654,-44.6026 223.1312,-34.1545"/>
<polygon fill="#191970" stroke="#191970" points="226.2967,-32.6609 218.921,-25.055 219.9437,-35.6003 226.2967,-32.6609"/>
</g>
<!-- Node4 -->
<g id="node5" class="node">
<title>Node4</title>
<polygon fill="none" stroke="#bfbfbf" points="254,-6 254,-25 301,-25 301,-6 254,-6"/>
<text text-anchor="middle" x="277.5" y="-13" font-family="Helvetica,sans-Serif" font-size="10.00" fill="#000000">cmath</text>
</g>
<!-- Node0&#45;&gt;Node4 -->
<g id="edge4" class="edge">
<title>Node0&#45;&gt;Node4</title>
<path fill="none" stroke="#191970" d="M252.7613,-67.2967C257.4566,-57.4658 263.6002,-44.6026 268.5904,-34.1545"/>
<polygon fill="#191970" stroke="#191970" points="271.7849,-35.587 272.9364,-25.055 265.4683,-32.5702 271.7849,-35.587"/>
</g>
<!-- Node5 -->
<g id="node6" class="node">
<title>Node5</title>
<polygon fill="none" stroke="#bfbfbf" points="319,-.5 319,-30.5 462,-30.5 462,-.5 319,-.5"/>
<text text-anchor="start" x="327" y="-18.5" font-family="Helvetica,sans-Serif" font-size="10.00" fill="#000000">unsupported/Eigen/CXX11</text>
<text text-anchor="middle" x="390.5" y="-7.5" font-family="Helvetica,sans-Serif" font-size="10.00" fill="#000000">/Tensor</text>
</g>
<!-- Node0&#45;&gt;Node5 -->
<g id="edge5" class="edge">
<title>Node0&#45;&gt;Node5</title>
<path fill="none" stroke="#191970" d="M278.0408,-67.4639C298.8631,-57.8426 326.0804,-45.2663 348.5236,-34.896"/>
<polygon fill="#191970" stroke="#191970" points="350.2076,-37.9735 357.8172,-30.6017 347.2714,-31.6191 350.2076,-37.9735"/>
</g>
<!-- Node6 -->
<g id="node7" class="node">
<title>Node6</title>
<polygon fill="none" stroke="#bfbfbf" points="480,-6 480,-25 527,-25 527,-6 480,-6"/>
<text text-anchor="middle" x="503.5" y="-13" font-family="Helvetica,sans-Serif" font-size="10.00" fill="#000000">vector</text>
</g>
<!-- Node0&#45;&gt;Node6 -->
<g id="edge6" class="edge">
<title>Node0&#45;&gt;Node6</title>
<path fill="none" stroke="#191970" d="M306.5068,-72.4846C352.5978,-63.9911 417.0118,-50.125 471.5,-31 473.1018,-30.4378 474.7287,-29.8175 476.3568,-29.1581"/>
<polygon fill="#191970" stroke="#191970" points="477.8096,-32.3426 485.5292,-25.0859 474.9692,-25.9448 477.8096,-32.3426"/>
</g>
</g>
</svg>
