<?xml version="1.0" encoding="UTF-8" standalone="no"?>
<!DOCTYPE svg PUBLIC "-//W3C//DTD SVG 1.1//EN"
 "http://www.w3.org/Graphics/SVG/1.1/DTD/svg11.dtd">
<!-- Generated by graphviz version 2.40.1 (20161225.0304)
 -->
<!-- Title: /travis/pairinteraction/GreenTensor.cpp Pages: 1 -->
<svg width="557pt" height="218pt"
 viewBox="0.00 0.00 556.50 218.00" xmlns="http://www.w3.org/2000/svg" xmlns:xlink="http://www.w3.org/1999/xlink">
<g id="graph0" class="graph" transform="scale(1 1) rotate(0) translate(4 214)">
<title>/travis/pairinteraction/GreenTensor.cpp</title>
<!-- Node0 -->
<g id="node1" class="node">
<title>Node0</title>
<polygon fill="#bfbfbf" stroke="#000000" points="423.5,-179.5 423.5,-209.5 545.5,-209.5 545.5,-179.5 423.5,-179.5"/>
<text text-anchor="start" x="431.5" y="-197.5" font-family="Helvetica,sans-Serif" font-size="10.00" fill="#000000">/travis/pairinteraction</text>
<text text-anchor="middle" x="484.5" y="-186.5" font-family="Helvetica,sans-Serif" font-size="10.00" fill="#000000">/GreenTensor.cpp</text>
</g>
<!-- Node1 -->
<g id="node2" class="node">
<title>Node1</title>
<g id="a_node2"><a xlink:href="GreenTensor_8h.html" target="_top" xlink:title="GreenTensor.h">
<polygon fill="none" stroke="#000000" points="401,-123.5 401,-142.5 486,-142.5 486,-123.5 401,-123.5"/>
<text text-anchor="middle" x="443.5" y="-130.5" font-family="Helvetica,sans-Serif" font-size="10.00" fill="#000000">GreenTensor.h</text>
</a>
</g>
</g>
<!-- Node0&#45;&gt;Node1 -->
<g id="edge1" class="edge">
<title>Node0&#45;&gt;Node1</title>
<path fill="none" stroke="#191970" d="M474.3652,-179.2977C468.7332,-170.8498 461.6849,-160.2773 455.746,-151.369"/>
<polygon fill="#191970" stroke="#191970" points="458.5238,-149.226 450.0646,-142.8469 452.6995,-153.1089 458.5238,-149.226"/>
</g>
<!-- Node10 -->
<g id="node11" class="node">
<title>Node10</title>
<polygon fill="none" stroke="#bfbfbf" points="504.5,-123.5 504.5,-142.5 548.5,-142.5 548.5,-123.5 504.5,-123.5"/>
<text text-anchor="middle" x="526.5" y="-130.5" font-family="Helvetica,sans-Serif" font-size="10.00" fill="#000000">limits</text>
</g>
<!-- Node0&#45;&gt;Node10 -->
<g id="edge11" class="edge">
<title>Node0&#45;&gt;Node10</title>
<path fill="none" stroke="#191970" d="M494.882,-179.2977C500.6513,-170.8498 507.8716,-160.2773 513.9553,-151.369"/>
<polygon fill="#191970" stroke="#191970" points="517.0259,-153.0788 519.7753,-142.8469 511.2453,-149.1311 517.0259,-153.0788"/>
</g>
<!-- Node2 -->
<g id="node3" class="node">
<title>Node2</title>
<g id="a_node3"><a xlink:href="dtypes_8h.html" target="_top" xlink:title="dtypes.h">
<polygon fill="none" stroke="#000000" points="296,-67.5 296,-86.5 355,-86.5 355,-67.5 296,-67.5"/>
<text text-anchor="middle" x="325.5" y="-74.5" font-family="Helvetica,sans-Serif" font-size="10.00" fill="#000000">dtypes.h</text>
</a>
</g>
</g>
<!-- Node1&#45;&gt;Node2 -->
<g id="edge2" class="edge">
<title>Node1&#45;&gt;Node2</title>
<path fill="none" stroke="#191970" d="M423.2151,-123.3733C404.3579,-114.4241 376.054,-100.9917 354.7545,-90.8835"/>
<polygon fill="#191970" stroke="#191970" points="356.0551,-87.6266 345.5202,-86.5011 353.0539,-93.9506 356.0551,-87.6266"/>
</g>
<!-- Node6 -->
<g id="node7" class="node">
<title>Node6</title>
<polygon fill="none" stroke="#bfbfbf" points="480,-6 480,-25 527,-25 527,-6 480,-6"/>
<text text-anchor="middle" x="503.5" y="-13" font-family="Helvetica,sans-Serif" font-size="10.00" fill="#000000">cmath</text>
</g>
<!-- Node1&#45;&gt;Node6 -->
<g id="edge9" class="edge">
<title>Node1&#45;&gt;Node6</title>
<path fill="none" stroke="#191970" d="M445.3027,-123.1759C447.9967,-109.8935 453.8197,-85.7172 463.5,-67 469.9359,-54.556 479.4965,-42.1086 487.6571,-32.5689"/>
<polygon fill="#191970" stroke="#191970" points="490.3441,-34.8139 494.3542,-25.0073 485.1039,-30.1727 490.3441,-34.8139"/>
</g>
<!-- Node9 -->
<g id="node10" class="node">
<title>Node9</title>
<polygon fill="none" stroke="#bfbfbf" points="472,-67.5 472,-86.5 531,-86.5 531,-67.5 472,-67.5"/>
<text text-anchor="middle" x="501.5" y="-74.5" font-family="Helvetica,sans-Serif" font-size="10.00" fill="#000000">complex</text>
</g>
<!-- Node1&#45;&gt;Node9 -->
<g id="edge10" class="edge">
<title>Node1&#45;&gt;Node9</title>
<path fill="none" stroke="#191970" d="M453.6028,-123.2455C462.0028,-115.1352 474.1494,-103.4075 484.1084,-93.7919"/>
<polygon fill="#191970" stroke="#191970" points="486.75,-96.1066 491.5129,-86.6427 481.8878,-91.0707 486.75,-96.1066"/>
</g>
<!-- Node3 -->
<g id="node4" class="node">
<title>Node3</title>
<polygon fill="none" stroke="#bfbfbf" points="0,-6 0,-25 77,-25 77,-6 0,-6"/>
<text text-anchor="middle" x="38.5" y="-13" font-family="Helvetica,sans-Serif" font-size="10.00" fill="#000000">Eigen/Dense</text>
</g>
<!-- Node2&#45;&gt;Node3 -->
<g id="edge3" class="edge">
<title>Node2&#45;&gt;Node3</title>
<path fill="none" stroke="#191970" d="M295.807,-72.4838C250.3622,-65.303 160.9889,-50.119 86.5,-31 82.9402,-30.0863 79.2575,-29.0556 75.5879,-27.9708"/>
<polygon fill="#191970" stroke="#191970" points="76.5854,-24.6159 65.9982,-25.0163 74.5243,-31.3056 76.5854,-24.6159"/>
</g>
<!-- Node4 -->
<g id="node5" class="node">
<title>Node4</title>
<polygon fill="none" stroke="#bfbfbf" points="95.5,-6 95.5,-25 175.5,-25 175.5,-6 95.5,-6"/>
<text text-anchor="middle" x="135.5" y="-13" font-family="Helvetica,sans-Serif" font-size="10.00" fill="#000000">Eigen/Sparse</text>
</g>
<!-- Node2&#45;&gt;Node4 -->
<g id="edge4" class="edge">
<title>Node2&#45;&gt;Node4</title>
<path fill="none" stroke="#191970" d="M295.8125,-67.3906C263.1854,-56.8298 210.6374,-39.8208 174.6575,-28.1747"/>
<polygon fill="#191970" stroke="#191970" points="175.5709,-24.7916 164.979,-25.0419 173.4152,-31.4514 175.5709,-24.7916"/>
</g>
<!-- Node5 -->
<g id="node6" class="node">
<title>Node5</title>
<polygon fill="none" stroke="#bfbfbf" points="193.5,-6 193.5,-25 235.5,-25 235.5,-6 193.5,-6"/>
<text text-anchor="middle" x="214.5" y="-13" font-family="Helvetica,sans-Serif" font-size="10.00" fill="#000000">array</text>
</g>
<!-- Node2&#45;&gt;Node5 -->
<g id="edge5" class="edge">
<title>Node2&#45;&gt;Node5</title>
<path fill="none" stroke="#191970" d="M308.1563,-67.3906C290.0727,-57.3713 261.5141,-41.5483 240.6835,-30.0071"/>
<polygon fill="#191970" stroke="#191970" points="242.1654,-26.8268 231.722,-25.0419 238.7729,-32.9498 242.1654,-26.8268"/>
</g>
<!-- Node2&#45;&gt;Node6 -->
<g id="edge6" class="edge">
<title>Node2&#45;&gt;Node6</title>
<path fill="none" stroke="#191970" d="M355.0242,-69.0682C384.8312,-60.7427 431.9832,-46.6986 471.5,-31 472.8625,-30.4587 474.2476,-29.8845 475.6394,-29.288"/>
<polygon fill="#191970" stroke="#191970" points="477.0987,-32.4694 484.7529,-25.1439 474.2011,-26.0973 477.0987,-32.4694"/>
</g>
<!-- Node7 -->
<g id="node8" class="node">
<title>Node7</title>
<polygon fill="none" stroke="#bfbfbf" points="254,-.5 254,-30.5 397,-30.5 397,-.5 254,-.5"/>
<text text-anchor="start" x="262" y="-18.5" font-family="Helvetica,sans-Serif" font-size="10.00" fill="#000000">unsupported/Eigen/CXX11</text>
<text text-anchor="middle" x="325.5" y="-7.5" font-family="Helvetica,sans-Serif" font-size="10.00" fill="#000000">/Tensor</text>
</g>
<!-- Node2&#45;&gt;Node7 -->
<g id="edge7" class="edge">
<title>Node2&#45;&gt;Node7</title>
<path fill="none" stroke="#191970" d="M325.5,-67.3906C325.5,-60.2234 325.5,-50.0862 325.5,-40.671"/>
<polygon fill="#191970" stroke="#191970" points="329.0001,-40.5446 325.5,-30.5446 322.0001,-40.5446 329.0001,-40.5446"/>
</g>
<!-- Node8 -->
<g id="node9" class="node">
<title>Node8</title>
<polygon fill="none" stroke="#bfbfbf" points="415,-6 415,-25 462,-25 462,-6 415,-6"/>
<text text-anchor="middle" x="438.5" y="-13" font-family="Helvetica,sans-Serif" font-size="10.00" fill="#000000">vector</text>
</g>
<!-- Node2&#45;&gt;Node8 -->
<g id="edge8" class="edge">
<title>Node2&#45;&gt;Node8</title>
<path fill="none" stroke="#191970" d="M343.1563,-67.3906C361.6486,-57.3262 390.901,-41.4057 412.1308,-29.8514"/>
<polygon fill="#191970" stroke="#191970" points="413.8575,-32.8965 420.9677,-25.0419 410.5112,-26.7481 413.8575,-32.8965"/>
</g>
</g>
</svg>
