<?xml version="1.0" encoding="UTF-8" standalone="no"?>
<!DOCTYPE svg PUBLIC "-//W3C//DTD SVG 1.1//EN"
 "http://www.w3.org/Graphics/SVG/1.1/DTD/svg11.dtd">
<!-- Generated by graphviz version 2.40.1 (20161225.0304)
 -->
<!-- Title: /travis/pairinteraction/GreenTensor.h Pages: 1 -->
<svg width="539pt" height="162pt"
 viewBox="0.00 0.00 539.00 162.00" xmlns="http://www.w3.org/2000/svg" xmlns:xlink="http://www.w3.org/1999/xlink">
<g id="graph0" class="graph" transform="scale(1 1) rotate(0) translate(4 158)">
<title>/travis/pairinteraction/GreenTensor.h</title>
<!-- Node0 -->
<g id="node1" class="node">
<title>Node0</title>
<polygon fill="#bfbfbf" stroke="#000000" points="382.5,-123.5 382.5,-153.5 504.5,-153.5 504.5,-123.5 382.5,-123.5"/>
<text text-anchor="start" x="390.5" y="-141.5" font-family="Helvetica,sans-Serif" font-size="10.00" fill="#000000">/travis/pairinteraction</text>
<text text-anchor="middle" x="443.5" y="-130.5" font-family="Helvetica,sans-Serif" font-size="10.00" fill="#000000">/GreenTensor.h</text>
</g>
<!-- Node1 -->
<g id="node2" class="node">
<title>Node1</title>
<g id="a_node2"><a xlink:href="dtypes_8h.html" target="_top" xlink:title="dtypes.h">
<polygon fill="none" stroke="#000000" points="296,-67.5 296,-86.5 355,-86.5 355,-67.5 296,-67.5"/>
<text text-anchor="middle" x="325.5" y="-74.5" font-family="Helvetica,sans-Serif" font-size="10.00" fill="#000000">dtypes.h</text>
</a>
</g>
</g>
<!-- Node0&#45;&gt;Node1 -->
<g id="edge1" class="edge">
<title>Node0&#45;&gt;Node1</title>
<path fill="none" stroke="#191970" d="M414.634,-123.4554C395.8089,-113.644 371.389,-100.9167 352.8708,-91.2653"/>
<polygon fill="#191970" stroke="#191970" points="354.2713,-88.0484 343.7858,-86.5303 351.036,-94.2559 354.2713,-88.0484"/>
</g>
<!-- Node5 -->
<g id="node6" class="node">
<title>Node5</title>
<polygon fill="none" stroke="#bfbfbf" points="480,-6 480,-25 527,-25 527,-6 480,-6"/>
<text text-anchor="middle" x="503.5" y="-13" font-family="Helvetica,sans-Serif" font-size="10.00" fill="#000000">cmath</text>
</g>
<!-- Node0&#45;&gt;Node5 -->
<g id="edge8" class="edge">
<title>Node0&#45;&gt;Node5</title>
<path fill="none" stroke="#191970" d="M445.9676,-123.3672C448.7987,-108.4528 454.2812,-85.3041 463.5,-67 469.7231,-54.644 479.1196,-42.3491 487.2419,-32.8726"/>
<polygon fill="#191970" stroke="#191970" points="489.9107,-35.1385 493.9398,-25.3396 484.6795,-30.4872 489.9107,-35.1385"/>
</g>
<!-- Node8 -->
<g id="node9" class="node">
<title>Node8</title>
<polygon fill="none" stroke="#bfbfbf" points="472,-67.5 472,-86.5 531,-86.5 531,-67.5 472,-67.5"/>
<text text-anchor="middle" x="501.5" y="-74.5" font-family="Helvetica,sans-Serif" font-size="10.00" fill="#000000">complex</text>
</g>
<!-- Node0&#45;&gt;Node8 -->
<g id="edge9" class="edge">
<title>Node0&#45;&gt;Node8</title>
<path fill="none" stroke="#191970" d="M457.8371,-123.2977C466.1397,-114.4941 476.6182,-103.3833 485.2289,-94.2529"/>
<polygon fill="#191970" stroke="#191970" points="487.8987,-96.5234 492.2135,-86.8469 482.8061,-91.7206 487.8987,-96.5234"/>
</g>
<!-- Node2 -->
<g id="node3" class="node">
<title>Node2</title>
<polygon fill="none" stroke="#bfbfbf" points="0,-6 0,-25 77,-25 77,-6 0,-6"/>
<text text-anchor="middle" x="38.5" y="-13" font-family="Helvetica,sans-Serif" font-size="10.00" fill="#000000">Eigen/Dense</text>
</g>
<!-- Node1&#45;&gt;Node2 -->
<g id="edge2" class="edge">
<title>Node1&#45;&gt;Node2</title>
<path fill="none" stroke="#191970" d="M295.807,-72.4838C250.3622,-65.303 160.9889,-50.119 86.5,-31 82.9402,-30.0863 79.2575,-29.0556 75.5879,-27.9708"/>
<polygon fill="#191970" stroke="#191970" points="76.5854,-24.6159 65.9982,-25.0163 74.5243,-31.3056 76.5854,-24.6159"/>
</g>
<!-- Node3 -->
<g id="node4" class="node">
<title>Node3</title>
<polygon fill="none" stroke="#bfbfbf" points="95.5,-6 95.5,-25 175.5,-25 175.5,-6 95.5,-6"/>
<text text-anchor="middle" x="135.5" y="-13" font-family="Helvetica,sans-Serif" font-size="10.00" fill="#000000">Eigen/Sparse</text>
</g>
<!-- Node1&#45;&gt;Node3 -->
<g id="edge3" class="edge">
<title>Node1&#45;&gt;Node3</title>
<path fill="none" stroke="#191970" d="M295.8125,-67.3906C263.1854,-56.8298 210.6374,-39.8208 174.6575,-28.1747"/>
<polygon fill="#191970" stroke="#191970" points="175.5709,-24.7916 164.979,-25.0419 173.4152,-31.4514 175.5709,-24.7916"/>
</g>
<!-- Node4 -->
<g id="node5" class="node">
<title>Node4</title>
<polygon fill="none" stroke="#bfbfbf" points="193.5,-6 193.5,-25 235.5,-25 235.5,-6 193.5,-6"/>
<text text-anchor="middle" x="214.5" y="-13" font-family="Helvetica,sans-Serif" font-size="10.00" fill="#000000">array</text>
</g>
<!-- Node1&#45;&gt;Node4 -->
<g id="edge4" class="edge">
<title>Node1&#45;&gt;Node4</title>
<path fill="none" stroke="#191970" d="M308.1563,-67.3906C290.0727,-57.3713 261.5141,-41.5483 240.6835,-30.0071"/>
<polygon fill="#191970" stroke="#191970" points="242.1654,-26.8268 231.722,-25.0419 238.7729,-32.9498 242.1654,-26.8268"/>
</g>
<!-- Node1&#45;&gt;Node5 -->
<g id="edge5" class="edge">
<title>Node1&#45;&gt;Node5</title>
<path fill="none" stroke="#191970" d="M355.0242,-69.0682C384.8312,-60.7427 431.9832,-46.6986 471.5,-31 472.8625,-30.4587 474.2476,-29.8845 475.6394,-29.288"/>
<polygon fill="#191970" stroke="#191970" points="477.0987,-32.4694 484.7529,-25.1439 474.2011,-26.0973 477.0987,-32.4694"/>
</g>
<!-- Node6 -->
<g id="node7" class="node">
<title>Node6</title>
<polygon fill="none" stroke="#bfbfbf" points="254,-.5 254,-30.5 397,-30.5 397,-.5 254,-.5"/>
<text text-anchor="start" x="262" y="-18.5" font-family="Helvetica,sans-Serif" font-size="10.00" fill="#000000">unsupported/Eigen/CXX11</text>
<text text-anchor="middle" x="325.5" y="-7.5" font-family="Helvetica,sans-Serif" font-size="10.00" fill="#000000">/Tensor</text>
</g>
<!-- Node1&#45;&gt;Node6 -->
<g id="edge6" class="edge">
<title>Node1&#45;&gt;Node6</title>
<path fill="none" stroke="#191970" d="M325.5,-67.3906C325.5,-60.2234 325.5,-50.0862 325.5,-40.671"/>
<polygon fill="#191970" stroke="#191970" points="329.0001,-40.5446 325.5,-30.5446 322.0001,-40.5446 329.0001,-40.5446"/>
</g>
<!-- Node7 -->
<g id="node8" class="node">
<title>Node7</title>
<polygon fill="none" stroke="#bfbfbf" points="415,-6 415,-25 462,-25 462,-6 415,-6"/>
<text text-anchor="middle" x="438.5" y="-13" font-family="Helvetica,sans-Serif" font-size="10.00" fill="#000000">vector</text>
</g>
<!-- Node1&#45;&gt;Node7 -->
<g id="edge7" class="edge">
<title>Node1&#45;&gt;Node7</title>
<path fill="none" stroke="#191970" d="M343.1563,-67.3906C361.6486,-57.3262 390.901,-41.4057 412.1308,-29.8514"/>
<polygon fill="#191970" stroke="#191970" points="413.8575,-32.8965 420.9677,-25.0419 410.5112,-26.7481 413.8575,-32.8965"/>
</g>
</g>
</svg>
