<?xml version="1.0" encoding="UTF-8" standalone="no"?>
<!DOCTYPE svg PUBLIC "-//W3C//DTD SVG 1.1//EN"
 "http://www.w3.org/Graphics/SVG/1.1/DTD/svg11.dtd">
<!-- Generated by graphviz version 2.40.1 (20161225.0304)
 -->
<!-- Title: /travis/pairinteraction/HamiltonianTwo.cpp Pages: 1 -->
<svg width="2482pt" height="531pt"
 viewBox="0.00 0.00 2481.50 531.00" xmlns="http://www.w3.org/2000/svg" xmlns:xlink="http://www.w3.org/1999/xlink">
<g id="graph0" class="graph" transform="scale(1 1) rotate(0) translate(4 527)">
<title>/travis/pairinteraction/HamiltonianTwo.cpp</title>
<!-- Node0 -->
<g id="node1" class="node">
<title>Node0</title>
<polygon fill="#bfbfbf" stroke="#000000" points="1663,-492.5 1663,-522.5 1785,-522.5 1785,-492.5 1663,-492.5"/>
<text text-anchor="start" x="1671" y="-510.5" font-family="Helvetica,sans-Serif" font-size="10.00" fill="#000000">/travis/pairinteraction</text>
<text text-anchor="middle" x="1724" y="-499.5" font-family="Helvetica,sans-Serif" font-size="10.00" fill="#000000">/HamiltonianTwo.cpp</text>
</g>
<!-- Node1 -->
<g id="node2" class="node">
<title>Node1</title>
<g id="a_node2"><a xlink:href="HamiltonianTwo_8h.html" target="_top" xlink:title="HamiltonianTwo.h">
<polygon fill="none" stroke="#000000" points="1268,-436.5 1268,-455.5 1372,-455.5 1372,-436.5 1268,-436.5"/>
<text text-anchor="middle" x="1320" y="-443.5" font-family="Helvetica,sans-Serif" font-size="10.00" fill="#000000">HamiltonianTwo.h</text>
</a>
</g>
</g>
<!-- Node0&#45;&gt;Node1 -->
<g id="edge1" class="edge">
<title>Node0&#45;&gt;Node1</title>
<path fill="none" stroke="#191970" d="M1662.6411,-498.1595C1586.8013,-486.6146 1458.4541,-467.0765 1382.2195,-455.4715"/>
<polygon fill="#191970" stroke="#191970" points="1382.6887,-452.0027 1372.2758,-453.9578 1381.6352,-458.923 1382.6887,-452.0027"/>
</g>
<!-- Node43 -->
<g id="node44" class="node">
<title>Node43</title>
<polygon fill="none" stroke="#bfbfbf" points="724.5,-190.5 724.5,-209.5 789.5,-209.5 789.5,-190.5 724.5,-190.5"/>
<text text-anchor="middle" x="757" y="-197.5" font-family="Helvetica,sans-Serif" font-size="10.00" fill="#000000">stdexcept</text>
</g>
<!-- Node0&#45;&gt;Node43 -->
<g id="edge123" class="edge">
<title>Node0&#45;&gt;Node43</title>
<path fill="none" stroke="#191970" d="M1662.9977,-504.8411C1401.7399,-492.8269 386.4154,-439.5114 297,-333 291.2848,-326.192 291.0568,-319.6099 297,-313 347.5044,-256.8308 563.6521,-301.8024 635,-277 674.8577,-263.1444 715.0933,-234.1764 737.9466,-215.9882"/>
<polygon fill="#191970" stroke="#191970" points="740.2591,-218.6191 745.8172,-209.5992 735.8473,-213.1843 740.2591,-218.6191"/>
</g>
<!-- Node55 -->
<g id="node56" class="node">
<title>Node55</title>
<polygon fill="none" stroke="#bfbfbf" points="2428.5,-73 2428.5,-92 2473.5,-92 2473.5,-73 2428.5,-73"/>
<text text-anchor="middle" x="2451" y="-80" font-family="Helvetica,sans-Serif" font-size="10.00" fill="#000000">utility</text>
</g>
<!-- Node0&#45;&gt;Node55 -->
<g id="edge124" class="edge">
<title>Node0&#45;&gt;Node55</title>
<path fill="none" stroke="#191970" d="M1785.2004,-502.5632C1902.619,-491.3971 2148,-459.134 2148,-384.5 2148,-384.5 2148,-384.5 2148,-200 2148,-70.8906 2301.6534,-149.6073 2420,-98 2421.179,-97.4859 2422.3772,-96.9496 2423.5832,-96.3983"/>
<polygon fill="#191970" stroke="#191970" points="2425.2754,-99.4689 2432.7915,-92.0017 2422.2592,-93.152 2425.2754,-99.4689"/>
</g>
<!-- Node64 -->
<g id="node65" class="node">
<title>Node64</title>
<polygon fill="none" stroke="#bfbfbf" points="2176.5,-436.5 2176.5,-455.5 2277.5,-455.5 2277.5,-436.5 2176.5,-436.5"/>
<text text-anchor="middle" x="2227" y="-443.5" font-family="Helvetica,sans-Serif" font-size="10.00" fill="#000000">boost/format.hpp</text>
</g>
<!-- Node0&#45;&gt;Node64 -->
<g id="edge125" class="edge">
<title>Node0&#45;&gt;Node64</title>
<path fill="none" stroke="#191970" d="M1785.0234,-501.0189C1869.7348,-491.8638 2027.7093,-474.2191 2162,-456 2163.3046,-455.823 2164.6236,-455.6417 2165.953,-455.4567"/>
<polygon fill="#191970" stroke="#191970" points="2166.8787,-458.8601 2176.2832,-453.981 2165.8887,-451.9305 2166.8787,-458.8601"/>
</g>
<!-- Node2 -->
<g id="node3" class="node">
<title>Node2</title>
<g id="a_node3"><a xlink:href="Basisnames_8h.html" target="_top" xlink:title="Basisnames.h">
<polygon fill="none" stroke="#000000" points="860.5,-190.5 860.5,-209.5 945.5,-209.5 945.5,-190.5 860.5,-190.5"/>
<text text-anchor="middle" x="903" y="-197.5" font-family="Helvetica,sans-Serif" font-size="10.00" fill="#000000">Basisnames.h</text>
</a>
</g>
</g>
<!-- Node1&#45;&gt;Node2 -->
<g id="edge2" class="edge">
<title>Node1&#45;&gt;Node2</title>
<path fill="none" stroke="#191970" d="M1267.882,-443.5634C1192.0246,-439.1197 1055.8885,-427.4854 1016,-400 951.0234,-355.2275 918.9848,-260.192 907.7837,-219.334"/>
<polygon fill="#191970" stroke="#191970" points="911.1387,-218.3294 905.2189,-209.5427 904.3671,-220.1032 911.1387,-218.3294"/>
</g>
<!-- Node3 -->
<g id="node4" class="node">
<title>Node3</title>
<g id="a_node4"><a xlink:href="ConfParser_8h.html" target="_top" xlink:title="ConfParser.h">
<polygon fill="none" stroke="#000000" points="1146.5,-134.5 1146.5,-153.5 1223.5,-153.5 1223.5,-134.5 1146.5,-134.5"/>
<text text-anchor="middle" x="1185" y="-141.5" font-family="Helvetica,sans-Serif" font-size="10.00" fill="#000000">ConfParser.h</text>
</a>
</g>
</g>
<!-- Node1&#45;&gt;Node3 -->
<g id="edge32" class="edge">
<title>Node1&#45;&gt;Node3</title>
<path fill="none" stroke="#191970" d="M1267.861,-444.6522C1198.3075,-441.628 1080.7883,-431.8184 1054,-400 987.5998,-321.1315 1113.5647,-202.9249 1164.756,-160.164"/>
<polygon fill="#191970" stroke="#191970" points="1167.0629,-162.7985 1172.5642,-153.7438 1162.6171,-157.3915 1167.0629,-162.7985"/>
</g>
<!-- Node10 -->
<g id="node11" class="node">
<title>Node10</title>
<g id="a_node11"><a xlink:href="dtypes_8h.html" target="_top" xlink:title="dtypes.h">
<polygon fill="none" stroke="#000000" points="1486.5,-73 1486.5,-92 1545.5,-92 1545.5,-73 1486.5,-73"/>
<text text-anchor="middle" x="1516" y="-80" font-family="Helvetica,sans-Serif" font-size="10.00" fill="#000000">dtypes.h</text>
</a>
</g>
</g>
<!-- Node1&#45;&gt;Node10 -->
<g id="edge114" class="edge">
<title>Node1&#45;&gt;Node10</title>
<path fill="none" stroke="#191970" d="M1372.2687,-441.3489C1525.8328,-427.1537 1967.4115,-382.3394 2008,-333 2050.6996,-281.0944 2161.5051,-393.7647 1768,-210 1684.8419,-171.1656 1588.5629,-120.955 1542.8107,-96.7672"/>
<polygon fill="#191970" stroke="#191970" points="1544.3127,-93.6022 1533.8375,-92.0142 1541.0361,-99.788 1544.3127,-93.6022"/>
</g>
<!-- Node14 -->
<g id="node15" class="node">
<title>Node14</title>
<polygon fill="none" stroke="#bfbfbf" points="52.5,-6 52.5,-25 99.5,-25 99.5,-6 52.5,-6"/>
<text text-anchor="middle" x="76" y="-13" font-family="Helvetica,sans-Serif" font-size="10.00" fill="#000000">cmath</text>
</g>
<!-- Node1&#45;&gt;Node14 -->
<g id="edge120" class="edge">
<title>Node1&#45;&gt;Node14</title>
<path fill="none" stroke="#191970" d="M1267.8456,-444.7597C1092.7218,-440.4033 526.6163,-424.7161 346,-400 181.8892,-377.5426 0,-427.1402 0,-261.5 0,-261.5 0,-261.5 0,-144 0,-98.7888 35.2853,-55.5297 57.7704,-32.5531"/>
<polygon fill="#191970" stroke="#191970" points="60.4564,-34.8196 65.1111,-25.3019 55.5371,-29.8396 60.4564,-34.8196"/>
</g>
<!-- Node18 -->
<g id="node19" class="node">
<title>Node18</title>
<polygon fill="none" stroke="#bfbfbf" points="1370,-73 1370,-92 1430,-92 1430,-73 1370,-73"/>
<text text-anchor="middle" x="1400" y="-80" font-family="Helvetica,sans-Serif" font-size="10.00" fill="#000000">iostream</text>
</g>
<!-- Node1&#45;&gt;Node18 -->
<g id="edge121" class="edge">
<title>Node1&#45;&gt;Node18</title>
<path fill="none" stroke="#191970" d="M1267.7301,-438.0959C1225.6362,-430.5362 1171.3512,-417.6701 1158,-400 1149.6941,-389.0073 1156.1648,-382.655 1158,-369 1168.9868,-287.2525 1156.1101,-254.912 1207,-190 1228.9073,-162.0564 1320.0861,-118.2993 1368.8728,-96.2212"/>
<polygon fill="#191970" stroke="#191970" points="1370.3449,-99.3969 1378.0318,-92.1057 1367.4758,-93.0119 1370.3449,-99.3969"/>
</g>
<!-- Node23 -->
<g id="node24" class="node">
<title>Node23</title>
<polygon fill="none" stroke="#bfbfbf" points="410,-73 410,-92 468,-92 468,-73 410,-73"/>
<text text-anchor="middle" x="439" y="-80" font-family="Helvetica,sans-Serif" font-size="10.00" fill="#000000">memory</text>
</g>
<!-- Node1&#45;&gt;Node23 -->
<g id="edge122" class="edge">
<title>Node1&#45;&gt;Node23</title>
<path fill="none" stroke="#191970" d="M1267.9706,-445.3911C1057.1928,-442.2485 278,-423.8135 278,-323 278,-323 278,-323 278,-261.5 278,-182.9021 364.8699,-123.1904 410.989,-97.0278"/>
<polygon fill="#191970" stroke="#191970" points="412.84,-100.0038 419.8989,-92.103 409.4537,-93.8774 412.84,-100.0038"/>
</g>
<!-- Node26 -->
<g id="node27" class="node">
<title>Node26</title>
<g id="a_node27"><a xlink:href="Hamiltonian_8h.html" target="_top" xlink:title="Hamiltonian.h">
<polygon fill="none" stroke="#000000" points="306,-313.5 306,-332.5 392,-332.5 392,-313.5 306,-313.5"/>
<text text-anchor="middle" x="349" y="-320.5" font-family="Helvetica,sans-Serif" font-size="10.00" fill="#000000">Hamiltonian.h</text>
</a>
</g>
</g>
<!-- Node1&#45;&gt;Node26 -->
<g id="edge33" class="edge">
<title>Node1&#45;&gt;Node26</title>
<path fill="none" stroke="#191970" d="M1267.8326,-440.4872C1127.9475,-425.5022 732.9395,-381.857 406,-333 404.7424,-332.8121 403.4698,-332.6183 402.1868,-332.4197"/>
<polygon fill="#191970" stroke="#191970" points="402.6509,-328.9494 392.2225,-330.8198 401.5412,-335.8609 402.6509,-328.9494"/>
</g>
<!-- Node44 -->
<g id="node45" class="node">
<title>Node44</title>
<g id="a_node45"><a xlink:href="HamiltonianOne_8h.html" target="_top" xlink:title="HamiltonianOne.h">
<polygon fill="none" stroke="#000000" points="1167.5,-375 1167.5,-394 1272.5,-394 1272.5,-375 1167.5,-375"/>
<text text-anchor="middle" x="1220" y="-382" font-family="Helvetica,sans-Serif" font-size="10.00" fill="#000000">HamiltonianOne.h</text>
</a>
</g>
</g>
<!-- Node1&#45;&gt;Node44 -->
<g id="edge61" class="edge">
<title>Node1&#45;&gt;Node44</title>
<path fill="none" stroke="#191970" d="M1304.375,-436.3906C1288.2302,-426.4616 1262.8178,-410.833 1244.0977,-399.3201"/>
<polygon fill="#191970" stroke="#191970" points="1245.8669,-396.2992 1235.5153,-394.0419 1242.1998,-402.2619 1245.8669,-396.2992"/>
</g>
<!-- Node45 -->
<g id="node46" class="node">
<title>Node45</title>
<g id="a_node46"><a xlink:href="MatrixElements_8h.html" target="_top" xlink:title="MatrixElements.h">
<polygon fill="none" stroke="#000000" points="1248,-313.5 1248,-332.5 1350,-332.5 1350,-313.5 1248,-313.5"/>
<text text-anchor="middle" x="1299" y="-320.5" font-family="Helvetica,sans-Serif" font-size="10.00" fill="#000000">MatrixElements.h</text>
</a>
</g>
</g>
<!-- Node1&#45;&gt;Node45 -->
<g id="edge112" class="edge">
<title>Node1&#45;&gt;Node45</title>
<path fill="none" stroke="#191970" d="M1318.3522,-436.3484C1314.9172,-416.2295 1306.9323,-369.4608 1302.3651,-342.7098"/>
<polygon fill="#191970" stroke="#191970" points="1305.7733,-341.8751 1300.6402,-332.6068 1298.8731,-343.0532 1305.7733,-341.8751"/>
</g>
<!-- Node51 -->
<g id="node52" class="node">
<title>Node51</title>
<g id="a_node52"><a xlink:href="SQLite_8h.html" target="_top" xlink:title="SQLite.h">
<polygon fill="none" stroke="#000000" points="1874.5,-134.5 1874.5,-153.5 1931.5,-153.5 1931.5,-134.5 1874.5,-134.5"/>
<text text-anchor="middle" x="1903" y="-141.5" font-family="Helvetica,sans-Serif" font-size="10.00" fill="#000000">SQLite.h</text>
</a>
</g>
</g>
<!-- Node1&#45;&gt;Node51 -->
<g id="edge113" class="edge">
<title>Node1&#45;&gt;Node51</title>
<path fill="none" stroke="#191970" d="M1372.2539,-444.2796C1533.6142,-438.7564 2014.7605,-420.6258 2041,-400 2069.1817,-377.8475 2065,-358.846 2065,-323 2065,-323 2065,-323 2065,-261.5 2065,-200.681 1989.2551,-168.0977 1941.3516,-153.5725"/>
<polygon fill="#191970" stroke="#191970" points="1942.1685,-150.1653 1931.5894,-150.7434 1940.22,-156.8886 1942.1685,-150.1653"/>
</g>
<!-- Node59 -->
<g id="node60" class="node">
<title>Node59</title>
<polygon fill="none" stroke="#bfbfbf" points="1406,-313.5 1406,-332.5 1542,-332.5 1542,-313.5 1406,-313.5"/>
<text text-anchor="middle" x="1474" y="-320.5" font-family="Helvetica,sans-Serif" font-size="10.00" fill="#000000">boost/algorithm/hex.hpp</text>
</g>
<!-- Node1&#45;&gt;Node59 -->
<g id="edge115" class="edge">
<title>Node1&#45;&gt;Node59</title>
<path fill="none" stroke="#191970" d="M1323.0259,-436.3822C1328.5255,-420.3464 1341.6104,-388.0337 1363,-369 1380.3543,-353.5571 1403.6152,-342.8451 1424.3596,-335.6703"/>
<polygon fill="#191970" stroke="#191970" points="1425.5743,-338.9556 1433.9928,-332.5229 1423.4003,-332.3017 1425.5743,-338.9556"/>
</g>
<!-- Node60 -->
<g id="node61" class="node">
<title>Node60</title>
<polygon fill="none" stroke="#bfbfbf" points="1560.5,-313.5 1560.5,-332.5 1679.5,-332.5 1679.5,-313.5 1560.5,-313.5"/>
<text text-anchor="middle" x="1620" y="-320.5" font-family="Helvetica,sans-Serif" font-size="10.00" fill="#000000">boost/filesystem.hpp</text>
</g>
<!-- Node1&#45;&gt;Node60 -->
<g id="edge116" class="edge">
<title>Node1&#45;&gt;Node60</title>
<path fill="none" stroke="#191970" d="M1328.7525,-436.4659C1346.0208,-417.8682 1384.2515,-377.7954 1401,-369 1426.6212,-355.5451 1496.5884,-342.1719 1550.611,-333.3419"/>
<polygon fill="#191970" stroke="#191970" points="1551.1834,-336.7949 1560.4984,-331.7471 1550.0686,-329.8843 1551.1834,-336.7949"/>
</g>
<!-- Node61 -->
<g id="node62" class="node">
<title>Node61</title>
<polygon fill="none" stroke="#bfbfbf" points="1697.5,-313.5 1697.5,-332.5 1810.5,-332.5 1810.5,-313.5 1697.5,-313.5"/>
<text text-anchor="middle" x="1754" y="-320.5" font-family="Helvetica,sans-Serif" font-size="10.00" fill="#000000">boost/uuid/uuid.hpp</text>
</g>
<!-- Node1&#45;&gt;Node61 -->
<g id="edge118" class="edge">
<title>Node1&#45;&gt;Node61</title>
<path fill="none" stroke="#191970" d="M1337.9335,-436.3561C1353.8699,-427.5382 1377.581,-413.8033 1397,-400 1414.486,-387.5707 1414.4009,-377.7247 1434,-369 1535.6033,-323.7705 1573.6068,-348.2181 1687.1611,-333.1853"/>
<polygon fill="#191970" stroke="#191970" points="1687.868,-336.6206 1697.286,-331.7676 1686.8972,-329.6882 1687.868,-336.6206"/>
</g>
<!-- Node62 -->
<g id="node63" class="node">
<title>Node62</title>
<polygon fill="none" stroke="#bfbfbf" points="1829,-313.5 1829,-332.5 1999,-332.5 1999,-313.5 1829,-313.5"/>
<text text-anchor="middle" x="1914" y="-320.5" font-family="Helvetica,sans-Serif" font-size="10.00" fill="#000000">boost/uuid/uuid_generators.hpp</text>
</g>
<!-- Node1&#45;&gt;Node62 -->
<g id="edge119" class="edge">
<title>Node1&#45;&gt;Node62</title>
<path fill="none" stroke="#191970" d="M1372.1604,-437.9183C1425.9161,-429.3697 1512.0635,-415.0577 1586,-400 1686.3779,-379.5573 1802.9216,-351.0485 1866.5361,-335.077"/>
<polygon fill="#191970" stroke="#191970" points="1867.4375,-338.4593 1876.2808,-332.6244 1865.729,-331.671 1867.4375,-338.4593"/>
</g>
<!-- Node63 -->
<g id="node64" class="node">
<title>Node63</title>
<polygon fill="none" stroke="#bfbfbf" points="1443,-369.5 1443,-399.5 1577,-399.5 1577,-369.5 1443,-369.5"/>
<text text-anchor="start" x="1451" y="-387.5" font-family="Helvetica,sans-Serif" font-size="10.00" fill="#000000">boost/math/special</text>
<text text-anchor="middle" x="1510" y="-376.5" font-family="Helvetica,sans-Serif" font-size="10.00" fill="#000000">_functions/binomial.hpp</text>
</g>
<!-- Node1&#45;&gt;Node63 -->
<g id="edge117" class="edge">
<title>Node1&#45;&gt;Node63</title>
<path fill="none" stroke="#191970" d="M1349.6875,-436.3906C1377.4255,-427.4123 1419.5615,-413.7735 1453.6747,-402.7316"/>
<polygon fill="#191970" stroke="#191970" points="1455.0846,-405.9541 1463.5208,-399.5446 1452.9289,-399.2943 1455.0846,-405.9541"/>
</g>
<!-- Node2&#45;&gt;Node3 -->
<g id="edge3" class="edge">
<title>Node2&#45;&gt;Node3</title>
<path fill="none" stroke="#191970" d="M945.5236,-191.5556C996.6942,-181.3941 1082.4265,-164.3692 1136.2326,-153.6843"/>
<polygon fill="#191970" stroke="#191970" points="1137.0935,-157.0818 1146.2202,-151.701 1135.73,-150.2158 1137.0935,-157.0818"/>
</g>
<!-- Node6 -->
<g id="node7" class="node">
<title>Node6</title>
<polygon fill="none" stroke="#bfbfbf" points="1564,-73 1564,-92 1608,-92 1608,-73 1564,-73"/>
<text text-anchor="middle" x="1586" y="-80" font-family="Helvetica,sans-Serif" font-size="10.00" fill="#000000">string</text>
</g>
<!-- Node2&#45;&gt;Node6 -->
<g id="edge29" class="edge">
<title>Node2&#45;&gt;Node6</title>
<path fill="none" stroke="#191970" d="M930.3388,-190.4619C973.6122,-175.7826 1060.8018,-147.8981 1137,-134 1320.4392,-100.5417 1375.5298,-148.5947 1555,-98 1556.7121,-97.5173 1558.4422,-96.9395 1560.1632,-96.2948"/>
<polygon fill="#191970" stroke="#191970" points="1561.9991,-99.3103 1569.734,-92.07 1559.1722,-92.9065 1561.9991,-99.3103"/>
</g>
<!-- Node8 -->
<g id="node9" class="node">
<title>Node8</title>
<g id="a_node9"><a xlink:href="Iter_8h.html" target="_top" xlink:title="Iter.h">
<polygon fill="none" stroke="#000000" points="934.5,-134.5 934.5,-153.5 975.5,-153.5 975.5,-134.5 934.5,-134.5"/>
<text text-anchor="middle" x="955" y="-141.5" font-family="Helvetica,sans-Serif" font-size="10.00" fill="#000000">Iter.h</text>
</a>
</g>
</g>
<!-- Node2&#45;&gt;Node8 -->
<g id="edge8" class="edge">
<title>Node2&#45;&gt;Node8</title>
<path fill="none" stroke="#191970" d="M912.0577,-190.2455C919.5142,-182.2155 930.2634,-170.6394 939.1417,-161.0781"/>
<polygon fill="#191970" stroke="#191970" points="941.8063,-163.3522 946.0461,-153.6427 936.6768,-158.589 941.8063,-163.3522"/>
</g>
<!-- Node9 -->
<g id="node10" class="node">
<title>Node9</title>
<g id="a_node10"><a xlink:href="StateOld_8h.html" target="_top" xlink:title="StateOld.h">
<polygon fill="none" stroke="#000000" points="620,-134.5 620,-153.5 688,-153.5 688,-134.5 620,-134.5"/>
<text text-anchor="middle" x="654" y="-141.5" font-family="Helvetica,sans-Serif" font-size="10.00" fill="#000000">StateOld.h</text>
</a>
</g>
</g>
<!-- Node2&#45;&gt;Node9 -->
<g id="edge9" class="edge">
<title>Node2&#45;&gt;Node9</title>
<path fill="none" stroke="#191970" d="M860.3657,-190.5945C820.8062,-181.8416 760.0159,-168.3263 698.1898,-154.2583"/>
<polygon fill="#191970" stroke="#191970" points="698.7889,-150.8052 688.2613,-151.9964 697.234,-157.6303 698.7889,-150.8052"/>
</g>
<!-- Node2&#45;&gt;Node10 -->
<g id="edge25" class="edge">
<title>Node2&#45;&gt;Node10</title>
<path fill="none" stroke="#191970" d="M919.182,-190.4155C947.6139,-173.7537 1005.6372,-140.5902 1028,-134 1203.8876,-82.1669 1257.5057,-124.1332 1439,-98 1451.1094,-96.2564 1464.1884,-93.8311 1476.0702,-91.4162"/>
<polygon fill="#191970" stroke="#191970" points="1477.0744,-94.7821 1486.1491,-89.314 1475.6451,-87.9296 1477.0744,-94.7821"/>
</g>
<!-- Node16 -->
<g id="node17" class="node">
<title>Node16</title>
<polygon fill="none" stroke="#bfbfbf" points="529.5,-6 529.5,-25 576.5,-25 576.5,-6 529.5,-6"/>
<text text-anchor="middle" x="553" y="-13" font-family="Helvetica,sans-Serif" font-size="10.00" fill="#000000">vector</text>
</g>
<!-- Node2&#45;&gt;Node16 -->
<g id="edge31" class="edge">
<title>Node2&#45;&gt;Node16</title>
<path fill="none" stroke="#191970" d="M860.413,-195.5992C784.1364,-187.3822 630.3305,-169.1652 611,-154 573.3538,-124.4658 559.8751,-66.083 555.2612,-35.4032"/>
<polygon fill="#191970" stroke="#191970" points="558.6815,-34.5712 553.895,-25.1192 551.7425,-35.493 558.6815,-34.5712"/>
</g>
<!-- Node22 -->
<g id="node23" class="node">
<title>Node22</title>
<polygon fill="none" stroke="#bfbfbf" points="706.5,-134.5 706.5,-153.5 761.5,-153.5 761.5,-134.5 706.5,-134.5"/>
<text text-anchor="middle" x="734" y="-141.5" font-family="Helvetica,sans-Serif" font-size="10.00" fill="#000000">fstream</text>
</g>
<!-- Node2&#45;&gt;Node22 -->
<g id="edge26" class="edge">
<title>Node2&#45;&gt;Node22</title>
<path fill="none" stroke="#191970" d="M873.9479,-190.3733C845.5051,-180.9484 802.0561,-166.5511 771.1226,-156.301"/>
<polygon fill="#191970" stroke="#191970" points="772.1473,-152.9534 761.5539,-153.1303 769.9455,-159.5981 772.1473,-152.9534"/>
</g>
<!-- Node2&#45;&gt;Node23 -->
<g id="edge27" class="edge">
<title>Node2&#45;&gt;Node23</title>
<path fill="none" stroke="#191970" d="M860.2767,-195.1569C775.2505,-185.3817 590.6239,-163.4237 563,-154 524.0011,-140.6959 483.4998,-114.6292 459.804,-97.9148"/>
<polygon fill="#191970" stroke="#191970" points="461.7479,-95.0018 451.5834,-92.0128 457.6655,-100.6881 461.7479,-95.0018"/>
</g>
<!-- Node24 -->
<g id="node25" class="node">
<title>Node24</title>
<polygon fill="none" stroke="#bfbfbf" points="780,-134.5 780,-153.5 812,-153.5 812,-134.5 780,-134.5"/>
<text text-anchor="middle" x="796" y="-141.5" font-family="Helvetica,sans-Serif" font-size="10.00" fill="#000000">set</text>
</g>
<!-- Node2&#45;&gt;Node24 -->
<g id="edge28" class="edge">
<title>Node2&#45;&gt;Node24</title>
<path fill="none" stroke="#191970" d="M884.362,-190.2455C866.8672,-181.0894 840.563,-167.3227 821.2017,-157.1897"/>
<polygon fill="#191970" stroke="#191970" points="822.8067,-154.0793 812.3238,-152.5433 819.5607,-160.2813 822.8067,-154.0793"/>
</g>
<!-- Node25 -->
<g id="node26" class="node">
<title>Node25</title>
<polygon fill="none" stroke="#bfbfbf" points="830,-134.5 830,-153.5 916,-153.5 916,-134.5 830,-134.5"/>
<text text-anchor="middle" x="873" y="-141.5" font-family="Helvetica,sans-Serif" font-size="10.00" fill="#000000">unordered_set</text>
</g>
<!-- Node2&#45;&gt;Node25 -->
<g id="edge30" class="edge">
<title>Node2&#45;&gt;Node25</title>
<path fill="none" stroke="#191970" d="M897.7744,-190.2455C893.6877,-182.617 887.8865,-171.7881 882.925,-162.5267"/>
<polygon fill="#191970" stroke="#191970" points="885.9732,-160.8047 878.1657,-153.6427 879.8028,-164.1103 885.9732,-160.8047"/>
</g>
<!-- Node4 -->
<g id="node5" class="node">
<title>Node4</title>
<polygon fill="none" stroke="#bfbfbf" points="1314,-73 1314,-92 1352,-92 1352,-73 1314,-73"/>
<text text-anchor="middle" x="1333" y="-80" font-family="Helvetica,sans-Serif" font-size="10.00" fill="#000000">map</text>
</g>
<!-- Node3&#45;&gt;Node4 -->
<g id="edge4" class="edge">
<title>Node3&#45;&gt;Node4</title>
<path fill="none" stroke="#191970" d="M1213.1011,-134.4814C1237.7162,-125.8491 1274.2565,-112.3167 1305,-98 1305.8374,-97.61 1306.6841,-97.2054 1307.5354,-96.7895"/>
<polygon fill="#191970" stroke="#191970" points="1309.3574,-99.7871 1316.6156,-92.0689 1306.1285,-93.5762 1309.3574,-99.7871"/>
</g>
<!-- Node5 -->
<g id="node6" class="node">
<title>Node5</title>
<polygon fill="none" stroke="#bfbfbf" points="1626,-73 1626,-92 1682,-92 1682,-73 1626,-73"/>
<text text-anchor="middle" x="1654" y="-80" font-family="Helvetica,sans-Serif" font-size="10.00" fill="#000000">sstream</text>
</g>
<!-- Node3&#45;&gt;Node5 -->
<g id="edge5" class="edge">
<title>Node3&#45;&gt;Node5</title>
<path fill="none" stroke="#191970" d="M1223.6956,-140.527C1322.5743,-131.5604 1579.3776,-107.6625 1617,-98 1619.479,-97.3633 1622.0087,-96.59 1624.5236,-95.7324"/>
<polygon fill="#191970" stroke="#191970" points="1625.9117,-98.9491 1634.0102,-92.1179 1623.4193,-92.4078 1625.9117,-98.9491"/>
</g>
<!-- Node3&#45;&gt;Node6 -->
<g id="edge6" class="edge">
<title>Node3&#45;&gt;Node6</title>
<path fill="none" stroke="#191970" d="M1223.6153,-140.869C1305.3949,-133.9668 1493.5827,-116.5734 1555,-98 1556.6631,-97.4971 1558.3454,-96.9104 1560.0214,-96.2653"/>
<polygon fill="#191970" stroke="#191970" points="1561.6586,-99.3678 1569.3745,-92.1073 1558.815,-92.9714 1561.6586,-99.3678"/>
</g>
<!-- Node7 -->
<g id="node8" class="node">
<title>Node7</title>
<polygon fill="none" stroke="#bfbfbf" points="1170.5,-73 1170.5,-92 1295.5,-92 1295.5,-73 1170.5,-73"/>
<text text-anchor="middle" x="1233" y="-80" font-family="Helvetica,sans-Serif" font-size="10.00" fill="#000000">boost/lexical_cast.hpp</text>
</g>
<!-- Node3&#45;&gt;Node7 -->
<g id="edge7" class="edge">
<title>Node3&#45;&gt;Node7</title>
<path fill="none" stroke="#191970" d="M1192.5,-134.3906C1199.5738,-125.3273 1210.3542,-111.5149 1219.0146,-100.4188"/>
<polygon fill="#191970" stroke="#191970" points="1222.0006,-102.2815 1225.3943,-92.2449 1216.4824,-97.9746 1222.0006,-102.2815"/>
</g>
<!-- Node9&#45;&gt;Node6 -->
<g id="edge21" class="edge">
<title>Node9&#45;&gt;Node6</title>
<path fill="none" stroke="#191970" d="M688.1607,-135.4497C691.1375,-134.889 694.1141,-134.3926 697,-134 886.0926,-108.2749 1370.2306,-145.729 1555,-98 1556.9226,-97.5034 1558.8646,-96.8772 1560.7891,-96.1632"/>
<polygon fill="#191970" stroke="#191970" points="1562.3611,-99.2951 1570.0947,-92.0535 1559.5331,-92.8918 1562.3611,-99.2951"/>
</g>
<!-- Node9&#45;&gt;Node10 -->
<g id="edge10" class="edge">
<title>Node9&#45;&gt;Node10</title>
<path fill="none" stroke="#191970" d="M688.1635,-135.4703C691.1397,-134.9051 694.1154,-134.4021 697,-134 1024.0046,-88.422 1111.3515,-138.6921 1439,-98 1451.141,-96.4922 1464.2295,-94.1374 1476.1102,-91.7146"/>
<polygon fill="#191970" stroke="#191970" points="1477.1244,-95.0777 1486.1858,-89.5875 1475.6784,-88.2287 1477.1244,-95.0777"/>
</g>
<!-- Node13 -->
<g id="node14" class="node">
<title>Node13</title>
<polygon fill="none" stroke="#bfbfbf" points="1038,-6 1038,-25 1080,-25 1080,-6 1038,-6"/>
<text text-anchor="middle" x="1059" y="-13" font-family="Helvetica,sans-Serif" font-size="10.00" fill="#000000">array</text>
</g>
<!-- Node9&#45;&gt;Node13 -->
<g id="edge17" class="edge">
<title>Node9&#45;&gt;Node13</title>
<path fill="none" stroke="#191970" d="M688.2072,-135.7409C691.1739,-135.117 694.1355,-134.5265 697,-134 813.9016,-112.5149 853.4661,-146.4562 962,-98 966.5736,-95.9581 1013.2946,-55.4523 1040.189,-31.9717"/>
<polygon fill="#191970" stroke="#191970" points="1042.6045,-34.509 1047.8304,-25.2927 1037.9977,-29.2385 1042.6045,-34.509"/>
</g>
<!-- Node9&#45;&gt;Node14 -->
<g id="edge19" class="edge">
<title>Node9&#45;&gt;Node14</title>
<path fill="none" stroke="#191970" d="M636.5211,-134.3973C605.4353,-117.7814 538.0575,-83.8345 477,-67 344.3673,-30.431 179.751,-19.6696 109.887,-16.6343"/>
<polygon fill="#191970" stroke="#191970" points="109.6417,-13.1214 99.5073,-16.2107 109.3562,-20.1156 109.6417,-13.1214"/>
</g>
<!-- Node17 -->
<g id="node18" class="node">
<title>Node17</title>
<polygon fill="none" stroke="#bfbfbf" points="1009.5,-73 1009.5,-92 1152.5,-92 1152.5,-73 1009.5,-73"/>
<text text-anchor="middle" x="1081" y="-80" font-family="Helvetica,sans-Serif" font-size="10.00" fill="#000000">boost/functional/hash.hpp</text>
</g>
<!-- Node9&#45;&gt;Node17 -->
<g id="edge18" class="edge">
<title>Node9&#45;&gt;Node17</title>
<path fill="none" stroke="#191970" d="M688.1989,-135.6948C691.1674,-135.0808 694.1317,-134.5053 697,-134 828.3846,-110.8568 863.0761,-117.8399 995,-98 1003.4107,-96.7351 1012.2621,-95.2809 1020.9577,-93.7809"/>
<polygon fill="#191970" stroke="#191970" points="1021.8142,-97.1841 1031.0583,-92.0076 1020.6037,-90.2896 1021.8142,-97.1841"/>
</g>
<!-- Node9&#45;&gt;Node18 -->
<g id="edge20" class="edge">
<title>Node9&#45;&gt;Node18</title>
<path fill="none" stroke="#191970" d="M688.166,-135.4881C691.1416,-134.9191 694.1165,-134.4103 697,-134 989.5978,-92.3695 1072.3377,-161.4085 1361,-98 1363.8688,-97.3698 1366.8011,-96.5538 1369.7059,-95.626"/>
<polygon fill="#191970" stroke="#191970" points="1371.1245,-98.8351 1379.3432,-92.1491 1368.7489,-92.2505 1371.1245,-98.8351"/>
</g>
<!-- Node19 -->
<g id="node20" class="node">
<title>Node19</title>
<polygon fill="none" stroke="#bfbfbf" points="600.5,-67.5 600.5,-97.5 707.5,-97.5 707.5,-67.5 600.5,-67.5"/>
<text text-anchor="start" x="608.5" y="-85.5" font-family="Helvetica,sans-Serif" font-size="10.00" fill="#000000">boost/serialization</text>
<text text-anchor="middle" x="654" y="-74.5" font-family="Helvetica,sans-Serif" font-size="10.00" fill="#000000">/array.hpp</text>
</g>
<!-- Node9&#45;&gt;Node19 -->
<g id="edge22" class="edge">
<title>Node9&#45;&gt;Node19</title>
<path fill="none" stroke="#191970" d="M654,-134.3906C654,-127.2234 654,-117.0862 654,-107.671"/>
<polygon fill="#191970" stroke="#191970" points="657.5001,-107.5446 654,-97.5446 650.5001,-107.5446 657.5001,-107.5446"/>
</g>
<!-- Node20 -->
<g id="node21" class="node">
<title>Node20</title>
<polygon fill="none" stroke="#bfbfbf" points="725.5,-67.5 725.5,-97.5 832.5,-97.5 832.5,-67.5 725.5,-67.5"/>
<text text-anchor="start" x="733.5" y="-85.5" font-family="Helvetica,sans-Serif" font-size="10.00" fill="#000000">boost/serialization</text>
<text text-anchor="middle" x="779" y="-74.5" font-family="Helvetica,sans-Serif" font-size="10.00" fill="#000000">/string.hpp</text>
</g>
<!-- Node9&#45;&gt;Node20 -->
<g id="edge23" class="edge">
<title>Node9&#45;&gt;Node20</title>
<path fill="none" stroke="#191970" d="M673.5313,-134.3906C691.075,-125.7591 717.3736,-112.8202 739.3204,-102.0224"/>
<polygon fill="#191970" stroke="#191970" points="740.9939,-105.0997 748.4216,-97.5446 737.9036,-98.8188 740.9939,-105.0997"/>
</g>
<!-- Node21 -->
<g id="node22" class="node">
<title>Node21</title>
<polygon fill="none" stroke="#bfbfbf" points="851,-73 851,-92 953,-92 953,-73 851,-73"/>
<text text-anchor="middle" x="902" y="-80" font-family="Helvetica,sans-Serif" font-size="10.00" fill="#000000">boost/variant.hpp</text>
</g>
<!-- Node9&#45;&gt;Node21 -->
<g id="edge24" class="edge">
<title>Node9&#45;&gt;Node21</title>
<path fill="none" stroke="#191970" d="M688.1425,-135.6841C725.6461,-126.5303 787.6451,-111.3408 841,-98 845.4124,-96.8967 850.0027,-95.7424 854.5963,-94.5829"/>
<polygon fill="#191970" stroke="#191970" points="855.7543,-97.9002 864.59,-92.0538 854.037,-91.1142 855.7543,-97.9002"/>
</g>
<!-- Node11 -->
<g id="node12" class="node">
<title>Node11</title>
<polygon fill="none" stroke="#bfbfbf" points="1176.5,-6 1176.5,-25 1253.5,-25 1253.5,-6 1176.5,-6"/>
<text text-anchor="middle" x="1215" y="-13" font-family="Helvetica,sans-Serif" font-size="10.00" fill="#000000">Eigen/Dense</text>
</g>
<!-- Node10&#45;&gt;Node11 -->
<g id="edge11" class="edge">
<title>Node10&#45;&gt;Node11</title>
<path fill="none" stroke="#191970" d="M1491.0961,-72.9092C1484.9185,-70.7578 1478.2703,-68.6321 1472,-67 1380.7825,-43.2573 1354.5224,-53.5388 1263,-31 1259.3862,-30.1101 1255.6494,-29.0884 1251.93,-28.0033"/>
<polygon fill="#191970" stroke="#191970" points="1252.8082,-24.6118 1242.2216,-25.0297 1250.7581,-31.3049 1252.8082,-24.6118"/>
</g>
<!-- Node12 -->
<g id="node13" class="node">
<title>Node12</title>
<polygon fill="none" stroke="#bfbfbf" points="1272,-6 1272,-25 1352,-25 1352,-6 1272,-6"/>
<text text-anchor="middle" x="1312" y="-13" font-family="Helvetica,sans-Serif" font-size="10.00" fill="#000000">Eigen/Sparse</text>
</g>
<!-- Node10&#45;&gt;Node12 -->
<g id="edge12" class="edge">
<title>Node10&#45;&gt;Node12</title>
<path fill="none" stroke="#191970" d="M1489.0478,-72.8747C1483.424,-70.9031 1477.5259,-68.8623 1472,-67 1431.2764,-53.276 1384.4586,-38.2992 1352.0344,-28.0526"/>
<polygon fill="#191970" stroke="#191970" points="1353.0462,-24.7018 1342.4564,-25.0311 1350.9402,-31.3775 1353.0462,-24.7018"/>
</g>
<!-- Node10&#45;&gt;Node13 -->
<g id="edge13" class="edge">
<title>Node10&#45;&gt;Node13</title>
<path fill="none" stroke="#191970" d="M1492.0776,-72.9946C1485.6423,-70.736 1478.627,-68.5383 1472,-67 1339.0388,-36.1353 1302.3445,-48.6969 1167,-31 1141.013,-27.6021 1111.569,-23.3495 1089.9957,-20.1586"/>
<polygon fill="#191970" stroke="#191970" points="1090.4929,-16.6941 1080.087,-18.6858 1089.4638,-23.6181 1090.4929,-16.6941"/>
</g>
<!-- Node10&#45;&gt;Node14 -->
<g id="edge14" class="edge">
<title>Node10&#45;&gt;Node14</title>
<path fill="none" stroke="#191970" d="M1486.1949,-75.337C1471.99,-72.2228 1454.7076,-68.8654 1439,-67 1404.9614,-62.9576 316.8953,-24.0768 109.8424,-16.7036"/>
<polygon fill="#191970" stroke="#191970" points="109.7037,-13.1966 99.5855,-16.3385 109.4546,-20.1921 109.7037,-13.1966"/>
</g>
<!-- Node15 -->
<g id="node16" class="node">
<title>Node15</title>
<polygon fill="none" stroke="#bfbfbf" points="1370.5,-.5 1370.5,-30.5 1513.5,-30.5 1513.5,-.5 1370.5,-.5"/>
<text text-anchor="start" x="1378.5" y="-18.5" font-family="Helvetica,sans-Serif" font-size="10.00" fill="#000000">unsupported/Eigen/CXX11</text>
<text text-anchor="middle" x="1442" y="-7.5" font-family="Helvetica,sans-Serif" font-size="10.00" fill="#000000">/Tensor</text>
</g>
<!-- Node10&#45;&gt;Node15 -->
<g id="edge15" class="edge">
<title>Node10&#45;&gt;Node15</title>
<path fill="none" stroke="#191970" d="M1505.3976,-72.9005C1495.1749,-63.6448 1479.3425,-49.3101 1466.0573,-37.2816"/>
<polygon fill="#191970" stroke="#191970" points="1468.3533,-34.639 1458.5912,-30.5218 1463.6551,-39.8281 1468.3533,-34.639"/>
</g>
<!-- Node10&#45;&gt;Node16 -->
<g id="edge16" class="edge">
<title>Node10&#45;&gt;Node16</title>
<path fill="none" stroke="#191970" d="M1492.5961,-72.879C1486.0366,-70.5629 1478.83,-68.3656 1472,-67 1384.0107,-49.4073 742.9787,-23.0411 587.0955,-16.8395"/>
<polygon fill="#191970" stroke="#191970" points="586.8555,-13.3274 576.7246,-16.4283 586.5781,-20.3219 586.8555,-13.3274"/>
</g>
<!-- Node26&#45;&gt;Node16 -->
<g id="edge60" class="edge">
<title>Node26&#45;&gt;Node16</title>
<path fill="none" stroke="#191970" d="M305.8974,-319.6519C238.0549,-311.7715 114,-285.6515 114,-200 114,-200 114,-200 114,-144 114,-108.7513 106.6267,-90.3863 133,-67 161.7783,-41.481 424.5583,-23.2485 519.2153,-17.4594"/>
<polygon fill="#191970" stroke="#191970" points="519.6162,-20.9417 529.3873,-16.8458 519.1946,-13.9544 519.6162,-20.9417"/>
</g>
<!-- Node27 -->
<g id="node28" class="node">
<title>Node27</title>
<g id="a_node28"><a xlink:href="Hamiltonianmatrix_8h.html" target="_top" xlink:title="Hamiltonianmatrix.h">
<polygon fill="none" stroke="#000000" points="508,-252 508,-271 626,-271 626,-252 508,-252"/>
<text text-anchor="middle" x="567" y="-259" font-family="Helvetica,sans-Serif" font-size="10.00" fill="#000000">Hamiltonianmatrix.h</text>
</a>
</g>
</g>
<!-- Node26&#45;&gt;Node27 -->
<g id="edge34" class="edge">
<title>Node26&#45;&gt;Node27</title>
<path fill="none" stroke="#191970" d="M383.0625,-313.3906C420.8977,-302.7169 482.0806,-285.4566 523.3885,-273.8033"/>
<polygon fill="#191970" stroke="#191970" points="524.5027,-277.1256 533.1767,-271.0419 522.602,-270.3886 524.5027,-277.1256"/>
</g>
<!-- Node27&#45;&gt;Node2 -->
<g id="edge35" class="edge">
<title>Node27&#45;&gt;Node2</title>
<path fill="none" stroke="#191970" d="M619.1313,-251.9581C681.9902,-240.4527 787.0444,-221.224 850.2005,-209.6642"/>
<polygon fill="#191970" stroke="#191970" points="851.1378,-213.0509 860.3442,-207.8075 849.8774,-206.1653 851.1378,-213.0509"/>
</g>
<!-- Node27&#45;&gt;Node9 -->
<g id="edge44" class="edge">
<title>Node27&#45;&gt;Node9</title>
<path fill="none" stroke="#191970" d="M610.2611,-251.9422C632.8197,-244.5254 658.4672,-231.7104 672,-210 681.0862,-195.4231 674.1612,-176.2519 666.4159,-162.3298"/>
<polygon fill="#191970" stroke="#191970" points="669.3119,-160.3568 661.1093,-153.651 663.3398,-164.0084 669.3119,-160.3568"/>
</g>
<!-- Node27&#45;&gt;Node10 -->
<g id="edge45" class="edge">
<title>Node27&#45;&gt;Node10</title>
<path fill="none" stroke="#191970" d="M626.2909,-258.4258C703.0516,-253.3576 840.4446,-240.5686 954,-210 1039.041,-187.1073 1051.8047,-156.3117 1137,-134 1267.7627,-99.7548 1305.525,-119.3546 1439,-98 1451.1847,-96.0506 1464.3765,-93.5426 1476.3409,-91.1145"/>
<polygon fill="#191970" stroke="#191970" points="1477.3988,-94.4699 1486.4829,-89.0173 1475.9813,-87.6149 1477.3988,-94.4699"/>
</g>
<!-- Node27&#45;&gt;Node14 -->
<g id="edge53" class="edge">
<title>Node27&#45;&gt;Node14</title>
<path fill="none" stroke="#191970" d="M507.8849,-253.2787C431.5376,-240.742 296.4295,-211.9264 195,-154 143.5806,-124.6344 103.8447,-64.3891 86.1166,-33.9586"/>
<polygon fill="#191970" stroke="#191970" points="89.1272,-32.1722 81.1471,-25.2031 83.0395,-35.6276 89.1272,-32.1722"/>
</g>
<!-- Node27&#45;&gt;Node16 -->
<g id="edge59" class="edge">
<title>Node27&#45;&gt;Node16</title>
<path fill="none" stroke="#191970" d="M590.084,-251.9544C615.9949,-239.7064 652.7336,-216.8113 639,-190 626.516,-165.6283 607.0413,-174.5995 589,-154 570.3971,-132.7593 566.8628,-125.1185 559,-98 553.0214,-77.3799 551.9794,-52.7078 552.1471,-35.7486"/>
<polygon fill="#191970" stroke="#191970" points="555.6552,-35.4702 552.4107,-25.3844 548.6575,-35.2921 555.6552,-35.4702"/>
</g>
<!-- Node27&#45;&gt;Node23 -->
<g id="edge57" class="edge">
<title>Node27&#45;&gt;Node23</title>
<path fill="none" stroke="#191970" d="M544.5006,-251.8902C526.6993,-243.2588 502.3612,-229.0175 487,-210 460.7314,-177.4789 447.8548,-129.0865 442.3997,-102.2414"/>
<polygon fill="#191970" stroke="#191970" points="445.792,-101.3425 440.4989,-92.1647 438.9133,-102.6402 445.792,-101.3425"/>
</g>
<!-- Node28 -->
<g id="node29" class="node">
<title>Node28</title>
<g id="a_node29"><a xlink:href="Serializable_8h.html" target="_top" xlink:title="Serializable.h">
<polygon fill="none" stroke="#000000" points="204.5,-134.5 204.5,-153.5 287.5,-153.5 287.5,-134.5 204.5,-134.5"/>
<text text-anchor="middle" x="246" y="-141.5" font-family="Helvetica,sans-Serif" font-size="10.00" fill="#000000">Serializable.h</text>
</a>
</g>
</g>
<!-- Node27&#45;&gt;Node28 -->
<g id="edge36" class="edge">
<title>Node27&#45;&gt;Node28</title>
<path fill="none" stroke="#191970" d="M541.0031,-251.984C483.79,-231.0415 346.8911,-180.9305 281.693,-157.0652"/>
<polygon fill="#191970" stroke="#191970" points="282.8333,-153.7555 272.2395,-153.6048 280.4271,-160.329 282.8333,-153.7555"/>
</g>
<!-- Node33 -->
<g id="node34" class="node">
<title>Node33</title>
<g id="a_node34"><a xlink:href="utils_8h.html" target="_top" xlink:title="utils.h">
<polygon fill="none" stroke="#000000" points="1700.5,-73 1700.5,-92 1747.5,-92 1747.5,-73 1700.5,-73"/>
<text text-anchor="middle" x="1724" y="-80" font-family="Helvetica,sans-Serif" font-size="10.00" fill="#000000">utils.h</text>
</a>
</g>
</g>
<!-- Node27&#45;&gt;Node33 -->
<g id="edge46" class="edge">
<title>Node27&#45;&gt;Node33</title>
<path fill="none" stroke="#191970" d="M626.2926,-255.1203C708.999,-246.0494 863.6348,-228.4655 995,-210 1305.2626,-166.3875 1391.619,-190.3904 1691,-98 1692.8598,-97.426 1694.749,-96.7663 1696.6336,-96.0498"/>
<polygon fill="#191970" stroke="#191970" points="1698.0283,-99.2601 1705.8619,-92.1267 1695.2897,-92.818 1698.0283,-99.2601"/>
</g>
<!-- Node40 -->
<g id="node41" class="node">
<title>Node40</title>
<polygon fill="none" stroke="#bfbfbf" points="580,-190.5 580,-209.5 630,-209.5 630,-190.5 580,-190.5"/>
<text text-anchor="middle" x="605" y="-197.5" font-family="Helvetica,sans-Serif" font-size="10.00" fill="#000000">cstdint</text>
</g>
<!-- Node27&#45;&gt;Node40 -->
<g id="edge54" class="edge">
<title>Node27&#45;&gt;Node40</title>
<path fill="none" stroke="#191970" d="M572.9375,-251.8906C578.4267,-243.0068 586.7353,-229.5601 593.519,-218.5811"/>
<polygon fill="#191970" stroke="#191970" points="596.6998,-220.0917 598.9788,-209.7449 590.7449,-216.4122 596.6998,-220.0917"/>
</g>
<!-- Node41 -->
<g id="node42" class="node">
<title>Node41</title>
<polygon fill="none" stroke="#bfbfbf" points="1216,-190.5 1216,-209.5 1262,-209.5 1262,-190.5 1216,-190.5"/>
<text text-anchor="middle" x="1239" y="-197.5" font-family="Helvetica,sans-Serif" font-size="10.00" fill="#000000">cstdio</text>
</g>
<!-- Node27&#45;&gt;Node41 -->
<g id="edge55" class="edge">
<title>Node27&#45;&gt;Node41</title>
<path fill="none" stroke="#191970" d="M626.1099,-260.3095C738.8907,-257.2442 992.2432,-246.5343 1202,-210 1203.2537,-209.7816 1204.5266,-209.5401 1205.8088,-209.28"/>
<polygon fill="#191970" stroke="#191970" points="1206.7031,-212.6657 1215.6571,-207.002 1205.1255,-205.8457 1206.7031,-212.6657"/>
</g>
<!-- Node42 -->
<g id="node43" class="node">
<title>Node42</title>
<polygon fill="none" stroke="#bfbfbf" points="496.5,-190.5 496.5,-209.5 561.5,-209.5 561.5,-190.5 496.5,-190.5"/>
<text text-anchor="middle" x="529" y="-197.5" font-family="Helvetica,sans-Serif" font-size="10.00" fill="#000000">exception</text>
</g>
<!-- Node27&#45;&gt;Node42 -->
<g id="edge56" class="edge">
<title>Node27&#45;&gt;Node42</title>
<path fill="none" stroke="#191970" d="M561.0625,-251.8906C555.5733,-243.0068 547.2647,-229.5601 540.481,-218.5811"/>
<polygon fill="#191970" stroke="#191970" points="543.2551,-216.4122 535.0212,-209.7449 537.3002,-220.0917 543.2551,-216.4122"/>
</g>
<!-- Node27&#45;&gt;Node43 -->
<g id="edge58" class="edge">
<title>Node27&#45;&gt;Node43</title>
<path fill="none" stroke="#191970" d="M596.6875,-251.8906C629.3146,-241.3298 681.8626,-224.3208 717.8425,-212.6747"/>
<polygon fill="#191970" stroke="#191970" points="719.0848,-215.9514 727.521,-209.5419 716.9291,-209.2916 719.0848,-215.9514"/>
</g>
<!-- Node28&#45;&gt;Node10 -->
<g id="edge37" class="edge">
<title>Node28&#45;&gt;Node10</title>
<path fill="none" stroke="#191970" d="M287.8261,-142.7855C485.688,-136.9862 1322.9712,-111.8249 1439,-98 1451.1483,-96.5525 1464.239,-94.2158 1476.1195,-91.791"/>
<polygon fill="#191970" stroke="#191970" points="1477.1364,-95.1534 1486.1943,-89.6575 1475.6861,-88.3052 1477.1364,-95.1534"/>
</g>
<!-- Node28&#45;&gt;Node16 -->
<g id="edge43" class="edge">
<title>Node28&#45;&gt;Node16</title>
<path fill="none" stroke="#191970" d="M277.178,-134.4288C301.2067,-126.4011 334.8103,-113.7332 362,-98 381.1649,-86.9104 381.5594,-77.5988 401,-67 439.2426,-46.1506 487.4601,-31.5604 519.2092,-23.3598"/>
<polygon fill="#191970" stroke="#191970" points="520.4605,-26.6543 529.3068,-20.8238 518.7554,-19.8651 520.4605,-26.6543"/>
</g>
<!-- Node28&#45;&gt;Node23 -->
<g id="edge39" class="edge">
<title>Node28&#45;&gt;Node23</title>
<path fill="none" stroke="#191970" d="M278.6235,-134.4912C309.1063,-125.4892 355.8176,-111.3948 396,-98 398.4373,-97.1875 400.9458,-96.3327 403.4686,-95.4591"/>
<polygon fill="#191970" stroke="#191970" points="404.8808,-98.6725 413.1488,-92.0475 402.554,-92.0705 404.8808,-98.6725"/>
</g>
<!-- Node29 -->
<g id="node30" class="node">
<title>Node29</title>
<polygon fill="none" stroke="#bfbfbf" points="142.5,-73 142.5,-92 195.5,-92 195.5,-73 142.5,-73"/>
<text text-anchor="middle" x="169" y="-80" font-family="Helvetica,sans-Serif" font-size="10.00" fill="#000000">iterator</text>
</g>
<!-- Node28&#45;&gt;Node29 -->
<g id="edge38" class="edge">
<title>Node28&#45;&gt;Node29</title>
<path fill="none" stroke="#191970" d="M233.9688,-134.3906C221.9893,-124.8227 203.3834,-109.9621 189.1475,-98.5919"/>
<polygon fill="#191970" stroke="#191970" points="190.9447,-95.5479 180.9468,-92.0419 186.5761,-101.0175 190.9447,-95.5479"/>
</g>
<!-- Node30 -->
<g id="node31" class="node">
<title>Node30</title>
<polygon fill="none" stroke="#bfbfbf" points="213.5,-73 213.5,-92 278.5,-92 278.5,-73 213.5,-73"/>
<text text-anchor="middle" x="246" y="-80" font-family="Helvetica,sans-Serif" font-size="10.00" fill="#000000">typeindex</text>
</g>
<!-- Node28&#45;&gt;Node30 -->
<g id="edge40" class="edge">
<title>Node28&#45;&gt;Node30</title>
<path fill="none" stroke="#191970" d="M246,-134.3906C246,-125.8657 246,-113.1392 246,-102.4235"/>
<polygon fill="#191970" stroke="#191970" points="249.5001,-102.2448 246,-92.2449 242.5001,-102.2449 249.5001,-102.2448"/>
</g>
<!-- Node31 -->
<g id="node32" class="node">
<title>Node31</title>
<polygon fill="none" stroke="#bfbfbf" points="296.5,-73 296.5,-92 353.5,-92 353.5,-73 296.5,-73"/>
<text text-anchor="middle" x="325" y="-80" font-family="Helvetica,sans-Serif" font-size="10.00" fill="#000000">typeinfo</text>
</g>
<!-- Node28&#45;&gt;Node31 -->
<g id="edge41" class="edge">
<title>Node28&#45;&gt;Node31</title>
<path fill="none" stroke="#191970" d="M258.3438,-134.3906C270.7503,-124.7324 290.0843,-109.6812 304.7413,-98.271"/>
<polygon fill="#191970" stroke="#191970" points="307.0021,-100.9466 312.7429,-92.0419 302.7021,-95.423 307.0021,-100.9466"/>
</g>
<!-- Node32 -->
<g id="node33" class="node">
<title>Node32</title>
<polygon fill="none" stroke="#bfbfbf" points="2317.5,-73 2317.5,-92 2410.5,-92 2410.5,-73 2317.5,-73"/>
<text text-anchor="middle" x="2364" y="-80" font-family="Helvetica,sans-Serif" font-size="10.00" fill="#000000">unordered_map</text>
</g>
<!-- Node28&#45;&gt;Node32 -->
<g id="edge42" class="edge">
<title>Node28&#45;&gt;Node32</title>
<path fill="none" stroke="#191970" d="M287.5995,-142.7765C355.3536,-140.8025 493.7597,-136.8488 611,-134 988.3068,-124.8318 1935.7048,-153.6341 2309,-98 2314.458,-97.1866 2320.1409,-95.9948 2325.6931,-94.6276"/>
<polygon fill="#191970" stroke="#191970" points="2326.7088,-97.9791 2335.4694,-92.0208 2324.9052,-91.2154 2326.7088,-97.9791"/>
</g>
<!-- Node34 -->
<g id="node35" class="node">
<title>Node34</title>
<polygon fill="none" stroke="#bfbfbf" points="1532,-6 1532,-25 1596,-25 1596,-6 1532,-6"/>
<text text-anchor="middle" x="1564" y="-13" font-family="Helvetica,sans-Serif" font-size="10.00" fill="#000000">algorithm</text>
</g>
<!-- Node33&#45;&gt;Node34 -->
<g id="edge47" class="edge">
<title>Node33&#45;&gt;Node34</title>
<path fill="none" stroke="#191970" d="M1704.1855,-72.9819C1699.8596,-70.9632 1695.2917,-68.8764 1691,-67 1659.8782,-53.3927 1623.9718,-38.9461 1598.2958,-28.828"/>
<polygon fill="#191970" stroke="#191970" points="1599.5748,-25.5701 1588.9874,-25.1728 1597.0163,-32.0858 1599.5748,-25.5701"/>
</g>
<!-- Node35 -->
<g id="node36" class="node">
<title>Node35</title>
<polygon fill="none" stroke="#bfbfbf" points="1614.5,-6 1614.5,-25 1673.5,-25 1673.5,-6 1614.5,-6"/>
<text text-anchor="middle" x="1644" y="-13" font-family="Helvetica,sans-Serif" font-size="10.00" fill="#000000">complex</text>
</g>
<!-- Node33&#45;&gt;Node35 -->
<g id="edge48" class="edge">
<title>Node33&#45;&gt;Node35</title>
<path fill="none" stroke="#191970" d="M1712.538,-72.9005C1699.7062,-62.1539 1678.6989,-44.5603 1663.3187,-31.6794"/>
<polygon fill="#191970" stroke="#191970" points="1665.3545,-28.8191 1655.4408,-25.0817 1660.86,-34.1856 1665.3545,-28.8191"/>
</g>
<!-- Node36 -->
<g id="node37" class="node">
<title>Node36</title>
<polygon fill="none" stroke="#bfbfbf" points="1691.5,-6 1691.5,-25 1756.5,-25 1756.5,-6 1691.5,-6"/>
<text text-anchor="middle" x="1724" y="-13" font-family="Helvetica,sans-Serif" font-size="10.00" fill="#000000">functional</text>
</g>
<!-- Node33&#45;&gt;Node36 -->
<g id="edge49" class="edge">
<title>Node33&#45;&gt;Node36</title>
<path fill="none" stroke="#191970" d="M1724,-72.9005C1724,-63.149 1724,-47.7597 1724,-35.3695"/>
<polygon fill="#191970" stroke="#191970" points="1727.5001,-35.0816 1724,-25.0817 1720.5001,-35.0817 1727.5001,-35.0816"/>
</g>
<!-- Node37 -->
<g id="node38" class="node">
<title>Node37</title>
<polygon fill="none" stroke="#bfbfbf" points="1849,-6 1849,-25 1903,-25 1903,-6 1849,-6"/>
<text text-anchor="middle" x="1876" y="-13" font-family="Helvetica,sans-Serif" font-size="10.00" fill="#000000">random</text>
</g>
<!-- Node33&#45;&gt;Node37 -->
<g id="edge50" class="edge">
<title>Node33&#45;&gt;Node37</title>
<path fill="none" stroke="#191970" d="M1745.7779,-72.9005C1771.7384,-61.4574 1815.3113,-42.2509 1844.8346,-29.2374"/>
<polygon fill="#191970" stroke="#191970" points="1846.5237,-32.3178 1854.2625,-25.0817 1843.7003,-25.9125 1846.5237,-32.3178"/>
</g>
<!-- Node38 -->
<g id="node39" class="node">
<title>Node38</title>
<polygon fill="none" stroke="#bfbfbf" points="1921.5,-6 1921.5,-25 1990.5,-25 1990.5,-6 1921.5,-6"/>
<text text-anchor="middle" x="1956" y="-13" font-family="Helvetica,sans-Serif" font-size="10.00" fill="#000000">type_traits</text>
</g>
<!-- Node33&#45;&gt;Node38 -->
<g id="edge51" class="edge">
<title>Node33&#45;&gt;Node38</title>
<path fill="none" stroke="#191970" d="M1747.6038,-76.6109C1783.3795,-67.5553 1853.3767,-49.3296 1912,-31 1914.592,-30.1896 1917.2598,-29.3255 1919.9391,-28.4358"/>
<polygon fill="#191970" stroke="#191970" points="1921.241,-31.6899 1929.5775,-25.1514 1918.9831,-25.0641 1921.241,-31.6899"/>
</g>
<!-- Node39 -->
<g id="node40" class="node">
<title>Node39</title>
<polygon fill="none" stroke="#bfbfbf" points="1775,-6 1775,-25 1831,-25 1831,-6 1775,-6"/>
<text text-anchor="middle" x="1803" y="-13" font-family="Helvetica,sans-Serif" font-size="10.00" fill="#000000">unistd.h</text>
</g>
<!-- Node33&#45;&gt;Node39 -->
<g id="edge52" class="edge">
<title>Node33&#45;&gt;Node39</title>
<path fill="none" stroke="#191970" d="M1735.3188,-72.9005C1747.9901,-62.1539 1768.7348,-44.5603 1783.9227,-31.6794"/>
<polygon fill="#191970" stroke="#191970" points="1786.3395,-34.2191 1791.7022,-25.0817 1781.8118,-28.8805 1786.3395,-34.2191"/>
</g>
<!-- Node44&#45;&gt;Node2 -->
<g id="edge62" class="edge">
<title>Node44&#45;&gt;Node2</title>
<path fill="none" stroke="#191970" d="M1203.0509,-374.8699C1184.9371,-364.5621 1155.3938,-347.7041 1130,-333 1056.3198,-290.3361 969.587,-239.2884 927.8735,-214.6855"/>
<polygon fill="#191970" stroke="#191970" points="929.5979,-211.6392 919.2067,-209.5722 926.0409,-217.6681 929.5979,-211.6392"/>
</g>
<!-- Node44&#45;&gt;Node3 -->
<g id="edge63" class="edge">
<title>Node44&#45;&gt;Node3</title>
<path fill="none" stroke="#191970" d="M1204.9074,-374.7328C1192.3721,-365.6386 1175.4339,-350.8251 1168,-333 1143.7516,-274.8568 1165.2126,-198.1244 1177.6269,-163.0131"/>
<polygon fill="#191970" stroke="#191970" points="1180.9517,-164.1128 1181.1285,-153.5194 1174.3842,-161.6904 1180.9517,-164.1128"/>
</g>
<!-- Node44&#45;&gt;Node10 -->
<g id="edge104" class="edge">
<title>Node44&#45;&gt;Node10</title>
<path fill="none" stroke="#191970" d="M1220.8135,-374.5352C1222.3851,-360.0224 1226.8373,-332.6613 1239,-313 1303.7157,-208.3855 1432.429,-128.4948 1488.6536,-97.0637"/>
<polygon fill="#191970" stroke="#191970" points="1490.5898,-99.993 1497.6574,-92.0999 1487.2102,-93.8628 1490.5898,-99.993"/>
</g>
<!-- Node44&#45;&gt;Node14 -->
<g id="edge109" class="edge">
<title>Node44&#45;&gt;Node14</title>
<path fill="none" stroke="#191970" d="M1167.3042,-383.0403C997.5897,-378.1066 466.4631,-360.7907 297,-333 179.1572,-313.6746 38,-380.9169 38,-261.5 38,-261.5 38,-261.5 38,-144 38,-103.695 55.404,-59.0903 66.6555,-34.4654"/>
<polygon fill="#191970" stroke="#191970" points="69.9231,-35.7425 71.0322,-25.2058 63.5944,-32.7511 69.9231,-35.7425"/>
</g>
<!-- Node44&#45;&gt;Node18 -->
<g id="edge110" class="edge">
<title>Node44&#45;&gt;Node18</title>
<path fill="none" stroke="#191970" d="M1214.7894,-374.539C1208.1658,-360.4924 1198.4469,-334.2103 1206,-313 1224.1252,-262.1014 1339.3427,-143.2364 1383.1382,-99.2535"/>
<polygon fill="#191970" stroke="#191970" points="1385.623,-101.7185 1390.2179,-92.1719 1380.6726,-96.7694 1385.623,-101.7185"/>
</g>
<!-- Node44&#45;&gt;Node23 -->
<g id="edge111" class="edge">
<title>Node44&#45;&gt;Node23</title>
<path fill="none" stroke="#191970" d="M1167.4193,-380.1645C1005.3498,-366.3691 521.1267,-321.7602 467,-277 415.3329,-234.2738 426.4915,-142.5247 434.4653,-102.1988"/>
<polygon fill="#191970" stroke="#191970" points="437.9196,-102.781 436.575,-92.2719 431.0725,-101.3258 437.9196,-102.781"/>
</g>
<!-- Node44&#45;&gt;Node26 -->
<g id="edge64" class="edge">
<title>Node44&#45;&gt;Node26</title>
<path fill="none" stroke="#191970" d="M1167.441,-383.1862C1037.73,-379.5072 692.1417,-367.0463 406,-333 404.7373,-332.8498 403.4602,-332.6899 402.1731,-332.5218"/>
<polygon fill="#191970" stroke="#191970" points="402.5808,-329.0446 392.1859,-331.093 401.5894,-335.9741 402.5808,-329.0446"/>
</g>
<!-- Node44&#45;&gt;Node45 -->
<g id="edge65" class="edge">
<title>Node44&#45;&gt;Node45</title>
<path fill="none" stroke="#191970" d="M1232.3438,-374.8906C1244.7503,-365.2324 1264.0843,-350.1812 1278.7413,-338.771"/>
<polygon fill="#191970" stroke="#191970" points="1281.0021,-341.4466 1286.7429,-332.5419 1276.7021,-335.923 1281.0021,-341.4466"/>
</g>
<!-- Node44&#45;&gt;Node51 -->
<g id="edge103" class="edge">
<title>Node44&#45;&gt;Node51</title>
<path fill="none" stroke="#191970" d="M1249.1887,-374.9205C1277.6219,-365.3016 1321.8668,-349.5671 1359,-333 1376.4293,-325.2239 1378.776,-318.6685 1397,-313 1526.0727,-272.8522 1567.3512,-307.6625 1699,-277 1786.2068,-256.6886 1829.9311,-277.2937 1889,-210 1899.9749,-197.497 1903.0812,-178.5518 1903.6719,-164.1615"/>
<polygon fill="#191970" stroke="#191970" points="1907.173,-163.8197 1903.7085,-153.8073 1900.1731,-163.7948 1907.173,-163.8197"/>
</g>
<!-- Node44&#45;&gt;Node59 -->
<g id="edge105" class="edge">
<title>Node44&#45;&gt;Node59</title>
<path fill="none" stroke="#191970" d="M1259.4088,-374.9581C1303.8997,-364.1857 1376.3531,-346.6428 1424.5915,-334.9631"/>
<polygon fill="#191970" stroke="#191970" points="1425.6032,-338.3193 1434.4987,-332.5643 1423.9559,-331.5159 1425.6032,-338.3193"/>
</g>
<!-- Node44&#45;&gt;Node60 -->
<g id="edge106" class="edge">
<title>Node44&#45;&gt;Node60</title>
<path fill="none" stroke="#191970" d="M1272.7043,-376.3967C1343.8655,-365.4557 1470.8526,-345.9314 1549.9719,-333.7668"/>
<polygon fill="#191970" stroke="#191970" points="1550.978,-337.1533 1560.33,-332.1743 1549.9142,-330.2346 1550.978,-337.1533"/>
</g>
<!-- Node44&#45;&gt;Node61 -->
<g id="edge107" class="edge">
<title>Node44&#45;&gt;Node61</title>
<path fill="none" stroke="#191970" d="M1272.8411,-379.4502C1357.9064,-371.1556 1530.7224,-353.6241 1687.0297,-333.219"/>
<polygon fill="#191970" stroke="#191970" points="1687.841,-336.6426 1697.3004,-331.8708 1686.9299,-329.7021 1687.841,-336.6426"/>
</g>
<!-- Node44&#45;&gt;Node62 -->
<g id="edge108" class="edge">
<title>Node44&#45;&gt;Node62</title>
<path fill="none" stroke="#191970" d="M1272.6017,-380.3472C1375.3363,-372.1577 1610.118,-353.0555 1818.726,-333.1067"/>
<polygon fill="#191970" stroke="#191970" points="1819.3333,-336.5646 1828.9535,-332.1259 1818.665,-329.5966 1819.3333,-336.5646"/>
</g>
<!-- Node45&#45;&gt;Node2 -->
<g id="edge66" class="edge">
<title>Node45&#45;&gt;Node2</title>
<path fill="none" stroke="#191970" d="M1268.2561,-313.4507C1197.4157,-291.4473 1022.709,-237.1823 943.3659,-212.5379"/>
<polygon fill="#191970" stroke="#191970" points="944.3125,-209.167 933.7244,-209.5432 942.2361,-215.852 944.3125,-209.167"/>
</g>
<!-- Node45&#45;&gt;Node5 -->
<g id="edge100" class="edge">
<title>Node45&#45;&gt;Node5</title>
<path fill="none" stroke="#191970" d="M1350.0689,-314.9605C1354.7755,-314.2748 1359.474,-313.6107 1364,-313 1432.7289,-303.7257 1625.413,-326.4872 1674,-277 1718.6827,-231.4894 1703.5023,-195.3304 1686,-134 1682.5413,-121.8801 1675.3178,-109.8316 1668.6078,-100.439"/>
<polygon fill="#191970" stroke="#191970" points="1671.2974,-98.193 1662.4714,-92.3318 1665.7159,-102.4177 1671.2974,-98.193"/>
</g>
<!-- Node45&#45;&gt;Node6 -->
<g id="edge101" class="edge">
<title>Node45&#45;&gt;Node6</title>
<path fill="none" stroke="#191970" d="M1350.0744,-315.0007C1354.7799,-314.3065 1359.4766,-313.6296 1364,-313 1428.1007,-304.0786 1610.1588,-325.509 1653,-277 1699.6195,-224.2129 1634.6659,-137.3448 1602.3633,-100.2196"/>
<polygon fill="#191970" stroke="#191970" points="1604.5647,-97.4292 1595.2981,-92.293 1599.3392,-102.0869 1604.5647,-97.4292"/>
</g>
<!-- Node45&#45;&gt;Node9 -->
<g id="edge67" class="edge">
<title>Node45&#45;&gt;Node9</title>
<path fill="none" stroke="#191970" d="M1300.4207,-313.3997C1303.4934,-288.54 1307.7687,-221.794 1271,-190 1224.5504,-149.8349 795.7231,-162.179 698.3531,-153.6357"/>
<polygon fill="#191970" stroke="#191970" points="698.4996,-150.13 688.1698,-152.4853 697.7137,-157.0858 698.4996,-150.13"/>
</g>
<!-- Node45&#45;&gt;Node10 -->
<g id="edge97" class="edge">
<title>Node45&#45;&gt;Node10</title>
<path fill="none" stroke="#191970" d="M1350.2125,-314.7107C1407.3164,-304.9681 1493.0261,-288.6539 1503,-277 1525.065,-251.2184 1520.5376,-146.4711 1517.5405,-102.2983"/>
<polygon fill="#191970" stroke="#191970" points="1521.0248,-101.9528 1516.8112,-92.2318 1514.0431,-102.4587 1521.0248,-101.9528"/>
</g>
<!-- Node45&#45;&gt;Node23 -->
<g id="edge99" class="edge">
<title>Node45&#45;&gt;Node23</title>
<path fill="none" stroke="#191970" d="M1247.8729,-321.5309C1076.2507,-316.4088 529.7369,-298.4767 499,-277 441.8084,-237.0386 437.145,-143.026 438.0044,-102.1047"/>
<polygon fill="#191970" stroke="#191970" points="441.5039,-102.1754 438.3541,-92.0597 434.5082,-101.9318 441.5039,-102.1754"/>
</g>
<!-- Node45&#45;&gt;Node32 -->
<g id="edge102" class="edge">
<title>Node45&#45;&gt;Node32</title>
<path fill="none" stroke="#191970" d="M1350.2457,-313.6957C1351.8476,-313.4539 1353.4354,-313.2213 1355,-313 1507.2092,-291.4743 1548.5031,-308.3322 1699,-277 1876.5193,-240.0419 1918.1824,-217.5687 2088,-154 2108.8784,-146.1845 2112.7458,-140.7265 2134,-134 2209.7056,-110.0408 2231.8467,-116.7817 2309,-98 2313.1207,-96.9969 2317.3989,-95.8966 2321.6671,-94.7595"/>
<polygon fill="#191970" stroke="#191970" points="2322.8036,-98.0774 2331.5292,-92.0679 2320.9605,-91.3244 2322.8036,-98.0774"/>
</g>
<!-- Node46 -->
<g id="node47" class="node">
<title>Node46</title>
<g id="a_node47"><a xlink:href="Wavefunction_8h.html" target="_top" xlink:title="Wavefunction.h">
<polygon fill="none" stroke="#000000" points="1550.5,-252 1550.5,-271 1643.5,-271 1643.5,-252 1550.5,-252"/>
<text text-anchor="middle" x="1597" y="-259" font-family="Helvetica,sans-Serif" font-size="10.00" fill="#000000">Wavefunction.h</text>
</a>
</g>
</g>
<!-- Node45&#45;&gt;Node46 -->
<g id="edge68" class="edge">
<title>Node45&#45;&gt;Node46</title>
<path fill="none" stroke="#191970" d="M1350.0295,-313.9662C1398.1448,-305.2427 1472.1945,-291.2863 1536,-277 1540.9382,-275.8943 1546.0861,-274.6814 1551.2062,-273.4363"/>
<polygon fill="#191970" stroke="#191970" points="1552.0903,-276.8231 1560.9556,-271.0217 1550.4075,-270.0284 1552.0903,-276.8231"/>
</g>
<!-- Node58 -->
<g id="node59" class="node">
<title>Node58</title>
<polygon fill="none" stroke="#bfbfbf" points="1324,-246.5 1324,-276.5 1494,-276.5 1494,-246.5 1324,-246.5"/>
<text text-anchor="start" x="1332" y="-264.5" font-family="Helvetica,sans-Serif" font-size="10.00" fill="#000000">wignerSymbols/wignerSymbols</text>
<text text-anchor="middle" x="1409" y="-253.5" font-family="Helvetica,sans-Serif" font-size="10.00" fill="#000000">&#45;cpp.h</text>
</g>
<!-- Node45&#45;&gt;Node58 -->
<g id="edge98" class="edge">
<title>Node45&#45;&gt;Node58</title>
<path fill="none" stroke="#191970" d="M1316.1875,-313.3906C1331.4193,-304.8747 1354.1503,-292.166 1373.304,-281.4573"/>
<polygon fill="#191970" stroke="#191970" points="1375.0705,-284.4796 1382.091,-276.5446 1371.6545,-278.3697 1375.0705,-284.4796"/>
</g>
<!-- Node46&#45;&gt;Node6 -->
<g id="edge95" class="edge">
<title>Node46&#45;&gt;Node6</title>
<path fill="none" stroke="#191970" d="M1601.4599,-251.8871C1605.9064,-241.7323 1612.4326,-225.1273 1615,-210 1621.6142,-171.0296 1605.8142,-126.0862 1595.0312,-101.3243"/>
<polygon fill="#191970" stroke="#191970" points="1598.1261,-99.675 1590.7971,-92.024 1591.7552,-102.5754 1598.1261,-99.675"/>
</g>
<!-- Node46&#45;&gt;Node10 -->
<g id="edge92" class="edge">
<title>Node46&#45;&gt;Node10</title>
<path fill="none" stroke="#191970" d="M1586.4712,-251.8262C1576.5148,-242.1374 1561.822,-226.3527 1553,-210 1533.9346,-174.6597 1523.6827,-128.3705 1519.0783,-102.4022"/>
<polygon fill="#191970" stroke="#191970" points="1522.4926,-101.5979 1517.395,-92.31 1515.588,-102.7496 1522.4926,-101.5979"/>
</g>
<!-- Node46&#45;&gt;Node16 -->
<g id="edge96" class="edge">
<title>Node46&#45;&gt;Node16</title>
<path fill="none" stroke="#191970" d="M1584.9379,-251.9404C1572.8844,-242.091 1554.1584,-225.9651 1540,-210 1488.3731,-151.785 1507.023,-104.7782 1439,-67 1401.1025,-45.9527 744.9541,-22.1053 586.9978,-16.6514"/>
<polygon fill="#191970" stroke="#191970" points="587.0267,-13.1504 576.9123,-16.3048 586.7862,-20.1463 587.0267,-13.1504"/>
</g>
<!-- Node46&#45;&gt;Node41 -->
<g id="edge93" class="edge">
<title>Node46&#45;&gt;Node41</title>
<path fill="none" stroke="#191970" d="M1550.1978,-253.4599C1476.7672,-240.8455 1336.2754,-216.7107 1272.2594,-205.7136"/>
<polygon fill="#191970" stroke="#191970" points="1272.7521,-202.247 1262.3039,-204.0033 1271.5669,-209.146 1272.7521,-202.247"/>
</g>
<!-- Node47 -->
<g id="node48" class="node">
<title>Node47</title>
<g id="a_node48"><a xlink:href="QuantumDefect_8h.html" target="_top" xlink:title="QuantumDefect.h">
<polygon fill="none" stroke="#000000" points="1776.5,-190.5 1776.5,-209.5 1879.5,-209.5 1879.5,-190.5 1776.5,-190.5"/>
<text text-anchor="middle" x="1828" y="-197.5" font-family="Helvetica,sans-Serif" font-size="10.00" fill="#000000">QuantumDefect.h</text>
</a>
</g>
</g>
<!-- Node46&#45;&gt;Node47 -->
<g id="edge69" class="edge">
<title>Node46&#45;&gt;Node47</title>
<path fill="none" stroke="#191970" d="M1632.8403,-251.9581C1673.0485,-241.2533 1738.3691,-223.8628 1782.2369,-212.1837"/>
<polygon fill="#191970" stroke="#191970" points="1783.3127,-215.5193 1792.0756,-209.5643 1781.5118,-208.7549 1783.3127,-215.5193"/>
</g>
<!-- Node57 -->
<g id="node58" class="node">
<title>Node57</title>
<polygon fill="none" stroke="#bfbfbf" points="1562,-190.5 1562,-209.5 1606,-209.5 1606,-190.5 1562,-190.5"/>
<text text-anchor="middle" x="1584" y="-197.5" font-family="Helvetica,sans-Serif" font-size="10.00" fill="#000000">limits</text>
</g>
<!-- Node46&#45;&gt;Node57 -->
<g id="edge94" class="edge">
<title>Node46&#45;&gt;Node57</title>
<path fill="none" stroke="#191970" d="M1594.9688,-251.8906C1593.1478,-243.276 1590.4198,-230.3708 1588.1401,-219.5858"/>
<polygon fill="#191970" stroke="#191970" points="1591.5524,-218.8048 1586.0599,-209.7449 1584.7038,-220.2525 1591.5524,-218.8048"/>
</g>
<!-- Node47&#45;&gt;Node6 -->
<g id="edge88" class="edge">
<title>Node47&#45;&gt;Node6</title>
<path fill="none" stroke="#191970" d="M1831.3351,-190.146C1835.4599,-175.9327 1840.4156,-149.6687 1827,-134 1765.4124,-62.0689 1706.9851,-127.4922 1617,-98 1615.3883,-97.4718 1613.7556,-96.8719 1612.1262,-96.2227"/>
<polygon fill="#191970" stroke="#191970" points="1613.5534,-93.0269 1602.9976,-92.1181 1610.6827,-99.4112 1613.5534,-93.0269"/>
</g>
<!-- Node47&#45;&gt;Node10 -->
<g id="edge86" class="edge">
<title>Node47&#45;&gt;Node10</title>
<path fill="none" stroke="#191970" d="M1810.0321,-190.4595C1783.4793,-176.6368 1731.9397,-150.8545 1686,-134 1629.314,-113.2028 1612.2536,-117.1794 1555,-98 1552.867,-97.2855 1550.6811,-96.5178 1548.4863,-95.7203"/>
<polygon fill="#191970" stroke="#191970" points="1549.5331,-92.3741 1538.9417,-92.1041 1547.053,-98.9201 1549.5331,-92.3741"/>
</g>
<!-- Node47&#45;&gt;Node17 -->
<g id="edge91" class="edge">
<title>Node47&#45;&gt;Node17</title>
<path fill="none" stroke="#191970" d="M1776.4274,-197.1291C1618.4661,-188.2637 1151.1243,-161.469 1137,-154 1115.0948,-142.4165 1098.9801,-118.1093 1089.8017,-101.0658"/>
<polygon fill="#191970" stroke="#191970" points="1092.8569,-99.3521 1085.2078,-92.0213 1086.6158,-102.5221 1092.8569,-99.3521"/>
</g>
<!-- Node47&#45;&gt;Node32 -->
<g id="edge90" class="edge">
<title>Node47&#45;&gt;Node32</title>
<path fill="none" stroke="#191970" d="M1879.715,-190.8754C1935.7819,-180.7262 2021.4773,-164.3942 2053,-154 2073.0171,-147.3997 2075.8729,-140.2568 2096,-134 2187.6815,-105.4996 2215.3271,-119.0516 2309,-98 2313.4206,-97.0065 2318.0145,-95.8742 2322.5791,-94.6842"/>
<polygon fill="#191970" stroke="#191970" points="2323.7054,-98.0054 2332.4464,-92.0183 2321.8797,-91.2477 2323.7054,-98.0054"/>
</g>
<!-- Node48 -->
<g id="node49" class="node">
<title>Node48</title>
<g id="a_node49"><a xlink:href="Cache_8h.html" target="_top" xlink:title="Cache.h">
<polygon fill="none" stroke="#000000" points="1988,-134.5 1988,-153.5 2044,-153.5 2044,-134.5 1988,-134.5"/>
<text text-anchor="middle" x="2016" y="-141.5" font-family="Helvetica,sans-Serif" font-size="10.00" fill="#000000">Cache.h</text>
</a>
</g>
</g>
<!-- Node47&#45;&gt;Node48 -->
<g id="edge70" class="edge">
<title>Node47&#45;&gt;Node48</title>
<path fill="none" stroke="#191970" d="M1860.3184,-190.3733C1892.9972,-180.6391 1943.483,-165.6008 1978.0456,-155.3056"/>
<polygon fill="#191970" stroke="#191970" points="1979.1983,-158.6143 1987.783,-152.4051 1977.1999,-151.9055 1979.1983,-158.6143"/>
</g>
<!-- Node49 -->
<g id="node50" class="node">
<title>Node49</title>
<polygon fill="none" stroke="#bfbfbf" points="2126,-73 2126,-92 2174,-92 2174,-73 2126,-73"/>
<text text-anchor="middle" x="2150" y="-80" font-family="Helvetica,sans-Serif" font-size="10.00" fill="#000000">mutex</text>
</g>
<!-- Node47&#45;&gt;Node49 -->
<g id="edge87" class="edge">
<title>Node47&#45;&gt;Node49</title>
<path fill="none" stroke="#191970" d="M1853.4371,-190.4656C1876.5411,-181.6129 1911.426,-167.7619 1941,-154 1958.3035,-145.948 1961.2051,-140.8985 1979,-134 2038.1003,-111.0887 2057.3952,-119.565 2117,-98 2118.5959,-97.4226 2120.2195,-96.7961 2121.8475,-96.1372"/>
<polygon fill="#191970" stroke="#191970" points="2123.2881,-99.3273 2131.0573,-92.1238 2120.4917,-92.9102 2123.2881,-99.3273"/>
</g>
<!-- Node47&#45;&gt;Node51 -->
<g id="edge74" class="edge">
<title>Node47&#45;&gt;Node51</title>
<path fill="none" stroke="#191970" d="M1841.064,-190.2455C1852.3562,-181.814 1868.8845,-169.4729 1882.0271,-159.6598"/>
<polygon fill="#191970" stroke="#191970" points="1884.1669,-162.4301 1890.0857,-153.6427 1879.9789,-156.8211 1884.1669,-162.4301"/>
</g>
<!-- Node56 -->
<g id="node57" class="node">
<title>Node56</title>
<polygon fill="none" stroke="#bfbfbf" points="1776.5,-134.5 1776.5,-153.5 1817.5,-153.5 1817.5,-134.5 1776.5,-134.5"/>
<text text-anchor="middle" x="1797" y="-141.5" font-family="Helvetica,sans-Serif" font-size="10.00" fill="#000000">tuple</text>
</g>
<!-- Node47&#45;&gt;Node56 -->
<g id="edge89" class="edge">
<title>Node47&#45;&gt;Node56</title>
<path fill="none" stroke="#191970" d="M1822.6002,-190.2455C1818.3773,-182.617 1812.3827,-171.7881 1807.2559,-162.5267"/>
<polygon fill="#191970" stroke="#191970" points="1810.2432,-160.6965 1802.3379,-153.6427 1804.119,-164.0867 1810.2432,-160.6965"/>
</g>
<!-- Node48&#45;&gt;Node32 -->
<g id="edge72" class="edge">
<title>Node48&#45;&gt;Node32</title>
<path fill="none" stroke="#191970" d="M2044.3909,-136.8693C2048.9279,-135.837 2053.582,-134.841 2058,-134 2168.7093,-112.9266 2198.7453,-121.3357 2309,-98 2313.4888,-97.0499 2318.1509,-95.9372 2322.777,-94.7517"/>
<polygon fill="#191970" stroke="#191970" points="2324.0129,-98.0441 2332.7661,-92.0748 2322.2009,-91.2827 2324.0129,-98.0441"/>
</g>
<!-- Node48&#45;&gt;Node49 -->
<g id="edge71" class="edge">
<title>Node48&#45;&gt;Node49</title>
<path fill="none" stroke="#191970" d="M2037.3135,-134.3804C2057.7774,-125.1236 2089.5446,-110.6996 2117,-98 2118.1633,-97.4619 2119.3491,-96.9119 2120.5465,-96.3554"/>
<polygon fill="#191970" stroke="#191970" points="2122.1936,-99.4491 2129.7732,-92.0463 2119.2315,-93.1066 2122.1936,-99.4491"/>
</g>
<!-- Node50 -->
<g id="node51" class="node">
<title>Node50</title>
<polygon fill="none" stroke="#bfbfbf" points="2192.5,-73 2192.5,-92 2299.5,-92 2299.5,-73 2192.5,-73"/>
<text text-anchor="middle" x="2246" y="-80" font-family="Helvetica,sans-Serif" font-size="10.00" fill="#000000">boost/optional.hpp</text>
</g>
<!-- Node48&#45;&gt;Node50 -->
<g id="edge73" class="edge">
<title>Node48&#45;&gt;Node50</title>
<path fill="none" stroke="#191970" d="M2044.2025,-136.4589C2083.2048,-126.03 2154.0518,-107.0861 2200.5691,-94.6478"/>
<polygon fill="#191970" stroke="#191970" points="2201.6371,-97.9853 2210.3936,-92.0208 2199.8288,-91.2229 2201.6371,-97.9853"/>
</g>
<!-- Node51&#45;&gt;Node5 -->
<g id="edge78" class="edge">
<title>Node51&#45;&gt;Node5</title>
<path fill="none" stroke="#191970" d="M1874.3347,-137.2605C1869.5511,-136.1568 1864.6377,-135.0361 1860,-134 1785.4754,-117.3509 1764.9693,-120.5076 1692,-98 1689.7022,-97.2912 1687.3497,-96.4999 1684.997,-95.6602"/>
<polygon fill="#191970" stroke="#191970" points="1686.054,-92.3174 1675.4632,-92.0228 1683.5587,-98.8576 1686.054,-92.3174"/>
</g>
<!-- Node51&#45;&gt;Node6 -->
<g id="edge79" class="edge">
<title>Node51&#45;&gt;Node6</title>
<path fill="none" stroke="#191970" d="M1874.3878,-137.0039C1869.5978,-135.9311 1864.6684,-134.8871 1860,-134 1752.7406,-113.6179 1721.1279,-130.8234 1617,-98 1615.3429,-97.4776 1613.6653,-96.8759 1611.9927,-96.2194"/>
<polygon fill="#191970" stroke="#191970" points="1613.2059,-92.9277 1602.6491,-92.0308 1610.3424,-99.3153 1613.2059,-92.9277"/>
</g>
<!-- Node51&#45;&gt;Node18 -->
<g id="edge75" class="edge">
<title>Node51&#45;&gt;Node18</title>
<path fill="none" stroke="#191970" d="M1874.1525,-140.0107C1859.9623,-138.0978 1842.5966,-135.8301 1827,-134 1672.1284,-115.8271 1632.1954,-121.2216 1478,-98 1465.6274,-96.1367 1452.2399,-93.6502 1440.1065,-91.2152"/>
<polygon fill="#191970" stroke="#191970" points="1440.7583,-87.7761 1430.2592,-89.1968 1439.3527,-94.6336 1440.7583,-87.7761"/>
</g>
<!-- Node51&#45;&gt;Node23 -->
<g id="edge76" class="edge">
<title>Node51&#45;&gt;Node23</title>
<path fill="none" stroke="#191970" d="M1874.2021,-139.5089C1860.0236,-137.4772 1842.6535,-135.2545 1827,-134 1279.1902,-90.0965 1139.3925,-133.8997 591,-98 552.6426,-95.489 509.0049,-90.854 478.3561,-87.3044"/>
<polygon fill="#191970" stroke="#191970" points="478.4267,-83.7887 468.0869,-86.0993 477.6108,-90.741 478.4267,-83.7887"/>
</g>
<!-- Node51&#45;&gt;Node33 -->
<g id="edge85" class="edge">
<title>Node51&#45;&gt;Node33</title>
<path fill="none" stroke="#191970" d="M1874.4368,-135.3438C1845.8058,-126.5121 1800.5609,-112.1337 1762,-98 1760.1436,-97.3196 1758.2432,-96.6045 1756.33,-95.8704"/>
<polygon fill="#191970" stroke="#191970" points="1757.3906,-92.5263 1746.8039,-92.1121 1754.8216,-99.0379 1757.3906,-92.5263"/>
</g>
<!-- Node51&#45;&gt;Node37 -->
<g id="edge77" class="edge">
<title>Node51&#45;&gt;Node37</title>
<path fill="none" stroke="#191970" d="M1874.2632,-135.0765C1846.867,-125.919 1808.5522,-111.1857 1800,-98 1792.5027,-86.4407 1793.5448,-79.172 1800,-67 1805.4474,-56.7284 1829.3696,-41.4379 1848.9398,-30.1851"/>
<polygon fill="#191970" stroke="#191970" points="1850.8278,-33.1386 1857.8197,-25.1785 1847.3899,-27.041 1850.8278,-33.1386"/>
</g>
<!-- Node51&#45;&gt;Node38 -->
<g id="edge81" class="edge">
<title>Node51&#45;&gt;Node38</title>
<path fill="none" stroke="#191970" d="M1877.115,-134.4647C1861.2773,-127.1252 1842.3206,-115.2779 1833,-98 1826.4587,-85.8741 1825.3674,-78.4704 1833,-67 1838.1214,-59.3035 1884.738,-41.1616 1919.0738,-28.6056"/>
<polygon fill="#191970" stroke="#191970" points="1920.6241,-31.7664 1928.8311,-25.066 1918.237,-25.186 1920.6241,-31.7664"/>
</g>
<!-- Node52 -->
<g id="node53" class="node">
<title>Node52</title>
<polygon fill="none" stroke="#bfbfbf" points="1842,-73 1842,-92 1890,-92 1890,-73 1842,-73"/>
<text text-anchor="middle" x="1866" y="-80" font-family="Helvetica,sans-Serif" font-size="10.00" fill="#000000">thread</text>
</g>
<!-- Node51&#45;&gt;Node52 -->
<g id="edge80" class="edge">
<title>Node51&#45;&gt;Node52</title>
<path fill="none" stroke="#191970" d="M1897.2188,-134.3906C1891.874,-125.5068 1883.7841,-112.0601 1877.1789,-101.0811"/>
<polygon fill="#191970" stroke="#191970" points="1880.0171,-99.0093 1871.8628,-92.2449 1874.0189,-102.618 1880.0171,-99.0093"/>
</g>
<!-- Node53 -->
<g id="node54" class="node">
<title>Node53</title>
<polygon fill="none" stroke="#bfbfbf" points="1908,-67.5 1908,-97.5 2030,-97.5 2030,-67.5 1908,-67.5"/>
<text text-anchor="start" x="1916" y="-85.5" font-family="Helvetica,sans-Serif" font-size="10.00" fill="#000000">boost/iterator/iterator</text>
<text text-anchor="middle" x="1969" y="-74.5" font-family="Helvetica,sans-Serif" font-size="10.00" fill="#000000">_facade.hpp</text>
</g>
<!-- Node51&#45;&gt;Node53 -->
<g id="edge82" class="edge">
<title>Node51&#45;&gt;Node53</title>
<path fill="none" stroke="#191970" d="M1913.3125,-134.3906C1921.914,-126.3756 1934.5012,-114.6466 1945.5334,-104.3666"/>
<polygon fill="#191970" stroke="#191970" points="1947.9245,-106.9225 1952.8546,-97.5446 1943.1524,-101.8012 1947.9245,-106.9225"/>
</g>
<!-- Node54 -->
<g id="node55" class="node">
<title>Node54</title>
<polygon fill="none" stroke="#bfbfbf" points="2048.5,-73 2048.5,-92 2107.5,-92 2107.5,-73 2048.5,-73"/>
<text text-anchor="middle" x="2078" y="-80" font-family="Helvetica,sans-Serif" font-size="10.00" fill="#000000">sqlite3.h</text>
</g>
<!-- Node51&#45;&gt;Node54 -->
<g id="edge83" class="edge">
<title>Node51&#45;&gt;Node54</title>
<path fill="none" stroke="#191970" d="M1931.5434,-134.8254C1959.1673,-125.8335 2002.153,-111.5432 2039,-98 2040.8977,-97.3025 2042.8423,-96.5741 2044.8013,-95.8296"/>
<polygon fill="#191970" stroke="#191970" points="2046.5077,-98.9219 2054.5656,-92.043 2043.9767,-92.3955 2046.5077,-98.9219"/>
</g>
<!-- Node51&#45;&gt;Node55 -->
<g id="edge84" class="edge">
<title>Node51&#45;&gt;Node55</title>
<path fill="none" stroke="#191970" d="M1931.8312,-139.8656C1946.0176,-137.9183 1963.3847,-135.6637 1979,-134 2174.5453,-113.1666 2230.6069,-150.9364 2420,-98 2421.7132,-97.5212 2423.4441,-96.9462 2425.1658,-96.3037"/>
<polygon fill="#191970" stroke="#191970" points="2426.9991,-99.3206 2434.7381,-92.0847 2424.1759,-92.9152 2426.9991,-99.3206"/>
</g>
</g>
</svg>
