<?xml version="1.0" encoding="UTF-8" standalone="no"?>
<!DOCTYPE svg PUBLIC "-//W3C//DTD SVG 1.1//EN"
 "http://www.w3.org/Graphics/SVG/1.1/DTD/svg11.dtd">
<!-- Generated by graphviz version 2.40.1 (20161225.0304)
 -->
<!-- Title: /travis/pairinteraction/Hamiltonian.h Pages: 1 -->
<svg width="1938pt" height="341pt"
 viewBox="0.00 0.00 1937.52 341.00" xmlns="http://www.w3.org/2000/svg" xmlns:xlink="http://www.w3.org/1999/xlink">
<g id="graph0" class="graph" transform="scale(1 1) rotate(0) translate(4 337)">
<title>/travis/pairinteraction/Hamiltonian.h</title>
<!-- Node0 -->
<g id="node1" class="node">
<title>Node0</title>
<polygon fill="#bfbfbf" stroke="#000000" points="1472.5205,-302.5 1472.5205,-332.5 1594.5205,-332.5 1594.5205,-302.5 1472.5205,-302.5"/>
<text text-anchor="start" x="1480.5205" y="-320.5" font-family="Helvetica,sans-Serif" font-size="10.00" fill="#000000">/travis/pairinteraction</text>
<text text-anchor="middle" x="1533.5205" y="-309.5" font-family="Helvetica,sans-Serif" font-size="10.00" fill="#000000">/Hamiltonian.h</text>
</g>
<!-- Node1 -->
<g id="node2" class="node">
<title>Node1</title>
<g id="a_node2"><a xlink:href="Hamiltonianmatrix_8h.html" target="_top" xlink:title="Hamiltonianmatrix.h">
<polygon fill="none" stroke="#000000" points="1078.5205,-246.5 1078.5205,-265.5 1196.5205,-265.5 1196.5205,-246.5 1078.5205,-246.5"/>
<text text-anchor="middle" x="1137.5205" y="-253.5" font-family="Helvetica,sans-Serif" font-size="10.00" fill="#000000">Hamiltonianmatrix.h</text>
</a>
</g>
</g>
<!-- Node0&#45;&gt;Node1 -->
<g id="edge1" class="edge">
<title>Node0&#45;&gt;Node1</title>
<path fill="none" stroke="#191970" d="M1472.5133,-308.0254C1400.8189,-296.891 1282.1224,-278.4571 1206.9623,-266.7845"/>
<polygon fill="#191970" stroke="#191970" points="1207.0739,-263.26 1196.6552,-265.1838 1205.9996,-270.1771 1207.0739,-263.26"/>
</g>
<!-- Node16 -->
<g id="node17" class="node">
<title>Node16</title>
<polygon fill="none" stroke="#bfbfbf" points="1353.0205,-6 1353.0205,-25 1400.0205,-25 1400.0205,-6 1353.0205,-6"/>
<text text-anchor="middle" x="1376.5205" y="-13" font-family="Helvetica,sans-Serif" font-size="10.00" fill="#000000">vector</text>
</g>
<!-- Node0&#45;&gt;Node16 -->
<g id="edge56" class="edge">
<title>Node0&#45;&gt;Node16</title>
<path fill="none" stroke="#191970" d="M1594.5276,-312.1386C1705.6088,-300.6805 1929.5205,-269.0234 1929.5205,-200 1929.5205,-200 1929.5205,-200 1929.5205,-144 1929.5205,-36.8415 1530.5745,-19.0138 1410.3842,-16.0743"/>
<polygon fill="#191970" stroke="#191970" points="1410.3585,-12.573 1400.2822,-15.8468 1410.2008,-19.5712 1410.3585,-12.573"/>
</g>
<!-- Node2 -->
<g id="node3" class="node">
<title>Node2</title>
<g id="a_node3"><a xlink:href="Basisnames_8h.html" target="_top" xlink:title="Basisnames.h">
<polygon fill="none" stroke="#000000" points="630.0205,-190.5 630.0205,-209.5 715.0205,-209.5 715.0205,-190.5 630.0205,-190.5"/>
<text text-anchor="middle" x="672.5205" y="-197.5" font-family="Helvetica,sans-Serif" font-size="10.00" fill="#000000">Basisnames.h</text>
</a>
</g>
</g>
<!-- Node1&#45;&gt;Node2 -->
<g id="edge2" class="edge">
<title>Node1&#45;&gt;Node2</title>
<path fill="none" stroke="#191970" d="M1078.1556,-248.8507C986.6579,-237.8316 812.6289,-216.8733 725.2906,-206.3551"/>
<polygon fill="#191970" stroke="#191970" points="725.6814,-202.877 715.3346,-205.1561 724.8444,-209.8268 725.6814,-202.877"/>
</g>
<!-- Node9 -->
<g id="node10" class="node">
<title>Node9</title>
<g id="a_node10"><a xlink:href="StateOld_8h.html" target="_top" xlink:title="StateOld.h">
<polygon fill="none" stroke="#000000" points="711.5205,-134.5 711.5205,-153.5 779.5205,-153.5 779.5205,-134.5 711.5205,-134.5"/>
<text text-anchor="middle" x="745.5205" y="-141.5" font-family="Helvetica,sans-Serif" font-size="10.00" fill="#000000">StateOld.h</text>
</a>
</g>
</g>
<!-- Node1&#45;&gt;Node9 -->
<g id="edge40" class="edge">
<title>Node1&#45;&gt;Node9</title>
<path fill="none" stroke="#191970" d="M1078.42,-251.3092C1023.2078,-245.6629 939.0905,-233.7947 869.5205,-210 832.0769,-197.1934 792.2803,-174.1043 768.158,-158.9136"/>
<polygon fill="#191970" stroke="#191970" points="770.0282,-155.9552 759.7179,-153.5163 766.257,-161.8524 770.0282,-155.9552"/>
</g>
<!-- Node10 -->
<g id="node11" class="node">
<title>Node10</title>
<g id="a_node11"><a xlink:href="dtypes_8h.html" target="_top" xlink:title="dtypes.h">
<polygon fill="none" stroke="#000000" points="1039.0205,-73 1039.0205,-92 1098.0205,-92 1098.0205,-73 1039.0205,-73"/>
<text text-anchor="middle" x="1068.5205" y="-80" font-family="Helvetica,sans-Serif" font-size="10.00" fill="#000000">dtypes.h</text>
</a>
</g>
</g>
<!-- Node1&#45;&gt;Node10 -->
<g id="edge41" class="edge">
<title>Node1&#45;&gt;Node10</title>
<path fill="none" stroke="#191970" d="M1085.3283,-246.4354C1052.6362,-239.1891 1010.2677,-227.455 975.5205,-210 938.9805,-191.6444 920.6086,-190.6731 902.5205,-154 865.8299,-79.6108 965.2408,-119.8205 1029.5205,-98 1031.6506,-97.2769 1033.8342,-96.5027 1036.0274,-95.7004"/>
<polygon fill="#191970" stroke="#191970" points="1037.4649,-98.8984 1045.5682,-92.0729 1034.9772,-92.3553 1037.4649,-98.8984"/>
</g>
<!-- Node14 -->
<g id="node15" class="node">
<title>Node14</title>
<polygon fill="none" stroke="#bfbfbf" points="338.0205,-6 338.0205,-25 385.0205,-25 385.0205,-6 338.0205,-6"/>
<text text-anchor="middle" x="361.5205" y="-13" font-family="Helvetica,sans-Serif" font-size="10.00" fill="#000000">cmath</text>
</g>
<!-- Node1&#45;&gt;Node14 -->
<g id="edge49" class="edge">
<title>Node1&#45;&gt;Node14</title>
<path fill="none" stroke="#191970" d="M1078.3092,-252.5501C854.7745,-238.8932 71.5381,-185.0761 6.5205,-98 -1.7227,-86.9602 -2.4955,-77.4183 6.5205,-67 27.4535,-42.8111 243.4574,-24.276 327.9254,-17.9006"/>
<polygon fill="#191970" stroke="#191970" points="328.3033,-21.3823 338.016,-17.1499 327.7839,-14.4016 328.3033,-21.3823"/>
</g>
<!-- Node1&#45;&gt;Node16 -->
<g id="edge55" class="edge">
<title>Node1&#45;&gt;Node16</title>
<path fill="none" stroke="#191970" d="M1196.6943,-252.3839C1363.874,-241.5465 1830.3632,-206.7851 1872.5205,-154 1933.3142,-77.8802 1531.1811,-30.9926 1410.2105,-18.7287"/>
<polygon fill="#191970" stroke="#191970" points="1410.3447,-15.2247 1400.0462,-17.713 1409.6486,-22.19 1410.3447,-15.2247"/>
</g>
<!-- Node23 -->
<g id="node24" class="node">
<title>Node23</title>
<polygon fill="none" stroke="#bfbfbf" points="911.5205,-134.5 911.5205,-153.5 969.5205,-153.5 969.5205,-134.5 911.5205,-134.5"/>
<text text-anchor="middle" x="940.5205" y="-141.5" font-family="Helvetica,sans-Serif" font-size="10.00" fill="#000000">memory</text>
</g>
<!-- Node1&#45;&gt;Node23 -->
<g id="edge53" class="edge">
<title>Node1&#45;&gt;Node23</title>
<path fill="none" stroke="#191970" d="M1091.1872,-246.4366C1063.6172,-239.3097 1028.8091,-227.7018 1001.5205,-210 982.0083,-197.3427 964.5373,-177.0485 953.346,-162.3024"/>
<polygon fill="#191970" stroke="#191970" points="955.9623,-159.9514 947.2271,-153.9557 950.3167,-164.09 955.9623,-159.9514"/>
</g>
<!-- Node26 -->
<g id="node27" class="node">
<title>Node26</title>
<g id="a_node27"><a xlink:href="Serializable_8h.html" target="_top" xlink:title="Serializable.h">
<polygon fill="none" stroke="#000000" points="1011.0205,-190.5 1011.0205,-209.5 1094.0205,-209.5 1094.0205,-190.5 1011.0205,-190.5"/>
<text text-anchor="middle" x="1052.5205" y="-197.5" font-family="Helvetica,sans-Serif" font-size="10.00" fill="#000000">Serializable.h</text>
</a>
</g>
</g>
<!-- Node1&#45;&gt;Node26 -->
<g id="edge32" class="edge">
<title>Node1&#45;&gt;Node26</title>
<path fill="none" stroke="#191970" d="M1122.7146,-246.2455C1109.7949,-237.7337 1090.8274,-225.2375 1075.8652,-215.3801"/>
<polygon fill="#191970" stroke="#191970" points="1077.4329,-212.2216 1067.1567,-209.6427 1073.5817,-218.067 1077.4329,-212.2216"/>
</g>
<!-- Node31 -->
<g id="node32" class="node">
<title>Node31</title>
<g id="a_node32"><a xlink:href="utils_8h.html" target="_top" xlink:title="utils.h">
<polygon fill="none" stroke="#000000" points="1569.0205,-190.5 1569.0205,-209.5 1616.0205,-209.5 1616.0205,-190.5 1569.0205,-190.5"/>
<text text-anchor="middle" x="1592.5205" y="-197.5" font-family="Helvetica,sans-Serif" font-size="10.00" fill="#000000">utils.h</text>
</a>
</g>
</g>
<!-- Node1&#45;&gt;Node31 -->
<g id="edge42" class="edge">
<title>Node1&#45;&gt;Node31</title>
<path fill="none" stroke="#191970" d="M1196.5373,-248.7364C1292.9908,-236.8652 1481.3687,-213.6802 1558.4279,-204.196"/>
<polygon fill="#191970" stroke="#191970" points="1559.0438,-207.6467 1568.5414,-202.9513 1558.1887,-200.6991 1559.0438,-207.6467"/>
</g>
<!-- Node38 -->
<g id="node39" class="node">
<title>Node38</title>
<polygon fill="none" stroke="#bfbfbf" points="1112.5205,-190.5 1112.5205,-209.5 1162.5205,-209.5 1162.5205,-190.5 1112.5205,-190.5"/>
<text text-anchor="middle" x="1137.5205" y="-197.5" font-family="Helvetica,sans-Serif" font-size="10.00" fill="#000000">cstdint</text>
</g>
<!-- Node1&#45;&gt;Node38 -->
<g id="edge50" class="edge">
<title>Node1&#45;&gt;Node38</title>
<path fill="none" stroke="#191970" d="M1137.5205,-246.2455C1137.5205,-238.9382 1137.5205,-228.6944 1137.5205,-219.7046"/>
<polygon fill="#191970" stroke="#191970" points="1141.0206,-219.6426 1137.5205,-209.6427 1134.0206,-219.6427 1141.0206,-219.6426"/>
</g>
<!-- Node39 -->
<g id="node40" class="node">
<title>Node39</title>
<polygon fill="none" stroke="#bfbfbf" points="1180.5205,-190.5 1180.5205,-209.5 1226.5205,-209.5 1226.5205,-190.5 1180.5205,-190.5"/>
<text text-anchor="middle" x="1203.5205" y="-197.5" font-family="Helvetica,sans-Serif" font-size="10.00" fill="#000000">cstdio</text>
</g>
<!-- Node1&#45;&gt;Node39 -->
<g id="edge51" class="edge">
<title>Node1&#45;&gt;Node39</title>
<path fill="none" stroke="#191970" d="M1149.0168,-246.2455C1158.7647,-237.9746 1172.9464,-225.9416 1184.4002,-216.2232"/>
<polygon fill="#191970" stroke="#191970" points="1186.7952,-218.7813 1192.1559,-209.6427 1182.2663,-213.4437 1186.7952,-218.7813"/>
</g>
<!-- Node40 -->
<g id="node41" class="node">
<title>Node40</title>
<polygon fill="none" stroke="#bfbfbf" points="1245.0205,-190.5 1245.0205,-209.5 1310.0205,-209.5 1310.0205,-190.5 1245.0205,-190.5"/>
<text text-anchor="middle" x="1277.5205" y="-197.5" font-family="Helvetica,sans-Serif" font-size="10.00" fill="#000000">exception</text>
</g>
<!-- Node1&#45;&gt;Node40 -->
<g id="edge52" class="edge">
<title>Node1&#45;&gt;Node40</title>
<path fill="none" stroke="#191970" d="M1161.5873,-246.3733C1184.3633,-237.2629 1218.7549,-223.5062 1244.1695,-213.3404"/>
<polygon fill="#191970" stroke="#191970" points="1245.7828,-216.4648 1253.7677,-209.5011 1243.183,-209.9654 1245.7828,-216.4648"/>
</g>
<!-- Node41 -->
<g id="node42" class="node">
<title>Node41</title>
<polygon fill="none" stroke="#bfbfbf" points="1328.0205,-190.5 1328.0205,-209.5 1393.0205,-209.5 1393.0205,-190.5 1328.0205,-190.5"/>
<text text-anchor="middle" x="1360.5205" y="-197.5" font-family="Helvetica,sans-Serif" font-size="10.00" fill="#000000">stdexcept</text>
</g>
<!-- Node1&#45;&gt;Node41 -->
<g id="edge54" class="edge">
<title>Node1&#45;&gt;Node41</title>
<path fill="none" stroke="#191970" d="M1175.6021,-246.4369C1215.1352,-236.5093 1276.8347,-221.0153 1317.9526,-210.6897"/>
<polygon fill="#191970" stroke="#191970" points="1318.8333,-214.0773 1327.6797,-208.247 1317.1284,-207.2881 1318.8333,-214.0773"/>
</g>
<!-- Node3 -->
<g id="node4" class="node">
<title>Node3</title>
<g id="a_node4"><a xlink:href="ConfParser_8h.html" target="_top" xlink:title="ConfParser.h">
<polygon fill="none" stroke="#000000" points="205.0205,-134.5 205.0205,-153.5 282.0205,-153.5 282.0205,-134.5 205.0205,-134.5"/>
<text text-anchor="middle" x="243.5205" y="-141.5" font-family="Helvetica,sans-Serif" font-size="10.00" fill="#000000">ConfParser.h</text>
</a>
</g>
</g>
<!-- Node2&#45;&gt;Node3 -->
<g id="edge3" class="edge">
<title>Node2&#45;&gt;Node3</title>
<path fill="none" stroke="#191970" d="M629.8179,-194.4258C549.659,-183.9621 377.1248,-161.4402 292.4375,-150.3854"/>
<polygon fill="#191970" stroke="#191970" points="292.6813,-146.8877 282.3124,-149.0637 291.7752,-153.8288 292.6813,-146.8877"/>
</g>
<!-- Node6 -->
<g id="node7" class="node">
<title>Node6</title>
<polygon fill="none" stroke="#bfbfbf" points="289.5205,-73 289.5205,-92 333.5205,-92 333.5205,-73 289.5205,-73"/>
<text text-anchor="middle" x="311.5205" y="-80" font-family="Helvetica,sans-Serif" font-size="10.00" fill="#000000">string</text>
</g>
<!-- Node2&#45;&gt;Node6 -->
<g id="edge29" class="edge">
<title>Node2&#45;&gt;Node6</title>
<path fill="none" stroke="#191970" d="M629.8626,-197.9754C577.3891,-194.2444 486.4318,-183.696 414.5205,-154 381.9212,-140.538 349.3279,-115.4757 329.7912,-98.8894"/>
<polygon fill="#191970" stroke="#191970" points="331.8658,-96.0557 322.018,-92.1478 327.2794,-101.3439 331.8658,-96.0557"/>
</g>
<!-- Node8 -->
<g id="node9" class="node">
<title>Node8</title>
<g id="a_node9"><a xlink:href="Iter_8h.html" target="_top" xlink:title="Iter.h">
<polygon fill="none" stroke="#000000" points="652.0205,-134.5 652.0205,-153.5 693.0205,-153.5 693.0205,-134.5 652.0205,-134.5"/>
<text text-anchor="middle" x="672.5205" y="-141.5" font-family="Helvetica,sans-Serif" font-size="10.00" fill="#000000">Iter.h</text>
</a>
</g>
</g>
<!-- Node2&#45;&gt;Node8 -->
<g id="edge8" class="edge">
<title>Node2&#45;&gt;Node8</title>
<path fill="none" stroke="#191970" d="M672.5205,-190.2455C672.5205,-182.9382 672.5205,-172.6944 672.5205,-163.7046"/>
<polygon fill="#191970" stroke="#191970" points="676.0206,-163.6426 672.5205,-153.6427 669.0206,-163.6427 676.0206,-163.6426"/>
</g>
<!-- Node2&#45;&gt;Node9 -->
<g id="edge9" class="edge">
<title>Node2&#45;&gt;Node9</title>
<path fill="none" stroke="#191970" d="M685.2361,-190.2455C696.1225,-181.8943 712.0087,-169.7076 724.7405,-159.9408"/>
<polygon fill="#191970" stroke="#191970" points="727.1465,-162.5063 732.9505,-153.6427 722.8859,-156.9523 727.1465,-162.5063"/>
</g>
<!-- Node2&#45;&gt;Node10 -->
<g id="edge25" class="edge">
<title>Node2&#45;&gt;Node10</title>
<path fill="none" stroke="#191970" d="M698.0378,-190.3687C721.6576,-181.3386 757.6761,-167.2757 788.5205,-154 807.8805,-145.6673 811.4326,-140.3816 831.5205,-134 916.7649,-106.9189 943.5382,-122.6384 1029.5205,-98 1031.9719,-97.2975 1034.482,-96.4974 1036.9889,-95.6395"/>
<polygon fill="#191970" stroke="#191970" points="1038.3396,-98.8719 1046.5111,-92.1283 1035.9178,-92.3042 1038.3396,-98.8719"/>
</g>
<!-- Node2&#45;&gt;Node16 -->
<g id="edge31" class="edge">
<title>Node2&#45;&gt;Node16</title>
<path fill="none" stroke="#191970" d="M704.1023,-190.4925C757.7019,-174.4318 864.372,-142.814 902.5205,-134 992.2249,-113.2743 1016.9965,-119.4918 1106.5205,-98 1193.022,-77.2338 1292.5817,-44.4452 1343.2051,-27.1191"/>
<polygon fill="#191970" stroke="#191970" points="1344.6328,-30.3294 1352.9508,-23.7673 1342.3562,-23.7099 1344.6328,-30.3294"/>
</g>
<!-- Node22 -->
<g id="node23" class="node">
<title>Node22</title>
<polygon fill="none" stroke="#bfbfbf" points="424.0205,-134.5 424.0205,-153.5 479.0205,-153.5 479.0205,-134.5 424.0205,-134.5"/>
<text text-anchor="middle" x="451.5205" y="-141.5" font-family="Helvetica,sans-Serif" font-size="10.00" fill="#000000">fstream</text>
</g>
<!-- Node2&#45;&gt;Node22 -->
<g id="edge26" class="edge">
<title>Node2&#45;&gt;Node22</title>
<path fill="none" stroke="#191970" d="M633.3412,-190.4337C598.1652,-181.7939 544.8591,-168.576 489.3959,-154.1943"/>
<polygon fill="#191970" stroke="#191970" points="489.9447,-150.7207 479.3857,-151.5919 488.1834,-157.4955 489.9447,-150.7207"/>
</g>
<!-- Node2&#45;&gt;Node23 -->
<g id="edge27" class="edge">
<title>Node2&#45;&gt;Node23</title>
<path fill="none" stroke="#191970" d="M715.2822,-191.0647C766.468,-180.3692 851.4783,-162.6058 901.1246,-152.232"/>
<polygon fill="#191970" stroke="#191970" points="902.0842,-155.6071 911.1569,-150.1357 900.6524,-148.7551 902.0842,-155.6071"/>
</g>
<!-- Node24 -->
<g id="node25" class="node">
<title>Node24</title>
<polygon fill="none" stroke="#bfbfbf" points="497.5205,-134.5 497.5205,-153.5 529.5205,-153.5 529.5205,-134.5 497.5205,-134.5"/>
<text text-anchor="middle" x="513.5205" y="-141.5" font-family="Helvetica,sans-Serif" font-size="10.00" fill="#000000">set</text>
</g>
<!-- Node2&#45;&gt;Node24 -->
<g id="edge28" class="edge">
<title>Node2&#45;&gt;Node24</title>
<path fill="none" stroke="#191970" d="M643.3576,-190.4546C618.0285,-182.0619 580.1729,-169.275 539.006,-154.0653"/>
<polygon fill="#191970" stroke="#191970" points="540.2056,-150.7773 529.6127,-150.5737 537.7666,-157.3387 540.2056,-150.7773"/>
</g>
<!-- Node25 -->
<g id="node26" class="node">
<title>Node25</title>
<polygon fill="none" stroke="#bfbfbf" points="547.5205,-134.5 547.5205,-153.5 633.5205,-153.5 633.5205,-134.5 547.5205,-134.5"/>
<text text-anchor="middle" x="590.5205" y="-141.5" font-family="Helvetica,sans-Serif" font-size="10.00" fill="#000000">unordered_set</text>
</g>
<!-- Node2&#45;&gt;Node25 -->
<g id="edge30" class="edge">
<title>Node2&#45;&gt;Node25</title>
<path fill="none" stroke="#191970" d="M658.2371,-190.2455C645.7734,-181.7337 627.4753,-169.2375 613.0413,-159.3801"/>
<polygon fill="#191970" stroke="#191970" points="614.872,-156.392 604.6401,-153.6427 610.9242,-162.1726 614.872,-156.392"/>
</g>
<!-- Node4 -->
<g id="node5" class="node">
<title>Node4</title>
<polygon fill="none" stroke="#bfbfbf" points="159.5205,-73 159.5205,-92 197.5205,-92 197.5205,-73 159.5205,-73"/>
<text text-anchor="middle" x="178.5205" y="-80" font-family="Helvetica,sans-Serif" font-size="10.00" fill="#000000">map</text>
</g>
<!-- Node3&#45;&gt;Node4 -->
<g id="edge4" class="edge">
<title>Node3&#45;&gt;Node4</title>
<path fill="none" stroke="#191970" d="M233.3642,-134.3906C223.5005,-125.0581 208.3149,-110.6902 196.4218,-99.4374"/>
<polygon fill="#191970" stroke="#191970" points="198.4893,-96.5753 188.8199,-92.2449 193.6784,-101.6601 198.4893,-96.5753"/>
</g>
<!-- Node5 -->
<g id="node6" class="node">
<title>Node5</title>
<polygon fill="none" stroke="#bfbfbf" points="215.5205,-73 215.5205,-92 271.5205,-92 271.5205,-73 215.5205,-73"/>
<text text-anchor="middle" x="243.5205" y="-80" font-family="Helvetica,sans-Serif" font-size="10.00" fill="#000000">sstream</text>
</g>
<!-- Node3&#45;&gt;Node5 -->
<g id="edge5" class="edge">
<title>Node3&#45;&gt;Node5</title>
<path fill="none" stroke="#191970" d="M243.5205,-134.3906C243.5205,-125.8657 243.5205,-113.1392 243.5205,-102.4235"/>
<polygon fill="#191970" stroke="#191970" points="247.0206,-102.2448 243.5205,-92.2449 240.0206,-102.2449 247.0206,-102.2448"/>
</g>
<!-- Node3&#45;&gt;Node6 -->
<g id="edge6" class="edge">
<title>Node3&#45;&gt;Node6</title>
<path fill="none" stroke="#191970" d="M254.1455,-134.3906C264.5636,-124.9683 280.6569,-110.4134 293.1509,-99.1137"/>
<polygon fill="#191970" stroke="#191970" points="295.6767,-101.5484 300.7457,-92.2449 290.9813,-96.3568 295.6767,-101.5484"/>
</g>
<!-- Node7 -->
<g id="node8" class="node">
<title>Node7</title>
<polygon fill="none" stroke="#bfbfbf" points="16.0205,-73 16.0205,-92 141.0205,-92 141.0205,-73 16.0205,-73"/>
<text text-anchor="middle" x="78.5205" y="-80" font-family="Helvetica,sans-Serif" font-size="10.00" fill="#000000">boost/lexical_cast.hpp</text>
</g>
<!-- Node3&#45;&gt;Node7 -->
<g id="edge7" class="edge">
<title>Node3&#45;&gt;Node7</title>
<path fill="none" stroke="#191970" d="M217.7392,-134.3906C189.7684,-123.9652 144.9386,-107.2559 113.7345,-95.6252"/>
<polygon fill="#191970" stroke="#191970" points="114.7134,-92.2549 104.1207,-92.0419 112.2685,-98.8141 114.7134,-92.2549"/>
</g>
<!-- Node9&#45;&gt;Node6 -->
<g id="edge21" class="edge">
<title>Node9&#45;&gt;Node6</title>
<path fill="none" stroke="#191970" d="M711.4914,-135.8345C708.1331,-135.1586 704.7673,-134.532 701.5205,-134 545.4568,-108.4282 500.5929,-137.7316 347.5205,-98 345.1864,-97.3942 342.8087,-96.659 340.4441,-95.842"/>
<polygon fill="#191970" stroke="#191970" points="341.5321,-92.5098 330.9436,-92.1439 338.9929,-99.033 341.5321,-92.5098"/>
</g>
<!-- Node9&#45;&gt;Node10 -->
<g id="edge10" class="edge">
<title>Node9&#45;&gt;Node10</title>
<path fill="none" stroke="#191970" d="M779.5647,-136.6706C784.2458,-135.7321 788.9968,-134.8156 793.5205,-134 897.939,-115.1731 927.1174,-125.7722 1029.5205,-98 1032.1333,-97.2914 1034.8092,-96.462 1037.4749,-95.5617"/>
<polygon fill="#191970" stroke="#191970" points="1038.7727,-98.8137 1046.9528,-92.0805 1036.3592,-92.2429 1038.7727,-98.8137"/>
</g>
<!-- Node13 -->
<g id="node14" class="node">
<title>Node13</title>
<polygon fill="none" stroke="#bfbfbf" points="606.5205,-6 606.5205,-25 648.5205,-25 648.5205,-6 606.5205,-6"/>
<text text-anchor="middle" x="627.5205" y="-13" font-family="Helvetica,sans-Serif" font-size="10.00" fill="#000000">array</text>
</g>
<!-- Node9&#45;&gt;Node13 -->
<g id="edge17" class="edge">
<title>Node9&#45;&gt;Node13</title>
<path fill="none" stroke="#191970" d="M711.4769,-135.9201C708.1215,-135.2269 704.7604,-134.5729 701.5205,-134 639.0931,-122.9621 460.4242,-145.5719 418.5205,-98 366.5261,-38.9725 526.1175,-21.7482 596.2271,-17.0951"/>
<polygon fill="#191970" stroke="#191970" points="596.5112,-20.5843 606.2761,-16.4739 596.0792,-13.5976 596.5112,-20.5843"/>
</g>
<!-- Node9&#45;&gt;Node14 -->
<g id="edge19" class="edge">
<title>Node9&#45;&gt;Node14</title>
<path fill="none" stroke="#191970" d="M711.4804,-135.9C708.1243,-135.2109 704.762,-134.5633 701.5205,-134 636.0189,-122.6179 459.185,-135.8389 404.5205,-98 383.1058,-83.1767 371.6082,-54.2952 366.0309,-34.9467"/>
<polygon fill="#191970" stroke="#191970" points="369.3684,-33.8745 363.4583,-25.0812 362.5949,-35.6408 369.3684,-33.8745"/>
</g>
<!-- Node17 -->
<g id="node18" class="node">
<title>Node17</title>
<polygon fill="none" stroke="#bfbfbf" points="674.0205,-73 674.0205,-92 817.0205,-92 817.0205,-73 674.0205,-73"/>
<text text-anchor="middle" x="745.5205" y="-80" font-family="Helvetica,sans-Serif" font-size="10.00" fill="#000000">boost/functional/hash.hpp</text>
</g>
<!-- Node9&#45;&gt;Node17 -->
<g id="edge18" class="edge">
<title>Node9&#45;&gt;Node17</title>
<path fill="none" stroke="#191970" d="M745.5205,-134.3906C745.5205,-125.8657 745.5205,-113.1392 745.5205,-102.4235"/>
<polygon fill="#191970" stroke="#191970" points="749.0206,-102.2448 745.5205,-92.2449 742.0206,-102.2449 749.0206,-102.2448"/>
</g>
<!-- Node18 -->
<g id="node19" class="node">
<title>Node18</title>
<polygon fill="none" stroke="#bfbfbf" points="835.5205,-73 835.5205,-92 895.5205,-92 895.5205,-73 835.5205,-73"/>
<text text-anchor="middle" x="865.5205" y="-80" font-family="Helvetica,sans-Serif" font-size="10.00" fill="#000000">iostream</text>
</g>
<!-- Node9&#45;&gt;Node18 -->
<g id="edge20" class="edge">
<title>Node9&#45;&gt;Node18</title>
<path fill="none" stroke="#191970" d="M764.2705,-134.3906C783.9964,-124.2811 815.2516,-108.2628 837.8205,-96.6962"/>
<polygon fill="#191970" stroke="#191970" points="839.5991,-99.7176 846.9021,-92.0419 836.4064,-93.4881 839.5991,-99.7176"/>
</g>
<!-- Node19 -->
<g id="node20" class="node">
<title>Node19</title>
<polygon fill="none" stroke="#bfbfbf" points="914.0205,-67.5 914.0205,-97.5 1021.0205,-97.5 1021.0205,-67.5 914.0205,-67.5"/>
<text text-anchor="start" x="922.0205" y="-85.5" font-family="Helvetica,sans-Serif" font-size="10.00" fill="#000000">boost/serialization</text>
<text text-anchor="middle" x="967.5205" y="-74.5" font-family="Helvetica,sans-Serif" font-size="10.00" fill="#000000">/array.hpp</text>
</g>
<!-- Node9&#45;&gt;Node19 -->
<g id="edge22" class="edge">
<title>Node9&#45;&gt;Node19</title>
<path fill="none" stroke="#191970" d="M779.7214,-134.5254C812.7559,-125.374 863.5904,-111.2914 904.0436,-100.0848"/>
<polygon fill="#191970" stroke="#191970" points="905.1199,-103.4186 913.8225,-97.3758 903.251,-96.6726 905.1199,-103.4186"/>
</g>
<!-- Node20 -->
<g id="node21" class="node">
<title>Node20</title>
<polygon fill="none" stroke="#bfbfbf" points="428.0205,-67.5 428.0205,-97.5 535.0205,-97.5 535.0205,-67.5 428.0205,-67.5"/>
<text text-anchor="start" x="436.0205" y="-85.5" font-family="Helvetica,sans-Serif" font-size="10.00" fill="#000000">boost/serialization</text>
<text text-anchor="middle" x="481.5205" y="-74.5" font-family="Helvetica,sans-Serif" font-size="10.00" fill="#000000">/string.hpp</text>
</g>
<!-- Node9&#45;&gt;Node20 -->
<g id="edge23" class="edge">
<title>Node9&#45;&gt;Node20</title>
<path fill="none" stroke="#191970" d="M711.4311,-136.2303C663.8079,-125.3717 580.0319,-106.2528 545.0083,-98.0763"/>
<polygon fill="#191970" stroke="#191970" points="545.6582,-94.6337 535.1224,-95.7506 544.0551,-101.4477 545.6582,-94.6337"/>
</g>
<!-- Node21 -->
<g id="node22" class="node">
<title>Node21</title>
<polygon fill="none" stroke="#bfbfbf" points="553.5205,-73 553.5205,-92 655.5205,-92 655.5205,-73 553.5205,-73"/>
<text text-anchor="middle" x="604.5205" y="-80" font-family="Helvetica,sans-Serif" font-size="10.00" fill="#000000">boost/variant.hpp</text>
</g>
<!-- Node9&#45;&gt;Node21 -->
<g id="edge24" class="edge">
<title>Node9&#45;&gt;Node21</title>
<path fill="none" stroke="#191970" d="M723.4892,-134.3906C699.8973,-124.1005 662.2704,-107.6888 635.6572,-96.0809"/>
<polygon fill="#191970" stroke="#191970" points="636.9624,-92.8318 626.397,-92.0419 634.1638,-99.248 636.9624,-92.8318"/>
</g>
<!-- Node11 -->
<g id="node12" class="node">
<title>Node11</title>
<polygon fill="none" stroke="#bfbfbf" points="1030.0205,-6 1030.0205,-25 1107.0205,-25 1107.0205,-6 1030.0205,-6"/>
<text text-anchor="middle" x="1068.5205" y="-13" font-family="Helvetica,sans-Serif" font-size="10.00" fill="#000000">Eigen/Dense</text>
</g>
<!-- Node10&#45;&gt;Node11 -->
<g id="edge11" class="edge">
<title>Node10&#45;&gt;Node11</title>
<path fill="none" stroke="#191970" d="M1068.5205,-72.9005C1068.5205,-63.149 1068.5205,-47.7597 1068.5205,-35.3695"/>
<polygon fill="#191970" stroke="#191970" points="1072.0206,-35.0816 1068.5205,-25.0817 1065.0206,-35.0817 1072.0206,-35.0816"/>
</g>
<!-- Node12 -->
<g id="node13" class="node">
<title>Node12</title>
<polygon fill="none" stroke="#bfbfbf" points="1125.5205,-6 1125.5205,-25 1205.5205,-25 1205.5205,-6 1125.5205,-6"/>
<text text-anchor="middle" x="1165.5205" y="-13" font-family="Helvetica,sans-Serif" font-size="10.00" fill="#000000">Eigen/Sparse</text>
</g>
<!-- Node10&#45;&gt;Node12 -->
<g id="edge12" class="edge">
<title>Node10&#45;&gt;Node12</title>
<path fill="none" stroke="#191970" d="M1082.4182,-72.9005C1098.3368,-61.9052 1124.6326,-43.7422 1143.3803,-30.7927"/>
<polygon fill="#191970" stroke="#191970" points="1145.4096,-33.6448 1151.6485,-25.0817 1141.4313,-27.8852 1145.4096,-33.6448"/>
</g>
<!-- Node10&#45;&gt;Node13 -->
<g id="edge13" class="edge">
<title>Node10&#45;&gt;Node13</title>
<path fill="none" stroke="#191970" d="M1047.3866,-72.9848C1041.682,-70.7262 1035.4461,-68.5311 1029.5205,-67 894.3701,-32.0792 727.2699,-20.354 658.9025,-16.8451"/>
<polygon fill="#191970" stroke="#191970" points="658.957,-13.3436 648.7978,-16.3502 658.6145,-20.3353 658.957,-13.3436"/>
</g>
<!-- Node10&#45;&gt;Node14 -->
<g id="edge14" class="edge">
<title>Node10&#45;&gt;Node14</title>
<path fill="none" stroke="#191970" d="M1047.8429,-72.943C1042.0291,-70.6272 1035.6248,-68.414 1029.5205,-67 998.3495,-59.7798 527.1494,-26.9169 395.4723,-17.8328"/>
<polygon fill="#191970" stroke="#191970" points="395.4063,-14.32 385.1893,-17.1241 394.925,-21.3034 395.4063,-14.32"/>
</g>
<!-- Node15 -->
<g id="node16" class="node">
<title>Node15</title>
<polygon fill="none" stroke="#bfbfbf" points="869.0205,-.5 869.0205,-30.5 1012.0205,-30.5 1012.0205,-.5 869.0205,-.5"/>
<text text-anchor="start" x="877.0205" y="-18.5" font-family="Helvetica,sans-Serif" font-size="10.00" fill="#000000">unsupported/Eigen/CXX11</text>
<text text-anchor="middle" x="940.5205" y="-7.5" font-family="Helvetica,sans-Serif" font-size="10.00" fill="#000000">/Tensor</text>
</g>
<!-- Node10&#45;&gt;Node15 -->
<g id="edge15" class="edge">
<title>Node10&#45;&gt;Node15</title>
<path fill="none" stroke="#191970" d="M1050.1812,-72.9005C1031.5071,-63.1258 1002.0111,-47.6865 978.3114,-35.2812"/>
<polygon fill="#191970" stroke="#191970" points="979.7016,-32.0584 969.2188,-30.5218 976.4553,-38.2602 979.7016,-32.0584"/>
</g>
<!-- Node10&#45;&gt;Node16 -->
<g id="edge16" class="edge">
<title>Node10&#45;&gt;Node16</title>
<path fill="none" stroke="#191970" d="M1093.9145,-72.8456C1099.9591,-70.7455 1106.4249,-68.6587 1112.5205,-67 1194.1299,-44.7933 1292.4065,-28.2307 1342.9178,-20.4413"/>
<polygon fill="#191970" stroke="#191970" points="1343.5893,-23.8795 1352.9481,-18.9135 1342.5351,-16.9593 1343.5893,-23.8795"/>
</g>
<!-- Node26&#45;&gt;Node10 -->
<g id="edge33" class="edge">
<title>Node26&#45;&gt;Node10</title>
<path fill="none" stroke="#191970" d="M1041.1152,-190.475C1027.5515,-177.9183 1007.7788,-154.9608 1016.5205,-134 1022.4443,-119.7957 1034.4035,-107.5036 1045.3607,-98.4942"/>
<polygon fill="#191970" stroke="#191970" points="1047.6505,-101.1482 1053.4279,-92.2672 1043.3732,-95.607 1047.6505,-101.1482"/>
</g>
<!-- Node26&#45;&gt;Node16 -->
<g id="edge39" class="edge">
<title>Node26&#45;&gt;Node16</title>
<path fill="none" stroke="#191970" d="M1094.2365,-191.6361C1097.3747,-191.0633 1100.4956,-190.5114 1103.5205,-190 1159.5144,-180.5333 1316.3234,-194.114 1356.5205,-154 1387.9325,-122.6529 1384.7001,-65.526 1380.2704,-35.3683"/>
<polygon fill="#191970" stroke="#191970" points="1383.679,-34.5297 1378.5837,-25.2406 1376.7741,-35.6797 1383.679,-34.5297"/>
</g>
<!-- Node26&#45;&gt;Node23 -->
<g id="edge35" class="edge">
<title>Node26&#45;&gt;Node23</title>
<path fill="none" stroke="#191970" d="M1033.267,-190.3733C1015.4493,-181.4644 988.7458,-168.1127 968.561,-158.0203"/>
<polygon fill="#191970" stroke="#191970" points="970.0323,-154.8428 959.5227,-153.5011 966.9017,-161.1038 970.0323,-154.8428"/>
</g>
<!-- Node27 -->
<g id="node28" class="node">
<title>Node27</title>
<polygon fill="none" stroke="#bfbfbf" points="1026.0205,-134.5 1026.0205,-153.5 1079.0205,-153.5 1079.0205,-134.5 1026.0205,-134.5"/>
<text text-anchor="middle" x="1052.5205" y="-141.5" font-family="Helvetica,sans-Serif" font-size="10.00" fill="#000000">iterator</text>
</g>
<!-- Node26&#45;&gt;Node27 -->
<g id="edge34" class="edge">
<title>Node26&#45;&gt;Node27</title>
<path fill="none" stroke="#191970" d="M1052.5205,-190.2455C1052.5205,-182.9382 1052.5205,-172.6944 1052.5205,-163.7046"/>
<polygon fill="#191970" stroke="#191970" points="1056.0206,-163.6426 1052.5205,-153.6427 1049.0206,-163.6427 1056.0206,-163.6426"/>
</g>
<!-- Node28 -->
<g id="node29" class="node">
<title>Node28</title>
<polygon fill="none" stroke="#bfbfbf" points="1097.0205,-134.5 1097.0205,-153.5 1162.0205,-153.5 1162.0205,-134.5 1097.0205,-134.5"/>
<text text-anchor="middle" x="1129.5205" y="-141.5" font-family="Helvetica,sans-Serif" font-size="10.00" fill="#000000">typeindex</text>
</g>
<!-- Node26&#45;&gt;Node28 -->
<g id="edge36" class="edge">
<title>Node26&#45;&gt;Node28</title>
<path fill="none" stroke="#191970" d="M1065.9328,-190.2455C1077.5262,-181.814 1094.4952,-169.4729 1107.9883,-159.6598"/>
<polygon fill="#191970" stroke="#191970" points="1110.233,-162.355 1116.2618,-153.6427 1106.1158,-156.6938 1110.233,-162.355"/>
</g>
<!-- Node29 -->
<g id="node30" class="node">
<title>Node29</title>
<polygon fill="none" stroke="#bfbfbf" points="1180.0205,-134.5 1180.0205,-153.5 1237.0205,-153.5 1237.0205,-134.5 1180.0205,-134.5"/>
<text text-anchor="middle" x="1208.5205" y="-141.5" font-family="Helvetica,sans-Serif" font-size="10.00" fill="#000000">typeinfo</text>
</g>
<!-- Node26&#45;&gt;Node29 -->
<g id="edge37" class="edge">
<title>Node26&#45;&gt;Node29</title>
<path fill="none" stroke="#191970" d="M1079.3378,-190.3733C1105.0537,-181.1419 1144.0585,-167.1402 1172.4804,-156.9375"/>
<polygon fill="#191970" stroke="#191970" points="1173.8236,-160.174 1182.053,-153.5011 1171.4585,-153.5857 1173.8236,-160.174"/>
</g>
<!-- Node30 -->
<g id="node31" class="node">
<title>Node30</title>
<polygon fill="none" stroke="#bfbfbf" points="1255.0205,-134.5 1255.0205,-153.5 1348.0205,-153.5 1348.0205,-134.5 1255.0205,-134.5"/>
<text text-anchor="middle" x="1301.5205" y="-141.5" font-family="Helvetica,sans-Serif" font-size="10.00" fill="#000000">unordered_map</text>
</g>
<!-- Node26&#45;&gt;Node30 -->
<g id="edge38" class="edge">
<title>Node26&#45;&gt;Node30</title>
<path fill="none" stroke="#191970" d="M1094.1975,-190.6269C1136.7614,-181.0542 1202.9621,-166.1657 1249.0661,-155.797"/>
<polygon fill="#191970" stroke="#191970" points="1249.8845,-159.2004 1258.8729,-153.5914 1248.3485,-152.371 1249.8845,-159.2004"/>
</g>
<!-- Node32 -->
<g id="node33" class="node">
<title>Node32</title>
<polygon fill="none" stroke="#bfbfbf" points="1638.5205,-134.5 1638.5205,-153.5 1702.5205,-153.5 1702.5205,-134.5 1638.5205,-134.5"/>
<text text-anchor="middle" x="1670.5205" y="-141.5" font-family="Helvetica,sans-Serif" font-size="10.00" fill="#000000">algorithm</text>
</g>
<!-- Node31&#45;&gt;Node32 -->
<g id="edge43" class="edge">
<title>Node31&#45;&gt;Node32</title>
<path fill="none" stroke="#191970" d="M1606.107,-190.2455C1617.8509,-181.814 1635.0403,-169.4729 1648.7086,-159.6598"/>
<polygon fill="#191970" stroke="#191970" points="1651.0076,-162.3179 1657.0896,-153.6427 1646.9251,-156.6316 1651.0076,-162.3179"/>
</g>
<!-- Node33 -->
<g id="node34" class="node">
<title>Node33</title>
<polygon fill="none" stroke="#bfbfbf" points="1721.0205,-134.5 1721.0205,-153.5 1780.0205,-153.5 1780.0205,-134.5 1721.0205,-134.5"/>
<text text-anchor="middle" x="1750.5205" y="-141.5" font-family="Helvetica,sans-Serif" font-size="10.00" fill="#000000">complex</text>
</g>
<!-- Node31&#45;&gt;Node33 -->
<g id="edge44" class="edge">
<title>Node31&#45;&gt;Node33</title>
<path fill="none" stroke="#191970" d="M1616.1747,-191.6162C1642.0076,-182.4603 1683.7077,-167.6805 1713.8021,-157.0141"/>
<polygon fill="#191970" stroke="#191970" points="1715.2672,-160.2082 1723.5234,-153.5686 1712.9286,-153.6104 1715.2672,-160.2082"/>
</g>
<!-- Node34 -->
<g id="node35" class="node">
<title>Node34</title>
<polygon fill="none" stroke="#bfbfbf" points="1798.0205,-134.5 1798.0205,-153.5 1863.0205,-153.5 1863.0205,-134.5 1798.0205,-134.5"/>
<text text-anchor="middle" x="1830.5205" y="-141.5" font-family="Helvetica,sans-Serif" font-size="10.00" fill="#000000">functional</text>
</g>
<!-- Node31&#45;&gt;Node34 -->
<g id="edge45" class="edge">
<title>Node31&#45;&gt;Node34</title>
<path fill="none" stroke="#191970" d="M1616.1911,-194.5521C1651.4648,-186.4166 1720.1662,-170.5061 1787.8752,-154.3783"/>
<polygon fill="#191970" stroke="#191970" points="1788.9387,-157.7229 1797.8538,-151.9982 1787.3146,-150.9139 1788.9387,-157.7229"/>
</g>
<!-- Node35 -->
<g id="node36" class="node">
<title>Node35</title>
<polygon fill="none" stroke="#bfbfbf" points="1404.5205,-134.5 1404.5205,-153.5 1458.5205,-153.5 1458.5205,-134.5 1404.5205,-134.5"/>
<text text-anchor="middle" x="1431.5205" y="-141.5" font-family="Helvetica,sans-Serif" font-size="10.00" fill="#000000">random</text>
</g>
<!-- Node31&#45;&gt;Node35 -->
<g id="edge46" class="edge">
<title>Node31&#45;&gt;Node35</title>
<path fill="none" stroke="#191970" d="M1568.7644,-191.737C1542.2444,-182.5127 1499.0072,-167.4736 1468.1508,-156.741"/>
<polygon fill="#191970" stroke="#191970" points="1469.1992,-153.4 1458.6044,-153.4205 1466.8995,-160.0115 1469.1992,-153.4"/>
</g>
<!-- Node36 -->
<g id="node37" class="node">
<title>Node36</title>
<polygon fill="none" stroke="#bfbfbf" points="1477.0205,-134.5 1477.0205,-153.5 1546.0205,-153.5 1546.0205,-134.5 1477.0205,-134.5"/>
<text text-anchor="middle" x="1511.5205" y="-141.5" font-family="Helvetica,sans-Serif" font-size="10.00" fill="#000000">type_traits</text>
</g>
<!-- Node31&#45;&gt;Node36 -->
<g id="edge47" class="edge">
<title>Node31&#45;&gt;Node36</title>
<path fill="none" stroke="#191970" d="M1578.4113,-190.2455C1566.0996,-181.7337 1548.0247,-169.2375 1533.7666,-159.3801"/>
<polygon fill="#191970" stroke="#191970" points="1535.6839,-156.4506 1525.4679,-153.6427 1531.7031,-162.2085 1535.6839,-156.4506"/>
</g>
<!-- Node37 -->
<g id="node38" class="node">
<title>Node37</title>
<polygon fill="none" stroke="#bfbfbf" points="1564.5205,-134.5 1564.5205,-153.5 1620.5205,-153.5 1620.5205,-134.5 1564.5205,-134.5"/>
<text text-anchor="middle" x="1592.5205" y="-141.5" font-family="Helvetica,sans-Serif" font-size="10.00" fill="#000000">unistd.h</text>
</g>
<!-- Node31&#45;&gt;Node37 -->
<g id="edge48" class="edge">
<title>Node31&#45;&gt;Node37</title>
<path fill="none" stroke="#191970" d="M1592.5205,-190.2455C1592.5205,-182.9382 1592.5205,-172.6944 1592.5205,-163.7046"/>
<polygon fill="#191970" stroke="#191970" points="1596.0206,-163.6426 1592.5205,-153.6427 1589.0206,-163.6427 1596.0206,-163.6426"/>
</g>
</g>
</svg>
