<?xml version="1.0" encoding="UTF-8" standalone="no"?>
<!DOCTYPE svg PUBLIC "-//W3C//DTD SVG 1.1//EN"
 "http://www.w3.org/Graphics/SVG/1.1/DTD/svg11.dtd">
<!-- Generated by graphviz version 2.40.1 (20161225.0304)
 -->
<!-- Title: /travis/pairinteraction/HamiltonianTwo.h Pages: 1 -->
<svg width="2755pt" height="475pt"
 viewBox="0.00 0.00 2754.50 475.00" xmlns="http://www.w3.org/2000/svg" xmlns:xlink="http://www.w3.org/1999/xlink">
<g id="graph0" class="graph" transform="scale(1 1) rotate(0) translate(4 471)">
<title>/travis/pairinteraction/HamiltonianTwo.h</title>
<!-- Node0 -->
<g id="node1" class="node">
<title>Node0</title>
<polygon fill="#bfbfbf" stroke="#000000" points="1894.5,-436.5 1894.5,-466.5 2016.5,-466.5 2016.5,-436.5 1894.5,-436.5"/>
<text text-anchor="start" x="1902.5" y="-454.5" font-family="Helvetica,sans-Serif" font-size="10.00" fill="#000000">/travis/pairinteraction</text>
<text text-anchor="middle" x="1955.5" y="-443.5" font-family="Helvetica,sans-Serif" font-size="10.00" fill="#000000">/HamiltonianTwo.h</text>
</g>
<!-- Node1 -->
<g id="node2" class="node">
<title>Node1</title>
<g id="a_node2"><a xlink:href="Basisnames_8h.html" target="_top" xlink:title="Basisnames.h">
<polygon fill="none" stroke="#000000" points="1169,-190.5 1169,-209.5 1254,-209.5 1254,-190.5 1169,-190.5"/>
<text text-anchor="middle" x="1211.5" y="-197.5" font-family="Helvetica,sans-Serif" font-size="10.00" fill="#000000">Basisnames.h</text>
</a>
</g>
</g>
<!-- Node0&#45;&gt;Node1 -->
<g id="edge1" class="edge">
<title>Node0&#45;&gt;Node1</title>
<path fill="none" stroke="#191970" d="M1894.3926,-442.002C1843.3144,-433.3301 1768.8583,-418.9756 1705.5,-400 1563.9005,-357.5915 1533.4034,-332.7345 1396.5,-277 1342.668,-255.0845 1280.306,-228.9788 1243.4753,-213.4861"/>
<polygon fill="#191970" stroke="#191970" points="1244.8121,-210.2515 1234.2375,-209.5976 1242.0963,-216.7032 1244.8121,-210.2515"/>
</g>
<!-- Node2 -->
<g id="node3" class="node">
<title>Node2</title>
<g id="a_node3"><a xlink:href="ConfParser_8h.html" target="_top" xlink:title="ConfParser.h">
<polygon fill="none" stroke="#000000" points="700,-134.5 700,-153.5 777,-153.5 777,-134.5 700,-134.5"/>
<text text-anchor="middle" x="738.5" y="-141.5" font-family="Helvetica,sans-Serif" font-size="10.00" fill="#000000">ConfParser.h</text>
</a>
</g>
</g>
<!-- Node0&#45;&gt;Node2 -->
<g id="edge31" class="edge">
<title>Node0&#45;&gt;Node2</title>
<path fill="none" stroke="#191970" d="M1894.3854,-448.9888C1677.7436,-439.5645 947.5668,-403.2035 725.5,-333 675.4446,-317.1756 648.4198,-322.0696 621.5,-277 614.4349,-265.1716 618.8323,-259.517 621.5,-246 626.7097,-219.6028 626.1065,-209.6374 644.5,-190 658.3332,-175.2313 677.9218,-164.6064 695.6397,-157.3151"/>
<polygon fill="#191970" stroke="#191970" points="697.1773,-160.4731 705.2421,-153.6022 694.6528,-153.9442 697.1773,-160.4731"/>
</g>
<!-- Node9 -->
<g id="node10" class="node">
<title>Node9</title>
<g id="a_node10"><a xlink:href="dtypes_8h.html" target="_top" xlink:title="dtypes.h">
<polygon fill="none" stroke="#000000" points="106,-73 106,-92 165,-92 165,-73 106,-73"/>
<text text-anchor="middle" x="135.5" y="-80" font-family="Helvetica,sans-Serif" font-size="10.00" fill="#000000">dtypes.h</text>
</a>
</g>
</g>
<!-- Node0&#45;&gt;Node9 -->
<g id="edge113" class="edge">
<title>Node0&#45;&gt;Node9</title>
<path fill="none" stroke="#191970" d="M1894.2799,-450.4999C1575.0117,-444.8917 115.5,-414.2634 115.5,-323 115.5,-323 115.5,-323 115.5,-200 115.5,-165.1457 124.1582,-125.2899 130.0811,-102.1029"/>
<polygon fill="#191970" stroke="#191970" points="133.5391,-102.7172 132.7191,-92.1542 126.7729,-100.9231 133.5391,-102.7172"/>
</g>
<!-- Node13 -->
<g id="node14" class="node">
<title>Node13</title>
<polygon fill="none" stroke="#bfbfbf" points="1007,-6 1007,-25 1054,-25 1054,-6 1007,-6"/>
<text text-anchor="middle" x="1030.5" y="-13" font-family="Helvetica,sans-Serif" font-size="10.00" fill="#000000">cmath</text>
</g>
<!-- Node0&#45;&gt;Node13 -->
<g id="edge119" class="edge">
<title>Node0&#45;&gt;Node13</title>
<path fill="none" stroke="#191970" d="M1894.2156,-449.6939C1699.0214,-443.7554 1093.2869,-423.844 898.5,-400 618.3573,-365.7076 546.5143,-355.7854 275.5,-277 184.8333,-250.6427 77.5,-294.4201 77.5,-200 77.5,-200 77.5,-200 77.5,-144 77.5,-108.7513 69.3591,-89.4909 96.5,-67 105.3519,-59.6647 829.8532,-24.9868 996.5616,-17.0991"/>
<polygon fill="#191970" stroke="#191970" points="996.8986,-20.5871 1006.7222,-16.6188 996.5681,-13.5949 996.8986,-20.5871"/>
</g>
<!-- Node17 -->
<g id="node18" class="node">
<title>Node17</title>
<polygon fill="none" stroke="#bfbfbf" points="2489.5,-73 2489.5,-92 2549.5,-92 2549.5,-73 2489.5,-73"/>
<text text-anchor="middle" x="2519.5" y="-80" font-family="Helvetica,sans-Serif" font-size="10.00" fill="#000000">iostream</text>
</g>
<!-- Node0&#45;&gt;Node17 -->
<g id="edge120" class="edge">
<title>Node0&#45;&gt;Node17</title>
<path fill="none" stroke="#191970" d="M2016.5066,-449.5478C2158.717,-444.5226 2503.4562,-429.425 2546.5,-400 2578.0049,-378.4631 2584.5,-361.1627 2584.5,-323 2584.5,-323 2584.5,-323 2584.5,-200 2584.5,-160.1036 2555.4518,-121.0386 2536.1929,-99.523"/>
<polygon fill="#191970" stroke="#191970" points="2538.7393,-97.1215 2529.3721,-92.1711 2533.6076,-101.8825 2538.7393,-97.1215"/>
</g>
<!-- Node22 -->
<g id="node23" class="node">
<title>Node22</title>
<polygon fill="none" stroke="#bfbfbf" points="1887.5,-73 1887.5,-92 1945.5,-92 1945.5,-73 1887.5,-73"/>
<text text-anchor="middle" x="1916.5" y="-80" font-family="Helvetica,sans-Serif" font-size="10.00" fill="#000000">memory</text>
</g>
<!-- Node0&#45;&gt;Node22 -->
<g id="edge121" class="edge">
<title>Node0&#45;&gt;Node22</title>
<path fill="none" stroke="#191970" d="M2016.5779,-446.7954C2168.3664,-433.8345 2546.5106,-393.1403 2489.5,-313 2364.5963,-137.4218 2225.97,-246.7905 2031.5,-154 1997.373,-137.7165 1960.734,-113.6705 1938.2106,-98.0438"/>
<polygon fill="#191970" stroke="#191970" points="1939.9447,-94.9849 1929.7483,-92.1066 1935.9242,-100.7152 1939.9447,-94.9849"/>
</g>
<!-- Node25 -->
<g id="node26" class="node">
<title>Node25</title>
<g id="a_node26"><a xlink:href="Hamiltonian_8h.html" target="_top" xlink:title="Hamiltonian.h">
<polygon fill="none" stroke="#000000" points="1631.5,-313.5 1631.5,-332.5 1717.5,-332.5 1717.5,-313.5 1631.5,-313.5"/>
<text text-anchor="middle" x="1674.5" y="-320.5" font-family="Helvetica,sans-Serif" font-size="10.00" fill="#000000">Hamiltonian.h</text>
</a>
</g>
</g>
<!-- Node0&#45;&gt;Node25 -->
<g id="edge32" class="edge">
<title>Node0&#45;&gt;Node25</title>
<path fill="none" stroke="#191970" d="M1894.1557,-446.1669C1849.9941,-440.1167 1790.368,-427.2575 1744.5,-400 1719.6358,-385.2242 1698.4943,-358.8156 1686.1433,-341.1023"/>
<polygon fill="#191970" stroke="#191970" points="1689.001,-339.0798 1680.5127,-332.7396 1683.1945,-342.9894 1689.001,-339.0798"/>
</g>
<!-- Node43 -->
<g id="node44" class="node">
<title>Node43</title>
<g id="a_node44"><a xlink:href="HamiltonianOne_8h.html" target="_top" xlink:title="HamiltonianOne.h">
<polygon fill="none" stroke="#000000" points="1753,-375 1753,-394 1858,-394 1858,-375 1753,-375"/>
<text text-anchor="middle" x="1805.5" y="-382" font-family="Helvetica,sans-Serif" font-size="10.00" fill="#000000">HamiltonianOne.h</text>
</a>
</g>
</g>
<!-- Node0&#45;&gt;Node43 -->
<g id="edge60" class="edge">
<title>Node0&#45;&gt;Node43</title>
<path fill="none" stroke="#191970" d="M1921.8371,-436.4639C1896.2155,-425.0196 1861.2339,-409.3945 1836.3373,-398.274"/>
<polygon fill="#191970" stroke="#191970" points="1837.5593,-394.9866 1827.0013,-394.1039 1834.7045,-401.378 1837.5593,-394.9866"/>
</g>
<!-- Node44 -->
<g id="node45" class="node">
<title>Node44</title>
<g id="a_node45"><a xlink:href="MatrixElements_8h.html" target="_top" xlink:title="MatrixElements.h">
<polygon fill="none" stroke="#000000" points="1160.5,-313.5 1160.5,-332.5 1262.5,-332.5 1262.5,-313.5 1160.5,-313.5"/>
<text text-anchor="middle" x="1211.5" y="-320.5" font-family="Helvetica,sans-Serif" font-size="10.00" fill="#000000">MatrixElements.h</text>
</a>
</g>
</g>
<!-- Node0&#45;&gt;Node44 -->
<g id="edge111" class="edge">
<title>Node0&#45;&gt;Node44</title>
<path fill="none" stroke="#191970" d="M1894.2751,-448.9754C1764.6066,-443.1656 1466.1849,-427.2185 1368.5,-400 1318.3615,-386.0297 1264.9634,-356.2362 1235.1592,-338.0792"/>
<polygon fill="#191970" stroke="#191970" points="1236.6914,-334.9115 1226.3456,-332.6278 1233.0092,-340.8648 1236.6914,-334.9115"/>
</g>
<!-- Node50 -->
<g id="node51" class="node">
<title>Node50</title>
<g id="a_node51"><a xlink:href="SQLite_8h.html" target="_top" xlink:title="SQLite.h">
<polygon fill="none" stroke="#000000" points="2040,-134.5 2040,-153.5 2097,-153.5 2097,-134.5 2040,-134.5"/>
<text text-anchor="middle" x="2068.5" y="-141.5" font-family="Helvetica,sans-Serif" font-size="10.00" fill="#000000">SQLite.h</text>
</a>
</g>
</g>
<!-- Node0&#45;&gt;Node50 -->
<g id="edge112" class="edge">
<title>Node0&#45;&gt;Node50</title>
<path fill="none" stroke="#191970" d="M2016.6436,-449.738C2155.1382,-445.2135 2483.7951,-431.2746 2522.5,-400 2550.3816,-377.471 2546.5,-358.846 2546.5,-323 2546.5,-323 2546.5,-323 2546.5,-261.5 2546.5,-171.2758 2221.2908,-149.9503 2107.3607,-145.2477"/>
<polygon fill="#191970" stroke="#191970" points="2107.454,-141.7487 2097.3246,-144.8543 2107.1798,-148.7434 2107.454,-141.7487"/>
</g>
<!-- Node58 -->
<g id="node59" class="node">
<title>Node58</title>
<polygon fill="none" stroke="#bfbfbf" points="1887.5,-313.5 1887.5,-332.5 2023.5,-332.5 2023.5,-313.5 1887.5,-313.5"/>
<text text-anchor="middle" x="1955.5" y="-320.5" font-family="Helvetica,sans-Serif" font-size="10.00" fill="#000000">boost/algorithm/hex.hpp</text>
</g>
<!-- Node0&#45;&gt;Node58 -->
<g id="edge114" class="edge">
<title>Node0&#45;&gt;Node58</title>
<path fill="none" stroke="#191970" d="M1955.5,-436.2548C1955.5,-412.9744 1955.5,-368.5607 1955.5,-342.8117"/>
<polygon fill="#191970" stroke="#191970" points="1959.0001,-342.7358 1955.5,-332.7358 1952.0001,-342.7358 1959.0001,-342.7358"/>
</g>
<!-- Node59 -->
<g id="node60" class="node">
<title>Node59</title>
<polygon fill="none" stroke="#bfbfbf" points="2042,-313.5 2042,-332.5 2161,-332.5 2161,-313.5 2042,-313.5"/>
<text text-anchor="middle" x="2101.5" y="-320.5" font-family="Helvetica,sans-Serif" font-size="10.00" fill="#000000">boost/filesystem.hpp</text>
</g>
<!-- Node0&#45;&gt;Node59 -->
<g id="edge115" class="edge">
<title>Node0&#45;&gt;Node59</title>
<path fill="none" stroke="#191970" d="M1972.8214,-436.2548C2000.4584,-411.9305 2054.3086,-364.5349 2082.7939,-339.464"/>
<polygon fill="#191970" stroke="#191970" points="2085.2441,-341.97 2090.4383,-332.7358 2080.6193,-336.7154 2085.2441,-341.97"/>
</g>
<!-- Node60 -->
<g id="node61" class="node">
<title>Node60</title>
<polygon fill="none" stroke="#bfbfbf" points="2179,-313.5 2179,-332.5 2292,-332.5 2292,-313.5 2179,-313.5"/>
<text text-anchor="middle" x="2235.5" y="-320.5" font-family="Helvetica,sans-Serif" font-size="10.00" fill="#000000">boost/uuid/uuid.hpp</text>
</g>
<!-- Node0&#45;&gt;Node60 -->
<g id="edge117" class="edge">
<title>Node0&#45;&gt;Node60</title>
<path fill="none" stroke="#191970" d="M1988.4429,-436.3816C2043.2878,-411.2117 2152.5043,-361.0891 2205.4013,-336.8131"/>
<polygon fill="#191970" stroke="#191970" points="2206.9684,-339.945 2214.5971,-332.5929 2204.0487,-333.583 2206.9684,-339.945"/>
</g>
<!-- Node61 -->
<g id="node62" class="node">
<title>Node61</title>
<polygon fill="none" stroke="#bfbfbf" points="2310.5,-313.5 2310.5,-332.5 2480.5,-332.5 2480.5,-313.5 2310.5,-313.5"/>
<text text-anchor="middle" x="2395.5" y="-320.5" font-family="Helvetica,sans-Serif" font-size="10.00" fill="#000000">boost/uuid/uuid_generators.hpp</text>
</g>
<!-- Node0&#45;&gt;Node61 -->
<g id="edge118" class="edge">
<title>Node0&#45;&gt;Node61</title>
<path fill="none" stroke="#191970" d="M2007.2675,-436.3816C2095.1705,-410.7099 2271.9552,-359.0807 2353.0667,-335.3925"/>
<polygon fill="#191970" stroke="#191970" points="2354.3167,-338.6737 2362.9346,-332.5106 2352.3543,-331.9544 2354.3167,-338.6737"/>
</g>
<!-- Node62 -->
<g id="node63" class="node">
<title>Node62</title>
<polygon fill="none" stroke="#bfbfbf" points="2612.5,-369.5 2612.5,-399.5 2746.5,-399.5 2746.5,-369.5 2612.5,-369.5"/>
<text text-anchor="start" x="2620.5" y="-387.5" font-family="Helvetica,sans-Serif" font-size="10.00" fill="#000000">boost/math/special</text>
<text text-anchor="middle" x="2679.5" y="-376.5" font-family="Helvetica,sans-Serif" font-size="10.00" fill="#000000">_functions/binomial.hpp</text>
</g>
<!-- Node0&#45;&gt;Node62 -->
<g id="edge116" class="edge">
<title>Node0&#45;&gt;Node62</title>
<path fill="none" stroke="#191970" d="M2016.9122,-448.8163C2131.6022,-443.3091 2385.9771,-428.7574 2598.5,-400 2599.777,-399.8272 2601.0642,-399.6474 2602.3595,-399.4613"/>
<polygon fill="#191970" stroke="#191970" points="2603.0537,-402.8959 2612.4089,-397.9229 2601.9944,-395.9765 2603.0537,-402.8959"/>
</g>
<!-- Node1&#45;&gt;Node2 -->
<g id="edge2" class="edge">
<title>Node1&#45;&gt;Node2</title>
<path fill="none" stroke="#191970" d="M1168.6902,-194.9316C1080.6847,-184.5124 879.9478,-160.7465 787.1722,-149.7625"/>
<polygon fill="#191970" stroke="#191970" points="787.5474,-146.2825 777.2052,-148.5824 786.7243,-153.234 787.5474,-146.2825"/>
</g>
<!-- Node5 -->
<g id="node6" class="node">
<title>Node5</title>
<polygon fill="none" stroke="#bfbfbf" points="920.5,-73 920.5,-92 964.5,-92 964.5,-73 920.5,-73"/>
<text text-anchor="middle" x="942.5" y="-80" font-family="Helvetica,sans-Serif" font-size="10.00" fill="#000000">string</text>
</g>
<!-- Node1&#45;&gt;Node5 -->
<g id="edge28" class="edge">
<title>Node1&#45;&gt;Node5</title>
<path fill="none" stroke="#191970" d="M1195.09,-190.3607C1167.5153,-174.2549 1112.9006,-142.7731 1092.5,-134 1043.6891,-113.0094 1028.2973,-116.5294 978.5,-98 976.6824,-97.3237 974.8233,-96.6058 972.9545,-95.8641"/>
<polygon fill="#191970" stroke="#191970" points="974.2558,-92.6148 963.6766,-92.038 971.587,-99.0861 974.2558,-92.6148"/>
</g>
<!-- Node7 -->
<g id="node8" class="node">
<title>Node7</title>
<g id="a_node8"><a xlink:href="Iter_8h.html" target="_top" xlink:title="Iter.h">
<polygon fill="none" stroke="#000000" points="1140,-134.5 1140,-153.5 1181,-153.5 1181,-134.5 1140,-134.5"/>
<text text-anchor="middle" x="1160.5" y="-141.5" font-family="Helvetica,sans-Serif" font-size="10.00" fill="#000000">Iter.h</text>
</a>
</g>
</g>
<!-- Node1&#45;&gt;Node7 -->
<g id="edge7" class="edge">
<title>Node1&#45;&gt;Node7</title>
<path fill="none" stroke="#191970" d="M1202.6165,-190.2455C1195.3034,-182.2155 1184.7609,-170.6394 1176.0533,-161.0781"/>
<polygon fill="#191970" stroke="#191970" points="1178.6028,-158.6795 1169.2817,-153.6427 1173.4273,-163.3928 1178.6028,-158.6795"/>
</g>
<!-- Node8 -->
<g id="node9" class="node">
<title>Node8</title>
<g id="a_node9"><a xlink:href="StateOld_8h.html" target="_top" xlink:title="StateOld.h">
<polygon fill="none" stroke="#000000" points="1310.5,-134.5 1310.5,-153.5 1378.5,-153.5 1378.5,-134.5 1310.5,-134.5"/>
<text text-anchor="middle" x="1344.5" y="-141.5" font-family="Helvetica,sans-Serif" font-size="10.00" fill="#000000">StateOld.h</text>
</a>
</g>
</g>
<!-- Node1&#45;&gt;Node8 -->
<g id="edge8" class="edge">
<title>Node1&#45;&gt;Node8</title>
<path fill="none" stroke="#191970" d="M1234.3635,-190.3733C1255.905,-181.3032 1288.3838,-167.6279 1312.4956,-157.4755"/>
<polygon fill="#191970" stroke="#191970" points="1314.0767,-160.6075 1321.9348,-153.5011 1311.3603,-154.156 1314.0767,-160.6075"/>
</g>
<!-- Node1&#45;&gt;Node9 -->
<g id="edge24" class="edge">
<title>Node1&#45;&gt;Node9</title>
<path fill="none" stroke="#191970" d="M1168.716,-195.2746C1151.0226,-193.4368 1130.2889,-191.4331 1111.5,-190 807.9609,-166.8481 728.9193,-196.6425 427.5,-154 388.6447,-148.503 379.7929,-142.5794 341.5,-134 267.4096,-117.4002 247.1405,-120.0974 174.5,-98 172.2062,-97.3022 169.8578,-96.5278 167.5066,-95.7078"/>
<polygon fill="#191970" stroke="#191970" points="168.5518,-92.3624 157.9588,-92.1612 166.1142,-98.9243 168.5518,-92.3624"/>
</g>
<!-- Node15 -->
<g id="node16" class="node">
<title>Node15</title>
<polygon fill="none" stroke="#bfbfbf" points="1674,-6 1674,-25 1721,-25 1721,-6 1674,-6"/>
<text text-anchor="middle" x="1697.5" y="-13" font-family="Helvetica,sans-Serif" font-size="10.00" fill="#000000">vector</text>
</g>
<!-- Node1&#45;&gt;Node15 -->
<g id="edge30" class="edge">
<title>Node1&#45;&gt;Node15</title>
<path fill="none" stroke="#191970" d="M1254.1166,-192.1586C1290.4042,-184.7109 1343.4977,-171.9717 1387.5,-154 1459.5601,-124.5687 1468.3463,-98.5598 1539.5,-67 1581.1458,-48.5282 1631.5313,-33.2495 1664.0289,-24.2529"/>
<polygon fill="#191970" stroke="#191970" points="1665.1907,-27.564 1673.9177,-21.5566 1663.3492,-20.8105 1665.1907,-27.564"/>
</g>
<!-- Node21 -->
<g id="node22" class="node">
<title>Node21</title>
<polygon fill="none" stroke="#bfbfbf" points="1199,-134.5 1199,-153.5 1254,-153.5 1254,-134.5 1199,-134.5"/>
<text text-anchor="middle" x="1226.5" y="-141.5" font-family="Helvetica,sans-Serif" font-size="10.00" fill="#000000">fstream</text>
</g>
<!-- Node1&#45;&gt;Node21 -->
<g id="edge25" class="edge">
<title>Node1&#45;&gt;Node21</title>
<path fill="none" stroke="#191970" d="M1214.1128,-190.2455C1216.0916,-182.8579 1218.8744,-172.4689 1221.3012,-163.4087"/>
<polygon fill="#191970" stroke="#191970" points="1224.7105,-164.2078 1223.9171,-153.6427 1217.9489,-162.3966 1224.7105,-164.2078"/>
</g>
<!-- Node1&#45;&gt;Node22 -->
<g id="edge26" class="edge">
<title>Node1&#45;&gt;Node22</title>
<path fill="none" stroke="#191970" d="M1254.3846,-197.6672C1361.1894,-191.617 1636.9086,-174.4585 1726.5,-154 1785.4824,-140.5312 1850.7942,-112.9765 1887.4267,-96.2825"/>
<polygon fill="#191970" stroke="#191970" points="1888.918,-99.449 1896.5352,-92.085 1885.9883,-93.0916 1888.918,-99.449"/>
</g>
<!-- Node23 -->
<g id="node24" class="node">
<title>Node23</title>
<polygon fill="none" stroke="#bfbfbf" points="947.5,-134.5 947.5,-153.5 979.5,-153.5 979.5,-134.5 947.5,-134.5"/>
<text text-anchor="middle" x="963.5" y="-141.5" font-family="Helvetica,sans-Serif" font-size="10.00" fill="#000000">set</text>
</g>
<!-- Node1&#45;&gt;Node23 -->
<g id="edge27" class="edge">
<title>Node1&#45;&gt;Node23</title>
<path fill="none" stroke="#191970" d="M1168.6064,-193.473C1125.4143,-186.3891 1056.8262,-173.7466 989.6557,-153.9563"/>
<polygon fill="#191970" stroke="#191970" points="990.343,-150.5083 979.7588,-150.9843 988.3297,-157.2126 990.343,-150.5083"/>
</g>
<!-- Node24 -->
<g id="node25" class="node">
<title>Node24</title>
<polygon fill="none" stroke="#bfbfbf" points="997.5,-134.5 997.5,-153.5 1083.5,-153.5 1083.5,-134.5 997.5,-134.5"/>
<text text-anchor="middle" x="1040.5" y="-141.5" font-family="Helvetica,sans-Serif" font-size="10.00" fill="#000000">unordered_set</text>
</g>
<!-- Node1&#45;&gt;Node24 -->
<g id="edge29" class="edge">
<title>Node1&#45;&gt;Node24</title>
<path fill="none" stroke="#191970" d="M1182.1041,-190.3733C1153.6693,-181.0613 1110.4123,-166.8953 1079.1919,-156.671"/>
<polygon fill="#191970" stroke="#191970" points="1080.105,-153.2872 1069.5124,-153.5011 1077.9264,-159.9396 1080.105,-153.2872"/>
</g>
<!-- Node3 -->
<g id="node4" class="node">
<title>Node3</title>
<polygon fill="none" stroke="#bfbfbf" points="790.5,-73 790.5,-92 828.5,-92 828.5,-73 790.5,-73"/>
<text text-anchor="middle" x="809.5" y="-80" font-family="Helvetica,sans-Serif" font-size="10.00" fill="#000000">map</text>
</g>
<!-- Node2&#45;&gt;Node3 -->
<g id="edge3" class="edge">
<title>Node2&#45;&gt;Node3</title>
<path fill="none" stroke="#191970" d="M749.5938,-134.3906C760.4715,-124.9683 777.2748,-110.4134 790.32,-99.1137"/>
<polygon fill="#191970" stroke="#191970" points="792.9827,-101.4377 798.2498,-92.2449 788.3996,-96.1466 792.9827,-101.4377"/>
</g>
<!-- Node4 -->
<g id="node5" class="node">
<title>Node4</title>
<polygon fill="none" stroke="#bfbfbf" points="846.5,-73 846.5,-92 902.5,-92 902.5,-73 846.5,-73"/>
<text text-anchor="middle" x="874.5" y="-80" font-family="Helvetica,sans-Serif" font-size="10.00" fill="#000000">sstream</text>
</g>
<!-- Node2&#45;&gt;Node4 -->
<g id="edge4" class="edge">
<title>Node2&#45;&gt;Node4</title>
<path fill="none" stroke="#191970" d="M759.75,-134.3906C782.4055,-124.1457 818.4798,-107.8326 844.1291,-96.2339"/>
<polygon fill="#191970" stroke="#191970" points="845.7297,-99.3514 853.3992,-92.0419 842.8454,-92.9732 845.7297,-99.3514"/>
</g>
<!-- Node2&#45;&gt;Node5 -->
<g id="edge5" class="edge">
<title>Node2&#45;&gt;Node5</title>
<path fill="none" stroke="#191970" d="M777.3428,-136.0549C812.8773,-128.2304 866.5919,-114.9941 911.5,-98 912.8718,-97.4809 914.2633,-96.9201 915.6585,-96.3303"/>
<polygon fill="#191970" stroke="#191970" points="917.1237,-99.509 924.7465,-92.1508 914.1988,-93.1493 917.1237,-99.509"/>
</g>
<!-- Node6 -->
<g id="node7" class="node">
<title>Node6</title>
<polygon fill="none" stroke="#bfbfbf" points="375,-73 375,-92 500,-92 500,-73 375,-73"/>
<text text-anchor="middle" x="437.5" y="-80" font-family="Helvetica,sans-Serif" font-size="10.00" fill="#000000">boost/lexical_cast.hpp</text>
</g>
<!-- Node2&#45;&gt;Node6 -->
<g id="edge6" class="edge">
<title>Node2&#45;&gt;Node6</title>
<path fill="none" stroke="#191970" d="M699.9747,-136.4299C654.4396,-127.4434 576.396,-111.9187 509.5,-98 503.6457,-96.7819 497.5277,-95.4916 491.4375,-94.1962"/>
<polygon fill="#191970" stroke="#191970" points="491.7766,-90.6897 481.266,-92.0229 490.3139,-97.5352 491.7766,-90.6897"/>
</g>
<!-- Node8&#45;&gt;Node5 -->
<g id="edge20" class="edge">
<title>Node8&#45;&gt;Node5</title>
<path fill="none" stroke="#191970" d="M1310.4837,-136.5071C1305.7982,-135.5939 1301.0386,-134.7281 1296.5,-134 1156.0594,-111.471 1115.9684,-134.5176 978.5,-98 976.1694,-97.3809 973.7942,-96.6362 971.4314,-95.8125"/>
<polygon fill="#191970" stroke="#191970" points="972.5224,-92.4811 961.9343,-92.1013 969.9746,-99.001 972.5224,-92.4811"/>
</g>
<!-- Node8&#45;&gt;Node9 -->
<g id="edge9" class="edge">
<title>Node8&#45;&gt;Node9</title>
<path fill="none" stroke="#191970" d="M1310.2797,-139.0844C1295.8677,-137.1939 1278.8976,-135.2025 1263.5,-134 1022.1029,-115.1472 411.5291,-147.449 174.5,-98 171.4598,-97.3658 168.3508,-96.513 165.2802,-95.5321"/>
<polygon fill="#191970" stroke="#191970" points="166.328,-92.1892 155.7338,-92.0728 163.9432,-98.7704 166.328,-92.1892"/>
</g>
<!-- Node12 -->
<g id="node13" class="node">
<title>Node12</title>
<polygon fill="none" stroke="#bfbfbf" points="651.5,-6 651.5,-25 693.5,-25 693.5,-6 651.5,-6"/>
<text text-anchor="middle" x="672.5" y="-13" font-family="Helvetica,sans-Serif" font-size="10.00" fill="#000000">array</text>
</g>
<!-- Node8&#45;&gt;Node12 -->
<g id="edge16" class="edge">
<title>Node8&#45;&gt;Node12</title>
<path fill="none" stroke="#191970" d="M1310.4687,-136.5972C1305.7856,-135.6701 1301.0306,-134.7763 1296.5,-134 1178.4797,-113.7763 1143.1693,-135.6439 1029.5,-98 1002.4945,-89.0566 1000.3429,-76.4204 973.5,-67 878.765,-33.753 759.4752,-21.5126 703.8005,-17.3933"/>
<polygon fill="#191970" stroke="#191970" points="703.7602,-13.882 693.5399,-16.6739 703.2706,-20.8648 703.7602,-13.882"/>
</g>
<!-- Node8&#45;&gt;Node13 -->
<g id="edge18" class="edge">
<title>Node8&#45;&gt;Node13</title>
<path fill="none" stroke="#191970" d="M1310.4604,-136.645C1305.7785,-135.7105 1301.0261,-134.8019 1296.5,-134 1242.0983,-124.3615 1091.3318,-135.2184 1050.5,-98 1033.1907,-82.2225 1029.6645,-54.2413 1029.4794,-35.2879"/>
<polygon fill="#191970" stroke="#191970" points="1032.9827,-35.1577 1029.6898,-25.0876 1025.9842,-35.0132 1032.9827,-35.1577"/>
</g>
<!-- Node16 -->
<g id="node17" class="node">
<title>Node16</title>
<polygon fill="none" stroke="#bfbfbf" points="629,-73 629,-92 772,-92 772,-73 629,-73"/>
<text text-anchor="middle" x="700.5" y="-80" font-family="Helvetica,sans-Serif" font-size="10.00" fill="#000000">boost/functional/hash.hpp</text>
</g>
<!-- Node8&#45;&gt;Node16 -->
<g id="edge17" class="edge">
<title>Node8&#45;&gt;Node16</title>
<path fill="none" stroke="#191970" d="M1310.2503,-136.2757C1305.6447,-135.41 1300.9689,-134.6188 1296.5,-134 1069.2211,-102.5293 1009.0282,-127.6147 781.5,-98 773.0301,-96.8976 764.109,-95.4672 755.4071,-93.9217"/>
<polygon fill="#191970" stroke="#191970" points="755.801,-90.4355 745.3326,-92.0671 754.5337,-97.3198 755.801,-90.4355"/>
</g>
<!-- Node8&#45;&gt;Node17 -->
<g id="edge19" class="edge">
<title>Node8&#45;&gt;Node17</title>
<path fill="none" stroke="#191970" d="M1378.7787,-142.6978C1549.1208,-136.2019 2300.4913,-107.2469 2404.5,-98 2429.4454,-95.7822 2457.2814,-92.0634 2479.3185,-88.8243"/>
<polygon fill="#191970" stroke="#191970" points="2479.9452,-92.2695 2489.3177,-87.3293 2478.9101,-85.3465 2479.9452,-92.2695"/>
</g>
<!-- Node18 -->
<g id="node19" class="node">
<title>Node18</title>
<polygon fill="none" stroke="#bfbfbf" points="1059,-67.5 1059,-97.5 1166,-97.5 1166,-67.5 1059,-67.5"/>
<text text-anchor="start" x="1067" y="-85.5" font-family="Helvetica,sans-Serif" font-size="10.00" fill="#000000">boost/serialization</text>
<text text-anchor="middle" x="1112.5" y="-74.5" font-family="Helvetica,sans-Serif" font-size="10.00" fill="#000000">/array.hpp</text>
</g>
<!-- Node8&#45;&gt;Node18 -->
<g id="edge21" class="edge">
<title>Node8&#45;&gt;Node18</title>
<path fill="none" stroke="#191970" d="M1310.2676,-134.9255C1275.07,-125.5951 1219.4368,-110.8475 1176.1296,-99.3673"/>
<polygon fill="#191970" stroke="#191970" points="1176.8123,-95.9275 1166.2493,-96.7482 1175.0186,-102.6938 1176.8123,-95.9275"/>
</g>
<!-- Node19 -->
<g id="node20" class="node">
<title>Node19</title>
<polygon fill="none" stroke="#bfbfbf" points="1184,-67.5 1184,-97.5 1291,-97.5 1291,-67.5 1184,-67.5"/>
<text text-anchor="start" x="1192" y="-85.5" font-family="Helvetica,sans-Serif" font-size="10.00" fill="#000000">boost/serialization</text>
<text text-anchor="middle" x="1237.5" y="-74.5" font-family="Helvetica,sans-Serif" font-size="10.00" fill="#000000">/string.hpp</text>
</g>
<!-- Node8&#45;&gt;Node19 -->
<g id="edge22" class="edge">
<title>Node8&#45;&gt;Node19</title>
<path fill="none" stroke="#191970" d="M1327.7813,-134.3906C1313.0319,-125.9132 1291.0538,-113.2809 1272.4756,-102.6028"/>
<polygon fill="#191970" stroke="#191970" points="1274.0892,-99.4933 1263.6751,-97.5446 1270.601,-105.5623 1274.0892,-99.4933"/>
</g>
<!-- Node20 -->
<g id="node21" class="node">
<title>Node20</title>
<polygon fill="none" stroke="#bfbfbf" points="1309.5,-73 1309.5,-92 1411.5,-92 1411.5,-73 1309.5,-73"/>
<text text-anchor="middle" x="1360.5" y="-80" font-family="Helvetica,sans-Serif" font-size="10.00" fill="#000000">boost/variant.hpp</text>
</g>
<!-- Node8&#45;&gt;Node20 -->
<g id="edge23" class="edge">
<title>Node8&#45;&gt;Node20</title>
<path fill="none" stroke="#191970" d="M1347,-134.3906C1349.2412,-125.776 1352.5986,-112.8708 1355.4045,-102.0858"/>
<polygon fill="#191970" stroke="#191970" points="1358.8341,-102.804 1357.9648,-92.2449 1352.0596,-101.0414 1358.8341,-102.804"/>
</g>
<!-- Node10 -->
<g id="node11" class="node">
<title>Node10</title>
<polygon fill="none" stroke="#bfbfbf" points="0,-6 0,-25 77,-25 77,-6 0,-6"/>
<text text-anchor="middle" x="38.5" y="-13" font-family="Helvetica,sans-Serif" font-size="10.00" fill="#000000">Eigen/Dense</text>
</g>
<!-- Node9&#45;&gt;Node10 -->
<g id="edge10" class="edge">
<title>Node9&#45;&gt;Node10</title>
<path fill="none" stroke="#191970" d="M121.6023,-72.9005C105.6836,-61.9052 79.3879,-43.7422 60.6401,-30.7927"/>
<polygon fill="#191970" stroke="#191970" points="62.5892,-27.8852 52.372,-25.0817 58.6108,-33.6448 62.5892,-27.8852"/>
</g>
<!-- Node11 -->
<g id="node12" class="node">
<title>Node11</title>
<polygon fill="none" stroke="#bfbfbf" points="95.5,-6 95.5,-25 175.5,-25 175.5,-6 95.5,-6"/>
<text text-anchor="middle" x="135.5" y="-13" font-family="Helvetica,sans-Serif" font-size="10.00" fill="#000000">Eigen/Sparse</text>
</g>
<!-- Node9&#45;&gt;Node11 -->
<g id="edge11" class="edge">
<title>Node9&#45;&gt;Node11</title>
<path fill="none" stroke="#191970" d="M135.5,-72.9005C135.5,-63.149 135.5,-47.7597 135.5,-35.3695"/>
<polygon fill="#191970" stroke="#191970" points="139.0001,-35.0816 135.5,-25.0817 132.0001,-35.0817 139.0001,-35.0816"/>
</g>
<!-- Node9&#45;&gt;Node12 -->
<g id="edge12" class="edge">
<title>Node9&#45;&gt;Node12</title>
<path fill="none" stroke="#191970" d="M156.6092,-72.8869C162.314,-70.6291 168.5562,-68.4588 174.5,-67 263.9099,-45.0563 546.3448,-24.1651 641.1328,-17.6101"/>
<polygon fill="#191970" stroke="#191970" points="641.4973,-21.0934 651.2341,-16.9169 641.0179,-14.1098 641.4973,-21.0934"/>
</g>
<!-- Node9&#45;&gt;Node13 -->
<g id="edge13" class="edge">
<title>Node9&#45;&gt;Node13</title>
<path fill="none" stroke="#191970" d="M156.1621,-72.8749C161.9759,-70.5588 168.384,-68.3625 174.5,-67 215.2553,-57.9209 842.0865,-25.1978 996.3833,-17.249"/>
<polygon fill="#191970" stroke="#191970" points="996.8546,-20.7295 1006.6615,-16.7202 996.4948,-13.7387 996.8546,-20.7295"/>
</g>
<!-- Node14 -->
<g id="node15" class="node">
<title>Node14</title>
<polygon fill="none" stroke="#bfbfbf" points="194,-.5 194,-30.5 337,-30.5 337,-.5 194,-.5"/>
<text text-anchor="start" x="202" y="-18.5" font-family="Helvetica,sans-Serif" font-size="10.00" fill="#000000">unsupported/Eigen/CXX11</text>
<text text-anchor="middle" x="265.5" y="-7.5" font-family="Helvetica,sans-Serif" font-size="10.00" fill="#000000">/Tensor</text>
</g>
<!-- Node9&#45;&gt;Node14 -->
<g id="edge14" class="edge">
<title>Node9&#45;&gt;Node14</title>
<path fill="none" stroke="#191970" d="M154.1258,-72.9005C173.1756,-63.0826 203.3139,-47.5498 227.4377,-35.1167"/>
<polygon fill="#191970" stroke="#191970" points="229.0678,-38.2141 236.3533,-30.5218 225.8609,-31.9919 229.0678,-38.2141"/>
</g>
<!-- Node9&#45;&gt;Node15 -->
<g id="edge15" class="edge">
<title>Node9&#45;&gt;Node15</title>
<path fill="none" stroke="#191970" d="M155.7345,-72.9303C161.6543,-70.5533 168.224,-68.3118 174.5,-67 249.8253,-51.2559 1446.56,-21.5829 1663.8103,-16.3112"/>
<polygon fill="#191970" stroke="#191970" points="1664.0532,-19.8064 1673.9655,-16.0652 1663.8836,-12.8084 1664.0532,-19.8064"/>
</g>
<!-- Node25&#45;&gt;Node15 -->
<g id="edge59" class="edge">
<title>Node25&#45;&gt;Node15</title>
<path fill="none" stroke="#191970" d="M1701.8513,-313.3926C1788.1539,-281.6635 2043.8426,-176.022 1954.5,-67 1940.4001,-49.7943 1797.899,-28.8264 1731.3749,-19.8818"/>
<polygon fill="#191970" stroke="#191970" points="1731.7561,-16.4018 1721.3818,-18.5519 1730.8327,-23.3406 1731.7561,-16.4018"/>
</g>
<!-- Node26 -->
<g id="node27" class="node">
<title>Node26</title>
<g id="a_node27"><a xlink:href="Hamiltonianmatrix_8h.html" target="_top" xlink:title="Hamiltonianmatrix.h">
<polygon fill="none" stroke="#000000" points="1519.5,-252 1519.5,-271 1637.5,-271 1637.5,-252 1519.5,-252"/>
<text text-anchor="middle" x="1578.5" y="-259" font-family="Helvetica,sans-Serif" font-size="10.00" fill="#000000">Hamiltonianmatrix.h</text>
</a>
</g>
</g>
<!-- Node25&#45;&gt;Node26 -->
<g id="edge33" class="edge">
<title>Node25&#45;&gt;Node26</title>
<path fill="none" stroke="#191970" d="M1659.5,-313.3906C1644.1419,-303.5519 1620.0479,-288.1167 1602.1255,-276.6351"/>
<polygon fill="#191970" stroke="#191970" points="1603.703,-273.4891 1593.3947,-271.0419 1599.927,-279.3833 1603.703,-273.4891"/>
</g>
<!-- Node26&#45;&gt;Node1 -->
<g id="edge34" class="edge">
<title>Node26&#45;&gt;Node1</title>
<path fill="none" stroke="#191970" d="M1521.5589,-251.9581C1451.2769,-240.1806 1332.701,-220.3103 1264.3549,-208.8572"/>
<polygon fill="#191970" stroke="#191970" points="1264.6807,-205.363 1254.2397,-207.1621 1263.5237,-212.2668 1264.6807,-205.363"/>
</g>
<!-- Node26&#45;&gt;Node8 -->
<g id="edge43" class="edge">
<title>Node26&#45;&gt;Node8</title>
<path fill="none" stroke="#191970" d="M1523.5553,-251.9674C1473.6274,-242.4419 1404.5118,-226.8264 1382.5,-210 1367.1162,-198.2402 1356.8974,-178.3352 1350.9688,-163.4531"/>
<polygon fill="#191970" stroke="#191970" points="1354.1206,-161.8812 1347.3976,-153.6927 1347.5469,-164.2865 1354.1206,-161.8812"/>
</g>
<!-- Node26&#45;&gt;Node9 -->
<g id="edge44" class="edge">
<title>Node26&#45;&gt;Node9</title>
<path fill="none" stroke="#191970" d="M1519.3805,-259.5059C1290.5898,-251.7071 473.3272,-223.0596 419.5,-210 341.0378,-190.9634 328.2203,-166.9248 254.5,-134 225.0531,-120.8485 191.2969,-106.2883 167.2763,-96.0148"/>
<polygon fill="#191970" stroke="#191970" points="168.5101,-92.7359 157.939,-92.0274 165.761,-99.1735 168.5101,-92.7359"/>
</g>
<!-- Node26&#45;&gt;Node13 -->
<g id="edge52" class="edge">
<title>Node26&#45;&gt;Node13</title>
<path fill="none" stroke="#191970" d="M1527.9195,-251.9199C1502.4383,-244.5732 1473.0868,-231.8316 1454.5,-210 1412.1513,-160.2582 1468.9911,-110.7752 1420.5,-67 1394.1941,-43.2525 1154.1664,-24.1583 1064.2773,-17.7829"/>
<polygon fill="#191970" stroke="#191970" points="1064.3041,-14.2763 1054.084,-17.069 1063.815,-21.2592 1064.3041,-14.2763"/>
</g>
<!-- Node26&#45;&gt;Node15 -->
<g id="edge58" class="edge">
<title>Node26&#45;&gt;Node15</title>
<path fill="none" stroke="#191970" d="M1611.1903,-251.9692C1667.7952,-233.3624 1781.5484,-186.1045 1818.5,-98 1823.8288,-85.2944 1826.0989,-78.4928 1818.5,-67 1799.211,-37.8267 1759.6803,-25.1268 1731.0395,-19.6314"/>
<polygon fill="#191970" stroke="#191970" points="1731.4858,-16.1569 1721.038,-17.9155 1730.3021,-23.0561 1731.4858,-16.1569"/>
</g>
<!-- Node26&#45;&gt;Node22 -->
<g id="edge56" class="edge">
<title>Node26&#45;&gt;Node22</title>
<path fill="none" stroke="#191970" d="M1637.5823,-252.7701C1693.3639,-243.6213 1772.1346,-228.0788 1797.5,-210 1830.033,-186.8126 1818.1722,-163.1417 1845.5,-134 1858.9566,-119.6502 1876.9126,-106.6683 1891.4,-97.3281"/>
<polygon fill="#191970" stroke="#191970" points="1893.2841,-100.2779 1899.901,-92.0034 1889.5683,-94.3456 1893.2841,-100.2779"/>
</g>
<!-- Node27 -->
<g id="node28" class="node">
<title>Node27</title>
<g id="a_node28"><a xlink:href="Serializable_8h.html" target="_top" xlink:title="Serializable.h">
<polygon fill="none" stroke="#000000" points="1634,-134.5 1634,-153.5 1717,-153.5 1717,-134.5 1634,-134.5"/>
<text text-anchor="middle" x="1675.5" y="-141.5" font-family="Helvetica,sans-Serif" font-size="10.00" fill="#000000">Serializable.h</text>
</a>
</g>
</g>
<!-- Node26&#45;&gt;Node27 -->
<g id="edge35" class="edge">
<title>Node26&#45;&gt;Node27</title>
<path fill="none" stroke="#191970" d="M1625.4504,-251.9634C1648.6439,-244.629 1674.5811,-231.8854 1688.5,-210 1697.4769,-195.8852 1692.3388,-176.9037 1686.0705,-162.9202"/>
<polygon fill="#191970" stroke="#191970" points="1689.0944,-161.1417 1681.492,-153.7624 1682.8333,-164.272 1689.0944,-161.1417"/>
</g>
<!-- Node32 -->
<g id="node33" class="node">
<title>Node32</title>
<g id="a_node33"><a xlink:href="utils_8h.html" target="_top" xlink:title="utils.h">
<polygon fill="none" stroke="#000000" points="2002,-73 2002,-92 2049,-92 2049,-73 2002,-73"/>
<text text-anchor="middle" x="2025.5" y="-80" font-family="Helvetica,sans-Serif" font-size="10.00" fill="#000000">utils.h</text>
</a>
</g>
</g>
<!-- Node26&#45;&gt;Node32 -->
<g id="edge45" class="edge">
<title>Node26&#45;&gt;Node32</title>
<path fill="none" stroke="#191970" d="M1637.8733,-254.7093C1687.9248,-247.6233 1760.7372,-234.0811 1820.5,-210 1893.6093,-180.5409 1969.935,-125.5569 2005.2969,-98.4482"/>
<polygon fill="#191970" stroke="#191970" points="2007.615,-101.0799 2013.3777,-92.1893 2003.3286,-95.5457 2007.615,-101.0799"/>
</g>
<!-- Node39 -->
<g id="node40" class="node">
<title>Node39</title>
<polygon fill="none" stroke="#bfbfbf" points="1629.5,-190.5 1629.5,-209.5 1679.5,-209.5 1679.5,-190.5 1629.5,-190.5"/>
<text text-anchor="middle" x="1654.5" y="-197.5" font-family="Helvetica,sans-Serif" font-size="10.00" fill="#000000">cstdint</text>
</g>
<!-- Node26&#45;&gt;Node39 -->
<g id="edge53" class="edge">
<title>Node26&#45;&gt;Node39</title>
<path fill="none" stroke="#191970" d="M1590.375,-251.8906C1602.1297,-242.3786 1620.3486,-227.6357 1634.3672,-216.2917"/>
<polygon fill="#191970" stroke="#191970" points="1636.8856,-218.7562 1642.4576,-209.7449 1632.4822,-213.3146 1636.8856,-218.7562"/>
</g>
<!-- Node40 -->
<g id="node41" class="node">
<title>Node40</title>
<polygon fill="none" stroke="#bfbfbf" points="1056.5,-190.5 1056.5,-209.5 1102.5,-209.5 1102.5,-190.5 1056.5,-190.5"/>
<text text-anchor="middle" x="1079.5" y="-197.5" font-family="Helvetica,sans-Serif" font-size="10.00" fill="#000000">cstdio</text>
</g>
<!-- Node26&#45;&gt;Node40 -->
<g id="edge54" class="edge">
<title>Node26&#45;&gt;Node40</title>
<path fill="none" stroke="#191970" d="M1519.3149,-254.2127C1438.3207,-244.2391 1288.4017,-225.7743 1160.5,-210 1144.7706,-208.0601 1127.3234,-205.9063 1112.6621,-204.096"/>
<polygon fill="#191970" stroke="#191970" points="1112.8969,-200.5984 1102.5433,-202.8464 1112.0389,-207.5457 1112.8969,-200.5984"/>
</g>
<!-- Node41 -->
<g id="node42" class="node">
<title>Node41</title>
<polygon fill="none" stroke="#bfbfbf" points="1463,-190.5 1463,-209.5 1528,-209.5 1528,-190.5 1463,-190.5"/>
<text text-anchor="middle" x="1495.5" y="-197.5" font-family="Helvetica,sans-Serif" font-size="10.00" fill="#000000">exception</text>
</g>
<!-- Node26&#45;&gt;Node41 -->
<g id="edge55" class="edge">
<title>Node26&#45;&gt;Node41</title>
<path fill="none" stroke="#191970" d="M1565.5313,-251.8906C1552.4966,-242.2324 1532.1836,-227.1812 1516.7845,-215.771"/>
<polygon fill="#191970" stroke="#191970" points="1518.4961,-212.6832 1508.3777,-209.5419 1514.3287,-218.3075 1518.4961,-212.6832"/>
</g>
<!-- Node42 -->
<g id="node43" class="node">
<title>Node42</title>
<polygon fill="none" stroke="#bfbfbf" points="1546,-190.5 1546,-209.5 1611,-209.5 1611,-190.5 1546,-190.5"/>
<text text-anchor="middle" x="1578.5" y="-197.5" font-family="Helvetica,sans-Serif" font-size="10.00" fill="#000000">stdexcept</text>
</g>
<!-- Node26&#45;&gt;Node42 -->
<g id="edge57" class="edge">
<title>Node26&#45;&gt;Node42</title>
<path fill="none" stroke="#191970" d="M1578.5,-251.8906C1578.5,-243.3657 1578.5,-230.6392 1578.5,-219.9235"/>
<polygon fill="#191970" stroke="#191970" points="1582.0001,-219.7448 1578.5,-209.7449 1575.0001,-219.7449 1582.0001,-219.7448"/>
</g>
<!-- Node27&#45;&gt;Node9 -->
<g id="edge36" class="edge">
<title>Node27&#45;&gt;Node9</title>
<path fill="none" stroke="#191970" d="M1633.5299,-142.4764C1577.4583,-140.4561 1475.0074,-136.8178 1387.5,-134 1117.9655,-125.3209 438.5833,-152.628 174.5,-98 171.4587,-97.3709 168.349,-96.5216 165.278,-95.5428"/>
<polygon fill="#191970" stroke="#191970" points="166.3252,-92.1997 155.731,-92.0865 163.9423,-98.7816 166.3252,-92.1997"/>
</g>
<!-- Node27&#45;&gt;Node15 -->
<g id="edge42" class="edge">
<title>Node27&#45;&gt;Node15</title>
<path fill="none" stroke="#191970" d="M1716.9381,-134.448C1749.975,-125.8947 1792.3335,-112.4952 1802.5,-98 1810.4114,-86.7201 1809.7882,-78.6923 1802.5,-67 1786.9937,-42.1235 1755.5815,-28.926 1731.136,-22.1466"/>
<polygon fill="#191970" stroke="#191970" points="1731.7058,-18.6805 1721.1526,-19.6187 1729.9875,-25.4663 1731.7058,-18.6805"/>
</g>
<!-- Node27&#45;&gt;Node22 -->
<g id="edge38" class="edge">
<title>Node27&#45;&gt;Node22</title>
<path fill="none" stroke="#191970" d="M1712.8918,-134.4581C1757.6331,-123.0407 1832.1781,-104.0178 1877.5838,-92.4309"/>
<polygon fill="#191970" stroke="#191970" points="1878.5364,-95.8001 1887.3604,-89.936 1876.8055,-89.0174 1878.5364,-95.8001"/>
</g>
<!-- Node28 -->
<g id="node29" class="node">
<title>Node28</title>
<polygon fill="none" stroke="#bfbfbf" points="1582,-73 1582,-92 1635,-92 1635,-73 1582,-73"/>
<text text-anchor="middle" x="1608.5" y="-80" font-family="Helvetica,sans-Serif" font-size="10.00" fill="#000000">iterator</text>
</g>
<!-- Node27&#45;&gt;Node28 -->
<g id="edge37" class="edge">
<title>Node27&#45;&gt;Node28</title>
<path fill="none" stroke="#191970" d="M1665.0313,-134.3906C1654.7663,-124.9683 1638.9097,-110.4134 1626.5994,-99.1137"/>
<polygon fill="#191970" stroke="#191970" points="1628.8501,-96.4287 1619.1163,-92.2449 1624.1166,-101.5856 1628.8501,-96.4287"/>
</g>
<!-- Node29 -->
<g id="node30" class="node">
<title>Node29</title>
<polygon fill="none" stroke="#bfbfbf" points="1653,-73 1653,-92 1718,-92 1718,-73 1653,-73"/>
<text text-anchor="middle" x="1685.5" y="-80" font-family="Helvetica,sans-Serif" font-size="10.00" fill="#000000">typeindex</text>
</g>
<!-- Node27&#45;&gt;Node29 -->
<g id="edge39" class="edge">
<title>Node27&#45;&gt;Node29</title>
<path fill="none" stroke="#191970" d="M1677.0625,-134.3906C1678.4487,-125.8657 1680.518,-113.1392 1682.2604,-102.4235"/>
<polygon fill="#191970" stroke="#191970" points="1685.7651,-102.677 1683.9155,-92.2449 1678.8558,-101.5535 1685.7651,-102.677"/>
</g>
<!-- Node30 -->
<g id="node31" class="node">
<title>Node30</title>
<polygon fill="none" stroke="#bfbfbf" points="1736,-73 1736,-92 1793,-92 1793,-73 1736,-73"/>
<text text-anchor="middle" x="1764.5" y="-80" font-family="Helvetica,sans-Serif" font-size="10.00" fill="#000000">typeinfo</text>
</g>
<!-- Node27&#45;&gt;Node30 -->
<g id="edge40" class="edge">
<title>Node27&#45;&gt;Node30</title>
<path fill="none" stroke="#191970" d="M1689.4063,-134.3906C1703.5138,-124.6421 1725.5724,-109.3994 1742.1385,-97.9521"/>
<polygon fill="#191970" stroke="#191970" points="1744.4542,-100.6063 1750.6914,-92.0419 1740.4747,-94.8474 1744.4542,-100.6063"/>
</g>
<!-- Node31 -->
<g id="node32" class="node">
<title>Node31</title>
<polygon fill="none" stroke="#bfbfbf" points="518,-73 518,-92 611,-92 611,-73 518,-73"/>
<text text-anchor="middle" x="564.5" y="-80" font-family="Helvetica,sans-Serif" font-size="10.00" fill="#000000">unordered_map</text>
</g>
<!-- Node27&#45;&gt;Node31 -->
<g id="edge41" class="edge">
<title>Node27&#45;&gt;Node31</title>
<path fill="none" stroke="#191970" d="M1633.8193,-142.4469C1444.3501,-135.3533 671.3169,-106.034 620.5,-98 615.0821,-97.1434 609.4393,-95.9515 603.9116,-94.6052"/>
<polygon fill="#191970" stroke="#191970" points="604.7197,-91.1989 594.1594,-92.0545 602.9483,-97.9711 604.7197,-91.1989"/>
</g>
<!-- Node33 -->
<g id="node34" class="node">
<title>Node33</title>
<polygon fill="none" stroke="#bfbfbf" points="1858.5,-6 1858.5,-25 1922.5,-25 1922.5,-6 1858.5,-6"/>
<text text-anchor="middle" x="1890.5" y="-13" font-family="Helvetica,sans-Serif" font-size="10.00" fill="#000000">algorithm</text>
</g>
<!-- Node32&#45;&gt;Node33 -->
<g id="edge46" class="edge">
<title>Node32&#45;&gt;Node33</title>
<path fill="none" stroke="#191970" d="M2006.1578,-72.9005C1983.3013,-61.5569 1945.073,-42.5844 1918.8666,-29.5783"/>
<polygon fill="#191970" stroke="#191970" points="1920.3198,-26.3922 1909.8063,-25.0817 1917.2079,-32.6624 1920.3198,-26.3922"/>
</g>
<!-- Node34 -->
<g id="node35" class="node">
<title>Node34</title>
<polygon fill="none" stroke="#bfbfbf" points="1941,-6 1941,-25 2000,-25 2000,-6 1941,-6"/>
<text text-anchor="middle" x="1970.5" y="-13" font-family="Helvetica,sans-Serif" font-size="10.00" fill="#000000">complex</text>
</g>
<!-- Node32&#45;&gt;Node34 -->
<g id="edge47" class="edge">
<title>Node32&#45;&gt;Node34</title>
<path fill="none" stroke="#191970" d="M2017.6198,-72.9005C2009.1248,-62.552 1995.4176,-45.8542 1984.972,-33.1295"/>
<polygon fill="#191970" stroke="#191970" points="1987.4158,-30.5902 1978.3655,-25.0817 1982.0053,-35.0317 1987.4158,-30.5902"/>
</g>
<!-- Node35 -->
<g id="node36" class="node">
<title>Node35</title>
<polygon fill="none" stroke="#bfbfbf" points="2018,-6 2018,-25 2083,-25 2083,-6 2018,-6"/>
<text text-anchor="middle" x="2050.5" y="-13" font-family="Helvetica,sans-Serif" font-size="10.00" fill="#000000">functional</text>
</g>
<!-- Node32&#45;&gt;Node35 -->
<g id="edge48" class="edge">
<title>Node32&#45;&gt;Node35</title>
<path fill="none" stroke="#191970" d="M2029.0819,-72.9005C2032.7948,-62.95 2038.698,-47.1292 2043.3676,-34.6147"/>
<polygon fill="#191970" stroke="#191970" points="2046.7079,-35.6743 2046.9248,-25.0817 2040.1496,-33.2271 2046.7079,-35.6743"/>
</g>
<!-- Node36 -->
<g id="node37" class="node">
<title>Node36</title>
<polygon fill="none" stroke="#bfbfbf" points="2277.5,-6 2277.5,-25 2331.5,-25 2331.5,-6 2277.5,-6"/>
<text text-anchor="middle" x="2304.5" y="-13" font-family="Helvetica,sans-Serif" font-size="10.00" fill="#000000">random</text>
</g>
<!-- Node32&#45;&gt;Node36 -->
<g id="edge49" class="edge">
<title>Node32&#45;&gt;Node36</title>
<path fill="none" stroke="#191970" d="M2044.0367,-72.8723C2048.6742,-70.722 2053.6977,-68.606 2058.5,-67 2130.5933,-42.8896 2218.4919,-27.744 2267.2953,-20.5278"/>
<polygon fill="#191970" stroke="#191970" points="2267.9898,-23.9638 2277.3851,-19.0669 2266.9868,-17.036 2267.9898,-23.9638"/>
</g>
<!-- Node37 -->
<g id="node38" class="node">
<title>Node37</title>
<polygon fill="none" stroke="#bfbfbf" points="2401,-6 2401,-25 2470,-25 2470,-6 2401,-6"/>
<text text-anchor="middle" x="2435.5" y="-13" font-family="Helvetica,sans-Serif" font-size="10.00" fill="#000000">type_traits</text>
</g>
<!-- Node32&#45;&gt;Node37 -->
<g id="edge50" class="edge">
<title>Node32&#45;&gt;Node37</title>
<path fill="none" stroke="#191970" d="M2043.2588,-72.9222C2048.0867,-70.6642 2053.3946,-68.4849 2058.5,-67 2179.823,-31.713 2215.4637,-49.1758 2340.5,-31 2356.9146,-28.6139 2374.8819,-25.748 2390.7303,-23.133"/>
<polygon fill="#191970" stroke="#191970" points="2391.5109,-26.5514 2400.8014,-21.4584 2390.3627,-19.6462 2391.5109,-26.5514"/>
</g>
<!-- Node38 -->
<g id="node39" class="node">
<title>Node38</title>
<polygon fill="none" stroke="#bfbfbf" points="2101.5,-6 2101.5,-25 2157.5,-25 2157.5,-6 2101.5,-6"/>
<text text-anchor="middle" x="2129.5" y="-13" font-family="Helvetica,sans-Serif" font-size="10.00" fill="#000000">unistd.h</text>
</g>
<!-- Node32&#45;&gt;Node38 -->
<g id="edge51" class="edge">
<title>Node32&#45;&gt;Node38</title>
<path fill="none" stroke="#191970" d="M2040.4007,-72.9005C2057.5453,-61.8554 2085.9168,-43.5776 2106.0345,-30.6172"/>
<polygon fill="#191970" stroke="#191970" points="2108.116,-33.4397 2114.627,-25.0817 2104.3249,-27.5552 2108.116,-33.4397"/>
</g>
<!-- Node43&#45;&gt;Node1 -->
<g id="edge61" class="edge">
<title>Node43&#45;&gt;Node1</title>
<path fill="none" stroke="#191970" d="M1767.6876,-374.9598C1730.4639,-365.3105 1672.1424,-349.5005 1622.5,-333 1520.3643,-299.0515 1499.1434,-278.3809 1396.5,-246 1352.5033,-232.1204 1301.5691,-219.7173 1264.297,-211.2981"/>
<polygon fill="#191970" stroke="#191970" points="1264.6867,-207.7988 1254.1638,-209.0311 1263.1584,-214.6299 1264.6867,-207.7988"/>
</g>
<!-- Node43&#45;&gt;Node2 -->
<g id="edge62" class="edge">
<title>Node43&#45;&gt;Node2</title>
<path fill="none" stroke="#191970" d="M1752.746,-383.7644C1534.7416,-380.1845 711.9939,-361.148 636.5,-277 600.0975,-236.4246 671.5903,-184.0136 712.563,-158.8161"/>
<polygon fill="#191970" stroke="#191970" points="714.5054,-161.7323 721.2758,-153.5829 710.9011,-155.7315 714.5054,-161.7323"/>
</g>
<!-- Node43&#45;&gt;Node9 -->
<g id="edge103" class="edge">
<title>Node43&#45;&gt;Node9</title>
<path fill="none" stroke="#191970" d="M1752.7422,-384.0301C1524.6199,-381.4745 622.5687,-365.8362 355.5,-277 295.6893,-257.1049 278.2509,-251.1459 230.5,-210 192.8784,-177.5822 161.217,-127.7598 145.7188,-101.0054"/>
<polygon fill="#191970" stroke="#191970" points="148.7392,-99.2363 140.7591,-92.2672 142.6514,-102.6917 148.7392,-99.2363"/>
</g>
<!-- Node43&#45;&gt;Node13 -->
<g id="edge108" class="edge">
<title>Node43&#45;&gt;Node13</title>
<path fill="none" stroke="#191970" d="M1801.9174,-374.7092C1790.1802,-343.8112 1750.0706,-247.0448 1688.5,-190 1677.3279,-179.6491 1458.0737,-71.4232 1443.5,-67 1372.5521,-45.4671 1149.943,-25.3617 1064.4257,-18.2332"/>
<polygon fill="#191970" stroke="#191970" points="1064.4822,-14.726 1054.2279,-17.3906 1063.9057,-21.7022 1064.4822,-14.726"/>
</g>
<!-- Node43&#45;&gt;Node17 -->
<g id="edge109" class="edge">
<title>Node43&#45;&gt;Node17</title>
<path fill="none" stroke="#191970" d="M1812.9944,-374.7999C1825.1892,-359.622 1850.7687,-330.2178 1878.5,-313 1919.6984,-287.4208 1935.8082,-293.2438 1981.5,-277 2171.2115,-209.556 2397.8352,-126.9598 2483.9448,-95.5024"/>
<polygon fill="#191970" stroke="#191970" points="2485.3098,-98.73 2493.5012,-92.0104 2482.9073,-92.1552 2485.3098,-98.73"/>
</g>
<!-- Node43&#45;&gt;Node22 -->
<g id="edge110" class="edge">
<title>Node43&#45;&gt;Node22</title>
<path fill="none" stroke="#191970" d="M1807.5284,-374.6652C1810.4953,-360.7685 1816.4396,-334.6634 1823.5,-313 1849.6451,-232.7795 1890.1043,-140.6364 1907.7601,-101.5804"/>
<polygon fill="#191970" stroke="#191970" points="1910.9684,-102.9803 1911.9206,-92.4283 1904.5959,-100.0834 1910.9684,-102.9803"/>
</g>
<!-- Node43&#45;&gt;Node25 -->
<g id="edge63" class="edge">
<title>Node43&#45;&gt;Node25</title>
<path fill="none" stroke="#191970" d="M1785.0313,-374.8906C1763.3048,-364.6908 1728.7665,-348.4763 1704.0815,-336.8875"/>
<polygon fill="#191970" stroke="#191970" points="1705.3645,-333.6234 1694.825,-332.5419 1702.3897,-339.9598 1705.3645,-333.6234"/>
</g>
<!-- Node43&#45;&gt;Node44 -->
<g id="edge64" class="edge">
<title>Node43&#45;&gt;Node44</title>
<path fill="none" stroke="#191970" d="M1752.7865,-379.0423C1642.9537,-367.6707 1390.1119,-341.4926 1273.0462,-329.3722"/>
<polygon fill="#191970" stroke="#191970" points="1273.1327,-325.8625 1262.8254,-328.314 1272.4117,-332.8253 1273.1327,-325.8625"/>
</g>
<!-- Node43&#45;&gt;Node50 -->
<g id="edge102" class="edge">
<title>Node43&#45;&gt;Node50</title>
<path fill="none" stroke="#191970" d="M1808.4502,-374.7008C1813.5478,-359.3869 1825.4322,-329.7998 1845.5,-313 1883.0055,-281.6021 1908.7765,-304.0942 1949.5,-277 1997.0109,-245.39 2037.7539,-190.4215 2056.8752,-162.0668"/>
<polygon fill="#191970" stroke="#191970" points="2059.9148,-163.8155 2062.5094,-153.5433 2054.0752,-159.9554 2059.9148,-163.8155"/>
</g>
<!-- Node43&#45;&gt;Node58 -->
<g id="edge104" class="edge">
<title>Node43&#45;&gt;Node58</title>
<path fill="none" stroke="#191970" d="M1828.9375,-374.8906C1854.1453,-364.5554 1894.4153,-348.0447 1922.7477,-336.4284"/>
<polygon fill="#191970" stroke="#191970" points="1924.3023,-339.5739 1932.2271,-332.5419 1921.6468,-333.0971 1924.3023,-339.5739"/>
</g>
<!-- Node43&#45;&gt;Node59 -->
<g id="edge105" class="edge">
<title>Node43&#45;&gt;Node59</title>
<path fill="none" stroke="#191970" d="M1851.4252,-374.9581C1903.7067,-364.0956 1989.1222,-346.3488 2045.3269,-334.6711"/>
<polygon fill="#191970" stroke="#191970" points="2046.3881,-338.0254 2055.467,-332.5643 2044.9641,-331.1718 2046.3881,-338.0254"/>
</g>
<!-- Node43&#45;&gt;Node60 -->
<g id="edge106" class="edge">
<title>Node43&#45;&gt;Node60</title>
<path fill="none" stroke="#191970" d="M1858.1161,-377.286C1927.0712,-367.7852 2052.056,-350.4048 2168.6173,-333.2656"/>
<polygon fill="#191970" stroke="#191970" points="2169.4028,-336.6878 2178.786,-331.7679 2168.3827,-329.7625 2169.4028,-336.6878"/>
</g>
<!-- Node43&#45;&gt;Node61 -->
<g id="edge107" class="edge">
<title>Node43&#45;&gt;Node61</title>
<path fill="none" stroke="#191970" d="M1858.3574,-379.056C1947.2599,-369.8899 2132.639,-350.7352 2300.4405,-333.1094"/>
<polygon fill="#191970" stroke="#191970" points="2300.8672,-336.5839 2310.4466,-332.058 2300.1356,-329.6222 2300.8672,-336.5839"/>
</g>
<!-- Node44&#45;&gt;Node1 -->
<g id="edge65" class="edge">
<title>Node44&#45;&gt;Node1</title>
<path fill="none" stroke="#191970" d="M1211.5,-313.3484C1211.5,-293.2295 1211.5,-246.4608 1211.5,-219.7098"/>
<polygon fill="#191970" stroke="#191970" points="1215.0001,-219.6067 1211.5,-209.6068 1208.0001,-219.6068 1215.0001,-219.6067"/>
</g>
<!-- Node44&#45;&gt;Node4 -->
<g id="edge99" class="edge">
<title>Node44&#45;&gt;Node4</title>
<path fill="none" stroke="#191970" d="M1160.2907,-318.8877C1076.0062,-311.6268 915.5306,-295.5382 897.5,-277 851.225,-229.4224 862.1451,-141.3239 869.9438,-102.1556"/>
<polygon fill="#191970" stroke="#191970" points="873.3879,-102.7868 872.0574,-92.2759 866.5428,-101.3224 873.3879,-102.7868"/>
</g>
<!-- Node44&#45;&gt;Node5 -->
<g id="edge100" class="edge">
<title>Node44&#45;&gt;Node5</title>
<path fill="none" stroke="#191970" d="M1160.3302,-320.747C1088.2196,-316.5892 961.5652,-305.3747 926.5,-277 895.1282,-251.614 893.0278,-229.6586 900.5,-190 906.6215,-157.5105 922.2996,-122.2443 932.6724,-101.2775"/>
<polygon fill="#191970" stroke="#191970" points="935.8703,-102.7098 937.2731,-92.2083 929.6276,-99.543 935.8703,-102.7098"/>
</g>
<!-- Node44&#45;&gt;Node8 -->
<g id="edge66" class="edge">
<title>Node44&#45;&gt;Node8</title>
<path fill="none" stroke="#191970" d="M1240.6148,-313.3926C1258.8953,-306.0235 1281.7251,-294.1703 1296.5,-277 1325.2082,-243.6375 1337.2486,-191.7672 1341.8865,-163.6794"/>
<polygon fill="#191970" stroke="#191970" points="1345.386,-163.943 1343.4062,-153.5348 1338.4633,-162.9059 1345.386,-163.943"/>
</g>
<!-- Node44&#45;&gt;Node9 -->
<g id="edge96" class="edge">
<title>Node44&#45;&gt;Node9</title>
<path fill="none" stroke="#191970" d="M1160.3094,-322.2188C985.3232,-318.7474 413.203,-300.5636 257.5,-210 219.5746,-187.9409 225.1259,-165.4165 194.5,-134 182.2806,-121.4652 167.4288,-108.5123 155.6833,-98.7324"/>
<polygon fill="#191970" stroke="#191970" points="157.71,-95.8677 147.7617,-92.2233 153.2659,-101.2761 157.71,-95.8677"/>
</g>
<!-- Node44&#45;&gt;Node22 -->
<g id="edge98" class="edge">
<title>Node44&#45;&gt;Node22</title>
<path fill="none" stroke="#191970" d="M1262.801,-321.9097C1344.9163,-319.2021 1510.4705,-309.7783 1646.5,-277 1727.0624,-257.5873 1754.3541,-259.9187 1820.5,-210 1841.4455,-194.193 1883.948,-131.982 1904.6432,-100.6856"/>
<polygon fill="#191970" stroke="#191970" points="1907.7506,-102.3301 1910.3177,-92.051 1901.9008,-98.4857 1907.7506,-102.3301"/>
</g>
<!-- Node44&#45;&gt;Node31 -->
<g id="edge101" class="edge">
<title>Node44&#45;&gt;Node31</title>
<path fill="none" stroke="#191970" d="M1219.6238,-313.2523C1244.2324,-282.5339 1313.3033,-186.6697 1263.5,-134 1214.3366,-82.007 691.1081,-109.6105 620.5,-98 615.2834,-97.1422 609.8559,-95.9861 604.5223,-94.6897"/>
<polygon fill="#191970" stroke="#191970" points="605.0213,-91.2028 594.4616,-92.0653 603.2544,-97.9761 605.0213,-91.2028"/>
</g>
<!-- Node45 -->
<g id="node46" class="node">
<title>Node45</title>
<g id="a_node46"><a xlink:href="Wavefunction_8h.html" target="_top" xlink:title="Wavefunction.h">
<polygon fill="none" stroke="#000000" points="935,-252 935,-271 1028,-271 1028,-252 935,-252"/>
<text text-anchor="middle" x="981.5" y="-259" font-family="Helvetica,sans-Serif" font-size="10.00" fill="#000000">Wavefunction.h</text>
</a>
</g>
</g>
<!-- Node44&#45;&gt;Node45 -->
<g id="edge67" class="edge">
<title>Node44&#45;&gt;Node45</title>
<path fill="none" stroke="#191970" d="M1175.8149,-313.4581C1135.7807,-302.7533 1070.7429,-285.3628 1027.065,-273.6837"/>
<polygon fill="#191970" stroke="#191970" points="1027.8336,-270.2663 1017.2689,-271.0643 1026.0253,-277.0287 1027.8336,-270.2663"/>
</g>
<!-- Node57 -->
<g id="node58" class="node">
<title>Node57</title>
<polygon fill="none" stroke="#bfbfbf" points="645.5,-246.5 645.5,-276.5 815.5,-276.5 815.5,-246.5 645.5,-246.5"/>
<text text-anchor="start" x="653.5" y="-264.5" font-family="Helvetica,sans-Serif" font-size="10.00" fill="#000000">wignerSymbols/wignerSymbols</text>
<text text-anchor="middle" x="730.5" y="-253.5" font-family="Helvetica,sans-Serif" font-size="10.00" fill="#000000">&#45;cpp.h</text>
</g>
<!-- Node44&#45;&gt;Node57 -->
<g id="edge97" class="edge">
<title>Node44&#45;&gt;Node57</title>
<path fill="none" stroke="#191970" d="M1160.4499,-317.4351C1087.1215,-309.3094 947.7743,-293.3748 829.5,-277 828.2156,-276.8222 826.9222,-276.6416 825.6212,-276.4585"/>
<polygon fill="#191970" stroke="#191970" points="825.9222,-272.966 815.5268,-275.0118 824.929,-279.8952 825.9222,-272.966"/>
</g>
<!-- Node45&#45;&gt;Node5 -->
<g id="edge94" class="edge">
<title>Node45&#45;&gt;Node5</title>
<path fill="none" stroke="#191970" d="M979.9847,-251.9086C977.5391,-237.8608 972.0087,-211.0733 962.5,-190 954.5911,-172.4721 944.0724,-172.4045 938.5,-154 935.9241,-145.4925 938.1556,-142.8822 938.5,-134 938.9046,-123.5658 939.7686,-111.9693 940.5905,-102.4263"/>
<polygon fill="#191970" stroke="#191970" points="944.0858,-102.6355 941.5058,-92.3597 937.1146,-102.0016 944.0858,-102.6355"/>
</g>
<!-- Node45&#45;&gt;Node9 -->
<g id="edge91" class="edge">
<title>Node45&#45;&gt;Node9</title>
<path fill="none" stroke="#191970" d="M934.821,-256.4928C903.6131,-253.2434 861.6238,-249.0601 824.5,-246 764.1281,-241.0236 332.5571,-240.9772 280.5,-210 246.1681,-189.5704 261.7917,-161.1669 232.5,-134 221.9481,-124.2135 190.1106,-108.0607 165.7606,-96.4529"/>
<polygon fill="#191970" stroke="#191970" points="167.0642,-93.198 156.5268,-92.0962 164.0771,-99.5287 167.0642,-93.198"/>
</g>
<!-- Node45&#45;&gt;Node15 -->
<g id="edge95" class="edge">
<title>Node45&#45;&gt;Node15</title>
<path fill="none" stroke="#191970" d="M1028.4131,-255.2795C1084.7927,-247.2668 1181.9919,-231.7374 1263.5,-210 1385.4664,-177.4727 1415.6546,-161.9257 1524.5,-98 1546.7211,-84.9494 1550.6285,-78.8741 1573.5,-67 1603.2706,-51.544 1638.752,-37.1918 1664.1177,-27.586"/>
<polygon fill="#191970" stroke="#191970" points="1665.5082,-30.8028 1673.6473,-24.0201 1663.0549,-24.2467 1665.5082,-30.8028"/>
</g>
<!-- Node45&#45;&gt;Node40 -->
<g id="edge92" class="edge">
<title>Node45&#45;&gt;Node40</title>
<path fill="none" stroke="#191970" d="M996.8125,-251.8906C1012.5624,-242.0067 1037.3123,-226.4749 1055.6337,-214.9773"/>
<polygon fill="#191970" stroke="#191970" points="1057.6852,-217.8221 1064.295,-209.5419 1053.9643,-211.8929 1057.6852,-217.8221"/>
</g>
<!-- Node46 -->
<g id="node47" class="node">
<title>Node46</title>
<g id="a_node47"><a xlink:href="QuantumDefect_8h.html" target="_top" xlink:title="QuantumDefect.h">
<polygon fill="none" stroke="#000000" points="429,-190.5 429,-209.5 532,-209.5 532,-190.5 429,-190.5"/>
<text text-anchor="middle" x="480.5" y="-197.5" font-family="Helvetica,sans-Serif" font-size="10.00" fill="#000000">QuantumDefect.h</text>
</a>
</g>
</g>
<!-- Node45&#45;&gt;Node46 -->
<g id="edge68" class="edge">
<title>Node45&#45;&gt;Node46</title>
<path fill="none" stroke="#191970" d="M934.817,-255.7695C844.0471,-244.627 643.7832,-220.0437 542.194,-207.5732"/>
<polygon fill="#191970" stroke="#191970" points="542.4368,-204.0768 532.0848,-206.3323 541.5839,-211.0247 542.4368,-204.0768"/>
</g>
<!-- Node56 -->
<g id="node57" class="node">
<title>Node56</title>
<polygon fill="none" stroke="#bfbfbf" points="909.5,-190.5 909.5,-209.5 953.5,-209.5 953.5,-190.5 909.5,-190.5"/>
<text text-anchor="middle" x="931.5" y="-197.5" font-family="Helvetica,sans-Serif" font-size="10.00" fill="#000000">limits</text>
</g>
<!-- Node45&#45;&gt;Node56 -->
<g id="edge93" class="edge">
<title>Node45&#45;&gt;Node56</title>
<path fill="none" stroke="#191970" d="M973.6875,-251.8906C966.246,-242.7376 954.8666,-228.7409 945.8008,-217.59"/>
<polygon fill="#191970" stroke="#191970" points="948.4467,-215.2962 939.4226,-209.7449 943.0153,-219.712 948.4467,-215.2962"/>
</g>
<!-- Node46&#45;&gt;Node5 -->
<g id="edge87" class="edge">
<title>Node46&#45;&gt;Node5</title>
<path fill="none" stroke="#191970" d="M532.0429,-196.5459C593.6151,-191.4439 699.2485,-179.5815 786.5,-154 834.4827,-139.9318 886.6021,-113.5777 916.8099,-97.0941"/>
<polygon fill="#191970" stroke="#191970" points="918.7556,-100.0178 925.8147,-92.1171 915.3695,-93.8912 918.7556,-100.0178"/>
</g>
<!-- Node46&#45;&gt;Node9 -->
<g id="edge85" class="edge">
<title>Node46&#45;&gt;Node9</title>
<path fill="none" stroke="#191970" d="M448.2997,-190.4781C420.8238,-181.9924 380.4853,-168.6733 346.5,-154 328.9781,-146.4348 326.2697,-140.9632 308.5,-134 251.0835,-111.5008 233.0295,-117.4205 174.5,-98 172.3649,-97.2916 170.1776,-96.5286 167.9816,-95.7344"/>
<polygon fill="#191970" stroke="#191970" points="169.0259,-92.3875 158.4343,-92.1265 166.5513,-98.9356 169.0259,-92.3875"/>
</g>
<!-- Node46&#45;&gt;Node16 -->
<g id="edge90" class="edge">
<title>Node46&#45;&gt;Node16</title>
<path fill="none" stroke="#191970" d="M502.5772,-190.3318C522.6255,-181.3889 552.8868,-167.4809 578.5,-154 613.1746,-135.7499 652.0356,-112.4632 676.3841,-97.5145"/>
<polygon fill="#191970" stroke="#191970" points="678.2922,-100.4499 684.9663,-92.2214 674.6176,-94.4919 678.2922,-100.4499"/>
</g>
<!-- Node46&#45;&gt;Node31 -->
<g id="edge89" class="edge">
<title>Node46&#45;&gt;Node31</title>
<path fill="none" stroke="#191970" d="M512.4992,-190.4159C530.1465,-183.3469 550.6292,-171.8056 561.5,-154 570.9814,-138.4701 570.5964,-117.3085 568.5307,-102.0415"/>
<polygon fill="#191970" stroke="#191970" points="571.9725,-101.4035 566.8465,-92.1313 565.0715,-102.5764 571.9725,-101.4035"/>
</g>
<!-- Node47 -->
<g id="node48" class="node">
<title>Node47</title>
<g id="a_node48"><a xlink:href="Cache_8h.html" target="_top" xlink:title="Cache.h">
<polygon fill="none" stroke="#000000" points="436.5,-134.5 436.5,-153.5 492.5,-153.5 492.5,-134.5 436.5,-134.5"/>
<text text-anchor="middle" x="464.5" y="-141.5" font-family="Helvetica,sans-Serif" font-size="10.00" fill="#000000">Cache.h</text>
</a>
</g>
</g>
<!-- Node46&#45;&gt;Node47 -->
<g id="edge69" class="edge">
<title>Node46&#45;&gt;Node47</title>
<path fill="none" stroke="#191970" d="M477.713,-190.2455C475.6023,-182.8579 472.634,-172.4689 470.0453,-163.4087"/>
<polygon fill="#191970" stroke="#191970" points="473.3677,-162.2964 467.255,-153.6427 466.637,-164.2195 473.3677,-162.2964"/>
</g>
<!-- Node48 -->
<g id="node49" class="node">
<title>Node48</title>
<polygon fill="none" stroke="#bfbfbf" points="183.5,-73 183.5,-92 231.5,-92 231.5,-73 183.5,-73"/>
<text text-anchor="middle" x="207.5" y="-80" font-family="Helvetica,sans-Serif" font-size="10.00" fill="#000000">mutex</text>
</g>
<!-- Node46&#45;&gt;Node48 -->
<g id="edge86" class="edge">
<title>Node46&#45;&gt;Node48</title>
<path fill="none" stroke="#191970" d="M463.0644,-190.4983C437.8139,-176.9496 389.389,-151.7567 346.5,-134 300.5301,-114.9678 286.6444,-116.6051 240.5,-98 239.1058,-97.4379 237.6862,-96.8466 236.258,-96.2365"/>
<polygon fill="#191970" stroke="#191970" points="237.442,-92.932 226.8844,-92.0448 234.5844,-99.3222 237.442,-92.932"/>
</g>
<!-- Node46&#45;&gt;Node50 -->
<g id="edge73" class="edge">
<title>Node46&#45;&gt;Node50</title>
<path fill="none" stroke="#191970" d="M532.4328,-198.1686C777.5216,-189.5257 1815.5195,-152.9212 2029.7311,-145.3672"/>
<polygon fill="#191970" stroke="#191970" points="2029.9975,-148.86 2039.8679,-145.0097 2029.7507,-141.8644 2029.9975,-148.86"/>
</g>
<!-- Node55 -->
<g id="node56" class="node">
<title>Node55</title>
<polygon fill="none" stroke="#bfbfbf" points="511,-134.5 511,-153.5 552,-153.5 552,-134.5 511,-134.5"/>
<text text-anchor="middle" x="531.5" y="-141.5" font-family="Helvetica,sans-Serif" font-size="10.00" fill="#000000">tuple</text>
</g>
<!-- Node46&#45;&gt;Node55 -->
<g id="edge88" class="edge">
<title>Node46&#45;&gt;Node55</title>
<path fill="none" stroke="#191970" d="M489.3835,-190.2455C496.6966,-182.2155 507.2391,-170.6394 515.9467,-161.0781"/>
<polygon fill="#191970" stroke="#191970" points="518.5727,-163.3928 522.7183,-153.6427 513.3972,-158.6795 518.5727,-163.3928"/>
</g>
<!-- Node47&#45;&gt;Node31 -->
<g id="edge71" class="edge">
<title>Node47&#45;&gt;Node31</title>
<path fill="none" stroke="#191970" d="M480.125,-134.3906C496.2698,-124.4616 521.6822,-108.833 540.4023,-97.3201"/>
<polygon fill="#191970" stroke="#191970" points="542.3002,-100.2619 548.9847,-92.0419 538.6331,-94.2992 542.3002,-100.2619"/>
</g>
<!-- Node47&#45;&gt;Node48 -->
<g id="edge70" class="edge">
<title>Node47&#45;&gt;Node48</title>
<path fill="none" stroke="#191970" d="M436.0674,-137.074C431.5358,-136.0152 426.8942,-134.9573 422.5,-134 341.9337,-116.4475 318.8427,-123.7184 240.5,-98 238.6507,-97.3929 236.7696,-96.708 234.8909,-95.9728"/>
<polygon fill="#191970" stroke="#191970" points="236.2459,-92.7456 225.6771,-92.0042 233.4768,-99.1747 236.2459,-92.7456"/>
</g>
<!-- Node49 -->
<g id="node50" class="node">
<title>Node49</title>
<polygon fill="none" stroke="#bfbfbf" points="250,-73 250,-92 357,-92 357,-73 250,-73"/>
<text text-anchor="middle" x="303.5" y="-80" font-family="Helvetica,sans-Serif" font-size="10.00" fill="#000000">boost/optional.hpp</text>
</g>
<!-- Node47&#45;&gt;Node49 -->
<g id="edge72" class="edge">
<title>Node47&#45;&gt;Node49</title>
<path fill="none" stroke="#191970" d="M439.3438,-134.3906C412.051,-123.9652 368.308,-107.2559 337.8603,-95.6252"/>
<polygon fill="#191970" stroke="#191970" points="339.0702,-92.3408 328.4796,-92.0419 336.5723,-98.8799 339.0702,-92.3408"/>
</g>
<!-- Node50&#45;&gt;Node4 -->
<g id="edge77" class="edge">
<title>Node50&#45;&gt;Node4</title>
<path fill="none" stroke="#191970" d="M2039.7386,-143.146C1866.5671,-137.968 968.2312,-110.5804 911.5,-98 908.6953,-97.378 905.8338,-96.5541 903.0066,-95.6094"/>
<polygon fill="#191970" stroke="#191970" points="904.25,-92.3377 893.6591,-92.0503 901.7592,-98.8796 904.25,-92.3377"/>
</g>
<!-- Node50&#45;&gt;Node5 -->
<g id="edge78" class="edge">
<title>Node50&#45;&gt;Node5</title>
<path fill="none" stroke="#191970" d="M2039.9652,-143.0873C1896.2166,-138.4318 1250.4165,-116.8176 1050.5,-98 1024.8933,-95.5897 996.0675,-91.3758 974.641,-87.9496"/>
<polygon fill="#191970" stroke="#191970" points="975.1958,-84.4939 964.7635,-86.3422 974.0715,-91.403 975.1958,-84.4939"/>
</g>
<!-- Node50&#45;&gt;Node17 -->
<g id="edge74" class="edge">
<title>Node50&#45;&gt;Node17</title>
<path fill="none" stroke="#191970" d="M2097.0775,-136.8084C2101.8717,-135.7591 2106.8114,-134.7737 2111.5,-134 2271.898,-107.5324 2316.8031,-133.261 2475.5,-98 2478.9244,-97.2391 2482.4495,-96.292 2485.9433,-95.2435"/>
<polygon fill="#191970" stroke="#191970" points="2487.1779,-98.5223 2495.5969,-92.0903 2485.0044,-91.8683 2487.1779,-98.5223"/>
</g>
<!-- Node50&#45;&gt;Node22 -->
<g id="edge75" class="edge">
<title>Node50&#45;&gt;Node22</title>
<path fill="none" stroke="#191970" d="M2044.75,-134.3906C2019.2061,-124.0554 1978.3991,-107.5447 1949.689,-95.9284"/>
<polygon fill="#191970" stroke="#191970" points="1950.666,-92.5481 1940.0832,-92.0419 1948.0404,-99.0371 1950.666,-92.5481"/>
</g>
<!-- Node50&#45;&gt;Node32 -->
<g id="edge84" class="edge">
<title>Node50&#45;&gt;Node32</title>
<path fill="none" stroke="#191970" d="M2061.7813,-134.3906C2055.507,-125.417 2045.9777,-111.7879 2038.2596,-100.7491"/>
<polygon fill="#191970" stroke="#191970" points="2040.9121,-98.4348 2032.3135,-92.2449 2035.1753,-102.4459 2040.9121,-98.4348"/>
</g>
<!-- Node50&#45;&gt;Node36 -->
<g id="edge76" class="edge">
<title>Node50&#45;&gt;Node36</title>
<path fill="none" stroke="#191970" d="M2097.0939,-136.904C2101.8861,-135.8432 2106.8209,-134.8291 2111.5,-134 2176.0945,-122.5541 2361.0336,-147.1338 2404.5,-98 2429.4148,-69.8367 2379.2188,-43.2955 2341.3379,-28.2543"/>
<polygon fill="#191970" stroke="#191970" points="2342.1304,-24.8101 2331.54,-24.5045 2339.6284,-31.3477 2342.1304,-24.8101"/>
</g>
<!-- Node50&#45;&gt;Node37 -->
<g id="edge80" class="edge">
<title>Node50&#45;&gt;Node37</title>
<path fill="none" stroke="#191970" d="M2097.0892,-136.8772C2101.882,-135.8196 2106.8182,-134.8136 2111.5,-134 2179.8279,-122.1265 2371.191,-145.7355 2421.5,-98 2438.2478,-82.1089 2439.5974,-54.1552 2438.2126,-35.239"/>
<polygon fill="#191970" stroke="#191970" points="2441.6691,-34.6409 2437.1437,-25.0612 2434.7074,-35.3721 2441.6691,-34.6409"/>
</g>
<!-- Node51 -->
<g id="node52" class="node">
<title>Node51</title>
<polygon fill="none" stroke="#bfbfbf" points="2207.5,-73 2207.5,-92 2255.5,-92 2255.5,-73 2207.5,-73"/>
<text text-anchor="middle" x="2231.5" y="-80" font-family="Helvetica,sans-Serif" font-size="10.00" fill="#000000">thread</text>
</g>
<!-- Node50&#45;&gt;Node51 -->
<g id="edge79" class="edge">
<title>Node50&#45;&gt;Node51</title>
<path fill="none" stroke="#191970" d="M2097.209,-134.751C2123.7567,-125.9847 2164.1728,-112.0945 2198.5,-98 2199.8906,-97.429 2201.3073,-96.8306 2202.7331,-96.2147"/>
<polygon fill="#191970" stroke="#191970" points="2204.4139,-99.2965 2212.0985,-92.0029 2201.5428,-92.9124 2204.4139,-99.2965"/>
</g>
<!-- Node52 -->
<g id="node53" class="node">
<title>Node52</title>
<polygon fill="none" stroke="#bfbfbf" points="2273.5,-67.5 2273.5,-97.5 2395.5,-97.5 2395.5,-67.5 2273.5,-67.5"/>
<text text-anchor="start" x="2281.5" y="-85.5" font-family="Helvetica,sans-Serif" font-size="10.00" fill="#000000">boost/iterator/iterator</text>
<text text-anchor="middle" x="2334.5" y="-74.5" font-family="Helvetica,sans-Serif" font-size="10.00" fill="#000000">_facade.hpp</text>
</g>
<!-- Node50&#45;&gt;Node52 -->
<g id="edge81" class="edge">
<title>Node50&#45;&gt;Node52</title>
<path fill="none" stroke="#191970" d="M2097.1797,-137.3239C2101.9616,-136.2126 2106.8707,-135.0728 2111.5,-134 2162.3142,-122.2238 2219.6531,-108.9829 2263.4633,-98.8761"/>
<polygon fill="#191970" stroke="#191970" points="2264.4879,-102.2317 2273.4453,-96.5735 2262.9145,-95.4108 2264.4879,-102.2317"/>
</g>
<!-- Node53 -->
<g id="node54" class="node">
<title>Node53</title>
<polygon fill="none" stroke="#bfbfbf" points="2067,-73 2067,-92 2126,-92 2126,-73 2067,-73"/>
<text text-anchor="middle" x="2096.5" y="-80" font-family="Helvetica,sans-Serif" font-size="10.00" fill="#000000">sqlite3.h</text>
</g>
<!-- Node50&#45;&gt;Node53 -->
<g id="edge82" class="edge">
<title>Node50&#45;&gt;Node53</title>
<path fill="none" stroke="#191970" d="M2072.875,-134.3906C2076.8788,-125.5965 2082.9183,-112.3312 2087.8885,-101.4145"/>
<polygon fill="#191970" stroke="#191970" points="2091.1051,-102.7963 2092.0633,-92.2449 2084.7343,-99.8957 2091.1051,-102.7963"/>
</g>
<!-- Node54 -->
<g id="node55" class="node">
<title>Node54</title>
<polygon fill="none" stroke="#bfbfbf" points="2144,-73 2144,-92 2189,-92 2189,-73 2144,-73"/>
<text text-anchor="middle" x="2166.5" y="-80" font-family="Helvetica,sans-Serif" font-size="10.00" fill="#000000">utility</text>
</g>
<!-- Node50&#45;&gt;Node54 -->
<g id="edge83" class="edge">
<title>Node50&#45;&gt;Node54</title>
<path fill="none" stroke="#191970" d="M2083.8125,-134.3906C2099.5624,-124.5067 2124.3123,-108.9749 2142.6337,-97.4773"/>
<polygon fill="#191970" stroke="#191970" points="2144.6852,-100.3221 2151.295,-92.0419 2140.9643,-94.3929 2144.6852,-100.3221"/>
</g>
</g>
</svg>
