<?xml version="1.0" encoding="UTF-8" standalone="no"?>
<!DOCTYPE svg PUBLIC "-//W3C//DTD SVG 1.1//EN"
 "http://www.w3.org/Graphics/SVG/1.1/DTD/svg11.dtd">
<!-- Generated by graphviz version 2.40.1 (20161225.0304)
 -->
<!-- Title: energycutoff Pages: 1 -->
<svg width="238pt" height="137pt"
 viewBox="0.00 0.00 238.00 137.00" xmlns="http://www.w3.org/2000/svg" xmlns:xlink="http://www.w3.org/1999/xlink">
<g id="graph0" class="graph" transform="scale(1 1) rotate(0) translate(4 133)">
<title>energycutoff</title>
<!-- Node11 -->
<g id="node1" class="node">
<title>Node11</title>
<polygon fill="#bfbfbf" stroke="#000000" points="0,-55 0,-74 79,-74 79,-55 0,-55"/>
<text text-anchor="middle" x="39.5" y="-62" font-family="Helvetica,sans-Serif" font-size="10.00" fill="#000000">energycutoff</text>
</g>
<!-- Node12 -->
<g id="node2" class="node">
<title>Node12</title>
<g id="a_node2"><a xlink:href="classHamiltonianmatrix.html#ab0f42b034579983088548dd6dd4e1e78" target="_top" xlink:title="Hamiltonianmatrix::\lbasis">
<polygon fill="none" stroke="#000000" points="115,-98.5 115,-128.5 230,-128.5 230,-98.5 115,-98.5"/>
<text text-anchor="start" x="123" y="-116.5" font-family="Helvetica,sans-Serif" font-size="10.00" fill="#000000">Hamiltonianmatrix::</text>
<text text-anchor="middle" x="172.5" y="-105.5" font-family="Helvetica,sans-Serif" font-size="10.00" fill="#000000">basis</text>
</a>
</g>
</g>
<!-- Node11&#45;&gt;Node12 -->
<g id="edge1" class="edge">
<title>Node11&#45;&gt;Node12</title>
<path fill="none" stroke="#191970" d="M65.4595,-74.064C81.5624,-79.9967 102.7939,-87.8188 122.0994,-94.9313"/>
<polygon fill="#191970" stroke="#191970" points="121.092,-98.2901 131.6854,-98.463 123.5119,-91.7217 121.092,-98.2901"/>
</g>
<!-- Node13 -->
<g id="node3" class="node">
<title>Node13</title>
<g id="a_node3"><a xlink:href="classHamiltonianmatrix.html#a9a6919d68a5f490c249adaaffd46fe75" target="_top" xlink:title="Hamiltonianmatrix::\lentries">
<polygon fill="none" stroke="#000000" points="115,-49.5 115,-79.5 230,-79.5 230,-49.5 115,-49.5"/>
<text text-anchor="start" x="123" y="-67.5" font-family="Helvetica,sans-Serif" font-size="10.00" fill="#000000">Hamiltonianmatrix::</text>
<text text-anchor="middle" x="172.5" y="-56.5" font-family="Helvetica,sans-Serif" font-size="10.00" fill="#000000">entries</text>
</a>
</g>
</g>
<!-- Node11&#45;&gt;Node13 -->
<g id="edge2" class="edge">
<title>Node11&#45;&gt;Node13</title>
<path fill="none" stroke="#191970" d="M79.0443,-64.5C87.0795,-64.5 95.7468,-64.5 104.4496,-64.5"/>
<polygon fill="#191970" stroke="#191970" points="104.6464,-68.0001 114.6463,-64.5 104.6463,-61.0001 104.6464,-68.0001"/>
</g>
<!-- Node14 -->
<g id="node4" class="node">
<title>Node14</title>
<g id="a_node4"><a xlink:href="classHamiltonianmatrix.html#a9cd965385a65becbfb993fc79dc428f7" target="_top" xlink:title="Hamiltonianmatrix::\lnum_coordinates">
<polygon fill="none" stroke="#000000" points="115,-.5 115,-30.5 230,-30.5 230,-.5 115,-.5"/>
<text text-anchor="start" x="123" y="-18.5" font-family="Helvetica,sans-Serif" font-size="10.00" fill="#000000">Hamiltonianmatrix::</text>
<text text-anchor="middle" x="172.5" y="-7.5" font-family="Helvetica,sans-Serif" font-size="10.00" fill="#000000">num_coordinates</text>
</a>
</g>
</g>
<!-- Node11&#45;&gt;Node14 -->
<g id="edge3" class="edge">
<title>Node11&#45;&gt;Node14</title>
<path fill="none" stroke="#191970" d="M65.4595,-54.936C81.5624,-49.0033 102.7939,-41.1812 122.0994,-34.0687"/>
<polygon fill="#191970" stroke="#191970" points="123.5119,-37.2783 131.6854,-30.537 121.092,-30.7099 123.5119,-37.2783"/>
</g>
</g>
</svg>
