<?xml version="1.0" encoding="UTF-8" standalone="no"?>
<!DOCTYPE svg PUBLIC "-//W3C//DTD SVG 1.1//EN"
 "http://www.w3.org/Graphics/SVG/1.1/DTD/svg11.dtd">
<!-- Generated by graphviz version 2.40.1 (20161225.0304)
 -->
<!-- Title: /travis/pairinteraction/Hamiltonianmatrix.h Pages: 1 -->
<svg width="2056pt" height="285pt"
 viewBox="0.00 0.00 2055.50 285.00" xmlns="http://www.w3.org/2000/svg" xmlns:xlink="http://www.w3.org/1999/xlink">
<g id="graph0" class="graph" transform="scale(1 1) rotate(0) translate(4 281)">
<title>/travis/pairinteraction/Hamiltonianmatrix.h</title>
<!-- Node0 -->
<g id="node1" class="node">
<title>Node0</title>
<polygon fill="#bfbfbf" stroke="#000000" points="1375.5,-246.5 1375.5,-276.5 1497.5,-276.5 1497.5,-246.5 1375.5,-246.5"/>
<text text-anchor="start" x="1383.5" y="-264.5" font-family="Helvetica,sans-Serif" font-size="10.00" fill="#000000">/travis/pairinteraction</text>
<text text-anchor="middle" x="1436.5" y="-253.5" font-family="Helvetica,sans-Serif" font-size="10.00" fill="#000000">/Hamiltonianmatrix.h</text>
</g>
<!-- Node1 -->
<g id="node2" class="node">
<title>Node1</title>
<g id="a_node2"><a xlink:href="Basisnames_8h.html" target="_top" xlink:title="Basisnames.h">
<polygon fill="none" stroke="#000000" points="777,-190.5 777,-209.5 862,-209.5 862,-190.5 777,-190.5"/>
<text text-anchor="middle" x="819.5" y="-197.5" font-family="Helvetica,sans-Serif" font-size="10.00" fill="#000000">Basisnames.h</text>
</a>
</g>
</g>
<!-- Node0&#45;&gt;Node1 -->
<g id="edge1" class="edge">
<title>Node0&#45;&gt;Node1</title>
<path fill="none" stroke="#191970" d="M1375.3678,-255.4066C1254.3351,-243.3426 986.0803,-216.604 872.235,-205.2564"/>
<polygon fill="#191970" stroke="#191970" points="872.3313,-201.7487 862.0334,-204.2396 871.6369,-208.7142 872.3313,-201.7487"/>
</g>
<!-- Node8 -->
<g id="node9" class="node">
<title>Node8</title>
<g id="a_node9"><a xlink:href="StateOld_8h.html" target="_top" xlink:title="StateOld.h">
<polygon fill="none" stroke="#000000" points="436.5,-134.5 436.5,-153.5 504.5,-153.5 504.5,-134.5 436.5,-134.5"/>
<text text-anchor="middle" x="470.5" y="-141.5" font-family="Helvetica,sans-Serif" font-size="10.00" fill="#000000">StateOld.h</text>
</a>
</g>
</g>
<!-- Node0&#45;&gt;Node8 -->
<g id="edge39" class="edge">
<title>Node0&#45;&gt;Node8</title>
<path fill="none" stroke="#191970" d="M1375.3008,-259.6578C1257.2065,-255.4699 989.9027,-242.9114 767.5,-210 676.5567,-196.5421 571.9897,-170.876 514.3616,-155.8227"/>
<polygon fill="#191970" stroke="#191970" points="515.0634,-152.3883 504.5021,-153.2309 513.2837,-159.1583 515.0634,-152.3883"/>
</g>
<!-- Node9 -->
<g id="node10" class="node">
<title>Node9</title>
<g id="a_node10"><a xlink:href="dtypes_8h.html" target="_top" xlink:title="dtypes.h">
<polygon fill="none" stroke="#000000" points="1036,-73 1036,-92 1095,-92 1095,-73 1036,-73"/>
<text text-anchor="middle" x="1065.5" y="-80" font-family="Helvetica,sans-Serif" font-size="10.00" fill="#000000">dtypes.h</text>
</a>
</g>
</g>
<!-- Node0&#45;&gt;Node9 -->
<g id="edge40" class="edge">
<title>Node0&#45;&gt;Node9</title>
<path fill="none" stroke="#191970" d="M1375.2786,-254.2891C1275.1947,-241.0151 1084.0792,-208.926 1048.5,-154 1038.1436,-138.0121 1045.6486,-116.3542 1053.7041,-101.0774"/>
<polygon fill="#191970" stroke="#191970" points="1056.9276,-102.4941 1058.8951,-92.0835 1050.8649,-98.9949 1056.9276,-102.4941"/>
</g>
<!-- Node13 -->
<g id="node14" class="node">
<title>Node13</title>
<polygon fill="none" stroke="#bfbfbf" points="0,-6 0,-25 47,-25 47,-6 0,-6"/>
<text text-anchor="middle" x="23.5" y="-13" font-family="Helvetica,sans-Serif" font-size="10.00" fill="#000000">cmath</text>
</g>
<!-- Node0&#45;&gt;Node13 -->
<g id="edge48" class="edge">
<title>Node0&#45;&gt;Node13</title>
<path fill="none" stroke="#191970" d="M1375.4376,-259.7186C1243.8221,-255.3843 923.7581,-242.1858 657.5,-210 372.9927,-175.6082 206.7037,-317.5364 22.5,-98 7.9537,-80.6635 11.743,-53.3028 16.7764,-34.8942"/>
<polygon fill="#191970" stroke="#191970" points="20.1533,-35.8207 19.7546,-25.2333 13.4639,-33.7585 20.1533,-35.8207"/>
</g>
<!-- Node15 -->
<g id="node16" class="node">
<title>Node15</title>
<polygon fill="none" stroke="#bfbfbf" points="1158,-6 1158,-25 1205,-25 1205,-6 1158,-6"/>
<text text-anchor="middle" x="1181.5" y="-13" font-family="Helvetica,sans-Serif" font-size="10.00" fill="#000000">vector</text>
</g>
<!-- Node0&#45;&gt;Node15 -->
<g id="edge54" class="edge">
<title>Node0&#45;&gt;Node15</title>
<path fill="none" stroke="#191970" d="M1464.8494,-246.4524C1505.1847,-223.0561 1571.0439,-176.2468 1540.5,-134 1501.3054,-79.7879 1296.9024,-36.7755 1215.2471,-21.5004"/>
<polygon fill="#191970" stroke="#191970" points="1215.4862,-17.9855 1205.017,-19.6122 1214.2155,-24.8692 1215.4862,-17.9855"/>
</g>
<!-- Node22 -->
<g id="node23" class="node">
<title>Node22</title>
<polygon fill="none" stroke="#bfbfbf" points="1057.5,-134.5 1057.5,-153.5 1115.5,-153.5 1115.5,-134.5 1057.5,-134.5"/>
<text text-anchor="middle" x="1086.5" y="-141.5" font-family="Helvetica,sans-Serif" font-size="10.00" fill="#000000">memory</text>
</g>
<!-- Node0&#45;&gt;Node22 -->
<g id="edge52" class="edge">
<title>Node0&#45;&gt;Node22</title>
<path fill="none" stroke="#191970" d="M1375.3655,-250.3029C1332.2372,-241.5417 1273.4793,-227.8533 1223.5,-210 1183.2455,-195.6205 1139.1088,-173.0295 1112.1027,-158.3658"/>
<polygon fill="#191970" stroke="#191970" points="1113.7499,-155.2774 1103.2992,-153.5361 1110.383,-161.4145 1113.7499,-155.2774"/>
</g>
<!-- Node25 -->
<g id="node26" class="node">
<title>Node25</title>
<g id="a_node26"><a xlink:href="Serializable_8h.html" target="_top" xlink:title="Serializable.h">
<polygon fill="none" stroke="#000000" points="1233,-190.5 1233,-209.5 1316,-209.5 1316,-190.5 1233,-190.5"/>
<text text-anchor="middle" x="1274.5" y="-197.5" font-family="Helvetica,sans-Serif" font-size="10.00" fill="#000000">Serializable.h</text>
</a>
</g>
</g>
<!-- Node0&#45;&gt;Node25 -->
<g id="edge31" class="edge">
<title>Node0&#45;&gt;Node25</title>
<path fill="none" stroke="#191970" d="M1396.8703,-246.4554C1369.9588,-236.239 1334.7189,-222.8609 1308.9706,-213.0861"/>
<polygon fill="#191970" stroke="#191970" points="1310.1955,-209.8074 1299.6043,-209.5303 1307.711,-216.3517 1310.1955,-209.8074"/>
</g>
<!-- Node30 -->
<g id="node31" class="node">
<title>Node30</title>
<g id="a_node31"><a xlink:href="utils_8h.html" target="_top" xlink:title="utils.h">
<polygon fill="none" stroke="#000000" points="1600,-190.5 1600,-209.5 1647,-209.5 1647,-190.5 1600,-190.5"/>
<text text-anchor="middle" x="1623.5" y="-197.5" font-family="Helvetica,sans-Serif" font-size="10.00" fill="#000000">utils.h</text>
</a>
</g>
</g>
<!-- Node0&#45;&gt;Node30 -->
<g id="edge41" class="edge">
<title>Node0&#45;&gt;Node30</title>
<path fill="none" stroke="#191970" d="M1482.2453,-246.4554C1515.6634,-235.465 1560.2068,-220.8157 1590.2674,-210.9294"/>
<polygon fill="#191970" stroke="#191970" points="1591.4637,-214.2205 1599.8696,-207.7715 1589.2767,-207.5709 1591.4637,-214.2205"/>
</g>
<!-- Node37 -->
<g id="node38" class="node">
<title>Node37</title>
<polygon fill="none" stroke="#bfbfbf" points="1665.5,-190.5 1665.5,-209.5 1715.5,-209.5 1715.5,-190.5 1665.5,-190.5"/>
<text text-anchor="middle" x="1690.5" y="-197.5" font-family="Helvetica,sans-Serif" font-size="10.00" fill="#000000">cstdint</text>
</g>
<!-- Node0&#45;&gt;Node37 -->
<g id="edge49" class="edge">
<title>Node0&#45;&gt;Node37</title>
<path fill="none" stroke="#191970" d="M1497.8956,-248.0973C1539.814,-238.7232 1596.8168,-225.5417 1655.4822,-210.1718"/>
<polygon fill="#191970" stroke="#191970" points="1656.516,-213.5189 1665.2931,-207.5848 1654.7312,-206.7503 1656.516,-213.5189"/>
</g>
<!-- Node38 -->
<g id="node39" class="node">
<title>Node38</title>
<polygon fill="none" stroke="#bfbfbf" points="1733.5,-190.5 1733.5,-209.5 1779.5,-209.5 1779.5,-190.5 1733.5,-190.5"/>
<text text-anchor="middle" x="1756.5" y="-197.5" font-family="Helvetica,sans-Serif" font-size="10.00" fill="#000000">cstdio</text>
</g>
<!-- Node0&#45;&gt;Node38 -->
<g id="edge50" class="edge">
<title>Node0&#45;&gt;Node38</title>
<path fill="none" stroke="#191970" d="M1497.6466,-252.8529C1554.0352,-244.3621 1640.1713,-230.0886 1723.3167,-210.0665"/>
<polygon fill="#191970" stroke="#191970" points="1724.2911,-213.4315 1733.1767,-207.6612 1722.6321,-206.631 1724.2911,-213.4315"/>
</g>
<!-- Node39 -->
<g id="node40" class="node">
<title>Node39</title>
<polygon fill="none" stroke="#bfbfbf" points="1798,-190.5 1798,-209.5 1863,-209.5 1863,-190.5 1798,-190.5"/>
<text text-anchor="middle" x="1830.5" y="-197.5" font-family="Helvetica,sans-Serif" font-size="10.00" fill="#000000">exception</text>
</g>
<!-- Node0&#45;&gt;Node39 -->
<g id="edge51" class="edge">
<title>Node0&#45;&gt;Node39</title>
<path fill="none" stroke="#191970" d="M1497.5064,-254.2388C1565.7859,-245.7388 1679.8843,-230.4217 1787.4874,-210.0594"/>
<polygon fill="#191970" stroke="#191970" points="1788.3791,-213.4524 1797.5445,-208.1376 1787.0653,-206.5768 1788.3791,-213.4524"/>
</g>
<!-- Node40 -->
<g id="node41" class="node">
<title>Node40</title>
<polygon fill="none" stroke="#bfbfbf" points="1881,-190.5 1881,-209.5 1946,-209.5 1946,-190.5 1881,-190.5"/>
<text text-anchor="middle" x="1913.5" y="-197.5" font-family="Helvetica,sans-Serif" font-size="10.00" fill="#000000">stdexcept</text>
</g>
<!-- Node0&#45;&gt;Node40 -->
<g id="edge53" class="edge">
<title>Node0&#45;&gt;Node40</title>
<path fill="none" stroke="#191970" d="M1497.5042,-256.6536C1580.1464,-249.5654 1732.3832,-234.6609 1870.9506,-210.1137"/>
<polygon fill="#191970" stroke="#191970" points="1871.6772,-213.5393 1880.9027,-208.3296 1870.442,-206.6491 1871.6772,-213.5393"/>
</g>
<!-- Node2 -->
<g id="node3" class="node">
<title>Node2</title>
<g id="a_node3"><a xlink:href="ConfParser_8h.html" target="_top" xlink:title="ConfParser.h">
<polygon fill="none" stroke="#000000" points="848,-134.5 848,-153.5 925,-153.5 925,-134.5 848,-134.5"/>
<text text-anchor="middle" x="886.5" y="-141.5" font-family="Helvetica,sans-Serif" font-size="10.00" fill="#000000">ConfParser.h</text>
</a>
</g>
</g>
<!-- Node1&#45;&gt;Node2 -->
<g id="edge2" class="edge">
<title>Node1&#45;&gt;Node2</title>
<path fill="none" stroke="#191970" d="M831.1705,-190.2455C841.0661,-181.9746 855.4627,-169.9416 867.0901,-160.2232"/>
<polygon fill="#191970" stroke="#191970" points="869.535,-162.7413 874.9632,-153.6427 865.0458,-157.3703 869.535,-162.7413"/>
</g>
<!-- Node5 -->
<g id="node6" class="node">
<title>Node5</title>
<polygon fill="none" stroke="#bfbfbf" points="700.5,-73 700.5,-92 744.5,-92 744.5,-73 700.5,-73"/>
<text text-anchor="middle" x="722.5" y="-80" font-family="Helvetica,sans-Serif" font-size="10.00" fill="#000000">string</text>
</g>
<!-- Node1&#45;&gt;Node5 -->
<g id="edge28" class="edge">
<title>Node1&#45;&gt;Node5</title>
<path fill="none" stroke="#191970" d="M818.7837,-190.1155C817.3448,-176.3301 813.0687,-151.1024 800.5,-134 793.4072,-124.3487 768.5579,-108.7034 748.7891,-97.1862"/>
<polygon fill="#191970" stroke="#191970" points="750.2846,-94.009 739.8696,-92.065 746.7991,-100.0795 750.2846,-94.009"/>
</g>
<!-- Node7 -->
<g id="node8" class="node">
<title>Node7</title>
<g id="a_node8"><a xlink:href="Iter_8h.html" target="_top" xlink:title="Iter.h">
<polygon fill="none" stroke="#000000" points="523,-134.5 523,-153.5 564,-153.5 564,-134.5 523,-134.5"/>
<text text-anchor="middle" x="543.5" y="-141.5" font-family="Helvetica,sans-Serif" font-size="10.00" fill="#000000">Iter.h</text>
</a>
</g>
</g>
<!-- Node1&#45;&gt;Node7 -->
<g id="edge7" class="edge">
<title>Node1&#45;&gt;Node7</title>
<path fill="none" stroke="#191970" d="M776.6798,-193.9945C729.1185,-186.8901 649.9704,-173.7805 574.0204,-154.1393"/>
<polygon fill="#191970" stroke="#191970" points="574.8568,-150.7403 564.2956,-151.5833 573.0773,-157.5104 574.8568,-150.7403"/>
</g>
<!-- Node1&#45;&gt;Node8 -->
<g id="edge8" class="edge">
<title>Node1&#45;&gt;Node8</title>
<path fill="none" stroke="#191970" d="M776.9976,-194.6942C719.6466,-187.2966 614.1111,-172.8465 514.6313,-154.1017"/>
<polygon fill="#191970" stroke="#191970" points="515.1935,-150.6459 504.7155,-152.2149 513.885,-157.5226 515.1935,-150.6459"/>
</g>
<!-- Node1&#45;&gt;Node9 -->
<g id="edge24" class="edge">
<title>Node1&#45;&gt;Node9</title>
<path fill="none" stroke="#191970" d="M845.6655,-190.4067C869.0066,-181.6222 903.9563,-167.9077 933.5,-154 971.5125,-136.1056 1013.9929,-112.3961 1040.2416,-97.2905"/>
<polygon fill="#191970" stroke="#191970" points="1042.2374,-100.1795 1049.1395,-92.1413 1038.7312,-94.1209 1042.2374,-100.1795"/>
</g>
<!-- Node1&#45;&gt;Node15 -->
<g id="edge30" class="edge">
<title>Node1&#45;&gt;Node15</title>
<path fill="none" stroke="#191970" d="M862.0904,-191.829C920.5247,-179.11 1027.0059,-150.4146 1103.5,-98 1129.9098,-79.9037 1154.2058,-51.5606 1168.4392,-33.2576"/>
<polygon fill="#191970" stroke="#191970" points="1171.3223,-35.2484 1174.5834,-25.1679 1165.7478,-31.0145 1171.3223,-35.2484"/>
</g>
<!-- Node21 -->
<g id="node22" class="node">
<title>Node21</title>
<polygon fill="none" stroke="#bfbfbf" points="582,-134.5 582,-153.5 637,-153.5 637,-134.5 582,-134.5"/>
<text text-anchor="middle" x="609.5" y="-141.5" font-family="Helvetica,sans-Serif" font-size="10.00" fill="#000000">fstream</text>
</g>
<!-- Node1&#45;&gt;Node21 -->
<g id="edge25" class="edge">
<title>Node1&#45;&gt;Node21</title>
<path fill="none" stroke="#191970" d="M783.372,-190.4396C750.4166,-181.7086 700.1086,-168.3548 647.2692,-154.199"/>
<polygon fill="#191970" stroke="#191970" points="647.9423,-150.7559 637.377,-151.5474 646.1298,-157.5172 647.9423,-150.7559"/>
</g>
<!-- Node1&#45;&gt;Node22 -->
<g id="edge26" class="edge">
<title>Node1&#45;&gt;Node22</title>
<path fill="none" stroke="#191970" d="M862.1022,-191.0647C913.097,-180.3692 997.7901,-162.6058 1047.2511,-152.232"/>
<polygon fill="#191970" stroke="#191970" points="1048.1774,-155.6139 1057.246,-150.1357 1046.7405,-148.763 1048.1774,-155.6139"/>
</g>
<!-- Node23 -->
<g id="node24" class="node">
<title>Node23</title>
<polygon fill="none" stroke="#bfbfbf" points="655.5,-134.5 655.5,-153.5 687.5,-153.5 687.5,-134.5 655.5,-134.5"/>
<text text-anchor="middle" x="671.5" y="-141.5" font-family="Helvetica,sans-Serif" font-size="10.00" fill="#000000">set</text>
</g>
<!-- Node1&#45;&gt;Node23 -->
<g id="edge27" class="edge">
<title>Node1&#45;&gt;Node23</title>
<path fill="none" stroke="#191970" d="M793.5198,-190.4778C770.4319,-181.9733 735.5506,-169.0219 696.9643,-154.1273"/>
<polygon fill="#191970" stroke="#191970" points="698.206,-150.8549 687.6168,-150.5089 695.679,-157.3829 698.206,-150.8549"/>
</g>
<!-- Node24 -->
<g id="node25" class="node">
<title>Node24</title>
<polygon fill="none" stroke="#bfbfbf" points="705.5,-134.5 705.5,-153.5 791.5,-153.5 791.5,-134.5 705.5,-134.5"/>
<text text-anchor="middle" x="748.5" y="-141.5" font-family="Helvetica,sans-Serif" font-size="10.00" fill="#000000">unordered_set</text>
</g>
<!-- Node1&#45;&gt;Node24 -->
<g id="edge29" class="edge">
<title>Node1&#45;&gt;Node24</title>
<path fill="none" stroke="#191970" d="M807.1327,-190.2455C796.5446,-181.8943 781.0936,-169.7076 768.7107,-159.9408"/>
<polygon fill="#191970" stroke="#191970" points="770.7447,-157.0875 760.7255,-153.6427 766.4097,-162.5837 770.7447,-157.0875"/>
</g>
<!-- Node3 -->
<g id="node4" class="node">
<title>Node3</title>
<polygon fill="none" stroke="#bfbfbf" points="762.5,-73 762.5,-92 800.5,-92 800.5,-73 762.5,-73"/>
<text text-anchor="middle" x="781.5" y="-80" font-family="Helvetica,sans-Serif" font-size="10.00" fill="#000000">map</text>
</g>
<!-- Node2&#45;&gt;Node3 -->
<g id="edge3" class="edge">
<title>Node2&#45;&gt;Node3</title>
<path fill="none" stroke="#191970" d="M870.0938,-134.3906C853.0647,-124.4165 826.2159,-108.6908 806.5349,-97.1633"/>
<polygon fill="#191970" stroke="#191970" points="808.1888,-94.0759 797.791,-92.0419 804.651,-100.1161 808.1888,-94.0759"/>
</g>
<!-- Node4 -->
<g id="node5" class="node">
<title>Node4</title>
<polygon fill="none" stroke="#bfbfbf" points="818.5,-73 818.5,-92 874.5,-92 874.5,-73 818.5,-73"/>
<text text-anchor="middle" x="846.5" y="-80" font-family="Helvetica,sans-Serif" font-size="10.00" fill="#000000">sstream</text>
</g>
<!-- Node2&#45;&gt;Node4 -->
<g id="edge4" class="edge">
<title>Node2&#45;&gt;Node4</title>
<path fill="none" stroke="#191970" d="M880.25,-134.3906C874.4135,-125.417 865.5491,-111.7879 858.3694,-100.7491"/>
<polygon fill="#191970" stroke="#191970" points="861.2245,-98.7194 852.8381,-92.2449 855.3564,-102.5361 861.2245,-98.7194"/>
</g>
<!-- Node2&#45;&gt;Node5 -->
<g id="edge5" class="edge">
<title>Node2&#45;&gt;Node5</title>
<path fill="none" stroke="#191970" d="M855.1626,-134.4397C827.9333,-125.8314 787.6173,-112.3569 753.5,-98 752.3145,-97.5011 751.1109,-96.9775 749.9004,-96.4368"/>
<polygon fill="#191970" stroke="#191970" points="751.2114,-93.1853 740.6741,-92.0821 748.2235,-99.5156 751.2114,-93.1853"/>
</g>
<!-- Node6 -->
<g id="node7" class="node">
<title>Node6</title>
<polygon fill="none" stroke="#bfbfbf" points="893,-73 893,-92 1018,-92 1018,-73 893,-73"/>
<text text-anchor="middle" x="955.5" y="-80" font-family="Helvetica,sans-Serif" font-size="10.00" fill="#000000">boost/lexical_cast.hpp</text>
</g>
<!-- Node2&#45;&gt;Node6 -->
<g id="edge6" class="edge">
<title>Node2&#45;&gt;Node6</title>
<path fill="none" stroke="#191970" d="M897.2813,-134.3906C907.8526,-124.9683 924.1825,-110.4134 936.8603,-99.1137"/>
<polygon fill="#191970" stroke="#191970" points="939.4304,-101.5114 944.5667,-92.2449 934.7728,-96.2858 939.4304,-101.5114"/>
</g>
<!-- Node8&#45;&gt;Node5 -->
<g id="edge20" class="edge">
<title>Node8&#45;&gt;Node5</title>
<path fill="none" stroke="#191970" d="M504.7474,-135.9414C507.7054,-135.2739 510.6539,-134.6186 513.5,-134 592.3713,-116.8569 615.1842,-124.2767 691.5,-98 693.1037,-97.4478 694.7301,-96.8293 696.3547,-96.1658"/>
<polygon fill="#191970" stroke="#191970" points="697.8152,-99.3466 705.47,-92.0216 694.9181,-92.9743 697.8152,-99.3466"/>
</g>
<!-- Node8&#45;&gt;Node9 -->
<g id="edge9" class="edge">
<title>Node8&#45;&gt;Node9</title>
<path fill="none" stroke="#191970" d="M504.6733,-135.5379C507.6474,-134.9581 510.6199,-134.4332 513.5,-134 739.5188,-100.0074 803.6585,-148.81 1026.5,-98 1029.3637,-97.3471 1032.2925,-96.5154 1035.195,-95.5775"/>
<polygon fill="#191970" stroke="#191970" points="1036.6206,-98.7837 1044.8288,-92.0848 1034.2346,-92.2028 1036.6206,-98.7837"/>
</g>
<!-- Node12 -->
<g id="node13" class="node">
<title>Node12</title>
<polygon fill="none" stroke="#bfbfbf" points="636.5,-6 636.5,-25 678.5,-25 678.5,-6 636.5,-6"/>
<text text-anchor="middle" x="657.5" y="-13" font-family="Helvetica,sans-Serif" font-size="10.00" fill="#000000">array</text>
</g>
<!-- Node8&#45;&gt;Node12 -->
<g id="edge16" class="edge">
<title>Node8&#45;&gt;Node12</title>
<path fill="none" stroke="#191970" d="M483.8997,-134.2566C496.5224,-125.0316 515.918,-110.7361 532.5,-98 550.0602,-84.5126 553.2955,-79.6042 571.5,-67 590.816,-53.6262 613.6755,-40.0359 630.9697,-30.1765"/>
<polygon fill="#191970" stroke="#191970" points="632.9598,-33.0723 639.9471,-25.108 629.5183,-26.9767 632.9598,-33.0723"/>
</g>
<!-- Node8&#45;&gt;Node13 -->
<g id="edge18" class="edge">
<title>Node8&#45;&gt;Node13</title>
<path fill="none" stroke="#191970" d="M436.1645,-142.5696C339.7729,-138.2442 71.778,-123.9783 42.5,-98 25.0286,-82.4976 21.9269,-54.45 22.0871,-35.4067"/>
<polygon fill="#191970" stroke="#191970" points="25.5946,-35.2817 22.4915,-25.1515 18.6,-35.0058 25.5946,-35.2817"/>
</g>
<!-- Node16 -->
<g id="node17" class="node">
<title>Node16</title>
<polygon fill="none" stroke="#bfbfbf" points="52,-73 52,-92 195,-92 195,-73 52,-73"/>
<text text-anchor="middle" x="123.5" y="-80" font-family="Helvetica,sans-Serif" font-size="10.00" fill="#000000">boost/functional/hash.hpp</text>
</g>
<!-- Node8&#45;&gt;Node16 -->
<g id="edge17" class="edge">
<title>Node8&#45;&gt;Node16</title>
<path fill="none" stroke="#191970" d="M436.4539,-138.3121C385.8271,-129.8088 287.7241,-113.1576 204.5,-98 197.4306,-96.7125 190.02,-95.334 182.6735,-93.9498"/>
<polygon fill="#191970" stroke="#191970" points="183.2103,-90.4893 172.7335,-92.0667 181.9073,-97.367 183.2103,-90.4893"/>
</g>
<!-- Node17 -->
<g id="node18" class="node">
<title>Node17</title>
<polygon fill="none" stroke="#bfbfbf" points="213.5,-73 213.5,-92 273.5,-92 273.5,-73 213.5,-73"/>
<text text-anchor="middle" x="243.5" y="-80" font-family="Helvetica,sans-Serif" font-size="10.00" fill="#000000">iostream</text>
</g>
<!-- Node8&#45;&gt;Node17 -->
<g id="edge19" class="edge">
<title>Node8&#45;&gt;Node17</title>
<path fill="none" stroke="#191970" d="M436.4881,-137.1613C398.5279,-129.1872 335.4748,-114.9185 282.5,-98 280.2161,-97.2706 277.875,-96.4726 275.5291,-95.6357"/>
<polygon fill="#191970" stroke="#191970" points="276.5848,-92.2936 265.9928,-92.0524 274.1226,-98.8462 276.5848,-92.2936"/>
</g>
<!-- Node18 -->
<g id="node19" class="node">
<title>Node18</title>
<polygon fill="none" stroke="#bfbfbf" points="292,-67.5 292,-97.5 399,-97.5 399,-67.5 292,-67.5"/>
<text text-anchor="start" x="300" y="-85.5" font-family="Helvetica,sans-Serif" font-size="10.00" fill="#000000">boost/serialization</text>
<text text-anchor="middle" x="345.5" y="-74.5" font-family="Helvetica,sans-Serif" font-size="10.00" fill="#000000">/array.hpp</text>
</g>
<!-- Node8&#45;&gt;Node18 -->
<g id="edge21" class="edge">
<title>Node8&#45;&gt;Node18</title>
<path fill="none" stroke="#191970" d="M450.9688,-134.3906C433.425,-125.7591 407.1264,-112.8202 385.1796,-102.0224"/>
<polygon fill="#191970" stroke="#191970" points="386.5964,-98.8188 376.0784,-97.5446 383.5061,-105.0997 386.5964,-98.8188"/>
</g>
<!-- Node19 -->
<g id="node20" class="node">
<title>Node19</title>
<polygon fill="none" stroke="#bfbfbf" points="417,-67.5 417,-97.5 524,-97.5 524,-67.5 417,-67.5"/>
<text text-anchor="start" x="425" y="-85.5" font-family="Helvetica,sans-Serif" font-size="10.00" fill="#000000">boost/serialization</text>
<text text-anchor="middle" x="470.5" y="-74.5" font-family="Helvetica,sans-Serif" font-size="10.00" fill="#000000">/string.hpp</text>
</g>
<!-- Node8&#45;&gt;Node19 -->
<g id="edge22" class="edge">
<title>Node8&#45;&gt;Node19</title>
<path fill="none" stroke="#191970" d="M470.5,-134.3906C470.5,-127.2234 470.5,-117.0862 470.5,-107.671"/>
<polygon fill="#191970" stroke="#191970" points="474.0001,-107.5446 470.5,-97.5446 467.0001,-107.5446 474.0001,-107.5446"/>
</g>
<!-- Node20 -->
<g id="node21" class="node">
<title>Node20</title>
<polygon fill="none" stroke="#bfbfbf" points="580.5,-73 580.5,-92 682.5,-92 682.5,-73 580.5,-73"/>
<text text-anchor="middle" x="631.5" y="-80" font-family="Helvetica,sans-Serif" font-size="10.00" fill="#000000">boost/variant.hpp</text>
</g>
<!-- Node8&#45;&gt;Node20 -->
<g id="edge23" class="edge">
<title>Node8&#45;&gt;Node20</title>
<path fill="none" stroke="#191970" d="M495.6563,-134.3906C522.949,-123.9652 566.692,-107.2559 597.1397,-95.6252"/>
<polygon fill="#191970" stroke="#191970" points="598.4277,-98.8799 606.5204,-92.0419 595.9298,-92.3408 598.4277,-98.8799"/>
</g>
<!-- Node10 -->
<g id="node11" class="node">
<title>Node10</title>
<polygon fill="none" stroke="#bfbfbf" points="803,-6 803,-25 880,-25 880,-6 803,-6"/>
<text text-anchor="middle" x="841.5" y="-13" font-family="Helvetica,sans-Serif" font-size="10.00" fill="#000000">Eigen/Dense</text>
</g>
<!-- Node9&#45;&gt;Node10 -->
<g id="edge10" class="edge">
<title>Node9&#45;&gt;Node10</title>
<path fill="none" stroke="#191970" d="M1042.5728,-72.8521C1037.3346,-70.7981 1031.7604,-68.7294 1026.5,-67 966.6932,-47.3379 949.9225,-48.6797 889.5,-31 886.3483,-30.0778 883.0899,-29.0932 879.8238,-28.0842"/>
<polygon fill="#191970" stroke="#191970" points="880.6907,-24.6878 870.1012,-25.0224 878.588,-31.3646 880.6907,-24.6878"/>
</g>
<!-- Node11 -->
<g id="node12" class="node">
<title>Node11</title>
<polygon fill="none" stroke="#bfbfbf" points="898.5,-6 898.5,-25 978.5,-25 978.5,-6 898.5,-6"/>
<text text-anchor="middle" x="938.5" y="-13" font-family="Helvetica,sans-Serif" font-size="10.00" fill="#000000">Eigen/Sparse</text>
</g>
<!-- Node9&#45;&gt;Node11 -->
<g id="edge11" class="edge">
<title>Node9&#45;&gt;Node11</title>
<path fill="none" stroke="#191970" d="M1047.304,-72.9005C1025.8962,-61.6067 990.1542,-42.7506 965.5107,-29.7497"/>
<polygon fill="#191970" stroke="#191970" points="967.1401,-26.6522 956.6622,-25.0817 963.8738,-32.8434 967.1401,-26.6522"/>
</g>
<!-- Node9&#45;&gt;Node12 -->
<g id="edge12" class="edge">
<title>Node9&#45;&gt;Node12</title>
<path fill="none" stroke="#191970" d="M1043.946,-72.8687C1038.3532,-70.6663 1032.276,-68.5272 1026.5,-67 962.5938,-50.1034 765.5234,-27.3597 688.6566,-18.8756"/>
<polygon fill="#191970" stroke="#191970" points="688.9568,-15.3876 678.6345,-17.7752 688.1927,-22.3458 688.9568,-15.3876"/>
</g>
<!-- Node9&#45;&gt;Node13 -->
<g id="edge13" class="edge">
<title>Node9&#45;&gt;Node13</title>
<path fill="none" stroke="#191970" d="M1044.8457,-72.8393C1039.032,-70.5231 1032.6219,-68.3356 1026.5,-67 930.2259,-45.9966 221.895,-21.9297 57.5066,-16.5869"/>
<polygon fill="#191970" stroke="#191970" points="57.1586,-13.0739 47.0506,-16.2485 56.9322,-20.0702 57.1586,-13.0739"/>
</g>
<!-- Node14 -->
<g id="node15" class="node">
<title>Node14</title>
<polygon fill="none" stroke="#bfbfbf" points="997,-.5 997,-30.5 1140,-30.5 1140,-.5 997,-.5"/>
<text text-anchor="start" x="1005" y="-18.5" font-family="Helvetica,sans-Serif" font-size="10.00" fill="#000000">unsupported/Eigen/CXX11</text>
<text text-anchor="middle" x="1068.5" y="-7.5" font-family="Helvetica,sans-Serif" font-size="10.00" fill="#000000">/Tensor</text>
</g>
<!-- Node9&#45;&gt;Node14 -->
<g id="edge14" class="edge">
<title>Node9&#45;&gt;Node14</title>
<path fill="none" stroke="#191970" d="M1065.9298,-72.9005C1066.3055,-64.5099 1066.8681,-51.9451 1067.3713,-40.7085"/>
<polygon fill="#191970" stroke="#191970" points="1070.8765,-40.6683 1067.8274,-30.5218 1063.8835,-40.3552 1070.8765,-40.6683"/>
</g>
<!-- Node9&#45;&gt;Node15 -->
<g id="edge15" class="edge">
<title>Node9&#45;&gt;Node15</title>
<path fill="none" stroke="#191970" d="M1082.12,-72.9005C1101.5012,-61.7062 1133.7455,-43.0823 1156.2315,-30.0947"/>
<polygon fill="#191970" stroke="#191970" points="1158.002,-33.114 1164.9109,-25.0817 1154.5009,-27.0525 1158.002,-33.114"/>
</g>
<!-- Node25&#45;&gt;Node9 -->
<g id="edge32" class="edge">
<title>Node25&#45;&gt;Node9</title>
<path fill="none" stroke="#191970" d="M1248.2821,-190.4693C1226.1725,-182.0261 1193.9899,-168.7722 1167.5,-154 1137.556,-137.3016 1105.5808,-113.8636 1085.5744,-98.4379"/>
<polygon fill="#191970" stroke="#191970" points="1087.5633,-95.5505 1077.5244,-92.1639 1083.2602,-101.0717 1087.5633,-95.5505"/>
</g>
<!-- Node25&#45;&gt;Node15 -->
<g id="edge38" class="edge">
<title>Node25&#45;&gt;Node15</title>
<path fill="none" stroke="#191970" d="M1247.981,-190.3671C1231.5852,-182.9876 1211.6142,-171.1323 1200.5,-154 1176.7117,-117.3309 1176.99,-63.7109 1179.2465,-35.1372"/>
<polygon fill="#191970" stroke="#191970" points="1182.7307,-35.4682 1180.198,-25.1805 1175.7624,-34.8022 1182.7307,-35.4682"/>
</g>
<!-- Node25&#45;&gt;Node22 -->
<g id="edge34" class="edge">
<title>Node25&#45;&gt;Node22</title>
<path fill="none" stroke="#191970" d="M1242.1816,-190.3733C1209.7895,-180.7245 1159.9014,-165.8642 1125.3676,-155.5776"/>
<polygon fill="#191970" stroke="#191970" points="1126.2043,-152.1749 1115.6213,-152.6744 1124.2059,-158.8836 1126.2043,-152.1749"/>
</g>
<!-- Node26 -->
<g id="node27" class="node">
<title>Node26</title>
<polygon fill="none" stroke="#bfbfbf" points="1210,-134.5 1210,-153.5 1263,-153.5 1263,-134.5 1210,-134.5"/>
<text text-anchor="middle" x="1236.5" y="-141.5" font-family="Helvetica,sans-Serif" font-size="10.00" fill="#000000">iterator</text>
</g>
<!-- Node25&#45;&gt;Node26 -->
<g id="edge33" class="edge">
<title>Node25&#45;&gt;Node26</title>
<path fill="none" stroke="#191970" d="M1267.8809,-190.2455C1262.5954,-182.4564 1255.0459,-171.3308 1248.6762,-161.9439"/>
<polygon fill="#191970" stroke="#191970" points="1251.5545,-159.9522 1243.0432,-153.6427 1245.7621,-163.8827 1251.5545,-159.9522"/>
</g>
<!-- Node27 -->
<g id="node28" class="node">
<title>Node27</title>
<polygon fill="none" stroke="#bfbfbf" points="1281,-134.5 1281,-153.5 1346,-153.5 1346,-134.5 1281,-134.5"/>
<text text-anchor="middle" x="1313.5" y="-141.5" font-family="Helvetica,sans-Serif" font-size="10.00" fill="#000000">typeindex</text>
</g>
<!-- Node25&#45;&gt;Node27 -->
<g id="edge35" class="edge">
<title>Node25&#45;&gt;Node27</title>
<path fill="none" stroke="#191970" d="M1281.2933,-190.2455C1286.7178,-182.4564 1294.4661,-171.3308 1301.0033,-161.9439"/>
<polygon fill="#191970" stroke="#191970" points="1303.9417,-163.849 1306.7846,-153.6427 1298.1975,-159.8485 1303.9417,-163.849"/>
</g>
<!-- Node28 -->
<g id="node29" class="node">
<title>Node28</title>
<polygon fill="none" stroke="#bfbfbf" points="1364,-134.5 1364,-153.5 1421,-153.5 1421,-134.5 1364,-134.5"/>
<text text-anchor="middle" x="1392.5" y="-141.5" font-family="Helvetica,sans-Serif" font-size="10.00" fill="#000000">typeinfo</text>
</g>
<!-- Node25&#45;&gt;Node28 -->
<g id="edge36" class="edge">
<title>Node25&#45;&gt;Node28</title>
<path fill="none" stroke="#191970" d="M1294.7849,-190.3733C1313.6421,-181.4241 1341.946,-167.9917 1363.2455,-157.8835"/>
<polygon fill="#191970" stroke="#191970" points="1364.9461,-160.9506 1372.4798,-153.5011 1361.9449,-154.6266 1364.9461,-160.9506"/>
</g>
<!-- Node29 -->
<g id="node30" class="node">
<title>Node29</title>
<polygon fill="none" stroke="#bfbfbf" points="1439,-134.5 1439,-153.5 1532,-153.5 1532,-134.5 1439,-134.5"/>
<text text-anchor="middle" x="1485.5" y="-141.5" font-family="Helvetica,sans-Serif" font-size="10.00" fill="#000000">unordered_map</text>
</g>
<!-- Node25&#45;&gt;Node29 -->
<g id="edge37" class="edge">
<title>Node25&#45;&gt;Node29</title>
<path fill="none" stroke="#191970" d="M1310.7722,-190.3733C1346.4658,-180.9001 1401.0879,-166.4032 1439.7451,-156.1435"/>
<polygon fill="#191970" stroke="#191970" points="1440.9336,-159.4493 1449.7011,-153.5011 1439.1379,-152.6835 1440.9336,-159.4493"/>
</g>
<!-- Node31 -->
<g id="node32" class="node">
<title>Node31</title>
<polygon fill="none" stroke="#bfbfbf" points="1750.5,-134.5 1750.5,-153.5 1814.5,-153.5 1814.5,-134.5 1750.5,-134.5"/>
<text text-anchor="middle" x="1782.5" y="-141.5" font-family="Helvetica,sans-Serif" font-size="10.00" fill="#000000">algorithm</text>
</g>
<!-- Node30&#45;&gt;Node31 -->
<g id="edge42" class="edge">
<title>Node30&#45;&gt;Node31</title>
<path fill="none" stroke="#191970" d="M1647.3039,-191.6162C1673.3003,-182.4603 1715.2643,-167.6805 1745.5492,-157.0141"/>
<polygon fill="#191970" stroke="#191970" points="1747.0627,-160.1919 1755.3321,-153.5686 1744.7373,-153.5894 1747.0627,-160.1919"/>
</g>
<!-- Node32 -->
<g id="node33" class="node">
<title>Node32</title>
<polygon fill="none" stroke="#bfbfbf" points="1833,-134.5 1833,-153.5 1892,-153.5 1892,-134.5 1833,-134.5"/>
<text text-anchor="middle" x="1862.5" y="-141.5" font-family="Helvetica,sans-Serif" font-size="10.00" fill="#000000">complex</text>
</g>
<!-- Node30&#45;&gt;Node32 -->
<g id="edge43" class="edge">
<title>Node30&#45;&gt;Node32</title>
<path fill="none" stroke="#191970" d="M1647.2274,-192.5562C1650.3354,-191.6558 1653.4864,-190.78 1656.5,-190 1726.99,-171.7547 1747.9029,-171.4277 1822.8039,-154.084"/>
<polygon fill="#191970" stroke="#191970" points="1823.78,-157.4502 1832.7188,-151.7625 1822.1842,-150.6345 1823.78,-157.4502"/>
</g>
<!-- Node33 -->
<g id="node34" class="node">
<title>Node33</title>
<polygon fill="none" stroke="#bfbfbf" points="1910,-134.5 1910,-153.5 1975,-153.5 1975,-134.5 1910,-134.5"/>
<text text-anchor="middle" x="1942.5" y="-141.5" font-family="Helvetica,sans-Serif" font-size="10.00" fill="#000000">functional</text>
</g>
<!-- Node30&#45;&gt;Node33 -->
<g id="edge44" class="edge">
<title>Node30&#45;&gt;Node33</title>
<path fill="none" stroke="#191970" d="M1647.1812,-192.3647C1650.2968,-191.4956 1653.4621,-190.6795 1656.5,-190 1760.7573,-166.679 1791.6765,-174.5584 1899.8749,-154.1702"/>
<polygon fill="#191970" stroke="#191970" points="1900.7275,-157.5704 1909.8869,-152.2453 1899.4059,-150.6963 1900.7275,-157.5704"/>
</g>
<!-- Node34 -->
<g id="node35" class="node">
<title>Node34</title>
<polygon fill="none" stroke="#bfbfbf" points="1993.5,-134.5 1993.5,-153.5 2047.5,-153.5 2047.5,-134.5 1993.5,-134.5"/>
<text text-anchor="middle" x="2020.5" y="-141.5" font-family="Helvetica,sans-Serif" font-size="10.00" fill="#000000">random</text>
</g>
<!-- Node30&#45;&gt;Node34 -->
<g id="edge45" class="edge">
<title>Node30&#45;&gt;Node34</title>
<path fill="none" stroke="#191970" d="M1647.1585,-192.2587C1650.2778,-191.4069 1653.4502,-190.6239 1656.5,-190 1796.9508,-161.2694 1838.6266,-180.7932 1983.3433,-153.935"/>
<polygon fill="#191970" stroke="#191970" points="1984.3131,-157.3134 1993.4844,-152.009 1983.007,-150.4364 1984.3131,-157.3134"/>
</g>
<!-- Node35 -->
<g id="node36" class="node">
<title>Node35</title>
<polygon fill="none" stroke="#bfbfbf" points="1589,-134.5 1589,-153.5 1658,-153.5 1658,-134.5 1589,-134.5"/>
<text text-anchor="middle" x="1623.5" y="-141.5" font-family="Helvetica,sans-Serif" font-size="10.00" fill="#000000">type_traits</text>
</g>
<!-- Node30&#45;&gt;Node35 -->
<g id="edge46" class="edge">
<title>Node30&#45;&gt;Node35</title>
<path fill="none" stroke="#191970" d="M1623.5,-190.2455C1623.5,-182.9382 1623.5,-172.6944 1623.5,-163.7046"/>
<polygon fill="#191970" stroke="#191970" points="1627.0001,-163.6426 1623.5,-153.6427 1620.0001,-163.6427 1627.0001,-163.6426"/>
</g>
<!-- Node36 -->
<g id="node37" class="node">
<title>Node36</title>
<polygon fill="none" stroke="#bfbfbf" points="1676.5,-134.5 1676.5,-153.5 1732.5,-153.5 1732.5,-134.5 1676.5,-134.5"/>
<text text-anchor="middle" x="1704.5" y="-141.5" font-family="Helvetica,sans-Serif" font-size="10.00" fill="#000000">unistd.h</text>
</g>
<!-- Node30&#45;&gt;Node36 -->
<g id="edge47" class="edge">
<title>Node30&#45;&gt;Node36</title>
<path fill="none" stroke="#191970" d="M1637.6091,-190.2455C1649.9209,-181.7337 1667.9958,-169.2375 1682.2538,-159.3801"/>
<polygon fill="#191970" stroke="#191970" points="1684.3174,-162.2085 1690.5526,-153.6427 1680.3366,-156.4506 1684.3174,-162.2085"/>
</g>
</g>
</svg>
