<?xml version="1.0" encoding="UTF-8" standalone="no"?>
<!DOCTYPE svg PUBLIC "-//W3C//DTD SVG 1.1//EN"
 "http://www.w3.org/Graphics/SVG/1.1/DTD/svg11.dtd">
<!-- Generated by graphviz version 2.40.1 (20161225.0304)
 -->
<!-- Title: combine Pages: 1 -->
<svg width="218pt" height="333pt"
 viewBox="0.00 0.00 218.00 333.00" xmlns="http://www.w3.org/2000/svg" xmlns:xlink="http://www.w3.org/1999/xlink">
<g id="graph0" class="graph" transform="scale(1 1) rotate(0) translate(4 329)">
<title>combine</title>
<!-- Node0 -->
<g id="node1" class="node">
<title>Node0</title>
<polygon fill="#bfbfbf" stroke="#000000" points="0,-153 0,-172 59,-172 59,-153 0,-153"/>
<text text-anchor="middle" x="29.5" y="-160" font-family="Helvetica,sans-Serif" font-size="10.00" fill="#000000">combine</text>
</g>
<!-- Node1 -->
<g id="node2" class="node">
<title>Node1</title>
<g id="a_node2"><a xlink:href="classHamiltonianmatrix.html#a45f3d187ac775e9b6c6a7756810f91ab" target="_top" xlink:title="Hamiltonianmatrix::\laddBasis">
<polygon fill="none" stroke="#000000" points="95,-294.5 95,-324.5 210,-324.5 210,-294.5 95,-294.5"/>
<text text-anchor="start" x="103" y="-312.5" font-family="Helvetica,sans-Serif" font-size="10.00" fill="#000000">Hamiltonianmatrix::</text>
<text text-anchor="middle" x="152.5" y="-301.5" font-family="Helvetica,sans-Serif" font-size="10.00" fill="#000000">addBasis</text>
</a>
</g>
</g>
<!-- Node0&#45;&gt;Node1 -->
<g id="edge1" class="edge">
<title>Node0&#45;&gt;Node1</title>
<path fill="none" stroke="#191970" d="M32.1895,-172.2185C38.9716,-195.0396 58.8595,-252.6037 95,-285.5 96.2924,-286.6764 97.6508,-287.7999 99.0615,-288.8726"/>
<polygon fill="#191970" stroke="#191970" points="97.3364,-291.9265 107.6207,-294.4729 101.1691,-286.0689 97.3364,-291.9265"/>
</g>
<!-- Node2 -->
<g id="node3" class="node">
<title>Node2</title>
<g id="a_node3"><a xlink:href="classHamiltonianmatrix.html#a7f424947bfe863cdd30d3290b4b708a5" target="_top" xlink:title="Hamiltonianmatrix::\laddEntries">
<polygon fill="none" stroke="#000000" points="95,-245.5 95,-275.5 210,-275.5 210,-245.5 95,-245.5"/>
<text text-anchor="start" x="103" y="-263.5" font-family="Helvetica,sans-Serif" font-size="10.00" fill="#000000">Hamiltonianmatrix::</text>
<text text-anchor="middle" x="152.5" y="-252.5" font-family="Helvetica,sans-Serif" font-size="10.00" fill="#000000">addEntries</text>
</a>
</g>
</g>
<!-- Node0&#45;&gt;Node2 -->
<g id="edge2" class="edge">
<title>Node0&#45;&gt;Node2</title>
<path fill="none" stroke="#191970" d="M36.0356,-172.4101C46.7187,-187.9417 69.322,-218.136 95,-236.5 96.8945,-237.8549 98.877,-239.1516 100.9194,-240.3904"/>
<polygon fill="#191970" stroke="#191970" points="99.7173,-243.7222 110.1701,-245.4514 103.0771,-237.5812 99.7173,-243.7222"/>
</g>
<!-- Node3 -->
<g id="node4" class="node">
<title>Node3</title>
<g id="a_node4"><a xlink:href="classHamiltonianmatrix.html#ab0f42b034579983088548dd6dd4e1e78" target="_top" xlink:title="Hamiltonianmatrix::\lbasis">
<polygon fill="none" stroke="#000000" points="95,-196.5 95,-226.5 210,-226.5 210,-196.5 95,-196.5"/>
<text text-anchor="start" x="103" y="-214.5" font-family="Helvetica,sans-Serif" font-size="10.00" fill="#000000">Hamiltonianmatrix::</text>
<text text-anchor="middle" x="152.5" y="-203.5" font-family="Helvetica,sans-Serif" font-size="10.00" fill="#000000">basis</text>
</a>
</g>
</g>
<!-- Node0&#45;&gt;Node3 -->
<g id="edge3" class="edge">
<title>Node0&#45;&gt;Node3</title>
<path fill="none" stroke="#191970" d="M53.5076,-172.064C68.1368,-177.8919 87.3429,-185.5431 104.9414,-192.5539"/>
<polygon fill="#191970" stroke="#191970" points="103.9283,-195.9178 114.5136,-196.3672 106.519,-189.4148 103.9283,-195.9178"/>
</g>
<!-- Node4 -->
<g id="node5" class="node">
<title>Node4</title>
<g id="a_node5"><a xlink:href="classHamiltonianmatrix.html#a4dded9728c945c20fcd7abbc8bd5cfe6" target="_top" xlink:title="Hamiltonianmatrix::\lcompress">
<polygon fill="none" stroke="#000000" points="95,-147.5 95,-177.5 210,-177.5 210,-147.5 95,-147.5"/>
<text text-anchor="start" x="103" y="-165.5" font-family="Helvetica,sans-Serif" font-size="10.00" fill="#000000">Hamiltonianmatrix::</text>
<text text-anchor="middle" x="152.5" y="-154.5" font-family="Helvetica,sans-Serif" font-size="10.00" fill="#000000">compress</text>
</a>
</g>
</g>
<!-- Node0&#45;&gt;Node4 -->
<g id="edge4" class="edge">
<title>Node0&#45;&gt;Node4</title>
<path fill="none" stroke="#191970" d="M59.2749,-162.5C67.0234,-162.5 75.6973,-162.5 84.5514,-162.5"/>
<polygon fill="#191970" stroke="#191970" points="84.5849,-166.0001 94.5848,-162.5 84.5848,-159.0001 84.5849,-166.0001"/>
</g>
<!-- Node5 -->
<g id="node6" class="node">
<title>Node5</title>
<g id="a_node6"><a xlink:href="classHamiltonianmatrix.html#a9a6919d68a5f490c249adaaffd46fe75" target="_top" xlink:title="Hamiltonianmatrix::\lentries">
<polygon fill="none" stroke="#000000" points="95,-98.5 95,-128.5 210,-128.5 210,-98.5 95,-98.5"/>
<text text-anchor="start" x="103" y="-116.5" font-family="Helvetica,sans-Serif" font-size="10.00" fill="#000000">Hamiltonianmatrix::</text>
<text text-anchor="middle" x="152.5" y="-105.5" font-family="Helvetica,sans-Serif" font-size="10.00" fill="#000000">entries</text>
</a>
</g>
</g>
<!-- Node0&#45;&gt;Node5 -->
<g id="edge5" class="edge">
<title>Node0&#45;&gt;Node5</title>
<path fill="none" stroke="#191970" d="M53.5076,-152.936C68.1368,-147.1081 87.3429,-139.4569 104.9414,-132.4461"/>
<polygon fill="#191970" stroke="#191970" points="106.519,-135.5852 114.5136,-128.6328 103.9283,-129.0822 106.519,-135.5852"/>
</g>
<!-- Node6 -->
<g id="node7" class="node">
<title>Node6</title>
<g id="a_node7"><a xlink:href="classHamiltonianmatrix.html#a4069febf25da1723d9cc8e27cd2cd669" target="_top" xlink:title="Hamiltonianmatrix::\lnum_basisvectors">
<polygon fill="none" stroke="#000000" points="95,-49.5 95,-79.5 210,-79.5 210,-49.5 95,-49.5"/>
<text text-anchor="start" x="103" y="-67.5" font-family="Helvetica,sans-Serif" font-size="10.00" fill="#000000">Hamiltonianmatrix::</text>
<text text-anchor="middle" x="152.5" y="-56.5" font-family="Helvetica,sans-Serif" font-size="10.00" fill="#000000">num_basisvectors</text>
</a>
</g>
</g>
<!-- Node0&#45;&gt;Node6 -->
<g id="edge6" class="edge">
<title>Node0&#45;&gt;Node6</title>
<path fill="none" stroke="#191970" d="M36.0989,-152.7738C46.8688,-137.5206 69.5888,-107.8266 95,-89.5 97.4803,-87.7112 100.1088,-86.0139 102.8229,-84.4096"/>
<polygon fill="#191970" stroke="#191970" points="104.5764,-87.4404 111.7068,-79.6041 101.2459,-81.2834 104.5764,-87.4404"/>
</g>
<!-- Node7 -->
<g id="node8" class="node">
<title>Node7</title>
<g id="a_node8"><a xlink:href="classHamiltonianmatrix.html#a9cd965385a65becbfb993fc79dc428f7" target="_top" xlink:title="Hamiltonianmatrix::\lnum_coordinates">
<polygon fill="none" stroke="#000000" points="95,-.5 95,-30.5 210,-30.5 210,-.5 95,-.5"/>
<text text-anchor="start" x="103" y="-18.5" font-family="Helvetica,sans-Serif" font-size="10.00" fill="#000000">Hamiltonianmatrix::</text>
<text text-anchor="middle" x="152.5" y="-7.5" font-family="Helvetica,sans-Serif" font-size="10.00" fill="#000000">num_coordinates</text>
</a>
</g>
</g>
<!-- Node0&#45;&gt;Node7 -->
<g id="edge7" class="edge">
<title>Node0&#45;&gt;Node7</title>
<path fill="none" stroke="#191970" d="M32.2448,-152.8955C39.1464,-130.3355 59.2738,-73.391 95,-40.5 96.6918,-38.9425 98.4959,-37.4718 100.3822,-36.0842"/>
<polygon fill="#191970" stroke="#191970" points="102.5455,-38.8555 109.0867,-30.521 98.7757,-32.9572 102.5455,-38.8555"/>
</g>
</g>
</svg>
