<?xml version="1.0" encoding="UTF-8" standalone="no"?>
<!DOCTYPE svg PUBLIC "-//W3C//DTD SVG 1.1//EN"
 "http://www.w3.org/Graphics/SVG/1.1/DTD/svg11.dtd">
<!-- Generated by graphviz version 2.40.1 (20161225.0304)
 -->
<!-- Title: /travis/pairinteraction/Hamiltonianmatrix.cpp Pages: 1 -->
<!--zoomable 341 -->
<svg id="main" version="1.1" xmlns="http://www.w3.org/2000/svg" xmlns:xlink="http://www.w3.org/1999/xlink" xml:space="preserve" onload="init(evt)">
<style type="text/css"><![CDATA[
.edge:hover path { stroke: red; }
.edge:hover polygon { stroke: red; fill: red; }
]]></style>
<script type="text/javascript"><![CDATA[
var edges = document.getElementsByTagName('g');
if (edges && edges.length) {
  for (var i=0;i<edges.length;i++) {
    if (edges[i].id.substr(0,4)=='edge') {
      edges[i].setAttribute('class','edge');
    }
  }
}
]]></script>
        <defs>
                <circle id="rim" cx="0" cy="0" r="7"/>
                <circle id="rim2" cx="0" cy="0" r="3.5"/>
                <g id="zoomPlus">
                        <use xlink:href="#rim" fill="#404040">
                                <set attributeName="fill" to="#808080" begin="zoomplus.mouseover" end="zoomplus.mouseout"/>
                        </use>
                        <path d="M-4,0h8M0,-4v8" fill="none" stroke="white" stroke-width="1.5" pointer-events="none"/>
                </g>
                <g id="zoomMin">
                        <use xlink:href="#rim" fill="#404040">
                                <set attributeName="fill" to="#808080" begin="zoomminus.mouseover" end="zoomminus.mouseout"/>
                        </use>
                        <path d="M-4,0h8" fill="none" stroke="white" stroke-width="1.5" pointer-events="none"/>
                </g>
                <g id="dirArrow">
                        <path fill="none" stroke="white" stroke-width="1.5" d="M0,-3.0v7 M-2.5,-0.5L0,-3.0L2.5,-0.5"/>
                </g>
               <g id="resetDef">
                       <use xlink:href="#rim2" fill="#404040">
                               <set attributeName="fill" to="#808080" begin="reset.mouseover" end="reset.mouseout"/>
                       </use>
               </g>
        </defs>

<script type="text/javascript">
var viewWidth = 2285;
var viewHeight = 341;
var sectionId = 'dynsection-0';
</script>
<script xlink:href="svgpan.js"/>
<svg id="graph" class="graph">
<g id="viewport">
<title>/travis/pairinteraction/Hamiltonianmatrix.cpp</title>
<!-- Node0 -->
<g id="node1" class="node">
<title>Node0</title>
<polygon fill="#bfbfbf" stroke="#000000" points="1843.5,-302.5 1843.5,-332.5 1975.5,-332.5 1975.5,-302.5 1843.5,-302.5"/>
<text text-anchor="start" x="1851.5" y="-320.5" font-family="Helvetica,sans-Serif" font-size="10.00" fill="#000000">/travis/pairinteraction</text>
<text text-anchor="middle" x="1909.5" y="-309.5" font-family="Helvetica,sans-Serif" font-size="10.00" fill="#000000">/Hamiltonianmatrix.cpp</text>
</g>
<!-- Node1 -->
<g id="node2" class="node">
<title>Node1</title>
<g id="a_node2"><a xlink:href="Hamiltonianmatrix_8h.html" target="_top" xlink:title="Hamiltonianmatrix.h">
<polygon fill="none" stroke="#000000" points="1397.5,-246.5 1397.5,-265.5 1515.5,-265.5 1515.5,-246.5 1397.5,-246.5"/>
<text text-anchor="middle" x="1456.5" y="-253.5" font-family="Helvetica,sans-Serif" font-size="10.00" fill="#000000">Hamiltonianmatrix.h</text>
</a>
</g>
</g>
<!-- Node0&#45;&gt;Node1 -->
<g id="edge1" class="edge">
<title>Node0&#45;&gt;Node1</title>
<path fill="none" stroke="#191970" d="M1843.1448,-308.4915C1758.2799,-296.9701 1612.0052,-277.1116 1525.764,-265.4034"/>
<polygon fill="#191970" stroke="#191970" points="1526.19,-261.9292 1515.81,-264.052 1525.2482,-268.8656 1526.19,-261.9292"/>
</g>
<!-- Node41 -->
<g id="node42" class="node">
<title>Node41</title>
<polygon fill="none" stroke="#bfbfbf" points="2212,-190.5 2212,-209.5 2277,-209.5 2277,-190.5 2212,-190.5"/>
<text text-anchor="middle" x="2244.5" y="-197.5" font-family="Helvetica,sans-Serif" font-size="10.00" fill="#000000">stdexcept</text>
</g>
<!-- Node0&#45;&gt;Node41 -->
<g id="edge56" class="edge">
<title>Node0&#45;&gt;Node41</title>
<path fill="none" stroke="#191970" d="M1908.9611,-302.4272C1909.2608,-285.9719 1912.4996,-260.0916 1928.5,-246 1973.7603,-206.1391 2138.0724,-220.2831 2197.5,-210 2198.9642,-209.7466 2200.4522,-209.4801 2201.9536,-209.2035"/>
<polygon fill="#191970" stroke="#191970" points="2202.7967,-212.6053 2211.9465,-207.2637 2201.4627,-205.7335 2202.7967,-212.6053"/>
</g>
<!-- Node42 -->
<g id="node43" class="node">
<title>Node42</title>
<polygon fill="none" stroke="#bfbfbf" points="1938,-246.5 1938,-265.5 2039,-265.5 2039,-246.5 1938,-246.5"/>
<text text-anchor="middle" x="1988.5" y="-253.5" font-family="Helvetica,sans-Serif" font-size="10.00" fill="#000000">boost/format.hpp</text>
</g>
<!-- Node0&#45;&gt;Node42 -->
<g id="edge57" class="edge">
<title>Node0&#45;&gt;Node42</title>
<path fill="none" stroke="#191970" d="M1929.0281,-302.2977C1940.7937,-293.1384 1955.7675,-281.4816 1967.7465,-272.1562"/>
<polygon fill="#191970" stroke="#191970" points="1970.1103,-274.7516 1975.8511,-265.8469 1965.8102,-269.228 1970.1103,-274.7516"/>
</g>
<!-- Node2 -->
<g id="node3" class="node">
<title>Node2</title>
<g id="a_node3"><a xlink:href="Basisnames_8h.html" target="_top" xlink:title="Basisnames.h">
<polygon fill="none" stroke="#000000" points="955,-190.5 955,-209.5 1040,-209.5 1040,-190.5 955,-190.5"/>
<text text-anchor="middle" x="997.5" y="-197.5" font-family="Helvetica,sans-Serif" font-size="10.00" fill="#000000">Basisnames.h</text>
</a>
</g>
</g>
<!-- Node1&#45;&gt;Node2 -->
<g id="edge2" class="edge">
<title>Node1&#45;&gt;Node2</title>
<path fill="none" stroke="#191970" d="M1397.4334,-248.7936C1307.2746,-237.7938 1136.7211,-216.9856 1050.3978,-206.4538"/>
<polygon fill="#191970" stroke="#191970" points="1050.6495,-202.9586 1040.2992,-205.2217 1049.8017,-209.9071 1050.6495,-202.9586"/>
</g>
<!-- Node9 -->
<g id="node10" class="node">
<title>Node9</title>
<g id="a_node10"><a xlink:href="StateOld_8h.html" target="_top" xlink:title="StateOld.h">
<polygon fill="none" stroke="#000000" points="544.5,-134.5 544.5,-153.5 612.5,-153.5 612.5,-134.5 544.5,-134.5"/>
<text text-anchor="middle" x="578.5" y="-141.5" font-family="Helvetica,sans-Serif" font-size="10.00" fill="#000000">StateOld.h</text>
</a>
</g>
</g>
<!-- Node1&#45;&gt;Node9 -->
<g id="edge40" class="edge">
<title>Node1&#45;&gt;Node9</title>
<path fill="none" stroke="#191970" d="M1397.3244,-255.6325C1218.7974,-254.1215 693.6734,-246.5822 626.5,-210 607.7193,-199.7722 594.3987,-178.6616 586.6283,-163.0566"/>
<polygon fill="#191970" stroke="#191970" points="589.703,-161.3673 582.3219,-153.7667 583.3522,-164.3113 589.703,-161.3673"/>
</g>
<!-- Node10 -->
<g id="node11" class="node">
<title>Node10</title>
<g id="a_node11"><a xlink:href="dtypes_8h.html" target="_top" xlink:title="dtypes.h">
<polygon fill="none" stroke="#000000" points="768,-73 768,-92 827,-92 827,-73 768,-73"/>
<text text-anchor="middle" x="797.5" y="-80" font-family="Helvetica,sans-Serif" font-size="10.00" fill="#000000">dtypes.h</text>
</a>
</g>
</g>
<!-- Node1&#45;&gt;Node10 -->
<g id="edge41" class="edge">
<title>Node1&#45;&gt;Node10</title>
<path fill="none" stroke="#191970" d="M1397.2338,-252.6583C1226.2052,-242.3915 741.1876,-208.6524 697.5,-154 676.0008,-127.1048 721.3149,-105.7119 757.769,-93.5676"/>
<polygon fill="#191970" stroke="#191970" points="759.2851,-96.7582 767.7531,-90.3907 757.1626,-90.0877 759.2851,-96.7582"/>
</g>
<!-- Node14 -->
<g id="node15" class="node">
<title>Node14</title>
<polygon fill="none" stroke="#bfbfbf" points="654,-6 654,-25 701,-25 701,-6 654,-6"/>
<text text-anchor="middle" x="677.5" y="-13" font-family="Helvetica,sans-Serif" font-size="10.00" fill="#000000">cmath</text>
</g>
<!-- Node1&#45;&gt;Node14 -->
<g id="edge49" class="edge">
<title>Node1&#45;&gt;Node14</title>
<path fill="none" stroke="#191970" d="M1397.4882,-255.0575C1257.0022,-252.3077 906.0632,-242.321 793.5,-210 742.6652,-195.4035 717.4865,-198.2382 688.5,-154 664.692,-117.6651 668.9376,-63.9091 673.5484,-35.2254"/>
<polygon fill="#191970" stroke="#191970" points="677.0212,-35.6878 675.3391,-25.2274 670.1308,-34.4537 677.0212,-35.6878"/>
</g>
<!-- Node16 -->
<g id="node17" class="node">
<title>Node16</title>
<polygon fill="none" stroke="#bfbfbf" points="1247,-6 1247,-25 1294,-25 1294,-6 1247,-6"/>
<text text-anchor="middle" x="1270.5" y="-13" font-family="Helvetica,sans-Serif" font-size="10.00" fill="#000000">vector</text>
</g>
<!-- Node1&#45;&gt;Node16 -->
<g id="edge55" class="edge">
<title>Node1&#45;&gt;Node16</title>
<path fill="none" stroke="#191970" d="M1515.8161,-255.3093C1701.1992,-252.1057 2252.246,-234.1442 2164.5,-134 2106.4995,-67.8043 1460.6918,-26.4732 1304.4048,-17.3959"/>
<polygon fill="#191970" stroke="#191970" points="1304.1974,-13.8783 1294.0129,-16.7982 1303.7954,-20.8667 1304.1974,-13.8783"/>
</g>
<!-- Node23 -->
<g id="node24" class="node">
<title>Node23</title>
<polygon fill="none" stroke="#bfbfbf" points="1241.5,-134.5 1241.5,-153.5 1299.5,-153.5 1299.5,-134.5 1241.5,-134.5"/>
<text text-anchor="middle" x="1270.5" y="-141.5" font-family="Helvetica,sans-Serif" font-size="10.00" fill="#000000">memory</text>
</g>
<!-- Node1&#45;&gt;Node23 -->
<g id="edge53" class="edge">
<title>Node1&#45;&gt;Node23</title>
<path fill="none" stroke="#191970" d="M1405.9684,-246.4984C1378.7967,-239.6062 1345.7793,-228.2121 1320.5,-210 1303.0867,-197.4548 1288.9784,-177.0948 1280.2426,-162.3017"/>
<polygon fill="#191970" stroke="#191970" points="1283.2547,-160.5174 1275.2971,-153.5225 1277.1558,-163.9531 1283.2547,-160.5174"/>
</g>
<!-- Node26 -->
<g id="node27" class="node">
<title>Node26</title>
<g id="a_node27"><a xlink:href="Serializable_8h.html" target="_top" xlink:title="Serializable.h">
<polygon fill="none" stroke="#000000" points="1330,-190.5 1330,-209.5 1413,-209.5 1413,-190.5 1330,-190.5"/>
<text text-anchor="middle" x="1371.5" y="-197.5" font-family="Helvetica,sans-Serif" font-size="10.00" fill="#000000">Serializable.h</text>
</a>
</g>
</g>
<!-- Node1&#45;&gt;Node26 -->
<g id="edge32" class="edge">
<title>Node1&#45;&gt;Node26</title>
<path fill="none" stroke="#191970" d="M1441.6941,-246.2455C1428.7744,-237.7337 1409.8069,-225.2375 1394.8448,-215.3801"/>
<polygon fill="#191970" stroke="#191970" points="1396.4124,-212.2216 1386.1362,-209.6427 1392.5613,-218.067 1396.4124,-212.2216"/>
</g>
<!-- Node31 -->
<g id="node32" class="node">
<title>Node31</title>
<g id="a_node32"><a xlink:href="utils_8h.html" target="_top" xlink:title="utils.h">
<polygon fill="none" stroke="#000000" points="1865,-190.5 1865,-209.5 1912,-209.5 1912,-190.5 1865,-190.5"/>
<text text-anchor="middle" x="1888.5" y="-197.5" font-family="Helvetica,sans-Serif" font-size="10.00" fill="#000000">utils.h</text>
</a>
</g>
</g>
<!-- Node1&#45;&gt;Node31 -->
<g id="edge42" class="edge">
<title>Node1&#45;&gt;Node31</title>
<path fill="none" stroke="#191970" d="M1515.6619,-248.3309C1607.5062,-236.4251 1781.4312,-213.8793 1854.6567,-204.3871"/>
<polygon fill="#191970" stroke="#191970" points="1855.2409,-207.8407 1864.708,-203.0841 1854.341,-200.8988 1855.2409,-207.8407"/>
</g>
<!-- Node38 -->
<g id="node39" class="node">
<title>Node38</title>
<polygon fill="none" stroke="#bfbfbf" points="1431.5,-190.5 1431.5,-209.5 1481.5,-209.5 1481.5,-190.5 1431.5,-190.5"/>
<text text-anchor="middle" x="1456.5" y="-197.5" font-family="Helvetica,sans-Serif" font-size="10.00" fill="#000000">cstdint</text>
</g>
<!-- Node1&#45;&gt;Node38 -->
<g id="edge50" class="edge">
<title>Node1&#45;&gt;Node38</title>
<path fill="none" stroke="#191970" d="M1456.5,-246.2455C1456.5,-238.9382 1456.5,-228.6944 1456.5,-219.7046"/>
<polygon fill="#191970" stroke="#191970" points="1460.0001,-219.6426 1456.5,-209.6427 1453.0001,-219.6427 1460.0001,-219.6426"/>
</g>
<!-- Node39 -->
<g id="node40" class="node">
<title>Node39</title>
<polygon fill="none" stroke="#bfbfbf" points="1499.5,-190.5 1499.5,-209.5 1545.5,-209.5 1545.5,-190.5 1499.5,-190.5"/>
<text text-anchor="middle" x="1522.5" y="-197.5" font-family="Helvetica,sans-Serif" font-size="10.00" fill="#000000">cstdio</text>
</g>
<!-- Node1&#45;&gt;Node39 -->
<g id="edge51" class="edge">
<title>Node1&#45;&gt;Node39</title>
<path fill="none" stroke="#191970" d="M1467.9963,-246.2455C1477.7442,-237.9746 1491.9259,-225.9416 1503.3798,-216.2232"/>
<polygon fill="#191970" stroke="#191970" points="1505.7747,-218.7813 1511.1354,-209.6427 1501.2459,-213.4437 1505.7747,-218.7813"/>
</g>
<!-- Node40 -->
<g id="node41" class="node">
<title>Node40</title>
<polygon fill="none" stroke="#bfbfbf" points="1564,-190.5 1564,-209.5 1629,-209.5 1629,-190.5 1564,-190.5"/>
<text text-anchor="middle" x="1596.5" y="-197.5" font-family="Helvetica,sans-Serif" font-size="10.00" fill="#000000">exception</text>
</g>
<!-- Node1&#45;&gt;Node40 -->
<g id="edge52" class="edge">
<title>Node1&#45;&gt;Node40</title>
<path fill="none" stroke="#191970" d="M1480.5669,-246.3733C1503.3428,-237.2629 1537.7344,-223.5062 1563.149,-213.3404"/>
<polygon fill="#191970" stroke="#191970" points="1564.7623,-216.4648 1572.7472,-209.5011 1562.1625,-209.9654 1564.7623,-216.4648"/>
</g>
<!-- Node1&#45;&gt;Node41 -->
<g id="edge54" class="edge">
<title>Node1&#45;&gt;Node41</title>
<path fill="none" stroke="#191970" d="M1515.8653,-255.2831C1641.9628,-253.1099 1945.599,-244.425 2197.5,-210 2198.9723,-209.7988 2200.4673,-209.5772 2201.9746,-209.339"/>
<polygon fill="#191970" stroke="#191970" points="2202.7561,-212.7551 2211.9933,-207.5663 2201.5364,-205.8622 2202.7561,-212.7551"/>
</g>
<!-- Node3 -->
<g id="node4" class="node">
<title>Node3</title>
<g id="a_node4"><a xlink:href="ConfParser_8h.html" target="_top" xlink:title="ConfParser.h">
<polygon fill="none" stroke="#000000" points="1108,-134.5 1108,-153.5 1185,-153.5 1185,-134.5 1108,-134.5"/>
<text text-anchor="middle" x="1146.5" y="-141.5" font-family="Helvetica,sans-Serif" font-size="10.00" fill="#000000">ConfParser.h</text>
</a>
</g>
</g>
<!-- Node2&#45;&gt;Node3 -->
<g id="edge3" class="edge">
<title>Node2&#45;&gt;Node3</title>
<path fill="none" stroke="#191970" d="M1023.114,-190.3733C1047.5687,-181.1822 1084.6054,-167.2624 1111.7209,-157.0713"/>
<polygon fill="#191970" stroke="#191970" points="1113.0909,-160.2956 1121.2202,-153.5011 1110.6281,-153.7431 1113.0909,-160.2956"/>
</g>
<!-- Node6 -->
<g id="node7" class="node">
<title>Node6</title>
<polygon fill="none" stroke="#bfbfbf" points="867.5,-73 867.5,-92 911.5,-92 911.5,-73 867.5,-73"/>
<text text-anchor="middle" x="889.5" y="-80" font-family="Helvetica,sans-Serif" font-size="10.00" fill="#000000">string</text>
</g>
<!-- Node2&#45;&gt;Node6 -->
<g id="edge29" class="edge">
<title>Node2&#45;&gt;Node6</title>
<path fill="none" stroke="#191970" d="M1006.5566,-190.311C1018.0897,-176.7579 1035.0969,-151.8044 1022.5,-134 994.7338,-94.7553 964.7515,-116.786 920.5,-98 919.3161,-97.4974 918.1138,-96.9707 916.9044,-96.4273"/>
<polygon fill="#191970" stroke="#191970" points="918.2185,-93.1771 907.6824,-92.0624 915.2237,-99.5042 918.2185,-93.1771"/>
</g>
<!-- Node8 -->
<g id="node9" class="node">
<title>Node8</title>
<g id="a_node9"><a xlink:href="Iter_8h.html" target="_top" xlink:title="Iter.h">
<polygon fill="none" stroke="#000000" points="849,-134.5 849,-153.5 890,-153.5 890,-134.5 849,-134.5"/>
<text text-anchor="middle" x="869.5" y="-141.5" font-family="Helvetica,sans-Serif" font-size="10.00" fill="#000000">Iter.h</text>
</a>
</g>
</g>
<!-- Node2&#45;&gt;Node8 -->
<g id="edge8" class="edge">
<title>Node2&#45;&gt;Node8</title>
<path fill="none" stroke="#191970" d="M975.496,-190.3733C954.6064,-181.234 923.0294,-167.4191 899.772,-157.244"/>
<polygon fill="#191970" stroke="#191970" points="900.9337,-153.932 890.3693,-153.1303 898.128,-160.3451 900.9337,-153.932"/>
</g>
<!-- Node2&#45;&gt;Node9 -->
<g id="edge9" class="edge">
<title>Node2&#45;&gt;Node9</title>
<path fill="none" stroke="#191970" d="M954.6287,-194.2702C874.7847,-183.5989 704.0704,-160.7827 623.0047,-149.9481"/>
<polygon fill="#191970" stroke="#191970" points="623.0197,-146.4191 612.6442,-148.5634 622.0923,-153.3574 623.0197,-146.4191"/>
</g>
<!-- Node2&#45;&gt;Node10 -->
<g id="edge25" class="edge">
<title>Node2&#45;&gt;Node10</title>
<path fill="none" stroke="#191970" d="M954.6793,-196.2153C920.4592,-191.2903 872.8643,-179.9742 839.5,-154 822.3538,-140.6516 810.826,-118.1882 804.2519,-101.9985"/>
<polygon fill="#191970" stroke="#191970" points="807.444,-100.544 800.6379,-92.4244 800.895,-103.0161 807.444,-100.544"/>
</g>
<!-- Node2&#45;&gt;Node16 -->
<g id="edge31" class="edge">
<title>Node2&#45;&gt;Node16</title>
<path fill="none" stroke="#191970" d="M1040.0884,-194.1114C1090.2135,-186.4862 1169.6547,-172.0131 1193.5,-154 1233.9704,-123.4281 1256.0848,-65.0601 1265.2927,-34.7861"/>
<polygon fill="#191970" stroke="#191970" points="1268.7048,-35.5854 1268.1112,-25.0072 1261.9786,-33.6467 1268.7048,-35.5854"/>
</g>
<!-- Node22 -->
<g id="node23" class="node">
<title>Node22</title>
<polygon fill="none" stroke="#bfbfbf" points="908,-134.5 908,-153.5 963,-153.5 963,-134.5 908,-134.5"/>
<text text-anchor="middle" x="935.5" y="-141.5" font-family="Helvetica,sans-Serif" font-size="10.00" fill="#000000">fstream</text>
</g>
<!-- Node2&#45;&gt;Node22 -->
<g id="edge26" class="edge">
<title>Node2&#45;&gt;Node22</title>
<path fill="none" stroke="#191970" d="M986.7004,-190.2455C977.6322,-182.0549 964.4794,-170.1749 953.7755,-160.5069"/>
<polygon fill="#191970" stroke="#191970" points="955.9429,-157.7482 946.1758,-153.6427 951.2509,-162.9429 955.9429,-157.7482"/>
</g>
<!-- Node2&#45;&gt;Node23 -->
<g id="edge27" class="edge">
<title>Node2&#45;&gt;Node23</title>
<path fill="none" stroke="#191970" d="M1040.3965,-191.8342C1086.6554,-182.9319 1162.4245,-168.0709 1227.5,-154 1228.7642,-153.7267 1230.0485,-153.4459 1231.3449,-153.1599"/>
<polygon fill="#191970" stroke="#191970" points="1232.396,-156.511 1241.3833,-150.9004 1230.8588,-149.6818 1232.396,-156.511"/>
</g>
<!-- Node24 -->
<g id="node25" class="node">
<title>Node24</title>
<polygon fill="none" stroke="#bfbfbf" points="981.5,-134.5 981.5,-153.5 1013.5,-153.5 1013.5,-134.5 981.5,-134.5"/>
<text text-anchor="middle" x="997.5" y="-141.5" font-family="Helvetica,sans-Serif" font-size="10.00" fill="#000000">set</text>
</g>
<!-- Node2&#45;&gt;Node24 -->
<g id="edge28" class="edge">
<title>Node2&#45;&gt;Node24</title>
<path fill="none" stroke="#191970" d="M997.5,-190.2455C997.5,-182.9382 997.5,-172.6944 997.5,-163.7046"/>
<polygon fill="#191970" stroke="#191970" points="1001.0001,-163.6426 997.5,-153.6427 994.0001,-163.6427 1001.0001,-163.6426"/>
</g>
<!-- Node25 -->
<g id="node26" class="node">
<title>Node25</title>
<polygon fill="none" stroke="#bfbfbf" points="706.5,-134.5 706.5,-153.5 792.5,-153.5 792.5,-134.5 706.5,-134.5"/>
<text text-anchor="middle" x="749.5" y="-141.5" font-family="Helvetica,sans-Serif" font-size="10.00" fill="#000000">unordered_set</text>
</g>
<!-- Node2&#45;&gt;Node25 -->
<g id="edge30" class="edge">
<title>Node2&#45;&gt;Node25</title>
<path fill="none" stroke="#191970" d="M955.1491,-190.4369C912.7058,-180.8529 847.2881,-166.0812 801.6687,-155.78"/>
<polygon fill="#191970" stroke="#191970" points="802.2016,-152.3123 791.6763,-153.5237 800.6597,-159.1404 802.2016,-152.3123"/>
</g>
<!-- Node4 -->
<g id="node5" class="node">
<title>Node4</title>
<polygon fill="none" stroke="#bfbfbf" points="1073.5,-73 1073.5,-92 1111.5,-92 1111.5,-73 1073.5,-73"/>
<text text-anchor="middle" x="1092.5" y="-80" font-family="Helvetica,sans-Serif" font-size="10.00" fill="#000000">map</text>
</g>
<!-- Node3&#45;&gt;Node4 -->
<g id="edge4" class="edge">
<title>Node3&#45;&gt;Node4</title>
<path fill="none" stroke="#191970" d="M1138.0625,-134.3906C1129.9469,-125.1478 1117.4945,-110.966 1107.6576,-99.7628"/>
<polygon fill="#191970" stroke="#191970" points="1110.2846,-97.45 1101.0565,-92.2449 1105.0245,-102.0686 1110.2846,-97.45"/>
</g>
<!-- Node5 -->
<g id="node6" class="node">
<title>Node5</title>
<polygon fill="none" stroke="#bfbfbf" points="1129.5,-73 1129.5,-92 1185.5,-92 1185.5,-73 1129.5,-73"/>
<text text-anchor="middle" x="1157.5" y="-80" font-family="Helvetica,sans-Serif" font-size="10.00" fill="#000000">sstream</text>
</g>
<!-- Node3&#45;&gt;Node5 -->
<g id="edge5" class="edge">
<title>Node3&#45;&gt;Node5</title>
<path fill="none" stroke="#191970" d="M1148.2188,-134.3906C1149.7435,-125.8657 1152.0198,-113.1392 1153.9364,-102.4235"/>
<polygon fill="#191970" stroke="#191970" points="1157.4416,-102.7049 1155.757,-92.2449 1150.5509,-101.4724 1157.4416,-102.7049"/>
</g>
<!-- Node3&#45;&gt;Node6 -->
<g id="edge6" class="edge">
<title>Node3&#45;&gt;Node6</title>
<path fill="none" stroke="#191970" d="M1107.5449,-136.6491C1047.6397,-125.2577 937.9589,-104.0235 920.5,-98 918.8966,-97.4468 917.2705,-96.8276 915.6461,-96.1634"/>
<polygon fill="#191970" stroke="#191970" points="917.0832,-92.9721 906.5314,-92.0176 914.1849,-99.3439 917.0832,-92.9721"/>
</g>
<!-- Node7 -->
<g id="node8" class="node">
<title>Node7</title>
<polygon fill="none" stroke="#bfbfbf" points="930,-73 930,-92 1055,-92 1055,-73 930,-73"/>
<text text-anchor="middle" x="992.5" y="-80" font-family="Helvetica,sans-Serif" font-size="10.00" fill="#000000">boost/lexical_cast.hpp</text>
</g>
<!-- Node3&#45;&gt;Node7 -->
<g id="edge7" class="edge">
<title>Node3&#45;&gt;Node7</title>
<path fill="none" stroke="#191970" d="M1122.4375,-134.3906C1096.4444,-124.0103 1054.8522,-107.4004 1025.7453,-95.7766"/>
<polygon fill="#191970" stroke="#191970" points="1026.9785,-92.5003 1016.3935,-92.0419 1024.3823,-99.0011 1026.9785,-92.5003"/>
</g>
<!-- Node9&#45;&gt;Node6 -->
<g id="edge21" class="edge">
<title>Node9&#45;&gt;Node6</title>
<path fill="none" stroke="#191970" d="M612.8158,-139.0029C662.3095,-131.5369 756.47,-116.3641 835.5,-98 842.5853,-96.3536 850.1252,-94.351 857.2536,-92.3395"/>
<polygon fill="#191970" stroke="#191970" points="858.6722,-95.5724 867.3022,-89.4264 856.7231,-88.8492 858.6722,-95.5724"/>
</g>
<!-- Node9&#45;&gt;Node10 -->
<g id="edge10" class="edge">
<title>Node9&#45;&gt;Node10</title>
<path fill="none" stroke="#191970" d="M612.7188,-134.3906C652.0612,-123.3424 716.5332,-105.2373 757.9809,-93.5978"/>
<polygon fill="#191970" stroke="#191970" points="759.0555,-96.9315 767.7368,-90.8582 757.1629,-90.1922 759.0555,-96.9315"/>
</g>
<!-- Node13 -->
<g id="node14" class="node">
<title>Node13</title>
<polygon fill="none" stroke="#bfbfbf" points="486.5,-6 486.5,-25 528.5,-25 528.5,-6 486.5,-6"/>
<text text-anchor="middle" x="507.5" y="-13" font-family="Helvetica,sans-Serif" font-size="10.00" fill="#000000">array</text>
</g>
<!-- Node9&#45;&gt;Node13 -->
<g id="edge17" class="edge">
<title>Node9&#45;&gt;Node13</title>
<path fill="none" stroke="#191970" d="M544.436,-140.1777C497.6009,-134.1409 417.0985,-120.6928 399.5,-98 373.707,-64.7406 436.298,-37.7748 476.6232,-24.4807"/>
<polygon fill="#191970" stroke="#191970" points="477.856,-27.7615 486.3283,-21.3998 475.738,-21.0896 477.856,-27.7615"/>
</g>
<!-- Node9&#45;&gt;Node14 -->
<g id="edge19" class="edge">
<title>Node9&#45;&gt;Node14</title>
<path fill="none" stroke="#191970" d="M595.6061,-134.3414C608.9701,-126.0973 627.2677,-113.1837 639.5,-98 654.8202,-78.9833 665.5107,-52.7847 671.5666,-35.0519"/>
<polygon fill="#191970" stroke="#191970" points="674.9913,-35.8365 674.7383,-25.2446 668.3309,-33.6824 674.9913,-35.8365"/>
</g>
<!-- Node17 -->
<g id="node18" class="node">
<title>Node17</title>
<polygon fill="none" stroke="#bfbfbf" points="409,-73 409,-92 552,-92 552,-73 409,-73"/>
<text text-anchor="middle" x="480.5" y="-80" font-family="Helvetica,sans-Serif" font-size="10.00" fill="#000000">boost/functional/hash.hpp</text>
</g>
<!-- Node9&#45;&gt;Node17 -->
<g id="edge18" class="edge">
<title>Node9&#45;&gt;Node17</title>
<path fill="none" stroke="#191970" d="M563.1875,-134.3906C547.4376,-124.5067 522.6877,-108.9749 504.3663,-97.4773"/>
<polygon fill="#191970" stroke="#191970" points="506.0357,-94.3929 495.705,-92.0419 502.3148,-100.3221 506.0357,-94.3929"/>
</g>
<!-- Node18 -->
<g id="node19" class="node">
<title>Node18</title>
<polygon fill="none" stroke="#bfbfbf" points="570.5,-73 570.5,-92 630.5,-92 630.5,-73 570.5,-73"/>
<text text-anchor="middle" x="600.5" y="-80" font-family="Helvetica,sans-Serif" font-size="10.00" fill="#000000">iostream</text>
</g>
<!-- Node9&#45;&gt;Node18 -->
<g id="edge20" class="edge">
<title>Node9&#45;&gt;Node18</title>
<path fill="none" stroke="#191970" d="M581.9375,-134.3906C585.0513,-125.6862 589.732,-112.6015 593.614,-101.7494"/>
<polygon fill="#191970" stroke="#191970" points="596.9412,-102.8394 597.014,-92.2449 590.3503,-100.4817 596.9412,-102.8394"/>
</g>
<!-- Node19 -->
<g id="node20" class="node">
<title>Node19</title>
<polygon fill="none" stroke="#bfbfbf" points="0,-67.5 0,-97.5 107,-97.5 107,-67.5 0,-67.5"/>
<text text-anchor="start" x="8" y="-85.5" font-family="Helvetica,sans-Serif" font-size="10.00" fill="#000000">boost/serialization</text>
<text text-anchor="middle" x="53.5" y="-74.5" font-family="Helvetica,sans-Serif" font-size="10.00" fill="#000000">/array.hpp</text>
</g>
<!-- Node9&#45;&gt;Node19 -->
<g id="edge22" class="edge">
<title>Node9&#45;&gt;Node19</title>
<path fill="none" stroke="#191970" d="M544.2882,-142.3133C468.8276,-138.2278 282.3306,-126.1268 117.4903,-98.2007"/>
<polygon fill="#191970" stroke="#191970" points="117.6146,-94.6708 107.1662,-96.4258 116.4285,-101.5696 117.6146,-94.6708"/>
</g>
<!-- Node20 -->
<g id="node21" class="node">
<title>Node20</title>
<polygon fill="none" stroke="#bfbfbf" points="125,-67.5 125,-97.5 232,-97.5 232,-67.5 125,-67.5"/>
<text text-anchor="start" x="133" y="-85.5" font-family="Helvetica,sans-Serif" font-size="10.00" fill="#000000">boost/serialization</text>
<text text-anchor="middle" x="178.5" y="-74.5" font-family="Helvetica,sans-Serif" font-size="10.00" fill="#000000">/string.hpp</text>
</g>
<!-- Node9&#45;&gt;Node20 -->
<g id="edge23" class="edge">
<title>Node9&#45;&gt;Node20</title>
<path fill="none" stroke="#191970" d="M544.3449,-140.5442C484.9936,-134.279 358.8288,-119.813 242.203,-98.0039"/>
<polygon fill="#191970" stroke="#191970" points="242.5083,-94.4996 232.0318,-96.0783 241.2062,-101.3775 242.5083,-94.4996"/>
</g>
<!-- Node21 -->
<g id="node22" class="node">
<title>Node21</title>
<polygon fill="none" stroke="#bfbfbf" points="250.5,-73 250.5,-92 352.5,-92 352.5,-73 250.5,-73"/>
<text text-anchor="middle" x="301.5" y="-80" font-family="Helvetica,sans-Serif" font-size="10.00" fill="#000000">boost/variant.hpp</text>
</g>
<!-- Node9&#45;&gt;Node21 -->
<g id="edge24" class="edge">
<title>Node9&#45;&gt;Node21</title>
<path fill="none" stroke="#191970" d="M544.3049,-136.8048C502.3606,-127.9273 429.1112,-112.2563 366.5,-98 361.4681,-96.8543 356.2223,-95.6387 350.9888,-94.4121"/>
<polygon fill="#191970" stroke="#191970" points="351.5358,-90.9452 340.9993,-92.0553 349.9284,-97.7581 351.5358,-90.9452"/>
</g>
<!-- Node11 -->
<g id="node12" class="node">
<title>Node11</title>
<polygon fill="none" stroke="#bfbfbf" points="979,-6 979,-25 1056,-25 1056,-6 979,-6"/>
<text text-anchor="middle" x="1017.5" y="-13" font-family="Helvetica,sans-Serif" font-size="10.00" fill="#000000">Eigen/Dense</text>
</g>
<!-- Node10&#45;&gt;Node11 -->
<g id="edge11" class="edge">
<title>Node10&#45;&gt;Node11</title>
<path fill="none" stroke="#191970" d="M827.0808,-73.8523C861.3966,-63.7718 919.6459,-46.511 969.5,-31 972.4566,-30.0801 975.5123,-29.1186 978.5831,-28.1446"/>
<polygon fill="#191970" stroke="#191970" points="979.8808,-31.4043 988.3408,-25.0263 977.7499,-24.7365 979.8808,-31.4043"/>
</g>
<!-- Node12 -->
<g id="node13" class="node">
<title>Node12</title>
<polygon fill="none" stroke="#bfbfbf" points="719.5,-6 719.5,-25 799.5,-25 799.5,-6 719.5,-6"/>
<text text-anchor="middle" x="759.5" y="-13" font-family="Helvetica,sans-Serif" font-size="10.00" fill="#000000">Eigen/Sparse</text>
</g>
<!-- Node10&#45;&gt;Node12 -->
<g id="edge12" class="edge">
<title>Node10&#45;&gt;Node12</title>
<path fill="none" stroke="#191970" d="M792.0555,-72.9005C786.2991,-62.751 777.0787,-46.4941 769.9176,-33.8679"/>
<polygon fill="#191970" stroke="#191970" points="772.9123,-32.0533 764.9344,-25.0817 766.8234,-35.5067 772.9123,-32.0533"/>
</g>
<!-- Node10&#45;&gt;Node13 -->
<g id="edge13" class="edge">
<title>Node10&#45;&gt;Node13</title>
<path fill="none" stroke="#191970" d="M767.8278,-75.6447C712.6526,-62.8973 594.7815,-35.665 538.5678,-22.6777"/>
<polygon fill="#191970" stroke="#191970" points="539.3492,-19.2661 528.818,-20.4252 537.7734,-26.0865 539.3492,-19.2661"/>
</g>
<!-- Node10&#45;&gt;Node14 -->
<g id="edge14" class="edge">
<title>Node10&#45;&gt;Node14</title>
<path fill="none" stroke="#191970" d="M780.3069,-72.9005C760.2573,-61.7062 726.9012,-43.0823 703.6398,-30.0947"/>
<polygon fill="#191970" stroke="#191970" points="705.0987,-26.9007 694.6612,-25.0817 701.6862,-33.0126 705.0987,-26.9007"/>
</g>
<!-- Node15 -->
<g id="node16" class="node">
<title>Node15</title>
<polygon fill="none" stroke="#bfbfbf" points="818,-.5 818,-30.5 961,-30.5 961,-.5 818,-.5"/>
<text text-anchor="start" x="826" y="-18.5" font-family="Helvetica,sans-Serif" font-size="10.00" fill="#000000">unsupported/Eigen/CXX11</text>
<text text-anchor="middle" x="889.5" y="-7.5" font-family="Helvetica,sans-Serif" font-size="10.00" fill="#000000">/Tensor</text>
</g>
<!-- Node10&#45;&gt;Node15 -->
<g id="edge15" class="edge">
<title>Node10&#45;&gt;Node15</title>
<path fill="none" stroke="#191970" d="M810.6814,-72.9005C823.6282,-63.4718 843.8124,-48.7725 860.5137,-36.6096"/>
<polygon fill="#191970" stroke="#191970" points="862.85,-39.238 868.8731,-30.5218 858.7291,-33.5795 862.85,-39.238"/>
</g>
<!-- Node10&#45;&gt;Node16 -->
<g id="edge16" class="edge">
<title>Node10&#45;&gt;Node16</title>
<path fill="none" stroke="#191970" d="M827.1199,-74.1847C837.0373,-71.6122 848.1923,-68.946 858.5,-67 997.6284,-40.734 1165.7987,-24.4564 1236.544,-18.3022"/>
<polygon fill="#191970" stroke="#191970" points="1236.9878,-21.7771 1246.6518,-17.4345 1236.389,-14.8027 1236.9878,-21.7771"/>
</g>
<!-- Node26&#45;&gt;Node10 -->
<g id="edge33" class="edge">
<title>Node26&#45;&gt;Node10</title>
<path fill="none" stroke="#191970" d="M1329.6509,-194.1499C1275.8832,-186.3592 1179.7868,-171.5065 1098.5,-154 1064.3551,-146.6463 1056.4539,-142.1906 1022.5,-134 949.9565,-116.5006 931.1172,-115.1913 858.5,-98 851.6418,-96.3764 844.3671,-94.587 837.3213,-92.8184"/>
<polygon fill="#191970" stroke="#191970" points="837.7905,-89.3268 827.2372,-90.2638 836.0715,-96.1124 837.7905,-89.3268"/>
</g>
<!-- Node26&#45;&gt;Node16 -->
<g id="edge39" class="edge">
<title>Node26&#45;&gt;Node16</title>
<path fill="none" stroke="#191970" d="M1366.212,-190.3402C1350.1905,-161.0732 1301.9848,-73.0142 1280.7423,-34.2099"/>
<polygon fill="#191970" stroke="#191970" points="1283.6076,-32.1552 1275.7356,-25.0641 1277.4674,-35.5165 1283.6076,-32.1552"/>
</g>
<!-- Node26&#45;&gt;Node23 -->
<g id="edge35" class="edge">
<title>Node26&#45;&gt;Node23</title>
<path fill="none" stroke="#191970" d="M1353.9071,-190.2455C1338.121,-181.4928 1314.7361,-168.527 1296.7413,-158.5496"/>
<polygon fill="#191970" stroke="#191970" points="1298.3341,-155.4308 1287.8913,-153.6427 1294.9397,-161.5528 1298.3341,-155.4308"/>
</g>
<!-- Node27 -->
<g id="node28" class="node">
<title>Node27</title>
<polygon fill="none" stroke="#bfbfbf" points="1356,-134.5 1356,-153.5 1409,-153.5 1409,-134.5 1356,-134.5"/>
<text text-anchor="middle" x="1382.5" y="-141.5" font-family="Helvetica,sans-Serif" font-size="10.00" fill="#000000">iterator</text>
</g>
<!-- Node26&#45;&gt;Node27 -->
<g id="edge34" class="edge">
<title>Node26&#45;&gt;Node27</title>
<path fill="none" stroke="#191970" d="M1373.4161,-190.2455C1374.8514,-182.9382 1376.8636,-172.6944 1378.6295,-163.7046"/>
<polygon fill="#191970" stroke="#191970" points="1382.1127,-164.1298 1380.6059,-153.6427 1375.244,-162.7805 1382.1127,-164.1298"/>
</g>
<!-- Node28 -->
<g id="node29" class="node">
<title>Node28</title>
<polygon fill="none" stroke="#bfbfbf" points="1427,-134.5 1427,-153.5 1492,-153.5 1492,-134.5 1427,-134.5"/>
<text text-anchor="middle" x="1459.5" y="-141.5" font-family="Helvetica,sans-Serif" font-size="10.00" fill="#000000">typeindex</text>
</g>
<!-- Node26&#45;&gt;Node28 -->
<g id="edge36" class="edge">
<title>Node26&#45;&gt;Node28</title>
<path fill="none" stroke="#191970" d="M1386.8284,-190.2455C1400.3303,-181.6534 1420.2122,-169.0014 1435.7686,-159.1018"/>
<polygon fill="#191970" stroke="#191970" points="1437.7897,-161.9643 1444.3472,-153.6427 1434.0315,-156.0587 1437.7897,-161.9643"/>
</g>
<!-- Node29 -->
<g id="node30" class="node">
<title>Node29</title>
<polygon fill="none" stroke="#bfbfbf" points="1510,-134.5 1510,-153.5 1567,-153.5 1567,-134.5 1510,-134.5"/>
<text text-anchor="middle" x="1538.5" y="-141.5" font-family="Helvetica,sans-Serif" font-size="10.00" fill="#000000">typeinfo</text>
</g>
<!-- Node26&#45;&gt;Node29 -->
<g id="edge37" class="edge">
<title>Node26&#45;&gt;Node29</title>
<path fill="none" stroke="#191970" d="M1400.2083,-190.3733C1427.8577,-181.1016 1469.8576,-167.0178 1500.3166,-156.804"/>
<polygon fill="#191970" stroke="#191970" points="1501.7979,-159.9989 1510.1663,-153.5011 1499.5724,-153.3621 1501.7979,-159.9989"/>
</g>
<!-- Node30 -->
<g id="node31" class="node">
<title>Node30</title>
<polygon fill="none" stroke="#bfbfbf" points="1585,-134.5 1585,-153.5 1678,-153.5 1678,-134.5 1585,-134.5"/>
<text text-anchor="middle" x="1631.5" y="-141.5" font-family="Helvetica,sans-Serif" font-size="10.00" fill="#000000">unordered_map</text>
</g>
<!-- Node26&#45;&gt;Node30 -->
<g id="edge38" class="edge">
<title>Node26&#45;&gt;Node30</title>
<path fill="none" stroke="#191970" d="M1413.2735,-191.0026C1457.7663,-181.4196 1528.3652,-166.2136 1577.1564,-155.7048"/>
<polygon fill="#191970" stroke="#191970" points="1578.1808,-159.0645 1587.2196,-153.5373 1576.7068,-152.2214 1578.1808,-159.0645"/>
</g>
<!-- Node32 -->
<g id="node33" class="node">
<title>Node32</title>
<polygon fill="none" stroke="#bfbfbf" points="1696.5,-134.5 1696.5,-153.5 1760.5,-153.5 1760.5,-134.5 1696.5,-134.5"/>
<text text-anchor="middle" x="1728.5" y="-141.5" font-family="Helvetica,sans-Serif" font-size="10.00" fill="#000000">algorithm</text>
</g>
<!-- Node31&#45;&gt;Node32 -->
<g id="edge43" class="edge">
<title>Node31&#45;&gt;Node32</title>
<path fill="none" stroke="#191970" d="M1864.8914,-191.737C1838.6147,-182.5401 1795.8232,-167.5631 1765.1769,-156.8369"/>
<polygon fill="#191970" stroke="#191970" points="1766.2848,-153.5165 1755.69,-153.5165 1763.9723,-160.1236 1766.2848,-153.5165"/>
</g>
<!-- Node33 -->
<g id="node34" class="node">
<title>Node33</title>
<polygon fill="none" stroke="#bfbfbf" points="1779,-134.5 1779,-153.5 1838,-153.5 1838,-134.5 1779,-134.5"/>
<text text-anchor="middle" x="1808.5" y="-141.5" font-family="Helvetica,sans-Serif" font-size="10.00" fill="#000000">complex</text>
</g>
<!-- Node31&#45;&gt;Node33 -->
<g id="edge44" class="edge">
<title>Node31&#45;&gt;Node33</title>
<path fill="none" stroke="#191970" d="M1874.5651,-190.2455C1862.4053,-181.7337 1844.5536,-169.2375 1830.4715,-159.3801"/>
<polygon fill="#191970" stroke="#191970" points="1832.4747,-156.51 1822.2752,-153.6427 1828.4605,-162.2447 1832.4747,-156.51"/>
</g>
<!-- Node34 -->
<g id="node35" class="node">
<title>Node34</title>
<polygon fill="none" stroke="#bfbfbf" points="1856,-134.5 1856,-153.5 1921,-153.5 1921,-134.5 1856,-134.5"/>
<text text-anchor="middle" x="1888.5" y="-141.5" font-family="Helvetica,sans-Serif" font-size="10.00" fill="#000000">functional</text>
</g>
<!-- Node31&#45;&gt;Node34 -->
<g id="edge45" class="edge">
<title>Node31&#45;&gt;Node34</title>
<path fill="none" stroke="#191970" d="M1888.5,-190.2455C1888.5,-182.9382 1888.5,-172.6944 1888.5,-163.7046"/>
<polygon fill="#191970" stroke="#191970" points="1892.0001,-163.6426 1888.5,-153.6427 1885.0001,-163.6427 1892.0001,-163.6426"/>
</g>
<!-- Node35 -->
<g id="node36" class="node">
<title>Node35</title>
<polygon fill="none" stroke="#bfbfbf" points="1939.5,-134.5 1939.5,-153.5 1993.5,-153.5 1993.5,-134.5 1939.5,-134.5"/>
<text text-anchor="middle" x="1966.5" y="-141.5" font-family="Helvetica,sans-Serif" font-size="10.00" fill="#000000">random</text>
</g>
<!-- Node31&#45;&gt;Node35 -->
<g id="edge46" class="edge">
<title>Node31&#45;&gt;Node35</title>
<path fill="none" stroke="#191970" d="M1902.0866,-190.2455C1913.8305,-181.814 1931.0199,-169.4729 1944.6882,-159.6598"/>
<polygon fill="#191970" stroke="#191970" points="1946.9871,-162.3179 1953.0691,-153.6427 1942.9046,-156.6316 1946.9871,-162.3179"/>
</g>
<!-- Node36 -->
<g id="node37" class="node">
<title>Node36</title>
<polygon fill="none" stroke="#bfbfbf" points="2012,-134.5 2012,-153.5 2081,-153.5 2081,-134.5 2012,-134.5"/>
<text text-anchor="middle" x="2046.5" y="-141.5" font-family="Helvetica,sans-Serif" font-size="10.00" fill="#000000">type_traits</text>
</g>
<!-- Node31&#45;&gt;Node36 -->
<g id="edge47" class="edge">
<title>Node31&#45;&gt;Node36</title>
<path fill="none" stroke="#191970" d="M1912.1542,-191.6162C1937.9871,-182.4603 1979.6872,-167.6805 2009.7816,-157.0141"/>
<polygon fill="#191970" stroke="#191970" points="2011.2467,-160.2082 2019.5029,-153.5686 2008.9082,-153.6104 2011.2467,-160.2082"/>
</g>
<!-- Node37 -->
<g id="node38" class="node">
<title>Node37</title>
<polygon fill="none" stroke="#bfbfbf" points="2099.5,-134.5 2099.5,-153.5 2155.5,-153.5 2155.5,-134.5 2099.5,-134.5"/>
<text text-anchor="middle" x="2127.5" y="-141.5" font-family="Helvetica,sans-Serif" font-size="10.00" fill="#000000">unistd.h</text>
</g>
<!-- Node31&#45;&gt;Node37 -->
<g id="edge48" class="edge">
<title>Node31&#45;&gt;Node37</title>
<path fill="none" stroke="#191970" d="M1912.0763,-194.8637C1949.6843,-186.6122 2025.5377,-169.7308 2089.5,-154 2089.5994,-153.9756 2089.6989,-153.9511 2089.7985,-153.9265"/>
<polygon fill="#191970" stroke="#191970" points="2090.4642,-157.3683 2099.3042,-151.5284 2088.7518,-150.581 2090.4642,-157.3683"/>
</g>
</g>
</svg>
        <g id="navigator" transform="translate(0 0)" fill="#404254">
                <rect fill="#f2f5e9" fill-opacity="0.5" stroke="#606060" stroke-width=".5" x="0" y="0" width="60" height="60"/>
                <use id="zoomplus" xlink:href="#zoomPlus" x="17" y="9" onmousedown="handleZoom(evt,'in')"/>
                <use id="zoomminus" xlink:href="#zoomMin" x="42" y="9" onmousedown="handleZoom(evt,'out')"/>
                <use id="reset" xlink:href="#resetDef" x="30" y="36" onmousedown="handleReset()"/>
                <g id="arrowUp" xlink:href="#dirArrow" transform="translate(30 24)" onmousedown="handlePan(0,-1)">
                  <use xlink:href="#rim" fill="#404040">
                        <set attributeName="fill" to="#808080" begin="arrowUp.mouseover" end="arrowUp.mouseout"/>
                  </use>
                  <path fill="none" stroke="white" stroke-width="1.5" d="M0,-3.0v7 M-2.5,-0.5L0,-3.0L2.5,-0.5"/>
                </g>
                <g id="arrowRight" xlink:href="#dirArrow" transform="rotate(90) translate(36 -43)" onmousedown="handlePan(1,0)">
                  <use xlink:href="#rim" fill="#404040">
                        <set attributeName="fill" to="#808080" begin="arrowRight.mouseover" end="arrowRight.mouseout"/>
                  </use>
                  <path fill="none" stroke="white" stroke-width="1.5" d="M0,-3.0v7 M-2.5,-0.5L0,-3.0L2.5,-0.5"/>
                </g>
                <g id="arrowDown" xlink:href="#dirArrow" transform="rotate(180) translate(-30 -48)" onmousedown="handlePan(0,1)">
                  <use xlink:href="#rim" fill="#404040">
                        <set attributeName="fill" to="#808080" begin="arrowDown.mouseover" end="arrowDown.mouseout"/>
                  </use>
                  <path fill="none" stroke="white" stroke-width="1.5" d="M0,-3.0v7 M-2.5,-0.5L0,-3.0L2.5,-0.5"/>
                </g>
                <g id="arrowLeft" xlink:href="#dirArrow" transform="rotate(270) translate(-36 17)" onmousedown="handlePan(-1,0)">
                  <use xlink:href="#rim" fill="#404040">
                        <set attributeName="fill" to="#808080" begin="arrowLeft.mouseover" end="arrowLeft.mouseout"/>
                  </use>
                  <path fill="none" stroke="white" stroke-width="1.5" d="M0,-3.0v7 M-2.5,-0.5L0,-3.0L2.5,-0.5"/>
                </g>
        </g>
        <svg viewBox="0 0 15 15" width="100%" height="30px" preserveAspectRatio="xMaxYMin meet">
         <g id="arrow_out" transform="scale(0.3 0.3)">
          <a xlink:href="Hamiltonianmatrix_8cpp__incl_org.svg" target="_base">
           <rect id="button" ry="5" rx="5" y="6" x="6" height="38" width="38"
                fill="#f2f5e9" fill-opacity="0.5" stroke="#606060" stroke-width="1.0"/>
           <path id="arrow"
             d="M 11.500037,31.436501 C 11.940474,20.09759 22.043105,11.32322 32.158766,21.979434 L 37.068811,17.246167 C 37.068811,17.246167 37.088388,32 37.088388,32 L 22.160133,31.978069 C 22.160133,31.978069 26.997745,27.140456 26.997745,27.140456 C 18.528582,18.264221 13.291696,25.230495 11.500037,31.436501 z"
             style="fill:#404040;"/>
          </a>
         </g>
        </svg>
</svg>
