<?xml version="1.0" encoding="UTF-8" standalone="no"?>
<!DOCTYPE svg PUBLIC "-//W3C//DTD SVG 1.1//EN"
 "http://www.w3.org/Graphics/SVG/1.1/DTD/svg11.dtd">
<!-- Generated by graphviz version 2.40.1 (20161225.0304)
 -->
<!-- Title: Graphical Class Hierarchy Pages: 1 -->
<svg width="240pt" height="78pt"
 viewBox="0.00 0.00 240.00 77.50" xmlns="http://www.w3.org/2000/svg" xmlns:xlink="http://www.w3.org/1999/xlink">
<g id="graph0" class="graph" transform="scale(1 1) rotate(0) translate(4 73.5)">
<title>Graphical Class Hierarchy</title>
<!-- Node58 -->
<g id="node1" class="node">
<title>Node58</title>
<polygon fill="none" stroke="#bfbfbf" points="0,-22.5 0,-41.5 68,-41.5 68,-22.5 0,-22.5"/>
<text text-anchor="middle" x="34" y="-29.5" font-family="Helvetica,sans-Serif" font-size="10.00" fill="#000000">false_type</text>
</g>
<!-- Node0 -->
<g id="node2" class="node">
<title>Node0</title>
<g id="a_node2"><a xlink:href="structtraits_1_1is__pointer__to__const.html" target="_top" xlink:title="Check if something points to const. ">
<polygon fill="none" stroke="#000000" points="120,-39 120,-69 216,-69 216,-39 120,-39"/>
<text text-anchor="start" x="128" y="-57" font-family="Helvetica,sans-Serif" font-size="10.00" fill="#000000">traits::is_pointer</text>
<text text-anchor="middle" x="168" y="-46" font-family="Helvetica,sans-Serif" font-size="10.00" fill="#000000">_to_const&lt; T &gt;</text>
</a>
</g>
</g>
<!-- Node58&#45;&gt;Node0 -->
<g id="edge1" class="edge">
<title>Node58&#45;&gt;Node0</title>
<path fill="none" stroke="#191970" d="M78.1082,-39.2416C91.5266,-41.4447 106.3373,-43.8763 119.9992,-46.1193"/>
<polygon fill="#191970" stroke="#191970" points="78.5955,-35.7749 68.1606,-37.6085 77.4614,-42.6824 78.5955,-35.7749"/>
</g>
<!-- Node60 -->
<g id="node3" class="node">
<title>Node60</title>
<g id="a_node3"><a xlink:href="structutils_1_1is__complex.html" target="_top" xlink:title="utils::is_complex\&lt; T \&gt;">
<polygon fill="none" stroke="#000000" points="104,-.5 104,-19.5 232,-19.5 232,-.5 104,-.5"/>
<text text-anchor="middle" x="168" y="-7.5" font-family="Helvetica,sans-Serif" font-size="10.00" fill="#000000">utils::is_complex&lt; T &gt;</text>
</a>
</g>
</g>
<!-- Node58&#45;&gt;Node60 -->
<g id="edge2" class="edge">
<title>Node58&#45;&gt;Node60</title>
<path fill="none" stroke="#191970" d="M78.0499,-24.7679C88.2496,-23.0933 99.2565,-21.2863 109.9533,-19.5301"/>
<polygon fill="#191970" stroke="#191970" points="77.4614,-21.3176 68.1606,-26.3915 78.5955,-28.2251 77.4614,-21.3176"/>
</g>
</g>
</svg>
