<?xml version="1.0" encoding="UTF-8" standalone="no"?>
<!DOCTYPE svg PUBLIC "-//W3C//DTD SVG 1.1//EN"
 "http://www.w3.org/Graphics/SVG/1.1/DTD/svg11.dtd">
<!-- Generated by graphviz version 2.40.1 (20161225.0304)
 -->
<!-- Title: Graphical Class Hierarchy Pages: 1 -->
<svg width="262pt" height="137pt"
 viewBox="0.00 0.00 262.00 137.00" xmlns="http://www.w3.org/2000/svg" xmlns:xlink="http://www.w3.org/1999/xlink">
<g id="graph0" class="graph" transform="scale(1 1) rotate(0) translate(4 133)">
<title>Graphical Class Hierarchy</title>
<!-- Node2 -->
<g id="node1" class="node">
<title>Node2</title>
<polygon fill="none" stroke="#bfbfbf" points="0,-55 0,-74 63,-74 63,-55 0,-55"/>
<text text-anchor="middle" x="31.5" y="-62" font-family="Helvetica,sans-Serif" font-size="10.00" fill="#000000">true_type</text>
</g>
<!-- Node0 -->
<g id="node2" class="node">
<title>Node0</title>
<g id="a_node2"><a xlink:href="structtraits_1_1is__pointer__to__const_3_01T_01const_01_5_01_4.html" target="_top" xlink:title="Specialization of is_pointer_to_const for T const *. ">
<polygon fill="none" stroke="#000000" points="112,-98.5 112,-128.5 241,-128.5 241,-98.5 112,-98.5"/>
<text text-anchor="start" x="120" y="-116.5" font-family="Helvetica,sans-Serif" font-size="10.00" fill="#000000">traits::is_pointer</text>
<text text-anchor="middle" x="176.5" y="-105.5" font-family="Helvetica,sans-Serif" font-size="10.00" fill="#000000">_to_const&lt; T const * &gt;</text>
</a>
</g>
</g>
<!-- Node2&#45;&gt;Node0 -->
<g id="edge1" class="edge">
<title>Node2&#45;&gt;Node0</title>
<path fill="none" stroke="#191970" d="M65.7535,-77.597C76.3669,-81.5443 88.1289,-85.8066 99,-89.5 107.8021,-92.4905 117.2169,-95.5342 126.3433,-98.4049"/>
<polygon fill="#191970" stroke="#191970" points="66.9803,-74.3191 56.388,-74.086 64.523,-80.8737 66.9803,-74.3191"/>
</g>
<!-- Node4 -->
<g id="node3" class="node">
<title>Node4</title>
<g id="a_node3"><a xlink:href="structtraits_1_1is__pointer__to__const_3_01T_01const_01_5const_01_4.html" target="_top" xlink:title="Specialization of is_pointer_to_const for T const * const. ">
<polygon fill="none" stroke="#000000" points="99,-49.5 99,-79.5 254,-79.5 254,-49.5 99,-49.5"/>
<text text-anchor="start" x="107" y="-67.5" font-family="Helvetica,sans-Serif" font-size="10.00" fill="#000000">traits::is_pointer</text>
<text text-anchor="middle" x="176.5" y="-56.5" font-family="Helvetica,sans-Serif" font-size="10.00" fill="#000000">_to_const&lt; T const *const &gt;</text>
</a>
</g>
</g>
<!-- Node2&#45;&gt;Node4 -->
<g id="edge2" class="edge">
<title>Node2&#45;&gt;Node4</title>
<path fill="none" stroke="#191970" d="M73.4326,-64.5C81.4224,-64.5 90.0185,-64.5 98.7165,-64.5"/>
<polygon fill="#191970" stroke="#191970" points="73.3209,-61.0001 63.3209,-64.5 73.3208,-68.0001 73.3209,-61.0001"/>
</g>
<!-- Node5 -->
<g id="node4" class="node">
<title>Node5</title>
<g id="a_node4"><a xlink:href="structutils_1_1is__complex_3_01std_1_1complex_3_01S_01_4_01_4.html" target="_top" xlink:title="utils::is_complex\&lt;\l std::complex\&lt; S \&gt; \&gt;">
<polygon fill="none" stroke="#000000" points="115.5,-.5 115.5,-30.5 237.5,-30.5 237.5,-.5 115.5,-.5"/>
<text text-anchor="start" x="123.5" y="-18.5" font-family="Helvetica,sans-Serif" font-size="10.00" fill="#000000">utils::is_complex&lt;</text>
<text text-anchor="middle" x="176.5" y="-7.5" font-family="Helvetica,sans-Serif" font-size="10.00" fill="#000000"> std::complex&lt; S &gt; &gt;</text>
</a>
</g>
</g>
<!-- Node2&#45;&gt;Node5 -->
<g id="edge3" class="edge">
<title>Node2&#45;&gt;Node5</title>
<path fill="none" stroke="#191970" d="M67.1959,-51.5862C77.443,-47.9394 88.6455,-44.01 99,-40.5 108.6402,-37.2321 118.9882,-33.8249 128.8833,-30.6151"/>
<polygon fill="#191970" stroke="#191970" points="65.9607,-48.3108 57.7229,-54.9732 68.3175,-54.9021 65.9607,-48.3108"/>
</g>
</g>
</svg>
