<?xml version="1.0" encoding="UTF-8" standalone="no"?>
<!DOCTYPE svg PUBLIC "-//W3C//DTD SVG 1.1//EN"
 "http://www.w3.org/Graphics/SVG/1.1/DTD/svg11.dtd">
<!-- Generated by graphviz version 2.40.1 (20161225.0304)
 -->
<!-- Title: Graphical Class Hierarchy Pages: 1 -->
<svg width="181pt" height="66pt"
 viewBox="0.00 0.00 181.00 66.00" xmlns="http://www.w3.org/2000/svg" xmlns:xlink="http://www.w3.org/1999/xlink">
<g id="graph0" class="graph" transform="scale(1 1) rotate(0) translate(4 62)">
<title>Graphical Class Hierarchy</title>
<!-- Node0 -->
<g id="node1" class="node">
<title>Node0</title>
<g id="a_node1"><a xlink:href="classStateOld.html" target="_top" xlink:title="Base class for states ">
<polygon fill="none" stroke="#000000" points="0,-19.5 0,-38.5 59,-38.5 59,-19.5 0,-19.5"/>
<text text-anchor="middle" x="29.5" y="-26.5" font-family="Helvetica,sans-Serif" font-size="10.00" fill="#000000">StateOld</text>
</a>
</g>
</g>
<!-- Node1 -->
<g id="node2" class="node">
<title>Node1</title>
<g id="a_node2"><a xlink:href="classStateOneOld.html" target="_top" xlink:title="One&#45;atom Rydberg state ">
<polygon fill="none" stroke="#000000" points="95,-38.5 95,-57.5 173,-57.5 173,-38.5 95,-38.5"/>
<text text-anchor="middle" x="134" y="-45.5" font-family="Helvetica,sans-Serif" font-size="10.00" fill="#000000">StateOneOld</text>
</a>
</g>
</g>
<!-- Node0&#45;&gt;Node1 -->
<g id="edge1" class="edge">
<title>Node0&#45;&gt;Node1</title>
<path fill="none" stroke="#191970" d="M69.1526,-36.2096C77.5813,-37.7421 86.4752,-39.3591 94.8837,-40.8879"/>
<polygon fill="#191970" stroke="#191970" points="69.6308,-32.7392 59.166,-34.3938 68.3786,-39.6263 69.6308,-32.7392"/>
</g>
<!-- Node2 -->
<g id="node3" class="node">
<title>Node2</title>
<g id="a_node3"><a xlink:href="classStateTwoOld.html" target="_top" xlink:title="Two&#45;atom Rydberg state ">
<polygon fill="none" stroke="#000000" points="95.5,-.5 95.5,-19.5 172.5,-19.5 172.5,-.5 95.5,-.5"/>
<text text-anchor="middle" x="134" y="-7.5" font-family="Helvetica,sans-Serif" font-size="10.00" fill="#000000">StateTwoOld</text>
</a>
</g>
</g>
<!-- Node0&#45;&gt;Node2 -->
<g id="edge2" class="edge">
<title>Node0&#45;&gt;Node2</title>
<path fill="none" stroke="#191970" d="M69.2644,-21.7701C77.7889,-20.2202 86.7843,-18.5847 95.269,-17.042"/>
<polygon fill="#191970" stroke="#191970" points="68.3786,-18.3737 59.166,-23.6062 69.6308,-25.2608 68.3786,-18.3737"/>
</g>
</g>
</svg>
