<?xml version="1.0" encoding="UTF-8" standalone="no"?>
<!DOCTYPE svg PUBLIC "-//W3C//DTD SVG 1.1//EN"
 "http://www.w3.org/Graphics/SVG/1.1/DTD/svg11.dtd">
<!-- Generated by graphviz version 2.40.1 (20161225.0304)
 -->
<!-- Title: Graphical Class Hierarchy Pages: 1 -->
<svg width="186pt" height="104pt"
 viewBox="0.00 0.00 186.00 104.00" xmlns="http://www.w3.org/2000/svg" xmlns:xlink="http://www.w3.org/1999/xlink">
<g id="graph0" class="graph" transform="scale(1 1) rotate(0) translate(4 100)">
<title>Graphical Class Hierarchy</title>
<!-- Node62 -->
<g id="node1" class="node">
<title>Node62</title>
<polygon fill="none" stroke="#bfbfbf" points="0,-38.5 0,-57.5 65,-57.5 65,-38.5 0,-38.5"/>
<text text-anchor="middle" x="32.5" y="-45.5" font-family="Helvetica,sans-Serif" font-size="10.00" fill="#000000">exception</text>
</g>
<!-- Node0 -->
<g id="node2" class="node">
<title>Node0</title>
<g id="a_node2"><a xlink:href="structno__defect.html" target="_top" xlink:title="no_defect">
<polygon fill="none" stroke="#000000" points="107,-76.5 107,-95.5 172,-95.5 172,-76.5 107,-76.5"/>
<text text-anchor="middle" x="139.5" y="-83.5" font-family="Helvetica,sans-Serif" font-size="10.00" fill="#000000">no_defect</text>
</a>
</g>
</g>
<!-- Node62&#45;&gt;Node0 -->
<g id="edge1" class="edge">
<title>Node62&#45;&gt;Node0</title>
<path fill="none" stroke="#191970" d="M69.0258,-60.9718C83.2812,-66.0344 99.3302,-71.7341 112.508,-76.4141"/>
<polygon fill="#191970" stroke="#191970" points="70.0953,-57.6375 59.5006,-57.589 67.7527,-64.2339 70.0953,-57.6375"/>
</g>
<!-- Node64 -->
<g id="node3" class="node">
<title>Node64</title>
<g id="a_node3"><a xlink:href="structno__potential.html" target="_top" xlink:title="no_potential">
<polygon fill="none" stroke="#000000" points="101,-38.5 101,-57.5 178,-57.5 178,-38.5 101,-38.5"/>
<text text-anchor="middle" x="139.5" y="-45.5" font-family="Helvetica,sans-Serif" font-size="10.00" fill="#000000">no_potential</text>
</a>
</g>
</g>
<!-- Node62&#45;&gt;Node64 -->
<g id="edge2" class="edge">
<title>Node62&#45;&gt;Node64</title>
<path fill="none" stroke="#191970" d="M75.1865,-48C83.585,-48 92.3546,-48 100.6199,-48"/>
<polygon fill="#191970" stroke="#191970" points="75.185,-44.5001 65.1849,-48 75.1849,-51.5001 75.185,-44.5001"/>
</g>
<!-- Node65 -->
<g id="node4" class="node">
<title>Node65</title>
<g id="a_node4"><a xlink:href="structsqlite_1_1error.html" target="_top" xlink:title="SQLite error. ">
<polygon fill="none" stroke="#000000" points="103,-.5 103,-19.5 176,-19.5 176,-.5 103,-.5"/>
<text text-anchor="middle" x="139.5" y="-7.5" font-family="Helvetica,sans-Serif" font-size="10.00" fill="#000000">sqlite::error</text>
</a>
</g>
</g>
<!-- Node62&#45;&gt;Node65 -->
<g id="edge3" class="edge">
<title>Node62&#45;&gt;Node65</title>
<path fill="none" stroke="#191970" d="M69.0258,-35.0282C83.2812,-29.9656 99.3302,-24.2659 112.508,-19.5859"/>
<polygon fill="#191970" stroke="#191970" points="67.7527,-31.7661 59.5006,-38.411 70.0953,-38.3625 67.7527,-31.7661"/>
</g>
</g>
</svg>
