<?xml version="1.0" encoding="UTF-8" standalone="no"?>
<!DOCTYPE svg PUBLIC "-//W3C//DTD SVG 1.1//EN"
 "http://www.w3.org/Graphics/SVG/1.1/DTD/svg11.dtd">
<!-- Generated by graphviz version 2.40.1 (20161225.0304)
 -->
<!-- Title: compute Pages: 1 -->
<!--zoomable 199 -->
<svg id="main" version="1.1" xmlns="http://www.w3.org/2000/svg" xmlns:xlink="http://www.w3.org/1999/xlink" xml:space="preserve" onload="init(evt)">
<style type="text/css"><![CDATA[
.edge:hover path { stroke: red; }
.edge:hover polygon { stroke: red; fill: red; }
]]></style>
<script type="text/javascript"><![CDATA[
var edges = document.getElementsByTagName('g');
if (edges && edges.length) {
  for (var i=0;i<edges.length;i++) {
    if (edges[i].id.substr(0,4)=='edge') {
      edges[i].setAttribute('class','edge');
    }
  }
}
]]></script>
        <defs>
                <circle id="rim" cx="0" cy="0" r="7"/>
                <circle id="rim2" cx="0" cy="0" r="3.5"/>
                <g id="zoomPlus">
                        <use xlink:href="#rim" fill="#404040">
                                <set attributeName="fill" to="#808080" begin="zoomplus.mouseover" end="zoomplus.mouseout"/>
                        </use>
                        <path d="M-4,0h8M0,-4v8" fill="none" stroke="white" stroke-width="1.5" pointer-events="none"/>
                </g>
                <g id="zoomMin">
                        <use xlink:href="#rim" fill="#404040">
                                <set attributeName="fill" to="#808080" begin="zoomminus.mouseover" end="zoomminus.mouseout"/>
                        </use>
                        <path d="M-4,0h8" fill="none" stroke="white" stroke-width="1.5" pointer-events="none"/>
                </g>
                <g id="dirArrow">
                        <path fill="none" stroke="white" stroke-width="1.5" d="M0,-3.0v7 M-2.5,-0.5L0,-3.0L2.5,-0.5"/>
                </g>
               <g id="resetDef">
                       <use xlink:href="#rim2" fill="#404040">
                               <set attributeName="fill" to="#808080" begin="reset.mouseover" end="reset.mouseout"/>
                       </use>
               </g>
        </defs>

<script type="text/javascript">
var viewWidth = 607;
var viewHeight = 199;
var sectionId = 'dynsection-2';
</script>
<script xlink:href="svgpan.js"/>
<svg id="graph" class="graph">
<g id="viewport">
<title>compute</title>
<!-- Node0 -->
<g id="node1" class="node">
<title>Node0</title>
<polygon fill="#bfbfbf" stroke="#000000" points="0,-95.5 0,-114.5 59,-114.5 59,-95.5 0,-95.5"/>
<text text-anchor="middle" x="29.5" y="-102.5" font-family="Helvetica,sans-Serif" font-size="10.00" fill="#000000">compute</text>
</g>
<!-- Node1 -->
<g id="node2" class="node">
<title>Node1</title>
<g id="a_node2"><a xlink:href="classConfiguration.html#abe48f0d77849495ff50e92a51b6da4ed" target="_top" xlink:title="Number of elements matching specific key. ">
<polygon fill="none" stroke="#000000" points="117,-171.5 117,-190.5 233,-190.5 233,-171.5 117,-171.5"/>
<text text-anchor="middle" x="175" y="-178.5" font-family="Helvetica,sans-Serif" font-size="10.00" fill="#000000">Configuration::count</text>
</a>
</g>
</g>
<!-- Node0&#45;&gt;Node1 -->
<g id="edge1" class="edge">
<title>Node0&#45;&gt;Node1</title>
<path fill="none" stroke="#191970" d="M37.7781,-114.6678C49.2922,-127.4802 71.4019,-149.8746 95,-162 99.565,-164.3456 104.4257,-166.4072 109.409,-168.2182"/>
<polygon fill="#191970" stroke="#191970" points="108.5049,-171.6051 119.0977,-171.4008 110.6895,-164.9547 108.5049,-171.6051"/>
</g>
<!-- Node2 -->
<g id="node3" class="node">
<title>Node2</title>
<g id="a_node3"><a xlink:href="classBasisnamesOne.html#ab3030f74ccafcc178f38e7a8ada13b9b" target="_top" xlink:title="BasisnamesOne::fromBoth">
<polygon fill="none" stroke="#000000" points="101.5,-57.5 101.5,-76.5 248.5,-76.5 248.5,-57.5 101.5,-57.5"/>
<text text-anchor="middle" x="175" y="-64.5" font-family="Helvetica,sans-Serif" font-size="10.00" fill="#000000">BasisnamesOne::fromBoth</text>
</a>
</g>
</g>
<!-- Node0&#45;&gt;Node2 -->
<g id="edge2" class="edge">
<title>Node0&#45;&gt;Node2</title>
<path fill="none" stroke="#191970" d="M59.086,-96.0835C70.301,-92.7917 83.2074,-89.1087 95,-86 104.022,-83.6216 113.6518,-81.2192 122.991,-78.9601"/>
<polygon fill="#191970" stroke="#191970" points="124.0575,-82.3038 132.9685,-76.5728 122.4285,-75.496 124.0575,-82.3038"/>
</g>
<!-- Node8 -->
<g id="node9" class="node">
<title>Node8</title>
<g id="a_node9"><a xlink:href="classBasisnamesOne.html#a37fe3571090885a8a594eed4019befa9" target="_top" xlink:title="BasisnamesOne::fromFirst">
<polygon fill="none" stroke="#000000" points="102,-133.5 102,-152.5 248,-152.5 248,-133.5 102,-133.5"/>
<text text-anchor="middle" x="175" y="-140.5" font-family="Helvetica,sans-Serif" font-size="10.00" fill="#000000">BasisnamesOne::fromFirst</text>
</a>
</g>
</g>
<!-- Node0&#45;&gt;Node8 -->
<g id="edge10" class="edge">
<title>Node0&#45;&gt;Node8</title>
<path fill="none" stroke="#191970" d="M59.086,-113.9165C70.301,-117.2083 83.2074,-120.8913 95,-124 104.022,-126.3784 113.6518,-128.7808 122.991,-131.0399"/>
<polygon fill="#191970" stroke="#191970" points="122.4285,-134.504 132.9685,-133.4272 124.0575,-127.6962 122.4285,-134.504"/>
</g>
<!-- Node9 -->
<g id="node10" class="node">
<title>Node9</title>
<g id="a_node10"><a xlink:href="classBasisnamesOne.html#a683ae34cba3c56f9a0185e932de62078" target="_top" xlink:title="BasisnamesOne::fromSecond">
<polygon fill="none" stroke="#000000" points="95,-95.5 95,-114.5 255,-114.5 255,-95.5 95,-95.5"/>
<text text-anchor="middle" x="175" y="-102.5" font-family="Helvetica,sans-Serif" font-size="10.00" fill="#000000">BasisnamesOne::fromSecond</text>
</a>
</g>
</g>
<!-- Node0&#45;&gt;Node9 -->
<g id="edge12" class="edge">
<title>Node0&#45;&gt;Node9</title>
<path fill="none" stroke="#191970" d="M59.2952,-105C66.9065,-105 75.495,-105 84.468,-105"/>
<polygon fill="#191970" stroke="#191970" points="84.7307,-108.5001 94.7306,-105 84.7306,-101.5001 84.7307,-108.5001"/>
</g>
<!-- Node10 -->
<g id="node11" class="node">
<title>Node10</title>
<g id="a_node11"><a xlink:href="classConfiguration.html#a545d28b3d64edc05331ee71898acfd1c" target="_top" xlink:title="Load configuration from JSON file. ">
<polygon fill="none" stroke="#000000" points="120,-8 120,-38 230,-38 230,-8 120,-8"/>
<text text-anchor="start" x="128" y="-26" font-family="Helvetica,sans-Serif" font-size="10.00" fill="#000000">Configuration::load</text>
<text text-anchor="middle" x="175" y="-15" font-family="Helvetica,sans-Serif" font-size="10.00" fill="#000000">_from_json</text>
</a>
</g>
</g>
<!-- Node0&#45;&gt;Node10 -->
<g id="edge14" class="edge">
<title>Node0&#45;&gt;Node10</title>
<path fill="none" stroke="#191970" d="M38.3077,-95.1397C50.0716,-82.5283 72.1019,-60.7933 95,-48 99.843,-45.2942 105.0179,-42.8398 110.3183,-40.622"/>
<polygon fill="#191970" stroke="#191970" points="111.8949,-43.7645 119.9501,-36.8823 109.3613,-37.2391 111.8949,-43.7645"/>
</g>
<!-- Node3 -->
<g id="node4" class="node">
<title>Node3</title>
<g id="a_node4"><a xlink:href="classBasisnames.html#a534f7e2dcc2987a1f969cb89c070da04" target="_top" xlink:title="Basisnames::configure">
<polygon fill="none" stroke="#000000" points="291,-114.5 291,-133.5 419,-133.5 419,-114.5 291,-114.5"/>
<text text-anchor="middle" x="355" y="-121.5" font-family="Helvetica,sans-Serif" font-size="10.00" fill="#000000">Basisnames::configure</text>
</a>
</g>
</g>
<!-- Node2&#45;&gt;Node3 -->
<g id="edge3" class="edge">
<title>Node2&#45;&gt;Node3</title>
<path fill="none" stroke="#191970" d="M220.1454,-76.5748C231.5999,-79.3172 243.8242,-82.518 255,-86 271.3902,-91.1067 274.9626,-93.8749 291,-100 300.3795,-103.5823 310.55,-107.4183 319.9641,-110.9489"/>
<polygon fill="#191970" stroke="#191970" points="318.8435,-114.2666 329.4359,-114.4943 321.2975,-107.7108 318.8435,-114.2666"/>
</g>
<!-- Node4 -->
<g id="node5" class="node">
<title>Node4</title>
<g id="a_node5"><a xlink:href="classStateTwoOld.html#a1d7ff079f51711e8a6f40946e5677be8" target="_top" xlink:title="StateTwoOld::order">
<polygon fill="none" stroke="#000000" points="300.5,-38.5 300.5,-57.5 409.5,-57.5 409.5,-38.5 300.5,-38.5"/>
<text text-anchor="middle" x="355" y="-45.5" font-family="Helvetica,sans-Serif" font-size="10.00" fill="#000000">StateTwoOld::order</text>
</a>
</g>
</g>
<!-- Node2&#45;&gt;Node4 -->
<g id="edge4" class="edge">
<title>Node2&#45;&gt;Node4</title>
<path fill="none" stroke="#191970" d="M248.7322,-59.2172C262.5037,-57.7635 276.8008,-56.2544 290.2753,-54.8321"/>
<polygon fill="#191970" stroke="#191970" points="290.8194,-58.2942 300.3967,-53.7637 290.0845,-51.3328 290.8194,-58.2942"/>
</g>
<!-- Node6 -->
<g id="node7" class="node">
<title>Node6</title>
<g id="a_node7"><a xlink:href="classStateTwoOld.html#a6efa9c8f92e433004b778f6f5ce212d9" target="_top" xlink:title="StateTwoOld::second">
<polygon fill="none" stroke="#000000" points="468,-.5 468,-19.5 586,-19.5 586,-.5 468,-.5"/>
<text text-anchor="middle" x="527" y="-7.5" font-family="Helvetica,sans-Serif" font-size="10.00" fill="#000000">StateTwoOld::second</text>
</a>
</g>
</g>
<!-- Node2&#45;&gt;Node6 -->
<g id="edge9" class="edge">
<title>Node2&#45;&gt;Node6</title>
<path fill="none" stroke="#191970" d="M223.8166,-57.4786C234.2549,-54.8704 245.1113,-51.7154 255,-48 271.9358,-41.6369 273.6279,-34.0515 291,-29 345.4223,-13.175 409.6828,-8.885 457.3961,-8.2952"/>
<polygon fill="#191970" stroke="#191970" points="457.6467,-11.7936 467.6213,-8.222 457.5965,-4.7938 457.6467,-11.7936"/>
</g>
<!-- Node7 -->
<g id="node8" class="node">
<title>Node7</title>
<g id="a_node8"><a xlink:href="classStateTwoOld.html#aad5fb4307dec316a5b602c2e8bfae0a8" target="_top" xlink:title="StateTwoOld::first">
<polygon fill="none" stroke="#000000" points="475.5,-76.5 475.5,-95.5 578.5,-95.5 578.5,-76.5 475.5,-76.5"/>
<text text-anchor="middle" x="527" y="-83.5" font-family="Helvetica,sans-Serif" font-size="10.00" fill="#000000">StateTwoOld::first</text>
</a>
</g>
</g>
<!-- Node2&#45;&gt;Node7 -->
<g id="edge8" class="edge">
<title>Node2&#45;&gt;Node7</title>
<path fill="none" stroke="#191970" d="M248.7907,-70.983C312.9183,-74.4445 404.7502,-79.4013 465.1089,-82.6593"/>
<polygon fill="#191970" stroke="#191970" points="465.0828,-86.1629 475.257,-83.2071 465.4602,-79.1731 465.0828,-86.1629"/>
</g>
<!-- Node5 -->
<g id="node6" class="node">
<title>Node5</title>
<g id="a_node6"><a xlink:href="classStateTwoOld.html#a33b595b744249754cb86bde5cd125c06" target="_top" xlink:title="StateTwoOld::StateTwoOld">
<polygon fill="none" stroke="#000000" points="455,-38.5 455,-57.5 599,-57.5 599,-38.5 455,-38.5"/>
<text text-anchor="middle" x="527" y="-45.5" font-family="Helvetica,sans-Serif" font-size="10.00" fill="#000000">StateTwoOld::StateTwoOld</text>
</a>
</g>
</g>
<!-- Node4&#45;&gt;Node5 -->
<g id="edge5" class="edge">
<title>Node4&#45;&gt;Node5</title>
<path fill="none" stroke="#191970" d="M409.8948,-48C420.9206,-48 432.7347,-48 444.4629,-48"/>
<polygon fill="#191970" stroke="#191970" points="444.7253,-51.5001 454.7253,-48 444.7253,-44.5001 444.7253,-51.5001"/>
</g>
<!-- Node4&#45;&gt;Node6 -->
<g id="edge6" class="edge">
<title>Node4&#45;&gt;Node6</title>
<path fill="none" stroke="#191970" d="M398.4029,-38.411C421.4068,-33.3287 449.8509,-27.0446 474.1342,-21.6797"/>
<polygon fill="#191970" stroke="#191970" points="474.8998,-25.095 483.9092,-19.5201 473.3896,-18.2598 474.8998,-25.095"/>
</g>
<!-- Node4&#45;&gt;Node7 -->
<g id="edge7" class="edge">
<title>Node4&#45;&gt;Node7</title>
<path fill="none" stroke="#191970" d="M398.4029,-57.589C421.4068,-62.6713 449.8509,-68.9554 474.1342,-74.3203"/>
<polygon fill="#191970" stroke="#191970" points="473.3896,-77.7402 483.9092,-76.4799 474.8998,-70.905 473.3896,-77.7402"/>
</g>
<!-- Node8&#45;&gt;Node3 -->
<g id="edge11" class="edge">
<title>Node8&#45;&gt;Node3</title>
<path fill="none" stroke="#191970" d="M248.2129,-135.272C258.908,-134.143 269.931,-132.9795 280.6486,-131.8482"/>
<polygon fill="#191970" stroke="#191970" points="281.2326,-135.3061 290.8099,-130.7756 280.4977,-128.3448 281.2326,-135.3061"/>
</g>
<!-- Node9&#45;&gt;Node3 -->
<g id="edge13" class="edge">
<title>Node9&#45;&gt;Node3</title>
<path fill="none" stroke="#191970" d="M255.2611,-113.472C263.7257,-114.3655 272.3066,-115.2713 280.6995,-116.1572"/>
<polygon fill="#191970" stroke="#191970" points="280.5111,-119.6566 290.8233,-117.2258 281.246,-112.6953 280.5111,-119.6566"/>
</g>
</g>
</svg>
        <g id="navigator" transform="translate(0 0)" fill="#404254">
                <rect fill="#f2f5e9" fill-opacity="0.5" stroke="#606060" stroke-width=".5" x="0" y="0" width="60" height="60"/>
                <use id="zoomplus" xlink:href="#zoomPlus" x="17" y="9" onmousedown="handleZoom(evt,'in')"/>
                <use id="zoomminus" xlink:href="#zoomMin" x="42" y="9" onmousedown="handleZoom(evt,'out')"/>
                <use id="reset" xlink:href="#resetDef" x="30" y="36" onmousedown="handleReset()"/>
                <g id="arrowUp" xlink:href="#dirArrow" transform="translate(30 24)" onmousedown="handlePan(0,-1)">
                  <use xlink:href="#rim" fill="#404040">
                        <set attributeName="fill" to="#808080" begin="arrowUp.mouseover" end="arrowUp.mouseout"/>
                  </use>
                  <path fill="none" stroke="white" stroke-width="1.5" d="M0,-3.0v7 M-2.5,-0.5L0,-3.0L2.5,-0.5"/>
                </g>
                <g id="arrowRight" xlink:href="#dirArrow" transform="rotate(90) translate(36 -43)" onmousedown="handlePan(1,0)">
                  <use xlink:href="#rim" fill="#404040">
                        <set attributeName="fill" to="#808080" begin="arrowRight.mouseover" end="arrowRight.mouseout"/>
                  </use>
                  <path fill="none" stroke="white" stroke-width="1.5" d="M0,-3.0v7 M-2.5,-0.5L0,-3.0L2.5,-0.5"/>
                </g>
                <g id="arrowDown" xlink:href="#dirArrow" transform="rotate(180) translate(-30 -48)" onmousedown="handlePan(0,1)">
                  <use xlink:href="#rim" fill="#404040">
                        <set attributeName="fill" to="#808080" begin="arrowDown.mouseover" end="arrowDown.mouseout"/>
                  </use>
                  <path fill="none" stroke="white" stroke-width="1.5" d="M0,-3.0v7 M-2.5,-0.5L0,-3.0L2.5,-0.5"/>
                </g>
                <g id="arrowLeft" xlink:href="#dirArrow" transform="rotate(270) translate(-36 17)" onmousedown="handlePan(-1,0)">
                  <use xlink:href="#rim" fill="#404040">
                        <set attributeName="fill" to="#808080" begin="arrowLeft.mouseover" end="arrowLeft.mouseout"/>
                  </use>
                  <path fill="none" stroke="white" stroke-width="1.5" d="M0,-3.0v7 M-2.5,-0.5L0,-3.0L2.5,-0.5"/>
                </g>
        </g>
        <svg viewBox="0 0 15 15" width="100%" height="30px" preserveAspectRatio="xMaxYMin meet">
         <g id="arrow_out" transform="scale(0.3 0.3)">
          <a xlink:href="Interface_8h_ad478f0b9610586a2ae8066c78b6d3f96_cgraph_org.svg" target="_base">
           <rect id="button" ry="5" rx="5" y="6" x="6" height="38" width="38"
                fill="#f2f5e9" fill-opacity="0.5" stroke="#606060" stroke-width="1.0"/>
           <path id="arrow"
             d="M 11.500037,31.436501 C 11.940474,20.09759 22.043105,11.32322 32.158766,21.979434 L 37.068811,17.246167 C 37.068811,17.246167 37.088388,32 37.088388,32 L 22.160133,31.978069 C 22.160133,31.978069 26.997745,27.140456 26.997745,27.140456 C 18.528582,18.264221 13.291696,25.230495 11.500037,31.436501 z"
             style="fill:#404040;"/>
          </a>
         </g>
        </svg>
</svg>
