<?xml version="1.0" encoding="UTF-8" standalone="no"?>
<!DOCTYPE svg PUBLIC "-//W3C//DTD SVG 1.1//EN"
 "http://www.w3.org/Graphics/SVG/1.1/DTD/svg11.dtd">
<!-- Generated by graphviz version 2.40.1 (20161225.0304)
 -->
<!-- Title: /travis/pairinteraction/Interface.cpp Pages: 1 -->
<svg width="2633pt" height="531pt"
 viewBox="0.00 0.00 2632.50 531.00" xmlns="http://www.w3.org/2000/svg" xmlns:xlink="http://www.w3.org/1999/xlink">
<g id="graph0" class="graph" transform="scale(1 1) rotate(0) translate(4 527)">
<title>/travis/pairinteraction/Interface.cpp</title>
<!-- Node0 -->
<g id="node1" class="node">
<title>Node0</title>
<polygon fill="#bfbfbf" stroke="#000000" points="1447,-492.5 1447,-522.5 1569,-522.5 1569,-492.5 1447,-492.5"/>
<text text-anchor="start" x="1455" y="-510.5" font-family="Helvetica,sans-Serif" font-size="10.00" fill="#000000">/travis/pairinteraction</text>
<text text-anchor="middle" x="1508" y="-499.5" font-family="Helvetica,sans-Serif" font-size="10.00" fill="#000000">/Interface.cpp</text>
</g>
<!-- Node1 -->
<g id="node2" class="node">
<title>Node1</title>
<g id="a_node2"><a xlink:href="Interface_8h.html" target="_top" xlink:title="Interface.h">
<polygon fill="none" stroke="#000000" points="189.5,-375 189.5,-394 258.5,-394 258.5,-375 189.5,-375"/>
<text text-anchor="middle" x="224" y="-382" font-family="Helvetica,sans-Serif" font-size="10.00" fill="#000000">Interface.h</text>
</a>
</g>
</g>
<!-- Node0&#45;&gt;Node1 -->
<g id="edge1" class="edge">
<title>Node0&#45;&gt;Node1</title>
<path fill="none" stroke="#191970" d="M1446.737,-506.4643C1204.5761,-502.1755 324.7703,-484.6757 273,-456 252.5054,-444.648 238.8158,-420.6591 231.2342,-403.6023"/>
<polygon fill="#191970" stroke="#191970" points="234.3444,-401.9635 227.2967,-394.0528 227.873,-404.6319 234.3444,-401.9635"/>
</g>
<!-- Node3 -->
<g id="node4" class="node">
<title>Node3</title>
<g id="a_node4"><a xlink:href="ConfParser_8h.html" target="_top" xlink:title="ConfParser.h">
<polygon fill="none" stroke="#000000" points="80.5,-134.5 80.5,-153.5 157.5,-153.5 157.5,-134.5 80.5,-134.5"/>
<text text-anchor="middle" x="119" y="-141.5" font-family="Helvetica,sans-Serif" font-size="10.00" fill="#000000">ConfParser.h</text>
</a>
</g>
</g>
<!-- Node0&#45;&gt;Node3 -->
<g id="edge3" class="edge">
<title>Node0&#45;&gt;Node3</title>
<path fill="none" stroke="#191970" d="M1446.6243,-506.8562C1209.6707,-504.1166 361.9719,-491.878 247,-456 190.2667,-438.2959 134,-443.9315 134,-384.5 134,-384.5 134,-384.5 134,-261.5 134,-226.8611 127.5063,-186.9372 123.0642,-163.6785"/>
<polygon fill="#191970" stroke="#191970" points="126.463,-162.8242 121.0857,-153.6955 119.5966,-164.1851 126.463,-162.8242"/>
</g>
<!-- Node7 -->
<g id="node8" class="node">
<title>Node7</title>
<g id="a_node8"><a xlink:href="HamiltonianOne_8h.html" target="_top" xlink:title="HamiltonianOne.h">
<polygon fill="none" stroke="#000000" points="1455.5,-375 1455.5,-394 1560.5,-394 1560.5,-375 1455.5,-375"/>
<text text-anchor="middle" x="1508" y="-382" font-family="Helvetica,sans-Serif" font-size="10.00" fill="#000000">HamiltonianOne.h</text>
</a>
</g>
</g>
<!-- Node0&#45;&gt;Node7 -->
<g id="edge8" class="edge">
<title>Node0&#45;&gt;Node7</title>
<path fill="none" stroke="#191970" d="M1508,-492.4178C1508,-470.2662 1508,-428.9061 1508,-404.3234"/>
<polygon fill="#191970" stroke="#191970" points="1511.5001,-404.0492 1508,-394.0493 1504.5001,-404.0493 1511.5001,-404.0492"/>
</g>
<!-- Node19 -->
<g id="node20" class="node">
<title>Node19</title>
<polygon fill="none" stroke="#bfbfbf" points="1461,-73 1461,-92 1521,-92 1521,-73 1461,-73"/>
<text text-anchor="middle" x="1491" y="-80" font-family="Helvetica,sans-Serif" font-size="10.00" fill="#000000">iostream</text>
</g>
<!-- Node0&#45;&gt;Node19 -->
<g id="edge129" class="edge">
<title>Node0&#45;&gt;Node19</title>
<path fill="none" stroke="#191970" d="M1446.8301,-505.9993C1308.6119,-501.1863 978.9274,-481.2513 911,-400 811.3968,-280.8596 1035.2366,-152.3008 1071,-134 1139.2269,-99.0869 1338.2382,-109.575 1414,-98 1425.9896,-96.1682 1438.943,-93.7382 1450.7431,-91.3468"/>
<polygon fill="#191970" stroke="#191970" points="1451.6807,-94.727 1460.7628,-89.2712 1450.2607,-87.8725 1451.6807,-94.727"/>
</g>
<!-- Node24 -->
<g id="node25" class="node">
<title>Node24</title>
<polygon fill="none" stroke="#bfbfbf" points="1997,-73 1997,-92 2055,-92 2055,-73 1997,-73"/>
<text text-anchor="middle" x="2026" y="-80" font-family="Helvetica,sans-Serif" font-size="10.00" fill="#000000">memory</text>
</g>
<!-- Node0&#45;&gt;Node24 -->
<g id="edge131" class="edge">
<title>Node0&#45;&gt;Node24</title>
<path fill="none" stroke="#191970" d="M1569.0073,-503.8451C1732.435,-492.506 2172.1862,-451.2786 2238,-333 2294.4871,-231.483 2126.4857,-132.7583 2055.7772,-96.7846"/>
<polygon fill="#191970" stroke="#191970" points="2056.9882,-93.4769 2046.4791,-92.1313 2053.8553,-99.7367 2056.9882,-93.4769"/>
</g>
<!-- Node60 -->
<g id="node61" class="node">
<title>Node60</title>
<polygon fill="none" stroke="#bfbfbf" points="2109.5,-313.5 2109.5,-332.5 2228.5,-332.5 2228.5,-313.5 2109.5,-313.5"/>
<text text-anchor="middle" x="2169" y="-320.5" font-family="Helvetica,sans-Serif" font-size="10.00" fill="#000000">boost/filesystem.hpp</text>
</g>
<!-- Node0&#45;&gt;Node60 -->
<g id="edge127" class="edge">
<title>Node0&#45;&gt;Node60</title>
<path fill="none" stroke="#191970" d="M1569.2252,-501.3134C1701.0675,-487.1998 2007.2386,-449.9457 2098,-400 2123.6399,-385.8905 2145.1036,-359.0875 2157.5079,-341.1284"/>
<polygon fill="#191970" stroke="#191970" points="2160.5185,-342.9219 2163.143,-332.6572 2154.6902,-339.0449 2160.5185,-342.9219"/>
</g>
<!-- Node63 -->
<g id="node64" class="node">
<title>Node63</title>
<g id="a_node64"><a xlink:href="HamiltonianTwo_8h.html" target="_top" xlink:title="HamiltonianTwo.h">
<polygon fill="none" stroke="#000000" points="1271,-436.5 1271,-455.5 1375,-455.5 1375,-436.5 1271,-436.5"/>
<text text-anchor="middle" x="1323" y="-443.5" font-family="Helvetica,sans-Serif" font-size="10.00" fill="#000000">HamiltonianTwo.h</text>
</a>
</g>
</g>
<!-- Node0&#45;&gt;Node63 -->
<g id="edge111" class="edge">
<title>Node0&#45;&gt;Node63</title>
<path fill="none" stroke="#191970" d="M1462.7439,-492.4554C1431.6054,-482.104 1390.7031,-468.5067 1361.2045,-458.7004"/>
<polygon fill="#191970" stroke="#191970" points="1362.262,-455.3637 1351.6684,-455.5303 1360.0537,-462.0063 1362.262,-455.3637"/>
</g>
<!-- Node65 -->
<g id="node66" class="node">
<title>Node65</title>
<polygon fill="none" stroke="#bfbfbf" points="2323.5,-436.5 2323.5,-455.5 2424.5,-455.5 2424.5,-436.5 2323.5,-436.5"/>
<text text-anchor="middle" x="2374" y="-443.5" font-family="Helvetica,sans-Serif" font-size="10.00" fill="#000000">boost/format.hpp</text>
</g>
<!-- Node0&#45;&gt;Node65 -->
<g id="edge128" class="edge">
<title>Node0&#45;&gt;Node65</title>
<path fill="none" stroke="#191970" d="M1569.2048,-505.4125C1703.4702,-500.4282 2033.8422,-485.9522 2309,-456 2310.3088,-455.8575 2311.6317,-455.7076 2312.9645,-455.5512"/>
<polygon fill="#191970" stroke="#191970" points="2313.8338,-458.9691 2323.315,-454.2407 2312.9545,-452.0246 2313.8338,-458.9691"/>
</g>
<!-- Node66 -->
<g id="node67" class="node">
<title>Node66</title>
<polygon fill="none" stroke="#bfbfbf" points="2443,-436.5 2443,-455.5 2489,-455.5 2489,-436.5 2443,-436.5"/>
<text text-anchor="middle" x="2466" y="-443.5" font-family="Helvetica,sans-Serif" font-size="10.00" fill="#000000">locale</text>
</g>
<!-- Node0&#45;&gt;Node66 -->
<g id="edge130" class="edge">
<title>Node0&#45;&gt;Node66</title>
<path fill="none" stroke="#191970" d="M1569.2361,-506.0686C1744.7913,-501.6581 2248.5034,-486.7786 2432.8984,-455.7272"/>
<polygon fill="#191970" stroke="#191970" points="2433.5045,-459.1744 2442.7481,-453.9968 2432.2933,-452.28 2433.5045,-459.1744"/>
</g>
<!-- Node2 -->
<g id="node3" class="node">
<title>Node2</title>
<polygon fill="none" stroke="#bfbfbf" points="295,-73 295,-92 339,-92 339,-73 295,-73"/>
<text text-anchor="middle" x="317" y="-80" font-family="Helvetica,sans-Serif" font-size="10.00" fill="#000000">string</text>
</g>
<!-- Node1&#45;&gt;Node2 -->
<g id="edge2" class="edge">
<title>Node1&#45;&gt;Node2</title>
<path fill="none" stroke="#191970" d="M224,-374.9309C224,-354.238 224,-303.7813 224,-261.5 224,-261.5 224,-261.5 224,-200 224,-155.3972 265.7114,-117.8363 293.2652,-97.89"/>
<polygon fill="#191970" stroke="#191970" points="295.4435,-100.638 301.6429,-92.0463 291.4387,-94.8967 295.4435,-100.638"/>
</g>
<!-- Node3&#45;&gt;Node2 -->
<g id="edge6" class="edge">
<title>Node3&#45;&gt;Node2</title>
<path fill="none" stroke="#191970" d="M149.9375,-134.3906C186.722,-122.9651 247.8047,-103.9925 285.0349,-92.4285"/>
<polygon fill="#191970" stroke="#191970" points="286.3515,-95.6846 294.8632,-89.3758 284.2751,-88.9997 286.3515,-95.6846"/>
</g>
<!-- Node4 -->
<g id="node5" class="node">
<title>Node4</title>
<polygon fill="none" stroke="#bfbfbf" points="0,-73 0,-92 38,-92 38,-73 0,-73"/>
<text text-anchor="middle" x="19" y="-80" font-family="Helvetica,sans-Serif" font-size="10.00" fill="#000000">map</text>
</g>
<!-- Node3&#45;&gt;Node4 -->
<g id="edge4" class="edge">
<title>Node3&#45;&gt;Node4</title>
<path fill="none" stroke="#191970" d="M103.375,-134.3906C87.2302,-124.4616 61.8178,-108.833 43.0977,-97.3201"/>
<polygon fill="#191970" stroke="#191970" points="44.8669,-94.2992 34.5153,-92.0419 41.1998,-100.2619 44.8669,-94.2992"/>
</g>
<!-- Node5 -->
<g id="node6" class="node">
<title>Node5</title>
<polygon fill="none" stroke="#bfbfbf" points="200,-73 200,-92 256,-92 256,-73 200,-73"/>
<text text-anchor="middle" x="228" y="-80" font-family="Helvetica,sans-Serif" font-size="10.00" fill="#000000">sstream</text>
</g>
<!-- Node3&#45;&gt;Node5 -->
<g id="edge5" class="edge">
<title>Node3&#45;&gt;Node5</title>
<path fill="none" stroke="#191970" d="M136.0313,-134.3906C153.789,-124.3713 181.833,-108.5483 202.2882,-97.0071"/>
<polygon fill="#191970" stroke="#191970" points="204.0989,-100.0042 211.0883,-92.0419 200.6591,-93.9077 204.0989,-100.0042"/>
</g>
<!-- Node6 -->
<g id="node7" class="node">
<title>Node6</title>
<polygon fill="none" stroke="#bfbfbf" points="56.5,-73 56.5,-92 181.5,-92 181.5,-73 56.5,-73"/>
<text text-anchor="middle" x="119" y="-80" font-family="Helvetica,sans-Serif" font-size="10.00" fill="#000000">boost/lexical_cast.hpp</text>
</g>
<!-- Node3&#45;&gt;Node6 -->
<g id="edge7" class="edge">
<title>Node3&#45;&gt;Node6</title>
<path fill="none" stroke="#191970" d="M119,-134.3906C119,-125.8657 119,-113.1392 119,-102.4235"/>
<polygon fill="#191970" stroke="#191970" points="122.5001,-102.2448 119,-92.2449 115.5001,-102.2449 122.5001,-102.2448"/>
</g>
<!-- Node7&#45;&gt;Node3 -->
<g id="edge35" class="edge">
<title>Node7&#45;&gt;Node3</title>
<path fill="none" stroke="#191970" d="M1475.1001,-374.9944C1465.769,-372.649 1455.5496,-370.4079 1446,-369 981.2409,-300.4806 839.1966,-423.9848 393,-277 343.0472,-260.5447 205.2818,-189.3556 146.3361,-158.4309"/>
<polygon fill="#191970" stroke="#191970" points="147.7334,-155.2113 137.2532,-153.6569 144.4766,-161.4076 147.7334,-155.2113"/>
</g>
<!-- Node8 -->
<g id="node9" class="node">
<title>Node8</title>
<g id="a_node9"><a xlink:href="Basisnames_8h.html" target="_top" xlink:title="Basisnames.h">
<polygon fill="none" stroke="#000000" points="1121.5,-190.5 1121.5,-209.5 1206.5,-209.5 1206.5,-190.5 1121.5,-190.5"/>
<text text-anchor="middle" x="1164" y="-197.5" font-family="Helvetica,sans-Serif" font-size="10.00" fill="#000000">Basisnames.h</text>
</a>
</g>
</g>
<!-- Node7&#45;&gt;Node8 -->
<g id="edge9" class="edge">
<title>Node7&#45;&gt;Node8</title>
<path fill="none" stroke="#191970" d="M1508.151,-374.8254C1507.8569,-359.6823 1505.0737,-330.3249 1489,-313 1416.9715,-235.3651 1288.8452,-211.0647 1216.8593,-203.4608"/>
<polygon fill="#191970" stroke="#191970" points="1216.9542,-199.9533 1206.6591,-202.4557 1216.2677,-206.9195 1216.9542,-199.9533"/>
</g>
<!-- Node11 -->
<g id="node12" class="node">
<title>Node11</title>
<g id="a_node12"><a xlink:href="dtypes_8h.html" target="_top" xlink:title="dtypes.h">
<polygon fill="none" stroke="#000000" points="588.5,-73 588.5,-92 647.5,-92 647.5,-73 588.5,-73"/>
<text text-anchor="middle" x="618" y="-80" font-family="Helvetica,sans-Serif" font-size="10.00" fill="#000000">dtypes.h</text>
</a>
</g>
</g>
<!-- Node7&#45;&gt;Node11 -->
<g id="edge103" class="edge">
<title>Node7&#45;&gt;Node11</title>
<path fill="none" stroke="#191970" d="M1503.844,-374.8564C1496.5713,-359.2059 1479.9925,-328.4726 1456,-313 1360.8445,-251.6348 1066.317,-239.4966 957,-210 881.419,-189.6063 863.3001,-181.4863 790,-154 740.1179,-135.2951 683.2091,-111.0553 648.9735,-96.1499"/>
<polygon fill="#191970" stroke="#191970" points="650.0913,-92.8189 639.5264,-92.023 647.2891,-99.2335 650.0913,-92.8189"/>
</g>
<!-- Node15 -->
<g id="node16" class="node">
<title>Node15</title>
<polygon fill="none" stroke="#bfbfbf" points="1009.5,-6 1009.5,-25 1056.5,-25 1056.5,-6 1009.5,-6"/>
<text text-anchor="middle" x="1033" y="-13" font-family="Helvetica,sans-Serif" font-size="10.00" fill="#000000">cmath</text>
</g>
<!-- Node7&#45;&gt;Node15 -->
<g id="edge108" class="edge">
<title>Node7&#45;&gt;Node15</title>
<path fill="none" stroke="#191970" d="M1560.3038,-374.9677C1666.6294,-353.2145 1892.0723,-293.6244 1820,-190 1793.7434,-152.2487 1765.0286,-172.6593 1723,-154 1646.5094,-120.0407 1636.2144,-90.8683 1556,-67 1463.6103,-39.5088 1167.4297,-22.3141 1066.8164,-17.1476"/>
<polygon fill="#191970" stroke="#191970" points="1066.7807,-13.6414 1056.6164,-16.6308 1066.4265,-20.6324 1066.7807,-13.6414"/>
</g>
<!-- Node7&#45;&gt;Node19 -->
<g id="edge109" class="edge">
<title>Node7&#45;&gt;Node19</title>
<path fill="none" stroke="#191970" d="M1508.2265,-374.7813C1508.4955,-361.0227 1508.8131,-335.0805 1508,-313 1505.1238,-234.8981 1496.7835,-142.2122 1492.9585,-102.3451"/>
<polygon fill="#191970" stroke="#191970" points="1496.4185,-101.7622 1491.9674,-92.1477 1489.4513,-102.4395 1496.4185,-101.7622"/>
</g>
<!-- Node7&#45;&gt;Node24 -->
<g id="edge110" class="edge">
<title>Node7&#45;&gt;Node24</title>
<path fill="none" stroke="#191970" d="M1560.8122,-381.5102C1673.6304,-374.6972 1930.4848,-356.7532 1962,-333 2030.7461,-281.1856 2019.2345,-238.4375 2036,-154 2039.4625,-136.5617 2036.018,-116.4971 2032.2575,-102.0702"/>
<polygon fill="#191970" stroke="#191970" points="2035.5657,-100.9105 2029.4294,-92.2736 2028.8404,-102.852 2035.5657,-100.9105"/>
</g>
<!-- Node27 -->
<g id="node28" class="node">
<title>Node27</title>
<g id="a_node28"><a xlink:href="Hamiltonian_8h.html" target="_top" xlink:title="Hamiltonian.h">
<polygon fill="none" stroke="#000000" points="1867,-313.5 1867,-332.5 1953,-332.5 1953,-313.5 1867,-313.5"/>
<text text-anchor="middle" x="1910" y="-320.5" font-family="Helvetica,sans-Serif" font-size="10.00" fill="#000000">Hamiltonian.h</text>
</a>
</g>
</g>
<!-- Node7&#45;&gt;Node27 -->
<g id="edge36" class="edge">
<title>Node7&#45;&gt;Node27</title>
<path fill="none" stroke="#191970" d="M1560.6689,-377.0636C1628.3876,-367.4045 1749.5858,-349.7872 1853,-333 1854.2551,-332.7963 1855.5255,-332.5882 1856.8065,-332.3768"/>
<polygon fill="#191970" stroke="#191970" points="1857.4774,-335.8132 1866.7596,-330.7053 1856.318,-328.9099 1857.4774,-335.8132"/>
</g>
<!-- Node45 -->
<g id="node46" class="node">
<title>Node45</title>
<g id="a_node46"><a xlink:href="MatrixElements_8h.html" target="_top" xlink:title="MatrixElements.h">
<polygon fill="none" stroke="#000000" points="702,-313.5 702,-332.5 804,-332.5 804,-313.5 702,-313.5"/>
<text text-anchor="middle" x="753" y="-320.5" font-family="Helvetica,sans-Serif" font-size="10.00" fill="#000000">MatrixElements.h</text>
</a>
</g>
</g>
<!-- Node7&#45;&gt;Node45 -->
<g id="edge64" class="edge">
<title>Node7&#45;&gt;Node45</title>
<path fill="none" stroke="#191970" d="M1474.4377,-374.9483C1465.282,-372.6617 1455.3169,-370.4618 1446,-369 1325.0915,-350.0296 960.1685,-332.2199 814.2577,-325.659"/>
<polygon fill="#191970" stroke="#191970" points="814.2835,-322.1567 804.137,-325.2062 813.9705,-329.1497 814.2835,-322.1567"/>
</g>
<!-- Node51 -->
<g id="node52" class="node">
<title>Node51</title>
<g id="a_node52"><a xlink:href="SQLite_8h.html" target="_top" xlink:title="SQLite.h">
<polygon fill="none" stroke="#000000" points="2171.5,-134.5 2171.5,-153.5 2228.5,-153.5 2228.5,-134.5 2171.5,-134.5"/>
<text text-anchor="middle" x="2200" y="-141.5" font-family="Helvetica,sans-Serif" font-size="10.00" fill="#000000">SQLite.h</text>
</a>
</g>
</g>
<!-- Node7&#45;&gt;Node51 -->
<g id="edge102" class="edge">
<title>Node7&#45;&gt;Node51</title>
<path fill="none" stroke="#191970" d="M1560.8587,-383.7611C1674.7113,-381.4366 1939.2579,-371.8874 2019,-333 2099.9372,-293.5299 2164.0437,-201.8848 2188.8647,-162.5154"/>
<polygon fill="#191970" stroke="#191970" points="2192.0352,-164.0428 2194.3151,-153.6961 2186.0806,-160.3628 2192.0352,-164.0428"/>
</g>
<!-- Node59 -->
<g id="node60" class="node">
<title>Node59</title>
<polygon fill="none" stroke="#bfbfbf" points="991,-313.5 991,-332.5 1127,-332.5 1127,-313.5 991,-313.5"/>
<text text-anchor="middle" x="1059" y="-320.5" font-family="Helvetica,sans-Serif" font-size="10.00" fill="#000000">boost/algorithm/hex.hpp</text>
</g>
<!-- Node7&#45;&gt;Node59 -->
<g id="edge104" class="edge">
<title>Node7&#45;&gt;Node59</title>
<path fill="none" stroke="#191970" d="M1473.0875,-374.9348C1464.2945,-372.7573 1454.8411,-370.6132 1446,-369 1309.9835,-344.1816 1274.2388,-349.7913 1137,-333 1136.8984,-332.9876 1136.7967,-332.9751 1136.6949,-332.9627"/>
<polygon fill="#191970" stroke="#191970" points="1137.4122,-329.5247 1127.0585,-331.7724 1136.554,-336.472 1137.4122,-329.5247"/>
</g>
<!-- Node7&#45;&gt;Node60 -->
<g id="edge105" class="edge">
<title>Node7&#45;&gt;Node60</title>
<path fill="none" stroke="#191970" d="M1560.7006,-380.7079C1663.5705,-373.1219 1898.2636,-354.9111 2095,-333 2096.3045,-332.8547 2097.6216,-332.7053 2098.9483,-332.5522"/>
<polygon fill="#191970" stroke="#191970" points="2099.7424,-335.9822 2109.2552,-331.3178 2098.9099,-329.0319 2099.7424,-335.9822"/>
</g>
<!-- Node61 -->
<g id="node62" class="node">
<title>Node61</title>
<polygon fill="none" stroke="#bfbfbf" points="1145.5,-313.5 1145.5,-332.5 1258.5,-332.5 1258.5,-313.5 1145.5,-313.5"/>
<text text-anchor="middle" x="1202" y="-320.5" font-family="Helvetica,sans-Serif" font-size="10.00" fill="#000000">boost/uuid/uuid.hpp</text>
</g>
<!-- Node7&#45;&gt;Node61 -->
<g id="edge106" class="edge">
<title>Node7&#45;&gt;Node61</title>
<path fill="none" stroke="#191970" d="M1471.3653,-374.9634C1463.0476,-372.9036 1454.237,-370.8044 1446,-369 1385.923,-355.8392 1317.0243,-343.0604 1267.7961,-334.3255"/>
<polygon fill="#191970" stroke="#191970" points="1268.3675,-330.8723 1257.911,-332.5789 1267.1495,-337.7655 1268.3675,-330.8723"/>
</g>
<!-- Node62 -->
<g id="node63" class="node">
<title>Node62</title>
<polygon fill="none" stroke="#bfbfbf" points="1277,-313.5 1277,-332.5 1447,-332.5 1447,-313.5 1277,-313.5"/>
<text text-anchor="middle" x="1362" y="-320.5" font-family="Helvetica,sans-Serif" font-size="10.00" fill="#000000">boost/uuid/uuid_generators.hpp</text>
</g>
<!-- Node7&#45;&gt;Node62 -->
<g id="edge107" class="edge">
<title>Node7&#45;&gt;Node62</title>
<path fill="none" stroke="#191970" d="M1485.1875,-374.8906C1460.6519,-364.5554 1421.4558,-348.0447 1393.8789,-336.4284"/>
<polygon fill="#191970" stroke="#191970" points="1395.2268,-333.1984 1384.6523,-332.5419 1392.5094,-339.6495 1395.2268,-333.1984"/>
</g>
<!-- Node8&#45;&gt;Node2 -->
<g id="edge32" class="edge">
<title>Node8&#45;&gt;Node2</title>
<path fill="none" stroke="#191970" d="M1121.267,-198.0713C1000.3735,-192.4154 657.5511,-174.9442 547,-154 474.3896,-140.2438 392.4157,-111.404 348.6132,-94.8633"/>
<polygon fill="#191970" stroke="#191970" points="349.6853,-91.5264 339.0945,-91.2348 347.1919,-98.0672 349.6853,-91.5264"/>
</g>
<!-- Node8&#45;&gt;Node3 -->
<g id="edge10" class="edge">
<title>Node8&#45;&gt;Node3</title>
<path fill="none" stroke="#191970" d="M1121.4141,-197.7179C954.4212,-188.769 344.7585,-156.0981 167.5894,-146.6038"/>
<polygon fill="#191970" stroke="#191970" points="167.6964,-143.1046 157.5234,-146.0644 167.3217,-150.0946 167.6964,-143.1046"/>
</g>
<!-- Node9 -->
<g id="node10" class="node">
<title>Node9</title>
<g id="a_node10"><a xlink:href="Iter_8h.html" target="_top" xlink:title="Iter.h">
<polygon fill="none" stroke="#000000" points="1184.5,-134.5 1184.5,-153.5 1225.5,-153.5 1225.5,-134.5 1184.5,-134.5"/>
<text text-anchor="middle" x="1205" y="-141.5" font-family="Helvetica,sans-Serif" font-size="10.00" fill="#000000">Iter.h</text>
</a>
</g>
</g>
<!-- Node8&#45;&gt;Node9 -->
<g id="edge11" class="edge">
<title>Node8&#45;&gt;Node9</title>
<path fill="none" stroke="#191970" d="M1171.1417,-190.2455C1176.8444,-182.4564 1184.99,-171.3308 1191.8625,-161.9439"/>
<polygon fill="#191970" stroke="#191970" points="1194.8568,-163.7789 1197.9402,-153.6427 1189.2087,-159.6437 1194.8568,-163.7789"/>
</g>
<!-- Node10 -->
<g id="node11" class="node">
<title>Node10</title>
<g id="a_node11"><a xlink:href="StateOld_8h.html" target="_top" xlink:title="StateOld.h">
<polygon fill="none" stroke="#000000" points="918,-134.5 918,-153.5 986,-153.5 986,-134.5 918,-134.5"/>
<text text-anchor="middle" x="952" y="-141.5" font-family="Helvetica,sans-Serif" font-size="10.00" fill="#000000">StateOld.h</text>
</a>
</g>
</g>
<!-- Node8&#45;&gt;Node10 -->
<g id="edge12" class="edge">
<title>Node8&#45;&gt;Node10</title>
<path fill="none" stroke="#191970" d="M1127.5559,-190.3733C1091.1497,-180.7565 1035.1447,-165.9628 996.2175,-155.6801"/>
<polygon fill="#191970" stroke="#191970" points="996.7792,-152.2085 986.2169,-153.0384 994.9914,-158.9764 996.7792,-152.2085"/>
</g>
<!-- Node8&#45;&gt;Node11 -->
<g id="edge28" class="edge">
<title>Node8&#45;&gt;Node11</title>
<path fill="none" stroke="#191970" d="M1121.4258,-193.171C1070.6659,-184.8327 983.3508,-169.8685 909,-154 872.7356,-146.2602 864.1483,-142.2652 828,-134 752.2879,-116.6886 731.3583,-120.4241 657,-98 654.5585,-97.2637 652.0556,-96.439 649.5538,-95.5639"/>
<polygon fill="#191970" stroke="#191970" points="650.6343,-92.2315 640.0415,-92.0187 648.1896,-98.7907 650.6343,-92.2315"/>
</g>
<!-- Node17 -->
<g id="node18" class="node">
<title>Node17</title>
<polygon fill="none" stroke="#bfbfbf" points="1601.5,-6 1601.5,-25 1648.5,-25 1648.5,-6 1601.5,-6"/>
<text text-anchor="middle" x="1625" y="-13" font-family="Helvetica,sans-Serif" font-size="10.00" fill="#000000">vector</text>
</g>
<!-- Node8&#45;&gt;Node17 -->
<g id="edge34" class="edge">
<title>Node8&#45;&gt;Node17</title>
<path fill="none" stroke="#191970" d="M1206.6939,-196.201C1247.5475,-191.1476 1309.8916,-179.6468 1358,-154 1408.233,-127.2206 1402.5437,-95.1881 1452,-67 1496.6032,-41.578 1554.9689,-27.6024 1591.2157,-20.8343"/>
<polygon fill="#191970" stroke="#191970" points="1592.0408,-24.2423 1601.2686,-19.0366 1590.8086,-17.3516 1592.0408,-24.2423"/>
</g>
<!-- Node23 -->
<g id="node24" class="node">
<title>Node23</title>
<polygon fill="none" stroke="#bfbfbf" points="1243.5,-134.5 1243.5,-153.5 1298.5,-153.5 1298.5,-134.5 1243.5,-134.5"/>
<text text-anchor="middle" x="1271" y="-141.5" font-family="Helvetica,sans-Serif" font-size="10.00" fill="#000000">fstream</text>
</g>
<!-- Node8&#45;&gt;Node23 -->
<g id="edge29" class="edge">
<title>Node8&#45;&gt;Node23</title>
<path fill="none" stroke="#191970" d="M1182.638,-190.2455C1199.4386,-181.4527 1224.3634,-168.4079 1243.4618,-158.4125"/>
<polygon fill="#191970" stroke="#191970" points="1245.3386,-161.3807 1252.5756,-153.6427 1242.0927,-155.1787 1245.3386,-161.3807"/>
</g>
<!-- Node8&#45;&gt;Node24 -->
<g id="edge30" class="edge">
<title>Node8&#45;&gt;Node24</title>
<path fill="none" stroke="#191970" d="M1206.9439,-199.1539C1339.2317,-196.2376 1739.1819,-185.0208 1865,-154 1915.5921,-141.5264 1970.1545,-113.9866 2000.994,-96.9594"/>
<polygon fill="#191970" stroke="#191970" points="2002.7593,-99.9823 2009.7726,-92.0409 1999.3378,-93.8755 2002.7593,-99.9823"/>
</g>
<!-- Node25 -->
<g id="node26" class="node">
<title>Node25</title>
<polygon fill="none" stroke="#bfbfbf" points="1317,-134.5 1317,-153.5 1349,-153.5 1349,-134.5 1317,-134.5"/>
<text text-anchor="middle" x="1333" y="-141.5" font-family="Helvetica,sans-Serif" font-size="10.00" fill="#000000">set</text>
</g>
<!-- Node8&#45;&gt;Node25 -->
<g id="edge31" class="edge">
<title>Node8&#45;&gt;Node25</title>
<path fill="none" stroke="#191970" d="M1196.2487,-190.4186C1223.5738,-182.1415 1263.9651,-169.5363 1307.3355,-154.0743"/>
<polygon fill="#191970" stroke="#191970" points="1308.701,-157.3027 1316.9265,-150.6251 1306.3321,-150.7157 1308.701,-157.3027"/>
</g>
<!-- Node26 -->
<g id="node27" class="node">
<title>Node26</title>
<polygon fill="none" stroke="#bfbfbf" points="1080,-134.5 1080,-153.5 1166,-153.5 1166,-134.5 1080,-134.5"/>
<text text-anchor="middle" x="1123" y="-141.5" font-family="Helvetica,sans-Serif" font-size="10.00" fill="#000000">unordered_set</text>
</g>
<!-- Node8&#45;&gt;Node26 -->
<g id="edge33" class="edge">
<title>Node8&#45;&gt;Node26</title>
<path fill="none" stroke="#191970" d="M1156.8583,-190.2455C1151.1556,-182.4564 1143.01,-171.3308 1136.1375,-161.9439"/>
<polygon fill="#191970" stroke="#191970" points="1138.7913,-159.6437 1130.0598,-153.6427 1133.1432,-163.7789 1138.7913,-159.6437"/>
</g>
<!-- Node10&#45;&gt;Node2 -->
<g id="edge24" class="edge">
<title>Node10&#45;&gt;Node2</title>
<path fill="none" stroke="#191970" d="M917.7512,-142.3394C809.0841,-136.9091 472.9283,-118.8254 366,-98 360.4169,-96.9126 354.5758,-95.4056 348.9514,-93.7554"/>
<polygon fill="#191970" stroke="#191970" points="349.7532,-90.3389 339.1642,-90.6901 347.661,-97.019 349.7532,-90.3389"/>
</g>
<!-- Node10&#45;&gt;Node11 -->
<g id="edge13" class="edge">
<title>Node10&#45;&gt;Node11</title>
<path fill="none" stroke="#191970" d="M917.7815,-139.643C851.0248,-130.982 705.6919,-111.2921 657,-98 654.3884,-97.2871 651.7133,-96.4546 649.0481,-95.5522"/>
<polygon fill="#191970" stroke="#191970" points="650.1648,-92.2337 639.5713,-92.0673 647.7488,-98.8036 650.1648,-92.2337"/>
</g>
<!-- Node14 -->
<g id="node15" class="node">
<title>Node14</title>
<polygon fill="none" stroke="#bfbfbf" points="816,-6 816,-25 858,-25 858,-6 816,-6"/>
<text text-anchor="middle" x="837" y="-13" font-family="Helvetica,sans-Serif" font-size="10.00" fill="#000000">array</text>
</g>
<!-- Node10&#45;&gt;Node14 -->
<g id="edge20" class="edge">
<title>Node10&#45;&gt;Node14</title>
<path fill="none" stroke="#191970" d="M937.6708,-134.4538C925.2946,-125.8038 907.3505,-112.261 894,-98 875.2277,-77.9475 857.943,-51.2741 847.4432,-33.7584"/>
<polygon fill="#191970" stroke="#191970" points="850.4231,-31.921 842.3416,-25.0698 844.3867,-35.4654 850.4231,-31.921"/>
</g>
<!-- Node10&#45;&gt;Node15 -->
<g id="edge22" class="edge">
<title>Node10&#45;&gt;Node15</title>
<path fill="none" stroke="#191970" d="M971.4417,-134.3989C985.3899,-126.5118 1003.5058,-114.038 1014,-98 1026.4037,-79.0438 1030.7589,-53.0085 1032.2609,-35.2896"/>
<polygon fill="#191970" stroke="#191970" points="1035.7586,-35.434 1032.883,-25.2369 1028.7719,-35.0016 1035.7586,-35.434"/>
</g>
<!-- Node18 -->
<g id="node19" class="node">
<title>Node18</title>
<polygon fill="none" stroke="#bfbfbf" points="665.5,-73 665.5,-92 808.5,-92 808.5,-73 665.5,-73"/>
<text text-anchor="middle" x="737" y="-80" font-family="Helvetica,sans-Serif" font-size="10.00" fill="#000000">boost/functional/hash.hpp</text>
</g>
<!-- Node10&#45;&gt;Node18 -->
<g id="edge21" class="edge">
<title>Node10&#45;&gt;Node18</title>
<path fill="none" stroke="#191970" d="M918.4063,-134.3906C881.0917,-123.7169 820.7508,-106.4566 780.0114,-94.8033"/>
<polygon fill="#191970" stroke="#191970" points="780.9348,-91.4271 770.3579,-92.0419 779.0097,-98.1572 780.9348,-91.4271"/>
</g>
<!-- Node10&#45;&gt;Node19 -->
<g id="edge23" class="edge">
<title>Node10&#45;&gt;Node19</title>
<path fill="none" stroke="#191970" d="M986.298,-139.8502C1002.0421,-137.9869 1020.96,-135.8063 1038,-134 1204.9401,-116.3042 1247.9364,-122.597 1414,-98 1425.9979,-96.2229 1438.9538,-93.8096 1450.7536,-91.4167"/>
<polygon fill="#191970" stroke="#191970" points="1451.6933,-94.7963 1460.7725,-89.3355 1450.2696,-87.9426 1451.6933,-94.7963"/>
</g>
<!-- Node20 -->
<g id="node21" class="node">
<title>Node20</title>
<polygon fill="none" stroke="#bfbfbf" points="1061.5,-67.5 1061.5,-97.5 1168.5,-97.5 1168.5,-67.5 1061.5,-67.5"/>
<text text-anchor="start" x="1069.5" y="-85.5" font-family="Helvetica,sans-Serif" font-size="10.00" fill="#000000">boost/serialization</text>
<text text-anchor="middle" x="1115" y="-74.5" font-family="Helvetica,sans-Serif" font-size="10.00" fill="#000000">/array.hpp</text>
</g>
<!-- Node10&#45;&gt;Node20 -->
<g id="edge25" class="edge">
<title>Node10&#45;&gt;Node20</title>
<path fill="none" stroke="#191970" d="M977.4688,-134.3906C1000.9586,-125.5279 1036.4845,-112.1239 1065.545,-101.1594"/>
<polygon fill="#191970" stroke="#191970" points="1067.0051,-104.3494 1075.1257,-97.5446 1064.534,-97.8001 1067.0051,-104.3494"/>
</g>
<!-- Node21 -->
<g id="node22" class="node">
<title>Node21</title>
<polygon fill="none" stroke="#bfbfbf" points="1186.5,-67.5 1186.5,-97.5 1293.5,-97.5 1293.5,-67.5 1186.5,-67.5"/>
<text text-anchor="start" x="1194.5" y="-85.5" font-family="Helvetica,sans-Serif" font-size="10.00" fill="#000000">boost/serialization</text>
<text text-anchor="middle" x="1240" y="-74.5" font-family="Helvetica,sans-Serif" font-size="10.00" fill="#000000">/string.hpp</text>
</g>
<!-- Node10&#45;&gt;Node21 -->
<g id="edge26" class="edge">
<title>Node10&#45;&gt;Node21</title>
<path fill="none" stroke="#191970" d="M986.0833,-136.8737C990.7584,-135.9037 995.4973,-134.9244 1000,-134 1075.9756,-118.4031 1097.604,-115.9686 1176.3707,-98.3213"/>
<polygon fill="#191970" stroke="#191970" points="1177.2808,-101.704 1186.2671,-96.0918 1175.7424,-94.8752 1177.2808,-101.704"/>
</g>
<!-- Node22 -->
<g id="node23" class="node">
<title>Node22</title>
<polygon fill="none" stroke="#bfbfbf" points="903,-73 903,-92 1005,-92 1005,-73 903,-73"/>
<text text-anchor="middle" x="954" y="-80" font-family="Helvetica,sans-Serif" font-size="10.00" fill="#000000">boost/variant.hpp</text>
</g>
<!-- Node10&#45;&gt;Node22 -->
<g id="edge27" class="edge">
<title>Node10&#45;&gt;Node22</title>
<path fill="none" stroke="#191970" d="M952.3125,-134.3906C952.5897,-125.8657 953.0036,-113.1392 953.3521,-102.4235"/>
<polygon fill="#191970" stroke="#191970" points="956.8561,-102.3534 953.6831,-92.2449 949.8598,-102.1258 956.8561,-102.3534"/>
</g>
<!-- Node12 -->
<g id="node13" class="node">
<title>Node12</title>
<polygon fill="none" stroke="#bfbfbf" points="460.5,-6 460.5,-25 537.5,-25 537.5,-6 460.5,-6"/>
<text text-anchor="middle" x="499" y="-13" font-family="Helvetica,sans-Serif" font-size="10.00" fill="#000000">Eigen/Dense</text>
</g>
<!-- Node11&#45;&gt;Node12 -->
<g id="edge14" class="edge">
<title>Node11&#45;&gt;Node12</title>
<path fill="none" stroke="#191970" d="M600.9502,-72.9005C581.0677,-61.7062 547.9895,-43.0823 524.922,-30.0947"/>
<polygon fill="#191970" stroke="#191970" points="526.4491,-26.938 516.0182,-25.0817 523.0148,-33.0376 526.4491,-26.938"/>
</g>
<!-- Node13 -->
<g id="node14" class="node">
<title>Node13</title>
<polygon fill="none" stroke="#bfbfbf" points="556,-6 556,-25 636,-25 636,-6 556,-6"/>
<text text-anchor="middle" x="596" y="-13" font-family="Helvetica,sans-Serif" font-size="10.00" fill="#000000">Eigen/Sparse</text>
</g>
<!-- Node11&#45;&gt;Node13 -->
<g id="edge15" class="edge">
<title>Node11&#45;&gt;Node13</title>
<path fill="none" stroke="#191970" d="M614.8479,-72.9005C611.5806,-62.95 606.3857,-47.1292 602.2765,-34.6147"/>
<polygon fill="#191970" stroke="#191970" points="605.5913,-33.4907 599.1462,-25.0817 598.9407,-35.6745 605.5913,-33.4907"/>
</g>
<!-- Node11&#45;&gt;Node14 -->
<g id="edge16" class="edge">
<title>Node11&#45;&gt;Node14</title>
<path fill="none" stroke="#191970" d="M640.4872,-72.9302C645.8458,-70.8266 651.5825,-68.717 657,-67 722.3559,-46.2865 742.7442,-54.909 807,-31 808.2362,-30.54 809.4869,-30.0411 810.7399,-29.5138"/>
<polygon fill="#191970" stroke="#191970" points="812.6203,-32.498 820.1907,-25.0859 809.6504,-26.1592 812.6203,-32.498"/>
</g>
<!-- Node11&#45;&gt;Node15 -->
<g id="edge17" class="edge">
<title>Node11&#45;&gt;Node15</title>
<path fill="none" stroke="#191970" d="M639.5514,-72.8584C645.1442,-70.6563 651.222,-68.5198 657,-67 721.6408,-49.9973 919.9944,-27.597 999.5127,-19.0345"/>
<polygon fill="#191970" stroke="#191970" points="999.9115,-22.5119 1009.4818,-17.9666 999.1658,-15.5517 999.9115,-22.5119"/>
</g>
<!-- Node16 -->
<g id="node17" class="node">
<title>Node16</title>
<polygon fill="none" stroke="#bfbfbf" points="654.5,-.5 654.5,-30.5 797.5,-30.5 797.5,-.5 654.5,-.5"/>
<text text-anchor="start" x="662.5" y="-18.5" font-family="Helvetica,sans-Serif" font-size="10.00" fill="#000000">unsupported/Eigen/CXX11</text>
<text text-anchor="middle" x="726" y="-7.5" font-family="Helvetica,sans-Serif" font-size="10.00" fill="#000000">/Tensor</text>
</g>
<!-- Node11&#45;&gt;Node16 -->
<g id="edge18" class="edge">
<title>Node11&#45;&gt;Node16</title>
<path fill="none" stroke="#191970" d="M633.4738,-72.9005C648.9511,-63.2988 673.2391,-48.2313 693.0476,-35.9427"/>
<polygon fill="#191970" stroke="#191970" points="695.1333,-38.7677 701.7858,-30.5218 691.4431,-32.8193 695.1333,-38.7677"/>
</g>
<!-- Node11&#45;&gt;Node17 -->
<g id="edge19" class="edge">
<title>Node11&#45;&gt;Node17</title>
<path fill="none" stroke="#191970" d="M638.6559,-72.8468C644.4696,-70.5306 650.8793,-68.3412 657,-67 749.7039,-46.6855 1430.5723,-22.1868 1591.1432,-16.6491"/>
<polygon fill="#191970" stroke="#191970" points="1591.5001,-20.139 1601.3741,-16.2977 1591.2598,-13.1431 1591.5001,-20.139"/>
</g>
<!-- Node27&#45;&gt;Node17 -->
<g id="edge63" class="edge">
<title>Node27&#45;&gt;Node17</title>
<path fill="none" stroke="#191970" d="M1908.4313,-313.2059C1904.0674,-289.0261 1889.6075,-225.864 1853,-190 1822.5206,-160.1396 1801.5547,-174.2555 1764,-154 1725.4798,-133.2237 1714.0685,-128.8254 1683,-98 1663.3898,-78.5432 1645.9202,-51.7312 1635.4018,-34.0214"/>
<polygon fill="#191970" stroke="#191970" points="1638.3459,-32.1213 1630.3039,-25.2236 1632.2892,-35.6308 1638.3459,-32.1213"/>
</g>
<!-- Node28 -->
<g id="node29" class="node">
<title>Node28</title>
<g id="a_node29"><a xlink:href="Hamiltonianmatrix_8h.html" target="_top" xlink:title="Hamiltonianmatrix.h">
<polygon fill="none" stroke="#000000" points="1636,-252 1636,-271 1754,-271 1754,-252 1636,-252"/>
<text text-anchor="middle" x="1695" y="-259" font-family="Helvetica,sans-Serif" font-size="10.00" fill="#000000">Hamiltonianmatrix.h</text>
</a>
</g>
</g>
<!-- Node27&#45;&gt;Node28 -->
<g id="edge37" class="edge">
<title>Node27&#45;&gt;Node28</title>
<path fill="none" stroke="#191970" d="M1876.4063,-313.3906C1839.0917,-302.7169 1778.7508,-285.4566 1738.0114,-273.8033"/>
<polygon fill="#191970" stroke="#191970" points="1738.9348,-270.4271 1728.3579,-271.0419 1737.0097,-277.1572 1738.9348,-270.4271"/>
</g>
<!-- Node28&#45;&gt;Node8 -->
<g id="edge38" class="edge">
<title>Node28&#45;&gt;Node8</title>
<path fill="none" stroke="#191970" d="M1635.8893,-254.6538C1531.5846,-242.5734 1316.4939,-217.6617 1216.8314,-206.1189"/>
<polygon fill="#191970" stroke="#191970" points="1217.0304,-202.6186 1206.6941,-204.9448 1216.225,-209.5721 1217.0304,-202.6186"/>
</g>
<!-- Node28&#45;&gt;Node10 -->
<g id="edge47" class="edge">
<title>Node28&#45;&gt;Node10</title>
<path fill="none" stroke="#191970" d="M1635.7654,-252.1325C1491.4737,-229.3138 1124.2823,-171.2452 996.5834,-151.0505"/>
<polygon fill="#191970" stroke="#191970" points="996.8157,-147.5439 986.3917,-149.4388 995.7222,-154.4579 996.8157,-147.5439"/>
</g>
<!-- Node28&#45;&gt;Node11 -->
<g id="edge48" class="edge">
<title>Node28&#45;&gt;Node11</title>
<path fill="none" stroke="#191970" d="M1635.6942,-258.3298C1530.1774,-252.2272 1303.0597,-237.0043 1113,-210 985.1949,-191.841 949.7313,-196.958 828,-154 810.0025,-147.6488 807.7631,-140.9799 790,-134 733.0041,-111.6037 715.1041,-117.3401 657,-98 654.8656,-97.2896 652.6787,-96.525 650.4831,-95.7298"/>
<polygon fill="#191970" stroke="#191970" points="651.5282,-92.3831 640.9367,-92.1191 649.0519,-98.9305 651.5282,-92.3831"/>
</g>
<!-- Node28&#45;&gt;Node15 -->
<g id="edge56" class="edge">
<title>Node28&#45;&gt;Node15</title>
<path fill="none" stroke="#191970" d="M1658.0358,-251.992C1634.372,-244.2055 1604.5489,-230.9822 1585,-210 1538.5818,-160.1784 1584.0668,-108.3959 1530,-67 1493.2507,-38.8632 1172.3545,-21.8471 1066.6241,-16.9651"/>
<polygon fill="#191970" stroke="#191970" points="1066.661,-13.4632 1056.5122,-16.505 1066.3428,-20.456 1066.661,-13.4632"/>
</g>
<!-- Node28&#45;&gt;Node17 -->
<g id="edge62" class="edge">
<title>Node28&#45;&gt;Node17</title>
<path fill="none" stroke="#191970" d="M1738.5189,-251.9685C1767.9284,-244.067 1806.6049,-230.7205 1836,-210 1897.9663,-166.3201 1977.9271,-124.9128 1929,-67 1911.6724,-46.4901 1734.782,-26.496 1659.0774,-18.8068"/>
<polygon fill="#191970" stroke="#191970" points="1658.9726,-15.2788 1648.6731,-17.763 1658.2738,-22.2438 1658.9726,-15.2788"/>
</g>
<!-- Node28&#45;&gt;Node24 -->
<g id="edge60" class="edge">
<title>Node28&#45;&gt;Node24</title>
<path fill="none" stroke="#191970" d="M1754.0233,-256.6243C1823.7959,-249.8 1934.547,-235.3046 1967,-210 2001.8099,-182.8577 2016.8889,-130.3714 2022.7373,-101.9393"/>
<polygon fill="#191970" stroke="#191970" points="2026.1973,-102.478 2024.603,-92.0038 2019.3175,-101.1861 2026.1973,-102.478"/>
</g>
<!-- Node29 -->
<g id="node30" class="node">
<title>Node29</title>
<g id="a_node30"><a xlink:href="Serializable_8h.html" target="_top" xlink:title="Serializable.h">
<polygon fill="none" stroke="#000000" points="1772.5,-134.5 1772.5,-153.5 1855.5,-153.5 1855.5,-134.5 1772.5,-134.5"/>
<text text-anchor="middle" x="1814" y="-141.5" font-family="Helvetica,sans-Serif" font-size="10.00" fill="#000000">Serializable.h</text>
</a>
</g>
</g>
<!-- Node28&#45;&gt;Node29 -->
<g id="edge39" class="edge">
<title>Node28&#45;&gt;Node29</title>
<path fill="none" stroke="#191970" d="M1754.2978,-251.9697C1778.929,-244.7669 1805.1789,-232.1361 1820,-210 1829.0797,-196.439 1826.2557,-177.6436 1821.9316,-163.5776"/>
<polygon fill="#191970" stroke="#191970" points="1825.1442,-162.1646 1818.5049,-153.9081 1818.5463,-164.5028 1825.1442,-162.1646"/>
</g>
<!-- Node34 -->
<g id="node35" class="node">
<title>Node34</title>
<g id="a_node35"><a xlink:href="utils_8h.html" target="_top" xlink:title="utils.h">
<polygon fill="none" stroke="#000000" points="2419.5,-73 2419.5,-92 2466.5,-92 2466.5,-73 2419.5,-73"/>
<text text-anchor="middle" x="2443" y="-80" font-family="Helvetica,sans-Serif" font-size="10.00" fill="#000000">utils.h</text>
</a>
</g>
</g>
<!-- Node28&#45;&gt;Node34 -->
<g id="edge49" class="edge">
<title>Node28&#45;&gt;Node34</title>
<path fill="none" stroke="#191970" d="M1754.3054,-252.6361C1854.8369,-236.9725 2064.6867,-201.5125 2238,-154 2315.9411,-132.6331 2336.0103,-128.1313 2411,-98 2412.3604,-97.4534 2413.7438,-96.8748 2415.1342,-96.2749"/>
<polygon fill="#191970" stroke="#191970" points="2416.5981,-99.4541 2424.2428,-92.1186 2413.6922,-93.0857 2416.5981,-99.4541"/>
</g>
<!-- Node41 -->
<g id="node42" class="node">
<title>Node41</title>
<polygon fill="none" stroke="#bfbfbf" points="1594,-190.5 1594,-209.5 1644,-209.5 1644,-190.5 1594,-190.5"/>
<text text-anchor="middle" x="1619" y="-197.5" font-family="Helvetica,sans-Serif" font-size="10.00" fill="#000000">cstdint</text>
</g>
<!-- Node28&#45;&gt;Node41 -->
<g id="edge57" class="edge">
<title>Node28&#45;&gt;Node41</title>
<path fill="none" stroke="#191970" d="M1683.125,-251.8906C1671.3703,-242.3786 1653.1514,-227.6357 1639.1328,-216.2917"/>
<polygon fill="#191970" stroke="#191970" points="1641.0178,-213.3146 1631.0424,-209.7449 1636.6144,-218.7562 1641.0178,-213.3146"/>
</g>
<!-- Node42 -->
<g id="node43" class="node">
<title>Node42</title>
<polygon fill="none" stroke="#bfbfbf" points="740,-190.5 740,-209.5 786,-209.5 786,-190.5 740,-190.5"/>
<text text-anchor="middle" x="763" y="-197.5" font-family="Helvetica,sans-Serif" font-size="10.00" fill="#000000">cstdio</text>
</g>
<!-- Node28&#45;&gt;Node42 -->
<g id="edge58" class="edge">
<title>Node28&#45;&gt;Node42</title>
<path fill="none" stroke="#191970" d="M1635.9207,-259.4271C1496.6802,-254.2195 1137.1363,-238.8921 838,-210 824.2782,-208.6747 809.2027,-206.7554 796.1894,-204.9519"/>
<polygon fill="#191970" stroke="#191970" points="796.6527,-201.4827 786.2604,-203.544 795.6699,-208.4134 796.6527,-201.4827"/>
</g>
<!-- Node43 -->
<g id="node44" class="node">
<title>Node43</title>
<polygon fill="none" stroke="#bfbfbf" points="1662.5,-190.5 1662.5,-209.5 1727.5,-209.5 1727.5,-190.5 1662.5,-190.5"/>
<text text-anchor="middle" x="1695" y="-197.5" font-family="Helvetica,sans-Serif" font-size="10.00" fill="#000000">exception</text>
</g>
<!-- Node28&#45;&gt;Node43 -->
<g id="edge59" class="edge">
<title>Node28&#45;&gt;Node43</title>
<path fill="none" stroke="#191970" d="M1695,-251.8906C1695,-243.3657 1695,-230.6392 1695,-219.9235"/>
<polygon fill="#191970" stroke="#191970" points="1698.5001,-219.7448 1695,-209.7449 1691.5001,-219.7449 1698.5001,-219.7448"/>
</g>
<!-- Node44 -->
<g id="node45" class="node">
<title>Node44</title>
<polygon fill="none" stroke="#bfbfbf" points="1745.5,-190.5 1745.5,-209.5 1810.5,-209.5 1810.5,-190.5 1745.5,-190.5"/>
<text text-anchor="middle" x="1778" y="-197.5" font-family="Helvetica,sans-Serif" font-size="10.00" fill="#000000">stdexcept</text>
</g>
<!-- Node28&#45;&gt;Node44 -->
<g id="edge61" class="edge">
<title>Node28&#45;&gt;Node44</title>
<path fill="none" stroke="#191970" d="M1707.9688,-251.8906C1721.0034,-242.2324 1741.3164,-227.1812 1756.7155,-215.771"/>
<polygon fill="#191970" stroke="#191970" points="1759.1713,-218.3075 1765.1223,-209.5419 1755.0039,-212.6832 1759.1713,-218.3075"/>
</g>
<!-- Node29&#45;&gt;Node11 -->
<g id="edge40" class="edge">
<title>Node29&#45;&gt;Node11</title>
<path fill="none" stroke="#191970" d="M1772.401,-143.1785C1578.445,-139.2361 767.6779,-121.4763 657,-98 653.9619,-97.3556 650.8544,-96.4961 647.7846,-95.5109"/>
<polygon fill="#191970" stroke="#191970" points="648.8337,-92.1683 638.2396,-92.0457 646.4449,-98.7481 648.8337,-92.1683"/>
</g>
<!-- Node29&#45;&gt;Node17 -->
<g id="edge46" class="edge">
<title>Node29&#45;&gt;Node17</title>
<path fill="none" stroke="#191970" d="M1855.5798,-135.5332C1876.3079,-128.9868 1899.5531,-117.5924 1912,-98 1919.3881,-86.3706 1920.8402,-77.5678 1912,-67 1880.0896,-28.8538 1728.0903,-18.9255 1659.145,-16.371"/>
<polygon fill="#191970" stroke="#191970" points="1658.9368,-12.862 1648.8239,-16.0211 1658.6995,-19.858 1658.9368,-12.862"/>
</g>
<!-- Node29&#45;&gt;Node24 -->
<g id="edge42" class="edge">
<title>Node29&#45;&gt;Node24</title>
<path fill="none" stroke="#191970" d="M1847.125,-134.3906C1885.022,-123.3969 1947.006,-105.4157 1987.1487,-93.7705"/>
<polygon fill="#191970" stroke="#191970" points="1988.227,-97.1021 1996.8559,-90.9545 1986.2767,-90.3793 1988.227,-97.1021"/>
</g>
<!-- Node30 -->
<g id="node31" class="node">
<title>Node30</title>
<polygon fill="none" stroke="#bfbfbf" points="1849.5,-73 1849.5,-92 1902.5,-92 1902.5,-73 1849.5,-73"/>
<text text-anchor="middle" x="1876" y="-80" font-family="Helvetica,sans-Serif" font-size="10.00" fill="#000000">iterator</text>
</g>
<!-- Node29&#45;&gt;Node30 -->
<g id="edge41" class="edge">
<title>Node29&#45;&gt;Node30</title>
<path fill="none" stroke="#191970" d="M1823.6875,-134.3906C1833.0959,-125.0581 1847.5807,-110.6902 1858.9249,-99.4374"/>
<polygon fill="#191970" stroke="#191970" points="1861.5411,-101.7722 1866.1759,-92.2449 1856.6114,-96.8024 1861.5411,-101.7722"/>
</g>
<!-- Node31 -->
<g id="node32" class="node">
<title>Node31</title>
<polygon fill="none" stroke="#bfbfbf" points="1691.5,-73 1691.5,-92 1756.5,-92 1756.5,-73 1691.5,-73"/>
<text text-anchor="middle" x="1724" y="-80" font-family="Helvetica,sans-Serif" font-size="10.00" fill="#000000">typeindex</text>
</g>
<!-- Node29&#45;&gt;Node31 -->
<g id="edge43" class="edge">
<title>Node29&#45;&gt;Node31</title>
<path fill="none" stroke="#191970" d="M1799.9375,-134.3906C1785.6714,-124.6421 1763.365,-109.3994 1746.6128,-97.9521"/>
<polygon fill="#191970" stroke="#191970" points="1748.1949,-94.7941 1737.9638,-92.0419 1744.2455,-100.5736 1748.1949,-94.7941"/>
</g>
<!-- Node32 -->
<g id="node33" class="node">
<title>Node32</title>
<polygon fill="none" stroke="#bfbfbf" points="1774.5,-73 1774.5,-92 1831.5,-92 1831.5,-73 1774.5,-73"/>
<text text-anchor="middle" x="1803" y="-80" font-family="Helvetica,sans-Serif" font-size="10.00" fill="#000000">typeinfo</text>
</g>
<!-- Node29&#45;&gt;Node32 -->
<g id="edge44" class="edge">
<title>Node29&#45;&gt;Node32</title>
<path fill="none" stroke="#191970" d="M1812.2813,-134.3906C1810.7565,-125.8657 1808.4802,-113.1392 1806.5636,-102.4235"/>
<polygon fill="#191970" stroke="#191970" points="1809.9491,-101.4724 1804.743,-92.2449 1803.0584,-102.7049 1809.9491,-101.4724"/>
</g>
<!-- Node33 -->
<g id="node34" class="node">
<title>Node33</title>
<polygon fill="none" stroke="#bfbfbf" points="1311.5,-73 1311.5,-92 1404.5,-92 1404.5,-73 1311.5,-73"/>
<text text-anchor="middle" x="1358" y="-80" font-family="Helvetica,sans-Serif" font-size="10.00" fill="#000000">unordered_map</text>
</g>
<!-- Node29&#45;&gt;Node33 -->
<g id="edge45" class="edge">
<title>Node29&#45;&gt;Node33</title>
<path fill="none" stroke="#191970" d="M1772.3994,-139.2213C1705.006,-131.3658 1567.8172,-114.9014 1452,-98 1439.9809,-96.246 1427.1221,-94.2228 1414.8944,-92.2292"/>
<polygon fill="#191970" stroke="#191970" points="1415.2397,-88.739 1404.8039,-90.5681 1414.1026,-95.6461 1415.2397,-88.739"/>
</g>
<!-- Node35 -->
<g id="node36" class="node">
<title>Node35</title>
<polygon fill="none" stroke="#bfbfbf" points="2166,-6 2166,-25 2230,-25 2230,-6 2166,-6"/>
<text text-anchor="middle" x="2198" y="-13" font-family="Helvetica,sans-Serif" font-size="10.00" fill="#000000">algorithm</text>
</g>
<!-- Node34&#45;&gt;Node35 -->
<g id="edge50" class="edge">
<title>Node34&#45;&gt;Node35</title>
<path fill="none" stroke="#191970" d="M2425.0481,-72.8593C2420.5505,-70.7094 2415.6731,-68.5969 2411,-67 2337.5067,-41.8856 2314.6301,-52.5022 2240,-31 2237.3603,-30.2395 2234.649,-29.3935 2231.936,-28.5002"/>
<polygon fill="#191970" stroke="#191970" points="2232.8245,-25.1036 2222.2297,-25.1257 2230.5258,-31.7154 2232.8245,-25.1036"/>
</g>
<!-- Node36 -->
<g id="node37" class="node">
<title>Node36</title>
<polygon fill="none" stroke="#bfbfbf" points="2248.5,-6 2248.5,-25 2307.5,-25 2307.5,-6 2248.5,-6"/>
<text text-anchor="middle" x="2278" y="-13" font-family="Helvetica,sans-Serif" font-size="10.00" fill="#000000">complex</text>
</g>
<!-- Node34&#45;&gt;Node36 -->
<g id="edge51" class="edge">
<title>Node34&#45;&gt;Node36</title>
<path fill="none" stroke="#191970" d="M2423.8324,-72.8875C2419.6348,-70.8747 2415.1923,-68.8142 2411,-67 2369.9426,-49.2328 2358.6766,-47.2618 2317,-31 2315.1674,-30.2849 2313.2875,-29.5483 2311.3907,-28.8025"/>
<polygon fill="#191970" stroke="#191970" points="2312.493,-25.4748 2301.9064,-25.0562 2309.9212,-31.9853 2312.493,-25.4748"/>
</g>
<!-- Node37 -->
<g id="node38" class="node">
<title>Node37</title>
<polygon fill="none" stroke="#bfbfbf" points="2325.5,-6 2325.5,-25 2390.5,-25 2390.5,-6 2325.5,-6"/>
<text text-anchor="middle" x="2358" y="-13" font-family="Helvetica,sans-Serif" font-size="10.00" fill="#000000">functional</text>
</g>
<!-- Node34&#45;&gt;Node37 -->
<g id="edge52" class="edge">
<title>Node34&#45;&gt;Node37</title>
<path fill="none" stroke="#191970" d="M2430.8216,-72.9005C2417.0616,-62.0544 2394.4535,-44.2339 2378.0738,-31.3229"/>
<polygon fill="#191970" stroke="#191970" points="2380.1761,-28.5234 2370.1558,-25.0817 2375.8427,-34.0209 2380.1761,-28.5234"/>
</g>
<!-- Node38 -->
<g id="node39" class="node">
<title>Node38</title>
<polygon fill="none" stroke="#bfbfbf" points="2483,-6 2483,-25 2537,-25 2537,-6 2483,-6"/>
<text text-anchor="middle" x="2510" y="-13" font-family="Helvetica,sans-Serif" font-size="10.00" fill="#000000">random</text>
</g>
<!-- Node34&#45;&gt;Node38 -->
<g id="edge53" class="edge">
<title>Node34&#45;&gt;Node38</title>
<path fill="none" stroke="#191970" d="M2452.5995,-72.9005C2463.147,-62.353 2480.2904,-45.2096 2493.1002,-32.3998"/>
<polygon fill="#191970" stroke="#191970" points="2495.8221,-34.6276 2500.4183,-25.0817 2490.8724,-29.6779 2495.8221,-34.6276"/>
</g>
<!-- Node39 -->
<g id="node40" class="node">
<title>Node39</title>
<polygon fill="none" stroke="#bfbfbf" points="2555.5,-6 2555.5,-25 2624.5,-25 2624.5,-6 2555.5,-6"/>
<text text-anchor="middle" x="2590" y="-13" font-family="Helvetica,sans-Serif" font-size="10.00" fill="#000000">type_traits</text>
</g>
<!-- Node34&#45;&gt;Node39 -->
<g id="edge54" class="edge">
<title>Node34&#45;&gt;Node39</title>
<path fill="none" stroke="#191970" d="M2464.0615,-72.9005C2489.1681,-61.4574 2531.3077,-42.2509 2559.8598,-29.2374"/>
<polygon fill="#191970" stroke="#191970" points="2561.3297,-32.4139 2568.9776,-25.0817 2558.4265,-26.0443 2561.3297,-32.4139"/>
</g>
<!-- Node40 -->
<g id="node41" class="node">
<title>Node40</title>
<polygon fill="none" stroke="#bfbfbf" points="2409,-6 2409,-25 2465,-25 2465,-6 2409,-6"/>
<text text-anchor="middle" x="2437" y="-13" font-family="Helvetica,sans-Serif" font-size="10.00" fill="#000000">unistd.h</text>
</g>
<!-- Node34&#45;&gt;Node40 -->
<g id="edge55" class="edge">
<title>Node34&#45;&gt;Node40</title>
<path fill="none" stroke="#191970" d="M2442.1403,-72.9005C2441.2671,-63.149 2439.8889,-47.7597 2438.7794,-35.3695"/>
<polygon fill="#191970" stroke="#191970" points="2442.2361,-34.7296 2437.8581,-25.0817 2435.2641,-35.354 2442.2361,-34.7296"/>
</g>
<!-- Node45&#45;&gt;Node2 -->
<g id="edge100" class="edge">
<title>Node45&#45;&gt;Node2</title>
<path fill="none" stroke="#191970" d="M701.7213,-317.9622C636.2461,-310.8504 527.209,-296.5232 492,-277 413.2635,-233.3409 351.5466,-140.6964 327.6924,-101.0893"/>
<polygon fill="#191970" stroke="#191970" points="330.5556,-99.0546 322.4562,-92.2245 324.5285,-102.6147 330.5556,-99.0546"/>
</g>
<!-- Node45&#45;&gt;Node5 -->
<g id="edge99" class="edge">
<title>Node45&#45;&gt;Node5</title>
<path fill="none" stroke="#191970" d="M701.6939,-318.8848C626.4623,-312.2512 490.3399,-297.7991 446,-277 354.2136,-233.9445 272.8586,-139.5495 241.6019,-100.2342"/>
<polygon fill="#191970" stroke="#191970" points="244.3106,-98.0163 235.3869,-92.3051 238.8013,-102.3347 244.3106,-98.0163"/>
</g>
<!-- Node45&#45;&gt;Node8 -->
<g id="edge65" class="edge">
<title>Node45&#45;&gt;Node8</title>
<path fill="none" stroke="#191970" d="M783.471,-313.4618C830.6504,-298.7366 924.2602,-269.6916 1004,-246 1043.2505,-234.3382 1088.0579,-221.4964 1120.2517,-212.3519"/>
<polygon fill="#191970" stroke="#191970" points="1121.5729,-215.6153 1130.238,-209.519 1119.6624,-208.881 1121.5729,-215.6153"/>
</g>
<!-- Node45&#45;&gt;Node10 -->
<g id="edge66" class="edge">
<title>Node45&#45;&gt;Node10</title>
<path fill="none" stroke="#191970" d="M710.8846,-313.3381C691.5614,-306.5724 670.4452,-295.343 659,-277 651.7066,-265.311 650.5961,-256.9179 659,-246 697.1386,-196.4523 735.8144,-230.1643 795,-210 840.2056,-194.5986 890.8661,-172.3585 922.1027,-158.0403"/>
<polygon fill="#191970" stroke="#191970" points="923.9178,-161.0574 931.5303,-153.6886 920.9841,-154.7018 923.9178,-161.0574"/>
</g>
<!-- Node45&#45;&gt;Node11 -->
<g id="edge96" class="edge">
<title>Node45&#45;&gt;Node11</title>
<path fill="none" stroke="#191970" d="M701.7873,-320.7361C637.825,-316.7102 533.8655,-305.807 510,-277 485.6279,-247.5814 485.6525,-205.8466 537,-134 548.7446,-117.5666 567.5264,-105.1496 584.0485,-96.6296"/>
<polygon fill="#191970" stroke="#191970" points="585.9811,-99.5819 593.4451,-92.0626 582.9211,-93.2861 585.9811,-99.5819"/>
</g>
<!-- Node45&#45;&gt;Node24 -->
<g id="edge98" class="edge">
<title>Node45&#45;&gt;Node24</title>
<path fill="none" stroke="#191970" d="M804.1495,-320.7529C1007.8653,-311.7932 1751.0515,-279.0051 1763,-277 1866.7411,-259.5914 1910.8443,-279.2795 1990,-210 2021.0326,-182.8393 2026.2551,-131.1816 2026.5988,-102.6643"/>
<polygon fill="#191970" stroke="#191970" points="2030.0961,-102.2918 2026.5178,-92.3196 2023.0963,-102.3468 2030.0961,-102.2918"/>
</g>
<!-- Node45&#45;&gt;Node33 -->
<g id="edge101" class="edge">
<title>Node45&#45;&gt;Node33</title>
<path fill="none" stroke="#191970" d="M801.6423,-313.4375C845.5339,-304.6199 911.7967,-290.8383 969,-277 1145.2419,-234.3645 1255.9786,-303.9021 1358,-154 1368.2286,-138.971 1366.754,-117.7372 1363.619,-102.3167"/>
<polygon fill="#191970" stroke="#191970" points="1366.9449,-101.1805 1361.1863,-92.2873 1360.1422,-102.8306 1366.9449,-101.1805"/>
</g>
<!-- Node46 -->
<g id="node47" class="node">
<title>Node46</title>
<g id="a_node47"><a xlink:href="Wavefunction_8h.html" target="_top" xlink:title="Wavefunction.h">
<polygon fill="none" stroke="#000000" points="518.5,-252 518.5,-271 611.5,-271 611.5,-252 518.5,-252"/>
<text text-anchor="middle" x="565" y="-259" font-family="Helvetica,sans-Serif" font-size="10.00" fill="#000000">Wavefunction.h</text>
</a>
</g>
</g>
<!-- Node45&#45;&gt;Node46 -->
<g id="edge67" class="edge">
<title>Node45&#45;&gt;Node46</title>
<path fill="none" stroke="#191970" d="M723.625,-313.3906C691.3414,-302.8298 639.3465,-285.8208 603.7453,-274.1747"/>
<polygon fill="#191970" stroke="#191970" points="604.7613,-270.8246 594.1687,-271.0419 602.5849,-277.4776 604.7613,-270.8246"/>
</g>
<!-- Node58 -->
<g id="node59" class="node">
<title>Node58</title>
<polygon fill="none" stroke="#bfbfbf" points="668,-246.5 668,-276.5 838,-276.5 838,-246.5 668,-246.5"/>
<text text-anchor="start" x="676" y="-264.5" font-family="Helvetica,sans-Serif" font-size="10.00" fill="#000000">wignerSymbols/wignerSymbols</text>
<text text-anchor="middle" x="753" y="-253.5" font-family="Helvetica,sans-Serif" font-size="10.00" fill="#000000">&#45;cpp.h</text>
</g>
<!-- Node45&#45;&gt;Node58 -->
<g id="edge97" class="edge">
<title>Node45&#45;&gt;Node58</title>
<path fill="none" stroke="#191970" d="M753,-313.3906C753,-306.2234 753,-296.0862 753,-286.671"/>
<polygon fill="#191970" stroke="#191970" points="756.5001,-286.5446 753,-276.5446 749.5001,-286.5446 756.5001,-286.5446"/>
</g>
<!-- Node46&#45;&gt;Node2 -->
<g id="edge94" class="edge">
<title>Node46&#45;&gt;Node2</title>
<path fill="none" stroke="#191970" d="M551.6664,-251.8762C511.0445,-222.5563 388.5578,-134.1486 338.5834,-98.0784"/>
<polygon fill="#191970" stroke="#191970" points="340.5564,-95.186 330.3995,-92.1714 336.4596,-100.8619 340.5564,-95.186"/>
</g>
<!-- Node46&#45;&gt;Node11 -->
<g id="edge91" class="edge">
<title>Node46&#45;&gt;Node11</title>
<path fill="none" stroke="#191970" d="M560.0376,-251.9162C549.3244,-229.7995 526.5851,-174.028 547,-134 555.3076,-117.7111 571.4427,-105.3724 586.2344,-96.8618"/>
<polygon fill="#191970" stroke="#191970" points="588.0324,-99.8691 595.1887,-92.0564 584.7223,-93.7012 588.0324,-99.8691"/>
</g>
<!-- Node46&#45;&gt;Node17 -->
<g id="edge95" class="edge">
<title>Node46&#45;&gt;Node17</title>
<path fill="none" stroke="#191970" d="M611.7294,-252.8591C626.7768,-250.3278 643.5535,-247.7683 659,-246 905.4623,-217.7853 972.4986,-257.4006 1216,-210 1293.6694,-194.8807 1310.5156,-180.706 1385,-154 1450.03,-130.6838 1470.8113,-133.6265 1530,-98 1560.6742,-79.5368 1591.0112,-50.8988 1608.8696,-32.6823"/>
<polygon fill="#191970" stroke="#191970" points="1611.737,-34.7505 1616.1532,-25.1199 1606.6952,-29.8946 1611.737,-34.7505"/>
</g>
<!-- Node46&#45;&gt;Node42 -->
<g id="edge92" class="edge">
<title>Node46&#45;&gt;Node42</title>
<path fill="none" stroke="#191970" d="M595.9063,-251.9324C627.2942,-242.2112 677.5644,-226.6294 730.0982,-210.2768"/>
<polygon fill="#191970" stroke="#191970" points="731.4223,-213.5303 739.9297,-207.2157 729.3413,-206.8468 731.4223,-213.5303"/>
</g>
<!-- Node47 -->
<g id="node48" class="node">
<title>Node47</title>
<g id="a_node48"><a xlink:href="QuantumDefect_8h.html" target="_top" xlink:title="QuantumDefect.h">
<polygon fill="none" stroke="#000000" points="556.5,-190.5 556.5,-209.5 659.5,-209.5 659.5,-190.5 556.5,-190.5"/>
<text text-anchor="middle" x="608" y="-197.5" font-family="Helvetica,sans-Serif" font-size="10.00" fill="#000000">QuantumDefect.h</text>
</a>
</g>
</g>
<!-- Node46&#45;&gt;Node47 -->
<g id="edge68" class="edge">
<title>Node46&#45;&gt;Node47</title>
<path fill="none" stroke="#191970" d="M571.7188,-251.8906C577.993,-242.917 587.5223,-229.2879 595.2404,-218.2491"/>
<polygon fill="#191970" stroke="#191970" points="598.3247,-219.9459 601.1865,-209.7449 592.5879,-215.9348 598.3247,-219.9459"/>
</g>
<!-- Node57 -->
<g id="node58" class="node">
<title>Node57</title>
<polygon fill="none" stroke="#bfbfbf" points="678,-190.5 678,-209.5 722,-209.5 722,-190.5 678,-190.5"/>
<text text-anchor="middle" x="700" y="-197.5" font-family="Helvetica,sans-Serif" font-size="10.00" fill="#000000">limits</text>
</g>
<!-- Node46&#45;&gt;Node57 -->
<g id="edge93" class="edge">
<title>Node46&#45;&gt;Node57</title>
<path fill="none" stroke="#191970" d="M586.0938,-251.8906C608.5827,-241.6457 644.3918,-225.3326 669.8524,-213.7339"/>
<polygon fill="#191970" stroke="#191970" points="671.4052,-216.8727 679.0544,-209.5419 668.5032,-210.5025 671.4052,-216.8727"/>
</g>
<!-- Node47&#45;&gt;Node2 -->
<g id="edge87" class="edge">
<title>Node47&#45;&gt;Node2</title>
<path fill="none" stroke="#191970" d="M581.9346,-190.3899C557.3607,-181.2591 519.5489,-167.0272 487,-154 438.3011,-134.5089 382.3104,-110.6825 348.3048,-96.0519"/>
<polygon fill="#191970" stroke="#191970" points="349.4741,-92.7447 338.9054,-92.0011 346.7036,-99.1731 349.4741,-92.7447"/>
</g>
<!-- Node47&#45;&gt;Node11 -->
<g id="edge85" class="edge">
<title>Node47&#45;&gt;Node11</title>
<path fill="none" stroke="#191970" d="M659.5099,-191.7451C681.7144,-185.3541 705.6161,-174.0341 719,-154 723.9378,-146.6087 723.6433,-141.5797 719,-134 714.9124,-127.3275 676.9302,-109.0723 648.7402,-96.1992"/>
<polygon fill="#191970" stroke="#191970" points="650.1717,-93.0053 639.6187,-92.0644 647.2816,-99.3809 650.1717,-93.0053"/>
</g>
<!-- Node47&#45;&gt;Node18 -->
<g id="edge90" class="edge">
<title>Node47&#45;&gt;Node18</title>
<path fill="none" stroke="#191970" d="M614.232,-190.2632C623.245,-176.6531 640.9393,-151.6325 660,-134 675.3954,-119.7582 695.0865,-106.6623 710.702,-97.2404"/>
<polygon fill="#191970" stroke="#191970" points="712.5239,-100.2294 719.3619,-92.1367 708.9697,-94.1988 712.5239,-100.2294"/>
</g>
<!-- Node47&#45;&gt;Node33 -->
<g id="edge89" class="edge">
<title>Node47&#45;&gt;Node33</title>
<path fill="none" stroke="#191970" d="M659.556,-191.3529C662.7491,-190.8779 665.9167,-190.4227 669,-190 813.419,-170.2022 854.6157,-193.2561 995,-154 1015.2985,-148.3239 1017.7742,-139.9298 1038,-134 1152.0587,-100.5603 1186.6258,-122.1794 1303,-98 1307.6714,-97.0294 1312.5288,-95.8764 1317.3373,-94.6439"/>
<polygon fill="#191970" stroke="#191970" points="1318.312,-98.0063 1327.0639,-92.0351 1316.4985,-91.2452 1318.312,-98.0063"/>
</g>
<!-- Node48 -->
<g id="node49" class="node">
<title>Node48</title>
<g id="a_node49"><a xlink:href="Cache_8h.html" target="_top" xlink:title="Cache.h">
<polygon fill="none" stroke="#000000" points="556,-134.5 556,-153.5 612,-153.5 612,-134.5 556,-134.5"/>
<text text-anchor="middle" x="584" y="-141.5" font-family="Helvetica,sans-Serif" font-size="10.00" fill="#000000">Cache.h</text>
</a>
</g>
</g>
<!-- Node47&#45;&gt;Node48 -->
<g id="edge69" class="edge">
<title>Node47&#45;&gt;Node48</title>
<path fill="none" stroke="#191970" d="M603.8195,-190.2455C600.619,-182.7776 596.104,-172.2427 592.1916,-163.1137"/>
<polygon fill="#191970" stroke="#191970" points="595.2888,-161.4554 588.1326,-153.6427 588.8548,-164.2129 595.2888,-161.4554"/>
</g>
<!-- Node49 -->
<g id="node50" class="node">
<title>Node49</title>
<polygon fill="none" stroke="#bfbfbf" points="375,-73 375,-92 423,-92 423,-73 375,-73"/>
<text text-anchor="middle" x="399" y="-80" font-family="Helvetica,sans-Serif" font-size="10.00" fill="#000000">mutex</text>
</g>
<!-- Node47&#45;&gt;Node49 -->
<g id="edge86" class="edge">
<title>Node47&#45;&gt;Node49</title>
<path fill="none" stroke="#191970" d="M590.8967,-190.3845C554.2936,-169.8062 468.1836,-121.3951 424.8565,-97.0365"/>
<polygon fill="#191970" stroke="#191970" points="426.4787,-93.9334 416.0466,-92.0836 423.0482,-100.0352 426.4787,-93.9334"/>
</g>
<!-- Node47&#45;&gt;Node51 -->
<g id="edge73" class="edge">
<title>Node47&#45;&gt;Node51</title>
<path fill="none" stroke="#191970" d="M659.5219,-191.0615C662.7235,-190.6588 665.9022,-190.2991 669,-190 671.3942,-189.7688 1922.1504,-152.3178 2160.8864,-145.1708"/>
<polygon fill="#191970" stroke="#191970" points="2161.2779,-148.6608 2171.1687,-144.863 2161.0684,-141.6639 2161.2779,-148.6608"/>
</g>
<!-- Node56 -->
<g id="node57" class="node">
<title>Node56</title>
<polygon fill="none" stroke="#bfbfbf" points="668.5,-134.5 668.5,-153.5 709.5,-153.5 709.5,-134.5 668.5,-134.5"/>
<text text-anchor="middle" x="689" y="-141.5" font-family="Helvetica,sans-Serif" font-size="10.00" fill="#000000">tuple</text>
</g>
<!-- Node47&#45;&gt;Node56 -->
<g id="edge88" class="edge">
<title>Node47&#45;&gt;Node56</title>
<path fill="none" stroke="#191970" d="M622.1091,-190.2455C634.4209,-181.7337 652.4958,-169.2375 666.7538,-159.3801"/>
<polygon fill="#191970" stroke="#191970" points="668.8174,-162.2085 675.0526,-153.6427 664.8366,-156.4506 668.8174,-162.2085"/>
</g>
<!-- Node48&#45;&gt;Node33 -->
<g id="edge71" class="edge">
<title>Node48&#45;&gt;Node33</title>
<path fill="none" stroke="#191970" d="M612.0955,-139.7926C626.4068,-137.7794 644.0998,-135.4891 660,-134 944.9784,-107.3116 1020.6767,-145.1011 1303,-98 1308.1281,-97.1445 1313.4615,-95.9896 1318.7013,-94.6939"/>
<polygon fill="#191970" stroke="#191970" points="1319.8166,-98.0192 1328.5836,-92.0702 1318.0203,-91.2535 1319.8166,-98.0192"/>
</g>
<!-- Node48&#45;&gt;Node49 -->
<g id="edge70" class="edge">
<title>Node48&#45;&gt;Node49</title>
<path fill="none" stroke="#191970" d="M555.9025,-134.6595C522.9668,-123.7106 468.4056,-105.5727 433.0828,-93.8302"/>
<polygon fill="#191970" stroke="#191970" points="433.8176,-90.3862 423.2241,-90.5529 431.6094,-97.0288 433.8176,-90.3862"/>
</g>
<!-- Node50 -->
<g id="node51" class="node">
<title>Node50</title>
<polygon fill="none" stroke="#bfbfbf" points="463.5,-73 463.5,-92 570.5,-92 570.5,-73 463.5,-73"/>
<text text-anchor="middle" x="517" y="-80" font-family="Helvetica,sans-Serif" font-size="10.00" fill="#000000">boost/optional.hpp</text>
</g>
<!-- Node48&#45;&gt;Node50 -->
<g id="edge72" class="edge">
<title>Node48&#45;&gt;Node50</title>
<path fill="none" stroke="#191970" d="M573.5313,-134.3906C563.2663,-124.9683 547.4097,-110.4134 535.0994,-99.1137"/>
<polygon fill="#191970" stroke="#191970" points="537.3501,-96.4287 527.6163,-92.2449 532.6166,-101.5856 537.3501,-96.4287"/>
</g>
<!-- Node51&#45;&gt;Node2 -->
<g id="edge78" class="edge">
<title>Node51&#45;&gt;Node2</title>
<path fill="none" stroke="#191970" d="M2171.3221,-143.0876C2113.4243,-141.2579 1978.4208,-137.0548 1865,-134 1531.9136,-125.0289 694.6713,-152.7923 366,-98 360.3894,-97.0647 354.5345,-95.634 348.9049,-94.0126"/>
<polygon fill="#191970" stroke="#191970" points="349.7053,-90.5959 339.1165,-90.9542 347.6175,-97.2773 349.7053,-90.5959"/>
</g>
<!-- Node51&#45;&gt;Node5 -->
<g id="edge77" class="edge">
<title>Node51&#45;&gt;Node5</title>
<path fill="none" stroke="#191970" d="M2171.3224,-143.0758C2113.4252,-141.2251 1978.4227,-136.9858 1865,-134 1514.1415,-124.7638 633.4491,-147.6604 286,-98 279.4997,-97.0709 272.6861,-95.6604 266.1072,-94.0617"/>
<polygon fill="#191970" stroke="#191970" points="266.6003,-90.5733 256.0407,-91.4366 264.834,-97.3468 266.6003,-90.5733"/>
</g>
<!-- Node51&#45;&gt;Node19 -->
<g id="edge74" class="edge">
<title>Node51&#45;&gt;Node19</title>
<path fill="none" stroke="#191970" d="M2171.3282,-141.513C2060.5814,-131.9066 1660.507,-97.2034 1531.4416,-86.008"/>
<polygon fill="#191970" stroke="#191970" points="1531.4766,-82.498 1521.2115,-85.1206 1530.8716,-89.4718 1531.4766,-82.498"/>
</g>
<!-- Node51&#45;&gt;Node24 -->
<g id="edge75" class="edge">
<title>Node51&#45;&gt;Node24</title>
<path fill="none" stroke="#191970" d="M2171.4294,-134.899C2143.7855,-125.961 2100.7857,-111.7089 2064,-98 2062.1473,-97.3096 2060.2498,-96.5867 2058.3389,-95.8465"/>
<polygon fill="#191970" stroke="#191970" points="2059.4048,-92.5041 2048.8188,-92.0716 2056.8246,-99.0112 2059.4048,-92.5041"/>
</g>
<!-- Node51&#45;&gt;Node34 -->
<g id="edge84" class="edge">
<title>Node51&#45;&gt;Node34</title>
<path fill="none" stroke="#191970" d="M2228.6653,-137.2605C2233.4489,-136.1568 2238.3623,-135.0361 2243,-134 2317.5246,-117.3509 2338.7854,-122.8226 2411,-98 2412.6054,-97.4482 2414.2351,-96.8361 2415.8654,-96.1829"/>
<polygon fill="#191970" stroke="#191970" points="2417.3108,-99.3708 2425.044,-92.1288 2414.4825,-92.9676 2417.3108,-99.3708"/>
</g>
<!-- Node51&#45;&gt;Node38 -->
<g id="edge76" class="edge">
<title>Node51&#45;&gt;Node38</title>
<path fill="none" stroke="#191970" d="M2228.8585,-142.6782C2291.6526,-139.2603 2438.0948,-128.1861 2476,-98 2495.3487,-82.5915 2503.7878,-54.3118 2507.3994,-35.2098"/>
<polygon fill="#191970" stroke="#191970" points="2510.8784,-35.6196 2509.0139,-25.1901 2503.9676,-34.5059 2510.8784,-35.6196"/>
</g>
<!-- Node51&#45;&gt;Node39 -->
<g id="edge80" class="edge">
<title>Node51&#45;&gt;Node39</title>
<path fill="none" stroke="#191970" d="M2228.9797,-141.7126C2294.5407,-136.1944 2452.2486,-120.8929 2500,-98 2531.8237,-82.7431 2560.3225,-52.4339 2576.3596,-33.106"/>
<polygon fill="#191970" stroke="#191970" points="2579.2685,-35.0743 2582.8183,-25.0918 2573.8181,-30.6818 2579.2685,-35.0743"/>
</g>
<!-- Node52 -->
<g id="node53" class="node">
<title>Node52</title>
<polygon fill="none" stroke="#bfbfbf" points="2073,-73 2073,-92 2121,-92 2121,-73 2073,-73"/>
<text text-anchor="middle" x="2097" y="-80" font-family="Helvetica,sans-Serif" font-size="10.00" fill="#000000">thread</text>
</g>
<!-- Node51&#45;&gt;Node52 -->
<g id="edge79" class="edge">
<title>Node51&#45;&gt;Node52</title>
<path fill="none" stroke="#191970" d="M2183.9063,-134.3906C2167.2772,-124.4616 2141.1024,-108.833 2121.8206,-97.3201"/>
<polygon fill="#191970" stroke="#191970" points="2123.361,-94.1634 2112.9807,-92.0419 2119.7724,-100.1736 2123.361,-94.1634"/>
</g>
<!-- Node53 -->
<g id="node54" class="node">
<title>Node53</title>
<polygon fill="none" stroke="#bfbfbf" points="2139,-67.5 2139,-97.5 2261,-97.5 2261,-67.5 2139,-67.5"/>
<text text-anchor="start" x="2147" y="-85.5" font-family="Helvetica,sans-Serif" font-size="10.00" fill="#000000">boost/iterator/iterator</text>
<text text-anchor="middle" x="2200" y="-74.5" font-family="Helvetica,sans-Serif" font-size="10.00" fill="#000000">_facade.hpp</text>
</g>
<!-- Node51&#45;&gt;Node53 -->
<g id="edge81" class="edge">
<title>Node51&#45;&gt;Node53</title>
<path fill="none" stroke="#191970" d="M2200,-134.3906C2200,-127.2234 2200,-117.0862 2200,-107.671"/>
<polygon fill="#191970" stroke="#191970" points="2203.5001,-107.5446 2200,-97.5446 2196.5001,-107.5446 2203.5001,-107.5446"/>
</g>
<!-- Node54 -->
<g id="node55" class="node">
<title>Node54</title>
<polygon fill="none" stroke="#bfbfbf" points="2279.5,-73 2279.5,-92 2338.5,-92 2338.5,-73 2279.5,-73"/>
<text text-anchor="middle" x="2309" y="-80" font-family="Helvetica,sans-Serif" font-size="10.00" fill="#000000">sqlite3.h</text>
</g>
<!-- Node51&#45;&gt;Node54 -->
<g id="edge82" class="edge">
<title>Node51&#45;&gt;Node54</title>
<path fill="none" stroke="#191970" d="M2217.0313,-134.3906C2234.789,-124.3713 2262.833,-108.5483 2283.2882,-97.0071"/>
<polygon fill="#191970" stroke="#191970" points="2285.0989,-100.0042 2292.0883,-92.0419 2281.6591,-93.9077 2285.0989,-100.0042"/>
</g>
<!-- Node55 -->
<g id="node56" class="node">
<title>Node55</title>
<polygon fill="none" stroke="#bfbfbf" points="2356.5,-73 2356.5,-92 2401.5,-92 2401.5,-73 2356.5,-73"/>
<text text-anchor="middle" x="2379" y="-80" font-family="Helvetica,sans-Serif" font-size="10.00" fill="#000000">utility</text>
</g>
<!-- Node51&#45;&gt;Node55 -->
<g id="edge83" class="edge">
<title>Node51&#45;&gt;Node55</title>
<path fill="none" stroke="#191970" d="M2228.5732,-136.6045C2258.7359,-128.4554 2307.4359,-114.3193 2348,-98 2349.3607,-97.4526 2350.7433,-96.8689 2352.1314,-96.2608"/>
<polygon fill="#191970" stroke="#191970" points="2353.6213,-99.4279 2361.1952,-92.0193 2350.6544,-93.0877 2353.6213,-99.4279"/>
</g>
<!-- Node63&#45;&gt;Node3 -->
<g id="edge113" class="edge">
<title>Node63&#45;&gt;Node3</title>
<path fill="none" stroke="#191970" d="M1270.8548,-445.8135C1080.9245,-444.8242 432.8453,-438.6234 349,-400 291.5453,-373.5335 171.7776,-215.7018 132.0901,-161.9296"/>
<polygon fill="#191970" stroke="#191970" points="134.7757,-159.6735 126.0338,-153.6876 129.1348,-163.8185 134.7757,-159.6735"/>
</g>
<!-- Node63&#45;&gt;Node7 -->
<g id="edge115" class="edge">
<title>Node63&#45;&gt;Node7</title>
<path fill="none" stroke="#191970" d="M1351.9063,-436.3906C1383.539,-425.8749 1434.403,-408.966 1469.4229,-397.3243"/>
<polygon fill="#191970" stroke="#191970" points="1470.9115,-400.5178 1479.2967,-394.0419 1468.7032,-393.8753 1470.9115,-400.5178"/>
</g>
<!-- Node63&#45;&gt;Node8 -->
<g id="edge112" class="edge">
<title>Node63&#45;&gt;Node8</title>
<path fill="none" stroke="#191970" d="M1270.9628,-436.6215C1183.9539,-419.7368 1015.1778,-381.4282 982,-333 976.9762,-325.6669 977.6794,-320.7682 982,-313 1011.4958,-259.9681 1077.3235,-228.6339 1121.1898,-212.8815"/>
<polygon fill="#191970" stroke="#191970" points="1122.4376,-216.1534 1130.7405,-209.5722 1120.1457,-209.5392 1122.4376,-216.1534"/>
</g>
<!-- Node63&#45;&gt;Node11 -->
<g id="edge118" class="edge">
<title>Node63&#45;&gt;Node11</title>
<path fill="none" stroke="#191970" d="M1270.8323,-444.2742C1102.9724,-437.4591 582.473,-406.0707 492,-277 454.7773,-223.8973 476.0433,-180.7368 521,-134 530.9186,-123.6887 562.5448,-107.7677 587.0179,-96.3581"/>
<polygon fill="#191970" stroke="#191970" points="588.6982,-99.4377 596.3182,-92.0766 585.7709,-93.0791 588.6982,-99.4377"/>
</g>
<!-- Node63&#45;&gt;Node15 -->
<g id="edge124" class="edge">
<title>Node63&#45;&gt;Node15</title>
<path fill="none" stroke="#191970" d="M1270.9177,-442.2313C1198.0861,-436.223 1070.2155,-422.768 1030,-400 996.2275,-380.8796 993.3598,-366.6358 974,-333 912.4162,-226.0041 823.4815,-168.3303 894,-67 906.362,-49.2366 962.4768,-32.585 999.5189,-23.2514"/>
<polygon fill="#191970" stroke="#191970" points="1000.5346,-26.606 1009.4088,-20.8181 998.8621,-19.8087 1000.5346,-26.606"/>
</g>
<!-- Node63&#45;&gt;Node19 -->
<g id="edge125" class="edge">
<title>Node63&#45;&gt;Node19</title>
<path fill="none" stroke="#191970" d="M1375.0466,-443.8652C1440.0519,-439.9797 1545.7119,-429.229 1570,-400 1608.8644,-353.2295 1527.455,-162.5936 1499.7741,-101.462"/>
<polygon fill="#191970" stroke="#191970" points="1502.8836,-99.8455 1495.5431,-92.2056 1496.5171,-102.7555 1502.8836,-99.8455"/>
</g>
<!-- Node63&#45;&gt;Node24 -->
<g id="edge126" class="edge">
<title>Node63&#45;&gt;Node24</title>
<path fill="none" stroke="#191970" d="M1375.4759,-442.3554C1513.882,-431.926 1885.1773,-398.4209 1987,-333 2057.9558,-287.411 2044.0213,-238.1269 2050,-154 2050.6301,-145.1335 2051.9229,-142.6784 2050,-134 2047.466,-122.5636 2042.1188,-110.6558 2037.1134,-101.1747"/>
<polygon fill="#191970" stroke="#191970" points="2040.0854,-99.318 2032.1534,-92.2943 2033.9741,-102.7315 2040.0854,-99.318"/>
</g>
<!-- Node63&#45;&gt;Node27 -->
<g id="edge114" class="edge">
<title>Node63&#45;&gt;Node27</title>
<path fill="none" stroke="#191970" d="M1375.1013,-438.7604C1431.5094,-430.6153 1524.0097,-416.3651 1603,-400 1697.3533,-380.4521 1806.4905,-351.5556 1865.8876,-335.2897"/>
<polygon fill="#191970" stroke="#191970" points="1866.9691,-338.6224 1875.6843,-332.5978 1865.1143,-331.8726 1866.9691,-338.6224"/>
</g>
<!-- Node63&#45;&gt;Node45 -->
<g id="edge116" class="edge">
<title>Node63&#45;&gt;Node45</title>
<path fill="none" stroke="#191970" d="M1270.6949,-442.3946C1175.412,-435.4572 977.2715,-419.2239 911,-400 861.0198,-385.5018 807.5111,-356.1479 777.3564,-338.1658"/>
<polygon fill="#191970" stroke="#191970" points="778.7885,-334.9416 768.4206,-332.7603 775.1653,-340.931 778.7885,-334.9416"/>
</g>
<!-- Node63&#45;&gt;Node51 -->
<g id="edge117" class="edge">
<title>Node63&#45;&gt;Node51</title>
<path fill="none" stroke="#191970" d="M1375.2637,-445.5136C1526.216,-443.6957 1960.8112,-435.4427 2098,-400 2164.7877,-382.7454 2201.2289,-391.3627 2238,-333 2272.573,-278.1262 2233.0319,-198.0325 2211.7694,-162.3416"/>
<polygon fill="#191970" stroke="#191970" points="2214.5562,-160.1918 2206.3338,-153.5102 2208.5948,-163.861 2214.5562,-160.1918"/>
</g>
<!-- Node63&#45;&gt;Node59 -->
<g id="edge119" class="edge">
<title>Node63&#45;&gt;Node59</title>
<path fill="none" stroke="#191970" d="M1302.2844,-436.3484C1255.8252,-414.7026 1143.1548,-362.2085 1089.0177,-336.9855"/>
<polygon fill="#191970" stroke="#191970" points="1090.162,-333.6575 1079.6194,-332.6068 1087.2057,-340.0026 1090.162,-333.6575"/>
</g>
<!-- Node63&#45;&gt;Node60 -->
<g id="edge120" class="edge">
<title>Node63&#45;&gt;Node60</title>
<path fill="none" stroke="#191970" d="M1375.2044,-444.3384C1532.1851,-439.1177 1993.072,-422.0712 2057,-400 2094.4428,-387.0728 2130.94,-357.9893 2151.6313,-339.4971"/>
<polygon fill="#191970" stroke="#191970" points="2154.2324,-341.861 2159.2446,-332.5267 2149.5055,-336.698 2154.2324,-341.861"/>
</g>
<!-- Node63&#45;&gt;Node61 -->
<g id="edge122" class="edge">
<title>Node63&#45;&gt;Node61</title>
<path fill="none" stroke="#191970" d="M1313.5053,-436.3484C1293.0067,-415.511 1244.3856,-366.0862 1218.6472,-339.9224"/>
<polygon fill="#191970" stroke="#191970" points="1220.9585,-337.2811 1211.4506,-332.6068 1215.9684,-342.1901 1220.9585,-337.2811"/>
</g>
<!-- Node63&#45;&gt;Node62 -->
<g id="edge123" class="edge">
<title>Node63&#45;&gt;Node62</title>
<path fill="none" stroke="#191970" d="M1314.0757,-436.1741C1301.6102,-421.1939 1281.8101,-391.9633 1294,-369 1301.3846,-355.0889 1315.0636,-344.6166 1328.2272,-337.2062"/>
<polygon fill="#191970" stroke="#191970" points="1329.9124,-340.275 1337.1745,-332.5605 1326.6866,-334.0625 1329.9124,-340.275"/>
</g>
<!-- Node64 -->
<g id="node65" class="node">
<title>Node64</title>
<polygon fill="none" stroke="#bfbfbf" points="1303,-369.5 1303,-399.5 1437,-399.5 1437,-369.5 1303,-369.5"/>
<text text-anchor="start" x="1311" y="-387.5" font-family="Helvetica,sans-Serif" font-size="10.00" fill="#000000">boost/math/special</text>
<text text-anchor="middle" x="1370" y="-376.5" font-family="Helvetica,sans-Serif" font-size="10.00" fill="#000000">_functions/binomial.hpp</text>
</g>
<!-- Node63&#45;&gt;Node64 -->
<g id="edge121" class="edge">
<title>Node63&#45;&gt;Node64</title>
<path fill="none" stroke="#191970" d="M1330.3438,-436.3906C1336.2335,-428.6839 1344.7473,-417.5434 1352.3778,-407.5589"/>
<polygon fill="#191970" stroke="#191970" points="1355.2113,-409.6153 1358.5025,-399.5446 1349.6495,-405.3648 1355.2113,-409.6153"/>
</g>
</g>
</svg>
