<?xml version="1.0" encoding="UTF-8" standalone="no"?>
<!DOCTYPE svg PUBLIC "-//W3C//DTD SVG 1.1//EN"
 "http://www.w3.org/Graphics/SVG/1.1/DTD/svg11.dtd">
<!-- Generated by graphviz version 2.40.1 (20161225.0304)
 -->
<!-- Title: /travis/pairinteraction/main.cpp Pages: 1 -->
<svg width="537pt" height="151pt"
 viewBox="0.00 0.00 536.50 151.00" xmlns="http://www.w3.org/2000/svg" xmlns:xlink="http://www.w3.org/1999/xlink">
<g id="graph0" class="graph" transform="scale(1 1) rotate(0) translate(4 147)">
<title>/travis/pairinteraction/main.cpp</title>
<!-- Node0 -->
<g id="node1" class="node">
<title>Node0</title>
<polygon fill="#bfbfbf" stroke="#000000" points="238.5,-112.5 238.5,-142.5 360.5,-142.5 360.5,-112.5 238.5,-112.5"/>
<text text-anchor="start" x="246.5" y="-130.5" font-family="Helvetica,sans-Serif" font-size="10.00" fill="#000000">/travis/pairinteraction</text>
<text text-anchor="middle" x="299.5" y="-119.5" font-family="Helvetica,sans-Serif" font-size="10.00" fill="#000000">/main.cpp</text>
</g>
<!-- Node1 -->
<g id="node2" class="node">
<title>Node1</title>
<g id="a_node2"><a xlink:href="Interface_8h.html" target="_top" xlink:title="Interface.h">
<polygon fill="none" stroke="#000000" points="0,-56.5 0,-75.5 69,-75.5 69,-56.5 0,-56.5"/>
<text text-anchor="middle" x="34.5" y="-63.5" font-family="Helvetica,sans-Serif" font-size="10.00" fill="#000000">Interface.h</text>
</a>
</g>
</g>
<!-- Node0&#45;&gt;Node1 -->
<g id="edge1" class="edge">
<title>Node0&#45;&gt;Node1</title>
<path fill="none" stroke="#191970" d="M238.3709,-113.3134C189.731,-102.0253 122.8014,-86.4926 79.1048,-76.3517"/>
<polygon fill="#191970" stroke="#191970" points="79.8686,-72.936 69.3362,-74.0846 78.286,-79.7548 79.8686,-72.936"/>
</g>
<!-- Node3 -->
<g id="node4" class="node">
<title>Node3</title>
<polygon fill="none" stroke="#bfbfbf" points="87,-56.5 87,-75.5 206,-75.5 206,-56.5 87,-56.5"/>
<text text-anchor="middle" x="146.5" y="-63.5" font-family="Helvetica,sans-Serif" font-size="10.00" fill="#000000">boost/filesystem.hpp</text>
</g>
<!-- Node0&#45;&gt;Node3 -->
<g id="edge3" class="edge">
<title>Node0&#45;&gt;Node3</title>
<path fill="none" stroke="#191970" d="M262.072,-112.4554C236.8794,-102.329 203.9593,-89.0964 179.7004,-79.3453"/>
<polygon fill="#191970" stroke="#191970" points="180.7934,-76.0125 170.2096,-75.5303 178.1827,-82.5074 180.7934,-76.0125"/>
</g>
<!-- Node4 -->
<g id="node5" class="node">
<title>Node4</title>
<polygon fill="none" stroke="#bfbfbf" points="224.5,-56.5 224.5,-75.5 374.5,-75.5 374.5,-56.5 224.5,-56.5"/>
<text text-anchor="middle" x="299.5" y="-63.5" font-family="Helvetica,sans-Serif" font-size="10.00" fill="#000000">boost/program_options.hpp</text>
</g>
<!-- Node0&#45;&gt;Node4 -->
<g id="edge4" class="edge">
<title>Node0&#45;&gt;Node4</title>
<path fill="none" stroke="#191970" d="M299.5,-112.2977C299.5,-104.3834 299.5,-94.6043 299.5,-86.0759"/>
<polygon fill="#191970" stroke="#191970" points="303.0001,-85.8469 299.5,-75.8469 296.0001,-85.847 303.0001,-85.8469"/>
</g>
<!-- Node5 -->
<g id="node6" class="node">
<title>Node5</title>
<polygon fill="none" stroke="#bfbfbf" points="392.5,-56.5 392.5,-75.5 452.5,-75.5 452.5,-56.5 392.5,-56.5"/>
<text text-anchor="middle" x="422.5" y="-63.5" font-family="Helvetica,sans-Serif" font-size="10.00" fill="#000000">iostream</text>
</g>
<!-- Node0&#45;&gt;Node5 -->
<g id="edge5" class="edge">
<title>Node0&#45;&gt;Node5</title>
<path fill="none" stroke="#191970" d="M329.5892,-112.4554C349.3019,-102.599 374.9002,-89.7999 394.2347,-80.1327"/>
<polygon fill="#191970" stroke="#191970" points="396.0603,-83.133 403.4394,-75.5303 392.9298,-76.872 396.0603,-83.133"/>
</g>
<!-- Node6 -->
<g id="node7" class="node">
<title>Node6</title>
<polygon fill="none" stroke="#bfbfbf" points="470.5,-56.5 470.5,-75.5 528.5,-75.5 528.5,-56.5 470.5,-56.5"/>
<text text-anchor="middle" x="499.5" y="-63.5" font-family="Helvetica,sans-Serif" font-size="10.00" fill="#000000">memory</text>
</g>
<!-- Node0&#45;&gt;Node6 -->
<g id="edge6" class="edge">
<title>Node0&#45;&gt;Node6</title>
<path fill="none" stroke="#191970" d="M348.4255,-112.4554C382.8612,-101.8664 428.3423,-87.881 460.3734,-78.0314"/>
<polygon fill="#191970" stroke="#191970" points="461.7398,-81.2731 470.2694,-74.9884 459.6824,-74.5822 461.7398,-81.2731"/>
</g>
<!-- Node2 -->
<g id="node3" class="node">
<title>Node2</title>
<polygon fill="none" stroke="#bfbfbf" points="12.5,-.5 12.5,-19.5 56.5,-19.5 56.5,-.5 12.5,-.5"/>
<text text-anchor="middle" x="34.5" y="-7.5" font-family="Helvetica,sans-Serif" font-size="10.00" fill="#000000">string</text>
</g>
<!-- Node1&#45;&gt;Node2 -->
<g id="edge2" class="edge">
<title>Node1&#45;&gt;Node2</title>
<path fill="none" stroke="#191970" d="M34.5,-56.2455C34.5,-48.9382 34.5,-38.6944 34.5,-29.7046"/>
<polygon fill="#191970" stroke="#191970" points="38.0001,-29.6426 34.5,-19.6427 31.0001,-29.6427 38.0001,-29.6426"/>
</g>
</g>
</svg>
