<?xml version="1.0" encoding="UTF-8" standalone="no"?>
<!DOCTYPE svg PUBLIC "-//W3C//DTD SVG 1.1//EN"
 "http://www.w3.org/Graphics/SVG/1.1/DTD/svg11.dtd">
<!-- Generated by graphviz version 2.40.1 (20161225.0304)
 -->
<!-- Title: main Pages: 1 -->
<svg width="684pt" height="199pt"
 viewBox="0.00 0.00 684.00 199.00" xmlns="http://www.w3.org/2000/svg" xmlns:xlink="http://www.w3.org/1999/xlink">
<g id="graph0" class="graph" transform="scale(1 1) rotate(0) translate(4 195)">
<title>main</title>
<!-- Node0 -->
<g id="node1" class="node">
<title>Node0</title>
<polygon fill="#bfbfbf" stroke="#000000" points="0,-95.5 0,-114.5 41,-114.5 41,-95.5 0,-95.5"/>
<text text-anchor="middle" x="20.5" y="-102.5" font-family="Helvetica,sans-Serif" font-size="10.00" fill="#000000">main</text>
</g>
<!-- Node1 -->
<g id="node2" class="node">
<title>Node1</title>
<g id="a_node2"><a xlink:href="Interface_8cpp.html#acdc4967c68cfa6b105d074a2b5ff657f" target="_top" xlink:title="compute">
<polygon fill="none" stroke="#000000" points="77,-95.5 77,-114.5 136,-114.5 136,-95.5 77,-95.5"/>
<text text-anchor="middle" x="106.5" y="-102.5" font-family="Helvetica,sans-Serif" font-size="10.00" fill="#000000">compute</text>
</a>
</g>
</g>
<!-- Node0&#45;&gt;Node1 -->
<g id="edge1" class="edge">
<title>Node0&#45;&gt;Node1</title>
<path fill="none" stroke="#191970" d="M41.3182,-105C48.9643,-105 57.8991,-105 66.6581,-105"/>
<polygon fill="#191970" stroke="#191970" points="66.772,-108.5001 76.772,-105 66.7719,-101.5001 66.772,-108.5001"/>
</g>
<!-- Node2 -->
<g id="node3" class="node">
<title>Node2</title>
<g id="a_node3"><a xlink:href="classConfiguration.html#abe48f0d77849495ff50e92a51b6da4ed" target="_top" xlink:title="Number of elements matching specific key. ">
<polygon fill="none" stroke="#000000" points="194,-171.5 194,-190.5 310,-190.5 310,-171.5 194,-171.5"/>
<text text-anchor="middle" x="252" y="-178.5" font-family="Helvetica,sans-Serif" font-size="10.00" fill="#000000">Configuration::count</text>
</a>
</g>
</g>
<!-- Node1&#45;&gt;Node2 -->
<g id="edge2" class="edge">
<title>Node1&#45;&gt;Node2</title>
<path fill="none" stroke="#191970" d="M114.7781,-114.6678C126.2922,-127.4802 148.4019,-149.8746 172,-162 176.565,-164.3456 181.4257,-166.4072 186.409,-168.2182"/>
<polygon fill="#191970" stroke="#191970" points="185.5049,-171.6051 196.0977,-171.4008 187.6895,-164.9547 185.5049,-171.6051"/>
</g>
<!-- Node3 -->
<g id="node4" class="node">
<title>Node3</title>
<g id="a_node4"><a xlink:href="classBasisnamesOne.html#ab3030f74ccafcc178f38e7a8ada13b9b" target="_top" xlink:title="BasisnamesOne::fromBoth">
<polygon fill="none" stroke="#000000" points="178.5,-57.5 178.5,-76.5 325.5,-76.5 325.5,-57.5 178.5,-57.5"/>
<text text-anchor="middle" x="252" y="-64.5" font-family="Helvetica,sans-Serif" font-size="10.00" fill="#000000">BasisnamesOne::fromBoth</text>
</a>
</g>
</g>
<!-- Node1&#45;&gt;Node3 -->
<g id="edge3" class="edge">
<title>Node1&#45;&gt;Node3</title>
<path fill="none" stroke="#191970" d="M136.086,-96.0835C147.301,-92.7917 160.2074,-89.1087 172,-86 181.022,-83.6216 190.6518,-81.2192 199.991,-78.9601"/>
<polygon fill="#191970" stroke="#191970" points="201.0575,-82.3038 209.9685,-76.5728 199.4285,-75.496 201.0575,-82.3038"/>
</g>
<!-- Node9 -->
<g id="node10" class="node">
<title>Node9</title>
<g id="a_node10"><a xlink:href="classBasisnamesOne.html#a37fe3571090885a8a594eed4019befa9" target="_top" xlink:title="BasisnamesOne::fromFirst">
<polygon fill="none" stroke="#000000" points="179,-133.5 179,-152.5 325,-152.5 325,-133.5 179,-133.5"/>
<text text-anchor="middle" x="252" y="-140.5" font-family="Helvetica,sans-Serif" font-size="10.00" fill="#000000">BasisnamesOne::fromFirst</text>
</a>
</g>
</g>
<!-- Node1&#45;&gt;Node9 -->
<g id="edge11" class="edge">
<title>Node1&#45;&gt;Node9</title>
<path fill="none" stroke="#191970" d="M136.086,-113.9165C147.301,-117.2083 160.2074,-120.8913 172,-124 181.022,-126.3784 190.6518,-128.7808 199.991,-131.0399"/>
<polygon fill="#191970" stroke="#191970" points="199.4285,-134.504 209.9685,-133.4272 201.0575,-127.6962 199.4285,-134.504"/>
</g>
<!-- Node10 -->
<g id="node11" class="node">
<title>Node10</title>
<g id="a_node11"><a xlink:href="classBasisnamesOne.html#a683ae34cba3c56f9a0185e932de62078" target="_top" xlink:title="BasisnamesOne::fromSecond">
<polygon fill="none" stroke="#000000" points="172,-95.5 172,-114.5 332,-114.5 332,-95.5 172,-95.5"/>
<text text-anchor="middle" x="252" y="-102.5" font-family="Helvetica,sans-Serif" font-size="10.00" fill="#000000">BasisnamesOne::fromSecond</text>
</a>
</g>
</g>
<!-- Node1&#45;&gt;Node10 -->
<g id="edge13" class="edge">
<title>Node1&#45;&gt;Node10</title>
<path fill="none" stroke="#191970" d="M136.2952,-105C143.9065,-105 152.495,-105 161.468,-105"/>
<polygon fill="#191970" stroke="#191970" points="161.7307,-108.5001 171.7306,-105 161.7306,-101.5001 161.7307,-108.5001"/>
</g>
<!-- Node11 -->
<g id="node12" class="node">
<title>Node11</title>
<g id="a_node12"><a xlink:href="classConfiguration.html#a545d28b3d64edc05331ee71898acfd1c" target="_top" xlink:title="Load configuration from JSON file. ">
<polygon fill="none" stroke="#000000" points="197,-8 197,-38 307,-38 307,-8 197,-8"/>
<text text-anchor="start" x="205" y="-26" font-family="Helvetica,sans-Serif" font-size="10.00" fill="#000000">Configuration::load</text>
<text text-anchor="middle" x="252" y="-15" font-family="Helvetica,sans-Serif" font-size="10.00" fill="#000000">_from_json</text>
</a>
</g>
</g>
<!-- Node1&#45;&gt;Node11 -->
<g id="edge15" class="edge">
<title>Node1&#45;&gt;Node11</title>
<path fill="none" stroke="#191970" d="M115.3077,-95.1397C127.0716,-82.5283 149.1019,-60.7933 172,-48 176.843,-45.2942 182.0179,-42.8398 187.3183,-40.622"/>
<polygon fill="#191970" stroke="#191970" points="188.8949,-43.7645 196.9501,-36.8823 186.3613,-37.2391 188.8949,-43.7645"/>
</g>
<!-- Node4 -->
<g id="node5" class="node">
<title>Node4</title>
<g id="a_node5"><a xlink:href="classBasisnames.html#a534f7e2dcc2987a1f969cb89c070da04" target="_top" xlink:title="Basisnames::configure">
<polygon fill="none" stroke="#000000" points="368,-114.5 368,-133.5 496,-133.5 496,-114.5 368,-114.5"/>
<text text-anchor="middle" x="432" y="-121.5" font-family="Helvetica,sans-Serif" font-size="10.00" fill="#000000">Basisnames::configure</text>
</a>
</g>
</g>
<!-- Node3&#45;&gt;Node4 -->
<g id="edge4" class="edge">
<title>Node3&#45;&gt;Node4</title>
<path fill="none" stroke="#191970" d="M297.1454,-76.5748C308.5999,-79.3172 320.8242,-82.518 332,-86 348.3902,-91.1067 351.9626,-93.8749 368,-100 377.3795,-103.5823 387.55,-107.4183 396.9641,-110.9489"/>
<polygon fill="#191970" stroke="#191970" points="395.8435,-114.2666 406.4359,-114.4943 398.2975,-107.7108 395.8435,-114.2666"/>
</g>
<!-- Node5 -->
<g id="node6" class="node">
<title>Node5</title>
<g id="a_node6"><a xlink:href="classStateTwoOld.html#a1d7ff079f51711e8a6f40946e5677be8" target="_top" xlink:title="StateTwoOld::order">
<polygon fill="none" stroke="#000000" points="377.5,-38.5 377.5,-57.5 486.5,-57.5 486.5,-38.5 377.5,-38.5"/>
<text text-anchor="middle" x="432" y="-45.5" font-family="Helvetica,sans-Serif" font-size="10.00" fill="#000000">StateTwoOld::order</text>
</a>
</g>
</g>
<!-- Node3&#45;&gt;Node5 -->
<g id="edge5" class="edge">
<title>Node3&#45;&gt;Node5</title>
<path fill="none" stroke="#191970" d="M325.7322,-59.2172C339.5037,-57.7635 353.8008,-56.2544 367.2753,-54.8321"/>
<polygon fill="#191970" stroke="#191970" points="367.8194,-58.2942 377.3967,-53.7637 367.0845,-51.3328 367.8194,-58.2942"/>
</g>
<!-- Node7 -->
<g id="node8" class="node">
<title>Node7</title>
<g id="a_node8"><a xlink:href="classStateTwoOld.html#a6efa9c8f92e433004b778f6f5ce212d9" target="_top" xlink:title="StateTwoOld::second">
<polygon fill="none" stroke="#000000" points="545,-.5 545,-19.5 663,-19.5 663,-.5 545,-.5"/>
<text text-anchor="middle" x="604" y="-7.5" font-family="Helvetica,sans-Serif" font-size="10.00" fill="#000000">StateTwoOld::second</text>
</a>
</g>
</g>
<!-- Node3&#45;&gt;Node7 -->
<g id="edge10" class="edge">
<title>Node3&#45;&gt;Node7</title>
<path fill="none" stroke="#191970" d="M300.8166,-57.4786C311.2549,-54.8704 322.1113,-51.7154 332,-48 348.9358,-41.6369 350.6279,-34.0515 368,-29 422.4223,-13.175 486.6828,-8.885 534.3961,-8.2952"/>
<polygon fill="#191970" stroke="#191970" points="534.6467,-11.7936 544.6213,-8.222 534.5965,-4.7938 534.6467,-11.7936"/>
</g>
<!-- Node8 -->
<g id="node9" class="node">
<title>Node8</title>
<g id="a_node9"><a xlink:href="classStateTwoOld.html#aad5fb4307dec316a5b602c2e8bfae0a8" target="_top" xlink:title="StateTwoOld::first">
<polygon fill="none" stroke="#000000" points="552.5,-76.5 552.5,-95.5 655.5,-95.5 655.5,-76.5 552.5,-76.5"/>
<text text-anchor="middle" x="604" y="-83.5" font-family="Helvetica,sans-Serif" font-size="10.00" fill="#000000">StateTwoOld::first</text>
</a>
</g>
</g>
<!-- Node3&#45;&gt;Node8 -->
<g id="edge9" class="edge">
<title>Node3&#45;&gt;Node8</title>
<path fill="none" stroke="#191970" d="M325.7907,-70.983C389.9183,-74.4445 481.7502,-79.4013 542.1089,-82.6593"/>
<polygon fill="#191970" stroke="#191970" points="542.0828,-86.1629 552.257,-83.2071 542.4602,-79.1731 542.0828,-86.1629"/>
</g>
<!-- Node6 -->
<g id="node7" class="node">
<title>Node6</title>
<g id="a_node7"><a xlink:href="classStateTwoOld.html#a33b595b744249754cb86bde5cd125c06" target="_top" xlink:title="StateTwoOld::StateTwoOld">
<polygon fill="none" stroke="#000000" points="532,-38.5 532,-57.5 676,-57.5 676,-38.5 532,-38.5"/>
<text text-anchor="middle" x="604" y="-45.5" font-family="Helvetica,sans-Serif" font-size="10.00" fill="#000000">StateTwoOld::StateTwoOld</text>
</a>
</g>
</g>
<!-- Node5&#45;&gt;Node6 -->
<g id="edge6" class="edge">
<title>Node5&#45;&gt;Node6</title>
<path fill="none" stroke="#191970" d="M486.8948,-48C497.9206,-48 509.7347,-48 521.4629,-48"/>
<polygon fill="#191970" stroke="#191970" points="521.7253,-51.5001 531.7253,-48 521.7253,-44.5001 521.7253,-51.5001"/>
</g>
<!-- Node5&#45;&gt;Node7 -->
<g id="edge7" class="edge">
<title>Node5&#45;&gt;Node7</title>
<path fill="none" stroke="#191970" d="M475.4029,-38.411C498.4068,-33.3287 526.8509,-27.0446 551.1342,-21.6797"/>
<polygon fill="#191970" stroke="#191970" points="551.8998,-25.095 560.9092,-19.5201 550.3896,-18.2598 551.8998,-25.095"/>
</g>
<!-- Node5&#45;&gt;Node8 -->
<g id="edge8" class="edge">
<title>Node5&#45;&gt;Node8</title>
<path fill="none" stroke="#191970" d="M475.4029,-57.589C498.4068,-62.6713 526.8509,-68.9554 551.1342,-74.3203"/>
<polygon fill="#191970" stroke="#191970" points="550.3896,-77.7402 560.9092,-76.4799 551.8998,-70.905 550.3896,-77.7402"/>
</g>
<!-- Node9&#45;&gt;Node4 -->
<g id="edge12" class="edge">
<title>Node9&#45;&gt;Node4</title>
<path fill="none" stroke="#191970" d="M325.2129,-135.272C335.908,-134.143 346.931,-132.9795 357.6486,-131.8482"/>
<polygon fill="#191970" stroke="#191970" points="358.2326,-135.3061 367.8099,-130.7756 357.4977,-128.3448 358.2326,-135.3061"/>
</g>
<!-- Node10&#45;&gt;Node4 -->
<g id="edge14" class="edge">
<title>Node10&#45;&gt;Node4</title>
<path fill="none" stroke="#191970" d="M332.2611,-113.472C340.7257,-114.3655 349.3066,-115.2713 357.6995,-116.1572"/>
<polygon fill="#191970" stroke="#191970" points="357.5111,-119.6566 367.8233,-117.2258 358.246,-112.6953 357.5111,-119.6566"/>
</g>
</g>
</svg>
