<?xml version="1.0" encoding="UTF-8" standalone="no"?>
<!DOCTYPE svg PUBLIC "-//W3C//DTD SVG 1.1//EN"
 "http://www.w3.org/Graphics/SVG/1.1/DTD/svg11.dtd">
<!-- Generated by graphviz version 2.40.1 (20161225.0304)
 -->
<!-- Title: /travis/pairinteraction/MatrixElementCache.h Pages: 1 -->
<svg width="754pt" height="385pt"
 viewBox="0.00 0.00 754.43 385.00" xmlns="http://www.w3.org/2000/svg" xmlns:xlink="http://www.w3.org/1999/xlink">
<g id="graph0" class="graph" transform="scale(1 1) rotate(0) translate(4 381)">
<title>/travis/pairinteraction/MatrixElementCache.h</title>
<!-- Node52 -->
<g id="node1" class="node">
<title>Node52</title>
<polygon fill="#bfbfbf" stroke="#000000" points="276.5,-346.5 276.5,-376.5 406.5,-376.5 406.5,-346.5 276.5,-346.5"/>
<text text-anchor="start" x="284.5" y="-364.5" font-family="Helvetica,sans-Serif" font-size="10.00" fill="#000000">/travis/pairinteraction</text>
<text text-anchor="middle" x="341.5" y="-353.5" font-family="Helvetica,sans-Serif" font-size="10.00" fill="#000000">/MatrixElementCache.h</text>
</g>
<!-- Node53 -->
<g id="node2" class="node">
<title>Node53</title>
<g id="a_node2"><a xlink:href="MatrixElementCache_8cpp.html" target="_top" xlink:title="/travis/pairinteraction\l/MatrixElementCache.cpp">
<polygon fill="none" stroke="#000000" points="0,-279.5 0,-309.5 141,-309.5 141,-279.5 0,-279.5"/>
<text text-anchor="start" x="8" y="-297.5" font-family="Helvetica,sans-Serif" font-size="10.00" fill="#000000">/travis/pairinteraction</text>
<text text-anchor="middle" x="70.5" y="-286.5" font-family="Helvetica,sans-Serif" font-size="10.00" fill="#000000">/MatrixElementCache.cpp</text>
</a>
</g>
</g>
<!-- Node52&#45;&gt;Node53 -->
<g id="edge1" class="edge">
<title>Node52&#45;&gt;Node53</title>
<path fill="none" stroke="#191970" d="M270.8073,-344.0225C227.6037,-333.3411 172.9018,-319.8171 131.5829,-309.6017"/>
<polygon fill="#191970" stroke="#191970" points="270.1345,-347.4615 280.6823,-346.4639 271.8146,-340.6661 270.1345,-347.4615"/>
</g>
<!-- Node54 -->
<g id="node3" class="node">
<title>Node54</title>
<g id="a_node3"><a xlink:href="State_8h.html" target="_top" xlink:title="/travis/pairinteraction\l/State.h">
<polygon fill="none" stroke="#000000" points="335.5,-279.5 335.5,-309.5 457.5,-309.5 457.5,-279.5 335.5,-279.5"/>
<text text-anchor="start" x="343.5" y="-297.5" font-family="Helvetica,sans-Serif" font-size="10.00" fill="#000000">/travis/pairinteraction</text>
<text text-anchor="middle" x="396.5" y="-286.5" font-family="Helvetica,sans-Serif" font-size="10.00" fill="#000000">/State.h</text>
</a>
</g>
</g>
<!-- Node52&#45;&gt;Node54 -->
<g id="edge2" class="edge">
<title>Node52&#45;&gt;Node54</title>
<path fill="none" stroke="#191970" d="M354.268,-338.0626C361.4733,-328.6315 370.4174,-318.0276 378.3155,-309.6432"/>
<polygon fill="#191970" stroke="#191970" points="351.3189,-336.1653 348.2195,-346.2967 356.9604,-340.3093 351.3189,-336.1653"/>
</g>
<!-- Node55 -->
<g id="node4" class="node">
<title>Node55</title>
<g id="a_node4"><a xlink:href="PerturbativeInteraction_8h.html" target="_top" xlink:title="/travis/pairinteraction\l/PerturbativeInteraction.h">
<polygon fill="none" stroke="#000000" points="208,-212.5 208,-242.5 349,-242.5 349,-212.5 208,-212.5"/>
<text text-anchor="start" x="216" y="-230.5" font-family="Helvetica,sans-Serif" font-size="10.00" fill="#000000">/travis/pairinteraction</text>
<text text-anchor="middle" x="278.5" y="-219.5" font-family="Helvetica,sans-Serif" font-size="10.00" fill="#000000">/PerturbativeInteraction.h</text>
</a>
</g>
</g>
<!-- Node52&#45;&gt;Node55 -->
<g id="edge19" class="edge">
<title>Node52&#45;&gt;Node55</title>
<path fill="none" stroke="#191970" d="M330.0136,-337.0686C317.0899,-309.58 296.4941,-265.7732 285.6751,-242.7614"/>
<polygon fill="#191970" stroke="#191970" points="326.9734,-338.8284 334.3956,-346.389 333.3082,-335.8501 326.9734,-338.8284"/>
</g>
<!-- Node58 -->
<g id="node7" class="node">
<title>Node58</title>
<g id="a_node7"><a xlink:href="SystemBase_8h.html" target="_top" xlink:title="/travis/pairinteraction\l/SystemBase.h">
<polygon fill="none" stroke="#000000" points="583.5,-212.5 583.5,-242.5 705.5,-242.5 705.5,-212.5 583.5,-212.5"/>
<text text-anchor="start" x="591.5" y="-230.5" font-family="Helvetica,sans-Serif" font-size="10.00" fill="#000000">/travis/pairinteraction</text>
<text text-anchor="middle" x="644.5" y="-219.5" font-family="Helvetica,sans-Serif" font-size="10.00" fill="#000000">/SystemBase.h</text>
</a>
</g>
</g>
<!-- Node52&#45;&gt;Node58 -->
<g id="edge20" class="edge">
<title>Node52&#45;&gt;Node58</title>
<path fill="none" stroke="#191970" d="M388.5412,-342.6793C412.0576,-333.1287 440.8914,-321.2037 466.5,-310 518.3002,-287.3375 577.7659,-259.3766 613.1754,-242.5175"/>
<polygon fill="#191970" stroke="#191970" points="387.1016,-339.4861 379.1463,-346.4835 389.7289,-345.9744 387.1016,-339.4861"/>
</g>
<!-- Node64 -->
<g id="node13" class="node">
<title>Node64</title>
<g id="a_node13"><a xlink:href="integration__test_8cpp.html" target="_top" xlink:title="/travis/pairinteraction\l/unit_test/integration\l_test.cpp">
<polygon fill="none" stroke="#000000" points="335.5,-.5 335.5,-41.5 457.5,-41.5 457.5,-.5 335.5,-.5"/>
<text text-anchor="start" x="343.5" y="-29.5" font-family="Helvetica,sans-Serif" font-size="10.00" fill="#000000">/travis/pairinteraction</text>
<text text-anchor="start" x="343.5" y="-18.5" font-family="Helvetica,sans-Serif" font-size="10.00" fill="#000000">/unit_test/integration</text>
<text text-anchor="middle" x="396.5" y="-7.5" font-family="Helvetica,sans-Serif" font-size="10.00" fill="#000000">_test.cpp</text>
</a>
</g>
</g>
<!-- Node52&#45;&gt;Node64 -->
<g id="edge21" class="edge">
<title>Node52&#45;&gt;Node64</title>
<path fill="none" stroke="#191970" d="M282.3168,-342.7868C232.5618,-322.9247 169.5,-286.1768 169.5,-227.5 169.5,-227.5 169.5,-227.5 169.5,-160.5 169.5,-82.442 268.1356,-46.6772 335.3696,-31.3656"/>
<polygon fill="#191970" stroke="#191970" points="281.1606,-346.0921 291.7505,-346.418 283.6753,-339.5593 281.1606,-346.0921"/>
</g>
<!-- Node54&#45;&gt;Node52 -->
<g id="edge3" class="edge">
<title>Node54&#45;&gt;Node52</title>
<path fill="none" stroke="#191970" d="M383.7837,-317.8698C376.5867,-327.2952 367.6443,-337.9016 359.7412,-346.2967"/>
<polygon fill="#191970" stroke="#191970" points="386.7265,-319.7756 389.8226,-309.6432 381.0836,-315.6333 386.7265,-319.7756"/>
</g>
<!-- Node54&#45;&gt;Node55 -->
<g id="edge4" class="edge">
<title>Node54&#45;&gt;Node55</title>
<path fill="none" stroke="#191970" d="M361.0227,-274.3561C343.135,-264.1995 321.7977,-252.0843 305.3014,-242.7177"/>
<polygon fill="#191970" stroke="#191970" points="359.5943,-277.5699 370.0185,-279.4639 363.0506,-271.4827 359.5943,-277.5699"/>
</g>
<!-- Node57 -->
<g id="node6" class="node">
<title>Node57</title>
<g id="a_node6"><a xlink:href="State_8cpp.html" target="_top" xlink:title="/travis/pairinteraction\l/State.cpp">
<polygon fill="none" stroke="#000000" points="443.5,-212.5 443.5,-242.5 565.5,-242.5 565.5,-212.5 443.5,-212.5"/>
<text text-anchor="start" x="451.5" y="-230.5" font-family="Helvetica,sans-Serif" font-size="10.00" fill="#000000">/travis/pairinteraction</text>
<text text-anchor="middle" x="504.5" y="-219.5" font-family="Helvetica,sans-Serif" font-size="10.00" fill="#000000">/State.cpp</text>
</a>
</g>
</g>
<!-- Node54&#45;&gt;Node57 -->
<g id="edge6" class="edge">
<title>Node54&#45;&gt;Node57</title>
<path fill="none" stroke="#191970" d="M429.4221,-274.0761C445.7005,-263.9774 465.0101,-251.9983 479.9699,-242.7177"/>
<polygon fill="#191970" stroke="#191970" points="427.3898,-271.218 420.7373,-279.4639 431.08,-277.1663 427.3898,-271.218"/>
</g>
<!-- Node54&#45;&gt;Node58 -->
<g id="edge7" class="edge">
<title>Node54&#45;&gt;Node58</title>
<path fill="none" stroke="#191970" d="M461.9433,-276.8198C501.3617,-266.1704 551.0279,-252.7525 588.6012,-242.6017"/>
<polygon fill="#191970" stroke="#191970" points="460.8971,-273.4768 452.156,-279.4639 462.7228,-280.2346 460.8971,-273.4768"/>
</g>
<!-- Node60 -->
<g id="node9" class="node">
<title>Node60</title>
<g id="a_node9"><a xlink:href="SystemOne_8h.html" target="_top" xlink:title="/travis/pairinteraction\l/SystemOne.h">
<polygon fill="none" stroke="#000000" points="424.5,-145.5 424.5,-175.5 546.5,-175.5 546.5,-145.5 424.5,-145.5"/>
<text text-anchor="start" x="432.5" y="-163.5" font-family="Helvetica,sans-Serif" font-size="10.00" fill="#000000">/travis/pairinteraction</text>
<text text-anchor="middle" x="485.5" y="-152.5" font-family="Helvetica,sans-Serif" font-size="10.00" fill="#000000">/SystemOne.h</text>
</a>
</g>
</g>
<!-- Node54&#45;&gt;Node60 -->
<g id="edge16" class="edge">
<title>Node54&#45;&gt;Node60</title>
<path fill="none" stroke="#191970" d="M405.3337,-269.5839C411.9863,-252.559 422.0769,-229.924 434.5,-212 443.8184,-198.5554 456.8244,-185.485 467.3697,-175.8757"/>
<polygon fill="#191970" stroke="#191970" points="401.8981,-268.7754 401.6456,-279.3672 408.4482,-271.2446 401.8981,-268.7754"/>
</g>
<!-- Node62 -->
<g id="node11" class="node">
<title>Node62</title>
<g id="a_node11"><a xlink:href="SystemTwo_8h.html" target="_top" xlink:title="/travis/pairinteraction\l/SystemTwo.h">
<polygon fill="none" stroke="#000000" points="583.5,-78.5 583.5,-108.5 705.5,-108.5 705.5,-78.5 583.5,-78.5"/>
<text text-anchor="start" x="591.5" y="-96.5" font-family="Helvetica,sans-Serif" font-size="10.00" fill="#000000">/travis/pairinteraction</text>
<text text-anchor="middle" x="644.5" y="-85.5" font-family="Helvetica,sans-Serif" font-size="10.00" fill="#000000">/SystemTwo.h</text>
</a>
</g>
</g>
<!-- Node54&#45;&gt;Node62 -->
<g id="edge17" class="edge">
<title>Node54&#45;&gt;Node62</title>
<path fill="none" stroke="#191970" d="M467.8083,-291.6849C550.1833,-286.9731 678.9648,-274.6422 714.5,-243 747.6344,-213.4956 755.6646,-183.4334 733.5,-145 723.9574,-128.453 706.8437,-116.7414 690.1549,-108.7137"/>
<polygon fill="#191970" stroke="#191970" points="467.5469,-288.1939 457.7532,-292.2356 467.9297,-295.1834 467.5469,-288.1939"/>
</g>
<!-- Node54&#45;&gt;Node64 -->
<g id="edge18" class="edge">
<title>Node54&#45;&gt;Node64</title>
<path fill="none" stroke="#191970" d="M396.5,-269.3998C396.5,-215.864 396.5,-91.3249 396.5,-41.8263"/>
<polygon fill="#191970" stroke="#191970" points="393.0001,-269.4058 396.5,-279.4059 400.0001,-269.4059 393.0001,-269.4058"/>
</g>
<!-- Node56 -->
<g id="node5" class="node">
<title>Node56</title>
<g id="a_node5"><a xlink:href="PerturbativeInteraction_8cpp.html" target="_top" xlink:title="/travis/pairinteraction\l/PerturbativeInteraction.cpp">
<polygon fill="none" stroke="#000000" points="197.5,-145.5 197.5,-175.5 349.5,-175.5 349.5,-145.5 197.5,-145.5"/>
<text text-anchor="start" x="205.5" y="-163.5" font-family="Helvetica,sans-Serif" font-size="10.00" fill="#000000">/travis/pairinteraction</text>
<text text-anchor="middle" x="273.5" y="-152.5" font-family="Helvetica,sans-Serif" font-size="10.00" fill="#000000">/PerturbativeInteraction.cpp</text>
</a>
</g>
</g>
<!-- Node55&#45;&gt;Node56 -->
<g id="edge5" class="edge">
<title>Node55&#45;&gt;Node56</title>
<path fill="none" stroke="#191970" d="M276.6207,-202.3179C275.9509,-193.3414 275.2175,-183.5143 274.6301,-175.6432"/>
<polygon fill="#191970" stroke="#191970" points="273.1308,-202.5849 277.3654,-212.2967 280.1114,-202.0639 273.1308,-202.5849"/>
</g>
<!-- Node59 -->
<g id="node8" class="node">
<title>Node59</title>
<g id="a_node8"><a xlink:href="SystemBase_8cpp.html" target="_top" xlink:title="/travis/pairinteraction\l/SystemBase.cpp">
<polygon fill="none" stroke="#000000" points="602.5,-145.5 602.5,-175.5 724.5,-175.5 724.5,-145.5 602.5,-145.5"/>
<text text-anchor="start" x="610.5" y="-163.5" font-family="Helvetica,sans-Serif" font-size="10.00" fill="#000000">/travis/pairinteraction</text>
<text text-anchor="middle" x="663.5" y="-152.5" font-family="Helvetica,sans-Serif" font-size="10.00" fill="#000000">/SystemBase.cpp</text>
</a>
</g>
</g>
<!-- Node58&#45;&gt;Node59 -->
<g id="edge8" class="edge">
<title>Node58&#45;&gt;Node59</title>
<path fill="none" stroke="#191970" d="M651.5583,-202.6103C654.1261,-193.5553 656.9493,-183.5998 659.2057,-175.6432"/>
<polygon fill="#191970" stroke="#191970" points="648.1725,-201.7211 648.8114,-212.2967 654.9069,-203.6309 648.1725,-201.7211"/>
</g>
<!-- Node58&#45;&gt;Node60 -->
<g id="edge9" class="edge">
<title>Node58&#45;&gt;Node60</title>
<path fill="none" stroke="#191970" d="M599.2955,-208.4516C574.5855,-198.0392 544.4069,-185.3224 521.3383,-175.6017"/>
<polygon fill="#191970" stroke="#191970" points="598.2429,-211.806 608.8173,-212.4639 600.9612,-205.3553 598.2429,-211.806"/>
</g>
<!-- Node58&#45;&gt;Node62 -->
<g id="edge15" class="edge">
<title>Node58&#45;&gt;Node62</title>
<path fill="none" stroke="#191970" d="M615.4131,-205.7568C606.669,-197.5102 598.1651,-187.3407 593.5,-176 588.2585,-163.2582 588.2585,-157.7418 593.5,-145 599.5316,-130.3373 611.9806,-117.6324 623.0686,-108.5101"/>
<polygon fill="#191970" stroke="#191970" points="613.2481,-208.5138 623.0686,-212.4899 617.8711,-203.2575 613.2481,-208.5138"/>
</g>
<!-- Node61 -->
<g id="node10" class="node">
<title>Node61</title>
<g id="a_node10"><a xlink:href="SystemOne_8cpp.html" target="_top" xlink:title="/travis/pairinteraction\l/SystemOne.cpp">
<polygon fill="none" stroke="#000000" points="443.5,-78.5 443.5,-108.5 565.5,-108.5 565.5,-78.5 443.5,-78.5"/>
<text text-anchor="start" x="451.5" y="-96.5" font-family="Helvetica,sans-Serif" font-size="10.00" fill="#000000">/travis/pairinteraction</text>
<text text-anchor="middle" x="504.5" y="-85.5" font-family="Helvetica,sans-Serif" font-size="10.00" fill="#000000">/SystemOne.cpp</text>
</a>
</g>
</g>
<!-- Node60&#45;&gt;Node61 -->
<g id="edge10" class="edge">
<title>Node60&#45;&gt;Node61</title>
<path fill="none" stroke="#191970" d="M492.5583,-135.6103C495.1261,-126.5553 497.9493,-116.5998 500.2057,-108.6432"/>
<polygon fill="#191970" stroke="#191970" points="489.1725,-134.7211 489.8114,-145.2967 495.9069,-136.6309 489.1725,-134.7211"/>
</g>
<!-- Node60&#45;&gt;Node62 -->
<g id="edge11" class="edge">
<title>Node60&#45;&gt;Node62</title>
<path fill="none" stroke="#191970" d="M530.7045,-141.4516C555.4145,-131.0392 585.5931,-118.3224 608.6617,-108.6017"/>
<polygon fill="#191970" stroke="#191970" points="529.0388,-138.3553 521.1827,-145.4639 531.7571,-144.806 529.0388,-138.3553"/>
</g>
<!-- Node60&#45;&gt;Node64 -->
<g id="edge14" class="edge">
<title>Node60&#45;&gt;Node64</title>
<path fill="none" stroke="#191970" d="M459.7561,-138.1907C450.9681,-129.6774 441.5819,-119.4843 434.5,-109 420.1551,-87.7632 409.3176,-60.2317 402.9587,-41.664"/>
<polygon fill="#191970" stroke="#191970" points="457.5587,-140.9279 467.252,-145.2048 462.3415,-135.8166 457.5587,-140.9279"/>
</g>
<!-- Node63 -->
<g id="node12" class="node">
<title>Node63</title>
<g id="a_node12"><a xlink:href="SystemTwo_8cpp.html" target="_top" xlink:title="/travis/pairinteraction\l/SystemTwo.cpp">
<polygon fill="none" stroke="#000000" points="583.5,-6 583.5,-36 705.5,-36 705.5,-6 583.5,-6"/>
<text text-anchor="start" x="591.5" y="-24" font-family="Helvetica,sans-Serif" font-size="10.00" fill="#000000">/travis/pairinteraction</text>
<text text-anchor="middle" x="644.5" y="-13" font-family="Helvetica,sans-Serif" font-size="10.00" fill="#000000">/SystemTwo.cpp</text>
</a>
</g>
</g>
<!-- Node62&#45;&gt;Node63 -->
<g id="edge12" class="edge">
<title>Node62&#45;&gt;Node63</title>
<path fill="none" stroke="#191970" d="M644.5,-68.3409C644.5,-57.5601 644.5,-45.3309 644.5,-36.0028"/>
<polygon fill="#191970" stroke="#191970" points="641.0001,-68.4779 644.5,-78.478 648.0001,-68.478 641.0001,-68.4779"/>
</g>
<!-- Node62&#45;&gt;Node64 -->
<g id="edge13" class="edge">
<title>Node62&#45;&gt;Node64</title>
<path fill="none" stroke="#191970" d="M583.1548,-75.5664C544.9875,-64.4086 496.0781,-50.1105 457.9004,-38.9497"/>
<polygon fill="#191970" stroke="#191970" points="582.5339,-79.0313 593.1142,-78.478 584.4981,-72.3125 582.5339,-79.0313"/>
</g>
</g>
</svg>
