<?xml version="1.0" encoding="UTF-8" standalone="no"?>
<!DOCTYPE svg PUBLIC "-//W3C//DTD SVG 1.1//EN"
 "http://www.w3.org/Graphics/SVG/1.1/DTD/svg11.dtd">
<!-- Generated by graphviz version 2.40.1 (20161225.0304)
 -->
<!-- Title: selectionRulesMultipole Pages: 1 -->
<svg width="554pt" height="154pt"
 viewBox="0.00 0.00 554.00 153.50" xmlns="http://www.w3.org/2000/svg" xmlns:xlink="http://www.w3.org/1999/xlink">
<g id="graph0" class="graph" transform="scale(1 1) rotate(0) translate(4 149.5)">
<title>selectionRulesMultipole</title>
<!-- Node9 -->
<g id="node1" class="node">
<title>Node9</title>
<polygon fill="#bfbfbf" stroke="#000000" points="0,-69 0,-88 133,-88 133,-69 0,-69"/>
<text text-anchor="middle" x="66.5" y="-76" font-family="Helvetica,sans-Serif" font-size="10.00" fill="#000000">selectionRulesMultipole</text>
</g>
<!-- Node10 -->
<g id="node2" class="node">
<title>Node10</title>
<g id="a_node2"><a xlink:href="classHamiltonianOne.html#a9cb71dcb34ab9f0779c0bd66b758185e" target="_top" xlink:title="HamiltonianOne::build">
<polygon fill="none" stroke="#000000" points="185.5,-126 185.5,-145 311.5,-145 311.5,-126 185.5,-126"/>
<text text-anchor="middle" x="248.5" y="-133" font-family="Helvetica,sans-Serif" font-size="10.00" fill="#000000">HamiltonianOne::build</text>
</a>
</g>
</g>
<!-- Node9&#45;&gt;Node10 -->
<g id="edge1" class="edge">
<title>Node9&#45;&gt;Node10</title>
<path fill="none" stroke="#191970" d="M99.3776,-91.8393C119.3164,-99.6395 145.3865,-109.3296 169,-116.5 180.406,-119.9635 192.8863,-123.1997 204.5078,-125.985"/>
<polygon fill="#191970" stroke="#191970" points="100.4246,-88.4897 89.8381,-88.0689 97.8515,-94.9996 100.4246,-88.4897"/>
</g>
<!-- Node12 -->
<g id="node4" class="node">
<title>Node12</title>
<g id="a_node4"><a xlink:href="classHamiltonianTwo.html#a6ca0a318f25170b69e571a07064a5afb" target="_top" xlink:title="HamiltonianTwo::calculate">
<polygon fill="none" stroke="#000000" points="175.5,-88 175.5,-107 321.5,-107 321.5,-88 175.5,-88"/>
<text text-anchor="middle" x="248.5" y="-95" font-family="Helvetica,sans-Serif" font-size="10.00" fill="#000000">HamiltonianTwo::calculate</text>
</a>
</g>
</g>
<!-- Node9&#45;&gt;Node12 -->
<g id="edge3" class="edge">
<title>Node9&#45;&gt;Node12</title>
<path fill="none" stroke="#191970" d="M143.3073,-86.5183C153.9156,-87.6258 164.7878,-88.7608 175.3279,-89.8612"/>
<polygon fill="#191970" stroke="#191970" points="143.546,-83.0243 133.2366,-85.467 142.8191,-89.9865 143.546,-83.0243"/>
</g>
<!-- Node14 -->
<g id="node6" class="node">
<title>Node14</title>
<g id="a_node6"><a xlink:href="classMatrixElements.html#a0bd2d4229fab692eb6b774fbff09cf83" target="_top" xlink:title="MatrixElements::getRadial">
<polygon fill="none" stroke="#000000" points="175.5,-50 175.5,-69 321.5,-69 321.5,-50 175.5,-50"/>
<text text-anchor="middle" x="248.5" y="-57" font-family="Helvetica,sans-Serif" font-size="10.00" fill="#000000">MatrixElements::getRadial</text>
</a>
</g>
</g>
<!-- Node9&#45;&gt;Node14 -->
<g id="edge5" class="edge">
<title>Node9&#45;&gt;Node14</title>
<path fill="none" stroke="#191970" d="M143.3073,-70.4817C153.9156,-69.3742 164.7878,-68.2392 175.3279,-67.1388"/>
<polygon fill="#191970" stroke="#191970" points="142.8191,-67.0135 133.2366,-71.533 143.546,-73.9757 142.8191,-67.0135"/>
</g>
<!-- Node15 -->
<g id="node7" class="node">
<title>Node15</title>
<g id="a_node7"><a xlink:href="classMatrixElements.html#a3b28f19f9e89e549def8c8030b695489" target="_top" xlink:title="MatrixElements::precalculate\lDiamagnetism">
<polygon fill="none" stroke="#000000" points="169,-.5 169,-30.5 328,-30.5 328,-.5 169,-.5"/>
<text text-anchor="start" x="177" y="-18.5" font-family="Helvetica,sans-Serif" font-size="10.00" fill="#000000">MatrixElements::precalculate</text>
<text text-anchor="middle" x="248.5" y="-7.5" font-family="Helvetica,sans-Serif" font-size="10.00" fill="#000000">Diamagnetism</text>
</a>
</g>
</g>
<!-- Node9&#45;&gt;Node15 -->
<g id="edge6" class="edge">
<title>Node9&#45;&gt;Node15</title>
<path fill="none" stroke="#191970" d="M100.7623,-65.3067C120.6061,-57.789 146.113,-48.3355 169,-40.5 178.7188,-37.1727 189.1618,-33.768 199.1798,-30.5848"/>
<polygon fill="#191970" stroke="#191970" points="99.3308,-62.1065 91.2294,-68.9342 101.8204,-68.6489 99.3308,-62.1065"/>
</g>
<!-- Node11 -->
<g id="node3" class="node">
<title>Node11</title>
<g id="a_node3"><a xlink:href="classHamiltonianOne.html#ad3ba2d70879a60c9f065b5a2545dfe36" target="_top" xlink:title="HamiltonianOne::HamiltonianOne">
<polygon fill="none" stroke="#000000" points="364,-126 364,-145 546,-145 546,-126 364,-126"/>
<text text-anchor="middle" x="455" y="-133" font-family="Helvetica,sans-Serif" font-size="10.00" fill="#000000">HamiltonianOne::HamiltonianOne</text>
</a>
</g>
</g>
<!-- Node10&#45;&gt;Node11 -->
<g id="edge2" class="edge">
<title>Node10&#45;&gt;Node11</title>
<path fill="none" stroke="#191970" d="M321.8083,-135.5C335.4013,-135.5 349.7523,-135.5 363.8015,-135.5"/>
<polygon fill="#191970" stroke="#191970" points="321.5789,-132.0001 311.5789,-135.5 321.5788,-139.0001 321.5789,-132.0001"/>
</g>
<!-- Node13 -->
<g id="node5" class="node">
<title>Node13</title>
<g id="a_node5"><a xlink:href="classHamiltonianTwo.html#abd374713c9b38f72265c7fe496c42b96" target="_top" xlink:title="HamiltonianTwo::HamiltonianTwo">
<polygon fill="none" stroke="#000000" points="365,-88 365,-107 545,-107 545,-88 365,-88"/>
<text text-anchor="middle" x="455" y="-95" font-family="Helvetica,sans-Serif" font-size="10.00" fill="#000000">HamiltonianTwo::HamiltonianTwo</text>
</a>
</g>
</g>
<!-- Node12&#45;&gt;Node13 -->
<g id="edge4" class="edge">
<title>Node12&#45;&gt;Node13</title>
<path fill="none" stroke="#191970" d="M331.9217,-97.5C342.8077,-97.5 353.9993,-97.5 364.9875,-97.5"/>
<polygon fill="#191970" stroke="#191970" points="331.5948,-94.0001 321.5948,-97.5 331.5947,-101.0001 331.5948,-94.0001"/>
</g>
</g>
</svg>
