<?xml version="1.0" encoding="UTF-8" standalone="no"?>
<!DOCTYPE svg PUBLIC "-//W3C//DTD SVG 1.1//EN"
 "http://www.w3.org/Graphics/SVG/1.1/DTD/svg11.dtd">
<!-- Generated by graphviz version 2.40.1 (20161225.0304)
 -->
<!-- Title: selectionRulesMomentumNew Pages: 1 -->
<svg width="573pt" height="56pt"
 viewBox="0.00 0.00 573.00 55.50" xmlns="http://www.w3.org/2000/svg" xmlns:xlink="http://www.w3.org/1999/xlink">
<g id="graph0" class="graph" transform="scale(1 1) rotate(0) translate(4 51.5)">
<title>selectionRulesMomentumNew</title>
<!-- Node4 -->
<g id="node1" class="node">
<title>Node4</title>
<polygon fill="#bfbfbf" stroke="#000000" points="0,-28 0,-47 165,-47 165,-28 0,-28"/>
<text text-anchor="middle" x="82.5" y="-35" font-family="Helvetica,sans-Serif" font-size="10.00" fill="#000000">selectionRulesMomentumNew</text>
</g>
<!-- Node5 -->
<g id="node2" class="node">
<title>Node5</title>
<g id="a_node2"><a xlink:href="classSystemOne.html#abf6d26d44765fa787251956c128644a7" target="_top" xlink:title="Method that allows base class to calculate the interaction /////. ">
<polygon fill="none" stroke="#000000" points="392,-28 392,-47 565,-47 565,-28 392,-28"/>
<text text-anchor="middle" x="478.5" y="-35" font-family="Helvetica,sans-Serif" font-size="10.00" fill="#000000">SystemOne::initializeInteraction</text>
</a>
</g>
</g>
<!-- Node4&#45;&gt;Node5 -->
<g id="edge1" class="edge">
<title>Node4&#45;&gt;Node5</title>
<path fill="none" stroke="#191970" d="M175.2535,-40.0729C183.9562,-40.2465 192.6435,-40.3942 201,-40.5 269.8834,-41.3718 287.1163,-41.3433 356,-40.5 367.5933,-40.3581 379.8024,-40.1406 391.8397,-39.8862"/>
<polygon fill="#191970" stroke="#191970" points="175.1206,-36.5694 165.0491,-39.858 174.9731,-43.5678 175.1206,-36.5694"/>
</g>
<!-- Node6 -->
<g id="node3" class="node">
<title>Node6</title>
<g id="a_node3"><a xlink:href="classMatrixElementCache.html#a41efbe3c4a7e3e5f2ed2c807a0b3178e" target="_top" xlink:title="MatrixElementCache\l::precalculateDiamagnetism">
<polygon fill="none" stroke="#000000" points="201,-.5 201,-30.5 356,-30.5 356,-.5 201,-.5"/>
<text text-anchor="start" x="209" y="-18.5" font-family="Helvetica,sans-Serif" font-size="10.00" fill="#000000">MatrixElementCache</text>
<text text-anchor="middle" x="278.5" y="-7.5" font-family="Helvetica,sans-Serif" font-size="10.00" fill="#000000">::precalculateDiamagnetism</text>
</a>
</g>
</g>
<!-- Node4&#45;&gt;Node6 -->
<g id="edge2" class="edge">
<title>Node4&#45;&gt;Node6</title>
<path fill="none" stroke="#191970" d="M175.0856,-27.1077C183.6666,-26.1446 192.3032,-25.1752 200.731,-24.2292"/>
<polygon fill="#191970" stroke="#191970" points="174.6007,-23.6401 165.0536,-28.2338 175.3816,-30.5964 174.6007,-23.6401"/>
</g>
<!-- Node6&#45;&gt;Node5 -->
<g id="edge3" class="edge">
<title>Node6&#45;&gt;Node5</title>
<path fill="none" stroke="#191970" d="M366.1122,-25.1373C374.6929,-26.0812 383.3971,-27.0387 391.967,-27.9814"/>
<polygon fill="#191970" stroke="#191970" points="366.4342,-21.6517 356.1115,-24.0373 365.6688,-28.6098 366.4342,-21.6517"/>
</g>
</g>
</svg>
