<?xml version="1.0" encoding="UTF-8" standalone="no"?>
<!DOCTYPE svg PUBLIC "-//W3C//DTD SVG 1.1//EN"
 "http://www.w3.org/Graphics/SVG/1.1/DTD/svg11.dtd">
<!-- Generated by graphviz version 2.40.1 (20161225.0304)
 -->
<!-- Title: /travis/pairinteraction/MatrixElements.h Pages: 1 -->
<svg width="397pt" height="240pt"
 viewBox="0.00 0.00 397.00 240.00" xmlns="http://www.w3.org/2000/svg" xmlns:xlink="http://www.w3.org/1999/xlink">
<g id="graph0" class="graph" transform="scale(1 1) rotate(0) translate(4 236)">
<title>/travis/pairinteraction/MatrixElements.h</title>
<!-- Node47 -->
<g id="node1" class="node">
<title>Node47</title>
<polygon fill="#bfbfbf" stroke="#000000" points="178,-201.5 178,-231.5 300,-231.5 300,-201.5 178,-201.5"/>
<text text-anchor="start" x="186" y="-219.5" font-family="Helvetica,sans-Serif" font-size="10.00" fill="#000000">/travis/pairinteraction</text>
<text text-anchor="middle" x="239" y="-208.5" font-family="Helvetica,sans-Serif" font-size="10.00" fill="#000000">/MatrixElements.h</text>
</g>
<!-- Node48 -->
<g id="node2" class="node">
<title>Node48</title>
<g id="a_node2"><a xlink:href="HamiltonianOne_8h.html" target="_top" xlink:title="/travis/pairinteraction\l/HamiltonianOne.h">
<polygon fill="none" stroke="#000000" points="89,-134.5 89,-164.5 211,-164.5 211,-134.5 89,-134.5"/>
<text text-anchor="start" x="97" y="-152.5" font-family="Helvetica,sans-Serif" font-size="10.00" fill="#000000">/travis/pairinteraction</text>
<text text-anchor="middle" x="150" y="-141.5" font-family="Helvetica,sans-Serif" font-size="10.00" fill="#000000">/HamiltonianOne.h</text>
</a>
</g>
</g>
<!-- Node47&#45;&gt;Node48 -->
<g id="edge1" class="edge">
<title>Node47&#45;&gt;Node48</title>
<path fill="none" stroke="#191970" d="M210.5257,-195.0643C197.3662,-185.1577 182.0487,-173.6265 170.1156,-164.6432"/>
<polygon fill="#191970" stroke="#191970" points="208.7103,-198.0785 218.8045,-201.2967 212.9203,-192.486 208.7103,-198.0785"/>
</g>
<!-- Node50 -->
<g id="node4" class="node">
<title>Node50</title>
<g id="a_node4"><a xlink:href="HamiltonianTwo_8h.html" target="_top" xlink:title="/travis/pairinteraction\l/HamiltonianTwo.h">
<polygon fill="none" stroke="#000000" points="178,-67.5 178,-97.5 300,-97.5 300,-67.5 178,-67.5"/>
<text text-anchor="start" x="186" y="-85.5" font-family="Helvetica,sans-Serif" font-size="10.00" fill="#000000">/travis/pairinteraction</text>
<text text-anchor="middle" x="239" y="-74.5" font-family="Helvetica,sans-Serif" font-size="10.00" fill="#000000">/HamiltonianTwo.h</text>
</a>
</g>
</g>
<!-- Node47&#45;&gt;Node50 -->
<g id="edge7" class="edge">
<title>Node47&#45;&gt;Node50</title>
<path fill="none" stroke="#191970" d="M239,-191.3415C239,-163.8131 239,-120.5714 239,-97.7614"/>
<polygon fill="#191970" stroke="#191970" points="235.5001,-191.3889 239,-201.389 242.5001,-191.389 235.5001,-191.3889"/>
</g>
<!-- Node53 -->
<g id="node7" class="node">
<title>Node53</title>
<g id="a_node7"><a xlink:href="MatrixElements_8cpp.html" target="_top" xlink:title="/travis/pairinteraction\l/MatrixElements.cpp">
<polygon fill="none" stroke="#000000" points="267,-134.5 267,-164.5 389,-164.5 389,-134.5 267,-134.5"/>
<text text-anchor="start" x="275" y="-152.5" font-family="Helvetica,sans-Serif" font-size="10.00" fill="#000000">/travis/pairinteraction</text>
<text text-anchor="middle" x="328" y="-141.5" font-family="Helvetica,sans-Serif" font-size="10.00" fill="#000000">/MatrixElements.cpp</text>
</a>
</g>
</g>
<!-- Node47&#45;&gt;Node53 -->
<g id="edge8" class="edge">
<title>Node47&#45;&gt;Node53</title>
<path fill="none" stroke="#191970" d="M267.4743,-195.0643C280.6338,-185.1577 295.9513,-173.6265 307.8844,-164.6432"/>
<polygon fill="#191970" stroke="#191970" points="265.0797,-192.486 259.1955,-201.2967 269.2897,-198.0785 265.0797,-192.486"/>
</g>
<!-- Node49 -->
<g id="node3" class="node">
<title>Node49</title>
<g id="a_node3"><a xlink:href="HamiltonianOne_8cpp.html" target="_top" xlink:title="/travis/pairinteraction\l/HamiltonianOne.cpp">
<polygon fill="none" stroke="#000000" points="0,-67.5 0,-97.5 122,-97.5 122,-67.5 0,-67.5"/>
<text text-anchor="start" x="8" y="-85.5" font-family="Helvetica,sans-Serif" font-size="10.00" fill="#000000">/travis/pairinteraction</text>
<text text-anchor="middle" x="61" y="-74.5" font-family="Helvetica,sans-Serif" font-size="10.00" fill="#000000">/HamiltonianOne.cpp</text>
</a>
</g>
</g>
<!-- Node48&#45;&gt;Node49 -->
<g id="edge2" class="edge">
<title>Node48&#45;&gt;Node49</title>
<path fill="none" stroke="#191970" d="M121.5257,-128.0643C108.3662,-118.1577 93.0487,-106.6265 81.1156,-97.6432"/>
<polygon fill="#191970" stroke="#191970" points="119.7103,-131.0785 129.8045,-134.2967 123.9203,-125.486 119.7103,-131.0785"/>
</g>
<!-- Node48&#45;&gt;Node50 -->
<g id="edge3" class="edge">
<title>Node48&#45;&gt;Node50</title>
<path fill="none" stroke="#191970" d="M178.4743,-128.0643C191.6338,-118.1577 206.9513,-106.6265 218.8844,-97.6432"/>
<polygon fill="#191970" stroke="#191970" points="176.0797,-125.486 170.1955,-134.2967 180.2897,-131.0785 176.0797,-125.486"/>
</g>
<!-- Node52 -->
<g id="node6" class="node">
<title>Node52</title>
<g id="a_node6"><a xlink:href="Interface_8cpp.html" target="_top" xlink:title="/travis/pairinteraction\l/Interface.cpp">
<polygon fill="none" stroke="#000000" points="89,-.5 89,-30.5 211,-30.5 211,-.5 89,-.5"/>
<text text-anchor="start" x="97" y="-18.5" font-family="Helvetica,sans-Serif" font-size="10.00" fill="#000000">/travis/pairinteraction</text>
<text text-anchor="middle" x="150" y="-7.5" font-family="Helvetica,sans-Serif" font-size="10.00" fill="#000000">/Interface.cpp</text>
</a>
</g>
</g>
<!-- Node48&#45;&gt;Node52 -->
<g id="edge6" class="edge">
<title>Node48&#45;&gt;Node52</title>
<path fill="none" stroke="#191970" d="M150,-124.3415C150,-96.8131 150,-53.5714 150,-30.7614"/>
<polygon fill="#191970" stroke="#191970" points="146.5001,-124.3889 150,-134.389 153.5001,-124.389 146.5001,-124.3889"/>
</g>
<!-- Node51 -->
<g id="node5" class="node">
<title>Node51</title>
<g id="a_node5"><a xlink:href="HamiltonianTwo_8cpp.html" target="_top" xlink:title="/travis/pairinteraction\l/HamiltonianTwo.cpp">
<polygon fill="none" stroke="#000000" points="229,-.5 229,-30.5 351,-30.5 351,-.5 229,-.5"/>
<text text-anchor="start" x="237" y="-18.5" font-family="Helvetica,sans-Serif" font-size="10.00" fill="#000000">/travis/pairinteraction</text>
<text text-anchor="middle" x="290" y="-7.5" font-family="Helvetica,sans-Serif" font-size="10.00" fill="#000000">/HamiltonianTwo.cpp</text>
</a>
</g>
</g>
<!-- Node50&#45;&gt;Node51 -->
<g id="edge4" class="edge">
<title>Node50&#45;&gt;Node51</title>
<path fill="none" stroke="#191970" d="M256.8404,-59.0626C264.0193,-49.6315 272.0909,-39.0276 278.4731,-30.6432"/>
<polygon fill="#191970" stroke="#191970" points="253.8446,-57.2197 250.5727,-67.2967 259.4146,-61.4595 253.8446,-57.2197"/>
</g>
<!-- Node50&#45;&gt;Node52 -->
<g id="edge5" class="edge">
<title>Node50&#45;&gt;Node52</title>
<path fill="none" stroke="#191970" d="M210.5257,-61.0643C197.3662,-51.1577 182.0487,-39.6265 170.1156,-30.6432"/>
<polygon fill="#191970" stroke="#191970" points="208.7103,-64.0785 218.8045,-67.2967 212.9203,-58.486 208.7103,-64.0785"/>
</g>
</g>
</svg>
