<?xml version="1.0" encoding="UTF-8" standalone="no"?>
<!DOCTYPE svg PUBLIC "-//W3C//DTD SVG 1.1//EN"
 "http://www.w3.org/Graphics/SVG/1.1/DTD/svg11.dtd">
<!-- Generated by graphviz version 2.40.1 (20161225.0304)
 -->
<!-- Title: /travis/pairinteraction/MatrixElements.h Pages: 1 -->
<!--zoomable 352 -->
<svg id="main" version="1.1" xmlns="http://www.w3.org/2000/svg" xmlns:xlink="http://www.w3.org/1999/xlink" xml:space="preserve" onload="init(evt)">
<style type="text/css"><![CDATA[
.edge:hover path { stroke: red; }
.edge:hover polygon { stroke: red; fill: red; }
]]></style>
<script type="text/javascript"><![CDATA[
var edges = document.getElementsByTagName('g');
if (edges && edges.length) {
  for (var i=0;i<edges.length;i++) {
    if (edges[i].id.substr(0,4)=='edge') {
      edges[i].setAttribute('class','edge');
    }
  }
}
]]></script>
        <defs>
                <circle id="rim" cx="0" cy="0" r="7"/>
                <circle id="rim2" cx="0" cy="0" r="3.5"/>
                <g id="zoomPlus">
                        <use xlink:href="#rim" fill="#404040">
                                <set attributeName="fill" to="#808080" begin="zoomplus.mouseover" end="zoomplus.mouseout"/>
                        </use>
                        <path d="M-4,0h8M0,-4v8" fill="none" stroke="white" stroke-width="1.5" pointer-events="none"/>
                </g>
                <g id="zoomMin">
                        <use xlink:href="#rim" fill="#404040">
                                <set attributeName="fill" to="#808080" begin="zoomminus.mouseover" end="zoomminus.mouseout"/>
                        </use>
                        <path d="M-4,0h8" fill="none" stroke="white" stroke-width="1.5" pointer-events="none"/>
                </g>
                <g id="dirArrow">
                        <path fill="none" stroke="white" stroke-width="1.5" d="M0,-3.0v7 M-2.5,-0.5L0,-3.0L2.5,-0.5"/>
                </g>
               <g id="resetDef">
                       <use xlink:href="#rim2" fill="#404040">
                               <set attributeName="fill" to="#808080" begin="reset.mouseover" end="reset.mouseout"/>
                       </use>
               </g>
        </defs>

<script type="text/javascript">
var viewWidth = 2064;
var viewHeight = 352;
var sectionId = 'dynsection-0';
</script>
<script xlink:href="svgpan.js"/>
<svg id="graph" class="graph">
<g id="viewport">
<title>/travis/pairinteraction/MatrixElements.h</title>
<!-- Node0 -->
<g id="node1" class="node">
<title>Node0</title>
<polygon fill="#bfbfbf" stroke="#000000" points="1115.5,-313.5 1115.5,-343.5 1237.5,-343.5 1237.5,-313.5 1115.5,-313.5"/>
<text text-anchor="start" x="1123.5" y="-331.5" font-family="Helvetica,sans-Serif" font-size="10.00" fill="#000000">/travis/pairinteraction</text>
<text text-anchor="middle" x="1176.5" y="-320.5" font-family="Helvetica,sans-Serif" font-size="10.00" fill="#000000">/MatrixElements.h</text>
</g>
<!-- Node1 -->
<g id="node2" class="node">
<title>Node1</title>
<g id="a_node2"><a xlink:href="Basisnames_8h.html" target="_top" xlink:title="Basisnames.h">
<polygon fill="none" stroke="#000000" points="1395,-252 1395,-271 1480,-271 1480,-252 1395,-252"/>
<text text-anchor="middle" x="1437.5" y="-259" font-family="Helvetica,sans-Serif" font-size="10.00" fill="#000000">Basisnames.h</text>
</a>
</g>
</g>
<!-- Node0&#45;&gt;Node1 -->
<g id="edge1" class="edge">
<title>Node0&#45;&gt;Node1</title>
<path fill="none" stroke="#191970" d="M1235.0735,-313.4639C1282.063,-301.4015 1347.1458,-284.6944 1390.7037,-273.5128"/>
<polygon fill="#191970" stroke="#191970" points="1391.6563,-276.8819 1400.4719,-271.0053 1389.9157,-270.1017 1391.6563,-276.8819"/>
</g>
<!-- Node4 -->
<g id="node5" class="node">
<title>Node4</title>
<polygon fill="none" stroke="#bfbfbf" points="510.5,-62 510.5,-81 566.5,-81 566.5,-62 510.5,-62"/>
<text text-anchor="middle" x="538.5" y="-69" font-family="Helvetica,sans-Serif" font-size="10.00" fill="#000000">sstream</text>
</g>
<!-- Node0&#45;&gt;Node4 -->
<g id="edge70" class="edge">
<title>Node0&#45;&gt;Node4</title>
<path fill="none" stroke="#191970" d="M1115.1105,-321.8825C985.4089,-306.9335 688.664,-267.333 606.5,-210 566.0008,-181.7402 548.5667,-122.3541 541.9805,-91.3293"/>
<polygon fill="#191970" stroke="#191970" points="545.3725,-90.4372 540.0223,-81.2925 538.5021,-91.7777 545.3725,-90.4372"/>
</g>
<!-- Node5 -->
<g id="node6" class="node">
<title>Node5</title>
<polygon fill="none" stroke="#bfbfbf" points="1549.5,-62 1549.5,-81 1593.5,-81 1593.5,-62 1549.5,-62"/>
<text text-anchor="middle" x="1571.5" y="-69" font-family="Helvetica,sans-Serif" font-size="10.00" fill="#000000">string</text>
</g>
<!-- Node0&#45;&gt;Node5 -->
<g id="edge71" class="edge">
<title>Node0&#45;&gt;Node5</title>
<path fill="none" stroke="#191970" d="M1237.934,-322.9999C1354.798,-311.0431 1601.5131,-278.1104 1646.5,-210 1657.0846,-193.9749 1660.0934,-162.382 1637.5,-123 1628.6601,-107.5914 1613.2163,-95.1566 1599.4897,-86.3685"/>
<polygon fill="#191970" stroke="#191970" points="1601.1739,-83.297 1590.804,-81.1254 1597.5564,-89.2898 1601.1739,-83.297"/>
</g>
<!-- Node8 -->
<g id="node9" class="node">
<title>Node8</title>
<g id="a_node9"><a xlink:href="StateOld_8h.html" target="_top" xlink:title="StateOld.h">
<polygon fill="none" stroke="#000000" points="1142.5,-190.5 1142.5,-209.5 1210.5,-209.5 1210.5,-190.5 1142.5,-190.5"/>
<text text-anchor="middle" x="1176.5" y="-197.5" font-family="Helvetica,sans-Serif" font-size="10.00" fill="#000000">StateOld.h</text>
</a>
</g>
</g>
<!-- Node0&#45;&gt;Node8 -->
<g id="edge31" class="edge">
<title>Node0&#45;&gt;Node8</title>
<path fill="none" stroke="#191970" d="M1176.5,-313.2548C1176.5,-289.9744 1176.5,-245.5607 1176.5,-219.8117"/>
<polygon fill="#191970" stroke="#191970" points="1180.0001,-219.7358 1176.5,-209.7358 1173.0001,-219.7358 1180.0001,-219.7358"/>
</g>
<!-- Node9 -->
<g id="node10" class="node">
<title>Node9</title>
<g id="a_node10"><a xlink:href="dtypes_8h.html" target="_top" xlink:title="dtypes.h">
<polygon fill="none" stroke="#000000" points="922,-129 922,-148 981,-148 981,-129 922,-129"/>
<text text-anchor="middle" x="951.5" y="-136" font-family="Helvetica,sans-Serif" font-size="10.00" fill="#000000">dtypes.h</text>
</a>
</g>
</g>
<!-- Node0&#45;&gt;Node9 -->
<g id="edge67" class="edge">
<title>Node0&#45;&gt;Node9</title>
<path fill="none" stroke="#191970" d="M1115.4945,-319.5925C1058.1265,-310.3353 977.1861,-294.7365 950.5,-277 913.7211,-252.5555 886.1088,-231.0067 902.5,-190 908.0662,-176.0746 919.3885,-163.7656 929.7482,-154.676"/>
<polygon fill="#191970" stroke="#191970" points="932.2291,-157.167 937.7218,-148.1072 927.7781,-151.7643 932.2291,-157.167"/>
</g>
<!-- Node22 -->
<g id="node23" class="node">
<title>Node22</title>
<polygon fill="none" stroke="#bfbfbf" points="1828.5,-62 1828.5,-81 1886.5,-81 1886.5,-62 1828.5,-62"/>
<text text-anchor="middle" x="1857.5" y="-69" font-family="Helvetica,sans-Serif" font-size="10.00" fill="#000000">memory</text>
</g>
<!-- Node0&#45;&gt;Node22 -->
<g id="edge69" class="edge">
<title>Node0&#45;&gt;Node22</title>
<path fill="none" stroke="#191970" d="M1237.5332,-325.4837C1315.8034,-320.4934 1455.2005,-307.8038 1570.5,-277 1645.7747,-256.8894 1662.7675,-244.7577 1732.5,-210 1776.3649,-188.1358 1796.1714,-191.6921 1827.5,-154 1842.6667,-135.7526 1850.4816,-109.1869 1854.2773,-91.1694"/>
<polygon fill="#191970" stroke="#191970" points="1857.7423,-91.681 1856.151,-81.2063 1850.8629,-90.3871 1857.7423,-91.681"/>
</g>
<!-- Node25 -->
<g id="node26" class="node">
<title>Node25</title>
<g id="a_node26"><a xlink:href="Wavefunction_8h.html" target="_top" xlink:title="Wavefunction.h">
<polygon fill="none" stroke="#000000" points="959,-252 959,-271 1052,-271 1052,-252 959,-252"/>
<text text-anchor="middle" x="1005.5" y="-259" font-family="Helvetica,sans-Serif" font-size="10.00" fill="#000000">Wavefunction.h</text>
</a>
</g>
</g>
<!-- Node0&#45;&gt;Node25 -->
<g id="edge32" class="edge">
<title>Node0&#45;&gt;Node25</title>
<path fill="none" stroke="#191970" d="M1138.1243,-313.4639C1108.528,-301.8677 1067.976,-285.9789 1039.5304,-274.8335"/>
<polygon fill="#191970" stroke="#191970" points="1040.5992,-271.4933 1030.0115,-271.1039 1038.0455,-278.0109 1040.5992,-271.4933"/>
</g>
<!-- Node29 -->
<g id="node30" class="node">
<title>Node29</title>
<polygon fill="none" stroke="#bfbfbf" points="0,-62 0,-81 93,-81 93,-62 0,-62"/>
<text text-anchor="middle" x="46.5" y="-69" font-family="Helvetica,sans-Serif" font-size="10.00" fill="#000000">unordered_map</text>
</g>
<!-- Node0&#45;&gt;Node29 -->
<g id="edge72" class="edge">
<title>Node0&#45;&gt;Node29</title>
<path fill="none" stroke="#191970" d="M1115.258,-323.5329C918.2587,-306.7505 303.6742,-247.9015 130.5,-154 100.8715,-137.9343 74.5624,-108.339 59.588,-89.3074"/>
<polygon fill="#191970" stroke="#191970" points="62.2113,-86.9759 53.3582,-81.1558 56.6496,-91.2264 62.2113,-86.9759"/>
</g>
<!-- Node46 -->
<g id="node47" class="node">
<title>Node46</title>
<polygon fill="none" stroke="#bfbfbf" points="1885.5,-246.5 1885.5,-276.5 2055.5,-276.5 2055.5,-246.5 1885.5,-246.5"/>
<text text-anchor="start" x="1893.5" y="-264.5" font-family="Helvetica,sans-Serif" font-size="10.00" fill="#000000">wignerSymbols/wignerSymbols</text>
<text text-anchor="middle" x="1970.5" y="-253.5" font-family="Helvetica,sans-Serif" font-size="10.00" fill="#000000">&#45;cpp.h</text>
</g>
<!-- Node0&#45;&gt;Node46 -->
<g id="edge68" class="edge">
<title>Node0&#45;&gt;Node46</title>
<path fill="none" stroke="#191970" d="M1237.5495,-325.6487C1358.7096,-319.6207 1638.0184,-303.8831 1871.5,-277 1872.7638,-276.8545 1874.0362,-276.7046 1875.3156,-276.5508"/>
<polygon fill="#191970" stroke="#191970" points="1875.7538,-280.0234 1885.2374,-275.3 1874.8782,-273.0784 1875.7538,-280.0234"/>
</g>
<!-- Node2 -->
<g id="node3" class="node">
<title>Node2</title>
<g id="a_node3"><a xlink:href="ConfParser_8h.html" target="_top" xlink:title="ConfParser.h">
<polygon fill="none" stroke="#000000" points="1714,-129 1714,-148 1791,-148 1791,-129 1714,-129"/>
<text text-anchor="middle" x="1752.5" y="-136" font-family="Helvetica,sans-Serif" font-size="10.00" fill="#000000">ConfParser.h</text>
</a>
</g>
</g>
<!-- Node1&#45;&gt;Node2 -->
<g id="edge2" class="edge">
<title>Node1&#45;&gt;Node2</title>
<path fill="none" stroke="#191970" d="M1480.1958,-257.3168C1526.6753,-251.5045 1602.2792,-238.3136 1661.5,-210 1690.1628,-196.2962 1718.1356,-172.2425 1735.3353,-155.853"/>
<polygon fill="#191970" stroke="#191970" points="1738.1561,-157.9907 1742.8691,-148.5018 1733.2675,-152.9805 1738.1561,-157.9907"/>
</g>
<!-- Node1&#45;&gt;Node5 -->
<g id="edge28" class="edge">
<title>Node1&#45;&gt;Node5</title>
<path fill="none" stroke="#191970" d="M1480.3377,-256.0124C1530.9569,-248.5463 1610.5904,-233.3783 1628.5,-210 1657.8598,-171.6753 1614.6476,-116.0875 1588.6893,-88.4378"/>
<polygon fill="#191970" stroke="#191970" points="1591.0639,-85.8587 1581.5929,-81.1099 1586.0353,-90.7284 1591.0639,-85.8587"/>
</g>
<!-- Node7 -->
<g id="node8" class="node">
<title>Node7</title>
<g id="a_node8"><a xlink:href="Iter_8h.html" target="_top" xlink:title="Iter.h">
<polygon fill="none" stroke="#000000" points="1351,-190.5 1351,-209.5 1392,-209.5 1392,-190.5 1351,-190.5"/>
<text text-anchor="middle" x="1371.5" y="-197.5" font-family="Helvetica,sans-Serif" font-size="10.00" fill="#000000">Iter.h</text>
</a>
</g>
</g>
<!-- Node1&#45;&gt;Node7 -->
<g id="edge7" class="edge">
<title>Node1&#45;&gt;Node7</title>
<path fill="none" stroke="#191970" d="M1427.1875,-251.8906C1417.0758,-242.4683 1401.4558,-227.9134 1389.3293,-216.6137"/>
<polygon fill="#191970" stroke="#191970" points="1391.6601,-214.0015 1381.9579,-209.7449 1386.888,-219.1228 1391.6601,-214.0015"/>
</g>
<!-- Node1&#45;&gt;Node8 -->
<g id="edge8" class="edge">
<title>Node1&#45;&gt;Node8</title>
<path fill="none" stroke="#191970" d="M1397.0051,-251.9581C1349.1832,-240.6897 1269.9211,-222.013 1220.5868,-210.3883"/>
<polygon fill="#191970" stroke="#191970" points="1221.3728,-206.9777 1210.8366,-208.0908 1219.7673,-213.7911 1221.3728,-206.9777"/>
</g>
<!-- Node1&#45;&gt;Node9 -->
<g id="edge24" class="edge">
<title>Node1&#45;&gt;Node9</title>
<path fill="none" stroke="#191970" d="M1394.8493,-257.0906C1335.4785,-250.3195 1224.9168,-235.4061 1133.5,-210 1078.1895,-194.6284 1016.538,-168.3667 981.0562,-152.309"/>
<polygon fill="#191970" stroke="#191970" points="982.3198,-149.0384 971.7695,-148.068 979.4119,-155.4058 982.3198,-149.0384"/>
</g>
<!-- Node15 -->
<g id="node16" class="node">
<title>Node15</title>
<polygon fill="none" stroke="#bfbfbf" points="1425,-62 1425,-81 1472,-81 1472,-62 1425,-62"/>
<text text-anchor="middle" x="1448.5" y="-69" font-family="Helvetica,sans-Serif" font-size="10.00" fill="#000000">vector</text>
</g>
<!-- Node1&#45;&gt;Node15 -->
<g id="edge30" class="edge">
<title>Node1&#45;&gt;Node15</title>
<path fill="none" stroke="#191970" d="M1405.0486,-251.9357C1369.5267,-239.83 1320.3734,-217.2372 1342.5,-190 1391.745,-129.3808 1465.255,-214.6192 1514.5,-154 1533.5359,-130.5674 1500.8108,-103.1629 1475.0146,-86.5804"/>
<polygon fill="#191970" stroke="#191970" points="1476.6241,-83.4609 1466.2754,-81.1905 1472.9495,-89.4189 1476.6241,-83.4609"/>
</g>
<!-- Node21 -->
<g id="node22" class="node">
<title>Node21</title>
<polygon fill="none" stroke="#bfbfbf" points="1410,-190.5 1410,-209.5 1465,-209.5 1465,-190.5 1410,-190.5"/>
<text text-anchor="middle" x="1437.5" y="-197.5" font-family="Helvetica,sans-Serif" font-size="10.00" fill="#000000">fstream</text>
</g>
<!-- Node1&#45;&gt;Node21 -->
<g id="edge25" class="edge">
<title>Node1&#45;&gt;Node21</title>
<path fill="none" stroke="#191970" d="M1437.5,-251.8906C1437.5,-243.3657 1437.5,-230.6392 1437.5,-219.9235"/>
<polygon fill="#191970" stroke="#191970" points="1441.0001,-219.7448 1437.5,-209.7449 1434.0001,-219.7449 1441.0001,-219.7448"/>
</g>
<!-- Node1&#45;&gt;Node22 -->
<g id="edge26" class="edge">
<title>Node1&#45;&gt;Node22</title>
<path fill="none" stroke="#191970" d="M1480.2508,-256.4794C1531.5148,-249.6343 1619.5323,-235.2408 1691.5,-210 1742.8946,-191.9746 1759.568,-189.9289 1800.5,-154 1821.3643,-135.6859 1838.3528,-108.1755 1848.1981,-90.0325"/>
<polygon fill="#191970" stroke="#191970" points="1851.3716,-91.517 1852.9121,-81.0347 1845.171,-88.2685 1851.3716,-91.517"/>
</g>
<!-- Node23 -->
<g id="node24" class="node">
<title>Node23</title>
<polygon fill="none" stroke="#bfbfbf" points="1483.5,-190.5 1483.5,-209.5 1515.5,-209.5 1515.5,-190.5 1483.5,-190.5"/>
<text text-anchor="middle" x="1499.5" y="-197.5" font-family="Helvetica,sans-Serif" font-size="10.00" fill="#000000">set</text>
</g>
<!-- Node1&#45;&gt;Node23 -->
<g id="edge27" class="edge">
<title>Node1&#45;&gt;Node23</title>
<path fill="none" stroke="#191970" d="M1447.1875,-251.8906C1456.5959,-242.5581 1471.0807,-228.1902 1482.4249,-216.9374"/>
<polygon fill="#191970" stroke="#191970" points="1485.0411,-219.2722 1489.6759,-209.7449 1480.1114,-214.3024 1485.0411,-219.2722"/>
</g>
<!-- Node24 -->
<g id="node25" class="node">
<title>Node24</title>
<polygon fill="none" stroke="#bfbfbf" points="1533.5,-190.5 1533.5,-209.5 1619.5,-209.5 1619.5,-190.5 1533.5,-190.5"/>
<text text-anchor="middle" x="1576.5" y="-197.5" font-family="Helvetica,sans-Serif" font-size="10.00" fill="#000000">unordered_set</text>
</g>
<!-- Node1&#45;&gt;Node24 -->
<g id="edge29" class="edge">
<title>Node1&#45;&gt;Node24</title>
<path fill="none" stroke="#191970" d="M1459.2188,-251.8906C1482.374,-241.6457 1519.2441,-225.3326 1545.4591,-213.7339"/>
<polygon fill="#191970" stroke="#191970" points="1547.205,-216.7888 1554.9338,-209.5419 1544.3727,-210.3874 1547.205,-216.7888"/>
</g>
<!-- Node3 -->
<g id="node4" class="node">
<title>Node3</title>
<polygon fill="none" stroke="#bfbfbf" points="1628.5,-62 1628.5,-81 1666.5,-81 1666.5,-62 1628.5,-62"/>
<text text-anchor="middle" x="1647.5" y="-69" font-family="Helvetica,sans-Serif" font-size="10.00" fill="#000000">map</text>
</g>
<!-- Node2&#45;&gt;Node3 -->
<g id="edge3" class="edge">
<title>Node2&#45;&gt;Node3</title>
<path fill="none" stroke="#191970" d="M1737.4561,-128.9005C1720.1466,-117.8554 1691.5023,-99.5776 1671.1911,-86.6172"/>
<polygon fill="#191970" stroke="#191970" points="1672.8288,-83.5103 1662.516,-81.0817 1669.0633,-89.4113 1672.8288,-83.5103"/>
</g>
<!-- Node2&#45;&gt;Node4 -->
<g id="edge4" class="edge">
<title>Node2&#45;&gt;Node4</title>
<path fill="none" stroke="#191970" d="M1713.7685,-135.6586C1666.6844,-132.2781 1584.7979,-126.636 1514.5,-123 1305.9588,-112.2136 779.3995,-132.064 575.5,-87 572.6948,-86.38 569.833,-85.5574 567.0057,-84.6136"/>
<polygon fill="#191970" stroke="#191970" points="568.2488,-81.3418 557.6579,-81.0558 565.7588,-87.884 568.2488,-81.3418"/>
</g>
<!-- Node2&#45;&gt;Node5 -->
<g id="edge5" class="edge">
<title>Node2&#45;&gt;Node5</title>
<path fill="none" stroke="#191970" d="M1726.5671,-128.9005C1694.0938,-116.88 1638.478,-96.293 1603.4224,-83.3166"/>
<polygon fill="#191970" stroke="#191970" points="1604.2774,-79.901 1593.6842,-79.7118 1601.8473,-86.4657 1604.2774,-79.901"/>
</g>
<!-- Node6 -->
<g id="node7" class="node">
<title>Node6</title>
<polygon fill="none" stroke="#bfbfbf" points="1685,-62 1685,-81 1810,-81 1810,-62 1685,-62"/>
<text text-anchor="middle" x="1747.5" y="-69" font-family="Helvetica,sans-Serif" font-size="10.00" fill="#000000">boost/lexical_cast.hpp</text>
</g>
<!-- Node2&#45;&gt;Node6 -->
<g id="edge6" class="edge">
<title>Node2&#45;&gt;Node6</title>
<path fill="none" stroke="#191970" d="M1751.7836,-128.9005C1751.0559,-119.149 1749.9074,-103.7597 1748.9828,-91.3695"/>
<polygon fill="#191970" stroke="#191970" points="1752.4496,-90.7934 1748.215,-81.0817 1745.469,-91.3144 1752.4496,-90.7934"/>
</g>
<!-- Node8&#45;&gt;Node5 -->
<g id="edge20" class="edge">
<title>Node8&#45;&gt;Node5</title>
<path fill="none" stroke="#191970" d="M1210.7724,-196.0907C1294.1312,-186.4811 1501.6156,-161.9124 1514.5,-154 1538.6439,-139.173 1555.1268,-109.8544 1563.9313,-90.4627"/>
<polygon fill="#191970" stroke="#191970" points="1567.2168,-91.6814 1567.9343,-81.1109 1560.7815,-88.9268 1567.2168,-91.6814"/>
</g>
<!-- Node8&#45;&gt;Node9 -->
<g id="edge9" class="edge">
<title>Node8&#45;&gt;Node9</title>
<path fill="none" stroke="#191970" d="M1142.2214,-192.2576C1105.6321,-183.7681 1046.0844,-169.3039 995.5,-154 992.7383,-153.1645 989.8932,-152.2613 987.0414,-151.3256"/>
<polygon fill="#191970" stroke="#191970" points="988.025,-147.9635 977.4307,-148.0692 985.7786,-154.5933 988.025,-147.9635"/>
</g>
<!-- Node12 -->
<g id="node13" class="node">
<title>Node12</title>
<polygon fill="none" stroke="#bfbfbf" points="1364.5,-62 1364.5,-81 1406.5,-81 1406.5,-62 1364.5,-62"/>
<text text-anchor="middle" x="1385.5" y="-69" font-family="Helvetica,sans-Serif" font-size="10.00" fill="#000000">array</text>
</g>
<!-- Node8&#45;&gt;Node12 -->
<g id="edge16" class="edge">
<title>Node8&#45;&gt;Node12</title>
<path fill="none" stroke="#191970" d="M1166.0399,-190.0055C1150.8355,-174.279 1126.2336,-143.4456 1143.5,-123 1205.1632,-49.983 1264.8575,-117.2946 1355.5,-87 1356.9248,-86.5238 1358.3649,-85.9876 1359.803,-85.4083"/>
<polygon fill="#191970" stroke="#191970" points="1361.4617,-88.4978 1369.081,-81.136 1358.5338,-82.1396 1361.4617,-88.4978"/>
</g>
<!-- Node13 -->
<g id="node14" class="node">
<title>Node13</title>
<polygon fill="none" stroke="#bfbfbf" points="1299,-62 1299,-81 1346,-81 1346,-62 1299,-62"/>
<text text-anchor="middle" x="1322.5" y="-69" font-family="Helvetica,sans-Serif" font-size="10.00" fill="#000000">cmath</text>
</g>
<!-- Node8&#45;&gt;Node13 -->
<g id="edge18" class="edge">
<title>Node8&#45;&gt;Node13</title>
<path fill="none" stroke="#191970" d="M1152.0288,-190.3462C1136.7893,-182.9011 1118.4388,-170.9799 1109.5,-154 1103.0819,-141.8084 1100.765,-133.6549 1109.5,-123 1161.2235,-59.9074 1212.0126,-112.5285 1289.5,-87 1291.1532,-86.4553 1292.8321,-85.8488 1294.512,-85.2"/>
<polygon fill="#191970" stroke="#191970" points="1296.1523,-88.3054 1303.9735,-81.1583 1293.4024,-81.8681 1296.1523,-88.3054"/>
</g>
<!-- Node16 -->
<g id="node17" class="node">
<title>Node16</title>
<polygon fill="none" stroke="#bfbfbf" points="719,-129 719,-148 862,-148 862,-129 719,-129"/>
<text text-anchor="middle" x="790.5" y="-136" font-family="Helvetica,sans-Serif" font-size="10.00" fill="#000000">boost/functional/hash.hpp</text>
</g>
<!-- Node8&#45;&gt;Node16 -->
<g id="edge17" class="edge">
<title>Node8&#45;&gt;Node16</title>
<path fill="none" stroke="#191970" d="M1142.1672,-194.8964C1086.8267,-186.6218 974.4904,-169.6264 879.5,-154 871.2687,-152.6459 862.616,-151.1854 854.0723,-149.7212"/>
<polygon fill="#191970" stroke="#191970" points="854.5738,-146.2561 844.1246,-148.0067 853.3848,-153.1544 854.5738,-146.2561"/>
</g>
<!-- Node17 -->
<g id="node18" class="node">
<title>Node17</title>
<polygon fill="none" stroke="#bfbfbf" points="865.5,-62 865.5,-81 925.5,-81 925.5,-62 865.5,-62"/>
<text text-anchor="middle" x="895.5" y="-69" font-family="Helvetica,sans-Serif" font-size="10.00" fill="#000000">iostream</text>
</g>
<!-- Node8&#45;&gt;Node17 -->
<g id="edge19" class="edge">
<title>Node8&#45;&gt;Node17</title>
<path fill="none" stroke="#191970" d="M1142.421,-198.6392C1078.8709,-195.3851 945.7812,-184.9636 913.5,-154 896.6869,-137.8731 893.8115,-109.9764 894.0487,-91.1372"/>
<polygon fill="#191970" stroke="#191970" points="897.5514,-91.1474 894.4838,-81.0064 890.5578,-90.8469 897.5514,-91.1474"/>
</g>
<!-- Node18 -->
<g id="node19" class="node">
<title>Node18</title>
<polygon fill="none" stroke="#bfbfbf" points="1398,-123.5 1398,-153.5 1505,-153.5 1505,-123.5 1398,-123.5"/>
<text text-anchor="start" x="1406" y="-141.5" font-family="Helvetica,sans-Serif" font-size="10.00" fill="#000000">boost/serialization</text>
<text text-anchor="middle" x="1451.5" y="-130.5" font-family="Helvetica,sans-Serif" font-size="10.00" fill="#000000">/array.hpp</text>
</g>
<!-- Node8&#45;&gt;Node18 -->
<g id="edge21" class="edge">
<title>Node8&#45;&gt;Node18</title>
<path fill="none" stroke="#191970" d="M1210.7123,-192.8797C1250.7068,-184.4894 1319.1402,-169.9274 1387.7821,-154.1309"/>
<polygon fill="#191970" stroke="#191970" points="1388.9521,-157.4529 1397.9078,-151.7919 1387.3766,-150.6325 1388.9521,-157.4529"/>
</g>
<!-- Node19 -->
<g id="node20" class="node">
<title>Node19</title>
<polygon fill="none" stroke="#bfbfbf" points="1152,-123.5 1152,-153.5 1259,-153.5 1259,-123.5 1152,-123.5"/>
<text text-anchor="start" x="1160" y="-141.5" font-family="Helvetica,sans-Serif" font-size="10.00" fill="#000000">boost/serialization</text>
<text text-anchor="middle" x="1205.5" y="-130.5" font-family="Helvetica,sans-Serif" font-size="10.00" fill="#000000">/string.hpp</text>
</g>
<!-- Node8&#45;&gt;Node19 -->
<g id="edge22" class="edge">
<title>Node8&#45;&gt;Node19</title>
<path fill="none" stroke="#191970" d="M1181.0313,-190.3906C1184.52,-182.9922 1189.5009,-172.4291 1194.0592,-162.7623"/>
<polygon fill="#191970" stroke="#191970" points="1197.3064,-164.0822 1198.4058,-153.5446 1190.975,-161.0967 1197.3064,-164.0822"/>
</g>
<!-- Node20 -->
<g id="node21" class="node">
<title>Node20</title>
<polygon fill="none" stroke="#bfbfbf" points="1277.5,-129 1277.5,-148 1379.5,-148 1379.5,-129 1277.5,-129"/>
<text text-anchor="middle" x="1328.5" y="-136" font-family="Helvetica,sans-Serif" font-size="10.00" fill="#000000">boost/variant.hpp</text>
</g>
<!-- Node8&#45;&gt;Node20 -->
<g id="edge23" class="edge">
<title>Node8&#45;&gt;Node20</title>
<path fill="none" stroke="#191970" d="M1200.25,-190.3906C1225.7939,-180.0554 1266.6009,-163.5447 1295.311,-151.9284"/>
<polygon fill="#191970" stroke="#191970" points="1296.9596,-155.0371 1304.9168,-148.0419 1294.334,-148.5481 1296.9596,-155.0371"/>
</g>
<!-- Node10 -->
<g id="node11" class="node">
<title>Node10</title>
<polygon fill="none" stroke="#bfbfbf" points="1105,-62 1105,-81 1182,-81 1182,-62 1105,-62"/>
<text text-anchor="middle" x="1143.5" y="-69" font-family="Helvetica,sans-Serif" font-size="10.00" fill="#000000">Eigen/Dense</text>
</g>
<!-- Node9&#45;&gt;Node10 -->
<g id="edge10" class="edge">
<title>Node9&#45;&gt;Node10</title>
<path fill="none" stroke="#191970" d="M978.4867,-128.975C984.108,-126.9961 989.9963,-124.927 995.5,-123 1033.2185,-109.7939 1076.3804,-94.7867 1106.3197,-84.3936"/>
<polygon fill="#191970" stroke="#191970" points="1107.6396,-87.6404 1115.9392,-81.0551 1105.3444,-81.0273 1107.6396,-87.6404"/>
</g>
<!-- Node11 -->
<g id="node12" class="node">
<title>Node11</title>
<polygon fill="none" stroke="#bfbfbf" points="1200.5,-62 1200.5,-81 1280.5,-81 1280.5,-62 1200.5,-62"/>
<text text-anchor="middle" x="1240.5" y="-69" font-family="Helvetica,sans-Serif" font-size="10.00" fill="#000000">Eigen/Sparse</text>
</g>
<!-- Node9&#45;&gt;Node11 -->
<g id="edge11" class="edge">
<title>Node9&#45;&gt;Node11</title>
<path fill="none" stroke="#191970" d="M976.4168,-128.9584C982.594,-126.8055 989.2388,-124.6668 995.5,-123 1081.0876,-100.216 1105.5553,-108.3976 1191.5,-87 1195.1337,-86.0953 1198.8929,-85.0707 1202.6389,-83.9897"/>
<polygon fill="#191970" stroke="#191970" points="1203.8628,-87.2765 1212.4282,-81.0406 1201.8436,-80.574 1203.8628,-87.2765"/>
</g>
<!-- Node9&#45;&gt;Node12 -->
<g id="edge12" class="edge">
<title>Node9&#45;&gt;Node12</title>
<path fill="none" stroke="#191970" d="M981.0132,-132.3634C996.5779,-129.2686 1016.0204,-125.6253 1033.5,-123 1175.9055,-101.6116 1217.6809,-128.7454 1355.5,-87 1356.9728,-86.5539 1358.459,-86.0363 1359.9403,-85.4666"/>
<polygon fill="#191970" stroke="#191970" points="1361.7894,-88.4713 1369.4528,-81.1554 1358.8998,-82.0955 1361.7894,-88.4713"/>
</g>
<!-- Node9&#45;&gt;Node13 -->
<g id="edge13" class="edge">
<title>Node9&#45;&gt;Node13</title>
<path fill="none" stroke="#191970" d="M975.8876,-128.8529C982.196,-126.6508 989.0341,-124.5158 995.5,-123 1123.6679,-92.9538 1163.0015,-123.4406 1289.5,-87 1291.4159,-86.4481 1293.36,-85.7973 1295.2963,-85.0803"/>
<polygon fill="#191970" stroke="#191970" points="1296.892,-88.206 1304.7464,-81.0955 1294.1721,-81.756 1296.892,-88.206"/>
</g>
<!-- Node14 -->
<g id="node15" class="node">
<title>Node14</title>
<polygon fill="none" stroke="#bfbfbf" points="944,-56.5 944,-86.5 1087,-86.5 1087,-56.5 944,-56.5"/>
<text text-anchor="start" x="952" y="-74.5" font-family="Helvetica,sans-Serif" font-size="10.00" fill="#000000">unsupported/Eigen/CXX11</text>
<text text-anchor="middle" x="1015.5" y="-63.5" font-family="Helvetica,sans-Serif" font-size="10.00" fill="#000000">/Tensor</text>
</g>
<!-- Node9&#45;&gt;Node14 -->
<g id="edge14" class="edge">
<title>Node9&#45;&gt;Node14</title>
<path fill="none" stroke="#191970" d="M960.6696,-128.9005C969.3456,-119.8178 982.6936,-105.8442 994.0471,-93.9585"/>
<polygon fill="#191970" stroke="#191970" points="996.7744,-96.1705 1001.1509,-86.5218 991.7126,-91.3353 996.7744,-96.1705"/>
</g>
<!-- Node9&#45;&gt;Node15 -->
<g id="edge15" class="edge">
<title>Node9&#45;&gt;Node15</title>
<path fill="none" stroke="#191970" d="M981.3784,-132.1614C996.8733,-129.05 1016.1417,-125.4531 1033.5,-123 1202.3522,-99.1376 1250.9916,-131.9165 1415.5,-87 1417.4692,-86.4623 1419.466,-85.8141 1421.4522,-85.0918"/>
<polygon fill="#191970" stroke="#191970" points="1423.254,-88.1312 1431.1175,-81.0308 1420.5424,-81.6777 1423.254,-88.1312"/>
</g>
<!-- Node25&#45;&gt;Node5 -->
<g id="edge65" class="edge">
<title>Node25&#45;&gt;Node5</title>
<path fill="none" stroke="#191970" d="M1048.235,-251.9771C1112.1287,-237.8427 1236.4049,-210.7505 1342.5,-190 1431.5673,-172.5799 1474.6994,-213.1855 1543.5,-154 1561.7222,-138.3244 1568.1108,-110.3186 1570.3356,-91.3319"/>
<polygon fill="#191970" stroke="#191970" points="1573.8448,-91.3801 1571.2371,-81.1113 1566.8719,-90.7651 1573.8448,-91.3801"/>
</g>
<!-- Node25&#45;&gt;Node9 -->
<g id="edge62" class="edge">
<title>Node25&#45;&gt;Node9</title>
<path fill="none" stroke="#191970" d="M969.1428,-251.9335C948.0304,-244.3055 923.1687,-231.2782 910.5,-210 899.3418,-191.2587 916.0073,-169.4864 931.3185,-154.9369"/>
<polygon fill="#191970" stroke="#191970" points="933.9156,-157.3104 939.0473,-148.0413 929.2554,-152.0871 933.9156,-157.3104"/>
</g>
<!-- Node25&#45;&gt;Node15 -->
<g id="edge66" class="edge">
<title>Node25&#45;&gt;Node15</title>
<path fill="none" stroke="#191970" d="M1011.8101,-251.6443C1029.1634,-225.4812 1080.5216,-154.1553 1143.5,-123 1252.8,-68.9294 1298.4879,-121.3262 1415.5,-87 1417.4132,-86.4387 1419.3552,-85.7809 1421.29,-85.0588"/>
<polygon fill="#191970" stroke="#191970" points="1422.8909,-88.1819 1430.7366,-81.0618 1420.1631,-81.7353 1422.8909,-88.1819"/>
</g>
<!-- Node26 -->
<g id="node27" class="node">
<title>Node26</title>
<g id="a_node27"><a xlink:href="QuantumDefect_8h.html" target="_top" xlink:title="QuantumDefect.h">
<polygon fill="none" stroke="#000000" points="615,-190.5 615,-209.5 718,-209.5 718,-190.5 615,-190.5"/>
<text text-anchor="middle" x="666.5" y="-197.5" font-family="Helvetica,sans-Serif" font-size="10.00" fill="#000000">QuantumDefect.h</text>
</a>
</g>
</g>
<!-- Node25&#45;&gt;Node26 -->
<g id="edge33" class="edge">
<title>Node25&#45;&gt;Node26</title>
<path fill="none" stroke="#191970" d="M958.7194,-253.0133C898.6835,-242.1218 794.3766,-223.1989 727.9795,-211.1534"/>
<polygon fill="#191970" stroke="#191970" points="728.5291,-207.696 718.0649,-209.3547 727.2795,-214.5836 728.5291,-207.696"/>
</g>
<!-- Node44 -->
<g id="node45" class="node">
<title>Node44</title>
<polygon fill="none" stroke="#bfbfbf" points="919.5,-190.5 919.5,-209.5 965.5,-209.5 965.5,-190.5 919.5,-190.5"/>
<text text-anchor="middle" x="942.5" y="-197.5" font-family="Helvetica,sans-Serif" font-size="10.00" fill="#000000">cstdio</text>
</g>
<!-- Node25&#45;&gt;Node44 -->
<g id="edge63" class="edge">
<title>Node25&#45;&gt;Node44</title>
<path fill="none" stroke="#191970" d="M995.6563,-251.8906C986.0961,-242.5581 971.3777,-228.1902 959.8505,-216.9374"/>
<polygon fill="#191970" stroke="#191970" points="962.0832,-214.2257 952.4825,-209.7449 957.1934,-219.2348 962.0832,-214.2257"/>
</g>
<!-- Node45 -->
<g id="node46" class="node">
<title>Node45</title>
<polygon fill="none" stroke="#bfbfbf" points="983.5,-190.5 983.5,-209.5 1027.5,-209.5 1027.5,-190.5 983.5,-190.5"/>
<text text-anchor="middle" x="1005.5" y="-197.5" font-family="Helvetica,sans-Serif" font-size="10.00" fill="#000000">limits</text>
</g>
<!-- Node25&#45;&gt;Node45 -->
<g id="edge64" class="edge">
<title>Node25&#45;&gt;Node45</title>
<path fill="none" stroke="#191970" d="M1005.5,-251.8906C1005.5,-243.3657 1005.5,-230.6392 1005.5,-219.9235"/>
<polygon fill="#191970" stroke="#191970" points="1009.0001,-219.7448 1005.5,-209.7449 1002.0001,-219.7449 1009.0001,-219.7448"/>
</g>
<!-- Node26&#45;&gt;Node5 -->
<g id="edge58" class="edge">
<title>Node26&#45;&gt;Node5</title>
<path fill="none" stroke="#191970" d="M718.2723,-193.6048C782.357,-185.4691 894.7561,-170.4815 990.5,-154 1058.8761,-142.2297 1074.9288,-133.5746 1143.5,-123 1292.8069,-99.9748 1331.8712,-107.831 1481.5,-87 1500.7467,-84.3205 1522.1933,-80.6539 1539.3218,-77.5596"/>
<polygon fill="#191970" stroke="#191970" points="1540.1638,-80.9637 1549.3704,-75.7208 1538.9037,-74.078 1540.1638,-80.9637"/>
</g>
<!-- Node26&#45;&gt;Node9 -->
<g id="edge56" class="edge">
<title>Node26&#45;&gt;Node9</title>
<path fill="none" stroke="#191970" d="M710.7185,-190.4581C765.6853,-178.5968 858.6909,-158.5272 911.581,-147.1141"/>
<polygon fill="#191970" stroke="#191970" points="912.5643,-150.4826 921.601,-144.9519 911.0877,-143.6401 912.5643,-150.4826"/>
</g>
<!-- Node26&#45;&gt;Node16 -->
<g id="edge61" class="edge">
<title>Node26&#45;&gt;Node16</title>
<path fill="none" stroke="#191970" d="M685.875,-190.3906C706.3495,-180.2359 738.8442,-164.1196 762.1885,-152.5416"/>
<polygon fill="#191970" stroke="#191970" points="763.8575,-155.6207 771.2611,-148.0419 760.7472,-149.3496 763.8575,-155.6207"/>
</g>
<!-- Node27 -->
<g id="node28" class="node">
<title>Node27</title>
<g id="a_node28"><a xlink:href="Cache_8h.html" target="_top" xlink:title="Cache.h">
<polygon fill="none" stroke="#000000" points="217.5,-129 217.5,-148 273.5,-148 273.5,-129 217.5,-129"/>
<text text-anchor="middle" x="245.5" y="-136" font-family="Helvetica,sans-Serif" font-size="10.00" fill="#000000">Cache.h</text>
</a>
</g>
</g>
<!-- Node26&#45;&gt;Node27 -->
<g id="edge34" class="edge">
<title>Node26&#45;&gt;Node27</title>
<path fill="none" stroke="#191970" d="M614.8771,-192.4589C529.2126,-179.9449 359.62,-155.1707 283.7495,-144.0875"/>
<polygon fill="#191970" stroke="#191970" points="284.0853,-140.5995 273.6844,-142.6172 283.0734,-147.526 284.0853,-140.5995"/>
</g>
<!-- Node28 -->
<g id="node29" class="node">
<title>Node28</title>
<polygon fill="none" stroke="#bfbfbf" points="236.5,-62 236.5,-81 284.5,-81 284.5,-62 236.5,-62"/>
<text text-anchor="middle" x="260.5" y="-69" font-family="Helvetica,sans-Serif" font-size="10.00" fill="#000000">mutex</text>
</g>
<!-- Node26&#45;&gt;Node28 -->
<g id="edge57" class="edge">
<title>Node26&#45;&gt;Node28</title>
<path fill="none" stroke="#191970" d="M631.9179,-190.498C566.3126,-172.2261 419.5191,-130.1646 298.5,-87 296.5874,-86.3178 294.6297,-85.5954 292.6606,-84.8502"/>
<polygon fill="#191970" stroke="#191970" points="293.4644,-81.406 282.8767,-81.0148 290.9095,-87.9232 293.4644,-81.406"/>
</g>
<!-- Node26&#45;&gt;Node29 -->
<g id="edge60" class="edge">
<title>Node26&#45;&gt;Node29</title>
<path fill="none" stroke="#191970" d="M614.8057,-197.2168C511.6122,-191.2668 283.5482,-176.0333 208.5,-154 155.8061,-138.5297 99.903,-105.9764 69.4965,-86.7092"/>
<polygon fill="#191970" stroke="#191970" points="71.2149,-83.653 60.9103,-81.1899 67.4297,-89.5414 71.2149,-83.653"/>
</g>
<!-- Node31 -->
<g id="node32" class="node">
<title>Node31</title>
<g id="a_node32"><a xlink:href="SQLite_8h.html" target="_top" xlink:title="SQLite.h">
<polygon fill="none" stroke="#000000" points="638,-129 638,-148 695,-148 695,-129 638,-129"/>
<text text-anchor="middle" x="666.5" y="-136" font-family="Helvetica,sans-Serif" font-size="10.00" fill="#000000">SQLite.h</text>
</a>
</g>
</g>
<!-- Node26&#45;&gt;Node31 -->
<g id="edge38" class="edge">
<title>Node26&#45;&gt;Node31</title>
<path fill="none" stroke="#191970" d="M666.5,-190.3906C666.5,-181.8657 666.5,-169.1392 666.5,-158.4235"/>
<polygon fill="#191970" stroke="#191970" points="670.0001,-158.2448 666.5,-148.2449 663.0001,-158.2449 670.0001,-158.2448"/>
</g>
<!-- Node43 -->
<g id="node44" class="node">
<title>Node43</title>
<polygon fill="none" stroke="#bfbfbf" points="579,-129 579,-148 620,-148 620,-129 579,-129"/>
<text text-anchor="middle" x="599.5" y="-136" font-family="Helvetica,sans-Serif" font-size="10.00" fill="#000000">tuple</text>
</g>
<!-- Node26&#45;&gt;Node43 -->
<g id="edge59" class="edge">
<title>Node26&#45;&gt;Node43</title>
<path fill="none" stroke="#191970" d="M656.0313,-190.3906C645.7663,-180.9683 629.9097,-166.4134 617.5994,-155.1137"/>
<polygon fill="#191970" stroke="#191970" points="619.8501,-152.4287 610.1163,-148.2449 615.1166,-157.5856 619.8501,-152.4287"/>
</g>
<!-- Node27&#45;&gt;Node28 -->
<g id="edge35" class="edge">
<title>Node27&#45;&gt;Node28</title>
<path fill="none" stroke="#191970" d="M247.6491,-128.9005C249.8546,-119.0495 253.3481,-103.4451 256.1363,-90.9912"/>
<polygon fill="#191970" stroke="#191970" points="259.5855,-91.6048 258.3549,-81.0817 252.7546,-90.0754 259.5855,-91.6048"/>
</g>
<!-- Node27&#45;&gt;Node29 -->
<g id="edge36" class="edge">
<title>Node27&#45;&gt;Node29</title>
<path fill="none" stroke="#191970" d="M217.4102,-129.0426C182.693,-117.3539 123.4612,-97.4116 84.6514,-84.3449"/>
<polygon fill="#191970" stroke="#191970" points="85.3625,-80.8913 74.7684,-81.0175 83.1288,-87.5254 85.3625,-80.8913"/>
</g>
<!-- Node30 -->
<g id="node31" class="node">
<title>Node30</title>
<polygon fill="none" stroke="#bfbfbf" points="111,-62 111,-81 218,-81 218,-62 111,-62"/>
<text text-anchor="middle" x="164.5" y="-69" font-family="Helvetica,sans-Serif" font-size="10.00" fill="#000000">boost/optional.hpp</text>
</g>
<!-- Node27&#45;&gt;Node30 -->
<g id="edge37" class="edge">
<title>Node27&#45;&gt;Node30</title>
<path fill="none" stroke="#191970" d="M233.8947,-128.9005C220.9025,-118.1539 199.6327,-100.5603 184.0602,-87.6794"/>
<polygon fill="#191970" stroke="#191970" points="186.0202,-84.7585 176.0838,-81.0817 181.5586,-90.1524 186.0202,-84.7585"/>
</g>
<!-- Node31&#45;&gt;Node4 -->
<g id="edge42" class="edge">
<title>Node31&#45;&gt;Node4</title>
<path fill="none" stroke="#191970" d="M648.1607,-128.9005C626.5844,-117.6067 590.5609,-98.7506 565.7234,-85.7497"/>
<polygon fill="#191970" stroke="#191970" points="567.2881,-82.6183 556.8053,-81.0817 564.0418,-88.8201 567.2881,-82.6183"/>
</g>
<!-- Node31&#45;&gt;Node5 -->
<g id="edge43" class="edge">
<title>Node31&#45;&gt;Node5</title>
<path fill="none" stroke="#191970" d="M689.439,-128.9987C696.1195,-126.6228 703.5048,-124.3648 710.5,-123 1047.192,-57.3118 1140.4811,-124.1823 1481.5,-87 1500.8178,-84.8937 1522.2674,-81.2515 1539.3798,-78.0268"/>
<polygon fill="#191970" stroke="#191970" points="1540.2604,-81.4215 1549.4163,-76.0903 1538.9343,-74.5482 1540.2604,-81.4215"/>
</g>
<!-- Node31&#45;&gt;Node17 -->
<g id="edge39" class="edge">
<title>Node31&#45;&gt;Node17</title>
<path fill="none" stroke="#191970" d="M692.4213,-128.8996C698.3282,-126.8431 704.6022,-124.7614 710.5,-123 774.5374,-103.8747 792.8538,-107.3893 856.5,-87 858.7832,-86.2686 861.1239,-85.4691 863.4695,-84.6311"/>
<polygon fill="#191970" stroke="#191970" points="864.8768,-87.8412 873.005,-81.0454 862.413,-81.2891 864.8768,-87.8412"/>
</g>
<!-- Node31&#45;&gt;Node22 -->
<g id="edge40" class="edge">
<title>Node31&#45;&gt;Node22</title>
<path fill="none" stroke="#191970" d="M689.4267,-128.9345C696.107,-126.5575 703.4952,-124.315 710.5,-123 952.8407,-77.5044 1578.3362,-138.37 1819.5,-87 1822.3745,-86.3877 1825.3093,-85.5703 1828.2104,-84.6297"/>
<polygon fill="#191970" stroke="#191970" points="1829.6439,-87.8312 1837.8066,-81.0769 1827.2135,-81.2667 1829.6439,-87.8312"/>
</g>
<!-- Node32 -->
<g id="node33" class="node">
<title>Node32</title>
<polygon fill="none" stroke="#bfbfbf" points="146.5,-.5 146.5,-19.5 200.5,-19.5 200.5,-.5 146.5,-.5"/>
<text text-anchor="middle" x="173.5" y="-7.5" font-family="Helvetica,sans-Serif" font-size="10.00" fill="#000000">random</text>
</g>
<!-- Node31&#45;&gt;Node32 -->
<g id="edge41" class="edge">
<title>Node31&#45;&gt;Node32</title>
<path fill="none" stroke="#191970" d="M646.4957,-128.9378C641.0833,-126.6796 635.1555,-124.4964 629.5,-123 500.9574,-88.9884 455.1702,-138.3033 332.5,-87 312.0725,-78.4568 312.7282,-66.9795 293.5,-56 267.1049,-40.9281 234.82,-28.8708 210.3886,-20.8877"/>
<polygon fill="#191970" stroke="#191970" points="211.3641,-17.5252 200.7734,-17.8229 209.2381,-24.1946 211.3641,-17.5252"/>
</g>
<!-- Node33 -->
<g id="node34" class="node">
<title>Node33</title>
<polygon fill="none" stroke="#bfbfbf" points="444.5,-62 444.5,-81 492.5,-81 492.5,-62 444.5,-62"/>
<text text-anchor="middle" x="468.5" y="-69" font-family="Helvetica,sans-Serif" font-size="10.00" fill="#000000">thread</text>
</g>
<!-- Node31&#45;&gt;Node33 -->
<g id="edge44" class="edge">
<title>Node31&#45;&gt;Node33</title>
<path fill="none" stroke="#191970" d="M644.7596,-128.8714C639.7894,-126.8163 634.498,-124.7424 629.5,-123 573.6976,-103.5466 556.8775,-107.6321 501.5,-87 499.9097,-86.4075 498.2904,-85.769 496.6658,-85.1008"/>
<polygon fill="#191970" stroke="#191970" points="498.0294,-81.877 487.4661,-81.06 495.2143,-88.2861 498.0294,-81.877"/>
</g>
<!-- Node34 -->
<g id="node35" class="node">
<title>Node34</title>
<polygon fill="none" stroke="#bfbfbf" points="535,-.5 535,-19.5 604,-19.5 604,-.5 535,-.5"/>
<text text-anchor="middle" x="569.5" y="-7.5" font-family="Helvetica,sans-Serif" font-size="10.00" fill="#000000">type_traits</text>
</g>
<!-- Node31&#45;&gt;Node34 -->
<g id="edge45" class="edge">
<title>Node31&#45;&gt;Node34</title>
<path fill="none" stroke="#191970" d="M645.6518,-128.8548C640.4541,-126.705 634.8388,-124.5937 629.5,-123 545.4699,-97.9157 491.5677,-154.4291 435.5,-87 426.6911,-76.4061 427.494,-67.213 435.5,-56 440.987,-48.3151 488.1077,-33.2979 524.9394,-22.5102"/>
<polygon fill="#191970" stroke="#191970" points="526.3824,-25.7361 535.0119,-19.5893 524.4327,-19.013 526.3824,-25.7361"/>
</g>
<!-- Node35 -->
<g id="node36" class="node">
<title>Node35</title>
<polygon fill="none" stroke="#bfbfbf" points="584.5,-56.5 584.5,-86.5 706.5,-86.5 706.5,-56.5 584.5,-56.5"/>
<text text-anchor="start" x="592.5" y="-74.5" font-family="Helvetica,sans-Serif" font-size="10.00" fill="#000000">boost/iterator/iterator</text>
<text text-anchor="middle" x="645.5" y="-63.5" font-family="Helvetica,sans-Serif" font-size="10.00" fill="#000000">_facade.hpp</text>
</g>
<!-- Node31&#45;&gt;Node35 -->
<g id="edge46" class="edge">
<title>Node31&#45;&gt;Node35</title>
<path fill="none" stroke="#191970" d="M663.4912,-128.9005C660.8342,-120.4234 656.8418,-107.6856 653.2924,-96.3614"/>
<polygon fill="#191970" stroke="#191970" points="656.539,-95.0172 650.2083,-86.5218 649.8594,-97.1109 656.539,-95.0172"/>
</g>
<!-- Node36 -->
<g id="node37" class="node">
<title>Node36</title>
<polygon fill="none" stroke="#bfbfbf" points="725,-62 725,-81 784,-81 784,-62 725,-62"/>
<text text-anchor="middle" x="754.5" y="-69" font-family="Helvetica,sans-Serif" font-size="10.00" fill="#000000">sqlite3.h</text>
</g>
<!-- Node31&#45;&gt;Node36 -->
<g id="edge47" class="edge">
<title>Node31&#45;&gt;Node36</title>
<path fill="none" stroke="#191970" d="M679.1083,-128.9005C693.3539,-118.0544 716.7599,-100.2339 733.7177,-87.3229"/>
<polygon fill="#191970" stroke="#191970" points="736.0789,-89.9241 741.9151,-81.0817 731.8385,-84.3547 736.0789,-89.9241"/>
</g>
<!-- Node37 -->
<g id="node38" class="node">
<title>Node37</title>
<polygon fill="none" stroke="#bfbfbf" points="802,-62 802,-81 847,-81 847,-62 802,-62"/>
<text text-anchor="middle" x="824.5" y="-69" font-family="Helvetica,sans-Serif" font-size="10.00" fill="#000000">utility</text>
</g>
<!-- Node31&#45;&gt;Node37 -->
<g id="edge48" class="edge">
<title>Node31&#45;&gt;Node37</title>
<path fill="none" stroke="#191970" d="M692.0487,-128.8188C717.8731,-118.875 758.8099,-102.6771 793.5,-87 794.5144,-86.5416 795.5441,-86.0685 796.5815,-85.5852"/>
<polygon fill="#191970" stroke="#191970" points="798.4363,-88.5767 805.9259,-81.0829 795.3978,-82.2705 798.4363,-88.5767"/>
</g>
<!-- Node38 -->
<g id="node39" class="node">
<title>Node38</title>
<g id="a_node39"><a xlink:href="utils_8h.html" target="_top" xlink:title="utils.h">
<polygon fill="none" stroke="#000000" points="341,-62 341,-81 388,-81 388,-62 341,-62"/>
<text text-anchor="middle" x="364.5" y="-69" font-family="Helvetica,sans-Serif" font-size="10.00" fill="#000000">utils.h</text>
</a>
</g>
</g>
<!-- Node31&#45;&gt;Node38 -->
<g id="edge49" class="edge">
<title>Node31&#45;&gt;Node38</title>
<path fill="none" stroke="#191970" d="M646.0698,-128.9166C640.7635,-126.7133 634.9932,-124.5617 629.5,-123 531.244,-95.0655 500.8864,-114.4716 402.5,-87 400.0381,-86.3126 397.5199,-85.5134 395.0097,-84.6474"/>
<polygon fill="#191970" stroke="#191970" points="396.0944,-81.316 385.5024,-81.0703 393.6293,-87.8676 396.0944,-81.316"/>
</g>
<!-- Node38&#45;&gt;Node32 -->
<g id="edge53" class="edge">
<title>Node38&#45;&gt;Node32</title>
<path fill="none" stroke="#191970" d="M342.1311,-61.963C337.0288,-59.9032 331.6056,-57.8042 326.5,-56 305.0738,-48.4286 248.3939,-31.704 210.3679,-20.6455"/>
<polygon fill="#191970" stroke="#191970" points="211.2384,-17.2537 200.6591,-17.8272 209.2869,-23.9762 211.2384,-17.2537"/>
</g>
<!-- Node38&#45;&gt;Node34 -->
<g id="edge54" class="edge">
<title>Node38&#45;&gt;Node34</title>
<path fill="none" stroke="#191970" d="M386.8382,-61.8747C391.9422,-59.8195 397.3738,-57.7446 402.5,-56 443.3934,-42.0826 490.973,-29.301 524.8611,-20.7623"/>
<polygon fill="#191970" stroke="#191970" points="526.0616,-24.0701 534.916,-18.252 524.366,-17.2786 526.0616,-24.0701"/>
</g>
<!-- Node39 -->
<g id="node40" class="node">
<title>Node39</title>
<polygon fill="none" stroke="#bfbfbf" points="292.5,-.5 292.5,-19.5 356.5,-19.5 356.5,-.5 292.5,-.5"/>
<text text-anchor="middle" x="324.5" y="-7.5" font-family="Helvetica,sans-Serif" font-size="10.00" fill="#000000">algorithm</text>
</g>
<!-- Node38&#45;&gt;Node39 -->
<g id="edge50" class="edge">
<title>Node38&#45;&gt;Node39</title>
<path fill="none" stroke="#191970" d="M358.25,-61.8906C352.4135,-52.917 343.5491,-39.2879 336.3694,-28.2491"/>
<polygon fill="#191970" stroke="#191970" points="339.2245,-26.2194 330.8381,-19.7449 333.3564,-30.0361 339.2245,-26.2194"/>
</g>
<!-- Node40 -->
<g id="node41" class="node">
<title>Node40</title>
<polygon fill="none" stroke="#bfbfbf" points="375,-.5 375,-19.5 434,-19.5 434,-.5 375,-.5"/>
<text text-anchor="middle" x="404.5" y="-7.5" font-family="Helvetica,sans-Serif" font-size="10.00" fill="#000000">complex</text>
</g>
<!-- Node38&#45;&gt;Node40 -->
<g id="edge51" class="edge">
<title>Node38&#45;&gt;Node40</title>
<path fill="none" stroke="#191970" d="M370.75,-61.8906C376.5865,-52.917 385.4509,-39.2879 392.6306,-28.2491"/>
<polygon fill="#191970" stroke="#191970" points="395.6436,-30.0361 398.1619,-19.7449 389.7755,-26.2194 395.6436,-30.0361"/>
</g>
<!-- Node41 -->
<g id="node42" class="node">
<title>Node41</title>
<polygon fill="none" stroke="#bfbfbf" points="452,-.5 452,-19.5 517,-19.5 517,-.5 452,-.5"/>
<text text-anchor="middle" x="484.5" y="-7.5" font-family="Helvetica,sans-Serif" font-size="10.00" fill="#000000">functional</text>
</g>
<!-- Node38&#45;&gt;Node41 -->
<g id="edge52" class="edge">
<title>Node38&#45;&gt;Node41</title>
<path fill="none" stroke="#191970" d="M383.25,-61.8906C402.976,-51.7811 434.2312,-35.7628 456.8,-24.1962"/>
<polygon fill="#191970" stroke="#191970" points="458.5787,-27.2176 465.8817,-19.5419 455.386,-20.9881 458.5787,-27.2176"/>
</g>
<!-- Node42 -->
<g id="node43" class="node">
<title>Node42</title>
<polygon fill="none" stroke="#bfbfbf" points="218.5,-.5 218.5,-19.5 274.5,-19.5 274.5,-.5 218.5,-.5"/>
<text text-anchor="middle" x="246.5" y="-7.5" font-family="Helvetica,sans-Serif" font-size="10.00" fill="#000000">unistd.h</text>
</g>
<!-- Node38&#45;&gt;Node42 -->
<g id="edge55" class="edge">
<title>Node38&#45;&gt;Node42</title>
<path fill="none" stroke="#191970" d="M346.0625,-61.8906C326.6653,-51.7811 295.931,-35.7628 273.7383,-24.1962"/>
<polygon fill="#191970" stroke="#191970" points="275.2936,-21.06 264.808,-19.5419 272.0582,-27.2675 275.2936,-21.06"/>
</g>
</g>
</svg>
        <g id="navigator" transform="translate(0 0)" fill="#404254">
                <rect fill="#f2f5e9" fill-opacity="0.5" stroke="#606060" stroke-width=".5" x="0" y="0" width="60" height="60"/>
                <use id="zoomplus" xlink:href="#zoomPlus" x="17" y="9" onmousedown="handleZoom(evt,'in')"/>
                <use id="zoomminus" xlink:href="#zoomMin" x="42" y="9" onmousedown="handleZoom(evt,'out')"/>
                <use id="reset" xlink:href="#resetDef" x="30" y="36" onmousedown="handleReset()"/>
                <g id="arrowUp" xlink:href="#dirArrow" transform="translate(30 24)" onmousedown="handlePan(0,-1)">
                  <use xlink:href="#rim" fill="#404040">
                        <set attributeName="fill" to="#808080" begin="arrowUp.mouseover" end="arrowUp.mouseout"/>
                  </use>
                  <path fill="none" stroke="white" stroke-width="1.5" d="M0,-3.0v7 M-2.5,-0.5L0,-3.0L2.5,-0.5"/>
                </g>
                <g id="arrowRight" xlink:href="#dirArrow" transform="rotate(90) translate(36 -43)" onmousedown="handlePan(1,0)">
                  <use xlink:href="#rim" fill="#404040">
                        <set attributeName="fill" to="#808080" begin="arrowRight.mouseover" end="arrowRight.mouseout"/>
                  </use>
                  <path fill="none" stroke="white" stroke-width="1.5" d="M0,-3.0v7 M-2.5,-0.5L0,-3.0L2.5,-0.5"/>
                </g>
                <g id="arrowDown" xlink:href="#dirArrow" transform="rotate(180) translate(-30 -48)" onmousedown="handlePan(0,1)">
                  <use xlink:href="#rim" fill="#404040">
                        <set attributeName="fill" to="#808080" begin="arrowDown.mouseover" end="arrowDown.mouseout"/>
                  </use>
                  <path fill="none" stroke="white" stroke-width="1.5" d="M0,-3.0v7 M-2.5,-0.5L0,-3.0L2.5,-0.5"/>
                </g>
                <g id="arrowLeft" xlink:href="#dirArrow" transform="rotate(270) translate(-36 17)" onmousedown="handlePan(-1,0)">
                  <use xlink:href="#rim" fill="#404040">
                        <set attributeName="fill" to="#808080" begin="arrowLeft.mouseover" end="arrowLeft.mouseout"/>
                  </use>
                  <path fill="none" stroke="white" stroke-width="1.5" d="M0,-3.0v7 M-2.5,-0.5L0,-3.0L2.5,-0.5"/>
                </g>
        </g>
        <svg viewBox="0 0 15 15" width="100%" height="30px" preserveAspectRatio="xMaxYMin meet">
         <g id="arrow_out" transform="scale(0.3 0.3)">
          <a xlink:href="MatrixElements_8h__incl_org.svg" target="_base">
           <rect id="button" ry="5" rx="5" y="6" x="6" height="38" width="38"
                fill="#f2f5e9" fill-opacity="0.5" stroke="#606060" stroke-width="1.0"/>
           <path id="arrow"
             d="M 11.500037,31.436501 C 11.940474,20.09759 22.043105,11.32322 32.158766,21.979434 L 37.068811,17.246167 C 37.068811,17.246167 37.088388,32 37.088388,32 L 22.160133,31.978069 C 22.160133,31.978069 26.997745,27.140456 26.997745,27.140456 C 18.528582,18.264221 13.291696,25.230495 11.500037,31.436501 z"
             style="fill:#404040;"/>
          </a>
         </g>
        </svg>
</svg>
