<?xml version="1.0" encoding="UTF-8" standalone="no"?>
<!DOCTYPE svg PUBLIC "-//W3C//DTD SVG 1.1//EN"
 "http://www.w3.org/Graphics/SVG/1.1/DTD/svg11.dtd">
<!-- Generated by graphviz version 2.40.1 (20161225.0304)
 -->
<!-- Title: selectionRulesMomentum Pages: 1 -->
<svg width="564pt" height="116pt"
 viewBox="0.00 0.00 564.00 115.50" xmlns="http://www.w3.org/2000/svg" xmlns:xlink="http://www.w3.org/1999/xlink">
<g id="graph0" class="graph" transform="scale(1 1) rotate(0) translate(4 111.5)">
<title>selectionRulesMomentum</title>
<!-- Node1 -->
<g id="node1" class="node">
<title>Node1</title>
<polygon fill="#bfbfbf" stroke="#000000" points="0,-50 0,-69 143,-69 143,-50 0,-50"/>
<text text-anchor="middle" x="71.5" y="-57" font-family="Helvetica,sans-Serif" font-size="10.00" fill="#000000">selectionRulesMomentum</text>
</g>
<!-- Node2 -->
<g id="node2" class="node">
<title>Node2</title>
<g id="a_node2"><a xlink:href="classHamiltonianOne.html#a9cb71dcb34ab9f0779c0bd66b758185e" target="_top" xlink:title="HamiltonianOne::build">
<polygon fill="none" stroke="#000000" points="195.5,-88 195.5,-107 321.5,-107 321.5,-88 195.5,-88"/>
<text text-anchor="middle" x="258.5" y="-95" font-family="Helvetica,sans-Serif" font-size="10.00" fill="#000000">HamiltonianOne::build</text>
</a>
</g>
</g>
<!-- Node1&#45;&gt;Node2 -->
<g id="edge1" class="edge">
<title>Node1&#45;&gt;Node2</title>
<path fill="none" stroke="#191970" d="M128.631,-71.1095C155.2267,-76.514 186.4731,-82.8635 211.6513,-87.9799"/>
<polygon fill="#191970" stroke="#191970" points="129.1847,-67.6506 118.688,-69.089 127.7907,-74.5104 129.1847,-67.6506"/>
</g>
<!-- Node4 -->
<g id="node4" class="node">
<title>Node4</title>
<g id="a_node4"><a xlink:href="classMatrixElements.html#a0bd2d4229fab692eb6b774fbff09cf83" target="_top" xlink:title="MatrixElements::getRadial">
<polygon fill="none" stroke="#000000" points="185.5,-50 185.5,-69 331.5,-69 331.5,-50 185.5,-50"/>
<text text-anchor="middle" x="258.5" y="-57" font-family="Helvetica,sans-Serif" font-size="10.00" fill="#000000">MatrixElements::getRadial</text>
</a>
</g>
</g>
<!-- Node1&#45;&gt;Node4 -->
<g id="edge3" class="edge">
<title>Node1&#45;&gt;Node4</title>
<path fill="none" stroke="#191970" d="M153.3914,-59.5C164.0385,-59.5 174.8895,-59.5 185.3807,-59.5"/>
<polygon fill="#191970" stroke="#191970" points="153.2643,-56.0001 143.2643,-59.5 153.2642,-63.0001 153.2643,-56.0001"/>
</g>
<!-- Node5 -->
<g id="node5" class="node">
<title>Node5</title>
<g id="a_node5"><a xlink:href="classMatrixElements.html#a3b28f19f9e89e549def8c8030b695489" target="_top" xlink:title="MatrixElements::precalculate\lDiamagnetism">
<polygon fill="none" stroke="#000000" points="179,-.5 179,-30.5 338,-30.5 338,-.5 179,-.5"/>
<text text-anchor="start" x="187" y="-18.5" font-family="Helvetica,sans-Serif" font-size="10.00" fill="#000000">MatrixElements::precalculate</text>
<text text-anchor="middle" x="258.5" y="-7.5" font-family="Helvetica,sans-Serif" font-size="10.00" fill="#000000">Diamagnetism</text>
</a>
</g>
</g>
<!-- Node1&#45;&gt;Node5 -->
<g id="edge4" class="edge">
<title>Node1&#45;&gt;Node5</title>
<path fill="none" stroke="#191970" d="M122.0072,-47.616C144.3155,-42.3669 170.7979,-36.1358 194.4722,-30.5654"/>
<polygon fill="#191970" stroke="#191970" points="121.0087,-44.2552 112.0762,-49.9527 122.6121,-51.0691 121.0087,-44.2552"/>
</g>
<!-- Node3 -->
<g id="node3" class="node">
<title>Node3</title>
<g id="a_node3"><a xlink:href="classHamiltonianOne.html#ad3ba2d70879a60c9f065b5a2545dfe36" target="_top" xlink:title="HamiltonianOne::HamiltonianOne">
<polygon fill="none" stroke="#000000" points="374,-88 374,-107 556,-107 556,-88 374,-88"/>
<text text-anchor="middle" x="465" y="-95" font-family="Helvetica,sans-Serif" font-size="10.00" fill="#000000">HamiltonianOne::HamiltonianOne</text>
</a>
</g>
</g>
<!-- Node2&#45;&gt;Node3 -->
<g id="edge2" class="edge">
<title>Node2&#45;&gt;Node3</title>
<path fill="none" stroke="#191970" d="M331.8083,-97.5C345.4013,-97.5 359.7523,-97.5 373.8015,-97.5"/>
<polygon fill="#191970" stroke="#191970" points="331.5789,-94.0001 321.5789,-97.5 331.5788,-101.0001 331.5789,-94.0001"/>
</g>
</g>
</svg>
