<?xml version="1.0" encoding="UTF-8" standalone="no"?>
<!DOCTYPE svg PUBLIC "-//W3C//DTD SVG 1.1//EN"
 "http://www.w3.org/Graphics/SVG/1.1/DTD/svg11.dtd">
<!-- Generated by graphviz version 2.40.1 (20161225.0304)
 -->
<!-- Title: selectionRulesMultipoleNew Pages: 1 -->
<svg width="291pt" height="104pt"
 viewBox="0.00 0.00 291.00 104.00" xmlns="http://www.w3.org/2000/svg" xmlns:xlink="http://www.w3.org/1999/xlink">
<g id="graph0" class="graph" transform="scale(1 1) rotate(0) translate(4 100)">
<title>selectionRulesMultipoleNew</title>
<!-- Node12 -->
<g id="node1" class="node">
<title>Node12</title>
<polygon fill="#bfbfbf" stroke="#000000" points="0,-38.5 0,-57.5 155,-57.5 155,-38.5 0,-38.5"/>
<text text-anchor="middle" x="77.5" y="-45.5" font-family="Helvetica,sans-Serif" font-size="10.00" fill="#000000">selectionRulesMultipoleNew</text>
</g>
<!-- Node13 -->
<g id="node2" class="node">
<title>Node13</title>
<g id="a_node2"><a xlink:href="classStateOne.html#aedba5bfce70f73fa324b9d5ae1115578" target="_top" xlink:title="StateOne::getJ">
<polygon fill="none" stroke="#000000" points="194,-76.5 194,-95.5 280,-95.5 280,-76.5 194,-76.5"/>
<text text-anchor="middle" x="237" y="-83.5" font-family="Helvetica,sans-Serif" font-size="10.00" fill="#000000">StateOne::getJ</text>
</a>
</g>
</g>
<!-- Node12&#45;&gt;Node13 -->
<g id="edge1" class="edge">
<title>Node12&#45;&gt;Node13</title>
<path fill="none" stroke="#191970" d="M117.7486,-57.589C138.7963,-62.6035 164.7552,-68.7881 187.0734,-74.1053"/>
<polygon fill="#191970" stroke="#191970" points="186.5019,-77.567 197.0408,-76.4799 188.1243,-70.7576 186.5019,-77.567"/>
</g>
<!-- Node14 -->
<g id="node3" class="node">
<title>Node14</title>
<g id="a_node3"><a xlink:href="classStateOne.html#a3783cebe5bbd63f072caf8450fea4aca" target="_top" xlink:title="StateOne::getL">
<polygon fill="none" stroke="#000000" points="192.5,-38.5 192.5,-57.5 281.5,-57.5 281.5,-38.5 192.5,-38.5"/>
<text text-anchor="middle" x="237" y="-45.5" font-family="Helvetica,sans-Serif" font-size="10.00" fill="#000000">StateOne::getL</text>
</a>
</g>
</g>
<!-- Node12&#45;&gt;Node14 -->
<g id="edge2" class="edge">
<title>Node12&#45;&gt;Node14</title>
<path fill="none" stroke="#191970" d="M155.381,-48C164.3762,-48 173.4031,-48 182.0036,-48"/>
<polygon fill="#191970" stroke="#191970" points="182.2522,-51.5001 192.2521,-48 182.2521,-44.5001 182.2522,-51.5001"/>
</g>
<!-- Node15 -->
<g id="node4" class="node">
<title>Node15</title>
<g id="a_node4"><a xlink:href="classStateOne.html#aab2b41262381d67893113ed6f5ad18bc" target="_top" xlink:title="StateOne::getM">
<polygon fill="none" stroke="#000000" points="191,-.5 191,-19.5 283,-19.5 283,-.5 191,-.5"/>
<text text-anchor="middle" x="237" y="-7.5" font-family="Helvetica,sans-Serif" font-size="10.00" fill="#000000">StateOne::getM</text>
</a>
</g>
</g>
<!-- Node12&#45;&gt;Node15 -->
<g id="edge3" class="edge">
<title>Node12&#45;&gt;Node15</title>
<path fill="none" stroke="#191970" d="M117.7486,-38.411C138.7963,-33.3965 164.7552,-27.2119 187.0734,-21.8947"/>
<polygon fill="#191970" stroke="#191970" points="188.1243,-25.2424 197.0408,-19.5201 186.5019,-18.433 188.1243,-25.2424"/>
</g>
</g>
</svg>
