<?xml version="1.0" encoding="UTF-8" standalone="no"?>
<!DOCTYPE svg PUBLIC "-//W3C//DTD SVG 1.1//EN"
 "http://www.w3.org/Graphics/SVG/1.1/DTD/svg11.dtd">
<!-- Generated by graphviz version 2.40.1 (20161225.0304)
 -->
<!-- Title: utils::is_true Pages: 1 -->
<svg width="254pt" height="88pt"
 viewBox="0.00 0.00 254.00 88.00" xmlns="http://www.w3.org/2000/svg" xmlns:xlink="http://www.w3.org/1999/xlink">
<g id="graph0" class="graph" transform="scale(1 1) rotate(0) translate(4 84)">
<title>utils::is_true</title>
<!-- Node23 -->
<g id="node1" class="node">
<title>Node23</title>
<polygon fill="#bfbfbf" stroke="#000000" points="0,-30 0,-49 77,-49 77,-30 0,-30"/>
<text text-anchor="middle" x="38.5" y="-37" font-family="Helvetica,sans-Serif" font-size="10.00" fill="#000000">utils::is_true</text>
</g>
<!-- Node24 -->
<g id="node2" class="node">
<title>Node24</title>
<g id="a_node2"><a xlink:href="classSystemBase.html#a748ead73b259b465a7974bc4dc1c578d" target="_top" xlink:title="SystemBase\&lt; StateTwo\l \&gt;::getOverlap">
<polygon fill="none" stroke="#000000" points="113,-49.5 113,-79.5 246,-79.5 246,-49.5 113,-49.5"/>
<text text-anchor="start" x="121" y="-67.5" font-family="Helvetica,sans-Serif" font-size="10.00" fill="#000000">SystemBase&lt; StateTwo</text>
<text text-anchor="middle" x="179.5" y="-56.5" font-family="Helvetica,sans-Serif" font-size="10.00" fill="#000000"> &gt;::getOverlap</text>
</a>
</g>
</g>
<!-- Node23&#45;&gt;Node24 -->
<g id="edge1" class="edge">
<title>Node23&#45;&gt;Node24</title>
<path fill="none" stroke="#191970" d="M86.9448,-48.0895C95.2901,-49.5692 104.0939,-51.1301 112.8194,-52.6772"/>
<polygon fill="#191970" stroke="#191970" points="87.4864,-44.631 77.0289,-46.3314 86.2642,-51.5235 87.4864,-44.631"/>
</g>
<!-- Node25 -->
<g id="node3" class="node">
<title>Node25</title>
<g id="a_node3"><a xlink:href="classSystemBase.html#aae9d3057b1cc88835f48b82b89065b0d" target="_top" xlink:title="Methods to manipulate entries of the Hamiltonian ///////////////. ">
<polygon fill="none" stroke="#000000" points="113,-.5 113,-30.5 246,-30.5 246,-.5 113,-.5"/>
<text text-anchor="start" x="121" y="-18.5" font-family="Helvetica,sans-Serif" font-size="10.00" fill="#000000">SystemBase&lt; StateTwo</text>
<text text-anchor="middle" x="179.5" y="-7.5" font-family="Helvetica,sans-Serif" font-size="10.00" fill="#000000"> &gt;::getStateIndex</text>
</a>
</g>
</g>
<!-- Node23&#45;&gt;Node25 -->
<g id="edge2" class="edge">
<title>Node23&#45;&gt;Node25</title>
<path fill="none" stroke="#191970" d="M86.9448,-31.2541C95.2901,-29.8336 104.0939,-28.3351 112.8194,-26.8499"/>
<polygon fill="#191970" stroke="#191970" points="86.2998,-27.8134 77.0289,-32.9419 87.4744,-34.7142 86.2998,-27.8134"/>
</g>
</g>
</svg>
