<?xml version="1.0" encoding="UTF-8" standalone="no"?>
<!DOCTYPE svg PUBLIC "-//W3C//DTD SVG 1.1//EN"
 "http://www.w3.org/Graphics/SVG/1.1/DTD/svg11.dtd">
<!-- Generated by graphviz version 2.40.1 (20161225.0304)
 -->
<!-- Title: whittaker_functions::RadialWFWhittaker Pages: 1 -->
<svg width="456pt" height="72pt"
 viewBox="0.00 0.00 456.00 71.50" xmlns="http://www.w3.org/2000/svg" xmlns:xlink="http://www.w3.org/1999/xlink">
<g id="graph0" class="graph" transform="scale(1 1) rotate(0) translate(4 67.5)">
<title>whittaker_functions::RadialWFWhittaker</title>
<!-- Node10 -->
<g id="node1" class="node">
<title>Node10</title>
<polygon fill="#bfbfbf" stroke="#000000" points="0,-14 0,-44 116,-44 116,-14 0,-14"/>
<text text-anchor="start" x="8" y="-32" font-family="Helvetica,sans-Serif" font-size="10.00" fill="#000000">whittaker_functions</text>
<text text-anchor="middle" x="58" y="-21" font-family="Helvetica,sans-Serif" font-size="10.00" fill="#000000">::RadialWFWhittaker</text>
</g>
<!-- Node11 -->
<g id="node2" class="node">
<title>Node11</title>
<g id="a_node2"><a xlink:href="classWhittaker.html#ace99701f5bf448389ba485f293fa90cb" target="_top" xlink:title="Evaluate the radial wavefunction. ">
<polygon fill="none" stroke="#000000" points="161.5,-38.5 161.5,-57.5 276.5,-57.5 276.5,-38.5 161.5,-38.5"/>
<text text-anchor="middle" x="219" y="-45.5" font-family="Helvetica,sans-Serif" font-size="10.00" fill="#000000">Whittaker::integrate</text>
</a>
</g>
</g>
<!-- Node10&#45;&gt;Node11 -->
<g id="edge1" class="edge">
<title>Node10&#45;&gt;Node11</title>
<path fill="none" stroke="#191970" d="M126.2444,-37.0537C137.8914,-38.4282 149.8889,-39.844 161.2306,-41.1825"/>
<polygon fill="#191970" stroke="#191970" points="126.466,-33.5556 116.1247,-35.8594 125.6456,-40.5074 126.466,-33.5556"/>
</g>
<!-- Node13 -->
<g id="node4" class="node">
<title>Node13</title>
<g id="a_node4"><a xlink:href="classNumerov.html#aac0e95cf7c77162c82d8e51e16bb423c" target="_top" xlink:title="Power kernel for matrix elements. ">
<polygon fill="none" stroke="#000000" points="152,-.5 152,-19.5 286,-19.5 286,-.5 152,-.5"/>
<text text-anchor="middle" x="219" y="-7.5" font-family="Helvetica,sans-Serif" font-size="10.00" fill="#000000">Numerov::power_kernel</text>
</a>
</g>
</g>
<!-- Node10&#45;&gt;Node13 -->
<g id="edge3" class="edge">
<title>Node10&#45;&gt;Node13</title>
<path fill="none" stroke="#191970" d="M126.0647,-20.9675C134.6279,-19.957 143.3834,-18.9237 151.931,-17.915"/>
<polygon fill="#191970" stroke="#191970" points="125.6456,-17.4926 116.1247,-22.1406 126.466,-24.4444 125.6456,-17.4926"/>
</g>
<!-- Node12 -->
<g id="node3" class="node">
<title>Node12</title>
<g id="a_node3"><a xlink:href="wavefunction__test_8cpp.html#adb72abe457d6e027bde21aa19c0f36a9" target="_top" xlink:title="BOOST_FIXTURE_TEST\l_CASE_TEMPLATE">
<polygon fill="none" stroke="#000000" points="322,-33 322,-63 448,-63 448,-33 322,-33"/>
<text text-anchor="start" x="330" y="-51" font-family="Helvetica,sans-Serif" font-size="10.00" fill="#000000">BOOST_FIXTURE_TEST</text>
<text text-anchor="middle" x="385" y="-40" font-family="Helvetica,sans-Serif" font-size="10.00" fill="#000000">_CASE_TEMPLATE</text>
</a>
</g>
</g>
<!-- Node11&#45;&gt;Node12 -->
<g id="edge2" class="edge">
<title>Node11&#45;&gt;Node12</title>
<path fill="none" stroke="#191970" d="M286.6768,-48C298.3006,-48 310.3398,-48 321.8393,-48"/>
<polygon fill="#191970" stroke="#191970" points="286.5929,-44.5001 276.5929,-48 286.5928,-51.5001 286.5929,-44.5001"/>
</g>
</g>
</svg>
