<?xml version="1.0" encoding="UTF-8" standalone="no"?>
<!DOCTYPE svg PUBLIC "-//W3C//DTD SVG 1.1//EN"
 "http://www.w3.org/Graphics/SVG/1.1/DTD/svg11.dtd">
<!-- Generated by graphviz version 2.40.1 (20161225.0304)
 -->
<!-- Title: model_potential::V Pages: 1 -->
<svg width="633pt" height="126pt"
 viewBox="0.00 0.00 633.00 126.00" xmlns="http://www.w3.org/2000/svg" xmlns:xlink="http://www.w3.org/1999/xlink">
<g id="graph0" class="graph" transform="scale(1 1) rotate(0) translate(4 122)">
<title>model_potential::V</title>
<!-- Node8 -->
<g id="node1" class="node">
<title>Node8</title>
<polygon fill="#bfbfbf" stroke="#000000" points="0,-50 0,-69 109,-69 109,-50 0,-50"/>
<text text-anchor="middle" x="54.5" y="-57" font-family="Helvetica,sans-Serif" font-size="10.00" fill="#000000">model_potential::V</text>
</g>
<!-- Node9 -->
<g id="node2" class="node">
<title>Node9</title>
<g id="a_node2"><a xlink:href="wavefunction__test_8cpp.html#ad533eb5be260ec2c91319b4bc1365657" target="_top" xlink:title="BOOST_FIXTURE_TEST\l_CASE_TEMPLATE">
<polygon fill="none" stroke="#000000" points="325.5,-87.5 325.5,-117.5 451.5,-117.5 451.5,-87.5 325.5,-87.5"/>
<text text-anchor="start" x="333.5" y="-105.5" font-family="Helvetica,sans-Serif" font-size="10.00" fill="#000000">BOOST_FIXTURE_TEST</text>
<text text-anchor="middle" x="388.5" y="-94.5" font-family="Helvetica,sans-Serif" font-size="10.00" fill="#000000">_CASE_TEMPLATE</text>
</a>
</g>
</g>
<!-- Node8&#45;&gt;Node9 -->
<g id="edge1" class="edge">
<title>Node8&#45;&gt;Node9</title>
<path fill="none" stroke="#191970" d="M105.4043,-71.1992C118.2744,-73.8777 132.1037,-76.5167 145,-78.5 205.984,-87.8786 276.1538,-94.3408 325.4534,-98.1769"/>
<polygon fill="#191970" stroke="#191970" points="105.8341,-67.7124 95.3246,-69.0544 104.3771,-74.5591 105.8341,-67.7124"/>
</g>
<!-- Node11 -->
<g id="node4" class="node">
<title>Node11</title>
<g id="a_node4"><a xlink:href="namespacemodel__potential.html#a8239dc44dc82bb860c84927579ddda34" target="_top" xlink:title="Helper function for Numerov&#39;s method.s. ">
<polygon fill="none" stroke="#000000" points="157.5,-50 157.5,-69 265.5,-69 265.5,-50 157.5,-50"/>
<text text-anchor="middle" x="211.5" y="-57" font-family="Helvetica,sans-Serif" font-size="10.00" fill="#000000">model_potential::g</text>
</a>
</g>
</g>
<!-- Node8&#45;&gt;Node11 -->
<g id="edge3" class="edge">
<title>Node8&#45;&gt;Node11</title>
<path fill="none" stroke="#191970" d="M119.4154,-59.5C132.0521,-59.5 145.1732,-59.5 157.4146,-59.5"/>
<polygon fill="#191970" stroke="#191970" points="119.411,-56.0001 109.411,-59.5 119.4109,-63.0001 119.411,-56.0001"/>
</g>
<!-- Node14 -->
<g id="node7" class="node">
<title>Node14</title>
<g id="a_node7"><a xlink:href="classSystemBase.html#a8da674b7b97c0b8d2dca5d9d2d7952a2" target="_top" xlink:title="SystemBase\&lt; StateTwo\l \&gt;::range">
<polygon fill="none" stroke="#000000" points="145,-.5 145,-30.5 278,-30.5 278,-.5 145,-.5"/>
<text text-anchor="start" x="153" y="-18.5" font-family="Helvetica,sans-Serif" font-size="10.00" fill="#000000">SystemBase&lt; StateTwo</text>
<text text-anchor="middle" x="211.5" y="-7.5" font-family="Helvetica,sans-Serif" font-size="10.00" fill="#000000"> &gt;::range</text>
</a>
</g>
</g>
<!-- Node8&#45;&gt;Node14 -->
<g id="edge8" class="edge">
<title>Node8&#45;&gt;Node14</title>
<path fill="none" stroke="#191970" d="M98.4306,-47.1882C116.834,-42.0306 138.4049,-35.9852 157.744,-30.5654"/>
<polygon fill="#191970" stroke="#191970" points="97.2511,-43.8839 88.5667,-49.9527 99.1402,-50.6242 97.2511,-43.8839"/>
</g>
<!-- Node10 -->
<g id="node3" class="node">
<title>Node10</title>
<g id="a_node3"><a xlink:href="wavefunction__test_8cpp.html#adb72abe457d6e027bde21aa19c0f36a9" target="_top" xlink:title="BOOST_FIXTURE_TEST\l_CASE_TEMPLATE">
<polygon fill="none" stroke="#000000" points="499,-46.5 499,-76.5 625,-76.5 625,-46.5 499,-46.5"/>
<text text-anchor="start" x="507" y="-64.5" font-family="Helvetica,sans-Serif" font-size="10.00" fill="#000000">BOOST_FIXTURE_TEST</text>
<text text-anchor="middle" x="562" y="-53.5" font-family="Helvetica,sans-Serif" font-size="10.00" fill="#000000">_CASE_TEMPLATE</text>
</a>
</g>
</g>
<!-- Node9&#45;&gt;Node10 -->
<g id="edge2" class="edge">
<title>Node9&#45;&gt;Node10</title>
<path fill="none" stroke="#191970" d="M461.5005,-85.2492C473.939,-82.3098 486.7645,-79.279 498.9187,-76.4068"/>
<polygon fill="#191970" stroke="#191970" points="460.5553,-81.876 451.6283,-87.5821 462.1652,-88.6884 460.5553,-81.876"/>
</g>
<!-- Node11&#45;&gt;Node9 -->
<g id="edge5" class="edge">
<title>Node11&#45;&gt;Node9</title>
<path fill="none" stroke="#191970" d="M260.5287,-71.4109C281.0165,-76.3882 305.0537,-82.2277 326.7299,-87.4937"/>
<polygon fill="#191970" stroke="#191970" points="261.3257,-68.0028 250.782,-69.0431 259.6731,-74.805 261.3257,-68.0028"/>
</g>
<!-- Node12 -->
<g id="node5" class="node">
<title>Node12</title>
<g id="a_node5"><a xlink:href="classSystemTwo.html#ada3dc67aecef241fd7f39ddb9e973aa0" target="_top" xlink:title="Method that allows base class to construct Hamiltonian /////////. ">
<polygon fill="none" stroke="#000000" points="314,-49 314,-68 463,-68 463,-49 314,-49"/>
<text text-anchor="middle" x="388.5" y="-56" font-family="Helvetica,sans-Serif" font-size="10.00" fill="#000000">SystemTwo::addInteraction</text>
</a>
</g>
</g>
<!-- Node11&#45;&gt;Node12 -->
<g id="edge4" class="edge">
<title>Node11&#45;&gt;Node12</title>
<path fill="none" stroke="#191970" d="M275.7836,-59.1368C288.1655,-59.0669 301.2325,-58.993 313.909,-58.9214"/>
<polygon fill="#191970" stroke="#191970" points="275.5476,-55.638 265.5676,-59.1945 275.5872,-62.6379 275.5476,-55.638"/>
</g>
<!-- Node13 -->
<g id="node6" class="node">
<title>Node13</title>
<g id="a_node6"><a xlink:href="classNumerov.html#abe0bc223b504ce1f4736c1879582de8e" target="_top" xlink:title="Perform the integration. ">
<polygon fill="none" stroke="#000000" points="332.5,-11 332.5,-30 444.5,-30 444.5,-11 332.5,-11"/>
<text text-anchor="middle" x="388.5" y="-18" font-family="Helvetica,sans-Serif" font-size="10.00" fill="#000000">Numerov::integrate</text>
</a>
</g>
</g>
<!-- Node11&#45;&gt;Node13 -->
<g id="edge6" class="edge">
<title>Node11&#45;&gt;Node13</title>
<path fill="none" stroke="#191970" d="M264.7808,-47.7602C290.5421,-42.0839 321.0611,-35.3594 345.3415,-30.0095"/>
<polygon fill="#191970" stroke="#191970" points="263.8117,-44.3897 254.7991,-49.9595 265.318,-51.2257 263.8117,-44.3897"/>
</g>
<!-- Node13&#45;&gt;Node10 -->
<g id="edge7" class="edge">
<title>Node13&#45;&gt;Node10</title>
<path fill="none" stroke="#191970" d="M438.5833,-32.3353C457.3951,-36.7807 479.0261,-41.8923 498.8717,-46.5821"/>
<polygon fill="#191970" stroke="#191970" points="439.2774,-28.9029 428.7405,-30.0093 437.6675,-35.7153 439.2774,-28.9029"/>
</g>
</g>
</svg>
