<?xml version="1.0" encoding="UTF-8" standalone="no"?>
<!DOCTYPE svg PUBLIC "-//W3C//DTD SVG 1.1//EN"
 "http://www.w3.org/Graphics/SVG/1.1/DTD/svg11.dtd">
<!-- Generated by graphviz version 2.40.1 (20161225.0304)
 -->
<!-- Title: model_potential::V Pages: 1 -->
<!--zoomable 126 -->
<svg id="main" version="1.1" xmlns="http://www.w3.org/2000/svg" xmlns:xlink="http://www.w3.org/1999/xlink" xml:space="preserve" onload="init(evt)">
<style type="text/css"><![CDATA[
.edge:hover path { stroke: red; }
.edge:hover polygon { stroke: red; fill: red; }
]]></style>
<script type="text/javascript"><![CDATA[
var edges = document.getElementsByTagName('g');
if (edges && edges.length) {
  for (var i=0;i<edges.length;i++) {
    if (edges[i].id.substr(0,4)=='edge') {
      edges[i].setAttribute('class','edge');
    }
  }
}
]]></script>
        <defs>
                <circle id="rim" cx="0" cy="0" r="7"/>
                <circle id="rim2" cx="0" cy="0" r="3.5"/>
                <g id="zoomPlus">
                        <use xlink:href="#rim" fill="#404040">
                                <set attributeName="fill" to="#808080" begin="zoomplus.mouseover" end="zoomplus.mouseout"/>
                        </use>
                        <path d="M-4,0h8M0,-4v8" fill="none" stroke="white" stroke-width="1.5" pointer-events="none"/>
                </g>
                <g id="zoomMin">
                        <use xlink:href="#rim" fill="#404040">
                                <set attributeName="fill" to="#808080" begin="zoomminus.mouseover" end="zoomminus.mouseout"/>
                        </use>
                        <path d="M-4,0h8" fill="none" stroke="white" stroke-width="1.5" pointer-events="none"/>
                </g>
                <g id="dirArrow">
                        <path fill="none" stroke="white" stroke-width="1.5" d="M0,-3.0v7 M-2.5,-0.5L0,-3.0L2.5,-0.5"/>
                </g>
               <g id="resetDef">
                       <use xlink:href="#rim2" fill="#404040">
                               <set attributeName="fill" to="#808080" begin="reset.mouseover" end="reset.mouseout"/>
                       </use>
               </g>
        </defs>

<script type="text/javascript">
var viewWidth = 633;
var viewHeight = 126;
var sectionId = 'dynsection-2';
</script>
<script xlink:href="svgpan.js"/>
<svg id="graph" class="graph">
<g id="viewport">
<title>model_potential::V</title>
<!-- Node8 -->
<g id="node1" class="node">
<title>Node8</title>
<polygon fill="#bfbfbf" stroke="#000000" points="0,-50 0,-69 109,-69 109,-50 0,-50"/>
<text text-anchor="middle" x="54.5" y="-57" font-family="Helvetica,sans-Serif" font-size="10.00" fill="#000000">model_potential::V</text>
</g>
<!-- Node9 -->
<g id="node2" class="node">
<title>Node9</title>
<g id="a_node2"><a xlink:href="wavefunction__test_8cpp.html#ad533eb5be260ec2c91319b4bc1365657" target="_top" xlink:title="BOOST_FIXTURE_TEST\l_CASE_TEMPLATE">
<polygon fill="none" stroke="#000000" points="325.5,-87.5 325.5,-117.5 451.5,-117.5 451.5,-87.5 325.5,-87.5"/>
<text text-anchor="start" x="333.5" y="-105.5" font-family="Helvetica,sans-Serif" font-size="10.00" fill="#000000">BOOST_FIXTURE_TEST</text>
<text text-anchor="middle" x="388.5" y="-94.5" font-family="Helvetica,sans-Serif" font-size="10.00" fill="#000000">_CASE_TEMPLATE</text>
</a>
</g>
</g>
<!-- Node8&#45;&gt;Node9 -->
<g id="edge1" class="edge">
<title>Node8&#45;&gt;Node9</title>
<path fill="none" stroke="#191970" d="M105.4043,-71.1992C118.2744,-73.8777 132.1037,-76.5167 145,-78.5 205.984,-87.8786 276.1538,-94.3408 325.4534,-98.1769"/>
<polygon fill="#191970" stroke="#191970" points="105.8341,-67.7124 95.3246,-69.0544 104.3771,-74.5591 105.8341,-67.7124"/>
</g>
<!-- Node11 -->
<g id="node4" class="node">
<title>Node11</title>
<g id="a_node4"><a xlink:href="namespacemodel__potential.html#a8239dc44dc82bb860c84927579ddda34" target="_top" xlink:title="Helper function for Numerov&#39;s method.s. ">
<polygon fill="none" stroke="#000000" points="157.5,-50 157.5,-69 265.5,-69 265.5,-50 157.5,-50"/>
<text text-anchor="middle" x="211.5" y="-57" font-family="Helvetica,sans-Serif" font-size="10.00" fill="#000000">model_potential::g</text>
</a>
</g>
</g>
<!-- Node8&#45;&gt;Node11 -->
<g id="edge3" class="edge">
<title>Node8&#45;&gt;Node11</title>
<path fill="none" stroke="#191970" d="M119.4154,-59.5C132.0521,-59.5 145.1732,-59.5 157.4146,-59.5"/>
<polygon fill="#191970" stroke="#191970" points="119.411,-56.0001 109.411,-59.5 119.4109,-63.0001 119.411,-56.0001"/>
</g>
<!-- Node14 -->
<g id="node7" class="node">
<title>Node14</title>
<g id="a_node7"><a xlink:href="classSystemBase.html#a8da674b7b97c0b8d2dca5d9d2d7952a2" target="_top" xlink:title="SystemBase\&lt; StateTwo\l \&gt;::range">
<polygon fill="none" stroke="#000000" points="145,-.5 145,-30.5 278,-30.5 278,-.5 145,-.5"/>
<text text-anchor="start" x="153" y="-18.5" font-family="Helvetica,sans-Serif" font-size="10.00" fill="#000000">SystemBase&lt; StateTwo</text>
<text text-anchor="middle" x="211.5" y="-7.5" font-family="Helvetica,sans-Serif" font-size="10.00" fill="#000000"> &gt;::range</text>
</a>
</g>
</g>
<!-- Node8&#45;&gt;Node14 -->
<g id="edge8" class="edge">
<title>Node8&#45;&gt;Node14</title>
<path fill="none" stroke="#191970" d="M98.4306,-47.1882C116.834,-42.0306 138.4049,-35.9852 157.744,-30.5654"/>
<polygon fill="#191970" stroke="#191970" points="97.2511,-43.8839 88.5667,-49.9527 99.1402,-50.6242 97.2511,-43.8839"/>
</g>
<!-- Node10 -->
<g id="node3" class="node">
<title>Node10</title>
<g id="a_node3"><a xlink:href="wavefunction__test_8cpp.html#adb72abe457d6e027bde21aa19c0f36a9" target="_top" xlink:title="BOOST_FIXTURE_TEST\l_CASE_TEMPLATE">
<polygon fill="none" stroke="#000000" points="499,-46.5 499,-76.5 625,-76.5 625,-46.5 499,-46.5"/>
<text text-anchor="start" x="507" y="-64.5" font-family="Helvetica,sans-Serif" font-size="10.00" fill="#000000">BOOST_FIXTURE_TEST</text>
<text text-anchor="middle" x="562" y="-53.5" font-family="Helvetica,sans-Serif" font-size="10.00" fill="#000000">_CASE_TEMPLATE</text>
</a>
</g>
</g>
<!-- Node9&#45;&gt;Node10 -->
<g id="edge2" class="edge">
<title>Node9&#45;&gt;Node10</title>
<path fill="none" stroke="#191970" d="M461.5005,-85.2492C473.939,-82.3098 486.7645,-79.279 498.9187,-76.4068"/>
<polygon fill="#191970" stroke="#191970" points="460.5553,-81.876 451.6283,-87.5821 462.1652,-88.6884 460.5553,-81.876"/>
</g>
<!-- Node11&#45;&gt;Node9 -->
<g id="edge5" class="edge">
<title>Node11&#45;&gt;Node9</title>
<path fill="none" stroke="#191970" d="M260.5287,-71.4109C281.0165,-76.3882 305.0537,-82.2277 326.7299,-87.4937"/>
<polygon fill="#191970" stroke="#191970" points="261.3257,-68.0028 250.782,-69.0431 259.6731,-74.805 261.3257,-68.0028"/>
</g>
<!-- Node12 -->
<g id="node5" class="node">
<title>Node12</title>
<g id="a_node5"><a xlink:href="classSystemTwo.html#ada3dc67aecef241fd7f39ddb9e973aa0" target="_top" xlink:title="Method that allows base class to construct Hamiltonian /////////. ">
<polygon fill="none" stroke="#000000" points="314,-49 314,-68 463,-68 463,-49 314,-49"/>
<text text-anchor="middle" x="388.5" y="-56" font-family="Helvetica,sans-Serif" font-size="10.00" fill="#000000">SystemTwo::addInteraction</text>
</a>
</g>
</g>
<!-- Node11&#45;&gt;Node12 -->
<g id="edge4" class="edge">
<title>Node11&#45;&gt;Node12</title>
<path fill="none" stroke="#191970" d="M275.7836,-59.1368C288.1655,-59.0669 301.2325,-58.993 313.909,-58.9214"/>
<polygon fill="#191970" stroke="#191970" points="275.5476,-55.638 265.5676,-59.1945 275.5872,-62.6379 275.5476,-55.638"/>
</g>
<!-- Node13 -->
<g id="node6" class="node">
<title>Node13</title>
<g id="a_node6"><a xlink:href="classNumerov.html#abe0bc223b504ce1f4736c1879582de8e" target="_top" xlink:title="Perform the integration. ">
<polygon fill="none" stroke="#000000" points="332.5,-11 332.5,-30 444.5,-30 444.5,-11 332.5,-11"/>
<text text-anchor="middle" x="388.5" y="-18" font-family="Helvetica,sans-Serif" font-size="10.00" fill="#000000">Numerov::integrate</text>
</a>
</g>
</g>
<!-- Node11&#45;&gt;Node13 -->
<g id="edge6" class="edge">
<title>Node11&#45;&gt;Node13</title>
<path fill="none" stroke="#191970" d="M264.7808,-47.7602C290.5421,-42.0839 321.0611,-35.3594 345.3415,-30.0095"/>
<polygon fill="#191970" stroke="#191970" points="263.8117,-44.3897 254.7991,-49.9595 265.318,-51.2257 263.8117,-44.3897"/>
</g>
<!-- Node13&#45;&gt;Node10 -->
<g id="edge7" class="edge">
<title>Node13&#45;&gt;Node10</title>
<path fill="none" stroke="#191970" d="M438.5833,-32.3353C457.3951,-36.7807 479.0261,-41.8923 498.8717,-46.5821"/>
<polygon fill="#191970" stroke="#191970" points="439.2774,-28.9029 428.7405,-30.0093 437.6675,-35.7153 439.2774,-28.9029"/>
</g>
</g>
</svg>
        <g id="navigator" transform="translate(0 0)" fill="#404254">
                <rect fill="#f2f5e9" fill-opacity="0.5" stroke="#606060" stroke-width=".5" x="0" y="0" width="60" height="60"/>
                <use id="zoomplus" xlink:href="#zoomPlus" x="17" y="9" onmousedown="handleZoom(evt,'in')"/>
                <use id="zoomminus" xlink:href="#zoomMin" x="42" y="9" onmousedown="handleZoom(evt,'out')"/>
                <use id="reset" xlink:href="#resetDef" x="30" y="36" onmousedown="handleReset()"/>
                <g id="arrowUp" xlink:href="#dirArrow" transform="translate(30 24)" onmousedown="handlePan(0,-1)">
                  <use xlink:href="#rim" fill="#404040">
                        <set attributeName="fill" to="#808080" begin="arrowUp.mouseover" end="arrowUp.mouseout"/>
                  </use>
                  <path fill="none" stroke="white" stroke-width="1.5" d="M0,-3.0v7 M-2.5,-0.5L0,-3.0L2.5,-0.5"/>
                </g>
                <g id="arrowRight" xlink:href="#dirArrow" transform="rotate(90) translate(36 -43)" onmousedown="handlePan(1,0)">
                  <use xlink:href="#rim" fill="#404040">
                        <set attributeName="fill" to="#808080" begin="arrowRight.mouseover" end="arrowRight.mouseout"/>
                  </use>
                  <path fill="none" stroke="white" stroke-width="1.5" d="M0,-3.0v7 M-2.5,-0.5L0,-3.0L2.5,-0.5"/>
                </g>
                <g id="arrowDown" xlink:href="#dirArrow" transform="rotate(180) translate(-30 -48)" onmousedown="handlePan(0,1)">
                  <use xlink:href="#rim" fill="#404040">
                        <set attributeName="fill" to="#808080" begin="arrowDown.mouseover" end="arrowDown.mouseout"/>
                  </use>
                  <path fill="none" stroke="white" stroke-width="1.5" d="M0,-3.0v7 M-2.5,-0.5L0,-3.0L2.5,-0.5"/>
                </g>
                <g id="arrowLeft" xlink:href="#dirArrow" transform="rotate(270) translate(-36 17)" onmousedown="handlePan(-1,0)">
                  <use xlink:href="#rim" fill="#404040">
                        <set attributeName="fill" to="#808080" begin="arrowLeft.mouseover" end="arrowLeft.mouseout"/>
                  </use>
                  <path fill="none" stroke="white" stroke-width="1.5" d="M0,-3.0v7 M-2.5,-0.5L0,-3.0L2.5,-0.5"/>
                </g>
        </g>
        <svg viewBox="0 0 15 15" width="100%" height="30px" preserveAspectRatio="xMaxYMin meet">
         <g id="arrow_out" transform="scale(0.3 0.3)">
          <a xlink:href="namespacemodel__potential_adce6f491eb622389e7db9e598516614d_icgraph_org.svg" target="_base">
           <rect id="button" ry="5" rx="5" y="6" x="6" height="38" width="38"
                fill="#f2f5e9" fill-opacity="0.5" stroke="#606060" stroke-width="1.0"/>
           <path id="arrow"
             d="M 11.500037,31.436501 C 11.940474,20.09759 22.043105,11.32322 32.158766,21.979434 L 37.068811,17.246167 C 37.068811,17.246167 37.088388,32 37.088388,32 L 22.160133,31.978069 C 22.160133,31.978069 26.997745,27.140456 26.997745,27.140456 C 18.528582,18.264221 13.291696,25.230495 11.500037,31.436501 z"
             style="fill:#404040;"/>
          </a>
         </g>
        </svg>
</svg>
