<?xml version="1.0" encoding="UTF-8" standalone="no"?>
<!DOCTYPE svg PUBLIC "-//W3C//DTD SVG 1.1//EN"
 "http://www.w3.org/Graphics/SVG/1.1/DTD/svg11.dtd">
<!-- Generated by graphviz version 2.40.1 (20161225.0304)
 -->
<!-- Title: utils::FNV64 Pages: 1 -->
<svg width="234pt" height="88pt"
 viewBox="0.00 0.00 234.00 88.00" xmlns="http://www.w3.org/2000/svg" xmlns:xlink="http://www.w3.org/1999/xlink">
<g id="graph0" class="graph" transform="scale(1 1) rotate(0) translate(4 84)">
<title>utils::FNV64</title>
<!-- Node11 -->
<g id="node1" class="node">
<title>Node11</title>
<polygon fill="#bfbfbf" stroke="#000000" points="0,-30 0,-49 75,-49 75,-30 0,-30"/>
<text text-anchor="middle" x="37.5" y="-37" font-family="Helvetica,sans-Serif" font-size="10.00" fill="#000000">utils::FNV64</text>
</g>
<!-- Node12 -->
<g id="node2" class="node">
<title>Node12</title>
<g id="a_node2"><a xlink:href="classHamiltonianmatrix.html#a1e43ece7300d46f751f02c3260a14bfb" target="_top" xlink:title="Hamiltonianmatrix::\lhashBasis">
<polygon fill="none" stroke="#000000" points="111,-49.5 111,-79.5 226,-79.5 226,-49.5 111,-49.5"/>
<text text-anchor="start" x="119" y="-67.5" font-family="Helvetica,sans-Serif" font-size="10.00" fill="#000000">Hamiltonianmatrix::</text>
<text text-anchor="middle" x="168.5" y="-56.5" font-family="Helvetica,sans-Serif" font-size="10.00" fill="#000000">hashBasis</text>
</a>
</g>
</g>
<!-- Node11&#45;&gt;Node12 -->
<g id="edge1" class="edge">
<title>Node11&#45;&gt;Node12</title>
<path fill="none" stroke="#191970" d="M85.0376,-48.5721C93.442,-50.176 102.2741,-51.8615 110.9194,-53.5113"/>
<polygon fill="#191970" stroke="#191970" points="85.5182,-45.1007 75.0393,-46.664 84.2059,-51.9766 85.5182,-45.1007"/>
</g>
<!-- Node13 -->
<g id="node3" class="node">
<title>Node13</title>
<g id="a_node3"><a xlink:href="classHamiltonianmatrix.html#aebafe9543f93f3956fff32192efd86ce" target="_top" xlink:title="Hamiltonianmatrix::\lhashEntries">
<polygon fill="none" stroke="#000000" points="111,-.5 111,-30.5 226,-30.5 226,-.5 111,-.5"/>
<text text-anchor="start" x="119" y="-18.5" font-family="Helvetica,sans-Serif" font-size="10.00" fill="#000000">Hamiltonianmatrix::</text>
<text text-anchor="middle" x="168.5" y="-7.5" font-family="Helvetica,sans-Serif" font-size="10.00" fill="#000000">hashEntries</text>
</a>
</g>
</g>
<!-- Node11&#45;&gt;Node13 -->
<g id="edge2" class="edge">
<title>Node11&#45;&gt;Node13</title>
<path fill="none" stroke="#191970" d="M85.0376,-30.7908C93.442,-29.2511 102.2741,-27.633 110.9194,-26.0491"/>
<polygon fill="#191970" stroke="#191970" points="84.2449,-27.3777 75.0393,-32.6226 85.5064,-34.2631 84.2449,-27.3777"/>
</g>
</g>
</svg>
