<?xml version="1.0" encoding="UTF-8" standalone="no"?>
<!DOCTYPE svg PUBLIC "-//W3C//DTD SVG 1.1//EN"
 "http://www.w3.org/Graphics/SVG/1.1/DTD/svg11.dtd">
<!-- Generated by graphviz version 2.40.1 (20161225.0304)
 -->
<!-- Title: model_potential::g Pages: 1 -->
<svg width="463pt" height="116pt"
 viewBox="0.00 0.00 463.00 116.00" xmlns="http://www.w3.org/2000/svg" xmlns:xlink="http://www.w3.org/1999/xlink">
<g id="graph0" class="graph" transform="scale(1 1) rotate(0) translate(4 112)">
<title>model_potential::g</title>
<!-- Node2 -->
<g id="node1" class="node">
<title>Node2</title>
<polygon fill="#bfbfbf" stroke="#000000" points="0,-44.5 0,-63.5 108,-63.5 108,-44.5 0,-44.5"/>
<text text-anchor="middle" x="54" y="-51.5" font-family="Helvetica,sans-Serif" font-size="10.00" fill="#000000">model_potential::g</text>
</g>
<!-- Node3 -->
<g id="node2" class="node">
<title>Node3</title>
<g id="a_node2"><a xlink:href="classSystemTwo.html#ada3dc67aecef241fd7f39ddb9e973aa0" target="_top" xlink:title="Method that allows base class to construct Hamiltonian /////////. ">
<polygon fill="none" stroke="#000000" points="144,-88.5 144,-107.5 293,-107.5 293,-88.5 144,-88.5"/>
<text text-anchor="middle" x="218.5" y="-95.5" font-family="Helvetica,sans-Serif" font-size="10.00" fill="#000000">SystemTwo::addInteraction</text>
</a>
</g>
</g>
<!-- Node2&#45;&gt;Node3 -->
<g id="edge1" class="edge">
<title>Node2&#45;&gt;Node3</title>
<path fill="none" stroke="#191970" d="M97.5801,-66.3063C112.3043,-70.4107 128.8489,-74.9641 144,-79 155.8664,-82.1609 168.8255,-85.5038 180.5595,-88.4896"/>
<polygon fill="#191970" stroke="#191970" points="98.2899,-62.8706 87.7167,-63.5485 96.4049,-69.612 98.2899,-62.8706"/>
</g>
<!-- Node4 -->
<g id="node3" class="node">
<title>Node4</title>
<g id="a_node3"><a xlink:href="wavefunction__test_8cpp.html#ad533eb5be260ec2c91319b4bc1365657" target="_top" xlink:title="BOOST_FIXTURE_TEST\l_CASE_TEMPLATE">
<polygon fill="none" stroke="#000000" points="155.5,-39 155.5,-69 281.5,-69 281.5,-39 155.5,-39"/>
<text text-anchor="start" x="163.5" y="-57" font-family="Helvetica,sans-Serif" font-size="10.00" fill="#000000">BOOST_FIXTURE_TEST</text>
<text text-anchor="middle" x="218.5" y="-46" font-family="Helvetica,sans-Serif" font-size="10.00" fill="#000000">_CASE_TEMPLATE</text>
</a>
</g>
</g>
<!-- Node2&#45;&gt;Node4 -->
<g id="edge2" class="edge">
<title>Node2&#45;&gt;Node4</title>
<path fill="none" stroke="#191970" d="M118.3859,-54C130.553,-54 143.2681,-54 155.3953,-54"/>
<polygon fill="#191970" stroke="#191970" points="118.3194,-50.5001 108.3194,-54 118.3193,-57.5001 118.3194,-50.5001"/>
</g>
<!-- Node6 -->
<g id="node5" class="node">
<title>Node6</title>
<g id="a_node5"><a xlink:href="classNumerov.html#abe0bc223b504ce1f4736c1879582de8e" target="_top" xlink:title="Perform the integration. ">
<polygon fill="none" stroke="#000000" points="162.5,-.5 162.5,-19.5 274.5,-19.5 274.5,-.5 162.5,-.5"/>
<text text-anchor="middle" x="218.5" y="-7.5" font-family="Helvetica,sans-Serif" font-size="10.00" fill="#000000">Numerov::integrate</text>
</a>
</g>
</g>
<!-- Node2&#45;&gt;Node6 -->
<g id="edge4" class="edge">
<title>Node2&#45;&gt;Node6</title>
<path fill="none" stroke="#191970" d="M99.442,-41.8453C125.765,-34.8045 158.4247,-26.0688 182.8756,-19.5287"/>
<polygon fill="#191970" stroke="#191970" points="98.45,-38.4875 89.6941,-44.4527 100.2589,-45.2498 98.45,-38.4875"/>
</g>
<!-- Node5 -->
<g id="node4" class="node">
<title>Node5</title>
<g id="a_node4"><a xlink:href="wavefunction__test_8cpp.html#adb72abe457d6e027bde21aa19c0f36a9" target="_top" xlink:title="BOOST_FIXTURE_TEST\l_CASE_TEMPLATE">
<polygon fill="none" stroke="#000000" points="329,-17 329,-47 455,-47 455,-17 329,-17"/>
<text text-anchor="start" x="337" y="-35" font-family="Helvetica,sans-Serif" font-size="10.00" fill="#000000">BOOST_FIXTURE_TEST</text>
<text text-anchor="middle" x="392" y="-24" font-family="Helvetica,sans-Serif" font-size="10.00" fill="#000000">_CASE_TEMPLATE</text>
</a>
</g>
</g>
<!-- Node4&#45;&gt;Node5 -->
<g id="edge3" class="edge">
<title>Node4&#45;&gt;Node5</title>
<path fill="none" stroke="#191970" d="M291.8701,-44.6966C304.1929,-43.134 316.8848,-41.5247 328.9187,-39.9988"/>
<polygon fill="#191970" stroke="#191970" points="291.1085,-41.265 281.6283,-45.9953 291.9892,-48.2094 291.1085,-41.265"/>
</g>
<!-- Node6&#45;&gt;Node5 -->
<g id="edge5" class="edge">
<title>Node6&#45;&gt;Node5</title>
<path fill="none" stroke="#191970" d="M285.1038,-18.4454C299.434,-20.2625 314.5406,-22.1781 328.7393,-23.9785"/>
<polygon fill="#191970" stroke="#191970" points="285.1914,-14.9286 274.8305,-17.1428 284.3107,-21.873 285.1914,-14.9286"/>
</g>
</g>
</svg>
