<?xml version="1.0" encoding="UTF-8" standalone="no"?>
<!DOCTYPE svg PUBLIC "-//W3C//DTD SVG 1.1//EN"
 "http://www.w3.org/Graphics/SVG/1.1/DTD/svg11.dtd">
<!-- Generated by graphviz version 2.40.1 (20161225.0304)
 -->
<!-- Title: utils::conjugate Pages: 1 -->
<svg width="273pt" height="88pt"
 viewBox="0.00 0.00 273.00 88.00" xmlns="http://www.w3.org/2000/svg" xmlns:xlink="http://www.w3.org/1999/xlink">
<g id="graph0" class="graph" transform="scale(1 1) rotate(0) translate(4 84)">
<title>utils::conjugate</title>
<!-- Node1 -->
<g id="node1" class="node">
<title>Node1</title>
<polygon fill="#bfbfbf" stroke="#000000" points="0,-30 0,-49 92,-49 92,-30 0,-30"/>
<text text-anchor="middle" x="46" y="-37" font-family="Helvetica,sans-Serif" font-size="10.00" fill="#000000">utils::conjugate</text>
</g>
<!-- Node2 -->
<g id="node2" class="node">
<title>Node2</title>
<g id="a_node2"><a xlink:href="classSystemBase.html#ae7eefd0ce61dd7a4735eb9c18d060c1a" target="_top" xlink:title="SystemBase\&lt; StateTwo\l \&gt;::addHamiltonianEntry">
<polygon fill="none" stroke="#000000" points="128,-49.5 128,-79.5 265,-79.5 265,-49.5 128,-49.5"/>
<text text-anchor="start" x="136" y="-67.5" font-family="Helvetica,sans-Serif" font-size="10.00" fill="#000000">SystemBase&lt; StateTwo</text>
<text text-anchor="middle" x="196.5" y="-56.5" font-family="Helvetica,sans-Serif" font-size="10.00" fill="#000000"> &gt;::addHamiltonianEntry</text>
</a>
</g>
</g>
<!-- Node1&#45;&gt;Node2 -->
<g id="edge1" class="edge">
<title>Node1&#45;&gt;Node2</title>
<path fill="none" stroke="#191970" d="M102.3431,-48.8593C110.6673,-50.2421 119.3215,-51.6797 127.8613,-53.0982"/>
<polygon fill="#191970" stroke="#191970" points="102.8214,-45.3909 92.383,-47.2048 101.6743,-52.2963 102.8214,-45.3909"/>
</g>
<!-- Node3 -->
<g id="node3" class="node">
<title>Node3</title>
<g id="a_node3"><a xlink:href="classSystemBase.html#aefb89db5ee1dde9deae71cf44340e4be" target="_top" xlink:title="SystemBase\&lt; StateTwo\l \&gt;::setHamiltonianEntry">
<polygon fill="none" stroke="#000000" points="129.5,-.5 129.5,-30.5 263.5,-30.5 263.5,-.5 129.5,-.5"/>
<text text-anchor="start" x="137.5" y="-18.5" font-family="Helvetica,sans-Serif" font-size="10.00" fill="#000000">SystemBase&lt; StateTwo</text>
<text text-anchor="middle" x="196.5" y="-7.5" font-family="Helvetica,sans-Serif" font-size="10.00" fill="#000000"> &gt;::setHamiltonianEntry</text>
</a>
</g>
</g>
<!-- Node1&#45;&gt;Node3 -->
<g id="edge2" class="edge">
<title>Node1&#45;&gt;Node3</title>
<path fill="none" stroke="#191970" d="M102.4487,-30.4982C111.1909,-29.1041 120.2949,-27.6523 129.2463,-26.2248"/>
<polygon fill="#191970" stroke="#191970" points="101.707,-27.0722 92.383,-32.1034 102.8094,-33.9848 101.707,-27.0722"/>
</g>
</g>
</svg>
