<?xml version="1.0" encoding="UTF-8" standalone="no"?>
<!DOCTYPE svg PUBLIC "-//W3C//DTD SVG 1.1//EN"
 "http://www.w3.org/Graphics/SVG/1.1/DTD/svg11.dtd">
<!-- Generated by graphviz version 2.40.1 (20161225.0304)
 -->
<!-- Title: numpy::internal::check_order_and_alignment Pages: 1 -->
<svg width="283pt" height="78pt"
 viewBox="0.00 0.00 283.00 77.50" xmlns="http://www.w3.org/2000/svg" xmlns:xlink="http://www.w3.org/1999/xlink">
<g id="graph0" class="graph" transform="scale(1 1) rotate(0) translate(4 73.5)">
<title>numpy::internal::check_order_and_alignment</title>
<!-- Node7 -->
<g id="node1" class="node">
<title>Node7</title>
<polygon fill="#bfbfbf" stroke="#000000" points="0,-22.5 0,-52.5 128,-52.5 128,-22.5 0,-22.5"/>
<text text-anchor="start" x="8" y="-40.5" font-family="Helvetica,sans-Serif" font-size="10.00" fill="#000000">numpy::internal::check</text>
<text text-anchor="middle" x="64" y="-29.5" font-family="Helvetica,sans-Serif" font-size="10.00" fill="#000000">_order_and_alignment</text>
</g>
<!-- Node8 -->
<g id="node2" class="node">
<title>Node8</title>
<g id="a_node2"><a xlink:href="namespacenumpy.html#a96b898cb85c300d8283beadd6a087ecd" target="_top" xlink:title="Convert a Numpy array to an Eigen::SparseMatrix. ">
<polygon fill="none" stroke="#000000" points="185.5,-50 185.5,-69 253.5,-69 253.5,-50 185.5,-50"/>
<text text-anchor="middle" x="219.5" y="-57" font-family="Helvetica,sans-Serif" font-size="10.00" fill="#000000">numpy::as</text>
</a>
</g>
</g>
<!-- Node7&#45;&gt;Node8 -->
<g id="edge1" class="edge">
<title>Node7&#45;&gt;Node8</title>
<path fill="none" stroke="#191970" d="M138.3187,-48.0145C154.7421,-50.3381 171.37,-52.6906 185.2636,-54.6563"/>
<polygon fill="#191970" stroke="#191970" points="138.5373,-44.5107 128.1456,-46.5753 137.5566,-51.4417 138.5373,-44.5107"/>
</g>
<!-- Node9 -->
<g id="node3" class="node">
<title>Node9</title>
<g id="a_node3"><a xlink:href="namespacenumpy_1_1internal.html#a9d12943d90137c9c91dceeb4775f1b14" target="_top" xlink:title="Deconstruct a numpy array for conversion to dense Eigen type. ">
<polygon fill="none" stroke="#000000" points="164,-.5 164,-30.5 275,-30.5 275,-.5 164,-.5"/>
<text text-anchor="start" x="172" y="-18.5" font-family="Helvetica,sans-Serif" font-size="10.00" fill="#000000">numpy::internal::as</text>
<text text-anchor="middle" x="219.5" y="-7.5" font-family="Helvetica,sans-Serif" font-size="10.00" fill="#000000">_dense_impl</text>
</a>
</g>
</g>
<!-- Node7&#45;&gt;Node9 -->
<g id="edge2" class="edge">
<title>Node7&#45;&gt;Node9</title>
<path fill="none" stroke="#191970" d="M138.2472,-26.9956C146.8969,-25.7718 155.6045,-24.5399 163.9407,-23.3605"/>
<polygon fill="#191970" stroke="#191970" points="137.5566,-23.5583 128.1456,-28.4247 138.5373,-30.4893 137.5566,-23.5583"/>
</g>
</g>
</svg>
