<?xml version="1.0" encoding="UTF-8" standalone="no"?>
<!DOCTYPE svg PUBLIC "-//W3C//DTD SVG 1.1//EN"
 "http://www.w3.org/Graphics/SVG/1.1/DTD/svg11.dtd">
<!-- Generated by graphviz version 2.40.1 (20161225.0304)
 -->
<!-- Title: whittaker_functions::HypergeometricU Pages: 1 -->
<svg width="754pt" height="99pt"
 viewBox="0.00 0.00 754.00 99.00" xmlns="http://www.w3.org/2000/svg" xmlns:xlink="http://www.w3.org/1999/xlink">
<g id="graph0" class="graph" transform="scale(1 1) rotate(0) translate(4 95)">
<title>whittaker_functions::HypergeometricU</title>
<!-- Node1 -->
<g id="node1" class="node">
<title>Node1</title>
<polygon fill="#bfbfbf" stroke="#000000" points="0,-60.5 0,-90.5 113,-90.5 113,-60.5 0,-60.5"/>
<text text-anchor="start" x="8" y="-78.5" font-family="Helvetica,sans-Serif" font-size="10.00" fill="#000000">whittaker_functions</text>
<text text-anchor="middle" x="56.5" y="-67.5" font-family="Helvetica,sans-Serif" font-size="10.00" fill="#000000">::HypergeometricU</text>
</g>
<!-- Node2 -->
<g id="node2" class="node">
<title>Node2</title>
<g id="a_node2"><a xlink:href="classNumerov.html#aac0e95cf7c77162c82d8e51e16bb423c" target="_top" xlink:title="Power kernel for matrix elements. ">
<polygon fill="none" stroke="#000000" points="450,-50 450,-69 584,-69 584,-50 450,-50"/>
<text text-anchor="middle" x="517" y="-57" font-family="Helvetica,sans-Serif" font-size="10.00" fill="#000000">Numerov::power_kernel</text>
</a>
</g>
</g>
<!-- Node1&#45;&gt;Node2 -->
<g id="edge1" class="edge">
<title>Node1&#45;&gt;Node2</title>
<path fill="none" stroke="#191970" d="M123.3115,-77.9244C131.9537,-78.1623 140.6862,-78.3652 149,-78.5 266.8302,-80.4103 296.5123,-78.6783 414,-69.5 425.6424,-68.5905 438.013,-67.4981 449.9912,-66.3745"/>
<polygon fill="#191970" stroke="#191970" points="123.3361,-74.4237 113.2384,-77.6309 123.1322,-81.4207 123.3361,-74.4237"/>
</g>
<!-- Node3 -->
<g id="node3" class="node">
<title>Node3</title>
<g id="a_node3"><a xlink:href="namespacewhittaker__functions.html#a27cc4e33339852cc4bce929bf7c0b4d4" target="_top" xlink:title="Compute the Whittaker function. ">
<polygon fill="none" stroke="#000000" points="149,-38.5 149,-68.5 262,-68.5 262,-38.5 149,-38.5"/>
<text text-anchor="start" x="157" y="-56.5" font-family="Helvetica,sans-Serif" font-size="10.00" fill="#000000">whittaker_functions</text>
<text text-anchor="middle" x="205.5" y="-45.5" font-family="Helvetica,sans-Serif" font-size="10.00" fill="#000000">::WhittakerW</text>
</a>
</g>
</g>
<!-- Node1&#45;&gt;Node3 -->
<g id="edge2" class="edge">
<title>Node1&#45;&gt;Node3</title>
<path fill="none" stroke="#191970" d="M123.228,-65.6475C131.8009,-64.3817 140.5125,-63.0955 148.9022,-61.8567"/>
<polygon fill="#191970" stroke="#191970" points="122.637,-62.1968 113.2556,-67.12 123.6596,-69.1217 122.637,-62.1968"/>
</g>
<!-- Node3&#45;&gt;Node2 -->
<g id="edge7" class="edge">
<title>Node3&#45;&gt;Node2</title>
<path fill="none" stroke="#191970" d="M272.4675,-54.7899C324.8471,-55.7988 397.3415,-57.1952 449.7844,-58.2053"/>
<polygon fill="#191970" stroke="#191970" points="272.3373,-51.2868 262.2717,-54.5935 272.2024,-58.2855 272.3373,-51.2868"/>
</g>
<!-- Node4 -->
<g id="node4" class="node">
<title>Node4</title>
<g id="a_node4"><a xlink:href="namespacewhittaker__functions.html#ab69b6f45a0c575b401bdaf26a250f084" target="_top" xlink:title="Radial wavefunctions from Whittaker&#39;s function. ">
<polygon fill="none" stroke="#000000" points="298,-.5 298,-30.5 414,-30.5 414,-.5 298,-.5"/>
<text text-anchor="start" x="306" y="-18.5" font-family="Helvetica,sans-Serif" font-size="10.00" fill="#000000">whittaker_functions</text>
<text text-anchor="middle" x="356" y="-7.5" font-family="Helvetica,sans-Serif" font-size="10.00" fill="#000000">::RadialWFWhittaker</text>
</a>
</g>
</g>
<!-- Node3&#45;&gt;Node4 -->
<g id="edge3" class="edge">
<title>Node3&#45;&gt;Node4</title>
<path fill="none" stroke="#191970" d="M272.28,-36.6386C280.7779,-34.4929 289.4218,-32.3104 297.7707,-30.2024"/>
<polygon fill="#191970" stroke="#191970" points="271.2365,-33.2922 262.3976,-39.1338 272.9502,-40.0792 271.2365,-33.2922"/>
</g>
<!-- Node4&#45;&gt;Node2 -->
<g id="edge6" class="edge">
<title>Node4&#45;&gt;Node2</title>
<path fill="none" stroke="#191970" d="M420.7546,-33.1969C441.6597,-38.9101 464.0391,-45.0262 481.9522,-49.9217"/>
<polygon fill="#191970" stroke="#191970" points="421.5257,-29.7794 410.9568,-30.5192 419.6803,-36.5317 421.5257,-29.7794"/>
</g>
<!-- Node5 -->
<g id="node5" class="node">
<title>Node5</title>
<g id="a_node5"><a xlink:href="classWhittaker.html#ace99701f5bf448389ba485f293fa90cb" target="_top" xlink:title="Evaluate the radial wavefunction. ">
<polygon fill="none" stroke="#000000" points="459.5,-6 459.5,-25 574.5,-25 574.5,-6 459.5,-6"/>
<text text-anchor="middle" x="517" y="-13" font-family="Helvetica,sans-Serif" font-size="10.00" fill="#000000">Whittaker::integrate</text>
</a>
</g>
</g>
<!-- Node4&#45;&gt;Node5 -->
<g id="edge4" class="edge">
<title>Node4&#45;&gt;Node5</title>
<path fill="none" stroke="#191970" d="M424.2444,-15.5C435.8914,-15.5 447.8889,-15.5 459.2306,-15.5"/>
<polygon fill="#191970" stroke="#191970" points="424.1247,-12.0001 414.1247,-15.5 424.1247,-19.0001 424.1247,-12.0001"/>
</g>
<!-- Node6 -->
<g id="node6" class="node">
<title>Node6</title>
<g id="a_node6"><a xlink:href="wavefunction__test_8cpp.html#adb72abe457d6e027bde21aa19c0f36a9" target="_top" xlink:title="BOOST_FIXTURE_TEST\l_CASE_TEMPLATE">
<polygon fill="none" stroke="#000000" points="620,-.5 620,-30.5 746,-30.5 746,-.5 620,-.5"/>
<text text-anchor="start" x="628" y="-18.5" font-family="Helvetica,sans-Serif" font-size="10.00" fill="#000000">BOOST_FIXTURE_TEST</text>
<text text-anchor="middle" x="683" y="-7.5" font-family="Helvetica,sans-Serif" font-size="10.00" fill="#000000">_CASE_TEMPLATE</text>
</a>
</g>
</g>
<!-- Node5&#45;&gt;Node6 -->
<g id="edge5" class="edge">
<title>Node5&#45;&gt;Node6</title>
<path fill="none" stroke="#191970" d="M584.6768,-15.5C596.3006,-15.5 608.3398,-15.5 619.8393,-15.5"/>
<polygon fill="#191970" stroke="#191970" points="584.5929,-12.0001 574.5929,-15.5 584.5928,-19.0001 584.5929,-12.0001"/>
</g>
</g>
</svg>
