<?xml version="1.0" encoding="UTF-8" standalone="no"?>
<!DOCTYPE svg PUBLIC "-//W3C//DTD SVG 1.1//EN"
 "http://www.w3.org/Graphics/SVG/1.1/DTD/svg11.dtd">
<!-- Generated by graphviz version 2.40.1 (20161225.0304)
 -->
<!-- Title: /travis/pairinteraction/NumpyUtils.h Pages: 1 -->
<svg width="850pt" height="95pt"
 viewBox="0.00 0.00 849.50 95.00" xmlns="http://www.w3.org/2000/svg" xmlns:xlink="http://www.w3.org/1999/xlink">
<g id="graph0" class="graph" transform="scale(1 1) rotate(0) translate(4 91)">
<title>/travis/pairinteraction/NumpyUtils.h</title>
<!-- Node0 -->
<g id="node1" class="node">
<title>Node0</title>
<polygon fill="#bfbfbf" stroke="#000000" points="371.5,-56.5 371.5,-86.5 493.5,-86.5 493.5,-56.5 371.5,-56.5"/>
<text text-anchor="start" x="379.5" y="-74.5" font-family="Helvetica,sans-Serif" font-size="10.00" fill="#000000">/travis/pairinteraction</text>
<text text-anchor="middle" x="432.5" y="-63.5" font-family="Helvetica,sans-Serif" font-size="10.00" fill="#000000">/NumpyUtils.h</text>
</g>
<!-- Node1 -->
<g id="node2" class="node">
<title>Node1</title>
<polygon fill="none" stroke="#bfbfbf" points="0,-.5 0,-19.5 59,-19.5 59,-.5 0,-.5"/>
<text text-anchor="middle" x="29.5" y="-7.5" font-family="Helvetica,sans-Serif" font-size="10.00" fill="#000000">Python.h</text>
</g>
<!-- Node0&#45;&gt;Node1 -->
<g id="edge1" class="edge">
<title>Node0&#45;&gt;Node1</title>
<path fill="none" stroke="#191970" d="M371.2906,-64.9322C300.8039,-56.9013 181.3974,-41.8652 69.356,-19.9843"/>
<polygon fill="#191970" stroke="#191970" points="69.7218,-16.489 59.2331,-17.9844 68.3651,-23.3563 69.7218,-16.489"/>
</g>
<!-- Node2 -->
<g id="node3" class="node">
<title>Node2</title>
<polygon fill="none" stroke="#bfbfbf" points="77.5,-.5 77.5,-19.5 207.5,-19.5 207.5,-.5 77.5,-.5"/>
<text text-anchor="middle" x="142.5" y="-7.5" font-family="Helvetica,sans-Serif" font-size="10.00" fill="#000000">numpy/ndarrayobject.h</text>
</g>
<!-- Node0&#45;&gt;Node2 -->
<g id="edge2" class="edge">
<title>Node0&#45;&gt;Node2</title>
<path fill="none" stroke="#191970" d="M371.3528,-58.5326C319.8934,-47.6196 246.966,-32.154 197.3629,-21.6347"/>
<polygon fill="#191970" stroke="#191970" points="197.9663,-18.1849 187.4577,-19.5341 196.514,-25.0326 197.9663,-18.1849"/>
</g>
<!-- Node3 -->
<g id="node4" class="node">
<title>Node3</title>
<polygon fill="none" stroke="#bfbfbf" points="225.5,-.5 225.5,-19.5 275.5,-19.5 275.5,-.5 225.5,-.5"/>
<text text-anchor="middle" x="250.5" y="-7.5" font-family="Helvetica,sans-Serif" font-size="10.00" fill="#000000">cstring</text>
</g>
<!-- Node0&#45;&gt;Node3 -->
<g id="edge3" class="edge">
<title>Node0&#45;&gt;Node3</title>
<path fill="none" stroke="#191970" d="M387.9778,-56.4554C356.3478,-45.7672 314.4773,-31.6187 285.2894,-21.7558"/>
<polygon fill="#191970" stroke="#191970" points="286.126,-18.3441 275.5318,-18.4586 283.8851,-24.9757 286.126,-18.3441"/>
</g>
<!-- Node4 -->
<g id="node5" class="node">
<title>Node4</title>
<polygon fill="none" stroke="#bfbfbf" points="294,-.5 294,-19.5 347,-19.5 347,-.5 294,-.5"/>
<text text-anchor="middle" x="320.5" y="-7.5" font-family="Helvetica,sans-Serif" font-size="10.00" fill="#000000">iterator</text>
</g>
<!-- Node0&#45;&gt;Node4 -->
<g id="edge4" class="edge">
<title>Node0&#45;&gt;Node4</title>
<path fill="none" stroke="#191970" d="M405.1017,-56.4554C387.3978,-46.734 364.4805,-34.15 346.9642,-24.5317"/>
<polygon fill="#191970" stroke="#191970" points="348.3061,-21.2756 337.856,-19.5303 344.9369,-27.4115 348.3061,-21.2756"/>
</g>
<!-- Node5 -->
<g id="node6" class="node">
<title>Node5</title>
<polygon fill="none" stroke="#bfbfbf" points="365.5,-.5 365.5,-19.5 421.5,-19.5 421.5,-.5 365.5,-.5"/>
<text text-anchor="middle" x="393.5" y="-7.5" font-family="Helvetica,sans-Serif" font-size="10.00" fill="#000000">numeric</text>
</g>
<!-- Node0&#45;&gt;Node5 -->
<g id="edge5" class="edge">
<title>Node0&#45;&gt;Node5</title>
<path fill="none" stroke="#191970" d="M422.8595,-56.2977C417.5023,-47.8498 410.7978,-37.2773 405.1487,-28.369"/>
<polygon fill="#191970" stroke="#191970" points="408.0556,-26.4176 399.7444,-19.8469 402.1441,-30.1664 408.0556,-26.4176"/>
</g>
<!-- Node6 -->
<g id="node7" class="node">
<title>Node6</title>
<polygon fill="none" stroke="#bfbfbf" points="440,-.5 440,-19.5 505,-19.5 505,-.5 440,-.5"/>
<text text-anchor="middle" x="472.5" y="-7.5" font-family="Helvetica,sans-Serif" font-size="10.00" fill="#000000">stdexcept</text>
</g>
<!-- Node0&#45;&gt;Node6 -->
<g id="edge6" class="edge">
<title>Node0&#45;&gt;Node6</title>
<path fill="none" stroke="#191970" d="M442.3876,-56.2977C447.8822,-47.8498 454.7586,-37.2773 460.5527,-28.369"/>
<polygon fill="#191970" stroke="#191970" points="463.5772,-30.1381 466.0955,-19.8469 457.7092,-26.3215 463.5772,-30.1381"/>
</g>
<!-- Node7 -->
<g id="node8" class="node">
<title>Node7</title>
<polygon fill="none" stroke="#bfbfbf" points="523,-.5 523,-19.5 564,-19.5 564,-.5 523,-.5"/>
<text text-anchor="middle" x="543.5" y="-7.5" font-family="Helvetica,sans-Serif" font-size="10.00" fill="#000000">tuple</text>
</g>
<!-- Node0&#45;&gt;Node7 -->
<g id="edge7" class="edge">
<title>Node0&#45;&gt;Node7</title>
<path fill="none" stroke="#191970" d="M459.6537,-56.4554C477.1995,-46.734 499.9122,-34.15 517.2721,-24.5317"/>
<polygon fill="#191970" stroke="#191970" points="519.248,-27.4383 526.2989,-19.5303 515.8555,-21.3153 519.248,-27.4383"/>
</g>
<!-- Node8 -->
<g id="node9" class="node">
<title>Node8</title>
<polygon fill="none" stroke="#bfbfbf" points="582,-.5 582,-19.5 651,-19.5 651,-.5 582,-.5"/>
<text text-anchor="middle" x="616.5" y="-7.5" font-family="Helvetica,sans-Serif" font-size="10.00" fill="#000000">Eigen/Core</text>
</g>
<!-- Node0&#45;&gt;Node8 -->
<g id="edge8" class="edge">
<title>Node0&#45;&gt;Node8</title>
<path fill="none" stroke="#191970" d="M477.5115,-56.4554C508.4816,-46.104 549.1628,-32.5067 578.502,-22.7004"/>
<polygon fill="#191970" stroke="#191970" points="579.6118,-26.0199 587.9865,-19.5303 577.3927,-19.3809 579.6118,-26.0199"/>
</g>
<!-- Node9 -->
<g id="node10" class="node">
<title>Node9</title>
<polygon fill="none" stroke="#bfbfbf" points="669.5,-.5 669.5,-19.5 771.5,-19.5 771.5,-.5 669.5,-.5"/>
<text text-anchor="middle" x="720.5" y="-7.5" font-family="Helvetica,sans-Serif" font-size="10.00" fill="#000000">Eigen/SparseCore</text>
</g>
<!-- Node0&#45;&gt;Node9 -->
<g id="edge9" class="edge">
<title>Node0&#45;&gt;Node9</title>
<path fill="none" stroke="#191970" d="M493.5774,-58.4574C544.7085,-47.5388 616.9987,-32.1019 666.1493,-21.6061"/>
<polygon fill="#191970" stroke="#191970" points="666.9153,-25.0216 675.9638,-19.5103 665.4534,-18.1759 666.9153,-25.0216"/>
</g>
<!-- Node10 -->
<g id="node11" class="node">
<title>Node10</title>
<g id="a_node11"><a xlink:href="Traits_8h.html" target="_top" xlink:title="Traits.h">
<polygon fill="none" stroke="#000000" points="789.5,-.5 789.5,-19.5 841.5,-19.5 841.5,-.5 789.5,-.5"/>
<text text-anchor="middle" x="815.5" y="-7.5" font-family="Helvetica,sans-Serif" font-size="10.00" fill="#000000">Traits.h</text>
</a>
</g>
</g>
<!-- Node0&#45;&gt;Node10 -->
<g id="edge10" class="edge">
<title>Node0&#45;&gt;Node10</title>
<path fill="none" stroke="#191970" d="M493.6012,-64.9219C561.3246,-57.0794 673.8798,-42.4124 779.3635,-20.0281"/>
<polygon fill="#191970" stroke="#191970" points="780.1794,-23.4327 789.2204,-17.9091 778.7081,-16.5891 780.1794,-23.4327"/>
</g>
</g>
</svg>
