<?xml version="1.0" encoding="UTF-8" standalone="no"?>
<!DOCTYPE svg PUBLIC "-//W3C//DTD SVG 1.1//EN"
 "http://www.w3.org/Graphics/SVG/1.1/DTD/svg11.dtd">
<!-- Generated by graphviz version 2.40.1 (20161225.0304)
 -->
<!-- Title: energy_level Pages: 1 -->
<svg width="476pt" height="142pt"
 viewBox="0.00 0.00 476.00 142.00" xmlns="http://www.w3.org/2000/svg" xmlns:xlink="http://www.w3.org/1999/xlink">
<g id="graph0" class="graph" transform="scale(1 1) rotate(0) translate(4 138)">
<title>energy_level</title>
<!-- Node1 -->
<g id="node1" class="node">
<title>Node1</title>
<polygon fill="#bfbfbf" stroke="#000000" points="0,-66.5 0,-85.5 80,-85.5 80,-66.5 0,-66.5"/>
<text text-anchor="middle" x="40" y="-73.5" font-family="Helvetica,sans-Serif" font-size="10.00" fill="#000000">energy_level</text>
</g>
<!-- Node2 -->
<g id="node2" class="node">
<title>Node2</title>
<g id="a_node2"><a xlink:href="classHamiltonianOne.html#a9cb71dcb34ab9f0779c0bd66b758185e" target="_top" xlink:title="HamiltonianOne::build">
<polygon fill="none" stroke="#000000" points="120,-109.5 120,-128.5 246,-128.5 246,-109.5 120,-109.5"/>
<text text-anchor="middle" x="183" y="-116.5" font-family="Helvetica,sans-Serif" font-size="10.00" fill="#000000">HamiltonianOne::build</text>
</a>
</g>
</g>
<!-- Node1&#45;&gt;Node2 -->
<g id="edge1" class="edge">
<title>Node1&#45;&gt;Node2</title>
<path fill="none" stroke="#191970" d="M81.5904,-88.5062C103.8471,-95.1988 130.8207,-103.3097 151.3524,-109.4836"/>
<polygon fill="#191970" stroke="#191970" points="82.3206,-85.071 71.7363,-85.5431 80.3049,-91.7745 82.3206,-85.071"/>
</g>
<!-- Node4 -->
<g id="node4" class="node">
<title>Node4</title>
<g id="a_node4"><a xlink:href="classStateOne.html#a6262da11406dbaa811f361cab2cf71b6" target="_top" xlink:title="StateOne::getEnergy">
<polygon fill="none" stroke="#000000" points="124.5,-66.5 124.5,-85.5 241.5,-85.5 241.5,-66.5 124.5,-66.5"/>
<text text-anchor="middle" x="183" y="-73.5" font-family="Helvetica,sans-Serif" font-size="10.00" fill="#000000">StateOne::getEnergy</text>
</a>
</g>
</g>
<!-- Node1&#45;&gt;Node4 -->
<g id="edge3" class="edge">
<title>Node1&#45;&gt;Node4</title>
<path fill="none" stroke="#191970" d="M90.4759,-76C101.4507,-76 113.1508,-76 124.4093,-76"/>
<polygon fill="#191970" stroke="#191970" points="90.2141,-72.5001 80.214,-76 90.214,-79.5001 90.2141,-72.5001"/>
</g>
<!-- Node7 -->
<g id="node7" class="node">
<title>Node7</title>
<g id="a_node7"><a xlink:href="classStateOneOld.html#a87391af707be61e934c06b4561ba5059" target="_top" xlink:title="StateOneOld::getEnergy">
<polygon fill="none" stroke="#000000" points="116,-19.5 116,-38.5 250,-38.5 250,-19.5 116,-19.5"/>
<text text-anchor="middle" x="183" y="-26.5" font-family="Helvetica,sans-Serif" font-size="10.00" fill="#000000">StateOneOld::getEnergy</text>
</a>
</g>
</g>
<!-- Node1&#45;&gt;Node7 -->
<g id="edge6" class="edge">
<title>Node1&#45;&gt;Node7</title>
<path fill="none" stroke="#191970" d="M78.6368,-63.3012C102.2348,-55.5452 131.9368,-45.783 153.614,-38.6583"/>
<polygon fill="#191970" stroke="#191970" points="77.3454,-60.0414 68.9382,-66.4888 79.5311,-66.6914 77.3454,-60.0414"/>
</g>
<!-- Node3 -->
<g id="node3" class="node">
<title>Node3</title>
<g id="a_node3"><a xlink:href="classHamiltonianOne.html#ad3ba2d70879a60c9f065b5a2545dfe36" target="_top" xlink:title="HamiltonianOne::HamiltonianOne">
<polygon fill="none" stroke="#000000" points="286,-114.5 286,-133.5 468,-133.5 468,-114.5 286,-114.5"/>
<text text-anchor="middle" x="377" y="-121.5" font-family="Helvetica,sans-Serif" font-size="10.00" fill="#000000">HamiltonianOne::HamiltonianOne</text>
</a>
</g>
</g>
<!-- Node2&#45;&gt;Node3 -->
<g id="edge2" class="edge">
<title>Node2&#45;&gt;Node3</title>
<path fill="none" stroke="#191970" d="M256.4641,-120.8934C266.0075,-121.1394 275.8744,-121.3937 285.6641,-121.646"/>
<polygon fill="#191970" stroke="#191970" points="256.3413,-117.3892 246.2544,-120.6303 256.1609,-124.3868 256.3413,-117.3892"/>
</g>
<!-- Node5 -->
<g id="node5" class="node">
<title>Node5</title>
<g id="a_node5"><a xlink:href="classSystemOne.html#a1548df0406b8a36e4307f8dbf9226990" target="_top" xlink:title="Method that allows base class to initialize Basis //////////////. ">
<polygon fill="none" stroke="#000000" points="303.5,-76.5 303.5,-95.5 450.5,-95.5 450.5,-76.5 303.5,-76.5"/>
<text text-anchor="middle" x="377" y="-83.5" font-family="Helvetica,sans-Serif" font-size="10.00" fill="#000000">SystemOne::initializeBasis</text>
</a>
</g>
</g>
<!-- Node4&#45;&gt;Node5 -->
<g id="edge4" class="edge">
<title>Node4&#45;&gt;Node5</title>
<path fill="none" stroke="#191970" d="M251.9343,-79.5533C268.6013,-80.4124 286.478,-81.3339 303.3522,-82.2037"/>
<polygon fill="#191970" stroke="#191970" points="251.8998,-76.047 241.7329,-79.0275 251.5394,-83.0377 251.8998,-76.047"/>
</g>
<!-- Node6 -->
<g id="node6" class="node">
<title>Node6</title>
<g id="a_node6"><a xlink:href="integration__test_8cpp.html#a0edc7e03850724a3784df426b75fb1d2" target="_top" xlink:title="BOOST_FIXTURE_TEST_CASE">
<polygon fill="none" stroke="#000000" points="298.5,-38.5 298.5,-57.5 455.5,-57.5 455.5,-38.5 298.5,-38.5"/>
<text text-anchor="middle" x="377" y="-45.5" font-family="Helvetica,sans-Serif" font-size="10.00" fill="#000000">BOOST_FIXTURE_TEST_CASE</text>
</a>
</g>
</g>
<!-- Node4&#45;&gt;Node6 -->
<g id="edge5" class="edge">
<title>Node4&#45;&gt;Node6</title>
<path fill="none" stroke="#191970" d="M251.6525,-66.0914C270.9423,-63.3073 291.8718,-60.2865 311.0032,-57.5253"/>
<polygon fill="#191970" stroke="#191970" points="251.1303,-62.6304 241.7329,-67.5231 252.1303,-69.5586 251.1303,-62.6304"/>
</g>
<!-- Node8 -->
<g id="node8" class="node">
<title>Node8</title>
<g id="a_node8"><a xlink:href="classStateTwoOld.html#a3ecab4e3ec45aa3cc8cfe60b2b46d5f6" target="_top" xlink:title="StateTwoOld::getEnergy">
<polygon fill="none" stroke="#000000" points="310.5,-.5 310.5,-19.5 443.5,-19.5 443.5,-.5 310.5,-.5"/>
<text text-anchor="middle" x="377" y="-7.5" font-family="Helvetica,sans-Serif" font-size="10.00" fill="#000000">StateTwoOld::getEnergy</text>
</a>
</g>
</g>
<!-- Node7&#45;&gt;Node8 -->
<g id="edge7" class="edge">
<title>Node7&#45;&gt;Node8</title>
<path fill="none" stroke="#191970" d="M260.2278,-21.4364C276.7936,-19.814 294.1628,-18.1129 310.2903,-16.5334"/>
<polygon fill="#191970" stroke="#191970" points="259.6466,-17.9765 250.0354,-22.4347 260.329,-24.9432 259.6466,-17.9765"/>
</g>
</g>
</svg>
