<?xml version="1.0" encoding="UTF-8" standalone="no"?>
<!DOCTYPE svg PUBLIC "-//W3C//DTD SVG 1.1//EN"
 "http://www.w3.org/Graphics/SVG/1.1/DTD/svg11.dtd">
<!-- Generated by graphviz version 2.40.1 (20161225.0304)
 -->
<!-- Title: nstar Pages: 1 -->
<svg width="374pt" height="104pt"
 viewBox="0.00 0.00 374.00 104.00" xmlns="http://www.w3.org/2000/svg" xmlns:xlink="http://www.w3.org/1999/xlink">
<g id="graph0" class="graph" transform="scale(1 1) rotate(0) translate(4 100)">
<title>nstar</title>
<!-- Node10 -->
<g id="node1" class="node">
<title>Node10</title>
<polygon fill="#bfbfbf" stroke="#000000" points="0,-38.5 0,-57.5 41,-57.5 41,-38.5 0,-38.5"/>
<text text-anchor="middle" x="20.5" y="-45.5" font-family="Helvetica,sans-Serif" font-size="10.00" fill="#000000">nstar</text>
</g>
<!-- Node11 -->
<g id="node2" class="node">
<title>Node11</title>
<g id="a_node2"><a xlink:href="classStateOne.html#ad4e2058552ab21809e3dd455a29214ae" target="_top" xlink:title="StateOne::getNStar">
<polygon fill="none" stroke="#000000" points="85.5,-76.5 85.5,-95.5 195.5,-95.5 195.5,-76.5 85.5,-76.5"/>
<text text-anchor="middle" x="140.5" y="-83.5" font-family="Helvetica,sans-Serif" font-size="10.00" fill="#000000">StateOne::getNStar</text>
</a>
</g>
</g>
<!-- Node10&#45;&gt;Node11 -->
<g id="edge1" class="edge">
<title>Node10&#45;&gt;Node11</title>
<path fill="none" stroke="#191970" d="M50.6493,-58.3478C59.1517,-61.209 68.4221,-64.2752 77,-67 86.9802,-70.1702 97.8888,-73.4874 107.8047,-76.4465"/>
<polygon fill="#191970" stroke="#191970" points="51.7028,-55.0093 41.1085,-55.1158 49.4569,-61.6393 51.7028,-55.0093"/>
</g>
<!-- Node12 -->
<g id="node3" class="node">
<title>Node12</title>
<g id="a_node3"><a xlink:href="classStateOneOld.html#acf546d02d53655236c9beb4790d69462" target="_top" xlink:title="StateOneOld::getNStar">
<polygon fill="none" stroke="#000000" points="77,-38.5 77,-57.5 204,-57.5 204,-38.5 77,-38.5"/>
<text text-anchor="middle" x="140.5" y="-45.5" font-family="Helvetica,sans-Serif" font-size="10.00" fill="#000000">StateOneOld::getNStar</text>
</a>
</g>
</g>
<!-- Node10&#45;&gt;Node12 -->
<g id="edge2" class="edge">
<title>Node10&#45;&gt;Node12</title>
<path fill="none" stroke="#191970" d="M51.2519,-48C59.1349,-48 67.9095,-48 76.7928,-48"/>
<polygon fill="#191970" stroke="#191970" points="51.1288,-44.5001 41.1287,-48 51.1287,-51.5001 51.1288,-44.5001"/>
</g>
<!-- Node14 -->
<g id="node5" class="node">
<title>Node14</title>
<g id="a_node5"><a xlink:href="structno__potential.html#ac32f2ce23a3ae3d1f6a4bcf8dd446158" target="_top" xlink:title="no_potential::what">
<polygon fill="none" stroke="#000000" points="87,-.5 87,-19.5 194,-19.5 194,-.5 87,-.5"/>
<text text-anchor="middle" x="140.5" y="-7.5" font-family="Helvetica,sans-Serif" font-size="10.00" fill="#000000">no_potential::what</text>
</a>
</g>
</g>
<!-- Node10&#45;&gt;Node14 -->
<g id="edge4" class="edge">
<title>Node10&#45;&gt;Node14</title>
<path fill="none" stroke="#191970" d="M50.6493,-37.6522C59.1517,-34.791 68.4221,-31.7248 77,-29 86.9802,-25.8298 97.8888,-22.5126 107.8047,-19.5535"/>
<polygon fill="#191970" stroke="#191970" points="49.4569,-34.3607 41.1085,-40.8842 51.7028,-40.9907 49.4569,-34.3607"/>
</g>
<!-- Node13 -->
<g id="node4" class="node">
<title>Node13</title>
<g id="a_node4"><a xlink:href="classStateTwoOld.html#ac0a094bb8d10a954236f3af605c0cbca" target="_top" xlink:title="StateTwoOld::getNStar">
<polygon fill="none" stroke="#000000" points="240,-38.5 240,-57.5 366,-57.5 366,-38.5 240,-38.5"/>
<text text-anchor="middle" x="303" y="-45.5" font-family="Helvetica,sans-Serif" font-size="10.00" fill="#000000">StateTwoOld::getNStar</text>
</a>
</g>
</g>
<!-- Node12&#45;&gt;Node13 -->
<g id="edge3" class="edge">
<title>Node12&#45;&gt;Node13</title>
<path fill="none" stroke="#191970" d="M214.2591,-48C222.8424,-48 231.5382,-48 239.9588,-48"/>
<polygon fill="#191970" stroke="#191970" points="214.2579,-44.5001 204.2579,-48 214.2579,-51.5001 214.2579,-44.5001"/>
</g>
</g>
</svg>
