<?xml version="1.0" encoding="UTF-8" standalone="no"?>
<!DOCTYPE svg PUBLIC "-//W3C//DTD SVG 1.1//EN"
 "http://www.w3.org/Graphics/SVG/1.1/DTD/svg11.dtd">
<!-- Generated by graphviz version 2.40.1 (20161225.0304)
 -->
<!-- Title: /travis/pairinteraction/QuantumDefect.h Pages: 1 -->
<!--zoomable 218 -->
<svg id="main" version="1.1" xmlns="http://www.w3.org/2000/svg" xmlns:xlink="http://www.w3.org/1999/xlink" xml:space="preserve" onload="init(evt)">
<style type="text/css"><![CDATA[
.edge:hover path { stroke: red; }
.edge:hover polygon { stroke: red; fill: red; }
]]></style>
<script type="text/javascript"><![CDATA[
var edges = document.getElementsByTagName('g');
if (edges && edges.length) {
  for (var i=0;i<edges.length;i++) {
    if (edges[i].id.substr(0,4)=='edge') {
      edges[i].setAttribute('class','edge');
    }
  }
}
]]></script>
        <defs>
                <circle id="rim" cx="0" cy="0" r="7"/>
                <circle id="rim2" cx="0" cy="0" r="3.5"/>
                <g id="zoomPlus">
                        <use xlink:href="#rim" fill="#404040">
                                <set attributeName="fill" to="#808080" begin="zoomplus.mouseover" end="zoomplus.mouseout"/>
                        </use>
                        <path d="M-4,0h8M0,-4v8" fill="none" stroke="white" stroke-width="1.5" pointer-events="none"/>
                </g>
                <g id="zoomMin">
                        <use xlink:href="#rim" fill="#404040">
                                <set attributeName="fill" to="#808080" begin="zoomminus.mouseover" end="zoomminus.mouseout"/>
                        </use>
                        <path d="M-4,0h8" fill="none" stroke="white" stroke-width="1.5" pointer-events="none"/>
                </g>
                <g id="dirArrow">
                        <path fill="none" stroke="white" stroke-width="1.5" d="M0,-3.0v7 M-2.5,-0.5L0,-3.0L2.5,-0.5"/>
                </g>
               <g id="resetDef">
                       <use xlink:href="#rim2" fill="#404040">
                               <set attributeName="fill" to="#808080" begin="reset.mouseover" end="reset.mouseout"/>
                       </use>
               </g>
        </defs>

<script type="text/javascript">
var viewWidth = 1618;
var viewHeight = 218;
var sectionId = 'dynsection-0';
</script>
<script xlink:href="svgpan.js"/>
<svg id="graph" class="graph">
<g id="viewport">
<title>/travis/pairinteraction/QuantumDefect.h</title>
<!-- Node0 -->
<g id="node1" class="node">
<title>Node0</title>
<polygon fill="#bfbfbf" stroke="#000000" points="808,-179.5 808,-209.5 930,-209.5 930,-179.5 808,-179.5"/>
<text text-anchor="start" x="816" y="-197.5" font-family="Helvetica,sans-Serif" font-size="10.00" fill="#000000">/travis/pairinteraction</text>
<text text-anchor="middle" x="869" y="-186.5" font-family="Helvetica,sans-Serif" font-size="10.00" fill="#000000">/QuantumDefect.h</text>
</g>
<!-- Node1 -->
<g id="node2" class="node">
<title>Node1</title>
<g id="a_node2"><a xlink:href="Cache_8h.html" target="_top" xlink:title="Cache.h">
<polygon fill="none" stroke="#000000" points="171,-123.5 171,-142.5 227,-142.5 227,-123.5 171,-123.5"/>
<text text-anchor="middle" x="199" y="-130.5" font-family="Helvetica,sans-Serif" font-size="10.00" fill="#000000">Cache.h</text>
</a>
</g>
</g>
<!-- Node0&#45;&gt;Node1 -->
<g id="edge1" class="edge">
<title>Node0&#45;&gt;Node1</title>
<path fill="none" stroke="#191970" d="M807.7658,-188.8793C671.947,-176.4123 348.688,-146.74 237.4129,-136.526"/>
<polygon fill="#191970" stroke="#191970" points="237.5976,-133.0283 227.3195,-135.5995 236.9577,-139.999 237.5976,-133.0283"/>
</g>
<!-- Node2 -->
<g id="node3" class="node">
<title>Node2</title>
<polygon fill="none" stroke="#bfbfbf" points="0,-62 0,-81 48,-81 48,-62 0,-62"/>
<text text-anchor="middle" x="24" y="-69" font-family="Helvetica,sans-Serif" font-size="10.00" fill="#000000">mutex</text>
</g>
<!-- Node0&#45;&gt;Node2 -->
<g id="edge30" class="edge">
<title>Node0&#45;&gt;Node2</title>
<path fill="none" stroke="#191970" d="M807.745,-193.2001C659.1028,-189.5388 282.6521,-177.0906 162,-143 118.3317,-130.6614 72.4833,-103.6782 46.1641,-86.6159"/>
<polygon fill="#191970" stroke="#191970" points="47.9792,-83.6203 37.7047,-81.0347 44.1242,-89.4632 47.9792,-83.6203"/>
</g>
<!-- Node3 -->
<g id="node4" class="node">
<title>Node3</title>
<polygon fill="none" stroke="#bfbfbf" points="191.5,-62 191.5,-81 284.5,-81 284.5,-62 191.5,-62"/>
<text text-anchor="middle" x="238" y="-69" font-family="Helvetica,sans-Serif" font-size="10.00" fill="#000000">unordered_map</text>
</g>
<!-- Node0&#45;&gt;Node3 -->
<g id="edge33" class="edge">
<title>Node0&#45;&gt;Node3</title>
<path fill="none" stroke="#191970" d="M807.7945,-184.8187C702.3258,-167.744 479.7617,-129.9905 294,-87 289.625,-85.9875 285.0782,-84.8584 280.5517,-83.684"/>
<polygon fill="#191970" stroke="#191970" points="281.3137,-80.2649 270.7493,-81.068 279.5087,-87.0282 281.3137,-80.2649"/>
</g>
<!-- Node5 -->
<g id="node6" class="node">
<title>Node5</title>
<g id="a_node6"><a xlink:href="SQLite_8h.html" target="_top" xlink:title="SQLite.h">
<polygon fill="none" stroke="#000000" points="633.5,-123.5 633.5,-142.5 690.5,-142.5 690.5,-123.5 633.5,-123.5"/>
<text text-anchor="middle" x="662" y="-130.5" font-family="Helvetica,sans-Serif" font-size="10.00" fill="#000000">SQLite.h</text>
</a>
</g>
</g>
<!-- Node0&#45;&gt;Node5 -->
<g id="edge5" class="edge">
<title>Node0&#45;&gt;Node5</title>
<path fill="none" stroke="#191970" d="M818.3621,-179.4554C782.0245,-168.6595 733.8036,-154.333 700.5682,-144.4587"/>
<polygon fill="#191970" stroke="#191970" points="701.3473,-141.039 690.7646,-141.546 699.3537,-147.7491 701.3473,-141.039"/>
</g>
<!-- Node10 -->
<g id="node11" class="node">
<title>Node10</title>
<polygon fill="none" stroke="#bfbfbf" points="1020,-62 1020,-81 1064,-81 1064,-62 1020,-62"/>
<text text-anchor="middle" x="1042" y="-69" font-family="Helvetica,sans-Serif" font-size="10.00" fill="#000000">string</text>
</g>
<!-- Node0&#45;&gt;Node10 -->
<g id="edge31" class="edge">
<title>Node0&#45;&gt;Node10</title>
<path fill="none" stroke="#191970" d="M890.2132,-179.4178C923.3433,-155.8629 987.0214,-110.5888 1020.3922,-86.8628"/>
<polygon fill="#191970" stroke="#191970" points="1022.447,-89.6964 1028.5689,-81.0493 1018.3908,-83.9913 1022.447,-89.6964"/>
</g>
<!-- Node21 -->
<g id="node22" class="node">
<title>Node21</title>
<g id="a_node22"><a xlink:href="dtypes_8h.html" target="_top" xlink:title="dtypes.h">
<polygon fill="none" stroke="#000000" points="1188.5,-123.5 1188.5,-142.5 1247.5,-142.5 1247.5,-123.5 1188.5,-123.5"/>
<text text-anchor="middle" x="1218" y="-130.5" font-family="Helvetica,sans-Serif" font-size="10.00" fill="#000000">dtypes.h</text>
</a>
</g>
</g>
<!-- Node0&#45;&gt;Node21 -->
<g id="edge23" class="edge">
<title>Node0&#45;&gt;Node21</title>
<path fill="none" stroke="#191970" d="M930.1905,-183.7171C1001.7084,-171.1144 1117.9632,-150.6283 1178.5107,-139.9587"/>
<polygon fill="#191970" stroke="#191970" points="1179.1994,-143.3914 1188.4402,-138.209 1177.9845,-136.4976 1179.1994,-143.3914"/>
</g>
<!-- Node28 -->
<g id="node29" class="node">
<title>Node28</title>
<polygon fill="none" stroke="#bfbfbf" points="1265.5,-123.5 1265.5,-142.5 1306.5,-142.5 1306.5,-123.5 1265.5,-123.5"/>
<text text-anchor="middle" x="1286" y="-130.5" font-family="Helvetica,sans-Serif" font-size="10.00" fill="#000000">tuple</text>
</g>
<!-- Node0&#45;&gt;Node28 -->
<g id="edge32" class="edge">
<title>Node0&#45;&gt;Node28</title>
<path fill="none" stroke="#191970" d="M930.1692,-190.1846C1005.0985,-184.0563 1135.8583,-170.6345 1255.2013,-143.0748"/>
<polygon fill="#191970" stroke="#191970" points="1256.3034,-146.4112 1265.2378,-140.7168 1254.7024,-139.5967 1256.3034,-146.4112"/>
</g>
<!-- Node29 -->
<g id="node30" class="node">
<title>Node29</title>
<polygon fill="none" stroke="#bfbfbf" points="1324.5,-123.5 1324.5,-142.5 1467.5,-142.5 1467.5,-123.5 1324.5,-123.5"/>
<text text-anchor="middle" x="1396" y="-130.5" font-family="Helvetica,sans-Serif" font-size="10.00" fill="#000000">boost/functional/hash.hpp</text>
</g>
<!-- Node0&#45;&gt;Node29 -->
<g id="edge34" class="edge">
<title>Node0&#45;&gt;Node29</title>
<path fill="none" stroke="#191970" d="M930.1173,-187.6475C1014.2026,-178.1778 1170.5887,-160.4152 1314.161,-143.2128"/>
<polygon fill="#191970" stroke="#191970" points="1314.963,-146.6418 1324.4749,-141.9753 1314.1291,-139.6916 1314.963,-146.6418"/>
</g>
<!-- Node1&#45;&gt;Node2 -->
<g id="edge2" class="edge">
<title>Node1&#45;&gt;Node2</title>
<path fill="none" stroke="#191970" d="M170.8799,-125.0299C141.9641,-116.5702 95.804,-102.3278 57,-87 55.6018,-86.4477 54.1791,-85.8645 52.7483,-85.2608"/>
<polygon fill="#191970" stroke="#191970" points="53.9254,-81.954 43.3657,-81.0916 51.0829,-88.3509 53.9254,-81.954"/>
</g>
<!-- Node1&#45;&gt;Node3 -->
<g id="edge3" class="edge">
<title>Node1&#45;&gt;Node3</title>
<path fill="none" stroke="#191970" d="M205.0938,-123.3906C210.7843,-114.417 219.4272,-100.7879 226.4274,-89.7491"/>
<polygon fill="#191970" stroke="#191970" points="229.4207,-91.5644 231.8203,-81.2449 223.5091,-87.8155 229.4207,-91.5644"/>
</g>
<!-- Node4 -->
<g id="node5" class="node">
<title>Node4</title>
<polygon fill="none" stroke="#bfbfbf" points="66.5,-62 66.5,-81 173.5,-81 173.5,-62 66.5,-62"/>
<text text-anchor="middle" x="120" y="-69" font-family="Helvetica,sans-Serif" font-size="10.00" fill="#000000">boost/optional.hpp</text>
</g>
<!-- Node1&#45;&gt;Node4 -->
<g id="edge4" class="edge">
<title>Node1&#45;&gt;Node4</title>
<path fill="none" stroke="#191970" d="M186.6563,-123.3906C174.2497,-113.7324 154.9157,-98.6812 140.2587,-87.271"/>
<polygon fill="#191970" stroke="#191970" points="142.2979,-84.423 132.2571,-81.0419 137.9979,-89.9466 142.2979,-84.423"/>
</g>
<!-- Node6 -->
<g id="node7" class="node">
<title>Node6</title>
<polygon fill="none" stroke="#bfbfbf" points="303,-62 303,-81 363,-81 363,-62 303,-62"/>
<text text-anchor="middle" x="333" y="-69" font-family="Helvetica,sans-Serif" font-size="10.00" fill="#000000">iostream</text>
</g>
<!-- Node5&#45;&gt;Node6 -->
<g id="edge6" class="edge">
<title>Node5&#45;&gt;Node6</title>
<path fill="none" stroke="#191970" d="M633.153,-130.5535C580.5081,-125.6217 465.649,-112.6967 372,-87 369.3893,-86.2836 366.7149,-85.4487 364.0502,-84.5447"/>
<polygon fill="#191970" stroke="#191970" points="365.1676,-81.2265 354.5741,-81.0568 362.7496,-87.7956 365.1676,-81.2265"/>
</g>
<!-- Node7 -->
<g id="node8" class="node">
<title>Node7</title>
<polygon fill="none" stroke="#bfbfbf" points="381,-62 381,-81 439,-81 439,-62 381,-62"/>
<text text-anchor="middle" x="410" y="-69" font-family="Helvetica,sans-Serif" font-size="10.00" fill="#000000">memory</text>
</g>
<!-- Node5&#45;&gt;Node7 -->
<g id="edge7" class="edge">
<title>Node5&#45;&gt;Node7</title>
<path fill="none" stroke="#191970" d="M633.3104,-127.9042C592.7586,-120.4267 516.5333,-105.359 453,-87 450.2126,-86.1945 447.3443,-85.303 444.4751,-84.3664"/>
<polygon fill="#191970" stroke="#191970" points="445.427,-80.9929 434.8324,-81.0679 443.1613,-87.6161 445.427,-80.9929"/>
</g>
<!-- Node8 -->
<g id="node9" class="node">
<title>Node8</title>
<polygon fill="none" stroke="#bfbfbf" points="381,-.5 381,-19.5 435,-19.5 435,-.5 381,-.5"/>
<text text-anchor="middle" x="408" y="-7.5" font-family="Helvetica,sans-Serif" font-size="10.00" fill="#000000">random</text>
</g>
<!-- Node5&#45;&gt;Node8 -->
<g id="edge8" class="edge">
<title>Node5&#45;&gt;Node8</title>
<path fill="none" stroke="#191970" d="M633.2221,-128.7033C599.5219,-122.8281 542.747,-110.2587 499,-87 469.2088,-71.1611 440.4555,-44.2673 423.5006,-26.8228"/>
<polygon fill="#191970" stroke="#191970" points="426.0073,-24.3798 416.5793,-19.5463 420.9353,-29.2042 426.0073,-24.3798"/>
</g>
<!-- Node9 -->
<g id="node10" class="node">
<title>Node9</title>
<polygon fill="none" stroke="#bfbfbf" points="599,-62 599,-81 655,-81 655,-62 599,-62"/>
<text text-anchor="middle" x="627" y="-69" font-family="Helvetica,sans-Serif" font-size="10.00" fill="#000000">sstream</text>
</g>
<!-- Node5&#45;&gt;Node9 -->
<g id="edge9" class="edge">
<title>Node5&#45;&gt;Node9</title>
<path fill="none" stroke="#191970" d="M656.5313,-123.3906C651.4754,-114.5068 643.8228,-101.0601 637.5746,-90.0811"/>
<polygon fill="#191970" stroke="#191970" points="640.534,-88.2048 632.5459,-81.2449 634.4502,-91.6672 640.534,-88.2048"/>
</g>
<!-- Node5&#45;&gt;Node10 -->
<g id="edge10" class="edge">
<title>Node5&#45;&gt;Node10</title>
<path fill="none" stroke="#191970" d="M690.6078,-132.2895C750.914,-130.1304 894.9998,-121.4736 1010,-87 1011.8626,-86.4416 1013.7513,-85.786 1015.6315,-85.0655"/>
<polygon fill="#191970" stroke="#191970" points="1017.0304,-88.2739 1024.8014,-81.0723 1014.2356,-81.856 1017.0304,-88.2739"/>
</g>
<!-- Node11 -->
<g id="node12" class="node">
<title>Node11</title>
<polygon fill="none" stroke="#bfbfbf" points="673,-62 673,-81 721,-81 721,-62 673,-62"/>
<text text-anchor="middle" x="697" y="-69" font-family="Helvetica,sans-Serif" font-size="10.00" fill="#000000">thread</text>
</g>
<!-- Node5&#45;&gt;Node11 -->
<g id="edge11" class="edge">
<title>Node5&#45;&gt;Node11</title>
<path fill="none" stroke="#191970" d="M667.4688,-123.3906C672.5246,-114.5068 680.1772,-101.0601 686.4254,-90.0811"/>
<polygon fill="#191970" stroke="#191970" points="689.5498,-91.6672 691.4541,-81.2449 683.466,-88.2048 689.5498,-91.6672"/>
</g>
<!-- Node12 -->
<g id="node13" class="node">
<title>Node12</title>
<polygon fill="none" stroke="#bfbfbf" points="453.5,-.5 453.5,-19.5 522.5,-19.5 522.5,-.5 453.5,-.5"/>
<text text-anchor="middle" x="488" y="-7.5" font-family="Helvetica,sans-Serif" font-size="10.00" fill="#000000">type_traits</text>
</g>
<!-- Node5&#45;&gt;Node12 -->
<g id="edge12" class="edge">
<title>Node5&#45;&gt;Node12</title>
<path fill="none" stroke="#191970" d="M633.3253,-130.1199C602.8655,-125.6769 554.929,-114.5458 524,-87 507.005,-71.8641 497.4216,-47.0206 492.4875,-29.6586"/>
<polygon fill="#191970" stroke="#191970" points="495.7588,-28.3246 489.8854,-19.5068 488.978,-30.0627 495.7588,-28.3246"/>
</g>
<!-- Node13 -->
<g id="node14" class="node">
<title>Node13</title>
<polygon fill="none" stroke="#bfbfbf" points="739,-56.5 739,-86.5 861,-86.5 861,-56.5 739,-56.5"/>
<text text-anchor="start" x="747" y="-74.5" font-family="Helvetica,sans-Serif" font-size="10.00" fill="#000000">boost/iterator/iterator</text>
<text text-anchor="middle" x="800" y="-63.5" font-family="Helvetica,sans-Serif" font-size="10.00" fill="#000000">_facade.hpp</text>
</g>
<!-- Node5&#45;&gt;Node13 -->
<g id="edge13" class="edge">
<title>Node5&#45;&gt;Node13</title>
<path fill="none" stroke="#191970" d="M683.5625,-123.3906C703.1038,-114.682 732.4837,-101.5888 756.8416,-90.7336"/>
<polygon fill="#191970" stroke="#191970" points="758.5321,-93.8122 766.2414,-86.5446 755.6826,-87.4183 758.5321,-93.8122"/>
</g>
<!-- Node14 -->
<g id="node15" class="node">
<title>Node14</title>
<polygon fill="none" stroke="#bfbfbf" points="879.5,-62 879.5,-81 938.5,-81 938.5,-62 879.5,-62"/>
<text text-anchor="middle" x="909" y="-69" font-family="Helvetica,sans-Serif" font-size="10.00" fill="#000000">sqlite3.h</text>
</g>
<!-- Node5&#45;&gt;Node14 -->
<g id="edge14" class="edge">
<title>Node5&#45;&gt;Node14</title>
<path fill="none" stroke="#191970" d="M690.6357,-128.1737C731.0925,-121.0164 807.07,-106.3268 870,-87 872.2919,-86.2961 874.639,-85.5171 876.9892,-84.6939"/>
<polygon fill="#191970" stroke="#191970" points="878.3843,-87.9092 886.5347,-81.1402 875.942,-81.3491 878.3843,-87.9092"/>
</g>
<!-- Node15 -->
<g id="node16" class="node">
<title>Node15</title>
<polygon fill="none" stroke="#bfbfbf" points="956.5,-62 956.5,-81 1001.5,-81 1001.5,-62 956.5,-62"/>
<text text-anchor="middle" x="979" y="-69" font-family="Helvetica,sans-Serif" font-size="10.00" fill="#000000">utility</text>
</g>
<!-- Node5&#45;&gt;Node15 -->
<g id="edge15" class="edge">
<title>Node5&#45;&gt;Node15</title>
<path fill="none" stroke="#191970" d="M690.5419,-131.1475C742.5878,-127.1694 855.9446,-115.7211 947,-87 948.6594,-86.4766 950.3414,-85.8805 952.0207,-85.2341"/>
<polygon fill="#191970" stroke="#191970" points="953.6633,-88.3365 961.4367,-81.1376 950.8706,-81.9177 953.6633,-88.3365"/>
</g>
<!-- Node16 -->
<g id="node17" class="node">
<title>Node16</title>
<g id="a_node17"><a xlink:href="utils_8h.html" target="_top" xlink:title="utils.h">
<polygon fill="none" stroke="#000000" points="533.5,-62 533.5,-81 580.5,-81 580.5,-62 533.5,-62"/>
<text text-anchor="middle" x="557" y="-69" font-family="Helvetica,sans-Serif" font-size="10.00" fill="#000000">utils.h</text>
</a>
</g>
</g>
<!-- Node5&#45;&gt;Node16 -->
<g id="edge16" class="edge">
<title>Node5&#45;&gt;Node16</title>
<path fill="none" stroke="#191970" d="M645.5938,-123.3906C628.5647,-113.4165 601.7159,-97.6908 582.0349,-86.1633"/>
<polygon fill="#191970" stroke="#191970" points="583.6888,-83.0759 573.291,-81.0419 580.151,-89.1161 583.6888,-83.0759"/>
</g>
<!-- Node16&#45;&gt;Node8 -->
<g id="edge20" class="edge">
<title>Node16&#45;&gt;Node8</title>
<path fill="none" stroke="#191970" d="M533.7188,-61.8906C508.679,-51.5554 468.6775,-35.0447 440.534,-23.4284"/>
<polygon fill="#191970" stroke="#191970" points="441.6967,-20.122 431.1178,-19.5419 439.026,-26.5925 441.6967,-20.122"/>
</g>
<!-- Node16&#45;&gt;Node12 -->
<g id="edge21" class="edge">
<title>Node16&#45;&gt;Node12</title>
<path fill="none" stroke="#191970" d="M546.2188,-61.8906C535.6474,-52.4683 519.3175,-37.9134 506.6397,-26.6137"/>
<polygon fill="#191970" stroke="#191970" points="508.7272,-23.7858 498.9333,-19.7449 504.0696,-29.0114 508.7272,-23.7858"/>
</g>
<!-- Node17 -->
<g id="node18" class="node">
<title>Node17</title>
<polygon fill="none" stroke="#bfbfbf" points="698,-.5 698,-19.5 762,-19.5 762,-.5 698,-.5"/>
<text text-anchor="middle" x="730" y="-7.5" font-family="Helvetica,sans-Serif" font-size="10.00" fill="#000000">algorithm</text>
</g>
<!-- Node16&#45;&gt;Node17 -->
<g id="edge17" class="edge">
<title>Node16&#45;&gt;Node17</title>
<path fill="none" stroke="#191970" d="M576.3712,-61.9222C580.805,-59.8645 585.5296,-57.7767 590,-56 622.3973,-43.1244 659.9715,-30.9227 688.0322,-22.3255"/>
<polygon fill="#191970" stroke="#191970" points="689.3603,-25.5801 697.9127,-19.3266 687.3272,-18.8819 689.3603,-25.5801"/>
</g>
<!-- Node18 -->
<g id="node19" class="node">
<title>Node18</title>
<polygon fill="none" stroke="#bfbfbf" points="780.5,-.5 780.5,-19.5 839.5,-19.5 839.5,-.5 780.5,-.5"/>
<text text-anchor="middle" x="810" y="-7.5" font-family="Helvetica,sans-Serif" font-size="10.00" fill="#000000">complex</text>
</g>
<!-- Node16&#45;&gt;Node18 -->
<g id="edge18" class="edge">
<title>Node16&#45;&gt;Node18</title>
<path fill="none" stroke="#191970" d="M575.1783,-61.9994C579.9117,-59.7945 585.0695,-57.6215 590,-56 664.8715,-31.3775 689.134,-37.6331 770.0716,-20.0748"/>
<polygon fill="#191970" stroke="#191970" points="771.2305,-23.4025 780.2302,-17.8118 769.7084,-16.57 771.2305,-23.4025"/>
</g>
<!-- Node19 -->
<g id="node20" class="node">
<title>Node19</title>
<polygon fill="none" stroke="#bfbfbf" points="540.5,-.5 540.5,-19.5 605.5,-19.5 605.5,-.5 540.5,-.5"/>
<text text-anchor="middle" x="573" y="-7.5" font-family="Helvetica,sans-Serif" font-size="10.00" fill="#000000">functional</text>
</g>
<!-- Node16&#45;&gt;Node19 -->
<g id="edge19" class="edge">
<title>Node16&#45;&gt;Node19</title>
<path fill="none" stroke="#191970" d="M559.5,-61.8906C561.7412,-53.276 565.0986,-40.3708 567.9045,-29.5858"/>
<polygon fill="#191970" stroke="#191970" points="571.3341,-30.304 570.4648,-19.7449 564.5596,-28.5414 571.3341,-30.304"/>
</g>
<!-- Node20 -->
<g id="node21" class="node">
<title>Node20</title>
<polygon fill="none" stroke="#bfbfbf" points="624,-.5 624,-19.5 680,-19.5 680,-.5 624,-.5"/>
<text text-anchor="middle" x="652" y="-7.5" font-family="Helvetica,sans-Serif" font-size="10.00" fill="#000000">unistd.h</text>
</g>
<!-- Node16&#45;&gt;Node20 -->
<g id="edge22" class="edge">
<title>Node16&#45;&gt;Node20</title>
<path fill="none" stroke="#191970" d="M571.8438,-61.8906C587.0418,-52.0519 610.8848,-36.6167 628.6206,-25.1351"/>
<polygon fill="#191970" stroke="#191970" points="630.768,-27.9144 637.2605,-19.5419 626.9639,-22.0382 630.768,-27.9144"/>
</g>
<!-- Node22 -->
<g id="node23" class="node">
<title>Node22</title>
<polygon fill="none" stroke="#bfbfbf" points="1082.5,-62 1082.5,-81 1159.5,-81 1159.5,-62 1082.5,-62"/>
<text text-anchor="middle" x="1121" y="-69" font-family="Helvetica,sans-Serif" font-size="10.00" fill="#000000">Eigen/Dense</text>
</g>
<!-- Node21&#45;&gt;Node22 -->
<g id="edge24" class="edge">
<title>Node21&#45;&gt;Node22</title>
<path fill="none" stroke="#191970" d="M1202.8438,-123.3906C1187.3257,-113.5519 1162.9807,-98.1167 1144.8716,-86.6351"/>
<polygon fill="#191970" stroke="#191970" points="1146.3696,-83.4407 1136.0498,-81.0419 1142.6213,-89.3526 1146.3696,-83.4407"/>
</g>
<!-- Node23 -->
<g id="node24" class="node">
<title>Node23</title>
<polygon fill="none" stroke="#bfbfbf" points="1178,-62 1178,-81 1258,-81 1258,-62 1178,-62"/>
<text text-anchor="middle" x="1218" y="-69" font-family="Helvetica,sans-Serif" font-size="10.00" fill="#000000">Eigen/Sparse</text>
</g>
<!-- Node21&#45;&gt;Node23 -->
<g id="edge25" class="edge">
<title>Node21&#45;&gt;Node23</title>
<path fill="none" stroke="#191970" d="M1218,-123.3906C1218,-114.8657 1218,-102.1392 1218,-91.4235"/>
<polygon fill="#191970" stroke="#191970" points="1221.5001,-91.2448 1218,-81.2449 1214.5001,-91.2449 1221.5001,-91.2448"/>
</g>
<!-- Node24 -->
<g id="node25" class="node">
<title>Node24</title>
<polygon fill="none" stroke="#bfbfbf" points="1276,-62 1276,-81 1318,-81 1318,-62 1276,-62"/>
<text text-anchor="middle" x="1297" y="-69" font-family="Helvetica,sans-Serif" font-size="10.00" fill="#000000">array</text>
</g>
<!-- Node21&#45;&gt;Node24 -->
<g id="edge26" class="edge">
<title>Node21&#45;&gt;Node24</title>
<path fill="none" stroke="#191970" d="M1230.3438,-123.3906C1242.7503,-113.7324 1262.0843,-98.6812 1276.7413,-87.271"/>
<polygon fill="#191970" stroke="#191970" points="1279.0021,-89.9466 1284.7429,-81.0419 1274.7021,-84.423 1279.0021,-89.9466"/>
</g>
<!-- Node25 -->
<g id="node26" class="node">
<title>Node25</title>
<polygon fill="none" stroke="#bfbfbf" points="1336.5,-62 1336.5,-81 1383.5,-81 1383.5,-62 1336.5,-62"/>
<text text-anchor="middle" x="1360" y="-69" font-family="Helvetica,sans-Serif" font-size="10.00" fill="#000000">cmath</text>
</g>
<!-- Node21&#45;&gt;Node25 -->
<g id="edge27" class="edge">
<title>Node21&#45;&gt;Node25</title>
<path fill="none" stroke="#191970" d="M1241.5049,-123.397C1263.6591,-114.2713 1297.7327,-100.0429 1327,-87 1328.1708,-86.4783 1329.3628,-85.9421 1330.5654,-85.397"/>
<polygon fill="#191970" stroke="#191970" points="1332.1959,-88.4994 1339.8141,-81.1364 1329.2671,-82.1416 1332.1959,-88.4994"/>
</g>
<!-- Node26 -->
<g id="node27" class="node">
<title>Node26</title>
<polygon fill="none" stroke="#bfbfbf" points="1401.5,-56.5 1401.5,-86.5 1544.5,-86.5 1544.5,-56.5 1401.5,-56.5"/>
<text text-anchor="start" x="1409.5" y="-74.5" font-family="Helvetica,sans-Serif" font-size="10.00" fill="#000000">unsupported/Eigen/CXX11</text>
<text text-anchor="middle" x="1473" y="-63.5" font-family="Helvetica,sans-Serif" font-size="10.00" fill="#000000">/Tensor</text>
</g>
<!-- Node21&#45;&gt;Node26 -->
<g id="edge28" class="edge">
<title>Node21&#45;&gt;Node26</title>
<path fill="none" stroke="#191970" d="M1247.7974,-125.3043C1250.9031,-124.5187 1254.0145,-123.7386 1257,-123 1304.1178,-111.3431 1357.1363,-98.6952 1398.8542,-88.8507"/>
<polygon fill="#191970" stroke="#191970" points="1399.7307,-92.2401 1408.6609,-86.5391 1398.1246,-85.4269 1399.7307,-92.2401"/>
</g>
<!-- Node27 -->
<g id="node28" class="node">
<title>Node27</title>
<polygon fill="none" stroke="#bfbfbf" points="1562.5,-62 1562.5,-81 1609.5,-81 1609.5,-62 1562.5,-62"/>
<text text-anchor="middle" x="1586" y="-69" font-family="Helvetica,sans-Serif" font-size="10.00" fill="#000000">vector</text>
</g>
<!-- Node21&#45;&gt;Node27 -->
<g id="edge29" class="edge">
<title>Node21&#45;&gt;Node27</title>
<path fill="none" stroke="#191970" d="M1247.7211,-124.9537C1250.8417,-124.2365 1253.9774,-123.5682 1257,-123 1387.6773,-98.4351 1426.4292,-124.4924 1554,-87 1555.7101,-86.4974 1557.4416,-85.911 1559.1678,-85.2661"/>
<polygon fill="#191970" stroke="#191970" points="1561.0146,-88.2814 1568.8122,-81.1087 1558.2435,-81.8532 1561.0146,-88.2814"/>
</g>
</g>
</svg>
        <g id="navigator" transform="translate(0 0)" fill="#404254">
                <rect fill="#f2f5e9" fill-opacity="0.5" stroke="#606060" stroke-width=".5" x="0" y="0" width="60" height="60"/>
                <use id="zoomplus" xlink:href="#zoomPlus" x="17" y="9" onmousedown="handleZoom(evt,'in')"/>
                <use id="zoomminus" xlink:href="#zoomMin" x="42" y="9" onmousedown="handleZoom(evt,'out')"/>
                <use id="reset" xlink:href="#resetDef" x="30" y="36" onmousedown="handleReset()"/>
                <g id="arrowUp" xlink:href="#dirArrow" transform="translate(30 24)" onmousedown="handlePan(0,-1)">
                  <use xlink:href="#rim" fill="#404040">
                        <set attributeName="fill" to="#808080" begin="arrowUp.mouseover" end="arrowUp.mouseout"/>
                  </use>
                  <path fill="none" stroke="white" stroke-width="1.5" d="M0,-3.0v7 M-2.5,-0.5L0,-3.0L2.5,-0.5"/>
                </g>
                <g id="arrowRight" xlink:href="#dirArrow" transform="rotate(90) translate(36 -43)" onmousedown="handlePan(1,0)">
                  <use xlink:href="#rim" fill="#404040">
                        <set attributeName="fill" to="#808080" begin="arrowRight.mouseover" end="arrowRight.mouseout"/>
                  </use>
                  <path fill="none" stroke="white" stroke-width="1.5" d="M0,-3.0v7 M-2.5,-0.5L0,-3.0L2.5,-0.5"/>
                </g>
                <g id="arrowDown" xlink:href="#dirArrow" transform="rotate(180) translate(-30 -48)" onmousedown="handlePan(0,1)">
                  <use xlink:href="#rim" fill="#404040">
                        <set attributeName="fill" to="#808080" begin="arrowDown.mouseover" end="arrowDown.mouseout"/>
                  </use>
                  <path fill="none" stroke="white" stroke-width="1.5" d="M0,-3.0v7 M-2.5,-0.5L0,-3.0L2.5,-0.5"/>
                </g>
                <g id="arrowLeft" xlink:href="#dirArrow" transform="rotate(270) translate(-36 17)" onmousedown="handlePan(-1,0)">
                  <use xlink:href="#rim" fill="#404040">
                        <set attributeName="fill" to="#808080" begin="arrowLeft.mouseover" end="arrowLeft.mouseout"/>
                  </use>
                  <path fill="none" stroke="white" stroke-width="1.5" d="M0,-3.0v7 M-2.5,-0.5L0,-3.0L2.5,-0.5"/>
                </g>
        </g>
        <svg viewBox="0 0 15 15" width="100%" height="30px" preserveAspectRatio="xMaxYMin meet">
         <g id="arrow_out" transform="scale(0.3 0.3)">
          <a xlink:href="QuantumDefect_8h__incl_org.svg" target="_base">
           <rect id="button" ry="5" rx="5" y="6" x="6" height="38" width="38"
                fill="#f2f5e9" fill-opacity="0.5" stroke="#606060" stroke-width="1.0"/>
           <path id="arrow"
             d="M 11.500037,31.436501 C 11.940474,20.09759 22.043105,11.32322 32.158766,21.979434 L 37.068811,17.246167 C 37.068811,17.246167 37.088388,32 37.088388,32 L 22.160133,31.978069 C 22.160133,31.978069 26.997745,27.140456 26.997745,27.140456 C 18.528582,18.264221 13.291696,25.230495 11.500037,31.436501 z"
             style="fill:#404040;"/>
          </a>
         </g>
        </svg>
</svg>
