<?xml version="1.0" encoding="UTF-8" standalone="no"?>
<!DOCTYPE svg PUBLIC "-//W3C//DTD SVG 1.1//EN"
 "http://www.w3.org/Graphics/SVG/1.1/DTD/svg11.dtd">
<!-- Generated by graphviz version 2.40.1 (20161225.0304)
 -->
<!-- Title: /travis/pairinteraction/QuantumDefect.cpp Pages: 1 -->
<svg width="1881pt" height="274pt"
 viewBox="0.00 0.00 1881.00 274.00" xmlns="http://www.w3.org/2000/svg" xmlns:xlink="http://www.w3.org/1999/xlink">
<g id="graph0" class="graph" transform="scale(1 1) rotate(0) translate(4 270)">
<title>/travis/pairinteraction/QuantumDefect.cpp</title>
<!-- Node0 -->
<g id="node1" class="node">
<title>Node0</title>
<polygon fill="#bfbfbf" stroke="#000000" points="1408.5,-235.5 1408.5,-265.5 1530.5,-265.5 1530.5,-235.5 1408.5,-235.5"/>
<text text-anchor="start" x="1416.5" y="-253.5" font-family="Helvetica,sans-Serif" font-size="10.00" fill="#000000">/travis/pairinteraction</text>
<text text-anchor="middle" x="1469.5" y="-242.5" font-family="Helvetica,sans-Serif" font-size="10.00" fill="#000000">/QuantumDefect.cpp</text>
</g>
<!-- Node1 -->
<g id="node2" class="node">
<title>Node1</title>
<g id="a_node2"><a xlink:href="QuantumDefect_8h.html" target="_top" xlink:title="QuantumDefect.h">
<polygon fill="none" stroke="#000000" points="591,-179.5 591,-198.5 694,-198.5 694,-179.5 591,-179.5"/>
<text text-anchor="middle" x="642.5" y="-186.5" font-family="Helvetica,sans-Serif" font-size="10.00" fill="#000000">QuantumDefect.h</text>
</a>
</g>
</g>
<!-- Node0&#45;&gt;Node1 -->
<g id="edge1" class="edge">
<title>Node0&#45;&gt;Node1</title>
<path fill="none" stroke="#191970" d="M1408.3529,-245.9528C1255.4813,-234.5845 857.9556,-205.0224 704.3437,-193.599"/>
<polygon fill="#191970" stroke="#191970" points="704.3794,-190.0921 694.1473,-192.8408 703.8602,-197.0728 704.3794,-190.0921"/>
</g>
<!-- Node6 -->
<g id="node7" class="node">
<title>Node6</title>
<g id="a_node7"><a xlink:href="SQLite_8h.html" target="_top" xlink:title="SQLite.h">
<polygon fill="none" stroke="#000000" points="1227,-123.5 1227,-142.5 1284,-142.5 1284,-123.5 1227,-123.5"/>
<text text-anchor="middle" x="1255.5" y="-130.5" font-family="Helvetica,sans-Serif" font-size="10.00" fill="#000000">SQLite.h</text>
</a>
</g>
</g>
<!-- Node0&#45;&gt;Node6 -->
<g id="edge37" class="edge">
<title>Node0&#45;&gt;Node6</title>
<path fill="none" stroke="#191970" d="M1441.9613,-235.3795C1400.4887,-212.6083 1322.5296,-169.8036 1281.7984,-147.4395"/>
<polygon fill="#191970" stroke="#191970" points="1283.4428,-144.3496 1272.9927,-142.6046 1280.0737,-150.4855 1283.4428,-144.3496"/>
</g>
<!-- Node7 -->
<g id="node8" class="node">
<title>Node7</title>
<polygon fill="none" stroke="#bfbfbf" points="1411.5,-62 1411.5,-81 1471.5,-81 1471.5,-62 1411.5,-62"/>
<text text-anchor="middle" x="1441.5" y="-69" font-family="Helvetica,sans-Serif" font-size="10.00" fill="#000000">iostream</text>
</g>
<!-- Node0&#45;&gt;Node7 -->
<g id="edge41" class="edge">
<title>Node0&#45;&gt;Node7</title>
<path fill="none" stroke="#191970" d="M1467.1127,-235.2386C1462.0529,-202.892 1450.2532,-127.458 1444.6117,-91.393"/>
<polygon fill="#191970" stroke="#191970" points="1448.0163,-90.5103 1443.0128,-81.1714 1441.1004,-91.5922 1448.0163,-90.5103"/>
</g>
<!-- Node10 -->
<g id="node11" class="node">
<title>Node10</title>
<polygon fill="none" stroke="#bfbfbf" points="1489.5,-62 1489.5,-81 1545.5,-81 1545.5,-62 1489.5,-62"/>
<text text-anchor="middle" x="1517.5" y="-69" font-family="Helvetica,sans-Serif" font-size="10.00" fill="#000000">sstream</text>
</g>
<!-- Node0&#45;&gt;Node10 -->
<g id="edge42" class="edge">
<title>Node0&#45;&gt;Node10</title>
<path fill="none" stroke="#191970" d="M1473.5925,-235.2386C1482.3039,-202.752 1502.6698,-126.8041 1512.2906,-90.9268"/>
<polygon fill="#191970" stroke="#191970" points="1515.697,-91.7367 1514.9066,-81.1714 1508.9359,-89.9236 1515.697,-91.7367"/>
</g>
<!-- Node11 -->
<g id="node12" class="node">
<title>Node11</title>
<polygon fill="none" stroke="#bfbfbf" points="848.5,-62 848.5,-81 892.5,-81 892.5,-62 848.5,-62"/>
<text text-anchor="middle" x="870.5" y="-69" font-family="Helvetica,sans-Serif" font-size="10.00" fill="#000000">string</text>
</g>
<!-- Node0&#45;&gt;Node11 -->
<g id="edge43" class="edge">
<title>Node0&#45;&gt;Node11</title>
<path fill="none" stroke="#191970" d="M1421.3351,-235.4296C1342.443,-210.9003 1180.6256,-161.2382 1042.5,-123 980.1675,-105.7441 962.1033,-109.591 901.5,-87 900.0904,-86.4746 898.6606,-85.9039 897.2278,-85.3019"/>
<polygon fill="#191970" stroke="#191970" points="898.4621,-82.0173 887.9142,-81.0209 895.5385,-88.3776 898.4621,-82.0173"/>
</g>
<!-- Node16 -->
<g id="node17" class="node">
<title>Node16</title>
<polygon fill="none" stroke="#bfbfbf" points="1564,-62 1564,-81 1609,-81 1609,-62 1564,-62"/>
<text text-anchor="middle" x="1586.5" y="-69" font-family="Helvetica,sans-Serif" font-size="10.00" fill="#000000">utility</text>
</g>
<!-- Node0&#45;&gt;Node16 -->
<g id="edge44" class="edge">
<title>Node0&#45;&gt;Node16</title>
<path fill="none" stroke="#191970" d="M1479.4754,-235.2386C1500.9842,-202.3319 1551.6401,-124.8327 1574.6985,-89.5553"/>
<polygon fill="#191970" stroke="#191970" points="1577.6369,-91.4569 1580.1785,-81.1714 1571.7775,-87.627 1577.6369,-91.4569"/>
</g>
<!-- Node18 -->
<g id="node19" class="node">
<title>Node18</title>
<polygon fill="none" stroke="#bfbfbf" points="1516.5,-.5 1516.5,-19.5 1580.5,-19.5 1580.5,-.5 1516.5,-.5"/>
<text text-anchor="middle" x="1548.5" y="-7.5" font-family="Helvetica,sans-Serif" font-size="10.00" fill="#000000">algorithm</text>
</g>
<!-- Node0&#45;&gt;Node18 -->
<g id="edge38" class="edge">
<title>Node0&#45;&gt;Node18</title>
<path fill="none" stroke="#191970" d="M1491.5924,-235.3463C1526.7481,-209.6825 1593.9564,-153.8785 1618.5,-87 1623.2467,-74.0657 1625.0413,-68.1259 1618.5,-56 1610.927,-41.9617 1596.9927,-31.5084 1583.5386,-24.1453"/>
<polygon fill="#191970" stroke="#191970" points="1584.8906,-20.9074 1574.385,-19.5353 1581.742,-27.1593 1584.8906,-20.9074"/>
</g>
<!-- Node26 -->
<g id="node27" class="node">
<title>Node26</title>
<polygon fill="none" stroke="#bfbfbf" points="783,-62 783,-81 830,-81 830,-62 783,-62"/>
<text text-anchor="middle" x="806.5" y="-69" font-family="Helvetica,sans-Serif" font-size="10.00" fill="#000000">cmath</text>
</g>
<!-- Node0&#45;&gt;Node26 -->
<g id="edge39" class="edge">
<title>Node0&#45;&gt;Node26</title>
<path fill="none" stroke="#191970" d="M1408.2764,-237.7103C1361.8158,-227.7823 1296.4422,-213.3364 1239.5,-199 1060.4718,-153.926 1012.5356,-151.354 839.5,-87 837.9093,-86.4084 836.2898,-85.7707 834.665,-85.103"/>
<polygon fill="#191970" stroke="#191970" points="836.0281,-81.8791 825.4646,-81.0639 833.2142,-88.2886 836.0281,-81.8791"/>
</g>
<!-- Node31 -->
<g id="node32" class="node">
<title>Node31</title>
<polygon fill="none" stroke="#bfbfbf" points="1665.5,-179.5 1665.5,-198.5 1789.5,-198.5 1789.5,-179.5 1665.5,-179.5"/>
<text text-anchor="middle" x="1727.5" y="-186.5" font-family="Helvetica,sans-Serif" font-size="10.00" fill="#000000">EmbeddedDatabase.h</text>
</g>
<!-- Node0&#45;&gt;Node31 -->
<g id="edge36" class="edge">
<title>Node0&#45;&gt;Node31</title>
<path fill="none" stroke="#191970" d="M1530.6424,-235.9254C1575.3823,-225.2606 1635.3457,-210.967 1677.2928,-200.968"/>
<polygon fill="#191970" stroke="#191970" points="1678.3668,-204.3101 1687.2827,-198.5867 1676.7436,-197.5009 1678.3668,-204.3101"/>
</g>
<!-- Node32 -->
<g id="node33" class="node">
<title>Node32</title>
<polygon fill="none" stroke="#bfbfbf" points="1808,-179.5 1808,-198.5 1873,-198.5 1873,-179.5 1808,-179.5"/>
<text text-anchor="middle" x="1840.5" y="-186.5" font-family="Helvetica,sans-Serif" font-size="10.00" fill="#000000">exception</text>
</g>
<!-- Node0&#45;&gt;Node32 -->
<g id="edge40" class="edge">
<title>Node0&#45;&gt;Node32</title>
<path fill="none" stroke="#191970" d="M1530.6914,-242.3856C1594.8122,-233.553 1698.6555,-218.3198 1798.0796,-198.9536"/>
<polygon fill="#191970" stroke="#191970" points="1798.8581,-202.3676 1807.9957,-197.0052 1797.5085,-195.4989 1798.8581,-202.3676"/>
</g>
<!-- Node2 -->
<g id="node3" class="node">
<title>Node2</title>
<g id="a_node3"><a xlink:href="Cache_8h.html" target="_top" xlink:title="Cache.h">
<polygon fill="none" stroke="#000000" points="156.5,-123.5 156.5,-142.5 212.5,-142.5 212.5,-123.5 156.5,-123.5"/>
<text text-anchor="middle" x="184.5" y="-130.5" font-family="Helvetica,sans-Serif" font-size="10.00" fill="#000000">Cache.h</text>
</a>
</g>
</g>
<!-- Node1&#45;&gt;Node2 -->
<g id="edge2" class="edge">
<title>Node1&#45;&gt;Node2</title>
<path fill="none" stroke="#191970" d="M590.8519,-182.6849C497.9546,-171.3263 304.7277,-147.7003 222.6766,-137.6679"/>
<polygon fill="#191970" stroke="#191970" points="222.8965,-134.1688 212.5456,-136.4292 222.0469,-141.117 222.8965,-134.1688"/>
</g>
<!-- Node3 -->
<g id="node4" class="node">
<title>Node3</title>
<polygon fill="none" stroke="#bfbfbf" points="236.5,-62 236.5,-81 284.5,-81 284.5,-62 236.5,-62"/>
<text text-anchor="middle" x="260.5" y="-69" font-family="Helvetica,sans-Serif" font-size="10.00" fill="#000000">mutex</text>
</g>
<!-- Node1&#45;&gt;Node3 -->
<g id="edge31" class="edge">
<title>Node1&#45;&gt;Node3</title>
<path fill="none" stroke="#191970" d="M602.5915,-179.482C537.0666,-163.3801 403.0191,-128.4396 293.5,-87 291.9127,-86.3994 290.2959,-85.7546 288.6731,-85.0814"/>
<polygon fill="#191970" stroke="#191970" points="290.0409,-81.8594 279.4789,-81.0259 287.2159,-88.264 290.0409,-81.8594"/>
</g>
<!-- Node4 -->
<g id="node5" class="node">
<title>Node4</title>
<polygon fill="none" stroke="#bfbfbf" points="0,-62 0,-81 93,-81 93,-62 0,-62"/>
<text text-anchor="middle" x="46.5" y="-69" font-family="Helvetica,sans-Serif" font-size="10.00" fill="#000000">unordered_map</text>
</g>
<!-- Node1&#45;&gt;Node4 -->
<g id="edge34" class="edge">
<title>Node1&#45;&gt;Node4</title>
<path fill="none" stroke="#191970" d="M590.9599,-187.5788C481.1988,-184.0083 227.8388,-172.7219 147.5,-143 114.6782,-130.8573 82.7323,-105.2182 63.8368,-88.1748"/>
<polygon fill="#191970" stroke="#191970" points="66.0626,-85.4659 56.345,-81.2448 61.3093,-90.6046 66.0626,-85.4659"/>
</g>
<!-- Node1&#45;&gt;Node6 -->
<g id="edge6" class="edge">
<title>Node1&#45;&gt;Node6</title>
<path fill="none" stroke="#191970" d="M694.2357,-184.2737C814.4928,-173.2878 1110.6768,-146.2302 1216.8482,-136.531"/>
<polygon fill="#191970" stroke="#191970" points="1217.1689,-140.0164 1226.809,-135.621 1216.532,-133.0454 1217.1689,-140.0164"/>
</g>
<!-- Node1&#45;&gt;Node11 -->
<g id="edge32" class="edge">
<title>Node1&#45;&gt;Node11</title>
<path fill="none" stroke="#191970" d="M694.0241,-181.3921C742.6231,-173.3662 811.1163,-159.593 832.5,-143 849.4453,-129.851 859.6901,-106.9772 865.2021,-90.6415"/>
<polygon fill="#191970" stroke="#191970" points="868.5673,-91.6059 868.1637,-81.0188 861.8769,-89.5468 868.5673,-91.6059"/>
</g>
<!-- Node22 -->
<g id="node23" class="node">
<title>Node22</title>
<g id="a_node23"><a xlink:href="dtypes_8h.html" target="_top" xlink:title="dtypes.h">
<polygon fill="none" stroke="#000000" points="545,-123.5 545,-142.5 604,-142.5 604,-123.5 545,-123.5"/>
<text text-anchor="middle" x="574.5" y="-130.5" font-family="Helvetica,sans-Serif" font-size="10.00" fill="#000000">dtypes.h</text>
</a>
</g>
</g>
<!-- Node1&#45;&gt;Node22 -->
<g id="edge24" class="edge">
<title>Node1&#45;&gt;Node22</title>
<path fill="none" stroke="#191970" d="M630.6553,-179.2455C620.612,-170.9746 606.0005,-158.9416 594.1996,-149.2232"/>
<polygon fill="#191970" stroke="#191970" points="596.1533,-146.298 586.209,-142.6427 591.7033,-151.7015 596.1533,-146.298"/>
</g>
<!-- Node29 -->
<g id="node30" class="node">
<title>Node29</title>
<polygon fill="none" stroke="#bfbfbf" points="622,-123.5 622,-142.5 663,-142.5 663,-123.5 622,-123.5"/>
<text text-anchor="middle" x="642.5" y="-130.5" font-family="Helvetica,sans-Serif" font-size="10.00" fill="#000000">tuple</text>
</g>
<!-- Node1&#45;&gt;Node29 -->
<g id="edge33" class="edge">
<title>Node1&#45;&gt;Node29</title>
<path fill="none" stroke="#191970" d="M642.5,-179.2455C642.5,-171.9382 642.5,-161.6944 642.5,-152.7046"/>
<polygon fill="#191970" stroke="#191970" points="646.0001,-152.6426 642.5,-142.6427 639.0001,-152.6427 646.0001,-152.6426"/>
</g>
<!-- Node30 -->
<g id="node31" class="node">
<title>Node30</title>
<polygon fill="none" stroke="#bfbfbf" points="681,-123.5 681,-142.5 824,-142.5 824,-123.5 681,-123.5"/>
<text text-anchor="middle" x="752.5" y="-130.5" font-family="Helvetica,sans-Serif" font-size="10.00" fill="#000000">boost/functional/hash.hpp</text>
</g>
<!-- Node1&#45;&gt;Node30 -->
<g id="edge35" class="edge">
<title>Node1&#45;&gt;Node30</title>
<path fill="none" stroke="#191970" d="M661.6605,-179.2455C679.0111,-170.4125 704.7901,-157.2887 724.4583,-147.2758"/>
<polygon fill="#191970" stroke="#191970" points="726.2353,-150.2986 733.559,-142.6427 723.0595,-144.0605 726.2353,-150.2986"/>
</g>
<!-- Node2&#45;&gt;Node3 -->
<g id="edge3" class="edge">
<title>Node2&#45;&gt;Node3</title>
<path fill="none" stroke="#191970" d="M196.375,-123.3906C208.1297,-113.8786 226.3486,-99.1357 240.3672,-87.7917"/>
<polygon fill="#191970" stroke="#191970" points="242.8856,-90.2562 248.4576,-81.2449 238.4822,-84.8146 242.8856,-90.2562"/>
</g>
<!-- Node2&#45;&gt;Node4 -->
<g id="edge4" class="edge">
<title>Node2&#45;&gt;Node4</title>
<path fill="none" stroke="#191970" d="M162.9375,-123.3906C139.9488,-113.1457 103.344,-96.8326 77.3176,-85.2339"/>
<polygon fill="#191970" stroke="#191970" points="78.4698,-81.9156 67.9111,-81.0419 75.6204,-88.3095 78.4698,-81.9156"/>
</g>
<!-- Node5 -->
<g id="node6" class="node">
<title>Node5</title>
<polygon fill="none" stroke="#bfbfbf" points="111,-62 111,-81 218,-81 218,-62 111,-62"/>
<text text-anchor="middle" x="164.5" y="-69" font-family="Helvetica,sans-Serif" font-size="10.00" fill="#000000">boost/optional.hpp</text>
</g>
<!-- Node2&#45;&gt;Node5 -->
<g id="edge5" class="edge">
<title>Node2&#45;&gt;Node5</title>
<path fill="none" stroke="#191970" d="M181.375,-123.3906C178.5735,-114.776 174.3767,-101.8708 170.8694,-91.0858"/>
<polygon fill="#191970" stroke="#191970" points="174.0902,-89.6722 167.6691,-81.2449 167.4333,-91.8371 174.0902,-89.6722"/>
</g>
<!-- Node6&#45;&gt;Node7 -->
<g id="edge7" class="edge">
<title>Node6&#45;&gt;Node7</title>
<path fill="none" stroke="#191970" d="M1284.1286,-123.9614C1312.8574,-114.8358 1358.3439,-100.2366 1397.5,-87 1399.9168,-86.183 1402.4051,-85.3324 1404.9106,-84.4688"/>
<polygon fill="#191970" stroke="#191970" points="1406.2501,-87.7086 1414.545,-81.1173 1403.9502,-81.0972 1406.2501,-87.7086"/>
</g>
<!-- Node8 -->
<g id="node9" class="node">
<title>Node8</title>
<polygon fill="none" stroke="#bfbfbf" points="1297.5,-62 1297.5,-81 1355.5,-81 1355.5,-62 1297.5,-62"/>
<text text-anchor="middle" x="1326.5" y="-69" font-family="Helvetica,sans-Serif" font-size="10.00" fill="#000000">memory</text>
</g>
<!-- Node6&#45;&gt;Node8 -->
<g id="edge8" class="edge">
<title>Node6&#45;&gt;Node8</title>
<path fill="none" stroke="#191970" d="M1266.5938,-123.3906C1277.4715,-113.9683 1294.2748,-99.4134 1307.32,-88.1137"/>
<polygon fill="#191970" stroke="#191970" points="1309.9827,-90.4377 1315.2498,-81.2449 1305.3996,-85.1466 1309.9827,-90.4377"/>
</g>
<!-- Node9 -->
<g id="node10" class="node">
<title>Node9</title>
<polygon fill="none" stroke="#bfbfbf" points="1356.5,-.5 1356.5,-19.5 1410.5,-19.5 1410.5,-.5 1356.5,-.5"/>
<text text-anchor="middle" x="1383.5" y="-7.5" font-family="Helvetica,sans-Serif" font-size="10.00" fill="#000000">random</text>
</g>
<!-- Node6&#45;&gt;Node9 -->
<g id="edge9" class="edge">
<title>Node6&#45;&gt;Node9</title>
<path fill="none" stroke="#191970" d="M1284.3266,-128.2594C1309.146,-122.6628 1344.0947,-110.8999 1364.5,-87 1378.0113,-71.1748 1382.1916,-47.2 1383.3492,-30.2125"/>
<polygon fill="#191970" stroke="#191970" points="1386.8642,-29.8795 1383.7451,-19.7542 1379.8692,-29.6146 1386.8642,-29.8795"/>
</g>
<!-- Node6&#45;&gt;Node10 -->
<g id="edge10" class="edge">
<title>Node6&#45;&gt;Node10</title>
<path fill="none" stroke="#191970" d="M1284.006,-128.9993C1327.1542,-122.5365 1411.3498,-108.3291 1480.5,-87 1482.6629,-86.3329 1484.873,-85.5853 1487.0834,-84.7885"/>
<polygon fill="#191970" stroke="#191970" points="1488.5789,-87.9623 1496.6309,-81.0765 1486.0423,-81.4381 1488.5789,-87.9623"/>
</g>
<!-- Node6&#45;&gt;Node11 -->
<g id="edge11" class="edge">
<title>Node6&#45;&gt;Node11</title>
<path fill="none" stroke="#191970" d="M1226.9346,-129.8429C1148.3021,-121.0741 932.4326,-96.4478 901.5,-87 899.8383,-86.4925 898.1571,-85.9022 896.4819,-85.2544"/>
<polygon fill="#191970" stroke="#191970" points="897.6899,-81.961 887.131,-81.0892 894.8416,-88.3554 897.6899,-81.961"/>
</g>
<!-- Node12 -->
<g id="node13" class="node">
<title>Node12</title>
<polygon fill="none" stroke="#bfbfbf" points="910.5,-62 910.5,-81 958.5,-81 958.5,-62 910.5,-62"/>
<text text-anchor="middle" x="934.5" y="-69" font-family="Helvetica,sans-Serif" font-size="10.00" fill="#000000">thread</text>
</g>
<!-- Node6&#45;&gt;Node12 -->
<g id="edge12" class="edge">
<title>Node6&#45;&gt;Node12</title>
<path fill="none" stroke="#191970" d="M1226.9223,-130.5108C1175.3321,-125.544 1063.5423,-112.6103 972.5,-87 970.0394,-86.3078 967.5222,-85.5053 965.0126,-84.6369"/>
<polygon fill="#191970" stroke="#191970" points="966.0985,-81.3058 955.5066,-81.0552 963.6304,-87.8563 966.0985,-81.3058"/>
</g>
<!-- Node13 -->
<g id="node14" class="node">
<title>Node13</title>
<polygon fill="none" stroke="#bfbfbf" points="993,-.5 993,-19.5 1062,-19.5 1062,-.5 993,-.5"/>
<text text-anchor="middle" x="1027.5" y="-7.5" font-family="Helvetica,sans-Serif" font-size="10.00" fill="#000000">type_traits</text>
</g>
<!-- Node6&#45;&gt;Node13 -->
<g id="edge13" class="edge">
<title>Node6&#45;&gt;Node13</title>
<path fill="none" stroke="#191970" d="M1226.8722,-129.7936C1164.2657,-122.4944 1019.6206,-103.9559 1005.5,-87 991.5372,-70.2337 1002.9618,-45.0864 1013.8943,-28.1349"/>
<polygon fill="#191970" stroke="#191970" points="1016.9422,-29.881 1019.753,-19.6658 1011.1854,-25.8986 1016.9422,-29.881"/>
</g>
<!-- Node14 -->
<g id="node15" class="node">
<title>Node14</title>
<polygon fill="none" stroke="#bfbfbf" points="1014.5,-56.5 1014.5,-86.5 1136.5,-86.5 1136.5,-56.5 1014.5,-56.5"/>
<text text-anchor="start" x="1022.5" y="-74.5" font-family="Helvetica,sans-Serif" font-size="10.00" fill="#000000">boost/iterator/iterator</text>
<text text-anchor="middle" x="1075.5" y="-63.5" font-family="Helvetica,sans-Serif" font-size="10.00" fill="#000000">_facade.hpp</text>
</g>
<!-- Node6&#45;&gt;Node14 -->
<g id="edge14" class="edge">
<title>Node6&#45;&gt;Node14</title>
<path fill="none" stroke="#191970" d="M1227.375,-123.3906C1201.2097,-114.4508 1161.5209,-100.8905 1129.2773,-89.8739"/>
<polygon fill="#191970" stroke="#191970" points="1130.1275,-86.4658 1119.533,-86.5446 1127.8642,-93.0898 1130.1275,-86.4658"/>
</g>
<!-- Node15 -->
<g id="node16" class="node">
<title>Node15</title>
<polygon fill="none" stroke="#bfbfbf" points="1155,-62 1155,-81 1214,-81 1214,-62 1155,-62"/>
<text text-anchor="middle" x="1184.5" y="-69" font-family="Helvetica,sans-Serif" font-size="10.00" fill="#000000">sqlite3.h</text>
</g>
<!-- Node6&#45;&gt;Node15 -->
<g id="edge15" class="edge">
<title>Node6&#45;&gt;Node15</title>
<path fill="none" stroke="#191970" d="M1244.4063,-123.3906C1233.5285,-113.9683 1216.7252,-99.4134 1203.68,-88.1137"/>
<polygon fill="#191970" stroke="#191970" points="1205.6004,-85.1466 1195.7502,-81.2449 1201.0173,-90.4377 1205.6004,-85.1466"/>
</g>
<!-- Node6&#45;&gt;Node16 -->
<g id="edge16" class="edge">
<title>Node6&#45;&gt;Node16</title>
<path fill="none" stroke="#191970" d="M1284.1663,-131.4336C1338.1726,-127.8646 1458.2202,-116.9791 1554.5,-87 1556.3566,-86.4219 1558.2407,-85.7514 1560.1176,-85.02"/>
<polygon fill="#191970" stroke="#191970" points="1561.5279,-88.2233 1569.2796,-81.001 1558.7159,-81.813 1561.5279,-88.2233"/>
</g>
<!-- Node17 -->
<g id="node18" class="node">
<title>Node17</title>
<g id="a_node18"><a xlink:href="utils_8h.html" target="_top" xlink:title="utils.h">
<polygon fill="none" stroke="#000000" points="1232,-62 1232,-81 1279,-81 1279,-62 1232,-62"/>
<text text-anchor="middle" x="1255.5" y="-69" font-family="Helvetica,sans-Serif" font-size="10.00" fill="#000000">utils.h</text>
</a>
</g>
</g>
<!-- Node6&#45;&gt;Node17 -->
<g id="edge17" class="edge">
<title>Node6&#45;&gt;Node17</title>
<path fill="none" stroke="#191970" d="M1255.5,-123.3906C1255.5,-114.8657 1255.5,-102.1392 1255.5,-91.4235"/>
<polygon fill="#191970" stroke="#191970" points="1259.0001,-91.2448 1255.5,-81.2449 1252.0001,-91.2449 1259.0001,-91.2448"/>
</g>
<!-- Node17&#45;&gt;Node9 -->
<g id="edge21" class="edge">
<title>Node17&#45;&gt;Node9</title>
<path fill="none" stroke="#191970" d="M1275.5,-61.8906C1296.7289,-51.6908 1330.4762,-35.4763 1354.596,-23.8875"/>
<polygon fill="#191970" stroke="#191970" points="1356.1426,-27.0275 1363.6404,-19.5419 1353.1111,-20.7179 1356.1426,-27.0275"/>
</g>
<!-- Node17&#45;&gt;Node13 -->
<g id="edge22" class="edge">
<title>Node17&#45;&gt;Node13</title>
<path fill="none" stroke="#191970" d="M1236.934,-61.9582C1232.2974,-59.8053 1227.2816,-57.6667 1222.5,-56 1172.1918,-38.4648 1112.2785,-25.4457 1072.2627,-17.8159"/>
<polygon fill="#191970" stroke="#191970" points="1072.758,-14.3479 1062.2845,-15.9465 1071.4689,-21.2282 1072.758,-14.3479"/>
</g>
<!-- Node17&#45;&gt;Node18 -->
<g id="edge18" class="edge">
<title>Node17&#45;&gt;Node18</title>
<path fill="none" stroke="#191970" d="M1273.6548,-61.9267C1278.3887,-59.7233 1283.5525,-57.5691 1288.5,-56 1363.1038,-32.3397 1453.8459,-19.7782 1506.015,-14.0353"/>
<polygon fill="#191970" stroke="#191970" points="1506.6586,-17.4865 1516.2302,-12.944 1505.915,-10.5261 1506.6586,-17.4865"/>
</g>
<!-- Node19 -->
<g id="node20" class="node">
<title>Node19</title>
<polygon fill="none" stroke="#bfbfbf" points="1196,-.5 1196,-19.5 1255,-19.5 1255,-.5 1196,-.5"/>
<text text-anchor="middle" x="1225.5" y="-7.5" font-family="Helvetica,sans-Serif" font-size="10.00" fill="#000000">complex</text>
</g>
<!-- Node17&#45;&gt;Node19 -->
<g id="edge19" class="edge">
<title>Node17&#45;&gt;Node19</title>
<path fill="none" stroke="#191970" d="M1250.8125,-61.8906C1246.5227,-53.0965 1240.0518,-39.8312 1234.7266,-28.9145"/>
<polygon fill="#191970" stroke="#191970" points="1237.7836,-27.1981 1230.2536,-19.7449 1231.4922,-30.2671 1237.7836,-27.1981"/>
</g>
<!-- Node20 -->
<g id="node21" class="node">
<title>Node20</title>
<polygon fill="none" stroke="#bfbfbf" points="1273,-.5 1273,-19.5 1338,-19.5 1338,-.5 1273,-.5"/>
<text text-anchor="middle" x="1305.5" y="-7.5" font-family="Helvetica,sans-Serif" font-size="10.00" fill="#000000">functional</text>
</g>
<!-- Node17&#45;&gt;Node20 -->
<g id="edge20" class="edge">
<title>Node17&#45;&gt;Node20</title>
<path fill="none" stroke="#191970" d="M1263.3125,-61.8906C1270.754,-52.7376 1282.1334,-38.7409 1291.1992,-27.59"/>
<polygon fill="#191970" stroke="#191970" points="1293.9847,-29.712 1297.5774,-19.7449 1288.5533,-25.2962 1293.9847,-29.712"/>
</g>
<!-- Node21 -->
<g id="node22" class="node">
<title>Node21</title>
<polygon fill="none" stroke="#bfbfbf" points="1121.5,-.5 1121.5,-19.5 1177.5,-19.5 1177.5,-.5 1121.5,-.5"/>
<text text-anchor="middle" x="1149.5" y="-7.5" font-family="Helvetica,sans-Serif" font-size="10.00" fill="#000000">unistd.h</text>
</g>
<!-- Node17&#45;&gt;Node21 -->
<g id="edge23" class="edge">
<title>Node17&#45;&gt;Node21</title>
<path fill="none" stroke="#191970" d="M1238.9375,-61.8906C1221.7463,-51.9165 1194.6418,-36.1908 1174.7734,-24.6633"/>
<polygon fill="#191970" stroke="#191970" points="1176.3523,-21.533 1165.9462,-19.5419 1172.8394,-27.5877 1176.3523,-21.533"/>
</g>
<!-- Node23 -->
<g id="node24" class="node">
<title>Node23</title>
<polygon fill="none" stroke="#bfbfbf" points="529,-62 529,-81 606,-81 606,-62 529,-62"/>
<text text-anchor="middle" x="567.5" y="-69" font-family="Helvetica,sans-Serif" font-size="10.00" fill="#000000">Eigen/Dense</text>
</g>
<!-- Node22&#45;&gt;Node23 -->
<g id="edge25" class="edge">
<title>Node22&#45;&gt;Node23</title>
<path fill="none" stroke="#191970" d="M573.4063,-123.3906C572.4359,-114.8657 570.9874,-102.1392 569.7677,-91.4235"/>
<polygon fill="#191970" stroke="#191970" points="573.2177,-90.7849 568.6092,-81.2449 566.2626,-91.5766 573.2177,-90.7849"/>
</g>
<!-- Node24 -->
<g id="node25" class="node">
<title>Node24</title>
<polygon fill="none" stroke="#bfbfbf" points="624.5,-62 624.5,-81 704.5,-81 704.5,-62 624.5,-62"/>
<text text-anchor="middle" x="664.5" y="-69" font-family="Helvetica,sans-Serif" font-size="10.00" fill="#000000">Eigen/Sparse</text>
</g>
<!-- Node22&#45;&gt;Node24 -->
<g id="edge26" class="edge">
<title>Node22&#45;&gt;Node24</title>
<path fill="none" stroke="#191970" d="M588.5625,-123.3906C602.8286,-113.6421 625.135,-98.3994 641.8872,-86.9521"/>
<polygon fill="#191970" stroke="#191970" points="644.2545,-89.5736 650.5362,-81.0419 640.3051,-83.7941 644.2545,-89.5736"/>
</g>
<!-- Node25 -->
<g id="node26" class="node">
<title>Node25</title>
<polygon fill="none" stroke="#bfbfbf" points="722.5,-62 722.5,-81 764.5,-81 764.5,-62 722.5,-62"/>
<text text-anchor="middle" x="743.5" y="-69" font-family="Helvetica,sans-Serif" font-size="10.00" fill="#000000">array</text>
</g>
<!-- Node22&#45;&gt;Node25 -->
<g id="edge27" class="edge">
<title>Node22&#45;&gt;Node25</title>
<path fill="none" stroke="#191970" d="M604.0096,-124.7058C632.4894,-116.359 676.5979,-102.5255 713.5,-87 714.5267,-86.568 715.5662,-86.1148 716.6111,-85.6459"/>
<polygon fill="#191970" stroke="#191970" points="718.46,-88.6404 725.9532,-81.1502 715.4246,-82.3327 718.46,-88.6404"/>
</g>
<!-- Node22&#45;&gt;Node26 -->
<g id="edge28" class="edge">
<title>Node22&#45;&gt;Node26</title>
<path fill="none" stroke="#191970" d="M604.344,-125.0338C607.098,-124.3327 609.8486,-123.6451 612.5,-123 683.7444,-105.6669 704.123,-110.7283 773.5,-87 775.147,-86.4367 776.8209,-85.8156 778.497,-85.1555"/>
<polygon fill="#191970" stroke="#191970" points="780.1502,-88.2543 787.9476,-81.0814 777.379,-81.8261 780.1502,-88.2543"/>
</g>
<!-- Node27 -->
<g id="node28" class="node">
<title>Node27</title>
<polygon fill="none" stroke="#bfbfbf" points="303,-56.5 303,-86.5 446,-86.5 446,-56.5 303,-56.5"/>
<text text-anchor="start" x="311" y="-74.5" font-family="Helvetica,sans-Serif" font-size="10.00" fill="#000000">unsupported/Eigen/CXX11</text>
<text text-anchor="middle" x="374.5" y="-63.5" font-family="Helvetica,sans-Serif" font-size="10.00" fill="#000000">/Tensor</text>
</g>
<!-- Node22&#45;&gt;Node27 -->
<g id="edge29" class="edge">
<title>Node22&#45;&gt;Node27</title>
<path fill="none" stroke="#191970" d="M544.9893,-123.9255C515.6641,-114.908 469.884,-100.8306 433.1441,-89.5331"/>
<polygon fill="#191970" stroke="#191970" points="434.1166,-86.1704 423.5295,-86.5766 432.0591,-92.8612 434.1166,-86.1704"/>
</g>
<!-- Node28 -->
<g id="node29" class="node">
<title>Node28</title>
<polygon fill="none" stroke="#bfbfbf" points="464,-62 464,-81 511,-81 511,-62 464,-62"/>
<text text-anchor="middle" x="487.5" y="-69" font-family="Helvetica,sans-Serif" font-size="10.00" fill="#000000">vector</text>
</g>
<!-- Node22&#45;&gt;Node28 -->
<g id="edge30" class="edge">
<title>Node22&#45;&gt;Node28</title>
<path fill="none" stroke="#191970" d="M560.9063,-123.3906C547.1157,-113.6421 525.5528,-98.3994 509.359,-86.9521"/>
<polygon fill="#191970" stroke="#191970" points="511.1844,-83.9563 500.9983,-81.0419 507.1437,-89.6723 511.1844,-83.9563"/>
</g>
</g>
</svg>
