<?xml version="1.0" encoding="UTF-8" standalone="no"?>
<!DOCTYPE svg PUBLIC "-//W3C//DTD SVG 1.1//EN"
 "http://www.w3.org/Graphics/SVG/1.1/DTD/svg11.dtd">
<!-- Generated by graphviz version 2.40.1 (20161225.0304)
 -->
<!-- Title: /travis/pairinteraction/Serializable.h Pages: 1 -->
<!--zoomable 162 -->
<svg id="main" version="1.1" xmlns="http://www.w3.org/2000/svg" xmlns:xlink="http://www.w3.org/1999/xlink" xml:space="preserve" onload="init(evt)">
<style type="text/css"><![CDATA[
.edge:hover path { stroke: red; }
.edge:hover polygon { stroke: red; fill: red; }
]]></style>
<script type="text/javascript"><![CDATA[
var edges = document.getElementsByTagName('g');
if (edges && edges.length) {
  for (var i=0;i<edges.length;i++) {
    if (edges[i].id.substr(0,4)=='edge') {
      edges[i].setAttribute('class','edge');
    }
  }
}
]]></script>
        <defs>
                <circle id="rim" cx="0" cy="0" r="7"/>
                <circle id="rim2" cx="0" cy="0" r="3.5"/>
                <g id="zoomPlus">
                        <use xlink:href="#rim" fill="#404040">
                                <set attributeName="fill" to="#808080" begin="zoomplus.mouseover" end="zoomplus.mouseout"/>
                        </use>
                        <path d="M-4,0h8M0,-4v8" fill="none" stroke="white" stroke-width="1.5" pointer-events="none"/>
                </g>
                <g id="zoomMin">
                        <use xlink:href="#rim" fill="#404040">
                                <set attributeName="fill" to="#808080" begin="zoomminus.mouseover" end="zoomminus.mouseout"/>
                        </use>
                        <path d="M-4,0h8" fill="none" stroke="white" stroke-width="1.5" pointer-events="none"/>
                </g>
                <g id="dirArrow">
                        <path fill="none" stroke="white" stroke-width="1.5" d="M0,-3.0v7 M-2.5,-0.5L0,-3.0L2.5,-0.5"/>
                </g>
               <g id="resetDef">
                       <use xlink:href="#rim2" fill="#404040">
                               <set attributeName="fill" to="#808080" begin="reset.mouseover" end="reset.mouseout"/>
                       </use>
               </g>
        </defs>

<script type="text/javascript">
var viewWidth = 855;
var viewHeight = 162;
var sectionId = 'dynsection-0';
</script>
<script xlink:href="svgpan.js"/>
<svg id="graph" class="graph">
<g id="viewport">
<title>/travis/pairinteraction/Serializable.h</title>
<!-- Node0 -->
<g id="node1" class="node">
<title>Node0</title>
<polygon fill="#bfbfbf" stroke="#000000" points="487.5,-123.5 487.5,-153.5 609.5,-153.5 609.5,-123.5 487.5,-123.5"/>
<text text-anchor="start" x="495.5" y="-141.5" font-family="Helvetica,sans-Serif" font-size="10.00" fill="#000000">/travis/pairinteraction</text>
<text text-anchor="middle" x="548.5" y="-130.5" font-family="Helvetica,sans-Serif" font-size="10.00" fill="#000000">/Serializable.h</text>
</g>
<!-- Node1 -->
<g id="node2" class="node">
<title>Node1</title>
<g id="a_node2"><a xlink:href="dtypes_8h.html" target="_top" xlink:title="dtypes.h">
<polygon fill="none" stroke="#000000" points="248,-67.5 248,-86.5 307,-86.5 307,-67.5 248,-67.5"/>
<text text-anchor="middle" x="277.5" y="-74.5" font-family="Helvetica,sans-Serif" font-size="10.00" fill="#000000">dtypes.h</text>
</a>
</g>
</g>
<!-- Node0&#45;&gt;Node1 -->
<g id="edge1" class="edge">
<title>Node0&#45;&gt;Node1</title>
<path fill="none" stroke="#191970" d="M487.3444,-124.6215C435.2059,-112.7893 361.7972,-96.1302 317.0536,-85.9762"/>
<polygon fill="#191970" stroke="#191970" points="317.6698,-82.5271 307.1431,-83.7271 316.1206,-89.3535 317.6698,-82.5271"/>
</g>
<!-- Node7 -->
<g id="node8" class="node">
<title>Node7</title>
<polygon fill="none" stroke="#bfbfbf" points="480,-6 480,-25 527,-25 527,-6 480,-6"/>
<text text-anchor="middle" x="503.5" y="-13" font-family="Helvetica,sans-Serif" font-size="10.00" fill="#000000">vector</text>
</g>
<!-- Node0&#45;&gt;Node7 -->
<g id="edge13" class="edge">
<title>Node0&#45;&gt;Node7</title>
<path fill="none" stroke="#191970" d="M487.4481,-123.5445C468.8338,-115.8159 450.4207,-104.2381 439.5,-87 425.726,-65.258 451.8852,-43.7181 474.7959,-30.0546"/>
<polygon fill="#191970" stroke="#191970" points="476.6663,-33.0178 483.6469,-25.0477 473.2197,-26.9251 476.6663,-33.0178"/>
</g>
<!-- Node8 -->
<g id="node9" class="node">
<title>Node8</title>
<polygon fill="none" stroke="#bfbfbf" points="448,-67.5 448,-86.5 501,-86.5 501,-67.5 448,-67.5"/>
<text text-anchor="middle" x="474.5" y="-74.5" font-family="Helvetica,sans-Serif" font-size="10.00" fill="#000000">iterator</text>
</g>
<!-- Node0&#45;&gt;Node8 -->
<g id="edge8" class="edge">
<title>Node0&#45;&gt;Node8</title>
<path fill="none" stroke="#191970" d="M530.2079,-123.2977C519.2939,-114.2274 505.4329,-102.7077 494.2676,-93.4285"/>
<polygon fill="#191970" stroke="#191970" points="496.2762,-90.5468 486.3483,-86.8469 491.802,-95.9303 496.2762,-90.5468"/>
</g>
<!-- Node9 -->
<g id="node10" class="node">
<title>Node9</title>
<polygon fill="none" stroke="#bfbfbf" points="519.5,-67.5 519.5,-86.5 577.5,-86.5 577.5,-67.5 519.5,-67.5"/>
<text text-anchor="middle" x="548.5" y="-74.5" font-family="Helvetica,sans-Serif" font-size="10.00" fill="#000000">memory</text>
</g>
<!-- Node0&#45;&gt;Node9 -->
<g id="edge9" class="edge">
<title>Node0&#45;&gt;Node9</title>
<path fill="none" stroke="#191970" d="M548.5,-123.2977C548.5,-115.3834 548.5,-105.6043 548.5,-97.0759"/>
<polygon fill="#191970" stroke="#191970" points="552.0001,-96.8469 548.5,-86.8469 545.0001,-96.847 552.0001,-96.8469"/>
</g>
<!-- Node10 -->
<g id="node11" class="node">
<title>Node10</title>
<polygon fill="none" stroke="#bfbfbf" points="596,-67.5 596,-86.5 661,-86.5 661,-67.5 596,-67.5"/>
<text text-anchor="middle" x="628.5" y="-74.5" font-family="Helvetica,sans-Serif" font-size="10.00" fill="#000000">typeindex</text>
</g>
<!-- Node0&#45;&gt;Node10 -->
<g id="edge10" class="edge">
<title>Node0&#45;&gt;Node10</title>
<path fill="none" stroke="#191970" d="M568.2753,-123.2977C580.1898,-114.1384 595.3532,-102.4816 607.4838,-93.1562"/>
<polygon fill="#191970" stroke="#191970" points="609.896,-95.7165 615.691,-86.8469 605.6297,-90.1668 609.896,-95.7165"/>
</g>
<!-- Node11 -->
<g id="node12" class="node">
<title>Node11</title>
<polygon fill="none" stroke="#bfbfbf" points="679,-67.5 679,-86.5 736,-86.5 736,-67.5 679,-67.5"/>
<text text-anchor="middle" x="707.5" y="-74.5" font-family="Helvetica,sans-Serif" font-size="10.00" fill="#000000">typeinfo</text>
</g>
<!-- Node0&#45;&gt;Node11 -->
<g id="edge11" class="edge">
<title>Node0&#45;&gt;Node11</title>
<path fill="none" stroke="#191970" d="M587.3958,-123.4554C613.6926,-113.284 648.0917,-99.9787 673.3332,-90.2155"/>
<polygon fill="#191970" stroke="#191970" points="674.7966,-93.4022 682.8606,-86.5303 672.2714,-86.8735 674.7966,-93.4022"/>
</g>
<!-- Node12 -->
<g id="node13" class="node">
<title>Node12</title>
<polygon fill="none" stroke="#bfbfbf" points="754,-67.5 754,-86.5 847,-86.5 847,-67.5 754,-67.5"/>
<text text-anchor="middle" x="800.5" y="-74.5" font-family="Helvetica,sans-Serif" font-size="10.00" fill="#000000">unordered_map</text>
</g>
<!-- Node0&#45;&gt;Node12 -->
<g id="edge12" class="edge">
<title>Node0&#45;&gt;Node12</title>
<path fill="none" stroke="#191970" d="M609.5022,-123.6126C653.0103,-112.9945 710.7568,-98.9016 751.3221,-89.0017"/>
<polygon fill="#191970" stroke="#191970" points="752.361,-92.351 761.2461,-86.5798 750.7013,-85.5506 752.361,-92.351"/>
</g>
<!-- Node2 -->
<g id="node3" class="node">
<title>Node2</title>
<polygon fill="none" stroke="#bfbfbf" points="0,-6 0,-25 77,-25 77,-6 0,-6"/>
<text text-anchor="middle" x="38.5" y="-13" font-family="Helvetica,sans-Serif" font-size="10.00" fill="#000000">Eigen/Dense</text>
</g>
<!-- Node1&#45;&gt;Node2 -->
<g id="edge2" class="edge">
<title>Node1&#45;&gt;Node2</title>
<path fill="none" stroke="#191970" d="M247.8715,-70.5982C210.1685,-62.284 143.1358,-46.9395 86.5,-31 83.2968,-30.0985 79.9869,-29.1231 76.6726,-28.1156"/>
<polygon fill="#191970" stroke="#191970" points="77.4074,-24.6784 66.8187,-25.0387 75.3209,-31.3603 77.4074,-24.6784"/>
</g>
<!-- Node3 -->
<g id="node4" class="node">
<title>Node3</title>
<polygon fill="none" stroke="#bfbfbf" points="95.5,-6 95.5,-25 175.5,-25 175.5,-6 95.5,-6"/>
<text text-anchor="middle" x="135.5" y="-13" font-family="Helvetica,sans-Serif" font-size="10.00" fill="#000000">Eigen/Sparse</text>
</g>
<!-- Node1&#45;&gt;Node3 -->
<g id="edge3" class="edge">
<title>Node1&#45;&gt;Node3</title>
<path fill="none" stroke="#191970" d="M255.3125,-67.3906C231.5533,-57.1005 193.6595,-40.6888 166.8575,-29.0809"/>
<polygon fill="#191970" stroke="#191970" points="168.0991,-25.8045 157.5317,-25.0419 165.317,-32.2279 168.0991,-25.8045"/>
</g>
<!-- Node4 -->
<g id="node5" class="node">
<title>Node4</title>
<polygon fill="none" stroke="#bfbfbf" points="193.5,-6 193.5,-25 235.5,-25 235.5,-6 193.5,-6"/>
<text text-anchor="middle" x="214.5" y="-13" font-family="Helvetica,sans-Serif" font-size="10.00" fill="#000000">array</text>
</g>
<!-- Node1&#45;&gt;Node4 -->
<g id="edge4" class="edge">
<title>Node1&#45;&gt;Node4</title>
<path fill="none" stroke="#191970" d="M267.6563,-67.3906C258.0961,-58.0581 243.3777,-43.6902 231.8505,-32.4374"/>
<polygon fill="#191970" stroke="#191970" points="234.0832,-29.7257 224.4825,-25.2449 229.1934,-34.7348 234.0832,-29.7257"/>
</g>
<!-- Node5 -->
<g id="node6" class="node">
<title>Node5</title>
<polygon fill="none" stroke="#bfbfbf" points="254,-6 254,-25 301,-25 301,-6 254,-6"/>
<text text-anchor="middle" x="277.5" y="-13" font-family="Helvetica,sans-Serif" font-size="10.00" fill="#000000">cmath</text>
</g>
<!-- Node1&#45;&gt;Node5 -->
<g id="edge5" class="edge">
<title>Node1&#45;&gt;Node5</title>
<path fill="none" stroke="#191970" d="M277.5,-67.3906C277.5,-58.8657 277.5,-46.1392 277.5,-35.4235"/>
<polygon fill="#191970" stroke="#191970" points="281.0001,-35.2448 277.5,-25.2449 274.0001,-35.2449 281.0001,-35.2448"/>
</g>
<!-- Node6 -->
<g id="node7" class="node">
<title>Node6</title>
<polygon fill="none" stroke="#bfbfbf" points="319,-.5 319,-30.5 462,-30.5 462,-.5 319,-.5"/>
<text text-anchor="start" x="327" y="-18.5" font-family="Helvetica,sans-Serif" font-size="10.00" fill="#000000">unsupported/Eigen/CXX11</text>
<text text-anchor="middle" x="390.5" y="-7.5" font-family="Helvetica,sans-Serif" font-size="10.00" fill="#000000">/Tensor</text>
</g>
<!-- Node1&#45;&gt;Node6 -->
<g id="edge6" class="edge">
<title>Node1&#45;&gt;Node6</title>
<path fill="none" stroke="#191970" d="M295.1563,-67.3906C310.8034,-58.8747 334.1544,-46.166 353.8304,-35.4573"/>
<polygon fill="#191970" stroke="#191970" points="355.7468,-38.3992 362.8571,-30.5446 352.4005,-32.2508 355.7468,-38.3992"/>
</g>
<!-- Node1&#45;&gt;Node7 -->
<g id="edge7" class="edge">
<title>Node1&#45;&gt;Node7</title>
<path fill="none" stroke="#191970" d="M307.3297,-72.0214C345.9242,-65.1083 414.9209,-51.1378 471.5,-31 473.0993,-30.4308 474.7242,-29.805 476.3509,-29.1414"/>
<polygon fill="#191970" stroke="#191970" points="477.8087,-32.3236 485.5189,-25.057 474.9601,-25.9294 477.8087,-32.3236"/>
</g>
</g>
</svg>
        <g id="navigator" transform="translate(0 0)" fill="#404254">
                <rect fill="#f2f5e9" fill-opacity="0.5" stroke="#606060" stroke-width=".5" x="0" y="0" width="60" height="60"/>
                <use id="zoomplus" xlink:href="#zoomPlus" x="17" y="9" onmousedown="handleZoom(evt,'in')"/>
                <use id="zoomminus" xlink:href="#zoomMin" x="42" y="9" onmousedown="handleZoom(evt,'out')"/>
                <use id="reset" xlink:href="#resetDef" x="30" y="36" onmousedown="handleReset()"/>
                <g id="arrowUp" xlink:href="#dirArrow" transform="translate(30 24)" onmousedown="handlePan(0,-1)">
                  <use xlink:href="#rim" fill="#404040">
                        <set attributeName="fill" to="#808080" begin="arrowUp.mouseover" end="arrowUp.mouseout"/>
                  </use>
                  <path fill="none" stroke="white" stroke-width="1.5" d="M0,-3.0v7 M-2.5,-0.5L0,-3.0L2.5,-0.5"/>
                </g>
                <g id="arrowRight" xlink:href="#dirArrow" transform="rotate(90) translate(36 -43)" onmousedown="handlePan(1,0)">
                  <use xlink:href="#rim" fill="#404040">
                        <set attributeName="fill" to="#808080" begin="arrowRight.mouseover" end="arrowRight.mouseout"/>
                  </use>
                  <path fill="none" stroke="white" stroke-width="1.5" d="M0,-3.0v7 M-2.5,-0.5L0,-3.0L2.5,-0.5"/>
                </g>
                <g id="arrowDown" xlink:href="#dirArrow" transform="rotate(180) translate(-30 -48)" onmousedown="handlePan(0,1)">
                  <use xlink:href="#rim" fill="#404040">
                        <set attributeName="fill" to="#808080" begin="arrowDown.mouseover" end="arrowDown.mouseout"/>
                  </use>
                  <path fill="none" stroke="white" stroke-width="1.5" d="M0,-3.0v7 M-2.5,-0.5L0,-3.0L2.5,-0.5"/>
                </g>
                <g id="arrowLeft" xlink:href="#dirArrow" transform="rotate(270) translate(-36 17)" onmousedown="handlePan(-1,0)">
                  <use xlink:href="#rim" fill="#404040">
                        <set attributeName="fill" to="#808080" begin="arrowLeft.mouseover" end="arrowLeft.mouseout"/>
                  </use>
                  <path fill="none" stroke="white" stroke-width="1.5" d="M0,-3.0v7 M-2.5,-0.5L0,-3.0L2.5,-0.5"/>
                </g>
        </g>
        <svg viewBox="0 0 15 15" width="100%" height="30px" preserveAspectRatio="xMaxYMin meet">
         <g id="arrow_out" transform="scale(0.3 0.3)">
          <a xlink:href="Serializable_8h__incl_org.svg" target="_base">
           <rect id="button" ry="5" rx="5" y="6" x="6" height="38" width="38"
                fill="#f2f5e9" fill-opacity="0.5" stroke="#606060" stroke-width="1.0"/>
           <path id="arrow"
             d="M 11.500037,31.436501 C 11.940474,20.09759 22.043105,11.32322 32.158766,21.979434 L 37.068811,17.246167 C 37.068811,17.246167 37.088388,32 37.088388,32 L 22.160133,31.978069 C 22.160133,31.978069 26.997745,27.140456 26.997745,27.140456 C 18.528582,18.264221 13.291696,25.230495 11.500037,31.436501 z"
             style="fill:#404040;"/>
          </a>
         </g>
        </svg>
</svg>
