<?xml version="1.0" encoding="UTF-8" standalone="no"?>
<!DOCTYPE svg PUBLIC "-//W3C//DTD SVG 1.1//EN"
 "http://www.w3.org/Graphics/SVG/1.1/DTD/svg11.dtd">
<!-- Generated by graphviz version 2.40.1 (20161225.0304)
 -->
<!-- Title: /travis/pairinteraction/serialization_eigen.h Pages: 1 -->
<svg width="410pt" height="318pt"
 viewBox="0.00 0.00 410.00 318.00" xmlns="http://www.w3.org/2000/svg" xmlns:xlink="http://www.w3.org/1999/xlink">
<g id="graph0" class="graph" transform="scale(1 1) rotate(0) translate(4 314)">
<title>/travis/pairinteraction/serialization_eigen.h</title>
<!-- Node2 -->
<g id="node1" class="node">
<title>Node2</title>
<polygon fill="#bfbfbf" stroke="#000000" points="140,-279.5 140,-309.5 262,-309.5 262,-279.5 140,-279.5"/>
<text text-anchor="start" x="148" y="-297.5" font-family="Helvetica,sans-Serif" font-size="10.00" fill="#000000">/travis/pairinteraction</text>
<text text-anchor="middle" x="201" y="-286.5" font-family="Helvetica,sans-Serif" font-size="10.00" fill="#000000">/serialization_eigen.h</text>
</g>
<!-- Node3 -->
<g id="node2" class="node">
<title>Node3</title>
<g id="a_node2"><a xlink:href="SystemBase_8h.html" target="_top" xlink:title="/travis/pairinteraction\l/SystemBase.h">
<polygon fill="none" stroke="#000000" points="140,-212.5 140,-242.5 262,-242.5 262,-212.5 140,-212.5"/>
<text text-anchor="start" x="148" y="-230.5" font-family="Helvetica,sans-Serif" font-size="10.00" fill="#000000">/travis/pairinteraction</text>
<text text-anchor="middle" x="201" y="-219.5" font-family="Helvetica,sans-Serif" font-size="10.00" fill="#000000">/SystemBase.h</text>
</a>
</g>
</g>
<!-- Node2&#45;&gt;Node3 -->
<g id="edge1" class="edge">
<title>Node2&#45;&gt;Node3</title>
<path fill="none" stroke="#191970" d="M201,-269.0249C201,-260.128 201,-250.4287 201,-242.6432"/>
<polygon fill="#191970" stroke="#191970" points="197.5001,-269.2966 201,-279.2967 204.5001,-269.2967 197.5001,-269.2966"/>
</g>
<!-- Node4 -->
<g id="node3" class="node">
<title>Node4</title>
<g id="a_node3"><a xlink:href="SystemBase_8cpp.html" target="_top" xlink:title="/travis/pairinteraction\l/SystemBase.cpp">
<polygon fill="none" stroke="#000000" points="0,-145.5 0,-175.5 122,-175.5 122,-145.5 0,-145.5"/>
<text text-anchor="start" x="8" y="-163.5" font-family="Helvetica,sans-Serif" font-size="10.00" fill="#000000">/travis/pairinteraction</text>
<text text-anchor="middle" x="61" y="-152.5" font-family="Helvetica,sans-Serif" font-size="10.00" fill="#000000">/SystemBase.cpp</text>
</a>
</g>
</g>
<!-- Node3&#45;&gt;Node4 -->
<g id="edge2" class="edge">
<title>Node3&#45;&gt;Node4</title>
<path fill="none" stroke="#191970" d="M160.362,-208.0518C138.8498,-197.7567 112.819,-185.2991 92.7983,-175.7177"/>
<polygon fill="#191970" stroke="#191970" points="159.0501,-211.3041 169.5813,-212.4639 162.0719,-204.9899 159.0501,-211.3041"/>
</g>
<!-- Node5 -->
<g id="node4" class="node">
<title>Node5</title>
<g id="a_node4"><a xlink:href="SystemOne_8h.html" target="_top" xlink:title="/travis/pairinteraction\l/SystemOne.h">
<polygon fill="none" stroke="#000000" points="140,-145.5 140,-175.5 262,-175.5 262,-145.5 140,-145.5"/>
<text text-anchor="start" x="148" y="-163.5" font-family="Helvetica,sans-Serif" font-size="10.00" fill="#000000">/travis/pairinteraction</text>
<text text-anchor="middle" x="201" y="-152.5" font-family="Helvetica,sans-Serif" font-size="10.00" fill="#000000">/SystemOne.h</text>
</a>
</g>
</g>
<!-- Node3&#45;&gt;Node5 -->
<g id="edge3" class="edge">
<title>Node3&#45;&gt;Node5</title>
<path fill="none" stroke="#191970" d="M201,-202.0249C201,-193.128 201,-183.4287 201,-175.6432"/>
<polygon fill="#191970" stroke="#191970" points="197.5001,-202.2966 201,-212.2967 204.5001,-202.2967 197.5001,-202.2966"/>
</g>
<!-- Node7 -->
<g id="node6" class="node">
<title>Node7</title>
<g id="a_node6"><a xlink:href="SystemTwo_8h.html" target="_top" xlink:title="/travis/pairinteraction\l/SystemTwo.h">
<polygon fill="none" stroke="#000000" points="229,-78.5 229,-108.5 351,-108.5 351,-78.5 229,-78.5"/>
<text text-anchor="start" x="237" y="-96.5" font-family="Helvetica,sans-Serif" font-size="10.00" fill="#000000">/travis/pairinteraction</text>
<text text-anchor="middle" x="290" y="-85.5" font-family="Helvetica,sans-Serif" font-size="10.00" fill="#000000">/SystemTwo.h</text>
</a>
</g>
</g>
<!-- Node3&#45;&gt;Node7 -->
<g id="edge9" class="edge">
<title>Node3&#45;&gt;Node7</title>
<path fill="none" stroke="#191970" d="M239.0304,-206.8243C250.8749,-198.6642 262.9319,-188.2763 271,-176 284.5615,-155.3651 288.5062,-126.2837 289.6156,-108.7286"/>
<polygon fill="#191970" stroke="#191970" points="236.9799,-203.9826 230.5034,-212.3675 240.7952,-209.8515 236.9799,-203.9826"/>
</g>
<!-- Node6 -->
<g id="node5" class="node">
<title>Node6</title>
<g id="a_node5"><a xlink:href="SystemOne_8cpp.html" target="_top" xlink:title="/travis/pairinteraction\l/SystemOne.cpp">
<polygon fill="none" stroke="#000000" points="51,-78.5 51,-108.5 173,-108.5 173,-78.5 51,-78.5"/>
<text text-anchor="start" x="59" y="-96.5" font-family="Helvetica,sans-Serif" font-size="10.00" fill="#000000">/travis/pairinteraction</text>
<text text-anchor="middle" x="112" y="-85.5" font-family="Helvetica,sans-Serif" font-size="10.00" fill="#000000">/SystemOne.cpp</text>
</a>
</g>
</g>
<!-- Node5&#45;&gt;Node6 -->
<g id="edge4" class="edge">
<title>Node5&#45;&gt;Node6</title>
<path fill="none" stroke="#191970" d="M172.5257,-139.0643C159.3662,-129.1577 144.0487,-117.6265 132.1156,-108.6432"/>
<polygon fill="#191970" stroke="#191970" points="170.7103,-142.0785 180.8045,-145.2967 174.9203,-136.486 170.7103,-142.0785"/>
</g>
<!-- Node5&#45;&gt;Node7 -->
<g id="edge5" class="edge">
<title>Node5&#45;&gt;Node7</title>
<path fill="none" stroke="#191970" d="M229.4743,-139.0643C242.6338,-129.1577 257.9513,-117.6265 269.8844,-108.6432"/>
<polygon fill="#191970" stroke="#191970" points="227.0797,-136.486 221.1955,-145.2967 231.2897,-142.0785 227.0797,-136.486"/>
</g>
<!-- Node9 -->
<g id="node8" class="node">
<title>Node9</title>
<g id="a_node8"><a xlink:href="integration__test_8cpp.html" target="_top" xlink:title="/travis/pairinteraction\l/unit_test/integration\l_test.cpp">
<polygon fill="none" stroke="#000000" points="140,-.5 140,-41.5 262,-41.5 262,-.5 140,-.5"/>
<text text-anchor="start" x="148" y="-29.5" font-family="Helvetica,sans-Serif" font-size="10.00" fill="#000000">/travis/pairinteraction</text>
<text text-anchor="start" x="148" y="-18.5" font-family="Helvetica,sans-Serif" font-size="10.00" fill="#000000">/unit_test/integration</text>
<text text-anchor="middle" x="201" y="-7.5" font-family="Helvetica,sans-Serif" font-size="10.00" fill="#000000">_test.cpp</text>
</a>
</g>
</g>
<!-- Node5&#45;&gt;Node9 -->
<g id="edge8" class="edge">
<title>Node5&#45;&gt;Node9</title>
<path fill="none" stroke="#191970" d="M201,-135.1507C201,-108.3121 201,-66.4622 201,-41.586"/>
<polygon fill="#191970" stroke="#191970" points="197.5001,-135.3055 201,-145.3055 204.5001,-135.3055 197.5001,-135.3055"/>
</g>
<!-- Node8 -->
<g id="node7" class="node">
<title>Node8</title>
<g id="a_node7"><a xlink:href="SystemTwo_8cpp.html" target="_top" xlink:title="/travis/pairinteraction\l/SystemTwo.cpp">
<polygon fill="none" stroke="#000000" points="280,-6 280,-36 402,-36 402,-6 280,-6"/>
<text text-anchor="start" x="288" y="-24" font-family="Helvetica,sans-Serif" font-size="10.00" fill="#000000">/travis/pairinteraction</text>
<text text-anchor="middle" x="341" y="-13" font-family="Helvetica,sans-Serif" font-size="10.00" fill="#000000">/SystemTwo.cpp</text>
</a>
</g>
</g>
<!-- Node7&#45;&gt;Node8 -->
<g id="edge6" class="edge">
<title>Node7&#45;&gt;Node8</title>
<path fill="none" stroke="#191970" d="M306.5219,-70.013C314.3803,-58.8418 323.5427,-45.8167 330.4463,-36.0028"/>
<polygon fill="#191970" stroke="#191970" points="303.4581,-68.2851 300.5672,-78.478 309.1835,-72.3126 303.4581,-68.2851"/>
</g>
<!-- Node7&#45;&gt;Node9 -->
<g id="edge7" class="edge">
<title>Node7&#45;&gt;Node9</title>
<path fill="none" stroke="#191970" d="M263.7298,-72.1001C251.8613,-62.432 237.9013,-51.06 226.1674,-41.5015"/>
<polygon fill="#191970" stroke="#191970" points="261.5955,-74.8758 271.5591,-78.478 266.0165,-69.4486 261.5955,-74.8758"/>
</g>
</g>
</svg>
