<?xml version="1.0" encoding="UTF-8" standalone="no"?>
<!DOCTYPE svg PUBLIC "-//W3C//DTD SVG 1.1//EN"
 "http://www.w3.org/Graphics/SVG/1.1/DTD/svg11.dtd">
<!-- Generated by graphviz version 2.40.1 (20161225.0304)
 -->
<!-- Title: /travis/pairinteraction/Serializable.h Pages: 1 -->
<svg width="413pt" height="374pt"
 viewBox="0.00 0.00 413.00 374.00" xmlns="http://www.w3.org/2000/svg" xmlns:xlink="http://www.w3.org/1999/xlink">
<g id="graph0" class="graph" transform="scale(1 1) rotate(0) translate(4 370)">
<title>/travis/pairinteraction/Serializable.h</title>
<!-- Node13 -->
<g id="node1" class="node">
<title>Node13</title>
<polygon fill="#bfbfbf" stroke="#000000" points="205,-335.5 205,-365.5 327,-365.5 327,-335.5 205,-335.5"/>
<text text-anchor="start" x="213" y="-353.5" font-family="Helvetica,sans-Serif" font-size="10.00" fill="#000000">/travis/pairinteraction</text>
<text text-anchor="middle" x="266" y="-342.5" font-family="Helvetica,sans-Serif" font-size="10.00" fill="#000000">/Serializable.h</text>
</g>
<!-- Node14 -->
<g id="node2" class="node">
<title>Node14</title>
<g id="a_node2"><a xlink:href="Hamiltonianmatrix_8h.html" target="_top" xlink:title="/travis/pairinteraction\l/Hamiltonianmatrix.h">
<polygon fill="none" stroke="#000000" points="205,-268.5 205,-298.5 327,-298.5 327,-268.5 205,-268.5"/>
<text text-anchor="start" x="213" y="-286.5" font-family="Helvetica,sans-Serif" font-size="10.00" fill="#000000">/travis/pairinteraction</text>
<text text-anchor="middle" x="266" y="-275.5" font-family="Helvetica,sans-Serif" font-size="10.00" fill="#000000">/Hamiltonianmatrix.h</text>
</a>
</g>
</g>
<!-- Node13&#45;&gt;Node14 -->
<g id="edge1" class="edge">
<title>Node13&#45;&gt;Node14</title>
<path fill="none" stroke="#191970" d="M266,-325.0249C266,-316.128 266,-306.4287 266,-298.6432"/>
<polygon fill="#191970" stroke="#191970" points="262.5001,-325.2966 266,-335.2967 269.5001,-325.2967 262.5001,-325.2966"/>
</g>
<!-- Node15 -->
<g id="node3" class="node">
<title>Node15</title>
<g id="a_node3"><a xlink:href="Hamiltonian_8h.html" target="_top" xlink:title="/travis/pairinteraction\l/Hamiltonian.h">
<polygon fill="none" stroke="#000000" points="133,-201.5 133,-231.5 255,-231.5 255,-201.5 133,-201.5"/>
<text text-anchor="start" x="141" y="-219.5" font-family="Helvetica,sans-Serif" font-size="10.00" fill="#000000">/travis/pairinteraction</text>
<text text-anchor="middle" x="194" y="-208.5" font-family="Helvetica,sans-Serif" font-size="10.00" fill="#000000">/Hamiltonian.h</text>
</a>
</g>
</g>
<!-- Node14&#45;&gt;Node15 -->
<g id="edge2" class="edge">
<title>Node14&#45;&gt;Node15</title>
<path fill="none" stroke="#191970" d="M242.048,-261.2113C231.6129,-251.5009 219.6512,-240.3698 210.2733,-231.6432"/>
<polygon fill="#191970" stroke="#191970" points="239.9571,-264.0466 249.6621,-268.2967 244.7257,-258.9221 239.9571,-264.0466"/>
</g>
<!-- Node21 -->
<g id="node9" class="node">
<title>Node21</title>
<g id="a_node9"><a xlink:href="Hamiltonianmatrix_8cpp.html" target="_top" xlink:title="/travis/pairinteraction\l/Hamiltonianmatrix.cpp">
<polygon fill="none" stroke="#000000" points="273,-201.5 273,-231.5 405,-231.5 405,-201.5 273,-201.5"/>
<text text-anchor="start" x="281" y="-219.5" font-family="Helvetica,sans-Serif" font-size="10.00" fill="#000000">/travis/pairinteraction</text>
<text text-anchor="middle" x="339" y="-208.5" font-family="Helvetica,sans-Serif" font-size="10.00" fill="#000000">/Hamiltonianmatrix.cpp</text>
</a>
</g>
</g>
<!-- Node14&#45;&gt;Node21 -->
<g id="edge10" class="edge">
<title>Node14&#45;&gt;Node21</title>
<path fill="none" stroke="#191970" d="M289.974,-261.4965C300.6267,-251.7193 312.8993,-240.4554 322.5007,-231.6432"/>
<polygon fill="#191970" stroke="#191970" points="287.5656,-258.9562 282.5648,-268.2967 292.2989,-264.1134 287.5656,-258.9562"/>
</g>
<!-- Node16 -->
<g id="node4" class="node">
<title>Node16</title>
<g id="a_node4"><a xlink:href="HamiltonianOne_8h.html" target="_top" xlink:title="/travis/pairinteraction\l/HamiltonianOne.h">
<polygon fill="none" stroke="#000000" points="89,-134.5 89,-164.5 211,-164.5 211,-134.5 89,-134.5"/>
<text text-anchor="start" x="97" y="-152.5" font-family="Helvetica,sans-Serif" font-size="10.00" fill="#000000">/travis/pairinteraction</text>
<text text-anchor="middle" x="150" y="-141.5" font-family="Helvetica,sans-Serif" font-size="10.00" fill="#000000">/HamiltonianOne.h</text>
</a>
</g>
</g>
<!-- Node15&#45;&gt;Node16 -->
<g id="edge3" class="edge">
<title>Node15&#45;&gt;Node16</title>
<path fill="none" stroke="#191970" d="M178.4184,-192.7735C172.2728,-183.4154 165.3948,-172.9421 159.9448,-164.6432"/>
<polygon fill="#191970" stroke="#191970" points="175.6008,-194.8592 184.0157,-201.2967 181.4519,-191.0167 175.6008,-194.8592"/>
</g>
<!-- Node18 -->
<g id="node6" class="node">
<title>Node18</title>
<g id="a_node6"><a xlink:href="HamiltonianTwo_8h.html" target="_top" xlink:title="/travis/pairinteraction\l/HamiltonianTwo.h">
<polygon fill="none" stroke="#000000" points="178,-67.5 178,-97.5 300,-97.5 300,-67.5 178,-67.5"/>
<text text-anchor="start" x="186" y="-85.5" font-family="Helvetica,sans-Serif" font-size="10.00" fill="#000000">/travis/pairinteraction</text>
<text text-anchor="middle" x="239" y="-74.5" font-family="Helvetica,sans-Serif" font-size="10.00" fill="#000000">/HamiltonianTwo.h</text>
</a>
</g>
</g>
<!-- Node15&#45;&gt;Node18 -->
<g id="edge9" class="edge">
<title>Node15&#45;&gt;Node18</title>
<path fill="none" stroke="#191970" d="M207.759,-192.2452C212.1301,-183.8142 216.6843,-174.1703 220,-165 228.246,-142.1935 233.7554,-114.5138 236.6303,-97.7171"/>
<polygon fill="#191970" stroke="#191970" points="204.6204,-190.692 202.9773,-201.1587 210.7889,-194.0011 204.6204,-190.692"/>
</g>
<!-- Node17 -->
<g id="node5" class="node">
<title>Node17</title>
<g id="a_node5"><a xlink:href="HamiltonianOne_8cpp.html" target="_top" xlink:title="/travis/pairinteraction\l/HamiltonianOne.cpp">
<polygon fill="none" stroke="#000000" points="0,-67.5 0,-97.5 122,-97.5 122,-67.5 0,-67.5"/>
<text text-anchor="start" x="8" y="-85.5" font-family="Helvetica,sans-Serif" font-size="10.00" fill="#000000">/travis/pairinteraction</text>
<text text-anchor="middle" x="61" y="-74.5" font-family="Helvetica,sans-Serif" font-size="10.00" fill="#000000">/HamiltonianOne.cpp</text>
</a>
</g>
</g>
<!-- Node16&#45;&gt;Node17 -->
<g id="edge4" class="edge">
<title>Node16&#45;&gt;Node17</title>
<path fill="none" stroke="#191970" d="M121.5257,-128.0643C108.3662,-118.1577 93.0487,-106.6265 81.1156,-97.6432"/>
<polygon fill="#191970" stroke="#191970" points="119.7103,-131.0785 129.8045,-134.2967 123.9203,-125.486 119.7103,-131.0785"/>
</g>
<!-- Node16&#45;&gt;Node18 -->
<g id="edge5" class="edge">
<title>Node16&#45;&gt;Node18</title>
<path fill="none" stroke="#191970" d="M178.4743,-128.0643C191.6338,-118.1577 206.9513,-106.6265 218.8844,-97.6432"/>
<polygon fill="#191970" stroke="#191970" points="176.0797,-125.486 170.1955,-134.2967 180.2897,-131.0785 176.0797,-125.486"/>
</g>
<!-- Node20 -->
<g id="node8" class="node">
<title>Node20</title>
<g id="a_node8"><a xlink:href="Interface_8cpp.html" target="_top" xlink:title="/travis/pairinteraction\l/Interface.cpp">
<polygon fill="none" stroke="#000000" points="89,-.5 89,-30.5 211,-30.5 211,-.5 89,-.5"/>
<text text-anchor="start" x="97" y="-18.5" font-family="Helvetica,sans-Serif" font-size="10.00" fill="#000000">/travis/pairinteraction</text>
<text text-anchor="middle" x="150" y="-7.5" font-family="Helvetica,sans-Serif" font-size="10.00" fill="#000000">/Interface.cpp</text>
</a>
</g>
</g>
<!-- Node16&#45;&gt;Node20 -->
<g id="edge8" class="edge">
<title>Node16&#45;&gt;Node20</title>
<path fill="none" stroke="#191970" d="M150,-124.3415C150,-96.8131 150,-53.5714 150,-30.7614"/>
<polygon fill="#191970" stroke="#191970" points="146.5001,-124.3889 150,-134.389 153.5001,-124.389 146.5001,-124.3889"/>
</g>
<!-- Node19 -->
<g id="node7" class="node">
<title>Node19</title>
<g id="a_node7"><a xlink:href="HamiltonianTwo_8cpp.html" target="_top" xlink:title="/travis/pairinteraction\l/HamiltonianTwo.cpp">
<polygon fill="none" stroke="#000000" points="229,-.5 229,-30.5 351,-30.5 351,-.5 229,-.5"/>
<text text-anchor="start" x="237" y="-18.5" font-family="Helvetica,sans-Serif" font-size="10.00" fill="#000000">/travis/pairinteraction</text>
<text text-anchor="middle" x="290" y="-7.5" font-family="Helvetica,sans-Serif" font-size="10.00" fill="#000000">/HamiltonianTwo.cpp</text>
</a>
</g>
</g>
<!-- Node18&#45;&gt;Node19 -->
<g id="edge6" class="edge">
<title>Node18&#45;&gt;Node19</title>
<path fill="none" stroke="#191970" d="M256.8404,-59.0626C264.0193,-49.6315 272.0909,-39.0276 278.4731,-30.6432"/>
<polygon fill="#191970" stroke="#191970" points="253.8446,-57.2197 250.5727,-67.2967 259.4146,-61.4595 253.8446,-57.2197"/>
</g>
<!-- Node18&#45;&gt;Node20 -->
<g id="edge7" class="edge">
<title>Node18&#45;&gt;Node20</title>
<path fill="none" stroke="#191970" d="M210.5257,-61.0643C197.3662,-51.1577 182.0487,-39.6265 170.1156,-30.6432"/>
<polygon fill="#191970" stroke="#191970" points="208.7103,-64.0785 218.8045,-67.2967 212.9203,-58.486 208.7103,-64.0785"/>
</g>
</g>
</svg>
