<?xml version="1.0" encoding="UTF-8" standalone="no"?>
<!DOCTYPE svg PUBLIC "-//W3C//DTD SVG 1.1//EN"
 "http://www.w3.org/Graphics/SVG/1.1/DTD/svg11.dtd">
<!-- Generated by graphviz version 2.40.1 (20161225.0304)
 -->
<!-- Title: /travis/pairinteraction/SQLite.h Pages: 1 -->
<svg width="769pt" height="162pt"
 viewBox="0.00 0.00 768.50 162.00" xmlns="http://www.w3.org/2000/svg" xmlns:xlink="http://www.w3.org/1999/xlink">
<g id="graph0" class="graph" transform="scale(1 1) rotate(0) translate(4 158)">
<title>/travis/pairinteraction/SQLite.h</title>
<!-- Node0 -->
<g id="node1" class="node">
<title>Node0</title>
<polygon fill="#bfbfbf" stroke="#000000" points="263,-123.5 263,-153.5 385,-153.5 385,-123.5 263,-123.5"/>
<text text-anchor="start" x="271" y="-141.5" font-family="Helvetica,sans-Serif" font-size="10.00" fill="#000000">/travis/pairinteraction</text>
<text text-anchor="middle" x="324" y="-130.5" font-family="Helvetica,sans-Serif" font-size="10.00" fill="#000000">/SQLite.h</text>
</g>
<!-- Node1 -->
<g id="node2" class="node">
<title>Node1</title>
<polygon fill="none" stroke="#bfbfbf" points="0,-62 0,-81 60,-81 60,-62 0,-62"/>
<text text-anchor="middle" x="30" y="-69" font-family="Helvetica,sans-Serif" font-size="10.00" fill="#000000">iostream</text>
</g>
<!-- Node0&#45;&gt;Node1 -->
<g id="edge1" class="edge">
<title>Node0&#45;&gt;Node1</title>
<path fill="none" stroke="#191970" d="M262.9701,-129.3326C210.8364,-120.7544 134.1581,-106.358 69,-87 66.5555,-86.2738 64.0504,-85.4564 61.5471,-84.5863"/>
<polygon fill="#191970" stroke="#191970" points="62.6247,-81.253 52.0318,-81.0512 60.1868,-87.8148 62.6247,-81.253"/>
</g>
<!-- Node2 -->
<g id="node3" class="node">
<title>Node2</title>
<polygon fill="none" stroke="#bfbfbf" points="78,-62 78,-81 136,-81 136,-62 78,-62"/>
<text text-anchor="middle" x="107" y="-69" font-family="Helvetica,sans-Serif" font-size="10.00" fill="#000000">memory</text>
</g>
<!-- Node0&#45;&gt;Node2 -->
<g id="edge2" class="edge">
<title>Node0&#45;&gt;Node2</title>
<path fill="none" stroke="#191970" d="M270.0563,-123.4106C235.5651,-113.5468 189.9637,-100.1046 150,-87 147.5588,-86.1995 145.0473,-85.3536 142.5224,-84.4865"/>
<polygon fill="#191970" stroke="#191970" points="143.4323,-81.0966 132.8375,-81.0889 141.1151,-87.702 143.4323,-81.0966"/>
</g>
<!-- Node3 -->
<g id="node4" class="node">
<title>Node3</title>
<polygon fill="none" stroke="#bfbfbf" points="79,-.5 79,-19.5 133,-19.5 133,-.5 79,-.5"/>
<text text-anchor="middle" x="106" y="-7.5" font-family="Helvetica,sans-Serif" font-size="10.00" fill="#000000">random</text>
</g>
<!-- Node0&#45;&gt;Node3 -->
<g id="edge3" class="edge">
<title>Node0&#45;&gt;Node3</title>
<path fill="none" stroke="#191970" d="M276.7585,-123.3931C252.094,-114.5188 221.9422,-102.0786 197,-87 168.4334,-69.7303 139.739,-43.655 122.4183,-26.7261"/>
<polygon fill="#191970" stroke="#191970" points="124.8628,-24.221 115.3018,-19.656 119.9293,-29.1869 124.8628,-24.221"/>
</g>
<!-- Node4 -->
<g id="node5" class="node">
<title>Node4</title>
<polygon fill="none" stroke="#bfbfbf" points="296,-62 296,-81 352,-81 352,-62 296,-62"/>
<text text-anchor="middle" x="324" y="-69" font-family="Helvetica,sans-Serif" font-size="10.00" fill="#000000">sstream</text>
</g>
<!-- Node0&#45;&gt;Node4 -->
<g id="edge4" class="edge">
<title>Node0&#45;&gt;Node4</title>
<path fill="none" stroke="#191970" d="M324,-123.2967C324,-113.7699 324,-101.3954 324,-91.1306"/>
<polygon fill="#191970" stroke="#191970" points="327.5001,-91.0549 324,-81.055 320.5001,-91.055 327.5001,-91.0549"/>
</g>
<!-- Node5 -->
<g id="node6" class="node">
<title>Node5</title>
<polygon fill="none" stroke="#bfbfbf" points="370,-62 370,-81 414,-81 414,-62 370,-62"/>
<text text-anchor="middle" x="392" y="-69" font-family="Helvetica,sans-Serif" font-size="10.00" fill="#000000">string</text>
</g>
<!-- Node0&#45;&gt;Node5 -->
<g id="edge5" class="edge">
<title>Node0&#45;&gt;Node5</title>
<path fill="none" stroke="#191970" d="M339.4303,-123.2967C350.025,-112.8578 364.0899,-98.9997 375.0054,-88.2446"/>
<polygon fill="#191970" stroke="#191970" points="377.6356,-90.5666 382.3024,-81.055 372.7227,-85.5804 377.6356,-90.5666"/>
</g>
<!-- Node6 -->
<g id="node7" class="node">
<title>Node6</title>
<polygon fill="none" stroke="#bfbfbf" points="432,-62 432,-81 480,-81 480,-62 432,-62"/>
<text text-anchor="middle" x="456" y="-69" font-family="Helvetica,sans-Serif" font-size="10.00" fill="#000000">thread</text>
</g>
<!-- Node0&#45;&gt;Node6 -->
<g id="edge6" class="edge">
<title>Node0&#45;&gt;Node6</title>
<path fill="none" stroke="#191970" d="M353.6234,-123.4639C375.8711,-112.1715 406.1384,-96.8086 427.9861,-85.7192"/>
<polygon fill="#191970" stroke="#191970" points="429.7459,-88.7511 437.0788,-81.1039 426.5776,-82.5091 429.7459,-88.7511"/>
</g>
<!-- Node7 -->
<g id="node8" class="node">
<title>Node7</title>
<polygon fill="none" stroke="#bfbfbf" points="151.5,-.5 151.5,-19.5 220.5,-19.5 220.5,-.5 151.5,-.5"/>
<text text-anchor="middle" x="186" y="-7.5" font-family="Helvetica,sans-Serif" font-size="10.00" fill="#000000">type_traits</text>
</g>
<!-- Node0&#45;&gt;Node7 -->
<g id="edge7" class="edge">
<title>Node0&#45;&gt;Node7</title>
<path fill="none" stroke="#191970" d="M278.163,-123.4722C258.5818,-115.2083 236.6763,-103.2677 221,-87 205.4532,-70.8668 196.0056,-46.6122 190.9094,-29.6481"/>
<polygon fill="#191970" stroke="#191970" points="194.2017,-28.4208 188.1685,-19.7116 187.4537,-30.2823 194.2017,-28.4208"/>
</g>
<!-- Node8 -->
<g id="node9" class="node">
<title>Node8</title>
<polygon fill="none" stroke="#bfbfbf" points="498,-56.5 498,-86.5 620,-86.5 620,-56.5 498,-56.5"/>
<text text-anchor="start" x="506" y="-74.5" font-family="Helvetica,sans-Serif" font-size="10.00" fill="#000000">boost/iterator/iterator</text>
<text text-anchor="middle" x="559" y="-63.5" font-family="Helvetica,sans-Serif" font-size="10.00" fill="#000000">_facade.hpp</text>
</g>
<!-- Node0&#45;&gt;Node8 -->
<g id="edge8" class="edge">
<title>Node0&#45;&gt;Node8</title>
<path fill="none" stroke="#191970" d="M376.7386,-123.4639C412.1422,-113.3701 458.9531,-100.024 496.2697,-89.3848"/>
<polygon fill="#191970" stroke="#191970" points="497.3743,-92.7094 506.0314,-86.6017 495.4549,-85.9777 497.3743,-92.7094"/>
</g>
<!-- Node9 -->
<g id="node10" class="node">
<title>Node9</title>
<polygon fill="none" stroke="#bfbfbf" points="638.5,-62 638.5,-81 697.5,-81 697.5,-62 638.5,-62"/>
<text text-anchor="middle" x="668" y="-69" font-family="Helvetica,sans-Serif" font-size="10.00" fill="#000000">sqlite3.h</text>
</g>
<!-- Node0&#45;&gt;Node9 -->
<g id="edge9" class="edge">
<title>Node0&#45;&gt;Node9</title>
<path fill="none" stroke="#191970" d="M385.014,-132.0409C447.1855,-124.568 545.9969,-110.2208 629,-87 631.6071,-86.2706 634.279,-85.4265 636.9419,-84.5162"/>
<polygon fill="#191970" stroke="#191970" points="638.2471,-87.7653 646.4149,-81.0171 635.8216,-81.1989 638.2471,-87.7653"/>
</g>
<!-- Node10 -->
<g id="node11" class="node">
<title>Node10</title>
<polygon fill="none" stroke="#bfbfbf" points="715.5,-62 715.5,-81 760.5,-81 760.5,-62 715.5,-62"/>
<text text-anchor="middle" x="738" y="-69" font-family="Helvetica,sans-Serif" font-size="10.00" fill="#000000">utility</text>
</g>
<!-- Node0&#45;&gt;Node10 -->
<g id="edge10" class="edge">
<title>Node0&#45;&gt;Node10</title>
<path fill="none" stroke="#191970" d="M385.0239,-136.4714C461.7305,-132.5302 596.7109,-120.954 707,-87 708.6606,-86.4888 710.3409,-85.8957 712.0154,-85.2457"/>
<polygon fill="#191970" stroke="#191970" points="713.6582,-88.3454 721.3646,-81.0747 710.8062,-81.9527 713.6582,-88.3454"/>
</g>
<!-- Node11 -->
<g id="node12" class="node">
<title>Node11</title>
<g id="a_node12"><a xlink:href="utils_8h.html" target="_top" xlink:title="utils.h">
<polygon fill="none" stroke="#000000" points="230.5,-62 230.5,-81 277.5,-81 277.5,-62 230.5,-62"/>
<text text-anchor="middle" x="254" y="-69" font-family="Helvetica,sans-Serif" font-size="10.00" fill="#000000">utils.h</text>
</a>
</g>
</g>
<!-- Node0&#45;&gt;Node11 -->
<g id="edge11" class="edge">
<title>Node0&#45;&gt;Node11</title>
<path fill="none" stroke="#191970" d="M308.1159,-123.2967C297.2096,-112.8578 282.731,-98.9997 271.4944,-88.2446"/>
<polygon fill="#191970" stroke="#191970" points="273.6271,-85.4411 263.9828,-81.055 268.7869,-90.498 273.6271,-85.4411"/>
</g>
<!-- Node11&#45;&gt;Node3 -->
<g id="edge15" class="edge">
<title>Node11&#45;&gt;Node3</title>
<path fill="none" stroke="#191970" d="M230.875,-61.8906C206.0033,-51.5554 166.2702,-35.0447 138.3156,-23.4284"/>
<polygon fill="#191970" stroke="#191970" points="139.5402,-20.1472 128.9626,-19.5419 136.854,-26.6113 139.5402,-20.1472"/>
</g>
<!-- Node11&#45;&gt;Node7 -->
<g id="edge16" class="edge">
<title>Node11&#45;&gt;Node7</title>
<path fill="none" stroke="#191970" d="M243.375,-61.8906C232.9569,-52.4683 216.8636,-37.9134 204.3696,-26.6137"/>
<polygon fill="#191970" stroke="#191970" points="206.5392,-23.8568 196.7748,-19.7449 201.8438,-29.0484 206.5392,-23.8568"/>
</g>
<!-- Node12 -->
<g id="node13" class="node">
<title>Node12</title>
<polygon fill="none" stroke="#bfbfbf" points="396,-.5 396,-19.5 460,-19.5 460,-.5 396,-.5"/>
<text text-anchor="middle" x="428" y="-7.5" font-family="Helvetica,sans-Serif" font-size="10.00" fill="#000000">algorithm</text>
</g>
<!-- Node11&#45;&gt;Node12 -->
<g id="edge12" class="edge">
<title>Node11&#45;&gt;Node12</title>
<path fill="none" stroke="#191970" d="M273.3684,-61.9152C277.8024,-59.8579 282.5277,-57.772 287,-56 319.87,-42.9766 358.0437,-30.6901 386.3751,-22.0967"/>
<polygon fill="#191970" stroke="#191970" points="387.3914,-25.446 395.961,-19.216 385.3768,-18.7421 387.3914,-25.446"/>
</g>
<!-- Node13 -->
<g id="node14" class="node">
<title>Node13</title>
<polygon fill="none" stroke="#bfbfbf" points="478.5,-.5 478.5,-19.5 537.5,-19.5 537.5,-.5 478.5,-.5"/>
<text text-anchor="middle" x="508" y="-7.5" font-family="Helvetica,sans-Serif" font-size="10.00" fill="#000000">complex</text>
</g>
<!-- Node11&#45;&gt;Node13 -->
<g id="edge13" class="edge">
<title>Node11&#45;&gt;Node13</title>
<path fill="none" stroke="#191970" d="M272.1771,-61.9958C276.9106,-59.791 282.0686,-57.6189 287,-56 362.2824,-31.2862 386.6881,-37.6762 468.0226,-20.0832"/>
<polygon fill="#191970" stroke="#191970" points="469.2281,-23.4007 478.2309,-17.8151 467.7098,-16.5674 469.2281,-23.4007"/>
</g>
<!-- Node14 -->
<g id="node15" class="node">
<title>Node14</title>
<polygon fill="none" stroke="#bfbfbf" points="238.5,-.5 238.5,-19.5 303.5,-19.5 303.5,-.5 238.5,-.5"/>
<text text-anchor="middle" x="271" y="-7.5" font-family="Helvetica,sans-Serif" font-size="10.00" fill="#000000">functional</text>
</g>
<!-- Node11&#45;&gt;Node14 -->
<g id="edge14" class="edge">
<title>Node11&#45;&gt;Node14</title>
<path fill="none" stroke="#191970" d="M256.6563,-61.8906C259.0375,-53.276 262.6048,-40.3708 265.586,-29.5858"/>
<polygon fill="#191970" stroke="#191970" points="269.0154,-30.3159 268.3063,-19.7449 262.2684,-28.4509 269.0154,-30.3159"/>
</g>
<!-- Node15 -->
<g id="node16" class="node">
<title>Node15</title>
<polygon fill="none" stroke="#bfbfbf" points="322,-.5 322,-19.5 378,-19.5 378,-.5 322,-.5"/>
<text text-anchor="middle" x="350" y="-7.5" font-family="Helvetica,sans-Serif" font-size="10.00" fill="#000000">unistd.h</text>
</g>
<!-- Node11&#45;&gt;Node15 -->
<g id="edge17" class="edge">
<title>Node11&#45;&gt;Node15</title>
<path fill="none" stroke="#191970" d="M269,-61.8906C284.3581,-52.0519 308.4521,-36.6167 326.3745,-25.1351"/>
<polygon fill="#191970" stroke="#191970" points="328.573,-27.8833 335.1053,-19.5419 324.797,-21.9891 328.573,-27.8833"/>
</g>
</g>
</svg>
