<?xml version="1.0" encoding="UTF-8" standalone="no"?>
<!DOCTYPE svg PUBLIC "-//W3C//DTD SVG 1.1//EN"
 "http://www.w3.org/Graphics/SVG/1.1/DTD/svg11.dtd">
<!-- Generated by graphviz version 2.40.1 (20161225.0304)
 -->
<!-- Title: /travis/pairinteraction/SQLite.h Pages: 1 -->
<svg width="1314pt" height="608pt"
 viewBox="0.00 0.00 1313.50 608.00" xmlns="http://www.w3.org/2000/svg" xmlns:xlink="http://www.w3.org/1999/xlink">
<g id="graph0" class="graph" transform="scale(1 1) rotate(0) translate(4 604)">
<title>/travis/pairinteraction/SQLite.h</title>
<!-- Node16 -->
<g id="node1" class="node">
<title>Node16</title>
<polygon fill="#bfbfbf" stroke="#000000" points="537,-569.5 537,-599.5 659,-599.5 659,-569.5 537,-569.5"/>
<text text-anchor="start" x="545" y="-587.5" font-family="Helvetica,sans-Serif" font-size="10.00" fill="#000000">/travis/pairinteraction</text>
<text text-anchor="middle" x="598" y="-576.5" font-family="Helvetica,sans-Serif" font-size="10.00" fill="#000000">/SQLite.h</text>
</g>
<!-- Node17 -->
<g id="node2" class="node">
<title>Node17</title>
<g id="a_node2"><a xlink:href="QuantumDefect_8h.html" target="_top" xlink:title="/travis/pairinteraction\l/QuantumDefect.h">
<polygon fill="none" stroke="#000000" points="626,-502.5 626,-532.5 748,-532.5 748,-502.5 626,-502.5"/>
<text text-anchor="start" x="634" y="-520.5" font-family="Helvetica,sans-Serif" font-size="10.00" fill="#000000">/travis/pairinteraction</text>
<text text-anchor="middle" x="687" y="-509.5" font-family="Helvetica,sans-Serif" font-size="10.00" fill="#000000">/QuantumDefect.h</text>
</a>
</g>
</g>
<!-- Node16&#45;&gt;Node17 -->
<g id="edge1" class="edge">
<title>Node16&#45;&gt;Node17</title>
<path fill="none" stroke="#191970" d="M626.4743,-563.0643C639.6338,-553.1577 654.9513,-541.6265 666.8844,-532.6432"/>
<polygon fill="#191970" stroke="#191970" points="624.0797,-560.486 618.1955,-569.2967 628.2897,-566.0785 624.0797,-560.486"/>
</g>
<!-- Node20 -->
<g id="node5" class="node">
<title>Node20</title>
<g id="a_node5"><a xlink:href="HamiltonianOne_8h.html" target="_top" xlink:title="/travis/pairinteraction\l/HamiltonianOne.h">
<polygon fill="none" stroke="#000000" points="44,-279.5 44,-309.5 166,-309.5 166,-279.5 44,-279.5"/>
<text text-anchor="start" x="52" y="-297.5" font-family="Helvetica,sans-Serif" font-size="10.00" fill="#000000">/travis/pairinteraction</text>
<text text-anchor="middle" x="105" y="-286.5" font-family="Helvetica,sans-Serif" font-size="10.00" fill="#000000">/HamiltonianOne.h</text>
</a>
</g>
</g>
<!-- Node16&#45;&gt;Node20 -->
<g id="edge44" class="edge">
<title>Node16&#45;&gt;Node20</title>
<path fill="none" stroke="#191970" d="M526.6539,-579.8964C414.2807,-572.029 206.0861,-554.7214 180,-533 110.287,-474.9511 104.4133,-352.7203 104.6064,-309.7954"/>
<polygon fill="#191970" stroke="#191970" points="526.6716,-583.4059 536.8896,-580.6055 527.1554,-576.4227 526.6716,-583.4059"/>
</g>
<!-- Node22 -->
<g id="node7" class="node">
<title>Node22</title>
<g id="a_node7"><a xlink:href="HamiltonianTwo_8h.html" target="_top" xlink:title="/travis/pairinteraction\l/HamiltonianTwo.h">
<polygon fill="none" stroke="#000000" points="184,-212.5 184,-242.5 306,-242.5 306,-212.5 184,-212.5"/>
<text text-anchor="start" x="192" y="-230.5" font-family="Helvetica,sans-Serif" font-size="10.00" fill="#000000">/travis/pairinteraction</text>
<text text-anchor="middle" x="245" y="-219.5" font-family="Helvetica,sans-Serif" font-size="10.00" fill="#000000">/HamiltonianTwo.h</text>
</a>
</g>
</g>
<!-- Node16&#45;&gt;Node22 -->
<g id="edge45" class="edge">
<title>Node16&#45;&gt;Node22</title>
<path fill="none" stroke="#191970" d="M526.4164,-574.7795C410.3659,-556.9917 194,-514.5076 194,-445 194,-445 194,-445 194,-367 194,-326.9877 197.9986,-316.0937 213,-279 218.2884,-265.9235 226.8081,-252.4261 233.7273,-242.5313"/>
<polygon fill="#191970" stroke="#191970" points="526.2307,-578.2911 536.6411,-576.3227 527.2754,-571.3695 526.2307,-578.2911"/>
</g>
<!-- Node25 -->
<g id="node10" class="node">
<title>Node25</title>
<g id="a_node10"><a xlink:href="MatrixElements_8cpp.html" target="_top" xlink:title="/travis/pairinteraction\l/MatrixElements.cpp">
<polygon fill="none" stroke="#000000" points="222,-279.5 222,-309.5 344,-309.5 344,-279.5 222,-279.5"/>
<text text-anchor="start" x="230" y="-297.5" font-family="Helvetica,sans-Serif" font-size="10.00" fill="#000000">/travis/pairinteraction</text>
<text text-anchor="middle" x="283" y="-286.5" font-family="Helvetica,sans-Serif" font-size="10.00" fill="#000000">/MatrixElements.cpp</text>
</a>
</g>
</g>
<!-- Node16&#45;&gt;Node25 -->
<g id="edge47" class="edge">
<title>Node16&#45;&gt;Node25</title>
<path fill="none" stroke="#191970" d="M537.6399,-566.2305C481.5631,-547.2686 397.6654,-513.6684 336,-466 300.7436,-438.7463 287.8486,-430.0155 273,-388 263.6437,-361.5253 271.3741,-328.4186 277.4545,-309.5427"/>
<polygon fill="#191970" stroke="#191970" points="536.8355,-569.6514 547.429,-569.4875 539.0455,-563.0094 536.8355,-569.6514"/>
</g>
<!-- Node27 -->
<g id="node12" class="node">
<title>Node27</title>
<g id="a_node12"><a xlink:href="MatrixElementCache_8cpp.html" target="_top" xlink:title="/travis/pairinteraction\l/MatrixElementCache.cpp">
<polygon fill="none" stroke="#000000" points="504.5,-279.5 504.5,-309.5 645.5,-309.5 645.5,-279.5 504.5,-279.5"/>
<text text-anchor="start" x="512.5" y="-297.5" font-family="Helvetica,sans-Serif" font-size="10.00" fill="#000000">/travis/pairinteraction</text>
<text text-anchor="middle" x="575" y="-286.5" font-family="Helvetica,sans-Serif" font-size="10.00" fill="#000000">/MatrixElementCache.cpp</text>
</a>
</g>
</g>
<!-- Node16&#45;&gt;Node27 -->
<g id="edge46" class="edge">
<title>Node16&#45;&gt;Node27</title>
<path fill="none" stroke="#191970" d="M595.9821,-559.0567C591.3188,-500.2583 579.9097,-356.4054 576.1923,-309.533"/>
<polygon fill="#191970" stroke="#191970" points="592.516,-559.6247 596.7958,-569.3167 599.4941,-559.0712 592.516,-559.6247"/>
</g>
<!-- Node39 -->
<g id="node24" class="node">
<title>Node39</title>
<g id="a_node24"><a xlink:href="wavefunction__test_8cpp.html" target="_top" xlink:title="/travis/pairinteraction\l/unit_test/wavefunction\l_test.cpp">
<polygon fill="none" stroke="#000000" points="298.5,-346.5 298.5,-387.5 429.5,-387.5 429.5,-346.5 298.5,-346.5"/>
<text text-anchor="start" x="306.5" y="-375.5" font-family="Helvetica,sans-Serif" font-size="10.00" fill="#000000">/travis/pairinteraction</text>
<text text-anchor="start" x="306.5" y="-364.5" font-family="Helvetica,sans-Serif" font-size="10.00" fill="#000000">/unit_test/wavefunction</text>
<text text-anchor="middle" x="364" y="-353.5" font-family="Helvetica,sans-Serif" font-size="10.00" fill="#000000">_test.cpp</text>
</a>
</g>
</g>
<!-- Node16&#45;&gt;Node39 -->
<g id="edge51" class="edge">
<title>Node16&#45;&gt;Node39</title>
<path fill="none" stroke="#191970" d="M574.2118,-562.3892C528.7624,-520.1445 430.1908,-428.5235 386.0965,-387.5384"/>
<polygon fill="#191970" stroke="#191970" points="571.8381,-564.9613 581.5456,-569.2058 576.6038,-559.8341 571.8381,-564.9613"/>
</g>
<!-- Node41 -->
<g id="node26" class="node">
<title>Node41</title>
<g id="a_node26"><a xlink:href="QuantumDefect_8cpp.html" target="_top" xlink:title="/travis/pairinteraction\l/QuantumDefect.cpp">
<polygon fill="none" stroke="#000000" points="1020,-430 1020,-460 1142,-460 1142,-430 1020,-430"/>
<text text-anchor="start" x="1028" y="-448" font-family="Helvetica,sans-Serif" font-size="10.00" fill="#000000">/travis/pairinteraction</text>
<text text-anchor="middle" x="1081" y="-437" font-family="Helvetica,sans-Serif" font-size="10.00" fill="#000000">/QuantumDefect.cpp</text>
</a>
</g>
</g>
<!-- Node16&#45;&gt;Node41 -->
<g id="edge48" class="edge">
<title>Node16&#45;&gt;Node41</title>
<path fill="none" stroke="#191970" d="M668.8244,-566.7054C697.0461,-558.3085 729.3312,-547.0178 757,-533 778.0165,-522.3525 778.2709,-511.1054 800,-502 887.7409,-465.233 918.3771,-487.7088 1011,-466 1018.4119,-464.2628 1026.1946,-462.1864 1033.7673,-460.0251"/>
<polygon fill="#191970" stroke="#191970" points="667.6508,-563.4016 659.0257,-569.5545 669.6052,-570.1232 667.6508,-563.4016"/>
</g>
<!-- Node43 -->
<g id="node28" class="node">
<title>Node43</title>
<g id="a_node28"><a xlink:href="quantum__defect__test_8cpp.html" target="_top" xlink:title="/travis/pairinteraction\l/unit_test/quantum_defect\l_test.cpp">
<polygon fill="none" stroke="#000000" points="1160.5,-424.5 1160.5,-465.5 1305.5,-465.5 1305.5,-424.5 1160.5,-424.5"/>
<text text-anchor="start" x="1168.5" y="-453.5" font-family="Helvetica,sans-Serif" font-size="10.00" fill="#000000">/travis/pairinteraction</text>
<text text-anchor="start" x="1168.5" y="-442.5" font-family="Helvetica,sans-Serif" font-size="10.00" fill="#000000">/unit_test/quantum_defect</text>
<text text-anchor="middle" x="1233" y="-431.5" font-family="Helvetica,sans-Serif" font-size="10.00" fill="#000000">_test.cpp</text>
</a>
</g>
</g>
<!-- Node16&#45;&gt;Node43 -->
<g id="edge49" class="edge">
<title>Node16&#45;&gt;Node43</title>
<path fill="none" stroke="#191970" d="M668.9651,-572.3571C706.7158,-564.2622 753.2149,-551.6235 792,-533 812.9146,-522.9574 812.407,-510.4861 834,-502 965.9689,-450.1359 1011.5447,-491.6497 1151,-466 1154.0352,-465.4418 1157.1241,-464.8338 1160.2377,-464.188"/>
<polygon fill="#191970" stroke="#191970" points="668.142,-568.9534 659.0661,-574.4194 669.5697,-575.8062 668.142,-568.9534"/>
</g>
<!-- Node44 -->
<g id="node29" class="node">
<title>Node44</title>
<g id="a_node29"><a xlink:href="sqlite__test_8cpp.html" target="_top" xlink:title="/travis/pairinteraction\l/unit_test/sqlite_test.cpp">
<polygon fill="none" stroke="#000000" points="842.5,-502.5 842.5,-532.5 979.5,-532.5 979.5,-502.5 842.5,-502.5"/>
<text text-anchor="start" x="850.5" y="-520.5" font-family="Helvetica,sans-Serif" font-size="10.00" fill="#000000">/travis/pairinteraction</text>
<text text-anchor="middle" x="911" y="-509.5" font-family="Helvetica,sans-Serif" font-size="10.00" fill="#000000">/unit_test/sqlite_test.cpp</text>
</a>
</g>
</g>
<!-- Node16&#45;&gt;Node44 -->
<g id="edge50" class="edge">
<title>Node16&#45;&gt;Node44</title>
<path fill="none" stroke="#191970" d="M668.9043,-569.3224C720.8744,-558.1978 791.033,-543.1798 842.4439,-532.175"/>
<polygon fill="#191970" stroke="#191970" points="668.1384,-565.907 659.0926,-571.4227 669.6037,-572.7519 668.1384,-565.907"/>
</g>
<!-- Node18 -->
<g id="node3" class="node">
<title>Node18</title>
<g id="a_node3"><a xlink:href="Wavefunction_8h.html" target="_top" xlink:title="/travis/pairinteraction\l/Wavefunction.h">
<polygon fill="none" stroke="#000000" points="702,-430 702,-460 824,-460 824,-430 702,-430"/>
<text text-anchor="start" x="710" y="-448" font-family="Helvetica,sans-Serif" font-size="10.00" fill="#000000">/travis/pairinteraction</text>
<text text-anchor="middle" x="763" y="-437" font-family="Helvetica,sans-Serif" font-size="10.00" fill="#000000">/Wavefunction.h</text>
</a>
</g>
</g>
<!-- Node17&#45;&gt;Node18 -->
<g id="edge2" class="edge">
<title>Node17&#45;&gt;Node18</title>
<path fill="none" stroke="#191970" d="M710.2389,-495.3313C722.2446,-483.8785 736.5778,-470.2054 747.2729,-460.0028"/>
<polygon fill="#191970" stroke="#191970" points="707.5671,-493.0429 702.7472,-502.478 712.3989,-498.1079 707.5671,-493.0429"/>
</g>
<!-- Node17&#45;&gt;Node25 -->
<g id="edge37" class="edge">
<title>Node17&#45;&gt;Node25</title>
<path fill="none" stroke="#191970" d="M615.6724,-504.6136C511.9866,-484.264 327.7416,-441.4504 289,-388 272.2944,-364.952 275.6247,-329.7223 279.4046,-309.736"/>
<polygon fill="#191970" stroke="#191970" points="615.2703,-508.1008 625.7542,-506.5713 616.6048,-501.2292 615.2703,-508.1008"/>
</g>
<!-- Node17&#45;&gt;Node27 -->
<g id="edge36" class="edge">
<title>Node17&#45;&gt;Node27</title>
<path fill="none" stroke="#191970" d="M673.6832,-493.3425C669.1481,-484.7989 664.1738,-475.0602 660,-466 635.9659,-413.828 639.6274,-396.3615 612,-346 604.9046,-333.066 595.0997,-319.5619 587.3658,-309.6284"/>
<polygon fill="#191970" stroke="#191970" points="670.7275,-495.236 678.5507,-502.3809 676.8906,-491.9169 670.7275,-495.236"/>
</g>
<!-- Node31 -->
<g id="node16" class="node">
<title>Node31</title>
<g id="a_node16"><a xlink:href="State_8cpp.html" target="_top" xlink:title="/travis/pairinteraction\l/State.cpp">
<polygon fill="none" stroke="#000000" points="613,-212.5 613,-242.5 735,-242.5 735,-212.5 613,-212.5"/>
<text text-anchor="start" x="621" y="-230.5" font-family="Helvetica,sans-Serif" font-size="10.00" fill="#000000">/travis/pairinteraction</text>
<text text-anchor="middle" x="674" y="-219.5" font-family="Helvetica,sans-Serif" font-size="10.00" fill="#000000">/State.cpp</text>
</a>
</g>
</g>
<!-- Node17&#45;&gt;Node31 -->
<g id="edge39" class="edge">
<title>Node17&#45;&gt;Node31</title>
<path fill="none" stroke="#191970" d="M685.8594,-492.0567C683.2236,-433.2583 676.7751,-289.4054 674.6739,-242.533"/>
<polygon fill="#191970" stroke="#191970" points="682.375,-492.4835 686.3194,-502.3167 689.3679,-492.1699 682.375,-492.4835"/>
</g>
<!-- Node17&#45;&gt;Node39 -->
<g id="edge42" class="edge">
<title>Node17&#45;&gt;Node39</title>
<path fill="none" stroke="#191970" d="M645.1996,-498.0234C584.0447,-469.5286 470.6888,-416.711 408.2002,-387.5948"/>
<polygon fill="#191970" stroke="#191970" points="644.0081,-501.3294 654.5506,-502.3804 646.9645,-494.9844 644.0081,-501.3294"/>
</g>
<!-- Node40 -->
<g id="node25" class="node">
<title>Node40</title>
<g id="a_node25"><a xlink:href="Wavefunction_8cpp.html" target="_top" xlink:title="/travis/pairinteraction\l/Wavefunction.cpp">
<polygon fill="none" stroke="#000000" points="850,-352 850,-382 972,-382 972,-352 850,-352"/>
<text text-anchor="start" x="858" y="-370" font-family="Helvetica,sans-Serif" font-size="10.00" fill="#000000">/travis/pairinteraction</text>
<text text-anchor="middle" x="911" y="-359" font-family="Helvetica,sans-Serif" font-size="10.00" fill="#000000">/Wavefunction.cpp</text>
</a>
</g>
</g>
<!-- Node17&#45;&gt;Node40 -->
<g id="edge43" class="edge">
<title>Node17&#45;&gt;Node40</title>
<path fill="none" stroke="#191970" d="M758.0896,-501.2253C783.2607,-493.2689 810.812,-481.8838 833,-466 849.6356,-454.091 883.5872,-406.7554 900.6807,-382.1037"/>
<polygon fill="#191970" stroke="#191970" points="756.7672,-497.9687 748.2096,-504.2151 758.7947,-504.6686 756.7672,-497.9687"/>
</g>
<!-- Node17&#45;&gt;Node41 -->
<g id="edge38" class="edge">
<title>Node17&#45;&gt;Node41</title>
<path fill="none" stroke="#191970" d="M758.2124,-502.6741C759.4843,-502.4447 760.7477,-502.2197 762,-502 872.1349,-482.6759 901.8176,-490.1312 1011,-466 1018.5572,-464.3297 1026.4874,-462.2631 1034.1837,-460.0839"/>
<polygon fill="#191970" stroke="#191970" points="757.529,-499.2411 748.3373,-504.5101 758.8086,-506.1232 757.529,-499.2411"/>
</g>
<!-- Node42 -->
<g id="node27" class="node">
<title>Node42</title>
<g id="a_node27"><a xlink:href="StateOld_8cpp.html" target="_top" xlink:title="/travis/pairinteraction\l/StateOld.cpp">
<polygon fill="none" stroke="#000000" points="880,-430 880,-460 1002,-460 1002,-430 880,-430"/>
<text text-anchor="start" x="888" y="-448" font-family="Helvetica,sans-Serif" font-size="10.00" fill="#000000">/travis/pairinteraction</text>
<text text-anchor="middle" x="941" y="-437" font-family="Helvetica,sans-Serif" font-size="10.00" fill="#000000">/StateOld.cpp</text>
</a>
</g>
</g>
<!-- Node17&#45;&gt;Node42 -->
<g id="edge40" class="edge">
<title>Node17&#45;&gt;Node42</title>
<path fill="none" stroke="#191970" d="M749.3489,-499.7036C792.0366,-487.5191 848.0133,-471.5415 888.4385,-460.0028"/>
<polygon fill="#191970" stroke="#191970" points="748.2842,-496.3676 739.629,-502.478 750.2056,-503.0988 748.2842,-496.3676"/>
</g>
<!-- Node17&#45;&gt;Node43 -->
<g id="edge41" class="edge">
<title>Node17&#45;&gt;Node43</title>
<path fill="none" stroke="#191970" d="M758.2021,-507.3571C772.0551,-505.4902 786.473,-503.6209 800,-502 955.7044,-483.3418 996.6168,-493.5285 1151,-466 1154.0381,-465.4583 1157.1296,-464.8641 1160.2453,-464.2297"/>
<polygon fill="#191970" stroke="#191970" points="757.6728,-503.8968 748.2357,-508.7126 758.6161,-510.833 757.6728,-503.8968"/>
</g>
<!-- Node19 -->
<g id="node4" class="node">
<title>Node19</title>
<g id="a_node4"><a xlink:href="MatrixElements_8h.html" target="_top" xlink:title="/travis/pairinteraction\l/MatrixElements.h">
<polygon fill="none" stroke="#000000" points="448,-352 448,-382 570,-382 570,-352 448,-352"/>
<text text-anchor="start" x="456" y="-370" font-family="Helvetica,sans-Serif" font-size="10.00" fill="#000000">/travis/pairinteraction</text>
<text text-anchor="middle" x="509" y="-359" font-family="Helvetica,sans-Serif" font-size="10.00" fill="#000000">/MatrixElements.h</text>
</a>
</g>
</g>
<!-- Node18&#45;&gt;Node19 -->
<g id="edge3" class="edge">
<title>Node18&#45;&gt;Node19</title>
<path fill="none" stroke="#191970" d="M704.2697,-426.9647C660.0138,-413.3743 600.0196,-394.9509 558.2561,-382.1259"/>
<polygon fill="#191970" stroke="#191970" points="703.4394,-430.371 714.0262,-429.9608 705.4943,-423.6794 703.4394,-430.371"/>
</g>
<!-- Node26 -->
<g id="node11" class="node">
<title>Node26</title>
<g id="a_node11"><a xlink:href="MatrixElementCache_8h.html" target="_top" xlink:title="/travis/pairinteraction\l/MatrixElementCache.h">
<polygon fill="none" stroke="#000000" points="702,-352 702,-382 832,-382 832,-352 702,-352"/>
<text text-anchor="start" x="710" y="-370" font-family="Helvetica,sans-Serif" font-size="10.00" fill="#000000">/travis/pairinteraction</text>
<text text-anchor="middle" x="767" y="-359" font-family="Helvetica,sans-Serif" font-size="10.00" fill="#000000">/MatrixElementCache.h</text>
</a>
</g>
</g>
<!-- Node18&#45;&gt;Node26 -->
<g id="edge12" class="edge">
<title>Node18&#45;&gt;Node26</title>
<path fill="none" stroke="#191970" d="M764.293,-419.7875C764.9272,-407.4187 765.6704,-392.9264 766.2175,-382.2592"/>
<polygon fill="#191970" stroke="#191970" points="760.7881,-419.7947 763.7712,-429.9608 767.7789,-420.1532 760.7881,-419.7947"/>
</g>
<!-- Node18&#45;&gt;Node39 -->
<g id="edge34" class="edge">
<title>Node18&#45;&gt;Node39</title>
<path fill="none" stroke="#191970" d="M691.4532,-434.4948C625.5304,-424.3235 525.1686,-407.5928 439,-388 435.9674,-387.3105 432.8744,-386.5753 429.7562,-385.8083"/>
<polygon fill="#191970" stroke="#191970" points="691.3154,-438.0144 701.7303,-436.0703 692.3762,-431.0953 691.3154,-438.0144"/>
</g>
<!-- Node18&#45;&gt;Node40 -->
<g id="edge35" class="edge">
<title>Node18&#45;&gt;Node40</title>
<path fill="none" stroke="#191970" d="M800.5183,-425.2268C825.9266,-411.836 858.9874,-394.412 882.2996,-382.1259"/>
<polygon fill="#191970" stroke="#191970" points="798.7506,-422.2021 791.5359,-429.9608 802.0143,-428.3947 798.7506,-422.2021"/>
</g>
<!-- Node19&#45;&gt;Node20 -->
<g id="edge4" class="edge">
<title>Node19&#45;&gt;Node20</title>
<path fill="none" stroke="#191970" d="M451.5367,-349.2972C446.9754,-348.1084 442.4234,-346.9915 438,-346 412.0628,-340.1861 255.1075,-316.6692 166.2432,-303.5166"/>
<polygon fill="#191970" stroke="#191970" points="450.9234,-352.7571 461.4907,-351.9941 452.7539,-346.0007 450.9234,-352.7571"/>
</g>
<!-- Node19&#45;&gt;Node22 -->
<g id="edge10" class="edge">
<title>Node19&#45;&gt;Node22</title>
<path fill="none" stroke="#191970" d="M474.8412,-346.8356C443.4817,-328.5388 395.5661,-301.1215 353,-279 328.3009,-266.1639 299.8681,-252.6553 278.3776,-242.6951"/>
<polygon fill="#191970" stroke="#191970" points="473.2242,-349.9445 483.6229,-351.9734 476.7591,-343.9026 473.2242,-349.9445"/>
</g>
<!-- Node19&#45;&gt;Node25 -->
<g id="edge11" class="edge">
<title>Node19&#45;&gt;Node25</title>
<path fill="none" stroke="#191970" d="M452.3209,-348.8175C414.4952,-336.6832 365.3576,-320.92 329.7674,-309.5028"/>
<polygon fill="#191970" stroke="#191970" points="451.5815,-352.256 462.1727,-351.978 453.7198,-345.5905 451.5815,-352.256"/>
</g>
<!-- Node21 -->
<g id="node6" class="node">
<title>Node21</title>
<g id="a_node6"><a xlink:href="HamiltonianOne_8cpp.html" target="_top" xlink:title="/travis/pairinteraction\l/HamiltonianOne.cpp">
<polygon fill="none" stroke="#000000" points="44,-212.5 44,-242.5 166,-242.5 166,-212.5 44,-212.5"/>
<text text-anchor="start" x="52" y="-230.5" font-family="Helvetica,sans-Serif" font-size="10.00" fill="#000000">/travis/pairinteraction</text>
<text text-anchor="middle" x="105" y="-219.5" font-family="Helvetica,sans-Serif" font-size="10.00" fill="#000000">/HamiltonianOne.cpp</text>
</a>
</g>
</g>
<!-- Node20&#45;&gt;Node21 -->
<g id="edge5" class="edge">
<title>Node20&#45;&gt;Node21</title>
<path fill="none" stroke="#191970" d="M105,-269.0249C105,-260.128 105,-250.4287 105,-242.6432"/>
<polygon fill="#191970" stroke="#191970" points="101.5001,-269.2966 105,-279.2967 108.5001,-269.2967 101.5001,-269.2966"/>
</g>
<!-- Node20&#45;&gt;Node22 -->
<g id="edge6" class="edge">
<title>Node20&#45;&gt;Node22</title>
<path fill="none" stroke="#191970" d="M145.638,-275.0518C167.1502,-264.7567 193.181,-252.2991 213.2017,-242.7177"/>
<polygon fill="#191970" stroke="#191970" points="143.9281,-271.9899 136.4187,-279.4639 146.9499,-278.3041 143.9281,-271.9899"/>
</g>
<!-- Node24 -->
<g id="node9" class="node">
<title>Node24</title>
<g id="a_node9"><a xlink:href="Interface_8cpp.html" target="_top" xlink:title="/travis/pairinteraction\l/Interface.cpp">
<polygon fill="none" stroke="#000000" points="0,-145.5 0,-175.5 122,-175.5 122,-145.5 0,-145.5"/>
<text text-anchor="start" x="8" y="-163.5" font-family="Helvetica,sans-Serif" font-size="10.00" fill="#000000">/travis/pairinteraction</text>
<text text-anchor="middle" x="61" y="-152.5" font-family="Helvetica,sans-Serif" font-size="10.00" fill="#000000">/Interface.cpp</text>
</a>
</g>
</g>
<!-- Node20&#45;&gt;Node24 -->
<g id="edge9" class="edge">
<title>Node20&#45;&gt;Node24</title>
<path fill="none" stroke="#191970" d="M64.1269,-273.9732C52.5741,-265.9934 41.4109,-255.6756 35,-243 23.749,-220.7545 38.0214,-192.6698 49.4472,-175.6721"/>
<polygon fill="#191970" stroke="#191970" points="62.2383,-276.9198 72.5457,-279.3708 66.0164,-271.027 62.2383,-276.9198"/>
</g>
<!-- Node23 -->
<g id="node8" class="node">
<title>Node23</title>
<g id="a_node8"><a xlink:href="HamiltonianTwo_8cpp.html" target="_top" xlink:title="/travis/pairinteraction\l/HamiltonianTwo.cpp">
<polygon fill="none" stroke="#000000" points="184,-145.5 184,-175.5 306,-175.5 306,-145.5 184,-145.5"/>
<text text-anchor="start" x="192" y="-163.5" font-family="Helvetica,sans-Serif" font-size="10.00" fill="#000000">/travis/pairinteraction</text>
<text text-anchor="middle" x="245" y="-152.5" font-family="Helvetica,sans-Serif" font-size="10.00" fill="#000000">/HamiltonianTwo.cpp</text>
</a>
</g>
</g>
<!-- Node22&#45;&gt;Node23 -->
<g id="edge7" class="edge">
<title>Node22&#45;&gt;Node23</title>
<path fill="none" stroke="#191970" d="M245,-202.0249C245,-193.128 245,-183.4287 245,-175.6432"/>
<polygon fill="#191970" stroke="#191970" points="241.5001,-202.2966 245,-212.2967 248.5001,-202.2967 241.5001,-202.2966"/>
</g>
<!-- Node22&#45;&gt;Node24 -->
<g id="edge8" class="edge">
<title>Node22&#45;&gt;Node24</title>
<path fill="none" stroke="#191970" d="M194.2002,-209.0023C165.3315,-198.4903 129.6415,-185.4945 102.4733,-175.6017"/>
<polygon fill="#191970" stroke="#191970" points="193.1128,-212.3311 203.7068,-212.4639 195.5079,-205.7535 193.1128,-212.3311"/>
</g>
<!-- Node26&#45;&gt;Node27 -->
<g id="edge13" class="edge">
<title>Node26&#45;&gt;Node27</title>
<path fill="none" stroke="#191970" d="M717.6125,-348.3511C685.6488,-336.2814 644.5815,-320.7743 614.7316,-309.5028"/>
<polygon fill="#191970" stroke="#191970" points="716.6258,-351.7196 727.2175,-351.978 719.0986,-345.171 716.6258,-351.7196"/>
</g>
<!-- Node28 -->
<g id="node13" class="node">
<title>Node28</title>
<g id="a_node13"><a xlink:href="State_8h.html" target="_top" xlink:title="/travis/pairinteraction\l/State.h">
<polygon fill="none" stroke="#000000" points="740,-279.5 740,-309.5 862,-309.5 862,-279.5 740,-279.5"/>
<text text-anchor="start" x="748" y="-297.5" font-family="Helvetica,sans-Serif" font-size="10.00" fill="#000000">/travis/pairinteraction</text>
<text text-anchor="middle" x="801" y="-286.5" font-family="Helvetica,sans-Serif" font-size="10.00" fill="#000000">/State.h</text>
</a>
</g>
</g>
<!-- Node26&#45;&gt;Node28 -->
<g id="edge14" class="edge">
<title>Node26&#45;&gt;Node28</title>
<path fill="none" stroke="#191970" d="M772.06,-342.5128C776.5637,-331.5709 782.725,-319.0252 788.3739,-309.5028"/>
<polygon fill="#191970" stroke="#191970" points="768.7435,-341.3871 768.4521,-351.978 775.2844,-343.8804 768.7435,-341.3871"/>
</g>
<!-- Node29 -->
<g id="node14" class="node">
<title>Node29</title>
<g id="a_node14"><a xlink:href="PerturbativeInteraction_8h.html" target="_top" xlink:title="/travis/pairinteraction\l/PerturbativeInteraction.h">
<polygon fill="none" stroke="#000000" points="1007.5,-212.5 1007.5,-242.5 1148.5,-242.5 1148.5,-212.5 1007.5,-212.5"/>
<text text-anchor="start" x="1015.5" y="-230.5" font-family="Helvetica,sans-Serif" font-size="10.00" fill="#000000">/travis/pairinteraction</text>
<text text-anchor="middle" x="1078" y="-219.5" font-family="Helvetica,sans-Serif" font-size="10.00" fill="#000000">/PerturbativeInteraction.h</text>
</a>
</g>
</g>
<!-- Node26&#45;&gt;Node29 -->
<g id="edge31" class="edge">
<title>Node26&#45;&gt;Node29</title>
<path fill="none" stroke="#191970" d="M811.4783,-347.9005C836.8762,-336.9309 869.2844,-322.8265 898,-310 949.7888,-286.8673 1009.5943,-259.2819 1045.5683,-242.5934"/>
<polygon fill="#191970" stroke="#191970" points="809.9056,-344.7671 802.1099,-351.942 812.6784,-351.1945 809.9056,-344.7671"/>
</g>
<!-- Node32 -->
<g id="node17" class="node">
<title>Node32</title>
<g id="a_node17"><a xlink:href="SystemBase_8h.html" target="_top" xlink:title="/travis/pairinteraction\l/SystemBase.h">
<polygon fill="none" stroke="#000000" points="867,-212.5 867,-242.5 989,-242.5 989,-212.5 867,-212.5"/>
<text text-anchor="start" x="875" y="-230.5" font-family="Helvetica,sans-Serif" font-size="10.00" fill="#000000">/travis/pairinteraction</text>
<text text-anchor="middle" x="928" y="-219.5" font-family="Helvetica,sans-Serif" font-size="10.00" fill="#000000">/SystemBase.h</text>
</a>
</g>
</g>
<!-- Node26&#45;&gt;Node32 -->
<g id="edge32" class="edge">
<title>Node26&#45;&gt;Node32</title>
<path fill="none" stroke="#191970" d="M813.0363,-347.5499C832.2759,-338.0218 854.0487,-325.2858 871,-310 892.8496,-290.2971 910.6918,-260.6542 920.2955,-242.7818"/>
<polygon fill="#191970" stroke="#191970" points="811.3301,-344.4864 803.827,-351.9667 814.3572,-350.798 811.3301,-344.4864"/>
</g>
<!-- Node38 -->
<g id="node23" class="node">
<title>Node38</title>
<g id="a_node23"><a xlink:href="integration__test_8cpp.html" target="_top" xlink:title="/travis/pairinteraction\l/unit_test/integration\l_test.cpp">
<polygon fill="none" stroke="#000000" points="645,-.5 645,-41.5 767,-41.5 767,-.5 645,-.5"/>
<text text-anchor="start" x="653" y="-29.5" font-family="Helvetica,sans-Serif" font-size="10.00" fill="#000000">/travis/pairinteraction</text>
<text text-anchor="start" x="653" y="-18.5" font-family="Helvetica,sans-Serif" font-size="10.00" fill="#000000">/unit_test/integration</text>
<text text-anchor="middle" x="706" y="-7.5" font-family="Helvetica,sans-Serif" font-size="10.00" fill="#000000">_test.cpp</text>
</a>
</g>
</g>
<!-- Node26&#45;&gt;Node38 -->
<g id="edge33" class="edge">
<title>Node26&#45;&gt;Node38</title>
<path fill="none" stroke="#191970" d="M740.1068,-345.597C717.3492,-327.5966 683.7784,-301.303 654,-279 632.0828,-262.5847 616.484,-267.3717 604,-243 566.7759,-170.3298 643.2076,-81.4225 683.4151,-41.7874"/>
<polygon fill="#191970" stroke="#191970" points="737.9632,-348.3641 747.9748,-351.8308 742.3103,-342.8774 737.9632,-348.3641"/>
</g>
<!-- Node28&#45;&gt;Node26 -->
<g id="edge15" class="edge">
<title>Node28&#45;&gt;Node26</title>
<path fill="none" stroke="#191970" d="M795.9491,-318.9651C791.4476,-329.9049 785.2871,-342.4514 779.6375,-351.978"/>
<polygon fill="#191970" stroke="#191970" points="799.2645,-320.0937 799.5545,-309.5028 792.7233,-317.6012 799.2645,-320.0937"/>
</g>
<!-- Node28&#45;&gt;Node29 -->
<g id="edge16" class="edge">
<title>Node28&#45;&gt;Node29</title>
<path fill="none" stroke="#191970" d="M871.9761,-277.3325C916.3395,-266.602 972.9404,-252.9115 1015.5863,-242.5965"/>
<polygon fill="#191970" stroke="#191970" points="871.0286,-273.9607 862.1317,-279.7136 872.6743,-280.7645 871.0286,-273.9607"/>
</g>
<!-- Node28&#45;&gt;Node31 -->
<g id="edge18" class="edge">
<title>Node28&#45;&gt;Node31</title>
<path fill="none" stroke="#191970" d="M763.6095,-274.7743C744.1978,-264.5335 720.8444,-252.2132 702.8456,-242.7177"/>
<polygon fill="#191970" stroke="#191970" points="762.0209,-277.8934 772.4987,-279.4639 765.2872,-271.7021 762.0209,-277.8934"/>
</g>
<!-- Node28&#45;&gt;Node32 -->
<g id="edge19" class="edge">
<title>Node28&#45;&gt;Node32</title>
<path fill="none" stroke="#191970" d="M838.3905,-274.7743C857.8022,-264.5335 881.1556,-252.2132 899.1544,-242.7177"/>
<polygon fill="#191970" stroke="#191970" points="836.7128,-271.7021 829.5013,-279.4639 839.9791,-277.8934 836.7128,-271.7021"/>
</g>
<!-- Node34 -->
<g id="node19" class="node">
<title>Node34</title>
<g id="a_node19"><a xlink:href="SystemOne_8h.html" target="_top" xlink:title="/travis/pairinteraction\l/SystemOne.h">
<polygon fill="none" stroke="#000000" points="705,-145.5 705,-175.5 827,-175.5 827,-145.5 705,-145.5"/>
<text text-anchor="start" x="713" y="-163.5" font-family="Helvetica,sans-Serif" font-size="10.00" fill="#000000">/travis/pairinteraction</text>
<text text-anchor="middle" x="766" y="-152.5" font-family="Helvetica,sans-Serif" font-size="10.00" fill="#000000">/SystemOne.h</text>
</a>
</g>
</g>
<!-- Node28&#45;&gt;Node34 -->
<g id="edge28" class="edge">
<title>Node28&#45;&gt;Node34</title>
<path fill="none" stroke="#191970" d="M794.524,-269.706C787.3386,-242.1962 775.9704,-198.6723 769.9862,-175.7614"/>
<polygon fill="#191970" stroke="#191970" points="791.1395,-270.5981 797.0531,-279.389 797.9123,-268.829 791.1395,-270.5981"/>
</g>
<!-- Node36 -->
<g id="node21" class="node">
<title>Node36</title>
<g id="a_node21"><a xlink:href="SystemTwo_8h.html" target="_top" xlink:title="/travis/pairinteraction\l/SystemTwo.h">
<polygon fill="none" stroke="#000000" points="848,-78.5 848,-108.5 970,-108.5 970,-78.5 848,-78.5"/>
<text text-anchor="start" x="856" y="-96.5" font-family="Helvetica,sans-Serif" font-size="10.00" fill="#000000">/travis/pairinteraction</text>
<text text-anchor="middle" x="909" y="-85.5" font-family="Helvetica,sans-Serif" font-size="10.00" fill="#000000">/SystemTwo.h</text>
</a>
</g>
</g>
<!-- Node28&#45;&gt;Node36 -->
<g id="edge29" class="edge">
<title>Node28&#45;&gt;Node36</title>
<path fill="none" stroke="#191970" d="M813.9398,-270.4176C836.4946,-228.4405 882.3736,-143.0546 900.9356,-108.5088"/>
<polygon fill="#191970" stroke="#191970" points="810.7676,-268.9268 809.1176,-279.3923 816.9339,-272.24 810.7676,-268.9268"/>
</g>
<!-- Node28&#45;&gt;Node38 -->
<g id="edge30" class="edge">
<title>Node28&#45;&gt;Node38</title>
<path fill="none" stroke="#191970" d="M787.2963,-270.4984C776.7451,-253.1691 761.1068,-229.7856 744,-212 725.5141,-192.7806 713.2676,-196.3209 696,-176 674.2454,-150.3987 669.0087,-141.6275 661,-109 657.7156,-95.6194 656.4814,-91.0157 661,-78 665.7138,-64.4218 675.1531,-51.6334 684.1744,-41.624"/>
<polygon fill="#191970" stroke="#191970" points="784.4895,-272.626 792.6117,-279.4289 790.5047,-269.0457 784.4895,-272.626"/>
</g>
<!-- Node30 -->
<g id="node15" class="node">
<title>Node30</title>
<g id="a_node15"><a xlink:href="PerturbativeInteraction_8cpp.html" target="_top" xlink:title="/travis/pairinteraction\l/PerturbativeInteraction.cpp">
<polygon fill="none" stroke="#000000" points="1069,-145.5 1069,-175.5 1221,-175.5 1221,-145.5 1069,-145.5"/>
<text text-anchor="start" x="1077" y="-163.5" font-family="Helvetica,sans-Serif" font-size="10.00" fill="#000000">/travis/pairinteraction</text>
<text text-anchor="middle" x="1145" y="-152.5" font-family="Helvetica,sans-Serif" font-size="10.00" fill="#000000">/PerturbativeInteraction.cpp</text>
</a>
</g>
</g>
<!-- Node29&#45;&gt;Node30 -->
<g id="edge17" class="edge">
<title>Node29&#45;&gt;Node30</title>
<path fill="none" stroke="#191970" d="M1100.2887,-205.2113C1109.9991,-195.5009 1121.1302,-184.3698 1129.8568,-175.6432"/>
<polygon fill="#191970" stroke="#191970" points="1097.7996,-202.7507 1093.2033,-212.2967 1102.7493,-207.7004 1097.7996,-202.7507"/>
</g>
<!-- Node33 -->
<g id="node18" class="node">
<title>Node33</title>
<g id="a_node18"><a xlink:href="SystemBase_8cpp.html" target="_top" xlink:title="/travis/pairinteraction\l/SystemBase.cpp">
<polygon fill="none" stroke="#000000" points="929,-145.5 929,-175.5 1051,-175.5 1051,-145.5 929,-145.5"/>
<text text-anchor="start" x="937" y="-163.5" font-family="Helvetica,sans-Serif" font-size="10.00" fill="#000000">/travis/pairinteraction</text>
<text text-anchor="middle" x="990" y="-152.5" font-family="Helvetica,sans-Serif" font-size="10.00" fill="#000000">/SystemBase.cpp</text>
</a>
</g>
</g>
<!-- Node32&#45;&gt;Node33 -->
<g id="edge20" class="edge">
<title>Node32&#45;&gt;Node33</title>
<path fill="none" stroke="#191970" d="M948.89,-204.9253C957.8129,-195.2828 967.9907,-184.2843 975.9869,-175.6432"/>
<polygon fill="#191970" stroke="#191970" points="946.2918,-202.5798 942.0688,-212.2967 951.4296,-207.3342 946.2918,-202.5798"/>
</g>
<!-- Node32&#45;&gt;Node34 -->
<g id="edge21" class="edge">
<title>Node32&#45;&gt;Node34</title>
<path fill="none" stroke="#191970" d="M882.2765,-208.5897C857.0386,-198.1518 826.1224,-185.3654 802.5145,-175.6017"/>
<polygon fill="#191970" stroke="#191970" points="881.0655,-211.8763 891.644,-212.4639 883.7408,-205.4077 881.0655,-211.8763"/>
</g>
<!-- Node32&#45;&gt;Node36 -->
<g id="edge27" class="edge">
<title>Node32&#45;&gt;Node36</title>
<path fill="none" stroke="#191970" d="M923.9699,-202.2715C922.6647,-193.9153 921.2359,-184.5636 920,-176 916.6151,-152.5455 913.0527,-125.2841 910.9294,-108.719"/>
<polygon fill="#191970" stroke="#191970" points="920.5188,-202.8563 925.5332,-212.1893 927.4334,-201.7663 920.5188,-202.8563"/>
</g>
<!-- Node35 -->
<g id="node20" class="node">
<title>Node35</title>
<g id="a_node20"><a xlink:href="SystemOne_8cpp.html" target="_top" xlink:title="/travis/pairinteraction\l/SystemOne.cpp">
<polygon fill="none" stroke="#000000" points="670,-78.5 670,-108.5 792,-108.5 792,-78.5 670,-78.5"/>
<text text-anchor="start" x="678" y="-96.5" font-family="Helvetica,sans-Serif" font-size="10.00" fill="#000000">/travis/pairinteraction</text>
<text text-anchor="middle" x="731" y="-85.5" font-family="Helvetica,sans-Serif" font-size="10.00" fill="#000000">/SystemOne.cpp</text>
</a>
</g>
</g>
<!-- Node34&#45;&gt;Node35 -->
<g id="edge22" class="edge">
<title>Node34&#45;&gt;Node35</title>
<path fill="none" stroke="#191970" d="M753.3024,-136.1932C748.4918,-126.9844 743.1565,-116.771 738.9106,-108.6432"/>
<polygon fill="#191970" stroke="#191970" points="750.3255,-138.0537 758.058,-145.2967 756.53,-134.8126 750.3255,-138.0537"/>
</g>
<!-- Node34&#45;&gt;Node36 -->
<g id="edge23" class="edge">
<title>Node34&#45;&gt;Node36</title>
<path fill="none" stroke="#191970" d="M807.2135,-141.1902C829.2434,-130.8685 855.9789,-118.3421 876.5204,-108.7177"/>
<polygon fill="#191970" stroke="#191970" points="805.6624,-138.0517 798.092,-145.4639 808.6323,-144.3905 805.6624,-138.0517"/>
</g>
<!-- Node34&#45;&gt;Node38 -->
<g id="edge26" class="edge">
<title>Node34&#45;&gt;Node38</title>
<path fill="none" stroke="#191970" d="M787.2894,-137.1986C800.0334,-120.2961 811.8362,-97.1387 801,-78 792.092,-62.2668 776.9173,-50.4025 761.279,-41.6872"/>
<polygon fill="#191970" stroke="#191970" points="784.2153,-135.4344 780.6543,-145.4129 789.6607,-139.833 784.2153,-135.4344"/>
</g>
<!-- Node37 -->
<g id="node22" class="node">
<title>Node37</title>
<g id="a_node22"><a xlink:href="SystemTwo_8cpp.html" target="_top" xlink:title="/travis/pairinteraction\l/SystemTwo.cpp">
<polygon fill="none" stroke="#000000" points="848,-6 848,-36 970,-36 970,-6 848,-6"/>
<text text-anchor="start" x="856" y="-24" font-family="Helvetica,sans-Serif" font-size="10.00" fill="#000000">/travis/pairinteraction</text>
<text text-anchor="middle" x="909" y="-13" font-family="Helvetica,sans-Serif" font-size="10.00" fill="#000000">/SystemTwo.cpp</text>
</a>
</g>
</g>
<!-- Node36&#45;&gt;Node37 -->
<g id="edge24" class="edge">
<title>Node36&#45;&gt;Node37</title>
<path fill="none" stroke="#191970" d="M909,-68.3409C909,-57.5601 909,-45.3309 909,-36.0028"/>
<polygon fill="#191970" stroke="#191970" points="905.5001,-68.4779 909,-78.478 912.5001,-68.478 905.5001,-68.4779"/>
</g>
<!-- Node36&#45;&gt;Node38 -->
<g id="edge25" class="edge">
<title>Node36&#45;&gt;Node38</title>
<path fill="none" stroke="#191970" d="M857.4982,-75.1065C828.8021,-64.8579 792.9989,-52.071 763.4042,-41.5015"/>
<polygon fill="#191970" stroke="#191970" points="856.3436,-78.4106 866.9383,-78.478 858.698,-71.8184 856.3436,-78.4106"/>
</g>
</g>
</svg>
