<?xml version="1.0" encoding="UTF-8" standalone="no"?>
<!DOCTYPE svg PUBLIC "-//W3C//DTD SVG 1.1//EN"
 "http://www.w3.org/Graphics/SVG/1.1/DTD/svg11.dtd">
<!-- Generated by graphviz version 2.40.1 (20161225.0304)
 -->
<!-- Title: /travis/pairinteraction/State.cpp Pages: 1 -->
<svg width="2235pt" height="464pt"
 viewBox="0.00 0.00 2235.00 464.00" xmlns="http://www.w3.org/2000/svg" xmlns:xlink="http://www.w3.org/1999/xlink">
<g id="graph0" class="graph" transform="scale(1 1) rotate(0) translate(4 460)">
<title>/travis/pairinteraction/State.cpp</title>
<!-- Node0 -->
<g id="node1" class="node">
<title>Node0</title>
<polygon fill="#bfbfbf" stroke="#000000" points="1795,-425.5 1795,-455.5 1917,-455.5 1917,-425.5 1795,-425.5"/>
<text text-anchor="start" x="1803" y="-443.5" font-family="Helvetica,sans-Serif" font-size="10.00" fill="#000000">/travis/pairinteraction</text>
<text text-anchor="middle" x="1856" y="-432.5" font-family="Helvetica,sans-Serif" font-size="10.00" fill="#000000">/State.cpp</text>
</g>
<!-- Node1 -->
<g id="node2" class="node">
<title>Node1</title>
<g id="a_node2"><a xlink:href="State_8h.html" target="_top" xlink:title="State.h">
<polygon fill="none" stroke="#000000" points="861.5,-369.5 861.5,-388.5 912.5,-388.5 912.5,-369.5 861.5,-369.5"/>
<text text-anchor="middle" x="887" y="-376.5" font-family="Helvetica,sans-Serif" font-size="10.00" fill="#000000">State.h</text>
</a>
</g>
</g>
<!-- Node0&#45;&gt;Node1 -->
<g id="edge1" class="edge">
<title>Node0&#45;&gt;Node1</title>
<path fill="none" stroke="#191970" d="M1794.6496,-436.6062C1610.7903,-424.9372 1068.0852,-390.493 923.0055,-381.2852"/>
<polygon fill="#191970" stroke="#191970" points="923.0741,-377.7826 912.8725,-380.6421 922.6307,-384.7685 923.0741,-377.7826"/>
</g>
<!-- Node7 -->
<g id="node8" class="node">
<title>Node7</title>
<polygon fill="none" stroke="#bfbfbf" points="736,-62 736,-81 780,-81 780,-62 736,-62"/>
<text text-anchor="middle" x="758" y="-69" font-family="Helvetica,sans-Serif" font-size="10.00" fill="#000000">string</text>
</g>
<!-- Node0&#45;&gt;Node7 -->
<g id="edge97" class="edge">
<title>Node0&#45;&gt;Node7</title>
<path fill="none" stroke="#191970" d="M1794.9801,-439.7371C1638.0838,-437.2628 1207.9665,-427.238 852,-389 699.2929,-372.5962 645.2379,-407.624 511,-333 445.7752,-296.741 382.9611,-252.9752 423,-190 456.6671,-137.0467 648.3713,-93.4227 725.6828,-77.7395"/>
<polygon fill="#191970" stroke="#191970" points="726.6855,-81.1084 735.8042,-75.714 725.3118,-74.2445 726.6855,-81.1084"/>
</g>
<!-- Node11 -->
<g id="node12" class="node">
<title>Node11</title>
<g id="a_node12"><a xlink:href="dtypes_8h.html" target="_top" xlink:title="dtypes.h">
<polygon fill="none" stroke="#000000" points="196.5,-129 196.5,-148 255.5,-148 255.5,-129 196.5,-129"/>
<text text-anchor="middle" x="226" y="-136" font-family="Helvetica,sans-Serif" font-size="10.00" fill="#000000">dtypes.h</text>
</a>
</g>
</g>
<!-- Node0&#45;&gt;Node11 -->
<g id="edge92" class="edge">
<title>Node0&#45;&gt;Node11</title>
<path fill="none" stroke="#191970" d="M1794.5543,-440.0598C1513.4701,-437.8474 357.1086,-426.5225 200,-389 132.7006,-372.9268 59,-392.1922 59,-323 59,-323 59,-323 59,-261.5 59,-198.5045 136.9921,-164.1664 186.3787,-148.7375"/>
<polygon fill="#191970" stroke="#191970" points="187.5673,-152.0353 196.1437,-145.8147 185.56,-145.3292 187.5673,-152.0353"/>
</g>
<!-- Node14 -->
<g id="node15" class="node">
<title>Node14</title>
<polygon fill="none" stroke="#bfbfbf" points="0,-62 0,-81 42,-81 42,-62 0,-62"/>
<text text-anchor="middle" x="21" y="-69" font-family="Helvetica,sans-Serif" font-size="10.00" fill="#000000">array</text>
</g>
<!-- Node0&#45;&gt;Node14 -->
<g id="edge93" class="edge">
<title>Node0&#45;&gt;Node14</title>
<path fill="none" stroke="#191970" d="M1794.847,-440.0801C1491.4587,-437.8262 159.2815,-425.857 80,-389 44.3217,-372.4136 21,-362.3453 21,-323 21,-323 21,-323 21,-200 21,-161.5012 21,-116.5145 21,-91.2812"/>
<polygon fill="#191970" stroke="#191970" points="24.5001,-91.1718 21,-81.1719 17.5001,-91.1719 24.5001,-91.1718"/>
</g>
<!-- Node19 -->
<g id="node20" class="node">
<title>Node19</title>
<polygon fill="none" stroke="#bfbfbf" points="2063,-62 2063,-81 2123,-81 2123,-62 2063,-62"/>
<text text-anchor="middle" x="2093" y="-69" font-family="Helvetica,sans-Serif" font-size="10.00" fill="#000000">iostream</text>
</g>
<!-- Node0&#45;&gt;Node19 -->
<g id="edge96" class="edge">
<title>Node0&#45;&gt;Node19</title>
<path fill="none" stroke="#191970" d="M1874.0109,-425.4232C1896.4852,-404.8121 1932,-365.5155 1932,-323 1932,-323 1932,-323 1932,-200 1932,-164.154 1931.3366,-149.0126 1956,-123 1987.639,-89.6303 2010.0044,-103.308 2053,-87 2054.8801,-86.2869 2056.8087,-85.5517 2058.7544,-84.8072"/>
<polygon fill="#191970" stroke="#191970" points="2060.4065,-87.9217 2068.4827,-81.0642 2057.8928,-81.3886 2060.4065,-87.9217"/>
</g>
<!-- Node28 -->
<g id="node29" class="node">
<title>Node28</title>
<g id="a_node29"><a xlink:href="QuantumDefect_8h.html" target="_top" xlink:title="QuantumDefect.h">
<polygon fill="none" stroke="#000000" points="1382.5,-190.5 1382.5,-209.5 1485.5,-209.5 1485.5,-190.5 1382.5,-190.5"/>
<text text-anchor="middle" x="1434" y="-197.5" font-family="Helvetica,sans-Serif" font-size="10.00" fill="#000000">QuantumDefect.h</text>
</a>
</g>
</g>
<!-- Node0&#45;&gt;Node28 -->
<g id="edge91" class="edge">
<title>Node0&#45;&gt;Node28</title>
<path fill="none" stroke="#191970" d="M1836.3482,-425.4243C1789.9585,-390.3519 1669.1726,-302.0175 1558,-246 1531.4172,-232.6055 1499.9587,-220.9806 1475.3795,-212.768"/>
<polygon fill="#191970" stroke="#191970" points="1476.2355,-209.3653 1465.6427,-209.5721 1474.0524,-216.0162 1476.2355,-209.3653"/>
</g>
<!-- Node39 -->
<g id="node40" class="node">
<title>Node39</title>
<polygon fill="none" stroke="#bfbfbf" points="2141.5,-62 2141.5,-81 2186.5,-81 2186.5,-62 2141.5,-62"/>
<text text-anchor="middle" x="2164" y="-69" font-family="Helvetica,sans-Serif" font-size="10.00" fill="#000000">utility</text>
</g>
<!-- Node0&#45;&gt;Node39 -->
<g id="edge98" class="edge">
<title>Node0&#45;&gt;Node39</title>
<path fill="none" stroke="#191970" d="M1886.85,-425.4878C1920.6116,-406.6434 1970,-370.892 1970,-323 1970,-323 1970,-323 1970,-200 1970,-180.1824 2083.9732,-115.2518 2137.2034,-86.0072"/>
<polygon fill="#191970" stroke="#191970" points="2139.0028,-89.0124 2146.0967,-81.143 2135.6437,-82.871 2139.0028,-89.0124"/>
</g>
<!-- Node53 -->
<g id="node54" class="node">
<title>Node53</title>
<polygon fill="none" stroke="#bfbfbf" points="1998.5,-369.5 1998.5,-388.5 2047.5,-388.5 2047.5,-369.5 1998.5,-369.5"/>
<text text-anchor="middle" x="2023" y="-376.5" font-family="Helvetica,sans-Serif" font-size="10.00" fill="#000000">cctype</text>
</g>
<!-- Node0&#45;&gt;Node53 -->
<g id="edge94" class="edge">
<title>Node0&#45;&gt;Node53</title>
<path fill="none" stroke="#191970" d="M1896.8528,-425.4554C1924.9375,-415.1129 1961.8208,-401.5301 1988.444,-391.7257"/>
<polygon fill="#191970" stroke="#191970" points="1989.9312,-394.9079 1998.1055,-388.1677 1987.5121,-388.3392 1989.9312,-394.9079"/>
</g>
<!-- Node54 -->
<g id="node55" class="node">
<title>Node54</title>
<polygon fill="none" stroke="#bfbfbf" points="2066,-369.5 2066,-388.5 2122,-388.5 2122,-369.5 2066,-369.5"/>
<text text-anchor="middle" x="2094" y="-376.5" font-family="Helvetica,sans-Serif" font-size="10.00" fill="#000000">iomanip</text>
</g>
<!-- Node0&#45;&gt;Node54 -->
<g id="edge95" class="edge">
<title>Node0&#45;&gt;Node54</title>
<path fill="none" stroke="#191970" d="M1914.6553,-425.4834C1954.5272,-415.2542 2008.4632,-401.3751 2056,-389 2056.099,-388.9742 2056.1982,-388.9484 2056.2975,-388.9225"/>
<polygon fill="#191970" stroke="#191970" points="2056.9928,-392.3585 2065.7827,-386.4434 2055.2226,-385.586 2056.9928,-392.3585"/>
</g>
<!-- Node2 -->
<g id="node3" class="node">
<title>Node2</title>
<g id="a_node3"><a xlink:href="MatrixElementCache_8h.html" target="_top" xlink:title="MatrixElementCache.h">
<polygon fill="none" stroke="#000000" points="1017.5,-313.5 1017.5,-332.5 1144.5,-332.5 1144.5,-313.5 1017.5,-313.5"/>
<text text-anchor="middle" x="1081" y="-320.5" font-family="Helvetica,sans-Serif" font-size="10.00" fill="#000000">MatrixElementCache.h</text>
</a>
</g>
</g>
<!-- Node1&#45;&gt;Node2 -->
<g id="edge2" class="edge">
<title>Node1&#45;&gt;Node2</title>
<path fill="none" stroke="#191970" d="M912.6511,-370.1266C943.2246,-360.7274 994.6641,-345.8201 1032.716,-335.2924"/>
<polygon fill="#191970" stroke="#191970" points="1033.858,-338.6083 1042.572,-332.582 1032.0019,-331.8589 1033.858,-338.6083"/>
</g>
<!-- Node1&#45;&gt;Node7 -->
<g id="edge86" class="edge">
<title>Node1&#45;&gt;Node7</title>
<path fill="none" stroke="#191970" d="M861.0679,-373.9565C791.5039,-359.6908 606,-316.4931 606,-261.5 606,-261.5 606,-261.5 606,-200 606,-137.5157 681.8363,-99.1907 726.3757,-82.0703"/>
<polygon fill="#191970" stroke="#191970" points="727.733,-85.3001 735.8979,-78.5484 725.3047,-78.7348 727.733,-85.3001"/>
</g>
<!-- Node1&#45;&gt;Node11 -->
<g id="edge81" class="edge">
<title>Node1&#45;&gt;Node11</title>
<path fill="none" stroke="#191970" d="M861.0932,-378.463C795.6028,-376.6 618.4971,-368.4079 476,-333 410.1606,-316.6401 392.0952,-312.0345 334,-277 294.8653,-253.3998 282.8941,-246.9486 256,-210 244.3979,-194.0604 236.2522,-172.958 231.4053,-157.8165"/>
<polygon fill="#191970" stroke="#191970" points="234.6864,-156.5735 228.4567,-148.0037 227.9825,-158.5879 234.6864,-156.5735"/>
</g>
<!-- Node1&#45;&gt;Node14 -->
<g id="edge82" class="edge">
<title>Node1&#45;&gt;Node14</title>
<path fill="none" stroke="#191970" d="M861.4876,-378.3278C766.9562,-375.6116 436.9672,-364.0653 337,-333 193.9447,-288.5449 72.6134,-140.5663 33.905,-89.2257"/>
<polygon fill="#191970" stroke="#191970" points="36.6144,-87.0037 27.8394,-81.0665 30.9967,-91.18 36.6144,-87.0037"/>
</g>
<!-- Node15 -->
<g id="node16" class="node">
<title>Node15</title>
<polygon fill="none" stroke="#bfbfbf" points="414.5,-62 414.5,-81 461.5,-81 461.5,-62 414.5,-62"/>
<text text-anchor="middle" x="438" y="-69" font-family="Helvetica,sans-Serif" font-size="10.00" fill="#000000">cmath</text>
</g>
<!-- Node1&#45;&gt;Node15 -->
<g id="edge84" class="edge">
<title>Node1&#45;&gt;Node15</title>
<path fill="none" stroke="#191970" d="M861.3814,-377.7297C774.3845,-373.2348 490.8199,-357.0498 403,-333 346.6233,-317.5611 329.7641,-313.364 284,-277 220.6689,-226.6772 134.6688,-184.6819 187,-123 218.7652,-85.5589 358.1126,-101.5752 405,-87 406.8586,-86.4222 408.7469,-85.7596 410.6308,-85.0409"/>
<polygon fill="#191970" stroke="#191970" points="412.0278,-88.2502 419.8575,-81.1126 409.2857,-81.8096 412.0278,-88.2502"/>
</g>
<!-- Node18 -->
<g id="node19" class="node">
<title>Node18</title>
<polygon fill="none" stroke="#bfbfbf" points="1082.5,-129 1082.5,-148 1225.5,-148 1225.5,-129 1082.5,-129"/>
<text text-anchor="middle" x="1154" y="-136" font-family="Helvetica,sans-Serif" font-size="10.00" fill="#000000">boost/functional/hash.hpp</text>
</g>
<!-- Node1&#45;&gt;Node18 -->
<g id="edge83" class="edge">
<title>Node1&#45;&gt;Node18</title>
<path fill="none" stroke="#191970" d="M887.1775,-369.4767C888.1909,-344.8026 894.5409,-278.4664 933,-246 1007.7033,-182.9369 1084.722,-282.7758 1150,-210 1162.4107,-196.1638 1161.6903,-174.1036 1158.9429,-158.1435"/>
<polygon fill="#191970" stroke="#191970" points="1162.3434,-157.3064 1156.8535,-148.2448 1155.4943,-158.7521 1162.3434,-157.3064"/>
</g>
<!-- Node1&#45;&gt;Node19 -->
<g id="edge85" class="edge">
<title>Node1&#45;&gt;Node19</title>
<path fill="none" stroke="#191970" d="M912.6627,-377.9454C1010.1476,-373.7864 1357.4095,-357.5391 1465,-333 1612.7432,-299.3029 1647.9466,-278.7324 1783,-210 1846.6155,-177.6243 1852.7231,-151.8797 1918,-123 1974.7873,-97.8763 1993.9614,-106.247 2053,-87 2055.2703,-86.2599 2057.5993,-85.462 2059.9368,-84.6325"/>
<polygon fill="#191970" stroke="#191970" points="2061.2981,-87.8608 2069.4644,-81.1108 2058.8712,-81.2949 2061.2981,-87.8608"/>
</g>
<!-- Node20 -->
<g id="node21" class="node">
<title>Node20</title>
<polygon fill="none" stroke="#bfbfbf" points="957.5,-123.5 957.5,-153.5 1064.5,-153.5 1064.5,-123.5 957.5,-123.5"/>
<text text-anchor="start" x="965.5" y="-141.5" font-family="Helvetica,sans-Serif" font-size="10.00" fill="#000000">boost/serialization</text>
<text text-anchor="middle" x="1011" y="-130.5" font-family="Helvetica,sans-Serif" font-size="10.00" fill="#000000">/array.hpp</text>
</g>
<!-- Node1&#45;&gt;Node20 -->
<g id="edge88" class="edge">
<title>Node1&#45;&gt;Node20</title>
<path fill="none" stroke="#191970" d="M912.8216,-376.8831C1028.0798,-367.1786 1491.6942,-325.3395 1533,-277 1577.6662,-224.7279 1596.2851,-271.1256 1074.7917,-154.3568"/>
<polygon fill="#191970" stroke="#191970" points="1075.255,-150.8738 1064.7313,-152.099 1073.7221,-157.7039 1075.255,-150.8738"/>
</g>
<!-- Node21 -->
<g id="node22" class="node">
<title>Node21</title>
<polygon fill="none" stroke="#bfbfbf" points="1282.5,-123.5 1282.5,-153.5 1389.5,-153.5 1389.5,-123.5 1282.5,-123.5"/>
<text text-anchor="start" x="1290.5" y="-141.5" font-family="Helvetica,sans-Serif" font-size="10.00" fill="#000000">boost/serialization</text>
<text text-anchor="middle" x="1336" y="-130.5" font-family="Helvetica,sans-Serif" font-size="10.00" fill="#000000">/string.hpp</text>
</g>
<!-- Node1&#45;&gt;Node21 -->
<g id="edge89" class="edge">
<title>Node1&#45;&gt;Node21</title>
<path fill="none" stroke="#191970" d="M912.6321,-378.6004C986.5421,-377.0273 1206.1459,-369.392 1384,-333 1463.5907,-316.7144 1510.1569,-342.6577 1558,-277 1593.2612,-228.6092 1495.0285,-190.5847 1494,-190 1477.4231,-180.5755 1435.8387,-167.1526 1399.4922,-156.3734"/>
<polygon fill="#191970" stroke="#191970" points="1400.4765,-153.0147 1389.8953,-153.5517 1398.5019,-159.7304 1400.4765,-153.0147"/>
</g>
<!-- Node22 -->
<g id="node23" class="node">
<title>Node22</title>
<polygon fill="none" stroke="#bfbfbf" points="274,-129 274,-148 376,-148 376,-129 274,-129"/>
<text text-anchor="middle" x="325" y="-136" font-family="Helvetica,sans-Serif" font-size="10.00" fill="#000000">boost/variant.hpp</text>
</g>
<!-- Node1&#45;&gt;Node22 -->
<g id="edge90" class="edge">
<title>Node1&#45;&gt;Node22</title>
<path fill="none" stroke="#191970" d="M861.4531,-378.0971C787.2164,-375.1289 572.876,-364.0221 511,-333 427.8656,-291.3198 361.5656,-196.8733 336.1789,-156.91"/>
<polygon fill="#191970" stroke="#191970" points="339.136,-155.0375 330.8745,-148.4044 333.1963,-158.7417 339.136,-155.0375"/>
</g>
<!-- Node52 -->
<g id="node53" class="node">
<title>Node52</title>
<polygon fill="none" stroke="#bfbfbf" points="520.5,-313.5 520.5,-332.5 577.5,-332.5 577.5,-313.5 520.5,-313.5"/>
<text text-anchor="middle" x="549" y="-320.5" font-family="Helvetica,sans-Serif" font-size="10.00" fill="#000000">typeinfo</text>
</g>
<!-- Node1&#45;&gt;Node52 -->
<g id="edge87" class="edge">
<title>Node1&#45;&gt;Node52</title>
<path fill="none" stroke="#191970" d="M861.2404,-375.6351C809.8402,-368.7772 690.9728,-352.1978 592,-333 590.5422,-332.7172 589.0587,-332.42 587.5618,-332.1121"/>
<polygon fill="#191970" stroke="#191970" points="588.1315,-328.6545 577.6181,-329.9655 586.6544,-335.4969 588.1315,-328.6545"/>
</g>
<!-- Node2&#45;&gt;Node1 -->
<g id="edge33" class="edge">
<title>Node2&#45;&gt;Node1</title>
<path fill="none" stroke="#191970" d="M1053.1659,-332.543C1018.6945,-343.0945 960.2457,-359.9517 922.5705,-370.1968"/>
<polygon fill="#191970" stroke="#191970" points="921.278,-366.9202 912.5323,-372.9004 923.0984,-373.6793 921.278,-366.9202"/>
</g>
<!-- Node3 -->
<g id="node4" class="node">
<title>Node3</title>
<g id="a_node4"><a xlink:href="Basisnames_8h.html" target="_top" xlink:title="Basisnames.h">
<polygon fill="none" stroke="#000000" points="773.5,-252 773.5,-271 858.5,-271 858.5,-252 773.5,-252"/>
<text text-anchor="middle" x="816" y="-259" font-family="Helvetica,sans-Serif" font-size="10.00" fill="#000000">Basisnames.h</text>
</a>
</g>
</g>
<!-- Node2&#45;&gt;Node3 -->
<g id="edge3" class="edge">
<title>Node2&#45;&gt;Node3</title>
<path fill="none" stroke="#191970" d="M1039.8845,-313.4581C993.3698,-302.6632 917.5592,-285.0694 867.2327,-273.3899"/>
<polygon fill="#191970" stroke="#191970" points="867.7443,-269.9156 857.2119,-271.0643 866.1618,-276.7344 867.7443,-269.9156"/>
</g>
<!-- Node6 -->
<g id="node7" class="node">
<title>Node6</title>
<polygon fill="none" stroke="#bfbfbf" points="1487,-62 1487,-81 1543,-81 1543,-62 1487,-62"/>
<text text-anchor="middle" x="1515" y="-69" font-family="Helvetica,sans-Serif" font-size="10.00" fill="#000000">sstream</text>
</g>
<!-- Node2&#45;&gt;Node6 -->
<g id="edge77" class="edge">
<title>Node2&#45;&gt;Node6</title>
<path fill="none" stroke="#191970" d="M1144.6169,-320.8042C1271.8274,-315.8929 1548.3847,-302.4066 1583,-277 1638.2934,-236.4163 1633.1228,-178.6288 1593,-123 1581.3354,-106.8274 1562.897,-94.3148 1546.8755,-85.6747"/>
<polygon fill="#191970" stroke="#191970" points="1548.289,-82.4666 1537.7911,-81.0367 1545.106,-88.7011 1548.289,-82.4666"/>
</g>
<!-- Node2&#45;&gt;Node7 -->
<g id="edge78" class="edge">
<title>Node2&#45;&gt;Node7</title>
<path fill="none" stroke="#191970" d="M1017.1551,-320.4446C936.5948,-316.0948 803.7442,-304.8327 764,-277 706.3405,-236.6212 708.1616,-190.8246 727,-123 730.3863,-110.8081 737.5191,-98.6123 744.0897,-89.1512"/>
<polygon fill="#191970" stroke="#191970" points="746.9733,-91.1379 750.0766,-81.0077 741.3334,-86.9916 746.9733,-91.1379"/>
</g>
<!-- Node2&#45;&gt;Node11 -->
<g id="edge69" class="edge">
<title>Node2&#45;&gt;Node11</title>
<path fill="none" stroke="#191970" d="M1017.4234,-320.5063C881.5221,-314.8121 566.6119,-299.5785 462,-277 377.3364,-258.727 348.3716,-261.8595 279,-210 260.1424,-195.9028 244.9566,-173.2563 235.7524,-157.2321"/>
<polygon fill="#191970" stroke="#191970" points="238.6982,-155.3251 230.8152,-148.2463 232.5632,-158.6959 238.6982,-155.3251"/>
</g>
<!-- Node2&#45;&gt;Node18 -->
<g id="edge72" class="edge">
<title>Node2&#45;&gt;Node18</title>
<path fill="none" stroke="#191970" d="M1029.3273,-313.4542C979.2454,-301.977 914.8113,-279.9146 944,-246 1014.0729,-164.5817 1112.9271,-291.4183 1183,-210 1196.4185,-194.409 1183.3038,-171.7952 1170.6597,-156.1939"/>
<polygon fill="#191970" stroke="#191970" points="1173.0476,-153.6049 1163.8551,-148.3371 1167.7562,-158.1876 1173.0476,-153.6049"/>
</g>
<!-- Node24 -->
<g id="node25" class="node">
<title>Node24</title>
<polygon fill="none" stroke="#bfbfbf" points="1561,-62 1561,-81 1619,-81 1619,-62 1561,-62"/>
<text text-anchor="middle" x="1590" y="-69" font-family="Helvetica,sans-Serif" font-size="10.00" fill="#000000">memory</text>
</g>
<!-- Node2&#45;&gt;Node24 -->
<g id="edge76" class="edge">
<title>Node2&#45;&gt;Node24</title>
<path fill="none" stroke="#191970" d="M1144.5247,-321.2265C1277.3734,-316.9864 1575.3344,-304.5003 1612,-277 1666.7733,-235.9185 1642.1821,-186.2637 1616,-123 1611.3949,-111.8728 1605.3803,-99.8376 1600.296,-90.2018"/>
<polygon fill="#191970" stroke="#191970" points="1603.2545,-88.3135 1595.4325,-81.1674 1597.0909,-91.6317 1603.2545,-88.3135"/>
</g>
<!-- Node27 -->
<g id="node28" class="node">
<title>Node27</title>
<g id="a_node28"><a xlink:href="Wavefunction_8h.html" target="_top" xlink:title="Wavefunction.h">
<polygon fill="none" stroke="#000000" points="471.5,-252 471.5,-271 564.5,-271 564.5,-252 471.5,-252"/>
<text text-anchor="middle" x="518" y="-259" font-family="Helvetica,sans-Serif" font-size="10.00" fill="#000000">Wavefunction.h</text>
</a>
</g>
</g>
<!-- Node2&#45;&gt;Node27 -->
<g id="edge34" class="edge">
<title>Node2&#45;&gt;Node27</title>
<path fill="none" stroke="#191970" d="M1017.2382,-316.0349C906.4891,-303.9371 680.3306,-279.2324 574.7083,-267.6946"/>
<polygon fill="#191970" stroke="#191970" points="574.8874,-264.1934 564.5664,-266.5867 574.1272,-271.152 574.8874,-264.1934"/>
</g>
<!-- Node31 -->
<g id="node32" class="node">
<title>Node31</title>
<polygon fill="none" stroke="#bfbfbf" points="1375.5,-62 1375.5,-81 1468.5,-81 1468.5,-62 1375.5,-62"/>
<text text-anchor="middle" x="1422" y="-69" font-family="Helvetica,sans-Serif" font-size="10.00" fill="#000000">unordered_map</text>
</g>
<!-- Node2&#45;&gt;Node31 -->
<g id="edge80" class="edge">
<title>Node2&#45;&gt;Node31</title>
<path fill="none" stroke="#191970" d="M1144.942,-321.0404C1267.5813,-316.6771 1526.3875,-304.3147 1556,-277 1606.5175,-230.4024 1609.8187,-179.0164 1570,-123 1563.6705,-114.0958 1507.0201,-96.091 1465.6866,-83.911"/>
<polygon fill="#191970" stroke="#191970" points="1466.6551,-80.5477 1456.0747,-81.1017 1464.6912,-87.2666 1466.6551,-80.5477"/>
</g>
<!-- Node40 -->
<g id="node41" class="node">
<title>Node40</title>
<g id="a_node41"><a xlink:href="utils_8h.html" target="_top" xlink:title="utils.h">
<polygon fill="none" stroke="#000000" points="1997.5,-62 1997.5,-81 2044.5,-81 2044.5,-62 1997.5,-62"/>
<text text-anchor="middle" x="2021" y="-69" font-family="Helvetica,sans-Serif" font-size="10.00" fill="#000000">utils.h</text>
</a>
</g>
</g>
<!-- Node2&#45;&gt;Node40 -->
<g id="edge70" class="edge">
<title>Node2&#45;&gt;Node40</title>
<path fill="none" stroke="#191970" d="M1144.7983,-321.6191C1271.3779,-318.2481 1549.8368,-307.5108 1640,-277 1760.0503,-236.3755 1765.6666,-177.6836 1880,-123 1925.6444,-101.1691 1941.021,-105.7875 1988,-87 1989.3958,-86.4418 1990.8167,-85.8538 1992.2459,-85.2462"/>
<polygon fill="#191970" stroke="#191970" points="1993.9162,-88.3336 2001.6231,-81.0636 1991.0647,-81.9408 1993.9162,-88.3336"/>
</g>
<!-- Node45 -->
<g id="node46" class="node">
<title>Node45</title>
<polygon fill="none" stroke="#bfbfbf" points="1520.5,-129 1520.5,-148 1561.5,-148 1561.5,-129 1520.5,-129"/>
<text text-anchor="middle" x="1541" y="-136" font-family="Helvetica,sans-Serif" font-size="10.00" fill="#000000">tuple</text>
</g>
<!-- Node2&#45;&gt;Node45 -->
<g id="edge79" class="edge">
<title>Node2&#45;&gt;Node45</title>
<path fill="none" stroke="#191970" d="M1144.8677,-321.0087C1263.1419,-316.677 1506.6833,-304.4932 1533,-277 1563.5557,-245.0782 1554.4234,-187.7747 1546.7958,-157.8662"/>
<polygon fill="#191970" stroke="#191970" points="1550.1591,-156.8965 1544.1299,-148.1845 1543.4102,-158.7548 1550.1591,-156.8965"/>
</g>
<!-- Node48 -->
<g id="node49" class="node">
<title>Node48</title>
<polygon fill="none" stroke="#bfbfbf" points="953.5,-252 953.5,-271 1072.5,-271 1072.5,-252 953.5,-252"/>
<text text-anchor="middle" x="1013" y="-259" font-family="Helvetica,sans-Serif" font-size="10.00" fill="#000000">boost/filesystem.hpp</text>
</g>
<!-- Node2&#45;&gt;Node48 -->
<g id="edge71" class="edge">
<title>Node2&#45;&gt;Node48</title>
<path fill="none" stroke="#191970" d="M1070.375,-313.3906C1059.9569,-303.9683 1043.8636,-289.4134 1031.3696,-278.1137"/>
<polygon fill="#191970" stroke="#191970" points="1033.5392,-275.3568 1023.7748,-271.2449 1028.8438,-280.5484 1033.5392,-275.3568"/>
</g>
<!-- Node49 -->
<g id="node50" class="node">
<title>Node49</title>
<polygon fill="none" stroke="#bfbfbf" points="1090.5,-246.5 1090.5,-276.5 1207.5,-276.5 1207.5,-246.5 1090.5,-246.5"/>
<text text-anchor="start" x="1098.5" y="-264.5" font-family="Helvetica,sans-Serif" font-size="10.00" fill="#000000">boost/serialization</text>
<text text-anchor="middle" x="1149" y="-253.5" font-family="Helvetica,sans-Serif" font-size="10.00" fill="#000000">/unordered_map.hpp</text>
</g>
<!-- Node2&#45;&gt;Node49 -->
<g id="edge73" class="edge">
<title>Node2&#45;&gt;Node49</title>
<path fill="none" stroke="#191970" d="M1091.625,-313.3906C1100.4871,-305.3756 1113.4558,-293.6466 1124.8223,-283.3666"/>
<polygon fill="#191970" stroke="#191970" points="1127.2964,-285.8482 1132.3653,-276.5446 1122.6009,-280.6565 1127.2964,-285.8482"/>
</g>
<!-- Node50 -->
<g id="node51" class="node">
<title>Node50</title>
<polygon fill="none" stroke="#bfbfbf" points="1226,-246.5 1226,-276.5 1336,-276.5 1336,-246.5 1226,-246.5"/>
<text text-anchor="start" x="1234" y="-264.5" font-family="Helvetica,sans-Serif" font-size="10.00" fill="#000000">boost/serialization</text>
<text text-anchor="middle" x="1281" y="-253.5" font-family="Helvetica,sans-Serif" font-size="10.00" fill="#000000">/unordered_set.hpp</text>
</g>
<!-- Node2&#45;&gt;Node50 -->
<g id="edge74" class="edge">
<title>Node2&#45;&gt;Node50</title>
<path fill="none" stroke="#191970" d="M1112.25,-313.3906C1141.5732,-304.3737 1186.1826,-290.6563 1222.1721,-279.5896"/>
<polygon fill="#191970" stroke="#191970" points="1223.5449,-282.8292 1232.0745,-276.5446 1221.4874,-276.1384 1223.5449,-282.8292"/>
</g>
<!-- Node51 -->
<g id="node52" class="node">
<title>Node51</title>
<polygon fill="none" stroke="#bfbfbf" points="1354,-246.5 1354,-276.5 1524,-276.5 1524,-246.5 1354,-246.5"/>
<text text-anchor="start" x="1362" y="-264.5" font-family="Helvetica,sans-Serif" font-size="10.00" fill="#000000">wignerSymbols/wignerSymbols</text>
<text text-anchor="middle" x="1439" y="-253.5" font-family="Helvetica,sans-Serif" font-size="10.00" fill="#000000">&#45;cpp.h</text>
</g>
<!-- Node2&#45;&gt;Node51 -->
<g id="edge75" class="edge">
<title>Node2&#45;&gt;Node51</title>
<path fill="none" stroke="#191970" d="M1136.5447,-313.4581C1191.8398,-303.9591 1277.78,-289.1956 1343.9416,-277.8299"/>
<polygon fill="#191970" stroke="#191970" points="1344.7045,-281.2502 1353.9675,-276.1075 1343.5193,-274.3512 1344.7045,-281.2502"/>
</g>
<!-- Node4 -->
<g id="node5" class="node">
<title>Node4</title>
<g id="a_node5"><a xlink:href="ConfParser_8h.html" target="_top" xlink:title="ConfParser.h">
<polygon fill="none" stroke="#000000" points="862.5,-129 862.5,-148 939.5,-148 939.5,-129 862.5,-129"/>
<text text-anchor="middle" x="901" y="-136" font-family="Helvetica,sans-Serif" font-size="10.00" fill="#000000">ConfParser.h</text>
</a>
</g>
</g>
<!-- Node3&#45;&gt;Node4 -->
<g id="edge4" class="edge">
<title>Node3&#45;&gt;Node4</title>
<path fill="none" stroke="#191970" d="M822.2206,-251.6737C831.0653,-237.7872 847.8826,-211.694 863,-190 870.8793,-178.6929 880.0436,-166.2533 887.3982,-156.4328"/>
<polygon fill="#191970" stroke="#191970" points="890.3347,-158.3516 893.5549,-148.258 884.7431,-154.1404 890.3347,-158.3516"/>
</g>
<!-- Node3&#45;&gt;Node7 -->
<g id="edge30" class="edge">
<title>Node3&#45;&gt;Node7</title>
<path fill="none" stroke="#191970" d="M790.1929,-251.941C772.2751,-243.7853 749.7608,-230.143 739,-210 718.4145,-171.4664 736.1717,-118.6466 748.5286,-90.6822"/>
<polygon fill="#191970" stroke="#191970" points="751.8657,-91.8066 752.9089,-81.2632 745.5184,-88.8548 751.8657,-91.8066"/>
</g>
<!-- Node9 -->
<g id="node10" class="node">
<title>Node9</title>
<g id="a_node10"><a xlink:href="Iter_8h.html" target="_top" xlink:title="Iter.h">
<polygon fill="none" stroke="#000000" points="872.5,-190.5 872.5,-209.5 913.5,-209.5 913.5,-190.5 872.5,-190.5"/>
<text text-anchor="middle" x="893" y="-197.5" font-family="Helvetica,sans-Serif" font-size="10.00" fill="#000000">Iter.h</text>
</a>
</g>
</g>
<!-- Node3&#45;&gt;Node9 -->
<g id="edge9" class="edge">
<title>Node3&#45;&gt;Node9</title>
<path fill="none" stroke="#191970" d="M828.0313,-251.8906C840.0107,-242.3227 858.6166,-227.4621 872.8525,-216.0919"/>
<polygon fill="#191970" stroke="#191970" points="875.4239,-218.5175 881.0532,-209.5419 871.0553,-213.0479 875.4239,-218.5175"/>
</g>
<!-- Node10 -->
<g id="node11" class="node">
<title>Node10</title>
<g id="a_node11"><a xlink:href="StateOld_8h.html" target="_top" xlink:title="StateOld.h">
<polygon fill="none" stroke="#000000" points="748,-190.5 748,-209.5 816,-209.5 816,-190.5 748,-190.5"/>
<text text-anchor="middle" x="782" y="-197.5" font-family="Helvetica,sans-Serif" font-size="10.00" fill="#000000">StateOld.h</text>
</a>
</g>
</g>
<!-- Node3&#45;&gt;Node10 -->
<g id="edge10" class="edge">
<title>Node3&#45;&gt;Node10</title>
<path fill="none" stroke="#191970" d="M810.6875,-251.8906C805.7761,-243.0068 798.3421,-229.5601 792.2725,-218.5811"/>
<polygon fill="#191970" stroke="#191970" points="795.2888,-216.8031 787.3874,-209.7449 789.1627,-220.1899 795.2888,-216.8031"/>
</g>
<!-- Node3&#45;&gt;Node11 -->
<g id="edge26" class="edge">
<title>Node3&#45;&gt;Node11</title>
<path fill="none" stroke="#191970" d="M773.302,-258.856C700.5575,-253.6984 548.2961,-240.0596 423,-210 362.5907,-195.5073 295.1297,-168.5408 256.8958,-152.1866"/>
<polygon fill="#191970" stroke="#191970" points="257.94,-148.8251 247.3719,-148.0729 255.1643,-155.2513 257.94,-148.8251"/>
</g>
<!-- Node17 -->
<g id="node18" class="node">
<title>Node17</title>
<polygon fill="none" stroke="#bfbfbf" points="479.5,-62 479.5,-81 526.5,-81 526.5,-62 479.5,-62"/>
<text text-anchor="middle" x="503" y="-69" font-family="Helvetica,sans-Serif" font-size="10.00" fill="#000000">vector</text>
</g>
<!-- Node3&#45;&gt;Node17 -->
<g id="edge32" class="edge">
<title>Node3&#45;&gt;Node17</title>
<path fill="none" stroke="#191970" d="M799.3917,-251.9279C781.6504,-241.6684 752.7388,-224.8504 728,-210 654.2983,-165.7576 567.9281,-112.0698 526.9327,-86.4742"/>
<polygon fill="#191970" stroke="#191970" points="528.5414,-83.3524 518.206,-81.022 524.8323,-89.289 528.5414,-83.3524"/>
</g>
<!-- Node23 -->
<g id="node24" class="node">
<title>Node23</title>
<polygon fill="none" stroke="#bfbfbf" points="931.5,-190.5 931.5,-209.5 986.5,-209.5 986.5,-190.5 931.5,-190.5"/>
<text text-anchor="middle" x="959" y="-197.5" font-family="Helvetica,sans-Serif" font-size="10.00" fill="#000000">fstream</text>
</g>
<!-- Node3&#45;&gt;Node23 -->
<g id="edge27" class="edge">
<title>Node3&#45;&gt;Node23</title>
<path fill="none" stroke="#191970" d="M838.3438,-251.8906C862.2703,-241.6005 900.4309,-225.1888 927.4216,-213.5809"/>
<polygon fill="#191970" stroke="#191970" points="929.0095,-216.708 936.8131,-209.5419 926.2439,-210.2775 929.0095,-216.708"/>
</g>
<!-- Node3&#45;&gt;Node24 -->
<g id="edge28" class="edge">
<title>Node3&#45;&gt;Node24</title>
<path fill="none" stroke="#191970" d="M858.6036,-255.7442C883.4714,-252.5339 915.4714,-248.6589 944,-246 1065.9552,-234.6335 1378.9502,-252.0217 1494,-210 1533.4105,-195.6054 1546.7683,-188.9383 1570,-154 1582.5774,-135.0847 1587.2596,-109.041 1588.9944,-91.309"/>
<polygon fill="#191970" stroke="#191970" points="1592.4912,-91.4818 1589.7501,-81.2477 1585.5109,-90.9575 1592.4912,-91.4818"/>
</g>
<!-- Node25 -->
<g id="node26" class="node">
<title>Node25</title>
<polygon fill="none" stroke="#bfbfbf" points="1005,-190.5 1005,-209.5 1037,-209.5 1037,-190.5 1005,-190.5"/>
<text text-anchor="middle" x="1021" y="-197.5" font-family="Helvetica,sans-Serif" font-size="10.00" fill="#000000">set</text>
</g>
<!-- Node3&#45;&gt;Node25 -->
<g id="edge29" class="edge">
<title>Node3&#45;&gt;Node25</title>
<path fill="none" stroke="#191970" d="M850.3637,-251.9979C894.3775,-239.7605 968.1742,-218.9988 995,-210 995.1003,-209.9664 995.2008,-209.9326 995.3014,-209.8986"/>
<polygon fill="#191970" stroke="#191970" points="996.6283,-213.1409 1004.8518,-206.4607 994.2574,-206.5546 996.6283,-213.1409"/>
</g>
<!-- Node26 -->
<g id="node27" class="node">
<title>Node26</title>
<polygon fill="none" stroke="#bfbfbf" points="1055,-190.5 1055,-209.5 1141,-209.5 1141,-190.5 1055,-190.5"/>
<text text-anchor="middle" x="1098" y="-197.5" font-family="Helvetica,sans-Serif" font-size="10.00" fill="#000000">unordered_set</text>
</g>
<!-- Node3&#45;&gt;Node26 -->
<g id="edge31" class="edge">
<title>Node3&#45;&gt;Node26</title>
<path fill="none" stroke="#191970" d="M849.6661,-251.9628C857.3137,-249.903 865.4177,-247.8041 873,-246 904.9506,-238.398 988.9604,-221.5298 1044.793,-210.47"/>
<polygon fill="#191970" stroke="#191970" points="1045.7409,-213.8504 1054.8714,-208.4761 1044.3822,-206.9835 1045.7409,-213.8504"/>
</g>
<!-- Node5 -->
<g id="node6" class="node">
<title>Node5</title>
<polygon fill="none" stroke="#bfbfbf" points="962,-62 962,-81 1000,-81 1000,-62 962,-62"/>
<text text-anchor="middle" x="981" y="-69" font-family="Helvetica,sans-Serif" font-size="10.00" fill="#000000">map</text>
</g>
<!-- Node4&#45;&gt;Node5 -->
<g id="edge5" class="edge">
<title>Node4&#45;&gt;Node5</title>
<path fill="none" stroke="#191970" d="M912.462,-128.9005C925.2938,-118.1539 946.3011,-100.5603 961.6813,-87.6794"/>
<polygon fill="#191970" stroke="#191970" points="964.14,-90.1856 969.5592,-81.0817 959.6455,-84.8191 964.14,-90.1856"/>
</g>
<!-- Node4&#45;&gt;Node6 -->
<g id="edge6" class="edge">
<title>Node4&#45;&gt;Node6</title>
<path fill="none" stroke="#191970" d="M926.0579,-128.9498C933.0649,-126.634 940.7484,-124.4191 948,-123 1179.2682,-77.7422 1247.4236,-140.178 1477,-87 1479.7982,-86.3518 1482.6573,-85.5235 1485.4889,-84.5877"/>
<polygon fill="#191970" stroke="#191970" points="1486.7261,-87.8619 1494.8812,-81.0983 1484.2883,-81.3001 1486.7261,-87.8619"/>
</g>
<!-- Node4&#45;&gt;Node7 -->
<g id="edge7" class="edge">
<title>Node4&#45;&gt;Node7</title>
<path fill="none" stroke="#191970" d="M880.5116,-128.9005C856.1944,-117.5072 815.4514,-98.4178 787.6831,-85.4075"/>
<polygon fill="#191970" stroke="#191970" points="788.9907,-82.1551 778.4504,-81.0817 786.0208,-88.4938 788.9907,-82.1551"/>
</g>
<!-- Node8 -->
<g id="node9" class="node">
<title>Node8</title>
<polygon fill="none" stroke="#bfbfbf" points="818.5,-62 818.5,-81 943.5,-81 943.5,-62 818.5,-62"/>
<text text-anchor="middle" x="881" y="-69" font-family="Helvetica,sans-Serif" font-size="10.00" fill="#000000">boost/lexical_cast.hpp</text>
</g>
<!-- Node4&#45;&gt;Node8 -->
<g id="edge8" class="edge">
<title>Node4&#45;&gt;Node8</title>
<path fill="none" stroke="#191970" d="M898.1345,-128.9005C895.1939,-119.0495 890.5358,-103.4451 886.8183,-90.9912"/>
<polygon fill="#191970" stroke="#191970" points="890.0744,-89.6627 883.8602,-81.0817 883.3669,-91.665 890.0744,-89.6627"/>
</g>
<!-- Node10&#45;&gt;Node7 -->
<g id="edge22" class="edge">
<title>Node10&#45;&gt;Node7</title>
<path fill="none" stroke="#191970" d="M781.1818,-190.4486C779.8345,-175.827 776.809,-147.0583 772,-123 769.8624,-112.3058 766.7309,-100.5587 763.9713,-90.9875"/>
<polygon fill="#191970" stroke="#191970" points="767.2897,-89.8671 761.0865,-81.278 760.5796,-91.8608 767.2897,-89.8671"/>
</g>
<!-- Node10&#45;&gt;Node11 -->
<g id="edge11" class="edge">
<title>Node10&#45;&gt;Node11</title>
<path fill="none" stroke="#191970" d="M747.9104,-198.256C648.0422,-192.9432 357.3778,-175.9727 265,-154 262.1426,-153.3203 259.218,-152.4704 256.3182,-151.5206"/>
<polygon fill="#191970" stroke="#191970" points="257.2827,-148.1469 246.6887,-148.0094 254.8847,-154.7234 257.2827,-148.1469"/>
</g>
<!-- Node10&#45;&gt;Node14 -->
<g id="edge18" class="edge">
<title>Node10&#45;&gt;Node14</title>
<path fill="none" stroke="#191970" d="M747.7377,-198.111C629.242,-191.4731 241.0835,-168.8198 187,-154 132.7122,-139.1242 75.1175,-106.0645 44.0761,-86.6124"/>
<polygon fill="#191970" stroke="#191970" points="45.6443,-83.4619 35.3281,-81.0476 41.8871,-89.3681 45.6443,-83.4619"/>
</g>
<!-- Node10&#45;&gt;Node15 -->
<g id="edge20" class="edge">
<title>Node10&#45;&gt;Node15</title>
<path fill="none" stroke="#191970" d="M752.3582,-190.4063C696.4553,-172.0626 571.9105,-130.0002 470,-87 468.6492,-86.4301 467.2737,-85.8325 465.8896,-85.2172"/>
<polygon fill="#191970" stroke="#191970" points="467.3477,-82.0354 456.8028,-81.0079 464.4053,-88.387 467.3477,-82.0354"/>
</g>
<!-- Node10&#45;&gt;Node18 -->
<g id="edge19" class="edge">
<title>Node10&#45;&gt;Node18</title>
<path fill="none" stroke="#191970" d="M816.1075,-194.9735C870.5202,-186.8725 980.291,-170.1935 1073,-154 1080.3551,-152.7153 1088.0748,-151.3108 1095.7053,-149.8886"/>
<polygon fill="#191970" stroke="#191970" points="1096.467,-153.3068 1105.647,-148.0175 1095.1721,-146.4276 1096.467,-153.3068"/>
</g>
<!-- Node10&#45;&gt;Node19 -->
<g id="edge21" class="edge">
<title>Node10&#45;&gt;Node19</title>
<path fill="none" stroke="#191970" d="M816.2236,-195.1258C830.6362,-193.242 847.6057,-191.2444 863,-190 1070.2557,-173.2465 1594.2115,-195.302 1798,-154 1836.1855,-146.2609 1842.5913,-133.8909 1880,-123 1955.4053,-101.047 1977.6858,-109.2636 2053,-87 2055.589,-86.2347 2058.2468,-85.3753 2060.9021,-84.4638"/>
<polygon fill="#191970" stroke="#191970" points="2062.1821,-87.7226 2070.3791,-81.0101 2059.7852,-81.1458 2062.1821,-87.7226"/>
</g>
<!-- Node10&#45;&gt;Node20 -->
<g id="edge23" class="edge">
<title>Node10&#45;&gt;Node20</title>
<path fill="none" stroke="#191970" d="M816.2836,-190.7928C850.8945,-181.4978 905.157,-166.9251 947.618,-155.5218"/>
<polygon fill="#191970" stroke="#191970" points="948.5608,-158.8927 957.3108,-152.9187 946.7452,-152.1322 948.5608,-158.8927"/>
</g>
<!-- Node10&#45;&gt;Node21 -->
<g id="edge24" class="edge">
<title>Node10&#45;&gt;Node21</title>
<path fill="none" stroke="#191970" d="M816.2659,-195.5687C830.6853,-193.7562 847.6485,-191.6922 863,-190 1027.666,-171.8494 1069.6039,-174.4518 1234,-154 1246.4124,-152.4558 1259.6428,-150.6008 1272.3214,-148.7193"/>
<polygon fill="#191970" stroke="#191970" points="1272.9774,-152.1601 1282.3449,-147.2102 1271.9352,-145.2381 1272.9774,-152.1601"/>
</g>
<!-- Node10&#45;&gt;Node22 -->
<g id="edge25" class="edge">
<title>Node10&#45;&gt;Node22</title>
<path fill="none" stroke="#191970" d="M747.6507,-195.3775C670.6648,-185.0172 483.4438,-159.8223 386.0835,-146.7202"/>
<polygon fill="#191970" stroke="#191970" points="386.471,-143.2409 376.0935,-145.3758 385.5373,-150.1783 386.471,-143.2409"/>
</g>
<!-- Node12 -->
<g id="node13" class="node">
<title>Node12</title>
<polygon fill="none" stroke="#bfbfbf" points="319.5,-62 319.5,-81 396.5,-81 396.5,-62 319.5,-62"/>
<text text-anchor="middle" x="358" y="-69" font-family="Helvetica,sans-Serif" font-size="10.00" fill="#000000">Eigen/Dense</text>
</g>
<!-- Node11&#45;&gt;Node12 -->
<g id="edge12" class="edge">
<title>Node11&#45;&gt;Node12</title>
<path fill="none" stroke="#191970" d="M244.9124,-128.9005C267.163,-117.6067 304.3122,-98.7506 329.9259,-85.7497"/>
<polygon fill="#191970" stroke="#191970" points="331.7898,-88.7288 339.1227,-81.0817 328.6215,-82.4868 331.7898,-88.7288"/>
</g>
<!-- Node13 -->
<g id="node14" class="node">
<title>Node13</title>
<polygon fill="none" stroke="#bfbfbf" points="60,-62 60,-81 140,-81 140,-62 60,-62"/>
<text text-anchor="middle" x="100" y="-69" font-family="Helvetica,sans-Serif" font-size="10.00" fill="#000000">Eigen/Sparse</text>
</g>
<!-- Node11&#45;&gt;Node13 -->
<g id="edge13" class="edge">
<title>Node11&#45;&gt;Node13</title>
<path fill="none" stroke="#191970" d="M207.9473,-128.9005C186.8016,-117.6564 151.5596,-98.9166 127.1218,-85.9219"/>
<polygon fill="#191970" stroke="#191970" points="128.4918,-82.6864 118.0192,-81.0817 125.2053,-88.867 128.4918,-82.6864"/>
</g>
<!-- Node11&#45;&gt;Node14 -->
<g id="edge14" class="edge">
<title>Node11&#45;&gt;Node14</title>
<path fill="none" stroke="#191970" d="M196.3143,-131.6042C161.0288,-122.9899 100.6738,-106.9296 51,-87 49.8064,-86.5211 48.5971,-86.0105 47.3835,-85.4771"/>
<polygon fill="#191970" stroke="#191970" points="48.7195,-82.2366 38.1868,-81.0905 45.7059,-88.5547 48.7195,-82.2366"/>
</g>
<!-- Node11&#45;&gt;Node15 -->
<g id="edge15" class="edge">
<title>Node11&#45;&gt;Node15</title>
<path fill="none" stroke="#191970" d="M248.5076,-128.9936C253.8653,-126.8874 259.5965,-124.7607 265,-123 326.0854,-103.0959 344.548,-108.7522 405,-87 406.5969,-86.4254 408.2213,-85.8011 409.8499,-85.1439"/>
<polygon fill="#191970" stroke="#191970" points="411.2885,-88.335 419.0616,-81.1356 408.4955,-81.9163 411.2885,-88.335"/>
</g>
<!-- Node16 -->
<g id="node17" class="node">
<title>Node16</title>
<polygon fill="none" stroke="#bfbfbf" points="158.5,-56.5 158.5,-86.5 301.5,-86.5 301.5,-56.5 158.5,-56.5"/>
<text text-anchor="start" x="166.5" y="-74.5" font-family="Helvetica,sans-Serif" font-size="10.00" fill="#000000">unsupported/Eigen/CXX11</text>
<text text-anchor="middle" x="230" y="-63.5" font-family="Helvetica,sans-Serif" font-size="10.00" fill="#000000">/Tensor</text>
</g>
<!-- Node11&#45;&gt;Node16 -->
<g id="edge16" class="edge">
<title>Node11&#45;&gt;Node16</title>
<path fill="none" stroke="#191970" d="M226.5731,-128.9005C227.074,-120.5099 227.8242,-107.9451 228.495,-96.7085"/>
<polygon fill="#191970" stroke="#191970" points="232.0009,-96.7126 229.1032,-86.5218 225.0134,-96.2954 232.0009,-96.7126"/>
</g>
<!-- Node11&#45;&gt;Node17 -->
<g id="edge17" class="edge">
<title>Node11&#45;&gt;Node17</title>
<path fill="none" stroke="#191970" d="M248.0025,-128.8478C253.4803,-126.6982 259.3919,-124.5888 265,-123 354.0026,-97.7856 381.8051,-114.9088 470,-87 471.8557,-86.4128 473.7417,-85.743 475.624,-85.019"/>
<polygon fill="#191970" stroke="#191970" points="477.0265,-88.2258 484.8466,-81.0776 474.2757,-81.789 477.0265,-88.2258"/>
</g>
<!-- Node27&#45;&gt;Node7 -->
<g id="edge67" class="edge">
<title>Node27&#45;&gt;Node7</title>
<path fill="none" stroke="#191970" d="M524.1884,-251.7681C530.6289,-241.5161 540.8883,-224.8328 549,-210 569.6952,-172.1575 559.1865,-150.9932 592,-123 630.3396,-90.2924 689.3072,-78.342 725.6693,-73.9859"/>
<polygon fill="#191970" stroke="#191970" points="726.1658,-77.4528 735.7351,-72.9053 725.4186,-70.4928 726.1658,-77.4528"/>
</g>
<!-- Node27&#45;&gt;Node11 -->
<g id="edge64" class="edge">
<title>Node27&#45;&gt;Node11</title>
<path fill="none" stroke="#191970" d="M471.4286,-255.6276C428.7205,-248.9049 364.6116,-235.3787 314,-210 286.1754,-196.0476 259.1499,-172.0524 242.5521,-155.7439"/>
<polygon fill="#191970" stroke="#191970" points="244.8164,-153.0572 235.2839,-148.4331 239.8522,-157.9925 244.8164,-153.0572"/>
</g>
<!-- Node27&#45;&gt;Node17 -->
<g id="edge68" class="edge">
<title>Node27&#45;&gt;Node17</title>
<path fill="none" stroke="#191970" d="M481.6428,-251.9335C460.5304,-244.3055 435.6687,-231.2782 423,-210 396.7892,-165.9765 449.9195,-113.4649 481.6369,-87.5701"/>
<polygon fill="#191970" stroke="#191970" points="483.8945,-90.2468 489.555,-81.2908 479.5449,-84.7621 483.8945,-90.2468"/>
</g>
<!-- Node27&#45;&gt;Node28 -->
<g id="edge35" class="edge">
<title>Node27&#45;&gt;Node28</title>
<path fill="none" stroke="#191970" d="M564.6839,-258.3657C717.0627,-248.135 1199.9679,-215.7129 1372.2166,-204.1481"/>
<polygon fill="#191970" stroke="#191970" points="1372.6355,-207.628 1382.3785,-203.4659 1372.1665,-200.6437 1372.6355,-207.628"/>
</g>
<!-- Node46 -->
<g id="node47" class="node">
<title>Node46</title>
<polygon fill="none" stroke="#bfbfbf" points="432,-190.5 432,-209.5 478,-209.5 478,-190.5 432,-190.5"/>
<text text-anchor="middle" x="455" y="-197.5" font-family="Helvetica,sans-Serif" font-size="10.00" fill="#000000">cstdio</text>
</g>
<!-- Node27&#45;&gt;Node46 -->
<g id="edge65" class="edge">
<title>Node27&#45;&gt;Node46</title>
<path fill="none" stroke="#191970" d="M508.1563,-251.8906C498.5961,-242.5581 483.8777,-228.1902 472.3505,-216.9374"/>
<polygon fill="#191970" stroke="#191970" points="474.5832,-214.2257 464.9825,-209.7449 469.6934,-219.2348 474.5832,-214.2257"/>
</g>
<!-- Node47 -->
<g id="node48" class="node">
<title>Node47</title>
<polygon fill="none" stroke="#bfbfbf" points="496,-190.5 496,-209.5 540,-209.5 540,-190.5 496,-190.5"/>
<text text-anchor="middle" x="518" y="-197.5" font-family="Helvetica,sans-Serif" font-size="10.00" fill="#000000">limits</text>
</g>
<!-- Node27&#45;&gt;Node47 -->
<g id="edge66" class="edge">
<title>Node27&#45;&gt;Node47</title>
<path fill="none" stroke="#191970" d="M518,-251.8906C518,-243.3657 518,-230.6392 518,-219.9235"/>
<polygon fill="#191970" stroke="#191970" points="521.5001,-219.7448 518,-209.7449 514.5001,-219.7449 521.5001,-219.7448"/>
</g>
<!-- Node28&#45;&gt;Node7 -->
<g id="edge60" class="edge">
<title>Node28&#45;&gt;Node7</title>
<path fill="none" stroke="#191970" d="M1382.1527,-197.7493C1248.8245,-191.6999 901.1141,-174.1752 853,-154 819.1323,-139.7986 788.7759,-108.6689 771.9256,-88.9702"/>
<polygon fill="#191970" stroke="#191970" points="774.4454,-86.526 765.3646,-81.0679 769.0597,-90.9976 774.4454,-86.526"/>
</g>
<!-- Node28&#45;&gt;Node11 -->
<g id="edge58" class="edge">
<title>Node28&#45;&gt;Node11</title>
<path fill="none" stroke="#191970" d="M1382.4876,-198.2095C1160.1536,-190.4522 292.7089,-159.8715 265,-154 261.9618,-153.3562 258.8541,-152.4971 255.7844,-151.5122"/>
<polygon fill="#191970" stroke="#191970" points="256.8333,-148.1696 246.2392,-148.0473 254.4448,-154.7495 256.8333,-148.1696"/>
</g>
<!-- Node28&#45;&gt;Node18 -->
<g id="edge63" class="edge">
<title>Node28&#45;&gt;Node18</title>
<path fill="none" stroke="#191970" d="M1390.5572,-190.4581C1341.2044,-179.6181 1260.6384,-161.9224 1207.468,-150.2439"/>
<polygon fill="#191970" stroke="#191970" points="1208.0628,-146.7911 1197.5447,-148.0643 1206.561,-153.6282 1208.0628,-146.7911"/>
</g>
<!-- Node29 -->
<g id="node30" class="node">
<title>Node29</title>
<g id="a_node30"><a xlink:href="Cache_8h.html" target="_top" xlink:title="Cache.h">
<polygon fill="none" stroke="#000000" points="1408,-129 1408,-148 1464,-148 1464,-129 1408,-129"/>
<text text-anchor="middle" x="1436" y="-136" font-family="Helvetica,sans-Serif" font-size="10.00" fill="#000000">Cache.h</text>
</a>
</g>
</g>
<!-- Node28&#45;&gt;Node29 -->
<g id="edge36" class="edge">
<title>Node28&#45;&gt;Node29</title>
<path fill="none" stroke="#191970" d="M1434.3125,-190.3906C1434.5897,-181.8657 1435.0036,-169.1392 1435.3521,-158.4235"/>
<polygon fill="#191970" stroke="#191970" points="1438.8561,-158.3534 1435.6831,-148.2449 1431.8598,-158.1258 1438.8561,-158.3534"/>
</g>
<!-- Node30 -->
<g id="node31" class="node">
<title>Node30</title>
<polygon fill="none" stroke="#bfbfbf" points="1184,-62 1184,-81 1232,-81 1232,-62 1184,-62"/>
<text text-anchor="middle" x="1208" y="-69" font-family="Helvetica,sans-Serif" font-size="10.00" fill="#000000">mutex</text>
</g>
<!-- Node28&#45;&gt;Node30 -->
<g id="edge59" class="edge">
<title>Node28&#45;&gt;Node30</title>
<path fill="none" stroke="#191970" d="M1389.2798,-190.4747C1348.5702,-181.2259 1292.0109,-166.7535 1273,-154 1248.3709,-137.4775 1228.7996,-108.6477 1217.8011,-89.8189"/>
<polygon fill="#191970" stroke="#191970" points="1220.7981,-88.0077 1212.8497,-81.0025 1214.6948,-91.4354 1220.7981,-88.0077"/>
</g>
<!-- Node28&#45;&gt;Node31 -->
<g id="edge62" class="edge">
<title>Node28&#45;&gt;Node31</title>
<path fill="none" stroke="#191970" d="M1445.74,-190.4549C1455.131,-182.0029 1467.5909,-168.7442 1473,-154 1477.7453,-141.0652 1478.2415,-135.7418 1473,-123 1467.2017,-108.9046 1455.4731,-96.6184 1444.7241,-87.5849"/>
<polygon fill="#191970" stroke="#191970" points="1446.8267,-84.7856 1436.8096,-81.3349 1442.4884,-90.2792 1446.8267,-84.7856"/>
</g>
<!-- Node33 -->
<g id="node34" class="node">
<title>Node33</title>
<g id="a_node34"><a xlink:href="SQLite_8h.html" target="_top" xlink:title="SQLite.h">
<polygon fill="none" stroke="#000000" points="1732.5,-129 1732.5,-148 1789.5,-148 1789.5,-129 1732.5,-129"/>
<text text-anchor="middle" x="1761" y="-136" font-family="Helvetica,sans-Serif" font-size="10.00" fill="#000000">SQLite.h</text>
</a>
</g>
</g>
<!-- Node28&#45;&gt;Node33 -->
<g id="edge40" class="edge">
<title>Node28&#45;&gt;Node33</title>
<path fill="none" stroke="#191970" d="M1484.735,-190.4581C1550.3963,-178.109 1663.3664,-156.8623 1722.4468,-145.7508"/>
<polygon fill="#191970" stroke="#191970" points="1723.3032,-149.1512 1732.4839,-143.8631 1722.0093,-142.2718 1723.3032,-149.1512"/>
</g>
<!-- Node28&#45;&gt;Node45 -->
<g id="edge61" class="edge">
<title>Node28&#45;&gt;Node45</title>
<path fill="none" stroke="#191970" d="M1450.7188,-190.3906C1468.0722,-180.4165 1495.4323,-164.6908 1515.4882,-153.1633"/>
<polygon fill="#191970" stroke="#191970" points="1517.4728,-156.0596 1524.3987,-148.0419 1513.9846,-149.9907 1517.4728,-156.0596"/>
</g>
<!-- Node29&#45;&gt;Node30 -->
<g id="edge37" class="edge">
<title>Node29&#45;&gt;Node30</title>
<path fill="none" stroke="#191970" d="M1414.1186,-128.8708C1408.8962,-126.7696 1403.2987,-124.676 1398,-123 1329.7444,-101.4104 1308.6734,-110.3507 1241,-87 1239.3545,-86.4322 1237.6818,-85.8076 1236.0066,-85.1448"/>
<polygon fill="#191970" stroke="#191970" points="1237.1267,-81.8161 1226.5587,-81.063 1234.3505,-88.2421 1237.1267,-81.8161"/>
</g>
<!-- Node29&#45;&gt;Node31 -->
<g id="edge38" class="edge">
<title>Node29&#45;&gt;Node31</title>
<path fill="none" stroke="#191970" d="M1433.9941,-128.9005C1431.9357,-119.0495 1428.6751,-103.4451 1426.0728,-90.9912"/>
<polygon fill="#191970" stroke="#191970" points="1429.4736,-90.1543 1424.0021,-81.0817 1422.6216,-91.5862 1429.4736,-90.1543"/>
</g>
<!-- Node32 -->
<g id="node33" class="node">
<title>Node32</title>
<polygon fill="none" stroke="#bfbfbf" points="1250.5,-62 1250.5,-81 1357.5,-81 1357.5,-62 1250.5,-62"/>
<text text-anchor="middle" x="1304" y="-69" font-family="Helvetica,sans-Serif" font-size="10.00" fill="#000000">boost/optional.hpp</text>
</g>
<!-- Node29&#45;&gt;Node32 -->
<g id="edge39" class="edge">
<title>Node29&#45;&gt;Node32</title>
<path fill="none" stroke="#191970" d="M1417.0876,-128.9005C1394.837,-117.6067 1357.6878,-98.7506 1332.0741,-85.7497"/>
<polygon fill="#191970" stroke="#191970" points="1333.3785,-82.4868 1322.8773,-81.0817 1330.2102,-88.7288 1333.3785,-82.4868"/>
</g>
<!-- Node33&#45;&gt;Node6 -->
<g id="edge44" class="edge">
<title>Node33&#45;&gt;Node6</title>
<path fill="none" stroke="#191970" d="M1732.2063,-132.8832C1691.5309,-124.6165 1615.1596,-107.8711 1552,-87 1549.9046,-86.3076 1547.761,-85.5491 1545.6133,-84.7515"/>
<polygon fill="#191970" stroke="#191970" points="1546.8945,-81.4945 1536.3075,-81.0879 1544.3303,-88.0079 1546.8945,-81.4945"/>
</g>
<!-- Node33&#45;&gt;Node7 -->
<g id="edge45" class="edge">
<title>Node33&#45;&gt;Node7</title>
<path fill="none" stroke="#191970" d="M1732.2231,-135.8607C1694.8576,-132.5035 1627.6026,-126.6987 1570,-123 1232.0954,-101.3029 1142.6527,-144.6726 809,-87 802.6567,-85.9035 795.9951,-84.2585 789.6565,-82.444"/>
<polygon fill="#191970" stroke="#191970" points="790.6402,-79.0849 780.0538,-79.5075 788.5932,-85.7789 790.6402,-79.0849"/>
</g>
<!-- Node33&#45;&gt;Node19 -->
<g id="edge41" class="edge">
<title>Node33&#45;&gt;Node19</title>
<path fill="none" stroke="#191970" d="M1789.8397,-132.8355C1805.295,-129.8367 1824.6708,-126.136 1842,-123 1935.6124,-106.0591 1961.2969,-112.3141 2053,-87 2055.6024,-86.2816 2058.2699,-85.4559 2060.9317,-84.5676"/>
<polygon fill="#191970" stroke="#191970" points="2062.1943,-87.8331 2070.4211,-81.157 2059.8267,-81.2457 2062.1943,-87.8331"/>
</g>
<!-- Node33&#45;&gt;Node24 -->
<g id="edge42" class="edge">
<title>Node33&#45;&gt;Node24</title>
<path fill="none" stroke="#191970" d="M1736.4999,-128.9005C1706.9133,-117.3082 1656.9926,-97.7486 1623.7695,-84.7313"/>
<polygon fill="#191970" stroke="#191970" points="1625.0424,-81.471 1614.4547,-81.0817 1622.4887,-87.9886 1625.0424,-81.471"/>
</g>
<!-- Node34 -->
<g id="node35" class="node">
<title>Node34</title>
<polygon fill="none" stroke="#bfbfbf" points="1856,-.5 1856,-19.5 1910,-19.5 1910,-.5 1856,-.5"/>
<text text-anchor="middle" x="1883" y="-7.5" font-family="Helvetica,sans-Serif" font-size="10.00" fill="#000000">random</text>
</g>
<!-- Node33&#45;&gt;Node34 -->
<g id="edge43" class="edge">
<title>Node33&#45;&gt;Node34</title>
<path fill="none" stroke="#191970" d="M1787.9496,-128.9191C1822.1565,-116.4902 1877.4242,-95.4059 1883,-87 1894.1534,-70.1854 1892.1547,-46.4312 1888.6356,-29.7659"/>
<polygon fill="#191970" stroke="#191970" points="1892.016,-28.8553 1886.2265,-19.9822 1885.2191,-30.529 1892.016,-28.8553"/>
</g>
<!-- Node35 -->
<g id="node36" class="node">
<title>Node35</title>
<polygon fill="none" stroke="#bfbfbf" points="1931,-62 1931,-81 1979,-81 1979,-62 1931,-62"/>
<text text-anchor="middle" x="1955" y="-69" font-family="Helvetica,sans-Serif" font-size="10.00" fill="#000000">thread</text>
</g>
<!-- Node33&#45;&gt;Node35 -->
<g id="edge46" class="edge">
<title>Node33&#45;&gt;Node35</title>
<path fill="none" stroke="#191970" d="M1786.8666,-128.9983C1792.5004,-126.9786 1798.4393,-124.8873 1804,-123 1853.913,-106.06 1867.4477,-104.9677 1917,-87 1918.8587,-86.326 1920.761,-85.616 1922.6756,-84.8857"/>
<polygon fill="#191970" stroke="#191970" points="1924.1802,-88.055 1932.2056,-81.1381 1921.6184,-81.5406 1924.1802,-88.055"/>
</g>
<!-- Node36 -->
<g id="node37" class="node">
<title>Node36</title>
<polygon fill="none" stroke="#bfbfbf" points="1700.5,-.5 1700.5,-19.5 1769.5,-19.5 1769.5,-.5 1700.5,-.5"/>
<text text-anchor="middle" x="1735" y="-7.5" font-family="Helvetica,sans-Serif" font-size="10.00" fill="#000000">type_traits</text>
</g>
<!-- Node33&#45;&gt;Node36 -->
<g id="edge47" class="edge">
<title>Node33&#45;&gt;Node36</title>
<path fill="none" stroke="#191970" d="M1736.9846,-128.8409C1711.5458,-118.0617 1673.9659,-100.3795 1666,-87 1658.9516,-75.1616 1659.4988,-68.1475 1666,-56 1673.4515,-42.0767 1687.1849,-31.6399 1700.449,-24.258"/>
<polygon fill="#191970" stroke="#191970" points="1702.1726,-27.3075 1709.4738,-19.6302 1698.9785,-21.0787 1702.1726,-27.3075"/>
</g>
<!-- Node37 -->
<g id="node38" class="node">
<title>Node37</title>
<polygon fill="none" stroke="#bfbfbf" points="1675,-56.5 1675,-86.5 1797,-86.5 1797,-56.5 1675,-56.5"/>
<text text-anchor="start" x="1683" y="-74.5" font-family="Helvetica,sans-Serif" font-size="10.00" fill="#000000">boost/iterator/iterator</text>
<text text-anchor="middle" x="1736" y="-63.5" font-family="Helvetica,sans-Serif" font-size="10.00" fill="#000000">_facade.hpp</text>
</g>
<!-- Node33&#45;&gt;Node37 -->
<g id="edge48" class="edge">
<title>Node33&#45;&gt;Node37</title>
<path fill="none" stroke="#191970" d="M1757.4181,-128.9005C1754.2227,-120.3368 1749.4049,-107.4252 1745.1475,-96.0152"/>
<polygon fill="#191970" stroke="#191970" points="1748.3803,-94.6672 1741.6051,-86.5218 1741.8219,-97.1144 1748.3803,-94.6672"/>
</g>
<!-- Node38 -->
<g id="node39" class="node">
<title>Node38</title>
<polygon fill="none" stroke="#bfbfbf" points="1815.5,-62 1815.5,-81 1874.5,-81 1874.5,-62 1815.5,-62"/>
<text text-anchor="middle" x="1845" y="-69" font-family="Helvetica,sans-Serif" font-size="10.00" fill="#000000">sqlite3.h</text>
</g>
<!-- Node33&#45;&gt;Node38 -->
<g id="edge49" class="edge">
<title>Node33&#45;&gt;Node38</title>
<path fill="none" stroke="#191970" d="M1773.0352,-128.9005C1786.6332,-118.0544 1808.9754,-100.2339 1825.1624,-87.3229"/>
<polygon fill="#191970" stroke="#191970" points="1827.3519,-90.0535 1832.9872,-81.0817 1822.9869,-84.5811 1827.3519,-90.0535"/>
</g>
<!-- Node33&#45;&gt;Node39 -->
<g id="edge50" class="edge">
<title>Node33&#45;&gt;Node39</title>
<path fill="none" stroke="#191970" d="M1789.7676,-135.6817C1865.2657,-128.0982 2067.6721,-106.512 2132,-87 2133.8608,-86.4356 2135.7481,-85.7754 2137.6273,-85.0515"/>
<polygon fill="#191970" stroke="#191970" points="2139.0297,-88.2584 2146.7948,-81.0504 2136.2296,-81.8428 2139.0297,-88.2584"/>
</g>
<!-- Node33&#45;&gt;Node40 -->
<g id="edge51" class="edge">
<title>Node33&#45;&gt;Node40</title>
<path fill="none" stroke="#191970" d="M1785.3502,-128.9925C1791.3871,-126.8385 1797.8809,-124.6908 1804,-123 1884.3185,-100.8067 1908.8018,-112.9085 1988,-87 1989.8499,-86.3948 1991.7315,-85.7114 1993.6106,-84.9773"/>
<polygon fill="#191970" stroke="#191970" points="1995.0236,-88.1796 2002.8252,-81.0113 1992.2562,-81.7498 1995.0236,-88.1796"/>
</g>
<!-- Node40&#45;&gt;Node34 -->
<g id="edge55" class="edge">
<title>Node40&#45;&gt;Node34</title>
<path fill="none" stroke="#191970" d="M2000.7945,-61.9073C1996.576,-59.9333 1992.15,-57.8833 1988,-56 1963.437,-44.8533 1935.4514,-32.6156 1914.5524,-23.5666"/>
<polygon fill="#191970" stroke="#191970" points="1915.7659,-20.2783 1905.1979,-19.5243 1912.9891,-26.704 1915.7659,-20.2783"/>
</g>
<!-- Node40&#45;&gt;Node36 -->
<g id="edge56" class="edge">
<title>Node40&#45;&gt;Node36</title>
<path fill="none" stroke="#191970" d="M2002.84,-61.943C1998.1062,-59.7392 1992.9437,-57.5808 1988,-56 1916.9891,-33.2937 1830.9641,-20.6369 1779.7302,-14.5807"/>
<polygon fill="#191970" stroke="#191970" points="1779.9872,-11.0873 1769.6528,-13.4218 1779.1875,-18.0414 1779.9872,-11.0873"/>
</g>
<!-- Node41 -->
<g id="node42" class="node">
<title>Node41</title>
<polygon fill="none" stroke="#bfbfbf" points="1928,-.5 1928,-19.5 1992,-19.5 1992,-.5 1928,-.5"/>
<text text-anchor="middle" x="1960" y="-7.5" font-family="Helvetica,sans-Serif" font-size="10.00" fill="#000000">algorithm</text>
</g>
<!-- Node40&#45;&gt;Node41 -->
<g id="edge52" class="edge">
<title>Node40&#45;&gt;Node41</title>
<path fill="none" stroke="#191970" d="M2011.4688,-61.8906C2002.2121,-52.5581 1987.961,-38.1902 1976.7997,-26.9374"/>
<polygon fill="#191970" stroke="#191970" points="1979.1928,-24.38 1969.6656,-19.7449 1974.2228,-29.3095 1979.1928,-24.38"/>
</g>
<!-- Node42 -->
<g id="node43" class="node">
<title>Node42</title>
<polygon fill="none" stroke="#bfbfbf" points="2010.5,-.5 2010.5,-19.5 2069.5,-19.5 2069.5,-.5 2010.5,-.5"/>
<text text-anchor="middle" x="2040" y="-7.5" font-family="Helvetica,sans-Serif" font-size="10.00" fill="#000000">complex</text>
</g>
<!-- Node40&#45;&gt;Node42 -->
<g id="edge53" class="edge">
<title>Node40&#45;&gt;Node42</title>
<path fill="none" stroke="#191970" d="M2023.9688,-61.8906C2026.6302,-53.276 2030.6171,-40.3708 2033.9491,-29.5858"/>
<polygon fill="#191970" stroke="#191970" points="2037.3816,-30.3324 2036.9894,-19.7449 2030.6935,-28.2661 2037.3816,-30.3324"/>
</g>
<!-- Node43 -->
<g id="node44" class="node">
<title>Node43</title>
<polygon fill="none" stroke="#bfbfbf" points="2087.5,-.5 2087.5,-19.5 2152.5,-19.5 2152.5,-.5 2087.5,-.5"/>
<text text-anchor="middle" x="2120" y="-7.5" font-family="Helvetica,sans-Serif" font-size="10.00" fill="#000000">functional</text>
</g>
<!-- Node40&#45;&gt;Node43 -->
<g id="edge54" class="edge">
<title>Node40&#45;&gt;Node43</title>
<path fill="none" stroke="#191970" d="M2036.4688,-61.8906C2052.4521,-51.9616 2077.6103,-36.333 2096.1433,-24.8201"/>
<polygon fill="#191970" stroke="#191970" points="2097.9924,-27.7918 2104.6399,-19.5419 2094.2985,-21.8457 2097.9924,-27.7918"/>
</g>
<!-- Node44 -->
<g id="node45" class="node">
<title>Node44</title>
<polygon fill="none" stroke="#bfbfbf" points="2171,-.5 2171,-19.5 2227,-19.5 2227,-.5 2171,-.5"/>
<text text-anchor="middle" x="2199" y="-7.5" font-family="Helvetica,sans-Serif" font-size="10.00" fill="#000000">unistd.h</text>
</g>
<!-- Node40&#45;&gt;Node44 -->
<g id="edge57" class="edge">
<title>Node40&#45;&gt;Node44</title>
<path fill="none" stroke="#191970" d="M2040.3578,-61.8882C2044.7923,-59.8322 2049.5205,-57.7537 2054,-56 2089.638,-42.0478 2131.392,-29.1514 2160.9181,-20.5863"/>
<polygon fill="#191970" stroke="#191970" points="2162.176,-23.8666 2170.8218,-17.7427 2160.2442,-17.1384 2162.176,-23.8666"/>
</g>
</g>
</svg>
