<?xml version="1.0" encoding="UTF-8" standalone="no"?>
<!DOCTYPE svg PUBLIC "-//W3C//DTD SVG 1.1//EN"
 "http://www.w3.org/Graphics/SVG/1.1/DTD/svg11.dtd">
<!-- Generated by graphviz version 2.40.1 (20161225.0304)
 -->
<!-- Title: /travis/pairinteraction/StateOld.h Pages: 1 -->
<svg width="1278pt" height="519pt"
 viewBox="0.00 0.00 1277.66 519.00" xmlns="http://www.w3.org/2000/svg" xmlns:xlink="http://www.w3.org/1999/xlink">
<g id="graph0" class="graph" transform="scale(1 1) rotate(0) translate(4 515)">
<title>/travis/pairinteraction/StateOld.h</title>
<!-- Node14 -->
<g id="node1" class="node">
<title>Node14</title>
<polygon fill="#bfbfbf" stroke="#000000" points="372,-480.5 372,-510.5 494,-510.5 494,-480.5 372,-480.5"/>
<text text-anchor="start" x="380" y="-498.5" font-family="Helvetica,sans-Serif" font-size="10.00" fill="#000000">/travis/pairinteraction</text>
<text text-anchor="middle" x="433" y="-487.5" font-family="Helvetica,sans-Serif" font-size="10.00" fill="#000000">/StateOld.h</text>
</g>
<!-- Node15 -->
<g id="node2" class="node">
<title>Node15</title>
<g id="a_node2"><a xlink:href="Basisnames_8h.html" target="_top" xlink:title="/travis/pairinteraction\l/Basisnames.h">
<polygon fill="none" stroke="#000000" points="417,-413.5 417,-443.5 539,-443.5 539,-413.5 417,-413.5"/>
<text text-anchor="start" x="425" y="-431.5" font-family="Helvetica,sans-Serif" font-size="10.00" fill="#000000">/travis/pairinteraction</text>
<text text-anchor="middle" x="478" y="-420.5" font-family="Helvetica,sans-Serif" font-size="10.00" fill="#000000">/Basisnames.h</text>
</a>
</g>
</g>
<!-- Node14&#45;&gt;Node15 -->
<g id="edge1" class="edge">
<title>Node14&#45;&gt;Node15</title>
<path fill="none" stroke="#191970" d="M448.9357,-471.7735C455.221,-462.4154 462.2553,-451.9421 467.8292,-443.6432"/>
<polygon fill="#191970" stroke="#191970" points="445.8813,-470.0438 443.2112,-480.2967 451.6923,-473.9467 445.8813,-470.0438"/>
</g>
<!-- Node17 -->
<g id="node4" class="node">
<title>Node17</title>
<g id="a_node4"><a xlink:href="Hamiltonianmatrix_8h.html" target="_top" xlink:title="/travis/pairinteraction\l/Hamiltonianmatrix.h">
<polygon fill="none" stroke="#000000" points="169,-346.5 169,-376.5 291,-376.5 291,-346.5 169,-346.5"/>
<text text-anchor="start" x="177" y="-364.5" font-family="Helvetica,sans-Serif" font-size="10.00" fill="#000000">/travis/pairinteraction</text>
<text text-anchor="middle" x="230" y="-353.5" font-family="Helvetica,sans-Serif" font-size="10.00" fill="#000000">/Hamiltonianmatrix.h</text>
</a>
</g>
</g>
<!-- Node14&#45;&gt;Node17 -->
<g id="edge41" class="edge">
<title>Node14&#45;&gt;Node17</title>
<path fill="none" stroke="#191970" d="M401.5548,-474.7431C360.3795,-447.5633 289.1742,-400.5608 252.8084,-376.5558"/>
<polygon fill="#191970" stroke="#191970" points="399.834,-477.8009 410.1079,-480.389 403.6904,-471.9589 399.834,-477.8009"/>
</g>
<!-- Node25 -->
<g id="node12" class="node">
<title>Node25</title>
<g id="a_node12"><a xlink:href="MatrixElements_8h.html" target="_top" xlink:title="/travis/pairinteraction\l/MatrixElements.h">
<polygon fill="none" stroke="#000000" points="328,-346.5 328,-376.5 450,-376.5 450,-346.5 328,-346.5"/>
<text text-anchor="start" x="336" y="-364.5" font-family="Helvetica,sans-Serif" font-size="10.00" fill="#000000">/travis/pairinteraction</text>
<text text-anchor="middle" x="389" y="-353.5" font-family="Helvetica,sans-Serif" font-size="10.00" fill="#000000">/MatrixElements.h</text>
</a>
</g>
</g>
<!-- Node14&#45;&gt;Node25 -->
<g id="edge42" class="edge">
<title>Node14&#45;&gt;Node25</title>
<path fill="none" stroke="#191970" d="M419.8059,-471.1932C415.6056,-462.7583 411.2191,-453.1252 408,-444 399.9321,-421.1299 394.3712,-393.4686 391.4372,-376.693"/>
<polygon fill="#191970" stroke="#191970" points="416.7096,-472.8256 424.397,-480.1164 422.9341,-469.623 416.7096,-472.8256"/>
</g>
<!-- Node40 -->
<g id="node27" class="node">
<title>Node40</title>
<g id="a_node27"><a xlink:href="StateOld_8cpp.html" target="_top" xlink:title="/travis/pairinteraction\l/StateOld.cpp">
<polygon fill="none" stroke="#000000" points="557,-413.5 557,-443.5 679,-443.5 679,-413.5 557,-413.5"/>
<text text-anchor="start" x="565" y="-431.5" font-family="Helvetica,sans-Serif" font-size="10.00" fill="#000000">/travis/pairinteraction</text>
<text text-anchor="middle" x="618" y="-420.5" font-family="Helvetica,sans-Serif" font-size="10.00" fill="#000000">/StateOld.cpp</text>
</a>
</g>
</g>
<!-- Node14&#45;&gt;Node40 -->
<g id="edge43" class="edge">
<title>Node14&#45;&gt;Node40</title>
<path fill="none" stroke="#191970" d="M484.0759,-477.0023C513.1015,-466.4903 548.9854,-453.4945 576.3013,-443.6017"/>
<polygon fill="#191970" stroke="#191970" points="482.7282,-473.7678 474.5176,-480.4639 485.1118,-480.3495 482.7282,-473.7678"/>
</g>
<!-- Node16 -->
<g id="node3" class="node">
<title>Node16</title>
<g id="a_node3"><a xlink:href="Basisnames_8cpp.html" target="_top" xlink:title="/travis/pairinteraction\l/Basisnames.cpp">
<polygon fill="none" stroke="#000000" points="582,-346.5 582,-376.5 704,-376.5 704,-346.5 582,-346.5"/>
<text text-anchor="start" x="590" y="-364.5" font-family="Helvetica,sans-Serif" font-size="10.00" fill="#000000">/travis/pairinteraction</text>
<text text-anchor="middle" x="643" y="-353.5" font-family="Helvetica,sans-Serif" font-size="10.00" fill="#000000">/Basisnames.cpp</text>
</a>
</g>
</g>
<!-- Node15&#45;&gt;Node16 -->
<g id="edge2" class="edge">
<title>Node15&#45;&gt;Node16</title>
<path fill="none" stroke="#191970" d="M524.5702,-409.5897C550.2755,-399.1518 581.7642,-386.3654 605.8093,-376.6017"/>
<polygon fill="#191970" stroke="#191970" points="522.9777,-406.4587 515.0292,-413.4639 525.6113,-412.9444 522.9777,-406.4587"/>
</g>
<!-- Node15&#45;&gt;Node17 -->
<g id="edge3" class="edge">
<title>Node15&#45;&gt;Node17</title>
<path fill="none" stroke="#191970" d="M412.5567,-410.8198C373.1383,-400.1704 323.4721,-386.7525 285.8988,-376.6017"/>
<polygon fill="#191970" stroke="#191970" points="411.7772,-414.2346 422.344,-413.4639 413.6029,-407.4768 411.7772,-414.2346"/>
</g>
<!-- Node19 -->
<g id="node6" class="node">
<title>Node19</title>
<g id="a_node6"><a xlink:href="HamiltonianOne_8h.html" target="_top" xlink:title="/travis/pairinteraction\l/HamiltonianOne.h">
<polygon fill="none" stroke="#000000" points="481,-212.5 481,-242.5 603,-242.5 603,-212.5 481,-212.5"/>
<text text-anchor="start" x="489" y="-230.5" font-family="Helvetica,sans-Serif" font-size="10.00" fill="#000000">/travis/pairinteraction</text>
<text text-anchor="middle" x="542" y="-219.5" font-family="Helvetica,sans-Serif" font-size="10.00" fill="#000000">/HamiltonianOne.h</text>
</a>
</g>
</g>
<!-- Node15&#45;&gt;Node19 -->
<g id="edge13" class="edge">
<title>Node15&#45;&gt;Node19</title>
<path fill="none" stroke="#191970" d="M485.9229,-403.6171C499.3766,-361.364 526.2909,-276.8364 537.2211,-242.5088"/>
<polygon fill="#191970" stroke="#191970" points="482.5094,-402.8018 482.8104,-413.3923 489.1795,-404.9256 482.5094,-402.8018"/>
</g>
<!-- Node21 -->
<g id="node8" class="node">
<title>Node21</title>
<g id="a_node8"><a xlink:href="HamiltonianTwo_8h.html" target="_top" xlink:title="/travis/pairinteraction\l/HamiltonianTwo.h">
<polygon fill="none" stroke="#000000" points="277,-145.5 277,-175.5 399,-175.5 399,-145.5 277,-145.5"/>
<text text-anchor="start" x="285" y="-163.5" font-family="Helvetica,sans-Serif" font-size="10.00" fill="#000000">/travis/pairinteraction</text>
<text text-anchor="middle" x="338" y="-152.5" font-family="Helvetica,sans-Serif" font-size="10.00" fill="#000000">/HamiltonianTwo.h</text>
</a>
</g>
</g>
<!-- Node15&#45;&gt;Node21 -->
<g id="edge18" class="edge">
<title>Node15&#45;&gt;Node21</title>
<path fill="none" stroke="#191970" d="M479.7065,-402.7663C480.678,-371.7569 478.8035,-318.8582 459,-279 436.4972,-233.7091 389.6112,-195.785 361.265,-175.7737"/>
<polygon fill="#191970" stroke="#191970" points="476.1933,-402.9908 479.2478,-413.1357 483.1864,-403.3002 476.1933,-402.9908"/>
</g>
<!-- Node15&#45;&gt;Node25 -->
<g id="edge14" class="edge">
<title>Node15&#45;&gt;Node25</title>
<path fill="none" stroke="#191970" d="M449.5257,-407.0643C436.3662,-397.1577 421.0487,-385.6265 409.1156,-376.6432"/>
<polygon fill="#191970" stroke="#191970" points="447.7103,-410.0785 457.8045,-413.2967 451.9203,-404.486 447.7103,-410.0785"/>
</g>
<!-- Node27 -->
<g id="node14" class="node">
<title>Node27</title>
<g id="a_node14"><a xlink:href="MatrixElementCache_8h.html" target="_top" xlink:title="/travis/pairinteraction\l/MatrixElementCache.h">
<polygon fill="none" stroke="#000000" points="736,-346.5 736,-376.5 866,-376.5 866,-346.5 736,-346.5"/>
<text text-anchor="start" x="744" y="-364.5" font-family="Helvetica,sans-Serif" font-size="10.00" fill="#000000">/travis/pairinteraction</text>
<text text-anchor="middle" x="801" y="-353.5" font-family="Helvetica,sans-Serif" font-size="10.00" fill="#000000">/MatrixElementCache.h</text>
</a>
</g>
</g>
<!-- Node15&#45;&gt;Node27 -->
<g id="edge19" class="edge">
<title>Node15&#45;&gt;Node27</title>
<path fill="none" stroke="#191970" d="M548.8706,-412.8329C618.3102,-398.126 687.0977,-384.2022 735.9385,-374.4257"/>
<polygon fill="#191970" stroke="#191970" points="548.1255,-409.4129 539.07,-414.9129 549.5788,-416.2604 548.1255,-409.4129"/>
</g>
<!-- Node18 -->
<g id="node5" class="node">
<title>Node18</title>
<g id="a_node5"><a xlink:href="Hamiltonian_8h.html" target="_top" xlink:title="/travis/pairinteraction\l/Hamiltonian.h">
<polygon fill="none" stroke="#000000" points="150,-279.5 150,-309.5 272,-309.5 272,-279.5 150,-279.5"/>
<text text-anchor="start" x="158" y="-297.5" font-family="Helvetica,sans-Serif" font-size="10.00" fill="#000000">/travis/pairinteraction</text>
<text text-anchor="middle" x="211" y="-286.5" font-family="Helvetica,sans-Serif" font-size="10.00" fill="#000000">/Hamiltonian.h</text>
</a>
</g>
</g>
<!-- Node17&#45;&gt;Node18 -->
<g id="edge4" class="edge">
<title>Node17&#45;&gt;Node18</title>
<path fill="none" stroke="#191970" d="M222.9417,-336.6103C220.3739,-327.5553 217.5507,-317.5998 215.2943,-309.6432"/>
<polygon fill="#191970" stroke="#191970" points="219.5931,-337.6309 225.6886,-346.2967 226.3275,-335.7211 219.5931,-337.6309"/>
</g>
<!-- Node24 -->
<g id="node11" class="node">
<title>Node24</title>
<g id="a_node11"><a xlink:href="Hamiltonianmatrix_8cpp.html" target="_top" xlink:title="/travis/pairinteraction\l/Hamiltonianmatrix.cpp">
<polygon fill="none" stroke="#000000" points="0,-279.5 0,-309.5 132,-309.5 132,-279.5 0,-279.5"/>
<text text-anchor="start" x="8" y="-297.5" font-family="Helvetica,sans-Serif" font-size="10.00" fill="#000000">/travis/pairinteraction</text>
<text text-anchor="middle" x="66" y="-286.5" font-family="Helvetica,sans-Serif" font-size="10.00" fill="#000000">/Hamiltonianmatrix.cpp</text>
</a>
</g>
</g>
<!-- Node17&#45;&gt;Node24 -->
<g id="edge12" class="edge">
<title>Node17&#45;&gt;Node24</title>
<path fill="none" stroke="#191970" d="M183.712,-342.5897C158.1626,-332.1518 126.8646,-319.3654 102.9653,-309.6017"/>
<polygon fill="#191970" stroke="#191970" points="182.6142,-345.9219 193.1952,-346.4639 185.2616,-339.4419 182.6142,-345.9219"/>
</g>
<!-- Node18&#45;&gt;Node19 -->
<g id="edge5" class="edge">
<title>Node18&#45;&gt;Node19</title>
<path fill="none" stroke="#191970" d="M282.1202,-280.1041C341.3353,-268.1179 424.7635,-251.2307 480.9803,-239.8514"/>
<polygon fill="#191970" stroke="#191970" points="281.2031,-276.7186 272.0962,-282.1331 282.5919,-283.5795 281.2031,-276.7186"/>
</g>
<!-- Node18&#45;&gt;Node21 -->
<g id="edge11" class="edge">
<title>Node18&#45;&gt;Node21</title>
<path fill="none" stroke="#191970" d="M231.1234,-271.7259C246.0479,-254.9933 267.011,-231.8187 286,-212 297.9549,-199.5227 311.8835,-185.7679 322.3148,-175.6143"/>
<polygon fill="#191970" stroke="#191970" points="228.3469,-269.5812 224.317,-279.3797 233.5777,-274.2329 228.3469,-269.5812"/>
</g>
<!-- Node20 -->
<g id="node7" class="node">
<title>Node20</title>
<g id="a_node7"><a xlink:href="HamiltonianOne_8cpp.html" target="_top" xlink:title="/travis/pairinteraction\l/HamiltonianOne.cpp">
<polygon fill="none" stroke="#000000" points="481,-145.5 481,-175.5 603,-175.5 603,-145.5 481,-145.5"/>
<text text-anchor="start" x="489" y="-163.5" font-family="Helvetica,sans-Serif" font-size="10.00" fill="#000000">/travis/pairinteraction</text>
<text text-anchor="middle" x="542" y="-152.5" font-family="Helvetica,sans-Serif" font-size="10.00" fill="#000000">/HamiltonianOne.cpp</text>
</a>
</g>
</g>
<!-- Node19&#45;&gt;Node20 -->
<g id="edge6" class="edge">
<title>Node19&#45;&gt;Node20</title>
<path fill="none" stroke="#191970" d="M542,-202.0249C542,-193.128 542,-183.4287 542,-175.6432"/>
<polygon fill="#191970" stroke="#191970" points="538.5001,-202.2966 542,-212.2967 545.5001,-202.2967 538.5001,-202.2966"/>
</g>
<!-- Node19&#45;&gt;Node21 -->
<g id="edge7" class="edge">
<title>Node19&#45;&gt;Node21</title>
<path fill="none" stroke="#191970" d="M486.5117,-209.2759C454.3608,-198.7165 414.3645,-185.5805 383.9813,-175.6017"/>
<polygon fill="#191970" stroke="#191970" points="485.6256,-212.6687 496.2184,-212.4639 487.8098,-206.0182 485.6256,-212.6687"/>
</g>
<!-- Node23 -->
<g id="node10" class="node">
<title>Node23</title>
<g id="a_node10"><a xlink:href="Interface_8cpp.html" target="_top" xlink:title="/travis/pairinteraction\l/Interface.cpp">
<polygon fill="none" stroke="#000000" points="392,-78.5 392,-108.5 514,-108.5 514,-78.5 392,-78.5"/>
<text text-anchor="start" x="400" y="-96.5" font-family="Helvetica,sans-Serif" font-size="10.00" fill="#000000">/travis/pairinteraction</text>
<text text-anchor="middle" x="453" y="-85.5" font-family="Helvetica,sans-Serif" font-size="10.00" fill="#000000">/Interface.cpp</text>
</a>
</g>
</g>
<!-- Node19&#45;&gt;Node23 -->
<g id="edge10" class="edge">
<title>Node19&#45;&gt;Node23</title>
<path fill="none" stroke="#191970" d="M503.9696,-206.8243C492.1251,-198.6642 480.0681,-188.2763 472,-176 458.4385,-155.3651 454.4938,-126.2837 453.3844,-108.7286"/>
<polygon fill="#191970" stroke="#191970" points="502.2048,-209.8515 512.4966,-212.3675 506.0201,-203.9826 502.2048,-209.8515"/>
</g>
<!-- Node22 -->
<g id="node9" class="node">
<title>Node22</title>
<g id="a_node9"><a xlink:href="HamiltonianTwo_8cpp.html" target="_top" xlink:title="/travis/pairinteraction\l/HamiltonianTwo.cpp">
<polygon fill="none" stroke="#000000" points="252,-78.5 252,-108.5 374,-108.5 374,-78.5 252,-78.5"/>
<text text-anchor="start" x="260" y="-96.5" font-family="Helvetica,sans-Serif" font-size="10.00" fill="#000000">/travis/pairinteraction</text>
<text text-anchor="middle" x="313" y="-85.5" font-family="Helvetica,sans-Serif" font-size="10.00" fill="#000000">/HamiltonianTwo.cpp</text>
</a>
</g>
</g>
<!-- Node21&#45;&gt;Node22 -->
<g id="edge8" class="edge">
<title>Node21&#45;&gt;Node22</title>
<path fill="none" stroke="#191970" d="M328.8217,-135.9021C325.414,-126.7696 321.6513,-116.6854 318.6504,-108.6432"/>
<polygon fill="#191970" stroke="#191970" points="325.552,-137.1512 332.3271,-145.2967 332.1103,-134.704 325.552,-137.1512"/>
</g>
<!-- Node21&#45;&gt;Node23 -->
<g id="edge9" class="edge">
<title>Node21&#45;&gt;Node23</title>
<path fill="none" stroke="#191970" d="M372.5753,-140.3561C390.0083,-130.1995 410.8031,-118.0843 426.88,-108.7177"/>
<polygon fill="#191970" stroke="#191970" points="370.6868,-137.4056 363.8082,-145.4639 374.2107,-143.454 370.6868,-137.4056"/>
</g>
<!-- Node25&#45;&gt;Node19 -->
<g id="edge15" class="edge">
<title>Node25&#45;&gt;Node19</title>
<path fill="none" stroke="#191970" d="M419.7067,-340.4087C432.2166,-331.4355 446.6181,-320.6068 459,-310 484.6134,-288.0585 511.9085,-259.8835 527.9347,-242.7849"/>
<polygon fill="#191970" stroke="#191970" points="417.5309,-337.6608 411.3963,-346.299 421.5788,-343.3718 417.5309,-337.6608"/>
</g>
<!-- Node25&#45;&gt;Node21 -->
<g id="edge16" class="edge">
<title>Node25&#45;&gt;Node21</title>
<path fill="none" stroke="#191970" d="M348.1269,-340.9732C336.5741,-332.9934 325.4109,-322.6756 319,-310 296.4461,-265.4065 318.1233,-204.1348 330.5853,-175.8952"/>
<polygon fill="#191970" stroke="#191970" points="346.2383,-343.9198 356.5457,-346.3708 350.0164,-338.027 346.2383,-343.9198"/>
</g>
<!-- Node26 -->
<g id="node13" class="node">
<title>Node26</title>
<g id="a_node13"><a xlink:href="MatrixElements_8cpp.html" target="_top" xlink:title="/travis/pairinteraction\l/MatrixElements.cpp">
<polygon fill="none" stroke="#000000" points="328,-279.5 328,-309.5 450,-309.5 450,-279.5 328,-279.5"/>
<text text-anchor="start" x="336" y="-297.5" font-family="Helvetica,sans-Serif" font-size="10.00" fill="#000000">/travis/pairinteraction</text>
<text text-anchor="middle" x="389" y="-286.5" font-family="Helvetica,sans-Serif" font-size="10.00" fill="#000000">/MatrixElements.cpp</text>
</a>
</g>
</g>
<!-- Node25&#45;&gt;Node26 -->
<g id="edge17" class="edge">
<title>Node25&#45;&gt;Node26</title>
<path fill="none" stroke="#191970" d="M389,-336.0249C389,-327.128 389,-317.4287 389,-309.6432"/>
<polygon fill="#191970" stroke="#191970" points="385.5001,-336.2966 389,-346.2967 392.5001,-336.2967 385.5001,-336.2966"/>
</g>
<!-- Node28 -->
<g id="node15" class="node">
<title>Node28</title>
<g id="a_node15"><a xlink:href="MatrixElementCache_8cpp.html" target="_top" xlink:title="/travis/pairinteraction\l/MatrixElementCache.cpp">
<polygon fill="none" stroke="#000000" points="593.5,-279.5 593.5,-309.5 734.5,-309.5 734.5,-279.5 593.5,-279.5"/>
<text text-anchor="start" x="601.5" y="-297.5" font-family="Helvetica,sans-Serif" font-size="10.00" fill="#000000">/travis/pairinteraction</text>
<text text-anchor="middle" x="664" y="-286.5" font-family="Helvetica,sans-Serif" font-size="10.00" fill="#000000">/MatrixElementCache.cpp</text>
</a>
</g>
</g>
<!-- Node27&#45;&gt;Node28 -->
<g id="edge20" class="edge">
<title>Node27&#45;&gt;Node28</title>
<path fill="none" stroke="#191970" d="M761.2328,-342.0518C740.1816,-331.7567 714.7086,-319.2991 695.1169,-309.7177"/>
<polygon fill="#191970" stroke="#191970" points="759.7336,-345.2147 770.2545,-346.4639 762.8089,-338.9264 759.7336,-345.2147"/>
</g>
<!-- Node29 -->
<g id="node16" class="node">
<title>Node29</title>
<g id="a_node16"><a xlink:href="State_8h.html" target="_top" xlink:title="/travis/pairinteraction\l/State.h">
<polygon fill="none" stroke="#000000" points="874,-279.5 874,-309.5 996,-309.5 996,-279.5 874,-279.5"/>
<text text-anchor="start" x="882" y="-297.5" font-family="Helvetica,sans-Serif" font-size="10.00" fill="#000000">/travis/pairinteraction</text>
<text text-anchor="middle" x="935" y="-286.5" font-family="Helvetica,sans-Serif" font-size="10.00" fill="#000000">/State.h</text>
</a>
</g>
</g>
<!-- Node27&#45;&gt;Node29 -->
<g id="edge21" class="edge">
<title>Node27&#45;&gt;Node29</title>
<path fill="none" stroke="#191970" d="M834.2365,-341.7743C853.8768,-331.5335 878.6682,-319.2132 898.802,-309.7177"/>
<polygon fill="#191970" stroke="#191970" points="832.5488,-338.7073 825.3317,-346.4639 835.8106,-344.901 832.5488,-338.7073"/>
</g>
<!-- Node30 -->
<g id="node17" class="node">
<title>Node30</title>
<g id="a_node17"><a xlink:href="PerturbativeInteraction_8h.html" target="_top" xlink:title="/travis/pairinteraction\l/PerturbativeInteraction.h">
<polygon fill="none" stroke="#000000" points="631.5,-212.5 631.5,-242.5 772.5,-242.5 772.5,-212.5 631.5,-212.5"/>
<text text-anchor="start" x="639.5" y="-230.5" font-family="Helvetica,sans-Serif" font-size="10.00" fill="#000000">/travis/pairinteraction</text>
<text text-anchor="middle" x="702" y="-219.5" font-family="Helvetica,sans-Serif" font-size="10.00" fill="#000000">/PerturbativeInteraction.h</text>
</a>
</g>
</g>
<!-- Node27&#45;&gt;Node30 -->
<g id="edge38" class="edge">
<title>Node27&#45;&gt;Node30</title>
<path fill="none" stroke="#191970" d="M784.9216,-337.8414C773.4795,-321.2021 757.6066,-298.5136 743,-279 733.6861,-266.5572 722.6969,-252.8002 714.4411,-242.637"/>
<polygon fill="#191970" stroke="#191970" points="782.248,-340.1317 790.7863,-346.4045 788.0234,-336.1763 782.248,-340.1317"/>
</g>
<!-- Node33 -->
<g id="node20" class="node">
<title>Node33</title>
<g id="a_node20"><a xlink:href="SystemBase_8h.html" target="_top" xlink:title="/travis/pairinteraction\l/SystemBase.h">
<polygon fill="none" stroke="#000000" points="1134,-212.5 1134,-242.5 1256,-242.5 1256,-212.5 1134,-212.5"/>
<text text-anchor="start" x="1142" y="-230.5" font-family="Helvetica,sans-Serif" font-size="10.00" fill="#000000">/travis/pairinteraction</text>
<text text-anchor="middle" x="1195" y="-219.5" font-family="Helvetica,sans-Serif" font-size="10.00" fill="#000000">/SystemBase.h</text>
</a>
</g>
</g>
<!-- Node27&#45;&gt;Node33 -->
<g id="edge39" class="edge">
<title>Node27&#45;&gt;Node33</title>
<path fill="none" stroke="#191970" d="M876.2909,-345.5732C915.166,-336.578 963.1048,-324.2783 1005,-310 1062.696,-290.3366 1127.2838,-260.5447 1164.3438,-242.657"/>
<polygon fill="#191970" stroke="#191970" points="875.0649,-342.2632 866.097,-347.9046 876.6256,-349.087 875.0649,-342.2632"/>
</g>
<!-- Node39 -->
<g id="node26" class="node">
<title>Node39</title>
<g id="a_node26"><a xlink:href="integration__test_8cpp.html" target="_top" xlink:title="/travis/pairinteraction\l/unit_test/integration\l_test.cpp">
<polygon fill="none" stroke="#000000" points="886,-.5 886,-41.5 1008,-41.5 1008,-.5 886,-.5"/>
<text text-anchor="start" x="894" y="-29.5" font-family="Helvetica,sans-Serif" font-size="10.00" fill="#000000">/travis/pairinteraction</text>
<text text-anchor="start" x="894" y="-18.5" font-family="Helvetica,sans-Serif" font-size="10.00" fill="#000000">/unit_test/integration</text>
<text text-anchor="middle" x="947" y="-7.5" font-family="Helvetica,sans-Serif" font-size="10.00" fill="#000000">_test.cpp</text>
</a>
</g>
</g>
<!-- Node27&#45;&gt;Node39 -->
<g id="edge40" class="edge">
<title>Node27&#45;&gt;Node39</title>
<path fill="none" stroke="#191970" d="M801,-336.1092C801,-309.1594 801,-265.3265 801,-227.5 801,-227.5 801,-227.5 801,-160.5 801,-104.5833 857.6754,-64.1919 900.4033,-41.686"/>
<polygon fill="#191970" stroke="#191970" points="797.5001,-336.227 801,-346.2271 804.5001,-336.2271 797.5001,-336.227"/>
</g>
<!-- Node29&#45;&gt;Node27 -->
<g id="edge22" class="edge">
<title>Node29&#45;&gt;Node27</title>
<path fill="none" stroke="#191970" d="M901.3865,-314.4222C881.6808,-324.6894 856.8866,-337.0047 836.8127,-346.4639"/>
<polygon fill="#191970" stroke="#191970" points="903.1073,-317.4718 910.3271,-309.7177 899.8476,-311.277 903.1073,-317.4718"/>
</g>
<!-- Node29&#45;&gt;Node30 -->
<g id="edge23" class="edge">
<title>Node29&#45;&gt;Node30</title>
<path fill="none" stroke="#191970" d="M873.0437,-276.6842C836.0855,-266.0568 789.6689,-252.7095 754.5178,-242.6017"/>
<polygon fill="#191970" stroke="#191970" points="872.1324,-280.064 882.7103,-279.4639 874.067,-273.3366 872.1324,-280.064"/>
</g>
<!-- Node32 -->
<g id="node19" class="node">
<title>Node32</title>
<g id="a_node19"><a xlink:href="State_8cpp.html" target="_top" xlink:title="/travis/pairinteraction\l/State.cpp">
<polygon fill="none" stroke="#000000" points="829,-212.5 829,-242.5 951,-242.5 951,-212.5 829,-212.5"/>
<text text-anchor="start" x="837" y="-230.5" font-family="Helvetica,sans-Serif" font-size="10.00" fill="#000000">/travis/pairinteraction</text>
<text text-anchor="middle" x="890" y="-219.5" font-family="Helvetica,sans-Serif" font-size="10.00" fill="#000000">/State.cpp</text>
</a>
</g>
</g>
<!-- Node29&#45;&gt;Node32 -->
<g id="edge25" class="edge">
<title>Node29&#45;&gt;Node32</title>
<path fill="none" stroke="#191970" d="M919.0643,-270.7735C912.779,-261.4154 905.7447,-250.9421 900.1708,-242.6432"/>
<polygon fill="#191970" stroke="#191970" points="916.3077,-272.9467 924.7888,-279.2967 922.1187,-269.0438 916.3077,-272.9467"/>
</g>
<!-- Node29&#45;&gt;Node33 -->
<g id="edge26" class="edge">
<title>Node29&#45;&gt;Node33</title>
<path fill="none" stroke="#191970" d="M1003.0851,-276.955C1044.4942,-266.2842 1096.8382,-252.7955 1136.3964,-242.6017"/>
<polygon fill="#191970" stroke="#191970" points="1002.1593,-273.5791 993.3491,-279.4639 1003.9061,-280.3577 1002.1593,-273.5791"/>
</g>
<!-- Node35 -->
<g id="node22" class="node">
<title>Node35</title>
<g id="a_node22"><a xlink:href="SystemOne_8h.html" target="_top" xlink:title="/travis/pairinteraction\l/SystemOne.h">
<polygon fill="none" stroke="#000000" points="956,-145.5 956,-175.5 1078,-175.5 1078,-145.5 956,-145.5"/>
<text text-anchor="start" x="964" y="-163.5" font-family="Helvetica,sans-Serif" font-size="10.00" fill="#000000">/travis/pairinteraction</text>
<text text-anchor="middle" x="1017" y="-152.5" font-family="Helvetica,sans-Serif" font-size="10.00" fill="#000000">/SystemOne.h</text>
</a>
</g>
</g>
<!-- Node29&#45;&gt;Node35 -->
<g id="edge35" class="edge">
<title>Node29&#45;&gt;Node35</title>
<path fill="none" stroke="#191970" d="M965.2824,-273.1675C975.3342,-264.7728 985.7875,-254.4053 993,-243 1006.3941,-221.8198 1012.5444,-192.9088 1015.19,-175.5353"/>
<polygon fill="#191970" stroke="#191970" points="963.022,-270.4933 957.3768,-279.4589 967.3809,-275.9705 963.022,-270.4933"/>
</g>
<!-- Node37 -->
<g id="node24" class="node">
<title>Node37</title>
<g id="a_node24"><a xlink:href="SystemTwo_8h.html" target="_top" xlink:title="/travis/pairinteraction\l/SystemTwo.h">
<polygon fill="none" stroke="#000000" points="1134,-78.5 1134,-108.5 1256,-108.5 1256,-78.5 1134,-78.5"/>
<text text-anchor="start" x="1142" y="-96.5" font-family="Helvetica,sans-Serif" font-size="10.00" fill="#000000">/travis/pairinteraction</text>
<text text-anchor="middle" x="1195" y="-85.5" font-family="Helvetica,sans-Serif" font-size="10.00" fill="#000000">/SystemTwo.h</text>
</a>
</g>
</g>
<!-- Node29&#45;&gt;Node37 -->
<g id="edge36" class="edge">
<title>Node29&#45;&gt;Node37</title>
<path fill="none" stroke="#191970" d="M968.2653,-273.9461C982.3633,-264.8775 998.7848,-253.8332 1013,-243 1065.6078,-202.9084 1073.4263,-186.4133 1125,-145 1140.8816,-132.2472 1159.4794,-118.6229 1173.5122,-108.5927"/>
<polygon fill="#191970" stroke="#191970" points="966.3839,-270.9947 959.828,-279.3177 970.1432,-276.8996 966.3839,-270.9947"/>
</g>
<!-- Node29&#45;&gt;Node39 -->
<g id="edge37" class="edge">
<title>Node29&#45;&gt;Node39</title>
<path fill="none" stroke="#191970" d="M949.4051,-270.5447C953.6972,-262.1365 957.8321,-252.4303 960,-243 963.0869,-229.5725 962.3753,-225.5715 960,-212 957.0672,-195.2435 949.9328,-192.7565 947,-176 938.6724,-128.4203 942.023,-71.3592 944.7691,-41.505"/>
<polygon fill="#191970" stroke="#191970" points="946.2908,-268.9453 944.5887,-279.4025 952.4405,-272.2892 946.2908,-268.9453"/>
</g>
<!-- Node31 -->
<g id="node18" class="node">
<title>Node31</title>
<g id="a_node18"><a xlink:href="PerturbativeInteraction_8cpp.html" target="_top" xlink:title="/travis/pairinteraction\l/PerturbativeInteraction.cpp">
<polygon fill="none" stroke="#000000" points="621,-145.5 621,-175.5 773,-175.5 773,-145.5 621,-145.5"/>
<text text-anchor="start" x="629" y="-163.5" font-family="Helvetica,sans-Serif" font-size="10.00" fill="#000000">/travis/pairinteraction</text>
<text text-anchor="middle" x="697" y="-152.5" font-family="Helvetica,sans-Serif" font-size="10.00" fill="#000000">/PerturbativeInteraction.cpp</text>
</a>
</g>
</g>
<!-- Node30&#45;&gt;Node31 -->
<g id="edge24" class="edge">
<title>Node30&#45;&gt;Node31</title>
<path fill="none" stroke="#191970" d="M700.1207,-202.3179C699.4509,-193.3414 698.7175,-183.5143 698.1301,-175.6432"/>
<polygon fill="#191970" stroke="#191970" points="696.6308,-202.5849 700.8654,-212.2967 703.6114,-202.0639 696.6308,-202.5849"/>
</g>
<!-- Node34 -->
<g id="node21" class="node">
<title>Node34</title>
<g id="a_node21"><a xlink:href="SystemBase_8cpp.html" target="_top" xlink:title="/travis/pairinteraction\l/SystemBase.cpp">
<polygon fill="none" stroke="#000000" points="1134,-145.5 1134,-175.5 1256,-175.5 1256,-145.5 1134,-145.5"/>
<text text-anchor="start" x="1142" y="-163.5" font-family="Helvetica,sans-Serif" font-size="10.00" fill="#000000">/travis/pairinteraction</text>
<text text-anchor="middle" x="1195" y="-152.5" font-family="Helvetica,sans-Serif" font-size="10.00" fill="#000000">/SystemBase.cpp</text>
</a>
</g>
</g>
<!-- Node33&#45;&gt;Node34 -->
<g id="edge27" class="edge">
<title>Node33&#45;&gt;Node34</title>
<path fill="none" stroke="#191970" d="M1195,-202.0249C1195,-193.128 1195,-183.4287 1195,-175.6432"/>
<polygon fill="#191970" stroke="#191970" points="1191.5001,-202.2966 1195,-212.2967 1198.5001,-202.2967 1191.5001,-202.2966"/>
</g>
<!-- Node33&#45;&gt;Node35 -->
<g id="edge28" class="edge">
<title>Node33&#45;&gt;Node35</title>
<path fill="none" stroke="#191970" d="M1145.4921,-208.865C1117.6293,-198.3773 1083.2889,-185.4515 1057.1209,-175.6017"/>
<polygon fill="#191970" stroke="#191970" points="1144.4614,-212.2167 1155.0533,-212.4639 1146.9273,-205.6654 1144.4614,-212.2167"/>
</g>
<!-- Node33&#45;&gt;Node37 -->
<g id="edge34" class="edge">
<title>Node33&#45;&gt;Node37</title>
<path fill="none" stroke="#191970" d="M1235.8731,-206.9732C1247.4259,-198.9934 1258.5891,-188.6756 1265,-176 1271.2183,-163.7053 1271.2183,-157.2947 1265,-145 1257.0331,-129.2478 1241.727,-117.1369 1227.4543,-108.6292"/>
<polygon fill="#191970" stroke="#191970" points="1233.9836,-204.027 1227.4543,-212.3708 1237.7617,-209.9198 1233.9836,-204.027"/>
</g>
<!-- Node36 -->
<g id="node23" class="node">
<title>Node36</title>
<g id="a_node23"><a xlink:href="SystemOne_8cpp.html" target="_top" xlink:title="/travis/pairinteraction\l/SystemOne.cpp">
<polygon fill="none" stroke="#000000" points="994,-78.5 994,-108.5 1116,-108.5 1116,-78.5 994,-78.5"/>
<text text-anchor="start" x="1002" y="-96.5" font-family="Helvetica,sans-Serif" font-size="10.00" fill="#000000">/travis/pairinteraction</text>
<text text-anchor="middle" x="1055" y="-85.5" font-family="Helvetica,sans-Serif" font-size="10.00" fill="#000000">/SystemOne.cpp</text>
</a>
</g>
</g>
<!-- Node35&#45;&gt;Node36 -->
<g id="edge29" class="edge">
<title>Node35&#45;&gt;Node36</title>
<path fill="none" stroke="#191970" d="M1030.6212,-136.4837C1035.8868,-127.1996 1041.753,-116.8565 1046.4113,-108.6432"/>
<polygon fill="#191970" stroke="#191970" points="1027.5118,-134.8716 1025.6228,-145.2967 1033.6007,-138.325 1027.5118,-134.8716"/>
</g>
<!-- Node35&#45;&gt;Node37 -->
<g id="edge30" class="edge">
<title>Node35&#45;&gt;Node37</title>
<path fill="none" stroke="#191970" d="M1066.5079,-141.865C1094.3707,-131.3773 1128.7111,-118.4515 1154.8791,-108.6017"/>
<polygon fill="#191970" stroke="#191970" points="1065.0727,-138.6654 1056.9467,-145.4639 1067.5386,-145.2167 1065.0727,-138.6654"/>
</g>
<!-- Node35&#45;&gt;Node39 -->
<g id="edge33" class="edge">
<title>Node35&#45;&gt;Node39</title>
<path fill="none" stroke="#191970" d="M1001.0071,-136.415C995.6381,-127.9115 989.8,-118.1794 985,-109 973.2789,-86.5847 962.0801,-59.7642 954.9156,-41.6718"/>
<polygon fill="#191970" stroke="#191970" points="998.2242,-138.5584 1006.5775,-145.0757 1004.1116,-134.7718 998.2242,-138.5584"/>
</g>
<!-- Node38 -->
<g id="node25" class="node">
<title>Node38</title>
<g id="a_node25"><a xlink:href="SystemTwo_8cpp.html" target="_top" xlink:title="/travis/pairinteraction\l/SystemTwo.cpp">
<polygon fill="none" stroke="#000000" points="1134,-6 1134,-36 1256,-36 1256,-6 1134,-6"/>
<text text-anchor="start" x="1142" y="-24" font-family="Helvetica,sans-Serif" font-size="10.00" fill="#000000">/travis/pairinteraction</text>
<text text-anchor="middle" x="1195" y="-13" font-family="Helvetica,sans-Serif" font-size="10.00" fill="#000000">/SystemTwo.cpp</text>
</a>
</g>
</g>
<!-- Node37&#45;&gt;Node38 -->
<g id="edge31" class="edge">
<title>Node37&#45;&gt;Node38</title>
<path fill="none" stroke="#191970" d="M1195,-68.3409C1195,-57.5601 1195,-45.3309 1195,-36.0028"/>
<polygon fill="#191970" stroke="#191970" points="1191.5001,-68.4779 1195,-78.478 1198.5001,-68.478 1191.5001,-68.4779"/>
</g>
<!-- Node37&#45;&gt;Node39 -->
<g id="edge32" class="edge">
<title>Node37&#45;&gt;Node39</title>
<path fill="none" stroke="#191970" d="M1133.6548,-75.5664C1095.4875,-64.4086 1046.5781,-50.1105 1008.4004,-38.9497"/>
<polygon fill="#191970" stroke="#191970" points="1133.0339,-79.0313 1143.6142,-78.478 1134.9981,-72.3125 1133.0339,-79.0313"/>
</g>
</g>
</svg>
