<?xml version="1.0" encoding="UTF-8" standalone="no"?>
<!DOCTYPE svg PUBLIC "-//W3C//DTD SVG 1.1//EN"
 "http://www.w3.org/Graphics/SVG/1.1/DTD/svg11.dtd">
<!-- Generated by graphviz version 2.40.1 (20161225.0304)
 -->
<!-- Title: /travis/pairinteraction/StateOld.h Pages: 1 -->
<!--zoomable 173 -->
<svg id="main" version="1.1" xmlns="http://www.w3.org/2000/svg" xmlns:xlink="http://www.w3.org/1999/xlink" xml:space="preserve" onload="init(evt)">
<style type="text/css"><![CDATA[
.edge:hover path { stroke: red; }
.edge:hover polygon { stroke: red; fill: red; }
]]></style>
<script type="text/javascript"><![CDATA[
var edges = document.getElementsByTagName('g');
if (edges && edges.length) {
  for (var i=0;i<edges.length;i++) {
    if (edges[i].id.substr(0,4)=='edge') {
      edges[i].setAttribute('class','edge');
    }
  }
}
]]></script>
        <defs>
                <circle id="rim" cx="0" cy="0" r="7"/>
                <circle id="rim2" cx="0" cy="0" r="3.5"/>
                <g id="zoomPlus">
                        <use xlink:href="#rim" fill="#404040">
                                <set attributeName="fill" to="#808080" begin="zoomplus.mouseover" end="zoomplus.mouseout"/>
                        </use>
                        <path d="M-4,0h8M0,-4v8" fill="none" stroke="white" stroke-width="1.5" pointer-events="none"/>
                </g>
                <g id="zoomMin">
                        <use xlink:href="#rim" fill="#404040">
                                <set attributeName="fill" to="#808080" begin="zoomminus.mouseover" end="zoomminus.mouseout"/>
                        </use>
                        <path d="M-4,0h8" fill="none" stroke="white" stroke-width="1.5" pointer-events="none"/>
                </g>
                <g id="dirArrow">
                        <path fill="none" stroke="white" stroke-width="1.5" d="M0,-3.0v7 M-2.5,-0.5L0,-3.0L2.5,-0.5"/>
                </g>
               <g id="resetDef">
                       <use xlink:href="#rim2" fill="#404040">
                               <set attributeName="fill" to="#808080" begin="reset.mouseover" end="reset.mouseout"/>
                       </use>
               </g>
        </defs>

<script type="text/javascript">
var viewWidth = 1010;
var viewHeight = 173;
var sectionId = 'dynsection-0';
</script>
<script xlink:href="svgpan.js"/>
<svg id="graph" class="graph">
<g id="viewport">
<title>/travis/pairinteraction/StateOld.h</title>
<!-- Node0 -->
<g id="node1" class="node">
<title>Node0</title>
<polygon fill="#bfbfbf" stroke="#000000" points="478,-134.5 478,-164.5 600,-164.5 600,-134.5 478,-134.5"/>
<text text-anchor="start" x="486" y="-152.5" font-family="Helvetica,sans-Serif" font-size="10.00" fill="#000000">/travis/pairinteraction</text>
<text text-anchor="middle" x="539" y="-141.5" font-family="Helvetica,sans-Serif" font-size="10.00" fill="#000000">/StateOld.h</text>
</g>
<!-- Node1 -->
<g id="node2" class="node">
<title>Node1</title>
<g id="a_node2"><a xlink:href="dtypes_8h.html" target="_top" xlink:title="dtypes.h">
<polygon fill="none" stroke="#000000" points="231.5,-73 231.5,-92 290.5,-92 290.5,-73 231.5,-73"/>
<text text-anchor="middle" x="261" y="-80" font-family="Helvetica,sans-Serif" font-size="10.00" fill="#000000">dtypes.h</text>
</a>
</g>
</g>
<!-- Node0&#45;&gt;Node1 -->
<g id="edge1" class="edge">
<title>Node0&#45;&gt;Node1</title>
<path fill="none" stroke="#191970" d="M477.8874,-138.1747C430.3729,-128.8595 363.0058,-114.5333 305,-98 302.0573,-97.1612 299.0248,-96.2325 295.9932,-95.2585"/>
<polygon fill="#191970" stroke="#191970" points="297.0175,-91.9105 286.4235,-92.0485 294.7913,-98.5471 297.0175,-91.9105"/>
</g>
<!-- Node4 -->
<g id="node5" class="node">
<title>Node4</title>
<polygon fill="none" stroke="#bfbfbf" points="0,-6 0,-25 42,-25 42,-6 0,-6"/>
<text text-anchor="middle" x="21" y="-13" font-family="Helvetica,sans-Serif" font-size="10.00" fill="#000000">array</text>
</g>
<!-- Node0&#45;&gt;Node4 -->
<g id="edge8" class="edge">
<title>Node0&#45;&gt;Node4</title>
<path fill="none" stroke="#191970" d="M477.9065,-143.3945C413.6563,-136.0831 310.0027,-121.7515 223,-98 143.8567,-76.3941 125.7691,-64.7647 51,-31 50.0116,-30.5536 49.0093,-30.0908 48.0004,-29.6163"/>
<polygon fill="#191970" stroke="#191970" points="49.452,-26.4299 38.934,-25.1561 46.362,-32.7109 49.452,-26.4299"/>
</g>
<!-- Node5 -->
<g id="node6" class="node">
<title>Node5</title>
<polygon fill="none" stroke="#bfbfbf" points="480.5,-6 480.5,-25 527.5,-25 527.5,-6 480.5,-6"/>
<text text-anchor="middle" x="504" y="-13" font-family="Helvetica,sans-Serif" font-size="10.00" fill="#000000">cmath</text>
</g>
<!-- Node0&#45;&gt;Node5 -->
<g id="edge10" class="edge">
<title>Node0&#45;&gt;Node5</title>
<path fill="none" stroke="#191970" d="M477.8672,-141.9944C425.5263,-134.1632 355.9961,-119.927 339,-98 330.5593,-87.1105 330.6265,-77.9413 339,-67 376.2177,-18.3691 414.638,-52.4411 472,-31 473.4094,-30.4732 474.8406,-29.9062 476.2765,-29.3114"/>
<polygon fill="#191970" stroke="#191970" points="477.9483,-32.3977 485.6433,-25.115 475.0862,-26.0095 477.9483,-32.3977"/>
</g>
<!-- Node8 -->
<g id="node9" class="node">
<title>Node8</title>
<polygon fill="none" stroke="#bfbfbf" points="347.5,-73 347.5,-92 490.5,-92 490.5,-73 347.5,-73"/>
<text text-anchor="middle" x="419" y="-80" font-family="Helvetica,sans-Serif" font-size="10.00" fill="#000000">boost/functional/hash.hpp</text>
</g>
<!-- Node0&#45;&gt;Node8 -->
<g id="edge9" class="edge">
<title>Node0&#45;&gt;Node8</title>
<path fill="none" stroke="#191970" d="M512.0697,-134.4639C492.0259,-123.2728 464.8217,-108.0838 445.0035,-97.0186"/>
<polygon fill="#191970" stroke="#191970" points="446.6386,-93.923 436.2011,-92.1039 443.2261,-100.0349 446.6386,-93.923"/>
</g>
<!-- Node9 -->
<g id="node10" class="node">
<title>Node9</title>
<polygon fill="none" stroke="#bfbfbf" points="509,-73 509,-92 569,-92 569,-73 509,-73"/>
<text text-anchor="middle" x="539" y="-80" font-family="Helvetica,sans-Serif" font-size="10.00" fill="#000000">iostream</text>
</g>
<!-- Node0&#45;&gt;Node9 -->
<g id="edge11" class="edge">
<title>Node0&#45;&gt;Node9</title>
<path fill="none" stroke="#191970" d="M539,-134.2967C539,-124.7699 539,-112.3954 539,-102.1306"/>
<polygon fill="#191970" stroke="#191970" points="542.5001,-102.0549 539,-92.055 535.5001,-102.055 542.5001,-102.0549"/>
</g>
<!-- Node10 -->
<g id="node11" class="node">
<title>Node10</title>
<polygon fill="none" stroke="#bfbfbf" points="587,-73 587,-92 631,-92 631,-73 587,-73"/>
<text text-anchor="middle" x="609" y="-80" font-family="Helvetica,sans-Serif" font-size="10.00" fill="#000000">string</text>
</g>
<!-- Node0&#45;&gt;Node10 -->
<g id="edge12" class="edge">
<title>Node0&#45;&gt;Node10</title>
<path fill="none" stroke="#191970" d="M554.8841,-134.2967C565.7904,-123.8578 580.269,-109.9997 591.5056,-99.2446"/>
<polygon fill="#191970" stroke="#191970" points="594.2131,-101.498 599.0172,-92.055 589.3729,-96.4411 594.2131,-101.498"/>
</g>
<!-- Node11 -->
<g id="node12" class="node">
<title>Node11</title>
<polygon fill="none" stroke="#bfbfbf" points="649.5,-67.5 649.5,-97.5 756.5,-97.5 756.5,-67.5 649.5,-67.5"/>
<text text-anchor="start" x="657.5" y="-85.5" font-family="Helvetica,sans-Serif" font-size="10.00" fill="#000000">boost/serialization</text>
<text text-anchor="middle" x="703" y="-74.5" font-family="Helvetica,sans-Serif" font-size="10.00" fill="#000000">/array.hpp</text>
</g>
<!-- Node0&#45;&gt;Node11 -->
<g id="edge13" class="edge">
<title>Node0&#45;&gt;Node11</title>
<path fill="none" stroke="#191970" d="M575.8048,-134.4639C599.6709,-124.7137 630.9651,-111.9289 656.5402,-101.4805"/>
<polygon fill="#191970" stroke="#191970" points="658.1011,-104.6237 666.0347,-97.6017 655.4537,-98.1436 658.1011,-104.6237"/>
</g>
<!-- Node12 -->
<g id="node13" class="node">
<title>Node12</title>
<polygon fill="none" stroke="#bfbfbf" points="774.5,-67.5 774.5,-97.5 881.5,-97.5 881.5,-67.5 774.5,-67.5"/>
<text text-anchor="start" x="782.5" y="-85.5" font-family="Helvetica,sans-Serif" font-size="10.00" fill="#000000">boost/serialization</text>
<text text-anchor="middle" x="828" y="-74.5" font-family="Helvetica,sans-Serif" font-size="10.00" fill="#000000">/string.hpp</text>
</g>
<!-- Node0&#45;&gt;Node12 -->
<g id="edge14" class="edge">
<title>Node0&#45;&gt;Node12</title>
<path fill="none" stroke="#191970" d="M600.2635,-135.982C643.6716,-126.3161 703.532,-112.8106 764.4632,-98.3438"/>
<polygon fill="#191970" stroke="#191970" points="765.3315,-101.735 774.2491,-96.0141 763.7104,-94.9253 765.3315,-101.735"/>
</g>
<!-- Node13 -->
<g id="node14" class="node">
<title>Node13</title>
<polygon fill="none" stroke="#bfbfbf" points="900,-73 900,-92 1002,-92 1002,-73 900,-73"/>
<text text-anchor="middle" x="951" y="-80" font-family="Helvetica,sans-Serif" font-size="10.00" fill="#000000">boost/variant.hpp</text>
</g>
<!-- Node0&#45;&gt;Node13 -->
<g id="edge15" class="edge">
<title>Node0&#45;&gt;Node13</title>
<path fill="none" stroke="#191970" d="M600.0749,-142.5871C670.5492,-134.1433 789.743,-118.4248 891,-98 896.077,-96.9759 901.3663,-95.7889 906.6086,-94.5363"/>
<polygon fill="#191970" stroke="#191970" points="907.6971,-97.8726 916.5634,-92.0727 906.0154,-91.0776 907.6971,-97.8726"/>
</g>
<!-- Node2 -->
<g id="node3" class="node">
<title>Node2</title>
<polygon fill="none" stroke="#bfbfbf" points="60.5,-6 60.5,-25 137.5,-25 137.5,-6 60.5,-6"/>
<text text-anchor="middle" x="99" y="-13" font-family="Helvetica,sans-Serif" font-size="10.00" fill="#000000">Eigen/Dense</text>
</g>
<!-- Node1&#45;&gt;Node2 -->
<g id="edge2" class="edge">
<title>Node1&#45;&gt;Node2</title>
<path fill="none" stroke="#191970" d="M237.7893,-72.9005C210.0006,-61.4077 163.2772,-42.0838 131.8062,-29.068"/>
<polygon fill="#191970" stroke="#191970" points="132.7461,-25.6693 122.1676,-25.0817 130.0708,-32.1379 132.7461,-25.6693"/>
</g>
<!-- Node3 -->
<g id="node4" class="node">
<title>Node3</title>
<polygon fill="none" stroke="#bfbfbf" points="156,-6 156,-25 236,-25 236,-6 156,-6"/>
<text text-anchor="middle" x="196" y="-13" font-family="Helvetica,sans-Serif" font-size="10.00" fill="#000000">Eigen/Sparse</text>
</g>
<!-- Node1&#45;&gt;Node3 -->
<g id="edge3" class="edge">
<title>Node1&#45;&gt;Node3</title>
<path fill="none" stroke="#191970" d="M251.6871,-72.9005C241.4544,-62.353 224.8228,-45.2096 212.3954,-32.3998"/>
<polygon fill="#191970" stroke="#191970" points="214.7709,-29.822 205.2956,-25.0817 209.7467,-34.6962 214.7709,-29.822"/>
</g>
<!-- Node1&#45;&gt;Node4 -->
<g id="edge4" class="edge">
<title>Node1&#45;&gt;Node4</title>
<path fill="none" stroke="#191970" d="M231.4714,-77.5406C190.2198,-70.1036 113.3905,-54.3908 51,-31 49.7649,-30.5369 48.5152,-30.0356 47.2629,-29.5061"/>
<polygon fill="#191970" stroke="#191970" points="48.3545,-26.1521 37.815,-25.0705 45.3796,-32.4886 48.3545,-26.1521"/>
</g>
<!-- Node1&#45;&gt;Node5 -->
<g id="edge5" class="edge">
<title>Node1&#45;&gt;Node5</title>
<path fill="none" stroke="#191970" d="M286.4181,-72.9325C292.4617,-70.8287 298.921,-68.7185 305,-67 378.0637,-46.345 400.2115,-55.7254 472,-31 473.605,-30.4472 475.2345,-29.8343 476.8646,-29.1806"/>
<polygon fill="#191970" stroke="#191970" points="478.3107,-32.3681 486.0426,-25.1247 475.4812,-25.9655 478.3107,-32.3681"/>
</g>
<!-- Node6 -->
<g id="node7" class="node">
<title>Node6</title>
<polygon fill="none" stroke="#bfbfbf" points="254.5,-.5 254.5,-30.5 397.5,-30.5 397.5,-.5 254.5,-.5"/>
<text text-anchor="start" x="262.5" y="-18.5" font-family="Helvetica,sans-Serif" font-size="10.00" fill="#000000">unsupported/Eigen/CXX11</text>
<text text-anchor="middle" x="326" y="-7.5" font-family="Helvetica,sans-Serif" font-size="10.00" fill="#000000">/Tensor</text>
</g>
<!-- Node1&#45;&gt;Node6 -->
<g id="edge6" class="edge">
<title>Node1&#45;&gt;Node6</title>
<path fill="none" stroke="#191970" d="M270.3129,-72.9005C279.1245,-63.8178 292.681,-49.8442 304.2119,-37.9585"/>
<polygon fill="#191970" stroke="#191970" points="306.9756,-40.1363 311.4266,-30.5218 301.9514,-35.2621 306.9756,-40.1363"/>
</g>
<!-- Node7 -->
<g id="node8" class="node">
<title>Node7</title>
<polygon fill="none" stroke="#bfbfbf" points="415.5,-6 415.5,-25 462.5,-25 462.5,-6 415.5,-6"/>
<text text-anchor="middle" x="439" y="-13" font-family="Helvetica,sans-Serif" font-size="10.00" fill="#000000">vector</text>
</g>
<!-- Node1&#45;&gt;Node7 -->
<g id="edge7" class="edge">
<title>Node1&#45;&gt;Node7</title>
<path fill="none" stroke="#191970" d="M288.296,-72.8822C330.3564,-58.0608 406.2829,-31.299 407,-31 408.3531,-30.4357 409.7306,-29.8427 411.1163,-29.2312"/>
<polygon fill="#191970" stroke="#191970" points="412.5957,-32.4033 420.2085,-25.0347 409.6622,-26.0476 412.5957,-32.4033"/>
</g>
</g>
</svg>
        <g id="navigator" transform="translate(0 0)" fill="#404254">
                <rect fill="#f2f5e9" fill-opacity="0.5" stroke="#606060" stroke-width=".5" x="0" y="0" width="60" height="60"/>
                <use id="zoomplus" xlink:href="#zoomPlus" x="17" y="9" onmousedown="handleZoom(evt,'in')"/>
                <use id="zoomminus" xlink:href="#zoomMin" x="42" y="9" onmousedown="handleZoom(evt,'out')"/>
                <use id="reset" xlink:href="#resetDef" x="30" y="36" onmousedown="handleReset()"/>
                <g id="arrowUp" xlink:href="#dirArrow" transform="translate(30 24)" onmousedown="handlePan(0,-1)">
                  <use xlink:href="#rim" fill="#404040">
                        <set attributeName="fill" to="#808080" begin="arrowUp.mouseover" end="arrowUp.mouseout"/>
                  </use>
                  <path fill="none" stroke="white" stroke-width="1.5" d="M0,-3.0v7 M-2.5,-0.5L0,-3.0L2.5,-0.5"/>
                </g>
                <g id="arrowRight" xlink:href="#dirArrow" transform="rotate(90) translate(36 -43)" onmousedown="handlePan(1,0)">
                  <use xlink:href="#rim" fill="#404040">
                        <set attributeName="fill" to="#808080" begin="arrowRight.mouseover" end="arrowRight.mouseout"/>
                  </use>
                  <path fill="none" stroke="white" stroke-width="1.5" d="M0,-3.0v7 M-2.5,-0.5L0,-3.0L2.5,-0.5"/>
                </g>
                <g id="arrowDown" xlink:href="#dirArrow" transform="rotate(180) translate(-30 -48)" onmousedown="handlePan(0,1)">
                  <use xlink:href="#rim" fill="#404040">
                        <set attributeName="fill" to="#808080" begin="arrowDown.mouseover" end="arrowDown.mouseout"/>
                  </use>
                  <path fill="none" stroke="white" stroke-width="1.5" d="M0,-3.0v7 M-2.5,-0.5L0,-3.0L2.5,-0.5"/>
                </g>
                <g id="arrowLeft" xlink:href="#dirArrow" transform="rotate(270) translate(-36 17)" onmousedown="handlePan(-1,0)">
                  <use xlink:href="#rim" fill="#404040">
                        <set attributeName="fill" to="#808080" begin="arrowLeft.mouseover" end="arrowLeft.mouseout"/>
                  </use>
                  <path fill="none" stroke="white" stroke-width="1.5" d="M0,-3.0v7 M-2.5,-0.5L0,-3.0L2.5,-0.5"/>
                </g>
        </g>
        <svg viewBox="0 0 15 15" width="100%" height="30px" preserveAspectRatio="xMaxYMin meet">
         <g id="arrow_out" transform="scale(0.3 0.3)">
          <a xlink:href="StateOld_8h__incl_org.svg" target="_base">
           <rect id="button" ry="5" rx="5" y="6" x="6" height="38" width="38"
                fill="#f2f5e9" fill-opacity="0.5" stroke="#606060" stroke-width="1.0"/>
           <path id="arrow"
             d="M 11.500037,31.436501 C 11.940474,20.09759 22.043105,11.32322 32.158766,21.979434 L 37.068811,17.246167 C 37.068811,17.246167 37.088388,32 37.088388,32 L 22.160133,31.978069 C 22.160133,31.978069 26.997745,27.140456 26.997745,27.140456 C 18.528582,18.264221 13.291696,25.230495 11.500037,31.436501 z"
             style="fill:#404040;"/>
          </a>
         </g>
        </svg>
</svg>
