<?xml version="1.0" encoding="UTF-8" standalone="no"?>
<!DOCTYPE svg PUBLIC "-//W3C//DTD SVG 1.1//EN"
 "http://www.w3.org/Graphics/SVG/1.1/DTD/svg11.dtd">
<!-- Generated by graphviz version 2.40.1 (20161225.0304)
 -->
<!-- Title: /travis/pairinteraction/State.h Pages: 1 -->
<!--zoomable 385 -->
<svg id="main" version="1.1" xmlns="http://www.w3.org/2000/svg" xmlns:xlink="http://www.w3.org/1999/xlink" xml:space="preserve" onload="init(evt)">
<style type="text/css"><![CDATA[
.edge:hover path { stroke: red; }
.edge:hover polygon { stroke: red; fill: red; }
]]></style>
<script type="text/javascript"><![CDATA[
var edges = document.getElementsByTagName('g');
if (edges && edges.length) {
  for (var i=0;i<edges.length;i++) {
    if (edges[i].id.substr(0,4)=='edge') {
      edges[i].setAttribute('class','edge');
    }
  }
}
]]></script>
        <defs>
                <circle id="rim" cx="0" cy="0" r="7"/>
                <circle id="rim2" cx="0" cy="0" r="3.5"/>
                <g id="zoomPlus">
                        <use xlink:href="#rim" fill="#404040">
                                <set attributeName="fill" to="#808080" begin="zoomplus.mouseover" end="zoomplus.mouseout"/>
                        </use>
                        <path d="M-4,0h8M0,-4v8" fill="none" stroke="white" stroke-width="1.5" pointer-events="none"/>
                </g>
                <g id="zoomMin">
                        <use xlink:href="#rim" fill="#404040">
                                <set attributeName="fill" to="#808080" begin="zoomminus.mouseover" end="zoomminus.mouseout"/>
                        </use>
                        <path d="M-4,0h8" fill="none" stroke="white" stroke-width="1.5" pointer-events="none"/>
                </g>
                <g id="dirArrow">
                        <path fill="none" stroke="white" stroke-width="1.5" d="M0,-3.0v7 M-2.5,-0.5L0,-3.0L2.5,-0.5"/>
                </g>
               <g id="resetDef">
                       <use xlink:href="#rim2" fill="#404040">
                               <set attributeName="fill" to="#808080" begin="reset.mouseover" end="reset.mouseout"/>
                       </use>
               </g>
        </defs>

<script type="text/javascript">
var viewWidth = 886;
var viewHeight = 385;
var sectionId = 'dynsection-1';
</script>
<script xlink:href="svgpan.js"/>
<svg id="graph" class="graph">
<g id="viewport">
<title>/travis/pairinteraction/State.h</title>
<!-- Node52 -->
<g id="node1" class="node">
<title>Node52</title>
<polygon fill="#bfbfbf" stroke="#000000" points="355,-346.5 355,-376.5 477,-376.5 477,-346.5 355,-346.5"/>
<text text-anchor="start" x="363" y="-364.5" font-family="Helvetica,sans-Serif" font-size="10.00" fill="#000000">/travis/pairinteraction</text>
<text text-anchor="middle" x="416" y="-353.5" font-family="Helvetica,sans-Serif" font-size="10.00" fill="#000000">/State.h</text>
</g>
<!-- Node53 -->
<g id="node2" class="node">
<title>Node53</title>
<g id="a_node2"><a xlink:href="MatrixElementCache_8h.html" target="_top" xlink:title="/travis/pairinteraction\l/MatrixElementCache.h">
<polygon fill="none" stroke="#000000" points="214,-279.5 214,-309.5 344,-309.5 344,-279.5 214,-279.5"/>
<text text-anchor="start" x="222" y="-297.5" font-family="Helvetica,sans-Serif" font-size="10.00" fill="#000000">/travis/pairinteraction</text>
<text text-anchor="middle" x="279" y="-286.5" font-family="Helvetica,sans-Serif" font-size="10.00" fill="#000000">/MatrixElementCache.h</text>
</a>
</g>
</g>
<!-- Node52&#45;&gt;Node53 -->
<g id="edge1" class="edge">
<title>Node52&#45;&gt;Node53</title>
<path fill="none" stroke="#191970" d="M370.3356,-342.1902C348.35,-331.8685 322.8755,-319.3421 304.3543,-309.7177"/>
<polygon fill="#191970" stroke="#191970" points="368.9711,-345.4156 379.514,-346.4639 371.926,-339.0698 368.9711,-345.4156"/>
</g>
<!-- Node55 -->
<g id="node4" class="node">
<title>Node55</title>
<g id="a_node4"><a xlink:href="PerturbativeInteraction_8h.html" target="_top" xlink:title="/travis/pairinteraction\l/PerturbativeInteraction.h">
<polygon fill="none" stroke="#000000" points="5.5,-212.5 5.5,-242.5 146.5,-242.5 146.5,-212.5 5.5,-212.5"/>
<text text-anchor="start" x="13.5" y="-230.5" font-family="Helvetica,sans-Serif" font-size="10.00" fill="#000000">/travis/pairinteraction</text>
<text text-anchor="middle" x="76" y="-219.5" font-family="Helvetica,sans-Serif" font-size="10.00" fill="#000000">/PerturbativeInteraction.h</text>
</a>
</g>
</g>
<!-- Node52&#45;&gt;Node55 -->
<g id="edge16" class="edge">
<title>Node52&#45;&gt;Node55</title>
<path fill="none" stroke="#191970" d="M344.8988,-350.2034C303.0718,-342.0866 249.7737,-329.1515 205,-310 162.9596,-292.0176 119.1783,-260.9573 94.9732,-242.51"/>
<polygon fill="#191970" stroke="#191970" points="344.2505,-353.6428 354.727,-352.0634 345.5522,-346.7649 344.2505,-353.6428"/>
</g>
<!-- Node57 -->
<g id="node6" class="node">
<title>Node57</title>
<g id="a_node6"><a xlink:href="SystemBase_8h.html" target="_top" xlink:title="/travis/pairinteraction\l/SystemBase.h">
<polygon fill="none" stroke="#000000" points="400,-212.5 400,-242.5 522,-242.5 522,-212.5 400,-212.5"/>
<text text-anchor="start" x="408" y="-230.5" font-family="Helvetica,sans-Serif" font-size="10.00" fill="#000000">/travis/pairinteraction</text>
<text text-anchor="middle" x="461" y="-219.5" font-family="Helvetica,sans-Serif" font-size="10.00" fill="#000000">/SystemBase.h</text>
</a>
</g>
</g>
<!-- Node52&#45;&gt;Node57 -->
<g id="edge18" class="edge">
<title>Node52&#45;&gt;Node57</title>
<path fill="none" stroke="#191970" d="M424.3263,-336.706C433.5647,-309.1962 448.1809,-265.6723 455.8749,-242.7614"/>
<polygon fill="#191970" stroke="#191970" points="420.9402,-335.795 421.0746,-346.389 427.5761,-338.0235 420.9402,-335.795"/>
</g>
<!-- Node59 -->
<g id="node8" class="node">
<title>Node59</title>
<g id="a_node8"><a xlink:href="SystemOne_8h.html" target="_top" xlink:title="/travis/pairinteraction\l/SystemOne.h">
<polygon fill="none" stroke="#000000" points="540,-145.5 540,-175.5 662,-175.5 662,-145.5 540,-145.5"/>
<text text-anchor="start" x="548" y="-163.5" font-family="Helvetica,sans-Serif" font-size="10.00" fill="#000000">/travis/pairinteraction</text>
<text text-anchor="middle" x="601" y="-152.5" font-family="Helvetica,sans-Serif" font-size="10.00" fill="#000000">/SystemOne.h</text>
</a>
</g>
</g>
<!-- Node52&#45;&gt;Node59 -->
<g id="edge19" class="edge">
<title>Node52&#45;&gt;Node59</title>
<path fill="none" stroke="#191970" d="M438.3202,-339.3954C461.8294,-315.908 499.7059,-277.4791 531,-243 551.83,-220.0499 574.8883,-192.4118 588.6492,-175.6626"/>
<polygon fill="#191970" stroke="#191970" points="435.8315,-336.9343 431.2188,-346.4723 440.7727,-341.8926 435.8315,-336.9343"/>
</g>
<!-- Node61 -->
<g id="node10" class="node">
<title>Node61</title>
<g id="a_node10"><a xlink:href="SystemTwo_8h.html" target="_top" xlink:title="/travis/pairinteraction\l/SystemTwo.h">
<polygon fill="none" stroke="#000000" points="629,-78.5 629,-108.5 751,-108.5 751,-78.5 629,-78.5"/>
<text text-anchor="start" x="637" y="-96.5" font-family="Helvetica,sans-Serif" font-size="10.00" fill="#000000">/travis/pairinteraction</text>
<text text-anchor="middle" x="690" y="-85.5" font-family="Helvetica,sans-Serif" font-size="10.00" fill="#000000">/SystemTwo.h</text>
</a>
</g>
</g>
<!-- Node52&#45;&gt;Node61 -->
<g id="edge20" class="edge">
<title>Node52&#45;&gt;Node61</title>
<path fill="none" stroke="#191970" d="M471.1843,-342.8609C537.5482,-317.0995 645.7738,-263.6006 692,-176 703.1664,-154.8392 698.913,-126.1786 694.606,-108.8081"/>
<polygon fill="#191970" stroke="#191970" points="469.8137,-339.6375 461.709,-346.4613 472.3001,-346.181 469.8137,-339.6375"/>
</g>
<!-- Node63 -->
<g id="node12" class="node">
<title>Node63</title>
<g id="a_node12"><a xlink:href="integration__test_8cpp.html" target="_top" xlink:title="/travis/pairinteraction\l/unit_test/integration\l_test.cpp">
<polygon fill="none" stroke="#000000" points="334,-.5 334,-41.5 456,-41.5 456,-.5 334,-.5"/>
<text text-anchor="start" x="342" y="-29.5" font-family="Helvetica,sans-Serif" font-size="10.00" fill="#000000">/travis/pairinteraction</text>
<text text-anchor="start" x="342" y="-18.5" font-family="Helvetica,sans-Serif" font-size="10.00" fill="#000000">/unit_test/integration</text>
<text text-anchor="middle" x="395" y="-7.5" font-family="Helvetica,sans-Serif" font-size="10.00" fill="#000000">_test.cpp</text>
</a>
</g>
</g>
<!-- Node52&#45;&gt;Node63 -->
<g id="edge21" class="edge">
<title>Node52&#45;&gt;Node63</title>
<path fill="none" stroke="#191970" d="M402.8358,-337.1731C389.8723,-310.9069 372,-267.4503 372,-227.5 372,-227.5 372,-227.5 372,-160.5 372,-117.7904 382.6254,-68.6937 389.4323,-41.623"/>
<polygon fill="#191970" stroke="#191970" points="399.8565,-339.0353 407.5164,-346.355 406.093,-335.8562 399.8565,-339.0353"/>
</g>
<!-- Node64 -->
<g id="node13" class="node">
<title>Node64</title>
<g id="a_node13"><a xlink:href="State_8cpp.html" target="_top" xlink:title="/travis/pairinteraction\l/State.cpp">
<polygon fill="none" stroke="#000000" points="756,-279.5 756,-309.5 878,-309.5 878,-279.5 756,-279.5"/>
<text text-anchor="start" x="764" y="-297.5" font-family="Helvetica,sans-Serif" font-size="10.00" fill="#000000">/travis/pairinteraction</text>
<text text-anchor="middle" x="817" y="-286.5" font-family="Helvetica,sans-Serif" font-size="10.00" fill="#000000">/State.cpp</text>
</a>
</g>
</g>
<!-- Node52&#45;&gt;Node64 -->
<g id="edge17" class="edge">
<title>Node52&#45;&gt;Node64</title>
<path fill="none" stroke="#191970" d="M487.033,-351.2639C553.1829,-341.4981 654.4679,-325.9498 742,-310 746.4474,-309.1896 751.0364,-308.3211 755.6509,-307.4241"/>
<polygon fill="#191970" stroke="#191970" points="486.5138,-347.8025 477.1301,-352.7214 487.5332,-354.7279 486.5138,-347.8025"/>
</g>
<!-- Node53&#45;&gt;Node52 -->
<g id="edge3" class="edge">
<title>Node53&#45;&gt;Node52</title>
<path fill="none" stroke="#191970" d="M324.8479,-313.896C346.9303,-324.2663 372.497,-336.8426 390.9951,-346.4639"/>
<polygon fill="#191970" stroke="#191970" points="326.1708,-310.6512 315.6281,-309.6017 323.2153,-316.9967 326.1708,-310.6512"/>
</g>
<!-- Node54 -->
<g id="node3" class="node">
<title>Node54</title>
<g id="a_node3"><a xlink:href="MatrixElementCache_8cpp.html" target="_top" xlink:title="/travis/pairinteraction\l/MatrixElementCache.cpp">
<polygon fill="none" stroke="#000000" points="164.5,-212.5 164.5,-242.5 305.5,-242.5 305.5,-212.5 164.5,-212.5"/>
<text text-anchor="start" x="172.5" y="-230.5" font-family="Helvetica,sans-Serif" font-size="10.00" fill="#000000">/travis/pairinteraction</text>
<text text-anchor="middle" x="235" y="-219.5" font-family="Helvetica,sans-Serif" font-size="10.00" fill="#000000">/MatrixElementCache.cpp</text>
</a>
</g>
</g>
<!-- Node53&#45;&gt;Node54 -->
<g id="edge2" class="edge">
<title>Node53&#45;&gt;Node54</title>
<path fill="none" stroke="#191970" d="M263.4184,-270.7735C257.2728,-261.4154 250.3948,-250.9421 244.9448,-242.6432"/>
<polygon fill="#191970" stroke="#191970" points="260.6008,-272.8592 269.0157,-279.2967 266.4519,-269.0167 260.6008,-272.8592"/>
</g>
<!-- Node53&#45;&gt;Node55 -->
<g id="edge4" class="edge">
<title>Node53&#45;&gt;Node55</title>
<path fill="none" stroke="#191970" d="M223.7837,-276.2759C191.7904,-265.7165 151.9901,-252.5805 121.7559,-242.6017"/>
<polygon fill="#191970" stroke="#191970" points="222.8497,-279.6533 233.4428,-279.4639 225.0437,-273.006 222.8497,-279.6533"/>
</g>
<!-- Node53&#45;&gt;Node57 -->
<g id="edge6" class="edge">
<title>Node53&#45;&gt;Node57</title>
<path fill="none" stroke="#191970" d="M329.2476,-276.0023C357.8025,-265.4903 393.1046,-252.4945 419.9775,-242.6017"/>
<polygon fill="#191970" stroke="#191970" points="328.0195,-272.7247 319.8444,-279.4639 330.4378,-279.2937 328.0195,-272.7247"/>
</g>
<!-- Node53&#45;&gt;Node63 -->
<g id="edge15" class="edge">
<title>Node53&#45;&gt;Node63</title>
<path fill="none" stroke="#191970" d="M297.5122,-270.8657C303.4381,-262.4343 309.597,-252.6321 314,-243 345.553,-173.9739 327.1788,-147.356 358,-78 363.6535,-65.2781 371.9563,-52.1738 379.265,-41.7425"/>
<polygon fill="#191970" stroke="#191970" points="294.5761,-268.9515 291.5043,-279.0913 300.2289,-273.0802 294.5761,-268.9515"/>
</g>
<!-- Node56 -->
<g id="node5" class="node">
<title>Node56</title>
<g id="a_node5"><a xlink:href="PerturbativeInteraction_8cpp.html" target="_top" xlink:title="/travis/pairinteraction\l/PerturbativeInteraction.cpp">
<polygon fill="none" stroke="#000000" points="0,-145.5 0,-175.5 152,-175.5 152,-145.5 0,-145.5"/>
<text text-anchor="start" x="8" y="-163.5" font-family="Helvetica,sans-Serif" font-size="10.00" fill="#000000">/travis/pairinteraction</text>
<text text-anchor="middle" x="76" y="-152.5" font-family="Helvetica,sans-Serif" font-size="10.00" fill="#000000">/PerturbativeInteraction.cpp</text>
</a>
</g>
</g>
<!-- Node55&#45;&gt;Node56 -->
<g id="edge5" class="edge">
<title>Node55&#45;&gt;Node56</title>
<path fill="none" stroke="#191970" d="M76,-202.0249C76,-193.128 76,-183.4287 76,-175.6432"/>
<polygon fill="#191970" stroke="#191970" points="72.5001,-202.2966 76,-212.2967 79.5001,-202.2967 72.5001,-202.2966"/>
</g>
<!-- Node58 -->
<g id="node7" class="node">
<title>Node58</title>
<g id="a_node7"><a xlink:href="SystemBase_8cpp.html" target="_top" xlink:title="/travis/pairinteraction\l/SystemBase.cpp">
<polygon fill="none" stroke="#000000" points="400,-145.5 400,-175.5 522,-175.5 522,-145.5 400,-145.5"/>
<text text-anchor="start" x="408" y="-163.5" font-family="Helvetica,sans-Serif" font-size="10.00" fill="#000000">/travis/pairinteraction</text>
<text text-anchor="middle" x="461" y="-152.5" font-family="Helvetica,sans-Serif" font-size="10.00" fill="#000000">/SystemBase.cpp</text>
</a>
</g>
</g>
<!-- Node57&#45;&gt;Node58 -->
<g id="edge7" class="edge">
<title>Node57&#45;&gt;Node58</title>
<path fill="none" stroke="#191970" d="M461,-202.0249C461,-193.128 461,-183.4287 461,-175.6432"/>
<polygon fill="#191970" stroke="#191970" points="457.5001,-202.2966 461,-212.2967 464.5001,-202.2967 457.5001,-202.2966"/>
</g>
<!-- Node57&#45;&gt;Node59 -->
<g id="edge8" class="edge">
<title>Node57&#45;&gt;Node59</title>
<path fill="none" stroke="#191970" d="M501.638,-208.0518C523.1502,-197.7567 549.181,-185.2991 569.2017,-175.7177"/>
<polygon fill="#191970" stroke="#191970" points="499.9281,-204.9899 492.4187,-212.4639 502.9499,-211.3041 499.9281,-204.9899"/>
</g>
<!-- Node57&#45;&gt;Node61 -->
<g id="edge14" class="edge">
<title>Node57&#45;&gt;Node61</title>
<path fill="none" stroke="#191970" d="M532.2309,-218.1309C585.2393,-209.7164 651.6254,-195.6504 671,-176 688.7491,-157.9982 691.2247,-126.9445 690.9384,-108.5037"/>
<polygon fill="#191970" stroke="#191970" points="531.5124,-214.7004 522.1648,-219.6874 532.5822,-221.6181 531.5124,-214.7004"/>
</g>
<!-- Node60 -->
<g id="node9" class="node">
<title>Node60</title>
<g id="a_node9"><a xlink:href="SystemOne_8cpp.html" target="_top" xlink:title="/travis/pairinteraction\l/SystemOne.cpp">
<polygon fill="none" stroke="#000000" points="489,-78.5 489,-108.5 611,-108.5 611,-78.5 489,-78.5"/>
<text text-anchor="start" x="497" y="-96.5" font-family="Helvetica,sans-Serif" font-size="10.00" fill="#000000">/travis/pairinteraction</text>
<text text-anchor="middle" x="550" y="-85.5" font-family="Helvetica,sans-Serif" font-size="10.00" fill="#000000">/SystemOne.cpp</text>
</a>
</g>
</g>
<!-- Node59&#45;&gt;Node60 -->
<g id="edge9" class="edge">
<title>Node59&#45;&gt;Node60</title>
<path fill="none" stroke="#191970" d="M583.1596,-137.0626C575.9807,-127.6315 567.9091,-117.0276 561.5269,-108.6432"/>
<polygon fill="#191970" stroke="#191970" points="580.5854,-139.4595 589.4273,-145.2967 586.1554,-135.2197 580.5854,-139.4595"/>
</g>
<!-- Node59&#45;&gt;Node61 -->
<g id="edge10" class="edge">
<title>Node59&#45;&gt;Node61</title>
<path fill="none" stroke="#191970" d="M629.4743,-139.0643C642.6338,-129.1577 657.9513,-117.6265 669.8844,-108.6432"/>
<polygon fill="#191970" stroke="#191970" points="627.0797,-136.486 621.1955,-145.2967 631.2897,-142.0785 627.0797,-136.486"/>
</g>
<!-- Node59&#45;&gt;Node63 -->
<g id="edge13" class="edge">
<title>Node59&#45;&gt;Node63</title>
<path fill="none" stroke="#191970" d="M544.4111,-141.8401C523.2281,-133.4929 499.5738,-122.4651 480,-109 452.5249,-90.0996 426.78,-61.2837 410.9769,-41.823"/>
<polygon fill="#191970" stroke="#191970" points="543.3559,-145.1836 553.9465,-145.4857 545.8558,-138.6452 543.3559,-145.1836"/>
</g>
<!-- Node62 -->
<g id="node11" class="node">
<title>Node62</title>
<g id="a_node11"><a xlink:href="SystemTwo_8cpp.html" target="_top" xlink:title="/travis/pairinteraction\l/SystemTwo.cpp">
<polygon fill="none" stroke="#000000" points="629,-6 629,-36 751,-36 751,-6 629,-6"/>
<text text-anchor="start" x="637" y="-24" font-family="Helvetica,sans-Serif" font-size="10.00" fill="#000000">/travis/pairinteraction</text>
<text text-anchor="middle" x="690" y="-13" font-family="Helvetica,sans-Serif" font-size="10.00" fill="#000000">/SystemTwo.cpp</text>
</a>
</g>
</g>
<!-- Node61&#45;&gt;Node62 -->
<g id="edge11" class="edge">
<title>Node61&#45;&gt;Node62</title>
<path fill="none" stroke="#191970" d="M690,-68.3409C690,-57.5601 690,-45.3309 690,-36.0028"/>
<polygon fill="#191970" stroke="#191970" points="686.5001,-68.4779 690,-78.478 693.5001,-68.478 686.5001,-68.4779"/>
</g>
<!-- Node61&#45;&gt;Node63 -->
<g id="edge12" class="edge">
<title>Node61&#45;&gt;Node63</title>
<path fill="none" stroke="#191970" d="M619.1474,-76.0871C569.3794,-63.8559 503.4906,-47.6629 456.0459,-36.0028"/>
<polygon fill="#191970" stroke="#191970" points="618.3294,-79.4901 628.8758,-78.478 620.0001,-72.6924 618.3294,-79.4901"/>
</g>
</g>
</svg>
        <g id="navigator" transform="translate(0 0)" fill="#404254">
                <rect fill="#f2f5e9" fill-opacity="0.5" stroke="#606060" stroke-width=".5" x="0" y="0" width="60" height="60"/>
                <use id="zoomplus" xlink:href="#zoomPlus" x="17" y="9" onmousedown="handleZoom(evt,'in')"/>
                <use id="zoomminus" xlink:href="#zoomMin" x="42" y="9" onmousedown="handleZoom(evt,'out')"/>
                <use id="reset" xlink:href="#resetDef" x="30" y="36" onmousedown="handleReset()"/>
                <g id="arrowUp" xlink:href="#dirArrow" transform="translate(30 24)" onmousedown="handlePan(0,-1)">
                  <use xlink:href="#rim" fill="#404040">
                        <set attributeName="fill" to="#808080" begin="arrowUp.mouseover" end="arrowUp.mouseout"/>
                  </use>
                  <path fill="none" stroke="white" stroke-width="1.5" d="M0,-3.0v7 M-2.5,-0.5L0,-3.0L2.5,-0.5"/>
                </g>
                <g id="arrowRight" xlink:href="#dirArrow" transform="rotate(90) translate(36 -43)" onmousedown="handlePan(1,0)">
                  <use xlink:href="#rim" fill="#404040">
                        <set attributeName="fill" to="#808080" begin="arrowRight.mouseover" end="arrowRight.mouseout"/>
                  </use>
                  <path fill="none" stroke="white" stroke-width="1.5" d="M0,-3.0v7 M-2.5,-0.5L0,-3.0L2.5,-0.5"/>
                </g>
                <g id="arrowDown" xlink:href="#dirArrow" transform="rotate(180) translate(-30 -48)" onmousedown="handlePan(0,1)">
                  <use xlink:href="#rim" fill="#404040">
                        <set attributeName="fill" to="#808080" begin="arrowDown.mouseover" end="arrowDown.mouseout"/>
                  </use>
                  <path fill="none" stroke="white" stroke-width="1.5" d="M0,-3.0v7 M-2.5,-0.5L0,-3.0L2.5,-0.5"/>
                </g>
                <g id="arrowLeft" xlink:href="#dirArrow" transform="rotate(270) translate(-36 17)" onmousedown="handlePan(-1,0)">
                  <use xlink:href="#rim" fill="#404040">
                        <set attributeName="fill" to="#808080" begin="arrowLeft.mouseover" end="arrowLeft.mouseout"/>
                  </use>
                  <path fill="none" stroke="white" stroke-width="1.5" d="M0,-3.0v7 M-2.5,-0.5L0,-3.0L2.5,-0.5"/>
                </g>
        </g>
        <svg viewBox="0 0 15 15" width="100%" height="30px" preserveAspectRatio="xMaxYMin meet">
         <g id="arrow_out" transform="scale(0.3 0.3)">
          <a xlink:href="State_8h__dep__incl_org.svg" target="_base">
           <rect id="button" ry="5" rx="5" y="6" x="6" height="38" width="38"
                fill="#f2f5e9" fill-opacity="0.5" stroke="#606060" stroke-width="1.0"/>
           <path id="arrow"
             d="M 11.500037,31.436501 C 11.940474,20.09759 22.043105,11.32322 32.158766,21.979434 L 37.068811,17.246167 C 37.068811,17.246167 37.088388,32 37.088388,32 L 22.160133,31.978069 C 22.160133,31.978069 26.997745,27.140456 26.997745,27.140456 C 18.528582,18.264221 13.291696,25.230495 11.500037,31.436501 z"
             style="fill:#404040;"/>
          </a>
         </g>
        </svg>
</svg>
