<?xml version="1.0" encoding="UTF-8" standalone="no"?>
<!DOCTYPE svg PUBLIC "-//W3C//DTD SVG 1.1//EN"
 "http://www.w3.org/Graphics/SVG/1.1/DTD/svg11.dtd">
<!-- Generated by graphviz version 2.40.1 (20161225.0304)
 -->
<!-- Title: /travis/pairinteraction/StateOld.cpp Pages: 1 -->
<svg width="1663pt" height="285pt"
 viewBox="0.00 0.00 1662.50 285.00" xmlns="http://www.w3.org/2000/svg" xmlns:xlink="http://www.w3.org/1999/xlink">
<g id="graph0" class="graph" transform="scale(1 1) rotate(0) translate(4 281)">
<title>/travis/pairinteraction/StateOld.cpp</title>
<!-- Node0 -->
<g id="node1" class="node">
<title>Node0</title>
<polygon fill="#bfbfbf" stroke="#000000" points="823,-246.5 823,-276.5 945,-276.5 945,-246.5 823,-246.5"/>
<text text-anchor="start" x="831" y="-264.5" font-family="Helvetica,sans-Serif" font-size="10.00" fill="#000000">/travis/pairinteraction</text>
<text text-anchor="middle" x="884" y="-253.5" font-family="Helvetica,sans-Serif" font-size="10.00" fill="#000000">/StateOld.cpp</text>
</g>
<!-- Node1 -->
<g id="node2" class="node">
<title>Node1</title>
<g id="a_node2"><a xlink:href="StateOld_8h.html" target="_top" xlink:title="StateOld.h">
<polygon fill="none" stroke="#000000" points="547,-190.5 547,-209.5 615,-209.5 615,-190.5 547,-190.5"/>
<text text-anchor="middle" x="581" y="-197.5" font-family="Helvetica,sans-Serif" font-size="10.00" fill="#000000">StateOld.h</text>
</a>
</g>
</g>
<!-- Node0&#45;&gt;Node1 -->
<g id="edge1" class="edge">
<title>Node0&#45;&gt;Node1</title>
<path fill="none" stroke="#191970" d="M822.6834,-249.0546C764.1592,-237.1759 677.4053,-219.5674 625.3132,-208.9943"/>
<polygon fill="#191970" stroke="#191970" points="625.872,-205.5364 615.3756,-206.9772 624.4795,-212.3965 625.872,-205.5364"/>
</g>
<!-- Node2 -->
<g id="node3" class="node">
<title>Node2</title>
<g id="a_node3"><a xlink:href="dtypes_8h.html" target="_top" xlink:title="dtypes.h">
<polygon fill="none" stroke="#000000" points="273.5,-129 273.5,-148 332.5,-148 332.5,-129 273.5,-129"/>
<text text-anchor="middle" x="303" y="-136" font-family="Helvetica,sans-Serif" font-size="10.00" fill="#000000">dtypes.h</text>
</a>
</g>
</g>
<!-- Node0&#45;&gt;Node2 -->
<g id="edge46" class="edge">
<title>Node0&#45;&gt;Node2</title>
<path fill="none" stroke="#191970" d="M822.6657,-259.78C707.1901,-255.7906 462.1792,-243.5419 385,-210 357.4149,-198.0116 332.4193,-173.272 317.4653,-156.2834"/>
<polygon fill="#191970" stroke="#191970" points="319.746,-153.5628 310.6001,-148.2146 314.4146,-158.0989 319.746,-153.5628"/>
</g>
<!-- Node5 -->
<g id="node6" class="node">
<title>Node5</title>
<polygon fill="none" stroke="#bfbfbf" points="0,-62 0,-81 42,-81 42,-62 0,-62"/>
<text text-anchor="middle" x="21" y="-69" font-family="Helvetica,sans-Serif" font-size="10.00" fill="#000000">array</text>
</g>
<!-- Node0&#45;&gt;Node5 -->
<g id="edge47" class="edge">
<title>Node0&#45;&gt;Node5</title>
<path fill="none" stroke="#191970" d="M822.7867,-258.9527C723.1921,-254.0565 520.1808,-240.9391 351,-210 257.6696,-192.9321 231.3887,-193.2284 145,-154 105.3347,-135.9884 64.1721,-105.9524 40.6624,-87.5199"/>
<polygon fill="#191970" stroke="#191970" points="42.5614,-84.5583 32.5563,-81.0728 38.2041,-90.0368 42.5614,-84.5583"/>
</g>
<!-- Node10 -->
<g id="node11" class="node">
<title>Node10</title>
<polygon fill="none" stroke="#bfbfbf" points="546,-62 546,-81 606,-81 606,-62 546,-62"/>
<text text-anchor="middle" x="576" y="-69" font-family="Helvetica,sans-Serif" font-size="10.00" fill="#000000">iostream</text>
</g>
<!-- Node0&#45;&gt;Node10 -->
<g id="edge50" class="edge">
<title>Node0&#45;&gt;Node10</title>
<path fill="none" stroke="#191970" d="M822.7825,-255.3797C737.8803,-246.3816 589.0645,-228.6231 538,-210 493.3853,-193.7292 470.1653,-195.4558 447,-154 440.2792,-141.9726 439.272,-134.4063 447,-123 447.7159,-121.9434 503.9468,-99.7437 541.9238,-84.8392"/>
<polygon fill="#191970" stroke="#191970" points="543.5831,-87.9481 551.6149,-81.0386 541.0274,-81.4313 543.5831,-87.9481"/>
</g>
<!-- Node11 -->
<g id="node12" class="node">
<title>Node11</title>
<polygon fill="none" stroke="#bfbfbf" points="669,-62 669,-81 713,-81 713,-62 669,-62"/>
<text text-anchor="middle" x="691" y="-69" font-family="Helvetica,sans-Serif" font-size="10.00" fill="#000000">string</text>
</g>
<!-- Node0&#45;&gt;Node11 -->
<g id="edge51" class="edge">
<title>Node0&#45;&gt;Node11</title>
<path fill="none" stroke="#191970" d="M884.2325,-246.2508C883.8075,-217.9501 878.7401,-157.0877 845,-123 804.9301,-82.5173 775.0186,-107.8199 722,-87 720.6348,-86.4639 719.2485,-85.8894 717.8576,-85.2886"/>
<polygon fill="#191970" stroke="#191970" points="719.3275,-82.1123 708.7839,-81.0719 716.3775,-88.4603 719.3275,-82.1123"/>
</g>
<!-- Node15 -->
<g id="node16" class="node">
<title>Node15</title>
<g id="a_node16"><a xlink:href="QuantumDefect_8h.html" target="_top" xlink:title="QuantumDefect.h">
<polygon fill="none" stroke="#000000" points="1089.5,-190.5 1089.5,-209.5 1192.5,-209.5 1192.5,-190.5 1089.5,-190.5"/>
<text text-anchor="middle" x="1141" y="-197.5" font-family="Helvetica,sans-Serif" font-size="10.00" fill="#000000">QuantumDefect.h</text>
</a>
</g>
</g>
<!-- Node0&#45;&gt;Node15 -->
<g id="edge17" class="edge">
<title>Node0&#45;&gt;Node15</title>
<path fill="none" stroke="#191970" d="M945.2314,-246.8474C989.8078,-236.1802 1049.425,-221.9139 1091.1137,-211.9378"/>
<polygon fill="#191970" stroke="#191970" points="1092.1307,-215.2933 1101.0415,-209.562 1090.5015,-208.4855 1092.1307,-215.2933"/>
</g>
<!-- Node28 -->
<g id="node29" class="node">
<title>Node28</title>
<polygon fill="none" stroke="#bfbfbf" points="1306.5,-62 1306.5,-81 1351.5,-81 1351.5,-62 1306.5,-62"/>
<text text-anchor="middle" x="1329" y="-69" font-family="Helvetica,sans-Serif" font-size="10.00" fill="#000000">utility</text>
</g>
<!-- Node0&#45;&gt;Node28 -->
<g id="edge52" class="edge">
<title>Node0&#45;&gt;Node28</title>
<path fill="none" stroke="#191970" d="M945.1977,-256.3254C1024.532,-248.8084 1157.8368,-233.1846 1201,-210 1254.8758,-181.0612 1298.2748,-120.6199 1317.8041,-90.0522"/>
<polygon fill="#191970" stroke="#191970" points="1320.9682,-91.5926 1323.2891,-81.2551 1315.0282,-87.889 1320.9682,-91.5926"/>
</g>
<!-- Node35 -->
<g id="node36" class="node">
<title>Node35</title>
<polygon fill="none" stroke="#bfbfbf" points="1264.5,-190.5 1264.5,-209.5 1313.5,-209.5 1313.5,-190.5 1264.5,-190.5"/>
<text text-anchor="middle" x="1289" y="-197.5" font-family="Helvetica,sans-Serif" font-size="10.00" fill="#000000">cctype</text>
</g>
<!-- Node0&#45;&gt;Node35 -->
<g id="edge48" class="edge">
<title>Node0&#45;&gt;Node35</title>
<path fill="none" stroke="#191970" d="M945.2227,-254.9941C1018.19,-246.7548 1143.6203,-231.055 1250,-210 1251.4571,-209.7116 1252.941,-209.4022 1254.4372,-209.0772"/>
<polygon fill="#191970" stroke="#191970" points="1255.3952,-212.4478 1264.3371,-206.765 1253.8031,-205.6312 1255.3952,-212.4478"/>
</g>
<!-- Node36 -->
<g id="node37" class="node">
<title>Node36</title>
<polygon fill="none" stroke="#bfbfbf" points="1332,-190.5 1332,-209.5 1388,-209.5 1388,-190.5 1332,-190.5"/>
<text text-anchor="middle" x="1360" y="-197.5" font-family="Helvetica,sans-Serif" font-size="10.00" fill="#000000">iomanip</text>
</g>
<!-- Node0&#45;&gt;Node36 -->
<g id="edge49" class="edge">
<title>Node0&#45;&gt;Node36</title>
<path fill="none" stroke="#191970" d="M945.3483,-257.0188C1030.4365,-250.1843 1188.8463,-235.2194 1322,-210 1322.1005,-209.981 1322.2012,-209.9618 1322.302,-209.9425"/>
<polygon fill="#191970" stroke="#191970" points="1322.845,-213.4061 1331.8786,-207.8703 1321.3645,-206.5644 1322.845,-213.4061"/>
</g>
<!-- Node1&#45;&gt;Node2 -->
<g id="edge2" class="edge">
<title>Node1&#45;&gt;Node2</title>
<path fill="none" stroke="#191970" d="M546.9315,-194.8895C501.0593,-187.6492 417.0982,-173.129 347,-154 344.048,-153.1944 341.009,-152.2891 337.973,-151.3309"/>
<polygon fill="#191970" stroke="#191970" points="338.9893,-147.9805 328.3958,-148.1479 336.7816,-154.6232 338.9893,-147.9805"/>
</g>
<!-- Node1&#45;&gt;Node5 -->
<g id="edge9" class="edge">
<title>Node1&#45;&gt;Node5</title>
<path fill="none" stroke="#191970" d="M546.8916,-196.8664C488.4538,-191.0949 365.6559,-177.2055 264,-154 167.2492,-131.9142 142.7565,-124.8053 51,-87 49.8109,-86.5101 48.6053,-85.9903 47.3948,-85.4494"/>
<polygon fill="#191970" stroke="#191970" points="48.7391,-82.2122 38.21,-81.0335 45.7059,-88.521 48.7391,-82.2122"/>
</g>
<!-- Node6 -->
<g id="node7" class="node">
<title>Node6</title>
<polygon fill="none" stroke="#bfbfbf" points="480.5,-62 480.5,-81 527.5,-81 527.5,-62 480.5,-62"/>
<text text-anchor="middle" x="504" y="-69" font-family="Helvetica,sans-Serif" font-size="10.00" fill="#000000">cmath</text>
</g>
<!-- Node1&#45;&gt;Node6 -->
<g id="edge11" class="edge">
<title>Node1&#45;&gt;Node6</title>
<path fill="none" stroke="#191970" d="M546.7115,-192.9552C511.0493,-184.8502 458.7914,-170.5146 447,-154 430.495,-130.8837 458.181,-103.7222 480.4337,-87.0614"/>
<polygon fill="#191970" stroke="#191970" points="482.4989,-89.8874 488.5927,-81.2204 478.4242,-84.1955 482.4989,-89.8874"/>
</g>
<!-- Node9 -->
<g id="node10" class="node">
<title>Node9</title>
<polygon fill="none" stroke="#bfbfbf" points="912.5,-129 912.5,-148 1055.5,-148 1055.5,-129 912.5,-129"/>
<text text-anchor="middle" x="984" y="-136" font-family="Helvetica,sans-Serif" font-size="10.00" fill="#000000">boost/functional/hash.hpp</text>
</g>
<!-- Node1&#45;&gt;Node9 -->
<g id="edge10" class="edge">
<title>Node1&#45;&gt;Node9</title>
<path fill="none" stroke="#191970" d="M615.0122,-194.8095C680.177,-184.865 823.9181,-162.9294 911.5174,-149.5612"/>
<polygon fill="#191970" stroke="#191970" points="912.2926,-152.9835 921.6501,-148.0149 911.2365,-146.0637 912.2926,-152.9835"/>
</g>
<!-- Node1&#45;&gt;Node10 -->
<g id="edge12" class="edge">
<title>Node1&#45;&gt;Node10</title>
<path fill="none" stroke="#191970" d="M546.8431,-192.0838C513.6351,-183.6139 466.6831,-169.3149 456,-154 448.1175,-142.6999 448.4183,-134.5042 456,-123 458.58,-119.0852 507.9451,-98.7207 542.5461,-84.8034"/>
<polygon fill="#191970" stroke="#191970" points="543.8835,-88.0381 551.8627,-81.068 541.2784,-81.5409 543.8835,-88.0381"/>
</g>
<!-- Node1&#45;&gt;Node11 -->
<g id="edge13" class="edge">
<title>Node1&#45;&gt;Node11</title>
<path fill="none" stroke="#191970" d="M615.3976,-198.7834C676.6021,-195.8171 800.493,-185.923 827,-154 835.8016,-143.4 835.0082,-134.2114 827,-123 798.3256,-82.8558 767.497,-106.0736 722,-87 720.8138,-86.5027 719.6096,-85.9804 718.3987,-85.4408"/>
<polygon fill="#191970" stroke="#191970" points="719.7083,-82.1888 709.1706,-81.0905 716.7234,-88.5205 719.7083,-82.1888"/>
</g>
<!-- Node12 -->
<g id="node13" class="node">
<title>Node12</title>
<polygon fill="none" stroke="#bfbfbf" points="465.5,-123.5 465.5,-153.5 572.5,-153.5 572.5,-123.5 465.5,-123.5"/>
<text text-anchor="start" x="473.5" y="-141.5" font-family="Helvetica,sans-Serif" font-size="10.00" fill="#000000">boost/serialization</text>
<text text-anchor="middle" x="519" y="-130.5" font-family="Helvetica,sans-Serif" font-size="10.00" fill="#000000">/array.hpp</text>
</g>
<!-- Node1&#45;&gt;Node12 -->
<g id="edge14" class="edge">
<title>Node1&#45;&gt;Node12</title>
<path fill="none" stroke="#191970" d="M571.3125,-190.3906C563.31,-182.4527 551.635,-170.8718 541.3437,-160.6635"/>
<polygon fill="#191970" stroke="#191970" points="543.7314,-158.1021 534.1669,-153.5446 538.8017,-163.0719 543.7314,-158.1021"/>
</g>
<!-- Node13 -->
<g id="node14" class="node">
<title>Node13</title>
<polygon fill="none" stroke="#bfbfbf" points="590.5,-123.5 590.5,-153.5 697.5,-153.5 697.5,-123.5 590.5,-123.5"/>
<text text-anchor="start" x="598.5" y="-141.5" font-family="Helvetica,sans-Serif" font-size="10.00" fill="#000000">boost/serialization</text>
<text text-anchor="middle" x="644" y="-130.5" font-family="Helvetica,sans-Serif" font-size="10.00" fill="#000000">/string.hpp</text>
</g>
<!-- Node1&#45;&gt;Node13 -->
<g id="edge15" class="edge">
<title>Node1&#45;&gt;Node13</title>
<path fill="none" stroke="#191970" d="M590.8438,-190.3906C598.9753,-182.4527 610.8386,-170.8718 621.2959,-160.6635"/>
<polygon fill="#191970" stroke="#191970" points="623.8776,-163.0345 628.5885,-153.5446 618.9878,-158.0255 623.8776,-163.0345"/>
</g>
<!-- Node14 -->
<g id="node15" class="node">
<title>Node14</title>
<polygon fill="none" stroke="#bfbfbf" points="716,-129 716,-148 818,-148 818,-129 716,-129"/>
<text text-anchor="middle" x="767" y="-136" font-family="Helvetica,sans-Serif" font-size="10.00" fill="#000000">boost/variant.hpp</text>
</g>
<!-- Node1&#45;&gt;Node14 -->
<g id="edge16" class="edge">
<title>Node1&#45;&gt;Node14</title>
<path fill="none" stroke="#191970" d="M610.0625,-190.3906C641.8662,-179.8749 693.0051,-162.966 728.2144,-151.3243"/>
<polygon fill="#191970" stroke="#191970" points="729.7459,-154.5043 738.1416,-148.0419 727.5483,-147.8582 729.7459,-154.5043"/>
</g>
<!-- Node3 -->
<g id="node4" class="node">
<title>Node3</title>
<polygon fill="none" stroke="#bfbfbf" points="60.5,-62 60.5,-81 137.5,-81 137.5,-62 60.5,-62"/>
<text text-anchor="middle" x="99" y="-69" font-family="Helvetica,sans-Serif" font-size="10.00" fill="#000000">Eigen/Dense</text>
</g>
<!-- Node2&#45;&gt;Node3 -->
<g id="edge3" class="edge">
<title>Node2&#45;&gt;Node3</title>
<path fill="none" stroke="#191970" d="M273.7718,-128.9005C238.0211,-117.1589 177.3834,-97.2436 137.7655,-84.2318"/>
<polygon fill="#191970" stroke="#191970" points="138.7669,-80.8768 128.174,-81.0817 136.5826,-87.5273 138.7669,-80.8768"/>
</g>
<!-- Node4 -->
<g id="node5" class="node">
<title>Node4</title>
<polygon fill="none" stroke="#bfbfbf" points="156,-62 156,-81 236,-81 236,-62 156,-62"/>
<text text-anchor="middle" x="196" y="-69" font-family="Helvetica,sans-Serif" font-size="10.00" fill="#000000">Eigen/Sparse</text>
</g>
<!-- Node2&#45;&gt;Node4 -->
<g id="edge4" class="edge">
<title>Node2&#45;&gt;Node4</title>
<path fill="none" stroke="#191970" d="M287.6695,-128.9005C269.9509,-117.8057 240.5772,-99.4128 219.8632,-86.4424"/>
<polygon fill="#191970" stroke="#191970" points="221.6351,-83.4224 211.3021,-81.0817 217.9201,-89.3553 221.6351,-83.4224"/>
</g>
<!-- Node2&#45;&gt;Node5 -->
<g id="edge5" class="edge">
<title>Node2&#45;&gt;Node5</title>
<path fill="none" stroke="#191970" d="M273.1807,-132.0928C259.9594,-129.2715 244.2104,-125.9375 230,-123 150.5316,-106.5725 127.5657,-113.8845 51,-87 49.5826,-86.5023 48.1484,-85.9489 46.7149,-85.356"/>
<polygon fill="#191970" stroke="#191970" points="47.9943,-82.091 37.4517,-81.0406 45.0383,-88.4362 47.9943,-82.091"/>
</g>
<!-- Node2&#45;&gt;Node6 -->
<g id="edge6" class="edge">
<title>Node2&#45;&gt;Node6</title>
<path fill="none" stroke="#191970" d="M329.4433,-128.9143C335.2096,-126.8998 341.2936,-124.8319 347,-123 401.6403,-105.4595 417.3088,-107.2606 471,-87 472.5879,-86.4008 474.2051,-85.7571 475.8281,-85.0848"/>
<polygon fill="#191970" stroke="#191970" points="477.2844,-88.2679 485.0234,-81.0319 474.4611,-81.8625 477.2844,-88.2679"/>
</g>
<!-- Node7 -->
<g id="node8" class="node">
<title>Node7</title>
<polygon fill="none" stroke="#bfbfbf" points="254.5,-56.5 254.5,-86.5 397.5,-86.5 397.5,-56.5 254.5,-56.5"/>
<text text-anchor="start" x="262.5" y="-74.5" font-family="Helvetica,sans-Serif" font-size="10.00" fill="#000000">unsupported/Eigen/CXX11</text>
<text text-anchor="middle" x="326" y="-63.5" font-family="Helvetica,sans-Serif" font-size="10.00" fill="#000000">/Tensor</text>
</g>
<!-- Node2&#45;&gt;Node7 -->
<g id="edge7" class="edge">
<title>Node2&#45;&gt;Node7</title>
<path fill="none" stroke="#191970" d="M306.2953,-128.9005C309.2351,-120.3368 313.6675,-107.4252 317.5843,-96.0152"/>
<polygon fill="#191970" stroke="#191970" points="320.9067,-97.1164 320.8433,-86.5218 314.286,-94.8436 320.9067,-97.1164"/>
</g>
<!-- Node8 -->
<g id="node9" class="node">
<title>Node8</title>
<polygon fill="none" stroke="#bfbfbf" points="415.5,-62 415.5,-81 462.5,-81 462.5,-62 415.5,-62"/>
<text text-anchor="middle" x="439" y="-69" font-family="Helvetica,sans-Serif" font-size="10.00" fill="#000000">vector</text>
</g>
<!-- Node2&#45;&gt;Node8 -->
<g id="edge8" class="edge">
<title>Node2&#45;&gt;Node8</title>
<path fill="none" stroke="#191970" d="M322.4855,-128.9005C345.5113,-117.5569 384.0228,-98.5844 410.4232,-85.5783"/>
<polygon fill="#191970" stroke="#191970" points="412.1269,-88.6407 419.5507,-81.0817 409.0334,-82.3613 412.1269,-88.6407"/>
</g>
<!-- Node15&#45;&gt;Node2 -->
<g id="edge40" class="edge">
<title>Node15&#45;&gt;Node2</title>
<path fill="none" stroke="#191970" d="M1089.3967,-197.1341C975.172,-190.6589 692.3545,-173.9024 456,-154 417.5656,-150.7636 373.7856,-146.2438 342.933,-142.9198"/>
<polygon fill="#191970" stroke="#191970" points="342.9083,-139.3967 332.5892,-141.798 342.1535,-146.3559 342.9083,-139.3967"/>
</g>
<!-- Node15&#45;&gt;Node9 -->
<g id="edge45" class="edge">
<title>Node15&#45;&gt;Node9</title>
<path fill="none" stroke="#191970" d="M1116.4688,-190.3906C1089.9693,-180.0103 1047.5669,-163.4004 1017.893,-151.7766"/>
<polygon fill="#191970" stroke="#191970" points="1018.9467,-148.4304 1008.359,-148.0419 1016.3935,-154.9482 1018.9467,-148.4304"/>
</g>
<!-- Node15&#45;&gt;Node11 -->
<g id="edge42" class="edge">
<title>Node15&#45;&gt;Node11</title>
<path fill="none" stroke="#191970" d="M1132.8015,-190.3197C1116.6049,-171.459 1080.6364,-130.9368 1064,-123 926.0542,-57.1899 868.7061,-129.8638 722,-87 720.2926,-86.5011 718.5661,-85.9108 716.8477,-85.2567"/>
<polygon fill="#191970" stroke="#191970" points="717.8437,-81.8694 707.2839,-81.0076 715.0015,-88.2664 717.8437,-81.8694"/>
</g>
<!-- Node16 -->
<g id="node17" class="node">
<title>Node16</title>
<g id="a_node17"><a xlink:href="Cache_8h.html" target="_top" xlink:title="Cache.h">
<polygon fill="none" stroke="#000000" points="1366,-129 1366,-148 1422,-148 1422,-129 1366,-129"/>
<text text-anchor="middle" x="1394" y="-136" font-family="Helvetica,sans-Serif" font-size="10.00" fill="#000000">Cache.h</text>
</a>
</g>
</g>
<!-- Node15&#45;&gt;Node16 -->
<g id="edge18" class="edge">
<title>Node15&#45;&gt;Node16</title>
<path fill="none" stroke="#191970" d="M1180.2537,-190.4581C1228.0972,-178.8281 1308.4044,-159.3068 1355.7764,-147.7915"/>
<polygon fill="#191970" stroke="#191970" points="1356.7561,-151.1554 1365.6464,-145.3923 1355.1026,-144.3534 1356.7561,-151.1554"/>
</g>
<!-- Node17 -->
<g id="node18" class="node">
<title>Node17</title>
<polygon fill="none" stroke="#bfbfbf" points="1370,-62 1370,-81 1418,-81 1418,-62 1370,-62"/>
<text text-anchor="middle" x="1394" y="-69" font-family="Helvetica,sans-Serif" font-size="10.00" fill="#000000">mutex</text>
</g>
<!-- Node15&#45;&gt;Node17 -->
<g id="edge41" class="edge">
<title>Node15&#45;&gt;Node17</title>
<path fill="none" stroke="#191970" d="M1160.0161,-190.3416C1204.2636,-167.8681 1314.2874,-111.9864 1366.1335,-85.6535"/>
<polygon fill="#191970" stroke="#191970" points="1367.7774,-88.7442 1375.1083,-81.0952 1364.6075,-82.5031 1367.7774,-88.7442"/>
</g>
<!-- Node18 -->
<g id="node19" class="node">
<title>Node18</title>
<polygon fill="none" stroke="#bfbfbf" points="1561.5,-62 1561.5,-81 1654.5,-81 1654.5,-62 1561.5,-62"/>
<text text-anchor="middle" x="1608" y="-69" font-family="Helvetica,sans-Serif" font-size="10.00" fill="#000000">unordered_map</text>
</g>
<!-- Node15&#45;&gt;Node18 -->
<g id="edge44" class="edge">
<title>Node15&#45;&gt;Node18</title>
<path fill="none" stroke="#191970" d="M1192.6732,-194.5927C1283.2771,-184.907 1463.8132,-164.6205 1491,-154 1530.2404,-138.6708 1568.8094,-107.4737 1590.3936,-88.1415"/>
<polygon fill="#191970" stroke="#191970" points="1593.0368,-90.467 1598.053,-81.1349 1588.3121,-85.302 1593.0368,-90.467"/>
</g>
<!-- Node20 -->
<g id="node21" class="node">
<title>Node20</title>
<g id="a_node21"><a xlink:href="SQLite_8h.html" target="_top" xlink:title="SQLite.h">
<polygon fill="none" stroke="#000000" points="1112.5,-129 1112.5,-148 1169.5,-148 1169.5,-129 1112.5,-129"/>
<text text-anchor="middle" x="1141" y="-136" font-family="Helvetica,sans-Serif" font-size="10.00" fill="#000000">SQLite.h</text>
</a>
</g>
</g>
<!-- Node15&#45;&gt;Node20 -->
<g id="edge22" class="edge">
<title>Node15&#45;&gt;Node20</title>
<path fill="none" stroke="#191970" d="M1141,-190.3906C1141,-181.8657 1141,-169.1392 1141,-158.4235"/>
<polygon fill="#191970" stroke="#191970" points="1144.5001,-158.2448 1141,-148.2449 1137.5001,-158.2449 1144.5001,-158.2448"/>
</g>
<!-- Node34 -->
<g id="node35" class="node">
<title>Node34</title>
<polygon fill="none" stroke="#bfbfbf" points="1440.5,-129 1440.5,-148 1481.5,-148 1481.5,-129 1440.5,-129"/>
<text text-anchor="middle" x="1461" y="-136" font-family="Helvetica,sans-Serif" font-size="10.00" fill="#000000">tuple</text>
</g>
<!-- Node15&#45;&gt;Node34 -->
<g id="edge43" class="edge">
<title>Node15&#45;&gt;Node34</title>
<path fill="none" stroke="#191970" d="M1192.7563,-193.8056C1263.8346,-184.9537 1387.7716,-168.1865 1431,-154 1432.4622,-153.5202 1433.9399,-152.9757 1435.4146,-152.3851"/>
<polygon fill="#191970" stroke="#191970" points="1437.2905,-155.3743 1444.9067,-148.0092 1434.3599,-149.0173 1437.2905,-155.3743"/>
</g>
<!-- Node16&#45;&gt;Node17 -->
<g id="edge19" class="edge">
<title>Node16&#45;&gt;Node17</title>
<path fill="none" stroke="#191970" d="M1394,-128.9005C1394,-119.149 1394,-103.7597 1394,-91.3695"/>
<polygon fill="#191970" stroke="#191970" points="1397.5001,-91.0816 1394,-81.0817 1390.5001,-91.0817 1397.5001,-91.0816"/>
</g>
<!-- Node16&#45;&gt;Node18 -->
<g id="edge20" class="edge">
<title>Node16&#45;&gt;Node18</title>
<path fill="none" stroke="#191970" d="M1416.359,-128.935C1421.4619,-126.8766 1426.8878,-124.7853 1432,-123 1444.6624,-118.578 1516.9157,-97.6626 1564.821,-83.8836"/>
<polygon fill="#191970" stroke="#191970" points="1565.9998,-87.1866 1574.6437,-81.0602 1564.066,-80.459 1565.9998,-87.1866"/>
</g>
<!-- Node19 -->
<g id="node20" class="node">
<title>Node19</title>
<polygon fill="none" stroke="#bfbfbf" points="1436.5,-62 1436.5,-81 1543.5,-81 1543.5,-62 1436.5,-62"/>
<text text-anchor="middle" x="1490" y="-69" font-family="Helvetica,sans-Serif" font-size="10.00" fill="#000000">boost/optional.hpp</text>
</g>
<!-- Node16&#45;&gt;Node19 -->
<g id="edge21" class="edge">
<title>Node16&#45;&gt;Node19</title>
<path fill="none" stroke="#191970" d="M1407.7545,-128.9005C1423.4377,-117.9549 1449.2983,-99.9064 1467.8358,-86.9688"/>
<polygon fill="#191970" stroke="#191970" points="1470.0738,-89.675 1476.2711,-81.0817 1466.0676,-83.9347 1470.0738,-89.675"/>
</g>
<!-- Node20&#45;&gt;Node10 -->
<g id="edge23" class="edge">
<title>Node20&#45;&gt;Node10</title>
<path fill="none" stroke="#191970" d="M1112.2443,-131.9313C1097.827,-128.8375 1080.0597,-125.3248 1064,-123 885.5925,-97.1741 838.6105,-111.3824 660,-87 645.7154,-85.05 630.1659,-82.3457 616.3724,-79.7412"/>
<polygon fill="#191970" stroke="#191970" points="616.6985,-76.2397 606.2167,-77.7831 615.3732,-83.1131 616.6985,-76.2397"/>
</g>
<!-- Node20&#45;&gt;Node11 -->
<g id="edge27" class="edge">
<title>Node20&#45;&gt;Node11</title>
<path fill="none" stroke="#191970" d="M1117.6589,-128.8876C1111.3695,-126.6298 1104.5041,-124.4593 1098,-123 934.197,-86.2482 883.3583,-133.3208 722,-87 720.2902,-86.5092 718.5619,-85.925 716.8422,-85.2756"/>
<polygon fill="#191970" stroke="#191970" points="717.8357,-81.8878 707.275,-81.0386 715.0011,-88.2882 717.8357,-81.8878"/>
</g>
<!-- Node21 -->
<g id="node22" class="node">
<title>Node21</title>
<polygon fill="none" stroke="#bfbfbf" points="1089,-62 1089,-81 1147,-81 1147,-62 1089,-62"/>
<text text-anchor="middle" x="1118" y="-69" font-family="Helvetica,sans-Serif" font-size="10.00" fill="#000000">memory</text>
</g>
<!-- Node20&#45;&gt;Node21 -->
<g id="edge24" class="edge">
<title>Node20&#45;&gt;Node21</title>
<path fill="none" stroke="#191970" d="M1137.7047,-128.9005C1134.2888,-118.95 1128.8578,-103.1292 1124.5618,-90.6147"/>
<polygon fill="#191970" stroke="#191970" points="1127.8465,-89.4035 1121.2892,-81.0817 1121.2258,-91.6763 1127.8465,-89.4035"/>
</g>
<!-- Node22 -->
<g id="node23" class="node">
<title>Node22</title>
<polygon fill="none" stroke="#bfbfbf" points="1089,-.5 1089,-19.5 1143,-19.5 1143,-.5 1089,-.5"/>
<text text-anchor="middle" x="1116" y="-7.5" font-family="Helvetica,sans-Serif" font-size="10.00" fill="#000000">random</text>
</g>
<!-- Node20&#45;&gt;Node22 -->
<g id="edge25" class="edge">
<title>Node20&#45;&gt;Node22</title>
<path fill="none" stroke="#191970" d="M1146.1187,-128.5469C1153.5288,-112.7323 1165.3827,-81.0892 1156,-56 1151.8851,-44.9969 1143.8185,-34.8874 1136.0006,-26.9652"/>
<polygon fill="#191970" stroke="#191970" points="1138.0985,-24.1329 1128.4212,-19.82 1133.2968,-29.2264 1138.0985,-24.1329"/>
</g>
<!-- Node23 -->
<g id="node24" class="node">
<title>Node23</title>
<polygon fill="none" stroke="#bfbfbf" points="731,-62 731,-81 787,-81 787,-62 731,-62"/>
<text text-anchor="middle" x="759" y="-69" font-family="Helvetica,sans-Serif" font-size="10.00" fill="#000000">sstream</text>
</g>
<!-- Node20&#45;&gt;Node23 -->
<g id="edge26" class="edge">
<title>Node20&#45;&gt;Node23</title>
<path fill="none" stroke="#191970" d="M1117.6354,-128.9896C1111.3462,-126.731 1104.4867,-124.5346 1098,-123 966.4585,-91.8802 926.7097,-121.4467 796,-87 793.5251,-86.3478 790.9982,-85.5634 788.4853,-84.6982"/>
<polygon fill="#191970" stroke="#191970" points="789.5928,-81.3745 779.0023,-81.0697 787.0912,-87.9123 789.5928,-81.3745"/>
</g>
<!-- Node24 -->
<g id="node25" class="node">
<title>Node24</title>
<polygon fill="none" stroke="#bfbfbf" points="805,-62 805,-81 853,-81 853,-62 805,-62"/>
<text text-anchor="middle" x="829" y="-69" font-family="Helvetica,sans-Serif" font-size="10.00" fill="#000000">thread</text>
</g>
<!-- Node20&#45;&gt;Node24 -->
<g id="edge28" class="edge">
<title>Node20&#45;&gt;Node24</title>
<path fill="none" stroke="#191970" d="M1117.15,-128.9717C1110.9853,-126.7673 1104.3069,-124.6015 1098,-123 995.1615,-96.8865 963.5113,-117.8729 862,-87 860.1378,-86.4337 858.2469,-85.7797 856.361,-85.0674"/>
<polygon fill="#191970" stroke="#191970" points="857.7025,-81.8347 847.1295,-81.1548 854.9708,-88.2797 857.7025,-81.8347"/>
</g>
<!-- Node25 -->
<g id="node26" class="node">
<title>Node25</title>
<polygon fill="none" stroke="#bfbfbf" points="1161.5,-.5 1161.5,-19.5 1230.5,-19.5 1230.5,-.5 1161.5,-.5"/>
<text text-anchor="middle" x="1196" y="-7.5" font-family="Helvetica,sans-Serif" font-size="10.00" fill="#000000">type_traits</text>
</g>
<!-- Node20&#45;&gt;Node25 -->
<g id="edge29" class="edge">
<title>Node20&#45;&gt;Node25</title>
<path fill="none" stroke="#191970" d="M1147.9234,-128.6313C1154.7614,-118.5416 1165.1611,-102.2325 1172,-87 1180.4808,-68.1105 1187.1719,-45.3514 1191.3111,-29.4959"/>
<polygon fill="#191970" stroke="#191970" points="1194.7164,-30.3059 1193.7597,-19.7543 1187.9275,-28.5994 1194.7164,-30.3059"/>
</g>
<!-- Node26 -->
<g id="node27" class="node">
<title>Node26</title>
<polygon fill="none" stroke="#bfbfbf" points="871,-56.5 871,-86.5 993,-86.5 993,-56.5 871,-56.5"/>
<text text-anchor="start" x="879" y="-74.5" font-family="Helvetica,sans-Serif" font-size="10.00" fill="#000000">boost/iterator/iterator</text>
<text text-anchor="middle" x="932" y="-63.5" font-family="Helvetica,sans-Serif" font-size="10.00" fill="#000000">_facade.hpp</text>
</g>
<!-- Node20&#45;&gt;Node26 -->
<g id="edge30" class="edge">
<title>Node20&#45;&gt;Node26</title>
<path fill="none" stroke="#191970" d="M1115.1442,-128.9663C1109.5097,-126.9485 1103.5678,-124.8661 1098,-123 1063.277,-111.3621 1024.1679,-99.184 992.6356,-89.5936"/>
<polygon fill="#191970" stroke="#191970" points="993.2646,-86.127 982.6792,-86.5747 991.2334,-92.8259 993.2646,-86.127"/>
</g>
<!-- Node27 -->
<g id="node28" class="node">
<title>Node27</title>
<polygon fill="none" stroke="#bfbfbf" points="1011.5,-62 1011.5,-81 1070.5,-81 1070.5,-62 1011.5,-62"/>
<text text-anchor="middle" x="1041" y="-69" font-family="Helvetica,sans-Serif" font-size="10.00" fill="#000000">sqlite3.h</text>
</g>
<!-- Node20&#45;&gt;Node27 -->
<g id="edge31" class="edge">
<title>Node20&#45;&gt;Node27</title>
<path fill="none" stroke="#191970" d="M1126.6724,-128.9005C1110.2615,-117.9052 1083.1525,-99.7422 1063.8249,-86.7927"/>
<polygon fill="#191970" stroke="#191970" points="1065.5569,-83.7402 1055.301,-81.0817 1061.6605,-89.5556 1065.5569,-83.7402"/>
</g>
<!-- Node20&#45;&gt;Node28 -->
<g id="edge32" class="edge">
<title>Node20&#45;&gt;Node28</title>
<path fill="none" stroke="#191970" d="M1166.8666,-128.9983C1172.5004,-126.9786 1178.4393,-124.8873 1184,-123 1233.913,-106.06 1248.0457,-106.5384 1297,-87 1298.3616,-86.4565 1299.746,-85.8805 1301.1373,-85.2827"/>
<polygon fill="#191970" stroke="#191970" points="1302.5985,-88.4631 1310.2488,-81.1336 1299.6975,-82.0925 1302.5985,-88.4631"/>
</g>
<!-- Node29 -->
<g id="node30" class="node">
<title>Node29</title>
<g id="a_node30"><a xlink:href="utils_8h.html" target="_top" xlink:title="utils.h">
<polygon fill="none" stroke="#000000" points="1241.5,-62 1241.5,-81 1288.5,-81 1288.5,-62 1241.5,-62"/>
<text text-anchor="middle" x="1265" y="-69" font-family="Helvetica,sans-Serif" font-size="10.00" fill="#000000">utils.h</text>
</a>
</g>
</g>
<!-- Node20&#45;&gt;Node29 -->
<g id="edge33" class="edge">
<title>Node20&#45;&gt;Node29</title>
<path fill="none" stroke="#191970" d="M1158.7662,-128.9005C1179.5762,-117.6564 1214.2588,-98.9166 1238.3087,-85.9219"/>
<polygon fill="#191970" stroke="#191970" points="1240.1327,-88.9147 1247.2668,-81.0817 1236.8051,-82.7561 1240.1327,-88.9147"/>
</g>
<!-- Node29&#45;&gt;Node22 -->
<g id="edge37" class="edge">
<title>Node29&#45;&gt;Node22</title>
<path fill="none" stroke="#191970" d="M1241.7188,-61.8906C1216.679,-51.5554 1176.6775,-35.0447 1148.534,-23.4284"/>
<polygon fill="#191970" stroke="#191970" points="1149.6967,-20.122 1139.1178,-19.5419 1147.026,-26.5925 1149.6967,-20.122"/>
</g>
<!-- Node29&#45;&gt;Node25 -->
<g id="edge38" class="edge">
<title>Node29&#45;&gt;Node25</title>
<path fill="none" stroke="#191970" d="M1254.2188,-61.8906C1243.6474,-52.4683 1227.3175,-37.9134 1214.6397,-26.6137"/>
<polygon fill="#191970" stroke="#191970" points="1216.7272,-23.7858 1206.9333,-19.7449 1212.0696,-29.0114 1216.7272,-23.7858"/>
</g>
<!-- Node30 -->
<g id="node31" class="node">
<title>Node30</title>
<polygon fill="none" stroke="#bfbfbf" points="1406,-.5 1406,-19.5 1470,-19.5 1470,-.5 1406,-.5"/>
<text text-anchor="middle" x="1438" y="-7.5" font-family="Helvetica,sans-Serif" font-size="10.00" fill="#000000">algorithm</text>
</g>
<!-- Node29&#45;&gt;Node30 -->
<g id="edge34" class="edge">
<title>Node29&#45;&gt;Node30</title>
<path fill="none" stroke="#191970" d="M1283.7602,-61.8888C1288.0608,-59.8328 1292.6488,-57.7541 1297,-56 1329.7916,-42.7803 1367.9709,-30.5081 1396.3245,-21.9701"/>
<polygon fill="#191970" stroke="#191970" points="1397.3352,-25.3211 1405.9188,-19.1104 1395.3357,-18.6127 1397.3352,-25.3211"/>
</g>
<!-- Node31 -->
<g id="node32" class="node">
<title>Node31</title>
<polygon fill="none" stroke="#bfbfbf" points="1488.5,-.5 1488.5,-19.5 1547.5,-19.5 1547.5,-.5 1488.5,-.5"/>
<text text-anchor="middle" x="1518" y="-7.5" font-family="Helvetica,sans-Serif" font-size="10.00" fill="#000000">complex</text>
</g>
<!-- Node29&#45;&gt;Node31 -->
<g id="edge35" class="edge">
<title>Node29&#45;&gt;Node31</title>
<path fill="none" stroke="#191970" d="M1282.6015,-61.98C1287.1921,-59.7755 1292.2002,-57.6075 1297,-56 1372.1333,-30.8365 1396.6764,-37.6411 1478.0219,-20.0811"/>
<polygon fill="#191970" stroke="#191970" points="1479.227,-23.3989 1488.2309,-17.8151 1477.7101,-16.5652 1479.227,-23.3989"/>
</g>
<!-- Node32 -->
<g id="node33" class="node">
<title>Node32</title>
<polygon fill="none" stroke="#bfbfbf" points="1248.5,-.5 1248.5,-19.5 1313.5,-19.5 1313.5,-.5 1248.5,-.5"/>
<text text-anchor="middle" x="1281" y="-7.5" font-family="Helvetica,sans-Serif" font-size="10.00" fill="#000000">functional</text>
</g>
<!-- Node29&#45;&gt;Node32 -->
<g id="edge36" class="edge">
<title>Node29&#45;&gt;Node32</title>
<path fill="none" stroke="#191970" d="M1267.5,-61.8906C1269.7412,-53.276 1273.0986,-40.3708 1275.9045,-29.5858"/>
<polygon fill="#191970" stroke="#191970" points="1279.3341,-30.304 1278.4648,-19.7449 1272.5596,-28.5414 1279.3341,-30.304"/>
</g>
<!-- Node33 -->
<g id="node34" class="node">
<title>Node33</title>
<polygon fill="none" stroke="#bfbfbf" points="1332,-.5 1332,-19.5 1388,-19.5 1388,-.5 1332,-.5"/>
<text text-anchor="middle" x="1360" y="-7.5" font-family="Helvetica,sans-Serif" font-size="10.00" fill="#000000">unistd.h</text>
</g>
<!-- Node29&#45;&gt;Node33 -->
<g id="edge39" class="edge">
<title>Node29&#45;&gt;Node33</title>
<path fill="none" stroke="#191970" d="M1279.8438,-61.8906C1295.0418,-52.0519 1318.8848,-36.6167 1336.6206,-25.1351"/>
<polygon fill="#191970" stroke="#191970" points="1338.768,-27.9144 1345.2605,-19.5419 1334.9639,-22.0382 1338.768,-27.9144"/>
</g>
</g>
</svg>
