<?xml version="1.0" encoding="UTF-8" standalone="no"?>
<!DOCTYPE svg PUBLIC "-//W3C//DTD SVG 1.1//EN"
 "http://www.w3.org/Graphics/SVG/1.1/DTD/svg11.dtd">
<!-- Generated by graphviz version 2.40.1 (20161225.0304)
 -->
<!-- Title: operator&lt;&lt; Pages: 1 -->
<svg width="239pt" height="256pt"
 viewBox="0.00 0.00 239.00 256.00" xmlns="http://www.w3.org/2000/svg" xmlns:xlink="http://www.w3.org/1999/xlink">
<g id="graph0" class="graph" transform="scale(1 1) rotate(0) translate(4 252)">
<title>operator&lt;&lt;</title>
<!-- Node0 -->
<g id="node1" class="node">
<title>Node0</title>
<polygon fill="#bfbfbf" stroke="#000000" points="0,-114.5 0,-133.5 74,-133.5 74,-114.5 0,-114.5"/>
<text text-anchor="middle" x="37" y="-121.5" font-family="Helvetica,sans-Serif" font-size="10.00" fill="#000000">operator&lt;&lt;</text>
</g>
<!-- Node1 -->
<g id="node2" class="node">
<title>Node1</title>
<g id="a_node2"><a xlink:href="classStateOne.html#aedba5bfce70f73fa324b9d5ae1115578" target="_top" xlink:title="StateOne::getJ">
<polygon fill="none" stroke="#000000" points="127.5,-228.5 127.5,-247.5 213.5,-247.5 213.5,-228.5 127.5,-228.5"/>
<text text-anchor="middle" x="170.5" y="-235.5" font-family="Helvetica,sans-Serif" font-size="10.00" fill="#000000">StateOne::getJ</text>
</a>
</g>
</g>
<!-- Node0&#45;&gt;Node1 -->
<g id="edge1" class="edge">
<title>Node0&#45;&gt;Node1</title>
<path fill="none" stroke="#191970" d="M41.7962,-133.6537C51.8004,-152.8071 76.7539,-195.766 110,-219 112.8383,-220.9836 115.8925,-222.7665 119.0666,-224.3682"/>
<polygon fill="#191970" stroke="#191970" points="117.6878,-227.5854 128.2498,-228.4184 120.5125,-221.1806 117.6878,-227.5854"/>
</g>
<!-- Node2 -->
<g id="node3" class="node">
<title>Node2</title>
<g id="a_node3"><a xlink:href="classStateOne.html#a3783cebe5bbd63f072caf8450fea4aca" target="_top" xlink:title="StateOne::getL">
<polygon fill="none" stroke="#000000" points="126,-190.5 126,-209.5 215,-209.5 215,-190.5 126,-190.5"/>
<text text-anchor="middle" x="170.5" y="-197.5" font-family="Helvetica,sans-Serif" font-size="10.00" fill="#000000">StateOne::getL</text>
</a>
</g>
</g>
<!-- Node0&#45;&gt;Node2 -->
<g id="edge2" class="edge">
<title>Node0&#45;&gt;Node2</title>
<path fill="none" stroke="#191970" d="M47.0472,-133.7938C60.4078,-146.3333 85.2304,-167.9906 110,-181 114.2246,-183.2188 118.7529,-185.231 123.3611,-187.0428"/>
<polygon fill="#191970" stroke="#191970" points="122.2661,-190.3686 132.8603,-190.4826 124.6495,-183.7869 122.2661,-190.3686"/>
</g>
<!-- Node3 -->
<g id="node4" class="node">
<title>Node3</title>
<g id="a_node4"><a xlink:href="classStateOne.html#a03013e84d149334796ea8525b1bb39dc" target="_top" xlink:title="StateOne::getLabel">
<polygon fill="none" stroke="#000000" points="115.5,-152.5 115.5,-171.5 225.5,-171.5 225.5,-152.5 115.5,-152.5"/>
<text text-anchor="middle" x="170.5" y="-159.5" font-family="Helvetica,sans-Serif" font-size="10.00" fill="#000000">StateOne::getLabel</text>
</a>
</g>
</g>
<!-- Node0&#45;&gt;Node3 -->
<g id="edge3" class="edge">
<title>Node0&#45;&gt;Node3</title>
<path fill="none" stroke="#191970" d="M70.6877,-133.589C87.7632,-138.4494 108.7004,-144.4091 126.9816,-149.6127"/>
<polygon fill="#191970" stroke="#191970" points="126.2469,-153.0426 136.8231,-152.4141 128.1634,-146.31 126.2469,-153.0426"/>
</g>
<!-- Node4 -->
<g id="node5" class="node">
<title>Node4</title>
<g id="a_node5"><a xlink:href="classStateOne.html#aab2b41262381d67893113ed6f5ad18bc" target="_top" xlink:title="StateOne::getM">
<polygon fill="none" stroke="#000000" points="124.5,-114.5 124.5,-133.5 216.5,-133.5 216.5,-114.5 124.5,-114.5"/>
<text text-anchor="middle" x="170.5" y="-121.5" font-family="Helvetica,sans-Serif" font-size="10.00" fill="#000000">StateOne::getM</text>
</a>
</g>
</g>
<!-- Node0&#45;&gt;Node4 -->
<g id="edge4" class="edge">
<title>Node0&#45;&gt;Node4</title>
<path fill="none" stroke="#191970" d="M74.1872,-124C86.6062,-124 100.7361,-124 114.2736,-124"/>
<polygon fill="#191970" stroke="#191970" points="114.4722,-127.5001 124.4722,-124 114.4722,-120.5001 114.4722,-127.5001"/>
</g>
<!-- Node5 -->
<g id="node6" class="node">
<title>Node5</title>
<g id="a_node6"><a xlink:href="classStateOne.html#a7deae740570ef5262e7fd2d254a8c530" target="_top" xlink:title="StateOne::getN">
<polygon fill="none" stroke="#000000" points="125,-76.5 125,-95.5 216,-95.5 216,-76.5 125,-76.5"/>
<text text-anchor="middle" x="170.5" y="-83.5" font-family="Helvetica,sans-Serif" font-size="10.00" fill="#000000">StateOne::getN</text>
</a>
</g>
</g>
<!-- Node0&#45;&gt;Node5 -->
<g id="edge5" class="edge">
<title>Node0&#45;&gt;Node5</title>
<path fill="none" stroke="#191970" d="M70.6877,-114.411C87.7632,-109.5506 108.7004,-103.5909 126.9816,-98.3873"/>
<polygon fill="#191970" stroke="#191970" points="128.1634,-101.69 136.8231,-95.5859 126.2469,-94.9574 128.1634,-101.69"/>
</g>
<!-- Node6 -->
<g id="node7" class="node">
<title>Node6</title>
<g id="a_node7"><a xlink:href="classStateOne.html#a45b245f5da0068df4ff72093c654da89" target="_top" xlink:title="StateOne::getSpecies">
<polygon fill="none" stroke="#000000" points="110,-38.5 110,-57.5 231,-57.5 231,-38.5 110,-38.5"/>
<text text-anchor="middle" x="170.5" y="-45.5" font-family="Helvetica,sans-Serif" font-size="10.00" fill="#000000">StateOne::getSpecies</text>
</a>
</g>
</g>
<!-- Node0&#45;&gt;Node6 -->
<g id="edge6" class="edge">
<title>Node0&#45;&gt;Node6</title>
<path fill="none" stroke="#191970" d="M47.0472,-114.2062C60.4078,-101.6667 85.2304,-80.0094 110,-67 114.2246,-64.7812 118.7529,-62.769 123.3611,-60.9572"/>
<polygon fill="#191970" stroke="#191970" points="124.6495,-64.2131 132.8603,-57.5174 122.2661,-57.6314 124.6495,-64.2131"/>
</g>
<!-- Node7 -->
<g id="node8" class="node">
<title>Node7</title>
<g id="a_node8"><a xlink:href="classStateOne.html#afadd4cdf8426dd3a5cbf7b060b4415ca" target="_top" xlink:title="StateOne::isArtificial">
<polygon fill="none" stroke="#000000" points="112,-.5 112,-19.5 229,-19.5 229,-.5 112,-.5"/>
<text text-anchor="middle" x="170.5" y="-7.5" font-family="Helvetica,sans-Serif" font-size="10.00" fill="#000000">StateOne::isArtificial</text>
</a>
</g>
</g>
<!-- Node0&#45;&gt;Node7 -->
<g id="edge7" class="edge">
<title>Node0&#45;&gt;Node7</title>
<path fill="none" stroke="#191970" d="M41.7962,-114.3463C51.8004,-95.1929 76.7539,-52.234 110,-29 112.8383,-27.0164 115.8925,-25.2335 119.0666,-23.6318"/>
<polygon fill="#191970" stroke="#191970" points="120.5125,-26.8194 128.2498,-19.5816 117.6878,-20.4146 120.5125,-26.8194"/>
</g>
</g>
</svg>
