<?xml version="1.0" encoding="UTF-8" standalone="no"?>
<!DOCTYPE svg PUBLIC "-//W3C//DTD SVG 1.1//EN"
 "http://www.w3.org/Graphics/SVG/1.1/DTD/svg11.dtd">
<!-- Generated by graphviz version 2.40.1 (20161225.0304)
 -->
<!-- Title: Fixture&lt; l &gt; Pages: 1 -->
<svg width="178pt" height="250pt"
 viewBox="0.00 0.00 178.00 250.00" xmlns="http://www.w3.org/2000/svg" xmlns:xlink="http://www.w3.org/1999/xlink">
<g id="graph0" class="graph" transform="scale(1 1) rotate(0) translate(4 246)">
<title>Fixture&lt; l &gt;</title>
<!-- Node1 -->
<g id="node1" class="node">
<title>Node1</title>
<polygon fill="#bfbfbf" stroke="#000000" points="45,-.5 45,-19.5 121,-19.5 121,-.5 45,-.5"/>
<text text-anchor="middle" x="83" y="-7.5" font-family="Helvetica,sans-Serif" font-size="10.00" fill="#000000">Fixture&lt; l &gt;</text>
</g>
<!-- Node2 -->
<g id="node2" class="node">
<title>Node2</title>
<g id="a_node2"><a xlink:href="classQuantumDefect.html" target="_top" xlink:title="Quantum defect storage. ">
<polygon fill="none" stroke="#000000" points="36,-67.5 36,-86.5 130,-86.5 130,-67.5 36,-67.5"/>
<text text-anchor="middle" x="83" y="-74.5" font-family="Helvetica,sans-Serif" font-size="10.00" fill="#000000">QuantumDefect</text>
</a>
</g>
</g>
<!-- Node2&#45;&gt;Node1 -->
<g id="edge1" class="edge">
<title>Node2&#45;&gt;Node1</title>
<path fill="none" stroke="#9a32cd" stroke-dasharray="5,2" d="M83,-57.1079C83,-44.714 83,-29.3263 83,-19.5817"/>
<polygon fill="#9a32cd" stroke="#9a32cd" points="79.5001,-57.4005 83,-67.4005 86.5001,-57.4006 79.5001,-57.4005"/>
<text text-anchor="middle" x="91" y="-41" font-family="Helvetica,sans-Serif" font-size="10.00" fill="#000000"> qd</text>
</g>
<!-- Node3 -->
<g id="node3" class="node">
<title>Node3</title>
<g id="a_node3"><a xlink:href="classdouble.html" target="_top" xlink:title="double">
<polygon fill="none" stroke="#000000" points="0,-222.5 0,-241.5 50,-241.5 50,-222.5 0,-222.5"/>
<text text-anchor="middle" x="25" y="-229.5" font-family="Helvetica,sans-Serif" font-size="10.00" fill="#000000">double</text>
</a>
</g>
</g>
<!-- Node3&#45;&gt;Node2 -->
<g id="edge2" class="edge">
<title>Node3&#45;&gt;Node2</title>
<path fill="none" stroke="#9a32cd" stroke-dasharray="5,2" d="M23.6494,-211.9694C22.817,-185.52 24.707,-138.399 45,-105 49.5956,-97.4364 57.0769,-91.2712 64.1911,-86.6706"/>
<polygon fill="#9a32cd" stroke="#9a32cd" points="20.1671,-212.4231 24.1469,-222.242 27.1589,-212.0843 20.1671,-212.4231"/>
<text text-anchor="middle" x="62" y="-196" font-family="Helvetica,sans-Serif" font-size="10.00" fill="#000000"> rc</text>
<text text-anchor="middle" x="62" y="-185" font-family="Helvetica,sans-Serif" font-size="10.00" fill="#000000">ac</text>
<text text-anchor="middle" x="62" y="-174" font-family="Helvetica,sans-Serif" font-size="10.00" fill="#000000">a1</text>
<text text-anchor="middle" x="62" y="-163" font-family="Helvetica,sans-Serif" font-size="10.00" fill="#000000">a2</text>
<text text-anchor="middle" x="62" y="-152" font-family="Helvetica,sans-Serif" font-size="10.00" fill="#000000">j</text>
<text text-anchor="middle" x="62" y="-141" font-family="Helvetica,sans-Serif" font-size="10.00" fill="#000000">a3</text>
<text text-anchor="middle" x="62" y="-130" font-family="Helvetica,sans-Serif" font-size="10.00" fill="#000000">energy</text>
<text text-anchor="middle" x="62" y="-119" font-family="Helvetica,sans-Serif" font-size="10.00" fill="#000000">a4</text>
<text text-anchor="middle" x="62" y="-108" font-family="Helvetica,sans-Serif" font-size="10.00" fill="#000000">nstar</text>
</g>
<!-- Node4 -->
<g id="node4" class="node">
<title>Node4</title>
<g id="a_node4"><a xlink:href="classint.html" target="_top" xlink:title="int">
<polygon fill="none" stroke="#000000" points="68.5,-222.5 68.5,-241.5 97.5,-241.5 97.5,-222.5 68.5,-222.5"/>
<text text-anchor="middle" x="83" y="-229.5" font-family="Helvetica,sans-Serif" font-size="10.00" fill="#000000">int</text>
</a>
</g>
</g>
<!-- Node4&#45;&gt;Node2 -->
<g id="edge3" class="edge">
<title>Node4&#45;&gt;Node2</title>
<path fill="none" stroke="#9a32cd" stroke-dasharray="5,2" d="M83,-211.88C83,-178.1845 83,-111.5883 83,-86.6923"/>
<polygon fill="#9a32cd" stroke="#9a32cd" points="79.5001,-212.304 83,-222.3041 86.5001,-212.3041 79.5001,-212.304"/>
<text text-anchor="middle" x="88" y="-163" font-family="Helvetica,sans-Serif" font-size="10.00" fill="#000000"> Z</text>
<text text-anchor="middle" x="88" y="-152" font-family="Helvetica,sans-Serif" font-size="10.00" fill="#000000">l</text>
<text text-anchor="middle" x="88" y="-141" font-family="Helvetica,sans-Serif" font-size="10.00" fill="#000000">n</text>
</g>
<!-- Node5 -->
<g id="node5" class="node">
<title>Node5</title>
<polygon fill="none" stroke="#bfbfbf" points="116,-222.5 116,-241.5 160,-241.5 160,-222.5 116,-222.5"/>
<text text-anchor="middle" x="138" y="-229.5" font-family="Helvetica,sans-Serif" font-size="10.00" fill="#000000">string</text>
</g>
<!-- Node5&#45;&gt;Node2 -->
<g id="edge4" class="edge">
<title>Node5&#45;&gt;Node2</title>
<path fill="none" stroke="#9a32cd" stroke-dasharray="5,2" d="M132.6896,-212.4595C125.6101,-187.2386 112.1937,-142.1783 97,-105 94.4505,-98.7616 91.0862,-91.9973 88.2945,-86.6802"/>
<polygon fill="#9a32cd" stroke="#9a32cd" points="129.362,-213.5581 135.4014,-222.2631 136.1086,-211.6918 129.362,-213.5581"/>
<text text-anchor="middle" x="150" y="-152" font-family="Helvetica,sans-Serif" font-size="10.00" fill="#000000"> species</text>
</g>
</g>
</svg>
