<?xml version="1.0" encoding="UTF-8" standalone="no"?>
<!DOCTYPE svg PUBLIC "-//W3C//DTD SVG 1.1//EN"
 "http://www.w3.org/Graphics/SVG/1.1/DTD/svg11.dtd">
<!-- Generated by graphviz version 2.40.1 (20161225.0304)
 -->
<!-- Title: Symmetry Pages: 1 -->
<svg width="152pt" height="117pt"
 viewBox="0.00 0.00 152.00 117.00" xmlns="http://www.w3.org/2000/svg" xmlns:xlink="http://www.w3.org/1999/xlink">
<g id="graph0" class="graph" transform="scale(1 1) rotate(0) translate(4 113)">
<title>Symmetry</title>
<!-- Node1 -->
<g id="node1" class="node">
<title>Node1</title>
<polygon fill="#bfbfbf" stroke="#000000" points="35,-.5 35,-19.5 103,-19.5 103,-.5 35,-.5"/>
<text text-anchor="middle" x="69" y="-7.5" font-family="Helvetica,sans-Serif" font-size="10.00" fill="#000000">Symmetry</text>
</g>
<!-- Node2 -->
<g id="node2" class="node">
<title>Node2</title>
<polygon fill="none" stroke="#bfbfbf" points="0,-89.5 0,-108.5 54,-108.5 54,-89.5 0,-89.5"/>
<text text-anchor="middle" x="27" y="-96.5" font-family="Helvetica,sans-Serif" font-size="10.00" fill="#000000">parity_t</text>
</g>
<!-- Node2&#45;&gt;Node1 -->
<g id="edge1" class="edge">
<title>Node2&#45;&gt;Node1</title>
<path fill="none" stroke="#9a32cd" stroke-dasharray="5,2" d="M22.9001,-79.3189C21.3123,-66.7627 21.2413,-50.5499 28,-38 32.2505,-30.1074 39.8141,-24.0065 47.2974,-19.544"/>
<polygon fill="#9a32cd" stroke="#9a32cd" points="19.4552,-79.9399 24.5524,-89.228 26.3599,-78.7885 19.4552,-79.9399"/>
<text text-anchor="middle" x="58.5" y="-63" font-family="Helvetica,sans-Serif" font-size="10.00" fill="#000000"> inversion</text>
<text text-anchor="middle" x="58.5" y="-52" font-family="Helvetica,sans-Serif" font-size="10.00" fill="#000000">permutation</text>
<text text-anchor="middle" x="58.5" y="-41" font-family="Helvetica,sans-Serif" font-size="10.00" fill="#000000">reflection</text>
</g>
<!-- Node3 -->
<g id="node3" class="node">
<title>Node3</title>
<g id="a_node3"><a xlink:href="classint.html" target="_top" xlink:title="int">
<polygon fill="none" stroke="#000000" points="96.5,-89.5 96.5,-108.5 125.5,-108.5 125.5,-89.5 96.5,-89.5"/>
<text text-anchor="middle" x="111" y="-96.5" font-family="Helvetica,sans-Serif" font-size="10.00" fill="#000000">int</text>
</a>
</g>
</g>
<!-- Node3&#45;&gt;Node1 -->
<g id="edge2" class="edge">
<title>Node3&#45;&gt;Node1</title>
<path fill="none" stroke="#9a32cd" stroke-dasharray="5,2" d="M105.4647,-79.4773C101.6256,-67.2132 95.9583,-51.262 89,-38 85.6139,-31.5463 80.9129,-24.8846 76.9194,-19.679"/>
<polygon fill="#9a32cd" stroke="#9a32cd" points="102.1372,-80.5666 108.3543,-89.1455 108.8441,-78.562 102.1372,-80.5666"/>
<text text-anchor="middle" x="123" y="-52" font-family="Helvetica,sans-Serif" font-size="10.00" fill="#000000"> rotation</text>
</g>
</g>
</svg>
