<?xml version="1.0" encoding="UTF-8" standalone="no"?>
<!DOCTYPE svg PUBLIC "-//W3C//DTD SVG 1.1//EN"
 "http://www.w3.org/Graphics/SVG/1.1/DTD/svg11.dtd">
<!-- Generated by graphviz version 2.40.1 (20161225.0304)
 -->
<!-- Title: /travis/pairinteraction/SystemTwo.cpp Pages: 1 -->
<!--zoomable 665 -->
<svg id="main" version="1.1" xmlns="http://www.w3.org/2000/svg" xmlns:xlink="http://www.w3.org/1999/xlink" xml:space="preserve" onload="init(evt)">
<style type="text/css"><![CDATA[
.edge:hover path { stroke: red; }
.edge:hover polygon { stroke: red; fill: red; }
]]></style>
<script type="text/javascript"><![CDATA[
var edges = document.getElementsByTagName('g');
if (edges && edges.length) {
  for (var i=0;i<edges.length;i++) {
    if (edges[i].id.substr(0,4)=='edge') {
      edges[i].setAttribute('class','edge');
    }
  }
}
]]></script>
        <defs>
                <circle id="rim" cx="0" cy="0" r="7"/>
                <circle id="rim2" cx="0" cy="0" r="3.5"/>
                <g id="zoomPlus">
                        <use xlink:href="#rim" fill="#404040">
                                <set attributeName="fill" to="#808080" begin="zoomplus.mouseover" end="zoomplus.mouseout"/>
                        </use>
                        <path d="M-4,0h8M0,-4v8" fill="none" stroke="white" stroke-width="1.5" pointer-events="none"/>
                </g>
                <g id="zoomMin">
                        <use xlink:href="#rim" fill="#404040">
                                <set attributeName="fill" to="#808080" begin="zoomminus.mouseover" end="zoomminus.mouseout"/>
                        </use>
                        <path d="M-4,0h8" fill="none" stroke="white" stroke-width="1.5" pointer-events="none"/>
                </g>
                <g id="dirArrow">
                        <path fill="none" stroke="white" stroke-width="1.5" d="M0,-3.0v7 M-2.5,-0.5L0,-3.0L2.5,-0.5"/>
                </g>
               <g id="resetDef">
                       <use xlink:href="#rim2" fill="#404040">
                               <set attributeName="fill" to="#808080" begin="reset.mouseover" end="reset.mouseout"/>
                       </use>
               </g>
        </defs>

<script type="text/javascript">
var viewWidth = 3487;
var viewHeight = 665;
var sectionId = 'dynsection-0';
</script>
<script xlink:href="svgpan.js"/>
<svg id="graph" class="graph">
<g id="viewport">
<title>/travis/pairinteraction/SystemTwo.cpp</title>
<!-- Node0 -->
<g id="node1" class="node">
<title>Node0</title>
<polygon fill="#bfbfbf" stroke="#000000" points="3133,-626.5 3133,-656.5 3255,-656.5 3255,-626.5 3133,-626.5"/>
<text text-anchor="start" x="3141" y="-644.5" font-family="Helvetica,sans-Serif" font-size="10.00" fill="#000000">/travis/pairinteraction</text>
<text text-anchor="middle" x="3194" y="-633.5" font-family="Helvetica,sans-Serif" font-size="10.00" fill="#000000">/SystemTwo.cpp</text>
</g>
<!-- Node1 -->
<g id="node2" class="node">
<title>Node1</title>
<g id="a_node2"><a xlink:href="SystemTwo_8h.html" target="_top" xlink:title="SystemTwo.h">
<polygon fill="none" stroke="#000000" points="971.5,-570.5 971.5,-589.5 1052.5,-589.5 1052.5,-570.5 971.5,-570.5"/>
<text text-anchor="middle" x="1012" y="-577.5" font-family="Helvetica,sans-Serif" font-size="10.00" fill="#000000">SystemTwo.h</text>
</a>
</g>
</g>
<!-- Node0&#45;&gt;Node1 -->
<g id="edge1" class="edge">
<title>Node0&#45;&gt;Node1</title>
<path fill="none" stroke="#191970" d="M3132.7889,-639.7748C2814.9198,-630.8156 1355.9418,-589.6941 1063.2256,-581.4438"/>
<polygon fill="#191970" stroke="#191970" points="1063.0069,-577.9363 1052.9122,-581.1531 1062.8096,-584.9336 1063.0069,-577.9363"/>
</g>
<!-- Node8 -->
<g id="node9" class="node">
<title>Node8</title>
<polygon fill="none" stroke="#bfbfbf" points="793,-62 793,-81 837,-81 837,-62 793,-62"/>
<text text-anchor="middle" x="815" y="-69" font-family="Helvetica,sans-Serif" font-size="10.00" fill="#000000">string</text>
</g>
<!-- Node0&#45;&gt;Node8 -->
<g id="edge157" class="edge">
<title>Node0&#45;&gt;Node8</title>
<path fill="none" stroke="#191970" d="M3132.8697,-640.8046C2712.2072,-635.8409 258.7128,-603.955 119,-534 .105,-474.4686 84.6431,-312.127 200,-246 332.8383,-169.852 385.6174,-198.9075 532,-154 573.2503,-141.3452 582.706,-135.5113 624,-123 679.4309,-106.2055 744.7188,-89.1887 782.8212,-79.5308"/>
<polygon fill="#191970" stroke="#191970" points="783.9768,-82.8489 792.8163,-77.0082 782.2638,-76.0618 783.9768,-82.8489"/>
</g>
<!-- Node12 -->
<g id="node13" class="node">
<title>Node12</title>
<g id="a_node13"><a xlink:href="dtypes_8h.html" target="_top" xlink:title="dtypes.h">
<polygon fill="none" stroke="#000000" points="1817.5,-129 1817.5,-148 1876.5,-148 1876.5,-129 1817.5,-129"/>
<text text-anchor="middle" x="1847" y="-136" font-family="Helvetica,sans-Serif" font-size="10.00" fill="#000000">dtypes.h</text>
</a>
</g>
</g>
<!-- Node0&#45;&gt;Node12 -->
<g id="edge152" class="edge">
<title>Node0&#45;&gt;Node12</title>
<path fill="none" stroke="#191970" d="M3132.8063,-639.4063C2805.4753,-627.5943 1271.0815,-564.2754 1134,-411 1019.3706,-282.829 819.4905,-430.3863 1367,-344 1551.9831,-314.8133 1633.7813,-390.1565 1783,-277 1821.9107,-247.493 1837.9698,-188.6561 1843.9107,-158.0363"/>
<polygon fill="#191970" stroke="#191970" points="1847.366,-158.596 1845.6653,-148.1386 1840.4734,-157.3741 1847.366,-158.596"/>
</g>
<!-- Node16 -->
<g id="node17" class="node">
<title>Node16</title>
<polygon fill="none" stroke="#bfbfbf" points="2624.5,-62 2624.5,-81 2671.5,-81 2671.5,-62 2624.5,-62"/>
<text text-anchor="middle" x="2648" y="-69" font-family="Helvetica,sans-Serif" font-size="10.00" fill="#000000">cmath</text>
</g>
<!-- Node0&#45;&gt;Node16 -->
<g id="edge154" class="edge">
<title>Node0&#45;&gt;Node16</title>
<path fill="none" stroke="#191970" d="M3255.2519,-626.3482C3304.3186,-610.1134 3365,-578.9313 3365,-524 3365,-524 3365,-524 3365,-395.5 3365,-380.9105 2929.6708,-128.0953 2916,-123 2835.0083,-92.8131 2733.3507,-79.4966 2681.6114,-74.3359"/>
<polygon fill="#191970" stroke="#191970" points="2681.9398,-70.8514 2671.6518,-73.3826 2681.2728,-77.8196 2681.9398,-70.8514"/>
</g>
<!-- Node18 -->
<g id="node19" class="node">
<title>Node18</title>
<polygon fill="none" stroke="#bfbfbf" points="2931.5,-62 2931.5,-81 2978.5,-81 2978.5,-62 2931.5,-62"/>
<text text-anchor="middle" x="2955" y="-69" font-family="Helvetica,sans-Serif" font-size="10.00" fill="#000000">vector</text>
</g>
<!-- Node0&#45;&gt;Node18 -->
<g id="edge159" class="edge">
<title>Node0&#45;&gt;Node18</title>
<path fill="none" stroke="#191970" d="M3255.2095,-631.5882C3307.5678,-622.1629 3378.0039,-606.9396 3401,-590 3428.6163,-569.6571 3441,-558.3001 3441,-524 3441,-524 3441,-524 3441,-328.5 3441,-123.6696 3099.4683,-81.652 2989.0142,-73.4191"/>
<polygon fill="#191970" stroke="#191970" points="2988.9892,-69.9089 2978.7698,-72.7043 2988.5019,-76.8919 2988.9892,-69.9089"/>
</g>
<!-- Node27 -->
<g id="node28" class="node">
<title>Node27</title>
<polygon fill="none" stroke="#bfbfbf" points="2413,-190.5 2413,-209.5 2499,-209.5 2499,-190.5 2413,-190.5"/>
<text text-anchor="middle" x="2456" y="-197.5" font-family="Helvetica,sans-Serif" font-size="10.00" fill="#000000">unordered_set</text>
</g>
<!-- Node0&#45;&gt;Node27 -->
<g id="edge158" class="edge">
<title>Node0&#45;&gt;Node27</title>
<path fill="none" stroke="#191970" d="M3189.9706,-626.416C3184.3933,-604.1752 3175,-561.1957 3175,-524 3175,-524 3175,-524 3175,-462.5 3175,-373.5675 3119.3044,-356.9661 3042,-313 2950.6765,-261.0607 2636.2963,-220.4987 2509.5733,-205.8829"/>
<polygon fill="#191970" stroke="#191970" points="2509.6729,-202.3715 2499.3398,-204.712 2508.8771,-209.3261 2509.6729,-202.3715"/>
</g>
<!-- Node42 -->
<g id="node43" class="node">
<title>Node42</title>
<polygon fill="none" stroke="#bfbfbf" points="3371,-.5 3371,-19.5 3435,-19.5 3435,-.5 3371,-.5"/>
<text text-anchor="middle" x="3403" y="-7.5" font-family="Helvetica,sans-Serif" font-size="10.00" fill="#000000">algorithm</text>
</g>
<!-- Node0&#45;&gt;Node42 -->
<g id="edge153" class="edge">
<title>Node0&#45;&gt;Node42</title>
<path fill="none" stroke="#191970" d="M3255.0515,-632.7686C3314.1425,-623.4787 3398.7975,-607.7016 3427,-590 3458.6297,-570.1473 3479,-561.3439 3479,-524 3479,-524 3479,-524 3479,-138.5 3479,-93.2888 3443.7147,-50.0297 3421.2296,-27.0531"/>
<polygon fill="#191970" stroke="#191970" points="3423.4629,-24.3396 3413.8889,-19.8019 3418.5436,-29.3196 3423.4629,-24.3396"/>
</g>
<!-- Node48 -->
<g id="node49" class="node">
<title>Node48</title>
<polygon fill="none" stroke="#bfbfbf" points="2939,-190.5 2939,-209.5 2983,-209.5 2983,-190.5 2939,-190.5"/>
<text text-anchor="middle" x="2961" y="-197.5" font-family="Helvetica,sans-Serif" font-size="10.00" fill="#000000">limits</text>
</g>
<!-- Node0&#45;&gt;Node48 -->
<g id="edge155" class="edge">
<title>Node0&#45;&gt;Node48</title>
<path fill="none" stroke="#191970" d="M3198.0294,-626.416C3203.6067,-604.1752 3213,-561.1957 3213,-524 3213,-524 3213,-524 3213,-395.5 3213,-285.4234 3061.0393,-228.415 2993.1259,-208.4336"/>
<polygon fill="#191970" stroke="#191970" points="2993.94,-205.0263 2983.3633,-205.647 2992.0185,-211.7574 2993.94,-205.0263"/>
</g>
<!-- Node58 -->
<g id="node59" class="node">
<title>Node58</title>
<polygon fill="none" stroke="#bfbfbf" points="2977,-319 2977,-338 3033,-338 3033,-319 2977,-319"/>
<text text-anchor="middle" x="3005" y="-326" font-family="Helvetica,sans-Serif" font-size="10.00" fill="#000000">numeric</text>
</g>
<!-- Node0&#45;&gt;Node58 -->
<g id="edge156" class="edge">
<title>Node0&#45;&gt;Node58</title>
<path fill="none" stroke="#191970" d="M3184.0522,-626.2575C3177.435,-616.0497 3168.5963,-602.2827 3161,-590 3105.0219,-499.4863 3040.6119,-389.6145 3015.6499,-346.8069"/>
<polygon fill="#191970" stroke="#191970" points="3018.6153,-344.944 3010.5574,-338.065 3012.5668,-348.4676 3018.6153,-344.944"/>
</g>
<!-- Node73 -->
<g id="node74" class="node">
<title>Node73</title>
<g id="a_node74"><a xlink:href="GreenTensor_8h.html" target="_top" xlink:title="GreenTensor.h">
<polygon fill="none" stroke="#000000" points="3077.5,-190.5 3077.5,-209.5 3162.5,-209.5 3162.5,-190.5 3077.5,-190.5"/>
<text text-anchor="middle" x="3120" y="-197.5" font-family="Helvetica,sans-Serif" font-size="10.00" fill="#000000">GreenTensor.h</text>
</a>
</g>
</g>
<!-- Node0&#45;&gt;Node73 -->
<g id="edge148" class="edge">
<title>Node0&#45;&gt;Node73</title>
<path fill="none" stroke="#191970" d="M3255.3294,-630.6839C3301.8909,-621.3526 3360.8941,-606.7583 3379,-590 3401.9066,-568.7983 3403,-555.2125 3403,-524 3403,-524 3403,-524 3403,-328.5 3403,-270.8827 3354.421,-271.9929 3303,-246 3261.8455,-225.1967 3210.6194,-213.3632 3172.841,-206.9251"/>
<polygon fill="#191970" stroke="#191970" points="3172.9945,-203.404 3162.5616,-205.2494 3171.8682,-210.3128 3172.9945,-203.404"/>
</g>
<!-- Node2 -->
<g id="node3" class="node">
<title>Node2</title>
<g id="a_node3"><a xlink:href="State_8h.html" target="_top" xlink:title="State.h">
<polygon fill="none" stroke="#000000" points="779.5,-386 779.5,-405 830.5,-405 830.5,-386 779.5,-386"/>
<text text-anchor="middle" x="805" y="-393" font-family="Helvetica,sans-Serif" font-size="10.00" fill="#000000">State.h</text>
</a>
</g>
</g>
<!-- Node1&#45;&gt;Node2 -->
<g id="edge2" class="edge">
<title>Node1&#45;&gt;Node2</title>
<path fill="none" stroke="#191970" d="M971.4098,-578.6711C801.4313,-572.6892 152.9518,-545.5493 95,-478 86.0289,-467.5431 85.6167,-457.0886 95,-447 118.1997,-422.0565 628.1981,-401.8741 769.1756,-396.757"/>
<polygon fill="#191970" stroke="#191970" points="769.5598,-400.2456 779.4274,-396.388 769.3079,-393.2501 769.5598,-400.2456"/>
</g>
<!-- Node14 -->
<g id="node15" class="node">
<title>Node14</title>
<polygon fill="none" stroke="#bfbfbf" points="2112,-62 2112,-81 2192,-81 2192,-62 2112,-62"/>
<text text-anchor="middle" x="2152" y="-69" font-family="Helvetica,sans-Serif" font-size="10.00" fill="#000000">Eigen/Sparse</text>
</g>
<!-- Node1&#45;&gt;Node14 -->
<g id="edge141" class="edge">
<title>Node1&#45;&gt;Node14</title>
<path fill="none" stroke="#191970" d="M1014.5523,-570.2941C1023.8826,-536.9605 1059.5556,-426.6485 1134,-380 1204.3773,-335.9 1424.1012,-357.797 1506,-344 1630.9013,-322.9587 1665.0356,-323.1244 1783,-277 1922.0855,-222.6172 2073.4137,-124.7008 2129.4768,-86.9369"/>
<polygon fill="#191970" stroke="#191970" points="2131.6191,-89.7132 2137.9356,-81.2071 2127.6933,-83.9176 2131.6191,-89.7132"/>
</g>
<!-- Node1&#45;&gt;Node16 -->
<g id="edge145" class="edge">
<title>Node1&#45;&gt;Node16</title>
<path fill="none" stroke="#191970" d="M1052.731,-579.5637C1264.2703,-577.1777 2239.3387,-564.6742 2540,-534 2761.2311,-511.4295 2862.2008,-562.4895 3025,-411 3097.7036,-343.3472 3070.1127,-251.328 2992,-190 2895.7558,-114.4367 2748.1941,-85.3783 2682.0884,-75.7115"/>
<polygon fill="#191970" stroke="#191970" points="2682.2175,-72.1955 2671.8283,-74.2727 2681.2453,-79.1276 2682.2175,-72.1955"/>
</g>
<!-- Node26 -->
<g id="node27" class="node">
<title>Node26</title>
<polygon fill="none" stroke="#bfbfbf" points="2033,-190.5 2033,-209.5 2065,-209.5 2065,-190.5 2033,-190.5"/>
<text text-anchor="middle" x="2049" y="-197.5" font-family="Helvetica,sans-Serif" font-size="10.00" fill="#000000">set</text>
</g>
<!-- Node1&#45;&gt;Node26 -->
<g id="edge146" class="edge">
<title>Node1&#45;&gt;Node26</title>
<path fill="none" stroke="#191970" d="M1052.8658,-579.1472C1300.4531,-573.5686 2592.8924,-538.4418 2707,-411 2716.1906,-400.7355 2715.8089,-390.5939 2707,-380 2650.9323,-312.5709 2593.5758,-378.6094 2513,-344 2444.876,-314.739 2446.759,-273.736 2378,-246 2322.9012,-223.7743 2143.3927,-207.5286 2075.414,-202.0333"/>
<polygon fill="#191970" stroke="#191970" points="2075.3845,-198.5199 2065.1385,-201.2162 2074.8296,-205.4979 2075.3845,-198.5199"/>
</g>
<!-- Node37 -->
<g id="node38" class="node">
<title>Node37</title>
<polygon fill="none" stroke="#bfbfbf" points="672.5,-.5 672.5,-19.5 741.5,-19.5 741.5,-.5 672.5,-.5"/>
<text text-anchor="middle" x="707" y="-7.5" font-family="Helvetica,sans-Serif" font-size="10.00" fill="#000000">type_traits</text>
</g>
<!-- Node1&#45;&gt;Node37 -->
<g id="edge147" class="edge">
<title>Node1&#45;&gt;Node37</title>
<path fill="none" stroke="#191970" d="M971.3665,-579.0664C807.629,-575.1467 201.0803,-559.0537 119,-534 59.9865,-515.9871 0,-524.2014 0,-462.5 0,-462.5 0,-462.5 0,-138.5 0,-90.9834 25.7799,-77.8011 68,-56 120.4329,-28.9254 525.0686,-15.1276 661.9295,-11.2003"/>
<polygon fill="#191970" stroke="#191970" points="662.1728,-14.6949 672.0698,-10.9134 661.9748,-7.6977 662.1728,-14.6949"/>
</g>
<!-- Node50 -->
<g id="node51" class="node">
<title>Node50</title>
<polygon fill="none" stroke="#bfbfbf" points="209.5,-246.5 209.5,-276.5 326.5,-276.5 326.5,-246.5 209.5,-246.5"/>
<text text-anchor="start" x="217.5" y="-264.5" font-family="Helvetica,sans-Serif" font-size="10.00" fill="#000000">boost/serialization</text>
<text text-anchor="middle" x="268" y="-253.5" font-family="Helvetica,sans-Serif" font-size="10.00" fill="#000000">/unordered_map.hpp</text>
</g>
<!-- Node1&#45;&gt;Node50 -->
<g id="edge144" class="edge">
<title>Node1&#45;&gt;Node50</title>
<path fill="none" stroke="#191970" d="M971.4734,-579.8326C828.3634,-578.9114 347.3674,-572.9234 199,-534 144.398,-519.6755 114.8463,-525.9142 85,-478 35.5438,-398.6046 160.3909,-317.7659 227.9874,-281.3892"/>
<polygon fill="#191970" stroke="#191970" points="229.9194,-284.3268 237.1215,-276.5562 226.6456,-278.1395 229.9194,-284.3268"/>
</g>
<!-- Node54 -->
<g id="node55" class="node">
<title>Node54</title>
<g id="a_node55"><a xlink:href="SystemBase_8h.html" target="_top" xlink:title="SystemBase.h">
<polygon fill="none" stroke="#000000" points="2007,-453 2007,-472 2093,-472 2093,-453 2007,-453"/>
<text text-anchor="middle" x="2050" y="-460" font-family="Helvetica,sans-Serif" font-size="10.00" fill="#000000">SystemBase.h</text>
</a>
</g>
</g>
<!-- Node1&#45;&gt;Node54 -->
<g id="edge92" class="edge">
<title>Node1&#45;&gt;Node54</title>
<path fill="none" stroke="#191970" d="M1052.6908,-575.3939C1214.6577,-557.0595 1813.6001,-489.2601 1996.5653,-468.5487"/>
<polygon fill="#191970" stroke="#191970" points="1997.2015,-471.9992 2006.7443,-467.3965 1996.4141,-465.0436 1997.2015,-471.9992"/>
</g>
<!-- Node56 -->
<g id="node57" class="node">
<title>Node56</title>
<polygon fill="none" stroke="#bfbfbf" points="2555,-313.5 2555,-343.5 2689,-343.5 2689,-313.5 2555,-313.5"/>
<text text-anchor="start" x="2563" y="-331.5" font-family="Helvetica,sans-Serif" font-size="10.00" fill="#000000">boost/math/special</text>
<text text-anchor="middle" x="2622" y="-320.5" font-family="Helvetica,sans-Serif" font-size="10.00" fill="#000000">_functions/binomial.hpp</text>
</g>
<!-- Node1&#45;&gt;Node56 -->
<g id="edge142" class="edge">
<title>Node1&#45;&gt;Node56</title>
<path fill="none" stroke="#191970" d="M1052.8579,-579.2909C1316.9355,-574.5146 2773.6583,-545.1689 2837,-478 2866.8824,-446.312 2863.9738,-414.198 2837,-380 2832.5248,-374.3263 2758.8944,-357.5023 2699.0314,-344.6122"/>
<polygon fill="#191970" stroke="#191970" points="2699.6876,-341.1735 2689.176,-342.4986 2698.2197,-348.0178 2699.6876,-341.1735"/>
</g>
<!-- Node71 -->
<g id="node72" class="node">
<title>Node71</title>
<g id="a_node72"><a xlink:href="SystemOne_8h.html" target="_top" xlink:title="SystemOne.h">
<polygon fill="none" stroke="#000000" points="764,-514.5 764,-533.5 846,-533.5 846,-514.5 764,-514.5"/>
<text text-anchor="middle" x="805" y="-521.5" font-family="Helvetica,sans-Serif" font-size="10.00" fill="#000000">SystemOne.h</text>
</a>
</g>
</g>
<!-- Node1&#45;&gt;Node71 -->
<g id="edge130" class="edge">
<title>Node1&#45;&gt;Node71</title>
<path fill="none" stroke="#191970" d="M976.4154,-570.3733C941.3984,-560.9001 887.8119,-546.4032 849.8875,-536.1435"/>
<polygon fill="#191970" stroke="#191970" points="850.6873,-532.7341 840.1202,-533.5011 848.8592,-539.4912 850.6873,-532.7341"/>
</g>
<!-- Node72 -->
<g id="node73" class="node">
<title>Node72</title>
<polygon fill="none" stroke="#bfbfbf" points="104.5,-447.5 104.5,-477.5 211.5,-477.5 211.5,-447.5 104.5,-447.5"/>
<text text-anchor="start" x="112.5" y="-465.5" font-family="Helvetica,sans-Serif" font-size="10.00" fill="#000000">boost/serialization</text>
<text text-anchor="middle" x="158" y="-454.5" font-family="Helvetica,sans-Serif" font-size="10.00" fill="#000000">/base_object.hpp</text>
</g>
<!-- Node1&#45;&gt;Node72 -->
<g id="edge143" class="edge">
<title>Node1&#45;&gt;Node72</title>
<path fill="none" stroke="#191970" d="M971.2956,-576.0979C854.666,-564.6212 509.456,-528.5797 226,-478 224.5472,-477.7408 223.0787,-477.4711 221.5991,-477.1926"/>
<polygon fill="#191970" stroke="#191970" points="222.2142,-473.7465 211.7254,-475.2423 220.8577,-480.6138 222.2142,-473.7465"/>
</g>
<!-- Node3 -->
<g id="node4" class="node">
<title>Node3</title>
<g id="a_node4"><a xlink:href="MatrixElementCache_8h.html" target="_top" xlink:title="MatrixElementCache.h">
<polygon fill="none" stroke="#000000" points="1029.5,-319 1029.5,-338 1156.5,-338 1156.5,-319 1029.5,-319"/>
<text text-anchor="middle" x="1093" y="-326" font-family="Helvetica,sans-Serif" font-size="10.00" fill="#000000">MatrixElementCache.h</text>
</a>
</g>
</g>
<!-- Node2&#45;&gt;Node3 -->
<g id="edge3" class="edge">
<title>Node2&#45;&gt;Node3</title>
<path fill="none" stroke="#191970" d="M830.6829,-388.5194C876.9383,-377.0898 974.7524,-354.2598 1037.0515,-340.2862"/>
<polygon fill="#191970" stroke="#191970" points="1038.1148,-343.635 1047.1108,-338.0383 1036.5882,-336.8035 1038.1148,-343.635"/>
</g>
<!-- Node2&#45;&gt;Node8 -->
<g id="edge87" class="edge">
<title>Node2&#45;&gt;Node8</title>
<path fill="none" stroke="#191970" d="M779.4182,-392.3884C732.3479,-386.0808 634.9873,-370.1261 615,-344 576.3012,-293.4154 462.3251,-335.5662 652,-123 669.4781,-103.4126 740.6435,-86.3026 782.9462,-77.6003"/>
<polygon fill="#191970" stroke="#191970" points="783.6621,-81.0265 792.7752,-75.6225 782.2812,-74.164 783.6621,-81.0265"/>
</g>
<!-- Node2&#45;&gt;Node12 -->
<g id="edge82" class="edge">
<title>Node2&#45;&gt;Node12</title>
<path fill="none" stroke="#191970" d="M830.8846,-392.7717C960.7671,-378.9372 1538.0064,-315.6831 1608,-277 1652.6815,-252.3061 1640.3482,-218.0543 1683,-190 1703.6153,-176.4403 1766.0283,-158.9096 1807.6379,-148.1961"/>
<polygon fill="#191970" stroke="#191970" points="1808.6445,-151.5515 1817.4709,-145.6911 1806.9164,-144.7681 1808.6445,-151.5515"/>
</g>
<!-- Node15 -->
<g id="node16" class="node">
<title>Node15</title>
<polygon fill="none" stroke="#bfbfbf" points="231,-62 231,-81 273,-81 273,-62 231,-62"/>
<text text-anchor="middle" x="252" y="-69" font-family="Helvetica,sans-Serif" font-size="10.00" fill="#000000">array</text>
</g>
<!-- Node2&#45;&gt;Node15 -->
<g id="edge83" class="edge">
<title>Node2&#45;&gt;Node15</title>
<path fill="none" stroke="#191970" d="M779.4497,-394.1941C734.0291,-390.99 637.2226,-380.1302 565,-344 430.3593,-276.6444 306.9845,-137.697 266.1857,-88.9022"/>
<polygon fill="#191970" stroke="#191970" points="268.8184,-86.5938 259.7453,-81.1231 263.4265,-91.0579 268.8184,-86.5938"/>
</g>
<!-- Node2&#45;&gt;Node16 -->
<g id="edge85" class="edge">
<title>Node2&#45;&gt;Node16</title>
<path fill="none" stroke="#191970" d="M830.5538,-393.7831C910.1556,-388.3011 1160.6776,-370.0374 1367,-344 1552.7979,-320.5527 1601.693,-323.887 1783,-277 1893.2498,-248.4888 1914.1599,-220.0509 2024,-190 2245.7258,-129.3385 2520.1249,-88.8934 2614.3815,-75.9651"/>
<polygon fill="#191970" stroke="#191970" points="2615.0265,-79.4097 2624.4633,-74.5934 2614.0827,-72.4736 2615.0265,-79.4097"/>
</g>
<!-- Node19 -->
<g id="node20" class="node">
<title>Node19</title>
<polygon fill="none" stroke="#bfbfbf" points="1256.5,-129 1256.5,-148 1399.5,-148 1399.5,-129 1256.5,-129"/>
<text text-anchor="middle" x="1328" y="-136" font-family="Helvetica,sans-Serif" font-size="10.00" fill="#000000">boost/functional/hash.hpp</text>
</g>
<!-- Node2&#45;&gt;Node19 -->
<g id="edge84" class="edge">
<title>Node2&#45;&gt;Node19</title>
<path fill="none" stroke="#191970" d="M812.4471,-385.7379C839.4689,-351.1904 936.6384,-234.4204 1048,-190 1083.662,-175.775 1179.1618,-159.8484 1248.7375,-149.5244"/>
<polygon fill="#191970" stroke="#191970" points="1249.4207,-152.9617 1258.8044,-148.0428 1248.4013,-146.0363 1249.4207,-152.9617"/>
</g>
<!-- Node20 -->
<g id="node21" class="node">
<title>Node20</title>
<polygon fill="none" stroke="#bfbfbf" points="1097,-62 1097,-81 1157,-81 1157,-62 1097,-62"/>
<text text-anchor="middle" x="1127" y="-69" font-family="Helvetica,sans-Serif" font-size="10.00" fill="#000000">iostream</text>
</g>
<!-- Node2&#45;&gt;Node20 -->
<g id="edge86" class="edge">
<title>Node2&#45;&gt;Node20</title>
<path fill="none" stroke="#191970" d="M793.2675,-385.7861C782.6878,-376.3022 767.6513,-360.8682 760,-344 719.4258,-254.5487 693.6127,-194.4616 761,-123 783.126,-99.5363 996.2184,-81.1644 1086.6951,-74.3574"/>
<polygon fill="#191970" stroke="#191970" points="1087.1326,-77.8347 1096.8459,-73.6037 1086.6142,-70.8539 1087.1326,-77.8347"/>
</g>
<!-- Node21 -->
<g id="node22" class="node">
<title>Node21</title>
<polygon fill="none" stroke="#bfbfbf" points="770.5,-123.5 770.5,-153.5 877.5,-153.5 877.5,-123.5 770.5,-123.5"/>
<text text-anchor="start" x="778.5" y="-141.5" font-family="Helvetica,sans-Serif" font-size="10.00" fill="#000000">boost/serialization</text>
<text text-anchor="middle" x="824" y="-130.5" font-family="Helvetica,sans-Serif" font-size="10.00" fill="#000000">/array.hpp</text>
</g>
<!-- Node2&#45;&gt;Node21 -->
<g id="edge89" class="edge">
<title>Node2&#45;&gt;Node21</title>
<path fill="none" stroke="#191970" d="M796.268,-385.7158C788.1812,-375.9452 776.7162,-360.1016 772,-344 752.7608,-278.3152 745.6548,-253.171 772,-190 776.7283,-178.6624 785.3017,-168.5431 794.1416,-160.3389"/>
<polygon fill="#191970" stroke="#191970" points="796.6139,-162.8281 801.8886,-153.6396 792.0351,-157.5333 796.6139,-162.8281"/>
</g>
<!-- Node22 -->
<g id="node23" class="node">
<title>Node22</title>
<polygon fill="none" stroke="#bfbfbf" points="934.5,-123.5 934.5,-153.5 1041.5,-153.5 1041.5,-123.5 934.5,-123.5"/>
<text text-anchor="start" x="942.5" y="-141.5" font-family="Helvetica,sans-Serif" font-size="10.00" fill="#000000">boost/serialization</text>
<text text-anchor="middle" x="988" y="-130.5" font-family="Helvetica,sans-Serif" font-size="10.00" fill="#000000">/string.hpp</text>
</g>
<!-- Node2&#45;&gt;Node22 -->
<g id="edge90" class="edge">
<title>Node2&#45;&gt;Node22</title>
<path fill="none" stroke="#191970" d="M801.5944,-385.6051C791.2062,-353.4483 763.372,-250.4851 810,-190 824.1973,-171.5835 879.1241,-157.5437 924.2519,-148.8104"/>
<polygon fill="#191970" stroke="#191970" points="925.1202,-152.2086 934.301,-146.9204 923.8263,-145.3292 925.1202,-152.2086"/>
</g>
<!-- Node23 -->
<g id="node24" class="node">
<title>Node23</title>
<polygon fill="none" stroke="#bfbfbf" points="1060,-129 1060,-148 1162,-148 1162,-129 1060,-129"/>
<text text-anchor="middle" x="1111" y="-136" font-family="Helvetica,sans-Serif" font-size="10.00" fill="#000000">boost/variant.hpp</text>
</g>
<!-- Node2&#45;&gt;Node23 -->
<g id="edge91" class="edge">
<title>Node2&#45;&gt;Node23</title>
<path fill="none" stroke="#191970" d="M805.7299,-385.9039C808.0382,-360.8445 816.977,-292.1822 848,-246 870.4105,-212.6387 883.0766,-208.02 919,-190 922.3466,-188.3213 1009.4246,-165.2425 1065.149,-150.5557"/>
<polygon fill="#191970" stroke="#191970" points="1066.0438,-153.9394 1074.8223,-148.0074 1064.2606,-147.1704 1066.0438,-153.9394"/>
</g>
<!-- Node53 -->
<g id="node54" class="node">
<title>Node53</title>
<polygon fill="none" stroke="#bfbfbf" points="624.5,-319 624.5,-338 681.5,-338 681.5,-319 624.5,-319"/>
<text text-anchor="middle" x="653" y="-326" font-family="Helvetica,sans-Serif" font-size="10.00" fill="#000000">typeinfo</text>
</g>
<!-- Node2&#45;&gt;Node53 -->
<g id="edge88" class="edge">
<title>Node2&#45;&gt;Node53</title>
<path fill="none" stroke="#191970" d="M783.2221,-385.9005C757.2616,-374.4574 713.6887,-355.2509 684.1654,-342.2374"/>
<polygon fill="#191970" stroke="#191970" points="685.2997,-338.9125 674.7375,-338.0817 682.4763,-345.3178 685.2997,-338.9125"/>
</g>
<!-- Node3&#45;&gt;Node2 -->
<g id="edge34" class="edge">
<title>Node3&#45;&gt;Node2</title>
<path fill="none" stroke="#191970" d="M1057.026,-338.0047C1001.5401,-351.5276 896.0617,-376.0285 840.7222,-388.213"/>
<polygon fill="#191970" stroke="#191970" points="839.6961,-384.8546 830.6741,-390.4091 841.1908,-391.6931 839.6961,-384.8546"/>
</g>
<!-- Node4 -->
<g id="node5" class="node">
<title>Node4</title>
<g id="a_node5"><a xlink:href="Basisnames_8h.html" target="_top" xlink:title="Basisnames.h">
<polygon fill="none" stroke="#000000" points="1159.5,-252 1159.5,-271 1244.5,-271 1244.5,-252 1159.5,-252"/>
<text text-anchor="middle" x="1202" y="-259" font-family="Helvetica,sans-Serif" font-size="10.00" fill="#000000">Basisnames.h</text>
</a>
</g>
</g>
<!-- Node3&#45;&gt;Node4 -->
<g id="edge4" class="edge">
<title>Node3&#45;&gt;Node4</title>
<path fill="none" stroke="#191970" d="M1108.617,-318.9005C1126.6669,-307.8057 1156.5896,-289.4128 1177.6908,-276.4424"/>
<polygon fill="#191970" stroke="#191970" points="1179.7255,-279.3001 1186.4119,-271.0817 1176.0598,-273.3366 1179.7255,-279.3001"/>
</g>
<!-- Node7 -->
<g id="node8" class="node">
<title>Node7</title>
<polygon fill="none" stroke="#bfbfbf" points="627,-62 627,-81 683,-81 683,-62 627,-62"/>
<text text-anchor="middle" x="655" y="-69" font-family="Helvetica,sans-Serif" font-size="10.00" fill="#000000">sstream</text>
</g>
<!-- Node3&#45;&gt;Node7 -->
<g id="edge78" class="edge">
<title>Node3&#45;&gt;Node7</title>
<path fill="none" stroke="#191970" d="M1056.7889,-318.9195C1027.4126,-310.3051 985.5246,-296.0724 952,-277 933.0553,-266.2222 933.2983,-256.1311 914,-246 863.1893,-219.3258 839.21,-239.523 790,-210 736.2457,-177.7507 689.0985,-118.8822 667.5086,-89.3688"/>
<polygon fill="#191970" stroke="#191970" points="670.327,-87.293 661.6498,-81.2138 664.642,-91.3774 670.327,-87.293"/>
</g>
<!-- Node3&#45;&gt;Node8 -->
<g id="edge79" class="edge">
<title>Node3&#45;&gt;Node8</title>
<path fill="none" stroke="#191970" d="M1077.5835,-318.928C1051.899,-303.1063 998.5666,-270.7865 952,-246 868.8255,-201.7277 811.1265,-233.7832 761,-154 746.2724,-130.5591 771.7015,-103.8114 792.4293,-87.2892"/>
<polygon fill="#191970" stroke="#191970" points="794.763,-89.912 800.6118,-81.0778 790.5305,-84.3364 794.763,-89.912"/>
</g>
<!-- Node3&#45;&gt;Node12 -->
<g id="edge70" class="edge">
<title>Node3&#45;&gt;Node12</title>
<path fill="none" stroke="#191970" d="M1156.6679,-327.119C1313.4306,-323.2209 1708.9268,-310.1797 1758,-277 1793.731,-252.8413 1776.8585,-225.7426 1801,-190 1809.3875,-177.5819 1820.5514,-165.0123 1829.7805,-155.3998"/>
<polygon fill="#191970" stroke="#191970" points="1832.4553,-157.6718 1836.9746,-148.0891 1827.4659,-152.762 1832.4553,-157.6718"/>
</g>
<!-- Node3&#45;&gt;Node19 -->
<g id="edge73" class="edge">
<title>Node3&#45;&gt;Node19</title>
<path fill="none" stroke="#191970" d="M1092.0343,-318.8765C1090.0978,-293.8906 1088.5976,-226.3745 1124,-190 1141.5782,-171.9391 1199.48,-158.3853 1249.1261,-149.7274"/>
<polygon fill="#191970" stroke="#191970" points="1249.9806,-153.1325 1259.2536,-148.0079 1248.8088,-146.2313 1249.9806,-153.1325"/>
</g>
<!-- Node25 -->
<g id="node26" class="node">
<title>Node25</title>
<polygon fill="none" stroke="#bfbfbf" points="351,-62 351,-81 409,-81 409,-62 351,-62"/>
<text text-anchor="middle" x="380" y="-69" font-family="Helvetica,sans-Serif" font-size="10.00" fill="#000000">memory</text>
</g>
<!-- Node3&#45;&gt;Node25 -->
<g id="edge77" class="edge">
<title>Node3&#45;&gt;Node25</title>
<path fill="none" stroke="#191970" d="M1029.3774,-319.2544C924.3774,-303.0642 708.923,-265.8953 533,-210 473.0431,-190.9501 444.386,-201.3807 403,-154 387.6901,-136.4725 382.5035,-109.539 380.7844,-91.2527"/>
<polygon fill="#191970" stroke="#191970" points="384.2678,-90.8875 380.1027,-81.1457 377.2837,-91.3586 384.2678,-90.8875"/>
</g>
<!-- Node28 -->
<g id="node29" class="node">
<title>Node28</title>
<g id="a_node29"><a xlink:href="Wavefunction_8h.html" target="_top" xlink:title="Wavefunction.h">
<polygon fill="none" stroke="#000000" points="1655.5,-252 1655.5,-271 1748.5,-271 1748.5,-252 1655.5,-252"/>
<text text-anchor="middle" x="1702" y="-259" font-family="Helvetica,sans-Serif" font-size="10.00" fill="#000000">Wavefunction.h</text>
</a>
</g>
</g>
<!-- Node3&#45;&gt;Node28 -->
<g id="edge35" class="edge">
<title>Node3&#45;&gt;Node28</title>
<path fill="none" stroke="#191970" d="M1156.578,-323.4553C1253.9743,-315.4309 1445.8756,-298.4507 1608,-277 1620.0415,-275.4068 1632.9098,-273.4521 1645.1397,-271.4745"/>
<polygon fill="#191970" stroke="#191970" points="1645.9309,-274.8915 1655.2305,-269.8153 1644.7951,-267.9843 1645.9309,-274.8915"/>
</g>
<!-- Node32 -->
<g id="node33" class="node">
<title>Node32</title>
<polygon fill="none" stroke="#bfbfbf" points="105.5,-62 105.5,-81 198.5,-81 198.5,-62 105.5,-62"/>
<text text-anchor="middle" x="152" y="-69" font-family="Helvetica,sans-Serif" font-size="10.00" fill="#000000">unordered_map</text>
</g>
<!-- Node3&#45;&gt;Node32 -->
<g id="edge81" class="edge">
<title>Node3&#45;&gt;Node32</title>
<path fill="none" stroke="#191970" d="M1029.1584,-324.5177C944.8177,-318.4208 791.984,-304.4723 664,-277 566.556,-256.0832 542.9465,-245.9693 450,-210 347.8202,-170.4574 231.2406,-112.2989 179.3705,-85.7087"/>
<polygon fill="#191970" stroke="#191970" points="180.9497,-82.5852 170.4563,-81.1227 177.7474,-88.8098 180.9497,-82.5852"/>
</g>
<!-- Node41 -->
<g id="node42" class="node">
<title>Node41</title>
<g id="a_node42"><a xlink:href="utils_8h.html" target="_top" xlink:title="utils.h">
<polygon fill="none" stroke="#000000" points="1727.5,-62 1727.5,-81 1774.5,-81 1774.5,-62 1727.5,-62"/>
<text text-anchor="middle" x="1751" y="-69" font-family="Helvetica,sans-Serif" font-size="10.00" fill="#000000">utils.h</text>
</a>
</g>
</g>
<!-- Node3&#45;&gt;Node41 -->
<g id="edge71" class="edge">
<title>Node3&#45;&gt;Node41</title>
<path fill="none" stroke="#191970" d="M1137.8517,-318.9499C1171.197,-310.7315 1217.1104,-297.0067 1254,-277 1273.1596,-266.609 1272.0424,-254.7611 1292,-246 1394.7891,-200.8772 1432.323,-233.9299 1542,-210 1552.7516,-207.6542 1724.4566,-162.0123 1732,-154 1747.8526,-137.1621 1751.3959,-109.8567 1751.7726,-91.3117"/>
<polygon fill="#191970" stroke="#191970" points="1755.2703,-91.0366 1751.6796,-81.0688 1748.2706,-91.1002 1755.2703,-91.0366"/>
</g>
<!-- Node46 -->
<g id="node47" class="node">
<title>Node46</title>
<polygon fill="none" stroke="#bfbfbf" points="1417.5,-129 1417.5,-148 1458.5,-148 1458.5,-129 1417.5,-129"/>
<text text-anchor="middle" x="1438" y="-136" font-family="Helvetica,sans-Serif" font-size="10.00" fill="#000000">tuple</text>
</g>
<!-- Node3&#45;&gt;Node46 -->
<g id="edge80" class="edge">
<title>Node3&#45;&gt;Node46</title>
<path fill="none" stroke="#191970" d="M1096.5902,-318.7056C1107.3373,-289.9272 1139.934,-206.6091 1163,-190 1252.6699,-125.4315 1304.045,-188.5576 1409,-154 1410.4234,-153.5313 1411.8598,-152.9958 1413.2915,-152.4121"/>
<polygon fill="#191970" stroke="#191970" points="1414.9465,-155.501 1422.4863,-148.0577 1411.9504,-149.1746 1414.9465,-155.501"/>
</g>
<!-- Node49 -->
<g id="node50" class="node">
<title>Node49</title>
<polygon fill="none" stroke="#bfbfbf" points="2249.5,-252 2249.5,-271 2368.5,-271 2368.5,-252 2249.5,-252"/>
<text text-anchor="middle" x="2309" y="-259" font-family="Helvetica,sans-Serif" font-size="10.00" fill="#000000">boost/filesystem.hpp</text>
</g>
<!-- Node3&#45;&gt;Node49 -->
<g id="edge72" class="edge">
<title>Node3&#45;&gt;Node49</title>
<path fill="none" stroke="#191970" d="M1156.6654,-324.9921C1364.4911,-313.5412 2022.1204,-277.3067 2238.918,-265.3614"/>
<polygon fill="#191970" stroke="#191970" points="2239.4187,-268.8392 2249.211,-264.7943 2239.0335,-261.8498 2239.4187,-268.8392"/>
</g>
<!-- Node3&#45;&gt;Node50 -->
<g id="edge74" class="edge">
<title>Node3&#45;&gt;Node50</title>
<path fill="none" stroke="#191970" d="M1029.1078,-324.2231C909.0903,-316.058 641.7817,-297.2501 417,-277 390.819,-274.6414 362.0849,-271.7291 336.895,-269.0679"/>
<polygon fill="#191970" stroke="#191970" points="337.0149,-265.561 326.701,-267.9844 336.275,-272.5218 337.0149,-265.561"/>
</g>
<!-- Node51 -->
<g id="node52" class="node">
<title>Node51</title>
<polygon fill="none" stroke="#bfbfbf" points="1301,-246.5 1301,-276.5 1411,-276.5 1411,-246.5 1301,-246.5"/>
<text text-anchor="start" x="1309" y="-264.5" font-family="Helvetica,sans-Serif" font-size="10.00" fill="#000000">boost/serialization</text>
<text text-anchor="middle" x="1356" y="-253.5" font-family="Helvetica,sans-Serif" font-size="10.00" fill="#000000">/unordered_set.hpp</text>
</g>
<!-- Node3&#45;&gt;Node51 -->
<g id="edge75" class="edge">
<title>Node3&#45;&gt;Node51</title>
<path fill="none" stroke="#191970" d="M1130.4022,-318.9717C1172.1492,-308.3365 1240.4668,-290.9324 1291.0012,-278.0586"/>
<polygon fill="#191970" stroke="#191970" points="1292.0314,-281.4081 1300.8578,-275.5476 1290.3033,-274.6247 1292.0314,-281.4081"/>
</g>
<!-- Node52 -->
<g id="node53" class="node">
<title>Node52</title>
<polygon fill="none" stroke="#bfbfbf" points="1429,-246.5 1429,-276.5 1599,-276.5 1599,-246.5 1429,-246.5"/>
<text text-anchor="start" x="1437" y="-264.5" font-family="Helvetica,sans-Serif" font-size="10.00" fill="#000000">wignerSymbols/wignerSymbols</text>
<text text-anchor="middle" x="1514" y="-253.5" font-family="Helvetica,sans-Serif" font-size="10.00" fill="#000000">&#45;cpp.h</text>
</g>
<!-- Node3&#45;&gt;Node52 -->
<g id="edge76" class="edge">
<title>Node3&#45;&gt;Node52</title>
<path fill="none" stroke="#191970" d="M1154.1926,-318.9975C1217.7248,-309.1013 1320.2843,-293.0407 1418.8145,-277.185"/>
<polygon fill="#191970" stroke="#191970" points="1419.634,-280.5982 1428.9501,-275.5524 1418.5207,-273.6873 1419.634,-280.5982"/>
</g>
<!-- Node5 -->
<g id="node6" class="node">
<title>Node5</title>
<g id="a_node6"><a xlink:href="ConfParser_8h.html" target="_top" xlink:title="ConfParser.h">
<polygon fill="none" stroke="#000000" points="446.5,-129 446.5,-148 523.5,-148 523.5,-129 446.5,-129"/>
<text text-anchor="middle" x="485" y="-136" font-family="Helvetica,sans-Serif" font-size="10.00" fill="#000000">ConfParser.h</text>
</a>
</g>
</g>
<!-- Node4&#45;&gt;Node5 -->
<g id="edge5" class="edge">
<title>Node4&#45;&gt;Node5</title>
<path fill="none" stroke="#191970" d="M1159.2882,-254.7459C1098.5286,-245.0909 983.6685,-226.6652 886,-210 758.8377,-188.3023 609.2868,-161.2219 533.8234,-147.4473"/>
<polygon fill="#191970" stroke="#191970" points="534.1432,-143.9479 523.677,-145.5939 532.8853,-150.8339 534.1432,-143.9479"/>
</g>
<!-- Node4&#45;&gt;Node8 -->
<g id="edge31" class="edge">
<title>Node4&#45;&gt;Node8</title>
<path fill="none" stroke="#191970" d="M1159.2269,-258.8028C1089.3506,-253.5815 954.8886,-239.8702 919,-210 887.2143,-183.5446 911.1228,-155.8492 886,-123 874.4323,-107.8747 857.225,-95.238 842.6476,-86.2675"/>
<polygon fill="#191970" stroke="#191970" points="844.3779,-83.2247 833.9849,-81.1665 840.826,-89.2566 844.3779,-83.2247"/>
</g>
<!-- Node10 -->
<g id="node11" class="node">
<title>Node10</title>
<g id="a_node11"><a xlink:href="Iter_8h.html" target="_top" xlink:title="Iter.h">
<polygon fill="none" stroke="#000000" points="1244.5,-190.5 1244.5,-209.5 1285.5,-209.5 1285.5,-190.5 1244.5,-190.5"/>
<text text-anchor="middle" x="1265" y="-197.5" font-family="Helvetica,sans-Serif" font-size="10.00" fill="#000000">Iter.h</text>
</a>
</g>
</g>
<!-- Node4&#45;&gt;Node10 -->
<g id="edge10" class="edge">
<title>Node4&#45;&gt;Node10</title>
<path fill="none" stroke="#191970" d="M1211.8438,-251.8906C1221.4039,-242.5581 1236.1223,-228.1902 1247.6495,-216.9374"/>
<polygon fill="#191970" stroke="#191970" points="1250.3066,-219.2348 1255.0175,-209.7449 1245.4168,-214.2257 1250.3066,-219.2348"/>
</g>
<!-- Node11 -->
<g id="node12" class="node">
<title>Node11</title>
<g id="a_node12"><a xlink:href="StateOld_8h.html" target="_top" xlink:title="StateOld.h">
<polygon fill="none" stroke="#000000" points="928,-190.5 928,-209.5 996,-209.5 996,-190.5 928,-190.5"/>
<text text-anchor="middle" x="962" y="-197.5" font-family="Helvetica,sans-Serif" font-size="10.00" fill="#000000">StateOld.h</text>
</a>
</g>
</g>
<!-- Node4&#45;&gt;Node11 -->
<g id="edge11" class="edge">
<title>Node4&#45;&gt;Node11</title>
<path fill="none" stroke="#191970" d="M1164.7633,-251.9581C1121.9214,-240.9799 1051.6386,-222.9699 1006.0975,-211.3"/>
<polygon fill="#191970" stroke="#191970" points="1006.7677,-207.8587 996.2118,-208.7668 1005.03,-214.6396 1006.7677,-207.8587"/>
</g>
<!-- Node4&#45;&gt;Node12 -->
<g id="edge27" class="edge">
<title>Node4&#45;&gt;Node12</title>
<path fill="none" stroke="#191970" d="M1244.5375,-253.9267C1259.5238,-251.3242 1276.496,-248.4509 1292,-246 1402.8803,-228.472 1431.8173,-231.4812 1542,-210 1578.3959,-202.9043 1586.8104,-198.0826 1623,-190 1702.6227,-172.2171 1724.3291,-175.6075 1803,-154 1805.9506,-153.1896 1808.9887,-152.2808 1812.0241,-151.3203"/>
<polygon fill="#191970" stroke="#191970" points="1813.217,-154.6121 1821.6002,-148.1334 1811.0066,-147.9702 1813.217,-154.6121"/>
</g>
<!-- Node4&#45;&gt;Node18 -->
<g id="edge33" class="edge">
<title>Node4&#45;&gt;Node18</title>
<path fill="none" stroke="#191970" d="M1244.9104,-253.2683C1259.7781,-250.6403 1276.581,-247.9191 1292,-246 1498.1378,-220.3438 1551.8932,-235.904 1758,-210 1980.9316,-181.9814 2033.0189,-150.6221 2256,-123 2387.2888,-106.7364 2799.8268,-80.9471 2921.1329,-73.5466"/>
<polygon fill="#191970" stroke="#191970" points="2921.5359,-77.0286 2931.3047,-72.9275 2921.1106,-70.0415 2921.5359,-77.0286"/>
</g>
<!-- Node24 -->
<g id="node25" class="node">
<title>Node24</title>
<polygon fill="none" stroke="#bfbfbf" points="1171.5,-190.5 1171.5,-209.5 1226.5,-209.5 1226.5,-190.5 1171.5,-190.5"/>
<text text-anchor="middle" x="1199" y="-197.5" font-family="Helvetica,sans-Serif" font-size="10.00" fill="#000000">fstream</text>
</g>
<!-- Node4&#45;&gt;Node24 -->
<g id="edge28" class="edge">
<title>Node4&#45;&gt;Node24</title>
<path fill="none" stroke="#191970" d="M1201.5313,-251.8906C1201.1154,-243.3657 1200.4946,-230.6392 1199.9719,-219.9235"/>
<polygon fill="#191970" stroke="#191970" points="1203.4585,-219.5624 1199.4754,-209.7449 1196.4668,-219.9035 1203.4585,-219.5624"/>
</g>
<!-- Node4&#45;&gt;Node25 -->
<g id="edge29" class="edge">
<title>Node4&#45;&gt;Node25</title>
<path fill="none" stroke="#191970" d="M1159.2815,-260.0788C1016.6278,-254.6398 558.8404,-231.3955 437,-154 413.084,-138.8081 396.5393,-109.5886 387.6594,-90.3174"/>
<polygon fill="#191970" stroke="#191970" points="390.8169,-88.8018 383.6161,-81.0302 384.3988,-91.5961 390.8169,-88.8018"/>
</g>
<!-- Node4&#45;&gt;Node26 -->
<g id="edge30" class="edge">
<title>Node4&#45;&gt;Node26</title>
<path fill="none" stroke="#191970" d="M1244.893,-253.1237C1259.7593,-250.4841 1276.5658,-247.7925 1292,-246 1365.7928,-237.4298 1897.8234,-208.2188 2022.7783,-201.4215"/>
<polygon fill="#191970" stroke="#191970" points="2023.1606,-204.906 2032.956,-200.8685 2022.7808,-197.9163 2023.1606,-204.906"/>
</g>
<!-- Node4&#45;&gt;Node27 -->
<g id="edge32" class="edge">
<title>Node4&#45;&gt;Node27</title>
<path fill="none" stroke="#191970" d="M1244.8723,-252.9367C1259.737,-250.2821 1276.5477,-247.6289 1292,-246 1403.1253,-234.2861 2189.9009,-208.5141 2402.9242,-201.687"/>
<polygon fill="#191970" stroke="#191970" points="2403.0403,-205.1852 2412.9232,-201.367 2402.8163,-198.1888 2403.0403,-205.1852"/>
</g>
<!-- Node6 -->
<g id="node7" class="node">
<title>Node6</title>
<polygon fill="none" stroke="#bfbfbf" points="427,-62 427,-81 465,-81 465,-62 427,-62"/>
<text text-anchor="middle" x="446" y="-69" font-family="Helvetica,sans-Serif" font-size="10.00" fill="#000000">map</text>
</g>
<!-- Node5&#45;&gt;Node6 -->
<g id="edge6" class="edge">
<title>Node5&#45;&gt;Node6</title>
<path fill="none" stroke="#191970" d="M479.4123,-128.9005C473.5043,-118.751 464.0413,-102.4941 456.6918,-89.8679"/>
<polygon fill="#191970" stroke="#191970" points="459.633,-87.9634 451.5774,-81.0817 453.5833,-91.4849 459.633,-87.9634"/>
</g>
<!-- Node5&#45;&gt;Node7 -->
<g id="edge7" class="edge">
<title>Node5&#45;&gt;Node7</title>
<path fill="none" stroke="#191970" d="M509.8597,-128.9314C536.4275,-118.6748 579.7585,-101.8592 617,-87 618.6379,-86.3465 620.3142,-85.6745 622.0063,-84.9936"/>
<polygon fill="#191970" stroke="#191970" points="623.7551,-88.0617 631.7111,-81.0651 621.1285,-81.5731 623.7551,-88.0617"/>
</g>
<!-- Node5&#45;&gt;Node8 -->
<g id="edge8" class="edge">
<title>Node5&#45;&gt;Node8</title>
<path fill="none" stroke="#191970" d="M523.501,-130.6831C589.2365,-117.3368 721.917,-90.3987 782.9515,-78.0068"/>
<polygon fill="#191970" stroke="#191970" points="783.6945,-81.4275 792.7981,-76.0077 782.3016,-74.5674 783.6945,-81.4275"/>
</g>
<!-- Node9 -->
<g id="node10" class="node">
<title>Node9</title>
<polygon fill="none" stroke="#bfbfbf" points="483.5,-62 483.5,-81 608.5,-81 608.5,-62 483.5,-62"/>
<text text-anchor="middle" x="546" y="-69" font-family="Helvetica,sans-Serif" font-size="10.00" fill="#000000">boost/lexical_cast.hpp</text>
</g>
<!-- Node5&#45;&gt;Node9 -->
<g id="edge9" class="edge">
<title>Node5&#45;&gt;Node9</title>
<path fill="none" stroke="#191970" d="M493.7398,-128.9005C503.2522,-118.4525 518.657,-101.5325 530.2825,-88.7635"/>
<polygon fill="#191970" stroke="#191970" points="533.1322,-90.8324 537.2764,-81.0817 527.9561,-86.1198 533.1322,-90.8324"/>
</g>
<!-- Node11&#45;&gt;Node8 -->
<g id="edge23" class="edge">
<title>Node11&#45;&gt;Node8</title>
<path fill="none" stroke="#191970" d="M996.2365,-192.7469C1055.1613,-180.2253 1169.6179,-155.7193 1171,-154 1179.632,-143.2615 1180.018,-133.4165 1171,-123 1149.9034,-98.6319 931.3058,-80.0735 847.4762,-73.8024"/>
<polygon fill="#191970" stroke="#191970" points="847.4878,-70.2939 837.2575,-73.0492 846.9731,-77.2749 847.4878,-70.2939"/>
</g>
<!-- Node11&#45;&gt;Node12 -->
<g id="edge12" class="edge">
<title>Node11&#45;&gt;Node12</title>
<path fill="none" stroke="#191970" d="M996.152,-198.2641C1151.2798,-190.3628 1782.8783,-158.0092 1803,-154 1806.6289,-153.277 1810.3639,-152.3183 1814.0517,-151.2312"/>
<polygon fill="#191970" stroke="#191970" points="1815.1699,-154.548 1823.5973,-148.127 1813.0051,-147.8912 1815.1699,-154.548"/>
</g>
<!-- Node11&#45;&gt;Node15 -->
<g id="edge19" class="edge">
<title>Node11&#45;&gt;Node15</title>
<path fill="none" stroke="#191970" d="M927.699,-198.4791C826.503,-193.7582 530.4438,-178.2025 437,-154 377.2535,-138.5253 312.4797,-105.495 277.6509,-86.2521"/>
<polygon fill="#191970" stroke="#191970" points="279.0864,-83.0447 268.6506,-81.2163 275.6685,-89.1536 279.0864,-83.0447"/>
</g>
<!-- Node11&#45;&gt;Node16 -->
<g id="edge21" class="edge">
<title>Node11&#45;&gt;Node16</title>
<path fill="none" stroke="#191970" d="M996.2391,-198.2628C1140.8273,-190.8874 1695.6614,-162.1721 1732,-154 1767.9926,-145.9057 1773.014,-131.1237 1809,-123 1888.4199,-105.0713 2466.9538,-79.2645 2614.0535,-72.9395"/>
<polygon fill="#191970" stroke="#191970" points="2614.4309,-76.4266 2624.2719,-72.5017 2614.1312,-69.433 2614.4309,-76.4266"/>
</g>
<!-- Node11&#45;&gt;Node19 -->
<g id="edge20" class="edge">
<title>Node11&#45;&gt;Node19</title>
<path fill="none" stroke="#191970" d="M996.0462,-192.6815C1000.727,-191.7413 1005.4774,-190.8214 1010,-190 1112.6654,-171.353 1139.0915,-171.2554 1242,-154 1249.8715,-152.6801 1258.1398,-151.2481 1266.3092,-149.8058"/>
<polygon fill="#191970" stroke="#191970" points="1266.9592,-153.2452 1276.1919,-148.0483 1265.7335,-146.3534 1266.9592,-153.2452"/>
</g>
<!-- Node11&#45;&gt;Node20 -->
<g id="edge22" class="edge">
<title>Node11&#45;&gt;Node20</title>
<path fill="none" stroke="#191970" d="M996.0833,-192.8737C1000.7584,-191.9037 1005.4973,-190.9244 1010,-190 1089.0641,-173.7691 1136.8964,-216.4739 1188,-154 1206.5828,-131.2827 1175.9765,-103.6329 1151.8011,-86.8103"/>
<polygon fill="#191970" stroke="#191970" points="1153.5496,-83.7695 1143.2884,-81.1316 1149.665,-89.5927 1153.5496,-83.7695"/>
</g>
<!-- Node11&#45;&gt;Node21 -->
<g id="edge24" class="edge">
<title>Node11&#45;&gt;Node21</title>
<path fill="none" stroke="#191970" d="M940.4375,-190.3906C920.8962,-181.682 891.5163,-168.5888 867.1584,-157.7336"/>
<polygon fill="#191970" stroke="#191970" points="868.3174,-154.4183 857.7586,-153.5446 865.4679,-160.8122 868.3174,-154.4183"/>
</g>
<!-- Node11&#45;&gt;Node22 -->
<g id="edge25" class="edge">
<title>Node11&#45;&gt;Node22</title>
<path fill="none" stroke="#191970" d="M966.0625,-190.3906C969.1903,-182.9922 973.656,-172.4291 977.7428,-162.7623"/>
<polygon fill="#191970" stroke="#191970" points="980.9694,-164.1182 981.6397,-153.5446 974.5219,-161.3924 980.9694,-164.1182"/>
</g>
<!-- Node11&#45;&gt;Node23 -->
<g id="edge26" class="edge">
<title>Node11&#45;&gt;Node23</title>
<path fill="none" stroke="#191970" d="M985.2813,-190.3906C1010.321,-180.0554 1050.3225,-163.5447 1078.466,-151.9284"/>
<polygon fill="#191970" stroke="#191970" points="1079.974,-155.0925 1087.8822,-148.0419 1077.3033,-148.622 1079.974,-155.0925"/>
</g>
<!-- Node13 -->
<g id="node14" class="node">
<title>Node13</title>
<polygon fill="none" stroke="#bfbfbf" points="1953.5,-62 1953.5,-81 2030.5,-81 2030.5,-62 1953.5,-62"/>
<text text-anchor="middle" x="1992" y="-69" font-family="Helvetica,sans-Serif" font-size="10.00" fill="#000000">Eigen/Dense</text>
</g>
<!-- Node12&#45;&gt;Node13 -->
<g id="edge13" class="edge">
<title>Node12&#45;&gt;Node13</title>
<path fill="none" stroke="#191970" d="M1867.775,-128.9005C1892.4323,-117.5072 1933.7451,-98.4178 1961.9018,-85.4075"/>
<polygon fill="#191970" stroke="#191970" points="1963.6539,-88.4535 1971.2636,-81.0817 1960.7177,-82.099 1963.6539,-88.4535"/>
</g>
<!-- Node12&#45;&gt;Node14 -->
<g id="edge14" class="edge">
<title>Node12&#45;&gt;Node14</title>
<path fill="none" stroke="#191970" d="M1876.8005,-133.5811C1924.7888,-125.4197 2022.0083,-107.8916 2103,-87 2106.58,-86.0765 2110.2849,-85.0459 2113.9805,-83.967"/>
<polygon fill="#191970" stroke="#191970" points="2115.0925,-87.2873 2123.6486,-81.0389 2113.0634,-80.5878 2115.0925,-87.2873"/>
</g>
<!-- Node12&#45;&gt;Node15 -->
<g id="edge15" class="edge">
<title>Node12&#45;&gt;Node15</title>
<path fill="none" stroke="#191970" d="M1817.3107,-133.6004C1794.1447,-129.9954 1761.1182,-125.3325 1732,-123 1115.9883,-73.6544 957.0064,-147.6017 342,-87 322.4,-85.0686 300.6307,-81.3622 283.4121,-78.058"/>
<polygon fill="#191970" stroke="#191970" points="283.8274,-74.5725 273.3392,-76.0721 282.4734,-81.4403 283.8274,-74.5725"/>
</g>
<!-- Node12&#45;&gt;Node16 -->
<g id="edge16" class="edge">
<title>Node12&#45;&gt;Node16</title>
<path fill="none" stroke="#191970" d="M1876.7601,-135.042C1905.8613,-131.7207 1951.4425,-126.6786 1991,-123 2229.5505,-100.8165 2517.4285,-80.4665 2614.3294,-73.793"/>
<polygon fill="#191970" stroke="#191970" points="2614.6726,-77.2777 2624.4092,-73.1007 2614.1929,-70.2942 2614.6726,-77.2777"/>
</g>
<!-- Node17 -->
<g id="node18" class="node">
<title>Node17</title>
<polygon fill="none" stroke="#bfbfbf" points="1792.5,-56.5 1792.5,-86.5 1935.5,-86.5 1935.5,-56.5 1792.5,-56.5"/>
<text text-anchor="start" x="1800.5" y="-74.5" font-family="Helvetica,sans-Serif" font-size="10.00" fill="#000000">unsupported/Eigen/CXX11</text>
<text text-anchor="middle" x="1864" y="-63.5" font-family="Helvetica,sans-Serif" font-size="10.00" fill="#000000">/Tensor</text>
</g>
<!-- Node12&#45;&gt;Node17 -->
<g id="edge17" class="edge">
<title>Node12&#45;&gt;Node17</title>
<path fill="none" stroke="#191970" d="M1849.4357,-128.9005C1851.5866,-120.4234 1854.8186,-107.6856 1857.6919,-96.3614"/>
<polygon fill="#191970" stroke="#191970" points="1861.1216,-97.0754 1860.1885,-86.5218 1854.3366,-95.3538 1861.1216,-97.0754"/>
</g>
<!-- Node12&#45;&gt;Node18 -->
<g id="edge18" class="edge">
<title>Node12&#45;&gt;Node18</title>
<path fill="none" stroke="#191970" d="M1876.7405,-134.8149C1905.8271,-131.3252 1951.3979,-126.162 1991,-123 2297.1096,-98.5586 2374.3691,-103.6719 2681,-87 2767.389,-82.3029 2869.0804,-76.4708 2920.9015,-73.4771"/>
<polygon fill="#191970" stroke="#191970" points="2921.3979,-76.9543 2931.1791,-72.8827 2920.9937,-69.966 2921.3979,-76.9543"/>
</g>
<!-- Node28&#45;&gt;Node8 -->
<g id="edge68" class="edge">
<title>Node28&#45;&gt;Node8</title>
<path fill="none" stroke="#191970" d="M1655.4159,-253.7411C1576.5256,-240.495 1424.7557,-214.5066 1421,-210 1395.3767,-179.2538 1461.8745,-166.4078 1468,-154 1474.0991,-141.6457 1477.3515,-133.1181 1468,-123 1457.3252,-111.4501 977.2224,-81.3894 847.1882,-73.4477"/>
<polygon fill="#191970" stroke="#191970" points="847.264,-69.9459 837.0697,-72.8312 846.8383,-76.9329 847.264,-69.9459"/>
</g>
<!-- Node28&#45;&gt;Node12 -->
<g id="edge65" class="edge">
<title>Node28&#45;&gt;Node12</title>
<path fill="none" stroke="#191970" d="M1697.0427,-251.6492C1690.3442,-236.7896 1680.6824,-208.4236 1694,-190 1723.8879,-148.653 1754.7155,-170.4765 1803,-154 1805.4145,-153.1761 1807.901,-152.3203 1810.4052,-151.4528"/>
<polygon fill="#191970" stroke="#191970" points="1811.7477,-154.6914 1820.0367,-148.0928 1809.4419,-148.0821 1811.7477,-154.6914"/>
</g>
<!-- Node28&#45;&gt;Node18 -->
<g id="edge69" class="edge">
<title>Node28&#45;&gt;Node18</title>
<path fill="none" stroke="#191970" d="M1739.9412,-251.8855C1799.923,-236.9557 1920.4804,-208.0421 2024,-190 2372.6331,-129.238 2799.8384,-86.2814 2921.3416,-74.6545"/>
<polygon fill="#191970" stroke="#191970" points="2921.8737,-78.1198 2931.4969,-73.6878 2921.2102,-71.1513 2921.8737,-78.1198"/>
</g>
<!-- Node29 -->
<g id="node30" class="node">
<title>Node29</title>
<g id="a_node30"><a xlink:href="QuantumDefect_8h.html" target="_top" xlink:title="QuantumDefect.h">
<polygon fill="none" stroke="#000000" points="1429.5,-190.5 1429.5,-209.5 1532.5,-209.5 1532.5,-190.5 1429.5,-190.5"/>
<text text-anchor="middle" x="1481" y="-197.5" font-family="Helvetica,sans-Serif" font-size="10.00" fill="#000000">QuantumDefect.h</text>
</a>
</g>
</g>
<!-- Node28&#45;&gt;Node29 -->
<g id="edge36" class="edge">
<title>Node28&#45;&gt;Node29</title>
<path fill="none" stroke="#191970" d="M1667.4688,-251.8906C1629.0318,-241.1944 1566.8256,-223.8836 1524.9464,-212.2294"/>
<polygon fill="#191970" stroke="#191970" points="1525.8611,-208.851 1515.2888,-209.5419 1523.9843,-215.5948 1525.8611,-208.851"/>
</g>
<!-- Node47 -->
<g id="node48" class="node">
<title>Node47</title>
<polygon fill="none" stroke="#bfbfbf" points="1703,-190.5 1703,-209.5 1749,-209.5 1749,-190.5 1703,-190.5"/>
<text text-anchor="middle" x="1726" y="-197.5" font-family="Helvetica,sans-Serif" font-size="10.00" fill="#000000">cstdio</text>
</g>
<!-- Node28&#45;&gt;Node47 -->
<g id="edge66" class="edge">
<title>Node28&#45;&gt;Node47</title>
<path fill="none" stroke="#191970" d="M1705.75,-251.8906C1709.1468,-243.1862 1714.2531,-230.1015 1718.488,-219.2494"/>
<polygon fill="#191970" stroke="#191970" points="1721.8222,-220.3331 1722.1971,-209.7449 1715.3011,-217.7882 1721.8222,-220.3331"/>
</g>
<!-- Node28&#45;&gt;Node48 -->
<g id="edge67" class="edge">
<title>Node28&#45;&gt;Node48</title>
<path fill="none" stroke="#191970" d="M1748.6784,-259.2198C1951.9221,-249.2917 2757.1842,-209.9561 2928.7462,-201.5755"/>
<polygon fill="#191970" stroke="#191970" points="2929.0804,-205.0635 2938.8977,-201.0797 2928.7388,-198.0718 2929.0804,-205.0635"/>
</g>
<!-- Node29&#45;&gt;Node8 -->
<g id="edge61" class="edge">
<title>Node29&#45;&gt;Node8</title>
<path fill="none" stroke="#191970" d="M1488.404,-190.3605C1499.7975,-174.2928 1518.5661,-141.9342 1501,-123 1489.7177,-110.839 981.0645,-80.9821 847.0705,-73.317"/>
<polygon fill="#191970" stroke="#191970" points="847.2091,-69.8194 837.026,-72.7439 846.8103,-76.808 847.2091,-69.8194"/>
</g>
<!-- Node29&#45;&gt;Node12 -->
<g id="edge59" class="edge">
<title>Node29&#45;&gt;Node12</title>
<path fill="none" stroke="#191970" d="M1532.6923,-193.8731C1610.2264,-184.4695 1752.8828,-166.2803 1803,-154 1806.2252,-153.2097 1809.5459,-152.275 1812.8488,-151.2624"/>
<polygon fill="#191970" stroke="#191970" points="1814.1856,-154.5072 1822.5909,-148.0574 1811.9979,-147.8578 1814.1856,-154.5072"/>
</g>
<!-- Node29&#45;&gt;Node19 -->
<g id="edge64" class="edge">
<title>Node29&#45;&gt;Node19</title>
<path fill="none" stroke="#191970" d="M1457.0938,-190.3906C1431.2695,-180.0103 1389.9473,-163.4004 1361.0295,-151.7766"/>
<polygon fill="#191970" stroke="#191970" points="1362.3222,-148.5241 1351.7384,-148.0419 1359.7115,-155.019 1362.3222,-148.5241"/>
</g>
<!-- Node30 -->
<g id="node31" class="node">
<title>Node30</title>
<g id="a_node31"><a xlink:href="Cache_8h.html" target="_top" xlink:title="Cache.h">
<polygon fill="none" stroke="#000000" points="1553,-129 1553,-148 1609,-148 1609,-129 1553,-129"/>
<text text-anchor="middle" x="1581" y="-136" font-family="Helvetica,sans-Serif" font-size="10.00" fill="#000000">Cache.h</text>
</a>
</g>
</g>
<!-- Node29&#45;&gt;Node30 -->
<g id="edge37" class="edge">
<title>Node29&#45;&gt;Node30</title>
<path fill="none" stroke="#191970" d="M1496.625,-190.3906C1512.7698,-180.4616 1538.1822,-164.833 1556.9023,-153.3201"/>
<polygon fill="#191970" stroke="#191970" points="1558.8002,-156.2619 1565.4847,-148.0419 1555.1331,-150.2992 1558.8002,-156.2619"/>
</g>
<!-- Node31 -->
<g id="node32" class="node">
<title>Node31</title>
<polygon fill="none" stroke="#bfbfbf" points="1301,-62 1301,-81 1349,-81 1349,-62 1301,-62"/>
<text text-anchor="middle" x="1325" y="-69" font-family="Helvetica,sans-Serif" font-size="10.00" fill="#000000">mutex</text>
</g>
<!-- Node29&#45;&gt;Node31 -->
<g id="edge60" class="edge">
<title>Node29&#45;&gt;Node31</title>
<path fill="none" stroke="#191970" d="M1532.7334,-190.4017C1582.8671,-178.8797 1647.3454,-156.7792 1618,-123 1580.4681,-79.7973 1418.2492,-101.9208 1363,-87 1360.5323,-86.3336 1358.01,-85.5495 1355.4969,-84.6939"/>
<polygon fill="#191970" stroke="#191970" points="1356.5766,-81.361 1345.9841,-81.1368 1354.1248,-87.9176 1356.5766,-81.361"/>
</g>
<!-- Node29&#45;&gt;Node32 -->
<g id="edge63" class="edge">
<title>Node29&#45;&gt;Node32</title>
<path fill="none" stroke="#191970" d="M1429.2939,-197.0565C1391.9769,-194.972 1340.3834,-192.172 1295,-190 913.7675,-171.7546 813.6806,-215.5048 437,-154 344.8246,-138.9495 240.2524,-103.8337 187.0818,-84.6253"/>
<polygon fill="#191970" stroke="#191970" points="188.053,-81.2541 177.459,-81.1193 185.6566,-87.8312 188.053,-81.2541"/>
</g>
<!-- Node34 -->
<g id="node35" class="node">
<title>Node34</title>
<g id="a_node35"><a xlink:href="SQLite_8h.html" target="_top" xlink:title="SQLite.h">
<polygon fill="none" stroke="#000000" points="1665.5,-129 1665.5,-148 1722.5,-148 1722.5,-129 1665.5,-129"/>
<text text-anchor="middle" x="1694" y="-136" font-family="Helvetica,sans-Serif" font-size="10.00" fill="#000000">SQLite.h</text>
</a>
</g>
</g>
<!-- Node29&#45;&gt;Node34 -->
<g id="edge41" class="edge">
<title>Node29&#45;&gt;Node34</title>
<path fill="none" stroke="#191970" d="M1519.7452,-190.4772C1554.3724,-181.739 1606.3805,-168.0528 1651,-154 1653.6066,-153.1791 1656.29,-152.2985 1658.9824,-151.3892"/>
<polygon fill="#191970" stroke="#191970" points="1660.3561,-154.6172 1668.6509,-148.0258 1658.0561,-148.0058 1660.3561,-154.6172"/>
</g>
<!-- Node29&#45;&gt;Node46 -->
<g id="edge62" class="edge">
<title>Node29&#45;&gt;Node46</title>
<path fill="none" stroke="#191970" d="M1474.2813,-190.3906C1468.007,-181.417 1458.4777,-167.7879 1450.7596,-156.7491"/>
<polygon fill="#191970" stroke="#191970" points="1453.4121,-154.4348 1444.8135,-148.2449 1447.6753,-158.4459 1453.4121,-154.4348"/>
</g>
<!-- Node30&#45;&gt;Node31 -->
<g id="edge38" class="edge">
<title>Node30&#45;&gt;Node31</title>
<path fill="none" stroke="#191970" d="M1556.7773,-128.8501C1551.0068,-126.7497 1544.8303,-124.6617 1539,-123 1462.216,-101.1155 1439.4038,-110.1771 1363,-87 1360.6989,-86.302 1358.344,-85.5186 1355.9896,-84.6845"/>
<polygon fill="#191970" stroke="#191970" points="1357.0433,-81.3407 1346.4522,-81.0588 1354.5559,-87.8839 1357.0433,-81.3407"/>
</g>
<!-- Node30&#45;&gt;Node32 -->
<g id="edge39" class="edge">
<title>Node30&#45;&gt;Node32</title>
<path fill="none" stroke="#191970" d="M1552.765,-133.7691C1529.9624,-130.1559 1497.0093,-125.4017 1468,-123 915.88,-77.2904 771.7962,-155.1905 222,-87 214.4418,-86.0626 206.4977,-84.6878 198.784,-83.1383"/>
<polygon fill="#191970" stroke="#191970" points="199.3371,-79.6777 188.828,-81.0227 197.8821,-86.5248 199.3371,-79.6777"/>
</g>
<!-- Node33 -->
<g id="node34" class="node">
<title>Node33</title>
<polygon fill="none" stroke="#bfbfbf" points="1175.5,-62 1175.5,-81 1282.5,-81 1282.5,-62 1175.5,-62"/>
<text text-anchor="middle" x="1229" y="-69" font-family="Helvetica,sans-Serif" font-size="10.00" fill="#000000">boost/optional.hpp</text>
</g>
<!-- Node30&#45;&gt;Node33 -->
<g id="edge40" class="edge">
<title>Node30&#45;&gt;Node33</title>
<path fill="none" stroke="#191970" d="M1557.7273,-128.93C1551.7055,-126.7265 1545.1766,-124.5715 1539,-123 1431.4875,-95.6465 1400.8782,-108.2767 1292,-87 1286.5418,-85.9334 1280.8455,-84.7016 1275.206,-83.4081"/>
<polygon fill="#191970" stroke="#191970" points="1275.7172,-79.9324 1265.1799,-81.0353 1274.1051,-86.7443 1275.7172,-79.9324"/>
</g>
<!-- Node34&#45;&gt;Node7 -->
<g id="edge45" class="edge">
<title>Node34&#45;&gt;Node7</title>
<path fill="none" stroke="#191970" d="M1665.305,-131.5317C1651.1509,-128.3808 1633.7715,-124.9363 1618,-123 1249.7532,-77.7886 1153.7846,-117.1523 784,-87 753.3723,-84.5026 718.8109,-80.2738 693.1758,-76.8636"/>
<polygon fill="#191970" stroke="#191970" points="693.5001,-73.3757 683.1219,-75.5074 692.5642,-80.3129 693.5001,-73.3757"/>
</g>
<!-- Node34&#45;&gt;Node8 -->
<g id="edge46" class="edge">
<title>Node34&#45;&gt;Node8</title>
<path fill="none" stroke="#191970" d="M1665.2866,-131.6753C1651.1281,-128.5584 1633.7504,-125.1011 1618,-123 1540.739,-112.6933 987.8589,-81.2143 847.3904,-73.3136"/>
<polygon fill="#191970" stroke="#191970" points="847.4479,-69.8114 837.2673,-72.7449 847.0552,-76.8003 847.4479,-69.8114"/>
</g>
<!-- Node34&#45;&gt;Node20 -->
<g id="edge42" class="edge">
<title>Node34&#45;&gt;Node20</title>
<path fill="none" stroke="#191970" d="M1665.2719,-131.7824C1651.1099,-128.6909 1633.7335,-125.224 1618,-123 1418.8972,-94.8566 1363.0284,-131.7978 1167,-87 1163.9756,-86.3088 1160.8763,-85.4322 1157.8067,-84.4488"/>
<polygon fill="#191970" stroke="#191970" points="1158.8248,-81.0961 1148.2301,-81.0398 1156.4773,-87.6908 1158.8248,-81.0961"/>
</g>
<!-- Node34&#45;&gt;Node25 -->
<g id="edge43" class="edge">
<title>Node34&#45;&gt;Node25</title>
<path fill="none" stroke="#191970" d="M1665.3158,-131.4413C1651.1642,-128.269 1633.7839,-124.8326 1618,-123 1352.9936,-92.2309 679.0008,-142.26 418,-87 415.1247,-86.3912 412.1894,-85.5762 409.2881,-84.6372"/>
<polygon fill="#191970" stroke="#191970" points="410.2845,-81.274 399.6913,-81.0866 407.8555,-87.8391 410.2845,-81.274"/>
</g>
<!-- Node35 -->
<g id="node36" class="node">
<title>Node35</title>
<polygon fill="none" stroke="#bfbfbf" points="1672,-.5 1672,-19.5 1726,-19.5 1726,-.5 1672,-.5"/>
<text text-anchor="middle" x="1699" y="-7.5" font-family="Helvetica,sans-Serif" font-size="10.00" fill="#000000">random</text>
</g>
<!-- Node34&#45;&gt;Node35 -->
<g id="edge44" class="edge">
<title>Node34&#45;&gt;Node35</title>
<path fill="none" stroke="#191970" d="M1694.3758,-128.8416C1695.1902,-107.9114 1697.1321,-58.004 1698.2227,-29.9762"/>
<polygon fill="#191970" stroke="#191970" points="1701.7283,-29.899 1698.6198,-19.7705 1694.7336,-29.6268 1701.7283,-29.899"/>
</g>
<!-- Node36 -->
<g id="node37" class="node">
<title>Node36</title>
<polygon fill="none" stroke="#bfbfbf" points="1623,-62 1623,-81 1671,-81 1671,-62 1623,-62"/>
<text text-anchor="middle" x="1647" y="-69" font-family="Helvetica,sans-Serif" font-size="10.00" fill="#000000">thread</text>
</g>
<!-- Node34&#45;&gt;Node36 -->
<g id="edge47" class="edge">
<title>Node34&#45;&gt;Node36</title>
<path fill="none" stroke="#191970" d="M1687.266,-128.9005C1680.0764,-118.6515 1668.5181,-102.1747 1659.6252,-89.4976"/>
<polygon fill="#191970" stroke="#191970" points="1662.3296,-87.2582 1653.7215,-81.0817 1656.599,-91.2783 1662.3296,-87.2582"/>
</g>
<!-- Node34&#45;&gt;Node37 -->
<g id="edge48" class="edge">
<title>Node34&#45;&gt;Node37</title>
<path fill="none" stroke="#191970" d="M1665.3373,-130.3087C1655.7441,-127.7444 1644.9578,-125.0518 1635,-123 1529.7897,-101.3215 1494.2198,-130.4975 1396,-87 1376.0709,-78.1742 1378.2619,-64.0323 1358,-56 1301.9895,-33.7961 889.6174,-16.7327 751.7488,-11.5966"/>
<polygon fill="#191970" stroke="#191970" points="751.666,-8.0912 741.5436,-11.2196 751.4075,-15.0865 751.666,-8.0912"/>
</g>
<!-- Node38 -->
<g id="node39" class="node">
<title>Node38</title>
<polygon fill="none" stroke="#bfbfbf" points="1405,-56.5 1405,-86.5 1527,-86.5 1527,-56.5 1405,-56.5"/>
<text text-anchor="start" x="1413" y="-74.5" font-family="Helvetica,sans-Serif" font-size="10.00" fill="#000000">boost/iterator/iterator</text>
<text text-anchor="middle" x="1466" y="-63.5" font-family="Helvetica,sans-Serif" font-size="10.00" fill="#000000">_facade.hpp</text>
</g>
<!-- Node34&#45;&gt;Node38 -->
<g id="edge49" class="edge">
<title>Node34&#45;&gt;Node38</title>
<path fill="none" stroke="#191970" d="M1668.1848,-128.8422C1662.5478,-126.8322 1656.5946,-124.7843 1651,-123 1612.5308,-110.7309 1569.0539,-98.5439 1533.9179,-89.1075"/>
<polygon fill="#191970" stroke="#191970" points="1534.8046,-85.7217 1524.24,-86.5211 1532.9972,-92.4843 1534.8046,-85.7217"/>
</g>
<!-- Node39 -->
<g id="node40" class="node">
<title>Node39</title>
<polygon fill="none" stroke="#bfbfbf" points="1545.5,-62 1545.5,-81 1604.5,-81 1604.5,-62 1545.5,-62"/>
<text text-anchor="middle" x="1575" y="-69" font-family="Helvetica,sans-Serif" font-size="10.00" fill="#000000">sqlite3.h</text>
</g>
<!-- Node34&#45;&gt;Node39 -->
<g id="edge50" class="edge">
<title>Node34&#45;&gt;Node39</title>
<path fill="none" stroke="#191970" d="M1676.9502,-128.9005C1657.0677,-117.7062 1623.9895,-99.0823 1600.922,-86.0947"/>
<polygon fill="#191970" stroke="#191970" points="1602.4491,-82.938 1592.0182,-81.0817 1599.0148,-89.0376 1602.4491,-82.938"/>
</g>
<!-- Node40 -->
<g id="node41" class="node">
<title>Node40</title>
<polygon fill="none" stroke="#bfbfbf" points="2048.5,-62 2048.5,-81 2093.5,-81 2093.5,-62 2048.5,-62"/>
<text text-anchor="middle" x="2071" y="-69" font-family="Helvetica,sans-Serif" font-size="10.00" fill="#000000">utility</text>
</g>
<!-- Node34&#45;&gt;Node40 -->
<g id="edge51" class="edge">
<title>Node34&#45;&gt;Node40</title>
<path fill="none" stroke="#191970" d="M1722.7986,-132.5968C1738.2422,-129.5305 1757.62,-125.8413 1775,-123 1892.3024,-103.8233 1926.4258,-122.0499 2040,-87 2041.6602,-86.4876 2043.3403,-85.8937 2045.0146,-85.243"/>
<polygon fill="#191970" stroke="#191970" points="2046.6582,-88.3423 2054.3632,-81.0702 2043.805,-81.9502 2046.6582,-88.3423"/>
</g>
<!-- Node34&#45;&gt;Node41 -->
<g id="edge52" class="edge">
<title>Node34&#45;&gt;Node41</title>
<path fill="none" stroke="#191970" d="M1702.1667,-128.9005C1711.0554,-118.4525 1725.45,-101.5325 1736.3131,-88.7635"/>
<polygon fill="#191970" stroke="#191970" points="1739.0344,-90.9662 1742.8484,-81.0817 1733.7028,-86.4303 1739.0344,-90.9662"/>
</g>
<!-- Node41&#45;&gt;Node35 -->
<g id="edge56" class="edge">
<title>Node41&#45;&gt;Node35</title>
<path fill="none" stroke="#191970" d="M1742.875,-61.8906C1735.1358,-52.7376 1723.3013,-38.7409 1713.8728,-27.59"/>
<polygon fill="#191970" stroke="#191970" points="1716.3689,-25.1213 1707.2396,-19.7449 1711.0235,-29.6409 1716.3689,-25.1213"/>
</g>
<!-- Node41&#45;&gt;Node37 -->
<g id="edge57" class="edge">
<title>Node41&#45;&gt;Node37</title>
<path fill="none" stroke="#191970" d="M1727.1852,-65.2547C1713.4836,-61.9255 1695.8857,-58.0945 1680,-56 1496.8689,-31.855 917.7632,-15.4212 751.8327,-11.1201"/>
<polygon fill="#191970" stroke="#191970" points="751.596,-7.6129 741.5092,-10.8544 751.4158,-14.6106 751.596,-7.6129"/>
</g>
<!-- Node41&#45;&gt;Node42 -->
<g id="edge53" class="edge">
<title>Node41&#45;&gt;Node42</title>
<path fill="none" stroke="#191970" d="M1767.9786,-61.889C1772.9854,-59.5113 1778.5789,-57.2798 1784,-56 1942.4705,-18.5874 3086.3358,-27.277 3249,-20 3286.8744,-18.3056 3329.9307,-15.4291 3360.8684,-13.1949"/>
<polygon fill="#191970" stroke="#191970" points="3361.1522,-16.6836 3370.8707,-12.4645 3360.6423,-9.7022 3361.1522,-16.6836"/>
</g>
<!-- Node43 -->
<g id="node44" class="node">
<title>Node43</title>
<polygon fill="none" stroke="#bfbfbf" points="3180.5,-.5 3180.5,-19.5 3239.5,-19.5 3239.5,-.5 3180.5,-.5"/>
<text text-anchor="middle" x="3210" y="-7.5" font-family="Helvetica,sans-Serif" font-size="10.00" fill="#000000">complex</text>
</g>
<!-- Node41&#45;&gt;Node43 -->
<g id="edge54" class="edge">
<title>Node41&#45;&gt;Node43</title>
<path fill="none" stroke="#191970" d="M1767.985,-61.9159C1772.9919,-59.5386 1778.5839,-57.3006 1784,-56 1853.1286,-39.3993 2945.4481,-15.5716 3169.8804,-10.8362"/>
<polygon fill="#191970" stroke="#191970" points="3170.2763,-14.3287 3180.2004,-10.619 3170.129,-7.3303 3170.2763,-14.3287"/>
</g>
<!-- Node44 -->
<g id="node45" class="node">
<title>Node44</title>
<polygon fill="none" stroke="#bfbfbf" points="2472.5,-.5 2472.5,-19.5 2537.5,-19.5 2537.5,-.5 2472.5,-.5"/>
<text text-anchor="middle" x="2505" y="-7.5" font-family="Helvetica,sans-Serif" font-size="10.00" fill="#000000">functional</text>
</g>
<!-- Node41&#45;&gt;Node44 -->
<g id="edge55" class="edge">
<title>Node41&#45;&gt;Node44</title>
<path fill="none" stroke="#191970" d="M1768.3546,-61.864C1773.2734,-59.5478 1778.7276,-57.3542 1784,-56 1913.3706,-22.7714 2326.5259,-12.9933 2461.7248,-10.6453"/>
<polygon fill="#191970" stroke="#191970" points="2462.1466,-14.1388 2472.0861,-10.4706 2462.0285,-7.1398 2462.1466,-14.1388"/>
</g>
<!-- Node45 -->
<g id="node46" class="node">
<title>Node45</title>
<polygon fill="none" stroke="#bfbfbf" points="1744,-.5 1744,-19.5 1800,-19.5 1800,-.5 1744,-.5"/>
<text text-anchor="middle" x="1772" y="-7.5" font-family="Helvetica,sans-Serif" font-size="10.00" fill="#000000">unistd.h</text>
</g>
<!-- Node41&#45;&gt;Node45 -->
<g id="edge58" class="edge">
<title>Node41&#45;&gt;Node45</title>
<path fill="none" stroke="#191970" d="M1754.2813,-61.8906C1757.2535,-53.1862 1761.7214,-40.1015 1765.427,-29.2494"/>
<polygon fill="#191970" stroke="#191970" points="1768.7532,-30.3394 1768.6725,-19.7449 1762.1288,-28.0773 1768.7532,-30.3394"/>
</g>
<!-- Node54&#45;&gt;Node2 -->
<g id="edge94" class="edge">
<title>Node54&#45;&gt;Node2</title>
<path fill="none" stroke="#191970" d="M2006.8241,-461.4593C1823.3835,-456.904 1107.8309,-437.7488 884,-411 869.7338,-409.2951 854.1867,-406.4602 840.6876,-403.6776"/>
<polygon fill="#191970" stroke="#191970" points="841.3284,-400.2357 830.8191,-401.5796 839.8726,-407.0827 841.3284,-400.2357"/>
</g>
<!-- Node54&#45;&gt;Node3 -->
<g id="edge93" class="edge">
<title>Node54&#45;&gt;Node3</title>
<path fill="none" stroke="#191970" d="M2006.8942,-461.5652C1827.3527,-457.4896 1146.6452,-440.1602 1112,-411 1094.0459,-395.8884 1091.0966,-367.5353 1091.4193,-348.336"/>
<polygon fill="#191970" stroke="#191970" points="1094.9195,-348.4139 1091.8988,-338.2588 1087.9274,-348.0811 1094.9195,-348.4139"/>
</g>
<!-- Node54&#45;&gt;Node8 -->
<g id="edge125" class="edge">
<title>Node54&#45;&gt;Node8</title>
<path fill="none" stroke="#191970" d="M2006.874,-461.5326C1831.5779,-457.4174 1177.6261,-440.2282 1090,-411 937.7525,-360.217 903.1204,-323.8508 790,-210 760.3844,-180.1932 735.1475,-161.0371 753,-123 760.1975,-107.6648 774.4529,-95.3165 787.4813,-86.5595"/>
<polygon fill="#191970" stroke="#191970" points="789.5987,-89.3627 796.2031,-81.0782 785.8739,-83.4359 789.5987,-89.3627"/>
</g>
<!-- Node54&#45;&gt;Node12 -->
<g id="edge102" class="edge">
<title>Node54&#45;&gt;Node12</title>
<path fill="none" stroke="#191970" d="M2006.8907,-460.8434C1829.0463,-453.9098 1160.9695,-426.8466 1146,-411 1136.5388,-400.9844 1136.4973,-389.9762 1146,-380 1202.7768,-320.3939 1829.2232,-403.6061 1886,-344 1935.8526,-291.6631 1884.6068,-196.4816 1859.3359,-156.7187"/>
<polygon fill="#191970" stroke="#191970" points="1862.2211,-154.7357 1853.8243,-148.2747 1856.3593,-158.5618 1862.2211,-154.7357"/>
</g>
<!-- Node54&#45;&gt;Node18 -->
<g id="edge129" class="edge">
<title>Node54&#45;&gt;Node18</title>
<path fill="none" stroke="#191970" d="M2093.2789,-461.247C2276.8351,-455.8011 2983.5151,-433.4514 3025,-411 3128.7474,-354.8526 3224.3742,-295.7024 3172,-190 3136.9654,-119.2927 3040.3464,-89.0285 2988.6576,-77.5845"/>
<polygon fill="#191970" stroke="#191970" points="2989.1553,-74.1127 2978.6491,-75.4802 2987.7149,-80.963 2989.1553,-74.1127"/>
</g>
<!-- Node54&#45;&gt;Node25 -->
<g id="edge121" class="edge">
<title>Node54&#45;&gt;Node25</title>
<path fill="none" stroke="#191970" d="M2006.8177,-462.3566C1812.1768,-461.4658 1015.2892,-455.141 770,-411 675.6615,-394.0233 646.1416,-395.0293 565,-344 466.0125,-281.7476 428.5499,-261.699 383,-154 374.4817,-133.8592 375.0517,-108.4204 376.9025,-91.1535"/>
<polygon fill="#191970" stroke="#191970" points="380.3876,-91.4955 378.221,-81.1245 373.4473,-90.5829 380.3876,-91.4955"/>
</g>
<!-- Node54&#45;&gt;Node26 -->
<g id="edge123" class="edge">
<title>Node54&#45;&gt;Node26</title>
<path fill="none" stroke="#191970" d="M2049.9632,-452.8462C2049.8171,-414.4987 2049.2761,-272.4727 2049.0755,-219.8136"/>
<polygon fill="#191970" stroke="#191970" points="2052.5753,-219.7282 2049.0371,-209.7416 2045.5753,-219.7549 2052.5753,-219.7282"/>
</g>
<!-- Node54&#45;&gt;Node27 -->
<g id="edge127" class="edge">
<title>Node54&#45;&gt;Node27</title>
<path fill="none" stroke="#191970" d="M2093.0531,-460.7188C2235.8613,-454.605 2686.1002,-433.6022 2707,-411 2716.3539,-400.8841 2715.8089,-390.5939 2707,-380 2650.9323,-312.5709 2580.7072,-399.7315 2513,-344 2493.0581,-327.5854 2470.9443,-254.7032 2461.1505,-219.3552"/>
<polygon fill="#191970" stroke="#191970" points="2464.5247,-218.4249 2458.5226,-209.6942 2457.7701,-220.2623 2464.5247,-218.4249"/>
</g>
<!-- Node54&#45;&gt;Node32 -->
<g id="edge126" class="edge">
<title>Node54&#45;&gt;Node32</title>
<path fill="none" stroke="#191970" d="M2006.8415,-462.1761C1783.4985,-460.3339 764.0838,-449.8441 629,-411 521.5336,-380.0975 246.45,-151.5375 171.2496,-87.902"/>
<polygon fill="#191970" stroke="#191970" points="173.3568,-85.0999 163.4667,-81.3002 168.8286,-90.4381 173.3568,-85.0999"/>
</g>
<!-- Node54&#45;&gt;Node40 -->
<g id="edge128" class="edge">
<title>Node54&#45;&gt;Node40</title>
<path fill="none" stroke="#191970" d="M2053.0623,-452.7422C2056.1442,-442.4691 2060.7533,-425.7688 2063,-411 2081.3003,-290.7016 2075.2925,-143.7073 2072.2769,-91.2539"/>
<polygon fill="#191970" stroke="#191970" points="2075.7557,-90.7969 2071.6558,-81.0274 2068.7685,-91.2213 2075.7557,-90.7969"/>
</g>
<!-- Node54&#45;&gt;Node42 -->
<g id="edge108" class="edge">
<title>Node54&#45;&gt;Node42</title>
<path fill="none" stroke="#191970" d="M2093.202,-462.1326C2284.4382,-460.2832 3049.7077,-450.4577 3149,-411 3262.6725,-365.8277 3282.1234,-319.3185 3337,-210 3368.516,-147.2178 3389.9006,-66.0237 3398.6099,-29.4145"/>
<polygon fill="#191970" stroke="#191970" points="3402.0468,-30.087 3400.9031,-19.5541 3395.2288,-28.5014 3402.0468,-30.087"/>
</g>
<!-- Node54&#45;&gt;Node43 -->
<g id="edge117" class="edge">
<title>Node54&#45;&gt;Node43</title>
<path fill="none" stroke="#191970" d="M2093.0304,-462.0458C2280.039,-459.8522 3017.0782,-448.8571 3113,-411 3174.2523,-386.8258 3327,-206.7001 3327,-200 3327,-200 3327,-200 3327,-138.5 3327,-85.6005 3272.1182,-44.8856 3237.5307,-24.4789"/>
<polygon fill="#191970" stroke="#191970" points="3239.2189,-21.4126 3228.7981,-19.5005 3235.752,-27.4938 3239.2189,-21.4126"/>
</g>
<!-- Node54&#45;&gt;Node44 -->
<g id="edge118" class="edge">
<title>Node54&#45;&gt;Node44</title>
<path fill="none" stroke="#191970" d="M2093.1341,-461.7249C2274.7679,-458.2699 2972.2809,-443.015 3065,-411 3144.3155,-383.6132 3176.5935,-358.1341 3198,-277 3232.5661,-145.9889 3119.1109,-90.1857 2988,-56 2905.2429,-34.422 2649.8738,-18.1332 2547.8007,-12.3193"/>
<polygon fill="#191970" stroke="#191970" points="2547.7354,-8.8102 2537.5542,-11.7417 2547.3414,-15.7991 2547.7354,-8.8102"/>
</g>
<!-- Node54&#45;&gt;Node48 -->
<g id="edge120" class="edge">
<title>Node54&#45;&gt;Node48</title>
<path fill="none" stroke="#191970" d="M2093.2409,-462.2751C2267.4343,-461.0809 2912.2029,-453.7837 2992,-411 3035.0938,-387.895 3056.9612,-359.5519 3042,-313 3029.5469,-274.2519 2998.3579,-237.5243 2978.5169,-216.9657"/>
<polygon fill="#191970" stroke="#191970" points="2980.8102,-214.3075 2971.2858,-209.6665 2975.8372,-219.234 2980.8102,-214.3075"/>
</g>
<!-- Node54&#45;&gt;Node49 -->
<g id="edge109" class="edge">
<title>Node54&#45;&gt;Node49</title>
<path fill="none" stroke="#191970" d="M2093.4056,-460.6103C2234.1097,-454.2777 2669.7313,-432.9652 2690,-411 2699.3435,-400.8745 2699.0301,-390.406 2690,-380 2652.7802,-337.1092 2490.2093,-363.842 2437,-344 2394.6402,-328.2038 2351.7591,-296.7003 2327.9534,-277.5215"/>
<polygon fill="#191970" stroke="#191970" points="2330.0336,-274.701 2320.0822,-271.0651 2325.5942,-280.1132 2330.0336,-274.701"/>
</g>
<!-- Node55 -->
<g id="node56" class="node">
<title>Node55</title>
<g id="a_node56"><a xlink:href="WignerD_8h.html" target="_top" xlink:title="WignerD.h">
<polygon fill="none" stroke="#000000" points="2889,-386 2889,-405 2957,-405 2957,-386 2889,-386"/>
<text text-anchor="middle" x="2923" y="-393" font-family="Helvetica,sans-Serif" font-size="10.00" fill="#000000">WignerD.h</text>
</a>
</g>
</g>
<!-- Node54&#45;&gt;Node55 -->
<g id="edge95" class="edge">
<title>Node54&#45;&gt;Node55</title>
<path fill="none" stroke="#191970" d="M2093.132,-460.377C2208.0456,-454.5386 2531.0966,-436.9339 2799,-411 2825.5231,-408.4325 2855.1393,-404.7607 2878.7751,-401.6353"/>
<polygon fill="#191970" stroke="#191970" points="2879.3978,-405.0833 2888.8459,-400.289 2878.4702,-398.145 2879.3978,-405.0833"/>
</g>
<!-- Node54&#45;&gt;Node58 -->
<g id="edge122" class="edge">
<title>Node54&#45;&gt;Node58</title>
<path fill="none" stroke="#191970" d="M2093.1324,-461.2969C2269.6513,-456.2173 2929.4006,-435.6479 2966,-411 2987.1892,-396.7301 2997.1583,-367.7049 3001.6352,-348.1742"/>
<polygon fill="#191970" stroke="#191970" points="3005.0998,-348.6981 3003.6369,-338.2048 2998.2367,-347.3201 3005.0998,-348.6981"/>
</g>
<!-- Node59 -->
<g id="node60" class="node">
<title>Node59</title>
<g id="a_node60"><a xlink:href="serialization__eigen_8h.html" target="_top" xlink:title="serialization_eigen.h">
<polygon fill="none" stroke="#000000" points="2116,-319 2116,-338 2234,-338 2234,-319 2116,-319"/>
<text text-anchor="middle" x="2175" y="-326" font-family="Helvetica,sans-Serif" font-size="10.00" fill="#000000">serialization_eigen.h</text>
</a>
</g>
</g>
<!-- Node54&#45;&gt;Node59 -->
<g id="edge103" class="edge">
<title>Node54&#45;&gt;Node59</title>
<path fill="none" stroke="#191970" d="M2060.1648,-452.8187C2070.7922,-442.608 2087.8597,-425.958 2102,-411 2122.586,-389.2236 2145.3193,-363.1982 2159.8596,-346.2829"/>
<polygon fill="#191970" stroke="#191970" points="2162.8164,-348.2109 2166.6615,-338.3384 2157.4991,-343.6582 2162.8164,-348.2109"/>
</g>
<!-- Node60 -->
<g id="node61" class="node">
<title>Node60</title>
<g id="a_node61"><a xlink:href="serialization__path_8h.html" target="_top" xlink:title="serialization_path.h">
<polygon fill="none" stroke="#000000" points="2252.5,-319 2252.5,-338 2365.5,-338 2365.5,-319 2252.5,-319"/>
<text text-anchor="middle" x="2309" y="-326" font-family="Helvetica,sans-Serif" font-size="10.00" fill="#000000">serialization_path.h</text>
</a>
</g>
</g>
<!-- Node54&#45;&gt;Node60 -->
<g id="edge105" class="edge">
<title>Node54&#45;&gt;Node60</title>
<path fill="none" stroke="#191970" d="M2065.1565,-452.74C2094.9413,-433.6318 2160.2679,-392.095 2184,-380 2212.9841,-365.2283 2247.2245,-351.3557 2272.5334,-341.7386"/>
<polygon fill="#191970" stroke="#191970" points="2273.9768,-344.9353 2282.1068,-338.1416 2271.5147,-338.3825 2273.9768,-344.9353"/>
</g>
<!-- Node61 -->
<g id="node62" class="node">
<title>Node61</title>
<polygon fill="none" stroke="#bfbfbf" points="2192.5,-380.5 2192.5,-410.5 2333.5,-410.5 2333.5,-380.5 2192.5,-380.5"/>
<text text-anchor="start" x="2200.5" y="-398.5" font-family="Helvetica,sans-Serif" font-size="10.00" fill="#000000">unsupported/Eigen/Matrix</text>
<text text-anchor="middle" x="2263" y="-387.5" font-family="Helvetica,sans-Serif" font-size="10.00" fill="#000000">Functions</text>
</g>
<!-- Node54&#45;&gt;Node61 -->
<g id="edge107" class="edge">
<title>Node54&#45;&gt;Node61</title>
<path fill="none" stroke="#191970" d="M2080.5177,-452.9005C2113.0363,-442.6717 2165.2754,-426.2397 2205.5451,-413.5727"/>
<polygon fill="#191970" stroke="#191970" points="2206.7553,-416.8612 2215.2442,-410.5218 2204.6548,-410.1837 2206.7553,-416.8612"/>
</g>
<!-- Node62 -->
<g id="node63" class="node">
<title>Node62</title>
<polygon fill="none" stroke="#bfbfbf" points="2351.5,-380.5 2351.5,-410.5 2494.5,-410.5 2494.5,-380.5 2351.5,-380.5"/>
<text text-anchor="start" x="2359.5" y="-398.5" font-family="Helvetica,sans-Serif" font-size="10.00" fill="#000000">boost/multi_index/hashed</text>
<text text-anchor="middle" x="2423" y="-387.5" font-family="Helvetica,sans-Serif" font-size="10.00" fill="#000000">_index.hpp</text>
</g>
<!-- Node54&#45;&gt;Node62 -->
<g id="edge110" class="edge">
<title>Node54&#45;&gt;Node62</title>
<path fill="none" stroke="#191970" d="M2093.2334,-455.1428C2148.4775,-445.6883 2247.3235,-428.5927 2341.5031,-411.2611"/>
<polygon fill="#191970" stroke="#191970" points="2342.2831,-414.6763 2351.4823,-409.4204 2341.0133,-407.7924 2342.2831,-414.6763"/>
</g>
<!-- Node63 -->
<g id="node64" class="node">
<title>Node63</title>
<polygon fill="none" stroke="#bfbfbf" points="2513,-386 2513,-405 2681,-405 2681,-386 2513,-386"/>
<text text-anchor="middle" x="2597" y="-393" font-family="Helvetica,sans-Serif" font-size="10.00" fill="#000000">boost/multi_index/member.hpp</text>
</g>
<!-- Node54&#45;&gt;Node63 -->
<g id="edge111" class="edge">
<title>Node54&#45;&gt;Node63</title>
<path fill="none" stroke="#191970" d="M2093.2875,-458.3494C2174.1452,-450.4277 2353.559,-432.0549 2504,-411 2513.2641,-409.7035 2523.0266,-408.2133 2532.6034,-406.6807"/>
<polygon fill="#191970" stroke="#191970" points="2533.1783,-410.1333 2542.4874,-405.0745 2532.0555,-403.2239 2533.1783,-410.1333"/>
</g>
<!-- Node64 -->
<g id="node65" class="node">
<title>Node64</title>
<polygon fill="none" stroke="#bfbfbf" points="1154.5,-380.5 1154.5,-410.5 1299.5,-410.5 1299.5,-380.5 1154.5,-380.5"/>
<text text-anchor="start" x="1162.5" y="-398.5" font-family="Helvetica,sans-Serif" font-size="10.00" fill="#000000">boost/multi_index/random</text>
<text text-anchor="middle" x="1227" y="-387.5" font-family="Helvetica,sans-Serif" font-size="10.00" fill="#000000">_access_index.hpp</text>
</g>
<!-- Node54&#45;&gt;Node64 -->
<g id="edge112" class="edge">
<title>Node54&#45;&gt;Node64</title>
<path fill="none" stroke="#191970" d="M2006.8097,-461.2709C1893.9032,-457.6795 1580.5676,-445.2868 1309.8242,-411.0027"/>
<polygon fill="#191970" stroke="#191970" points="1310.1699,-407.5185 1299.8067,-409.7216 1309.2819,-414.4619 1310.1699,-407.5185"/>
</g>
<!-- Node65 -->
<g id="node66" class="node">
<title>Node65</title>
<polygon fill="none" stroke="#bfbfbf" points="1317.5,-386 1317.5,-405 1492.5,-405 1492.5,-386 1317.5,-386"/>
<text text-anchor="middle" x="1405" y="-393" font-family="Helvetica,sans-Serif" font-size="10.00" fill="#000000">boost/multi_index_container.hpp</text>
</g>
<!-- Node54&#45;&gt;Node65 -->
<g id="edge113" class="edge">
<title>Node54&#45;&gt;Node65</title>
<path fill="none" stroke="#191970" d="M2006.9127,-459.405C1914.3011,-452.5432 1689.4662,-434.7615 1502,-411 1491.8072,-409.7081 1481.0397,-408.1658 1470.5326,-406.5625"/>
<polygon fill="#191970" stroke="#191970" points="1470.9847,-403.0908 1460.5657,-405.0128 1469.9092,-410.0077 1470.9847,-403.0908"/>
</g>
<!-- Node66 -->
<g id="node67" class="node">
<title>Node66</title>
<polygon fill="none" stroke="#bfbfbf" points="1510.5,-380.5 1510.5,-410.5 1617.5,-410.5 1617.5,-380.5 1510.5,-380.5"/>
<text text-anchor="start" x="1518.5" y="-398.5" font-family="Helvetica,sans-Serif" font-size="10.00" fill="#000000">boost/serialization</text>
<text text-anchor="middle" x="1564" y="-387.5" font-family="Helvetica,sans-Serif" font-size="10.00" fill="#000000">/complex.hpp</text>
</g>
<!-- Node54&#45;&gt;Node66 -->
<g id="edge114" class="edge">
<title>Node54&#45;&gt;Node66</title>
<path fill="none" stroke="#191970" d="M2006.8103,-458.9679C1931.712,-452.4517 1772.0943,-436.9474 1627.4662,-410.9411"/>
<polygon fill="#191970" stroke="#191970" points="1627.9868,-407.4785 1617.5218,-409.1318 1626.7337,-414.3654 1627.9868,-407.4785"/>
</g>
<!-- Node67 -->
<g id="node68" class="node">
<title>Node67</title>
<polygon fill="none" stroke="#bfbfbf" points="1635.5,-380.5 1635.5,-410.5 1742.5,-410.5 1742.5,-380.5 1635.5,-380.5"/>
<text text-anchor="start" x="1643.5" y="-398.5" font-family="Helvetica,sans-Serif" font-size="10.00" fill="#000000">boost/serialization</text>
<text text-anchor="middle" x="1689" y="-387.5" font-family="Helvetica,sans-Serif" font-size="10.00" fill="#000000">/set.hpp</text>
</g>
<!-- Node54&#45;&gt;Node67 -->
<g id="edge115" class="edge">
<title>Node54&#45;&gt;Node67</title>
<path fill="none" stroke="#191970" d="M2006.8867,-456.0214C1950.7037,-447.3647 1849.2155,-430.9974 1752.5032,-411.0188"/>
<polygon fill="#191970" stroke="#191970" points="1753.0614,-407.5601 1742.5579,-408.9478 1751.6343,-414.4131 1753.0614,-407.5601"/>
</g>
<!-- Node68 -->
<g id="node69" class="node">
<title>Node68</title>
<polygon fill="none" stroke="#bfbfbf" points="1760.5,-380.5 1760.5,-410.5 1867.5,-410.5 1867.5,-380.5 1760.5,-380.5"/>
<text text-anchor="start" x="1768.5" y="-398.5" font-family="Helvetica,sans-Serif" font-size="10.00" fill="#000000">boost/serialization</text>
<text text-anchor="middle" x="1814" y="-387.5" font-family="Helvetica,sans-Serif" font-size="10.00" fill="#000000">/vector.hpp</text>
</g>
<!-- Node54&#45;&gt;Node68 -->
<g id="edge116" class="edge">
<title>Node54&#45;&gt;Node68</title>
<path fill="none" stroke="#191970" d="M2016.4376,-452.9717C1980.159,-442.6723 1921.5192,-426.0245 1876.6669,-413.291"/>
<polygon fill="#191970" stroke="#191970" points="1877.6065,-409.9195 1867.0308,-410.5553 1875.6947,-416.6534 1877.6065,-409.9195"/>
</g>
<!-- Node69 -->
<g id="node70" class="node">
<title>Node69</title>
<polygon fill="none" stroke="#bfbfbf" points="1885.5,-386 1885.5,-405 1938.5,-405 1938.5,-386 1885.5,-386"/>
<text text-anchor="middle" x="1912" y="-393" font-family="Helvetica,sans-Serif" font-size="10.00" fill="#000000">iterator</text>
</g>
<!-- Node54&#45;&gt;Node69 -->
<g id="edge119" class="edge">
<title>Node54&#45;&gt;Node69</title>
<path fill="none" stroke="#191970" d="M2030.228,-452.9005C2006.8635,-441.5569 1967.7857,-422.5844 1940.997,-409.5783"/>
<polygon fill="#191970" stroke="#191970" points="1942.2598,-406.3007 1931.7354,-405.0817 1939.2025,-412.5978 1942.2598,-406.3007"/>
</g>
<!-- Node70 -->
<g id="node71" class="node">
<title>Node70</title>
<polygon fill="none" stroke="#bfbfbf" points="1956.5,-386 1956.5,-405 2021.5,-405 2021.5,-386 1956.5,-386"/>
<text text-anchor="middle" x="1989" y="-393" font-family="Helvetica,sans-Serif" font-size="10.00" fill="#000000">stdexcept</text>
</g>
<!-- Node54&#45;&gt;Node70 -->
<g id="edge124" class="edge">
<title>Node54&#45;&gt;Node70</title>
<path fill="none" stroke="#191970" d="M2041.2602,-452.9005C2031.7478,-442.4525 2016.343,-425.5325 2004.7175,-412.7635"/>
<polygon fill="#191970" stroke="#191970" points="2007.0439,-410.1198 1997.7236,-405.0817 2001.8678,-414.8324 2007.0439,-410.1198"/>
</g>
<!-- Node55&#45;&gt;Node16 -->
<g id="edge98" class="edge">
<title>Node55&#45;&gt;Node16</title>
<path fill="none" stroke="#191970" d="M2914.957,-385.8217C2902.1158,-370.3835 2876.1694,-339.2468 2854,-313 2782.9219,-228.8489 2697.2531,-128.8796 2663.1101,-89.0952"/>
<polygon fill="#191970" stroke="#191970" points="2665.4454,-86.4421 2656.2761,-81.1341 2660.1339,-91.0016 2665.4454,-86.4421"/>
</g>
<!-- Node55&#45;&gt;Node18 -->
<g id="edge101" class="edge">
<title>Node55&#45;&gt;Node18</title>
<path fill="none" stroke="#191970" d="M2922.7302,-385.6142C2922.0487,-355.8906 2920.9093,-264.7717 2930,-190 2934.2937,-154.6838 2943.8329,-114.2848 2949.8079,-90.95"/>
<polygon fill="#191970" stroke="#191970" points="2953.2045,-91.7951 2952.3435,-81.2353 2946.4314,-90.0272 2953.2045,-91.7951"/>
</g>
<!-- Node55&#45;&gt;Node43 -->
<g id="edge99" class="edge">
<title>Node55&#45;&gt;Node43</title>
<path fill="none" stroke="#191970" d="M2926.0825,-385.9137C2931.8794,-369.1976 2945.8523,-334.4547 2968,-313 3040.9517,-242.331 3110.8971,-291.1325 3172,-210 3213.2359,-155.247 3213.8023,-68.6703 3211.6534,-29.9105"/>
<polygon fill="#191970" stroke="#191970" points="3215.116,-29.2425 3210.9414,-19.5049 3208.1323,-29.7205 3215.116,-29.2425"/>
</g>
<!-- Node55&#45;&gt;Node56 -->
<g id="edge96" class="edge">
<title>Node55&#45;&gt;Node56</title>
<path fill="none" stroke="#191970" d="M2895.2352,-385.954C2888.6438,-383.8494 2881.6069,-381.7334 2875,-380 2870.6456,-378.8576 2772.073,-358.8578 2699.28,-344.1244"/>
<polygon fill="#191970" stroke="#191970" points="2699.6877,-340.6361 2689.1921,-342.0829 2698.2992,-347.497 2699.6877,-340.6361"/>
</g>
<!-- Node57 -->
<g id="node58" class="node">
<title>Node57</title>
<polygon fill="none" stroke="#bfbfbf" points="2707.5,-313.5 2707.5,-343.5 2844.5,-343.5 2844.5,-313.5 2707.5,-313.5"/>
<text text-anchor="start" x="2715.5" y="-331.5" font-family="Helvetica,sans-Serif" font-size="10.00" fill="#000000">boost/math/special</text>
<text text-anchor="middle" x="2776" y="-320.5" font-family="Helvetica,sans-Serif" font-size="10.00" fill="#000000">_functions/factorials.hpp</text>
</g>
<!-- Node55&#45;&gt;Node57 -->
<g id="edge97" class="edge">
<title>Node55&#45;&gt;Node57</title>
<path fill="none" stroke="#191970" d="M2901.9385,-385.9005C2880.2078,-375.9961 2845.7167,-360.2756 2818.3202,-347.7888"/>
<polygon fill="#191970" stroke="#191970" points="2819.5092,-344.4844 2808.9582,-343.5218 2816.606,-350.854 2819.5092,-344.4844"/>
</g>
<!-- Node55&#45;&gt;Node58 -->
<g id="edge100" class="edge">
<title>Node55&#45;&gt;Node58</title>
<path fill="none" stroke="#191970" d="M2934.7486,-385.9005C2947.9011,-375.1539 2969.4336,-357.5603 2985.1983,-344.6794"/>
<polygon fill="#191970" stroke="#191970" points="2987.7439,-347.1193 2993.2732,-338.0817 2983.3148,-341.6986 2987.7439,-347.1193"/>
</g>
<!-- Node59&#45;&gt;Node14 -->
<g id="edge104" class="edge">
<title>Node59&#45;&gt;Node14</title>
<path fill="none" stroke="#191970" d="M2174.1265,-318.7391C2170.7394,-280.8921 2158.432,-143.3702 2153.7891,-91.4916"/>
<polygon fill="#191970" stroke="#191970" points="2157.2519,-90.9188 2152.8744,-81.2706 2150.2798,-91.5428 2157.2519,-90.9188"/>
</g>
<!-- Node60&#45;&gt;Node49 -->
<g id="edge106" class="edge">
<title>Node60&#45;&gt;Node49</title>
<path fill="none" stroke="#191970" d="M2309,-318.9005C2309,-309.149 2309,-293.7597 2309,-281.3695"/>
<polygon fill="#191970" stroke="#191970" points="2312.5001,-281.0816 2309,-271.0817 2305.5001,-281.0817 2312.5001,-281.0816"/>
</g>
<!-- Node71&#45;&gt;Node2 -->
<g id="edge131" class="edge">
<title>Node71&#45;&gt;Node2</title>
<path fill="none" stroke="#191970" d="M805,-514.3416C805,-493.4114 805,-443.504 805,-415.4762"/>
<polygon fill="#191970" stroke="#191970" points="808.5001,-415.2704 805,-405.2705 801.5001,-415.2705 808.5001,-415.2704"/>
</g>
<!-- Node71&#45;&gt;Node15 -->
<g id="edge133" class="edge">
<title>Node71&#45;&gt;Node15</title>
<path fill="none" stroke="#191970" d="M763.9539,-520.925C683.4609,-514.5261 507.7914,-498.6398 451,-478 398.9716,-459.0912 388.7028,-446.2273 346,-411 299.6807,-372.7893 298.7662,-351.8714 253,-313 231.2963,-294.566 213.3277,-302.1642 200,-277 166.1781,-213.1403 214.8343,-126.3426 239.3409,-89.3659"/>
<polygon fill="#191970" stroke="#191970" points="242.2466,-91.3172 244.9862,-81.0827 236.4622,-87.3749 242.2466,-91.3172"/>
</g>
<!-- Node71&#45;&gt;Node16 -->
<g id="edge137" class="edge">
<title>Node71&#45;&gt;Node16</title>
<path fill="none" stroke="#191970" d="M846.2312,-523.1966C1119.3616,-517.6757 2658.9836,-483.3959 2724,-411 2733.2059,-400.7492 2732.7234,-390.6644 2724,-380 2672.8964,-317.5261 2603.8323,-400.3027 2546,-344 2519.0399,-317.753 2527,-299.1265 2527,-261.5 2527,-261.5 2527,-261.5 2527,-200 2527,-146.5546 2583.1653,-106.2877 2618.9646,-86.0503"/>
<polygon fill="#191970" stroke="#191970" points="2620.9175,-88.9719 2628.0193,-81.1097 2617.5646,-82.8271 2620.9175,-88.9719"/>
</g>
<!-- Node71&#45;&gt;Node19 -->
<g id="edge134" class="edge">
<title>Node71&#45;&gt;Node19</title>
<path fill="none" stroke="#191970" d="M810.4872,-514.4129C836.6753,-469.5871 953.9525,-279.1047 1105,-190 1130.7341,-174.8191 1203.192,-159.7015 1258.5959,-149.8118"/>
<polygon fill="#191970" stroke="#191970" points="1259.4862,-153.2089 1268.7274,-148.0272 1258.2719,-146.3151 1259.4862,-153.2089"/>
</g>
<!-- Node71&#45;&gt;Node26 -->
<g id="edge138" class="edge">
<title>Node71&#45;&gt;Node26</title>
<path fill="none" stroke="#191970" d="M840.4092,-514.4474C870.1084,-506.0381 913.4135,-492.8437 950,-478 1040.2484,-441.3849 1051.8727,-405.0098 1146,-380 1423.485,-306.2716 1515.261,-424.011 1791,-344 1887.3546,-316.0409 1987.076,-246.7486 2028.7756,-215.6017"/>
<polygon fill="#191970" stroke="#191970" points="2030.9007,-218.3828 2036.7711,-209.5629 2026.6819,-212.797 2030.9007,-218.3828"/>
</g>
<!-- Node71&#45;&gt;Node32 -->
<g id="edge140" class="edge">
<title>Node71&#45;&gt;Node32</title>
<path fill="none" stroke="#191970" d="M763.6758,-522.609C671.8868,-519.0145 453.8622,-507.5446 387,-478 334.7006,-454.8903 189.1231,-281.3103 187,-277 156.1314,-214.3303 151.9148,-129.3312 151.7081,-91.3082"/>
<polygon fill="#191970" stroke="#191970" points="155.2089,-91.1063 151.7477,-81.0928 148.2089,-91.0791 155.2089,-91.1063"/>
</g>
<!-- Node71&#45;&gt;Node37 -->
<g id="edge139" class="edge">
<title>Node71&#45;&gt;Node37</title>
<path fill="none" stroke="#191970" d="M763.8369,-523.4712C664.6826,-521.6362 415.3147,-513.5199 341,-478 145.3291,-384.4759 -51.4837,-215.0046 96,-56 115.2344,-35.263 524.329,-17.2289 662.1409,-11.7225"/>
<polygon fill="#191970" stroke="#191970" points="662.4942,-15.2113 672.3477,-11.3178 662.2168,-8.2168 662.4942,-15.2113"/>
</g>
<!-- Node71&#45;&gt;Node50 -->
<g id="edge136" class="edge">
<title>Node71&#45;&gt;Node50</title>
<path fill="none" stroke="#191970" d="M763.7609,-517.4787C668.2717,-501.7134 435.4462,-459.2545 374,-411 335.0561,-380.4169 350.8787,-352.4869 321,-313 313.0165,-302.4492 302.8645,-292.0417 293.5866,-283.3742"/>
<polygon fill="#191970" stroke="#191970" points="295.8196,-280.6741 286.0656,-276.5378 291.1112,-285.854 295.8196,-280.6741"/>
</g>
<!-- Node71&#45;&gt;Node54 -->
<g id="edge132" class="edge">
<title>Node71&#45;&gt;Node54</title>
<path fill="none" stroke="#191970" d="M846.0688,-521.9713C1031.2237,-512.8251 1788.3286,-475.4259 1996.6985,-465.133"/>
<polygon fill="#191970" stroke="#191970" points="1996.9618,-468.6243 2006.7769,-464.6351 1996.6164,-461.6328 1996.9618,-468.6243"/>
</g>
<!-- Node71&#45;&gt;Node72 -->
<g id="edge135" class="edge">
<title>Node71&#45;&gt;Node72</title>
<path fill="none" stroke="#191970" d="M763.6961,-522.7716C668.4232,-519.4912 426.1067,-508.5905 226,-478 224.5412,-477.777 223.0673,-477.5401 221.5828,-477.2911"/>
<polygon fill="#191970" stroke="#191970" points="222.1488,-473.8367 211.6841,-475.4922 220.8971,-480.7239 222.1488,-473.8367"/>
</g>
<!-- Node73&#45;&gt;Node12 -->
<g id="edge149" class="edge">
<title>Node73&#45;&gt;Node12</title>
<path fill="none" stroke="#191970" d="M3077.3579,-196.3143C3052.4773,-194.2523 3020.4773,-191.7523 2992,-190 2559.4282,-163.3818 2034.1223,-144.779 1886.9815,-139.8199"/>
<polygon fill="#191970" stroke="#191970" points="1886.7645,-136.3107 1876.6528,-139.4733 1886.5297,-143.3068 1886.7645,-136.3107"/>
</g>
<!-- Node73&#45;&gt;Node16 -->
<g id="edge150" class="edge">
<title>Node73&#45;&gt;Node16</title>
<path fill="none" stroke="#191970" d="M3114.858,-190.4482C3105.219,-173.5944 3082.6972,-138.8633 3053,-123 2988.8491,-88.7327 2767.2805,-76.31 2681.9085,-72.7302"/>
<polygon fill="#191970" stroke="#191970" points="2681.8582,-69.2254 2671.7249,-72.3183 2681.5753,-76.2196 2681.8582,-69.2254"/>
</g>
<!-- Node73&#45;&gt;Node43 -->
<g id="edge151" class="edge">
<title>Node73&#45;&gt;Node43</title>
<path fill="none" stroke="#191970" d="M3124.5868,-190.3167C3138.7563,-160.4033 3182.0142,-69.0811 3200.9559,-29.0931"/>
<polygon fill="#191970" stroke="#191970" points="3204.1966,-30.4274 3205.3145,-19.8917 3197.8705,-27.4307 3204.1966,-30.4274"/>
</g>
</g>
</svg>
        <g id="navigator" transform="translate(0 0)" fill="#404254">
                <rect fill="#f2f5e9" fill-opacity="0.5" stroke="#606060" stroke-width=".5" x="0" y="0" width="60" height="60"/>
                <use id="zoomplus" xlink:href="#zoomPlus" x="17" y="9" onmousedown="handleZoom(evt,'in')"/>
                <use id="zoomminus" xlink:href="#zoomMin" x="42" y="9" onmousedown="handleZoom(evt,'out')"/>
                <use id="reset" xlink:href="#resetDef" x="30" y="36" onmousedown="handleReset()"/>
                <g id="arrowUp" xlink:href="#dirArrow" transform="translate(30 24)" onmousedown="handlePan(0,-1)">
                  <use xlink:href="#rim" fill="#404040">
                        <set attributeName="fill" to="#808080" begin="arrowUp.mouseover" end="arrowUp.mouseout"/>
                  </use>
                  <path fill="none" stroke="white" stroke-width="1.5" d="M0,-3.0v7 M-2.5,-0.5L0,-3.0L2.5,-0.5"/>
                </g>
                <g id="arrowRight" xlink:href="#dirArrow" transform="rotate(90) translate(36 -43)" onmousedown="handlePan(1,0)">
                  <use xlink:href="#rim" fill="#404040">
                        <set attributeName="fill" to="#808080" begin="arrowRight.mouseover" end="arrowRight.mouseout"/>
                  </use>
                  <path fill="none" stroke="white" stroke-width="1.5" d="M0,-3.0v7 M-2.5,-0.5L0,-3.0L2.5,-0.5"/>
                </g>
                <g id="arrowDown" xlink:href="#dirArrow" transform="rotate(180) translate(-30 -48)" onmousedown="handlePan(0,1)">
                  <use xlink:href="#rim" fill="#404040">
                        <set attributeName="fill" to="#808080" begin="arrowDown.mouseover" end="arrowDown.mouseout"/>
                  </use>
                  <path fill="none" stroke="white" stroke-width="1.5" d="M0,-3.0v7 M-2.5,-0.5L0,-3.0L2.5,-0.5"/>
                </g>
                <g id="arrowLeft" xlink:href="#dirArrow" transform="rotate(270) translate(-36 17)" onmousedown="handlePan(-1,0)">
                  <use xlink:href="#rim" fill="#404040">
                        <set attributeName="fill" to="#808080" begin="arrowLeft.mouseover" end="arrowLeft.mouseout"/>
                  </use>
                  <path fill="none" stroke="white" stroke-width="1.5" d="M0,-3.0v7 M-2.5,-0.5L0,-3.0L2.5,-0.5"/>
                </g>
        </g>
        <svg viewBox="0 0 15 15" width="100%" height="30px" preserveAspectRatio="xMaxYMin meet">
         <g id="arrow_out" transform="scale(0.3 0.3)">
          <a xlink:href="SystemTwo_8cpp__incl_org.svg" target="_base">
           <rect id="button" ry="5" rx="5" y="6" x="6" height="38" width="38"
                fill="#f2f5e9" fill-opacity="0.5" stroke="#606060" stroke-width="1.0"/>
           <path id="arrow"
             d="M 11.500037,31.436501 C 11.940474,20.09759 22.043105,11.32322 32.158766,21.979434 L 37.068811,17.246167 C 37.068811,17.246167 37.088388,32 37.088388,32 L 22.160133,31.978069 C 22.160133,31.978069 26.997745,27.140456 26.997745,27.140456 C 18.528582,18.264221 13.291696,25.230495 11.500037,31.436501 z"
             style="fill:#404040;"/>
          </a>
         </g>
        </svg>
</svg>
