<?xml version="1.0" encoding="UTF-8" standalone="no"?>
<!DOCTYPE svg PUBLIC "-//W3C//DTD SVG 1.1//EN"
 "http://www.w3.org/Graphics/SVG/1.1/DTD/svg11.dtd">
<!-- Generated by graphviz version 2.40.1 (20161225.0304)
 -->
<!-- Title: /travis/pairinteraction/SystemTwo.h Pages: 1 -->
<svg width="3159pt" height="609pt"
 viewBox="0.00 0.00 3159.00 609.00" xmlns="http://www.w3.org/2000/svg" xmlns:xlink="http://www.w3.org/1999/xlink">
<g id="graph0" class="graph" transform="scale(1 1) rotate(0) translate(4 605)">
<title>/travis/pairinteraction/SystemTwo.h</title>
<!-- Node0 -->
<g id="node1" class="node">
<title>Node0</title>
<polygon fill="#bfbfbf" stroke="#000000" points="877,-570.5 877,-600.5 999,-600.5 999,-570.5 877,-570.5"/>
<text text-anchor="start" x="885" y="-588.5" font-family="Helvetica,sans-Serif" font-size="10.00" fill="#000000">/travis/pairinteraction</text>
<text text-anchor="middle" x="938" y="-577.5" font-family="Helvetica,sans-Serif" font-size="10.00" fill="#000000">/SystemTwo.h</text>
</g>
<!-- Node1 -->
<g id="node2" class="node">
<title>Node1</title>
<g id="a_node2"><a xlink:href="State_8h.html" target="_top" xlink:title="State.h">
<polygon fill="none" stroke="#000000" points="763.5,-386 763.5,-405 814.5,-405 814.5,-386 763.5,-386"/>
<text text-anchor="middle" x="789" y="-393" font-family="Helvetica,sans-Serif" font-size="10.00" fill="#000000">State.h</text>
</a>
</g>
</g>
<!-- Node0&#45;&gt;Node1 -->
<g id="edge1" class="edge">
<title>Node0&#45;&gt;Node1</title>
<path fill="none" stroke="#191970" d="M926.0586,-570.2727C898.6959,-535.3806 831.5986,-449.8204 802.6555,-412.913"/>
<polygon fill="#191970" stroke="#191970" points="805.3953,-410.7349 796.4703,-405.0258 799.8871,-415.0546 805.3953,-410.7349"/>
</g>
<!-- Node13 -->
<g id="node14" class="node">
<title>Node13</title>
<polygon fill="none" stroke="#bfbfbf" points="912,-62 912,-81 992,-81 992,-62 912,-62"/>
<text text-anchor="middle" x="952" y="-69" font-family="Helvetica,sans-Serif" font-size="10.00" fill="#000000">Eigen/Sparse</text>
</g>
<!-- Node0&#45;&gt;Node13 -->
<g id="edge140" class="edge">
<title>Node0&#45;&gt;Node13</title>
<path fill="none" stroke="#191970" d="M940.0159,-570.317C945.6561,-528.8122 962.6578,-410.0779 985,-313 1001.4993,-241.3095 1020.6756,-226.8365 1031,-154 1032.9336,-140.3586 1037.5636,-135.1139 1031,-123 1021.8069,-106.033 1004.3323,-93.7726 988.1509,-85.4815"/>
<polygon fill="#191970" stroke="#191970" points="989.3791,-82.1899 978.8454,-81.053 986.371,-88.5106 989.3791,-82.1899"/>
</g>
<!-- Node15 -->
<g id="node16" class="node">
<title>Node15</title>
<polygon fill="none" stroke="#bfbfbf" points="211.5,-62 211.5,-81 258.5,-81 258.5,-62 211.5,-62"/>
<text text-anchor="middle" x="235" y="-69" font-family="Helvetica,sans-Serif" font-size="10.00" fill="#000000">cmath</text>
</g>
<!-- Node0&#45;&gt;Node15 -->
<g id="edge144" class="edge">
<title>Node0&#45;&gt;Node15</title>
<path fill="none" stroke="#191970" d="M876.8469,-583.5933C674.2809,-576.4755 38,-547.3636 38,-462.5 38,-462.5 38,-462.5 38,-200 38,-122.9247 145.095,-89.6502 201.3601,-77.4871"/>
<polygon fill="#191970" stroke="#191970" points="202.1472,-80.8986 211.2372,-75.4559 200.7371,-74.042 202.1472,-80.8986"/>
</g>
<!-- Node25 -->
<g id="node26" class="node">
<title>Node25</title>
<polygon fill="none" stroke="#bfbfbf" points="296,-190.5 296,-209.5 328,-209.5 328,-190.5 296,-190.5"/>
<text text-anchor="middle" x="312" y="-197.5" font-family="Helvetica,sans-Serif" font-size="10.00" fill="#000000">set</text>
</g>
<!-- Node0&#45;&gt;Node25 -->
<g id="edge145" class="edge">
<title>Node0&#45;&gt;Node25</title>
<path fill="none" stroke="#191970" d="M876.7216,-579.9073C744.8228,-566.978 438.8488,-531.939 351,-478 284.3725,-437.0908 283.0809,-390.8776 290,-313 292.9505,-279.7902 301.3974,-241.8794 306.9246,-219.4957"/>
<polygon fill="#191970" stroke="#191970" points="310.3741,-220.1309 309.4354,-209.5777 303.5882,-218.4129 310.3741,-220.1309"/>
</g>
<!-- Node36 -->
<g id="node37" class="node">
<title>Node36</title>
<polygon fill="none" stroke="#bfbfbf" points="805.5,-.5 805.5,-19.5 874.5,-19.5 874.5,-.5 805.5,-.5"/>
<text text-anchor="middle" x="840" y="-7.5" font-family="Helvetica,sans-Serif" font-size="10.00" fill="#000000">type_traits</text>
</g>
<!-- Node0&#45;&gt;Node36 -->
<g id="edge146" class="edge">
<title>Node0&#45;&gt;Node36</title>
<path fill="none" stroke="#191970" d="M876.8974,-585.1029C713.2951,-583.4865 268.2359,-575.3075 128,-534 65.4926,-515.588 0,-527.6627 0,-462.5 0,-462.5 0,-462.5 0,-138.5 0,-54.917 88.254,-77.5919 169,-56 287.7524,-24.245 665.0525,-13.6083 795.2857,-10.8322"/>
<polygon fill="#191970" stroke="#191970" points="795.3877,-14.331 805.3127,-10.6237 795.2421,-7.3325 795.3877,-14.331"/>
</g>
<!-- Node49 -->
<g id="node50" class="node">
<title>Node49</title>
<polygon fill="none" stroke="#bfbfbf" points="2167.5,-246.5 2167.5,-276.5 2284.5,-276.5 2284.5,-246.5 2167.5,-246.5"/>
<text text-anchor="start" x="2175.5" y="-264.5" font-family="Helvetica,sans-Serif" font-size="10.00" fill="#000000">boost/serialization</text>
<text text-anchor="middle" x="2226" y="-253.5" font-family="Helvetica,sans-Serif" font-size="10.00" fill="#000000">/unordered_map.hpp</text>
</g>
<!-- Node0&#45;&gt;Node49 -->
<g id="edge143" class="edge">
<title>Node0&#45;&gt;Node49</title>
<path fill="none" stroke="#191970" d="M999.2194,-584.0555C1233.7633,-578.3966 2075.2873,-556.9182 2342,-534 2588.1071,-512.8524 2755.7571,-622.1153 2884,-411 2891.153,-399.2246 2892.8369,-390.5705 2884,-380 2865.0404,-357.3209 2459.5093,-295.6867 2294.711,-271.4653"/>
<polygon fill="#191970" stroke="#191970" points="2295.0843,-267.9826 2284.6821,-269.9938 2294.0681,-274.9085 2295.0843,-267.9826"/>
</g>
<!-- Node53 -->
<g id="node54" class="node">
<title>Node53</title>
<g id="a_node54"><a xlink:href="SystemBase_8h.html" target="_top" xlink:title="SystemBase.h">
<polygon fill="none" stroke="#000000" points="1681,-453 1681,-472 1767,-472 1767,-453 1681,-453"/>
<text text-anchor="middle" x="1724" y="-460" font-family="Helvetica,sans-Serif" font-size="10.00" fill="#000000">SystemBase.h</text>
</a>
</g>
</g>
<!-- Node0&#45;&gt;Node53 -->
<g id="edge91" class="edge">
<title>Node0&#45;&gt;Node53</title>
<path fill="none" stroke="#191970" d="M999.0221,-575.9507C1148.2216,-552.6027 1529.5456,-492.9299 1670.5394,-470.866"/>
<polygon fill="#191970" stroke="#191970" points="1671.327,-474.2854 1680.6656,-469.2813 1670.2447,-467.3696 1671.327,-474.2854"/>
</g>
<!-- Node55 -->
<g id="node56" class="node">
<title>Node55</title>
<polygon fill="none" stroke="#bfbfbf" points="2113,-313.5 2113,-343.5 2247,-343.5 2247,-313.5 2113,-313.5"/>
<text text-anchor="start" x="2121" y="-331.5" font-family="Helvetica,sans-Serif" font-size="10.00" fill="#000000">boost/math/special</text>
<text text-anchor="middle" x="2180" y="-320.5" font-family="Helvetica,sans-Serif" font-size="10.00" fill="#000000">_functions/binomial.hpp</text>
</g>
<!-- Node0&#45;&gt;Node55 -->
<g id="edge141" class="edge">
<title>Node0&#45;&gt;Node55</title>
<path fill="none" stroke="#191970" d="M999.0539,-584.748C1313.1155,-580.2624 2737.0004,-552.2024 2866,-411 2957.2351,-311.1344 2395.2235,-360.7641 2261,-344 2259.7213,-343.8403 2258.4325,-343.6727 2257.1357,-343.4979"/>
<polygon fill="#191970" stroke="#191970" points="2257.4779,-340.0108 2247.0772,-342.0298 2256.4668,-346.9374 2257.4779,-340.0108"/>
</g>
<!-- Node70 -->
<g id="node71" class="node">
<title>Node70</title>
<g id="a_node71"><a xlink:href="SystemOne_8h.html" target="_top" xlink:title="SystemOne.h">
<polygon fill="none" stroke="#000000" points="748,-514.5 748,-533.5 830,-533.5 830,-514.5 748,-514.5"/>
<text text-anchor="middle" x="789" y="-521.5" font-family="Helvetica,sans-Serif" font-size="10.00" fill="#000000">SystemOne.h</text>
</a>
</g>
</g>
<!-- Node0&#45;&gt;Node70 -->
<g id="edge129" class="edge">
<title>Node0&#45;&gt;Node70</title>
<path fill="none" stroke="#191970" d="M901.5505,-570.4554C877.1256,-560.374 845.2419,-547.2139 821.6479,-537.4755"/>
<polygon fill="#191970" stroke="#191970" points="822.6687,-534.1104 812.0897,-533.5303 819.9979,-540.5809 822.6687,-534.1104"/>
</g>
<!-- Node71 -->
<g id="node72" class="node">
<title>Node71</title>
<polygon fill="none" stroke="#bfbfbf" points="1785.5,-447.5 1785.5,-477.5 1892.5,-477.5 1892.5,-447.5 1785.5,-447.5"/>
<text text-anchor="start" x="1793.5" y="-465.5" font-family="Helvetica,sans-Serif" font-size="10.00" fill="#000000">boost/serialization</text>
<text text-anchor="middle" x="1839" y="-454.5" font-family="Helvetica,sans-Serif" font-size="10.00" fill="#000000">/base_object.hpp</text>
</g>
<!-- Node0&#45;&gt;Node71 -->
<g id="edge142" class="edge">
<title>Node0&#45;&gt;Node71</title>
<path fill="none" stroke="#191970" d="M999.1025,-580.0981C1136.3813,-567.4372 1479.6566,-532.8487 1775.4138,-477.9796"/>
<polygon fill="#191970" stroke="#191970" points="1776.2847,-481.3776 1785.4727,-476.1021 1775.0003,-474.4964 1776.2847,-481.3776"/>
</g>
<!-- Node2 -->
<g id="node3" class="node">
<title>Node2</title>
<g id="a_node3"><a xlink:href="MatrixElementCache_8h.html" target="_top" xlink:title="MatrixElementCache.h">
<polygon fill="none" stroke="#000000" points="1629.5,-319 1629.5,-338 1756.5,-338 1756.5,-319 1629.5,-319"/>
<text text-anchor="middle" x="1693" y="-326" font-family="Helvetica,sans-Serif" font-size="10.00" fill="#000000">MatrixElementCache.h</text>
</a>
</g>
</g>
<!-- Node1&#45;&gt;Node2 -->
<g id="edge2" class="edge">
<title>Node1&#45;&gt;Node2</title>
<path fill="none" stroke="#191970" d="M814.9799,-393.3842C934.1495,-384.1724 1429.7098,-347.4129 1619.0652,-333.6963"/>
<polygon fill="#191970" stroke="#191970" points="1619.4804,-337.1755 1629.2018,-332.9629 1618.9752,-330.1937 1619.4804,-337.1755"/>
</g>
<!-- Node7 -->
<g id="node8" class="node">
<title>Node7</title>
<polygon fill="none" stroke="#bfbfbf" points="2013,-62 2013,-81 2057,-81 2057,-62 2013,-62"/>
<text text-anchor="middle" x="2035" y="-69" font-family="Helvetica,sans-Serif" font-size="10.00" fill="#000000">string</text>
</g>
<!-- Node1&#45;&gt;Node7 -->
<g id="edge86" class="edge">
<title>Node1&#45;&gt;Node7</title>
<path fill="none" stroke="#191970" d="M814.7363,-394.4194C964.4798,-388.0972 1718.4989,-355.7759 1766,-344 1797.8467,-336.105 1802.2096,-324.3354 1833,-313 1888.8589,-292.4357 1913.7544,-311.8636 1962,-277 2012.9815,-240.1594 2017.7759,-215.2701 2032,-154 2036.8455,-133.1282 2037.0547,-108.4984 2036.3902,-91.6179"/>
<polygon fill="#191970" stroke="#191970" points="2039.868,-91.1088 2035.8368,-81.3108 2032.8781,-91.4841 2039.868,-91.1088"/>
</g>
<!-- Node11 -->
<g id="node12" class="node">
<title>Node11</title>
<g id="a_node12"><a xlink:href="dtypes_8h.html" target="_top" xlink:title="dtypes.h">
<polygon fill="none" stroke="#000000" points="1176.5,-129 1176.5,-148 1235.5,-148 1235.5,-129 1176.5,-129"/>
<text text-anchor="middle" x="1206" y="-136" font-family="Helvetica,sans-Serif" font-size="10.00" fill="#000000">dtypes.h</text>
</a>
</g>
</g>
<!-- Node1&#45;&gt;Node11 -->
<g id="edge81" class="edge">
<title>Node1&#45;&gt;Node11</title>
<path fill="none" stroke="#191970" d="M793.795,-385.9308C802.5612,-369.2412 822.6287,-334.538 848,-313 947.9783,-228.1275 1096.3286,-173.2298 1166.4905,-150.4799"/>
<polygon fill="#191970" stroke="#191970" points="1167.8005,-153.7357 1176.2598,-147.3569 1165.6689,-147.0681 1167.8005,-153.7357"/>
</g>
<!-- Node14 -->
<g id="node15" class="node">
<title>Node14</title>
<polygon fill="none" stroke="#bfbfbf" points="438,-62 438,-81 480,-81 480,-62 438,-62"/>
<text text-anchor="middle" x="459" y="-69" font-family="Helvetica,sans-Serif" font-size="10.00" fill="#000000">array</text>
</g>
<!-- Node1&#45;&gt;Node14 -->
<g id="edge82" class="edge">
<title>Node1&#45;&gt;Node14</title>
<path fill="none" stroke="#191970" d="M763.1016,-394.0755C696.6073,-389.9828 521.8107,-376.3467 475,-344 409.9643,-299.0596 439.3088,-248.3734 386,-190 367.2903,-169.5128 347.7644,-178.6343 335,-154 328.6613,-141.7669 327.3509,-134.4594 335,-123 355.5164,-92.2636 398.175,-79.8455 427.6844,-74.845"/>
<polygon fill="#191970" stroke="#191970" points="428.5235,-78.2585 437.896,-73.3181 427.4883,-71.3354 428.5235,-78.2585"/>
</g>
<!-- Node1&#45;&gt;Node15 -->
<g id="edge84" class="edge">
<title>Node1&#45;&gt;Node15</title>
<path fill="none" stroke="#191970" d="M763.3243,-394.3553C692.3078,-390.7806 494.9462,-377.9625 441,-344 371.1073,-299.9983 387.1362,-255.6316 337,-190 308.2355,-152.3453 271.2725,-110.9444 250.6664,-88.4144"/>
<polygon fill="#191970" stroke="#191970" points="253.2044,-86.0035 243.8603,-81.0096 248.0506,-90.7405 253.2044,-86.0035"/>
</g>
<!-- Node18 -->
<g id="node19" class="node">
<title>Node18</title>
<polygon fill="none" stroke="#bfbfbf" points="862.5,-129 862.5,-148 1005.5,-148 1005.5,-129 862.5,-129"/>
<text text-anchor="middle" x="934" y="-136" font-family="Helvetica,sans-Serif" font-size="10.00" fill="#000000">boost/functional/hash.hpp</text>
</g>
<!-- Node1&#45;&gt;Node18 -->
<g id="edge83" class="edge">
<title>Node1&#45;&gt;Node18</title>
<path fill="none" stroke="#191970" d="M787.5046,-385.7361C784.1608,-361.3983 777.596,-296.3739 794,-246 803.3134,-217.4001 809.4085,-209.8574 832,-190 850.9082,-173.3801 876.1349,-160.5824 896.7694,-151.9016"/>
<polygon fill="#191970" stroke="#191970" points="898.2297,-155.0864 906.1843,-148.0881 895.6017,-148.5984 898.2297,-155.0864"/>
</g>
<!-- Node19 -->
<g id="node20" class="node">
<title>Node19</title>
<polygon fill="none" stroke="#bfbfbf" points="834,-62 834,-81 894,-81 894,-62 834,-62"/>
<text text-anchor="middle" x="864" y="-69" font-family="Helvetica,sans-Serif" font-size="10.00" fill="#000000">iostream</text>
</g>
<!-- Node1&#45;&gt;Node19 -->
<g id="edge85" class="edge">
<title>Node1&#45;&gt;Node19</title>
<path fill="none" stroke="#191970" d="M802.163,-385.7995C814.8054,-376.091 833.998,-360.292 848,-344 900.8787,-282.473 886.2253,-244.8518 946,-190 971.4855,-166.6134 997.0694,-183.5794 1015,-154 1022.1421,-142.2179 1023.116,-134.1336 1015,-123 984.2002,-80.7484 952.2113,-104.6655 903,-87 901.097,-86.3169 899.1484,-85.5997 897.1863,-84.864"/>
<polygon fill="#191970" stroke="#191970" points="898.003,-81.428 887.4132,-81.1012 895.4878,-87.9606 898.003,-81.428"/>
</g>
<!-- Node20 -->
<g id="node21" class="node">
<title>Node20</title>
<polygon fill="none" stroke="#bfbfbf" points="497.5,-123.5 497.5,-153.5 604.5,-153.5 604.5,-123.5 497.5,-123.5"/>
<text text-anchor="start" x="505.5" y="-141.5" font-family="Helvetica,sans-Serif" font-size="10.00" fill="#000000">boost/serialization</text>
<text text-anchor="middle" x="551" y="-130.5" font-family="Helvetica,sans-Serif" font-size="10.00" fill="#000000">/array.hpp</text>
</g>
<!-- Node1&#45;&gt;Node20 -->
<g id="edge88" class="edge">
<title>Node1&#45;&gt;Node20</title>
<path fill="none" stroke="#191970" d="M778.8691,-385.7864C768.2694,-375.5494 751.2242,-358.8782 737,-344 674.9095,-279.0548 604.4445,-199.5257 570.8522,-161.2365"/>
<polygon fill="#191970" stroke="#191970" points="573.4823,-158.9272 564.2599,-153.712 568.2171,-163.5401 573.4823,-158.9272"/>
</g>
<!-- Node21 -->
<g id="node22" class="node">
<title>Node21</title>
<polygon fill="none" stroke="#bfbfbf" points="622.5,-123.5 622.5,-153.5 729.5,-153.5 729.5,-123.5 622.5,-123.5"/>
<text text-anchor="start" x="630.5" y="-141.5" font-family="Helvetica,sans-Serif" font-size="10.00" fill="#000000">boost/serialization</text>
<text text-anchor="middle" x="676" y="-130.5" font-family="Helvetica,sans-Serif" font-size="10.00" fill="#000000">/string.hpp</text>
</g>
<!-- Node1&#45;&gt;Node21 -->
<g id="edge89" class="edge">
<title>Node1&#45;&gt;Node21</title>
<path fill="none" stroke="#191970" d="M782.091,-385.9619C774.973,-375.8681 763.8408,-359.3121 756,-344 723.8832,-281.2798 696.5957,-202.5233 683.7945,-163.2091"/>
<polygon fill="#191970" stroke="#191970" points="687.1142,-162.0993 680.7166,-153.6541 680.4514,-164.2456 687.1142,-162.0993"/>
</g>
<!-- Node22 -->
<g id="node23" class="node">
<title>Node22</title>
<polygon fill="none" stroke="#bfbfbf" points="377,-129 377,-148 479,-148 479,-129 377,-129"/>
<text text-anchor="middle" x="428" y="-136" font-family="Helvetica,sans-Serif" font-size="10.00" fill="#000000">boost/variant.hpp</text>
</g>
<!-- Node1&#45;&gt;Node22 -->
<g id="edge90" class="edge">
<title>Node1&#45;&gt;Node22</title>
<path fill="none" stroke="#191970" d="M772.0925,-385.8951C754.7241,-375.8808 727.0462,-359.5101 704,-344 605.2646,-277.5512 493.0571,-190.0738 448.1388,-154.5376"/>
<polygon fill="#191970" stroke="#191970" points="450.0866,-151.6152 440.0763,-148.1445 445.7373,-157.1001 450.0866,-151.6152"/>
</g>
<!-- Node52 -->
<g id="node53" class="node">
<title>Node52</title>
<polygon fill="none" stroke="#bfbfbf" points="484.5,-319 484.5,-338 541.5,-338 541.5,-319 484.5,-319"/>
<text text-anchor="middle" x="513" y="-326" font-family="Helvetica,sans-Serif" font-size="10.00" fill="#000000">typeinfo</text>
</g>
<!-- Node1&#45;&gt;Node52 -->
<g id="edge87" class="edge">
<title>Node1&#45;&gt;Node52</title>
<path fill="none" stroke="#191970" d="M763.2155,-390.9236C719.9584,-382.9968 630.2163,-365.4819 556,-344 553.213,-343.1933 550.345,-342.3009 547.4759,-341.3636"/>
<polygon fill="#191970" stroke="#191970" points="548.4281,-337.9903 537.8335,-338.064 546.1617,-344.6132 548.4281,-337.9903"/>
</g>
<!-- Node2&#45;&gt;Node1 -->
<g id="edge33" class="edge">
<title>Node2&#45;&gt;Node1</title>
<path fill="none" stroke="#191970" d="M1629.2852,-333.5011C1452.8163,-346.8985 962.0761,-383.2447 824.9414,-393.0401"/>
<polygon fill="#191970" stroke="#191970" points="824.3177,-389.5755 814.5913,-393.7765 824.8145,-396.5579 824.3177,-389.5755"/>
</g>
<!-- Node3 -->
<g id="node4" class="node">
<title>Node3</title>
<g id="a_node4"><a xlink:href="Basisnames_8h.html" target="_top" xlink:title="Basisnames.h">
<polygon fill="none" stroke="#000000" points="1796.5,-252 1796.5,-271 1881.5,-271 1881.5,-252 1796.5,-252"/>
<text text-anchor="middle" x="1839" y="-259" font-family="Helvetica,sans-Serif" font-size="10.00" fill="#000000">Basisnames.h</text>
</a>
</g>
</g>
<!-- Node2&#45;&gt;Node3 -->
<g id="edge3" class="edge">
<title>Node2&#45;&gt;Node3</title>
<path fill="none" stroke="#191970" d="M1713.9182,-318.9005C1738.7456,-307.5072 1780.3433,-288.4178 1808.6942,-275.4075"/>
<polygon fill="#191970" stroke="#191970" points="1810.4917,-278.4336 1818.1206,-271.0817 1807.5721,-272.0715 1810.4917,-278.4336"/>
</g>
<!-- Node6 -->
<g id="node7" class="node">
<title>Node6</title>
<polygon fill="none" stroke="#bfbfbf" points="2207,-62 2207,-81 2263,-81 2263,-62 2207,-62"/>
<text text-anchor="middle" x="2235" y="-69" font-family="Helvetica,sans-Serif" font-size="10.00" fill="#000000">sstream</text>
</g>
<!-- Node2&#45;&gt;Node6 -->
<g id="edge77" class="edge">
<title>Node2&#45;&gt;Node6</title>
<path fill="none" stroke="#191970" d="M1756.6982,-321.2438C1904.6147,-302.896 2263.8107,-249.2075 2330,-154 2337.8646,-142.6874 2337.0484,-134.8384 2330,-123 2322.9676,-111.1884 2292.8553,-96.0235 2268.3917,-85.215"/>
<polygon fill="#191970" stroke="#191970" points="2269.5831,-81.917 2259.0154,-81.1591 2266.8039,-88.3417 2269.5831,-81.917"/>
</g>
<!-- Node2&#45;&gt;Node7 -->
<g id="edge78" class="edge">
<title>Node2&#45;&gt;Node7</title>
<path fill="none" stroke="#191970" d="M1750.2914,-318.9552C1816.8884,-307.4429 1919.5712,-288.2407 1934,-277 1996.0488,-228.6612 2022.517,-132.2867 2031.339,-91.0044"/>
<polygon fill="#191970" stroke="#191970" points="2034.7867,-91.6132 2033.3344,-81.1184 2027.925,-90.2282 2034.7867,-91.6132"/>
</g>
<!-- Node2&#45;&gt;Node11 -->
<g id="edge69" class="edge">
<title>Node2&#45;&gt;Node11</title>
<path fill="none" stroke="#191970" d="M1629.3848,-325.1705C1537.6258,-319.4501 1373.4823,-305.5108 1322,-277 1270.7497,-248.6176 1232.5332,-187.9207 1215.6144,-157.1742"/>
<polygon fill="#191970" stroke="#191970" points="1218.6828,-155.49 1210.8801,-148.3229 1212.5103,-158.7916 1218.6828,-155.49"/>
</g>
<!-- Node2&#45;&gt;Node18 -->
<g id="edge72" class="edge">
<title>Node2&#45;&gt;Node18</title>
<path fill="none" stroke="#191970" d="M1629.3859,-324.1319C1517.3012,-316.0292 1289.1861,-297.6088 1212,-277 1140.6714,-257.9552 1125.9666,-243.1493 1060,-210 1023.9307,-191.8746 983.5634,-168.373 958.4643,-153.3606"/>
<polygon fill="#191970" stroke="#191970" points="960.007,-150.2043 949.6332,-148.0515 956.4003,-156.2036 960.007,-150.2043"/>
</g>
<!-- Node24 -->
<g id="node25" class="node">
<title>Node24</title>
<polygon fill="none" stroke="#bfbfbf" points="2075,-62 2075,-81 2133,-81 2133,-62 2075,-62"/>
<text text-anchor="middle" x="2104" y="-69" font-family="Helvetica,sans-Serif" font-size="10.00" fill="#000000">memory</text>
</g>
<!-- Node2&#45;&gt;Node24 -->
<g id="edge76" class="edge">
<title>Node2&#45;&gt;Node24</title>
<path fill="none" stroke="#191970" d="M1756.5516,-320.948C1824.5951,-312.0574 1927.4427,-296.0622 1962,-277 2027.53,-240.8529 2038.906,-218.4177 2077,-154 2088.7044,-134.2076 2096.0481,-108.7019 2100.0714,-91.3241"/>
<polygon fill="#191970" stroke="#191970" points="2103.5636,-91.7326 2102.2482,-81.2198 2096.7206,-90.2583 2103.5636,-91.7326"/>
</g>
<!-- Node27 -->
<g id="node28" class="node">
<title>Node27</title>
<g id="a_node28"><a xlink:href="Wavefunction_8h.html" target="_top" xlink:title="Wavefunction.h">
<polygon fill="none" stroke="#000000" points="1330.5,-252 1330.5,-271 1423.5,-271 1423.5,-252 1330.5,-252"/>
<text text-anchor="middle" x="1377" y="-259" font-family="Helvetica,sans-Serif" font-size="10.00" fill="#000000">Wavefunction.h</text>
</a>
</g>
</g>
<!-- Node2&#45;&gt;Node27 -->
<g id="edge34" class="edge">
<title>Node2&#45;&gt;Node27</title>
<path fill="none" stroke="#191970" d="M1648.0605,-318.9717C1591.1639,-306.9082 1493.1908,-286.1354 1431.9185,-273.1441"/>
<polygon fill="#191970" stroke="#191970" points="1432.5485,-269.7 1422.04,-271.0496 1431.0966,-276.5477 1432.5485,-269.7"/>
</g>
<!-- Node31 -->
<g id="node32" class="node">
<title>Node31</title>
<polygon fill="none" stroke="#bfbfbf" points="722.5,-62 722.5,-81 815.5,-81 815.5,-62 722.5,-62"/>
<text text-anchor="middle" x="769" y="-69" font-family="Helvetica,sans-Serif" font-size="10.00" fill="#000000">unordered_map</text>
</g>
<!-- Node2&#45;&gt;Node31 -->
<g id="edge80" class="edge">
<title>Node2&#45;&gt;Node31</title>
<path fill="none" stroke="#191970" d="M1629.2151,-323.7527C1529.4989,-315.799 1341.5203,-298.516 1278,-277 1149.7066,-233.5436 1141.8424,-170.5254 1015,-123 934.517,-92.8446 908.7102,-106.4801 825,-87 820.6262,-85.9822 816.0803,-84.8497 811.5543,-83.6731"/>
<polygon fill="#191970" stroke="#191970" points="812.317,-80.2542 801.7525,-81.0545 810.5103,-87.017 812.317,-80.2542"/>
</g>
<!-- Node40 -->
<g id="node41" class="node">
<title>Node40</title>
<g id="a_node41"><a xlink:href="utils_8h.html" target="_top" xlink:title="utils.h">
<polygon fill="none" stroke="#000000" points="1947.5,-62 1947.5,-81 1994.5,-81 1994.5,-62 1947.5,-62"/>
<text text-anchor="middle" x="1971" y="-69" font-family="Helvetica,sans-Serif" font-size="10.00" fill="#000000">utils.h</text>
</a>
</g>
</g>
<!-- Node2&#45;&gt;Node40 -->
<g id="edge70" class="edge">
<title>Node2&#45;&gt;Node40</title>
<path fill="none" stroke="#191970" d="M1756.6469,-320.4269C1812.1801,-312.1447 1887.19,-297.5605 1909,-277 1962.2892,-226.7637 1970.299,-132.5526 1971.1445,-91.488"/>
<polygon fill="#191970" stroke="#191970" points="1974.645,-91.4232 1971.2246,-81.3957 1967.6452,-91.3676 1974.645,-91.4232"/>
</g>
<!-- Node45 -->
<g id="node46" class="node">
<title>Node45</title>
<polygon fill="none" stroke="#bfbfbf" points="1784.5,-129 1784.5,-148 1825.5,-148 1825.5,-129 1784.5,-129"/>
<text text-anchor="middle" x="1805" y="-136" font-family="Helvetica,sans-Serif" font-size="10.00" fill="#000000">tuple</text>
</g>
<!-- Node2&#45;&gt;Node45 -->
<g id="edge79" class="edge">
<title>Node2&#45;&gt;Node45</title>
<path fill="none" stroke="#191970" d="M1756.5615,-320.4414C1808.001,-312.4606 1874.5156,-298.3204 1891,-277 1923.3985,-235.0967 1862.4719,-180.4449 1827.3515,-154.0759"/>
<polygon fill="#191970" stroke="#191970" points="1829.1892,-151.0838 1819.0511,-148.0063 1825.0573,-156.7343 1829.1892,-151.0838"/>
</g>
<!-- Node48 -->
<g id="node49" class="node">
<title>Node48</title>
<polygon fill="none" stroke="#bfbfbf" points="2778.5,-252 2778.5,-271 2897.5,-271 2897.5,-252 2778.5,-252"/>
<text text-anchor="middle" x="2838" y="-259" font-family="Helvetica,sans-Serif" font-size="10.00" fill="#000000">boost/filesystem.hpp</text>
</g>
<!-- Node2&#45;&gt;Node48 -->
<g id="edge71" class="edge">
<title>Node2&#45;&gt;Node48</title>
<path fill="none" stroke="#191970" d="M1756.8937,-323.6956C1800.3365,-320.4932 1859.1223,-316.2851 1911,-313 2231.0044,-292.7359 2613.4325,-272.8675 2768.0402,-265.016"/>
<polygon fill="#191970" stroke="#191970" points="2768.5233,-268.4961 2778.3331,-264.4939 2768.1686,-261.5051 2768.5233,-268.4961"/>
</g>
<!-- Node2&#45;&gt;Node49 -->
<g id="edge73" class="edge">
<title>Node2&#45;&gt;Node49</title>
<path fill="none" stroke="#191970" d="M1756.8201,-321.7058C1873.9612,-309.1832 2114.8229,-283.175 2153,-277 2154.295,-276.7905 2155.6017,-276.5734 2156.9173,-276.3495"/>
<polygon fill="#191970" stroke="#191970" points="2157.902,-279.7288 2167.1261,-274.5166 2156.665,-272.8389 2157.902,-279.7288"/>
</g>
<!-- Node50 -->
<g id="node51" class="node">
<title>Node50</title>
<polygon fill="none" stroke="#bfbfbf" points="1480,-246.5 1480,-276.5 1590,-276.5 1590,-246.5 1480,-246.5"/>
<text text-anchor="start" x="1488" y="-264.5" font-family="Helvetica,sans-Serif" font-size="10.00" fill="#000000">boost/serialization</text>
<text text-anchor="middle" x="1535" y="-253.5" font-family="Helvetica,sans-Serif" font-size="10.00" fill="#000000">/unordered_set.hpp</text>
</g>
<!-- Node2&#45;&gt;Node50 -->
<g id="edge74" class="edge">
<title>Node2&#45;&gt;Node50</title>
<path fill="none" stroke="#191970" d="M1670.3625,-318.9005C1646.8017,-308.9096 1609.285,-293.0006 1579.7173,-280.4624"/>
<polygon fill="#191970" stroke="#191970" points="1580.9973,-277.2036 1570.4245,-276.5218 1578.2645,-283.6481 1580.9973,-277.2036"/>
</g>
<!-- Node51 -->
<g id="node52" class="node">
<title>Node51</title>
<polygon fill="none" stroke="#bfbfbf" points="1608,-246.5 1608,-276.5 1778,-276.5 1778,-246.5 1608,-246.5"/>
<text text-anchor="start" x="1616" y="-264.5" font-family="Helvetica,sans-Serif" font-size="10.00" fill="#000000">wignerSymbols/wignerSymbols</text>
<text text-anchor="middle" x="1693" y="-253.5" font-family="Helvetica,sans-Serif" font-size="10.00" fill="#000000">&#45;cpp.h</text>
</g>
<!-- Node2&#45;&gt;Node51 -->
<g id="edge75" class="edge">
<title>Node2&#45;&gt;Node51</title>
<path fill="none" stroke="#191970" d="M1693,-318.9005C1693,-310.5099 1693,-297.9451 1693,-286.7085"/>
<polygon fill="#191970" stroke="#191970" points="1696.5001,-286.5217 1693,-276.5218 1689.5001,-286.5218 1696.5001,-286.5217"/>
</g>
<!-- Node4 -->
<g id="node5" class="node">
<title>Node4</title>
<g id="a_node5"><a xlink:href="ConfParser_8h.html" target="_top" xlink:title="ConfParser.h">
<polygon fill="none" stroke="#000000" points="2243.5,-129 2243.5,-148 2320.5,-148 2320.5,-129 2243.5,-129"/>
<text text-anchor="middle" x="2282" y="-136" font-family="Helvetica,sans-Serif" font-size="10.00" fill="#000000">ConfParser.h</text>
</a>
</g>
</g>
<!-- Node3&#45;&gt;Node4 -->
<g id="edge4" class="edge">
<title>Node3&#45;&gt;Node4</title>
<path fill="none" stroke="#191970" d="M1873.3928,-251.9507C1952.9638,-229.8577 2149.6773,-175.2397 2237.9225,-150.7382"/>
<polygon fill="#191970" stroke="#191970" points="2238.93,-154.091 2247.6291,-148.0432 2237.0572,-147.3461 2238.93,-154.091"/>
</g>
<!-- Node3&#45;&gt;Node7 -->
<g id="edge30" class="edge">
<title>Node3&#45;&gt;Node7</title>
<path fill="none" stroke="#191970" d="M1845.3848,-251.8942C1861.5367,-228.0683 1906.1547,-165.1402 1954,-123 1970.3077,-108.6368 1991.0197,-95.5432 2007.4171,-86.1528"/>
<polygon fill="#191970" stroke="#191970" points="2009.4871,-89.0054 2016.5073,-81.0702 2006.0709,-82.8956 2009.4871,-89.0054"/>
</g>
<!-- Node9 -->
<g id="node10" class="node">
<title>Node9</title>
<g id="a_node10"><a xlink:href="Iter_8h.html" target="_top" xlink:title="Iter.h">
<polygon fill="none" stroke="#000000" points="1803.5,-190.5 1803.5,-209.5 1844.5,-209.5 1844.5,-190.5 1803.5,-190.5"/>
<text text-anchor="middle" x="1824" y="-197.5" font-family="Helvetica,sans-Serif" font-size="10.00" fill="#000000">Iter.h</text>
</a>
</g>
</g>
<!-- Node3&#45;&gt;Node9 -->
<g id="edge9" class="edge">
<title>Node3&#45;&gt;Node9</title>
<path fill="none" stroke="#191970" d="M1836.6563,-251.8906C1834.5551,-243.276 1831.4075,-230.3708 1828.777,-219.5858"/>
<polygon fill="#191970" stroke="#191970" points="1832.1468,-218.6307 1826.3768,-209.7449 1825.3461,-220.2894 1832.1468,-218.6307"/>
</g>
<!-- Node10 -->
<g id="node11" class="node">
<title>Node10</title>
<g id="a_node11"><a xlink:href="StateOld_8h.html" target="_top" xlink:title="StateOld.h">
<polygon fill="none" stroke="#000000" points="712,-190.5 712,-209.5 780,-209.5 780,-190.5 712,-190.5"/>
<text text-anchor="middle" x="746" y="-197.5" font-family="Helvetica,sans-Serif" font-size="10.00" fill="#000000">StateOld.h</text>
</a>
</g>
</g>
<!-- Node3&#45;&gt;Node10 -->
<g id="edge10" class="edge">
<title>Node3&#45;&gt;Node10</title>
<path fill="none" stroke="#191970" d="M1811.5013,-251.9341C1803.6761,-249.5881 1795.0817,-247.3617 1787,-246 1590.7535,-212.9337 962.9002,-202.727 790.2837,-200.5111"/>
<polygon fill="#191970" stroke="#191970" points="790.0915,-197.0085 780.0482,-200.3823 790.0033,-204.0079 790.0915,-197.0085"/>
</g>
<!-- Node3&#45;&gt;Node11 -->
<g id="edge26" class="edge">
<title>Node3&#45;&gt;Node11</title>
<path fill="none" stroke="#191970" d="M1810.3511,-251.9669C1802.8217,-249.7359 1794.6619,-247.5586 1787,-246 1646.3202,-217.3821 1606.9769,-237.1162 1466,-210 1423.5411,-201.8332 1306.9897,-168.2266 1245.3742,-150.1442"/>
<polygon fill="#191970" stroke="#191970" points="1246.1981,-146.7384 1235.6169,-147.2757 1244.2237,-153.4542 1246.1981,-146.7384"/>
</g>
<!-- Node17 -->
<g id="node18" class="node">
<title>Node17</title>
<polygon fill="none" stroke="#bfbfbf" points="1266.5,-62 1266.5,-81 1313.5,-81 1313.5,-62 1266.5,-62"/>
<text text-anchor="middle" x="1290" y="-69" font-family="Helvetica,sans-Serif" font-size="10.00" fill="#000000">vector</text>
</g>
<!-- Node3&#45;&gt;Node17 -->
<g id="edge32" class="edge">
<title>Node3&#45;&gt;Node17</title>
<path fill="none" stroke="#191970" d="M1810.0645,-251.9549C1802.6112,-249.7509 1794.5594,-247.5894 1787,-246 1661.1956,-219.5488 1620.4371,-254.9592 1500,-210 1434.8677,-185.6861 1428.1197,-161.1507 1370,-123 1351.1845,-110.6492 1329.7346,-96.8562 1313.785,-86.6552"/>
<polygon fill="#191970" stroke="#191970" points="1315.4028,-83.5355 1305.0912,-81.1021 1311.6347,-89.4348 1315.4028,-83.5355"/>
</g>
<!-- Node23 -->
<g id="node24" class="node">
<title>Node23</title>
<polygon fill="none" stroke="#bfbfbf" points="1730.5,-190.5 1730.5,-209.5 1785.5,-209.5 1785.5,-190.5 1730.5,-190.5"/>
<text text-anchor="middle" x="1758" y="-197.5" font-family="Helvetica,sans-Serif" font-size="10.00" fill="#000000">fstream</text>
</g>
<!-- Node3&#45;&gt;Node23 -->
<g id="edge27" class="edge">
<title>Node3&#45;&gt;Node23</title>
<path fill="none" stroke="#191970" d="M1826.3438,-251.8906C1813.6232,-242.2324 1793.7996,-227.1812 1778.7716,-215.771"/>
<polygon fill="#191970" stroke="#191970" points="1780.6484,-212.8015 1770.5674,-209.5419 1776.4154,-218.3766 1780.6484,-212.8015"/>
</g>
<!-- Node3&#45;&gt;Node24 -->
<g id="edge28" class="edge">
<title>Node3&#45;&gt;Node24</title>
<path fill="none" stroke="#191970" d="M1852.5057,-251.8167C1895.4783,-221.0061 2029.3142,-125.0483 2082.1907,-87.1369"/>
<polygon fill="#191970" stroke="#191970" points="2084.4339,-89.8352 2090.5215,-81.1638 2080.3551,-84.1463 2084.4339,-89.8352"/>
</g>
<!-- Node3&#45;&gt;Node25 -->
<g id="edge29" class="edge">
<title>Node3&#45;&gt;Node25</title>
<path fill="none" stroke="#191970" d="M1811.7821,-251.9464C1803.8853,-249.5697 1795.1834,-247.3243 1787,-246 1749.7858,-239.9778 533.5367,-206.1277 338.319,-200.7266"/>
<polygon fill="#191970" stroke="#191970" points="338.2133,-197.2225 328.1204,-200.4447 338.0198,-204.2198 338.2133,-197.2225"/>
</g>
<!-- Node26 -->
<g id="node27" class="node">
<title>Node26</title>
<polygon fill="none" stroke="#bfbfbf" points="2650,-190.5 2650,-209.5 2736,-209.5 2736,-190.5 2650,-190.5"/>
<text text-anchor="middle" x="2693" y="-197.5" font-family="Helvetica,sans-Serif" font-size="10.00" fill="#000000">unordered_set</text>
</g>
<!-- Node3&#45;&gt;Node26 -->
<g id="edge31" class="edge">
<title>Node3&#45;&gt;Node26</title>
<path fill="none" stroke="#191970" d="M1881.6422,-258.4292C2023.9602,-248.1803 2482.4664,-215.1614 2639.5874,-203.8465"/>
<polygon fill="#191970" stroke="#191970" points="2640.2104,-207.3108 2649.9331,-203.1014 2639.7075,-200.3288 2640.2104,-207.3108"/>
</g>
<!-- Node5 -->
<g id="node6" class="node">
<title>Node5</title>
<polygon fill="none" stroke="#bfbfbf" points="2151,-62 2151,-81 2189,-81 2189,-62 2151,-62"/>
<text text-anchor="middle" x="2170" y="-69" font-family="Helvetica,sans-Serif" font-size="10.00" fill="#000000">map</text>
</g>
<!-- Node4&#45;&gt;Node5 -->
<g id="edge5" class="edge">
<title>Node4&#45;&gt;Node5</title>
<path fill="none" stroke="#191970" d="M2265.9531,-128.9005C2247.3233,-117.7559 2216.3842,-99.2477 2194.6872,-86.2682"/>
<polygon fill="#191970" stroke="#191970" points="2196.3956,-83.2118 2186.0171,-81.0817 2192.802,-89.219 2196.3956,-83.2118"/>
</g>
<!-- Node4&#45;&gt;Node6 -->
<g id="edge6" class="edge">
<title>Node4&#45;&gt;Node6</title>
<path fill="none" stroke="#191970" d="M2275.266,-128.9005C2268.0764,-118.6515 2256.5181,-102.1747 2247.6252,-89.4976"/>
<polygon fill="#191970" stroke="#191970" points="2250.3296,-87.2582 2241.7215,-81.0817 2244.599,-91.2783 2250.3296,-87.2582"/>
</g>
<!-- Node4&#45;&gt;Node7 -->
<g id="edge7" class="edge">
<title>Node4&#45;&gt;Node7</title>
<path fill="none" stroke="#191970" d="M2243.3758,-132.0625C2199.5476,-124.1262 2126.3214,-108.9406 2066,-87 2064.5863,-86.4858 2063.1531,-85.9242 2061.7176,-85.3294"/>
<polygon fill="#191970" stroke="#191970" points="2062.9457,-82.0426 2052.3954,-81.0719 2060.0376,-88.4099 2062.9457,-82.0426"/>
</g>
<!-- Node8 -->
<g id="node9" class="node">
<title>Node8</title>
<polygon fill="none" stroke="#bfbfbf" points="2281.5,-62 2281.5,-81 2406.5,-81 2406.5,-62 2281.5,-62"/>
<text text-anchor="middle" x="2344" y="-69" font-family="Helvetica,sans-Serif" font-size="10.00" fill="#000000">boost/lexical_cast.hpp</text>
</g>
<!-- Node4&#45;&gt;Node8 -->
<g id="edge8" class="edge">
<title>Node4&#45;&gt;Node8</title>
<path fill="none" stroke="#191970" d="M2290.8831,-128.9005C2300.5514,-118.4525 2316.2088,-101.5325 2328.0248,-88.7635"/>
<polygon fill="#191970" stroke="#191970" points="2330.9103,-90.7985 2335.1334,-81.0817 2325.7726,-86.0441 2330.9103,-90.7985"/>
</g>
<!-- Node10&#45;&gt;Node7 -->
<g id="edge22" class="edge">
<title>Node10&#45;&gt;Node7</title>
<path fill="none" stroke="#191970" d="M780.2299,-199.7451C940.564,-198.3639 1613.1285,-190.4269 1699,-154 1717.5252,-146.1416 1713.8183,-131.6235 1732,-123 1842.1785,-70.7428 1887.4178,-122.759 2004,-87 2005.6611,-86.4905 2007.3418,-85.8987 2009.0167,-85.2498"/>
<polygon fill="#191970" stroke="#191970" points="2010.6583,-88.35 2018.3667,-81.0815 2007.808,-81.9566 2010.6583,-88.35"/>
</g>
<!-- Node10&#45;&gt;Node11 -->
<g id="edge11" class="edge">
<title>Node10&#45;&gt;Node11</title>
<path fill="none" stroke="#191970" d="M780.199,-195.4277C863.7178,-184.2616 1077.717,-155.6509 1166.4898,-143.7823"/>
<polygon fill="#191970" stroke="#191970" points="1166.9816,-147.2478 1176.4296,-142.4534 1166.054,-140.3096 1166.9816,-147.2478"/>
</g>
<!-- Node10&#45;&gt;Node14 -->
<g id="edge18" class="edge">
<title>Node10&#45;&gt;Node14</title>
<path fill="none" stroke="#191970" d="M754.5784,-190.3647C767.563,-174.5891 788.9841,-143.007 772,-123 753.8688,-101.6418 566.7925,-81.6981 490.8134,-74.4154"/>
<polygon fill="#191970" stroke="#191970" points="490.728,-70.8918 480.4428,-73.4341 490.0686,-77.8606 490.728,-70.8918"/>
</g>
<!-- Node10&#45;&gt;Node15 -->
<g id="edge20" class="edge">
<title>Node10&#45;&gt;Node15</title>
<path fill="none" stroke="#191970" d="M748.5366,-190.3857C752.2018,-174.0592 756.7443,-140.9436 739,-123 730.6777,-114.5842 379.8557,-83.8964 268.5284,-74.3525"/>
<polygon fill="#191970" stroke="#191970" points="268.784,-70.8616 258.522,-73.4963 268.1872,-77.8362 268.784,-70.8616"/>
</g>
<!-- Node10&#45;&gt;Node18 -->
<g id="edge19" class="edge">
<title>Node10&#45;&gt;Node18</title>
<path fill="none" stroke="#191970" d="M775.375,-190.3906C807.6586,-179.8298 859.6535,-162.8208 895.2547,-151.1747"/>
<polygon fill="#191970" stroke="#191970" points="896.4151,-154.4776 904.8313,-148.0419 894.2387,-147.8246 896.4151,-154.4776"/>
</g>
<!-- Node10&#45;&gt;Node19 -->
<g id="edge21" class="edge">
<title>Node10&#45;&gt;Node19</title>
<path fill="none" stroke="#191970" d="M762.531,-190.4972C776.2735,-182.0711 795.8067,-168.8266 810,-154 828.5045,-134.67 844.545,-108.1855 854.231,-90.4914"/>
<polygon fill="#191970" stroke="#191970" points="857.5622,-91.6818 859.1703,-81.2097 851.3827,-88.3933 857.5622,-91.6818"/>
</g>
<!-- Node10&#45;&gt;Node20 -->
<g id="edge23" class="edge">
<title>Node10&#45;&gt;Node20</title>
<path fill="none" stroke="#191970" d="M715.5313,-190.3906C686.9411,-181.3737 643.447,-167.6563 608.3572,-156.5896"/>
<polygon fill="#191970" stroke="#191970" points="609.2921,-153.2145 598.7024,-153.5446 607.1866,-159.8904 609.2921,-153.2145"/>
</g>
<!-- Node10&#45;&gt;Node21 -->
<g id="edge24" class="edge">
<title>Node10&#45;&gt;Node21</title>
<path fill="none" stroke="#191970" d="M735.0625,-190.3906C725.9397,-182.3756 712.5897,-170.6466 700.8888,-160.3666"/>
<polygon fill="#191970" stroke="#191970" points="702.9465,-157.5155 693.1239,-153.5446 698.3263,-162.7742 702.9465,-157.5155"/>
</g>
<!-- Node10&#45;&gt;Node22 -->
<g id="edge25" class="edge">
<title>Node10&#45;&gt;Node22</title>
<path fill="none" stroke="#191970" d="M711.9408,-192.7516C707.262,-191.8006 702.5156,-190.859 698,-190 605.4037,-172.3853 581.1919,-173.6214 489,-154 483.9853,-152.9327 478.7595,-151.7359 473.5686,-150.493"/>
<polygon fill="#191970" stroke="#191970" points="474.24,-147.0539 463.6938,-148.0678 472.5704,-153.8519 474.24,-147.0539"/>
</g>
<!-- Node12 -->
<g id="node13" class="node">
<title>Node12</title>
<polygon fill="none" stroke="#bfbfbf" points="1010.5,-62 1010.5,-81 1087.5,-81 1087.5,-62 1010.5,-62"/>
<text text-anchor="middle" x="1049" y="-69" font-family="Helvetica,sans-Serif" font-size="10.00" fill="#000000">Eigen/Dense</text>
</g>
<!-- Node11&#45;&gt;Node12 -->
<g id="edge12" class="edge">
<title>Node11&#45;&gt;Node12</title>
<path fill="none" stroke="#191970" d="M1183.5057,-128.9005C1156.5747,-117.4077 1111.2933,-98.0838 1080.7936,-85.068"/>
<polygon fill="#191970" stroke="#191970" points="1082.0238,-81.7876 1071.4525,-81.0817 1079.2763,-88.2259 1082.0238,-81.7876"/>
</g>
<!-- Node11&#45;&gt;Node13 -->
<g id="edge13" class="edge">
<title>Node11&#45;&gt;Node13</title>
<path fill="none" stroke="#191970" d="M1180.5706,-128.9721C1174.5275,-126.8667 1168.0712,-124.7458 1162,-123 1091.9499,-102.8563 1072.4211,-105.8059 1002,-87 998.4549,-86.0533 994.7844,-85.0196 991.1161,-83.9501"/>
<polygon fill="#191970" stroke="#191970" points="992.0828,-80.586 981.4991,-81.0698 990.0745,-87.2918 992.0828,-80.586"/>
</g>
<!-- Node11&#45;&gt;Node14 -->
<g id="edge14" class="edge">
<title>Node11&#45;&gt;Node14</title>
<path fill="none" stroke="#191970" d="M1176.2557,-135.8322C1056.8022,-125.1181 612.5326,-85.2707 490.3011,-74.3075"/>
<polygon fill="#191970" stroke="#191970" points="490.4044,-70.8028 480.1317,-73.3953 489.779,-77.7748 490.4044,-70.8028"/>
</g>
<!-- Node11&#45;&gt;Node15 -->
<g id="edge15" class="edge">
<title>Node11&#45;&gt;Node15</title>
<path fill="none" stroke="#191970" d="M1176.2385,-135.9029C1138.6775,-132.6671 1072.0774,-127.0688 1015,-123 754.725,-104.4461 689.2865,-105.3916 429,-87 372.7764,-83.0273 307.4507,-77.6505 268.7587,-74.3863"/>
<polygon fill="#191970" stroke="#191970" points="268.8412,-70.8809 258.5815,-73.5246 268.2505,-77.8559 268.8412,-70.8809"/>
</g>
<!-- Node16 -->
<g id="node17" class="node">
<title>Node16</title>
<polygon fill="none" stroke="#bfbfbf" points="1105.5,-56.5 1105.5,-86.5 1248.5,-86.5 1248.5,-56.5 1105.5,-56.5"/>
<text text-anchor="start" x="1113.5" y="-74.5" font-family="Helvetica,sans-Serif" font-size="10.00" fill="#000000">unsupported/Eigen/CXX11</text>
<text text-anchor="middle" x="1177" y="-63.5" font-family="Helvetica,sans-Serif" font-size="10.00" fill="#000000">/Tensor</text>
</g>
<!-- Node11&#45;&gt;Node16 -->
<g id="edge16" class="edge">
<title>Node11&#45;&gt;Node16</title>
<path fill="none" stroke="#191970" d="M1201.845,-128.9005C1198.1383,-120.3368 1192.5497,-107.4252 1187.6111,-96.0152"/>
<polygon fill="#191970" stroke="#191970" points="1190.6863,-94.3087 1183.502,-86.5218 1184.2622,-97.0893 1190.6863,-94.3087"/>
</g>
<!-- Node11&#45;&gt;Node17 -->
<g id="edge17" class="edge">
<title>Node11&#45;&gt;Node17</title>
<path fill="none" stroke="#191970" d="M1218.0352,-128.9005C1231.6332,-118.0544 1253.9754,-100.2339 1270.1624,-87.3229"/>
<polygon fill="#191970" stroke="#191970" points="1272.3519,-90.0535 1277.9872,-81.0817 1267.9869,-84.5811 1272.3519,-90.0535"/>
</g>
<!-- Node27&#45;&gt;Node7 -->
<g id="edge67" class="edge">
<title>Node27&#45;&gt;Node7</title>
<path fill="none" stroke="#191970" d="M1413.0478,-251.9935C1421.2311,-249.9321 1429.8986,-247.8247 1438,-246 1518.8664,-227.7862 1542.8353,-237.5934 1621,-210 1638.9968,-203.6468 1641.0272,-196.4208 1659,-190 1734.1878,-163.1391 1758.483,-176.8005 1835,-154 1873.7169,-142.4631 1967.1209,-103.4933 2004,-87 2005.0162,-86.5455 2006.0474,-86.0758 2007.0861,-85.5954"/>
<polygon fill="#191970" stroke="#191970" points="2008.9361,-88.5898 2016.4367,-81.1069 2005.9069,-82.2792 2008.9361,-88.5898"/>
</g>
<!-- Node27&#45;&gt;Node11 -->
<g id="edge64" class="edge">
<title>Node27&#45;&gt;Node11</title>
<path fill="none" stroke="#191970" d="M1363.5819,-251.8484C1334.1134,-230.6517 1263.5191,-179.8734 1227.674,-154.0901"/>
<polygon fill="#191970" stroke="#191970" points="1229.5176,-151.1048 1219.3558,-148.1068 1225.43,-156.7874 1229.5176,-151.1048"/>
</g>
<!-- Node27&#45;&gt;Node17 -->
<g id="edge68" class="edge">
<title>Node27&#45;&gt;Node17</title>
<path fill="none" stroke="#191970" d="M1380.6672,-251.9452C1385.4701,-237.9431 1392.453,-211.2119 1385,-190 1369.9878,-147.2738 1332.359,-108.54 1309.2175,-87.673"/>
<polygon fill="#191970" stroke="#191970" points="1311.5179,-85.0351 1301.6971,-81.0599 1306.8954,-90.2918 1311.5179,-85.0351"/>
</g>
<!-- Node28 -->
<g id="node29" class="node">
<title>Node28</title>
<g id="a_node29"><a xlink:href="QuantumDefect_8h.html" target="_top" xlink:title="QuantumDefect.h">
<polygon fill="none" stroke="#000000" points="1508.5,-190.5 1508.5,-209.5 1611.5,-209.5 1611.5,-190.5 1508.5,-190.5"/>
<text text-anchor="middle" x="1560" y="-197.5" font-family="Helvetica,sans-Serif" font-size="10.00" fill="#000000">QuantumDefect.h</text>
</a>
</g>
</g>
<!-- Node27&#45;&gt;Node28 -->
<g id="edge35" class="edge">
<title>Node27&#45;&gt;Node28</title>
<path fill="none" stroke="#191970" d="M1405.5938,-251.8906C1436.8845,-241.3749 1487.1986,-224.466 1521.84,-212.8243"/>
<polygon fill="#191970" stroke="#191970" points="1523.243,-216.0452 1531.607,-209.5419 1521.013,-209.4099 1523.243,-216.0452"/>
</g>
<!-- Node46 -->
<g id="node47" class="node">
<title>Node46</title>
<polygon fill="none" stroke="#bfbfbf" points="1330,-190.5 1330,-209.5 1376,-209.5 1376,-190.5 1330,-190.5"/>
<text text-anchor="middle" x="1353" y="-197.5" font-family="Helvetica,sans-Serif" font-size="10.00" fill="#000000">cstdio</text>
</g>
<!-- Node27&#45;&gt;Node46 -->
<g id="edge65" class="edge">
<title>Node27&#45;&gt;Node46</title>
<path fill="none" stroke="#191970" d="M1373.25,-251.8906C1369.8532,-243.1862 1364.7469,-230.1015 1360.512,-219.2494"/>
<polygon fill="#191970" stroke="#191970" points="1363.6989,-217.7882 1356.8029,-209.7449 1357.1778,-220.3331 1363.6989,-217.7882"/>
</g>
<!-- Node47 -->
<g id="node48" class="node">
<title>Node47</title>
<polygon fill="none" stroke="#bfbfbf" points="1668,-190.5 1668,-209.5 1712,-209.5 1712,-190.5 1668,-190.5"/>
<text text-anchor="middle" x="1690" y="-197.5" font-family="Helvetica,sans-Serif" font-size="10.00" fill="#000000">limits</text>
</g>
<!-- Node27&#45;&gt;Node47 -->
<g id="edge66" class="edge">
<title>Node27&#45;&gt;Node47</title>
<path fill="none" stroke="#191970" d="M1412.3645,-251.9804C1420.7379,-249.8747 1429.659,-247.7516 1438,-246 1533.2467,-225.9984 1558.9803,-231.0536 1654,-210 1655.2468,-209.7237 1656.5148,-209.4308 1657.7933,-209.1255"/>
<polygon fill="#191970" stroke="#191970" points="1658.8033,-212.4799 1667.6236,-206.6103 1657.0681,-205.6983 1658.8033,-212.4799"/>
</g>
<!-- Node28&#45;&gt;Node7 -->
<g id="edge60" class="edge">
<title>Node28&#45;&gt;Node7</title>
<path fill="none" stroke="#191970" d="M1611.6967,-191.1321C1646.7395,-183.9427 1693.5019,-172.009 1732,-154 1753.6681,-143.8639 1753.8311,-131.9881 1776,-123 1871.0719,-84.4542 1906.3052,-118.3078 2004,-87 2005.6152,-86.4824 2007.2505,-85.8908 2008.882,-85.2479"/>
<polygon fill="#191970" stroke="#191970" points="2010.3178,-88.4399 2018.0163,-81.161 2007.4589,-82.0503 2010.3178,-88.4399"/>
</g>
<!-- Node28&#45;&gt;Node11 -->
<g id="edge58" class="edge">
<title>Node28&#45;&gt;Node11</title>
<path fill="none" stroke="#191970" d="M1508.1462,-190.9915C1436.8346,-178.6026 1310.0353,-156.5739 1245.7422,-145.4044"/>
<polygon fill="#191970" stroke="#191970" points="1246.0577,-141.9068 1235.6061,-143.6434 1244.8594,-148.8035 1246.0577,-141.9068"/>
</g>
<!-- Node28&#45;&gt;Node18 -->
<g id="edge63" class="edge">
<title>Node28&#45;&gt;Node18</title>
<path fill="none" stroke="#191970" d="M1508.2392,-194.9149C1399.4655,-184.2286 1146.4276,-159.3695 1015.5927,-146.5159"/>
<polygon fill="#191970" stroke="#191970" points="1015.915,-143.0308 1005.6207,-145.5362 1015.2305,-149.9973 1015.915,-143.0308"/>
</g>
<!-- Node29 -->
<g id="node30" class="node">
<title>Node29</title>
<g id="a_node30"><a xlink:href="Cache_8h.html" target="_top" xlink:title="Cache.h">
<polygon fill="none" stroke="#000000" points="1453,-129 1453,-148 1509,-148 1509,-129 1453,-129"/>
<text text-anchor="middle" x="1481" y="-136" font-family="Helvetica,sans-Serif" font-size="10.00" fill="#000000">Cache.h</text>
</a>
</g>
</g>
<!-- Node28&#45;&gt;Node29 -->
<g id="edge36" class="edge">
<title>Node28&#45;&gt;Node29</title>
<path fill="none" stroke="#191970" d="M1547.6563,-190.3906C1535.2497,-180.7324 1515.9157,-165.6812 1501.2587,-154.271"/>
<polygon fill="#191970" stroke="#191970" points="1503.2979,-151.423 1493.2571,-148.0419 1498.9979,-156.9466 1503.2979,-151.423"/>
</g>
<!-- Node30 -->
<g id="node31" class="node">
<title>Node30</title>
<polygon fill="none" stroke="#bfbfbf" points="1457,-62 1457,-81 1505,-81 1505,-62 1457,-62"/>
<text text-anchor="middle" x="1481" y="-69" font-family="Helvetica,sans-Serif" font-size="10.00" fill="#000000">mutex</text>
</g>
<!-- Node28&#45;&gt;Node30 -->
<g id="edge59" class="edge">
<title>Node28&#45;&gt;Node30</title>
<path fill="none" stroke="#191970" d="M1555.1978,-190.2995C1547.7548,-175.4831 1532.7487,-146.4634 1518,-123 1510.7331,-111.4393 1501.8225,-98.9919 1494.5668,-89.2307"/>
<polygon fill="#191970" stroke="#191970" points="1497.2742,-87.0076 1488.4632,-81.124 1491.682,-91.2181 1497.2742,-87.0076"/>
</g>
<!-- Node28&#45;&gt;Node31 -->
<g id="edge62" class="edge">
<title>Node28&#45;&gt;Node31</title>
<path fill="none" stroke="#191970" d="M1528.1407,-190.4781C1471.6539,-173.9871 1349.9987,-140.2275 1245,-123 1060.1208,-92.6663 1009.3987,-120.1294 825,-87 819.9177,-86.0869 814.6289,-84.9193 809.4194,-83.6354"/>
<polygon fill="#191970" stroke="#191970" points="810.1345,-80.2047 799.5742,-81.0595 808.3626,-86.9768 810.1345,-80.2047"/>
</g>
<!-- Node33 -->
<g id="node34" class="node">
<title>Node33</title>
<g id="a_node34"><a xlink:href="SQLite_8h.html" target="_top" xlink:title="SQLite.h">
<polygon fill="none" stroke="#000000" points="1632.5,-129 1632.5,-148 1689.5,-148 1689.5,-129 1632.5,-129"/>
<text text-anchor="middle" x="1661" y="-136" font-family="Helvetica,sans-Serif" font-size="10.00" fill="#000000">SQLite.h</text>
</a>
</g>
</g>
<!-- Node28&#45;&gt;Node33 -->
<g id="edge40" class="edge">
<title>Node28&#45;&gt;Node33</title>
<path fill="none" stroke="#191970" d="M1575.7813,-190.3906C1592.0875,-180.4616 1617.754,-164.833 1636.6614,-153.3201"/>
<polygon fill="#191970" stroke="#191970" points="1638.6087,-156.2322 1645.3296,-148.0419 1634.9681,-150.2533 1638.6087,-156.2322"/>
</g>
<!-- Node28&#45;&gt;Node45 -->
<g id="edge61" class="edge">
<title>Node28&#45;&gt;Node45</title>
<path fill="none" stroke="#191970" d="M1611.6922,-191.6743C1654.6787,-184.0416 1717.1473,-171.2963 1770,-154 1771.8948,-153.3799 1773.8261,-152.6923 1775.7595,-151.9615"/>
<polygon fill="#191970" stroke="#191970" points="1777.3556,-155.09 1785.2824,-148.0604 1774.7019,-148.6125 1777.3556,-155.09"/>
</g>
<!-- Node29&#45;&gt;Node30 -->
<g id="edge37" class="edge">
<title>Node29&#45;&gt;Node30</title>
<path fill="none" stroke="#191970" d="M1481,-128.9005C1481,-119.149 1481,-103.7597 1481,-91.3695"/>
<polygon fill="#191970" stroke="#191970" points="1484.5001,-91.0816 1481,-81.0817 1477.5001,-91.0817 1484.5001,-91.0816"/>
</g>
<!-- Node29&#45;&gt;Node31 -->
<g id="edge38" class="edge">
<title>Node29&#45;&gt;Node31</title>
<path fill="none" stroke="#191970" d="M1458.6908,-128.8817C1452.4296,-126.5656 1445.5428,-124.3676 1439,-123 1171.4251,-67.0715 1094.6765,-131.7096 825,-87 819.7846,-86.1353 814.3577,-84.9751 809.0245,-83.6766"/>
<polygon fill="#191970" stroke="#191970" points="809.5239,-80.1898 798.9641,-81.0504 807.7558,-86.9628 809.5239,-80.1898"/>
</g>
<!-- Node32 -->
<g id="node33" class="node">
<title>Node32</title>
<polygon fill="none" stroke="#bfbfbf" points="1331.5,-62 1331.5,-81 1438.5,-81 1438.5,-62 1331.5,-62"/>
<text text-anchor="middle" x="1385" y="-69" font-family="Helvetica,sans-Serif" font-size="10.00" fill="#000000">boost/optional.hpp</text>
</g>
<!-- Node29&#45;&gt;Node32 -->
<g id="edge39" class="edge">
<title>Node29&#45;&gt;Node32</title>
<path fill="none" stroke="#191970" d="M1467.2455,-128.9005C1451.5623,-117.9549 1425.7017,-99.9064 1407.1642,-86.9688"/>
<polygon fill="#191970" stroke="#191970" points="1408.9324,-83.9347 1398.7289,-81.0817 1404.9262,-89.675 1408.9324,-83.9347"/>
</g>
<!-- Node33&#45;&gt;Node6 -->
<g id="edge44" class="edge">
<title>Node33&#45;&gt;Node6</title>
<path fill="none" stroke="#191970" d="M1689.7815,-134.2237C1713.0141,-130.8676 1746.5631,-126.2374 1776,-123 1963.1086,-102.422 2015.199,-131.9099 2198,-87 2200.6356,-86.3525 2203.3262,-85.543 2205.9939,-84.6357"/>
<polygon fill="#191970" stroke="#191970" points="2207.3231,-87.8747 2215.4162,-81.0371 2204.8255,-81.3354 2207.3231,-87.8747"/>
</g>
<!-- Node33&#45;&gt;Node7 -->
<g id="edge45" class="edge">
<title>Node33&#45;&gt;Node7</title>
<path fill="none" stroke="#191970" d="M1684.3654,-128.993C1690.6546,-126.7344 1697.5139,-124.5372 1704,-123 1834.6705,-92.0322 1875.3767,-125.5984 2004,-87 2005.6641,-86.5006 2007.3473,-85.9167 2009.0239,-85.2736"/>
<polygon fill="#191970" stroke="#191970" points="2010.6587,-88.3774 2018.3787,-81.1213 2007.8187,-81.9793 2010.6587,-88.3774"/>
</g>
<!-- Node33&#45;&gt;Node19 -->
<g id="edge41" class="edge">
<title>Node33&#45;&gt;Node19</title>
<path fill="none" stroke="#191970" d="M1632.2808,-134.9644C1603.435,-131.513 1557.6922,-126.3108 1518,-123 1245.1463,-100.2406 1170.2983,-146.3191 903,-87 900.1326,-86.3637 897.2012,-85.5434 894.297,-84.6129"/>
<polygon fill="#191970" stroke="#191970" points="895.255,-81.2376 884.6606,-81.1316 892.8765,-87.8212 895.255,-81.2376"/>
</g>
<!-- Node33&#45;&gt;Node24 -->
<g id="edge42" class="edge">
<title>Node33&#45;&gt;Node24</title>
<path fill="none" stroke="#191970" d="M1689.8183,-134.5307C1713.0716,-131.3485 1746.6307,-126.802 1776,-123 1904.8034,-106.3255 1940.3347,-119.8114 2066,-87 2068.624,-86.3149 2071.3077,-85.4908 2073.9754,-84.5843"/>
<polygon fill="#191970" stroke="#191970" points="2075.2952,-87.8275 2083.4312,-81.0411 2072.8389,-81.2726 2075.2952,-87.8275"/>
</g>
<!-- Node34 -->
<g id="node35" class="node">
<title>Node34</title>
<polygon fill="none" stroke="#bfbfbf" points="1848,-.5 1848,-19.5 1902,-19.5 1902,-.5 1848,-.5"/>
<text text-anchor="middle" x="1875" y="-7.5" font-family="Helvetica,sans-Serif" font-size="10.00" fill="#000000">random</text>
</g>
<!-- Node33&#45;&gt;Node34 -->
<g id="edge43" class="edge">
<title>Node33&#45;&gt;Node34</title>
<path fill="none" stroke="#191970" d="M1686.3571,-128.9993C1692.1284,-126.9376 1698.253,-124.8287 1704,-123 1761.1299,-104.8218 1787.2261,-124.503 1834,-87 1852.3959,-72.2503 1863.5806,-46.9622 1869.5215,-29.4089"/>
<polygon fill="#191970" stroke="#191970" points="1872.9312,-30.2307 1872.5604,-19.6423 1866.2473,-28.1509 1872.9312,-30.2307"/>
</g>
<!-- Node35 -->
<g id="node36" class="node">
<title>Node35</title>
<polygon fill="none" stroke="#bfbfbf" points="1881,-62 1881,-81 1929,-81 1929,-62 1881,-62"/>
<text text-anchor="middle" x="1905" y="-69" font-family="Helvetica,sans-Serif" font-size="10.00" fill="#000000">thread</text>
</g>
<!-- Node33&#45;&gt;Node35 -->
<g id="edge46" class="edge">
<title>Node33&#45;&gt;Node35</title>
<path fill="none" stroke="#191970" d="M1685.8333,-128.9353C1691.7398,-126.8315 1698.0542,-124.7205 1704,-123 1775.2667,-102.3782 1796.1746,-109.0899 1867,-87 1869.1553,-86.3278 1871.3593,-85.5845 1873.5668,-84.798"/>
<polygon fill="#191970" stroke="#191970" points="1875.0266,-87.9875 1883.1283,-81.1601 1872.5372,-81.445 1875.0266,-87.9875"/>
</g>
<!-- Node33&#45;&gt;Node36 -->
<g id="edge47" class="edge">
<title>Node33&#45;&gt;Node36</title>
<path fill="none" stroke="#191970" d="M1652.9745,-128.9841C1635.9645,-109.0876 1596.3468,-64.2441 1578,-56 1514.9642,-27.6748 1035.8242,-14.4548 885.1834,-10.9693"/>
<polygon fill="#191970" stroke="#191970" points="884.9925,-7.4641 874.9152,-10.7351 884.8328,-14.4623 884.9925,-7.4641"/>
</g>
<!-- Node37 -->
<g id="node38" class="node">
<title>Node37</title>
<polygon fill="none" stroke="#bfbfbf" points="1625,-56.5 1625,-86.5 1747,-86.5 1747,-56.5 1625,-56.5"/>
<text text-anchor="start" x="1633" y="-74.5" font-family="Helvetica,sans-Serif" font-size="10.00" fill="#000000">boost/iterator/iterator</text>
<text text-anchor="middle" x="1686" y="-63.5" font-family="Helvetica,sans-Serif" font-size="10.00" fill="#000000">_facade.hpp</text>
</g>
<!-- Node33&#45;&gt;Node37 -->
<g id="edge48" class="edge">
<title>Node33&#45;&gt;Node37</title>
<path fill="none" stroke="#191970" d="M1664.5819,-128.9005C1667.7773,-120.3368 1672.5951,-107.4252 1676.8525,-96.0152"/>
<polygon fill="#191970" stroke="#191970" points="1680.1781,-97.1144 1680.3949,-86.5218 1673.6197,-94.6672 1680.1781,-97.1144"/>
</g>
<!-- Node38 -->
<g id="node39" class="node">
<title>Node38</title>
<polygon fill="none" stroke="#bfbfbf" points="1765.5,-62 1765.5,-81 1824.5,-81 1824.5,-62 1765.5,-62"/>
<text text-anchor="middle" x="1795" y="-69" font-family="Helvetica,sans-Serif" font-size="10.00" fill="#000000">sqlite3.h</text>
</g>
<!-- Node33&#45;&gt;Node38 -->
<g id="edge49" class="edge">
<title>Node33&#45;&gt;Node38</title>
<path fill="none" stroke="#191970" d="M1680.1989,-128.9005C1702.8862,-117.5569 1740.8313,-98.5844 1766.8435,-85.5783"/>
<polygon fill="#191970" stroke="#191970" points="1768.4577,-88.6843 1775.8367,-81.0817 1765.3271,-82.4234 1768.4577,-88.6843"/>
</g>
<!-- Node39 -->
<g id="node40" class="node">
<title>Node39</title>
<polygon fill="none" stroke="#bfbfbf" points="1523.5,-62 1523.5,-81 1568.5,-81 1568.5,-62 1523.5,-62"/>
<text text-anchor="middle" x="1546" y="-69" font-family="Helvetica,sans-Serif" font-size="10.00" fill="#000000">utility</text>
</g>
<!-- Node33&#45;&gt;Node39 -->
<g id="edge50" class="edge">
<title>Node33&#45;&gt;Node39</title>
<path fill="none" stroke="#191970" d="M1644.5233,-128.9005C1625.3945,-117.7559 1593.6267,-99.2477 1571.3484,-86.2682"/>
<polygon fill="#191970" stroke="#191970" points="1572.8486,-83.0916 1562.4461,-81.0817 1569.3247,-89.1399 1572.8486,-83.0916"/>
</g>
<!-- Node33&#45;&gt;Node40 -->
<g id="edge51" class="edge">
<title>Node33&#45;&gt;Node40</title>
<path fill="none" stroke="#191970" d="M1684.8514,-128.9772C1691.0161,-126.7728 1697.6941,-124.6055 1704,-123 1805.9704,-97.0378 1837.3489,-117.6814 1938,-87 1939.8618,-86.4325 1941.7524,-85.7776 1943.6382,-85.0647"/>
<polygon fill="#191970" stroke="#191970" points="1945.0291,-88.2766 1952.8692,-81.1504 1942.2963,-81.8321 1945.0291,-88.2766"/>
</g>
<!-- Node40&#45;&gt;Node34 -->
<g id="edge55" class="edge">
<title>Node40&#45;&gt;Node34</title>
<path fill="none" stroke="#191970" d="M1956,-61.8906C1940.6419,-52.0519 1916.5479,-36.6167 1898.6255,-25.1351"/>
<polygon fill="#191970" stroke="#191970" points="1900.203,-21.9891 1889.8947,-19.5419 1896.427,-27.8833 1900.203,-21.9891"/>
</g>
<!-- Node40&#45;&gt;Node36 -->
<g id="edge56" class="edge">
<title>Node40&#45;&gt;Node36</title>
<path fill="none" stroke="#191970" d="M1954.0068,-61.9495C1948.9998,-59.5728 1943.4098,-57.3267 1938,-56 1834.6844,-30.6632 1078.0524,-14.5604 884.8258,-10.832"/>
<polygon fill="#191970" stroke="#191970" points="884.8053,-7.3311 874.7401,-10.6388 884.6712,-14.3298 884.8053,-7.3311"/>
</g>
<!-- Node41 -->
<g id="node42" class="node">
<title>Node41</title>
<polygon fill="none" stroke="#bfbfbf" points="2759,-.5 2759,-19.5 2823,-19.5 2823,-.5 2759,-.5"/>
<text text-anchor="middle" x="2791" y="-7.5" font-family="Helvetica,sans-Serif" font-size="10.00" fill="#000000">algorithm</text>
</g>
<!-- Node40&#45;&gt;Node41 -->
<g id="edge52" class="edge">
<title>Node40&#45;&gt;Node41</title>
<path fill="none" stroke="#191970" d="M1988.3499,-61.8454C1993.2687,-59.5291 1998.724,-57.3401 2004,-56 2076.2205,-37.6554 2595.0826,-17.2335 2748.4278,-11.5436"/>
<polygon fill="#191970" stroke="#191970" points="2748.9618,-15.0264 2758.8258,-11.1596 2748.7035,-8.0311 2748.9618,-15.0264"/>
</g>
<!-- Node42 -->
<g id="node43" class="node">
<title>Node42</title>
<polygon fill="none" stroke="#bfbfbf" points="2405.5,-.5 2405.5,-19.5 2464.5,-19.5 2464.5,-.5 2405.5,-.5"/>
<text text-anchor="middle" x="2435" y="-7.5" font-family="Helvetica,sans-Serif" font-size="10.00" fill="#000000">complex</text>
</g>
<!-- Node40&#45;&gt;Node42 -->
<g id="edge53" class="edge">
<title>Node40&#45;&gt;Node42</title>
<path fill="none" stroke="#191970" d="M1988.7384,-61.8507C1993.5665,-59.5932 1998.8796,-57.4321 2004,-56 2077.1827,-35.5317 2303.1528,-18.7286 2395.2831,-12.5472"/>
<polygon fill="#191970" stroke="#191970" points="2395.5763,-16.0356 2405.3223,-11.8803 2395.1122,-9.051 2395.5763,-16.0356"/>
</g>
<!-- Node43 -->
<g id="node44" class="node">
<title>Node43</title>
<polygon fill="none" stroke="#bfbfbf" points="2979.5,-.5 2979.5,-19.5 3044.5,-19.5 3044.5,-.5 2979.5,-.5"/>
<text text-anchor="middle" x="3012" y="-7.5" font-family="Helvetica,sans-Serif" font-size="10.00" fill="#000000">functional</text>
</g>
<!-- Node40&#45;&gt;Node43 -->
<g id="edge54" class="edge">
<title>Node40&#45;&gt;Node43</title>
<path fill="none" stroke="#191970" d="M1987.9945,-61.955C1993.0016,-59.5784 1998.5912,-57.331 2004,-56 2182.8388,-11.9921 2648.0515,-29.1082 2832,-20 2878.9448,-17.6755 2932.7547,-14.637 2969.2202,-12.522"/>
<polygon fill="#191970" stroke="#191970" points="2969.7091,-15.9996 2979.4887,-11.9243 2969.3022,-9.0114 2969.7091,-15.9996"/>
</g>
<!-- Node44 -->
<g id="node45" class="node">
<title>Node44</title>
<polygon fill="none" stroke="#bfbfbf" points="1943,-.5 1943,-19.5 1999,-19.5 1999,-.5 1943,-.5"/>
<text text-anchor="middle" x="1971" y="-7.5" font-family="Helvetica,sans-Serif" font-size="10.00" fill="#000000">unistd.h</text>
</g>
<!-- Node40&#45;&gt;Node44 -->
<g id="edge57" class="edge">
<title>Node40&#45;&gt;Node44</title>
<path fill="none" stroke="#191970" d="M1971,-61.8906C1971,-53.3657 1971,-40.6392 1971,-29.9235"/>
<polygon fill="#191970" stroke="#191970" points="1974.5001,-29.7448 1971,-19.7449 1967.5001,-29.7449 1974.5001,-29.7448"/>
</g>
<!-- Node53&#45;&gt;Node1 -->
<g id="edge93" class="edge">
<title>Node53&#45;&gt;Node1</title>
<path fill="none" stroke="#191970" d="M1680.5887,-459.8997C1564.1654,-452.8538 1235.2945,-432.4757 962,-411 914.5954,-407.2749 859.9513,-402.2579 824.9723,-398.954"/>
<polygon fill="#191970" stroke="#191970" points="825.0638,-395.447 814.7779,-397.9869 824.4027,-402.4157 825.0638,-395.447"/>
</g>
<!-- Node53&#45;&gt;Node2 -->
<g id="edge92" class="edge">
<title>Node53&#45;&gt;Node2</title>
<path fill="none" stroke="#191970" d="M1680.9726,-460.3057C1580.1403,-454.7245 1335.2427,-438.4534 1311,-411 1301.8803,-400.6725 1301.9318,-390.3728 1311,-380 1330.9274,-357.2058 1513.5839,-340.9023 1618.9352,-333.304"/>
<polygon fill="#191970" stroke="#191970" points="1619.4674,-336.7751 1629.1937,-332.5739 1618.9704,-329.7927 1619.4674,-336.7751"/>
</g>
<!-- Node53&#45;&gt;Node7 -->
<g id="edge124" class="edge">
<title>Node53&#45;&gt;Node7</title>
<path fill="none" stroke="#191970" d="M1753.5011,-452.9594C1761.0975,-450.7553 1769.3018,-448.5927 1777,-447 1904.1847,-420.6867 1946.1032,-458.4585 2067,-411 2088.9305,-402.3911 2088.6165,-389.8897 2110,-380 2170.6591,-351.9456 2202.7276,-384.3562 2256,-344 2293.237,-315.7913 2315.9423,-287.2414 2294,-246 2280.9195,-221.4146 2122.0156,-123.8979 2059.7748,-86.3472"/>
<polygon fill="#191970" stroke="#191970" points="2061.359,-83.2156 2050.9865,-81.0563 2057.7485,-89.2127 2061.359,-83.2156"/>
</g>
<!-- Node53&#45;&gt;Node11 -->
<g id="edge101" class="edge">
<title>Node53&#45;&gt;Node11</title>
<path fill="none" stroke="#191970" d="M1680.5764,-460.8207C1542.6003,-455.2492 1119.971,-436.2832 1064,-411 1015.4546,-389.0711 972.952,-361.4914 995,-313 1031.5224,-232.674 1126.017,-177.0901 1175.2104,-152.6002"/>
<polygon fill="#191970" stroke="#191970" points="1176.9559,-155.6432 1184.4145,-148.1187 1173.8914,-149.3496 1176.9559,-155.6432"/>
</g>
<!-- Node53&#45;&gt;Node17 -->
<g id="edge128" class="edge">
<title>Node53&#45;&gt;Node17</title>
<path fill="none" stroke="#191970" d="M1680.669,-461.0311C1564.7764,-456.6945 1254.202,-442.2455 1221,-411 1199.0244,-390.3193 1212.4526,-374.0766 1210,-344 1201.9326,-245.0671 1256.0276,-133.2151 1279.5051,-89.9457"/>
<polygon fill="#191970" stroke="#191970" points="1282.609,-91.5653 1284.3902,-81.1212 1276.4847,-88.175 1282.609,-91.5653"/>
</g>
<!-- Node53&#45;&gt;Node24 -->
<g id="edge120" class="edge">
<title>Node53&#45;&gt;Node24</title>
<path fill="none" stroke="#191970" d="M1753.2091,-452.9697C1760.8832,-450.7387 1769.1975,-448.5607 1777,-447 1919.5051,-418.4955 1966.6693,-463.9697 2102,-411 2123.6047,-402.5437 2123.0296,-389.9254 2144,-380 2202.8489,-352.1465 2237.2435,-387.1488 2286,-344 2319.7454,-314.1358 2329.786,-287.4038 2312,-246 2293.4347,-202.7822 2177.3984,-120.8923 2127.1519,-86.8949"/>
<polygon fill="#191970" stroke="#191970" points="2128.8246,-83.8019 2118.5737,-81.1242 2124.9174,-89.61 2128.8246,-83.8019"/>
</g>
<!-- Node53&#45;&gt;Node25 -->
<g id="edge122" class="edge">
<title>Node53&#45;&gt;Node25</title>
<path fill="none" stroke="#191970" d="M1680.9898,-461.5805C1464.35,-456.8469 500.6969,-434.536 442,-411 400.2052,-394.2413 391.5559,-381.0749 366,-344 338.5762,-304.2152 322.9391,-248.7153 316.1291,-219.6026"/>
<polygon fill="#191970" stroke="#191970" points="319.4695,-218.5009 313.8769,-209.5024 312.6373,-220.0245 319.4695,-218.5009"/>
</g>
<!-- Node53&#45;&gt;Node26 -->
<g id="edge126" class="edge">
<title>Node53&#45;&gt;Node26</title>
<path fill="none" stroke="#191970" d="M1751.7538,-452.952C1759.8027,-450.5753 1768.6689,-448.3286 1777,-447 1839.1904,-437.0823 2862.0552,-451.8326 2910,-411 2965.8391,-363.4442 2959.448,-297.2715 2907,-246 2884.5519,-224.0554 2801.9451,-211.2764 2746.1797,-204.9726"/>
<polygon fill="#191970" stroke="#191970" points="2746.4213,-201.4782 2736.1,-203.8701 2745.6601,-208.4367 2746.4213,-201.4782"/>
</g>
<!-- Node53&#45;&gt;Node31 -->
<g id="edge125" class="edge">
<title>Node53&#45;&gt;Node31</title>
<path fill="none" stroke="#191970" d="M1680.8466,-461.2507C1517.5735,-456.3618 937.6663,-437.4842 755,-411 618.5718,-391.2197 456,-466.3546 456,-328.5 456,-328.5 456,-328.5 456,-261.5 456,-223.2255 433.0819,-218.9108 408,-190 392.3264,-171.9338 377.7306,-175.8487 368,-154 362.3947,-141.414 358.8993,-133.3443 368,-123 390.3783,-97.5638 607.0874,-81.2019 712.2768,-74.6949"/>
<polygon fill="#191970" stroke="#191970" points="712.6344,-78.1797 722.4029,-74.0776 712.2084,-71.1926 712.6344,-78.1797"/>
</g>
<!-- Node53&#45;&gt;Node39 -->
<g id="edge127" class="edge">
<title>Node53&#45;&gt;Node39</title>
<path fill="none" stroke="#191970" d="M1680.722,-460.7013C1569.5558,-455.6813 1280.4813,-439.9522 1249,-411 1172.963,-341.0716 1234.22,-246.0432 1321,-190 1395.769,-141.7136 1450.6279,-212.1634 1518,-154 1536.1946,-138.2923 1542.5898,-110.2943 1544.8237,-91.3181"/>
<polygon fill="#191970" stroke="#191970" points="1548.3324,-91.3742 1545.7306,-81.1038 1541.3598,-90.755 1548.3324,-91.3742"/>
</g>
<!-- Node53&#45;&gt;Node41 -->
<g id="edge107" class="edge">
<title>Node53&#45;&gt;Node41</title>
<path fill="none" stroke="#191970" d="M1751.7523,-452.943C1759.8013,-450.5662 1768.6678,-448.3216 1777,-447 2039.6151,-405.3452 2717.5527,-484.814 2973,-411 3042.3836,-390.9509 3113,-400.7222 3113,-328.5 3113,-328.5 3113,-328.5 3113,-138.5 3113,-78.8657 2920.0775,-34.5608 2832.892,-17.5834"/>
<polygon fill="#191970" stroke="#191970" points="2833.5321,-14.1424 2823.0518,-15.696 2832.2135,-21.0171 2833.5321,-14.1424"/>
</g>
<!-- Node53&#45;&gt;Node42 -->
<g id="edge116" class="edge">
<title>Node53&#45;&gt;Node42</title>
<path fill="none" stroke="#191970" d="M1751.7531,-452.948C1759.8021,-450.5713 1768.6684,-448.3255 1777,-447 1904.3494,-426.7395 2822.5424,-470.3953 2937,-411 2977.7115,-389.8736 2999,-374.3667 2999,-328.5 2999,-328.5 2999,-328.5 2999,-138.5 2999,-84.654 2603.1459,-30.8396 2474.712,-14.7967"/>
<polygon fill="#191970" stroke="#191970" points="2474.8837,-11.2913 2464.529,-13.5341 2474.0223,-18.2381 2474.8837,-11.2913"/>
</g>
<!-- Node53&#45;&gt;Node43 -->
<g id="edge117" class="edge">
<title>Node53&#45;&gt;Node43</title>
<path fill="none" stroke="#191970" d="M1751.7509,-452.934C1759.7998,-450.5571 1768.6667,-448.3147 1777,-447 1916.0043,-425.0703 2910.3501,-457.9798 3043,-411 3099.937,-390.835 3151,-388.9024 3151,-328.5 3151,-328.5 3151,-328.5 3151,-138.5 3151,-81.4854 3087.164,-42.7324 3046.013,-23.674"/>
<polygon fill="#191970" stroke="#191970" points="3047.4083,-20.464 3036.8504,-19.5795 3044.5523,-26.8549 3047.4083,-20.464"/>
</g>
<!-- Node53&#45;&gt;Node47 -->
<g id="edge119" class="edge">
<title>Node53&#45;&gt;Node47</title>
<path fill="none" stroke="#191970" d="M1680.7939,-459.8192C1575.4489,-452.9574 1311.5911,-433.6917 1279,-411 1251.5956,-391.9196 1252.7687,-376.4763 1245,-344 1241.7946,-330.6003 1236.2214,-323.619 1245,-313 1299.2049,-247.4305 1355.912,-312.9857 1433,-277 1452.75,-267.7805 1451.2733,-255.2693 1471,-246 1546.0227,-210.7479 1573.34,-229.1068 1654,-210 1655.2782,-209.6972 1656.5794,-209.3798 1657.892,-209.0519"/>
<polygon fill="#191970" stroke="#191970" points="1659.2003,-212.3271 1667.9844,-206.4035 1657.4235,-205.5564 1659.2003,-212.3271"/>
</g>
<!-- Node53&#45;&gt;Node48 -->
<g id="edge108" class="edge">
<title>Node53&#45;&gt;Node48</title>
<path fill="none" stroke="#191970" d="M1751.7544,-452.9561C1759.8034,-450.5795 1768.6694,-448.3318 1777,-447 1837.7061,-437.2949 2834.0517,-448.1952 2883,-411 2918.4664,-384.0495 2923.5392,-353.0302 2904,-313 2896.3124,-297.2502 2881.2232,-284.9113 2867.411,-276.2644"/>
<polygon fill="#191970" stroke="#191970" points="2869.0084,-273.1441 2858.6094,-271.1166 2865.4744,-279.1865 2869.0084,-273.1441"/>
</g>
<!-- Node54 -->
<g id="node55" class="node">
<title>Node54</title>
<g id="a_node55"><a xlink:href="WignerD_8h.html" target="_top" xlink:title="WignerD.h">
<polygon fill="none" stroke="#000000" points="1990,-386 1990,-405 2058,-405 2058,-386 1990,-386"/>
<text text-anchor="middle" x="2024" y="-393" font-family="Helvetica,sans-Serif" font-size="10.00" fill="#000000">WignerD.h</text>
</a>
</g>
</g>
<!-- Node53&#45;&gt;Node54 -->
<g id="edge94" class="edge">
<title>Node53&#45;&gt;Node54</title>
<path fill="none" stroke="#191970" d="M1754.397,-452.9891C1761.7548,-450.8595 1769.6252,-448.7236 1777,-447 1866.6516,-426.0469 1892.0344,-434.6972 1981,-411 1983.9714,-410.2085 1987.0285,-409.3015 1990.0772,-408.3321"/>
<polygon fill="#191970" stroke="#191970" points="1991.3196,-411.6068 1999.6717,-405.0881 1989.0774,-404.9755 1991.3196,-411.6068"/>
</g>
<!-- Node57 -->
<g id="node58" class="node">
<title>Node57</title>
<polygon fill="none" stroke="#bfbfbf" points="1254,-319 1254,-338 1310,-338 1310,-319 1254,-319"/>
<text text-anchor="middle" x="1282" y="-326" font-family="Helvetica,sans-Serif" font-size="10.00" fill="#000000">numeric</text>
</g>
<!-- Node53&#45;&gt;Node57 -->
<g id="edge121" class="edge">
<title>Node53&#45;&gt;Node57</title>
<path fill="none" stroke="#191970" d="M1680.961,-460.0718C1578.7512,-453.915 1327.8644,-436.3623 1300,-411 1282.7711,-395.3181 1279.9962,-367.3139 1280.3693,-348.3292"/>
<polygon fill="#191970" stroke="#191970" points="1283.8765,-348.2742 1280.8872,-338.1098 1276.8855,-347.9198 1283.8765,-348.2742"/>
</g>
<!-- Node58 -->
<g id="node59" class="node">
<title>Node58</title>
<g id="a_node59"><a xlink:href="serialization__eigen_8h.html" target="_top" xlink:title="serialization_eigen.h">
<polygon fill="none" stroke="#000000" points="1004,-319 1004,-338 1122,-338 1122,-319 1004,-319"/>
<text text-anchor="middle" x="1063" y="-326" font-family="Helvetica,sans-Serif" font-size="10.00" fill="#000000">serialization_eigen.h</text>
</a>
</g>
</g>
<!-- Node53&#45;&gt;Node58 -->
<g id="edge102" class="edge">
<title>Node53&#45;&gt;Node58</title>
<path fill="none" stroke="#191970" d="M1680.9544,-461.8079C1545.29,-459.2476 1132.8917,-448.4297 1087,-411 1068.5437,-395.9469 1063.7737,-367.5793 1062.7972,-348.3608"/>
<polygon fill="#191970" stroke="#191970" points="1066.2947,-348.1968 1062.5859,-338.2723 1059.2962,-348.3435 1066.2947,-348.1968"/>
</g>
<!-- Node59 -->
<g id="node60" class="node">
<title>Node59</title>
<g id="a_node60"><a xlink:href="serialization__path_8h.html" target="_top" xlink:title="serialization_path.h">
<polygon fill="none" stroke="#000000" points="2781.5,-319 2781.5,-338 2894.5,-338 2894.5,-319 2781.5,-319"/>
<text text-anchor="middle" x="2838" y="-326" font-family="Helvetica,sans-Serif" font-size="10.00" fill="#000000">serialization_path.h</text>
</a>
</g>
</g>
<!-- Node53&#45;&gt;Node59 -->
<g id="edge104" class="edge">
<title>Node53&#45;&gt;Node59</title>
<path fill="none" stroke="#191970" d="M1751.7549,-452.9589C1759.8038,-450.5823 1768.6697,-448.3339 1777,-447 1836.7716,-437.4288 2823.9097,-454.5047 2866,-411 2883.2505,-393.1699 2866.9011,-364.3201 2852.9262,-345.8913"/>
<polygon fill="#191970" stroke="#191970" points="2855.5921,-343.6209 2846.6082,-338.0048 2850.129,-347.9975 2855.5921,-343.6209"/>
</g>
<!-- Node60 -->
<g id="node61" class="node">
<title>Node60</title>
<polygon fill="none" stroke="#bfbfbf" points="1319.5,-380.5 1319.5,-410.5 1460.5,-410.5 1460.5,-380.5 1319.5,-380.5"/>
<text text-anchor="start" x="1327.5" y="-398.5" font-family="Helvetica,sans-Serif" font-size="10.00" fill="#000000">unsupported/Eigen/Matrix</text>
<text text-anchor="middle" x="1390" y="-387.5" font-family="Helvetica,sans-Serif" font-size="10.00" fill="#000000">Functions</text>
</g>
<!-- Node53&#45;&gt;Node60 -->
<g id="edge106" class="edge">
<title>Node53&#45;&gt;Node60</title>
<path fill="none" stroke="#191970" d="M1680.6777,-453.8096C1627.6246,-443.1672 1536.6852,-424.9249 1470.6256,-411.6734"/>
<polygon fill="#191970" stroke="#191970" points="1471.1504,-408.209 1460.6573,-409.6738 1469.7736,-415.0723 1471.1504,-408.209"/>
</g>
<!-- Node61 -->
<g id="node62" class="node">
<title>Node61</title>
<polygon fill="none" stroke="#bfbfbf" points="1478.5,-380.5 1478.5,-410.5 1621.5,-410.5 1621.5,-380.5 1478.5,-380.5"/>
<text text-anchor="start" x="1486.5" y="-398.5" font-family="Helvetica,sans-Serif" font-size="10.00" fill="#000000">boost/multi_index/hashed</text>
<text text-anchor="middle" x="1550" y="-387.5" font-family="Helvetica,sans-Serif" font-size="10.00" fill="#000000">_index.hpp</text>
</g>
<!-- Node53&#45;&gt;Node61 -->
<g id="edge109" class="edge">
<title>Node53&#45;&gt;Node61</title>
<path fill="none" stroke="#191970" d="M1699.07,-452.9005C1672.8987,-442.8231 1631.0909,-426.7247 1598.4018,-414.1375"/>
<polygon fill="#191970" stroke="#191970" points="1599.6015,-410.849 1589.0117,-410.5218 1597.0861,-417.3814 1599.6015,-410.849"/>
</g>
<!-- Node62 -->
<g id="node63" class="node">
<title>Node62</title>
<polygon fill="none" stroke="#bfbfbf" points="1640,-386 1640,-405 1808,-405 1808,-386 1640,-386"/>
<text text-anchor="middle" x="1724" y="-393" font-family="Helvetica,sans-Serif" font-size="10.00" fill="#000000">boost/multi_index/member.hpp</text>
</g>
<!-- Node53&#45;&gt;Node62 -->
<g id="edge110" class="edge">
<title>Node53&#45;&gt;Node62</title>
<path fill="none" stroke="#191970" d="M1724,-452.9005C1724,-443.149 1724,-427.7597 1724,-415.3695"/>
<polygon fill="#191970" stroke="#191970" points="1727.5001,-415.0816 1724,-405.0817 1720.5001,-415.0817 1727.5001,-415.0816"/>
</g>
<!-- Node63 -->
<g id="node64" class="node">
<title>Node63</title>
<polygon fill="none" stroke="#bfbfbf" points="1826.5,-380.5 1826.5,-410.5 1971.5,-410.5 1971.5,-380.5 1826.5,-380.5"/>
<text text-anchor="start" x="1834.5" y="-398.5" font-family="Helvetica,sans-Serif" font-size="10.00" fill="#000000">boost/multi_index/random</text>
<text text-anchor="middle" x="1899" y="-387.5" font-family="Helvetica,sans-Serif" font-size="10.00" fill="#000000">_access_index.hpp</text>
</g>
<!-- Node53&#45;&gt;Node63 -->
<g id="edge111" class="edge">
<title>Node53&#45;&gt;Node63</title>
<path fill="none" stroke="#191970" d="M1749.0732,-452.9005C1775.395,-442.8231 1817.443,-426.7247 1850.32,-414.1375"/>
<polygon fill="#191970" stroke="#191970" points="1851.6765,-417.3659 1859.764,-410.5218 1849.1737,-410.8287 1851.6765,-417.3659"/>
</g>
<!-- Node64 -->
<g id="node65" class="node">
<title>Node64</title>
<polygon fill="none" stroke="#bfbfbf" points="2152.5,-386 2152.5,-405 2327.5,-405 2327.5,-386 2152.5,-386"/>
<text text-anchor="middle" x="2240" y="-393" font-family="Helvetica,sans-Serif" font-size="10.00" fill="#000000">boost/multi_index_container.hpp</text>
</g>
<!-- Node53&#45;&gt;Node64 -->
<g id="edge112" class="edge">
<title>Node53&#45;&gt;Node64</title>
<path fill="none" stroke="#191970" d="M1752.9205,-452.9919C1760.6713,-450.7333 1769.095,-448.5363 1777,-447 1935.2787,-416.2386 1978.0198,-431.1187 2138,-411 2148.613,-409.6653 2159.8251,-408.1099 2170.7793,-406.5093"/>
<polygon fill="#191970" stroke="#191970" points="2171.3638,-409.961 2180.7421,-405.0317 2170.3368,-403.0367 2171.3638,-409.961"/>
</g>
<!-- Node65 -->
<g id="node66" class="node">
<title>Node65</title>
<polygon fill="none" stroke="#bfbfbf" points="2345.5,-380.5 2345.5,-410.5 2452.5,-410.5 2452.5,-380.5 2345.5,-380.5"/>
<text text-anchor="start" x="2353.5" y="-398.5" font-family="Helvetica,sans-Serif" font-size="10.00" fill="#000000">boost/serialization</text>
<text text-anchor="middle" x="2399" y="-387.5" font-family="Helvetica,sans-Serif" font-size="10.00" fill="#000000">/complex.hpp</text>
</g>
<!-- Node53&#45;&gt;Node65 -->
<g id="edge113" class="edge">
<title>Node53&#45;&gt;Node65</title>
<path fill="none" stroke="#191970" d="M1752.3331,-452.9646C1760.2348,-450.6488 1768.8803,-448.4302 1777,-447 2019.3831,-404.3051 2088.7489,-448.2126 2335.3728,-411.0744"/>
<polygon fill="#191970" stroke="#191970" points="2336,-414.5192 2345.353,-409.5422 2334.9377,-407.6003 2336,-414.5192"/>
</g>
<!-- Node66 -->
<g id="node67" class="node">
<title>Node66</title>
<polygon fill="none" stroke="#bfbfbf" points="2470.5,-380.5 2470.5,-410.5 2577.5,-410.5 2577.5,-380.5 2470.5,-380.5"/>
<text text-anchor="start" x="2478.5" y="-398.5" font-family="Helvetica,sans-Serif" font-size="10.00" fill="#000000">boost/serialization</text>
<text text-anchor="middle" x="2524" y="-387.5" font-family="Helvetica,sans-Serif" font-size="10.00" fill="#000000">/set.hpp</text>
</g>
<!-- Node53&#45;&gt;Node66 -->
<g id="edge114" class="edge">
<title>Node53&#45;&gt;Node66</title>
<path fill="none" stroke="#191970" d="M1752.0469,-452.9826C1760.0227,-450.6371 1768.7776,-448.3988 1777,-447 2074.3178,-396.4186 2158.6943,-454.8964 2460.4514,-411.0463"/>
<polygon fill="#191970" stroke="#191970" points="2460.9785,-414.5065 2470.359,-409.5813 2459.9546,-407.5818 2460.9785,-414.5065"/>
</g>
<!-- Node67 -->
<g id="node68" class="node">
<title>Node67</title>
<polygon fill="none" stroke="#bfbfbf" points="2595.5,-380.5 2595.5,-410.5 2702.5,-410.5 2702.5,-380.5 2595.5,-380.5"/>
<text text-anchor="start" x="2603.5" y="-398.5" font-family="Helvetica,sans-Serif" font-size="10.00" fill="#000000">boost/serialization</text>
<text text-anchor="middle" x="2649" y="-387.5" font-family="Helvetica,sans-Serif" font-size="10.00" fill="#000000">/vector.hpp</text>
</g>
<!-- Node53&#45;&gt;Node67 -->
<g id="edge115" class="edge">
<title>Node53&#45;&gt;Node67</title>
<path fill="none" stroke="#191970" d="M1752.0396,-452.9391C1760.0153,-450.5931 1768.772,-448.3656 1777,-447 2129.1946,-388.5477 2228.5715,-461.5812 2585.2742,-411.0604"/>
<polygon fill="#191970" stroke="#191970" points="2585.9636,-414.4973 2595.363,-409.6084 2584.9664,-407.5687 2585.9636,-414.4973"/>
</g>
<!-- Node68 -->
<g id="node69" class="node">
<title>Node68</title>
<polygon fill="none" stroke="#bfbfbf" points="2720.5,-386 2720.5,-405 2773.5,-405 2773.5,-386 2720.5,-386"/>
<text text-anchor="middle" x="2747" y="-393" font-family="Helvetica,sans-Serif" font-size="10.00" fill="#000000">iterator</text>
</g>
<!-- Node53&#45;&gt;Node68 -->
<g id="edge118" class="edge">
<title>Node53&#45;&gt;Node68</title>
<path fill="none" stroke="#191970" d="M1751.7596,-452.9881C1759.8086,-450.612 1768.6734,-448.3566 1777,-447 1982.2259,-413.5646 2509.4349,-457.9361 2712,-411 2714.4925,-410.4225 2717.0269,-409.6681 2719.5343,-408.8031"/>
<polygon fill="#191970" stroke="#191970" points="2720.932,-412.0138 2728.9246,-405.059 2718.3394,-405.5116 2720.932,-412.0138"/>
</g>
<!-- Node69 -->
<g id="node70" class="node">
<title>Node69</title>
<polygon fill="none" stroke="#bfbfbf" points="2791.5,-386 2791.5,-405 2856.5,-405 2856.5,-386 2791.5,-386"/>
<text text-anchor="middle" x="2824" y="-393" font-family="Helvetica,sans-Serif" font-size="10.00" fill="#000000">stdexcept</text>
</g>
<!-- Node53&#45;&gt;Node69 -->
<g id="edge123" class="edge">
<title>Node53&#45;&gt;Node69</title>
<path fill="none" stroke="#191970" d="M1751.7572,-452.9735C1759.8062,-450.5972 1768.6716,-448.3453 1777,-447 2218.6725,-375.6578 2344.3973,-499.2726 2783,-411 2786.2825,-410.3394 2789.6478,-409.448 2792.9705,-408.4246"/>
<polygon fill="#191970" stroke="#191970" points="2794.3829,-411.6394 2802.6853,-405.0575 2792.0905,-405.0254 2794.3829,-411.6394"/>
</g>
<!-- Node54&#45;&gt;Node15 -->
<g id="edge97" class="edge">
<title>Node54&#45;&gt;Node15</title>
<path fill="none" stroke="#191970" d="M2001.1414,-385.8896C1994.731,-383.5735 1987.6849,-381.3736 1981,-380 1716.7131,-325.6964 1634.1165,-419.2003 1375,-344 1347.6794,-336.0711 1345.8607,-322.3695 1319,-313 1268.422,-295.3575 418.1246,-172.892 368,-154 324.5586,-137.6269 279.8612,-106.3609 254.9343,-87.3742"/>
<polygon fill="#191970" stroke="#191970" points="257.0267,-84.5678 246.9764,-81.215 252.7423,-90.1035 257.0267,-84.5678"/>
</g>
<!-- Node54&#45;&gt;Node17 -->
<g id="edge100" class="edge">
<title>Node54&#45;&gt;Node17</title>
<path fill="none" stroke="#191970" d="M2000.6547,-385.9061C1994.3654,-383.6482 1987.501,-381.473 1981,-380 1836.4419,-347.246 1423.296,-385.2081 1322,-277 1273.5064,-225.1973 1280.6088,-131.8247 1286.5266,-91.2344"/>
<polygon fill="#191970" stroke="#191970" points="1289.998,-91.6904 1288.1171,-81.2639 1283.0854,-90.5876 1289.998,-91.6904"/>
</g>
<!-- Node54&#45;&gt;Node42 -->
<g id="edge98" class="edge">
<title>Node54&#45;&gt;Node42</title>
<path fill="none" stroke="#191970" d="M2032.0321,-385.8585C2048.6505,-366.1498 2086.6978,-322.3183 2104,-313 2179.6706,-272.2468 2222.7569,-325.0759 2294,-277 2377.1854,-220.8653 2376.333,-179.1816 2416,-87 2423.9707,-68.477 2429.0399,-45.9469 2431.9187,-30.0567"/>
<polygon fill="#191970" stroke="#191970" points="2435.4346,-30.2533 2433.6381,-19.8119 2428.5312,-29.0947 2435.4346,-30.2533"/>
</g>
<!-- Node54&#45;&gt;Node55 -->
<g id="edge95" class="edge">
<title>Node54&#45;&gt;Node55</title>
<path fill="none" stroke="#191970" d="M2046.351,-385.9005C2069.5128,-375.9528 2106.3349,-360.1382 2135.4692,-347.6254"/>
<polygon fill="#191970" stroke="#191970" points="2137.2168,-350.6841 2145.024,-343.5218 2134.4543,-344.2522 2137.2168,-350.6841"/>
</g>
<!-- Node56 -->
<g id="node57" class="node">
<title>Node56</title>
<polygon fill="none" stroke="#bfbfbf" points="1919.5,-313.5 1919.5,-343.5 2056.5,-343.5 2056.5,-313.5 1919.5,-313.5"/>
<text text-anchor="start" x="1927.5" y="-331.5" font-family="Helvetica,sans-Serif" font-size="10.00" fill="#000000">boost/math/special</text>
<text text-anchor="middle" x="1988" y="-320.5" font-family="Helvetica,sans-Serif" font-size="10.00" fill="#000000">_functions/factorials.hpp</text>
</g>
<!-- Node54&#45;&gt;Node56 -->
<g id="edge96" class="edge">
<title>Node54&#45;&gt;Node56</title>
<path fill="none" stroke="#191970" d="M2018.8421,-385.9005C2014.1942,-377.2503 2007.1627,-364.164 2000.9868,-352.6699"/>
<polygon fill="#191970" stroke="#191970" points="2003.8877,-350.6741 1996.0714,-343.5218 1997.7215,-353.9873 2003.8877,-350.6741"/>
</g>
<!-- Node54&#45;&gt;Node57 -->
<g id="edge99" class="edge">
<title>Node54&#45;&gt;Node57</title>
<path fill="none" stroke="#191970" d="M2001.1455,-385.8692C1994.7352,-383.5531 1987.688,-381.3582 1981,-380 1694.4118,-321.8002 1610.3657,-403.2848 1324,-344 1320.7273,-343.3225 1317.369,-342.4352 1314.0463,-341.4279"/>
<polygon fill="#191970" stroke="#191970" points="1314.9,-338.0219 1304.3058,-338.1349 1312.6581,-344.6532 1314.9,-338.0219"/>
</g>
<!-- Node58&#45;&gt;Node13 -->
<g id="edge103" class="edge">
<title>Node58&#45;&gt;Node13</title>
<path fill="none" stroke="#191970" d="M1067.9835,-318.9081C1086.4115,-282.8252 1148.3994,-155.6394 1124,-123 1090.151,-77.7198 1056.1116,-103.3701 1002,-87 998.8685,-86.0526 995.6289,-85.0652 992.3736,-84.0677"/>
<polygon fill="#191970" stroke="#191970" points="993.2401,-80.6724 982.6529,-81.075 991.1804,-87.3625 993.2401,-80.6724"/>
</g>
<!-- Node59&#45;&gt;Node48 -->
<g id="edge105" class="edge">
<title>Node59&#45;&gt;Node48</title>
<path fill="none" stroke="#191970" d="M2838,-318.9005C2838,-309.149 2838,-293.7597 2838,-281.3695"/>
<polygon fill="#191970" stroke="#191970" points="2841.5001,-281.0816 2838,-271.0817 2834.5001,-281.0817 2841.5001,-281.0816"/>
</g>
<!-- Node70&#45;&gt;Node1 -->
<g id="edge130" class="edge">
<title>Node70&#45;&gt;Node1</title>
<path fill="none" stroke="#191970" d="M789,-514.3416C789,-493.4114 789,-443.504 789,-415.4762"/>
<polygon fill="#191970" stroke="#191970" points="792.5001,-415.2704 789,-405.2705 785.5001,-415.2705 792.5001,-415.2704"/>
</g>
<!-- Node70&#45;&gt;Node14 -->
<g id="edge132" class="edge">
<title>Node70&#45;&gt;Node14</title>
<path fill="none" stroke="#191970" d="M747.9015,-522.1565C631.6199,-516.697 305.9252,-499.6333 263,-478 219.2785,-455.9655 190,-444.46 190,-395.5 190,-395.5 190,-395.5 190,-328.5 190,-218.9769 232.2164,-179.5681 326,-123 358.6684,-103.2952 400.1913,-88.6541 428.0762,-80.1194"/>
<polygon fill="#191970" stroke="#191970" points="429.1075,-83.4642 437.6909,-77.2532 427.1077,-76.756 429.1075,-83.4642"/>
</g>
<!-- Node70&#45;&gt;Node15 -->
<g id="edge136" class="edge">
<title>Node70&#45;&gt;Node15</title>
<path fill="none" stroke="#191970" d="M747.5791,-521.9747C618.2387,-515.4871 229.2034,-494.6701 208,-478 87.1532,-382.9903 190.9645,-156.3038 225.0721,-90.0088"/>
<polygon fill="#191970" stroke="#191970" points="228.1954,-91.5892 229.734,-81.1067 221.9942,-88.3418 228.1954,-91.5892"/>
</g>
<!-- Node70&#45;&gt;Node18 -->
<g id="edge133" class="edge">
<title>Node70&#45;&gt;Node18</title>
<path fill="none" stroke="#191970" d="M792.5843,-514.4707C811.5852,-463.9545 900.6518,-227.1602 926.7788,-157.6986"/>
<polygon fill="#191970" stroke="#191970" points="930.1665,-158.6333 930.4112,-148.0413 923.6147,-156.1689 930.1665,-158.6333"/>
</g>
<!-- Node70&#45;&gt;Node25 -->
<g id="edge137" class="edge">
<title>Node70&#45;&gt;Node25</title>
<path fill="none" stroke="#191970" d="M747.6492,-521.9034C630.3626,-514.8384 304,-486.962 304,-395.5 304,-395.5 304,-395.5 304,-328.5 304,-289.9267 307.6353,-244.9659 310.0048,-219.7575"/>
<polygon fill="#191970" stroke="#191970" points="313.5024,-219.9509 310.9868,-209.6591 306.5353,-219.2733 313.5024,-219.9509"/>
</g>
<!-- Node70&#45;&gt;Node31 -->
<g id="edge139" class="edge">
<title>Node70&#45;&gt;Node31</title>
<path fill="none" stroke="#191970" d="M747.7483,-523.3703C618.1923,-520.2909 228,-502.1626 228,-395.5 228,-395.5 228,-395.5 228,-328.5 228,-220.1875 260.8752,-168.8599 359,-123 420.4531,-94.2791 614.8473,-79.8879 712.2389,-74.3282"/>
<polygon fill="#191970" stroke="#191970" points="712.6984,-77.808 722.4874,-73.7553 712.3076,-70.819 712.6984,-77.808"/>
</g>
<!-- Node70&#45;&gt;Node36 -->
<g id="edge138" class="edge">
<title>Node70&#45;&gt;Node36</title>
<path fill="none" stroke="#191970" d="M747.6987,-522.1204C613.7809,-515.8671 198.8786,-495.1869 176,-478 116.5295,-433.3245 144.6794,-387.3076 148,-313 153.2105,-196.4 112.5546,-130.9816 202,-56 247.204,-18.1057 656.8302,-11.4266 794.8443,-10.2508"/>
<polygon fill="#191970" stroke="#191970" points="795.0948,-13.749 805.0667,-10.1696 795.0392,-6.7492 795.0948,-13.749"/>
</g>
<!-- Node70&#45;&gt;Node49 -->
<g id="edge135" class="edge">
<title>Node70&#45;&gt;Node49</title>
<path fill="none" stroke="#191970" d="M816.0131,-514.4678C892.4987,-487.9347 1117.5502,-413.0102 1311,-380 1540.2376,-340.8829 1606.2369,-395.5606 1833,-344 1869.3758,-335.729 1875.049,-322.9565 1911,-313 1956.1034,-300.5087 2078.8284,-282.0799 2157.1043,-270.9874"/>
<polygon fill="#191970" stroke="#191970" points="2157.955,-274.4022 2167.3678,-269.5389 2156.9767,-267.4708 2157.955,-274.4022"/>
</g>
<!-- Node70&#45;&gt;Node53 -->
<g id="edge131" class="edge">
<title>Node70&#45;&gt;Node53</title>
<path fill="none" stroke="#191970" d="M830.0791,-521.298C980.5975,-511.3976 1501.9409,-477.106 1670.7811,-466.0005"/>
<polygon fill="#191970" stroke="#191970" points="1671.1673,-469.4828 1680.916,-465.3339 1670.7078,-462.4978 1671.1673,-469.4828"/>
</g>
<!-- Node70&#45;&gt;Node71 -->
<g id="edge134" class="edge">
<title>Node70&#45;&gt;Node71</title>
<path fill="none" stroke="#191970" d="M830.154,-523.1503C989.8296,-519.6908 1569.2548,-505.586 1775.0788,-477.8866"/>
<polygon fill="#191970" stroke="#191970" points="1775.7617,-481.3252 1785.1796,-476.4721 1774.7909,-474.3929 1775.7617,-481.3252"/>
</g>
</g>
</svg>
