<?xml version="1.0" encoding="UTF-8" standalone="no"?>
<!DOCTYPE svg PUBLIC "-//W3C//DTD SVG 1.1//EN"
 "http://www.w3.org/Graphics/SVG/1.1/DTD/svg11.dtd">
<!-- Generated by graphviz version 2.40.1 (20161225.0304)
 -->
<!-- Title: /travis/pairinteraction/SystemOne.h Pages: 1 -->
<svg width="3369pt" height="542pt"
 viewBox="0.00 0.00 3368.50 542.00" xmlns="http://www.w3.org/2000/svg" xmlns:xlink="http://www.w3.org/1999/xlink">
<g id="graph0" class="graph" transform="scale(1 1) rotate(0) translate(4 538)">
<title>/travis/pairinteraction/SystemOne.h</title>
<!-- Node0 -->
<g id="node1" class="node">
<title>Node0</title>
<polygon fill="#bfbfbf" stroke="#000000" points="1048,-503.5 1048,-533.5 1170,-533.5 1170,-503.5 1048,-503.5"/>
<text text-anchor="start" x="1056" y="-521.5" font-family="Helvetica,sans-Serif" font-size="10.00" fill="#000000">/travis/pairinteraction</text>
<text text-anchor="middle" x="1109" y="-510.5" font-family="Helvetica,sans-Serif" font-size="10.00" fill="#000000">/SystemOne.h</text>
</g>
<!-- Node1 -->
<g id="node2" class="node">
<title>Node1</title>
<g id="a_node2"><a xlink:href="State_8h.html" target="_top" xlink:title="State.h">
<polygon fill="none" stroke="#000000" points="603.5,-375 603.5,-394 654.5,-394 654.5,-375 603.5,-375"/>
<text text-anchor="middle" x="629" y="-382" font-family="Helvetica,sans-Serif" font-size="10.00" fill="#000000">State.h</text>
</a>
</g>
</g>
<!-- Node0&#45;&gt;Node1 -->
<g id="edge1" class="edge">
<title>Node0&#45;&gt;Node1</title>
<path fill="none" stroke="#191970" d="M1047.8054,-512.2787C987.4174,-505.1047 892.9408,-491.0872 814,-467 755.43,-449.1286 690.9455,-417.3997 655.6905,-398.9332"/>
<polygon fill="#191970" stroke="#191970" points="657.0271,-395.6807 646.5511,-394.0989 653.7541,-401.8685 657.0271,-395.6807"/>
</g>
<!-- Node14 -->
<g id="node15" class="node">
<title>Node14</title>
<polygon fill="none" stroke="#bfbfbf" points="249,-62 249,-81 291,-81 291,-62 249,-62"/>
<text text-anchor="middle" x="270" y="-69" font-family="Helvetica,sans-Serif" font-size="10.00" fill="#000000">array</text>
</g>
<!-- Node0&#45;&gt;Node14 -->
<g id="edge129" class="edge">
<title>Node0&#45;&gt;Node14</title>
<path fill="none" stroke="#191970" d="M1047.6963,-516.6537C851.3873,-510.5354 246.129,-490.0024 161,-467 83.3806,-446.0268 0,-464.903 0,-384.5 0,-384.5 0,-384.5 0,-200 0,-161.8373 7.9785,-146.5606 38,-123 69.0251,-98.6518 183.0976,-81.9482 238.8766,-75.0503"/>
<polygon fill="#191970" stroke="#191970" points="239.3892,-78.5139 248.897,-73.8394 238.5493,-71.5645 239.3892,-78.5139"/>
</g>
<!-- Node15 -->
<g id="node16" class="node">
<title>Node15</title>
<polygon fill="none" stroke="#bfbfbf" points="559.5,-62 559.5,-81 606.5,-81 606.5,-62 559.5,-62"/>
<text text-anchor="middle" x="583" y="-69" font-family="Helvetica,sans-Serif" font-size="10.00" fill="#000000">cmath</text>
</g>
<!-- Node0&#45;&gt;Node15 -->
<g id="edge133" class="edge">
<title>Node0&#45;&gt;Node15</title>
<path fill="none" stroke="#191970" d="M1047.8567,-517.0443C825.9482,-510.963 76,-483.1159 76,-384.5 76,-384.5 76,-384.5 76,-200 76,-161.2287 84.9088,-144.757 117,-123 152.6297,-98.844 447.5744,-79.4441 548.9425,-73.4345"/>
<polygon fill="#191970" stroke="#191970" points="549.4523,-76.9108 559.2303,-72.8314 549.0426,-69.9228 549.4523,-76.9108"/>
</g>
<!-- Node18 -->
<g id="node19" class="node">
<title>Node18</title>
<polygon fill="none" stroke="#bfbfbf" points="742.5,-129 742.5,-148 885.5,-148 885.5,-129 742.5,-129"/>
<text text-anchor="middle" x="814" y="-136" font-family="Helvetica,sans-Serif" font-size="10.00" fill="#000000">boost/functional/hash.hpp</text>
</g>
<!-- Node0&#45;&gt;Node18 -->
<g id="edge130" class="edge">
<title>Node0&#45;&gt;Node18</title>
<path fill="none" stroke="#191970" d="M1090.2816,-503.4387C1040.5067,-462.2743 904.2389,-342.1003 839,-210 830.6478,-193.0878 823.8066,-172.6809 819.4053,-158.0048"/>
<polygon fill="#191970" stroke="#191970" points="822.6681,-156.6879 816.5306,-148.0518 815.943,-158.6303 822.6681,-156.6879"/>
</g>
<!-- Node25 -->
<g id="node26" class="node">
<title>Node25</title>
<polygon fill="none" stroke="#bfbfbf" points="1303,-190.5 1303,-209.5 1335,-209.5 1335,-190.5 1303,-190.5"/>
<text text-anchor="middle" x="1319" y="-197.5" font-family="Helvetica,sans-Serif" font-size="10.00" fill="#000000">set</text>
</g>
<!-- Node0&#45;&gt;Node25 -->
<g id="edge134" class="edge">
<title>Node0&#45;&gt;Node25</title>
<path fill="none" stroke="#191970" d="M1108.2445,-503.4626C1107.4853,-475.2858 1108.9706,-413.3841 1133,-369 1171.9132,-297.1242 1253.4752,-239.9446 1294.4308,-214.441"/>
<polygon fill="#191970" stroke="#191970" points="1296.2861,-217.4091 1302.9905,-209.2053 1292.6335,-211.4376 1296.2861,-217.4091"/>
</g>
<!-- Node31 -->
<g id="node32" class="node">
<title>Node31</title>
<polygon fill="none" stroke="#bfbfbf" points="2439.5,-62 2439.5,-81 2532.5,-81 2532.5,-62 2439.5,-62"/>
<text text-anchor="middle" x="2486" y="-69" font-family="Helvetica,sans-Serif" font-size="10.00" fill="#000000">unordered_map</text>
</g>
<!-- Node0&#45;&gt;Node31 -->
<g id="edge136" class="edge">
<title>Node0&#45;&gt;Node31</title>
<path fill="none" stroke="#191970" d="M1170.0458,-517.909C1516.9861,-514.1597 3225,-490.3279 3225,-384.5 3225,-384.5 3225,-384.5 3225,-323 3225,-252.6294 2891.2954,-221.0016 2687,-154 2624.7153,-133.5728 2554.3733,-102.8639 2515.6117,-85.2441"/>
<polygon fill="#191970" stroke="#191970" points="2517.0115,-82.0357 2506.4616,-81.0607 2514.1009,-88.4019 2517.0115,-82.0357"/>
</g>
<!-- Node36 -->
<g id="node37" class="node">
<title>Node36</title>
<polygon fill="none" stroke="#bfbfbf" points="2041.5,-.5 2041.5,-19.5 2110.5,-19.5 2110.5,-.5 2041.5,-.5"/>
<text text-anchor="middle" x="2076" y="-7.5" font-family="Helvetica,sans-Serif" font-size="10.00" fill="#000000">type_traits</text>
</g>
<!-- Node0&#45;&gt;Node36 -->
<g id="edge135" class="edge">
<title>Node0&#45;&gt;Node36</title>
<path fill="none" stroke="#191970" d="M1113.7833,-503.2877C1125.3487,-466.9522 1154.7044,-377.492 1166,-369 1243.3538,-310.8457 1503.8584,-344.0602 1600,-333 1610.5997,-331.7806 1971.1309,-282.9312 1980,-277 2064.5104,-220.4835 2075.1521,-81.551 2076.1028,-29.8269"/>
<polygon fill="#191970" stroke="#191970" points="2079.6039,-29.6874 2076.18,-19.6611 2072.6041,-29.6342 2079.6039,-29.6874"/>
</g>
<!-- Node49 -->
<g id="node50" class="node">
<title>Node49</title>
<polygon fill="none" stroke="#bfbfbf" points="2161.5,-246.5 2161.5,-276.5 2278.5,-276.5 2278.5,-246.5 2161.5,-246.5"/>
<text text-anchor="start" x="2169.5" y="-264.5" font-family="Helvetica,sans-Serif" font-size="10.00" fill="#000000">boost/serialization</text>
<text text-anchor="middle" x="2220" y="-253.5" font-family="Helvetica,sans-Serif" font-size="10.00" fill="#000000">/unordered_map.hpp</text>
</g>
<!-- Node0&#45;&gt;Node49 -->
<g id="edge132" class="edge">
<title>Node0&#45;&gt;Node49</title>
<path fill="none" stroke="#191970" d="M1170.0996,-517.0339C1489.0171,-509.0915 2950.4555,-469.0091 3015,-400 3024.4114,-389.9376 3024.0662,-379.3746 3015,-369 2967.384,-314.5121 2473.1559,-277.6461 2288.8159,-265.6997"/>
<polygon fill="#191970" stroke="#191970" points="2288.9023,-262.1981 2278.6982,-265.049 2288.4529,-269.1837 2288.9023,-262.1981"/>
</g>
<!-- Node53 -->
<g id="node54" class="node">
<title>Node53</title>
<g id="a_node54"><a xlink:href="SystemBase_8h.html" target="_top" xlink:title="SystemBase.h">
<polygon fill="none" stroke="#000000" points="1919,-442 1919,-461 2005,-461 2005,-442 1919,-442"/>
<text text-anchor="middle" x="1962" y="-449" font-family="Helvetica,sans-Serif" font-size="10.00" fill="#000000">SystemBase.h</text>
</a>
</g>
</g>
<!-- Node0&#45;&gt;Node53 -->
<g id="edge91" class="edge">
<title>Node0&#45;&gt;Node53</title>
<path fill="none" stroke="#191970" d="M1170.0033,-513.7084C1329.5654,-501.1754 1757.3436,-467.575 1908.3286,-455.7157"/>
<polygon fill="#191970" stroke="#191970" points="1909.0185,-459.1724 1918.7137,-454.9 1908.4703,-452.1939 1909.0185,-459.1724"/>
</g>
<!-- Node70 -->
<g id="node71" class="node">
<title>Node70</title>
<polygon fill="none" stroke="#bfbfbf" points="3253.5,-436.5 3253.5,-466.5 3360.5,-466.5 3360.5,-436.5 3253.5,-436.5"/>
<text text-anchor="start" x="3261.5" y="-454.5" font-family="Helvetica,sans-Serif" font-size="10.00" fill="#000000">boost/serialization</text>
<text text-anchor="middle" x="3307" y="-443.5" font-family="Helvetica,sans-Serif" font-size="10.00" fill="#000000">/base_object.hpp</text>
</g>
<!-- Node0&#45;&gt;Node70 -->
<g id="edge131" class="edge">
<title>Node0&#45;&gt;Node70</title>
<path fill="none" stroke="#191970" d="M1170.1977,-517.7506C1496.9899,-513.6512 3029.3209,-493.1647 3239,-467 3240.4644,-466.8173 3241.9434,-466.6168 3243.4324,-466.4007"/>
<polygon fill="#191970" stroke="#191970" points="3244.0545,-469.8455 3253.3545,-464.77 3242.9192,-462.9382 3244.0545,-469.8455"/>
</g>
<!-- Node2 -->
<g id="node3" class="node">
<title>Node2</title>
<g id="a_node3"><a xlink:href="MatrixElementCache_8h.html" target="_top" xlink:title="MatrixElementCache.h">
<polygon fill="none" stroke="#000000" points="1464.5,-313.5 1464.5,-332.5 1591.5,-332.5 1591.5,-313.5 1464.5,-313.5"/>
<text text-anchor="middle" x="1528" y="-320.5" font-family="Helvetica,sans-Serif" font-size="10.00" fill="#000000">MatrixElementCache.h</text>
</a>
</g>
</g>
<!-- Node1&#45;&gt;Node2 -->
<g id="edge2" class="edge">
<title>Node1&#45;&gt;Node2</title>
<path fill="none" stroke="#191970" d="M654.822,-382.5579C773.2339,-374.1073 1265.5371,-340.4004 1454.1178,-327.7921"/>
<polygon fill="#191970" stroke="#191970" points="1454.4696,-331.2765 1464.2141,-327.1179 1454.0031,-324.2921 1454.4696,-331.2765"/>
</g>
<!-- Node7 -->
<g id="node8" class="node">
<title>Node7</title>
<polygon fill="none" stroke="#bfbfbf" points="888,-62 888,-81 932,-81 932,-62 888,-62"/>
<text text-anchor="middle" x="910" y="-69" font-family="Helvetica,sans-Serif" font-size="10.00" fill="#000000">string</text>
</g>
<!-- Node1&#45;&gt;Node7 -->
<g id="edge86" class="edge">
<title>Node1&#45;&gt;Node7</title>
<path fill="none" stroke="#191970" d="M646.4674,-374.9302C661.2404,-365.9626 681.8836,-351.2238 694,-333 712.2695,-305.5216 714,-294.4976 714,-261.5 714,-261.5 714,-261.5 714,-200 714,-164.7513 708.5944,-148.433 733,-123 752.992,-102.1664 832.7395,-85.1157 878.0713,-76.8658"/>
<polygon fill="#191970" stroke="#191970" points="878.7614,-80.2981 887.9937,-75.1005 877.5352,-73.4063 878.7614,-80.2981"/>
</g>
<!-- Node11 -->
<g id="node12" class="node">
<title>Node11</title>
<g id="a_node12"><a xlink:href="dtypes_8h.html" target="_top" xlink:title="dtypes.h">
<polygon fill="none" stroke="#000000" points="1230.5,-129 1230.5,-148 1289.5,-148 1289.5,-129 1230.5,-129"/>
<text text-anchor="middle" x="1260" y="-136" font-family="Helvetica,sans-Serif" font-size="10.00" fill="#000000">dtypes.h</text>
</a>
</g>
</g>
<!-- Node1&#45;&gt;Node11 -->
<g id="edge81" class="edge">
<title>Node1&#45;&gt;Node11</title>
<path fill="none" stroke="#191970" d="M649.1139,-374.914C712.3033,-345.0187 912.8644,-251.8002 1085,-190 1130.713,-173.5881 1184.46,-158.3574 1220.2096,-148.7827"/>
<polygon fill="#191970" stroke="#191970" points="1221.479,-152.0669 1230.2453,-146.1169 1219.6819,-145.3016 1221.479,-152.0669"/>
</g>
<!-- Node1&#45;&gt;Node14 -->
<g id="edge82" class="edge">
<title>Node1&#45;&gt;Node14</title>
<path fill="none" stroke="#191970" d="M603.2827,-383.3659C515.9744,-379.2668 231.5944,-363.8093 146,-333 91.8361,-313.5039 38,-319.0659 38,-261.5 38,-261.5 38,-261.5 38,-200 38,-164.154 35.9111,-147.5827 62,-123 87.3936,-99.0724 187.246,-82.5599 238.8084,-75.4424"/>
<polygon fill="#191970" stroke="#191970" points="239.294,-78.9087 248.7376,-74.1058 238.36,-71.9713 239.294,-78.9087"/>
</g>
<!-- Node1&#45;&gt;Node15 -->
<g id="edge84" class="edge">
<title>Node1&#45;&gt;Node15</title>
<path fill="none" stroke="#191970" d="M603.4023,-383.377C522.2481,-379.5171 271.7121,-365.2178 198,-333 153.077,-313.3652 114,-310.5266 114,-261.5 114,-261.5 114,-261.5 114,-200 114,-162.59 117.9137,-145.2333 148,-123 180.1281,-99.2579 452.5752,-79.7949 549.1923,-73.5816"/>
<polygon fill="#191970" stroke="#191970" points="549.5371,-77.0668 559.2948,-72.9391 549.0928,-70.0809 549.5371,-77.0668"/>
</g>
<!-- Node1&#45;&gt;Node18 -->
<g id="edge83" class="edge">
<title>Node1&#45;&gt;Node18</title>
<path fill="none" stroke="#191970" d="M624.4446,-374.7825C618.4766,-360.5778 609.792,-333.5966 619,-313 653.5342,-235.7536 741.0361,-178.5408 786.153,-153.0993"/>
<polygon fill="#191970" stroke="#191970" points="788.041,-156.055 795.1028,-148.1568 784.6569,-149.9273 788.041,-156.055"/>
</g>
<!-- Node19 -->
<g id="node20" class="node">
<title>Node19</title>
<polygon fill="none" stroke="#bfbfbf" points="625,-62 625,-81 685,-81 685,-62 625,-62"/>
<text text-anchor="middle" x="655" y="-69" font-family="Helvetica,sans-Serif" font-size="10.00" fill="#000000">iostream</text>
</g>
<!-- Node1&#45;&gt;Node19 -->
<g id="edge85" class="edge">
<title>Node1&#45;&gt;Node19</title>
<path fill="none" stroke="#191970" d="M603.3544,-383.468C504.2766,-378.7968 152,-355.5735 152,-261.5 152,-261.5 152,-261.5 152,-200 152,-164.7513 144.1517,-145.8394 171,-123 246.3993,-58.8591 518.5112,-109.1138 615,-87 618.024,-86.3069 621.123,-85.429 624.1924,-84.4448"/>
<polygon fill="#191970" stroke="#191970" points="625.5223,-87.6866 633.7687,-81.0347 623.174,-81.0922 625.5223,-87.6866"/>
</g>
<!-- Node20 -->
<g id="node21" class="node">
<title>Node20</title>
<polygon fill="none" stroke="#bfbfbf" points="426.5,-123.5 426.5,-153.5 533.5,-153.5 533.5,-123.5 426.5,-123.5"/>
<text text-anchor="start" x="434.5" y="-141.5" font-family="Helvetica,sans-Serif" font-size="10.00" fill="#000000">boost/serialization</text>
<text text-anchor="middle" x="480" y="-130.5" font-family="Helvetica,sans-Serif" font-size="10.00" fill="#000000">/array.hpp</text>
</g>
<!-- Node1&#45;&gt;Node20 -->
<g id="edge88" class="edge">
<title>Node1&#45;&gt;Node20</title>
<path fill="none" stroke="#191970" d="M619.8166,-374.7059C610.6584,-364.6742 596.482,-348.4093 586,-333 546.4879,-274.9144 509.3913,-200.688 491.3821,-162.9329"/>
<polygon fill="#191970" stroke="#191970" points="494.4647,-161.2643 487.0233,-153.7226 488.1375,-164.2587 494.4647,-161.2643"/>
</g>
<!-- Node21 -->
<g id="node22" class="node">
<title>Node21</title>
<polygon fill="none" stroke="#bfbfbf" points="180.5,-123.5 180.5,-153.5 287.5,-153.5 287.5,-123.5 180.5,-123.5"/>
<text text-anchor="start" x="188.5" y="-141.5" font-family="Helvetica,sans-Serif" font-size="10.00" fill="#000000">boost/serialization</text>
<text text-anchor="middle" x="234" y="-130.5" font-family="Helvetica,sans-Serif" font-size="10.00" fill="#000000">/string.hpp</text>
</g>
<!-- Node1&#45;&gt;Node21 -->
<g id="edge89" class="edge">
<title>Node1&#45;&gt;Node21</title>
<path fill="none" stroke="#191970" d="M613.5155,-374.8565C555.2133,-338.5468 348.121,-209.5728 266.9651,-159.0302"/>
<polygon fill="#191970" stroke="#191970" points="268.4976,-155.8614 258.1589,-153.5458 264.7971,-161.8033 268.4976,-155.8614"/>
</g>
<!-- Node22 -->
<g id="node23" class="node">
<title>Node22</title>
<polygon fill="none" stroke="#bfbfbf" points="306,-129 306,-148 408,-148 408,-129 306,-129"/>
<text text-anchor="middle" x="357" y="-136" font-family="Helvetica,sans-Serif" font-size="10.00" fill="#000000">boost/variant.hpp</text>
</g>
<!-- Node1&#45;&gt;Node22 -->
<g id="edge90" class="edge">
<title>Node1&#45;&gt;Node22</title>
<path fill="none" stroke="#191970" d="M617.6233,-374.7019C605.6928,-364.396 586.4305,-347.6693 570,-333 497.0701,-267.8873 411.4947,-188.9656 374.9785,-155.1676"/>
<polygon fill="#191970" stroke="#191970" points="377.277,-152.5259 367.5618,-148.299 372.5206,-157.6617 377.277,-152.5259"/>
</g>
<!-- Node52 -->
<g id="node53" class="node">
<title>Node52</title>
<polygon fill="none" stroke="#bfbfbf" points="628.5,-313.5 628.5,-332.5 685.5,-332.5 685.5,-313.5 628.5,-313.5"/>
<text text-anchor="middle" x="657" y="-320.5" font-family="Helvetica,sans-Serif" font-size="10.00" fill="#000000">typeinfo</text>
</g>
<!-- Node1&#45;&gt;Node52 -->
<g id="edge87" class="edge">
<title>Node1&#45;&gt;Node52</title>
<path fill="none" stroke="#191970" d="M633.375,-374.8906C637.3788,-366.0965 643.4183,-352.8312 648.3885,-341.9145"/>
<polygon fill="#191970" stroke="#191970" points="651.6051,-343.2963 652.5633,-332.7449 645.2343,-340.3957 651.6051,-343.2963"/>
</g>
<!-- Node2&#45;&gt;Node1 -->
<g id="edge33" class="edge">
<title>Node2&#45;&gt;Node1</title>
<path fill="none" stroke="#191970" d="M1464.4673,-327.6039C1289.0664,-339.8962 802.3953,-373.1663 665.298,-382.2064"/>
<polygon fill="#191970" stroke="#191970" points="664.691,-378.7386 654.942,-382.8866 665.1499,-385.7236 664.691,-378.7386"/>
</g>
<!-- Node3 -->
<g id="node4" class="node">
<title>Node3</title>
<g id="a_node4"><a xlink:href="Basisnames_8h.html" target="_top" xlink:title="Basisnames.h">
<polygon fill="none" stroke="#000000" points="1088.5,-252 1088.5,-271 1173.5,-271 1173.5,-252 1088.5,-252"/>
<text text-anchor="middle" x="1131" y="-259" font-family="Helvetica,sans-Serif" font-size="10.00" fill="#000000">Basisnames.h</text>
</a>
</g>
</g>
<!-- Node2&#45;&gt;Node3 -->
<g id="edge3" class="edge">
<title>Node2&#45;&gt;Node3</title>
<path fill="none" stroke="#191970" d="M1466.4043,-313.4581C1388.8169,-301.4389 1256.8216,-280.9913 1183.6931,-269.6628"/>
<polygon fill="#191970" stroke="#191970" points="1184.1948,-266.1988 1173.7768,-268.1266 1183.1231,-273.1163 1184.1948,-266.1988"/>
</g>
<!-- Node6 -->
<g id="node7" class="node">
<title>Node6</title>
<polygon fill="none" stroke="#bfbfbf" points="1150,-62 1150,-81 1206,-81 1206,-62 1150,-62"/>
<text text-anchor="middle" x="1178" y="-69" font-family="Helvetica,sans-Serif" font-size="10.00" fill="#000000">sstream</text>
</g>
<!-- Node2&#45;&gt;Node6 -->
<g id="edge77" class="edge">
<title>Node2&#45;&gt;Node6</title>
<path fill="none" stroke="#191970" d="M1464.4097,-321.1124C1346.6701,-316.9579 1104.3356,-305.0639 1079,-277 1068.8131,-265.7161 1075.9603,-201.7042 1085,-190 1112.5997,-154.2653 1154.3457,-191.1561 1180,-154 1192.7332,-135.558 1189.1591,-108.8517 1184.4521,-90.8657"/>
<polygon fill="#191970" stroke="#191970" points="1187.7797,-89.7758 1181.5877,-81.1787 1181.067,-91.7608 1187.7797,-89.7758"/>
</g>
<!-- Node2&#45;&gt;Node7 -->
<g id="edge78" class="edge">
<title>Node2&#45;&gt;Node7</title>
<path fill="none" stroke="#191970" d="M1464.3207,-319.2417C1346.8759,-311.9231 1105.0008,-294.901 1071,-277 990.6033,-234.6723 937.3924,-132.6189 918.091,-90.3374"/>
<polygon fill="#191970" stroke="#191970" points="921.2734,-88.88 914.012,-81.1648 914.8773,-91.7243 921.2734,-88.88"/>
</g>
<!-- Node2&#45;&gt;Node11 -->
<g id="edge69" class="edge">
<title>Node2&#45;&gt;Node11</title>
<path fill="none" stroke="#191970" d="M1464.4924,-318.5922C1406.1005,-313.0603 1325.6925,-301.1912 1306,-277 1297.302,-266.3149 1297.539,-256.8737 1306,-246 1347.6619,-192.4579 1489.149,-243.9372 1448,-190 1430.1302,-166.5767 1349.6019,-151.1923 1299.9142,-143.747"/>
<polygon fill="#191970" stroke="#191970" points="1300.2126,-140.2537 1289.8131,-142.2787 1299.2056,-147.1809 1300.2126,-140.2537"/>
</g>
<!-- Node2&#45;&gt;Node18 -->
<g id="edge72" class="edge">
<title>Node2&#45;&gt;Node18</title>
<path fill="none" stroke="#191970" d="M1464.3474,-320.9332C1319.6075,-315.8329 974.6972,-301.2708 928,-277 876.3602,-250.1603 839.3651,-188.7028 823.1515,-157.4703"/>
<polygon fill="#191970" stroke="#191970" points="826.0758,-155.4946 818.4584,-148.1307 819.821,-158.6376 826.0758,-155.4946"/>
</g>
<!-- Node24 -->
<g id="node25" class="node">
<title>Node24</title>
<polygon fill="none" stroke="#bfbfbf" points="2005,-62 2005,-81 2063,-81 2063,-62 2005,-62"/>
<text text-anchor="middle" x="2034" y="-69" font-family="Helvetica,sans-Serif" font-size="10.00" fill="#000000">memory</text>
</g>
<!-- Node2&#45;&gt;Node24 -->
<g id="edge76" class="edge">
<title>Node2&#45;&gt;Node24</title>
<path fill="none" stroke="#191970" d="M1591.8272,-317.8428C1679.4633,-310.2379 1832.1968,-294.959 1885,-277 1941.0024,-257.9529 1964.5796,-257.3757 2000,-210 2026.7,-174.2881 2032.6601,-120.2786 2033.8472,-91.3897"/>
<polygon fill="#191970" stroke="#191970" points="2037.348,-91.401 2034.105,-81.3148 2030.3503,-91.2219 2037.348,-91.401"/>
</g>
<!-- Node27 -->
<g id="node28" class="node">
<title>Node27</title>
<g id="a_node28"><a xlink:href="Wavefunction_8h.html" target="_top" xlink:title="Wavefunction.h">
<polygon fill="none" stroke="#000000" points="1783.5,-252 1783.5,-271 1876.5,-271 1876.5,-252 1783.5,-252"/>
<text text-anchor="middle" x="1830" y="-259" font-family="Helvetica,sans-Serif" font-size="10.00" fill="#000000">Wavefunction.h</text>
</a>
</g>
</g>
<!-- Node2&#45;&gt;Node27 -->
<g id="edge34" class="edge">
<title>Node2&#45;&gt;Node27</title>
<path fill="none" stroke="#191970" d="M1583.2312,-313.4344C1632.2046,-304.7204 1705.5892,-291.0945 1769,-277 1773.9399,-275.902 1779.0889,-274.694 1784.2096,-273.4517"/>
<polygon fill="#191970" stroke="#191970" points="1785.0925,-276.8389 1793.9598,-271.0404 1783.4119,-270.0436 1785.0925,-276.8389"/>
</g>
<!-- Node2&#45;&gt;Node31 -->
<g id="edge80" class="edge">
<title>Node2&#45;&gt;Node31</title>
<path fill="none" stroke="#191970" d="M1591.608,-321.1175C1679.7628,-317.4729 1843.6364,-306.9471 1980,-277 2144.3243,-240.9124 2187.7808,-229.7561 2338,-154 2359.6849,-143.0642 2362.0879,-135.3495 2383,-123 2406.6295,-109.0457 2434.5309,-95.2498 2455.3301,-85.4541"/>
<polygon fill="#191970" stroke="#191970" points="2457.0486,-88.5146 2464.6325,-81.1163 2454.0902,-82.1705 2457.0486,-88.5146"/>
</g>
<!-- Node40 -->
<g id="node41" class="node">
<title>Node40</title>
<g id="a_node41"><a xlink:href="utils_8h.html" target="_top" xlink:title="utils.h">
<polygon fill="none" stroke="#000000" points="2119.5,-62 2119.5,-81 2166.5,-81 2166.5,-62 2119.5,-62"/>
<text text-anchor="middle" x="2143" y="-69" font-family="Helvetica,sans-Serif" font-size="10.00" fill="#000000">utils.h</text>
</a>
</g>
</g>
<!-- Node2&#45;&gt;Node40 -->
<g id="edge70" class="edge">
<title>Node2&#45;&gt;Node40</title>
<path fill="none" stroke="#191970" d="M1591.6004,-320.3138C1690.9558,-315.378 1877.9435,-302.9058 1939,-277 2032.3621,-237.3872 2105.2656,-132.5866 2131.9747,-89.9422"/>
<polygon fill="#191970" stroke="#191970" points="2134.9775,-91.7407 2137.2309,-81.3883 2129.0135,-88.0759 2134.9775,-91.7407"/>
</g>
<!-- Node45 -->
<g id="node46" class="node">
<title>Node45</title>
<polygon fill="none" stroke="#bfbfbf" points="1675.5,-129 1675.5,-148 1716.5,-148 1716.5,-129 1675.5,-129"/>
<text text-anchor="middle" x="1696" y="-136" font-family="Helvetica,sans-Serif" font-size="10.00" fill="#000000">tuple</text>
</g>
<!-- Node2&#45;&gt;Node45 -->
<g id="edge79" class="edge">
<title>Node2&#45;&gt;Node45</title>
<path fill="none" stroke="#191970" d="M1558.8789,-313.4639C1578.8015,-306.0684 1604.2195,-294.1584 1622,-277 1640.6671,-258.986 1672.4762,-191.2127 1687.571,-157.6186"/>
<polygon fill="#191970" stroke="#191970" points="1690.8131,-158.9419 1691.686,-148.383 1684.419,-156.0929 1690.8131,-158.9419"/>
</g>
<!-- Node48 -->
<g id="node49" class="node">
<title>Node48</title>
<polygon fill="none" stroke="#bfbfbf" points="2928.5,-252 2928.5,-271 3047.5,-271 3047.5,-252 2928.5,-252"/>
<text text-anchor="middle" x="2988" y="-259" font-family="Helvetica,sans-Serif" font-size="10.00" fill="#000000">boost/filesystem.hpp</text>
</g>
<!-- Node2&#45;&gt;Node48 -->
<g id="edge71" class="edge">
<title>Node2&#45;&gt;Node48</title>
<path fill="none" stroke="#191970" d="M1591.5369,-320.0461C1635.4758,-318.0194 1695.2871,-315.2927 1748,-313 2193.7284,-293.6138 2729.6559,-271.8955 2918.2561,-264.3008"/>
<polygon fill="#191970" stroke="#191970" points="2918.4596,-267.7955 2928.3107,-263.8961 2918.178,-260.8012 2918.4596,-267.7955"/>
</g>
<!-- Node2&#45;&gt;Node49 -->
<g id="edge73" class="edge">
<title>Node2&#45;&gt;Node49</title>
<path fill="none" stroke="#191970" d="M1591.5686,-318.0116C1692.9986,-309.9627 1897.6902,-293.3539 2071,-277 2097.1708,-274.5305 2125.9027,-271.5948 2151.0937,-268.946"/>
<polygon fill="#191970" stroke="#191970" points="2151.7113,-272.4003 2161.2884,-267.8695 2150.9761,-265.4391 2151.7113,-272.4003"/>
</g>
<!-- Node50 -->
<g id="node51" class="node">
<title>Node50</title>
<polygon fill="none" stroke="#bfbfbf" points="1315,-246.5 1315,-276.5 1425,-276.5 1425,-246.5 1315,-246.5"/>
<text text-anchor="start" x="1323" y="-264.5" font-family="Helvetica,sans-Serif" font-size="10.00" fill="#000000">boost/serialization</text>
<text text-anchor="middle" x="1370" y="-253.5" font-family="Helvetica,sans-Serif" font-size="10.00" fill="#000000">/unordered_set.hpp</text>
</g>
<!-- Node2&#45;&gt;Node50 -->
<g id="edge74" class="edge">
<title>Node2&#45;&gt;Node50</title>
<path fill="none" stroke="#191970" d="M1503.3125,-313.3906C1480.6422,-304.5664 1446.4063,-291.2404 1418.3058,-280.3026"/>
<polygon fill="#191970" stroke="#191970" points="1419.2397,-276.9103 1408.6511,-276.5446 1416.7005,-283.4336 1419.2397,-276.9103"/>
</g>
<!-- Node51 -->
<g id="node52" class="node">
<title>Node51</title>
<polygon fill="none" stroke="#bfbfbf" points="1443,-246.5 1443,-276.5 1613,-276.5 1613,-246.5 1443,-246.5"/>
<text text-anchor="start" x="1451" y="-264.5" font-family="Helvetica,sans-Serif" font-size="10.00" fill="#000000">wignerSymbols/wignerSymbols</text>
<text text-anchor="middle" x="1528" y="-253.5" font-family="Helvetica,sans-Serif" font-size="10.00" fill="#000000">&#45;cpp.h</text>
</g>
<!-- Node2&#45;&gt;Node51 -->
<g id="edge75" class="edge">
<title>Node2&#45;&gt;Node51</title>
<path fill="none" stroke="#191970" d="M1528,-313.3906C1528,-306.2234 1528,-296.0862 1528,-286.671"/>
<polygon fill="#191970" stroke="#191970" points="1531.5001,-286.5446 1528,-276.5446 1524.5001,-286.5446 1531.5001,-286.5446"/>
</g>
<!-- Node4 -->
<g id="node5" class="node">
<title>Node4</title>
<g id="a_node5"><a xlink:href="ConfParser_8h.html" target="_top" xlink:title="ConfParser.h">
<polygon fill="none" stroke="#000000" points="1094.5,-129 1094.5,-148 1171.5,-148 1171.5,-129 1094.5,-129"/>
<text text-anchor="middle" x="1133" y="-136" font-family="Helvetica,sans-Serif" font-size="10.00" fill="#000000">ConfParser.h</text>
</a>
</g>
</g>
<!-- Node3&#45;&gt;Node4 -->
<g id="edge4" class="edge">
<title>Node3&#45;&gt;Node4</title>
<path fill="none" stroke="#191970" d="M1117.5426,-251.9983C1100.7935,-238.9022 1075.4821,-214.1717 1085,-190 1090.4415,-176.1807 1101.5322,-163.8771 1111.6829,-154.7639"/>
<polygon fill="#191970" stroke="#191970" points="1114.1105,-157.2951 1119.4963,-148.1712 1109.5963,-151.945 1114.1105,-157.2951"/>
</g>
<!-- Node3&#45;&gt;Node7 -->
<g id="edge30" class="edge">
<title>Node3&#45;&gt;Node7</title>
<path fill="none" stroke="#191970" d="M1119.7367,-251.8167C1084.1214,-221.1971 973.6659,-126.2354 929.0159,-87.8485"/>
<polygon fill="#191970" stroke="#191970" points="931.1052,-85.0291 921.2406,-81.1638 926.5417,-90.3371 931.1052,-85.0291"/>
</g>
<!-- Node9 -->
<g id="node10" class="node">
<title>Node9</title>
<g id="a_node10"><a xlink:href="Iter_8h.html" target="_top" xlink:title="Iter.h">
<polygon fill="none" stroke="#000000" points="1167.5,-190.5 1167.5,-209.5 1208.5,-209.5 1208.5,-190.5 1167.5,-190.5"/>
<text text-anchor="middle" x="1188" y="-197.5" font-family="Helvetica,sans-Serif" font-size="10.00" fill="#000000">Iter.h</text>
</a>
</g>
</g>
<!-- Node3&#45;&gt;Node9 -->
<g id="edge9" class="edge">
<title>Node3&#45;&gt;Node9</title>
<path fill="none" stroke="#191970" d="M1139.9063,-251.8906C1148.4728,-242.6478 1161.6169,-228.466 1172.0003,-217.2628"/>
<polygon fill="#191970" stroke="#191970" points="1174.7375,-219.4584 1178.9682,-209.7449 1169.6035,-214.7 1174.7375,-219.4584"/>
</g>
<!-- Node10 -->
<g id="node11" class="node">
<title>Node10</title>
<g id="a_node11"><a xlink:href="StateOld_8h.html" target="_top" xlink:title="StateOld.h">
<polygon fill="none" stroke="#000000" points="585,-190.5 585,-209.5 653,-209.5 653,-190.5 585,-190.5"/>
<text text-anchor="middle" x="619" y="-197.5" font-family="Helvetica,sans-Serif" font-size="10.00" fill="#000000">StateOld.h</text>
</a>
</g>
</g>
<!-- Node3&#45;&gt;Node10 -->
<g id="edge10" class="edge">
<title>Node3&#45;&gt;Node10</title>
<path fill="none" stroke="#191970" d="M1088.2278,-256.3623C992.2252,-244.8308 760.4185,-216.9868 663.1403,-205.302"/>
<polygon fill="#191970" stroke="#191970" points="663.4016,-201.8083 653.0555,-204.0907 662.5667,-208.7584 663.4016,-201.8083"/>
</g>
<!-- Node3&#45;&gt;Node11 -->
<g id="edge26" class="edge">
<title>Node3&#45;&gt;Node11</title>
<path fill="none" stroke="#191970" d="M1153.1482,-251.9848C1171.8221,-243.1461 1198.4008,-228.5642 1217,-210 1232.3061,-194.7227 1244.3843,-172.9466 1251.7937,-157.4477"/>
<polygon fill="#191970" stroke="#191970" points="1255.0007,-158.8505 1255.9756,-148.3006 1248.6345,-155.94 1255.0007,-158.8505"/>
</g>
<!-- Node17 -->
<g id="node18" class="node">
<title>Node17</title>
<polygon fill="none" stroke="#bfbfbf" points="1579.5,-62 1579.5,-81 1626.5,-81 1626.5,-62 1579.5,-62"/>
<text text-anchor="middle" x="1603" y="-69" font-family="Helvetica,sans-Serif" font-size="10.00" fill="#000000">vector</text>
</g>
<!-- Node3&#45;&gt;Node17 -->
<g id="edge32" class="edge">
<title>Node3&#45;&gt;Node17</title>
<path fill="none" stroke="#191970" d="M1151.6828,-251.981C1182.479,-237.9095 1242.3117,-210.962 1294,-190 1415.3322,-140.7942 1449.311,-137.7631 1570,-87 1571.3492,-86.4325 1572.724,-85.841 1574.1087,-85.2346"/>
<polygon fill="#191970" stroke="#191970" points="1575.5569,-88.421 1583.2248,-81.1097 1572.6712,-82.0435 1575.5569,-88.421"/>
</g>
<!-- Node23 -->
<g id="node24" class="node">
<title>Node23</title>
<polygon fill="none" stroke="#bfbfbf" points="1094.5,-190.5 1094.5,-209.5 1149.5,-209.5 1149.5,-190.5 1094.5,-190.5"/>
<text text-anchor="middle" x="1122" y="-197.5" font-family="Helvetica,sans-Serif" font-size="10.00" fill="#000000">fstream</text>
</g>
<!-- Node3&#45;&gt;Node23 -->
<g id="edge27" class="edge">
<title>Node3&#45;&gt;Node23</title>
<path fill="none" stroke="#191970" d="M1129.5938,-251.8906C1128.3462,-243.3657 1126.4838,-230.6392 1124.9156,-219.9235"/>
<polygon fill="#191970" stroke="#191970" points="1128.3373,-219.1326 1123.4261,-209.7449 1121.411,-220.1463 1128.3373,-219.1326"/>
</g>
<!-- Node3&#45;&gt;Node24 -->
<g id="edge28" class="edge">
<title>Node3&#45;&gt;Node24</title>
<path fill="none" stroke="#191970" d="M1173.7688,-257.4285C1209.1858,-254.125 1260.8389,-249.4642 1306,-246 1429.2305,-236.5473 1742.8805,-246.3716 1861,-210 1931.5818,-188.2663 1993.5817,-121.257 2020.1866,-89.0881"/>
<polygon fill="#191970" stroke="#191970" points="2023.1581,-90.98 2026.7296,-81.0053 2017.7173,-86.5757 2023.1581,-90.98"/>
</g>
<!-- Node3&#45;&gt;Node25 -->
<g id="edge29" class="edge">
<title>Node3&#45;&gt;Node25</title>
<path fill="none" stroke="#191970" d="M1160.4304,-251.9719C1192.1765,-241.679 1244.2,-224.7678 1289,-210 1290.4013,-209.5381 1291.839,-209.0629 1293.29,-208.5824"/>
<polygon fill="#191970" stroke="#191970" points="1294.4285,-211.8924 1302.8143,-205.4171 1292.2208,-205.2496 1294.4285,-211.8924"/>
</g>
<!-- Node26 -->
<g id="node27" class="node">
<title>Node26</title>
<polygon fill="none" stroke="#bfbfbf" points="1353,-190.5 1353,-209.5 1439,-209.5 1439,-190.5 1353,-190.5"/>
<text text-anchor="middle" x="1396" y="-197.5" font-family="Helvetica,sans-Serif" font-size="10.00" fill="#000000">unordered_set</text>
</g>
<!-- Node3&#45;&gt;Node26 -->
<g id="edge31" class="edge">
<title>Node3&#45;&gt;Node26</title>
<path fill="none" stroke="#191970" d="M1172.1155,-251.9581C1218.6302,-241.1632 1294.4408,-223.5694 1344.7673,-211.8899"/>
<polygon fill="#191970" stroke="#191970" points="1345.8382,-215.2344 1354.7881,-209.5643 1344.2557,-208.4156 1345.8382,-215.2344"/>
</g>
<!-- Node5 -->
<g id="node6" class="node">
<title>Node5</title>
<polygon fill="none" stroke="#bfbfbf" points="950,-62 950,-81 988,-81 988,-62 950,-62"/>
<text text-anchor="middle" x="969" y="-69" font-family="Helvetica,sans-Serif" font-size="10.00" fill="#000000">map</text>
</g>
<!-- Node4&#45;&gt;Node5 -->
<g id="edge5" class="edge">
<title>Node4&#45;&gt;Node5</title>
<path fill="none" stroke="#191970" d="M1104.1166,-128.9172C1076.2437,-119.3549 1033.0815,-103.7134 997,-87 996.1618,-86.6118 995.3144,-86.2086 994.4626,-85.794"/>
<polygon fill="#191970" stroke="#191970" points="995.8672,-82.5798 985.379,-81.0805 992.6431,-88.7931 995.8672,-82.5798"/>
</g>
<!-- Node4&#45;&gt;Node6 -->
<g id="edge6" class="edge">
<title>Node4&#45;&gt;Node6</title>
<path fill="none" stroke="#191970" d="M1139.4474,-128.9005C1146.3311,-118.6515 1157.3976,-102.1747 1165.912,-89.4976"/>
<polygon fill="#191970" stroke="#191970" points="1168.8944,-91.3345 1171.5646,-81.0817 1163.0835,-87.4316 1168.8944,-91.3345"/>
</g>
<!-- Node4&#45;&gt;Node7 -->
<g id="edge7" class="edge">
<title>Node4&#45;&gt;Node7</title>
<path fill="none" stroke="#191970" d="M1101.0955,-128.9952C1094.153,-126.9757 1086.8392,-124.8852 1080,-123 1018.4784,-106.0415 1000.7581,-109.3933 941,-87 939.5914,-86.4721 938.1622,-85.8996 936.73,-85.296"/>
<polygon fill="#191970" stroke="#191970" points="937.9657,-82.0119 927.4183,-81.0098 935.0387,-88.3706 937.9657,-82.0119"/>
</g>
<!-- Node8 -->
<g id="node9" class="node">
<title>Node8</title>
<polygon fill="none" stroke="#bfbfbf" points="1006.5,-62 1006.5,-81 1131.5,-81 1131.5,-62 1006.5,-62"/>
<text text-anchor="middle" x="1069" y="-69" font-family="Helvetica,sans-Serif" font-size="10.00" fill="#000000">boost/lexical_cast.hpp</text>
</g>
<!-- Node4&#45;&gt;Node8 -->
<g id="edge8" class="edge">
<title>Node4&#45;&gt;Node8</title>
<path fill="none" stroke="#191970" d="M1123.8304,-128.9005C1113.7551,-118.353 1097.3793,-101.2096 1085.1431,-88.3998"/>
<polygon fill="#191970" stroke="#191970" points="1087.5909,-85.8952 1078.1526,-81.0817 1082.5291,-90.7304 1087.5909,-85.8952"/>
</g>
<!-- Node10&#45;&gt;Node7 -->
<g id="edge22" class="edge">
<title>Node10&#45;&gt;Node7</title>
<path fill="none" stroke="#191970" d="M626.3343,-190.2912C639.3128,-173.822 667.9937,-140.4972 700,-123 757.6931,-91.4604 834.7469,-78.9709 877.6599,-74.228"/>
<polygon fill="#191970" stroke="#191970" points="878.2136,-77.6895 887.8018,-73.1822 877.4955,-70.7264 878.2136,-77.6895"/>
</g>
<!-- Node10&#45;&gt;Node11 -->
<g id="edge11" class="edge">
<title>Node10&#45;&gt;Node11</title>
<path fill="none" stroke="#191970" d="M653.2937,-198.4985C741.1823,-194.3667 981.5345,-181.2795 1180,-154 1193.2708,-152.1759 1207.6691,-149.5807 1220.5453,-147.0343"/>
<polygon fill="#191970" stroke="#191970" points="1221.389,-150.4346 1230.4947,-145.0183 1219.9988,-143.574 1221.389,-150.4346"/>
</g>
<!-- Node10&#45;&gt;Node14 -->
<g id="edge18" class="edge">
<title>Node10&#45;&gt;Node14</title>
<path fill="none" stroke="#191970" d="M612.4293,-190.3693C600.5046,-173.7099 573.5893,-139.6979 542,-123 500.4276,-101.0251 363.4882,-82.5545 301.2633,-75.0702"/>
<polygon fill="#191970" stroke="#191970" points="301.5895,-71.5845 291.247,-73.8831 300.7655,-78.5358 301.5895,-71.5845"/>
</g>
<!-- Node10&#45;&gt;Node15 -->
<g id="edge20" class="edge">
<title>Node10&#45;&gt;Node15</title>
<path fill="none" stroke="#191970" d="M616.2941,-190.3416C610.4044,-169.3184 596.3241,-119.0598 588.4921,-91.1038"/>
<polygon fill="#191970" stroke="#191970" points="591.8052,-89.9555 585.7373,-81.2705 585.0648,-91.8439 591.8052,-89.9555"/>
</g>
<!-- Node10&#45;&gt;Node18 -->
<g id="edge19" class="edge">
<title>Node10&#45;&gt;Node18</title>
<path fill="none" stroke="#191970" d="M649.4688,-190.3906C682.9544,-179.8298 736.8853,-162.8208 773.812,-151.1747"/>
<polygon fill="#191970" stroke="#191970" points="775.261,-154.3877 783.7452,-148.0419 773.1555,-147.7118 775.261,-154.3877"/>
</g>
<!-- Node10&#45;&gt;Node19 -->
<g id="edge21" class="edge">
<title>Node10&#45;&gt;Node19</title>
<path fill="none" stroke="#191970" d="M621.7059,-190.3416C627.5956,-169.3184 641.6759,-119.0598 649.5079,-91.1038"/>
<polygon fill="#191970" stroke="#191970" points="652.9352,-91.8439 652.2627,-81.2705 646.1948,-89.9555 652.9352,-91.8439"/>
</g>
<!-- Node10&#45;&gt;Node20 -->
<g id="edge23" class="edge">
<title>Node10&#45;&gt;Node20</title>
<path fill="none" stroke="#191970" d="M597.2813,-190.3906C577.5984,-181.682 548.0056,-168.5888 523.4712,-157.7336"/>
<polygon fill="#191970" stroke="#191970" points="524.5643,-154.3901 514.0032,-153.5446 521.732,-160.7915 524.5643,-154.3901"/>
</g>
<!-- Node10&#45;&gt;Node21 -->
<g id="edge24" class="edge">
<title>Node10&#45;&gt;Node21</title>
<path fill="none" stroke="#191970" d="M584.9726,-196.266C527.7517,-189.7434 408.4783,-175.1046 297.5548,-153.9852"/>
<polygon fill="#191970" stroke="#191970" points="298.0177,-150.5101 287.5362,-152.0553 296.6936,-157.3838 298.0177,-150.5101"/>
</g>
<!-- Node10&#45;&gt;Node22 -->
<g id="edge25" class="edge">
<title>Node10&#45;&gt;Node22</title>
<path fill="none" stroke="#191970" d="M584.9759,-192.5667C544.7705,-183.7103 475.8914,-168.3091 417,-154 412.4066,-152.8839 407.6225,-151.6944 402.8484,-150.4894"/>
<polygon fill="#191970" stroke="#191970" points="403.6821,-147.0901 393.1276,-148.0131 401.9541,-153.8734 403.6821,-147.0901"/>
</g>
<!-- Node12 -->
<g id="node13" class="node">
<title>Node12</title>
<polygon fill="none" stroke="#bfbfbf" points="1224.5,-62 1224.5,-81 1301.5,-81 1301.5,-62 1224.5,-62"/>
<text text-anchor="middle" x="1263" y="-69" font-family="Helvetica,sans-Serif" font-size="10.00" fill="#000000">Eigen/Dense</text>
</g>
<!-- Node11&#45;&gt;Node12 -->
<g id="edge12" class="edge">
<title>Node11&#45;&gt;Node12</title>
<path fill="none" stroke="#191970" d="M1260.4298,-128.9005C1260.8665,-119.149 1261.5555,-103.7597 1262.1103,-91.3695"/>
<polygon fill="#191970" stroke="#191970" points="1265.6201,-91.2282 1262.571,-81.0817 1258.6271,-90.9151 1265.6201,-91.2282"/>
</g>
<!-- Node13 -->
<g id="node14" class="node">
<title>Node13</title>
<polygon fill="none" stroke="#bfbfbf" points="1481,-62 1481,-81 1561,-81 1561,-62 1481,-62"/>
<text text-anchor="middle" x="1521" y="-69" font-family="Helvetica,sans-Serif" font-size="10.00" fill="#000000">Eigen/Sparse</text>
</g>
<!-- Node11&#45;&gt;Node13 -->
<g id="edge13" class="edge">
<title>Node11&#45;&gt;Node13</title>
<path fill="none" stroke="#191970" d="M1285.4181,-128.9325C1291.4617,-126.8287 1297.921,-124.7185 1304,-123 1377.0637,-102.345 1397.5561,-106.2597 1471,-87 1474.596,-86.057 1478.3194,-85.0196 1482.0378,-83.942"/>
<polygon fill="#191970" stroke="#191970" points="1483.1972,-87.2486 1491.7774,-81.0332 1481.194,-80.5413 1483.1972,-87.2486"/>
</g>
<!-- Node11&#45;&gt;Node14 -->
<g id="edge14" class="edge">
<title>Node11&#45;&gt;Node14</title>
<path fill="none" stroke="#191970" d="M1230.1416,-131.7223C1215.167,-128.5771 1196.706,-125.0815 1180,-123 1168.8474,-121.6104 460.2391,-82.0961 301.3735,-73.2469"/>
<polygon fill="#191970" stroke="#191970" points="301.4877,-69.7479 291.3085,-72.6863 301.0984,-76.7371 301.4877,-69.7479"/>
</g>
<!-- Node11&#45;&gt;Node15 -->
<g id="edge15" class="edge">
<title>Node11&#45;&gt;Node15</title>
<path fill="none" stroke="#191970" d="M1230.135,-131.7741C1215.1588,-128.6415 1196.6984,-125.1417 1180,-123 930.864,-91.0464 859.2793,-149.4896 616,-87 614.0229,-86.4921 612.0202,-85.8663 610.0297,-85.1601"/>
<polygon fill="#191970" stroke="#191970" points="610.932,-81.7448 600.3546,-81.1359 608.2436,-88.208 610.932,-81.7448"/>
</g>
<!-- Node16 -->
<g id="node17" class="node">
<title>Node16</title>
<polygon fill="none" stroke="#bfbfbf" points="1319.5,-56.5 1319.5,-86.5 1462.5,-86.5 1462.5,-56.5 1319.5,-56.5"/>
<text text-anchor="start" x="1327.5" y="-74.5" font-family="Helvetica,sans-Serif" font-size="10.00" fill="#000000">unsupported/Eigen/CXX11</text>
<text text-anchor="middle" x="1391" y="-63.5" font-family="Helvetica,sans-Serif" font-size="10.00" fill="#000000">/Tensor</text>
</g>
<!-- Node11&#45;&gt;Node16 -->
<g id="edge16" class="edge">
<title>Node11&#45;&gt;Node16</title>
<path fill="none" stroke="#191970" d="M1278.7691,-128.9005C1297.9654,-119.0826 1328.3355,-103.5498 1352.6449,-91.1167"/>
<polygon fill="#191970" stroke="#191970" points="1354.3197,-94.1914 1361.6291,-86.5218 1351.1322,-87.9592 1354.3197,-94.1914"/>
</g>
<!-- Node11&#45;&gt;Node17 -->
<g id="edge17" class="edge">
<title>Node11&#45;&gt;Node17</title>
<path fill="none" stroke="#191970" d="M1284.4011,-128.9097C1290.7093,-126.7065 1297.5438,-124.5567 1304,-123 1419.9761,-95.0351 1455.5735,-120.75 1570,-87 1571.9124,-86.4359 1573.8538,-85.776 1575.7881,-85.0524"/>
<polygon fill="#191970" stroke="#191970" points="1577.3905,-88.1747 1585.2336,-81.0517 1574.6604,-81.729 1577.3905,-88.1747"/>
</g>
<!-- Node27&#45;&gt;Node7 -->
<g id="edge67" class="edge">
<title>Node27&#45;&gt;Node7</title>
<path fill="none" stroke="#191970" d="M1786.6835,-251.9776C1716.0834,-236.7773 1571.6566,-207.0144 1448,-190 1268.5384,-165.3072 1211.4031,-218.1777 1042,-154 1020.3041,-145.7806 1019.4345,-135.6716 1000,-123 979.4535,-109.6034 955.284,-95.8787 937.168,-85.9699"/>
<polygon fill="#191970" stroke="#191970" points="938.7565,-82.8498 928.2976,-81.1581 935.4187,-89.0028 938.7565,-82.8498"/>
</g>
<!-- Node27&#45;&gt;Node11 -->
<g id="edge64" class="edge">
<title>Node27&#45;&gt;Node11</title>
<path fill="none" stroke="#191970" d="M1803.1982,-251.9722C1759.9149,-236.8985 1671.7157,-207.4733 1595,-190 1489.7823,-166.0349 1363.397,-149.9765 1300.1679,-142.7951"/>
<polygon fill="#191970" stroke="#191970" points="1300.1724,-139.2737 1289.8447,-141.638 1299.3926,-146.2302 1300.1724,-139.2737"/>
</g>
<!-- Node27&#45;&gt;Node17 -->
<g id="edge68" class="edge">
<title>Node27&#45;&gt;Node17</title>
<path fill="none" stroke="#191970" d="M1839.9757,-251.8042C1853.3123,-237.6263 1873.8644,-210.6784 1861,-190 1835.7291,-149.3792 1700.4419,-102.2278 1636.5107,-81.8051"/>
<polygon fill="#191970" stroke="#191970" points="1637.4806,-78.441 1626.8906,-78.762 1635.3693,-85.1151 1637.4806,-78.441"/>
</g>
<!-- Node28 -->
<g id="node29" class="node">
<title>Node28</title>
<g id="a_node29"><a xlink:href="QuantumDefect_8h.html" target="_top" xlink:title="QuantumDefect.h">
<polygon fill="none" stroke="#000000" points="1749.5,-190.5 1749.5,-209.5 1852.5,-209.5 1852.5,-190.5 1749.5,-190.5"/>
<text text-anchor="middle" x="1801" y="-197.5" font-family="Helvetica,sans-Serif" font-size="10.00" fill="#000000">QuantumDefect.h</text>
</a>
</g>
</g>
<!-- Node27&#45;&gt;Node28 -->
<g id="edge35" class="edge">
<title>Node27&#45;&gt;Node28</title>
<path fill="none" stroke="#191970" d="M1825.4688,-251.8906C1821.3219,-243.0965 1815.0668,-229.8312 1809.919,-218.9145"/>
<polygon fill="#191970" stroke="#191970" points="1813.0259,-217.2969 1805.5951,-209.7449 1806.6945,-220.2825 1813.0259,-217.2969"/>
</g>
<!-- Node46 -->
<g id="node47" class="node">
<title>Node46</title>
<polygon fill="none" stroke="#bfbfbf" points="1685,-190.5 1685,-209.5 1731,-209.5 1731,-190.5 1685,-190.5"/>
<text text-anchor="middle" x="1708" y="-197.5" font-family="Helvetica,sans-Serif" font-size="10.00" fill="#000000">cstdio</text>
</g>
<!-- Node27&#45;&gt;Node46 -->
<g id="edge65" class="edge">
<title>Node27&#45;&gt;Node46</title>
<path fill="none" stroke="#191970" d="M1810.9375,-251.8906C1790.8828,-241.7811 1759.1066,-225.7628 1736.1616,-214.1962"/>
<polygon fill="#191970" stroke="#191970" points="1737.4337,-210.918 1726.9286,-209.5419 1734.2827,-217.1687 1737.4337,-210.918"/>
</g>
<!-- Node47 -->
<g id="node48" class="node">
<title>Node47</title>
<polygon fill="none" stroke="#bfbfbf" points="1947,-190.5 1947,-209.5 1991,-209.5 1991,-190.5 1947,-190.5"/>
<text text-anchor="middle" x="1969" y="-197.5" font-family="Helvetica,sans-Serif" font-size="10.00" fill="#000000">limits</text>
</g>
<!-- Node27&#45;&gt;Node47 -->
<g id="edge66" class="edge">
<title>Node27&#45;&gt;Node47</title>
<path fill="none" stroke="#191970" d="M1851.7188,-251.8906C1874.874,-241.6457 1911.7441,-225.3326 1937.9591,-213.7339"/>
<polygon fill="#191970" stroke="#191970" points="1939.705,-216.7888 1947.4338,-209.5419 1936.8727,-210.3874 1939.705,-216.7888"/>
</g>
<!-- Node28&#45;&gt;Node7 -->
<g id="edge60" class="edge">
<title>Node28&#45;&gt;Node7</title>
<path fill="none" stroke="#191970" d="M1749.4687,-191.1523C1746.2695,-190.7271 1743.0938,-190.3376 1740,-190 1595.0851,-174.1857 1222.4414,-202.5827 1085,-154 1062.7871,-146.1482 1062.859,-133.9528 1042,-123 999.8078,-100.8454 984.837,-105.6904 941,-87 939.8169,-86.4956 938.6152,-85.9673 937.4063,-85.4227"/>
<polygon fill="#191970" stroke="#191970" points="938.722,-82.1731 928.1865,-81.0527 935.7238,-88.4986 938.722,-82.1731"/>
</g>
<!-- Node28&#45;&gt;Node11 -->
<g id="edge58" class="edge">
<title>Node28&#45;&gt;Node11</title>
<path fill="none" stroke="#191970" d="M1749.4456,-191.3417C1746.2521,-190.8694 1743.084,-190.4179 1740,-190 1577.0906,-167.9248 1382.0258,-149.4432 1299.7245,-142.0085"/>
<polygon fill="#191970" stroke="#191970" points="1299.8374,-138.5046 1289.5641,-141.0951 1299.2106,-145.4765 1299.8374,-138.5046"/>
</g>
<!-- Node28&#45;&gt;Node18 -->
<g id="edge63" class="edge">
<title>Node28&#45;&gt;Node18</title>
<path fill="none" stroke="#191970" d="M1749.4698,-191.1427C1746.2702,-190.7199 1743.0942,-190.3336 1740,-190 1435.5676,-157.1827 1357.6695,-171.95 1052,-154 1000.0243,-150.9478 941.689,-147.1545 895.7807,-144.0845"/>
<polygon fill="#191970" stroke="#191970" points="895.7976,-140.5779 885.5859,-143.401 895.3293,-147.5622 895.7976,-140.5779"/>
</g>
<!-- Node29 -->
<g id="node30" class="node">
<title>Node29</title>
<g id="a_node30"><a xlink:href="Cache_8h.html" target="_top" xlink:title="Cache.h">
<polygon fill="none" stroke="#000000" points="2237,-129 2237,-148 2293,-148 2293,-129 2237,-129"/>
<text text-anchor="middle" x="2265" y="-136" font-family="Helvetica,sans-Serif" font-size="10.00" fill="#000000">Cache.h</text>
</a>
</g>
</g>
<!-- Node28&#45;&gt;Node29 -->
<g id="edge36" class="edge">
<title>Node28&#45;&gt;Node29</title>
<path fill="none" stroke="#191970" d="M1852.8761,-193.1242C1946.9911,-180.6499 2143.7991,-154.5643 2226.789,-143.5646"/>
<polygon fill="#191970" stroke="#191970" points="2227.3425,-147.0219 2236.7959,-142.2383 2226.4227,-140.0826 2227.3425,-147.0219"/>
</g>
<!-- Node30 -->
<g id="node31" class="node">
<title>Node30</title>
<polygon fill="none" stroke="#bfbfbf" points="2248,-62 2248,-81 2296,-81 2296,-62 2248,-62"/>
<text text-anchor="middle" x="2272" y="-69" font-family="Helvetica,sans-Serif" font-size="10.00" fill="#000000">mutex</text>
</g>
<!-- Node28&#45;&gt;Node30 -->
<g id="edge59" class="edge">
<title>Node28&#45;&gt;Node30</title>
<path fill="none" stroke="#191970" d="M1849.0222,-190.4601C1930.3617,-173.6674 2099.868,-135.9225 2238,-87 2239.6396,-86.4193 2241.3087,-85.7902 2242.9832,-85.1292"/>
<polygon fill="#191970" stroke="#191970" points="2244.623,-88.2356 2252.4636,-81.1099 2241.8907,-81.7909 2244.623,-88.2356"/>
</g>
<!-- Node28&#45;&gt;Node31 -->
<g id="edge62" class="edge">
<title>Node28&#45;&gt;Node31</title>
<path fill="none" stroke="#191970" d="M1852.944,-195.9722C1976.8828,-186.2615 2281.191,-161.7874 2302,-154 2324.0652,-145.7425 2324.1839,-134.034 2345,-123 2376.1022,-106.5136 2413.6373,-93.0873 2442.1581,-84.0816"/>
<polygon fill="#191970" stroke="#191970" points="2443.3273,-87.3836 2451.845,-81.0828 2441.2572,-80.6967 2443.3273,-87.3836"/>
</g>
<!-- Node33 -->
<g id="node34" class="node">
<title>Node33</title>
<g id="a_node34"><a xlink:href="SQLite_8h.html" target="_top" xlink:title="SQLite.h">
<polygon fill="none" stroke="#000000" points="1890.5,-129 1890.5,-148 1947.5,-148 1947.5,-129 1890.5,-129"/>
<text text-anchor="middle" x="1919" y="-136" font-family="Helvetica,sans-Serif" font-size="10.00" fill="#000000">SQLite.h</text>
</a>
</g>
</g>
<!-- Node28&#45;&gt;Node33 -->
<g id="edge40" class="edge">
<title>Node28&#45;&gt;Node33</title>
<path fill="none" stroke="#191970" d="M1819.4375,-190.3906C1838.8347,-180.2811 1869.569,-164.2628 1891.7617,-152.6962"/>
<polygon fill="#191970" stroke="#191970" points="1893.4418,-155.7675 1900.692,-148.0419 1890.2064,-149.56 1893.4418,-155.7675"/>
</g>
<!-- Node28&#45;&gt;Node45 -->
<g id="edge61" class="edge">
<title>Node28&#45;&gt;Node45</title>
<path fill="none" stroke="#191970" d="M1784.5938,-190.3906C1767.5647,-180.4165 1740.7159,-164.6908 1721.0349,-153.1633"/>
<polygon fill="#191970" stroke="#191970" points="1722.6888,-150.0759 1712.291,-148.0419 1719.151,-156.1161 1722.6888,-150.0759"/>
</g>
<!-- Node29&#45;&gt;Node30 -->
<g id="edge37" class="edge">
<title>Node29&#45;&gt;Node30</title>
<path fill="none" stroke="#191970" d="M2266.0029,-128.9005C2267.0217,-119.149 2268.6296,-103.7597 2269.9241,-91.3695"/>
<polygon fill="#191970" stroke="#191970" points="2273.4408,-91.3912 2270.9989,-81.0817 2266.4787,-90.6638 2273.4408,-91.3912"/>
</g>
<!-- Node29&#45;&gt;Node31 -->
<g id="edge38" class="edge">
<title>Node29&#45;&gt;Node31</title>
<path fill="none" stroke="#191970" d="M2290.2137,-128.8539C2295.7197,-126.8431 2301.5347,-124.792 2307,-123 2331.996,-114.8041 2397.5182,-96.225 2441.9596,-83.7706"/>
<polygon fill="#191970" stroke="#191970" points="2442.968,-87.1229 2451.6546,-81.0571 2441.0812,-80.382 2442.968,-87.1229"/>
</g>
<!-- Node32 -->
<g id="node33" class="node">
<title>Node32</title>
<polygon fill="none" stroke="#bfbfbf" points="2314.5,-62 2314.5,-81 2421.5,-81 2421.5,-62 2314.5,-62"/>
<text text-anchor="middle" x="2368" y="-69" font-family="Helvetica,sans-Serif" font-size="10.00" fill="#000000">boost/optional.hpp</text>
</g>
<!-- Node29&#45;&gt;Node32 -->
<g id="edge39" class="edge">
<title>Node29&#45;&gt;Node32</title>
<path fill="none" stroke="#191970" d="M2279.7574,-128.9005C2296.7372,-117.8554 2324.8359,-99.5776 2344.7601,-86.6172"/>
<polygon fill="#191970" stroke="#191970" points="2346.7959,-89.4684 2353.27,-81.0817 2342.9789,-83.6005 2346.7959,-89.4684"/>
</g>
<!-- Node33&#45;&gt;Node6 -->
<g id="edge44" class="edge">
<title>Node33&#45;&gt;Node6</title>
<path fill="none" stroke="#191970" d="M1890.4089,-136.1324C1852.574,-133.0185 1783.7937,-127.4237 1725,-123 1498.4098,-105.9511 1436.0595,-139.5974 1215,-87 1212.3597,-86.3718 1209.6659,-85.5757 1206.9961,-84.6773"/>
<polygon fill="#191970" stroke="#191970" points="1208.1613,-81.376 1197.5702,-81.0935 1205.6735,-87.919 1208.1613,-81.376"/>
</g>
<!-- Node33&#45;&gt;Node7 -->
<g id="edge45" class="edge">
<title>Node33&#45;&gt;Node7</title>
<path fill="none" stroke="#191970" d="M1890.424,-135.9126C1852.6058,-132.5581 1783.8436,-126.7006 1725,-123 1550.9381,-112.0533 1109.7763,-130.9537 941,-87 939.0784,-86.4996 937.1371,-85.8706 935.2131,-85.1545"/>
<polygon fill="#191970" stroke="#191970" points="936.4699,-81.8834 925.9087,-81.0404 933.6391,-88.2855 936.4699,-81.8834"/>
</g>
<!-- Node33&#45;&gt;Node19 -->
<g id="edge41" class="edge">
<title>Node33&#45;&gt;Node19</title>
<path fill="none" stroke="#191970" d="M1890.4259,-135.8825C1852.6097,-132.4952 1783.8497,-126.6018 1725,-123 1349.3626,-100.0096 1254.7544,-107.9915 879,-87 814.682,-83.4069 740.0619,-77.9939 695.2407,-74.6078"/>
<polygon fill="#191970" stroke="#191970" points="695.2925,-71.1017 685.0562,-73.8344 694.7624,-78.0816 695.2925,-71.1017"/>
</g>
<!-- Node33&#45;&gt;Node24 -->
<g id="edge42" class="edge">
<title>Node33&#45;&gt;Node24</title>
<path fill="none" stroke="#191970" d="M1935.4767,-128.9005C1954.6055,-117.7559 1986.3733,-99.2477 2008.6516,-86.2682"/>
<polygon fill="#191970" stroke="#191970" points="2010.6753,-89.1399 2017.5539,-81.0817 2007.1514,-83.0916 2010.6753,-89.1399"/>
</g>
<!-- Node34 -->
<g id="node35" class="node">
<title>Node34</title>
<polygon fill="none" stroke="#bfbfbf" points="1806,-.5 1806,-19.5 1860,-19.5 1860,-.5 1806,-.5"/>
<text text-anchor="middle" x="1833" y="-7.5" font-family="Helvetica,sans-Serif" font-size="10.00" fill="#000000">random</text>
</g>
<!-- Node33&#45;&gt;Node34 -->
<g id="edge43" class="edge">
<title>Node33&#45;&gt;Node34</title>
<path fill="none" stroke="#191970" d="M1894.6697,-128.9193C1888.6322,-126.7676 1882.1331,-124.6392 1876,-123 1831.95,-111.2267 1703.2766,-121.9556 1674,-87 1637.3848,-43.2824 1737.8252,-22.4511 1795.5535,-14.3226"/>
<polygon fill="#191970" stroke="#191970" points="1796.3466,-17.7477 1805.7929,-12.95 1795.4166,-10.8097 1796.3466,-17.7477"/>
</g>
<!-- Node35 -->
<g id="node36" class="node">
<title>Node35</title>
<polygon fill="none" stroke="#bfbfbf" points="1683,-62 1683,-81 1731,-81 1731,-62 1683,-62"/>
<text text-anchor="middle" x="1707" y="-69" font-family="Helvetica,sans-Serif" font-size="10.00" fill="#000000">thread</text>
</g>
<!-- Node33&#45;&gt;Node35 -->
<g id="edge46" class="edge">
<title>Node33&#45;&gt;Node35</title>
<path fill="none" stroke="#191970" d="M1893.6582,-128.9508C1887.8861,-126.8916 1881.7574,-124.7959 1876,-123 1816.3103,-104.3808 1798.7581,-108.3779 1740,-87 1738.4051,-86.4197 1736.7824,-85.791 1735.155,-85.1303"/>
<polygon fill="#191970" stroke="#191970" points="1736.5122,-81.9039 1725.947,-81.1118 1733.7123,-88.3195 1736.5122,-81.9039"/>
</g>
<!-- Node33&#45;&gt;Node36 -->
<g id="edge47" class="edge">
<title>Node33&#45;&gt;Node36</title>
<path fill="none" stroke="#191970" d="M1926.3055,-128.9763C1939.1462,-112.6571 1967.1488,-78.8974 1996,-56 2011.4847,-43.7108 2030.6278,-32.5815 2046.3053,-24.3491"/>
<polygon fill="#191970" stroke="#191970" points="2048.2491,-27.286 2055.5552,-19.6132 2045.0589,-21.0552 2048.2491,-27.286"/>
</g>
<!-- Node37 -->
<g id="node38" class="node">
<title>Node37</title>
<polygon fill="none" stroke="#bfbfbf" points="1749,-56.5 1749,-86.5 1871,-86.5 1871,-56.5 1749,-56.5"/>
<text text-anchor="start" x="1757" y="-74.5" font-family="Helvetica,sans-Serif" font-size="10.00" fill="#000000">boost/iterator/iterator</text>
<text text-anchor="middle" x="1810" y="-63.5" font-family="Helvetica,sans-Serif" font-size="10.00" fill="#000000">_facade.hpp</text>
</g>
<!-- Node33&#45;&gt;Node37 -->
<g id="edge48" class="edge">
<title>Node33&#45;&gt;Node37</title>
<path fill="none" stroke="#191970" d="M1903.383,-128.9005C1887.6919,-119.2556 1863.0284,-104.0954 1842.9876,-91.7768"/>
<polygon fill="#191970" stroke="#191970" points="1844.7905,-88.7767 1834.4384,-86.5218 1841.1248,-94.7402 1844.7905,-88.7767"/>
</g>
<!-- Node38 -->
<g id="node39" class="node">
<title>Node38</title>
<polygon fill="none" stroke="#bfbfbf" points="1889.5,-62 1889.5,-81 1948.5,-81 1948.5,-62 1889.5,-62"/>
<text text-anchor="middle" x="1919" y="-69" font-family="Helvetica,sans-Serif" font-size="10.00" fill="#000000">sqlite3.h</text>
</g>
<!-- Node33&#45;&gt;Node38 -->
<g id="edge49" class="edge">
<title>Node33&#45;&gt;Node38</title>
<path fill="none" stroke="#191970" d="M1919,-128.9005C1919,-119.149 1919,-103.7597 1919,-91.3695"/>
<polygon fill="#191970" stroke="#191970" points="1922.5001,-91.0816 1919,-81.0817 1915.5001,-91.0817 1922.5001,-91.0816"/>
</g>
<!-- Node39 -->
<g id="node40" class="node">
<title>Node39</title>
<polygon fill="none" stroke="#bfbfbf" points="2184.5,-62 2184.5,-81 2229.5,-81 2229.5,-62 2184.5,-62"/>
<text text-anchor="middle" x="2207" y="-69" font-family="Helvetica,sans-Serif" font-size="10.00" fill="#000000">utility</text>
</g>
<!-- Node33&#45;&gt;Node39 -->
<g id="edge50" class="edge">
<title>Node33&#45;&gt;Node39</title>
<path fill="none" stroke="#191970" d="M1947.6423,-135.1396C1995.6243,-128.9827 2094.8711,-113.981 2175,-87 2176.649,-86.4447 2178.3229,-85.8238 2179.9961,-85.1585"/>
<polygon fill="#191970" stroke="#191970" points="2181.6602,-88.2498 2189.3948,-81.0092 2178.8331,-81.846 2181.6602,-88.2498"/>
</g>
<!-- Node33&#45;&gt;Node40 -->
<g id="edge51" class="edge">
<title>Node33&#45;&gt;Node40</title>
<path fill="none" stroke="#191970" d="M1947.8255,-129.8781C1989.3725,-117.4511 2065.9023,-94.5605 2109.7725,-81.4386"/>
<polygon fill="#191970" stroke="#191970" points="2110.8202,-84.7785 2119.3979,-78.5596 2108.8143,-78.0721 2110.8202,-84.7785"/>
</g>
<!-- Node40&#45;&gt;Node34 -->
<g id="edge55" class="edge">
<title>Node40&#45;&gt;Node34</title>
<path fill="none" stroke="#191970" d="M2119.3644,-66.1864C2105.5693,-63.1236 2087.8193,-59.2486 2072,-56 2000.8109,-41.3809 1917.3992,-25.6421 1870.3212,-16.8868"/>
<polygon fill="#191970" stroke="#191970" points="1870.755,-13.4076 1860.2842,-15.0236 1869.4774,-20.29 1870.755,-13.4076"/>
</g>
<!-- Node40&#45;&gt;Node36 -->
<g id="edge56" class="edge">
<title>Node40&#45;&gt;Node36</title>
<path fill="none" stroke="#191970" d="M2132.5313,-61.8906C2122.2663,-52.4683 2106.4097,-37.9134 2094.0994,-26.6137"/>
<polygon fill="#191970" stroke="#191970" points="2096.3501,-23.9287 2086.6163,-19.7449 2091.6166,-29.0856 2096.3501,-23.9287"/>
</g>
<!-- Node41 -->
<g id="node42" class="node">
<title>Node41</title>
<polygon fill="none" stroke="#bfbfbf" points="2359,-.5 2359,-19.5 2423,-19.5 2423,-.5 2359,-.5"/>
<text text-anchor="middle" x="2391" y="-7.5" font-family="Helvetica,sans-Serif" font-size="10.00" fill="#000000">algorithm</text>
</g>
<!-- Node40&#45;&gt;Node41 -->
<g id="edge52" class="edge">
<title>Node40&#45;&gt;Node41</title>
<path fill="none" stroke="#191970" d="M2160.9545,-61.867C2165.4521,-59.7169 2170.3288,-57.6023 2175,-56 2233.7561,-35.8451 2304.6537,-22.7771 2348.7927,-15.8983"/>
<polygon fill="#191970" stroke="#191970" points="2349.5137,-19.3289 2358.8725,-14.3628 2348.4594,-12.4088 2349.5137,-19.3289"/>
</g>
<!-- Node42 -->
<g id="node43" class="node">
<title>Node42</title>
<polygon fill="none" stroke="#bfbfbf" points="3195.5,-.5 3195.5,-19.5 3254.5,-19.5 3254.5,-.5 3195.5,-.5"/>
<text text-anchor="middle" x="3225" y="-7.5" font-family="Helvetica,sans-Serif" font-size="10.00" fill="#000000">complex</text>
</g>
<!-- Node40&#45;&gt;Node42 -->
<g id="edge53" class="edge">
<title>Node40&#45;&gt;Node42</title>
<path fill="none" stroke="#191970" d="M2159.4512,-61.9543C2164.3061,-59.5777 2169.7332,-57.3304 2175,-56 2224.8116,-43.4175 2999.8853,-17.3638 3185.3524,-11.2868"/>
<polygon fill="#191970" stroke="#191970" points="3185.5972,-14.7808 3195.4774,-10.9558 3185.3684,-7.7845 3185.5972,-14.7808"/>
</g>
<!-- Node43 -->
<g id="node44" class="node">
<title>Node43</title>
<polygon fill="none" stroke="#bfbfbf" points="2778.5,-.5 2778.5,-19.5 2843.5,-19.5 2843.5,-.5 2778.5,-.5"/>
<text text-anchor="middle" x="2811" y="-7.5" font-family="Helvetica,sans-Serif" font-size="10.00" fill="#000000">functional</text>
</g>
<!-- Node40&#45;&gt;Node43 -->
<g id="edge54" class="edge">
<title>Node40&#45;&gt;Node43</title>
<path fill="none" stroke="#191970" d="M2159.8082,-61.8891C2164.5779,-59.573 2169.8719,-57.3732 2175,-56 2287.3517,-25.9152 2643.7511,-14.2268 2767.8742,-11.0038"/>
<polygon fill="#191970" stroke="#191970" points="2768.2157,-14.4963 2778.1235,-10.7433 2768.0378,-7.4986 2768.2157,-14.4963"/>
</g>
<!-- Node44 -->
<g id="node45" class="node">
<title>Node44</title>
<polygon fill="none" stroke="#bfbfbf" points="2129,-.5 2129,-19.5 2185,-19.5 2185,-.5 2129,-.5"/>
<text text-anchor="middle" x="2157" y="-7.5" font-family="Helvetica,sans-Serif" font-size="10.00" fill="#000000">unistd.h</text>
</g>
<!-- Node40&#45;&gt;Node44 -->
<g id="edge57" class="edge">
<title>Node40&#45;&gt;Node44</title>
<path fill="none" stroke="#191970" d="M2145.1875,-61.8906C2147.1486,-53.276 2150.0863,-40.3708 2152.5415,-29.5858"/>
<polygon fill="#191970" stroke="#191970" points="2155.9746,-30.2723 2154.7817,-19.7449 2149.1493,-28.7185 2155.9746,-30.2723"/>
</g>
<!-- Node53&#45;&gt;Node1 -->
<g id="edge93" class="edge">
<title>Node53&#45;&gt;Node1</title>
<path fill="none" stroke="#191970" d="M1918.7833,-449.3278C1714.9199,-439.0811 851.4853,-395.6827 664.7185,-386.2953"/>
<polygon fill="#191970" stroke="#191970" points="664.7795,-382.794 654.6163,-385.7875 664.428,-389.7852 664.7795,-382.794"/>
</g>
<!-- Node53&#45;&gt;Node2 -->
<g id="edge92" class="edge">
<title>Node53&#45;&gt;Node2</title>
<path fill="none" stroke="#191970" d="M1918.8492,-443.355C1880.5183,-435.2252 1823.5243,-420.9146 1777,-400 1753.8372,-389.5874 1752.3987,-378.8711 1729,-369 1688.5796,-351.9481 1640.797,-340.6805 1601.9637,-333.567"/>
<polygon fill="#191970" stroke="#191970" points="1602.2371,-330.0608 1591.7791,-331.7583 1601.0131,-336.953 1602.2371,-330.0608"/>
</g>
<!-- Node53&#45;&gt;Node7 -->
<g id="edge124" class="edge">
<title>Node53&#45;&gt;Node7</title>
<path fill="none" stroke="#191970" d="M1918.932,-450.3343C1763.3211,-445.9012 1235.6875,-428.8679 1166,-400 1026.5915,-342.2502 997.13,-290.1171 932,-154 922.2379,-133.5979 916.2974,-108.2093 913.0909,-91.0256"/>
<polygon fill="#191970" stroke="#191970" points="916.5192,-90.3101 911.3658,-81.0531 909.6216,-91.5033 916.5192,-90.3101"/>
</g>
<!-- Node53&#45;&gt;Node11 -->
<g id="edge101" class="edge">
<title>Node53&#45;&gt;Node11</title>
<path fill="none" stroke="#191970" d="M1940.33,-441.9256C1918.4599,-432.0648 1883.8841,-415.9302 1855,-400 1851.9292,-398.3064 1750.8227,-335.0809 1748,-333 1700.3114,-297.8444 1698.8348,-274.6928 1647,-246 1573.3273,-205.219 1547.0992,-212.6646 1466,-190 1408.4365,-173.9129 1341.1587,-157.5457 1299.5602,-147.7059"/>
<polygon fill="#191970" stroke="#191970" points="1300.3504,-144.2963 1289.8141,-145.4089 1298.7445,-151.1096 1300.3504,-144.2963"/>
</g>
<!-- Node53&#45;&gt;Node17 -->
<g id="edge128" class="edge">
<title>Node53&#45;&gt;Node17</title>
<path fill="none" stroke="#191970" d="M1964.2133,-441.8366C1974.3708,-397.0209 2015.3801,-210.7212 2000,-190 1967.0672,-145.6303 1933.3173,-171.7801 1881,-154 1844.1103,-141.463 1836.1142,-134.8557 1799,-123 1791.1681,-120.4982 1690.2471,-94.1851 1636.3757,-80.1728"/>
<polygon fill="#191970" stroke="#191970" points="1637.1426,-76.7558 1626.5836,-77.6264 1635.3809,-83.5305 1637.1426,-76.7558"/>
</g>
<!-- Node53&#45;&gt;Node24 -->
<g id="edge120" class="edge">
<title>Node53&#45;&gt;Node24</title>
<path fill="none" stroke="#191970" d="M1965.6334,-441.9367C1972.0282,-425.848 1986.398,-392.7955 2005,-369 2043.0077,-320.3809 2083.6519,-333.2661 2109,-277 2139.6169,-209.0386 2079.2053,-124.4971 2049.3457,-88.7439"/>
<polygon fill="#191970" stroke="#191970" points="2051.9791,-86.4381 2042.816,-81.1194 2046.6624,-90.9914 2051.9791,-86.4381"/>
</g>
<!-- Node53&#45;&gt;Node25 -->
<g id="edge122" class="edge">
<title>Node53&#45;&gt;Node25</title>
<path fill="none" stroke="#191970" d="M1918.9294,-448.6611C1870.3762,-443.9883 1790.2331,-431.7546 1729,-400 1710.8466,-390.5859 1713.4658,-377.7856 1695,-369 1530.6655,-290.8131 1401.1592,-425.528 1296,-277 1283.484,-259.3222 1294.6074,-234.7669 1305.3012,-218.1772"/>
<polygon fill="#191970" stroke="#191970" points="1308.2341,-220.0896 1311.0452,-209.8745 1302.4775,-216.107 1308.2341,-220.0896"/>
</g>
<!-- Node53&#45;&gt;Node26 -->
<g id="edge126" class="edge">
<title>Node53&#45;&gt;Node26</title>
<path fill="none" stroke="#191970" d="M1927.5077,-441.9434C1897.1144,-432.9357 1852.0392,-418.1306 1815,-400 1792.1904,-388.8348 1789.7615,-380.2629 1767,-369 1724.6629,-348.0506 1702.5283,-364.1295 1667,-333 1634.2575,-304.3114 1656.7314,-272.2457 1622,-246 1595.3298,-225.846 1507.305,-212.4132 1449.3081,-205.5079"/>
<polygon fill="#191970" stroke="#191970" points="1449.543,-202.0117 1439.206,-204.3346 1448.7354,-208.965 1449.543,-202.0117"/>
</g>
<!-- Node53&#45;&gt;Node31 -->
<g id="edge125" class="edge">
<title>Node53&#45;&gt;Node31</title>
<path fill="none" stroke="#191970" d="M1976.8995,-441.8285C1992.5121,-431.6258 2017.6851,-414.9822 2039,-400 2057.9809,-386.6584 2059.9174,-378.6848 2081,-369 2146.0531,-339.1164 2173.8784,-364.8332 2238,-333 2272.7614,-315.7427 2277.2047,-304.0849 2305,-277 2371.8285,-211.8796 2442.5738,-125.8229 2471.9503,-89.208"/>
<polygon fill="#191970" stroke="#191970" points="2474.6877,-91.389 2478.1946,-81.3914 2469.2185,-87.02 2474.6877,-91.389"/>
</g>
<!-- Node53&#45;&gt;Node39 -->
<g id="edge127" class="edge">
<title>Node53&#45;&gt;Node39</title>
<path fill="none" stroke="#191970" d="M1969.2094,-441.7613C1982.2137,-424.8094 2011.2169,-389.7131 2043,-369 2140.0976,-305.7216 2221.0712,-372.3179 2287,-277 2315.829,-235.3199 2243.5348,-189.7674 2228,-154 2219.0647,-133.4274 2213.3434,-108.2539 2210.1656,-91.164"/>
<polygon fill="#191970" stroke="#191970" points="2213.5996,-90.482 2208.4364,-81.2304 2206.7033,-91.6825 2213.5996,-90.482"/>
</g>
<!-- Node53&#45;&gt;Node41 -->
<g id="edge107" class="edge">
<title>Node53&#45;&gt;Node41</title>
<path fill="none" stroke="#191970" d="M1988.4829,-441.8852C2011.9246,-432.7896 2046.5734,-417.888 2074,-400 2091.4051,-388.6482 2090.5089,-378.4806 2109,-369 2173.4749,-335.9431 2203.058,-365.1296 2268,-333 2345.7482,-294.5347 2500.3087,-179.8872 2541,-87 2546.5284,-74.38 2549.1906,-67.0789 2541,-56 2528.0776,-38.5207 2472.9626,-24.9564 2433.2891,-17.2196"/>
<polygon fill="#191970" stroke="#191970" points="2433.7939,-13.7531 2423.3175,-15.3329 2432.4924,-20.631 2433.7939,-13.7531"/>
</g>
<!-- Node53&#45;&gt;Node42 -->
<g id="edge116" class="edge">
<title>Node53&#45;&gt;Node42</title>
<path fill="none" stroke="#191970" d="M2005.3301,-450.9688C2205.4194,-448.3337 3034.9658,-435.3481 3145,-400 3204.6216,-380.8468 3263,-385.6225 3263,-323 3263,-323 3263,-323 3263,-138.5 3263,-98.195 3245.596,-53.5903 3234.3445,-28.9654"/>
<polygon fill="#191970" stroke="#191970" points="3237.4056,-27.2511 3229.9678,-19.7058 3231.0769,-30.2425 3237.4056,-27.2511"/>
</g>
<!-- Node53&#45;&gt;Node43 -->
<g id="edge117" class="edge">
<title>Node53&#45;&gt;Node43</title>
<path fill="none" stroke="#191970" d="M2005.1698,-451.1534C2199.8558,-449.3727 2991.1121,-439.7302 3094,-400 3144.0594,-380.6696 3187,-376.662 3187,-323 3187,-323 3187,-323 3187,-138.5 3187,-68.7085 2952.1078,-28.9661 2853.6354,-15.3715"/>
<polygon fill="#191970" stroke="#191970" points="2854.0893,-11.9011 2843.7098,-14.0263 2853.1491,-18.8377 2854.0893,-11.9011"/>
</g>
<!-- Node53&#45;&gt;Node47 -->
<g id="edge119" class="edge">
<title>Node53&#45;&gt;Node47</title>
<path fill="none" stroke="#191970" d="M1953.268,-441.7158C1945.1812,-431.9452 1933.7162,-416.1016 1929,-400 1909.8851,-334.7397 1941.9591,-254.8414 1959.1783,-218.9924"/>
<polygon fill="#191970" stroke="#191970" points="1962.4695,-220.2337 1963.7798,-209.7202 1956.1992,-217.1219 1962.4695,-220.2337"/>
</g>
<!-- Node53&#45;&gt;Node48 -->
<g id="edge108" class="edge">
<title>Node53&#45;&gt;Node48</title>
<path fill="none" stroke="#191970" d="M2005.1133,-450.8102C2200.1121,-447.5153 2991.8951,-432.1911 3033,-400 3064.2363,-375.5374 3070.271,-348.7189 3053,-313 3045.3911,-297.2636 3030.3802,-284.8703 3016.6993,-276.1884"/>
<polygon fill="#191970" stroke="#191970" points="3018.3781,-273.1148 3007.9922,-271.0213 3014.8057,-279.1347 3018.3781,-273.1148"/>
</g>
<!-- Node54 -->
<g id="node55" class="node">
<title>Node54</title>
<g id="a_node55"><a xlink:href="WignerD_8h.html" target="_top" xlink:title="WignerD.h">
<polygon fill="none" stroke="#000000" points="2696,-129 2696,-148 2764,-148 2764,-129 2696,-129"/>
<text text-anchor="middle" x="2730" y="-136" font-family="Helvetica,sans-Serif" font-size="10.00" fill="#000000">WignerD.h</text>
</a>
</g>
</g>
<!-- Node53&#45;&gt;Node54 -->
<g id="edge94" class="edge">
<title>Node53&#45;&gt;Node54</title>
<path fill="none" stroke="#191970" d="M2005.0057,-450.5683C2202.3223,-446.1561 3013.3766,-426.4682 3060,-400 3095.6968,-379.7348 3111,-364.048 3111,-323 3111,-323 3111,-323 3111,-261.5 3111,-191.4314 2874.6853,-155.4385 2774.2793,-143.308"/>
<polygon fill="#191970" stroke="#191970" points="2774.4885,-139.8084 2764.1465,-142.1093 2773.6661,-146.76 2774.4885,-139.8084"/>
</g>
<!-- Node57 -->
<g id="node58" class="node">
<title>Node57</title>
<polygon fill="none" stroke="#bfbfbf" points="2589,-62 2589,-81 2645,-81 2645,-62 2589,-62"/>
<text text-anchor="middle" x="2617" y="-69" font-family="Helvetica,sans-Serif" font-size="10.00" fill="#000000">numeric</text>
</g>
<!-- Node53&#45;&gt;Node57 -->
<g id="edge121" class="edge">
<title>Node53&#45;&gt;Node57</title>
<path fill="none" stroke="#191970" d="M1998.2397,-441.9724C2028.7491,-433.2167 2073.0363,-418.76 2109,-400 2129.8886,-389.1037 2130.0806,-377.6372 2152,-369 2270.3737,-322.3555 2321.5071,-388.4927 2436,-333 2539.2084,-282.9767 2594.0973,-141.9596 2611.1285,-90.5537"/>
<polygon fill="#191970" stroke="#191970" points="2614.4683,-91.6006 2614.192,-81.0093 2607.8032,-89.4612 2614.4683,-91.6006"/>
</g>
<!-- Node58 -->
<g id="node59" class="node">
<title>Node58</title>
<g id="a_node59"><a xlink:href="serialization__eigen_8h.html" target="_top" xlink:title="serialization_eigen.h">
<polygon fill="none" stroke="#000000" points="1757,-313.5 1757,-332.5 1875,-332.5 1875,-313.5 1757,-313.5"/>
<text text-anchor="middle" x="1816" y="-320.5" font-family="Helvetica,sans-Serif" font-size="10.00" fill="#000000">serialization_eigen.h</text>
</a>
</g>
</g>
<!-- Node53&#45;&gt;Node58 -->
<g id="edge102" class="edge">
<title>Node53&#45;&gt;Node58</title>
<path fill="none" stroke="#191970" d="M1947.3096,-441.9288C1932.5557,-432.0704 1909.4284,-415.9376 1891,-400 1868.8836,-380.8729 1845.744,-356.3141 1831.1189,-340.138"/>
<polygon fill="#191970" stroke="#191970" points="1833.5746,-337.6336 1824.2976,-332.5162 1828.3586,-342.3019 1833.5746,-337.6336"/>
</g>
<!-- Node59 -->
<g id="node60" class="node">
<title>Node59</title>
<g id="a_node60"><a xlink:href="serialization__path_8h.html" target="_top" xlink:title="serialization_path.h">
<polygon fill="none" stroke="#000000" points="2931.5,-313.5 2931.5,-332.5 3044.5,-332.5 3044.5,-313.5 2931.5,-313.5"/>
<text text-anchor="middle" x="2988" y="-320.5" font-family="Helvetica,sans-Serif" font-size="10.00" fill="#000000">serialization_path.h</text>
</a>
</g>
</g>
<!-- Node53&#45;&gt;Node59 -->
<g id="edge104" class="edge">
<title>Node53&#45;&gt;Node59</title>
<path fill="none" stroke="#191970" d="M2005.2646,-451.0306C2199.0909,-448.7208 2979.6382,-437.1336 3015,-400 3030.5567,-383.6639 3016.3124,-357.8573 3003.3225,-340.6833"/>
<polygon fill="#191970" stroke="#191970" points="3005.8035,-338.1834 2996.8085,-332.5851 3000.3491,-342.5709 3005.8035,-338.1834"/>
</g>
<!-- Node60 -->
<g id="node61" class="node">
<title>Node60</title>
<polygon fill="none" stroke="#bfbfbf" points="2161.5,-369.5 2161.5,-399.5 2302.5,-399.5 2302.5,-369.5 2161.5,-369.5"/>
<text text-anchor="start" x="2169.5" y="-387.5" font-family="Helvetica,sans-Serif" font-size="10.00" fill="#000000">unsupported/Eigen/Matrix</text>
<text text-anchor="middle" x="2232" y="-376.5" font-family="Helvetica,sans-Serif" font-size="10.00" fill="#000000">Functions</text>
</g>
<!-- Node53&#45;&gt;Node60 -->
<g id="edge106" class="edge">
<title>Node53&#45;&gt;Node60</title>
<path fill="none" stroke="#191970" d="M2000.3977,-441.9717C2042.2509,-431.5859 2110.1178,-414.7449 2161.5923,-401.9715"/>
<polygon fill="#191970" stroke="#191970" points="2162.4665,-405.3608 2171.3292,-399.5553 2160.7806,-398.5669 2162.4665,-405.3608"/>
</g>
<!-- Node61 -->
<g id="node62" class="node">
<title>Node61</title>
<polygon fill="none" stroke="#bfbfbf" points="2320.5,-369.5 2320.5,-399.5 2463.5,-399.5 2463.5,-369.5 2320.5,-369.5"/>
<text text-anchor="start" x="2328.5" y="-387.5" font-family="Helvetica,sans-Serif" font-size="10.00" fill="#000000">boost/multi_index/hashed</text>
<text text-anchor="middle" x="2392" y="-376.5" font-family="Helvetica,sans-Serif" font-size="10.00" fill="#000000">_index.hpp</text>
</g>
<!-- Node53&#45;&gt;Node61 -->
<g id="edge109" class="edge">
<title>Node53&#45;&gt;Node61</title>
<path fill="none" stroke="#191970" d="M2005.0758,-445.7446C2069.1976,-437.0455 2193.7833,-419.6377 2310.3097,-400.0737"/>
<polygon fill="#191970" stroke="#191970" points="2311.1982,-403.4733 2320.4762,-398.3577 2310.0331,-396.5709 2311.1982,-403.4733"/>
</g>
<!-- Node62 -->
<g id="node63" class="node">
<title>Node62</title>
<polygon fill="none" stroke="#bfbfbf" points="2482,-375 2482,-394 2650,-394 2650,-375 2482,-375"/>
<text text-anchor="middle" x="2566" y="-382" font-family="Helvetica,sans-Serif" font-size="10.00" fill="#000000">boost/multi_index/member.hpp</text>
</g>
<!-- Node53&#45;&gt;Node62 -->
<g id="edge110" class="edge">
<title>Node53&#45;&gt;Node62</title>
<path fill="none" stroke="#191970" d="M2005.0918,-448.0682C2093.054,-440.8602 2299.535,-422.904 2472,-400 2481.7145,-398.7099 2491.9676,-397.1866 2501.9895,-395.6073"/>
<polygon fill="#191970" stroke="#191970" points="2502.5869,-399.0563 2511.9059,-394.0159 2501.4776,-392.1448 2502.5869,-399.0563"/>
</g>
<!-- Node63 -->
<g id="node64" class="node">
<title>Node63</title>
<polygon fill="none" stroke="#bfbfbf" points="2668.5,-369.5 2668.5,-399.5 2813.5,-399.5 2813.5,-369.5 2668.5,-369.5"/>
<text text-anchor="start" x="2676.5" y="-387.5" font-family="Helvetica,sans-Serif" font-size="10.00" fill="#000000">boost/multi_index/random</text>
<text text-anchor="middle" x="2741" y="-376.5" font-family="Helvetica,sans-Serif" font-size="10.00" fill="#000000">_access_index.hpp</text>
</g>
<!-- Node53&#45;&gt;Node63 -->
<g id="edge111" class="edge">
<title>Node53&#45;&gt;Node63</title>
<path fill="none" stroke="#191970" d="M2005.0012,-450.0151C2113.0652,-445.9219 2404.8396,-432.6334 2658.0633,-400.0223"/>
<polygon fill="#191970" stroke="#191970" points="2658.7262,-403.4657 2668.1911,-398.7049 2657.8232,-396.5242 2658.7262,-403.4657"/>
</g>
<!-- Node64 -->
<g id="node65" class="node">
<title>Node64</title>
<polygon fill="none" stroke="#bfbfbf" points="2831.5,-375 2831.5,-394 3006.5,-394 3006.5,-375 2831.5,-375"/>
<text text-anchor="middle" x="2919" y="-382" font-family="Helvetica,sans-Serif" font-size="10.00" fill="#000000">boost/multi_index_container.hpp</text>
</g>
<!-- Node53&#45;&gt;Node64 -->
<g id="edge112" class="edge">
<title>Node53&#45;&gt;Node64</title>
<path fill="none" stroke="#191970" d="M2005.0792,-450.4229C2131.0858,-446.9496 2509.7653,-434.2111 2822,-400 2832.8377,-398.8125 2844.3116,-397.2515 2855.4282,-395.5776"/>
<polygon fill="#191970" stroke="#191970" points="2856.1621,-399.0057 2865.5084,-394.016 2855.0904,-392.0883 2856.1621,-399.0057"/>
</g>
<!-- Node65 -->
<g id="node66" class="node">
<title>Node65</title>
<polygon fill="none" stroke="#bfbfbf" points="1175.5,-369.5 1175.5,-399.5 1282.5,-399.5 1282.5,-369.5 1175.5,-369.5"/>
<text text-anchor="start" x="1183.5" y="-387.5" font-family="Helvetica,sans-Serif" font-size="10.00" fill="#000000">boost/serialization</text>
<text text-anchor="middle" x="1229" y="-376.5" font-family="Helvetica,sans-Serif" font-size="10.00" fill="#000000">/complex.hpp</text>
</g>
<!-- Node53&#45;&gt;Node65 -->
<g id="edge113" class="edge">
<title>Node53&#45;&gt;Node65</title>
<path fill="none" stroke="#191970" d="M1918.92,-450.7026C1813.4305,-448.2147 1533.7685,-438.3856 1292.6572,-400.1088"/>
<polygon fill="#191970" stroke="#191970" points="1293.0824,-396.6323 1282.6536,-398.5007 1291.9713,-403.5436 1293.0824,-396.6323"/>
</g>
<!-- Node66 -->
<g id="node67" class="node">
<title>Node66</title>
<polygon fill="none" stroke="#bfbfbf" points="1300.5,-369.5 1300.5,-399.5 1407.5,-399.5 1407.5,-369.5 1300.5,-369.5"/>
<text text-anchor="start" x="1308.5" y="-387.5" font-family="Helvetica,sans-Serif" font-size="10.00" fill="#000000">boost/serialization</text>
<text text-anchor="middle" x="1354" y="-376.5" font-family="Helvetica,sans-Serif" font-size="10.00" fill="#000000">/set.hpp</text>
</g>
<!-- Node53&#45;&gt;Node66 -->
<g id="edge114" class="edge">
<title>Node53&#45;&gt;Node66</title>
<path fill="none" stroke="#191970" d="M1918.8839,-449.6479C1827.8342,-445.2609 1609.2244,-432.2195 1417.6316,-400.1334"/>
<polygon fill="#191970" stroke="#191970" points="1418.1078,-396.6642 1407.6633,-398.4424 1416.9371,-403.5656 1418.1078,-396.6642"/>
</g>
<!-- Node67 -->
<g id="node68" class="node">
<title>Node67</title>
<polygon fill="none" stroke="#bfbfbf" points="1425.5,-369.5 1425.5,-399.5 1532.5,-399.5 1532.5,-369.5 1425.5,-369.5"/>
<text text-anchor="start" x="1433.5" y="-387.5" font-family="Helvetica,sans-Serif" font-size="10.00" fill="#000000">boost/serialization</text>
<text text-anchor="middle" x="1479" y="-376.5" font-family="Helvetica,sans-Serif" font-size="10.00" fill="#000000">/vector.hpp</text>
</g>
<!-- Node53&#45;&gt;Node67 -->
<g id="edge115" class="edge">
<title>Node53&#45;&gt;Node67</title>
<path fill="none" stroke="#191970" d="M1918.7019,-447.9779C1843.8913,-441.5077 1685.4891,-426.1181 1542.9163,-400.232"/>
<polygon fill="#191970" stroke="#191970" points="1543.1478,-396.716 1532.6798,-398.3501 1541.882,-403.6006 1543.1478,-396.716"/>
</g>
<!-- Node68 -->
<g id="node69" class="node">
<title>Node68</title>
<polygon fill="none" stroke="#bfbfbf" points="1550.5,-375 1550.5,-394 1603.5,-394 1603.5,-375 1550.5,-375"/>
<text text-anchor="middle" x="1577" y="-382" font-family="Helvetica,sans-Serif" font-size="10.00" fill="#000000">iterator</text>
</g>
<!-- Node53&#45;&gt;Node68 -->
<g id="edge118" class="edge">
<title>Node53&#45;&gt;Node68</title>
<path fill="none" stroke="#191970" d="M1918.9161,-448.922C1852.0662,-444.088 1719.824,-431.18 1612,-400 1609.8733,-399.385 1607.7075,-398.6676 1605.5486,-397.8849"/>
<polygon fill="#191970" stroke="#191970" points="1606.8559,-394.6382 1596.2723,-394.1499 1604.2413,-401.1316 1606.8559,-394.6382"/>
</g>
<!-- Node69 -->
<g id="node70" class="node">
<title>Node69</title>
<polygon fill="none" stroke="#bfbfbf" points="1621.5,-375 1621.5,-394 1686.5,-394 1686.5,-375 1621.5,-375"/>
<text text-anchor="middle" x="1654" y="-382" font-family="Helvetica,sans-Serif" font-size="10.00" fill="#000000">stdexcept</text>
</g>
<!-- Node53&#45;&gt;Node69 -->
<g id="edge123" class="edge">
<title>Node53&#45;&gt;Node69</title>
<path fill="none" stroke="#191970" d="M1918.6771,-444.6415C1866.5901,-436.0081 1776.7207,-419.8748 1701,-400 1697.6576,-399.1227 1694.2054,-398.1385 1690.7604,-397.1026"/>
<polygon fill="#191970" stroke="#191970" points="1691.7568,-393.7471 1681.1676,-394.0924 1689.6608,-400.426 1691.7568,-393.7471"/>
</g>
<!-- Node54&#45;&gt;Node15 -->
<g id="edge97" class="edge">
<title>Node54&#45;&gt;Node15</title>
<path fill="none" stroke="#191970" d="M2695.8854,-137.0924C2623.3845,-134.1388 2448.6031,-127.2195 2302,-123 2114.7015,-117.6092 798.4319,-129.7596 616,-87 613.7969,-86.4836 611.5655,-85.8092 609.3567,-85.0309"/>
<polygon fill="#191970" stroke="#191970" points="610.5529,-81.7377 599.976,-81.1223 607.8606,-88.1992 610.5529,-81.7377"/>
</g>
<!-- Node54&#45;&gt;Node17 -->
<g id="edge100" class="edge">
<title>Node54&#45;&gt;Node17</title>
<path fill="none" stroke="#191970" d="M2695.8323,-137.1723C2526.0443,-130.5293 1777.1477,-100.6777 1674,-87 1661.7146,-85.3709 1648.404,-82.71 1636.6638,-80.0489"/>
<polygon fill="#191970" stroke="#191970" points="1637.3514,-76.6153 1626.816,-77.7363 1635.751,-83.4299 1637.3514,-76.6153"/>
</g>
<!-- Node54&#45;&gt;Node42 -->
<g id="edge98" class="edge">
<title>Node54&#45;&gt;Node42</title>
<path fill="none" stroke="#191970" d="M2764.2156,-131.5914C2809.454,-122.293 2891.5571,-104.8482 2961,-87 3041.4146,-66.3318 3134.4045,-38.2105 3185.7749,-22.3002"/>
<polygon fill="#191970" stroke="#191970" points="3186.966,-25.5952 3195.478,-19.2867 3184.8898,-18.9102 3186.966,-25.5952"/>
</g>
<!-- Node55 -->
<g id="node56" class="node">
<title>Node55</title>
<polygon fill="none" stroke="#bfbfbf" points="2663,-56.5 2663,-86.5 2797,-86.5 2797,-56.5 2663,-56.5"/>
<text text-anchor="start" x="2671" y="-74.5" font-family="Helvetica,sans-Serif" font-size="10.00" fill="#000000">boost/math/special</text>
<text text-anchor="middle" x="2730" y="-63.5" font-family="Helvetica,sans-Serif" font-size="10.00" fill="#000000">_functions/binomial.hpp</text>
</g>
<!-- Node54&#45;&gt;Node55 -->
<g id="edge95" class="edge">
<title>Node54&#45;&gt;Node55</title>
<path fill="none" stroke="#191970" d="M2730,-128.9005C2730,-120.5099 2730,-107.9451 2730,-96.7085"/>
<polygon fill="#191970" stroke="#191970" points="2733.5001,-96.5217 2730,-86.5218 2726.5001,-96.5218 2733.5001,-96.5217"/>
</g>
<!-- Node56 -->
<g id="node57" class="node">
<title>Node56</title>
<polygon fill="none" stroke="#bfbfbf" points="2815.5,-56.5 2815.5,-86.5 2952.5,-86.5 2952.5,-56.5 2815.5,-56.5"/>
<text text-anchor="start" x="2823.5" y="-74.5" font-family="Helvetica,sans-Serif" font-size="10.00" fill="#000000">boost/math/special</text>
<text text-anchor="middle" x="2884" y="-63.5" font-family="Helvetica,sans-Serif" font-size="10.00" fill="#000000">_functions/factorials.hpp</text>
</g>
<!-- Node54&#45;&gt;Node56 -->
<g id="edge96" class="edge">
<title>Node54&#45;&gt;Node56</title>
<path fill="none" stroke="#191970" d="M2752.0644,-128.9005C2774.9293,-118.9528 2811.2793,-103.1382 2840.0401,-90.6254"/>
<polygon fill="#191970" stroke="#191970" points="2841.6989,-93.7207 2849.4724,-86.5218 2838.9063,-87.3018 2841.6989,-93.7207"/>
</g>
<!-- Node54&#45;&gt;Node57 -->
<g id="edge99" class="edge">
<title>Node54&#45;&gt;Node57</title>
<path fill="none" stroke="#191970" d="M2713.8099,-128.9005C2695.0137,-117.7559 2663.7984,-99.2477 2641.9076,-86.2682"/>
<polygon fill="#191970" stroke="#191970" points="2643.5469,-83.1712 2633.1601,-81.0817 2639.9767,-89.1924 2643.5469,-83.1712"/>
</g>
<!-- Node58&#45;&gt;Node13 -->
<g id="edge103" class="edge">
<title>Node58&#45;&gt;Node13</title>
<path fill="none" stroke="#191970" d="M1803.4692,-313.2295C1778.7693,-293.8954 1722.1836,-249.2295 1676,-210 1625.4331,-167.0472 1567.5534,-114.3553 1538.9453,-88.0667"/>
<polygon fill="#191970" stroke="#191970" points="1541.0922,-85.2858 1531.3643,-81.0882 1536.3513,-90.436 1541.0922,-85.2858"/>
</g>
<!-- Node59&#45;&gt;Node48 -->
<g id="edge105" class="edge">
<title>Node59&#45;&gt;Node48</title>
<path fill="none" stroke="#191970" d="M2988,-313.3906C2988,-304.8657 2988,-292.1392 2988,-281.4235"/>
<polygon fill="#191970" stroke="#191970" points="2991.5001,-281.2448 2988,-271.2449 2984.5001,-281.2449 2991.5001,-281.2448"/>
</g>
</g>
</svg>
