<?xml version="1.0" encoding="UTF-8" standalone="no"?>
<!DOCTYPE svg PUBLIC "-//W3C//DTD SVG 1.1//EN"
 "http://www.w3.org/Graphics/SVG/1.1/DTD/svg11.dtd">
<!-- Generated by graphviz version 2.40.1 (20161225.0304)
 -->
<!-- Title: /travis/pairinteraction/SystemOne.h Pages: 1 -->
<svg width="359pt" height="184pt"
 viewBox="0.00 0.00 359.00 184.00" xmlns="http://www.w3.org/2000/svg" xmlns:xlink="http://www.w3.org/1999/xlink">
<g id="graph0" class="graph" transform="scale(1 1) rotate(0) translate(4 180)">
<title>/travis/pairinteraction/SystemOne.h</title>
<!-- Node71 -->
<g id="node1" class="node">
<title>Node71</title>
<polygon fill="#bfbfbf" stroke="#000000" points="140,-145.5 140,-175.5 262,-175.5 262,-145.5 140,-145.5"/>
<text text-anchor="start" x="148" y="-163.5" font-family="Helvetica,sans-Serif" font-size="10.00" fill="#000000">/travis/pairinteraction</text>
<text text-anchor="middle" x="201" y="-152.5" font-family="Helvetica,sans-Serif" font-size="10.00" fill="#000000">/SystemOne.h</text>
</g>
<!-- Node72 -->
<g id="node2" class="node">
<title>Node72</title>
<g id="a_node2"><a xlink:href="SystemOne_8cpp.html" target="_top" xlink:title="/travis/pairinteraction\l/SystemOne.cpp">
<polygon fill="none" stroke="#000000" points="0,-78.5 0,-108.5 122,-108.5 122,-78.5 0,-78.5"/>
<text text-anchor="start" x="8" y="-96.5" font-family="Helvetica,sans-Serif" font-size="10.00" fill="#000000">/travis/pairinteraction</text>
<text text-anchor="middle" x="61" y="-85.5" font-family="Helvetica,sans-Serif" font-size="10.00" fill="#000000">/SystemOne.cpp</text>
</a>
</g>
</g>
<!-- Node71&#45;&gt;Node72 -->
<g id="edge1" class="edge">
<title>Node71&#45;&gt;Node72</title>
<path fill="none" stroke="#191970" d="M160.362,-141.0518C138.8498,-130.7567 112.819,-118.2991 92.7983,-108.7177"/>
<polygon fill="#191970" stroke="#191970" points="159.0501,-144.3041 169.5813,-145.4639 162.0719,-137.9899 159.0501,-144.3041"/>
</g>
<!-- Node73 -->
<g id="node3" class="node">
<title>Node73</title>
<g id="a_node3"><a xlink:href="SystemTwo_8h.html" target="_top" xlink:title="/travis/pairinteraction\l/SystemTwo.h">
<polygon fill="none" stroke="#000000" points="140,-78.5 140,-108.5 262,-108.5 262,-78.5 140,-78.5"/>
<text text-anchor="start" x="148" y="-96.5" font-family="Helvetica,sans-Serif" font-size="10.00" fill="#000000">/travis/pairinteraction</text>
<text text-anchor="middle" x="201" y="-85.5" font-family="Helvetica,sans-Serif" font-size="10.00" fill="#000000">/SystemTwo.h</text>
</a>
</g>
</g>
<!-- Node71&#45;&gt;Node73 -->
<g id="edge2" class="edge">
<title>Node71&#45;&gt;Node73</title>
<path fill="none" stroke="#191970" d="M201,-135.0249C201,-126.128 201,-116.4287 201,-108.6432"/>
<polygon fill="#191970" stroke="#191970" points="197.5001,-135.2966 201,-145.2967 204.5001,-135.2967 197.5001,-135.2966"/>
</g>
<!-- Node75 -->
<g id="node5" class="node">
<title>Node75</title>
<g id="a_node5"><a xlink:href="integration__test_8cpp.html" target="_top" xlink:title="/travis/pairinteraction\l/unit_test/integration\l_test.cpp">
<polygon fill="none" stroke="#000000" points="229,-.5 229,-41.5 351,-41.5 351,-.5 229,-.5"/>
<text text-anchor="start" x="237" y="-29.5" font-family="Helvetica,sans-Serif" font-size="10.00" fill="#000000">/travis/pairinteraction</text>
<text text-anchor="start" x="237" y="-18.5" font-family="Helvetica,sans-Serif" font-size="10.00" fill="#000000">/unit_test/integration</text>
<text text-anchor="middle" x="290" y="-7.5" font-family="Helvetica,sans-Serif" font-size="10.00" fill="#000000">_test.cpp</text>
</a>
</g>
</g>
<!-- Node71&#45;&gt;Node75 -->
<g id="edge5" class="edge">
<title>Node71&#45;&gt;Node75</title>
<path fill="none" stroke="#191970" d="M239.1276,-139.8877C250.9794,-131.7324 263.0162,-121.3313 271,-109 284.1664,-88.6639 288.3544,-60.6934 289.6095,-41.7884"/>
<polygon fill="#191970" stroke="#191970" points="237.0761,-137.0464 230.5909,-145.4245 240.8853,-142.9193 237.0761,-137.0464"/>
</g>
<!-- Node74 -->
<g id="node4" class="node">
<title>Node74</title>
<g id="a_node4"><a xlink:href="SystemTwo_8cpp.html" target="_top" xlink:title="/travis/pairinteraction\l/SystemTwo.cpp">
<polygon fill="none" stroke="#000000" points="89,-6 89,-36 211,-36 211,-6 89,-6"/>
<text text-anchor="start" x="97" y="-24" font-family="Helvetica,sans-Serif" font-size="10.00" fill="#000000">/travis/pairinteraction</text>
<text text-anchor="middle" x="150" y="-13" font-family="Helvetica,sans-Serif" font-size="10.00" fill="#000000">/SystemTwo.cpp</text>
</a>
</g>
</g>
<!-- Node73&#45;&gt;Node74 -->
<g id="edge3" class="edge">
<title>Node73&#45;&gt;Node74</title>
<path fill="none" stroke="#191970" d="M184.4781,-70.013C176.6197,-58.8418 167.4573,-45.8167 160.5537,-36.0028"/>
<polygon fill="#191970" stroke="#191970" points="181.8165,-72.3126 190.4328,-78.478 187.5419,-68.2851 181.8165,-72.3126"/>
</g>
<!-- Node73&#45;&gt;Node75 -->
<g id="edge4" class="edge">
<title>Node73&#45;&gt;Node75</title>
<path fill="none" stroke="#191970" d="M227.2702,-72.1001C239.1387,-62.432 253.0987,-51.06 264.8326,-41.5015"/>
<polygon fill="#191970" stroke="#191970" points="224.9835,-69.4486 219.4409,-78.478 229.4045,-74.8758 224.9835,-69.4486"/>
</g>
</g>
</svg>
