<?xml version="1.0" encoding="UTF-8" standalone="no"?>
<!DOCTYPE svg PUBLIC "-//W3C//DTD SVG 1.1//EN"
 "http://www.w3.org/Graphics/SVG/1.1/DTD/svg11.dtd">
<!-- Generated by graphviz version 2.40.1 (20161225.0304)
 -->
<!-- Title: /travis/pairinteraction/SystemOne.cpp Pages: 1 -->
<!--zoomable 609 -->
<svg id="main" version="1.1" xmlns="http://www.w3.org/2000/svg" xmlns:xlink="http://www.w3.org/1999/xlink" xml:space="preserve" onload="init(evt)">
<style type="text/css"><![CDATA[
.edge:hover path { stroke: red; }
.edge:hover polygon { stroke: red; fill: red; }
]]></style>
<script type="text/javascript"><![CDATA[
var edges = document.getElementsByTagName('g');
if (edges && edges.length) {
  for (var i=0;i<edges.length;i++) {
    if (edges[i].id.substr(0,4)=='edge') {
      edges[i].setAttribute('class','edge');
    }
  }
}
]]></script>
        <defs>
                <circle id="rim" cx="0" cy="0" r="7"/>
                <circle id="rim2" cx="0" cy="0" r="3.5"/>
                <g id="zoomPlus">
                        <use xlink:href="#rim" fill="#404040">
                                <set attributeName="fill" to="#808080" begin="zoomplus.mouseover" end="zoomplus.mouseout"/>
                        </use>
                        <path d="M-4,0h8M0,-4v8" fill="none" stroke="white" stroke-width="1.5" pointer-events="none"/>
                </g>
                <g id="zoomMin">
                        <use xlink:href="#rim" fill="#404040">
                                <set attributeName="fill" to="#808080" begin="zoomminus.mouseover" end="zoomminus.mouseout"/>
                        </use>
                        <path d="M-4,0h8" fill="none" stroke="white" stroke-width="1.5" pointer-events="none"/>
                </g>
                <g id="dirArrow">
                        <path fill="none" stroke="white" stroke-width="1.5" d="M0,-3.0v7 M-2.5,-0.5L0,-3.0L2.5,-0.5"/>
                </g>
               <g id="resetDef">
                       <use xlink:href="#rim2" fill="#404040">
                               <set attributeName="fill" to="#808080" begin="reset.mouseover" end="reset.mouseout"/>
                       </use>
               </g>
        </defs>

<script type="text/javascript">
var viewWidth = 3843;
var viewHeight = 609;
var sectionId = 'dynsection-0';
</script>
<script xlink:href="svgpan.js"/>
<svg id="graph" class="graph">
<g id="viewport">
<title>/travis/pairinteraction/SystemOne.cpp</title>
<!-- Node0 -->
<g id="node1" class="node">
<title>Node0</title>
<polygon fill="#bfbfbf" stroke="#000000" points="2102,-570.5 2102,-600.5 2224,-600.5 2224,-570.5 2102,-570.5"/>
<text text-anchor="start" x="2110" y="-588.5" font-family="Helvetica,sans-Serif" font-size="10.00" fill="#000000">/travis/pairinteraction</text>
<text text-anchor="middle" x="2163" y="-577.5" font-family="Helvetica,sans-Serif" font-size="10.00" fill="#000000">/SystemOne.cpp</text>
</g>
<!-- Node1 -->
<g id="node2" class="node">
<title>Node1</title>
<g id="a_node2"><a xlink:href="SystemOne_8h.html" target="_top" xlink:title="SystemOne.h">
<polygon fill="none" stroke="#000000" points="2910,-514.5 2910,-533.5 2992,-533.5 2992,-514.5 2910,-514.5"/>
<text text-anchor="middle" x="2951" y="-521.5" font-family="Helvetica,sans-Serif" font-size="10.00" fill="#000000">SystemOne.h</text>
</a>
</g>
</g>
<!-- Node0&#45;&gt;Node1 -->
<g id="edge1" class="edge">
<title>Node0&#45;&gt;Node1</title>
<path fill="none" stroke="#191970" d="M2224.1773,-580.7254C2374.6385,-568.9825 2760.5671,-538.8625 2899.8785,-527.9898"/>
<polygon fill="#191970" stroke="#191970" points="2900.1691,-531.4779 2909.8664,-527.2103 2899.6244,-524.4991 2900.1691,-531.4779"/>
</g>
<!-- Node8 -->
<g id="node9" class="node">
<title>Node8</title>
<polygon fill="none" stroke="#bfbfbf" points="2308,-62 2308,-81 2352,-81 2352,-62 2308,-62"/>
<text text-anchor="middle" x="2330" y="-69" font-family="Helvetica,sans-Serif" font-size="10.00" fill="#000000">string</text>
</g>
<!-- Node0&#45;&gt;Node8 -->
<g id="edge143" class="edge">
<title>Node0&#45;&gt;Node8</title>
<path fill="none" stroke="#191970" d="M2197.4348,-570.403C2263.7124,-539.2208 2407.6138,-460.7118 2466,-344 2485.4908,-305.0387 2482.4649,-287.0931 2468,-246 2449.4156,-193.2036 2418.328,-196.5807 2382,-154 2364.8225,-133.8659 2349.2341,-107.5593 2339.699,-90.1257"/>
<polygon fill="#191970" stroke="#191970" points="2342.6208,-88.1673 2334.8181,-81.0001 2336.4482,-91.4688 2342.6208,-88.1673"/>
</g>
<!-- Node12 -->
<g id="node13" class="node">
<title>Node12</title>
<g id="a_node13"><a xlink:href="dtypes_8h.html" target="_top" xlink:title="dtypes.h">
<polygon fill="none" stroke="#000000" points="1621.5,-129 1621.5,-148 1680.5,-148 1680.5,-129 1621.5,-129"/>
<text text-anchor="middle" x="1651" y="-136" font-family="Helvetica,sans-Serif" font-size="10.00" fill="#000000">dtypes.h</text>
</a>
</g>
</g>
<!-- Node0&#45;&gt;Node12 -->
<g id="edge138" class="edge">
<title>Node0&#45;&gt;Node12</title>
<path fill="none" stroke="#191970" d="M2158.4445,-570.4878C2145.6359,-531.1796 2105.2406,-425.1676 2030,-380 1949.1153,-331.4442 1696.0859,-375.0435 1607,-344 1511.4685,-310.7105 1466.6234,-301.2769 1423,-210 1419.167,-201.98 1417.4501,-196.9434 1423,-190 1446.1253,-161.0686 1552.1952,-147.2117 1611.1651,-141.6413"/>
<polygon fill="#191970" stroke="#191970" points="1611.6068,-145.1157 1621.2495,-140.7261 1610.9741,-138.1444 1611.6068,-145.1157"/>
</g>
<!-- Node16 -->
<g id="node17" class="node">
<title>Node16</title>
<polygon fill="none" stroke="#bfbfbf" points="679.5,-62 679.5,-81 726.5,-81 726.5,-62 679.5,-62"/>
<text text-anchor="middle" x="703" y="-69" font-family="Helvetica,sans-Serif" font-size="10.00" fill="#000000">cmath</text>
</g>
<!-- Node0&#45;&gt;Node16 -->
<g id="edge140" class="edge">
<title>Node0&#45;&gt;Node16</title>
<path fill="none" stroke="#191970" d="M2101.9462,-584.689C1795.1885,-580.4976 433.4687,-560.4619 348,-534 205.7397,-489.9549 136.9954,-477.9909 72,-344 43.4235,-285.0883 125.4659,-279.0319 182,-246 283.1059,-186.9255 303.9119,-160.0355 415,-123 503.9931,-93.3307 614.4758,-79.6662 669.1232,-74.3556"/>
<polygon fill="#191970" stroke="#191970" points="669.6558,-77.8211 679.2853,-73.4026 669.0021,-70.8517 669.6558,-77.8211"/>
</g>
<!-- Node18 -->
<g id="node19" class="node">
<title>Node18</title>
<polygon fill="none" stroke="#bfbfbf" points="1274.5,-62 1274.5,-81 1321.5,-81 1321.5,-62 1274.5,-62"/>
<text text-anchor="middle" x="1298" y="-69" font-family="Helvetica,sans-Serif" font-size="10.00" fill="#000000">vector</text>
</g>
<!-- Node0&#45;&gt;Node18 -->
<g id="edge147" class="edge">
<title>Node0&#45;&gt;Node18</title>
<path fill="none" stroke="#191970" d="M2101.6381,-585.1363C1843.245,-583.3624 842.6556,-573.9981 530,-534 385.8355,-515.557 294.0286,-539.9602 227,-411 206.5767,-371.7065 182.3044,-348.3331 209,-313 255.5822,-251.346 802.2575,-138.3037 878,-123 1019.7778,-94.354 1191.9134,-79.308 1263.8436,-73.8872"/>
<polygon fill="#191970" stroke="#191970" points="1264.3966,-77.356 1274.1112,-73.128 1263.8803,-70.375 1264.3966,-77.356"/>
</g>
<!-- Node27 -->
<g id="node28" class="node">
<title>Node27</title>
<polygon fill="none" stroke="#bfbfbf" points="1171,-190.5 1171,-209.5 1257,-209.5 1257,-190.5 1171,-190.5"/>
<text text-anchor="middle" x="1214" y="-197.5" font-family="Helvetica,sans-Serif" font-size="10.00" fill="#000000">unordered_set</text>
</g>
<!-- Node0&#45;&gt;Node27 -->
<g id="edge145" class="edge">
<title>Node0&#45;&gt;Node27</title>
<path fill="none" stroke="#191970" d="M2101.6963,-581.8715C1912.0484,-570.1234 1343.857,-530.8059 1281,-478 1202.5463,-412.0914 1207.0448,-271.7611 1211.7345,-219.848"/>
<polygon fill="#191970" stroke="#191970" points="1215.2411,-219.9587 1212.766,-209.657 1208.2766,-219.2537 1215.2411,-219.9587"/>
</g>
<!-- Node37 -->
<g id="node38" class="node">
<title>Node37</title>
<polygon fill="none" stroke="#bfbfbf" points="3380.5,-.5 3380.5,-19.5 3449.5,-19.5 3449.5,-.5 3380.5,-.5"/>
<text text-anchor="middle" x="3415" y="-7.5" font-family="Helvetica,sans-Serif" font-size="10.00" fill="#000000">type_traits</text>
</g>
<!-- Node0&#45;&gt;Node37 -->
<g id="edge144" class="edge">
<title>Node0&#45;&gt;Node37</title>
<path fill="none" stroke="#191970" d="M2224.0242,-584.0467C2516.0773,-576.6988 3757,-540.867 3757,-462.5 3757,-462.5 3757,-462.5 3757,-138.5 3757,-96.7335 3746.1726,-80.0141 3712,-56 3672.1753,-28.014 3532.6457,-16.3875 3459.8954,-12.1396"/>
<polygon fill="#191970" stroke="#191970" points="3459.8466,-8.6315 3449.6661,-11.5654 3459.4542,-15.6205 3459.8466,-8.6315"/>
</g>
<!-- Node40 -->
<g id="node41" class="node">
<title>Node40</title>
<polygon fill="none" stroke="#bfbfbf" points="2830.5,-62 2830.5,-81 2875.5,-81 2875.5,-62 2830.5,-62"/>
<text text-anchor="middle" x="2853" y="-69" font-family="Helvetica,sans-Serif" font-size="10.00" fill="#000000">utility</text>
</g>
<!-- Node0&#45;&gt;Node40 -->
<g id="edge146" class="edge">
<title>Node0&#45;&gt;Node40</title>
<path fill="none" stroke="#191970" d="M2224.3307,-582.6095C2462.0785,-571.0885 3315.1951,-526.7005 3426,-478 3468.458,-459.339 3486.3801,-453.0235 3506,-411 3569.3175,-275.3815 3493.7243,-320.6971 3263,-246 3138.1772,-205.5886 3081.1216,-279.7553 2970,-210 2931.0533,-185.5517 2944.3484,-157.5477 2914,-123 2902.2574,-109.6326 2886.9523,-96.7212 2874.6106,-87.17"/>
<polygon fill="#191970" stroke="#191970" points="2876.7079,-84.3679 2866.6199,-81.1301 2872.4869,-89.9521 2876.7079,-84.3679"/>
</g>
<!-- Node48 -->
<g id="node49" class="node">
<title>Node48</title>
<polygon fill="none" stroke="#bfbfbf" points="1432,-190.5 1432,-209.5 1476,-209.5 1476,-190.5 1432,-190.5"/>
<text text-anchor="middle" x="1454" y="-197.5" font-family="Helvetica,sans-Serif" font-size="10.00" fill="#000000">limits</text>
</g>
<!-- Node0&#45;&gt;Node48 -->
<g id="edge141" class="edge">
<title>Node0&#45;&gt;Node48</title>
<path fill="none" stroke="#191970" d="M2166.838,-570.3625C2175.5261,-532.125 2192.0475,-431.0695 2139,-380 2065.2925,-309.0408 1777.0293,-376.4548 1680,-344 1594.6307,-315.4453 1509.2045,-247.794 1472.575,-216.4577"/>
<polygon fill="#191970" stroke="#191970" points="1474.5806,-213.5644 1464.7314,-209.6601 1469.9962,-218.8543 1474.5806,-213.5644"/>
</g>
<!-- Node58 -->
<g id="node59" class="node">
<title>Node58</title>
<polygon fill="none" stroke="#bfbfbf" points="354,-319 354,-338 410,-338 410,-319 354,-319"/>
<text text-anchor="middle" x="382" y="-326" font-family="Helvetica,sans-Serif" font-size="10.00" fill="#000000">numeric</text>
</g>
<!-- Node0&#45;&gt;Node58 -->
<g id="edge142" class="edge">
<title>Node0&#45;&gt;Node58</title>
<path fill="none" stroke="#191970" d="M2101.9238,-583.6144C1952.1054,-578.6705 1554.513,-563.6221 1224,-534 1003.8525,-514.2694 383.3092,-576.6739 237,-411 227.8799,-400.6728 228.944,-391.1771 237,-380 266.5843,-338.954 297.6332,-361.7873 345,-344 346.8093,-343.3206 348.6611,-342.6063 350.5249,-341.8728"/>
<polygon fill="#191970" stroke="#191970" points="351.8477,-345.1132 359.8033,-338.1161 349.2206,-338.6249 351.8477,-345.1132"/>
</g>
<!-- Node72 -->
<g id="node73" class="node">
<title>Node72</title>
<polygon fill="none" stroke="#bfbfbf" points="3785.5,-514.5 3785.5,-533.5 3834.5,-533.5 3834.5,-514.5 3785.5,-514.5"/>
<text text-anchor="middle" x="3810" y="-521.5" font-family="Helvetica,sans-Serif" font-size="10.00" fill="#000000">cctype</text>
</g>
<!-- Node0&#45;&gt;Node72 -->
<g id="edge139" class="edge">
<title>Node0&#45;&gt;Node72</title>
<path fill="none" stroke="#191970" d="M2224.315,-585.3299C2480.2317,-584.3436 3464.0651,-577.7265 3771,-534 3772.4705,-533.7905 3773.9656,-533.5469 3775.4711,-533.2763"/>
<polygon fill="#191970" stroke="#191970" points="3776.348,-536.6683 3785.4066,-531.1735 3774.8986,-529.82 3776.348,-536.6683"/>
</g>
<!-- Node2 -->
<g id="node3" class="node">
<title>Node2</title>
<g id="a_node3"><a xlink:href="State_8h.html" target="_top" xlink:title="State.h">
<polygon fill="none" stroke="#000000" points="2609.5,-386 2609.5,-405 2660.5,-405 2660.5,-386 2609.5,-386"/>
<text text-anchor="middle" x="2635" y="-393" font-family="Helvetica,sans-Serif" font-size="10.00" fill="#000000">State.h</text>
</a>
</g>
</g>
<!-- Node1&#45;&gt;Node2 -->
<g id="edge2" class="edge">
<title>Node1&#45;&gt;Node2</title>
<path fill="none" stroke="#191970" d="M2951.5584,-514.3117C2951.9312,-497.8734 2950.0966,-464.594 2931,-447 2893.5992,-412.5421 2741.4468,-400.6979 2671.0492,-397.0096"/>
<polygon fill="#191970" stroke="#191970" points="2671.0421,-393.505 2660.8806,-396.5041 2670.6945,-400.4964 2671.0421,-393.505"/>
</g>
<!-- Node15 -->
<g id="node16" class="node">
<title>Node15</title>
<polygon fill="none" stroke="#bfbfbf" points="3331,-62 3331,-81 3373,-81 3373,-62 3331,-62"/>
<text text-anchor="middle" x="3352" y="-69" font-family="Helvetica,sans-Serif" font-size="10.00" fill="#000000">array</text>
</g>
<!-- Node1&#45;&gt;Node15 -->
<g id="edge130" class="edge">
<title>Node1&#45;&gt;Node15</title>
<path fill="none" stroke="#191970" d="M2992.183,-523.0447C3118.6667,-519.0078 3493,-498.3706 3493,-395.5 3493,-395.5 3493,-395.5 3493,-261.5 3493,-183.2132 3414.8515,-116.1852 3374.9138,-87.0422"/>
<polygon fill="#191970" stroke="#191970" points="3376.7342,-84.0418 3366.5584,-81.0916 3372.6734,-89.7436 3376.7342,-84.0418"/>
</g>
<!-- Node1&#45;&gt;Node16 -->
<g id="edge134" class="edge">
<title>Node1&#45;&gt;Node16</title>
<path fill="none" stroke="#191970" d="M2909.8091,-523.8299C2573.5418,-522.2572 289.3145,-508.0157 185,-411 10.04,-248.2817 529.0985,-112.2519 669.166,-79.1779"/>
<polygon fill="#191970" stroke="#191970" points="670.3816,-82.4881 679.3225,-76.8039 668.7884,-75.6719 670.3816,-82.4881"/>
</g>
<!-- Node19 -->
<g id="node20" class="node">
<title>Node19</title>
<polygon fill="none" stroke="#bfbfbf" points="3207.5,-129 3207.5,-148 3350.5,-148 3350.5,-129 3207.5,-129"/>
<text text-anchor="middle" x="3279" y="-136" font-family="Helvetica,sans-Serif" font-size="10.00" fill="#000000">boost/functional/hash.hpp</text>
</g>
<!-- Node1&#45;&gt;Node19 -->
<g id="edge131" class="edge">
<title>Node1&#45;&gt;Node19</title>
<path fill="none" stroke="#191970" d="M2992.0384,-520.5043C3099.1634,-510.2553 3379,-475.7976 3379,-395.5 3379,-395.5 3379,-395.5 3379,-328.5 3379,-257.6685 3323.9044,-187.3068 3295.5042,-155.7424"/>
<polygon fill="#191970" stroke="#191970" points="3297.9388,-153.2195 3288.5884,-148.2373 3292.791,-157.963 3297.9388,-153.2195"/>
</g>
<!-- Node26 -->
<g id="node27" class="node">
<title>Node26</title>
<polygon fill="none" stroke="#bfbfbf" points="1969,-190.5 1969,-209.5 2001,-209.5 2001,-190.5 1969,-190.5"/>
<text text-anchor="middle" x="1985" y="-197.5" font-family="Helvetica,sans-Serif" font-size="10.00" fill="#000000">set</text>
</g>
<!-- Node1&#45;&gt;Node26 -->
<g id="edge135" class="edge">
<title>Node1&#45;&gt;Node26</title>
<path fill="none" stroke="#191970" d="M2909.823,-516.2076C2714.4971,-479.0581 1889.3571,-319.9617 1855,-277 1846.395,-266.2399 1847.0469,-257.2505 1855,-246 1867.2109,-228.7264 1924.5115,-213.3808 1958.8314,-205.5328"/>
<polygon fill="#191970" stroke="#191970" points="1959.6681,-208.9323 1968.6693,-203.344 1958.1478,-202.0993 1959.6681,-208.9323"/>
</g>
<!-- Node32 -->
<g id="node33" class="node">
<title>Node32</title>
<polygon fill="none" stroke="#bfbfbf" points="3582.5,-62 3582.5,-81 3675.5,-81 3675.5,-62 3582.5,-62"/>
<text text-anchor="middle" x="3629" y="-69" font-family="Helvetica,sans-Serif" font-size="10.00" fill="#000000">unordered_map</text>
</g>
<!-- Node1&#45;&gt;Node32 -->
<g id="edge137" class="edge">
<title>Node1&#45;&gt;Node32</title>
<path fill="none" stroke="#191970" d="M2992.186,-523.1204C3092.7073,-520.4806 3348.0602,-510.6649 3426,-478 3489.3162,-451.4639 3681,-315.4226 3681,-261.5 3681,-261.5 3681,-261.5 3681,-200 3681,-158.1451 3657.001,-113.8534 3641.6106,-89.7527"/>
<polygon fill="#191970" stroke="#191970" points="3644.4439,-87.6917 3636.013,-81.2753 3638.6024,-91.5488 3644.4439,-87.6917"/>
</g>
<!-- Node1&#45;&gt;Node37 -->
<g id="edge136" class="edge">
<title>Node1&#45;&gt;Node37</title>
<path fill="none" stroke="#191970" d="M2992.0207,-522.8588C3098.2294,-519.5059 3380.0371,-507.9675 3468,-478 3607.4501,-430.4917 3719,-408.8206 3719,-261.5 3719,-261.5 3719,-261.5 3719,-138.5 3719,-98.6701 3715.2327,-80.7171 3684,-56 3650.0565,-29.1376 3527.5226,-17.1869 3460.1572,-12.5463"/>
<polygon fill="#191970" stroke="#191970" points="3460.0507,-9.0317 3449.8412,-11.8631 3459.588,-16.0164 3460.0507,-9.0317"/>
</g>
<!-- Node50 -->
<g id="node51" class="node">
<title>Node50</title>
<polygon fill="none" stroke="#bfbfbf" points="3119.5,-246.5 3119.5,-276.5 3236.5,-276.5 3236.5,-246.5 3119.5,-246.5"/>
<text text-anchor="start" x="3127.5" y="-264.5" font-family="Helvetica,sans-Serif" font-size="10.00" fill="#000000">boost/serialization</text>
<text text-anchor="middle" x="3178" y="-253.5" font-family="Helvetica,sans-Serif" font-size="10.00" fill="#000000">/unordered_map.hpp</text>
</g>
<!-- Node1&#45;&gt;Node50 -->
<g id="edge133" class="edge">
<title>Node1&#45;&gt;Node50</title>
<path fill="none" stroke="#191970" d="M2959.3483,-514.3462C2991.8354,-476.7785 3110.3708,-339.7055 3157.9938,-284.6349"/>
<polygon fill="#191970" stroke="#191970" points="3160.8524,-286.6801 3164.7461,-276.8267 3155.5575,-282.1013 3160.8524,-286.6801"/>
</g>
<!-- Node54 -->
<g id="node55" class="node">
<title>Node54</title>
<g id="a_node55"><a xlink:href="SystemBase_8h.html" target="_top" xlink:title="SystemBase.h">
<polygon fill="none" stroke="#000000" points="1290,-453 1290,-472 1376,-472 1376,-453 1290,-453"/>
<text text-anchor="middle" x="1333" y="-460" font-family="Helvetica,sans-Serif" font-size="10.00" fill="#000000">SystemBase.h</text>
</a>
</g>
</g>
<!-- Node1&#45;&gt;Node54 -->
<g id="edge92" class="edge">
<title>Node1&#45;&gt;Node54</title>
<path fill="none" stroke="#191970" d="M2909.7876,-522.4335C2687.9582,-514.0018 1636.7481,-474.0454 1386.5408,-464.5351"/>
<polygon fill="#191970" stroke="#191970" points="1386.3856,-461.0267 1376.2598,-464.1443 1386.1197,-468.0217 1386.3856,-461.0267"/>
</g>
<!-- Node71 -->
<g id="node72" class="node">
<title>Node71</title>
<polygon fill="none" stroke="#bfbfbf" points="2815.5,-447.5 2815.5,-477.5 2922.5,-477.5 2922.5,-447.5 2815.5,-447.5"/>
<text text-anchor="start" x="2823.5" y="-465.5" font-family="Helvetica,sans-Serif" font-size="10.00" fill="#000000">boost/serialization</text>
<text text-anchor="middle" x="2869" y="-454.5" font-family="Helvetica,sans-Serif" font-size="10.00" fill="#000000">/base_object.hpp</text>
</g>
<!-- Node1&#45;&gt;Node71 -->
<g id="edge132" class="edge">
<title>Node1&#45;&gt;Node71</title>
<path fill="none" stroke="#191970" d="M2938.1875,-514.3906C2927.2953,-506.2215 2911.2588,-494.1941 2897.3669,-483.7752"/>
<polygon fill="#191970" stroke="#191970" points="2899.1595,-480.7446 2889.0595,-477.5446 2894.9595,-486.3446 2899.1595,-480.7446"/>
</g>
<!-- Node3 -->
<g id="node4" class="node">
<title>Node3</title>
<g id="a_node4"><a xlink:href="MatrixElementCache_8h.html" target="_top" xlink:title="MatrixElementCache.h">
<polygon fill="none" stroke="#000000" points="2276.5,-319 2276.5,-338 2403.5,-338 2403.5,-319 2276.5,-319"/>
<text text-anchor="middle" x="2340" y="-326" font-family="Helvetica,sans-Serif" font-size="10.00" fill="#000000">MatrixElementCache.h</text>
</a>
</g>
</g>
<!-- Node2&#45;&gt;Node3 -->
<g id="edge3" class="edge">
<title>Node2&#45;&gt;Node3</title>
<path fill="none" stroke="#191970" d="M2609.3122,-390.5188C2559.6366,-380.0045 2450.3116,-355.2923 2387.2254,-340.4314"/>
<polygon fill="#191970" stroke="#191970" points="2387.6747,-336.9412 2377.1375,-338.0452 2386.0633,-343.7532 2387.6747,-336.9412"/>
</g>
<!-- Node2&#45;&gt;Node8 -->
<g id="edge87" class="edge">
<title>Node2&#45;&gt;Node8</title>
<path fill="none" stroke="#191970" d="M2629.4419,-385.7864C2606.3951,-345.533 2519.342,-193.7426 2515,-190 2482.3678,-161.8728 2461.7774,-176.4372 2425,-154 2394.4366,-135.3539 2364.0686,-106.7672 2346.1734,-88.6113"/>
<polygon fill="#191970" stroke="#191970" points="2348.3453,-85.823 2338.8731,-81.0766 2343.3179,-90.694 2348.3453,-85.823"/>
</g>
<!-- Node2&#45;&gt;Node12 -->
<g id="edge82" class="edge">
<title>Node2&#45;&gt;Node12</title>
<path fill="none" stroke="#191970" d="M2609.2761,-394.2556C2461.1879,-386.8527 1721.5138,-346.5557 1651,-277 1619.5931,-246.0198 1633.2033,-188.3083 1643.4366,-158.093"/>
<polygon fill="#191970" stroke="#191970" points="1646.8661,-158.8998 1646.9644,-148.3055 1640.2808,-156.5262 1646.8661,-158.8998"/>
</g>
<!-- Node2&#45;&gt;Node15 -->
<g id="edge83" class="edge">
<title>Node2&#45;&gt;Node15</title>
<path fill="none" stroke="#191970" d="M2660.7463,-394.4746C2730.1818,-391.2997 2926.8002,-379.5991 3086,-344 3176.6626,-323.7267 3205.0842,-326.0205 3284,-277 3341.9896,-240.9784 3361.7731,-220.7678 3376,-154 3378.8713,-140.5247 3378.9805,-136.4515 3376,-123 3373.466,-111.5636 3368.1188,-99.6558 3363.1134,-90.1747"/>
<polygon fill="#191970" stroke="#191970" points="3366.0854,-88.318 3358.1534,-81.2943 3359.9741,-91.7315 3366.0854,-88.318"/>
</g>
<!-- Node2&#45;&gt;Node16 -->
<g id="edge85" class="edge">
<title>Node2&#45;&gt;Node16</title>
<path fill="none" stroke="#191970" d="M2609.2743,-394.6402C2473.3482,-390.0101 1841.8304,-367.3862 1758,-344 1623.8166,-306.5669 1616.1505,-236.9678 1485,-190 1342.9147,-139.1162 868.2552,-88.2452 736.9288,-74.8826"/>
<polygon fill="#191970" stroke="#191970" points="736.9838,-71.3703 726.6821,-73.8454 736.2788,-78.3347 736.9838,-71.3703"/>
</g>
<!-- Node2&#45;&gt;Node19 -->
<g id="edge84" class="edge">
<title>Node2&#45;&gt;Node19</title>
<path fill="none" stroke="#191970" d="M2660.6293,-386.6448C2734.0323,-361.1109 2951.0711,-284.406 3127,-210 3170.8677,-191.447 3220.6293,-167.4648 3250.9091,-152.5324"/>
<polygon fill="#191970" stroke="#191970" points="3252.6142,-155.5937 3260.0235,-148.0206 3249.5087,-149.3203 3252.6142,-155.5937"/>
</g>
<!-- Node20 -->
<g id="node21" class="node">
<title>Node20</title>
<polygon fill="none" stroke="#bfbfbf" points="3253,-62 3253,-81 3313,-81 3313,-62 3253,-62"/>
<text text-anchor="middle" x="3283" y="-69" font-family="Helvetica,sans-Serif" font-size="10.00" fill="#000000">iostream</text>
</g>
<!-- Node2&#45;&gt;Node20 -->
<g id="edge86" class="edge">
<title>Node2&#45;&gt;Node20</title>
<path fill="none" stroke="#191970" d="M2660.5928,-392.6708C2762.7653,-381.0531 3140.9392,-334.8817 3245,-277 3310.1372,-240.7688 3331.7884,-223.3908 3359,-154 3364.03,-141.1732 3365.4552,-135.172 3359,-123 3350.1358,-106.2856 3333.1517,-93.999 3317.4837,-85.6276"/>
<polygon fill="#191970" stroke="#191970" points="3318.9941,-82.4697 3308.4821,-81.1471 3315.8749,-88.7364 3318.9941,-82.4697"/>
</g>
<!-- Node21 -->
<g id="node22" class="node">
<title>Node21</title>
<polygon fill="none" stroke="#bfbfbf" points="2718.5,-123.5 2718.5,-153.5 2825.5,-153.5 2825.5,-123.5 2718.5,-123.5"/>
<text text-anchor="start" x="2726.5" y="-141.5" font-family="Helvetica,sans-Serif" font-size="10.00" fill="#000000">boost/serialization</text>
<text text-anchor="middle" x="2772" y="-130.5" font-family="Helvetica,sans-Serif" font-size="10.00" fill="#000000">/array.hpp</text>
</g>
<!-- Node2&#45;&gt;Node21 -->
<g id="edge89" class="edge">
<title>Node2&#45;&gt;Node21</title>
<path fill="none" stroke="#191970" d="M2660.616,-386.4572C2680.0363,-378.3005 2705.8825,-364.4216 2721,-344 2761.7566,-288.9438 2770.2013,-205.1528 2771.7795,-163.6328"/>
<polygon fill="#191970" stroke="#191970" points="2775.2801,-163.6576 2772.0563,-153.5652 2768.2827,-163.4652 2775.2801,-163.6576"/>
</g>
<!-- Node22 -->
<g id="node23" class="node">
<title>Node22</title>
<polygon fill="none" stroke="#bfbfbf" points="2434.5,-123.5 2434.5,-153.5 2541.5,-153.5 2541.5,-123.5 2434.5,-123.5"/>
<text text-anchor="start" x="2442.5" y="-141.5" font-family="Helvetica,sans-Serif" font-size="10.00" fill="#000000">boost/serialization</text>
<text text-anchor="middle" x="2488" y="-130.5" font-family="Helvetica,sans-Serif" font-size="10.00" fill="#000000">/string.hpp</text>
</g>
<!-- Node2&#45;&gt;Node22 -->
<g id="edge90" class="edge">
<title>Node2&#45;&gt;Node22</title>
<path fill="none" stroke="#191970" d="M2632.2645,-385.9107C2621.8459,-349.8376 2583.9295,-222.682 2558,-190 2548.5677,-178.1114 2535.7409,-167.6146 2523.6432,-159.2512"/>
<polygon fill="#191970" stroke="#191970" points="2525.2936,-156.1465 2515.0221,-153.549 2521.4319,-161.9849 2525.2936,-156.1465"/>
</g>
<!-- Node23 -->
<g id="node24" class="node">
<title>Node23</title>
<polygon fill="none" stroke="#bfbfbf" points="2598,-129 2598,-148 2700,-148 2700,-129 2598,-129"/>
<text text-anchor="middle" x="2649" y="-136" font-family="Helvetica,sans-Serif" font-size="10.00" fill="#000000">boost/variant.hpp</text>
</g>
<!-- Node2&#45;&gt;Node23 -->
<g id="edge91" class="edge">
<title>Node2&#45;&gt;Node23</title>
<path fill="none" stroke="#191970" d="M2654.9922,-385.9787C2670.4488,-377.3987 2690.7243,-363.1834 2700,-344 2712.8427,-317.4396 2731.5031,-288.811 2692,-190 2686.7303,-176.8186 2676.7323,-164.5155 2667.7024,-155.242"/>
<polygon fill="#191970" stroke="#191970" points="2670.0803,-152.6724 2660.4701,-148.2121 2665.2013,-157.6919 2670.0803,-152.6724"/>
</g>
<!-- Node53 -->
<g id="node54" class="node">
<title>Node53</title>
<polygon fill="none" stroke="#bfbfbf" points="2634.5,-319 2634.5,-338 2691.5,-338 2691.5,-319 2634.5,-319"/>
<text text-anchor="middle" x="2663" y="-326" font-family="Helvetica,sans-Serif" font-size="10.00" fill="#000000">typeinfo</text>
</g>
<!-- Node2&#45;&gt;Node53 -->
<g id="edge88" class="edge">
<title>Node2&#45;&gt;Node53</title>
<path fill="none" stroke="#191970" d="M2639.0117,-385.9005C2643.1702,-375.95 2649.7818,-360.1292 2655.0117,-347.6147"/>
<polygon fill="#191970" stroke="#191970" points="2658.3691,-348.658 2658.9957,-338.0817 2651.9104,-345.9588 2658.3691,-348.658"/>
</g>
<!-- Node3&#45;&gt;Node2 -->
<g id="edge34" class="edge">
<title>Node3&#45;&gt;Node2</title>
<path fill="none" stroke="#191970" d="M2386.9145,-338.0446C2446.0378,-350.904 2546.1144,-373.6386 2599.3659,-386.3123"/>
<polygon fill="#191970" stroke="#191970" points="2598.8257,-389.7818 2609.3659,-388.707 2600.456,-382.9743 2598.8257,-389.7818"/>
</g>
<!-- Node4 -->
<g id="node5" class="node">
<title>Node4</title>
<g id="a_node5"><a xlink:href="Basisnames_8h.html" target="_top" xlink:title="Basisnames.h">
<polygon fill="none" stroke="#000000" points="1684.5,-252 1684.5,-271 1769.5,-271 1769.5,-252 1684.5,-252"/>
<text text-anchor="middle" x="1727" y="-259" font-family="Helvetica,sans-Serif" font-size="10.00" fill="#000000">Basisnames.h</text>
</a>
</g>
</g>
<!-- Node3&#45;&gt;Node4 -->
<g id="edge4" class="edge">
<title>Node3&#45;&gt;Node4</title>
<path fill="none" stroke="#191970" d="M2276.4126,-322.0493C2183.704,-312.5758 2006.0193,-294.1608 1855,-277 1830.2008,-274.182 1802.7223,-270.8784 1779.6028,-268.0467"/>
<polygon fill="#191970" stroke="#191970" points="1780.0004,-264.5693 1769.6482,-266.8237 1779.1468,-271.5171 1780.0004,-264.5693"/>
</g>
<!-- Node7 -->
<g id="node8" class="node">
<title>Node7</title>
<polygon fill="none" stroke="#bfbfbf" points="2188,-62 2188,-81 2244,-81 2244,-62 2188,-62"/>
<text text-anchor="middle" x="2216" y="-69" font-family="Helvetica,sans-Serif" font-size="10.00" fill="#000000">sstream</text>
</g>
<!-- Node3&#45;&gt;Node7 -->
<g id="edge78" class="edge">
<title>Node3&#45;&gt;Node7</title>
<path fill="none" stroke="#191970" d="M2337.9193,-318.5878C2334.4353,-302.8292 2326.7322,-271.2614 2316,-246 2290.5111,-186.0041 2249.0174,-120.7124 2228.4169,-89.7548"/>
<polygon fill="#191970" stroke="#191970" points="2231.2156,-87.6443 2222.7353,-81.2934 2225.4042,-91.5466 2231.2156,-87.6443"/>
</g>
<!-- Node3&#45;&gt;Node8 -->
<g id="edge79" class="edge">
<title>Node3&#45;&gt;Node8</title>
<path fill="none" stroke="#191970" d="M2344.7394,-318.5996C2351.6032,-302.857 2362.5966,-271.3109 2354,-246 2343.9083,-216.2872 2331.1767,-214.0331 2311,-190 2297.0439,-173.3765 2285.8686,-174.2286 2278,-154 2273.0052,-141.1595 2272.6967,-135.7162 2278,-123 2283.9239,-108.7957 2295.8831,-96.5036 2306.8403,-87.4942"/>
<polygon fill="#191970" stroke="#191970" points="2309.13,-90.1482 2314.9074,-81.2672 2304.8528,-84.607 2309.13,-90.1482"/>
</g>
<!-- Node3&#45;&gt;Node12 -->
<g id="edge70" class="edge">
<title>Node3&#45;&gt;Node12</title>
<path fill="none" stroke="#191970" d="M2276.33,-325.6702C2114.2172,-318.1861 1697.0546,-297.0672 1675,-277 1641.8692,-246.8546 1643.9097,-188.7371 1647.7181,-158.2563"/>
<polygon fill="#191970" stroke="#191970" points="1651.2277,-158.4414 1649.1946,-148.0434 1644.2997,-157.4397 1651.2277,-158.4414"/>
</g>
<!-- Node3&#45;&gt;Node19 -->
<g id="edge73" class="edge">
<title>Node3&#45;&gt;Node19</title>
<path fill="none" stroke="#191970" d="M2403.5885,-324.2783C2534.6253,-314.3217 2843.2084,-284.3663 3091,-210 3111.5744,-203.8253 3115.0918,-198.0683 3135,-190 3170.2184,-175.7269 3211.0673,-161.3159 3240.2426,-151.3827"/>
<polygon fill="#191970" stroke="#191970" points="3241.6974,-154.5854 3250.047,-148.0635 3239.4528,-147.955 3241.6974,-154.5854"/>
</g>
<!-- Node25 -->
<g id="node26" class="node">
<title>Node25</title>
<polygon fill="none" stroke="#bfbfbf" points="2043,-62 2043,-81 2101,-81 2101,-62 2043,-62"/>
<text text-anchor="middle" x="2072" y="-69" font-family="Helvetica,sans-Serif" font-size="10.00" fill="#000000">memory</text>
</g>
<!-- Node3&#45;&gt;Node25 -->
<g id="edge77" class="edge">
<title>Node3&#45;&gt;Node25</title>
<path fill="none" stroke="#191970" d="M2334.6052,-318.9796C2325.2759,-302.9541 2305.0041,-269.9924 2283,-246 2221.9137,-179.394 2135.1842,-115.4748 2094.5918,-86.9877"/>
<polygon fill="#191970" stroke="#191970" points="2096.4108,-83.9894 2086.2045,-81.1465 2092.4102,-89.7336 2096.4108,-83.9894"/>
</g>
<!-- Node28 -->
<g id="node29" class="node">
<title>Node28</title>
<g id="a_node29"><a xlink:href="Wavefunction_8h.html" target="_top" xlink:title="Wavefunction.h">
<polygon fill="none" stroke="#000000" points="1864.5,-252 1864.5,-271 1957.5,-271 1957.5,-252 1864.5,-252"/>
<text text-anchor="middle" x="1911" y="-259" font-family="Helvetica,sans-Serif" font-size="10.00" fill="#000000">Wavefunction.h</text>
</a>
</g>
</g>
<!-- Node3&#45;&gt;Node28 -->
<g id="edge35" class="edge">
<title>Node3&#45;&gt;Node28</title>
<path fill="none" stroke="#191970" d="M2276.2035,-322.2998C2201.5818,-314.4468 2074.555,-299.2074 1967,-277 1962.2486,-276.019 1957.3061,-274.8595 1952.4118,-273.6232"/>
<polygon fill="#191970" stroke="#191970" points="1953.0724,-270.1778 1942.5104,-271.0104 1951.2863,-276.9461 1953.0724,-270.1778"/>
</g>
<!-- Node3&#45;&gt;Node32 -->
<g id="edge81" class="edge">
<title>Node3&#45;&gt;Node32</title>
<path fill="none" stroke="#191970" d="M2403.5946,-324.2335C2506.0721,-316.977 2713.9709,-300.6795 2889,-277 2927.8029,-271.7504 3551.1038,-176.7125 3583,-154 3604.4281,-138.7416 3617.0634,-110.2131 3623.5117,-91.0356"/>
<polygon fill="#191970" stroke="#191970" points="3626.9299,-91.829 3626.5439,-81.2412 3620.243,-89.7588 3626.9299,-91.829"/>
</g>
<!-- Node41 -->
<g id="node42" class="node">
<title>Node41</title>
<g id="a_node42"><a xlink:href="utils_8h.html" target="_top" xlink:title="utils.h">
<polygon fill="none" stroke="#000000" points="2370.5,-62 2370.5,-81 2417.5,-81 2417.5,-62 2370.5,-62"/>
<text text-anchor="middle" x="2394" y="-69" font-family="Helvetica,sans-Serif" font-size="10.00" fill="#000000">utils.h</text>
</a>
</g>
</g>
<!-- Node3&#45;&gt;Node41 -->
<g id="edge71" class="edge">
<title>Node3&#45;&gt;Node41</title>
<path fill="none" stroke="#191970" d="M2347.2827,-318.8309C2354.3533,-308.8964 2364.7628,-292.7056 2370,-277 2391.8306,-211.5334 2394.4116,-128.5863 2394.3404,-91.2695"/>
<polygon fill="#191970" stroke="#191970" points="2397.84,-91.1918 2394.2516,-81.2232 2390.8403,-91.2538 2397.84,-91.1918"/>
</g>
<!-- Node46 -->
<g id="node47" class="node">
<title>Node46</title>
<polygon fill="none" stroke="#bfbfbf" points="2843.5,-129 2843.5,-148 2884.5,-148 2884.5,-129 2843.5,-129"/>
<text text-anchor="middle" x="2864" y="-136" font-family="Helvetica,sans-Serif" font-size="10.00" fill="#000000">tuple</text>
</g>
<!-- Node3&#45;&gt;Node46 -->
<g id="edge80" class="edge">
<title>Node3&#45;&gt;Node46</title>
<path fill="none" stroke="#191970" d="M2370.3154,-318.8696C2431.4788,-299.3131 2573.893,-253.1372 2692,-210 2755.7241,-186.7255 2772.2292,-182.0507 2834,-154 2834.9875,-153.5516 2835.9889,-153.087 2836.9972,-152.611"/>
<polygon fill="#191970" stroke="#191970" points="2838.6383,-155.7042 2846.0603,-148.1435 2835.5433,-149.4255 2838.6383,-155.7042"/>
</g>
<!-- Node49 -->
<g id="node50" class="node">
<title>Node49</title>
<polygon fill="none" stroke="#bfbfbf" points="1242.5,-252 1242.5,-271 1361.5,-271 1361.5,-252 1242.5,-252"/>
<text text-anchor="middle" x="1302" y="-259" font-family="Helvetica,sans-Serif" font-size="10.00" fill="#000000">boost/filesystem.hpp</text>
</g>
<!-- Node3&#45;&gt;Node49 -->
<g id="edge72" class="edge">
<title>Node3&#45;&gt;Node49</title>
<path fill="none" stroke="#191970" d="M2276.2419,-324.3846C2092.4911,-312.524 1562.7925,-278.3334 1371.748,-266.002"/>
<polygon fill="#191970" stroke="#191970" points="1371.756,-262.4954 1361.5513,-265.3439 1371.305,-269.4808 1371.756,-262.4954"/>
</g>
<!-- Node3&#45;&gt;Node50 -->
<g id="edge74" class="edge">
<title>Node3&#45;&gt;Node50</title>
<path fill="none" stroke="#191970" d="M2403.8239,-325.4413C2530.4983,-319.0474 2822.5592,-302.6947 3067,-277 3080.7031,-275.5596 3095.3183,-273.7301 3109.2926,-271.8369"/>
<polygon fill="#191970" stroke="#191970" points="3109.9048,-275.2857 3119.3326,-270.4519 3108.9481,-268.3514 3109.9048,-275.2857"/>
</g>
<!-- Node51 -->
<g id="node52" class="node">
<title>Node51</title>
<polygon fill="none" stroke="#bfbfbf" points="1976,-246.5 1976,-276.5 2086,-276.5 2086,-246.5 1976,-246.5"/>
<text text-anchor="start" x="1984" y="-264.5" font-family="Helvetica,sans-Serif" font-size="10.00" fill="#000000">boost/serialization</text>
<text text-anchor="middle" x="2031" y="-253.5" font-family="Helvetica,sans-Serif" font-size="10.00" fill="#000000">/unordered_set.hpp</text>
</g>
<!-- Node3&#45;&gt;Node51 -->
<g id="edge75" class="edge">
<title>Node3&#45;&gt;Node51</title>
<path fill="none" stroke="#191970" d="M2292.4813,-318.9574C2245.177,-309.3579 2170.2498,-293.8843 2096.1116,-277.217"/>
<polygon fill="#191970" stroke="#191970" points="2096.6582,-273.7524 2086.133,-274.9652 2095.1173,-280.5807 2096.6582,-273.7524"/>
</g>
<!-- Node52 -->
<g id="node53" class="node">
<title>Node52</title>
<polygon fill="none" stroke="#bfbfbf" points="2104,-246.5 2104,-276.5 2274,-276.5 2274,-246.5 2104,-246.5"/>
<text text-anchor="start" x="2112" y="-264.5" font-family="Helvetica,sans-Serif" font-size="10.00" fill="#000000">wignerSymbols/wignerSymbols</text>
<text text-anchor="middle" x="2189" y="-253.5" font-family="Helvetica,sans-Serif" font-size="10.00" fill="#000000">&#45;cpp.h</text>
</g>
<!-- Node3&#45;&gt;Node52 -->
<g id="edge76" class="edge">
<title>Node3&#45;&gt;Node52</title>
<path fill="none" stroke="#191970" d="M2318.3654,-318.9005C2295.9459,-308.9528 2260.304,-293.1382 2232.1035,-280.6254"/>
<polygon fill="#191970" stroke="#191970" points="2233.4152,-277.3784 2222.855,-276.5218 2230.5761,-283.7768 2233.4152,-277.3784"/>
</g>
<!-- Node5 -->
<g id="node6" class="node">
<title>Node5</title>
<g id="a_node6"><a xlink:href="ConfParser_8h.html" target="_top" xlink:title="ConfParser.h">
<polygon fill="none" stroke="#000000" points="1797.5,-129 1797.5,-148 1874.5,-148 1874.5,-129 1797.5,-129"/>
<text text-anchor="middle" x="1836" y="-136" font-family="Helvetica,sans-Serif" font-size="10.00" fill="#000000">ConfParser.h</text>
</a>
</g>
</g>
<!-- Node4&#45;&gt;Node5 -->
<g id="edge5" class="edge">
<title>Node4&#45;&gt;Node5</title>
<path fill="none" stroke="#191970" d="M1758.7433,-251.9893C1790.1884,-241.8501 1835.0527,-225.1948 1845,-210 1855.1333,-194.5211 1850.5569,-173.0675 1844.8834,-157.7065"/>
<polygon fill="#191970" stroke="#191970" points="1848.0048,-156.0958 1840.9476,-148.1935 1841.5366,-158.772 1848.0048,-156.0958"/>
</g>
<!-- Node4&#45;&gt;Node8 -->
<g id="edge31" class="edge">
<title>Node4&#45;&gt;Node8</title>
<path fill="none" stroke="#191970" d="M1757.3161,-251.9477C1859.9369,-219.6127 2193.6664,-114.4575 2298.3144,-81.4839"/>
<polygon fill="#191970" stroke="#191970" points="2299.5037,-84.7788 2307.9895,-78.4353 2297.3999,-78.1024 2299.5037,-84.7788"/>
</g>
<!-- Node10 -->
<g id="node11" class="node">
<title>Node10</title>
<g id="a_node11"><a xlink:href="Iter_8h.html" target="_top" xlink:title="Iter.h">
<polygon fill="none" stroke="#000000" points="1795.5,-190.5 1795.5,-209.5 1836.5,-209.5 1836.5,-190.5 1795.5,-190.5"/>
<text text-anchor="middle" x="1816" y="-197.5" font-family="Helvetica,sans-Serif" font-size="10.00" fill="#000000">Iter.h</text>
</a>
</g>
</g>
<!-- Node4&#45;&gt;Node10 -->
<g id="edge10" class="edge">
<title>Node4&#45;&gt;Node10</title>
<path fill="none" stroke="#191970" d="M1740.9063,-251.8906C1755.0138,-242.1421 1777.0724,-226.8994 1793.6385,-215.4521"/>
<polygon fill="#191970" stroke="#191970" points="1795.9542,-218.1063 1802.1914,-209.5419 1791.9747,-212.3474 1795.9542,-218.1063"/>
</g>
<!-- Node11 -->
<g id="node12" class="node">
<title>Node11</title>
<g id="a_node12"><a xlink:href="StateOld_8h.html" target="_top" xlink:title="StateOld.h">
<polygon fill="none" stroke="#000000" points="2615,-190.5 2615,-209.5 2683,-209.5 2683,-190.5 2615,-190.5"/>
<text text-anchor="middle" x="2649" y="-197.5" font-family="Helvetica,sans-Serif" font-size="10.00" fill="#000000">StateOld.h</text>
</a>
</g>
</g>
<!-- Node4&#45;&gt;Node11 -->
<g id="edge11" class="edge">
<title>Node4&#45;&gt;Node11</title>
<path fill="none" stroke="#191970" d="M1769.5962,-255.664C1794.4616,-252.4271 1826.4616,-248.5521 1855,-246 2140.0233,-220.5116 2483.931,-206.1444 2604.5866,-201.5964"/>
<polygon fill="#191970" stroke="#191970" points="2605.0309,-205.0823 2614.8933,-201.2114 2604.7696,-198.0872 2605.0309,-205.0823"/>
</g>
<!-- Node4&#45;&gt;Node12 -->
<g id="edge27" class="edge">
<title>Node4&#45;&gt;Node12</title>
<path fill="none" stroke="#191970" d="M1721.0364,-251.8484C1708.3832,-231.3703 1678.6702,-183.282 1662.3049,-156.7962"/>
<polygon fill="#191970" stroke="#191970" points="1665.1698,-154.7741 1656.9359,-148.1068 1659.2149,-158.4536 1665.1698,-154.7741"/>
</g>
<!-- Node4&#45;&gt;Node18 -->
<g id="edge33" class="edge">
<title>Node4&#45;&gt;Node18</title>
<path fill="none" stroke="#191970" d="M1705.4318,-251.9477C1634.9796,-220.745 1411.4205,-121.7328 1328.9494,-85.2072"/>
<polygon fill="#191970" stroke="#191970" points="1330.1718,-81.9207 1319.6111,-81.0714 1327.3371,-88.3211 1330.1718,-81.9207"/>
</g>
<!-- Node24 -->
<g id="node25" class="node">
<title>Node24</title>
<polygon fill="none" stroke="#bfbfbf" points="1722.5,-190.5 1722.5,-209.5 1777.5,-209.5 1777.5,-190.5 1722.5,-190.5"/>
<text text-anchor="middle" x="1750" y="-197.5" font-family="Helvetica,sans-Serif" font-size="10.00" fill="#000000">fstream</text>
</g>
<!-- Node4&#45;&gt;Node24 -->
<g id="edge28" class="edge">
<title>Node4&#45;&gt;Node24</title>
<path fill="none" stroke="#191970" d="M1730.5938,-251.8906C1733.8491,-243.1862 1738.7425,-230.1015 1742.801,-219.2494"/>
<polygon fill="#191970" stroke="#191970" points="1746.1309,-220.3373 1746.3556,-209.7449 1739.5744,-217.8852 1746.1309,-220.3373"/>
</g>
<!-- Node4&#45;&gt;Node25 -->
<g id="edge29" class="edge">
<title>Node4&#45;&gt;Node25</title>
<path fill="none" stroke="#191970" d="M1757.9284,-251.9288C1792.2997,-240.9092 1845.1845,-222.6982 1862,-210 1900.518,-180.9132 1888.1477,-151.6388 1927,-123 1958.6843,-99.6449 2001.9303,-86.114 2032.9331,-78.8352"/>
<polygon fill="#191970" stroke="#191970" points="2033.9457,-82.1954 2042.9433,-76.6013 2032.421,-75.3635 2033.9457,-82.1954"/>
</g>
<!-- Node4&#45;&gt;Node26 -->
<g id="edge30" class="edge">
<title>Node4&#45;&gt;Node26</title>
<path fill="none" stroke="#191970" d="M1760.6739,-251.9956C1768.3212,-249.9341 1776.423,-247.8262 1784,-246 1859.504,-227.8025 1880.0375,-230.3132 1955,-210 1956.4241,-209.6141 1957.8798,-209.199 1959.3448,-208.7651"/>
<polygon fill="#191970" stroke="#191970" points="1960.4323,-212.0922 1968.9109,-205.739 1958.3209,-205.4181 1960.4323,-212.0922"/>
</g>
<!-- Node4&#45;&gt;Node27 -->
<g id="edge32" class="edge">
<title>Node4&#45;&gt;Node27</title>
<path fill="none" stroke="#191970" d="M1684.1443,-256.3623C1590.786,-245.1703 1369.2523,-218.6121 1267.1785,-206.3752"/>
<polygon fill="#191970" stroke="#191970" points="1267.4401,-202.8816 1257.0945,-205.1663 1266.6068,-209.8318 1267.4401,-202.8816"/>
</g>
<!-- Node6 -->
<g id="node7" class="node">
<title>Node6</title>
<polygon fill="none" stroke="#bfbfbf" points="1801,-62 1801,-81 1839,-81 1839,-62 1801,-62"/>
<text text-anchor="middle" x="1820" y="-69" font-family="Helvetica,sans-Serif" font-size="10.00" fill="#000000">map</text>
</g>
<!-- Node5&#45;&gt;Node6 -->
<g id="edge6" class="edge">
<title>Node5&#45;&gt;Node6</title>
<path fill="none" stroke="#191970" d="M1833.7076,-128.9005C1831.3551,-119.0495 1827.6287,-103.4451 1824.6546,-90.9912"/>
<polygon fill="#191970" stroke="#191970" points="1828.0153,-89.9952 1822.2882,-81.0817 1821.2067,-91.6212 1828.0153,-89.9952"/>
</g>
<!-- Node5&#45;&gt;Node7 -->
<g id="edge7" class="edge">
<title>Node5&#45;&gt;Node7</title>
<path fill="none" stroke="#191970" d="M1874.5276,-131.707C1947.3632,-118.8649 2104.4719,-91.1642 2177.3793,-78.3094"/>
<polygon fill="#191970" stroke="#191970" points="2178.2647,-81.7074 2187.5051,-76.5241 2177.0492,-74.8137 2178.2647,-81.7074"/>
</g>
<!-- Node5&#45;&gt;Node8 -->
<g id="edge8" class="edge">
<title>Node5&#45;&gt;Node8</title>
<path fill="none" stroke="#191970" d="M1874.8908,-131.3589C1890.9853,-128.5384 1909.8595,-125.4041 1927,-123 2071.3567,-102.7531 2108.9625,-109.4051 2253,-87 2267.8174,-84.6951 2284.1132,-81.5103 2297.8832,-78.6268"/>
<polygon fill="#191970" stroke="#191970" points="2298.8045,-82.0091 2307.8544,-76.5001 2297.3443,-75.1631 2298.8045,-82.0091"/>
</g>
<!-- Node9 -->
<g id="node10" class="node">
<title>Node9</title>
<polygon fill="none" stroke="#bfbfbf" points="1857.5,-62 1857.5,-81 1982.5,-81 1982.5,-62 1857.5,-62"/>
<text text-anchor="middle" x="1920" y="-69" font-family="Helvetica,sans-Serif" font-size="10.00" fill="#000000">boost/lexical_cast.hpp</text>
</g>
<!-- Node5&#45;&gt;Node9 -->
<g id="edge9" class="edge">
<title>Node5&#45;&gt;Node9</title>
<path fill="none" stroke="#191970" d="M1848.0352,-128.9005C1861.6332,-118.0544 1883.9754,-100.2339 1900.1624,-87.3229"/>
<polygon fill="#191970" stroke="#191970" points="1902.3519,-90.0535 1907.9872,-81.0817 1897.9869,-84.5811 1902.3519,-90.0535"/>
</g>
<!-- Node11&#45;&gt;Node8 -->
<g id="edge23" class="edge">
<title>Node11&#45;&gt;Node8</title>
<path fill="none" stroke="#191970" d="M2636.0751,-190.1944C2623.8898,-180.9255 2605.1402,-166.6002 2589,-154 2571.5466,-140.3746 2570.1272,-132.2287 2550,-123 2472.2711,-87.36 2442.0083,-114.3799 2361,-87 2359.3932,-86.4569 2357.7644,-85.8455 2356.1379,-85.1874"/>
<polygon fill="#191970" stroke="#191970" points="2357.5709,-81.9942 2347.0175,-81.0583 2354.6838,-88.3712 2357.5709,-81.9942"/>
</g>
<!-- Node11&#45;&gt;Node12 -->
<g id="edge12" class="edge">
<title>Node11&#45;&gt;Node12</title>
<path fill="none" stroke="#191970" d="M2614.9054,-198.9054C2498.9349,-195.0271 2109.1031,-180.7186 1788,-154 1755.1089,-151.2632 1717.9048,-146.9779 1690.5755,-143.6062"/>
<polygon fill="#191970" stroke="#191970" points="1690.9707,-140.1285 1680.6144,-142.3638 1690.1043,-147.0746 1690.9707,-140.1285"/>
</g>
<!-- Node11&#45;&gt;Node15 -->
<g id="edge19" class="edge">
<title>Node11&#45;&gt;Node15</title>
<path fill="none" stroke="#191970" d="M2683.0823,-199.3171C2777.4421,-197.011 3040.3229,-187.6576 3119,-154 3138.4129,-145.6953 3136.0954,-132.4043 3155,-123 3222.9802,-89.1825 3250.5367,-112.6502 3322,-87 3323.2415,-86.5544 3324.4965,-86.0674 3325.7531,-85.5497"/>
<polygon fill="#191970" stroke="#191970" points="3327.6192,-88.5423 3335.2172,-81.1584 3324.673,-82.1925 3327.6192,-88.5423"/>
</g>
<!-- Node11&#45;&gt;Node16 -->
<g id="edge21" class="edge">
<title>Node11&#45;&gt;Node16</title>
<path fill="none" stroke="#191970" d="M2614.9517,-199.0613C2484.7277,-195.3497 2005.7671,-180.5882 1612,-154 1269.7636,-130.8913 856.3693,-87.8758 736.8527,-75.1414"/>
<polygon fill="#191970" stroke="#191970" points="737.1595,-71.6543 726.8443,-74.0725 736.4161,-78.6147 737.1595,-71.6543"/>
</g>
<!-- Node11&#45;&gt;Node19 -->
<g id="edge20" class="edge">
<title>Node11&#45;&gt;Node19</title>
<path fill="none" stroke="#191970" d="M2683.0942,-197.2997C2764.6911,-190.7499 2977.6263,-173.1428 3155,-154 3168.6254,-152.5295 3183.0764,-150.841 3197.1161,-149.1315"/>
<polygon fill="#191970" stroke="#191970" points="3197.7506,-152.58 3207.2488,-147.8859 3196.8964,-145.6323 3197.7506,-152.58"/>
</g>
<!-- Node11&#45;&gt;Node20 -->
<g id="edge22" class="edge">
<title>Node11&#45;&gt;Node20</title>
<path fill="none" stroke="#191970" d="M2683.1907,-198.5941C2772.2919,-194.5794 3009.7744,-181.5358 3083,-154 3105.3909,-145.5801 3105.6324,-133.7552 3127,-123 3147.4628,-112.7003 3203.6735,-95.0475 3242.7094,-83.3258"/>
<polygon fill="#191970" stroke="#191970" points="3244.1447,-86.55 3252.7251,-80.3349 3242.1417,-79.8426 3244.1447,-86.55"/>
</g>
<!-- Node11&#45;&gt;Node21 -->
<g id="edge24" class="edge">
<title>Node11&#45;&gt;Node21</title>
<path fill="none" stroke="#191970" d="M2668.2188,-190.3906C2685.4818,-181.7591 2711.3596,-168.8202 2732.9553,-158.0224"/>
<polygon fill="#191970" stroke="#191970" points="2734.5318,-161.1473 2741.9108,-153.5446 2731.4013,-154.8863 2734.5318,-161.1473"/>
</g>
<!-- Node11&#45;&gt;Node22 -->
<g id="edge25" class="edge">
<title>Node11&#45;&gt;Node22</title>
<path fill="none" stroke="#191970" d="M2623.8438,-190.3906C2600.6421,-181.5279 2565.5521,-168.1239 2536.8482,-157.1594"/>
<polygon fill="#191970" stroke="#191970" points="2537.9757,-153.8435 2527.385,-153.5446 2535.4777,-160.3826 2537.9757,-153.8435"/>
</g>
<!-- Node11&#45;&gt;Node23 -->
<g id="edge26" class="edge">
<title>Node11&#45;&gt;Node23</title>
<path fill="none" stroke="#191970" d="M2649,-190.3906C2649,-181.8657 2649,-169.1392 2649,-158.4235"/>
<polygon fill="#191970" stroke="#191970" points="2652.5001,-158.2448 2649,-148.2449 2645.5001,-158.2449 2652.5001,-158.2448"/>
</g>
<!-- Node13 -->
<g id="node14" class="node">
<title>Node13</title>
<polygon fill="none" stroke="#bfbfbf" points="1500.5,-62 1500.5,-81 1577.5,-81 1577.5,-62 1500.5,-62"/>
<text text-anchor="middle" x="1539" y="-69" font-family="Helvetica,sans-Serif" font-size="10.00" fill="#000000">Eigen/Dense</text>
</g>
<!-- Node12&#45;&gt;Node13 -->
<g id="edge13" class="edge">
<title>Node12&#45;&gt;Node13</title>
<path fill="none" stroke="#191970" d="M1634.9531,-128.9005C1616.3233,-117.7559 1585.3842,-99.2477 1563.6872,-86.2682"/>
<polygon fill="#191970" stroke="#191970" points="1565.3956,-83.2118 1555.0171,-81.0817 1561.802,-89.219 1565.3956,-83.2118"/>
</g>
<!-- Node14 -->
<g id="node15" class="node">
<title>Node14</title>
<polygon fill="none" stroke="#bfbfbf" points="1031,-62 1031,-81 1111,-81 1111,-62 1031,-62"/>
<text text-anchor="middle" x="1071" y="-69" font-family="Helvetica,sans-Serif" font-size="10.00" fill="#000000">Eigen/Sparse</text>
</g>
<!-- Node12&#45;&gt;Node14 -->
<g id="edge14" class="edge">
<title>Node12&#45;&gt;Node14</title>
<path fill="none" stroke="#191970" d="M1624.8667,-128.9336C1617.8467,-126.6754 1610.2027,-124.4933 1603,-123 1556.5939,-113.379 1245.4496,-86.3158 1121.6589,-75.7764"/>
<polygon fill="#191970" stroke="#191970" points="1121.5842,-72.2575 1111.3236,-74.8978 1120.9912,-79.2323 1121.5842,-72.2575"/>
</g>
<!-- Node12&#45;&gt;Node15 -->
<g id="edge15" class="edge">
<title>Node12&#45;&gt;Node15</title>
<path fill="none" stroke="#191970" d="M1680.595,-134.3795C1708.2955,-130.7064 1750.865,-125.5314 1788,-123 1958.0966,-111.405 3156.8163,-129.2096 3322,-87 3323.7182,-86.561 3325.4492,-86.0092 3327.166,-85.3776"/>
<polygon fill="#191970" stroke="#191970" points="3328.968,-88.4051 3336.6554,-81.1144 3326.0994,-82.0199 3328.968,-88.4051"/>
</g>
<!-- Node12&#45;&gt;Node16 -->
<g id="edge16" class="edge">
<title>Node12&#45;&gt;Node16</title>
<path fill="none" stroke="#191970" d="M1625.6543,-128.9835C1618.4315,-126.638 1610.489,-124.3996 1603,-123 1559.6698,-114.9023 895.3907,-81.1625 736.8078,-73.1925"/>
<polygon fill="#191970" stroke="#191970" points="736.854,-69.6905 726.6911,-72.6846 736.503,-76.6817 736.854,-69.6905"/>
</g>
<!-- Node17 -->
<g id="node18" class="node">
<title>Node17</title>
<polygon fill="none" stroke="#bfbfbf" points="1595.5,-56.5 1595.5,-86.5 1738.5,-86.5 1738.5,-56.5 1595.5,-56.5"/>
<text text-anchor="start" x="1603.5" y="-74.5" font-family="Helvetica,sans-Serif" font-size="10.00" fill="#000000">unsupported/Eigen/CXX11</text>
<text text-anchor="middle" x="1667" y="-63.5" font-family="Helvetica,sans-Serif" font-size="10.00" fill="#000000">/Tensor</text>
</g>
<!-- Node12&#45;&gt;Node17 -->
<g id="edge17" class="edge">
<title>Node12&#45;&gt;Node17</title>
<path fill="none" stroke="#191970" d="M1653.2924,-128.9005C1655.3168,-120.4234 1658.3587,-107.6856 1661.0629,-96.3614"/>
<polygon fill="#191970" stroke="#191970" points="1664.4942,-97.0613 1663.4127,-86.5218 1657.6856,-95.4353 1664.4942,-97.0613"/>
</g>
<!-- Node12&#45;&gt;Node18 -->
<g id="edge18" class="edge">
<title>Node12&#45;&gt;Node18</title>
<path fill="none" stroke="#191970" d="M1623.7823,-128.9544C1617.0446,-126.8016 1609.8052,-124.664 1603,-123 1505.7235,-99.2143 1388.3258,-82.7543 1331.739,-75.5686"/>
<polygon fill="#191970" stroke="#191970" points="1331.9351,-72.0659 1321.5775,-74.2954 1331.0648,-79.0116 1331.9351,-72.0659"/>
</g>
<!-- Node28&#45;&gt;Node8 -->
<g id="edge68" class="edge">
<title>Node28&#45;&gt;Node8</title>
<path fill="none" stroke="#191970" d="M1943.7616,-251.9842C1951.3626,-249.9012 1959.4408,-247.787 1967,-246 2047.6688,-226.9303 2076.5267,-248.3768 2150,-210 2199.3122,-184.2431 2195.5129,-156.4068 2240,-123 2259.2459,-108.5476 2282.9364,-95.1444 2301.1799,-85.6364"/>
<polygon fill="#191970" stroke="#191970" points="2302.8641,-88.7062 2310.1712,-81.0344 2299.6748,-82.475 2302.8641,-88.7062"/>
</g>
<!-- Node28&#45;&gt;Node12 -->
<g id="edge65" class="edge">
<title>Node28&#45;&gt;Node12</title>
<path fill="none" stroke="#191970" d="M1944.7875,-251.9434C1982.1243,-239.7655 2034.0108,-217.0219 2010,-190 1964.8141,-139.1474 1772.7213,-167.2671 1706,-154 1700.9601,-152.9979 1695.7081,-151.7667 1690.5361,-150.4402"/>
<polygon fill="#191970" stroke="#191970" points="1691.3319,-147.0299 1680.7656,-147.8071 1689.5103,-153.7887 1691.3319,-147.0299"/>
</g>
<!-- Node28&#45;&gt;Node18 -->
<g id="edge69" class="edge">
<title>Node28&#45;&gt;Node18</title>
<path fill="none" stroke="#191970" d="M1942.4784,-251.9522C1973.6603,-241.7824 2018.1471,-225.1021 2028,-210 2032.857,-202.5554 2033.8005,-196.7355 2028,-190 1992.8076,-149.1351 1840.5565,-166.0939 1788,-154 1743.0676,-143.6605 1734.0233,-132.9363 1689,-123 1558.5811,-94.2176 1399.8987,-79.3971 1331.7458,-73.9723"/>
<polygon fill="#191970" stroke="#191970" points="1331.8449,-70.4695 1321.6031,-73.1817 1331.3008,-77.4484 1331.8449,-70.4695"/>
</g>
<!-- Node29 -->
<g id="node30" class="node">
<title>Node29</title>
<g id="a_node30"><a xlink:href="QuantumDefect_8h.html" target="_top" xlink:title="QuantumDefect.h">
<polygon fill="none" stroke="#000000" points="2979.5,-190.5 2979.5,-209.5 3082.5,-209.5 3082.5,-190.5 2979.5,-190.5"/>
<text text-anchor="middle" x="3031" y="-197.5" font-family="Helvetica,sans-Serif" font-size="10.00" fill="#000000">QuantumDefect.h</text>
</a>
</g>
</g>
<!-- Node28&#45;&gt;Node29 -->
<g id="edge36" class="edge">
<title>Node28&#45;&gt;Node29</title>
<path fill="none" stroke="#191970" d="M1940.6591,-251.9434C1949.0866,-249.5975 1958.3311,-247.3689 1967,-246 2065.7728,-230.4029 2757.4178,-208.3175 2969.3908,-201.8477"/>
<polygon fill="#191970" stroke="#191970" points="2969.5259,-205.3453 2979.4147,-201.5425 2969.3128,-198.3485 2969.5259,-205.3453"/>
</g>
<!-- Node47 -->
<g id="node48" class="node">
<title>Node47</title>
<polygon fill="none" stroke="#bfbfbf" points="2095,-190.5 2095,-209.5 2141,-209.5 2141,-190.5 2095,-190.5"/>
<text text-anchor="middle" x="2118" y="-197.5" font-family="Helvetica,sans-Serif" font-size="10.00" fill="#000000">cstdio</text>
</g>
<!-- Node28&#45;&gt;Node47 -->
<g id="edge66" class="edge">
<title>Node28&#45;&gt;Node47</title>
<path fill="none" stroke="#191970" d="M1943.3438,-251.8906C1981.9647,-240.4163 2046.2058,-221.3302 2085.0796,-209.7807"/>
<polygon fill="#191970" stroke="#191970" points="2086.2679,-213.0789 2094.857,-206.8758 2084.2743,-206.3688 2086.2679,-213.0789"/>
</g>
<!-- Node28&#45;&gt;Node48 -->
<g id="edge67" class="edge">
<title>Node28&#45;&gt;Node48</title>
<path fill="none" stroke="#191970" d="M1864.2406,-255.2074C1771.4668,-242.7226 1566.2105,-215.1005 1486.5207,-204.3764"/>
<polygon fill="#191970" stroke="#191970" points="1486.5118,-200.8437 1476.1343,-202.9787 1485.5781,-207.7812 1486.5118,-200.8437"/>
</g>
<!-- Node29&#45;&gt;Node8 -->
<g id="edge61" class="edge">
<title>Node29&#45;&gt;Node8</title>
<path fill="none" stroke="#191970" d="M3018.1776,-190.2399C2994.7855,-173.0558 2942.9768,-137.8187 2893,-123 2665.7924,-55.6301 2589.6749,-149.2074 2361,-87 2359.2835,-86.5331 2357.5501,-85.9673 2355.8265,-85.3317"/>
<polygon fill="#191970" stroke="#191970" points="2356.8129,-81.9425 2346.2493,-81.1305 2354.0009,-88.3529 2356.8129,-81.9425"/>
</g>
<!-- Node29&#45;&gt;Node12 -->
<g id="edge59" class="edge">
<title>Node29&#45;&gt;Node12</title>
<path fill="none" stroke="#191970" d="M2979.2394,-198.3165C2759.2746,-191.1304 1907.8513,-162.9846 1788,-154 1755.0876,-151.5327 1717.8851,-147.2267 1690.5619,-143.7784"/>
<polygon fill="#191970" stroke="#191970" points="1690.9666,-140.3017 1680.6033,-142.5044 1690.0783,-147.2451 1690.9666,-140.3017"/>
</g>
<!-- Node29&#45;&gt;Node19 -->
<g id="edge64" class="edge">
<title>Node29&#45;&gt;Node19</title>
<path fill="none" stroke="#191970" d="M3069.4779,-190.4581C3112.8269,-179.7082 3183.3639,-162.2162 3230.4627,-150.5365"/>
<polygon fill="#191970" stroke="#191970" points="3231.5683,-153.8684 3240.4318,-148.0643 3229.8834,-147.0742 3231.5683,-153.8684"/>
</g>
<!-- Node30 -->
<g id="node31" class="node">
<title>Node30</title>
<g id="a_node31"><a xlink:href="Cache_8h.html" target="_top" xlink:title="Cache.h">
<polygon fill="none" stroke="#000000" points="3483,-129 3483,-148 3539,-148 3539,-129 3483,-129"/>
<text text-anchor="middle" x="3511" y="-136" font-family="Helvetica,sans-Serif" font-size="10.00" fill="#000000">Cache.h</text>
</a>
</g>
</g>
<!-- Node29&#45;&gt;Node30 -->
<g id="edge37" class="edge">
<title>Node29&#45;&gt;Node30</title>
<path fill="none" stroke="#191970" d="M3082.8245,-193.36C3179.9812,-180.9118 3387.3958,-154.3368 3472.9204,-143.3789"/>
<polygon fill="#191970" stroke="#191970" points="3473.4948,-146.8341 3482.9689,-142.0915 3472.6051,-139.8908 3473.4948,-146.8341"/>
</g>
<!-- Node31 -->
<g id="node32" class="node">
<title>Node31</title>
<polygon fill="none" stroke="#bfbfbf" points="3391,-62 3391,-81 3439,-81 3439,-62 3391,-62"/>
<text text-anchor="middle" x="3415" y="-69" font-family="Helvetica,sans-Serif" font-size="10.00" fill="#000000">mutex</text>
</g>
<!-- Node29&#45;&gt;Node31 -->
<g id="edge60" class="edge">
<title>Node29&#45;&gt;Node31</title>
<path fill="none" stroke="#191970" d="M3063.8875,-190.4745C3089.4956,-182.4312 3125.5213,-169.7211 3155,-154 3175.7883,-142.9136 3176.3828,-132.3679 3198,-123 3274.4578,-89.8669 3302.8018,-112.9085 3382,-87 3383.8499,-86.3948 3385.7315,-85.7114 3387.6106,-84.9773"/>
<polygon fill="#191970" stroke="#191970" points="3389.0236,-88.1796 3396.8252,-81.0113 3386.2562,-81.7498 3389.0236,-88.1796"/>
</g>
<!-- Node29&#45;&gt;Node32 -->
<g id="edge63" class="edge">
<title>Node29&#45;&gt;Node32</title>
<path fill="none" stroke="#191970" d="M3082.5343,-197.4385C3205.0505,-191.0617 3506.6057,-173.5715 3548,-154 3578.2342,-139.7051 3603.4238,-109.0717 3617.3285,-89.4222"/>
<polygon fill="#191970" stroke="#191970" points="3620.3155,-91.2544 3623.0609,-81.0215 3614.5334,-87.3089 3620.3155,-91.2544"/>
</g>
<!-- Node34 -->
<g id="node35" class="node">
<title>Node34</title>
<g id="a_node35"><a xlink:href="SQLite_8h.html" target="_top" xlink:title="SQLite.h">
<polygon fill="none" stroke="#000000" points="3017.5,-129 3017.5,-148 3074.5,-148 3074.5,-129 3017.5,-129"/>
<text text-anchor="middle" x="3046" y="-136" font-family="Helvetica,sans-Serif" font-size="10.00" fill="#000000">SQLite.h</text>
</a>
</g>
</g>
<!-- Node29&#45;&gt;Node34 -->
<g id="edge41" class="edge">
<title>Node29&#45;&gt;Node34</title>
<path fill="none" stroke="#191970" d="M3033.3438,-190.3906C3035.4449,-181.776 3038.5925,-168.8708 3041.223,-158.0858"/>
<polygon fill="#191970" stroke="#191970" points="3044.6539,-158.7894 3043.6232,-148.2449 3037.8532,-157.1307 3044.6539,-158.7894"/>
</g>
<!-- Node29&#45;&gt;Node46 -->
<g id="edge62" class="edge">
<title>Node29&#45;&gt;Node46</title>
<path fill="none" stroke="#191970" d="M3004.9063,-190.3906C2974.9409,-179.3555 2925.858,-161.2801 2894.2477,-149.6391"/>
<polygon fill="#191970" stroke="#191970" points="2895.2384,-146.2742 2884.645,-146.1028 2892.8194,-152.843 2895.2384,-146.2742"/>
</g>
<!-- Node30&#45;&gt;Node31 -->
<g id="edge38" class="edge">
<title>Node30&#45;&gt;Node31</title>
<path fill="none" stroke="#191970" d="M3497.2455,-128.9005C3481.5623,-117.9549 3455.7017,-99.9064 3437.1642,-86.9688"/>
<polygon fill="#191970" stroke="#191970" points="3438.9324,-83.9347 3428.7289,-81.0817 3434.9262,-89.675 3438.9324,-83.9347"/>
</g>
<!-- Node30&#45;&gt;Node32 -->
<g id="edge39" class="edge">
<title>Node30&#45;&gt;Node32</title>
<path fill="none" stroke="#191970" d="M3527.9065,-128.9005C3547.622,-117.7062 3580.4222,-99.0823 3603.2959,-86.0947"/>
<polygon fill="#191970" stroke="#191970" points="3605.157,-89.0629 3612.1248,-81.0817 3601.7007,-82.9757 3605.157,-89.0629"/>
</g>
<!-- Node33 -->
<g id="node34" class="node">
<title>Node33</title>
<polygon fill="none" stroke="#bfbfbf" points="3457.5,-62 3457.5,-81 3564.5,-81 3564.5,-62 3457.5,-62"/>
<text text-anchor="middle" x="3511" y="-69" font-family="Helvetica,sans-Serif" font-size="10.00" fill="#000000">boost/optional.hpp</text>
</g>
<!-- Node30&#45;&gt;Node33 -->
<g id="edge40" class="edge">
<title>Node30&#45;&gt;Node33</title>
<path fill="none" stroke="#191970" d="M3511,-128.9005C3511,-119.149 3511,-103.7597 3511,-91.3695"/>
<polygon fill="#191970" stroke="#191970" points="3514.5001,-91.0816 3511,-81.0817 3507.5001,-91.0817 3514.5001,-91.0816"/>
</g>
<!-- Node34&#45;&gt;Node7 -->
<g id="edge45" class="edge">
<title>Node34&#45;&gt;Node7</title>
<path fill="none" stroke="#191970" d="M3017.2686,-135.2392C2986.5437,-131.8342 2936.3767,-126.5102 2893,-123 2629.3774,-101.6668 2561.5,-119.3384 2299,-87 2284.2488,-85.1827 2268.1628,-82.3736 2254.1131,-79.6433"/>
<polygon fill="#191970" stroke="#191970" points="2254.7823,-76.208 2244.2909,-77.6845 2253.4133,-83.0728 2254.7823,-76.208"/>
</g>
<!-- Node34&#45;&gt;Node8 -->
<g id="edge46" class="edge">
<title>Node34&#45;&gt;Node8</title>
<path fill="none" stroke="#191970" d="M3023.1444,-128.8749C3016.7341,-126.5587 3009.6871,-124.3625 3003,-123 2722.9715,-65.9462 2637.1888,-160.4224 2361,-87 2359.081,-86.4898 2357.1416,-85.8537 2355.219,-85.1324"/>
<polygon fill="#191970" stroke="#191970" points="2356.4778,-81.8619 2345.9175,-81.0069 2353.6396,-88.2608 2356.4778,-81.8619"/>
</g>
<!-- Node34&#45;&gt;Node20 -->
<g id="edge42" class="edge">
<title>Node34&#45;&gt;Node20</title>
<path fill="none" stroke="#191970" d="M3071.3114,-128.8514C3077.0851,-126.7974 3083.2222,-124.7289 3089,-123 3154.6822,-103.3455 3173.2468,-106.4156 3239,-87 3241.7672,-86.1829 3244.6162,-85.2931 3247.4709,-84.3665"/>
<polygon fill="#191970" stroke="#191970" points="3248.7272,-87.6367 3257.0867,-81.1275 3246.4926,-81.0029 3248.7272,-87.6367"/>
</g>
<!-- Node34&#45;&gt;Node25 -->
<g id="edge43" class="edge">
<title>Node34&#45;&gt;Node25</title>
<path fill="none" stroke="#191970" d="M3017.2755,-135.152C2986.5563,-131.6742 2936.394,-126.2899 2893,-123 2576.1728,-98.9798 2495.2392,-117.8095 2179,-87 2156.5687,-84.8146 2131.6407,-81.2695 2111.4927,-78.1209"/>
<polygon fill="#191970" stroke="#191970" points="2111.8566,-74.6348 2101.4308,-76.5198 2110.7565,-81.5478 2111.8566,-74.6348"/>
</g>
<!-- Node35 -->
<g id="node36" class="node">
<title>Node35</title>
<polygon fill="none" stroke="#bfbfbf" points="2969,-.5 2969,-19.5 3023,-19.5 3023,-.5 2969,-.5"/>
<text text-anchor="middle" x="2996" y="-7.5" font-family="Helvetica,sans-Serif" font-size="10.00" fill="#000000">random</text>
</g>
<!-- Node34&#45;&gt;Node35 -->
<g id="edge44" class="edge">
<title>Node34&#45;&gt;Node35</title>
<path fill="none" stroke="#191970" d="M3072.9496,-128.9191C3107.1565,-116.4902 3162.4242,-95.4059 3168,-87 3175.6159,-75.5185 3176.39,-66.9287 3168,-56 3151.716,-34.7887 3078.8743,-21.2368 3033.3646,-14.68"/>
<polygon fill="#191970" stroke="#191970" points="3033.6539,-11.1867 3023.2669,-13.2749 3032.689,-18.1198 3033.6539,-11.1867"/>
</g>
<!-- Node36 -->
<g id="node37" class="node">
<title>Node36</title>
<polygon fill="none" stroke="#bfbfbf" points="2971,-62 2971,-81 3019,-81 3019,-62 2971,-62"/>
<text text-anchor="middle" x="2995" y="-69" font-family="Helvetica,sans-Serif" font-size="10.00" fill="#000000">thread</text>
</g>
<!-- Node34&#45;&gt;Node36 -->
<g id="edge47" class="edge">
<title>Node34&#45;&gt;Node36</title>
<path fill="none" stroke="#191970" d="M3038.6929,-128.9005C3030.8157,-118.552 3018.1054,-101.8542 3008.4194,-89.1295"/>
<polygon fill="#191970" stroke="#191970" points="3011.1354,-86.9188 3002.2935,-81.0817 3005.5654,-91.1586 3011.1354,-86.9188"/>
</g>
<!-- Node34&#45;&gt;Node37 -->
<g id="edge48" class="edge">
<title>Node34&#45;&gt;Node37</title>
<path fill="none" stroke="#191970" d="M3072.3409,-128.9167C3111.3771,-114.6994 3180.5948,-89.4247 3186,-87 3212.6685,-75.037 3216.8219,-66.7551 3244,-56 3285.6283,-39.5265 3335.2298,-26.9098 3370.263,-19.0926"/>
<polygon fill="#191970" stroke="#191970" points="3371.1702,-22.477 3380.1901,-16.9189 3369.6728,-15.639 3371.1702,-22.477"/>
</g>
<!-- Node38 -->
<g id="node39" class="node">
<title>Node38</title>
<polygon fill="none" stroke="#bfbfbf" points="3037,-56.5 3037,-86.5 3159,-86.5 3159,-56.5 3037,-56.5"/>
<text text-anchor="start" x="3045" y="-74.5" font-family="Helvetica,sans-Serif" font-size="10.00" fill="#000000">boost/iterator/iterator</text>
<text text-anchor="middle" x="3098" y="-63.5" font-family="Helvetica,sans-Serif" font-size="10.00" fill="#000000">_facade.hpp</text>
</g>
<!-- Node34&#45;&gt;Node38 -->
<g id="edge49" class="edge">
<title>Node34&#45;&gt;Node38</title>
<path fill="none" stroke="#191970" d="M3053.4503,-128.9005C3060.3653,-119.9908 3070.933,-106.3748 3080.0407,-94.6399"/>
<polygon fill="#191970" stroke="#191970" points="3082.975,-96.5676 3086.3413,-86.5218 3077.4451,-92.2757 3082.975,-96.5676"/>
</g>
<!-- Node39 -->
<g id="node40" class="node">
<title>Node39</title>
<polygon fill="none" stroke="#bfbfbf" points="2893.5,-62 2893.5,-81 2952.5,-81 2952.5,-62 2893.5,-62"/>
<text text-anchor="middle" x="2923" y="-69" font-family="Helvetica,sans-Serif" font-size="10.00" fill="#000000">sqlite3.h</text>
</g>
<!-- Node34&#45;&gt;Node39 -->
<g id="edge50" class="edge">
<title>Node34&#45;&gt;Node39</title>
<path fill="none" stroke="#191970" d="M3028.3771,-128.9005C3007.7349,-117.6564 2973.332,-98.9166 2949.476,-85.9219"/>
<polygon fill="#191970" stroke="#191970" points="2951.0462,-82.7916 2940.5902,-81.0817 2947.6977,-88.9388 2951.0462,-82.7916"/>
</g>
<!-- Node34&#45;&gt;Node40 -->
<g id="edge51" class="edge">
<title>Node34&#45;&gt;Node40</title>
<path fill="none" stroke="#191970" d="M3020.1541,-128.9365C3014.519,-126.9206 3008.5744,-124.8465 3003,-123 2950.5467,-105.6252 2935.3408,-107.4293 2884,-87 2882.6372,-86.4577 2881.2529,-85.8782 2879.8636,-85.2734"/>
<polygon fill="#191970" stroke="#191970" points="2881.3373,-82.0989 2870.7952,-81.0433 2878.3781,-88.4426 2881.3373,-82.0989"/>
</g>
<!-- Node34&#45;&gt;Node41 -->
<g id="edge52" class="edge">
<title>Node34&#45;&gt;Node41</title>
<path fill="none" stroke="#191970" d="M3022.6697,-128.8387C3016.3803,-126.5813 3009.5121,-124.4232 3003,-123 2891.7711,-98.691 2539.0589,-78.9472 2427.8974,-73.1975"/>
<polygon fill="#191970" stroke="#191970" points="2427.7801,-69.6869 2417.6139,-72.67 2427.4214,-76.6778 2427.7801,-69.6869"/>
</g>
<!-- Node41&#45;&gt;Node35 -->
<g id="edge56" class="edge">
<title>Node41&#45;&gt;Node35</title>
<path fill="none" stroke="#191970" d="M2417.5991,-69.0891C2509.733,-59.6768 2845.6726,-25.3574 2958.645,-13.8162"/>
<polygon fill="#191970" stroke="#191970" points="2959.2736,-17.2703 2968.8661,-12.772 2958.5622,-10.3065 2959.2736,-17.2703"/>
</g>
<!-- Node41&#45;&gt;Node37 -->
<g id="edge57" class="edge">
<title>Node41&#45;&gt;Node37</title>
<path fill="none" stroke="#191970" d="M2417.7349,-70.0703C2549.6993,-62.1214 3193.4711,-23.3438 3370.0995,-12.7046"/>
<polygon fill="#191970" stroke="#191970" points="3370.5597,-16.1833 3380.3311,-12.0883 3370.1387,-9.196 3370.5597,-16.1833"/>
</g>
<!-- Node42 -->
<g id="node43" class="node">
<title>Node42</title>
<polygon fill="none" stroke="#bfbfbf" points="679,-.5 679,-19.5 743,-19.5 743,-.5 679,-.5"/>
<text text-anchor="middle" x="711" y="-7.5" font-family="Helvetica,sans-Serif" font-size="10.00" fill="#000000">algorithm</text>
</g>
<!-- Node41&#45;&gt;Node42 -->
<g id="edge53" class="edge">
<title>Node41&#45;&gt;Node42</title>
<path fill="none" stroke="#191970" d="M2377.0186,-61.9006C2372.0118,-59.5231 2366.419,-57.2888 2361,-56 2200.6383,-17.8612 995.7409,-11.1203 753.3893,-10.1463"/>
<polygon fill="#191970" stroke="#191970" points="753.2392,-6.6458 743.2256,-10.1066 753.2118,-13.6457 753.2392,-6.6458"/>
</g>
<!-- Node43 -->
<g id="node44" class="node">
<title>Node43</title>
<polygon fill="none" stroke="#bfbfbf" points="84.5,-.5 84.5,-19.5 143.5,-19.5 143.5,-.5 84.5,-.5"/>
<text text-anchor="middle" x="114" y="-7.5" font-family="Helvetica,sans-Serif" font-size="10.00" fill="#000000">complex</text>
</g>
<!-- Node41&#45;&gt;Node43 -->
<g id="edge54" class="edge">
<title>Node41&#45;&gt;Node43</title>
<path fill="none" stroke="#191970" d="M2377.0248,-61.8746C2372.018,-59.4967 2366.4237,-57.2687 2361,-56 2347.0145,-52.7285 455.8006,-16.5212 154.3092,-10.7683"/>
<polygon fill="#191970" stroke="#191970" points="153.9316,-7.2605 143.8667,-10.5691 153.798,-14.2592 153.9316,-7.2605"/>
</g>
<!-- Node44 -->
<g id="node45" class="node">
<title>Node44</title>
<polygon fill="none" stroke="#bfbfbf" points="1775.5,-.5 1775.5,-19.5 1840.5,-19.5 1840.5,-.5 1775.5,-.5"/>
<text text-anchor="middle" x="1808" y="-7.5" font-family="Helvetica,sans-Serif" font-size="10.00" fill="#000000">functional</text>
</g>
<!-- Node41&#45;&gt;Node44 -->
<g id="edge55" class="edge">
<title>Node41&#45;&gt;Node44</title>
<path fill="none" stroke="#191970" d="M2376.6278,-61.9311C2371.7089,-59.6152 2366.2591,-57.405 2361,-56 2264.8606,-30.3165 1963.7661,-16.1293 1851.1113,-11.6092"/>
<polygon fill="#191970" stroke="#191970" points="1850.9412,-8.0999 1840.8107,-11.2019 1850.6646,-15.0944 1850.9412,-8.0999"/>
</g>
<!-- Node45 -->
<g id="node46" class="node">
<title>Node45</title>
<polygon fill="none" stroke="#bfbfbf" points="2366,-.5 2366,-19.5 2422,-19.5 2422,-.5 2366,-.5"/>
<text text-anchor="middle" x="2394" y="-7.5" font-family="Helvetica,sans-Serif" font-size="10.00" fill="#000000">unistd.h</text>
</g>
<!-- Node41&#45;&gt;Node45 -->
<g id="edge58" class="edge">
<title>Node41&#45;&gt;Node45</title>
<path fill="none" stroke="#191970" d="M2394,-61.8906C2394,-53.3657 2394,-40.6392 2394,-29.9235"/>
<polygon fill="#191970" stroke="#191970" points="2397.5001,-29.7448 2394,-19.7449 2390.5001,-29.7449 2397.5001,-29.7448"/>
</g>
<!-- Node54&#45;&gt;Node2 -->
<g id="edge94" class="edge">
<title>Node54&#45;&gt;Node2</title>
<path fill="none" stroke="#191970" d="M1376.0774,-461.2784C1526.5522,-456.8552 2042.7034,-440.3692 2468,-411 2513.2152,-407.8776 2565.1854,-402.822 2598.9804,-399.3383"/>
<polygon fill="#191970" stroke="#191970" points="2599.6982,-402.7826 2609.2825,-398.2669 2598.9741,-395.8202 2599.6982,-402.7826"/>
</g>
<!-- Node54&#45;&gt;Node3 -->
<g id="edge93" class="edge">
<title>Node54&#45;&gt;Node3</title>
<path fill="none" stroke="#191970" d="M1376.1221,-460.6996C1511.9378,-454.8338 1929.7192,-435.2461 2063,-411 2152.0932,-394.7924 2253.2316,-360.4366 2305.1565,-341.5746"/>
<polygon fill="#191970" stroke="#191970" points="2306.6804,-344.7439 2314.8671,-338.0187 2304.2734,-338.1708 2306.6804,-344.7439"/>
</g>
<!-- Node54&#45;&gt;Node8 -->
<g id="edge125" class="edge">
<title>Node54&#45;&gt;Node8</title>
<path fill="none" stroke="#191970" d="M1376.2576,-461.9628C1582.2716,-458.8455 2454,-439.1195 2454,-328.5 2454,-328.5 2454,-328.5 2454,-261.5 2454,-196.2465 2386.2068,-210.7516 2354,-154 2342.7667,-134.2058 2336.3983,-108.7005 2333.086,-91.3232"/>
<polygon fill="#191970" stroke="#191970" points="2336.4907,-90.4724 2331.3304,-81.2193 2329.5941,-91.6709 2336.4907,-90.4724"/>
</g>
<!-- Node54&#45;&gt;Node12 -->
<g id="edge102" class="edge">
<title>Node54&#45;&gt;Node12</title>
<path fill="none" stroke="#191970" d="M1344.452,-452.8757C1355.3372,-443.2236 1371.554,-427.4653 1382,-411 1399.1113,-384.0287 1402.1218,-375.3958 1408,-344 1420.6816,-276.2666 1346.2429,-243.2349 1390,-190 1417.5599,-156.4706 1545.3301,-144.4151 1611.315,-140.3749"/>
<polygon fill="#191970" stroke="#191970" points="1611.5692,-143.8662 1621.3499,-139.7933 1611.164,-136.8779 1611.5692,-143.8662"/>
</g>
<!-- Node54&#45;&gt;Node18 -->
<g id="edge129" class="edge">
<title>Node54&#45;&gt;Node18</title>
<path fill="none" stroke="#191970" d="M1322.7847,-452.6947C1290.8474,-421.2082 1193.1613,-318.3788 1162,-210 1145.1777,-151.4922 1219.8203,-106.5903 1265.2175,-85.2266"/>
<polygon fill="#191970" stroke="#191970" points="1266.7727,-88.3642 1274.4174,-81.0287 1263.8668,-81.9958 1266.7727,-88.3642"/>
</g>
<!-- Node54&#45;&gt;Node25 -->
<g id="edge121" class="edge">
<title>Node54&#45;&gt;Node25</title>
<path fill="none" stroke="#191970" d="M1366.5391,-452.9272C1393.9465,-444.2752 1433.0738,-429.9868 1464,-411 1628.191,-310.1967 1614.6054,-206.99 1788,-123 1870.4649,-83.0551 1900.8883,-103.6112 1991,-87 2004.5546,-84.5013 2019.3689,-81.6901 2032.5788,-79.1547"/>
<polygon fill="#191970" stroke="#191970" points="2033.6163,-82.5193 2042.7742,-77.1917 2032.2928,-75.6455 2033.6163,-82.5193"/>
</g>
<!-- Node54&#45;&gt;Node26 -->
<g id="edge123" class="edge">
<title>Node54&#45;&gt;Node26</title>
<path fill="none" stroke="#191970" d="M1376.0647,-460.9185C1524.5998,-455.2581 2007.6527,-435.0594 2030,-411 2039.3765,-400.9051 2038.8728,-390.5404 2030,-380 1969.5812,-308.2258 1882.4188,-415.7742 1822,-344 1793.9504,-310.6787 1795.7147,-280.7299 1822,-246 1830.3811,-234.9264 1915.1641,-215.1447 1959.0185,-205.5386"/>
<polygon fill="#191970" stroke="#191970" points="1959.9351,-208.9212 1968.9657,-203.3806 1958.4509,-202.0804 1959.9351,-208.9212"/>
</g>
<!-- Node54&#45;&gt;Node27 -->
<g id="edge127" class="edge">
<title>Node54&#45;&gt;Node27</title>
<path fill="none" stroke="#191970" d="M1328.1167,-452.7678C1320.291,-437.2558 1304.3594,-406.0198 1290,-380 1264.7205,-334.1925 1251.797,-325.8268 1233,-277 1225.7553,-258.1812 1220.5814,-235.6938 1217.4801,-219.8942"/>
<polygon fill="#191970" stroke="#191970" points="1220.8574,-218.9114 1215.5881,-209.7198 1213.9753,-220.1911 1220.8574,-218.9114"/>
</g>
<!-- Node54&#45;&gt;Node32 -->
<g id="edge126" class="edge">
<title>Node54&#45;&gt;Node32</title>
<path fill="none" stroke="#191970" d="M1376.1252,-462.1734C1596.6873,-460.3382 2600.2198,-449.9542 2909,-411 3045.4045,-393.7919 3080.9721,-388.6662 3211,-344 3397.1381,-280.0593 3488.6144,-308.1349 3611,-154 3625.268,-136.0307 3628.8177,-109.1956 3629.4219,-91.0525"/>
<polygon fill="#191970" stroke="#191970" points="3632.9219,-91.0587 3629.487,-81.0361 3625.922,-91.0131 3632.9219,-91.0587"/>
</g>
<!-- Node54&#45;&gt;Node40 -->
<g id="edge128" class="edge">
<title>Node54&#45;&gt;Node40</title>
<path fill="none" stroke="#191970" d="M1376.3068,-461.9378C1576.1491,-459.1737 2410.4816,-445.7321 2669,-411 2929.4957,-376.0022 3081.5535,-482.8352 3245,-277 3253.5678,-266.2102 3254.1594,-256.2923 3245,-246 3199.1887,-194.5222 2993.5036,-249.4459 2937,-210 2901.4708,-185.1966 2916.1743,-159.6126 2893,-123 2885.5072,-111.1623 2875.9114,-98.735 2867.9967,-89.0543"/>
<polygon fill="#191970" stroke="#191970" points="2870.6587,-86.7815 2861.5693,-81.338 2865.2802,-91.2617 2870.6587,-86.7815"/>
</g>
<!-- Node54&#45;&gt;Node42 -->
<g id="edge108" class="edge">
<title>Node54&#45;&gt;Node42</title>
<path fill="none" stroke="#191970" d="M1289.9174,-462.0792C1093.7851,-459.9605 290.3232,-449.0121 185,-411 127.8519,-390.3747 76,-389.2561 76,-328.5 76,-328.5 76,-328.5 76,-138.5 76,-75.597 132.0251,-77.8803 191,-56 278.372,-23.5842 560.9416,-13.564 668.7094,-10.8764"/>
<polygon fill="#191970" stroke="#191970" points="668.9672,-14.3713 678.8801,-10.6318 668.7988,-7.3734 668.9672,-14.3713"/>
</g>
<!-- Node54&#45;&gt;Node43 -->
<g id="edge117" class="edge">
<title>Node54&#45;&gt;Node43</title>
<path fill="none" stroke="#191970" d="M1289.724,-461.7946C1077.1727,-458.1913 151.87,-440.8375 99,-411 29.5973,-371.8321 0,-341.1923 0,-261.5 0,-261.5 0,-261.5 0,-138.5 0,-86.4335 53.0205,-45.6189 86.744,-24.9249"/>
<polygon fill="#191970" stroke="#191970" points="88.8641,-27.7371 95.6839,-19.6291 85.2963,-21.7145 88.8641,-27.7371"/>
</g>
<!-- Node54&#45;&gt;Node44 -->
<g id="edge118" class="edge">
<title>Node54&#45;&gt;Node44</title>
<path fill="none" stroke="#191970" d="M1289.9375,-461.7067C1091.4272,-457.8965 272.3091,-440.4378 227,-411 164.6644,-370.5 152,-335.8369 152,-261.5 152,-261.5 152,-261.5 152,-138.5 152,-21.9381 554.0108,-67.5405 670,-56 888.5983,-34.2503 1585.0508,-15.6019 1765.1537,-11.0565"/>
<polygon fill="#191970" stroke="#191970" points="1765.3854,-14.5519 1775.2943,-10.8018 1765.2095,-7.5541 1765.3854,-14.5519"/>
</g>
<!-- Node54&#45;&gt;Node48 -->
<g id="edge120" class="edge">
<title>Node54&#45;&gt;Node48</title>
<path fill="none" stroke="#191970" d="M1376.2696,-453.4107C1399.7761,-446.0892 1427.0261,-433.2142 1442,-411 1482.116,-351.4868 1467.933,-259.7297 1459.009,-219.7505"/>
<polygon fill="#191970" stroke="#191970" points="1462.3907,-218.8417 1456.6809,-209.9171 1455.579,-220.4545 1462.3907,-218.8417"/>
</g>
<!-- Node54&#45;&gt;Node49 -->
<g id="edge109" class="edge">
<title>Node54&#45;&gt;Node49</title>
<path fill="none" stroke="#191970" d="M1334.9525,-452.8592C1337.7082,-436.6564 1341.0602,-403.4402 1328,-380 1314.496,-355.7633 1289.7644,-368.6343 1277,-344 1266.1943,-323.1459 1278.0326,-296.8557 1288.8125,-279.6319"/>
<polygon fill="#191970" stroke="#191970" points="1291.8794,-281.3427 1294.542,-271.0879 1286.0655,-277.444 1291.8794,-281.3427"/>
</g>
<!-- Node55 -->
<g id="node56" class="node">
<title>Node55</title>
<g id="a_node56"><a xlink:href="WignerD_8h.html" target="_top" xlink:title="WignerD.h">
<polygon fill="none" stroke="#000000" points="1142,-386 1142,-405 1210,-405 1210,-386 1142,-386"/>
<text text-anchor="middle" x="1176" y="-393" font-family="Helvetica,sans-Serif" font-size="10.00" fill="#000000">WignerD.h</text>
</a>
</g>
</g>
<!-- Node54&#45;&gt;Node55 -->
<g id="edge95" class="edge">
<title>Node54&#45;&gt;Node55</title>
<path fill="none" stroke="#191970" d="M1310.5057,-452.9005C1283.5747,-441.4077 1238.2933,-422.0838 1207.7936,-409.068"/>
<polygon fill="#191970" stroke="#191970" points="1209.0238,-405.7876 1198.4525,-405.0817 1206.2763,-412.2259 1209.0238,-405.7876"/>
</g>
<!-- Node54&#45;&gt;Node58 -->
<g id="edge122" class="edge">
<title>Node54&#45;&gt;Node58</title>
<path fill="none" stroke="#191970" d="M1289.7095,-462.0972C1092.0808,-460.051 283.5772,-449.3529 247,-411 237.4912,-401.0296 239.1142,-391.2979 247,-380 273.5581,-341.9506 301.8126,-360.9686 345,-344 346.7988,-343.2932 348.6424,-342.5576 350.4999,-341.8076"/>
<polygon fill="#191970" stroke="#191970" points="351.8393,-345.0412 359.7608,-338.0056 349.1808,-338.5657 351.8393,-345.0412"/>
</g>
<!-- Node59 -->
<g id="node60" class="node">
<title>Node59</title>
<g id="a_node60"><a xlink:href="serialization__eigen_8h.html" target="_top" xlink:title="serialization_eigen.h">
<polygon fill="none" stroke="#000000" points="218,-319 218,-338 336,-338 336,-319 218,-319"/>
<text text-anchor="middle" x="277" y="-326" font-family="Helvetica,sans-Serif" font-size="10.00" fill="#000000">serialization_eigen.h</text>
</a>
</g>
</g>
<!-- Node54&#45;&gt;Node59 -->
<g id="edge103" class="edge">
<title>Node54&#45;&gt;Node59</title>
<path fill="none" stroke="#191970" d="M1289.9749,-462.1193C1091.6815,-460.1586 273.9627,-449.7403 237,-411 218.8284,-391.9544 240.8268,-363.0874 258.6791,-345.0361"/>
<polygon fill="#191970" stroke="#191970" points="261.1818,-347.485 265.947,-338.0222 256.3208,-342.448 261.1818,-347.485"/>
</g>
<!-- Node60 -->
<g id="node61" class="node">
<title>Node60</title>
<g id="a_node61"><a xlink:href="serialization__path_8h.html" target="_top" xlink:title="serialization_path.h">
<polygon fill="none" stroke="#000000" points="1286.5,-319 1286.5,-338 1399.5,-338 1399.5,-319 1286.5,-319"/>
<text text-anchor="middle" x="1343" y="-326" font-family="Helvetica,sans-Serif" font-size="10.00" fill="#000000">serialization_path.h</text>
</a>
</g>
</g>
<!-- Node54&#45;&gt;Node60 -->
<g id="edge105" class="edge">
<title>Node54&#45;&gt;Node60</title>
<path fill="none" stroke="#191970" d="M1341.732,-452.7158C1349.8188,-442.9452 1361.2838,-427.1016 1366,-411 1372.4287,-389.0516 1362.8294,-363.6955 1354.1415,-346.9499"/>
<polygon fill="#191970" stroke="#191970" points="1357.1803,-345.2127 1349.2596,-338.1761 1351.0635,-348.6163 1357.1803,-345.2127"/>
</g>
<!-- Node61 -->
<g id="node62" class="node">
<title>Node61</title>
<polygon fill="none" stroke="#bfbfbf" points="1532.5,-380.5 1532.5,-410.5 1673.5,-410.5 1673.5,-380.5 1532.5,-380.5"/>
<text text-anchor="start" x="1540.5" y="-398.5" font-family="Helvetica,sans-Serif" font-size="10.00" fill="#000000">unsupported/Eigen/Matrix</text>
<text text-anchor="middle" x="1603" y="-387.5" font-family="Helvetica,sans-Serif" font-size="10.00" fill="#000000">Functions</text>
</g>
<!-- Node54&#45;&gt;Node61 -->
<g id="edge107" class="edge">
<title>Node54&#45;&gt;Node61</title>
<path fill="none" stroke="#191970" d="M1371.3977,-452.9717C1413.2509,-442.5859 1481.1178,-425.7449 1532.5923,-412.9715"/>
<polygon fill="#191970" stroke="#191970" points="1533.4665,-416.3608 1542.3292,-410.5553 1531.7806,-409.5669 1533.4665,-416.3608"/>
</g>
<!-- Node62 -->
<g id="node63" class="node">
<title>Node62</title>
<polygon fill="none" stroke="#bfbfbf" points="1691.5,-380.5 1691.5,-410.5 1834.5,-410.5 1834.5,-380.5 1691.5,-380.5"/>
<text text-anchor="start" x="1699.5" y="-398.5" font-family="Helvetica,sans-Serif" font-size="10.00" fill="#000000">boost/multi_index/hashed</text>
<text text-anchor="middle" x="1763" y="-387.5" font-family="Helvetica,sans-Serif" font-size="10.00" fill="#000000">_index.hpp</text>
</g>
<!-- Node54&#45;&gt;Node62 -->
<g id="edge110" class="edge">
<title>Node54&#45;&gt;Node62</title>
<path fill="none" stroke="#191970" d="M1376.0758,-456.7446C1440.1976,-448.0455 1564.7833,-430.6377 1681.3097,-411.0737"/>
<polygon fill="#191970" stroke="#191970" points="1682.1982,-414.4733 1691.4762,-409.3577 1681.0331,-407.5709 1682.1982,-414.4733"/>
</g>
<!-- Node63 -->
<g id="node64" class="node">
<title>Node63</title>
<polygon fill="none" stroke="#bfbfbf" points="1853,-386 1853,-405 2021,-405 2021,-386 1853,-386"/>
<text text-anchor="middle" x="1937" y="-393" font-family="Helvetica,sans-Serif" font-size="10.00" fill="#000000">boost/multi_index/member.hpp</text>
</g>
<!-- Node54&#45;&gt;Node63 -->
<g id="edge111" class="edge">
<title>Node54&#45;&gt;Node63</title>
<path fill="none" stroke="#191970" d="M1376.0918,-459.0682C1464.054,-451.8602 1670.535,-433.904 1843,-411 1852.7145,-409.7099 1862.9676,-408.1866 1872.9895,-406.6073"/>
<polygon fill="#191970" stroke="#191970" points="1873.5869,-410.0563 1882.9059,-405.0159 1872.4776,-403.1448 1873.5869,-410.0563"/>
</g>
<!-- Node64 -->
<g id="node65" class="node">
<title>Node64</title>
<polygon fill="none" stroke="#bfbfbf" points="256.5,-380.5 256.5,-410.5 401.5,-410.5 401.5,-380.5 256.5,-380.5"/>
<text text-anchor="start" x="264.5" y="-398.5" font-family="Helvetica,sans-Serif" font-size="10.00" fill="#000000">boost/multi_index/random</text>
<text text-anchor="middle" x="329" y="-387.5" font-family="Helvetica,sans-Serif" font-size="10.00" fill="#000000">_access_index.hpp</text>
</g>
<!-- Node54&#45;&gt;Node64 -->
<g id="edge112" class="edge">
<title>Node54&#45;&gt;Node64</title>
<path fill="none" stroke="#191970" d="M1289.5669,-462.1296C1158.4221,-460.576 754.8872,-452.6036 411.9145,-411.1391"/>
<polygon fill="#191970" stroke="#191970" points="412.1359,-407.6402 401.7854,-409.9025 411.2876,-414.5886 412.1359,-407.6402"/>
</g>
<!-- Node65 -->
<g id="node66" class="node">
<title>Node65</title>
<polygon fill="none" stroke="#bfbfbf" points="419.5,-386 419.5,-405 594.5,-405 594.5,-386 419.5,-386"/>
<text text-anchor="middle" x="507" y="-393" font-family="Helvetica,sans-Serif" font-size="10.00" fill="#000000">boost/multi_index_container.hpp</text>
</g>
<!-- Node54&#45;&gt;Node65 -->
<g id="edge113" class="edge">
<title>Node54&#45;&gt;Node65</title>
<path fill="none" stroke="#191970" d="M1289.6776,-460.801C1176.4865,-456.068 862.6734,-441.0616 603,-411 592.5152,-409.7862 581.4258,-408.2408 570.6526,-406.5982"/>
<polygon fill="#191970" stroke="#191970" points="570.8716,-403.0899 560.4506,-405.0012 569.789,-410.0057 570.8716,-403.0899"/>
</g>
<!-- Node66 -->
<g id="node67" class="node">
<title>Node66</title>
<polygon fill="none" stroke="#bfbfbf" points="612.5,-380.5 612.5,-410.5 719.5,-410.5 719.5,-380.5 612.5,-380.5"/>
<text text-anchor="start" x="620.5" y="-398.5" font-family="Helvetica,sans-Serif" font-size="10.00" fill="#000000">boost/serialization</text>
<text text-anchor="middle" x="666" y="-387.5" font-family="Helvetica,sans-Serif" font-size="10.00" fill="#000000">/complex.hpp</text>
</g>
<!-- Node54&#45;&gt;Node66 -->
<g id="edge114" class="edge">
<title>Node54&#45;&gt;Node66</title>
<path fill="none" stroke="#191970" d="M1289.7932,-461.1946C1191.6496,-457.7215 944.3833,-446.1073 729.5405,-411.1035"/>
<polygon fill="#191970" stroke="#191970" points="730.0946,-407.6476 719.6582,-409.4729 728.9549,-414.5543 730.0946,-407.6476"/>
</g>
<!-- Node67 -->
<g id="node68" class="node">
<title>Node67</title>
<polygon fill="none" stroke="#bfbfbf" points="737.5,-380.5 737.5,-410.5 844.5,-410.5 844.5,-380.5 737.5,-380.5"/>
<text text-anchor="start" x="745.5" y="-398.5" font-family="Helvetica,sans-Serif" font-size="10.00" fill="#000000">boost/serialization</text>
<text text-anchor="middle" x="791" y="-387.5" font-family="Helvetica,sans-Serif" font-size="10.00" fill="#000000">/set.hpp</text>
</g>
<!-- Node54&#45;&gt;Node67 -->
<g id="edge115" class="edge">
<title>Node54&#45;&gt;Node67</title>
<path fill="none" stroke="#191970" d="M1289.6908,-459.8655C1206.8503,-454.3919 1020.1515,-439.9631 854.5417,-411.1393"/>
<polygon fill="#191970" stroke="#191970" points="855.1265,-407.6885 844.6708,-409.3995 853.9115,-414.5822 855.1265,-407.6885"/>
</g>
<!-- Node68 -->
<g id="node69" class="node">
<title>Node68</title>
<polygon fill="none" stroke="#bfbfbf" points="862.5,-380.5 862.5,-410.5 969.5,-410.5 969.5,-380.5 862.5,-380.5"/>
<text text-anchor="start" x="870.5" y="-398.5" font-family="Helvetica,sans-Serif" font-size="10.00" fill="#000000">boost/serialization</text>
<text text-anchor="middle" x="916" y="-387.5" font-family="Helvetica,sans-Serif" font-size="10.00" fill="#000000">/vector.hpp</text>
</g>
<!-- Node54&#45;&gt;Node68 -->
<g id="edge116" class="edge">
<title>Node54&#45;&gt;Node68</title>
<path fill="none" stroke="#191970" d="M1289.8657,-457.6671C1224.6458,-450.0484 1096.897,-433.9134 979.5633,-411.2063"/>
<polygon fill="#191970" stroke="#191970" points="980.1799,-407.7607 969.694,-409.2757 978.836,-414.6305 980.1799,-407.7607"/>
</g>
<!-- Node69 -->
<g id="node70" class="node">
<title>Node69</title>
<polygon fill="none" stroke="#bfbfbf" points="987.5,-386 987.5,-405 1040.5,-405 1040.5,-386 987.5,-386"/>
<text text-anchor="middle" x="1014" y="-393" font-family="Helvetica,sans-Serif" font-size="10.00" fill="#000000">iterator</text>
</g>
<!-- Node54&#45;&gt;Node69 -->
<g id="edge119" class="edge">
<title>Node54&#45;&gt;Node69</title>
<path fill="none" stroke="#191970" d="M1289.9049,-457.9167C1233.5934,-451.1994 1132.3443,-436.612 1049,-411 1046.8839,-410.3497 1044.7258,-409.6062 1042.5725,-408.8047"/>
<polygon fill="#191970" stroke="#191970" points="1043.8897,-405.5621 1033.3082,-405.0294 1041.248,-412.0445 1043.8897,-405.5621"/>
</g>
<!-- Node70 -->
<g id="node71" class="node">
<title>Node70</title>
<polygon fill="none" stroke="#bfbfbf" points="1058.5,-386 1058.5,-405 1123.5,-405 1123.5,-386 1058.5,-386"/>
<text text-anchor="middle" x="1091" y="-393" font-family="Helvetica,sans-Serif" font-size="10.00" fill="#000000">stdexcept</text>
</g>
<!-- Node54&#45;&gt;Node70 -->
<g id="edge124" class="edge">
<title>Node54&#45;&gt;Node70</title>
<path fill="none" stroke="#191970" d="M1290.8982,-452.9728C1250.1824,-443.4512 1186.9026,-427.8386 1133,-411 1130.4451,-410.2019 1127.8176,-409.338 1125.1832,-408.4405"/>
<polygon fill="#191970" stroke="#191970" points="1126.3252,-405.132 1115.7304,-405.1005 1123.9931,-411.7321 1126.3252,-405.132"/>
</g>
<!-- Node55&#45;&gt;Node16 -->
<g id="edge98" class="edge">
<title>Node55&#45;&gt;Node16</title>
<path fill="none" stroke="#191970" d="M1152.0893,-385.9435C1145.6539,-383.6853 1138.6356,-381.5006 1132,-380 984.649,-346.6774 934.5843,-399.3061 794,-344 737.1313,-321.6278 684,-322.6111 684,-261.5 684,-261.5 684,-261.5 684,-200 684,-161.0827 692.6339,-116.2416 698.2614,-91.1479"/>
<polygon fill="#191970" stroke="#191970" points="701.7419,-91.6325 700.5936,-81.1001 694.9232,-90.0497 701.7419,-91.6325"/>
</g>
<!-- Node55&#45;&gt;Node18 -->
<g id="edge101" class="edge">
<title>Node55&#45;&gt;Node18</title>
<path fill="none" stroke="#191970" d="M1152.0814,-385.978C1145.6461,-383.7195 1138.6298,-381.5261 1132,-380 1063.3399,-364.1954 869.5433,-390.9383 817,-344 788.9395,-318.9328 798,-299.1265 798,-261.5 798,-261.5 798,-261.5 798,-200 798,-151.7575 1151.669,-93.7692 1264.1118,-76.552"/>
<polygon fill="#191970" stroke="#191970" points="1264.8602,-79.9785 1274.2203,-75.0148 1263.8078,-73.0581 1264.8602,-79.9785"/>
</g>
<!-- Node55&#45;&gt;Node43 -->
<g id="edge99" class="edge">
<title>Node55&#45;&gt;Node43</title>
<path fill="none" stroke="#191970" d="M1152.1107,-385.8463C1145.6752,-383.5888 1138.6514,-381.4288 1132,-380 946.6628,-340.1864 888.1698,-399.7898 707,-344 462.3006,-268.6468 206.9812,-81.5552 134.3424,-25.8763"/>
<polygon fill="#191970" stroke="#191970" points="136.4589,-23.0887 126.4026,-19.754 132.1845,-28.6321 136.4589,-23.0887"/>
</g>
<!-- Node56 -->
<g id="node57" class="node">
<title>Node56</title>
<polygon fill="none" stroke="#bfbfbf" points="826,-313.5 826,-343.5 960,-343.5 960,-313.5 826,-313.5"/>
<text text-anchor="start" x="834" y="-331.5" font-family="Helvetica,sans-Serif" font-size="10.00" fill="#000000">boost/math/special</text>
<text text-anchor="middle" x="893" y="-320.5" font-family="Helvetica,sans-Serif" font-size="10.00" fill="#000000">_functions/binomial.hpp</text>
</g>
<!-- Node55&#45;&gt;Node56 -->
<g id="edge96" class="edge">
<title>Node55&#45;&gt;Node56</title>
<path fill="none" stroke="#191970" d="M1150.582,-385.9321C1144.5384,-383.8284 1138.0791,-381.7183 1132,-380 1116.3704,-375.5823 1033.9928,-358.037 970.2712,-344.6413"/>
<polygon fill="#191970" stroke="#191970" points="970.7235,-341.1599 960.2176,-342.5296 969.2846,-348.0105 970.7235,-341.1599"/>
</g>
<!-- Node57 -->
<g id="node58" class="node">
<title>Node57</title>
<polygon fill="none" stroke="#bfbfbf" points="978.5,-313.5 978.5,-343.5 1115.5,-343.5 1115.5,-313.5 978.5,-313.5"/>
<text text-anchor="start" x="986.5" y="-331.5" font-family="Helvetica,sans-Serif" font-size="10.00" fill="#000000">boost/math/special</text>
<text text-anchor="middle" x="1047" y="-320.5" font-family="Helvetica,sans-Serif" font-size="10.00" fill="#000000">_functions/factorials.hpp</text>
</g>
<!-- Node55&#45;&gt;Node57 -->
<g id="edge97" class="edge">
<title>Node55&#45;&gt;Node57</title>
<path fill="none" stroke="#191970" d="M1157.5174,-385.9005C1138.6975,-376.1258 1108.9711,-360.6865 1085.0862,-348.2812"/>
<polygon fill="#191970" stroke="#191970" points="1086.4102,-345.025 1075.9225,-343.5218 1083.1837,-351.2371 1086.4102,-345.025"/>
</g>
<!-- Node55&#45;&gt;Node58 -->
<g id="edge100" class="edge">
<title>Node55&#45;&gt;Node58</title>
<path fill="none" stroke="#191970" d="M1152.6007,-385.8556C1146.0413,-383.5394 1138.8335,-381.3479 1132,-380 822.883,-319.0264 732.656,-407.2662 424,-344 420.726,-343.3289 417.3668,-342.446 414.0435,-341.4412"/>
<polygon fill="#191970" stroke="#191970" points="414.8965,-338.0352 404.3023,-338.1519 412.657,-344.6673 414.8965,-338.0352"/>
</g>
<!-- Node59&#45;&gt;Node14 -->
<g id="edge104" class="edge">
<title>Node59&#45;&gt;Node14</title>
<path fill="none" stroke="#191970" d="M294.2762,-318.9715C354.5285,-286.1729 561.7317,-176.9986 746,-123 840.7744,-95.227 955.7555,-81.4787 1020.4326,-75.4787"/>
<polygon fill="#191970" stroke="#191970" points="1021.1095,-78.9319 1030.7545,-74.5475 1020.4805,-71.9602 1021.1095,-78.9319"/>
</g>
<!-- Node60&#45;&gt;Node49 -->
<g id="edge106" class="edge">
<title>Node60&#45;&gt;Node49</title>
<path fill="none" stroke="#191970" d="M1337.1257,-318.9005C1330.9148,-308.751 1320.9665,-292.4941 1313.2401,-279.8679"/>
<polygon fill="#191970" stroke="#191970" points="1316.0685,-277.7844 1307.8634,-271.0817 1310.0977,-281.4382 1316.0685,-277.7844"/>
</g>
</g>
</svg>
        <g id="navigator" transform="translate(0 0)" fill="#404254">
                <rect fill="#f2f5e9" fill-opacity="0.5" stroke="#606060" stroke-width=".5" x="0" y="0" width="60" height="60"/>
                <use id="zoomplus" xlink:href="#zoomPlus" x="17" y="9" onmousedown="handleZoom(evt,'in')"/>
                <use id="zoomminus" xlink:href="#zoomMin" x="42" y="9" onmousedown="handleZoom(evt,'out')"/>
                <use id="reset" xlink:href="#resetDef" x="30" y="36" onmousedown="handleReset()"/>
                <g id="arrowUp" xlink:href="#dirArrow" transform="translate(30 24)" onmousedown="handlePan(0,-1)">
                  <use xlink:href="#rim" fill="#404040">
                        <set attributeName="fill" to="#808080" begin="arrowUp.mouseover" end="arrowUp.mouseout"/>
                  </use>
                  <path fill="none" stroke="white" stroke-width="1.5" d="M0,-3.0v7 M-2.5,-0.5L0,-3.0L2.5,-0.5"/>
                </g>
                <g id="arrowRight" xlink:href="#dirArrow" transform="rotate(90) translate(36 -43)" onmousedown="handlePan(1,0)">
                  <use xlink:href="#rim" fill="#404040">
                        <set attributeName="fill" to="#808080" begin="arrowRight.mouseover" end="arrowRight.mouseout"/>
                  </use>
                  <path fill="none" stroke="white" stroke-width="1.5" d="M0,-3.0v7 M-2.5,-0.5L0,-3.0L2.5,-0.5"/>
                </g>
                <g id="arrowDown" xlink:href="#dirArrow" transform="rotate(180) translate(-30 -48)" onmousedown="handlePan(0,1)">
                  <use xlink:href="#rim" fill="#404040">
                        <set attributeName="fill" to="#808080" begin="arrowDown.mouseover" end="arrowDown.mouseout"/>
                  </use>
                  <path fill="none" stroke="white" stroke-width="1.5" d="M0,-3.0v7 M-2.5,-0.5L0,-3.0L2.5,-0.5"/>
                </g>
                <g id="arrowLeft" xlink:href="#dirArrow" transform="rotate(270) translate(-36 17)" onmousedown="handlePan(-1,0)">
                  <use xlink:href="#rim" fill="#404040">
                        <set attributeName="fill" to="#808080" begin="arrowLeft.mouseover" end="arrowLeft.mouseout"/>
                  </use>
                  <path fill="none" stroke="white" stroke-width="1.5" d="M0,-3.0v7 M-2.5,-0.5L0,-3.0L2.5,-0.5"/>
                </g>
        </g>
        <svg viewBox="0 0 15 15" width="100%" height="30px" preserveAspectRatio="xMaxYMin meet">
         <g id="arrow_out" transform="scale(0.3 0.3)">
          <a xlink:href="SystemOne_8cpp__incl_org.svg" target="_base">
           <rect id="button" ry="5" rx="5" y="6" x="6" height="38" width="38"
                fill="#f2f5e9" fill-opacity="0.5" stroke="#606060" stroke-width="1.0"/>
           <path id="arrow"
             d="M 11.500037,31.436501 C 11.940474,20.09759 22.043105,11.32322 32.158766,21.979434 L 37.068811,17.246167 C 37.068811,17.246167 37.088388,32 37.088388,32 L 22.160133,31.978069 C 22.160133,31.978069 26.997745,27.140456 26.997745,27.140456 C 18.528582,18.264221 13.291696,25.230495 11.500037,31.436501 z"
             style="fill:#404040;"/>
          </a>
         </g>
        </svg>
</svg>
