<?xml version="1.0" encoding="UTF-8" standalone="no"?>
<!DOCTYPE svg PUBLIC "-//W3C//DTD SVG 1.1//EN"
 "http://www.w3.org/Graphics/SVG/1.1/DTD/svg11.dtd">
<!-- Generated by graphviz version 2.40.1 (20161225.0304)
 -->
<!-- Title: /travis/pairinteraction/utils.h Pages: 1 -->
<svg width="467pt" height="95pt"
 viewBox="0.00 0.00 467.00 95.00" xmlns="http://www.w3.org/2000/svg" xmlns:xlink="http://www.w3.org/1999/xlink">
<g id="graph0" class="graph" transform="scale(1 1) rotate(0) translate(4 91)">
<title>/travis/pairinteraction/utils.h</title>
<!-- Node0 -->
<g id="node1" class="node">
<title>Node0</title>
<polygon fill="#bfbfbf" stroke="#000000" points="170,-56.5 170,-86.5 292,-86.5 292,-56.5 170,-56.5"/>
<text text-anchor="start" x="178" y="-74.5" font-family="Helvetica,sans-Serif" font-size="10.00" fill="#000000">/travis/pairinteraction</text>
<text text-anchor="middle" x="231" y="-63.5" font-family="Helvetica,sans-Serif" font-size="10.00" fill="#000000">/utils.h</text>
</g>
<!-- Node1 -->
<g id="node2" class="node">
<title>Node1</title>
<polygon fill="none" stroke="#bfbfbf" points="0,-.5 0,-19.5 64,-19.5 64,-.5 0,-.5"/>
<text text-anchor="middle" x="32" y="-7.5" font-family="Helvetica,sans-Serif" font-size="10.00" fill="#000000">algorithm</text>
</g>
<!-- Node0&#45;&gt;Node1 -->
<g id="edge1" class="edge">
<title>Node0&#45;&gt;Node1</title>
<path fill="none" stroke="#191970" d="M182.3191,-56.4554C148.6786,-46.059 104.4438,-32.3884 72.6825,-22.5727"/>
<polygon fill="#191970" stroke="#191970" points="73.4255,-19.1391 62.8379,-19.5303 71.3586,-25.827 73.4255,-19.1391"/>
</g>
<!-- Node2 -->
<g id="node3" class="node">
<title>Node2</title>
<polygon fill="none" stroke="#bfbfbf" points="82.5,-.5 82.5,-19.5 141.5,-19.5 141.5,-.5 82.5,-.5"/>
<text text-anchor="middle" x="112" y="-7.5" font-family="Helvetica,sans-Serif" font-size="10.00" fill="#000000">complex</text>
</g>
<!-- Node0&#45;&gt;Node2 -->
<g id="edge2" class="edge">
<title>Node0&#45;&gt;Node2</title>
<path fill="none" stroke="#191970" d="M201.8893,-56.4554C182.8176,-46.599 158.0518,-33.7999 139.3461,-24.1327"/>
<polygon fill="#191970" stroke="#191970" points="140.9315,-21.0122 130.4408,-19.5303 137.7176,-27.2309 140.9315,-21.0122"/>
</g>
<!-- Node3 -->
<g id="node4" class="node">
<title>Node3</title>
<polygon fill="none" stroke="#bfbfbf" points="159.5,-.5 159.5,-19.5 224.5,-19.5 224.5,-.5 159.5,-.5"/>
<text text-anchor="middle" x="192" y="-7.5" font-family="Helvetica,sans-Serif" font-size="10.00" fill="#000000">functional</text>
</g>
<!-- Node0&#45;&gt;Node3 -->
<g id="edge3" class="edge">
<title>Node0&#45;&gt;Node3</title>
<path fill="none" stroke="#191970" d="M221.3595,-56.2977C216.0023,-47.8498 209.2978,-37.2773 203.6487,-28.369"/>
<polygon fill="#191970" stroke="#191970" points="206.5556,-26.4176 198.2444,-19.8469 200.6441,-30.1664 206.5556,-26.4176"/>
</g>
<!-- Node4 -->
<g id="node5" class="node">
<title>Node4</title>
<polygon fill="none" stroke="#bfbfbf" points="243,-.5 243,-19.5 297,-19.5 297,-.5 243,-.5"/>
<text text-anchor="middle" x="270" y="-7.5" font-family="Helvetica,sans-Serif" font-size="10.00" fill="#000000">random</text>
</g>
<!-- Node0&#45;&gt;Node4 -->
<g id="edge4" class="edge">
<title>Node0&#45;&gt;Node4</title>
<path fill="none" stroke="#191970" d="M240.6405,-56.2977C245.9977,-47.8498 252.7022,-37.2773 258.3513,-28.369"/>
<polygon fill="#191970" stroke="#191970" points="261.3559,-30.1664 263.7556,-19.8469 255.4444,-26.4176 261.3559,-30.1664"/>
</g>
<!-- Node5 -->
<g id="node6" class="node">
<title>Node5</title>
<polygon fill="none" stroke="#bfbfbf" points="315.5,-.5 315.5,-19.5 384.5,-19.5 384.5,-.5 315.5,-.5"/>
<text text-anchor="middle" x="350" y="-7.5" font-family="Helvetica,sans-Serif" font-size="10.00" fill="#000000">type_traits</text>
</g>
<!-- Node0&#45;&gt;Node5 -->
<g id="edge5" class="edge">
<title>Node0&#45;&gt;Node5</title>
<path fill="none" stroke="#191970" d="M260.1107,-56.4554C279.1824,-46.599 303.9482,-33.7999 322.6539,-24.1327"/>
<polygon fill="#191970" stroke="#191970" points="324.2824,-27.2309 331.5592,-19.5303 321.0685,-21.0122 324.2824,-27.2309"/>
</g>
<!-- Node6 -->
<g id="node7" class="node">
<title>Node6</title>
<polygon fill="none" stroke="#bfbfbf" points="403,-.5 403,-19.5 459,-19.5 459,-.5 403,-.5"/>
<text text-anchor="middle" x="431" y="-7.5" font-family="Helvetica,sans-Serif" font-size="10.00" fill="#000000">unistd.h</text>
</g>
<!-- Node0&#45;&gt;Node6 -->
<g id="edge6" class="edge">
<title>Node0&#45;&gt;Node6</title>
<path fill="none" stroke="#191970" d="M279.9255,-56.4554C314.7786,-45.7381 360.9465,-31.5414 393.0322,-21.6751"/>
<polygon fill="#191970" stroke="#191970" points="394.393,-24.9185 402.9226,-18.6338 392.3355,-18.2276 394.393,-24.9185"/>
</g>
</g>
</svg>
