<?xml version="1.0" encoding="UTF-8" standalone="no"?>
<!DOCTYPE svg PUBLIC "-//W3C//DTD SVG 1.1//EN"
 "http://www.w3.org/Graphics/SVG/1.1/DTD/svg11.dtd">
<!-- Generated by graphviz version 2.40.1 (20161225.0304)
 -->
<!-- Title: /travis/pairinteraction/utils.h Pages: 1 -->
<svg width="1449pt" height="675pt"
 viewBox="0.00 0.00 1448.50 675.00" xmlns="http://www.w3.org/2000/svg" xmlns:xlink="http://www.w3.org/1999/xlink">
<g id="graph0" class="graph" transform="scale(1 1) rotate(0) translate(4 671)">
<title>/travis/pairinteraction/utils.h</title>
<!-- Node7 -->
<g id="node1" class="node">
<title>Node7</title>
<polygon fill="#bfbfbf" stroke="#000000" points="990,-636.5 990,-666.5 1112,-666.5 1112,-636.5 990,-636.5"/>
<text text-anchor="start" x="998" y="-654.5" font-family="Helvetica,sans-Serif" font-size="10.00" fill="#000000">/travis/pairinteraction</text>
<text text-anchor="middle" x="1051" y="-643.5" font-family="Helvetica,sans-Serif" font-size="10.00" fill="#000000">/utils.h</text>
</g>
<!-- Node8 -->
<g id="node2" class="node">
<title>Node8</title>
<g id="a_node2"><a xlink:href="Hamiltonianmatrix_8h.html" target="_top" xlink:title="/travis/pairinteraction\l/Hamiltonianmatrix.h">
<polygon fill="none" stroke="#000000" points="150,-430 150,-460 272,-460 272,-430 150,-430"/>
<text text-anchor="start" x="158" y="-448" font-family="Helvetica,sans-Serif" font-size="10.00" fill="#000000">/travis/pairinteraction</text>
<text text-anchor="middle" x="211" y="-437" font-family="Helvetica,sans-Serif" font-size="10.00" fill="#000000">/Hamiltonianmatrix.h</text>
</a>
</g>
</g>
<!-- Node7&#45;&gt;Node8 -->
<g id="edge1" class="edge">
<title>Node7&#45;&gt;Node8</title>
<path fill="none" stroke="#191970" d="M979.7195,-646.7886C813.3718,-634.7959 404.6665,-599.2732 286,-533 254.9795,-515.6756 231.0013,-480.2398 219.1564,-460.0191"/>
<polygon fill="#191970" stroke="#191970" points="979.6207,-650.2904 989.8444,-647.511 980.1189,-643.3081 979.6207,-650.2904"/>
</g>
<!-- Node16 -->
<g id="node10" class="node">
<title>Node16</title>
<g id="a_node10"><a xlink:href="SQLite_8h.html" target="_top" xlink:title="/travis/pairinteraction\l/SQLite.h">
<polygon fill="none" stroke="#000000" points="824,-569.5 824,-599.5 946,-599.5 946,-569.5 824,-569.5"/>
<text text-anchor="start" x="832" y="-587.5" font-family="Helvetica,sans-Serif" font-size="10.00" fill="#000000">/travis/pairinteraction</text>
<text text-anchor="middle" x="885" y="-576.5" font-family="Helvetica,sans-Serif" font-size="10.00" fill="#000000">/SQLite.h</text>
</a>
</g>
</g>
<!-- Node7&#45;&gt;Node16 -->
<g id="edge11" class="edge">
<title>Node7&#45;&gt;Node16</title>
<path fill="none" stroke="#191970" d="M1004.1475,-632.5897C978.2865,-622.1518 946.6069,-609.3654 922.4161,-599.6017"/>
<polygon fill="#191970" stroke="#191970" points="1003.1632,-635.9667 1013.7464,-636.4639 1005.7832,-629.4754 1003.1632,-635.9667"/>
</g>
<!-- Node21 -->
<g id="node15" class="node">
<title>Node21</title>
<g id="a_node15"><a xlink:href="MatrixElementCache_8h.html" target="_top" xlink:title="/travis/pairinteraction\l/MatrixElementCache.h">
<polygon fill="none" stroke="#000000" points="899,-352 899,-382 1029,-382 1029,-352 899,-352"/>
<text text-anchor="start" x="907" y="-370" font-family="Helvetica,sans-Serif" font-size="10.00" fill="#000000">/travis/pairinteraction</text>
<text text-anchor="middle" x="964" y="-359" font-family="Helvetica,sans-Serif" font-size="10.00" fill="#000000">/MatrixElementCache.h</text>
</a>
</g>
</g>
<!-- Node7&#45;&gt;Node21 -->
<g id="edge58" class="edge">
<title>Node7&#45;&gt;Node21</title>
<path fill="none" stroke="#191970" d="M1087.2675,-631.0552C1154.0371,-590.8647 1284.3032,-498.9557 1224,-424 1199.9938,-394.1607 1098.0803,-379.0663 1029.2069,-372.132"/>
<polygon fill="#191970" stroke="#191970" points="1085.1105,-628.2651 1078.2939,-636.3759 1088.6806,-634.2863 1085.1105,-628.2651"/>
</g>
<!-- Node40 -->
<g id="node34" class="node">
<title>Node40</title>
<g id="a_node34"><a xlink:href="utils__test_8cpp.html" target="_top" xlink:title="/travis/pairinteraction\l/unit_test/utils_test.cpp">
<polygon fill="none" stroke="#000000" points="1309.5,-569.5 1309.5,-599.5 1440.5,-599.5 1440.5,-569.5 1309.5,-569.5"/>
<text text-anchor="start" x="1317.5" y="-587.5" font-family="Helvetica,sans-Serif" font-size="10.00" fill="#000000">/travis/pairinteraction</text>
<text text-anchor="middle" x="1375" y="-576.5" font-family="Helvetica,sans-Serif" font-size="10.00" fill="#000000">/unit_test/utils_test.cpp</text>
</a>
</g>
</g>
<!-- Node7&#45;&gt;Node40 -->
<g id="edge59" class="edge">
<title>Node7&#45;&gt;Node40</title>
<path fill="none" stroke="#191970" d="M1122.1425,-636.7884C1177.9899,-625.2397 1255.1282,-609.2883 1309.4772,-598.0495"/>
<polygon fill="#191970" stroke="#191970" points="1121.4068,-633.3664 1112.3228,-638.819 1122.8244,-640.2214 1121.4068,-633.3664"/>
</g>
<!-- Node9 -->
<g id="node3" class="node">
<title>Node9</title>
<g id="a_node3"><a xlink:href="Hamiltonian_8h.html" target="_top" xlink:title="/travis/pairinteraction\l/Hamiltonian.h">
<polygon fill="none" stroke="#000000" points="150,-352 150,-382 272,-382 272,-352 150,-352"/>
<text text-anchor="start" x="158" y="-370" font-family="Helvetica,sans-Serif" font-size="10.00" fill="#000000">/travis/pairinteraction</text>
<text text-anchor="middle" x="211" y="-359" font-family="Helvetica,sans-Serif" font-size="10.00" fill="#000000">/Hamiltonian.h</text>
</a>
</g>
</g>
<!-- Node8&#45;&gt;Node9 -->
<g id="edge2" class="edge">
<title>Node8&#45;&gt;Node9</title>
<path fill="none" stroke="#191970" d="M211,-419.7875C211,-407.4187 211,-392.9264 211,-382.2592"/>
<polygon fill="#191970" stroke="#191970" points="207.5001,-419.9608 211,-429.9608 214.5001,-419.9608 207.5001,-419.9608"/>
</g>
<!-- Node15 -->
<g id="node9" class="node">
<title>Node15</title>
<g id="a_node9"><a xlink:href="Hamiltonianmatrix_8cpp.html" target="_top" xlink:title="/travis/pairinteraction\l/Hamiltonianmatrix.cpp">
<polygon fill="none" stroke="#000000" points="0,-352 0,-382 132,-382 132,-352 0,-352"/>
<text text-anchor="start" x="8" y="-370" font-family="Helvetica,sans-Serif" font-size="10.00" fill="#000000">/travis/pairinteraction</text>
<text text-anchor="middle" x="66" y="-359" font-family="Helvetica,sans-Serif" font-size="10.00" fill="#000000">/Hamiltonianmatrix.cpp</text>
</a>
</g>
</g>
<!-- Node8&#45;&gt;Node15 -->
<g id="edge10" class="edge">
<title>Node8&#45;&gt;Node15</title>
<path fill="none" stroke="#191970" d="M173.9448,-425.0669C149.1816,-411.746 117.101,-394.4888 94.3664,-382.2592"/>
<polygon fill="#191970" stroke="#191970" points="172.5778,-428.3057 183.0425,-429.9608 175.894,-422.1411 172.5778,-428.3057"/>
</g>
<!-- Node10 -->
<g id="node4" class="node">
<title>Node10</title>
<g id="a_node4"><a xlink:href="HamiltonianOne_8h.html" target="_top" xlink:title="/travis/pairinteraction\l/HamiltonianOne.h">
<polygon fill="none" stroke="#000000" points="239,-279.5 239,-309.5 361,-309.5 361,-279.5 239,-279.5"/>
<text text-anchor="start" x="247" y="-297.5" font-family="Helvetica,sans-Serif" font-size="10.00" fill="#000000">/travis/pairinteraction</text>
<text text-anchor="middle" x="300" y="-286.5" font-family="Helvetica,sans-Serif" font-size="10.00" fill="#000000">/HamiltonianOne.h</text>
</a>
</g>
</g>
<!-- Node9&#45;&gt;Node10 -->
<g id="edge3" class="edge">
<title>Node9&#45;&gt;Node10</title>
<path fill="none" stroke="#191970" d="M237.4136,-345.4833C251.6323,-333.9007 268.8196,-319.8998 281.5828,-309.5028"/>
<polygon fill="#191970" stroke="#191970" points="234.9835,-342.9486 229.4409,-351.978 239.4045,-348.3758 234.9835,-342.9486"/>
</g>
<!-- Node12 -->
<g id="node6" class="node">
<title>Node12</title>
<g id="a_node6"><a xlink:href="HamiltonianTwo_8h.html" target="_top" xlink:title="/travis/pairinteraction\l/HamiltonianTwo.h">
<polygon fill="none" stroke="#000000" points="379,-212.5 379,-242.5 501,-242.5 501,-212.5 379,-212.5"/>
<text text-anchor="start" x="387" y="-230.5" font-family="Helvetica,sans-Serif" font-size="10.00" fill="#000000">/travis/pairinteraction</text>
<text text-anchor="middle" x="440" y="-219.5" font-family="Helvetica,sans-Serif" font-size="10.00" fill="#000000">/HamiltonianTwo.h</text>
</a>
</g>
</g>
<!-- Node9&#45;&gt;Node12 -->
<g id="edge9" class="edge">
<title>Node9&#45;&gt;Node12</title>
<path fill="none" stroke="#191970" d="M209.6899,-341.6078C210.1043,-321.9743 214.0018,-295.45 230,-279 232.6785,-276.2458 317.8519,-255.9438 378.8889,-241.6698"/>
<polygon fill="#191970" stroke="#191970" points="206.1905,-341.7244 209.7632,-351.6986 213.1903,-341.6734 206.1905,-341.7244"/>
</g>
<!-- Node11 -->
<g id="node5" class="node">
<title>Node11</title>
<g id="a_node5"><a xlink:href="HamiltonianOne_8cpp.html" target="_top" xlink:title="/travis/pairinteraction\l/HamiltonianOne.cpp">
<polygon fill="none" stroke="#000000" points="239,-212.5 239,-242.5 361,-242.5 361,-212.5 239,-212.5"/>
<text text-anchor="start" x="247" y="-230.5" font-family="Helvetica,sans-Serif" font-size="10.00" fill="#000000">/travis/pairinteraction</text>
<text text-anchor="middle" x="300" y="-219.5" font-family="Helvetica,sans-Serif" font-size="10.00" fill="#000000">/HamiltonianOne.cpp</text>
</a>
</g>
</g>
<!-- Node10&#45;&gt;Node11 -->
<g id="edge4" class="edge">
<title>Node10&#45;&gt;Node11</title>
<path fill="none" stroke="#191970" d="M300,-269.0249C300,-260.128 300,-250.4287 300,-242.6432"/>
<polygon fill="#191970" stroke="#191970" points="296.5001,-269.2966 300,-279.2967 303.5001,-269.2967 296.5001,-269.2966"/>
</g>
<!-- Node10&#45;&gt;Node12 -->
<g id="edge5" class="edge">
<title>Node10&#45;&gt;Node12</title>
<path fill="none" stroke="#191970" d="M340.638,-275.0518C362.1502,-264.7567 388.181,-252.2991 408.2017,-242.7177"/>
<polygon fill="#191970" stroke="#191970" points="338.9281,-271.9899 331.4187,-279.4639 341.9499,-278.3041 338.9281,-271.9899"/>
</g>
<!-- Node14 -->
<g id="node8" class="node">
<title>Node14</title>
<g id="a_node8"><a xlink:href="Interface_8cpp.html" target="_top" xlink:title="/travis/pairinteraction\l/Interface.cpp">
<polygon fill="none" stroke="#000000" points="192,-145.5 192,-175.5 314,-175.5 314,-145.5 192,-145.5"/>
<text text-anchor="start" x="200" y="-163.5" font-family="Helvetica,sans-Serif" font-size="10.00" fill="#000000">/travis/pairinteraction</text>
<text text-anchor="middle" x="253" y="-152.5" font-family="Helvetica,sans-Serif" font-size="10.00" fill="#000000">/Interface.cpp</text>
</a>
</g>
</g>
<!-- Node10&#45;&gt;Node14 -->
<g id="edge8" class="edge">
<title>Node10&#45;&gt;Node14</title>
<path fill="none" stroke="#191970" d="M259.1269,-273.9732C247.5741,-265.9934 236.4109,-255.6756 230,-243 218.8601,-220.9741 231.8381,-192.8242 242.3401,-175.7536"/>
<polygon fill="#191970" stroke="#191970" points="257.2383,-276.9198 267.5457,-279.3708 261.0164,-271.027 257.2383,-276.9198"/>
</g>
<!-- Node13 -->
<g id="node7" class="node">
<title>Node13</title>
<g id="a_node7"><a xlink:href="HamiltonianTwo_8cpp.html" target="_top" xlink:title="/travis/pairinteraction\l/HamiltonianTwo.cpp">
<polygon fill="none" stroke="#000000" points="374,-145.5 374,-175.5 496,-175.5 496,-145.5 374,-145.5"/>
<text text-anchor="start" x="382" y="-163.5" font-family="Helvetica,sans-Serif" font-size="10.00" fill="#000000">/travis/pairinteraction</text>
<text text-anchor="middle" x="435" y="-152.5" font-family="Helvetica,sans-Serif" font-size="10.00" fill="#000000">/HamiltonianTwo.cpp</text>
</a>
</g>
</g>
<!-- Node12&#45;&gt;Node13 -->
<g id="edge6" class="edge">
<title>Node12&#45;&gt;Node13</title>
<path fill="none" stroke="#191970" d="M438.1207,-202.3179C437.4509,-193.3414 436.7175,-183.5143 436.1301,-175.6432"/>
<polygon fill="#191970" stroke="#191970" points="434.6308,-202.5849 438.8654,-212.2967 441.6114,-202.0639 434.6308,-202.5849"/>
</g>
<!-- Node12&#45;&gt;Node14 -->
<g id="edge7" class="edge">
<title>Node12&#45;&gt;Node14</title>
<path fill="none" stroke="#191970" d="M388.372,-209.0023C359.0326,-198.4903 322.7607,-185.4945 295.1495,-175.6017"/>
<polygon fill="#191970" stroke="#191970" points="387.439,-212.3858 398.0335,-212.4639 389.8001,-205.796 387.439,-212.3858"/>
</g>
<!-- Node16&#45;&gt;Node10 -->
<g id="edge50" class="edge">
<title>Node16&#45;&gt;Node10</title>
<path fill="none" stroke="#191970" d="M813.5035,-580.1954C687.8352,-572.1407 437.3421,-553.7213 403,-533 321.7103,-483.9515 304.4636,-354.31 300.9009,-309.7759"/>
<polygon fill="#191970" stroke="#191970" points="813.5965,-583.7082 823.7985,-580.8499 814.0407,-576.7224 813.5965,-583.7082"/>
</g>
<!-- Node16&#45;&gt;Node12 -->
<g id="edge51" class="edge">
<title>Node16&#45;&gt;Node12</title>
<path fill="none" stroke="#191970" d="M899.4051,-560.5447C903.6972,-552.1365 907.8321,-542.4303 910,-533 914.9534,-511.4532 914.9431,-443.4094 907,-424 889.2449,-380.6147 871.9779,-376.052 836,-346 830.6171,-341.5038 735.5565,-281.4907 729,-279 638.8392,-244.7488 609.7977,-260.7631 515,-243 510.5567,-242.1674 505.9707,-241.2826 501.3583,-240.3741"/>
<polygon fill="#191970" stroke="#191970" points="896.2908,-558.9453 894.5887,-569.4025 902.4405,-562.2892 896.2908,-558.9453"/>
</g>
<!-- Node17 -->
<g id="node11" class="node">
<title>Node17</title>
<g id="a_node11"><a xlink:href="QuantumDefect_8h.html" target="_top" xlink:title="/travis/pairinteraction\l/QuantumDefect.h">
<polygon fill="none" stroke="#000000" points="779,-502.5 779,-532.5 901,-532.5 901,-502.5 779,-502.5"/>
<text text-anchor="start" x="787" y="-520.5" font-family="Helvetica,sans-Serif" font-size="10.00" fill="#000000">/travis/pairinteraction</text>
<text text-anchor="middle" x="840" y="-509.5" font-family="Helvetica,sans-Serif" font-size="10.00" fill="#000000">/QuantumDefect.h</text>
</a>
</g>
</g>
<!-- Node16&#45;&gt;Node17 -->
<g id="edge12" class="edge">
<title>Node16&#45;&gt;Node17</title>
<path fill="none" stroke="#191970" d="M869.0643,-560.7735C862.779,-551.4154 855.7447,-540.9421 850.1708,-532.6432"/>
<polygon fill="#191970" stroke="#191970" points="866.3077,-562.9467 874.7888,-569.2967 872.1187,-559.0438 866.3077,-562.9467"/>
</g>
<!-- Node20 -->
<g id="node14" class="node">
<title>Node20</title>
<g id="a_node14"><a xlink:href="MatrixElements_8cpp.html" target="_top" xlink:title="/travis/pairinteraction\l/MatrixElements.cpp">
<polygon fill="none" stroke="#000000" points="575,-279.5 575,-309.5 697,-309.5 697,-279.5 575,-279.5"/>
<text text-anchor="start" x="583" y="-297.5" font-family="Helvetica,sans-Serif" font-size="10.00" fill="#000000">/travis/pairinteraction</text>
<text text-anchor="middle" x="636" y="-286.5" font-family="Helvetica,sans-Serif" font-size="10.00" fill="#000000">/MatrixElements.cpp</text>
</a>
</g>
</g>
<!-- Node16&#45;&gt;Node20 -->
<g id="edge53" class="edge">
<title>Node16&#45;&gt;Node20</title>
<path fill="none" stroke="#191970" d="M813.8624,-582.0812C706.6322,-577.4455 509.4742,-564.7812 447,-533 410.8388,-514.6045 404.4092,-501.6273 385,-466 359.1335,-418.5197 330.5206,-387.6488 365,-346 391.1113,-314.4593 503.2549,-302.0766 574.8467,-297.3309"/>
<polygon fill="#191970" stroke="#191970" points="813.8131,-585.5821 823.9512,-582.5051 814.107,-578.5883 813.8131,-585.5821"/>
</g>
<!-- Node22 -->
<g id="node16" class="node">
<title>Node22</title>
<g id="a_node16"><a xlink:href="MatrixElementCache_8cpp.html" target="_top" xlink:title="/travis/pairinteraction\l/MatrixElementCache.cpp">
<polygon fill="none" stroke="#000000" points="1049.5,-279.5 1049.5,-309.5 1190.5,-309.5 1190.5,-279.5 1049.5,-279.5"/>
<text text-anchor="start" x="1057.5" y="-297.5" font-family="Helvetica,sans-Serif" font-size="10.00" fill="#000000">/travis/pairinteraction</text>
<text text-anchor="middle" x="1120" y="-286.5" font-family="Helvetica,sans-Serif" font-size="10.00" fill="#000000">/MatrixElementCache.cpp</text>
</a>
</g>
</g>
<!-- Node16&#45;&gt;Node22 -->
<g id="edge52" class="edge">
<title>Node16&#45;&gt;Node22</title>
<path fill="none" stroke="#191970" d="M956.1892,-579.927C1009.9842,-574.2459 1084.4731,-561.5156 1144,-533 1185.8265,-512.9636 1204.3801,-508.0235 1224,-466 1252.3569,-405.2629 1179.2626,-338.8968 1141.2563,-309.7101"/>
<polygon fill="#191970" stroke="#191970" points="955.6578,-576.4626 946.0555,-580.9399 956.3541,-583.4279 955.6578,-576.4626"/>
</g>
<!-- Node34 -->
<g id="node28" class="node">
<title>Node34</title>
<g id="a_node28"><a xlink:href="wavefunction__test_8cpp.html" target="_top" xlink:title="/travis/pairinteraction\l/unit_test/wavefunction\l_test.cpp">
<polygon fill="none" stroke="#000000" points="374.5,-346.5 374.5,-387.5 505.5,-387.5 505.5,-346.5 374.5,-346.5"/>
<text text-anchor="start" x="382.5" y="-375.5" font-family="Helvetica,sans-Serif" font-size="10.00" fill="#000000">/travis/pairinteraction</text>
<text text-anchor="start" x="382.5" y="-364.5" font-family="Helvetica,sans-Serif" font-size="10.00" fill="#000000">/unit_test/wavefunction</text>
<text text-anchor="middle" x="440" y="-353.5" font-family="Helvetica,sans-Serif" font-size="10.00" fill="#000000">_test.cpp</text>
</a>
</g>
</g>
<!-- Node16&#45;&gt;Node34 -->
<g id="edge57" class="edge">
<title>Node16&#45;&gt;Node34</title>
<path fill="none" stroke="#191970" d="M813.456,-578.0766C689.9575,-565.3211 445.1473,-532.1385 395,-466 376.635,-441.7787 399.1683,-408.8665 418.4212,-387.775"/>
<polygon fill="#191970" stroke="#191970" points="813.2744,-581.576 823.5769,-579.1042 813.9816,-574.6119 813.2744,-581.576"/>
</g>
<!-- Node36 -->
<g id="node30" class="node">
<title>Node36</title>
<g id="a_node30"><a xlink:href="QuantumDefect_8cpp.html" target="_top" xlink:title="/travis/pairinteraction\l/QuantumDefect.cpp">
<polygon fill="none" stroke="#000000" points="404,-430 404,-460 526,-460 526,-430 404,-430"/>
<text text-anchor="start" x="412" y="-448" font-family="Helvetica,sans-Serif" font-size="10.00" fill="#000000">/travis/pairinteraction</text>
<text text-anchor="middle" x="465" y="-437" font-family="Helvetica,sans-Serif" font-size="10.00" fill="#000000">/QuantumDefect.cpp</text>
</a>
</g>
</g>
<!-- Node16&#45;&gt;Node36 -->
<g id="edge54" class="edge">
<title>Node16&#45;&gt;Node36</title>
<path fill="none" stroke="#191970" d="M830.0631,-566.2531C746.2984,-538.4313 588.1994,-485.9198 510.4749,-460.1042"/>
<polygon fill="#191970" stroke="#191970" points="829.0601,-569.6079 839.6536,-569.4385 831.2666,-562.9648 829.0601,-569.6079"/>
</g>
<!-- Node38 -->
<g id="node32" class="node">
<title>Node38</title>
<g id="a_node32"><a xlink:href="quantum__defect__test_8cpp.html" target="_top" xlink:title="/travis/pairinteraction\l/unit_test/quantum_defect\l_test.cpp">
<polygon fill="none" stroke="#000000" points="1069.5,-424.5 1069.5,-465.5 1214.5,-465.5 1214.5,-424.5 1069.5,-424.5"/>
<text text-anchor="start" x="1077.5" y="-453.5" font-family="Helvetica,sans-Serif" font-size="10.00" fill="#000000">/travis/pairinteraction</text>
<text text-anchor="start" x="1077.5" y="-442.5" font-family="Helvetica,sans-Serif" font-size="10.00" fill="#000000">/unit_test/quantum_defect</text>
<text text-anchor="middle" x="1142" y="-431.5" font-family="Helvetica,sans-Serif" font-size="10.00" fill="#000000">_test.cpp</text>
</a>
</g>
</g>
<!-- Node16&#45;&gt;Node38 -->
<g id="edge55" class="edge">
<title>Node16&#45;&gt;Node38</title>
<path fill="none" stroke="#191970" d="M956.2353,-577.5799C1017.6043,-570.1422 1099.8561,-556.1545 1123,-533 1140.5686,-515.4234 1143.6431,-485.7336 1143.4507,-465.7577"/>
<polygon fill="#191970" stroke="#191970" points="955.7163,-574.1167 946.194,-578.7616 956.5345,-581.0687 955.7163,-574.1167"/>
</g>
<!-- Node39 -->
<g id="node33" class="node">
<title>Node39</title>
<g id="a_node33"><a xlink:href="sqlite__test_8cpp.html" target="_top" xlink:title="/travis/pairinteraction\l/unit_test/sqlite_test.cpp">
<polygon fill="none" stroke="#000000" points="976.5,-502.5 976.5,-532.5 1113.5,-532.5 1113.5,-502.5 976.5,-502.5"/>
<text text-anchor="start" x="984.5" y="-520.5" font-family="Helvetica,sans-Serif" font-size="10.00" fill="#000000">/travis/pairinteraction</text>
<text text-anchor="middle" x="1045" y="-509.5" font-family="Helvetica,sans-Serif" font-size="10.00" fill="#000000">/unit_test/sqlite_test.cpp</text>
</a>
</g>
</g>
<!-- Node16&#45;&gt;Node39 -->
<g id="edge56" class="edge">
<title>Node16&#45;&gt;Node39</title>
<path fill="none" stroke="#191970" d="M930.159,-565.5897C955.0853,-555.1518 985.6199,-542.3654 1008.9363,-532.6017"/>
<polygon fill="#191970" stroke="#191970" points="928.7792,-562.3729 920.9071,-569.4639 931.483,-568.8297 928.7792,-562.3729"/>
</g>
<!-- Node18 -->
<g id="node12" class="node">
<title>Node18</title>
<g id="a_node12"><a xlink:href="Wavefunction_8h.html" target="_top" xlink:title="/travis/pairinteraction\l/Wavefunction.h">
<polygon fill="none" stroke="#000000" points="620,-430 620,-460 742,-460 742,-430 620,-430"/>
<text text-anchor="start" x="628" y="-448" font-family="Helvetica,sans-Serif" font-size="10.00" fill="#000000">/travis/pairinteraction</text>
<text text-anchor="middle" x="681" y="-437" font-family="Helvetica,sans-Serif" font-size="10.00" fill="#000000">/Wavefunction.h</text>
</a>
</g>
</g>
<!-- Node17&#45;&gt;Node18 -->
<g id="edge13" class="edge">
<title>Node17&#45;&gt;Node18</title>
<path fill="none" stroke="#191970" d="M797.7252,-498.2237C771.4611,-486.248 738.196,-471.0799 713.9027,-460.0028"/>
<polygon fill="#191970" stroke="#191970" points="796.5042,-501.5137 807.0551,-502.478 799.4084,-495.1445 796.5042,-501.5137"/>
</g>
<!-- Node17&#45;&gt;Node20 -->
<g id="edge43" class="edge">
<title>Node17&#45;&gt;Node20</title>
<path fill="none" stroke="#191970" d="M869.0869,-495.7568C877.831,-487.5102 886.3349,-477.3407 891,-466 898.1013,-448.7369 899.0224,-440.8548 891,-424 885.0934,-411.5903 807.0758,-352.5622 795,-346 764.4062,-329.3747 727.5575,-317.0198 697.0403,-308.5847"/>
<polygon fill="#191970" stroke="#191970" points="866.6289,-493.2575 861.4314,-502.4899 871.2519,-498.5138 866.6289,-493.2575"/>
</g>
<!-- Node17&#45;&gt;Node22 -->
<g id="edge42" class="edge">
<title>Node17&#45;&gt;Node22</title>
<path fill="none" stroke="#191970" d="M876.81,-497.4874C918.2078,-474.0885 986.3876,-432.8149 1038,-388 1066.3669,-363.3691 1094.0545,-329.0262 1108.8814,-309.5523"/>
<polygon fill="#191970" stroke="#191970" points="874.9078,-494.5412 867.8956,-502.4835 878.3302,-500.6476 874.9078,-494.5412"/>
</g>
<!-- Node26 -->
<g id="node20" class="node">
<title>Node26</title>
<g id="a_node20"><a xlink:href="State_8cpp.html" target="_top" xlink:title="/travis/pairinteraction\l/State.cpp">
<polygon fill="none" stroke="#000000" points="1140,-212.5 1140,-242.5 1262,-242.5 1262,-212.5 1140,-212.5"/>
<text text-anchor="start" x="1148" y="-230.5" font-family="Helvetica,sans-Serif" font-size="10.00" fill="#000000">/travis/pairinteraction</text>
<text text-anchor="middle" x="1201" y="-219.5" font-family="Helvetica,sans-Serif" font-size="10.00" fill="#000000">/State.cpp</text>
</a>
</g>
</g>
<!-- Node17&#45;&gt;Node26 -->
<g id="edge45" class="edge">
<title>Node17&#45;&gt;Node26</title>
<path fill="none" stroke="#191970" d="M896.5667,-499.1316C920.9709,-490.3557 949.4814,-478.9379 974,-466 1027.9718,-437.5203 1171.3136,-363.8622 1200,-310 1211.312,-288.7603 1208.2077,-259.8679 1204.7368,-242.5142"/>
<polygon fill="#191970" stroke="#191970" points="895.3456,-495.851 887.0842,-502.4842 897.679,-502.4506 895.3456,-495.851"/>
</g>
<!-- Node17&#45;&gt;Node34 -->
<g id="edge48" class="edge">
<title>Node17&#45;&gt;Node34</title>
<path fill="none" stroke="#191970" d="M768.6239,-512.3648C716.0311,-506.404 643.8871,-493.5699 586,-466 559.4896,-453.3739 558.989,-440.9337 535,-424 516.6152,-411.0223 495.1919,-398.001 477.3476,-387.6867"/>
<polygon fill="#191970" stroke="#191970" points="768.5547,-515.8775 778.8718,-513.4677 769.3037,-508.9177 768.5547,-515.8775"/>
</g>
<!-- Node35 -->
<g id="node29" class="node">
<title>Node35</title>
<g id="a_node29"><a xlink:href="Wavefunction_8cpp.html" target="_top" xlink:title="/travis/pairinteraction\l/Wavefunction.cpp">
<polygon fill="none" stroke="#000000" points="524,-352 524,-382 646,-382 646,-352 524,-352"/>
<text text-anchor="start" x="532" y="-370" font-family="Helvetica,sans-Serif" font-size="10.00" fill="#000000">/travis/pairinteraction</text>
<text text-anchor="middle" x="585" y="-359" font-family="Helvetica,sans-Serif" font-size="10.00" fill="#000000">/Wavefunction.cpp</text>
</a>
</g>
</g>
<!-- Node17&#45;&gt;Node35 -->
<g id="edge49" class="edge">
<title>Node17&#45;&gt;Node35</title>
<path fill="none" stroke="#191970" d="M768.8578,-509.6225C710.2737,-501.7092 633.3488,-487.5667 611,-466 587.9829,-443.7884 584.4796,-403.8678 584.4281,-382.1225"/>
<polygon fill="#191970" stroke="#191970" points="768.456,-513.0997 778.827,-510.9336 769.3688,-506.1595 768.456,-513.0997"/>
</g>
<!-- Node17&#45;&gt;Node36 -->
<g id="edge44" class="edge">
<title>Node17&#45;&gt;Node36</title>
<path fill="none" stroke="#191970" d="M768.8153,-507.3934C707.7727,-498.2236 617.6482,-483.4867 540,-466 532.2172,-464.2473 524.038,-462.187 516.0587,-460.0541"/>
<polygon fill="#191970" stroke="#191970" points="768.3255,-510.859 778.7325,-508.8726 769.3582,-503.9356 768.3255,-510.859"/>
</g>
<!-- Node37 -->
<g id="node31" class="node">
<title>Node37</title>
<g id="a_node31"><a xlink:href="StateOld_8cpp.html" target="_top" xlink:title="/travis/pairinteraction\l/StateOld.cpp">
<polygon fill="none" stroke="#000000" points="760,-430 760,-460 882,-460 882,-430 760,-430"/>
<text text-anchor="start" x="768" y="-448" font-family="Helvetica,sans-Serif" font-size="10.00" fill="#000000">/travis/pairinteraction</text>
<text text-anchor="middle" x="821" y="-437" font-family="Helvetica,sans-Serif" font-size="10.00" fill="#000000">/StateOld.cpp</text>
</a>
</g>
</g>
<!-- Node17&#45;&gt;Node37 -->
<g id="edge46" class="edge">
<title>Node17&#45;&gt;Node37</title>
<path fill="none" stroke="#191970" d="M833.4948,-492.6774C830.6481,-481.8151 827.4018,-469.4281 824.9318,-460.0028"/>
<polygon fill="#191970" stroke="#191970" points="830.1424,-493.6919 836.0632,-502.478 836.9137,-491.9173 830.1424,-493.6919"/>
</g>
<!-- Node17&#45;&gt;Node38 -->
<g id="edge47" class="edge">
<title>Node17&#45;&gt;Node38</title>
<path fill="none" stroke="#191970" d="M911.0054,-500.5246C952.9079,-490.4987 1006.9771,-477.5474 1055,-466 1059.6833,-464.8739 1064.5081,-463.7125 1069.3714,-462.541"/>
<polygon fill="#191970" stroke="#191970" points="910.0826,-497.1465 901.1715,-502.8773 911.7114,-503.9544 910.0826,-497.1465"/>
</g>
<!-- Node19 -->
<g id="node13" class="node">
<title>Node19</title>
<g id="a_node13"><a xlink:href="MatrixElements_8h.html" target="_top" xlink:title="/travis/pairinteraction\l/MatrixElements.h">
<polygon fill="none" stroke="#000000" points="664,-352 664,-382 786,-382 786,-352 664,-352"/>
<text text-anchor="start" x="672" y="-370" font-family="Helvetica,sans-Serif" font-size="10.00" fill="#000000">/travis/pairinteraction</text>
<text text-anchor="middle" x="725" y="-359" font-family="Helvetica,sans-Serif" font-size="10.00" fill="#000000">/MatrixElements.h</text>
</a>
</g>
</g>
<!-- Node18&#45;&gt;Node19 -->
<g id="edge14" class="edge">
<title>Node18&#45;&gt;Node19</title>
<path fill="none" stroke="#191970" d="M694.5916,-420.9059C701.7023,-408.3005 710.1925,-393.2497 716.3923,-382.2592"/>
<polygon fill="#191970" stroke="#191970" points="691.3485,-419.5314 689.4836,-429.9608 697.4453,-422.9707 691.3485,-419.5314"/>
</g>
<!-- Node18&#45;&gt;Node21 -->
<g id="edge18" class="edge">
<title>Node18&#45;&gt;Node21</title>
<path fill="none" stroke="#191970" d="M740.2775,-427.082C743.9025,-426.0281 747.4984,-424.9935 751,-424 803.2939,-409.1624 863.1097,-393.2476 906.0131,-382.0159"/>
<polygon fill="#191970" stroke="#191970" points="739.2699,-423.73 730.6585,-429.9022 741.2393,-430.4473 739.2699,-423.73"/>
</g>
<!-- Node18&#45;&gt;Node34 -->
<g id="edge40" class="edge">
<title>Node18&#45;&gt;Node34</title>
<path fill="none" stroke="#191970" d="M624.6175,-426.7517C588.3763,-415.0222 541.2179,-399.7593 503.6352,-387.5956"/>
<polygon fill="#191970" stroke="#191970" points="623.9409,-430.2114 634.5328,-429.9608 626.0964,-423.5516 623.9409,-430.2114"/>
</g>
<!-- Node18&#45;&gt;Node35 -->
<g id="edge41" class="edge">
<title>Node18&#45;&gt;Node35</title>
<path fill="none" stroke="#191970" d="M654.4947,-423.4644C638.3975,-410.3854 618.2356,-394.0039 603.7805,-382.2592"/>
<polygon fill="#191970" stroke="#191970" points="652.522,-426.3713 662.4902,-429.9608 656.9362,-420.9384 652.522,-426.3713"/>
</g>
<!-- Node19&#45;&gt;Node10 -->
<g id="edge15" class="edge">
<title>Node19&#45;&gt;Node10</title>
<path fill="none" stroke="#191970" d="M668.3633,-349.2418C663.8623,-348.0655 659.3688,-346.9667 655,-346 552.9974,-323.4299 432.2429,-308.3257 361.11,-300.5943"/>
<polygon fill="#191970" stroke="#191970" points="667.6145,-352.6654 678.183,-351.9193 669.456,-345.9119 667.6145,-352.6654"/>
</g>
<!-- Node19&#45;&gt;Node12 -->
<g id="edge16" class="edge">
<title>Node19&#45;&gt;Node12</title>
<path fill="none" stroke="#191970" d="M726.5546,-341.7081C726.3145,-321.9054 722.5325,-295.1025 706,-279 644.1182,-218.7276 599.7456,-259.7422 515,-243 510.5651,-242.1238 505.9852,-241.207 501.3772,-240.2758"/>
<polygon fill="#191970" stroke="#191970" points="723.0524,-341.8191 726.3821,-351.877 730.0513,-341.9379 723.0524,-341.8191"/>
</g>
<!-- Node19&#45;&gt;Node20 -->
<g id="edge17" class="edge">
<title>Node19&#45;&gt;Node20</title>
<path fill="none" stroke="#191970" d="M698.5864,-345.4833C684.3677,-333.9007 667.1804,-319.8998 654.4172,-309.5028"/>
<polygon fill="#191970" stroke="#191970" points="696.5955,-348.3758 706.5591,-351.978 701.0165,-342.9486 696.5955,-348.3758"/>
</g>
<!-- Node21&#45;&gt;Node22 -->
<g id="edge19" class="edge">
<title>Node21&#45;&gt;Node22</title>
<path fill="none" stroke="#191970" d="M1005.4772,-347.7237C1031.2457,-335.748 1063.8832,-320.5799 1087.7181,-309.5028"/>
<polygon fill="#191970" stroke="#191970" points="1003.9167,-344.5894 996.3233,-351.978 1006.8669,-350.9373 1003.9167,-344.5894"/>
</g>
<!-- Node23 -->
<g id="node17" class="node">
<title>Node23</title>
<g id="a_node17"><a xlink:href="State_8h.html" target="_top" xlink:title="/travis/pairinteraction\l/State.h">
<polygon fill="none" stroke="#000000" points="833,-279.5 833,-309.5 955,-309.5 955,-279.5 833,-279.5"/>
<text text-anchor="start" x="841" y="-297.5" font-family="Helvetica,sans-Serif" font-size="10.00" fill="#000000">/travis/pairinteraction</text>
<text text-anchor="middle" x="894" y="-286.5" font-family="Helvetica,sans-Serif" font-size="10.00" fill="#000000">/State.h</text>
</a>
</g>
</g>
<!-- Node21&#45;&gt;Node23 -->
<g id="edge20" class="edge">
<title>Node21&#45;&gt;Node23</title>
<path fill="none" stroke="#191970" d="M936.3204,-344.8313C924.4515,-333.3785 911.4782,-319.7054 902.8951,-309.5028"/>
<polygon fill="#191970" stroke="#191970" points="934.2254,-347.6663 943.9032,-351.978 939.0265,-342.5722 934.2254,-347.6663"/>
</g>
<!-- Node24 -->
<g id="node18" class="node">
<title>Node24</title>
<g id="a_node18"><a xlink:href="PerturbativeInteraction_8h.html" target="_top" xlink:title="/travis/pairinteraction\l/PerturbativeInteraction.h">
<polygon fill="none" stroke="#000000" points="524.5,-212.5 524.5,-242.5 665.5,-242.5 665.5,-212.5 524.5,-212.5"/>
<text text-anchor="start" x="532.5" y="-230.5" font-family="Helvetica,sans-Serif" font-size="10.00" fill="#000000">/travis/pairinteraction</text>
<text text-anchor="middle" x="595" y="-219.5" font-family="Helvetica,sans-Serif" font-size="10.00" fill="#000000">/PerturbativeInteraction.h</text>
</a>
</g>
</g>
<!-- Node21&#45;&gt;Node24 -->
<g id="edge37" class="edge">
<title>Node21&#45;&gt;Node24</title>
<path fill="none" stroke="#191970" d="M910.0349,-348.4697C883.4384,-338.4836 851.2978,-325.1135 824,-310 803.3884,-298.5884 802.2411,-289.192 781,-279 744.5981,-261.5336 701.2547,-249.0997 665.5699,-240.8306"/>
<polygon fill="#191970" stroke="#191970" points="908.9703,-351.8076 919.5635,-351.9927 911.3978,-345.242 908.9703,-351.8076"/>
</g>
<!-- Node27 -->
<g id="node21" class="node">
<title>Node27</title>
<g id="a_node21"><a xlink:href="SystemBase_8h.html" target="_top" xlink:title="/travis/pairinteraction\l/SystemBase.h">
<polygon fill="none" stroke="#000000" points="849,-212.5 849,-242.5 971,-242.5 971,-212.5 849,-212.5"/>
<text text-anchor="start" x="857" y="-230.5" font-family="Helvetica,sans-Serif" font-size="10.00" fill="#000000">/travis/pairinteraction</text>
<text text-anchor="middle" x="910" y="-219.5" font-family="Helvetica,sans-Serif" font-size="10.00" fill="#000000">/SystemBase.h</text>
</a>
</g>
</g>
<!-- Node21&#45;&gt;Node27 -->
<g id="edge38" class="edge">
<title>Node21&#45;&gt;Node27</title>
<path fill="none" stroke="#191970" d="M969.1094,-341.8406C971.6122,-323.6433 972.5056,-298.8654 964,-279 957.6771,-264.2325 944.8101,-251.6881 933.222,-242.678"/>
<polygon fill="#191970" stroke="#191970" points="965.614,-341.5299 967.461,-351.9625 972.523,-342.6551 965.614,-341.5299"/>
</g>
<!-- Node33 -->
<g id="node27" class="node">
<title>Node33</title>
<g id="a_node27"><a xlink:href="integration__test_8cpp.html" target="_top" xlink:title="/travis/pairinteraction\l/unit_test/integration\l_test.cpp">
<polygon fill="none" stroke="#000000" points="957,-.5 957,-41.5 1079,-41.5 1079,-.5 957,-.5"/>
<text text-anchor="start" x="965" y="-29.5" font-family="Helvetica,sans-Serif" font-size="10.00" fill="#000000">/travis/pairinteraction</text>
<text text-anchor="start" x="965" y="-18.5" font-family="Helvetica,sans-Serif" font-size="10.00" fill="#000000">/unit_test/integration</text>
<text text-anchor="middle" x="1018" y="-7.5" font-family="Helvetica,sans-Serif" font-size="10.00" fill="#000000">_test.cpp</text>
</a>
</g>
</g>
<!-- Node21&#45;&gt;Node33 -->
<g id="edge39" class="edge">
<title>Node21&#45;&gt;Node33</title>
<path fill="none" stroke="#191970" d="M978.4258,-342.8431C998.5619,-307.612 1034.1775,-239.41 1048,-176 1057.2771,-133.4416 1059.7366,-120.2138 1049,-78 1045.7236,-65.1178 1038.8812,-52.001 1032.4564,-41.6028"/>
<polygon fill="#191970" stroke="#191970" points="975.1773,-341.468 973.1878,-351.8744 981.2326,-344.98 975.1773,-341.468"/>
</g>
<!-- Node23&#45;&gt;Node21 -->
<g id="edge21" class="edge">
<title>Node23&#45;&gt;Node21</title>
<path fill="none" stroke="#191970" d="M921.6572,-316.6471C933.5247,-328.0971 946.5001,-341.771 955.0887,-351.978"/>
<polygon fill="#191970" stroke="#191970" points="923.7539,-313.8138 914.0758,-309.5028 918.9532,-318.9082 923.7539,-313.8138"/>
</g>
<!-- Node23&#45;&gt;Node24 -->
<g id="edge22" class="edge">
<title>Node23&#45;&gt;Node24</title>
<path fill="none" stroke="#191970" d="M822.9328,-278.5753C774.2117,-267.6578 709.9865,-253.2662 662.1313,-242.5428"/>
<polygon fill="#191970" stroke="#191970" points="822.248,-282.0085 832.7714,-280.7799 823.7787,-275.1779 822.248,-282.0085"/>
</g>
<!-- Node23&#45;&gt;Node26 -->
<g id="edge24" class="edge">
<title>Node23&#45;&gt;Node26</title>
<path fill="none" stroke="#191970" d="M965.0087,-279.003C1017.9226,-267.455 1089.4409,-251.8468 1139.8328,-240.8492"/>
<polygon fill="#191970" stroke="#191970" points="964.0441,-275.631 955.0204,-281.1828 965.5367,-282.4701 964.0441,-275.631"/>
</g>
<!-- Node23&#45;&gt;Node27 -->
<g id="edge25" class="edge">
<title>Node23&#45;&gt;Node27</title>
<path fill="none" stroke="#191970" d="M900.0136,-269.3179C902.1573,-260.3414 904.5041,-250.5143 906.3837,-242.6432"/>
<polygon fill="#191970" stroke="#191970" points="896.5492,-268.7572 897.6306,-279.2967 903.3577,-270.3831 896.5492,-268.7572"/>
</g>
<!-- Node29 -->
<g id="node23" class="node">
<title>Node29</title>
<g id="a_node23"><a xlink:href="SystemOne_8h.html" target="_top" xlink:title="/travis/pairinteraction\l/SystemOne.h">
<polygon fill="none" stroke="#000000" points="760,-145.5 760,-175.5 882,-175.5 882,-145.5 760,-145.5"/>
<text text-anchor="start" x="768" y="-163.5" font-family="Helvetica,sans-Serif" font-size="10.00" fill="#000000">/travis/pairinteraction</text>
<text text-anchor="middle" x="821" y="-152.5" font-family="Helvetica,sans-Serif" font-size="10.00" fill="#000000">/SystemOne.h</text>
</a>
</g>
</g>
<!-- Node23&#45;&gt;Node29 -->
<g id="edge34" class="edge">
<title>Node23&#45;&gt;Node29</title>
<path fill="none" stroke="#191970" d="M865.2047,-272.7791C855.9033,-264.4167 846.3614,-254.1693 840,-243 827.8524,-221.6713 823.4681,-193.0618 821.8879,-175.7472"/>
<polygon fill="#191970" stroke="#191970" points="863.0089,-275.5065 872.8863,-279.3389 867.5547,-270.1833 863.0089,-275.5065"/>
</g>
<!-- Node31 -->
<g id="node25" class="node">
<title>Node31</title>
<g id="a_node25"><a xlink:href="SystemTwo_8h.html" target="_top" xlink:title="/travis/pairinteraction\l/SystemTwo.h">
<polygon fill="none" stroke="#000000" points="671,-78.5 671,-108.5 793,-108.5 793,-78.5 671,-78.5"/>
<text text-anchor="start" x="679" y="-96.5" font-family="Helvetica,sans-Serif" font-size="10.00" fill="#000000">/travis/pairinteraction</text>
<text text-anchor="middle" x="732" y="-85.5" font-family="Helvetica,sans-Serif" font-size="10.00" fill="#000000">/SystemTwo.h</text>
</a>
</g>
</g>
<!-- Node23&#45;&gt;Node31 -->
<g id="edge35" class="edge">
<title>Node23&#45;&gt;Node31</title>
<path fill="none" stroke="#191970" d="M847.6049,-275.2129C808.7886,-256.2779 756.016,-223.3224 732,-176 721.1753,-154.6703 724.4734,-126.0611 728.075,-108.7468"/>
<polygon fill="#191970" stroke="#191970" points="846.1137,-278.3792 856.6494,-279.4967 849.1101,-272.053 846.1137,-278.3792"/>
</g>
<!-- Node23&#45;&gt;Node33 -->
<g id="edge36" class="edge">
<title>Node23&#45;&gt;Node33</title>
<path fill="none" stroke="#191970" d="M935.3257,-274.4682C969.7852,-254.9451 1015.6381,-221.5442 1031,-176 1046.5353,-129.9419 1033.7971,-72.0233 1024.8646,-41.6935"/>
<polygon fill="#191970" stroke="#191970" points="933.4755,-271.491 926.3904,-279.3683 936.8415,-277.6286 933.4755,-271.491"/>
</g>
<!-- Node25 -->
<g id="node19" class="node">
<title>Node25</title>
<g id="a_node19"><a xlink:href="PerturbativeInteraction_8cpp.html" target="_top" xlink:title="/travis/pairinteraction\l/PerturbativeInteraction.cpp">
<polygon fill="none" stroke="#000000" points="514,-145.5 514,-175.5 666,-175.5 666,-145.5 514,-145.5"/>
<text text-anchor="start" x="522" y="-163.5" font-family="Helvetica,sans-Serif" font-size="10.00" fill="#000000">/travis/pairinteraction</text>
<text text-anchor="middle" x="590" y="-152.5" font-family="Helvetica,sans-Serif" font-size="10.00" fill="#000000">/PerturbativeInteraction.cpp</text>
</a>
</g>
</g>
<!-- Node24&#45;&gt;Node25 -->
<g id="edge23" class="edge">
<title>Node24&#45;&gt;Node25</title>
<path fill="none" stroke="#191970" d="M593.1207,-202.3179C592.4509,-193.3414 591.7175,-183.5143 591.1301,-175.6432"/>
<polygon fill="#191970" stroke="#191970" points="589.6308,-202.5849 593.8654,-212.2967 596.6114,-202.0639 589.6308,-202.5849"/>
</g>
<!-- Node28 -->
<g id="node22" class="node">
<title>Node28</title>
<g id="a_node22"><a xlink:href="SystemBase_8cpp.html" target="_top" xlink:title="/travis/pairinteraction\l/SystemBase.cpp">
<polygon fill="none" stroke="#000000" points="900,-145.5 900,-175.5 1022,-175.5 1022,-145.5 900,-145.5"/>
<text text-anchor="start" x="908" y="-163.5" font-family="Helvetica,sans-Serif" font-size="10.00" fill="#000000">/travis/pairinteraction</text>
<text text-anchor="middle" x="961" y="-152.5" font-family="Helvetica,sans-Serif" font-size="10.00" fill="#000000">/SystemBase.cpp</text>
</a>
</g>
</g>
<!-- Node27&#45;&gt;Node28 -->
<g id="edge26" class="edge">
<title>Node27&#45;&gt;Node28</title>
<path fill="none" stroke="#191970" d="M927.8404,-204.0626C935.0193,-194.6315 943.0909,-184.0276 949.4731,-175.6432"/>
<polygon fill="#191970" stroke="#191970" points="924.8446,-202.2197 921.5727,-212.2967 930.4146,-206.4595 924.8446,-202.2197"/>
</g>
<!-- Node27&#45;&gt;Node29 -->
<g id="edge27" class="edge">
<title>Node27&#45;&gt;Node29</title>
<path fill="none" stroke="#191970" d="M881.5257,-206.0643C868.3662,-196.1577 853.0487,-184.6265 841.1156,-175.6432"/>
<polygon fill="#191970" stroke="#191970" points="879.7103,-209.0785 889.8045,-212.2967 883.9203,-203.486 879.7103,-209.0785"/>
</g>
<!-- Node27&#45;&gt;Node31 -->
<g id="edge33" class="edge">
<title>Node27&#45;&gt;Node31</title>
<path fill="none" stroke="#191970" d="M838.7069,-211.7048C802.4308,-202.2818 763.4111,-189.539 751,-176 734.0166,-157.4731 731.2445,-126.8869 731.276,-108.6183"/>
<polygon fill="#191970" stroke="#191970" points="838.2882,-215.2093 848.8415,-214.2725 840.0074,-208.4237 838.2882,-215.2093"/>
</g>
<!-- Node30 -->
<g id="node24" class="node">
<title>Node30</title>
<g id="a_node24"><a xlink:href="SystemOne_8cpp.html" target="_top" xlink:title="/travis/pairinteraction\l/SystemOne.cpp">
<polygon fill="none" stroke="#000000" points="811,-78.5 811,-108.5 933,-108.5 933,-78.5 811,-78.5"/>
<text text-anchor="start" x="819" y="-96.5" font-family="Helvetica,sans-Serif" font-size="10.00" fill="#000000">/travis/pairinteraction</text>
<text text-anchor="middle" x="872" y="-85.5" font-family="Helvetica,sans-Serif" font-size="10.00" fill="#000000">/SystemOne.cpp</text>
</a>
</g>
</g>
<!-- Node29&#45;&gt;Node30 -->
<g id="edge28" class="edge">
<title>Node29&#45;&gt;Node30</title>
<path fill="none" stroke="#191970" d="M838.8404,-137.0626C846.0193,-127.6315 854.0909,-117.0276 860.4731,-108.6432"/>
<polygon fill="#191970" stroke="#191970" points="835.8446,-135.2197 832.5727,-145.2967 841.4146,-139.4595 835.8446,-135.2197"/>
</g>
<!-- Node29&#45;&gt;Node31 -->
<g id="edge29" class="edge">
<title>Node29&#45;&gt;Node31</title>
<path fill="none" stroke="#191970" d="M792.5257,-139.0643C779.3662,-129.1577 764.0487,-117.6265 752.1156,-108.6432"/>
<polygon fill="#191970" stroke="#191970" points="790.7103,-142.0785 800.8045,-145.2967 794.9203,-136.486 790.7103,-142.0785"/>
</g>
<!-- Node29&#45;&gt;Node33 -->
<g id="edge32" class="edge">
<title>Node29&#45;&gt;Node33</title>
<path fill="none" stroke="#191970" d="M879.3232,-141.8895C900.2067,-133.6688 923.2085,-122.7131 942,-109 967.7642,-90.1985 990.6757,-61.0841 1004.4416,-41.5487"/>
<polygon fill="#191970" stroke="#191970" points="878.0019,-138.6474 869.8998,-145.4743 880.4909,-145.19 878.0019,-138.6474"/>
</g>
<!-- Node32 -->
<g id="node26" class="node">
<title>Node32</title>
<g id="a_node26"><a xlink:href="SystemTwo_8cpp.html" target="_top" xlink:title="/travis/pairinteraction\l/SystemTwo.cpp">
<polygon fill="none" stroke="#000000" points="671,-6 671,-36 793,-36 793,-6 671,-6"/>
<text text-anchor="start" x="679" y="-24" font-family="Helvetica,sans-Serif" font-size="10.00" fill="#000000">/travis/pairinteraction</text>
<text text-anchor="middle" x="732" y="-13" font-family="Helvetica,sans-Serif" font-size="10.00" fill="#000000">/SystemTwo.cpp</text>
</a>
</g>
</g>
<!-- Node31&#45;&gt;Node32 -->
<g id="edge30" class="edge">
<title>Node31&#45;&gt;Node32</title>
<path fill="none" stroke="#191970" d="M732,-68.3409C732,-57.5601 732,-45.3309 732,-36.0028"/>
<polygon fill="#191970" stroke="#191970" points="728.5001,-68.4779 732,-78.478 735.5001,-68.478 728.5001,-68.4779"/>
</g>
<!-- Node31&#45;&gt;Node33 -->
<g id="edge31" class="edge">
<title>Node31&#45;&gt;Node33</title>
<path fill="none" stroke="#191970" d="M801.1579,-75.9687C848.6645,-63.926 911.1553,-48.0848 956.8432,-36.503"/>
<polygon fill="#191970" stroke="#191970" points="800.0927,-72.6279 791.2594,-78.478 801.8128,-79.4133 800.0927,-72.6279"/>
</g>
</g>
</svg>
