<?xml version="1.0" encoding="UTF-8" standalone="no"?>
<!DOCTYPE svg PUBLIC "-//W3C//DTD SVG 1.1//EN"
 "http://www.w3.org/Graphics/SVG/1.1/DTD/svg11.dtd">
<!-- Generated by graphviz version 2.40.1 (20161225.0304)
 -->
<!-- Title: /travis/pairinteraction/Wavefunction.h Pages: 1 -->
<svg width="1042pt" height="463pt"
 viewBox="0.00 0.00 1042.00 463.00" xmlns="http://www.w3.org/2000/svg" xmlns:xlink="http://www.w3.org/1999/xlink">
<g id="graph0" class="graph" transform="scale(1 1) rotate(0) translate(4 459)">
<title>/travis/pairinteraction/Wavefunction.h</title>
<!-- Node33 -->
<g id="node1" class="node">
<title>Node33</title>
<polygon fill="#bfbfbf" stroke="#000000" points="692,-424.5 692,-454.5 814,-454.5 814,-424.5 692,-424.5"/>
<text text-anchor="start" x="700" y="-442.5" font-family="Helvetica,sans-Serif" font-size="10.00" fill="#000000">/travis/pairinteraction</text>
<text text-anchor="middle" x="753" y="-431.5" font-family="Helvetica,sans-Serif" font-size="10.00" fill="#000000">/Wavefunction.h</text>
</g>
<!-- Node34 -->
<g id="node2" class="node">
<title>Node34</title>
<g id="a_node2"><a xlink:href="MatrixElements_8h.html" target="_top" xlink:title="/travis/pairinteraction\l/MatrixElements.h">
<polygon fill="none" stroke="#000000" points="223,-352 223,-382 345,-382 345,-352 223,-352"/>
<text text-anchor="start" x="231" y="-370" font-family="Helvetica,sans-Serif" font-size="10.00" fill="#000000">/travis/pairinteraction</text>
<text text-anchor="middle" x="284" y="-359" font-family="Helvetica,sans-Serif" font-size="10.00" fill="#000000">/MatrixElements.h</text>
</a>
</g>
</g>
<!-- Node33&#45;&gt;Node34 -->
<g id="edge1" class="edge">
<title>Node33&#45;&gt;Node34</title>
<path fill="none" stroke="#191970" d="M681.65,-428.4704C589.8649,-414.2819 431.9726,-389.8742 345.3286,-376.4804"/>
<polygon fill="#191970" stroke="#191970" points="681.2691,-431.953 691.6864,-430.0219 682.3385,-425.0352 681.2691,-431.953"/>
</g>
<!-- Node41 -->
<g id="node9" class="node">
<title>Node41</title>
<g id="a_node9"><a xlink:href="MatrixElementCache_8h.html" target="_top" xlink:title="/travis/pairinteraction\l/MatrixElementCache.h">
<polygon fill="none" stroke="#000000" points="614,-352 614,-382 744,-382 744,-352 614,-352"/>
<text text-anchor="start" x="622" y="-370" font-family="Helvetica,sans-Serif" font-size="10.00" fill="#000000">/travis/pairinteraction</text>
<text text-anchor="middle" x="679" y="-359" font-family="Helvetica,sans-Serif" font-size="10.00" fill="#000000">/MatrixElementCache.h</text>
</a>
</g>
</g>
<!-- Node33&#45;&gt;Node41 -->
<g id="edge10" class="edge">
<title>Node33&#45;&gt;Node41</title>
<path fill="none" stroke="#191970" d="M730.3726,-417.3313C718.6829,-405.8785 704.7269,-392.2054 694.3132,-382.0028"/>
<polygon fill="#191970" stroke="#191970" points="728.0746,-419.9797 737.6672,-424.478 732.9734,-414.9795 728.0746,-419.9797"/>
</g>
<!-- Node54 -->
<g id="node22" class="node">
<title>Node54</title>
<g id="a_node22"><a xlink:href="wavefunction__test_8cpp.html" target="_top" xlink:title="/travis/pairinteraction\l/unit_test/wavefunction\l_test.cpp">
<polygon fill="none" stroke="#000000" points="762.5,-346.5 762.5,-387.5 893.5,-387.5 893.5,-346.5 762.5,-346.5"/>
<text text-anchor="start" x="770.5" y="-375.5" font-family="Helvetica,sans-Serif" font-size="10.00" fill="#000000">/travis/pairinteraction</text>
<text text-anchor="start" x="770.5" y="-364.5" font-family="Helvetica,sans-Serif" font-size="10.00" fill="#000000">/unit_test/wavefunction</text>
<text text-anchor="middle" x="828" y="-353.5" font-family="Helvetica,sans-Serif" font-size="10.00" fill="#000000">_test.cpp</text>
</a>
</g>
</g>
<!-- Node33&#45;&gt;Node54 -->
<g id="edge32" class="edge">
<title>Node33&#45;&gt;Node54</title>
<path fill="none" stroke="#191970" d="M776.0077,-417.2593C785.8165,-407.7774 797.1886,-396.7843 806.7915,-387.5015"/>
<polygon fill="#191970" stroke="#191970" points="773.2974,-415.0112 768.54,-424.478 778.1625,-420.0442 773.2974,-415.0112"/>
</g>
<!-- Node55 -->
<g id="node23" class="node">
<title>Node55</title>
<g id="a_node23"><a xlink:href="Wavefunction_8cpp.html" target="_top" xlink:title="/travis/pairinteraction\l/Wavefunction.cpp">
<polygon fill="none" stroke="#000000" points="912,-352 912,-382 1034,-382 1034,-352 912,-352"/>
<text text-anchor="start" x="920" y="-370" font-family="Helvetica,sans-Serif" font-size="10.00" fill="#000000">/travis/pairinteraction</text>
<text text-anchor="middle" x="973" y="-359" font-family="Helvetica,sans-Serif" font-size="10.00" fill="#000000">/Wavefunction.cpp</text>
</a>
</g>
</g>
<!-- Node33&#45;&gt;Node55 -->
<g id="edge33" class="edge">
<title>Node33&#45;&gt;Node55</title>
<path fill="none" stroke="#191970" d="M808.1744,-421.3175C844.9958,-409.1832 892.8289,-393.42 927.4743,-382.0028"/>
<polygon fill="#191970" stroke="#191970" points="806.9862,-418.0239 798.5841,-424.478 809.1772,-424.6722 806.9862,-418.0239"/>
</g>
<!-- Node35 -->
<g id="node3" class="node">
<title>Node35</title>
<g id="a_node3"><a xlink:href="HamiltonianOne_8h.html" target="_top" xlink:title="/travis/pairinteraction\l/HamiltonianOne.h">
<polygon fill="none" stroke="#000000" points="89,-279.5 89,-309.5 211,-309.5 211,-279.5 89,-279.5"/>
<text text-anchor="start" x="97" y="-297.5" font-family="Helvetica,sans-Serif" font-size="10.00" fill="#000000">/travis/pairinteraction</text>
<text text-anchor="middle" x="150" y="-286.5" font-family="Helvetica,sans-Serif" font-size="10.00" fill="#000000">/HamiltonianOne.h</text>
</a>
</g>
</g>
<!-- Node34&#45;&gt;Node35 -->
<g id="edge2" class="edge">
<title>Node34&#45;&gt;Node35</title>
<path fill="none" stroke="#191970" d="M247.2018,-347.0905C225.2563,-335.217 197.8437,-320.3856 177.7293,-309.5028"/>
<polygon fill="#191970" stroke="#191970" points="245.7744,-350.2976 256.2351,-351.978 249.1054,-344.141 245.7744,-350.2976"/>
</g>
<!-- Node37 -->
<g id="node5" class="node">
<title>Node37</title>
<g id="a_node5"><a xlink:href="HamiltonianTwo_8h.html" target="_top" xlink:title="/travis/pairinteraction\l/HamiltonianTwo.h">
<polygon fill="none" stroke="#000000" points="178,-212.5 178,-242.5 300,-242.5 300,-212.5 178,-212.5"/>
<text text-anchor="start" x="186" y="-230.5" font-family="Helvetica,sans-Serif" font-size="10.00" fill="#000000">/travis/pairinteraction</text>
<text text-anchor="middle" x="239" y="-219.5" font-family="Helvetica,sans-Serif" font-size="10.00" fill="#000000">/HamiltonianTwo.h</text>
</a>
</g>
</g>
<!-- Node34&#45;&gt;Node37 -->
<g id="edge8" class="edge">
<title>Node34&#45;&gt;Node37</title>
<path fill="none" stroke="#191970" d="M271.5638,-342.6097C266.8474,-332.6767 261.7224,-320.9693 258,-310 250.2069,-287.0348 244.5666,-259.401 241.5414,-242.6569"/>
<polygon fill="#191970" stroke="#191970" points="268.5459,-344.4061 276.077,-351.8581 274.8368,-341.3361 268.5459,-344.4061"/>
</g>
<!-- Node40 -->
<g id="node8" class="node">
<title>Node40</title>
<g id="a_node8"><a xlink:href="MatrixElements_8cpp.html" target="_top" xlink:title="/travis/pairinteraction\l/MatrixElements.cpp">
<polygon fill="none" stroke="#000000" points="267,-279.5 267,-309.5 389,-309.5 389,-279.5 267,-279.5"/>
<text text-anchor="start" x="275" y="-297.5" font-family="Helvetica,sans-Serif" font-size="10.00" fill="#000000">/travis/pairinteraction</text>
<text text-anchor="middle" x="328" y="-286.5" font-family="Helvetica,sans-Serif" font-size="10.00" fill="#000000">/MatrixElements.cpp</text>
</a>
</g>
</g>
<!-- Node34&#45;&gt;Node40 -->
<g id="edge9" class="edge">
<title>Node34&#45;&gt;Node40</title>
<path fill="none" stroke="#191970" d="M298.4559,-343.1807C305.1903,-332.0842 312.9978,-319.2196 318.8949,-309.5028"/>
<polygon fill="#191970" stroke="#191970" points="295.313,-341.6132 293.1168,-351.978 301.2972,-345.245 295.313,-341.6132"/>
</g>
<!-- Node36 -->
<g id="node4" class="node">
<title>Node36</title>
<g id="a_node4"><a xlink:href="HamiltonianOne_8cpp.html" target="_top" xlink:title="/travis/pairinteraction\l/HamiltonianOne.cpp">
<polygon fill="none" stroke="#000000" points="0,-212.5 0,-242.5 122,-242.5 122,-212.5 0,-212.5"/>
<text text-anchor="start" x="8" y="-230.5" font-family="Helvetica,sans-Serif" font-size="10.00" fill="#000000">/travis/pairinteraction</text>
<text text-anchor="middle" x="61" y="-219.5" font-family="Helvetica,sans-Serif" font-size="10.00" fill="#000000">/HamiltonianOne.cpp</text>
</a>
</g>
</g>
<!-- Node35&#45;&gt;Node36 -->
<g id="edge3" class="edge">
<title>Node35&#45;&gt;Node36</title>
<path fill="none" stroke="#191970" d="M121.5257,-273.0643C108.3662,-263.1577 93.0487,-251.6265 81.1156,-242.6432"/>
<polygon fill="#191970" stroke="#191970" points="119.7103,-276.0785 129.8045,-279.2967 123.9203,-270.486 119.7103,-276.0785"/>
</g>
<!-- Node35&#45;&gt;Node37 -->
<g id="edge4" class="edge">
<title>Node35&#45;&gt;Node37</title>
<path fill="none" stroke="#191970" d="M178.4743,-273.0643C191.6338,-263.1577 206.9513,-251.6265 218.8844,-242.6432"/>
<polygon fill="#191970" stroke="#191970" points="176.0797,-270.486 170.1955,-279.2967 180.2897,-276.0785 176.0797,-270.486"/>
</g>
<!-- Node39 -->
<g id="node7" class="node">
<title>Node39</title>
<g id="a_node7"><a xlink:href="Interface_8cpp.html" target="_top" xlink:title="/travis/pairinteraction\l/Interface.cpp">
<polygon fill="none" stroke="#000000" points="47,-145.5 47,-175.5 169,-175.5 169,-145.5 47,-145.5"/>
<text text-anchor="start" x="55" y="-163.5" font-family="Helvetica,sans-Serif" font-size="10.00" fill="#000000">/travis/pairinteraction</text>
<text text-anchor="middle" x="108" y="-152.5" font-family="Helvetica,sans-Serif" font-size="10.00" fill="#000000">/Interface.cpp</text>
</a>
</g>
</g>
<!-- Node35&#45;&gt;Node39 -->
<g id="edge7" class="edge">
<title>Node35&#45;&gt;Node39</title>
<path fill="none" stroke="#191970" d="M145.5274,-269.3692C142.2665,-252.8426 137.3181,-230.8638 131,-212 126.7705,-199.3722 120.5437,-185.6268 115.6353,-175.5151"/>
<polygon fill="#191970" stroke="#191970" points="142.1195,-270.1835 147.4241,-279.3547 148.9965,-268.8772 142.1195,-270.1835"/>
</g>
<!-- Node38 -->
<g id="node6" class="node">
<title>Node38</title>
<g id="a_node6"><a xlink:href="HamiltonianTwo_8cpp.html" target="_top" xlink:title="/travis/pairinteraction\l/HamiltonianTwo.cpp">
<polygon fill="none" stroke="#000000" points="187,-145.5 187,-175.5 309,-175.5 309,-145.5 187,-145.5"/>
<text text-anchor="start" x="195" y="-163.5" font-family="Helvetica,sans-Serif" font-size="10.00" fill="#000000">/travis/pairinteraction</text>
<text text-anchor="middle" x="248" y="-152.5" font-family="Helvetica,sans-Serif" font-size="10.00" fill="#000000">/HamiltonianTwo.cpp</text>
</a>
</g>
</g>
<!-- Node37&#45;&gt;Node38 -->
<g id="edge5" class="edge">
<title>Node37&#45;&gt;Node38</title>
<path fill="none" stroke="#191970" d="M242.3827,-202.3179C243.5885,-193.3414 244.9085,-183.5143 245.9658,-175.6432"/>
<polygon fill="#191970" stroke="#191970" points="238.9048,-201.9197 241.0422,-212.2967 245.8425,-202.8517 238.9048,-201.9197"/>
</g>
<!-- Node37&#45;&gt;Node39 -->
<g id="edge6" class="edge">
<title>Node37&#45;&gt;Node39</title>
<path fill="none" stroke="#191970" d="M200.4318,-207.7743C180.4087,-197.5335 156.3198,-185.2132 137.7541,-175.7177"/>
<polygon fill="#191970" stroke="#191970" points="199.1042,-211.0264 209.601,-212.4639 202.2917,-204.7942 199.1042,-211.0264"/>
</g>
<!-- Node42 -->
<g id="node10" class="node">
<title>Node42</title>
<g id="a_node10"><a xlink:href="MatrixElementCache_8cpp.html" target="_top" xlink:title="/travis/pairinteraction\l/MatrixElementCache.cpp">
<polygon fill="none" stroke="#000000" points="458.5,-279.5 458.5,-309.5 599.5,-309.5 599.5,-279.5 458.5,-279.5"/>
<text text-anchor="start" x="466.5" y="-297.5" font-family="Helvetica,sans-Serif" font-size="10.00" fill="#000000">/travis/pairinteraction</text>
<text text-anchor="middle" x="529" y="-286.5" font-family="Helvetica,sans-Serif" font-size="10.00" fill="#000000">/MatrixElementCache.cpp</text>
</a>
</g>
</g>
<!-- Node41&#45;&gt;Node42 -->
<g id="edge11" class="edge">
<title>Node41&#45;&gt;Node42</title>
<path fill="none" stroke="#191970" d="M638.7917,-347.566C614.0655,-335.615 582.858,-320.5313 560.0403,-309.5028"/>
<polygon fill="#191970" stroke="#191970" points="637.3933,-350.7774 647.9199,-351.978 640.4395,-344.475 637.3933,-350.7774"/>
</g>
<!-- Node43 -->
<g id="node11" class="node">
<title>Node43</title>
<g id="a_node11"><a xlink:href="State_8h.html" target="_top" xlink:title="/travis/pairinteraction\l/State.h">
<polygon fill="none" stroke="#000000" points="618,-279.5 618,-309.5 740,-309.5 740,-279.5 618,-279.5"/>
<text text-anchor="start" x="626" y="-297.5" font-family="Helvetica,sans-Serif" font-size="10.00" fill="#000000">/travis/pairinteraction</text>
<text text-anchor="middle" x="679" y="-286.5" font-family="Helvetica,sans-Serif" font-size="10.00" fill="#000000">/State.h</text>
</a>
</g>
</g>
<!-- Node41&#45;&gt;Node43 -->
<g id="edge12" class="edge">
<title>Node41&#45;&gt;Node43</title>
<path fill="none" stroke="#191970" d="M672.539,-341.8409C671.9604,-331.0601 672.2506,-318.8309 673.4097,-309.5028"/>
<polygon fill="#191970" stroke="#191970" points="669.0666,-342.3132 673.4073,-351.978 676.041,-341.7157 669.0666,-342.3132"/>
</g>
<!-- Node44 -->
<g id="node12" class="node">
<title>Node44</title>
<g id="a_node12"><a xlink:href="PerturbativeInteraction_8h.html" target="_top" xlink:title="/travis/pairinteraction\l/PerturbativeInteraction.h">
<polygon fill="none" stroke="#000000" points="840.5,-212.5 840.5,-242.5 981.5,-242.5 981.5,-212.5 840.5,-212.5"/>
<text text-anchor="start" x="848.5" y="-230.5" font-family="Helvetica,sans-Serif" font-size="10.00" fill="#000000">/travis/pairinteraction</text>
<text text-anchor="middle" x="911" y="-219.5" font-family="Helvetica,sans-Serif" font-size="10.00" fill="#000000">/PerturbativeInteraction.h</text>
</a>
</g>
</g>
<!-- Node41&#45;&gt;Node44 -->
<g id="edge29" class="edge">
<title>Node41&#45;&gt;Node44</title>
<path fill="none" stroke="#191970" d="M712.8785,-346.6291C759.8943,-318.3588 843.8571,-267.8726 885.7614,-242.6758"/>
<polygon fill="#191970" stroke="#191970" points="711.0362,-343.6528 704.2697,-351.8055 714.6434,-349.6519 711.0362,-343.6528"/>
</g>
<!-- Node47 -->
<g id="node15" class="node">
<title>Node47</title>
<g id="a_node15"><a xlink:href="SystemBase_8h.html" target="_top" xlink:title="/travis/pairinteraction\l/SystemBase.h">
<polygon fill="none" stroke="#000000" points="375,-212.5 375,-242.5 497,-242.5 497,-212.5 375,-212.5"/>
<text text-anchor="start" x="383" y="-230.5" font-family="Helvetica,sans-Serif" font-size="10.00" fill="#000000">/travis/pairinteraction</text>
<text text-anchor="middle" x="436" y="-219.5" font-family="Helvetica,sans-Serif" font-size="10.00" fill="#000000">/SystemBase.h</text>
</a>
</g>
</g>
<!-- Node41&#45;&gt;Node47 -->
<g id="edge30" class="edge">
<title>Node41&#45;&gt;Node47</title>
<path fill="none" stroke="#191970" d="M603.8837,-357.4417C545.0633,-348.367 469.8283,-332.7159 449,-310 432.2434,-291.7249 432.0722,-261.0542 433.8059,-242.7016"/>
<polygon fill="#191970" stroke="#191970" points="603.5042,-360.9239 613.9136,-358.9507 604.5457,-354.0018 603.5042,-360.9239"/>
</g>
<!-- Node53 -->
<g id="node21" class="node">
<title>Node53</title>
<g id="a_node21"><a xlink:href="integration__test_8cpp.html" target="_top" xlink:title="/travis/pairinteraction\l/unit_test/integration\l_test.cpp">
<polygon fill="none" stroke="#000000" points="642,-.5 642,-41.5 764,-41.5 764,-.5 642,-.5"/>
<text text-anchor="start" x="650" y="-29.5" font-family="Helvetica,sans-Serif" font-size="10.00" fill="#000000">/travis/pairinteraction</text>
<text text-anchor="start" x="650" y="-18.5" font-family="Helvetica,sans-Serif" font-size="10.00" fill="#000000">/unit_test/integration</text>
<text text-anchor="middle" x="703" y="-7.5" font-family="Helvetica,sans-Serif" font-size="10.00" fill="#000000">_test.cpp</text>
</a>
</g>
</g>
<!-- Node41&#45;&gt;Node53 -->
<g id="edge31" class="edge">
<title>Node41&#45;&gt;Node53</title>
<path fill="none" stroke="#191970" d="M736.8798,-348.8326C831.7704,-318.2071 1010,-256.7863 1010,-227.5 1010,-227.5 1010,-227.5 1010,-160.5 1010,-107.0063 853.5508,-58.7973 764.0204,-35.5886"/>
<polygon fill="#191970" stroke="#191970" points="735.58,-345.5739 727.1302,-351.9655 737.7216,-352.2383 735.58,-345.5739"/>
</g>
<!-- Node43&#45;&gt;Node41 -->
<g id="edge13" class="edge">
<title>Node43&#45;&gt;Node41</title>
<path fill="none" stroke="#191970" d="M685.4598,-319.6368C686.0396,-330.4157 685.7506,-342.6459 684.5927,-351.978"/>
<polygon fill="#191970" stroke="#191970" points="688.9324,-319.167 684.5903,-309.5028 681.958,-319.7654 688.9324,-319.167"/>
</g>
<!-- Node43&#45;&gt;Node44 -->
<g id="edge14" class="edge">
<title>Node43&#45;&gt;Node44</title>
<path fill="none" stroke="#191970" d="M740.6904,-276.6842C777.49,-266.0568 823.7073,-252.7095 858.7076,-242.6017"/>
<polygon fill="#191970" stroke="#191970" points="739.7016,-273.3267 731.0653,-279.4639 741.6438,-280.0519 739.7016,-273.3267"/>
</g>
<!-- Node46 -->
<g id="node14" class="node">
<title>Node46</title>
<g id="a_node14"><a xlink:href="State_8cpp.html" target="_top" xlink:title="/travis/pairinteraction\l/State.cpp">
<polygon fill="none" stroke="#000000" points="700,-212.5 700,-242.5 822,-242.5 822,-212.5 700,-212.5"/>
<text text-anchor="start" x="708" y="-230.5" font-family="Helvetica,sans-Serif" font-size="10.00" fill="#000000">/travis/pairinteraction</text>
<text text-anchor="middle" x="761" y="-219.5" font-family="Helvetica,sans-Serif" font-size="10.00" fill="#000000">/State.cpp</text>
</a>
</g>
</g>
<!-- Node43&#45;&gt;Node46 -->
<g id="edge16" class="edge">
<title>Node43&#45;&gt;Node46</title>
<path fill="none" stroke="#191970" d="M705.5817,-272.7808C717.6278,-262.9383 731.5767,-251.541 742.4666,-242.6432"/>
<polygon fill="#191970" stroke="#191970" points="703.1363,-270.2591 697.6071,-279.2967 707.5654,-275.6797 703.1363,-270.2591"/>
</g>
<!-- Node43&#45;&gt;Node47 -->
<g id="edge17" class="edge">
<title>Node43&#45;&gt;Node47</title>
<path fill="none" stroke="#191970" d="M614.3846,-276.6842C575.8402,-266.0568 527.4316,-252.7095 490.7718,-242.6017"/>
<polygon fill="#191970" stroke="#191970" points="613.8954,-280.1799 624.4661,-279.4639 615.7561,-273.4317 613.8954,-280.1799"/>
</g>
<!-- Node49 -->
<g id="node17" class="node">
<title>Node49</title>
<g id="a_node17"><a xlink:href="SystemOne_8h.html" target="_top" xlink:title="/travis/pairinteraction\l/SystemOne.h">
<polygon fill="none" stroke="#000000" points="553,-145.5 553,-175.5 675,-175.5 675,-145.5 553,-145.5"/>
<text text-anchor="start" x="561" y="-163.5" font-family="Helvetica,sans-Serif" font-size="10.00" fill="#000000">/travis/pairinteraction</text>
<text text-anchor="middle" x="614" y="-152.5" font-family="Helvetica,sans-Serif" font-size="10.00" fill="#000000">/SystemOne.h</text>
</a>
</g>
</g>
<!-- Node43&#45;&gt;Node49 -->
<g id="edge26" class="edge">
<title>Node43&#45;&gt;Node49</title>
<path fill="none" stroke="#191970" d="M667.149,-270.0686C653.8149,-242.58 632.5654,-198.7732 621.4029,-175.7614"/>
<polygon fill="#191970" stroke="#191970" points="664.1565,-271.9192 671.67,-279.389 670.4547,-268.8641 664.1565,-271.9192"/>
</g>
<!-- Node51 -->
<g id="node19" class="node">
<title>Node51</title>
<g id="a_node19"><a xlink:href="SystemTwo_8h.html" target="_top" xlink:title="/travis/pairinteraction\l/SystemTwo.h">
<polygon fill="none" stroke="#000000" points="394,-78.5 394,-108.5 516,-108.5 516,-78.5 394,-78.5"/>
<text text-anchor="start" x="402" y="-96.5" font-family="Helvetica,sans-Serif" font-size="10.00" fill="#000000">/travis/pairinteraction</text>
<text text-anchor="middle" x="455" y="-85.5" font-family="Helvetica,sans-Serif" font-size="10.00" fill="#000000">/SystemTwo.h</text>
</a>
</g>
</g>
<!-- Node43&#45;&gt;Node51 -->
<g id="edge27" class="edge">
<title>Node43&#45;&gt;Node51</title>
<path fill="none" stroke="#191970" d="M653.5023,-272.481C626.2227,-248.8391 581.7739,-210.0748 544,-176 518.1872,-152.715 488.6763,-125.1736 470.9575,-108.5357"/>
<polygon fill="#191970" stroke="#191970" points="651.5396,-275.4113 661.3908,-279.3107 656.1215,-270.1191 651.5396,-275.4113"/>
</g>
<!-- Node43&#45;&gt;Node53 -->
<g id="edge28" class="edge">
<title>Node43&#45;&gt;Node53</title>
<path fill="none" stroke="#191970" d="M681.2026,-269.3998C685.9004,-215.864 696.8289,-91.3249 701.1725,-41.8263"/>
<polygon fill="#191970" stroke="#191970" points="677.7122,-269.1382 680.3245,-279.4059 684.6854,-269.7501 677.7122,-269.1382"/>
</g>
<!-- Node45 -->
<g id="node13" class="node">
<title>Node45</title>
<g id="a_node13"><a xlink:href="PerturbativeInteraction_8cpp.html" target="_top" xlink:title="/travis/pairinteraction\l/PerturbativeInteraction.cpp">
<polygon fill="none" stroke="#000000" points="830,-145.5 830,-175.5 982,-175.5 982,-145.5 830,-145.5"/>
<text text-anchor="start" x="838" y="-163.5" font-family="Helvetica,sans-Serif" font-size="10.00" fill="#000000">/travis/pairinteraction</text>
<text text-anchor="middle" x="906" y="-152.5" font-family="Helvetica,sans-Serif" font-size="10.00" fill="#000000">/PerturbativeInteraction.cpp</text>
</a>
</g>
</g>
<!-- Node44&#45;&gt;Node45 -->
<g id="edge15" class="edge">
<title>Node44&#45;&gt;Node45</title>
<path fill="none" stroke="#191970" d="M909.1207,-202.3179C908.4509,-193.3414 907.7175,-183.5143 907.1301,-175.6432"/>
<polygon fill="#191970" stroke="#191970" points="905.6308,-202.5849 909.8654,-212.2967 912.6114,-202.0639 905.6308,-202.5849"/>
</g>
<!-- Node48 -->
<g id="node16" class="node">
<title>Node48</title>
<g id="a_node16"><a xlink:href="SystemBase_8cpp.html" target="_top" xlink:title="/travis/pairinteraction\l/SystemBase.cpp">
<polygon fill="none" stroke="#000000" points="327,-145.5 327,-175.5 449,-175.5 449,-145.5 327,-145.5"/>
<text text-anchor="start" x="335" y="-163.5" font-family="Helvetica,sans-Serif" font-size="10.00" fill="#000000">/travis/pairinteraction</text>
<text text-anchor="middle" x="388" y="-152.5" font-family="Helvetica,sans-Serif" font-size="10.00" fill="#000000">/SystemBase.cpp</text>
</a>
</g>
</g>
<!-- Node47&#45;&gt;Node48 -->
<g id="edge18" class="edge">
<title>Node47&#45;&gt;Node48</title>
<path fill="none" stroke="#191970" d="M419.209,-204.0626C412.4524,-194.6315 404.8556,-184.0276 398.8488,-175.6432"/>
<polygon fill="#191970" stroke="#191970" points="416.439,-206.2059 425.1081,-212.2967 422.1294,-202.1292 416.439,-206.2059"/>
</g>
<!-- Node47&#45;&gt;Node49 -->
<g id="edge19" class="edge">
<title>Node47&#45;&gt;Node49</title>
<path fill="none" stroke="#191970" d="M485.5079,-208.865C513.3707,-198.3773 547.7111,-185.4515 573.8791,-175.6017"/>
<polygon fill="#191970" stroke="#191970" points="484.0727,-205.6654 475.9467,-212.4639 486.5386,-212.2167 484.0727,-205.6654"/>
</g>
<!-- Node47&#45;&gt;Node51 -->
<g id="edge25" class="edge">
<title>Node47&#45;&gt;Node51</title>
<path fill="none" stroke="#191970" d="M448.8098,-203.0922C452.5439,-194.7345 456.1226,-185.174 458,-176 462.7413,-152.8317 460.1245,-125.2566 457.665,-108.5799"/>
<polygon fill="#191970" stroke="#191970" points="445.5857,-201.7221 444.4474,-212.2556 451.906,-204.731 445.5857,-201.7221"/>
</g>
<!-- Node50 -->
<g id="node18" class="node">
<title>Node50</title>
<g id="a_node18"><a xlink:href="SystemOne_8cpp.html" target="_top" xlink:title="/travis/pairinteraction\l/SystemOne.cpp">
<polygon fill="none" stroke="#000000" points="534,-78.5 534,-108.5 656,-108.5 656,-78.5 534,-78.5"/>
<text text-anchor="start" x="542" y="-96.5" font-family="Helvetica,sans-Serif" font-size="10.00" fill="#000000">/travis/pairinteraction</text>
<text text-anchor="middle" x="595" y="-85.5" font-family="Helvetica,sans-Serif" font-size="10.00" fill="#000000">/SystemOne.cpp</text>
</a>
</g>
</g>
<!-- Node49&#45;&gt;Node50 -->
<g id="edge20" class="edge">
<title>Node49&#45;&gt;Node50</title>
<path fill="none" stroke="#191970" d="M606.9417,-135.6103C604.3739,-126.5553 601.5507,-116.5998 599.2943,-108.6432"/>
<polygon fill="#191970" stroke="#191970" points="603.5931,-136.6309 609.6886,-145.2967 610.3275,-134.7211 603.5931,-136.6309"/>
</g>
<!-- Node49&#45;&gt;Node51 -->
<g id="edge21" class="edge">
<title>Node49&#45;&gt;Node51</title>
<path fill="none" stroke="#191970" d="M568.7955,-141.4516C544.0855,-131.0392 513.9069,-118.3224 490.8383,-108.6017"/>
<polygon fill="#191970" stroke="#191970" points="567.7429,-144.806 578.3173,-145.4639 570.4612,-138.3553 567.7429,-144.806"/>
</g>
<!-- Node49&#45;&gt;Node53 -->
<g id="edge24" class="edge">
<title>Node49&#45;&gt;Node53</title>
<path fill="none" stroke="#191970" d="M639.7439,-138.1907C648.5319,-129.6774 657.9181,-119.4843 665,-109 679.3449,-87.7632 690.1824,-60.2317 696.5413,-41.664"/>
<polygon fill="#191970" stroke="#191970" points="637.1585,-135.8166 632.248,-145.2048 641.9413,-140.9279 637.1585,-135.8166"/>
</g>
<!-- Node52 -->
<g id="node20" class="node">
<title>Node52</title>
<g id="a_node20"><a xlink:href="SystemTwo_8cpp.html" target="_top" xlink:title="/travis/pairinteraction\l/SystemTwo.cpp">
<polygon fill="none" stroke="#000000" points="394,-6 394,-36 516,-36 516,-6 394,-6"/>
<text text-anchor="start" x="402" y="-24" font-family="Helvetica,sans-Serif" font-size="10.00" fill="#000000">/travis/pairinteraction</text>
<text text-anchor="middle" x="455" y="-13" font-family="Helvetica,sans-Serif" font-size="10.00" fill="#000000">/SystemTwo.cpp</text>
</a>
</g>
</g>
<!-- Node51&#45;&gt;Node52 -->
<g id="edge22" class="edge">
<title>Node51&#45;&gt;Node52</title>
<path fill="none" stroke="#191970" d="M455,-68.3409C455,-57.5601 455,-45.3309 455,-36.0028"/>
<polygon fill="#191970" stroke="#191970" points="451.5001,-68.4779 455,-78.478 458.5001,-68.478 451.5001,-68.4779"/>
</g>
<!-- Node51&#45;&gt;Node53 -->
<g id="edge23" class="edge">
<title>Node51&#45;&gt;Node53</title>
<path fill="none" stroke="#191970" d="M516.3452,-75.5664C554.5125,-64.4086 603.4219,-50.1105 641.5996,-38.9497"/>
<polygon fill="#191970" stroke="#191970" points="515.0019,-72.3125 506.3858,-78.478 516.9661,-79.0313 515.0019,-72.3125"/>
</g>
</g>
</svg>
