<?xml version="1.0" encoding="UTF-8" standalone="no"?>
<!DOCTYPE svg PUBLIC "-//W3C//DTD SVG 1.1//EN"
 "http://www.w3.org/Graphics/SVG/1.1/DTD/svg11.dtd">
<!-- Generated by graphviz version 2.40.1 (20161225.0304)
 -->
<!-- Title: /travis/pairinteraction/Wavefunction.h Pages: 1 -->
<svg width="1616pt" height="274pt"
 viewBox="0.00 0.00 1615.50 274.00" xmlns="http://www.w3.org/2000/svg" xmlns:xlink="http://www.w3.org/1999/xlink">
<g id="graph0" class="graph" transform="scale(1 1) rotate(0) translate(4 270)">
<title>/travis/pairinteraction/Wavefunction.h</title>
<!-- Node0 -->
<g id="node1" class="node">
<title>Node0</title>
<polygon fill="#bfbfbf" stroke="#000000" points="1233,-235.5 1233,-265.5 1355,-265.5 1355,-235.5 1233,-235.5"/>
<text text-anchor="start" x="1241" y="-253.5" font-family="Helvetica,sans-Serif" font-size="10.00" fill="#000000">/travis/pairinteraction</text>
<text text-anchor="middle" x="1294" y="-242.5" font-family="Helvetica,sans-Serif" font-size="10.00" fill="#000000">/Wavefunction.h</text>
</g>
<!-- Node1 -->
<g id="node2" class="node">
<title>Node1</title>
<g id="a_node2"><a xlink:href="QuantumDefect_8h.html" target="_top" xlink:title="QuantumDefect.h">
<polygon fill="none" stroke="#000000" points="834.5,-179.5 834.5,-198.5 937.5,-198.5 937.5,-179.5 834.5,-179.5"/>
<text text-anchor="middle" x="886" y="-186.5" font-family="Helvetica,sans-Serif" font-size="10.00" fill="#000000">QuantumDefect.h</text>
</a>
</g>
</g>
<!-- Node0&#45;&gt;Node1 -->
<g id="edge1" class="edge">
<title>Node0&#45;&gt;Node1</title>
<path fill="none" stroke="#191970" d="M1232.9183,-241.2928C1156.1157,-229.716 1025.0006,-209.9523 947.8418,-198.3217"/>
<polygon fill="#191970" stroke="#191970" points="948.1951,-194.8355 937.7851,-196.8058 947.1516,-201.7573 948.1951,-194.8355"/>
</g>
<!-- Node11 -->
<g id="node12" class="node">
<title>Node11</title>
<polygon fill="none" stroke="#bfbfbf" points="0,-62 0,-81 44,-81 44,-62 0,-62"/>
<text text-anchor="middle" x="22" y="-69" font-family="Helvetica,sans-Serif" font-size="10.00" fill="#000000">string</text>
</g>
<!-- Node0&#45;&gt;Node11 -->
<g id="edge39" class="edge">
<title>Node0&#45;&gt;Node11</title>
<path fill="none" stroke="#191970" d="M1232.9906,-247.0087C1031.2826,-235.0866 387.3051,-193.8917 186,-143 134.9677,-130.0986 79.6316,-102.9451 48.0536,-86.0626"/>
<polygon fill="#191970" stroke="#191970" points="49.5067,-82.8692 39.0473,-81.1801 46.1705,-89.023 49.5067,-82.8692"/>
</g>
<!-- Node22 -->
<g id="node23" class="node">
<title>Node22</title>
<g id="a_node23"><a xlink:href="dtypes_8h.html" target="_top" xlink:title="dtypes.h">
<polygon fill="none" stroke="#000000" points="1225.5,-123.5 1225.5,-142.5 1284.5,-142.5 1284.5,-123.5 1225.5,-123.5"/>
<text text-anchor="middle" x="1255" y="-130.5" font-family="Helvetica,sans-Serif" font-size="10.00" fill="#000000">dtypes.h</text>
</a>
</g>
</g>
<!-- Node0&#45;&gt;Node22 -->
<g id="edge36" class="edge">
<title>Node0&#45;&gt;Node22</title>
<path fill="none" stroke="#191970" d="M1288.9014,-235.1389C1281.843,-213.873 1269.0965,-175.4702 1261.4045,-152.2956"/>
<polygon fill="#191970" stroke="#191970" points="1264.645,-150.9478 1258.1729,-142.5595 1258.0014,-153.1529 1264.645,-150.9478"/>
</g>
<!-- Node28 -->
<g id="node29" class="node">
<title>Node28</title>
<polygon fill="none" stroke="#bfbfbf" points="1560.5,-62 1560.5,-81 1607.5,-81 1607.5,-62 1560.5,-62"/>
<text text-anchor="middle" x="1584" y="-69" font-family="Helvetica,sans-Serif" font-size="10.00" fill="#000000">vector</text>
</g>
<!-- Node0&#45;&gt;Node28 -->
<g id="edge40" class="edge">
<title>Node0&#45;&gt;Node28</title>
<path fill="none" stroke="#191970" d="M1298.5946,-235.452C1304.1592,-219.5067 1314.9626,-194.5313 1332,-179 1410.3232,-107.6006 1455.3832,-130.5614 1552,-87 1553.1712,-86.4719 1554.3635,-85.9273 1555.5657,-85.3722"/>
<polygon fill="#191970" stroke="#191970" points="1557.242,-88.4513 1564.79,-81.0164 1554.2529,-82.1216 1557.242,-88.4513"/>
</g>
<!-- Node31 -->
<g id="node32" class="node">
<title>Node31</title>
<polygon fill="none" stroke="#bfbfbf" points="1341,-179.5 1341,-198.5 1387,-198.5 1387,-179.5 1341,-179.5"/>
<text text-anchor="middle" x="1364" y="-186.5" font-family="Helvetica,sans-Serif" font-size="10.00" fill="#000000">cstdio</text>
</g>
<!-- Node0&#45;&gt;Node31 -->
<g id="edge37" class="edge">
<title>Node0&#45;&gt;Node31</title>
<path fill="none" stroke="#191970" d="M1311.3034,-235.2977C1321.5262,-226.3163 1334.4823,-214.9334 1344.9896,-205.702"/>
<polygon fill="#191970" stroke="#191970" points="1347.5897,-208.0766 1352.7921,-198.8469 1342.9695,-202.8178 1347.5897,-208.0766"/>
</g>
<!-- Node32 -->
<g id="node33" class="node">
<title>Node32</title>
<polygon fill="none" stroke="#bfbfbf" points="1405,-179.5 1405,-198.5 1449,-198.5 1449,-179.5 1405,-179.5"/>
<text text-anchor="middle" x="1427" y="-186.5" font-family="Helvetica,sans-Serif" font-size="10.00" fill="#000000">limits</text>
</g>
<!-- Node0&#45;&gt;Node32 -->
<g id="edge38" class="edge">
<title>Node0&#45;&gt;Node32</title>
<path fill="none" stroke="#191970" d="M1326.5355,-235.4554C1348.1429,-225.464 1376.2898,-212.4487 1397.292,-202.7372"/>
<polygon fill="#191970" stroke="#191970" points="1398.7821,-205.9043 1406.3897,-198.5303 1395.8441,-199.5506 1398.7821,-205.9043"/>
</g>
<!-- Node2 -->
<g id="node3" class="node">
<title>Node2</title>
<g id="a_node3"><a xlink:href="Cache_8h.html" target="_top" xlink:title="Cache.h">
<polygon fill="none" stroke="#000000" points="914,-123.5 914,-142.5 970,-142.5 970,-123.5 914,-123.5"/>
<text text-anchor="middle" x="942" y="-130.5" font-family="Helvetica,sans-Serif" font-size="10.00" fill="#000000">Cache.h</text>
</a>
</g>
</g>
<!-- Node1&#45;&gt;Node2 -->
<g id="edge2" class="edge">
<title>Node1&#45;&gt;Node2</title>
<path fill="none" stroke="#191970" d="M895.7545,-179.2455C903.8648,-171.1352 915.5925,-159.4075 925.2081,-149.7919"/>
<polygon fill="#191970" stroke="#191970" points="927.7611,-152.1887 932.3573,-142.6427 922.8113,-147.2389 927.7611,-152.1887"/>
</g>
<!-- Node3 -->
<g id="node4" class="node">
<title>Node3</title>
<polygon fill="none" stroke="#bfbfbf" points="1014,-62 1014,-81 1062,-81 1062,-62 1014,-62"/>
<text text-anchor="middle" x="1038" y="-69" font-family="Helvetica,sans-Serif" font-size="10.00" fill="#000000">mutex</text>
</g>
<!-- Node1&#45;&gt;Node3 -->
<g id="edge31" class="edge">
<title>Node1&#45;&gt;Node3</title>
<path fill="none" stroke="#191970" d="M912.5632,-179.3756C932.1591,-171.4765 958.8118,-158.998 979,-143 998.1902,-127.7929 1015.4093,-105.4077 1026.2223,-89.7474"/>
<polygon fill="#191970" stroke="#191970" points="1029.1514,-91.6635 1031.815,-81.409 1023.3379,-87.7643 1029.1514,-91.6635"/>
</g>
<!-- Node4 -->
<g id="node5" class="node">
<title>Node4</title>
<polygon fill="none" stroke="#bfbfbf" points="777.5,-62 777.5,-81 870.5,-81 870.5,-62 777.5,-62"/>
<text text-anchor="middle" x="824" y="-69" font-family="Helvetica,sans-Serif" font-size="10.00" fill="#000000">unordered_map</text>
</g>
<!-- Node1&#45;&gt;Node4 -->
<g id="edge34" class="edge">
<title>Node1&#45;&gt;Node4</title>
<path fill="none" stroke="#191970" d="M884.2623,-179.1418C881.6419,-165.8208 875.902,-141.6008 866,-123 859.3748,-110.5547 849.5042,-98.2558 840.9964,-88.7995"/>
<polygon fill="#191970" stroke="#191970" points="843.3684,-86.2113 833.9865,-81.2889 838.251,-90.9875 843.3684,-86.2113"/>
</g>
<!-- Node6 -->
<g id="node7" class="node">
<title>Node6</title>
<g id="a_node7"><a xlink:href="SQLite_8h.html" target="_top" xlink:title="SQLite.h">
<polygon fill="none" stroke="#000000" points="349.5,-123.5 349.5,-142.5 406.5,-142.5 406.5,-123.5 349.5,-123.5"/>
<text text-anchor="middle" x="378" y="-130.5" font-family="Helvetica,sans-Serif" font-size="10.00" fill="#000000">SQLite.h</text>
</a>
</g>
</g>
<!-- Node1&#45;&gt;Node6 -->
<g id="edge6" class="edge">
<title>Node1&#45;&gt;Node6</title>
<path fill="none" stroke="#191970" d="M834.4946,-183.3222C732.5875,-172.0884 507.2761,-147.2509 416.7603,-137.2728"/>
<polygon fill="#191970" stroke="#191970" points="416.982,-133.7761 406.6586,-136.1592 416.2149,-140.734 416.982,-133.7761"/>
</g>
<!-- Node1&#45;&gt;Node11 -->
<g id="edge32" class="edge">
<title>Node1&#45;&gt;Node11</title>
<path fill="none" stroke="#191970" d="M834.2264,-186.5164C737.0103,-181.4369 520.6634,-168.1602 340,-143 211.2812,-125.0739 176.0253,-128.8884 53,-87 51.3944,-86.4533 49.7666,-85.8391 48.1408,-85.1789"/>
<polygon fill="#191970" stroke="#191970" points="49.5752,-81.9863 39.0224,-81.0438 46.6842,-88.3614 49.5752,-81.9863"/>
</g>
<!-- Node1&#45;&gt;Node22 -->
<g id="edge24" class="edge">
<title>Node1&#45;&gt;Node22</title>
<path fill="none" stroke="#191970" d="M937.6964,-181.1545C1012.0652,-169.8682 1147.6741,-149.2879 1214.9478,-139.0784"/>
<polygon fill="#191970" stroke="#191970" points="1215.7767,-142.4928 1225.1383,-137.5319 1214.7263,-135.572 1215.7767,-142.4928"/>
</g>
<!-- Node29 -->
<g id="node30" class="node">
<title>Node29</title>
<polygon fill="none" stroke="#bfbfbf" points="655.5,-123.5 655.5,-142.5 696.5,-142.5 696.5,-123.5 655.5,-123.5"/>
<text text-anchor="middle" x="676" y="-130.5" font-family="Helvetica,sans-Serif" font-size="10.00" fill="#000000">tuple</text>
</g>
<!-- Node1&#45;&gt;Node29 -->
<g id="edge33" class="edge">
<title>Node1&#45;&gt;Node29</title>
<path fill="none" stroke="#191970" d="M844.3964,-179.4669C809.6955,-171.2834 758.7747,-158.7393 706.3328,-143.2421"/>
<polygon fill="#191970" stroke="#191970" points="707.11,-139.8215 696.5267,-140.3144 705.1075,-146.529 707.11,-139.8215"/>
</g>
<!-- Node30 -->
<g id="node31" class="node">
<title>Node30</title>
<polygon fill="none" stroke="#bfbfbf" points="714.5,-123.5 714.5,-142.5 857.5,-142.5 857.5,-123.5 714.5,-123.5"/>
<text text-anchor="middle" x="786" y="-130.5" font-family="Helvetica,sans-Serif" font-size="10.00" fill="#000000">boost/functional/hash.hpp</text>
</g>
<!-- Node1&#45;&gt;Node30 -->
<g id="edge35" class="edge">
<title>Node1&#45;&gt;Node30</title>
<path fill="none" stroke="#191970" d="M868.5813,-179.2455C852.9515,-170.4928 829.7981,-157.527 811.9815,-147.5496"/>
<polygon fill="#191970" stroke="#191970" points="813.6543,-144.475 803.2191,-142.6427 810.234,-150.5825 813.6543,-144.475"/>
</g>
<!-- Node2&#45;&gt;Node3 -->
<g id="edge3" class="edge">
<title>Node2&#45;&gt;Node3</title>
<path fill="none" stroke="#191970" d="M957,-123.3906C972.3581,-113.5519 996.4521,-98.1167 1014.3745,-86.6351"/>
<polygon fill="#191970" stroke="#191970" points="1016.573,-89.3833 1023.1053,-81.0419 1012.797,-83.4891 1016.573,-89.3833"/>
</g>
<!-- Node2&#45;&gt;Node4 -->
<g id="edge4" class="edge">
<title>Node2&#45;&gt;Node4</title>
<path fill="none" stroke="#191970" d="M923.5625,-123.3906C904.1653,-113.2811 873.431,-97.2628 851.2383,-85.6962"/>
<polygon fill="#191970" stroke="#191970" points="852.7936,-82.56 842.308,-81.0419 849.5582,-88.7675 852.7936,-82.56"/>
</g>
<!-- Node5 -->
<g id="node6" class="node">
<title>Node5</title>
<polygon fill="none" stroke="#bfbfbf" points="888.5,-62 888.5,-81 995.5,-81 995.5,-62 888.5,-62"/>
<text text-anchor="middle" x="942" y="-69" font-family="Helvetica,sans-Serif" font-size="10.00" fill="#000000">boost/optional.hpp</text>
</g>
<!-- Node2&#45;&gt;Node5 -->
<g id="edge5" class="edge">
<title>Node2&#45;&gt;Node5</title>
<path fill="none" stroke="#191970" d="M942,-123.3906C942,-114.8657 942,-102.1392 942,-91.4235"/>
<polygon fill="#191970" stroke="#191970" points="945.5001,-91.2448 942,-81.2449 938.5001,-91.2449 945.5001,-91.2448"/>
</g>
<!-- Node7 -->
<g id="node8" class="node">
<title>Node7</title>
<polygon fill="none" stroke="#bfbfbf" points="62,-62 62,-81 122,-81 122,-62 62,-62"/>
<text text-anchor="middle" x="92" y="-69" font-family="Helvetica,sans-Serif" font-size="10.00" fill="#000000">iostream</text>
</g>
<!-- Node6&#45;&gt;Node7 -->
<g id="edge7" class="edge">
<title>Node6&#45;&gt;Node7</title>
<path fill="none" stroke="#191970" d="M349.431,-129.5155C302.994,-123.4446 208.5259,-109.3945 131,-87 128.5501,-86.2923 126.0411,-85.4884 123.5349,-84.6278"/>
<polygon fill="#191970" stroke="#191970" points="124.6075,-81.2929 114.0142,-81.1113 122.1821,-87.8593 124.6075,-81.2929"/>
</g>
<!-- Node8 -->
<g id="node9" class="node">
<title>Node8</title>
<polygon fill="none" stroke="#bfbfbf" points="140,-62 140,-81 198,-81 198,-62 140,-62"/>
<text text-anchor="middle" x="169" y="-69" font-family="Helvetica,sans-Serif" font-size="10.00" fill="#000000">memory</text>
</g>
<!-- Node6&#45;&gt;Node8 -->
<g id="edge8" class="edge">
<title>Node6&#45;&gt;Node8</title>
<path fill="none" stroke="#191970" d="M349.3139,-125.7555C316.0677,-117.197 259.7322,-102.1924 212,-87 209.5519,-86.2208 207.0353,-85.3908 204.5066,-84.5353"/>
<polygon fill="#191970" stroke="#191970" points="205.4085,-81.1433 194.8136,-81.1628 203.1082,-87.7546 205.4085,-81.1433"/>
</g>
<!-- Node9 -->
<g id="node10" class="node">
<title>Node9</title>
<polygon fill="none" stroke="#bfbfbf" points="293,-.5 293,-19.5 347,-19.5 347,-.5 293,-.5"/>
<text text-anchor="middle" x="320" y="-7.5" font-family="Helvetica,sans-Serif" font-size="10.00" fill="#000000">random</text>
</g>
<!-- Node6&#45;&gt;Node9 -->
<g id="edge9" class="edge">
<title>Node6&#45;&gt;Node9</title>
<path fill="none" stroke="#191970" d="M349.2956,-127.1259C314.0153,-119.2559 257.2962,-104.2637 245,-87 237.0069,-75.7778 238.2702,-68.0224 245,-56 253.3237,-41.1302 268.6362,-30.4846 283.2653,-23.2055"/>
<polygon fill="#191970" stroke="#191970" points="285.0569,-26.2351 292.6997,-18.8976 282.1494,-19.8675 285.0569,-26.2351"/>
</g>
<!-- Node10 -->
<g id="node11" class="node">
<title>Node10</title>
<polygon fill="none" stroke="#bfbfbf" points="254,-62 254,-81 310,-81 310,-62 254,-62"/>
<text text-anchor="middle" x="282" y="-69" font-family="Helvetica,sans-Serif" font-size="10.00" fill="#000000">sstream</text>
</g>
<!-- Node6&#45;&gt;Node10 -->
<g id="edge10" class="edge">
<title>Node6&#45;&gt;Node10</title>
<path fill="none" stroke="#191970" d="M363,-123.3906C347.6419,-113.5519 323.5479,-98.1167 305.6255,-86.6351"/>
<polygon fill="#191970" stroke="#191970" points="307.203,-83.4891 296.8947,-81.0419 303.427,-89.3833 307.203,-83.4891"/>
</g>
<!-- Node6&#45;&gt;Node11 -->
<g id="edge11" class="edge">
<title>Node6&#45;&gt;Node11</title>
<path fill="none" stroke="#191970" d="M349.3321,-130.1405C280.6486,-123.0974 108.2889,-104.2318 53,-87 51.3412,-86.483 49.6623,-85.8855 47.9888,-85.2321"/>
<polygon fill="#191970" stroke="#191970" points="49.2,-81.9398 38.6425,-81.052 46.3421,-88.3298 49.2,-81.9398"/>
</g>
<!-- Node12 -->
<g id="node13" class="node">
<title>Node12</title>
<polygon fill="none" stroke="#bfbfbf" points="328,-62 328,-81 376,-81 376,-62 328,-62"/>
<text text-anchor="middle" x="352" y="-69" font-family="Helvetica,sans-Serif" font-size="10.00" fill="#000000">thread</text>
</g>
<!-- Node6&#45;&gt;Node12 -->
<g id="edge12" class="edge">
<title>Node6&#45;&gt;Node12</title>
<path fill="none" stroke="#191970" d="M373.9375,-123.3906C370.2576,-114.6862 364.7258,-101.6015 360.138,-90.7494"/>
<polygon fill="#191970" stroke="#191970" points="363.2375,-89.0927 356.1198,-81.2449 356.79,-91.8185 363.2375,-89.0927"/>
</g>
<!-- Node13 -->
<g id="node14" class="node">
<title>Node13</title>
<polygon fill="none" stroke="#bfbfbf" points="414.5,-.5 414.5,-19.5 483.5,-19.5 483.5,-.5 414.5,-.5"/>
<text text-anchor="middle" x="449" y="-7.5" font-family="Helvetica,sans-Serif" font-size="10.00" fill="#000000">type_traits</text>
</g>
<!-- Node6&#45;&gt;Node13 -->
<g id="edge13" class="edge">
<title>Node6&#45;&gt;Node13</title>
<path fill="none" stroke="#191970" d="M383.5713,-123.3484C395.392,-102.8703 423.1502,-54.782 438.4388,-28.2962"/>
<polygon fill="#191970" stroke="#191970" points="441.4866,-30.0172 443.4546,-19.6068 435.4241,-26.5177 441.4866,-30.0172"/>
</g>
<!-- Node14 -->
<g id="node15" class="node">
<title>Node14</title>
<polygon fill="none" stroke="#bfbfbf" points="432,-56.5 432,-86.5 554,-86.5 554,-56.5 432,-56.5"/>
<text text-anchor="start" x="440" y="-74.5" font-family="Helvetica,sans-Serif" font-size="10.00" fill="#000000">boost/iterator/iterator</text>
<text text-anchor="middle" x="493" y="-63.5" font-family="Helvetica,sans-Serif" font-size="10.00" fill="#000000">_facade.hpp</text>
</g>
<!-- Node6&#45;&gt;Node14 -->
<g id="edge14" class="edge">
<title>Node6&#45;&gt;Node14</title>
<path fill="none" stroke="#191970" d="M395.9688,-123.3906C411.9649,-114.8361 435.8723,-102.0509 455.953,-91.3121"/>
<polygon fill="#191970" stroke="#191970" points="457.7002,-94.3469 464.8678,-86.5446 454.399,-88.1741 457.7002,-94.3469"/>
</g>
<!-- Node15 -->
<g id="node16" class="node">
<title>Node15</title>
<polygon fill="none" stroke="#bfbfbf" points="572.5,-62 572.5,-81 631.5,-81 631.5,-62 572.5,-62"/>
<text text-anchor="middle" x="602" y="-69" font-family="Helvetica,sans-Serif" font-size="10.00" fill="#000000">sqlite3.h</text>
</g>
<!-- Node6&#45;&gt;Node15 -->
<g id="edge15" class="edge">
<title>Node6&#45;&gt;Node15</title>
<path fill="none" stroke="#191970" d="M406.5406,-127.1545C443.1682,-119.3686 508.4906,-104.521 563,-87 565.2825,-86.2663 567.6226,-85.4652 569.9678,-84.626"/>
<polygon fill="#191970" stroke="#191970" points="571.3762,-87.8357 579.5025,-81.0377 568.9106,-81.2843 571.3762,-87.8357"/>
</g>
<!-- Node16 -->
<g id="node17" class="node">
<title>Node16</title>
<polygon fill="none" stroke="#bfbfbf" points="649.5,-62 649.5,-81 694.5,-81 694.5,-62 649.5,-62"/>
<text text-anchor="middle" x="672" y="-69" font-family="Helvetica,sans-Serif" font-size="10.00" fill="#000000">utility</text>
</g>
<!-- Node6&#45;&gt;Node16 -->
<g id="edge16" class="edge">
<title>Node6&#45;&gt;Node16</title>
<path fill="none" stroke="#191970" d="M406.5384,-130.599C455.3559,-125.9201 557.6011,-113.6161 640,-87 641.6558,-86.4652 643.3349,-85.8602 645.0121,-85.207"/>
<polygon fill="#191970" stroke="#191970" points="646.6624,-88.3054 654.422,-81.0915 643.8574,-81.8919 646.6624,-88.3054"/>
</g>
<!-- Node17 -->
<g id="node18" class="node">
<title>Node17</title>
<g id="a_node18"><a xlink:href="utils_8h.html" target="_top" xlink:title="utils.h">
<polygon fill="none" stroke="#000000" points="712.5,-62 712.5,-81 759.5,-81 759.5,-62 712.5,-62"/>
<text text-anchor="middle" x="736" y="-69" font-family="Helvetica,sans-Serif" font-size="10.00" fill="#000000">utils.h</text>
</a>
</g>
</g>
<!-- Node6&#45;&gt;Node17 -->
<g id="edge17" class="edge">
<title>Node6&#45;&gt;Node17</title>
<path fill="none" stroke="#191970" d="M406.8681,-131.7961C464.3632,-128.7741 596.7859,-118.6793 703,-87 704.9107,-86.4301 706.8508,-85.7658 708.7841,-85.0389"/>
<polygon fill="#191970" stroke="#191970" points="710.3898,-88.1597 718.2274,-81.0307 707.6547,-81.7161 710.3898,-88.1597"/>
</g>
<!-- Node17&#45;&gt;Node9 -->
<g id="edge21" class="edge">
<title>Node17&#45;&gt;Node9</title>
<path fill="none" stroke="#191970" d="M718.2487,-61.8965C713.4207,-59.6386 708.1108,-57.4659 703,-56 698.8505,-54.8098 452.7422,-25.6741 357.2772,-14.3988"/>
<polygon fill="#191970" stroke="#191970" points="357.5383,-10.9054 347.1968,-13.2085 356.7173,-17.8571 357.5383,-10.9054"/>
</g>
<!-- Node17&#45;&gt;Node13 -->
<g id="edge22" class="edge">
<title>Node17&#45;&gt;Node13</title>
<path fill="none" stroke="#191970" d="M717.8408,-61.9406C713.1069,-59.7369 707.9443,-57.5791 703,-56 631.7095,-33.2315 545.3441,-20.5937 493.9074,-14.5581"/>
<polygon fill="#191970" stroke="#191970" points="494.1225,-11.06 483.7901,-13.4036 493.3287,-18.0149 494.1225,-11.06"/>
</g>
<!-- Node18 -->
<g id="node19" class="node">
<title>Node18</title>
<polygon fill="none" stroke="#bfbfbf" points="821,-.5 821,-19.5 885,-19.5 885,-.5 821,-.5"/>
<text text-anchor="middle" x="853" y="-7.5" font-family="Helvetica,sans-Serif" font-size="10.00" fill="#000000">algorithm</text>
</g>
<!-- Node17&#45;&gt;Node18 -->
<g id="edge18" class="edge">
<title>Node17&#45;&gt;Node18</title>
<path fill="none" stroke="#191970" d="M754.2813,-61.8906C773.5141,-51.7811 803.9879,-35.7628 825.9925,-24.1962"/>
<polygon fill="#191970" stroke="#191970" points="827.624,-27.2928 834.8471,-19.5419 824.367,-21.0967 827.624,-27.2928"/>
</g>
<!-- Node19 -->
<g id="node20" class="node">
<title>Node19</title>
<polygon fill="none" stroke="#bfbfbf" points="586.5,-.5 586.5,-19.5 645.5,-19.5 645.5,-.5 586.5,-.5"/>
<text text-anchor="middle" x="616" y="-7.5" font-family="Helvetica,sans-Serif" font-size="10.00" fill="#000000">complex</text>
</g>
<!-- Node17&#45;&gt;Node19 -->
<g id="edge19" class="edge">
<title>Node17&#45;&gt;Node19</title>
<path fill="none" stroke="#191970" d="M717.25,-61.8906C697.524,-51.7811 666.2688,-35.7628 643.7,-24.1962"/>
<polygon fill="#191970" stroke="#191970" points="645.114,-20.9881 634.6183,-19.5419 641.9213,-27.2176 645.114,-20.9881"/>
</g>
<!-- Node20 -->
<g id="node21" class="node">
<title>Node20</title>
<polygon fill="none" stroke="#bfbfbf" points="663.5,-.5 663.5,-19.5 728.5,-19.5 728.5,-.5 663.5,-.5"/>
<text text-anchor="middle" x="696" y="-7.5" font-family="Helvetica,sans-Serif" font-size="10.00" fill="#000000">functional</text>
</g>
<!-- Node17&#45;&gt;Node20 -->
<g id="edge20" class="edge">
<title>Node17&#45;&gt;Node20</title>
<path fill="none" stroke="#191970" d="M729.75,-61.8906C723.9135,-52.917 715.0491,-39.2879 707.8694,-28.2491"/>
<polygon fill="#191970" stroke="#191970" points="710.7245,-26.2194 702.3381,-19.7449 704.8564,-30.0361 710.7245,-26.2194"/>
</g>
<!-- Node21 -->
<g id="node22" class="node">
<title>Node21</title>
<polygon fill="none" stroke="#bfbfbf" points="747,-.5 747,-19.5 803,-19.5 803,-.5 747,-.5"/>
<text text-anchor="middle" x="775" y="-7.5" font-family="Helvetica,sans-Serif" font-size="10.00" fill="#000000">unistd.h</text>
</g>
<!-- Node17&#45;&gt;Node21 -->
<g id="edge23" class="edge">
<title>Node17&#45;&gt;Node21</title>
<path fill="none" stroke="#191970" d="M742.0938,-61.8906C747.7843,-52.917 756.4272,-39.2879 763.4274,-28.2491"/>
<polygon fill="#191970" stroke="#191970" points="766.4207,-30.0644 768.8203,-19.7449 760.5091,-26.3155 766.4207,-30.0644"/>
</g>
<!-- Node23 -->
<g id="node24" class="node">
<title>Node23</title>
<polygon fill="none" stroke="#bfbfbf" points="1080.5,-62 1080.5,-81 1157.5,-81 1157.5,-62 1080.5,-62"/>
<text text-anchor="middle" x="1119" y="-69" font-family="Helvetica,sans-Serif" font-size="10.00" fill="#000000">Eigen/Dense</text>
</g>
<!-- Node22&#45;&gt;Node23 -->
<g id="edge25" class="edge">
<title>Node22&#45;&gt;Node23</title>
<path fill="none" stroke="#191970" d="M1233.75,-123.3906C1211.0945,-113.1457 1175.0202,-96.8326 1149.3709,-85.2339"/>
<polygon fill="#191970" stroke="#191970" points="1150.6546,-81.9732 1140.1008,-81.0419 1147.7703,-88.3514 1150.6546,-81.9732"/>
</g>
<!-- Node24 -->
<g id="node25" class="node">
<title>Node24</title>
<polygon fill="none" stroke="#bfbfbf" points="1176,-62 1176,-81 1256,-81 1256,-62 1176,-62"/>
<text text-anchor="middle" x="1216" y="-69" font-family="Helvetica,sans-Serif" font-size="10.00" fill="#000000">Eigen/Sparse</text>
</g>
<!-- Node22&#45;&gt;Node24 -->
<g id="edge26" class="edge">
<title>Node22&#45;&gt;Node24</title>
<path fill="none" stroke="#191970" d="M1248.9063,-123.3906C1243.2157,-114.417 1234.5728,-100.7879 1227.5726,-89.7491"/>
<polygon fill="#191970" stroke="#191970" points="1230.4909,-87.8155 1222.1797,-81.2449 1224.5793,-91.5644 1230.4909,-87.8155"/>
</g>
<!-- Node25 -->
<g id="node26" class="node">
<title>Node25</title>
<polygon fill="none" stroke="#bfbfbf" points="1274,-62 1274,-81 1316,-81 1316,-62 1274,-62"/>
<text text-anchor="middle" x="1295" y="-69" font-family="Helvetica,sans-Serif" font-size="10.00" fill="#000000">array</text>
</g>
<!-- Node22&#45;&gt;Node25 -->
<g id="edge27" class="edge">
<title>Node22&#45;&gt;Node25</title>
<path fill="none" stroke="#191970" d="M1261.25,-123.3906C1267.0865,-114.417 1275.9509,-100.7879 1283.1306,-89.7491"/>
<polygon fill="#191970" stroke="#191970" points="1286.1436,-91.5361 1288.6619,-81.2449 1280.2755,-87.7194 1286.1436,-91.5361"/>
</g>
<!-- Node26 -->
<g id="node27" class="node">
<title>Node26</title>
<polygon fill="none" stroke="#bfbfbf" points="1334.5,-62 1334.5,-81 1381.5,-81 1381.5,-62 1334.5,-62"/>
<text text-anchor="middle" x="1358" y="-69" font-family="Helvetica,sans-Serif" font-size="10.00" fill="#000000">cmath</text>
</g>
<!-- Node22&#45;&gt;Node26 -->
<g id="edge28" class="edge">
<title>Node22&#45;&gt;Node26</title>
<path fill="none" stroke="#191970" d="M1271.0938,-123.3906C1287.7228,-113.4616 1313.8976,-97.833 1333.1794,-86.3201"/>
<polygon fill="#191970" stroke="#191970" points="1335.2276,-89.1736 1342.0193,-81.0419 1331.639,-83.1634 1335.2276,-89.1736"/>
</g>
<!-- Node27 -->
<g id="node28" class="node">
<title>Node27</title>
<polygon fill="none" stroke="#bfbfbf" points="1399.5,-56.5 1399.5,-86.5 1542.5,-86.5 1542.5,-56.5 1399.5,-56.5"/>
<text text-anchor="start" x="1407.5" y="-74.5" font-family="Helvetica,sans-Serif" font-size="10.00" fill="#000000">unsupported/Eigen/CXX11</text>
<text text-anchor="middle" x="1471" y="-63.5" font-family="Helvetica,sans-Serif" font-size="10.00" fill="#000000">/Tensor</text>
</g>
<!-- Node22&#45;&gt;Node27 -->
<g id="edge29" class="edge">
<title>Node22&#45;&gt;Node27</title>
<path fill="none" stroke="#191970" d="M1284.581,-124.5776C1316.2828,-115.5514 1367.543,-100.9565 1408.2951,-89.3535"/>
<polygon fill="#191970" stroke="#191970" points="1409.485,-92.6539 1418.1443,-86.5492 1407.568,-85.9214 1409.485,-92.6539"/>
</g>
<!-- Node22&#45;&gt;Node28 -->
<g id="edge30" class="edge">
<title>Node22&#45;&gt;Node28</title>
<path fill="none" stroke="#191970" d="M1284.7536,-125.8898C1289.5052,-124.8549 1294.3778,-123.8526 1299,-123 1410.6928,-102.3971 1443.3691,-120.1525 1552,-87 1553.8598,-86.4324 1555.7464,-85.7698 1557.6251,-85.0442"/>
<polygon fill="#191970" stroke="#191970" points="1559.0293,-88.2502 1566.7913,-81.039 1556.2265,-81.8359 1559.0293,-88.2502"/>
</g>
</g>
</svg>
