<?xml version="1.0" encoding="UTF-8" standalone="no"?>
<!DOCTYPE svg PUBLIC "-//W3C//DTD SVG 1.1//EN"
 "http://www.w3.org/Graphics/SVG/1.1/DTD/svg11.dtd">
<!-- Generated by graphviz version 2.40.1 (20161225.0304)
 -->
<!-- Title: /travis/pairinteraction/Wavefunction.cpp Pages: 1 -->
<!--zoomable 330 -->
<svg id="main" version="1.1" xmlns="http://www.w3.org/2000/svg" xmlns:xlink="http://www.w3.org/1999/xlink" xml:space="preserve" onload="init(evt)">
<style type="text/css"><![CDATA[
.edge:hover path { stroke: red; }
.edge:hover polygon { stroke: red; fill: red; }
]]></style>
<script type="text/javascript"><![CDATA[
var edges = document.getElementsByTagName('g');
if (edges && edges.length) {
  for (var i=0;i<edges.length;i++) {
    if (edges[i].id.substr(0,4)=='edge') {
      edges[i].setAttribute('class','edge');
    }
  }
}
]]></script>
        <defs>
                <circle id="rim" cx="0" cy="0" r="7"/>
                <circle id="rim2" cx="0" cy="0" r="3.5"/>
                <g id="zoomPlus">
                        <use xlink:href="#rim" fill="#404040">
                                <set attributeName="fill" to="#808080" begin="zoomplus.mouseover" end="zoomplus.mouseout"/>
                        </use>
                        <path d="M-4,0h8M0,-4v8" fill="none" stroke="white" stroke-width="1.5" pointer-events="none"/>
                </g>
                <g id="zoomMin">
                        <use xlink:href="#rim" fill="#404040">
                                <set attributeName="fill" to="#808080" begin="zoomminus.mouseover" end="zoomminus.mouseout"/>
                        </use>
                        <path d="M-4,0h8" fill="none" stroke="white" stroke-width="1.5" pointer-events="none"/>
                </g>
                <g id="dirArrow">
                        <path fill="none" stroke="white" stroke-width="1.5" d="M0,-3.0v7 M-2.5,-0.5L0,-3.0L2.5,-0.5"/>
                </g>
               <g id="resetDef">
                       <use xlink:href="#rim2" fill="#404040">
                               <set attributeName="fill" to="#808080" begin="reset.mouseover" end="reset.mouseout"/>
                       </use>
               </g>
        </defs>

<script type="text/javascript">
var viewWidth = 1695;
var viewHeight = 330;
var sectionId = 'dynsection-0';
</script>
<script xlink:href="svgpan.js"/>
<svg id="graph" class="graph">
<g id="viewport">
<title>/travis/pairinteraction/Wavefunction.cpp</title>
<!-- Node0 -->
<g id="node1" class="node">
<title>Node0</title>
<polygon fill="#bfbfbf" stroke="#000000" points="1329,-291.5 1329,-321.5 1451,-321.5 1451,-291.5 1329,-291.5"/>
<text text-anchor="start" x="1337" y="-309.5" font-family="Helvetica,sans-Serif" font-size="10.00" fill="#000000">/travis/pairinteraction</text>
<text text-anchor="middle" x="1390" y="-298.5" font-family="Helvetica,sans-Serif" font-size="10.00" fill="#000000">/Wavefunction.cpp</text>
</g>
<!-- Node1 -->
<g id="node2" class="node">
<title>Node1</title>
<g id="a_node2"><a xlink:href="Wavefunction_8h.html" target="_top" xlink:title="Wavefunction.h">
<polygon fill="none" stroke="#000000" points="1192.5,-235.5 1192.5,-254.5 1285.5,-254.5 1285.5,-235.5 1192.5,-235.5"/>
<text text-anchor="middle" x="1239" y="-242.5" font-family="Helvetica,sans-Serif" font-size="10.00" fill="#000000">Wavefunction.h</text>
</a>
</g>
</g>
<!-- Node0&#45;&gt;Node1 -->
<g id="edge1" class="edge">
<title>Node0&#45;&gt;Node1</title>
<path fill="none" stroke="#191970" d="M1353.0612,-291.4554C1328.198,-281.329 1295.7082,-268.0964 1271.7664,-258.3453"/>
<polygon fill="#191970" stroke="#191970" points="1272.9812,-255.0609 1262.3996,-254.5303 1270.3407,-261.5438 1272.9812,-255.0609"/>
</g>
<!-- Node2 -->
<g id="node3" class="node">
<title>Node2</title>
<g id="a_node3"><a xlink:href="QuantumDefect_8h.html" target="_top" xlink:title="QuantumDefect.h">
<polygon fill="none" stroke="#000000" points="547.5,-179.5 547.5,-198.5 650.5,-198.5 650.5,-179.5 547.5,-179.5"/>
<text text-anchor="middle" x="599" y="-186.5" font-family="Helvetica,sans-Serif" font-size="10.00" fill="#000000">QuantumDefect.h</text>
</a>
</g>
</g>
<!-- Node0&#45;&gt;Node2 -->
<g id="edge42" class="edge">
<title>Node0&#45;&gt;Node2</title>
<path fill="none" stroke="#191970" d="M1328.8423,-297.5078C1259.16,-287.2546 1141.87,-269.9734 1041,-255 905.3036,-234.8569 746.2037,-211.0544 660.76,-198.2563"/>
<polygon fill="#191970" stroke="#191970" points="661.1198,-194.7712 650.7117,-196.7511 660.0828,-201.694 661.1198,-194.7712"/>
</g>
<!-- Node12 -->
<g id="node13" class="node">
<title>Node12</title>
<polygon fill="none" stroke="#bfbfbf" points="1020,-62 1020,-81 1064,-81 1064,-62 1020,-62"/>
<text text-anchor="middle" x="1042" y="-69" font-family="Helvetica,sans-Serif" font-size="10.00" fill="#000000">string</text>
</g>
<!-- Node0&#45;&gt;Node12 -->
<g id="edge46" class="edge">
<title>Node0&#45;&gt;Node12</title>
<path fill="none" stroke="#191970" d="M1328.7647,-295.7842C1277.0326,-285.9058 1207.6883,-270.4723 1184,-255 1118.3377,-212.1119 1070.4182,-128.322 1051.233,-90.6509"/>
<polygon fill="#191970" stroke="#191970" points="1054.1798,-88.7162 1046.5929,-81.321 1047.9121,-91.8334 1054.1798,-88.7162"/>
</g>
<!-- Node27 -->
<g id="node28" class="node">
<title>Node27</title>
<polygon fill="none" stroke="#bfbfbf" points="1561.5,-62 1561.5,-81 1608.5,-81 1608.5,-62 1561.5,-62"/>
<text text-anchor="middle" x="1585" y="-69" font-family="Helvetica,sans-Serif" font-size="10.00" fill="#000000">cmath</text>
</g>
<!-- Node0&#45;&gt;Node27 -->
<g id="edge45" class="edge">
<title>Node0&#45;&gt;Node27</title>
<path fill="none" stroke="#191970" d="M1402.151,-291.3785C1413.8386,-276.8677 1432.0364,-254.3623 1448,-235 1492.1696,-181.4264 1545.1268,-118.6256 1570.3071,-88.8501"/>
<polygon fill="#191970" stroke="#191970" points="1573.1293,-90.9333 1576.9168,-81.0385 1567.7856,-86.4117 1573.1293,-90.9333"/>
</g>
<!-- Node29 -->
<g id="node30" class="node">
<title>Node29</title>
<polygon fill="none" stroke="#bfbfbf" points="1496.5,-62 1496.5,-81 1543.5,-81 1543.5,-62 1496.5,-62"/>
<text text-anchor="middle" x="1520" y="-69" font-family="Helvetica,sans-Serif" font-size="10.00" fill="#000000">vector</text>
</g>
<!-- Node0&#45;&gt;Node29 -->
<g id="edge47" class="edge">
<title>Node0&#45;&gt;Node29</title>
<path fill="none" stroke="#191970" d="M1387.5509,-291.4839C1382.9189,-257.8096 1376.4397,-175.1374 1414,-123 1414.1566,-122.7826 1459.5719,-100.7614 1490.8982,-85.5886"/>
<polygon fill="#191970" stroke="#191970" points="1492.6274,-88.6401 1500.1021,-81.1314 1489.5764,-82.3399 1492.6274,-88.6401"/>
</g>
<!-- Node34 -->
<g id="node35" class="node">
<title>Node34</title>
<polygon fill="none" stroke="#bfbfbf" points="1456.5,-235.5 1456.5,-254.5 1619.5,-254.5 1619.5,-235.5 1456.5,-235.5"/>
<text text-anchor="middle" x="1538" y="-242.5" font-family="Helvetica,sans-Serif" font-size="10.00" fill="#000000">boost/core/ignore_unused.hpp</text>
</g>
<!-- Node0&#45;&gt;Node34 -->
<g id="edge43" class="edge">
<title>Node0&#45;&gt;Node34</title>
<path fill="none" stroke="#191970" d="M1426.2049,-291.4554C1450.4658,-281.374 1482.1356,-268.2139 1505.5712,-258.4755"/>
<polygon fill="#191970" stroke="#191970" points="1507.1739,-261.5997 1515.0653,-254.5303 1504.4877,-255.1356 1507.1739,-261.5997"/>
</g>
<!-- Node35 -->
<g id="node36" class="node">
<title>Node35</title>
<polygon fill="none" stroke="#bfbfbf" points="1637.5,-235.5 1637.5,-254.5 1686.5,-254.5 1686.5,-235.5 1637.5,-235.5"/>
<text text-anchor="middle" x="1662" y="-242.5" font-family="Helvetica,sans-Serif" font-size="10.00" fill="#000000">cctype</text>
</g>
<!-- Node0&#45;&gt;Node35 -->
<g id="edge44" class="edge">
<title>Node0&#45;&gt;Node35</title>
<path fill="none" stroke="#191970" d="M1451.2289,-294.7455C1497.3394,-285.5646 1562.2882,-271.9368 1627.2013,-255.3347"/>
<polygon fill="#191970" stroke="#191970" points="1628.3878,-258.6433 1637.1954,-252.7546 1626.6379,-251.8655 1628.3878,-258.6433"/>
</g>
<!-- Node1&#45;&gt;Node2 -->
<g id="edge2" class="edge">
<title>Node1&#45;&gt;Node2</title>
<path fill="none" stroke="#191970" d="M1192.4573,-240.9275C1079.0321,-231.0028 788.3118,-205.5648 660.6647,-194.3957"/>
<polygon fill="#191970" stroke="#191970" points="660.9267,-190.9053 650.6597,-193.5202 660.3165,-197.8787 660.9267,-190.9053"/>
</g>
<!-- Node1&#45;&gt;Node12 -->
<g id="edge40" class="edge">
<title>Node1&#45;&gt;Node12</title>
<path fill="none" stroke="#191970" d="M1228.1278,-235.4248C1195.9806,-207.1124 1101.1031,-123.5528 1060.6328,-87.9101"/>
<polygon fill="#191970" stroke="#191970" points="1062.8992,-85.2423 1053.0814,-81.2595 1058.2727,-90.4954 1062.8992,-85.2423"/>
</g>
<!-- Node23 -->
<g id="node24" class="node">
<title>Node23</title>
<g id="a_node24"><a xlink:href="dtypes_8h.html" target="_top" xlink:title="dtypes.h">
<polygon fill="none" stroke="#000000" points="1217.5,-123.5 1217.5,-142.5 1276.5,-142.5 1276.5,-123.5 1217.5,-123.5"/>
<text text-anchor="middle" x="1247" y="-130.5" font-family="Helvetica,sans-Serif" font-size="10.00" fill="#000000">dtypes.h</text>
</a>
</g>
</g>
<!-- Node1&#45;&gt;Node23 -->
<g id="edge37" class="edge">
<title>Node1&#45;&gt;Node23</title>
<path fill="none" stroke="#191970" d="M1228.8648,-235.4112C1216.8111,-222.7856 1199.2387,-199.7536 1207,-179 1211.1149,-167.9969 1219.1815,-157.8874 1226.9994,-149.9652"/>
<polygon fill="#191970" stroke="#191970" points="1229.7032,-152.2264 1234.5788,-142.82 1224.9015,-147.1329 1229.7032,-152.2264"/>
</g>
<!-- Node1&#45;&gt;Node29 -->
<g id="edge41" class="edge">
<title>Node1&#45;&gt;Node29</title>
<path fill="none" stroke="#191970" d="M1269.3058,-235.4851C1289.2342,-228.0408 1314.8811,-216.0668 1333,-199 1361.2503,-172.39 1345.9073,-147.5072 1376,-123 1416.5423,-89.9827 1439.4639,-106.4441 1488,-87 1489.3609,-86.4548 1490.7448,-85.8773 1492.1355,-85.2783"/>
<polygon fill="#191970" stroke="#191970" points="1493.5983,-88.4581 1501.2455,-81.1252 1490.6946,-82.0887 1493.5983,-88.4581"/>
</g>
<!-- Node32 -->
<g id="node33" class="node">
<title>Node32</title>
<polygon fill="none" stroke="#bfbfbf" points="1216,-179.5 1216,-198.5 1262,-198.5 1262,-179.5 1216,-179.5"/>
<text text-anchor="middle" x="1239" y="-186.5" font-family="Helvetica,sans-Serif" font-size="10.00" fill="#000000">cstdio</text>
</g>
<!-- Node1&#45;&gt;Node32 -->
<g id="edge38" class="edge">
<title>Node1&#45;&gt;Node32</title>
<path fill="none" stroke="#191970" d="M1239,-235.2455C1239,-227.9382 1239,-217.6944 1239,-208.7046"/>
<polygon fill="#191970" stroke="#191970" points="1242.5001,-208.6426 1239,-198.6427 1235.5001,-208.6427 1242.5001,-208.6426"/>
</g>
<!-- Node33 -->
<g id="node34" class="node">
<title>Node33</title>
<polygon fill="none" stroke="#bfbfbf" points="1280,-179.5 1280,-198.5 1324,-198.5 1324,-179.5 1280,-179.5"/>
<text text-anchor="middle" x="1302" y="-186.5" font-family="Helvetica,sans-Serif" font-size="10.00" fill="#000000">limits</text>
</g>
<!-- Node1&#45;&gt;Node33 -->
<g id="edge39" class="edge">
<title>Node1&#45;&gt;Node33</title>
<path fill="none" stroke="#191970" d="M1249.9738,-235.2455C1259.1882,-227.0549 1272.5532,-215.1749 1283.4297,-205.5069"/>
<polygon fill="#191970" stroke="#191970" points="1286.0032,-207.9023 1291.152,-198.6427 1281.3526,-202.6704 1286.0032,-207.9023"/>
</g>
<!-- Node3 -->
<g id="node4" class="node">
<title>Node3</title>
<g id="a_node4"><a xlink:href="Cache_8h.html" target="_top" xlink:title="Cache.h">
<polygon fill="none" stroke="#000000" points="210,-123.5 210,-142.5 266,-142.5 266,-123.5 210,-123.5"/>
<text text-anchor="middle" x="238" y="-130.5" font-family="Helvetica,sans-Serif" font-size="10.00" fill="#000000">Cache.h</text>
</a>
</g>
</g>
<!-- Node2&#45;&gt;Node3 -->
<g id="edge3" class="edge">
<title>Node2&#45;&gt;Node3</title>
<path fill="none" stroke="#191970" d="M547.2775,-180.9766C473.9598,-169.6032 341.4933,-149.0544 276.322,-138.9447"/>
<polygon fill="#191970" stroke="#191970" points="276.5036,-135.4311 266.0852,-137.3567 275.4305,-142.3483 276.5036,-135.4311"/>
</g>
<!-- Node4 -->
<g id="node5" class="node">
<title>Node4</title>
<polygon fill="none" stroke="#bfbfbf" points="0,-62 0,-81 48,-81 48,-62 0,-62"/>
<text text-anchor="middle" x="24" y="-69" font-family="Helvetica,sans-Serif" font-size="10.00" fill="#000000">mutex</text>
</g>
<!-- Node2&#45;&gt;Node4 -->
<g id="edge32" class="edge">
<title>Node2&#45;&gt;Node4</title>
<path fill="none" stroke="#191970" d="M547.1544,-186.6973C443.6838,-181.6279 215.1381,-167.925 141,-143 103.7499,-130.4766 65.8876,-104.3716 43.6934,-87.4095"/>
<polygon fill="#191970" stroke="#191970" points="45.7589,-84.5818 35.7213,-81.1911 41.4536,-90.1013 45.7589,-84.5818"/>
</g>
<!-- Node5 -->
<g id="node6" class="node">
<title>Node5</title>
<polygon fill="none" stroke="#bfbfbf" points="191.5,-62 191.5,-81 284.5,-81 284.5,-62 191.5,-62"/>
<text text-anchor="middle" x="238" y="-69" font-family="Helvetica,sans-Serif" font-size="10.00" fill="#000000">unordered_map</text>
</g>
<!-- Node2&#45;&gt;Node5 -->
<g id="edge35" class="edge">
<title>Node2&#45;&gt;Node5</title>
<path fill="none" stroke="#191970" d="M594.9099,-179.4565C588.013,-164.6382 572.577,-136.4089 550,-123 451.2123,-64.3283 406.4945,-110.3744 294,-87 289.3085,-86.0252 284.4301,-84.8785 279.5955,-83.6573"/>
<polygon fill="#191970" stroke="#191970" points="280.3696,-80.2418 269.8077,-81.077 278.5852,-87.0106 280.3696,-80.2418"/>
</g>
<!-- Node7 -->
<g id="node8" class="node">
<title>Node7</title>
<g id="a_node8"><a xlink:href="SQLite_8h.html" target="_top" xlink:title="SQLite.h">
<polygon fill="none" stroke="#000000" points="598.5,-123.5 598.5,-142.5 655.5,-142.5 655.5,-123.5 598.5,-123.5"/>
<text text-anchor="middle" x="627" y="-130.5" font-family="Helvetica,sans-Serif" font-size="10.00" fill="#000000">SQLite.h</text>
</a>
</g>
</g>
<!-- Node2&#45;&gt;Node7 -->
<g id="edge7" class="edge">
<title>Node2&#45;&gt;Node7</title>
<path fill="none" stroke="#191970" d="M603.8772,-179.2455C607.6513,-171.6973 612.9921,-161.0158 617.5901,-151.8197"/>
<polygon fill="#191970" stroke="#191970" points="620.837,-153.1522 622.1787,-142.6427 614.576,-150.0217 620.837,-153.1522"/>
</g>
<!-- Node2&#45;&gt;Node12 -->
<g id="edge33" class="edge">
<title>Node2&#45;&gt;Node12</title>
<path fill="none" stroke="#191970" d="M650.5056,-180.0464C729.5881,-165.4585 884.9936,-133.4492 1011,-87 1012.4115,-86.4797 1013.8429,-85.9132 1015.2769,-85.3145"/>
<polygon fill="#191970" stroke="#191970" points="1016.9619,-88.3924 1024.5944,-81.0442 1014.0454,-82.0289 1016.9619,-88.3924"/>
</g>
<!-- Node2&#45;&gt;Node23 -->
<g id="edge25" class="edge">
<title>Node2&#45;&gt;Node23</title>
<path fill="none" stroke="#191970" d="M650.6608,-184.5355C776.1433,-173.6913 1094.9143,-146.1432 1207.1557,-136.4433"/>
<polygon fill="#191970" stroke="#191970" points="1207.6981,-139.9096 1217.3596,-135.5615 1207.0954,-132.9356 1207.6981,-139.9096"/>
</g>
<!-- Node30 -->
<g id="node31" class="node">
<title>Node30</title>
<polygon fill="none" stroke="#bfbfbf" points="150.5,-123.5 150.5,-142.5 191.5,-142.5 191.5,-123.5 150.5,-123.5"/>
<text text-anchor="middle" x="171" y="-130.5" font-family="Helvetica,sans-Serif" font-size="10.00" fill="#000000">tuple</text>
</g>
<!-- Node2&#45;&gt;Node30 -->
<g id="edge34" class="edge">
<title>Node2&#45;&gt;Node30</title>
<path fill="none" stroke="#191970" d="M547.2308,-186.4365C472.689,-181.9975 330.8352,-170.7566 201.8769,-142.7752"/>
<polygon fill="#191970" stroke="#191970" points="202.3454,-139.2944 191.8257,-140.554 200.8349,-146.1295 202.3454,-139.2944"/>
</g>
<!-- Node31 -->
<g id="node32" class="node">
<title>Node31</title>
<polygon fill="none" stroke="#bfbfbf" points="398.5,-123.5 398.5,-142.5 541.5,-142.5 541.5,-123.5 398.5,-123.5"/>
<text text-anchor="middle" x="470" y="-130.5" font-family="Helvetica,sans-Serif" font-size="10.00" fill="#000000">boost/functional/hash.hpp</text>
</g>
<!-- Node2&#45;&gt;Node31 -->
<g id="edge36" class="edge">
<title>Node2&#45;&gt;Node31</title>
<path fill="none" stroke="#191970" d="M576.8241,-179.3733C556.0234,-170.3435 524.7083,-156.7494 501.3542,-146.6111"/>
<polygon fill="#191970" stroke="#191970" points="502.4532,-143.2727 491.8865,-142.5011 499.6657,-149.6938 502.4532,-143.2727"/>
</g>
<!-- Node3&#45;&gt;Node4 -->
<g id="edge4" class="edge">
<title>Node3&#45;&gt;Node4</title>
<path fill="none" stroke="#191970" d="M209.7871,-125.5397C206.4889,-124.6782 203.1711,-123.8164 200,-123 136.531,-106.6602 118.7239,-109.0334 57,-87 55.4016,-86.4294 53.7761,-85.8084 52.1466,-85.1536"/>
<polygon fill="#191970" stroke="#191970" points="53.4989,-81.9252 42.9323,-81.1527 50.7109,-88.346 53.4989,-81.9252"/>
</g>
<!-- Node3&#45;&gt;Node5 -->
<g id="edge5" class="edge">
<title>Node3&#45;&gt;Node5</title>
<path fill="none" stroke="#191970" d="M238,-123.3906C238,-114.8657 238,-102.1392 238,-91.4235"/>
<polygon fill="#191970" stroke="#191970" points="241.5001,-91.2448 238,-81.2449 234.5001,-91.2449 241.5001,-91.2448"/>
</g>
<!-- Node6 -->
<g id="node7" class="node">
<title>Node6</title>
<polygon fill="none" stroke="#bfbfbf" points="66.5,-62 66.5,-81 173.5,-81 173.5,-62 66.5,-62"/>
<text text-anchor="middle" x="120" y="-69" font-family="Helvetica,sans-Serif" font-size="10.00" fill="#000000">boost/optional.hpp</text>
</g>
<!-- Node3&#45;&gt;Node6 -->
<g id="edge6" class="edge">
<title>Node3&#45;&gt;Node6</title>
<path fill="none" stroke="#191970" d="M219.5625,-123.3906C200.1653,-113.2811 169.431,-97.2628 147.2383,-85.6962"/>
<polygon fill="#191970" stroke="#191970" points="148.7936,-82.56 138.308,-81.0419 145.5582,-88.7675 148.7936,-82.56"/>
</g>
<!-- Node8 -->
<g id="node9" class="node">
<title>Node8</title>
<polygon fill="none" stroke="#bfbfbf" points="303,-62 303,-81 363,-81 363,-62 303,-62"/>
<text text-anchor="middle" x="333" y="-69" font-family="Helvetica,sans-Serif" font-size="10.00" fill="#000000">iostream</text>
</g>
<!-- Node7&#45;&gt;Node8 -->
<g id="edge8" class="edge">
<title>Node7&#45;&gt;Node8</title>
<path fill="none" stroke="#191970" d="M598.3712,-126.0888C593.5832,-125.0058 588.6588,-123.9364 584,-123 490.3028,-104.1674 464.0253,-112.7911 372,-87 369.3932,-86.2694 366.7216,-85.4244 364.0588,-84.5135"/>
<polygon fill="#191970" stroke="#191970" points="365.1794,-81.1964 354.5862,-81.0134 362.7532,-87.7625 365.1794,-81.1964"/>
</g>
<!-- Node9 -->
<g id="node10" class="node">
<title>Node9</title>
<polygon fill="none" stroke="#bfbfbf" points="381,-62 381,-81 439,-81 439,-62 381,-62"/>
<text text-anchor="middle" x="410" y="-69" font-family="Helvetica,sans-Serif" font-size="10.00" fill="#000000">memory</text>
</g>
<!-- Node7&#45;&gt;Node9 -->
<g id="edge9" class="edge">
<title>Node7&#45;&gt;Node9</title>
<path fill="none" stroke="#191970" d="M598.4524,-126.2666C563.8019,-117.9072 503.7112,-102.8097 453,-87 450.3911,-86.1866 447.7059,-85.3116 445.0123,-84.4062"/>
<polygon fill="#191970" stroke="#191970" points="445.9361,-81.0222 435.3413,-81.0506 443.6414,-87.6354 445.9361,-81.0222"/>
</g>
<!-- Node10 -->
<g id="node11" class="node">
<title>Node10</title>
<polygon fill="none" stroke="#bfbfbf" points="381,-.5 381,-19.5 435,-19.5 435,-.5 381,-.5"/>
<text text-anchor="middle" x="408" y="-7.5" font-family="Helvetica,sans-Serif" font-size="10.00" fill="#000000">random</text>
</g>
<!-- Node7&#45;&gt;Node10 -->
<g id="edge10" class="edge">
<title>Node7&#45;&gt;Node10</title>
<path fill="none" stroke="#191970" d="M598.2619,-125.7074C571.6734,-118.2527 531.6055,-105.1881 500,-87 470.7254,-70.1533 441.6228,-43.7525 424.2211,-26.6618"/>
<polygon fill="#191970" stroke="#191970" points="426.6368,-24.1277 417.0905,-19.5321 421.6873,-29.0778 426.6368,-24.1277"/>
</g>
<!-- Node11 -->
<g id="node12" class="node">
<title>Node11</title>
<polygon fill="none" stroke="#bfbfbf" points="599,-62 599,-81 655,-81 655,-62 599,-62"/>
<text text-anchor="middle" x="627" y="-69" font-family="Helvetica,sans-Serif" font-size="10.00" fill="#000000">sstream</text>
</g>
<!-- Node7&#45;&gt;Node11 -->
<g id="edge11" class="edge">
<title>Node7&#45;&gt;Node11</title>
<path fill="none" stroke="#191970" d="M627,-123.3906C627,-114.8657 627,-102.1392 627,-91.4235"/>
<polygon fill="#191970" stroke="#191970" points="630.5001,-91.2448 627,-81.2449 623.5001,-91.2449 630.5001,-91.2448"/>
</g>
<!-- Node7&#45;&gt;Node12 -->
<g id="edge12" class="edge">
<title>Node7&#45;&gt;Node12</title>
<path fill="none" stroke="#191970" d="M655.6616,-130.8494C732.927,-124.8483 944.1959,-107.0397 1011,-87 1012.6642,-86.5008 1014.3474,-85.917 1016.0241,-85.274"/>
<polygon fill="#191970" stroke="#191970" points="1017.6587,-88.3778 1025.3789,-81.1219 1014.8189,-81.9797 1017.6587,-88.3778"/>
</g>
<!-- Node13 -->
<g id="node14" class="node">
<title>Node13</title>
<polygon fill="none" stroke="#bfbfbf" points="673,-62 673,-81 721,-81 721,-62 673,-62"/>
<text text-anchor="middle" x="697" y="-69" font-family="Helvetica,sans-Serif" font-size="10.00" fill="#000000">thread</text>
</g>
<!-- Node7&#45;&gt;Node13 -->
<g id="edge13" class="edge">
<title>Node7&#45;&gt;Node13</title>
<path fill="none" stroke="#191970" d="M637.9375,-123.3906C648.662,-113.9683 665.2287,-99.4134 678.0901,-88.1137"/>
<polygon fill="#191970" stroke="#191970" points="680.7059,-90.4745 685.9083,-81.2449 676.0857,-85.2158 680.7059,-90.4745"/>
</g>
<!-- Node14 -->
<g id="node15" class="node">
<title>Node14</title>
<polygon fill="none" stroke="#bfbfbf" points="453.5,-.5 453.5,-19.5 522.5,-19.5 522.5,-.5 453.5,-.5"/>
<text text-anchor="middle" x="488" y="-7.5" font-family="Helvetica,sans-Serif" font-size="10.00" fill="#000000">type_traits</text>
</g>
<!-- Node7&#45;&gt;Node14 -->
<g id="edge14" class="edge">
<title>Node7&#45;&gt;Node14</title>
<path fill="none" stroke="#191970" d="M598.0494,-126.0586C575.4464,-119.3518 544.5322,-107.1798 524,-87 507.8553,-71.1324 498.1328,-46.6337 492.9328,-29.5449"/>
<polygon fill="#191970" stroke="#191970" points="496.2035,-28.2432 490.1467,-19.5504 489.4606,-30.1229 496.2035,-28.2432"/>
</g>
<!-- Node15 -->
<g id="node16" class="node">
<title>Node15</title>
<polygon fill="none" stroke="#bfbfbf" points="739,-56.5 739,-86.5 861,-86.5 861,-56.5 739,-56.5"/>
<text text-anchor="start" x="747" y="-74.5" font-family="Helvetica,sans-Serif" font-size="10.00" fill="#000000">boost/iterator/iterator</text>
<text text-anchor="middle" x="800" y="-63.5" font-family="Helvetica,sans-Serif" font-size="10.00" fill="#000000">_facade.hpp</text>
</g>
<!-- Node7&#45;&gt;Node15 -->
<g id="edge15" class="edge">
<title>Node7&#45;&gt;Node15</title>
<path fill="none" stroke="#191970" d="M654.0313,-123.3906C679.0706,-114.4893 716.9957,-101.0073 747.9129,-90.0165"/>
<polygon fill="#191970" stroke="#191970" points="749.4295,-93.192 757.6794,-86.5446 747.0847,-86.5964 749.4295,-93.192"/>
</g>
<!-- Node16 -->
<g id="node17" class="node">
<title>Node16</title>
<polygon fill="none" stroke="#bfbfbf" points="879.5,-62 879.5,-81 938.5,-81 938.5,-62 879.5,-62"/>
<text text-anchor="middle" x="909" y="-69" font-family="Helvetica,sans-Serif" font-size="10.00" fill="#000000">sqlite3.h</text>
</g>
<!-- Node7&#45;&gt;Node16 -->
<g id="edge16" class="edge">
<title>Node7&#45;&gt;Node16</title>
<path fill="none" stroke="#191970" d="M655.8177,-128.2568C711.0772,-119.0441 830.0045,-98.6175 870,-87 872.4489,-86.2887 874.9571,-85.4821 877.4627,-84.6197"/>
<polygon fill="#191970" stroke="#191970" points="878.817,-87.8506 886.9824,-81.0996 876.3892,-81.2851 878.817,-87.8506"/>
</g>
<!-- Node17 -->
<g id="node18" class="node">
<title>Node17</title>
<polygon fill="none" stroke="#bfbfbf" points="956.5,-62 956.5,-81 1001.5,-81 1001.5,-62 956.5,-62"/>
<text text-anchor="middle" x="979" y="-69" font-family="Helvetica,sans-Serif" font-size="10.00" fill="#000000">utility</text>
</g>
<!-- Node7&#45;&gt;Node17 -->
<g id="edge17" class="edge">
<title>Node7&#45;&gt;Node17</title>
<path fill="none" stroke="#191970" d="M655.5811,-131.968C712.4897,-129.2512 843.4874,-119.6723 948,-87 949.6583,-86.4816 951.3369,-85.8829 953.0102,-85.2287"/>
<polygon fill="#191970" stroke="#191970" points="954.6578,-88.3259 962.3558,-81.0463 951.7984,-81.9365 954.6578,-88.3259"/>
</g>
<!-- Node18 -->
<g id="node19" class="node">
<title>Node18</title>
<g id="a_node19"><a xlink:href="utils_8h.html" target="_top" xlink:title="utils.h">
<polygon fill="none" stroke="#000000" points="533.5,-62 533.5,-81 580.5,-81 580.5,-62 533.5,-62"/>
<text text-anchor="middle" x="557" y="-69" font-family="Helvetica,sans-Serif" font-size="10.00" fill="#000000">utils.h</text>
</a>
</g>
</g>
<!-- Node7&#45;&gt;Node18 -->
<g id="edge18" class="edge">
<title>Node7&#45;&gt;Node18</title>
<path fill="none" stroke="#191970" d="M616.0625,-123.3906C605.338,-113.9683 588.7713,-99.4134 575.9099,-88.1137"/>
<polygon fill="#191970" stroke="#191970" points="577.9143,-85.2158 568.0917,-81.2449 573.2941,-90.4745 577.9143,-85.2158"/>
</g>
<!-- Node18&#45;&gt;Node10 -->
<g id="edge22" class="edge">
<title>Node18&#45;&gt;Node10</title>
<path fill="none" stroke="#191970" d="M533.7188,-61.8906C508.679,-51.5554 468.6775,-35.0447 440.534,-23.4284"/>
<polygon fill="#191970" stroke="#191970" points="441.6967,-20.122 431.1178,-19.5419 439.026,-26.5925 441.6967,-20.122"/>
</g>
<!-- Node18&#45;&gt;Node14 -->
<g id="edge23" class="edge">
<title>Node18&#45;&gt;Node14</title>
<path fill="none" stroke="#191970" d="M546.2188,-61.8906C535.6474,-52.4683 519.3175,-37.9134 506.6397,-26.6137"/>
<polygon fill="#191970" stroke="#191970" points="508.7272,-23.7858 498.9333,-19.7449 504.0696,-29.0114 508.7272,-23.7858"/>
</g>
<!-- Node19 -->
<g id="node20" class="node">
<title>Node19</title>
<polygon fill="none" stroke="#bfbfbf" points="541,-.5 541,-19.5 605,-19.5 605,-.5 541,-.5"/>
<text text-anchor="middle" x="573" y="-7.5" font-family="Helvetica,sans-Serif" font-size="10.00" fill="#000000">algorithm</text>
</g>
<!-- Node18&#45;&gt;Node19 -->
<g id="edge19" class="edge">
<title>Node18&#45;&gt;Node19</title>
<path fill="none" stroke="#191970" d="M559.5,-61.8906C561.7412,-53.276 565.0986,-40.3708 567.9045,-29.5858"/>
<polygon fill="#191970" stroke="#191970" points="571.3341,-30.304 570.4648,-19.7449 564.5596,-28.5414 571.3341,-30.304"/>
</g>
<!-- Node20 -->
<g id="node21" class="node">
<title>Node20</title>
<polygon fill="none" stroke="#bfbfbf" points="623.5,-.5 623.5,-19.5 682.5,-19.5 682.5,-.5 623.5,-.5"/>
<text text-anchor="middle" x="653" y="-7.5" font-family="Helvetica,sans-Serif" font-size="10.00" fill="#000000">complex</text>
</g>
<!-- Node18&#45;&gt;Node20 -->
<g id="edge20" class="edge">
<title>Node18&#45;&gt;Node20</title>
<path fill="none" stroke="#191970" d="M572,-61.8906C587.3581,-52.0519 611.4521,-36.6167 629.3745,-25.1351"/>
<polygon fill="#191970" stroke="#191970" points="631.573,-27.8833 638.1053,-19.5419 627.797,-21.9891 631.573,-27.8833"/>
</g>
<!-- Node21 -->
<g id="node22" class="node">
<title>Node21</title>
<polygon fill="none" stroke="#bfbfbf" points="700.5,-.5 700.5,-19.5 765.5,-19.5 765.5,-.5 700.5,-.5"/>
<text text-anchor="middle" x="733" y="-7.5" font-family="Helvetica,sans-Serif" font-size="10.00" fill="#000000">functional</text>
</g>
<!-- Node18&#45;&gt;Node21 -->
<g id="edge21" class="edge">
<title>Node18&#45;&gt;Node21</title>
<path fill="none" stroke="#191970" d="M576.363,-61.9015C580.7972,-59.8449 585.524,-57.7627 590,-56 623.3189,-42.8783 662.0353,-30.5989 690.7735,-22.0333"/>
<polygon fill="#191970" stroke="#191970" points="691.8971,-25.351 700.4972,-19.1631 689.9154,-18.6373 691.8971,-25.351"/>
</g>
<!-- Node22 -->
<g id="node23" class="node">
<title>Node22</title>
<polygon fill="none" stroke="#bfbfbf" points="784,-.5 784,-19.5 840,-19.5 840,-.5 784,-.5"/>
<text text-anchor="middle" x="812" y="-7.5" font-family="Helvetica,sans-Serif" font-size="10.00" fill="#000000">unistd.h</text>
</g>
<!-- Node18&#45;&gt;Node22 -->
<g id="edge24" class="edge">
<title>Node18&#45;&gt;Node22</title>
<path fill="none" stroke="#191970" d="M575.1736,-61.9852C579.9072,-59.7806 585.0661,-57.6113 590,-56 666.6712,-30.9614 691.563,-38.324 773.9794,-20.0801"/>
<polygon fill="#191970" stroke="#191970" points="774.7961,-23.4838 783.7709,-17.8534 773.2437,-16.6581 774.7961,-23.4838"/>
</g>
<!-- Node24 -->
<g id="node25" class="node">
<title>Node24</title>
<polygon fill="none" stroke="#bfbfbf" points="1401.5,-62 1401.5,-81 1478.5,-81 1478.5,-62 1401.5,-62"/>
<text text-anchor="middle" x="1440" y="-69" font-family="Helvetica,sans-Serif" font-size="10.00" fill="#000000">Eigen/Dense</text>
</g>
<!-- Node23&#45;&gt;Node24 -->
<g id="edge26" class="edge">
<title>Node23&#45;&gt;Node24</title>
<path fill="none" stroke="#191970" d="M1276.6773,-123.7768C1306.2028,-114.5709 1352.7835,-99.9663 1393,-87 1395.7599,-86.1102 1398.609,-85.1856 1401.4758,-84.2508"/>
<polygon fill="#191970" stroke="#191970" points="1402.7736,-87.5088 1411.187,-81.0695 1400.5943,-80.8566 1402.7736,-87.5088"/>
</g>
<!-- Node25 -->
<g id="node26" class="node">
<title>Node25</title>
<polygon fill="none" stroke="#bfbfbf" points="1082,-62 1082,-81 1162,-81 1162,-62 1082,-62"/>
<text text-anchor="middle" x="1122" y="-69" font-family="Helvetica,sans-Serif" font-size="10.00" fill="#000000">Eigen/Sparse</text>
</g>
<!-- Node23&#45;&gt;Node25 -->
<g id="edge27" class="edge">
<title>Node23&#45;&gt;Node25</title>
<path fill="none" stroke="#191970" d="M1227.4688,-123.3906C1206.8292,-113.2359 1174.0724,-97.1196 1150.5398,-85.5416"/>
<polygon fill="#191970" stroke="#191970" points="1151.912,-82.3161 1141.3941,-81.0419 1148.8218,-88.5971 1151.912,-82.3161"/>
</g>
<!-- Node26 -->
<g id="node27" class="node">
<title>Node26</title>
<polygon fill="none" stroke="#bfbfbf" points="1180,-62 1180,-81 1222,-81 1222,-62 1180,-62"/>
<text text-anchor="middle" x="1201" y="-69" font-family="Helvetica,sans-Serif" font-size="10.00" fill="#000000">array</text>
</g>
<!-- Node23&#45;&gt;Node26 -->
<g id="edge28" class="edge">
<title>Node23&#45;&gt;Node26</title>
<path fill="none" stroke="#191970" d="M1239.8125,-123.3906C1233.0334,-114.3273 1222.7022,-100.5149 1214.4027,-89.4188"/>
<polygon fill="#191970" stroke="#191970" points="1217.0812,-87.1563 1208.2888,-81.2449 1211.4757,-91.349 1217.0812,-87.1563"/>
</g>
<!-- Node23&#45;&gt;Node27 -->
<g id="edge29" class="edge">
<title>Node23&#45;&gt;Node27</title>
<path fill="none" stroke="#191970" d="M1276.7704,-131.5036C1332.2472,-128.0673 1454.7217,-117.4161 1553,-87 1554.8576,-86.4251 1556.7425,-85.757 1558.6199,-85.0274"/>
<polygon fill="#191970" stroke="#191970" points="1560.0284,-88.2315 1567.7832,-81.0126 1557.2192,-81.8199 1560.0284,-88.2315"/>
</g>
<!-- Node28 -->
<g id="node29" class="node">
<title>Node28</title>
<polygon fill="none" stroke="#bfbfbf" points="1240.5,-56.5 1240.5,-86.5 1383.5,-86.5 1383.5,-56.5 1240.5,-56.5"/>
<text text-anchor="start" x="1248.5" y="-74.5" font-family="Helvetica,sans-Serif" font-size="10.00" fill="#000000">unsupported/Eigen/CXX11</text>
<text text-anchor="middle" x="1312" y="-63.5" font-family="Helvetica,sans-Serif" font-size="10.00" fill="#000000">/Tensor</text>
</g>
<!-- Node23&#45;&gt;Node28 -->
<g id="edge30" class="edge">
<title>Node23&#45;&gt;Node28</title>
<path fill="none" stroke="#191970" d="M1257.1563,-123.3906C1265.5459,-115.4527 1277.7859,-103.8718 1288.5751,-93.6635"/>
<polygon fill="#191970" stroke="#191970" points="1291.2407,-95.9598 1296.0992,-86.5446 1286.4298,-90.875 1291.2407,-95.9598"/>
</g>
<!-- Node23&#45;&gt;Node29 -->
<g id="edge31" class="edge">
<title>Node23&#45;&gt;Node29</title>
<path fill="none" stroke="#191970" d="M1276.5629,-129.8905C1322.6473,-124.4835 1414.0031,-111.5083 1488,-87 1489.6518,-86.4529 1491.3277,-85.8384 1493.0026,-85.1779"/>
<polygon fill="#191970" stroke="#191970" points="1494.6612,-88.2721 1502.4059,-81.0422 1491.843,-81.8644 1494.6612,-88.2721"/>
</g>
</g>
</svg>
        <g id="navigator" transform="translate(0 0)" fill="#404254">
                <rect fill="#f2f5e9" fill-opacity="0.5" stroke="#606060" stroke-width=".5" x="0" y="0" width="60" height="60"/>
                <use id="zoomplus" xlink:href="#zoomPlus" x="17" y="9" onmousedown="handleZoom(evt,'in')"/>
                <use id="zoomminus" xlink:href="#zoomMin" x="42" y="9" onmousedown="handleZoom(evt,'out')"/>
                <use id="reset" xlink:href="#resetDef" x="30" y="36" onmousedown="handleReset()"/>
                <g id="arrowUp" xlink:href="#dirArrow" transform="translate(30 24)" onmousedown="handlePan(0,-1)">
                  <use xlink:href="#rim" fill="#404040">
                        <set attributeName="fill" to="#808080" begin="arrowUp.mouseover" end="arrowUp.mouseout"/>
                  </use>
                  <path fill="none" stroke="white" stroke-width="1.5" d="M0,-3.0v7 M-2.5,-0.5L0,-3.0L2.5,-0.5"/>
                </g>
                <g id="arrowRight" xlink:href="#dirArrow" transform="rotate(90) translate(36 -43)" onmousedown="handlePan(1,0)">
                  <use xlink:href="#rim" fill="#404040">
                        <set attributeName="fill" to="#808080" begin="arrowRight.mouseover" end="arrowRight.mouseout"/>
                  </use>
                  <path fill="none" stroke="white" stroke-width="1.5" d="M0,-3.0v7 M-2.5,-0.5L0,-3.0L2.5,-0.5"/>
                </g>
                <g id="arrowDown" xlink:href="#dirArrow" transform="rotate(180) translate(-30 -48)" onmousedown="handlePan(0,1)">
                  <use xlink:href="#rim" fill="#404040">
                        <set attributeName="fill" to="#808080" begin="arrowDown.mouseover" end="arrowDown.mouseout"/>
                  </use>
                  <path fill="none" stroke="white" stroke-width="1.5" d="M0,-3.0v7 M-2.5,-0.5L0,-3.0L2.5,-0.5"/>
                </g>
                <g id="arrowLeft" xlink:href="#dirArrow" transform="rotate(270) translate(-36 17)" onmousedown="handlePan(-1,0)">
                  <use xlink:href="#rim" fill="#404040">
                        <set attributeName="fill" to="#808080" begin="arrowLeft.mouseover" end="arrowLeft.mouseout"/>
                  </use>
                  <path fill="none" stroke="white" stroke-width="1.5" d="M0,-3.0v7 M-2.5,-0.5L0,-3.0L2.5,-0.5"/>
                </g>
        </g>
        <svg viewBox="0 0 15 15" width="100%" height="30px" preserveAspectRatio="xMaxYMin meet">
         <g id="arrow_out" transform="scale(0.3 0.3)">
          <a xlink:href="Wavefunction_8cpp__incl_org.svg" target="_base">
           <rect id="button" ry="5" rx="5" y="6" x="6" height="38" width="38"
                fill="#f2f5e9" fill-opacity="0.5" stroke="#606060" stroke-width="1.0"/>
           <path id="arrow"
             d="M 11.500037,31.436501 C 11.940474,20.09759 22.043105,11.32322 32.158766,21.979434 L 37.068811,17.246167 C 37.068811,17.246167 37.088388,32 37.088388,32 L 22.160133,31.978069 C 22.160133,31.978069 26.997745,27.140456 26.997745,27.140456 C 18.528582,18.264221 13.291696,25.230495 11.500037,31.436501 z"
             style="fill:#404040;"/>
          </a>
         </g>
        </svg>
</svg>
