<?xml version="1.0" encoding="UTF-8" standalone="no"?>
<!DOCTYPE svg PUBLIC "-//W3C//DTD SVG 1.1//EN"
 "http://www.w3.org/Graphics/SVG/1.1/DTD/svg11.dtd">
<!-- Generated by graphviz version 2.40.1 (20161225.0304)
 -->
<!-- Title: /travis/pairinteraction/WignerD.cpp Pages: 1 -->
<svg width="580pt" height="162pt"
 viewBox="0.00 0.00 579.50 162.00" xmlns="http://www.w3.org/2000/svg" xmlns:xlink="http://www.w3.org/1999/xlink">
<g id="graph0" class="graph" transform="scale(1 1) rotate(0) translate(4 158)">
<title>/travis/pairinteraction/WignerD.cpp</title>
<!-- Node0 -->
<g id="node1" class="node">
<title>Node0</title>
<polygon fill="#bfbfbf" stroke="#000000" points="305,-123.5 305,-153.5 427,-153.5 427,-123.5 305,-123.5"/>
<text text-anchor="start" x="313" y="-141.5" font-family="Helvetica,sans-Serif" font-size="10.00" fill="#000000">/travis/pairinteraction</text>
<text text-anchor="middle" x="366" y="-130.5" font-family="Helvetica,sans-Serif" font-size="10.00" fill="#000000">/WignerD.cpp</text>
</g>
<!-- Node1 -->
<g id="node2" class="node">
<title>Node1</title>
<g id="a_node2"><a xlink:href="WignerD_8h.html" target="_top" xlink:title="WignerD.h">
<polygon fill="none" stroke="#000000" points="332,-67.5 332,-86.5 400,-86.5 400,-67.5 332,-67.5"/>
<text text-anchor="middle" x="366" y="-74.5" font-family="Helvetica,sans-Serif" font-size="10.00" fill="#000000">WignerD.h</text>
</a>
</g>
</g>
<!-- Node0&#45;&gt;Node1 -->
<g id="edge1" class="edge">
<title>Node0&#45;&gt;Node1</title>
<path fill="none" stroke="#191970" d="M366,-123.2977C366,-115.3834 366,-105.6043 366,-97.0759"/>
<polygon fill="#191970" stroke="#191970" points="369.5001,-96.8469 366,-86.8469 362.5001,-96.847 369.5001,-96.8469"/>
</g>
<!-- Node2 -->
<g id="node3" class="node">
<title>Node2</title>
<polygon fill="none" stroke="#bfbfbf" points="0,-.5 0,-30.5 134,-30.5 134,-.5 0,-.5"/>
<text text-anchor="start" x="8" y="-18.5" font-family="Helvetica,sans-Serif" font-size="10.00" fill="#000000">boost/math/special</text>
<text text-anchor="middle" x="67" y="-7.5" font-family="Helvetica,sans-Serif" font-size="10.00" fill="#000000">_functions/binomial.hpp</text>
</g>
<!-- Node1&#45;&gt;Node2 -->
<g id="edge2" class="edge">
<title>Node1&#45;&gt;Node2</title>
<path fill="none" stroke="#191970" d="M331.992,-70.005C286.6101,-60.6706 204.9248,-43.8691 144.2005,-31.379"/>
<polygon fill="#191970" stroke="#191970" points="144.7639,-27.9217 134.2637,-29.3352 143.3535,-34.7782 144.7639,-27.9217"/>
</g>
<!-- Node3 -->
<g id="node4" class="node">
<title>Node3</title>
<polygon fill="none" stroke="#bfbfbf" points="152.5,-.5 152.5,-30.5 289.5,-30.5 289.5,-.5 152.5,-.5"/>
<text text-anchor="start" x="160.5" y="-18.5" font-family="Helvetica,sans-Serif" font-size="10.00" fill="#000000">boost/math/special</text>
<text text-anchor="middle" x="221" y="-7.5" font-family="Helvetica,sans-Serif" font-size="10.00" fill="#000000">_functions/factorials.hpp</text>
</g>
<!-- Node1&#45;&gt;Node3 -->
<g id="edge3" class="edge">
<title>Node1&#45;&gt;Node3</title>
<path fill="none" stroke="#191970" d="M343.3438,-67.3906C322.7204,-58.6435 291.6677,-45.4728 266.0082,-34.5897"/>
<polygon fill="#191970" stroke="#191970" points="267.0438,-31.2272 256.471,-30.5446 264.3105,-37.6715 267.0438,-31.2272"/>
</g>
<!-- Node4 -->
<g id="node5" class="node">
<title>Node4</title>
<polygon fill="none" stroke="#bfbfbf" points="307.5,-6 307.5,-25 354.5,-25 354.5,-6 307.5,-6"/>
<text text-anchor="middle" x="331" y="-13" font-family="Helvetica,sans-Serif" font-size="10.00" fill="#000000">cmath</text>
</g>
<!-- Node1&#45;&gt;Node4 -->
<g id="edge4" class="edge">
<title>Node1&#45;&gt;Node4</title>
<path fill="none" stroke="#191970" d="M360.5313,-67.3906C355.4754,-58.5068 347.8228,-45.0601 341.5746,-34.0811"/>
<polygon fill="#191970" stroke="#191970" points="344.534,-32.2048 336.5459,-25.2449 338.4502,-35.6672 344.534,-32.2048"/>
</g>
<!-- Node5 -->
<g id="node6" class="node">
<title>Node5</title>
<polygon fill="none" stroke="#bfbfbf" points="372.5,-6 372.5,-25 431.5,-25 431.5,-6 372.5,-6"/>
<text text-anchor="middle" x="402" y="-13" font-family="Helvetica,sans-Serif" font-size="10.00" fill="#000000">complex</text>
</g>
<!-- Node1&#45;&gt;Node5 -->
<g id="edge5" class="edge">
<title>Node1&#45;&gt;Node5</title>
<path fill="none" stroke="#191970" d="M371.625,-67.3906C376.8253,-58.5068 384.6966,-45.0601 391.1233,-34.0811"/>
<polygon fill="#191970" stroke="#191970" points="394.2644,-35.6432 396.2957,-25.2449 388.2233,-32.1069 394.2644,-35.6432"/>
</g>
<!-- Node6 -->
<g id="node7" class="node">
<title>Node6</title>
<polygon fill="none" stroke="#bfbfbf" points="450,-6 450,-25 506,-25 506,-6 450,-6"/>
<text text-anchor="middle" x="478" y="-13" font-family="Helvetica,sans-Serif" font-size="10.00" fill="#000000">numeric</text>
</g>
<!-- Node1&#45;&gt;Node6 -->
<g id="edge6" class="edge">
<title>Node1&#45;&gt;Node6</title>
<path fill="none" stroke="#191970" d="M383.5,-67.3906C401.7465,-57.3713 430.5624,-41.5483 451.5806,-30.0071"/>
<polygon fill="#191970" stroke="#191970" points="453.542,-32.923 460.6229,-25.0419 450.1728,-26.7872 453.542,-32.923"/>
</g>
<!-- Node7 -->
<g id="node8" class="node">
<title>Node7</title>
<polygon fill="none" stroke="#bfbfbf" points="524.5,-6 524.5,-25 571.5,-25 571.5,-6 524.5,-6"/>
<text text-anchor="middle" x="548" y="-13" font-family="Helvetica,sans-Serif" font-size="10.00" fill="#000000">vector</text>
</g>
<!-- Node1&#45;&gt;Node7 -->
<g id="edge7" class="edge">
<title>Node1&#45;&gt;Node7</title>
<path fill="none" stroke="#191970" d="M400.1915,-67.9133C430.6939,-59.4615 476.371,-45.9507 515,-31 516.402,-30.4574 517.8278,-29.8821 519.2611,-29.2848"/>
<polygon fill="#191970" stroke="#191970" points="520.9184,-32.379 528.6523,-25.1376 518.0906,-25.9756 520.9184,-32.379"/>
</g>
</g>
</svg>
